<?xml version="1.0"?>
<svg xmlns="http://www.w3.org/2000/svg" xmlns:xlink="http://www.w3.org/1999/xlink" viewBox="0 0 520.000000 252.000000" width="260.000000mm" height="126.000000mm" version="1.1">
<rect x="1.000000" y="1.000000" width="519.000000" height="251.000000" rx="0" ry="0" style="stroke:none;fill:#cccccc;"/>
<rect x="0.000000" y="0.000000" width="519.000000" height="251.000000" rx="0" ry="0" style="stroke:none;fill:#ffffff;"/>
<text x="10.000000" y="7.000000" font-family="Arial" font-size="7"></text>
<rect x="43.000000" y="115.000000" width="24.000000" height="24.000000" rx="0" ry="0" style="stroke:none;fill:#cccccc;"/>
<rect x="42.000000" y="114.000000" width="24.000000" height="24.000000" rx="0" ry="0" style="stroke:none;fill:#47945E;"/>
<text x="54.000000" y="128.000000" font-family="Arial" font-size="7" text-anchor="middle" fill="#FFFFFF">x</text>
<circle cx="44.000000" cy="116.000000" r="1"/>
<line x1="39.000000" y1="125.000000" x2="42.000000" y2="126.000000"  transform="rotate(0.000000,42.000000,126.000000)" style="stroke: black; stroke-width:0.25;"/>
<line x1="39.000000" y1="127.000000" x2="42.000000" y2="126.000000"  transform="rotate(0.000000,42.000000,126.000000)" style="stroke: black; stroke-width:0.25;"/>
<rect x="83.650000" y="35.000000" width="38.700000" height="24.000000" rx="0" ry="0" style="stroke:none;fill:#cccccc;"/>
<rect x="82.650000" y="34.000000" width="38.700000" height="24.000000" rx="0" ry="0" style="stroke:none;fill:#f44800;"/>
<text x="102.000000" y="48.000000" font-family="Arial" font-size="7" text-anchor="middle" fill="#FFFFFF">0.0495753</text>
<circle cx="84.650000" cy="36.000000" r="1"/>
<rect x="91.000000" y="67.000000" width="24.000000" height="24.000000" rx="0" ry="0" style="stroke:none;fill:#cccccc;"/>
<rect x="90.000000" y="66.000000" width="24.000000" height="24.000000" rx="0" ry="0" style="stroke:none;fill:#47945E;"/>
<text x="102.000000" y="80.000000" font-family="Arial" font-size="7" text-anchor="middle" fill="#FFFFFF">x</text>
<circle cx="92.000000" cy="68.000000" r="1"/>
<rect x="138.350000" y="51.000000" width="24.000000" height="24.000000" rx="0" ry="0" style="stroke:none;fill:#cccccc;"/>
<rect x="137.350000" y="50.000000" width="24.000000" height="24.000000" rx="0" ry="0" style="stroke:none;fill:#4B71A1;"/>
<text x="149.350000" y="64.000000" font-family="Arial" font-size="7" text-anchor="middle" fill="#FFFFFF">*</text>
<circle cx="139.350000" cy="52.000000" r="1"/>
<line x1="134.350000" y1="57.000000" x2="137.350000" y2="58.000000"  transform="rotate(0.000000,137.350000,58.000000)" style="stroke: black; stroke-width:0.25;"/>
<line x1="134.350000" y1="59.000000" x2="137.350000" y2="58.000000"  transform="rotate(0.000000,137.350000,58.000000)" style="stroke: black; stroke-width:0.25;"/>
<line x1="134.350000" y1="65.000000" x2="137.350000" y2="66.000000"  transform="rotate(0.000000,137.350000,66.000000)" style="stroke: black; stroke-width:0.25;"/>
<line x1="134.350000" y1="67.000000" x2="137.350000" y2="66.000000"  transform="rotate(0.000000,137.350000,66.000000)" style="stroke: black; stroke-width:0.25;"/>
<rect x="83.650000" y="99.000000" width="38.700000" height="24.000000" rx="0" ry="0" style="stroke:none;fill:#cccccc;"/>
<rect x="82.650000" y="98.000000" width="38.700000" height="24.000000" rx="0" ry="0" style="stroke:none;fill:#f44800;"/>
<text x="102.000000" y="112.000000" font-family="Arial" font-size="7" text-anchor="middle" fill="#FFFFFF">0.0630558</text>
<circle cx="84.650000" cy="100.000000" r="1"/>
<rect x="75.000000" y="131.000000" width="24.000000" height="24.000000" rx="0" ry="0" style="stroke:none;fill:#cccccc;"/>
<rect x="74.000000" y="130.000000" width="24.000000" height="24.000000" rx="0" ry="0" style="stroke:none;fill:#47945E;"/>
<text x="86.000000" y="144.000000" font-family="Arial" font-size="7" text-anchor="middle" fill="#FFFFFF">x</text>
<circle cx="76.000000" cy="132.000000" r="1"/>
<rect x="107.000000" y="131.000000" width="24.000000" height="24.000000" rx="0" ry="0" style="stroke:none;fill:#cccccc;"/>
<rect x="106.000000" y="130.000000" width="24.000000" height="24.000000" rx="0" ry="0" style="stroke:none;fill:#4B71A1;"/>
<text x="118.000000" y="144.000000" font-family="Arial" font-size="7" text-anchor="middle" fill="#FFFFFF">mem</text>
<circle cx="108.000000" cy="132.000000" r="1"/>
<line x1="103.000000" y1="141.000000" x2="106.000000" y2="142.000000"  transform="rotate(0.000000,106.000000,142.000000)" style="stroke: black; stroke-width:0.25;"/>
<line x1="103.000000" y1="143.000000" x2="106.000000" y2="142.000000"  transform="rotate(0.000000,106.000000,142.000000)" style="stroke: black; stroke-width:0.25;"/>
<rect x="147.000000" y="115.000000" width="24.000000" height="24.000000" rx="0" ry="0" style="stroke:none;fill:#cccccc;"/>
<rect x="146.000000" y="114.000000" width="24.000000" height="24.000000" rx="0" ry="0" style="stroke:none;fill:#4B71A1;"/>
<text x="158.000000" y="128.000000" font-family="Arial" font-size="7" text-anchor="middle" fill="#FFFFFF">*</text>
<circle cx="148.000000" cy="116.000000" r="1"/>
<line x1="143.000000" y1="121.000000" x2="146.000000" y2="122.000000"  transform="rotate(0.000000,146.000000,122.000000)" style="stroke: black; stroke-width:0.25;"/>
<line x1="143.000000" y1="123.000000" x2="146.000000" y2="122.000000"  transform="rotate(0.000000,146.000000,122.000000)" style="stroke: black; stroke-width:0.25;"/>
<line x1="143.000000" y1="129.000000" x2="146.000000" y2="130.000000"  transform="rotate(0.000000,146.000000,130.000000)" style="stroke: black; stroke-width:0.25;"/>
<line x1="143.000000" y1="131.000000" x2="146.000000" y2="130.000000"  transform="rotate(0.000000,146.000000,130.000000)" style="stroke: black; stroke-width:0.25;"/>
<rect x="187.000000" y="83.000000" width="24.000000" height="24.000000" rx="0" ry="0" style="stroke:none;fill:#cccccc;"/>
<rect x="186.000000" y="82.000000" width="24.000000" height="24.000000" rx="0" ry="0" style="stroke:none;fill:#4B71A1;"/>
<text x="198.000000" y="96.000000" font-family="Arial" font-size="7" text-anchor="middle" fill="#FFFFFF">-</text>
<circle cx="188.000000" cy="84.000000" r="1"/>
<line x1="183.000000" y1="89.000000" x2="186.000000" y2="90.000000"  transform="rotate(0.000000,186.000000,90.000000)" style="stroke: black; stroke-width:0.25;"/>
<line x1="183.000000" y1="91.000000" x2="186.000000" y2="90.000000"  transform="rotate(0.000000,186.000000,90.000000)" style="stroke: black; stroke-width:0.25;"/>
<line x1="183.000000" y1="97.000000" x2="186.000000" y2="98.000000"  transform="rotate(0.000000,186.000000,98.000000)" style="stroke: black; stroke-width:0.25;"/>
<line x1="183.000000" y1="99.000000" x2="186.000000" y2="98.000000"  transform="rotate(0.000000,186.000000,98.000000)" style="stroke: black; stroke-width:0.25;"/>
<rect x="103.650000" y="163.000000" width="38.700000" height="24.000000" rx="0" ry="0" style="stroke:none;fill:#cccccc;"/>
<rect x="102.650000" y="162.000000" width="38.700000" height="24.000000" rx="0" ry="0" style="stroke:none;fill:#f44800;"/>
<text x="122.000000" y="176.000000" font-family="Arial" font-size="7" text-anchor="middle" fill="#FFFFFF">0.0148322</text>
<circle cx="104.650000" cy="164.000000" r="1"/>
<rect x="79.000000" y="195.000000" width="24.000000" height="24.000000" rx="0" ry="0" style="stroke:none;fill:#cccccc;"/>
<rect x="78.000000" y="194.000000" width="24.000000" height="24.000000" rx="0" ry="0" style="stroke:none;fill:#47945E;"/>
<text x="90.000000" y="208.000000" font-family="Arial" font-size="7" text-anchor="middle" fill="#FFFFFF">x</text>
<circle cx="80.000000" cy="196.000000" r="1"/>
<rect x="111.000000" y="195.000000" width="24.000000" height="24.000000" rx="0" ry="0" style="stroke:none;fill:#cccccc;"/>
<rect x="110.000000" y="194.000000" width="24.000000" height="24.000000" rx="0" ry="0" style="stroke:none;fill:#4B71A1;"/>
<text x="122.000000" y="208.000000" font-family="Arial" font-size="7" text-anchor="middle" fill="#FFFFFF">mem</text>
<circle cx="112.000000" cy="196.000000" r="1"/>
<line x1="107.000000" y1="205.000000" x2="110.000000" y2="206.000000"  transform="rotate(0.000000,110.000000,206.000000)" style="stroke: black; stroke-width:0.25;"/>
<line x1="107.000000" y1="207.000000" x2="110.000000" y2="206.000000"  transform="rotate(0.000000,110.000000,206.000000)" style="stroke: black; stroke-width:0.25;"/>
<rect x="143.000000" y="195.000000" width="24.000000" height="24.000000" rx="0" ry="0" style="stroke:none;fill:#cccccc;"/>
<rect x="142.000000" y="194.000000" width="24.000000" height="24.000000" rx="0" ry="0" style="stroke:none;fill:#4B71A1;"/>
<text x="154.000000" y="208.000000" font-family="Arial" font-size="7" text-anchor="middle" fill="#FFFFFF">mem</text>
<circle cx="144.000000" cy="196.000000" r="1"/>
<line x1="139.000000" y1="205.000000" x2="142.000000" y2="206.000000"  transform="rotate(0.000000,142.000000,206.000000)" style="stroke: black; stroke-width:0.25;"/>
<line x1="139.000000" y1="207.000000" x2="142.000000" y2="206.000000"  transform="rotate(0.000000,142.000000,206.000000)" style="stroke: black; stroke-width:0.25;"/>
<rect x="183.000000" y="179.000000" width="24.000000" height="24.000000" rx="0" ry="0" style="stroke:none;fill:#cccccc;"/>
<rect x="182.000000" y="178.000000" width="24.000000" height="24.000000" rx="0" ry="0" style="stroke:none;fill:#4B71A1;"/>
<text x="194.000000" y="192.000000" font-family="Arial" font-size="7" text-anchor="middle" fill="#FFFFFF">*</text>
<circle cx="184.000000" cy="180.000000" r="1"/>
<line x1="179.000000" y1="185.000000" x2="182.000000" y2="186.000000"  transform="rotate(0.000000,182.000000,186.000000)" style="stroke: black; stroke-width:0.25;"/>
<line x1="179.000000" y1="187.000000" x2="182.000000" y2="186.000000"  transform="rotate(0.000000,182.000000,186.000000)" style="stroke: black; stroke-width:0.25;"/>
<line x1="179.000000" y1="193.000000" x2="182.000000" y2="194.000000"  transform="rotate(0.000000,182.000000,194.000000)" style="stroke: black; stroke-width:0.25;"/>
<line x1="179.000000" y1="195.000000" x2="182.000000" y2="194.000000"  transform="rotate(0.000000,182.000000,194.000000)" style="stroke: black; stroke-width:0.25;"/>
<rect x="227.000000" y="115.000000" width="24.000000" height="24.000000" rx="0" ry="0" style="stroke:none;fill:#cccccc;"/>
<rect x="226.000000" y="114.000000" width="24.000000" height="24.000000" rx="0" ry="0" style="stroke:none;fill:#4B71A1;"/>
<text x="238.000000" y="128.000000" font-family="Arial" font-size="7" text-anchor="middle" fill="#FFFFFF">+</text>
<circle cx="228.000000" cy="116.000000" r="1"/>
<line x1="223.000000" y1="121.000000" x2="226.000000" y2="122.000000"  transform="rotate(0.000000,226.000000,122.000000)" style="stroke: black; stroke-width:0.25;"/>
<line x1="223.000000" y1="123.000000" x2="226.000000" y2="122.000000"  transform="rotate(0.000000,226.000000,122.000000)" style="stroke: black; stroke-width:0.25;"/>
<line x1="223.000000" y1="129.000000" x2="226.000000" y2="130.000000"  transform="rotate(0.000000,226.000000,130.000000)" style="stroke: black; stroke-width:0.25;"/>
<line x1="223.000000" y1="131.000000" x2="226.000000" y2="130.000000"  transform="rotate(0.000000,226.000000,130.000000)" style="stroke: black; stroke-width:0.25;"/>
<line x1="33.000000" y1="25.000000" x2="33.000000" y2="227.000000"  style="stroke: black; stroke-linecap:round; stroke-width:0.25; stroke-dasharray:3,3;"/>
<line x1="33.000000" y1="227.000000" x2="259.000000" y2="227.000000"  style="stroke: black; stroke-linecap:round; stroke-width:0.25; stroke-dasharray:3,3;"/>
<line x1="259.000000" y1="227.000000" x2="259.000000" y2="25.000000"  style="stroke: black; stroke-linecap:round; stroke-width:0.25; stroke-dasharray:3,3;"/>
<line x1="33.000000" y1="25.000000" x2="38.000000" y2="25.000000"  style="stroke: black; stroke-linecap:round; stroke-width:0.25; stroke-dasharray:3,3;"/>
<line x1="47.675000" y1="25.000000" x2="259.000000" y2="25.000000"  style="stroke: black; stroke-linecap:round; stroke-width:0.25; stroke-dasharray:3,3;"/>
<text x="38.000000" y="27.000000" font-family="Arial" font-size="7">f</text>
<rect x="367.000000" y="189.000000" width="24.000000" height="24.000000" rx="0" ry="0" style="stroke:none;fill:#cccccc;"/>
<rect x="366.000000" y="188.000000" width="24.000000" height="24.000000" rx="0" ry="0" style="stroke:none;fill:#4B71A1;"/>
<text x="378.000000" y="202.000000" font-family="Arial" font-size="7" text-anchor="middle" fill="#FFFFFF">+</text>
<circle cx="368.000000" cy="190.000000" r="1"/>
<line x1="363.000000" y1="195.000000" x2="366.000000" y2="196.000000"  transform="rotate(0.000000,366.000000,196.000000)" style="stroke: black; stroke-width:0.25;"/>
<line x1="363.000000" y1="197.000000" x2="366.000000" y2="196.000000"  transform="rotate(0.000000,366.000000,196.000000)" style="stroke: black; stroke-width:0.25;"/>
<line x1="363.000000" y1="203.000000" x2="366.000000" y2="204.000000"  transform="rotate(0.000000,366.000000,204.000000)" style="stroke: black; stroke-width:0.25;"/>
<line x1="363.000000" y1="205.000000" x2="366.000000" y2="204.000000"  transform="rotate(0.000000,366.000000,204.000000)" style="stroke: black; stroke-width:0.25;"/>
<rect x="439.000000" y="99.000000" width="24.000000" height="24.000000" rx="0" ry="0" style="stroke:none;fill:#cccccc;"/>
<rect x="438.000000" y="98.000000" width="24.000000" height="24.000000" rx="0" ry="0" style="stroke:none;fill:#47945E;"/>
<text x="450.000000" y="112.000000" font-family="Arial" font-size="7" text-anchor="middle" fill="#FFFFFF">x</text>
<circle cx="460.000000" cy="120.000000" r="1"/>
<line x1="465.000000" y1="109.000000" x2="462.000000" y2="110.000000"  transform="rotate(0.000000,462.000000,110.000000)" style="stroke: black; stroke-width:0.25;"/>
<line x1="465.000000" y1="111.000000" x2="462.000000" y2="110.000000"  transform="rotate(0.000000,462.000000,110.000000)" style="stroke: black; stroke-width:0.25;"/>
<rect x="383.650000" y="147.000000" width="38.700000" height="24.000000" rx="0" ry="0" style="stroke:none;fill:#cccccc;"/>
<rect x="382.650000" y="146.000000" width="38.700000" height="24.000000" rx="0" ry="0" style="stroke:none;fill:#f44800;"/>
<text x="402.000000" y="160.000000" font-family="Arial" font-size="7" text-anchor="middle" fill="#FFFFFF">1.80116</text>
<circle cx="419.350000" cy="168.000000" r="1"/>
<rect x="391.000000" y="115.000000" width="24.000000" height="24.000000" rx="0" ry="0" style="stroke:none;fill:#cccccc;"/>
<rect x="390.000000" y="114.000000" width="24.000000" height="24.000000" rx="0" ry="0" style="stroke:none;fill:#47945E;"/>
<text x="402.000000" y="128.000000" font-family="Arial" font-size="7" text-anchor="middle" fill="#FFFFFF">x</text>
<circle cx="412.000000" cy="136.000000" r="1"/>
<rect x="343.650000" y="131.000000" width="24.000000" height="24.000000" rx="0" ry="0" style="stroke:none;fill:#cccccc;"/>
<rect x="342.650000" y="130.000000" width="24.000000" height="24.000000" rx="0" ry="0" style="stroke:none;fill:#4B71A1;"/>
<text x="354.650000" y="144.000000" font-family="Arial" font-size="7" text-anchor="middle" fill="#FFFFFF">*</text>
<circle cx="364.650000" cy="152.000000" r="1"/>
<line x1="369.650000" y1="145.000000" x2="366.650000" y2="146.000000"  transform="rotate(0.000000,366.650000,146.000000)" style="stroke: black; stroke-width:0.25;"/>
<line x1="369.650000" y1="147.000000" x2="366.650000" y2="146.000000"  transform="rotate(0.000000,366.650000,146.000000)" style="stroke: black; stroke-width:0.25;"/>
<line x1="369.650000" y1="137.000000" x2="366.650000" y2="138.000000"  transform="rotate(0.000000,366.650000,138.000000)" style="stroke: black; stroke-width:0.25;"/>
<line x1="369.650000" y1="139.000000" x2="366.650000" y2="138.000000"  transform="rotate(0.000000,366.650000,138.000000)" style="stroke: black; stroke-width:0.25;"/>
<rect x="383.650000" y="83.000000" width="38.700000" height="24.000000" rx="0" ry="0" style="stroke:none;fill:#cccccc;"/>
<rect x="382.650000" y="82.000000" width="38.700000" height="24.000000" rx="0" ry="0" style="stroke:none;fill:#f44800;"/>
<text x="402.000000" y="96.000000" font-family="Arial" font-size="7" text-anchor="middle" fill="#FFFFFF">0.802577</text>
<circle cx="419.350000" cy="104.000000" r="1"/>
<rect x="407.000000" y="51.000000" width="24.000000" height="24.000000" rx="0" ry="0" style="stroke:none;fill:#cccccc;"/>
<rect x="406.000000" y="50.000000" width="24.000000" height="24.000000" rx="0" ry="0" style="stroke:none;fill:#47945E;"/>
<text x="418.000000" y="64.000000" font-family="Arial" font-size="7" text-anchor="middle" fill="#FFFFFF">x</text>
<circle cx="428.000000" cy="72.000000" r="1"/>
<rect x="375.000000" y="51.000000" width="24.000000" height="24.000000" rx="0" ry="0" style="stroke:none;fill:#cccccc;"/>
<rect x="374.000000" y="50.000000" width="24.000000" height="24.000000" rx="0" ry="0" style="stroke:none;fill:#4B71A1;"/>
<text x="386.000000" y="64.000000" font-family="Arial" font-size="7" text-anchor="middle" fill="#FFFFFF">mem</text>
<circle cx="396.000000" cy="72.000000" r="1"/>
<line x1="401.000000" y1="61.000000" x2="398.000000" y2="62.000000"  transform="rotate(0.000000,398.000000,62.000000)" style="stroke: black; stroke-width:0.25;"/>
<line x1="401.000000" y1="63.000000" x2="398.000000" y2="62.000000"  transform="rotate(0.000000,398.000000,62.000000)" style="stroke: black; stroke-width:0.25;"/>
<rect x="335.000000" y="67.000000" width="24.000000" height="24.000000" rx="0" ry="0" style="stroke:none;fill:#cccccc;"/>
<rect x="334.000000" y="66.000000" width="24.000000" height="24.000000" rx="0" ry="0" style="stroke:none;fill:#4B71A1;"/>
<text x="346.000000" y="80.000000" font-family="Arial" font-size="7" text-anchor="middle" fill="#FFFFFF">*</text>
<circle cx="356.000000" cy="88.000000" r="1"/>
<line x1="361.000000" y1="81.000000" x2="358.000000" y2="82.000000"  transform="rotate(0.000000,358.000000,82.000000)" style="stroke: black; stroke-width:0.25;"/>
<line x1="361.000000" y1="83.000000" x2="358.000000" y2="82.000000"  transform="rotate(0.000000,358.000000,82.000000)" style="stroke: black; stroke-width:0.25;"/>
<line x1="361.000000" y1="73.000000" x2="358.000000" y2="74.000000"  transform="rotate(0.000000,358.000000,74.000000)" style="stroke: black; stroke-width:0.25;"/>
<line x1="361.000000" y1="75.000000" x2="358.000000" y2="74.000000"  transform="rotate(0.000000,358.000000,74.000000)" style="stroke: black; stroke-width:0.25;"/>
<rect x="295.000000" y="99.000000" width="24.000000" height="24.000000" rx="0" ry="0" style="stroke:none;fill:#cccccc;"/>
<rect x="294.000000" y="98.000000" width="24.000000" height="24.000000" rx="0" ry="0" style="stroke:none;fill:#4B71A1;"/>
<text x="306.000000" y="112.000000" font-family="Arial" font-size="7" text-anchor="middle" fill="#FFFFFF">-</text>
<circle cx="316.000000" cy="120.000000" r="1"/>
<line x1="321.000000" y1="113.000000" x2="318.000000" y2="114.000000"  transform="rotate(0.000000,318.000000,114.000000)" style="stroke: black; stroke-width:0.25;"/>
<line x1="321.000000" y1="115.000000" x2="318.000000" y2="114.000000"  transform="rotate(0.000000,318.000000,114.000000)" style="stroke: black; stroke-width:0.25;"/>
<line x1="321.000000" y1="105.000000" x2="318.000000" y2="106.000000"  transform="rotate(0.000000,318.000000,106.000000)" style="stroke: black; stroke-width:0.25;"/>
<line x1="321.000000" y1="107.000000" x2="318.000000" y2="106.000000"  transform="rotate(0.000000,318.000000,106.000000)" style="stroke: black; stroke-width:0.25;"/>
<line x1="285.000000" y1="41.000000" x2="285.000000" y2="179.000000"  style="stroke: black; stroke-linecap:round; stroke-width:0.25; stroke-dasharray:3,3;"/>
<line x1="285.000000" y1="179.000000" x2="471.000000" y2="179.000000"  style="stroke: black; stroke-linecap:round; stroke-width:0.25; stroke-dasharray:3,3;"/>
<line x1="471.000000" y1="179.000000" x2="471.000000" y2="41.000000"  style="stroke: black; stroke-linecap:round; stroke-width:0.25; stroke-dasharray:3,3;"/>
<line x1="285.000000" y1="41.000000" x2="290.000000" y2="41.000000"  style="stroke: black; stroke-linecap:round; stroke-width:0.25; stroke-dasharray:3,3;"/>
<line x1="299.675000" y1="41.000000" x2="471.000000" y2="41.000000"  style="stroke: black; stroke-linecap:round; stroke-width:0.25; stroke-dasharray:3,3;"/>
<text x="290.000000" y="43.000000" font-family="Arial" font-size="7">g</text>
<line x1="474.000000" y1="200.000000" x2="474.000000" y2="196.000000"  style="stroke:black; stroke-linecap:round; stroke-width:0.25;"/>
<line x1="474.000000" y1="196.000000" x2="478.000000" y2="196.000000"  style="stroke:black; stroke-linecap:round; stroke-width:0.25;"/>
<line x1="478.000000" y1="196.000000" x2="478.000000" y2="200.000000"  style="stroke:black; stroke-linecap:round; stroke-width:0.25;"/>
<line x1="15.000000" y1="15.000000" x2="15.000000" y2="237.000000"  style="stroke: black; stroke-linecap:round; stroke-width:0.25; stroke-dasharray:3,3;"/>
<line x1="15.000000" y1="237.000000" x2="505.000000" y2="237.000000"  style="stroke: black; stroke-linecap:round; stroke-width:0.25; stroke-dasharray:3,3;"/>
<line x1="505.000000" y1="237.000000" x2="505.000000" y2="15.000000"  style="stroke: black; stroke-linecap:round; stroke-width:0.25; stroke-dasharray:3,3;"/>
<line x1="15.000000" y1="15.000000" x2="20.000000" y2="15.000000"  style="stroke: black; stroke-linecap:round; stroke-width:0.25; stroke-dasharray:3,3;"/>
<line x1="49.025000" y1="15.000000" x2="505.000000" y2="15.000000"  style="stroke: black; stroke-linecap:round; stroke-width:0.25; stroke-dasharray:3,3;"/>
<text x="20.000000" y="17.000000" font-family="Arial" font-size="7">process</text>
<line x1="507.000000" y1="125.000000" x2="510.000000" y2="126.000000"  transform="rotate(0.000000,510.000000,126.000000)" style="stroke: black; stroke-width:0.25;"/>
<line x1="507.000000" y1="127.000000" x2="510.000000" y2="126.000000"  transform="rotate(0.000000,510.000000,126.000000)" style="stroke: black; stroke-width:0.25;"/>
<line x1="10.000000" y1="126.000000" x2="20.000000" y2="126.000000"  style="stroke:black; stroke-linecap:round; stroke-width:0.25;"/>
<line x1="20.000000" y1="126.000000" x2="24.000000" y2="126.000000"  style="stroke:black; stroke-linecap:round; stroke-width:0.25;"/>
<line x1="24.000000" y1="126.000000" x2="28.000000" y2="126.000000"  style="stroke:black; stroke-linecap:round; stroke-width:0.25;"/>
<line x1="28.000000" y1="126.000000" x2="28.000000" y2="126.000000"  style="stroke:black; stroke-linecap:round; stroke-width:0.25;"/>
<line x1="28.000000" y1="126.000000" x2="38.000000" y2="126.000000"  style="stroke:black; stroke-linecap:round; stroke-width:0.25;"/>
<line x1="38.000000" y1="126.000000" x2="42.000000" y2="126.000000"  style="stroke:black; stroke-linecap:round; stroke-width:0.25;"/>
<line x1="98.000000" y1="142.000000" x2="102.000000" y2="142.000000"  style="stroke:black; stroke-linecap:round; stroke-width:0.25;"/>
<line x1="102.000000" y1="142.000000" x2="102.000000" y2="142.000000"  style="stroke:black; stroke-linecap:round; stroke-width:0.25;"/>
<line x1="102.000000" y1="142.000000" x2="106.000000" y2="142.000000"  style="stroke:black; stroke-linecap:round; stroke-width:0.25;"/>
<line x1="102.000000" y1="206.000000" x2="106.000000" y2="206.000000"  style="stroke:black; stroke-linecap:round; stroke-width:0.25;"/>
<line x1="106.000000" y1="206.000000" x2="106.000000" y2="206.000000"  style="stroke:black; stroke-linecap:round; stroke-width:0.25;"/>
<line x1="106.000000" y1="206.000000" x2="110.000000" y2="206.000000"  style="stroke:black; stroke-linecap:round; stroke-width:0.25;"/>
<line x1="114.000000" y1="78.000000" x2="118.000000" y2="78.000000"  style="stroke:black; stroke-linecap:round; stroke-width:0.25;"/>
<line x1="118.000000" y1="78.000000" x2="125.350000" y2="78.000000"  style="stroke:black; stroke-linecap:round; stroke-width:0.25;"/>
<line x1="121.350000" y1="46.000000" x2="125.350000" y2="46.000000"  style="stroke:black; stroke-linecap:round; stroke-width:0.25;"/>
<line x1="121.350000" y1="110.000000" x2="125.350000" y2="110.000000"  style="stroke:black; stroke-linecap:round; stroke-width:0.25;"/>
<line x1="125.350000" y1="46.000000" x2="133.350000" y2="46.000000"  style="stroke:black; stroke-linecap:round; stroke-width:0.25;"/>
<line x1="125.350000" y1="66.000000" x2="133.350000" y2="66.000000"  style="stroke:black; stroke-linecap:round; stroke-width:0.25;"/>
<line x1="125.350000" y1="78.000000" x2="125.350000" y2="66.000000"  style="stroke:black; stroke-linecap:round; stroke-width:0.25;"/>
<line x1="125.350000" y1="78.000000" x2="125.350000" y2="78.000000"  style="stroke:black; stroke-linecap:round; stroke-width:0.25;"/>
<line x1="125.350000" y1="110.000000" x2="134.000000" y2="110.000000"  style="stroke:black; stroke-linecap:round; stroke-width:0.25;"/>
<line x1="130.000000" y1="142.000000" x2="134.000000" y2="142.000000"  style="stroke:black; stroke-linecap:round; stroke-width:0.25;"/>
<line x1="133.350000" y1="46.000000" x2="133.350000" y2="58.000000"  style="stroke:black; stroke-linecap:round; stroke-width:0.25;"/>
<line x1="133.350000" y1="58.000000" x2="133.350000" y2="58.000000"  style="stroke:black; stroke-linecap:round; stroke-width:0.25;"/>
<line x1="133.350000" y1="58.000000" x2="137.350000" y2="58.000000"  style="stroke:black; stroke-linecap:round; stroke-width:0.25;"/>
<line x1="133.350000" y1="66.000000" x2="137.350000" y2="66.000000"  style="stroke:black; stroke-linecap:round; stroke-width:0.25;"/>
<line x1="134.000000" y1="110.000000" x2="142.000000" y2="110.000000"  style="stroke:black; stroke-linecap:round; stroke-width:0.25;"/>
<line x1="134.000000" y1="130.000000" x2="142.000000" y2="130.000000"  style="stroke:black; stroke-linecap:round; stroke-width:0.25;"/>
<line x1="134.000000" y1="142.000000" x2="134.000000" y2="130.000000"  style="stroke:black; stroke-linecap:round; stroke-width:0.25;"/>
<line x1="134.000000" y1="142.000000" x2="134.000000" y2="142.000000"  style="stroke:black; stroke-linecap:round; stroke-width:0.25;"/>
<line x1="134.000000" y1="206.000000" x2="138.000000" y2="206.000000"  style="stroke:black; stroke-linecap:round; stroke-width:0.25;"/>
<line x1="138.000000" y1="206.000000" x2="138.000000" y2="206.000000"  style="stroke:black; stroke-linecap:round; stroke-width:0.25;"/>
<line x1="138.000000" y1="206.000000" x2="142.000000" y2="206.000000"  style="stroke:black; stroke-linecap:round; stroke-width:0.25;"/>
<line x1="141.350000" y1="174.000000" x2="145.350000" y2="174.000000"  style="stroke:black; stroke-linecap:round; stroke-width:0.25;"/>
<line x1="142.000000" y1="110.000000" x2="142.000000" y2="122.000000"  style="stroke:black; stroke-linecap:round; stroke-width:0.25;"/>
<line x1="142.000000" y1="122.000000" x2="142.000000" y2="122.000000"  style="stroke:black; stroke-linecap:round; stroke-width:0.25;"/>
<line x1="142.000000" y1="122.000000" x2="146.000000" y2="122.000000"  style="stroke:black; stroke-linecap:round; stroke-width:0.25;"/>
<line x1="142.000000" y1="130.000000" x2="146.000000" y2="130.000000"  style="stroke:black; stroke-linecap:round; stroke-width:0.25;"/>
<line x1="145.350000" y1="174.000000" x2="170.000000" y2="174.000000"  style="stroke:black; stroke-linecap:round; stroke-width:0.25;"/>
<line x1="161.350000" y1="62.000000" x2="165.350000" y2="62.000000"  style="stroke:black; stroke-linecap:round; stroke-width:0.25;"/>
<line x1="165.350000" y1="62.000000" x2="174.000000" y2="62.000000"  style="stroke:black; stroke-linecap:round; stroke-width:0.25;"/>
<line x1="166.000000" y1="206.000000" x2="170.000000" y2="206.000000"  style="stroke:black; stroke-linecap:round; stroke-width:0.25;"/>
<line x1="170.000000" y1="126.000000" x2="174.000000" y2="126.000000"  style="stroke:black; stroke-linecap:round; stroke-width:0.25;"/>
<line x1="170.000000" y1="174.000000" x2="178.000000" y2="174.000000"  style="stroke:black; stroke-linecap:round; stroke-width:0.25;"/>
<line x1="170.000000" y1="194.000000" x2="178.000000" y2="194.000000"  style="stroke:black; stroke-linecap:round; stroke-width:0.25;"/>
<line x1="170.000000" y1="206.000000" x2="170.000000" y2="194.000000"  style="stroke:black; stroke-linecap:round; stroke-width:0.25;"/>
<line x1="170.000000" y1="206.000000" x2="170.000000" y2="206.000000"  style="stroke:black; stroke-linecap:round; stroke-width:0.25;"/>
<line x1="174.000000" y1="62.000000" x2="182.000000" y2="62.000000"  style="stroke:black; stroke-linecap:round; stroke-width:0.25;"/>
<line x1="174.000000" y1="98.000000" x2="182.000000" y2="98.000000"  style="stroke:black; stroke-linecap:round; stroke-width:0.25;"/>
<line x1="174.000000" y1="126.000000" x2="174.000000" y2="98.000000"  style="stroke:black; stroke-linecap:round; stroke-width:0.25;"/>
<line x1="174.000000" y1="126.000000" x2="174.000000" y2="126.000000"  style="stroke:black; stroke-linecap:round; stroke-width:0.25;"/>
<line x1="178.000000" y1="174.000000" x2="178.000000" y2="186.000000"  style="stroke:black; stroke-linecap:round; stroke-width:0.25;"/>
<line x1="178.000000" y1="186.000000" x2="178.000000" y2="186.000000"  style="stroke:black; stroke-linecap:round; stroke-width:0.25;"/>
<line x1="178.000000" y1="186.000000" x2="182.000000" y2="186.000000"  style="stroke:black; stroke-linecap:round; stroke-width:0.25;"/>
<line x1="178.000000" y1="194.000000" x2="182.000000" y2="194.000000"  style="stroke:black; stroke-linecap:round; stroke-width:0.25;"/>
<line x1="182.000000" y1="62.000000" x2="182.000000" y2="90.000000"  style="stroke:black; stroke-linecap:round; stroke-width:0.25;"/>
<line x1="182.000000" y1="90.000000" x2="182.000000" y2="90.000000"  style="stroke:black; stroke-linecap:round; stroke-width:0.25;"/>
<line x1="182.000000" y1="90.000000" x2="186.000000" y2="90.000000"  style="stroke:black; stroke-linecap:round; stroke-width:0.25;"/>
<line x1="182.000000" y1="98.000000" x2="186.000000" y2="98.000000"  style="stroke:black; stroke-linecap:round; stroke-width:0.25;"/>
<line x1="206.000000" y1="190.000000" x2="210.000000" y2="190.000000"  style="stroke:black; stroke-linecap:round; stroke-width:0.25;"/>
<line x1="210.000000" y1="94.000000" x2="214.000000" y2="94.000000"  style="stroke:black; stroke-linecap:round; stroke-width:0.25;"/>
<line x1="210.000000" y1="190.000000" x2="214.000000" y2="190.000000"  style="stroke:black; stroke-linecap:round; stroke-width:0.25;"/>
<line x1="214.000000" y1="94.000000" x2="222.000000" y2="94.000000"  style="stroke:black; stroke-linecap:round; stroke-width:0.25;"/>
<line x1="214.000000" y1="130.000000" x2="222.000000" y2="130.000000"  style="stroke:black; stroke-linecap:round; stroke-width:0.25;"/>
<line x1="214.000000" y1="190.000000" x2="214.000000" y2="130.000000"  style="stroke:black; stroke-linecap:round; stroke-width:0.25;"/>
<line x1="214.000000" y1="190.000000" x2="214.000000" y2="190.000000"  style="stroke:black; stroke-linecap:round; stroke-width:0.25;"/>
<line x1="222.000000" y1="94.000000" x2="222.000000" y2="122.000000"  style="stroke:black; stroke-linecap:round; stroke-width:0.25;"/>
<line x1="222.000000" y1="122.000000" x2="222.000000" y2="122.000000"  style="stroke:black; stroke-linecap:round; stroke-width:0.25;"/>
<line x1="222.000000" y1="122.000000" x2="226.000000" y2="122.000000"  style="stroke:black; stroke-linecap:round; stroke-width:0.25;"/>
<line x1="222.000000" y1="130.000000" x2="226.000000" y2="130.000000"  style="stroke:black; stroke-linecap:round; stroke-width:0.25;"/>
<line x1="250.000000" y1="126.000000" x2="254.000000" y2="126.000000"  style="stroke:black; stroke-linecap:round; stroke-width:0.25;"/>
<line x1="254.000000" y1="126.000000" x2="264.000000" y2="126.000000"  style="stroke:black; stroke-linecap:round; stroke-width:0.25;"/>
<line x1="264.000000" y1="126.000000" x2="272.000000" y2="126.000000"  style="stroke:black; stroke-linecap:round; stroke-width:0.25;"/>
<line x1="272.000000" y1="126.000000" x2="272.000000" y2="204.000000"  style="stroke:black; stroke-linecap:round; stroke-width:0.25;"/>
<line x1="272.000000" y1="204.000000" x2="272.000000" y2="204.000000"  style="stroke:black; stroke-linecap:round; stroke-width:0.25;"/>
<line x1="272.000000" y1="204.000000" x2="280.000000" y2="204.000000"  style="stroke:black; stroke-linecap:round; stroke-width:0.25;"/>
<line x1="280.000000" y1="110.000000" x2="280.000000" y2="110.000000"  style="stroke:black; stroke-linecap:round; stroke-width:0.25;"/>
<line x1="280.000000" y1="110.000000" x2="280.000000" y2="196.000000"  style="stroke:black; stroke-linecap:round; stroke-width:0.25;"/>
<line x1="280.000000" y1="196.000000" x2="280.000000" y2="196.000000"  style="stroke:black; stroke-linecap:round; stroke-width:0.25;"/>
<line x1="280.000000" y1="196.000000" x2="362.000000" y2="196.000000"  style="stroke:black; stroke-linecap:round; stroke-width:0.25;"/>
<line x1="280.000000" y1="204.000000" x2="362.000000" y2="204.000000"  style="stroke:black; stroke-linecap:round; stroke-width:0.25;"/>
<line x1="290.000000" y1="110.000000" x2="280.000000" y2="110.000000"  style="stroke:black; stroke-linecap:round; stroke-width:0.25;"/>
<line x1="294.000000" y1="110.000000" x2="290.000000" y2="110.000000"  style="stroke:black; stroke-linecap:round; stroke-width:0.25;"/>
<line x1="322.000000" y1="106.000000" x2="318.000000" y2="106.000000"  style="stroke:black; stroke-linecap:round; stroke-width:0.25;"/>
<line x1="322.000000" y1="114.000000" x2="318.000000" y2="114.000000"  style="stroke:black; stroke-linecap:round; stroke-width:0.25;"/>
<line x1="322.000000" y1="114.000000" x2="322.000000" y2="114.000000"  style="stroke:black; stroke-linecap:round; stroke-width:0.25;"/>
<line x1="322.000000" y1="142.000000" x2="322.000000" y2="114.000000"  style="stroke:black; stroke-linecap:round; stroke-width:0.25;"/>
<line x1="330.000000" y1="78.000000" x2="330.000000" y2="78.000000"  style="stroke:black; stroke-linecap:round; stroke-width:0.25;"/>
<line x1="330.000000" y1="78.000000" x2="330.000000" y2="106.000000"  style="stroke:black; stroke-linecap:round; stroke-width:0.25;"/>
<line x1="330.000000" y1="106.000000" x2="322.000000" y2="106.000000"  style="stroke:black; stroke-linecap:round; stroke-width:0.25;"/>
<line x1="330.000000" y1="142.000000" x2="322.000000" y2="142.000000"  style="stroke:black; stroke-linecap:round; stroke-width:0.25;"/>
<line x1="334.000000" y1="78.000000" x2="330.000000" y2="78.000000"  style="stroke:black; stroke-linecap:round; stroke-width:0.25;"/>
<line x1="338.650000" y1="142.000000" x2="330.000000" y2="142.000000"  style="stroke:black; stroke-linecap:round; stroke-width:0.25;"/>
<line x1="342.650000" y1="142.000000" x2="338.650000" y2="142.000000"  style="stroke:black; stroke-linecap:round; stroke-width:0.25;"/>
<line x1="362.000000" y1="74.000000" x2="358.000000" y2="74.000000"  style="stroke:black; stroke-linecap:round; stroke-width:0.25;"/>
<line x1="362.000000" y1="82.000000" x2="358.000000" y2="82.000000"  style="stroke:black; stroke-linecap:round; stroke-width:0.25;"/>
<line x1="362.000000" y1="82.000000" x2="362.000000" y2="82.000000"  style="stroke:black; stroke-linecap:round; stroke-width:0.25;"/>
<line x1="362.000000" y1="94.000000" x2="362.000000" y2="82.000000"  style="stroke:black; stroke-linecap:round; stroke-width:0.25;"/>
<line x1="362.000000" y1="196.000000" x2="366.000000" y2="196.000000"  style="stroke:black; stroke-linecap:round; stroke-width:0.25;"/>
<line x1="362.000000" y1="204.000000" x2="366.000000" y2="204.000000"  style="stroke:black; stroke-linecap:round; stroke-width:0.25;"/>
<line x1="370.000000" y1="62.000000" x2="370.000000" y2="62.000000"  style="stroke:black; stroke-linecap:round; stroke-width:0.25;"/>
<line x1="370.000000" y1="62.000000" x2="370.000000" y2="74.000000"  style="stroke:black; stroke-linecap:round; stroke-width:0.25;"/>
<line x1="370.000000" y1="74.000000" x2="362.000000" y2="74.000000"  style="stroke:black; stroke-linecap:round; stroke-width:0.25;"/>
<line x1="370.000000" y1="94.000000" x2="362.000000" y2="94.000000"  style="stroke:black; stroke-linecap:round; stroke-width:0.25;"/>
<line x1="370.650000" y1="138.000000" x2="366.650000" y2="138.000000"  style="stroke:black; stroke-linecap:round; stroke-width:0.25;"/>
<line x1="370.650000" y1="146.000000" x2="366.650000" y2="146.000000"  style="stroke:black; stroke-linecap:round; stroke-width:0.25;"/>
<line x1="370.650000" y1="146.000000" x2="370.650000" y2="146.000000"  style="stroke:black; stroke-linecap:round; stroke-width:0.25;"/>
<line x1="370.650000" y1="158.000000" x2="370.650000" y2="146.000000"  style="stroke:black; stroke-linecap:round; stroke-width:0.25;"/>
<line x1="374.000000" y1="62.000000" x2="370.000000" y2="62.000000"  style="stroke:black; stroke-linecap:round; stroke-width:0.25;"/>
<line x1="378.650000" y1="94.000000" x2="370.000000" y2="94.000000"  style="stroke:black; stroke-linecap:round; stroke-width:0.25;"/>
<line x1="378.650000" y1="126.000000" x2="378.650000" y2="126.000000"  style="stroke:black; stroke-linecap:round; stroke-width:0.25;"/>
<line x1="378.650000" y1="126.000000" x2="378.650000" y2="138.000000"  style="stroke:black; stroke-linecap:round; stroke-width:0.25;"/>
<line x1="378.650000" y1="138.000000" x2="370.650000" y2="138.000000"  style="stroke:black; stroke-linecap:round; stroke-width:0.25;"/>
<line x1="378.650000" y1="158.000000" x2="370.650000" y2="158.000000"  style="stroke:black; stroke-linecap:round; stroke-width:0.25;"/>
<line x1="382.650000" y1="94.000000" x2="378.650000" y2="94.000000"  style="stroke:black; stroke-linecap:round; stroke-width:0.25;"/>
<line x1="382.650000" y1="158.000000" x2="378.650000" y2="158.000000"  style="stroke:black; stroke-linecap:round; stroke-width:0.25;"/>
<line x1="386.000000" y1="126.000000" x2="378.650000" y2="126.000000"  style="stroke:black; stroke-linecap:round; stroke-width:0.25;"/>
<line x1="390.000000" y1="126.000000" x2="386.000000" y2="126.000000"  style="stroke:black; stroke-linecap:round; stroke-width:0.25;"/>
<line x1="390.000000" y1="200.000000" x2="394.000000" y2="200.000000"  style="stroke:black; stroke-linecap:round; stroke-width:0.25;"/>
<line x1="394.000000" y1="200.000000" x2="476.000000" y2="200.000000"  style="stroke:black; stroke-linecap:round; stroke-width:0.25;"/>
<line x1="402.000000" y1="62.000000" x2="398.000000" y2="62.000000"  style="stroke:black; stroke-linecap:round; stroke-width:0.25;"/>
<line x1="402.000000" y1="62.000000" x2="402.000000" y2="62.000000"  style="stroke:black; stroke-linecap:round; stroke-width:0.25;"/>
<line x1="406.000000" y1="62.000000" x2="402.000000" y2="62.000000"  style="stroke:black; stroke-linecap:round; stroke-width:0.25;"/>
<line x1="466.000000" y1="110.000000" x2="462.000000" y2="110.000000"  style="stroke:black; stroke-linecap:round; stroke-width:0.25;"/>
<line x1="476.000000" y1="110.000000" x2="466.000000" y2="110.000000"  style="stroke:black; stroke-linecap:round; stroke-width:0.25;"/>
<line x1="476.000000" y1="110.000000" x2="476.000000" y2="110.000000"  style="stroke:black; stroke-linecap:round; stroke-width:0.25;"/>
<line x1="476.000000" y1="196.000000" x2="476.000000" y2="110.000000"  style="stroke:black; stroke-linecap:round; stroke-width:0.25;"/>
<line x1="476.000000" y1="200.000000" x2="478.000000" y2="200.000000"  style="stroke:black; stroke-linecap:round; stroke-width:0.25;"/>
<line x1="478.000000" y1="200.000000" x2="484.000000" y2="200.000000"  style="stroke:black; stroke-linecap:round; stroke-width:0.25;"/>
<line x1="484.000000" y1="126.000000" x2="492.000000" y2="126.000000"  style="stroke:black; stroke-linecap:round; stroke-width:0.25;"/>
<line x1="484.000000" y1="200.000000" x2="484.000000" y2="126.000000"  style="stroke:black; stroke-linecap:round; stroke-width:0.25;"/>
<line x1="484.000000" y1="200.000000" x2="484.000000" y2="200.000000"  style="stroke:black; stroke-linecap:round; stroke-width:0.25;"/>
<line x1="492.000000" y1="126.000000" x2="496.000000" y2="126.000000"  style="stroke:black; stroke-linecap:round; stroke-width:0.25;"/>
<line x1="496.000000" y1="126.000000" x2="500.000000" y2="126.000000"  style="stroke:black; stroke-linecap:round; stroke-width:0.25;"/>
<line x1="500.000000" y1="126.000000" x2="510.000000" y2="126.000000"  style="stroke:black; stroke-linecap:round; stroke-width:0.25;"/>
</svg>
