<?xml version="1.0"?>
<svg xmlns="http://www.w3.org/2000/svg" xmlns:xlink="http://www.w3.org/1999/xlink" viewBox="0 0 313.700000 148.000000" width="156.850000mm" height="74.000000mm" version="1.1">
<a xlink:href="sawtooth-0x7fa2aa5f6ba0.svg">
<rect x="1.000000" y="1.000000" width="312.700000" height="147.000000" rx="0" ry="0" style="stroke:none;fill:#cccccc;"/>
<rect x="0.000000" y="0.000000" width="312.700000" height="147.000000" rx="0" ry="0" style="stroke:none;fill:#ffffff;"/>
</a>
<text x="10.000000" y="7.000000" font-family="Arial" font-size="7"></text>
<rect x="70.000000" y="83.000000" width="24.000000" height="24.000000" rx="0" ry="0" style="stroke:none;fill:#cccccc;"/>
<rect x="69.000000" y="82.000000" width="24.000000" height="24.000000" rx="0" ry="0" style="stroke:none;fill:#f44800;"/>
<text x="81.000000" y="96.000000" font-family="Arial" font-size="7" text-anchor="middle" fill="#FFFFFF">1</text>
<circle cx="71.000000" cy="84.000000" r="1"/>
<line x1="60.000000" y1="73.000000" x2="60.000000" y2="115.000000"  style="stroke: black; stroke-linecap:round; stroke-width:0.25; stroke-dasharray:3,3;"/>
<line x1="60.000000" y1="115.000000" x2="102.000000" y2="115.000000"  style="stroke: black; stroke-linecap:round; stroke-width:0.25; stroke-dasharray:3,3;"/>
<line x1="102.000000" y1="115.000000" x2="102.000000" y2="73.000000"  style="stroke: black; stroke-linecap:round; stroke-width:0.25; stroke-dasharray:3,3;"/>
<line x1="60.000000" y1="73.000000" x2="65.000000" y2="73.000000"  style="stroke: black; stroke-linecap:round; stroke-width:0.25; stroke-dasharray:3,3;"/>
<line x1="84.350000" y1="73.000000" x2="102.000000" y2="73.000000"  style="stroke: black; stroke-linecap:round; stroke-width:0.25; stroke-dasharray:3,3;"/>
<text x="65.000000" y="75.000000" font-family="Arial" font-size="7">gam4</text>
<rect x="120.000000" y="79.000000" width="24.000000" height="24.000000" rx="0" ry="0" style="stroke:none;fill:#cccccc;"/>
<rect x="119.000000" y="78.000000" width="24.000000" height="24.000000" rx="0" ry="0" style="stroke:none;fill:#4B71A1;"/>
<text x="131.000000" y="92.000000" font-family="Arial" font-size="7" text-anchor="middle" fill="#FFFFFF">-</text>
<circle cx="121.000000" cy="80.000000" r="1"/>
<line x1="116.000000" y1="85.000000" x2="119.000000" y2="86.000000"  transform="rotate(0.000000,119.000000,86.000000)" style="stroke: black; stroke-width:0.25;"/>
<line x1="116.000000" y1="87.000000" x2="119.000000" y2="86.000000"  transform="rotate(0.000000,119.000000,86.000000)" style="stroke: black; stroke-width:0.25;"/>
<line x1="116.000000" y1="93.000000" x2="119.000000" y2="94.000000"  transform="rotate(0.000000,119.000000,94.000000)" style="stroke: black; stroke-width:0.25;"/>
<line x1="116.000000" y1="95.000000" x2="119.000000" y2="94.000000"  transform="rotate(0.000000,119.000000,94.000000)" style="stroke: black; stroke-width:0.25;"/>
<a xlink:href="selector1-0x7fa2aa5bce60.svg">
<rect x="212.000000" y="67.000000" width="38.700000" height="24.000000" rx="0" ry="0" style="stroke:none;fill:#cccccc;"/>
<rect x="211.000000" y="66.000000" width="38.700000" height="24.000000" rx="0" ry="0" style="stroke:none;fill:#003366;"/>
</a>
<a xlink:href="selector1-0x7fa2aa5bce60.svg">
<text x="230.350000" y="80.000000" font-family="Arial" font-size="7" text-anchor="middle" fill="#FFFFFF">selector1</text>
</a>
<circle cx="213.000000" cy="68.000000" r="1"/>
<line x1="208.000000" y1="69.000000" x2="211.000000" y2="70.000000"  transform="rotate(0.000000,211.000000,70.000000)" style="stroke: black; stroke-width:0.25;"/>
<line x1="208.000000" y1="71.000000" x2="211.000000" y2="70.000000"  transform="rotate(0.000000,211.000000,70.000000)" style="stroke: black; stroke-width:0.25;"/>
<line x1="208.000000" y1="77.000000" x2="211.000000" y2="78.000000"  transform="rotate(0.000000,211.000000,78.000000)" style="stroke: black; stroke-width:0.25;"/>
<line x1="208.000000" y1="79.000000" x2="211.000000" y2="78.000000"  transform="rotate(0.000000,211.000000,78.000000)" style="stroke: black; stroke-width:0.25;"/>
<line x1="208.000000" y1="85.000000" x2="211.000000" y2="86.000000"  transform="rotate(0.000000,211.000000,86.000000)" style="stroke: black; stroke-width:0.25;"/>
<line x1="208.000000" y1="87.000000" x2="211.000000" y2="86.000000"  transform="rotate(0.000000,211.000000,86.000000)" style="stroke: black; stroke-width:0.25;"/>
<a xlink:href="selector2-0x7fa2aa5f50d0.svg">
<rect x="212.000000" y="99.000000" width="38.700000" height="24.000000" rx="0" ry="0" style="stroke:none;fill:#cccccc;"/>
<rect x="211.000000" y="98.000000" width="38.700000" height="24.000000" rx="0" ry="0" style="stroke:none;fill:#003366;"/>
</a>
<a xlink:href="selector2-0x7fa2aa5f50d0.svg">
<text x="230.350000" y="112.000000" font-family="Arial" font-size="7" text-anchor="middle" fill="#FFFFFF">selector2</text>
</a>
<circle cx="213.000000" cy="100.000000" r="1"/>
<line x1="208.000000" y1="101.000000" x2="211.000000" y2="102.000000"  transform="rotate(0.000000,211.000000,102.000000)" style="stroke: black; stroke-width:0.25;"/>
<line x1="208.000000" y1="103.000000" x2="211.000000" y2="102.000000"  transform="rotate(0.000000,211.000000,102.000000)" style="stroke: black; stroke-width:0.25;"/>
<line x1="208.000000" y1="109.000000" x2="211.000000" y2="110.000000"  transform="rotate(0.000000,211.000000,110.000000)" style="stroke: black; stroke-width:0.25;"/>
<line x1="208.000000" y1="111.000000" x2="211.000000" y2="110.000000"  transform="rotate(0.000000,211.000000,110.000000)" style="stroke: black; stroke-width:0.25;"/>
<line x1="208.000000" y1="117.000000" x2="211.000000" y2="118.000000"  transform="rotate(0.000000,211.000000,118.000000)" style="stroke: black; stroke-width:0.25;"/>
<line x1="208.000000" y1="119.000000" x2="211.000000" y2="118.000000"  transform="rotate(0.000000,211.000000,118.000000)" style="stroke: black; stroke-width:0.25;"/>
<a xlink:href="t0-0x7fa2aa5f5f10.svg">
<rect x="149.850000" y="25.000000" width="24.000000" height="24.000000" rx="0" ry="0" style="stroke:none;fill:#cccccc;"/>
<rect x="148.850000" y="24.000000" width="24.000000" height="24.000000" rx="0" ry="0" style="stroke:none;fill:#003366;"/>
</a>
<a xlink:href="t0-0x7fa2aa5f5f10.svg">
<text x="160.850000" y="38.000000" font-family="Arial" font-size="7" text-anchor="middle" fill="#FFFFFF">t0</text>
</a>
<circle cx="170.850000" cy="46.000000" r="1"/>
<rect x="109.850000" y="29.000000" width="24.000000" height="24.000000" rx="0" ry="0" style="stroke:none;fill:#cccccc;"/>
<rect x="108.850000" y="28.000000" width="24.000000" height="24.000000" rx="0" ry="0" style="stroke:none;fill:#4B71A1;"/>
<text x="120.850000" y="42.000000" font-family="Arial" font-size="7" text-anchor="middle" fill="#FFFFFF">+</text>
<circle cx="130.850000" cy="50.000000" r="1"/>
<line x1="135.850000" y1="43.000000" x2="132.850000" y2="44.000000"  transform="rotate(0.000000,132.850000,44.000000)" style="stroke: black; stroke-width:0.25;"/>
<line x1="135.850000" y1="45.000000" x2="132.850000" y2="44.000000"  transform="rotate(0.000000,132.850000,44.000000)" style="stroke: black; stroke-width:0.25;"/>
<line x1="135.850000" y1="35.000000" x2="132.850000" y2="36.000000"  transform="rotate(0.000000,132.850000,36.000000)" style="stroke: black; stroke-width:0.25;"/>
<line x1="135.850000" y1="37.000000" x2="132.850000" y2="36.000000"  transform="rotate(0.000000,132.850000,36.000000)" style="stroke: black; stroke-width:0.25;"/>
<line x1="251.700000" y1="78.000000" x2="251.700000" y2="74.000000"  style="stroke:black; stroke-linecap:round; stroke-width:0.25;"/>
<line x1="251.700000" y1="74.000000" x2="255.700000" y2="74.000000"  style="stroke:black; stroke-linecap:round; stroke-width:0.25;"/>
<line x1="255.700000" y1="74.000000" x2="255.700000" y2="78.000000"  style="stroke:black; stroke-linecap:round; stroke-width:0.25;"/>
<line x1="15.000000" y1="15.000000" x2="15.000000" y2="133.000000"  style="stroke: black; stroke-linecap:round; stroke-width:0.25; stroke-dasharray:3,3;"/>
<line x1="15.000000" y1="133.000000" x2="298.700000" y2="133.000000"  style="stroke: black; stroke-linecap:round; stroke-width:0.25; stroke-dasharray:3,3;"/>
<line x1="298.700000" y1="133.000000" x2="298.700000" y2="15.000000"  style="stroke: black; stroke-linecap:round; stroke-width:0.25; stroke-dasharray:3,3;"/>
<line x1="15.000000" y1="15.000000" x2="20.000000" y2="15.000000"  style="stroke: black; stroke-linecap:round; stroke-width:0.25; stroke-dasharray:3,3;"/>
<line x1="29.675000" y1="15.000000" x2="298.700000" y2="15.000000"  style="stroke: black; stroke-linecap:round; stroke-width:0.25; stroke-dasharray:3,3;"/>
<text x="20.000000" y="17.000000" font-family="Arial" font-size="7">p</text>
<line x1="300.700000" y1="73.000000" x2="303.700000" y2="74.000000"  transform="rotate(0.000000,303.700000,74.000000)" style="stroke: black; stroke-width:0.25;"/>
<line x1="300.700000" y1="75.000000" x2="303.700000" y2="74.000000"  transform="rotate(0.000000,303.700000,74.000000)" style="stroke: black; stroke-width:0.25;"/>
<line x1="28.000000" y1="40.000000" x2="28.000000" y2="40.000000"  style="stroke:black; stroke-linecap:round; stroke-width:0.25;"/>
<line x1="28.000000" y1="40.000000" x2="28.000000" y2="94.000000"  style="stroke:black; stroke-linecap:round; stroke-width:0.25;"/>
<line x1="28.000000" y1="94.000000" x2="28.000000" y2="94.000000"  style="stroke:black; stroke-linecap:round; stroke-width:0.25;"/>
<line x1="28.000000" y1="94.000000" x2="32.000000" y2="94.000000"  style="stroke:black; stroke-linecap:round; stroke-width:0.25;"/>
<line x1="32.000000" y1="94.000000" x2="36.000000" y2="94.000000"  style="stroke:black; stroke-linecap:round; stroke-width:0.25;"/>
<line x1="36.000000" y1="94.000000" x2="55.000000" y2="64.000000"  style="stroke:black; stroke-linecap:round; stroke-width:0.25;"/>
<line x1="36.000000" y1="94.000000" x2="55.000000" y2="124.000000"  style="stroke:black; stroke-linecap:round; stroke-width:0.25;"/>
<line x1="55.000000" y1="64.000000" x2="81.000000" y2="64.000000"  style="stroke:black; stroke-linecap:round; stroke-width:0.25;"/>
<line x1="55.000000" y1="124.000000" x2="114.500000" y2="124.000000"  style="stroke:black; stroke-linecap:round; stroke-width:0.25;"/>
<line x1="81.000000" y1="64.000000" x2="107.000000" y2="64.000000"  style="stroke:black; stroke-linecap:round; stroke-width:0.25;"/>
<line x1="93.000000" y1="94.000000" x2="97.000000" y2="94.000000"  style="stroke:black; stroke-linecap:round; stroke-width:0.25;"/>
<line x1="97.000000" y1="94.000000" x2="107.000000" y2="94.000000"  style="stroke:black; stroke-linecap:round; stroke-width:0.25;"/>
<line x1="104.850000" y1="40.000000" x2="28.000000" y2="40.000000"  style="stroke:black; stroke-linecap:round; stroke-width:0.25;"/>
<line x1="107.000000" y1="64.000000" x2="115.000000" y2="64.000000"  style="stroke:black; stroke-linecap:round; stroke-width:0.25;"/>
<line x1="107.000000" y1="94.000000" x2="115.000000" y2="94.000000"  style="stroke:black; stroke-linecap:round; stroke-width:0.25;"/>
<line x1="108.850000" y1="40.000000" x2="104.850000" y2="40.000000"  style="stroke:black; stroke-linecap:round; stroke-width:0.25;"/>
<line x1="114.500000" y1="124.000000" x2="174.000000" y2="124.000000"  style="stroke:black; stroke-linecap:round; stroke-width:0.25;"/>
<line x1="115.000000" y1="64.000000" x2="115.000000" y2="86.000000"  style="stroke:black; stroke-linecap:round; stroke-width:0.25;"/>
<line x1="115.000000" y1="86.000000" x2="115.000000" y2="86.000000"  style="stroke:black; stroke-linecap:round; stroke-width:0.25;"/>
<line x1="115.000000" y1="86.000000" x2="119.000000" y2="86.000000"  style="stroke:black; stroke-linecap:round; stroke-width:0.25;"/>
<line x1="115.000000" y1="94.000000" x2="119.000000" y2="94.000000"  style="stroke:black; stroke-linecap:round; stroke-width:0.25;"/>
<line x1="136.850000" y1="36.000000" x2="132.850000" y2="36.000000"  style="stroke:black; stroke-linecap:round; stroke-width:0.25;"/>
<line x1="136.850000" y1="44.000000" x2="132.850000" y2="44.000000"  style="stroke:black; stroke-linecap:round; stroke-width:0.25;"/>
<line x1="136.850000" y1="44.000000" x2="136.850000" y2="44.000000"  style="stroke:black; stroke-linecap:round; stroke-width:0.25;"/>
<line x1="136.850000" y1="56.000000" x2="136.850000" y2="44.000000"  style="stroke:black; stroke-linecap:round; stroke-width:0.25;"/>
<line x1="143.000000" y1="90.000000" x2="147.000000" y2="90.000000"  style="stroke:black; stroke-linecap:round; stroke-width:0.25;"/>
<line x1="144.850000" y1="36.000000" x2="136.850000" y2="36.000000"  style="stroke:black; stroke-linecap:round; stroke-width:0.25;"/>
<line x1="144.850000" y1="56.000000" x2="136.850000" y2="56.000000"  style="stroke:black; stroke-linecap:round; stroke-width:0.25;"/>
<line x1="147.000000" y1="90.000000" x2="166.000000" y2="86.000000"  style="stroke:black; stroke-linecap:round; stroke-width:0.25;"/>
<line x1="147.000000" y1="90.000000" x2="166.000000" y2="94.000000"  style="stroke:black; stroke-linecap:round; stroke-width:0.25;"/>
<line x1="148.850000" y1="36.000000" x2="144.850000" y2="36.000000"  style="stroke:black; stroke-linecap:round; stroke-width:0.25;"/>
<line x1="160.850000" y1="56.000000" x2="144.850000" y2="56.000000"  style="stroke:black; stroke-linecap:round; stroke-width:0.25;"/>
<line x1="166.000000" y1="86.000000" x2="170.000000" y2="86.000000"  style="stroke:black; stroke-linecap:round; stroke-width:0.25;"/>
<line x1="166.000000" y1="94.000000" x2="170.000000" y2="94.000000"  style="stroke:black; stroke-linecap:round; stroke-width:0.25;"/>
<line x1="170.000000" y1="86.000000" x2="174.000000" y2="86.000000"  style="stroke:black; stroke-linecap:round; stroke-width:0.25;"/>
<line x1="170.000000" y1="94.000000" x2="174.000000" y2="94.000000"  style="stroke:black; stroke-linecap:round; stroke-width:0.25;"/>
<line x1="174.000000" y1="86.000000" x2="207.000000" y2="70.000000"  style="stroke:black; stroke-linecap:round; stroke-width:0.25;"/>
<line x1="174.000000" y1="86.000000" x2="207.000000" y2="102.000000"  style="stroke:black; stroke-linecap:round; stroke-width:0.25;"/>
<line x1="174.000000" y1="94.000000" x2="207.000000" y2="78.000000"  style="stroke:black; stroke-linecap:round; stroke-width:0.25;"/>
<line x1="174.000000" y1="94.000000" x2="207.000000" y2="110.000000"  style="stroke:black; stroke-linecap:round; stroke-width:0.25;"/>
<line x1="174.000000" y1="124.000000" x2="207.000000" y2="86.000000"  style="stroke:black; stroke-linecap:round; stroke-width:0.25;"/>
<line x1="174.000000" y1="124.000000" x2="207.000000" y2="118.000000"  style="stroke:black; stroke-linecap:round; stroke-width:0.25;"/>
<line x1="176.850000" y1="56.000000" x2="160.850000" y2="56.000000"  style="stroke:black; stroke-linecap:round; stroke-width:0.25;"/>
<line x1="207.000000" y1="70.000000" x2="211.000000" y2="70.000000"  style="stroke:black; stroke-linecap:round; stroke-width:0.25;"/>
<line x1="207.000000" y1="78.000000" x2="211.000000" y2="78.000000"  style="stroke:black; stroke-linecap:round; stroke-width:0.25;"/>
<line x1="207.000000" y1="86.000000" x2="211.000000" y2="86.000000"  style="stroke:black; stroke-linecap:round; stroke-width:0.25;"/>
<line x1="207.000000" y1="102.000000" x2="211.000000" y2="102.000000"  style="stroke:black; stroke-linecap:round; stroke-width:0.25;"/>
<line x1="207.000000" y1="110.000000" x2="211.000000" y2="110.000000"  style="stroke:black; stroke-linecap:round; stroke-width:0.25;"/>
<line x1="207.000000" y1="118.000000" x2="211.000000" y2="118.000000"  style="stroke:black; stroke-linecap:round; stroke-width:0.25;"/>
<line x1="249.700000" y1="78.000000" x2="253.700000" y2="78.000000"  style="stroke:black; stroke-linecap:round; stroke-width:0.25;"/>
<line x1="249.700000" y1="110.000000" x2="253.700000" y2="110.000000"  style="stroke:black; stroke-linecap:round; stroke-width:0.25;"/>
<line x1="253.700000" y1="56.000000" x2="176.850000" y2="56.000000"  style="stroke:black; stroke-linecap:round; stroke-width:0.25;"/>
<line x1="253.700000" y1="56.000000" x2="253.700000" y2="56.000000"  style="stroke:black; stroke-linecap:round; stroke-width:0.25;"/>
<line x1="253.700000" y1="74.000000" x2="253.700000" y2="56.000000"  style="stroke:black; stroke-linecap:round; stroke-width:0.25;"/>
<line x1="253.700000" y1="78.000000" x2="255.700000" y2="78.000000"  style="stroke:black; stroke-linecap:round; stroke-width:0.25;"/>
<line x1="253.700000" y1="110.000000" x2="261.700000" y2="110.000000"  style="stroke:black; stroke-linecap:round; stroke-width:0.25;"/>
<line x1="261.700000" y1="110.000000" x2="269.700000" y2="110.000000"  style="stroke:black; stroke-linecap:round; stroke-width:0.25;"/>
<line x1="269.700000" y1="74.040000" x2="277.700000" y2="74.040000"  style="stroke:black; stroke-linecap:round; stroke-width:0.25;"/>
<line x1="269.700000" y1="110.000000" x2="269.700000" y2="74.040000"  style="stroke:black; stroke-linecap:round; stroke-width:0.25;"/>
<line x1="277.700000" y1="74.000000" x2="285.700000" y2="74.000000"  style="stroke:black; stroke-linecap:round; stroke-width:0.25;"/>
<line x1="277.700000" y1="74.040000" x2="277.700000" y2="74.000000"  style="stroke:black; stroke-linecap:round; stroke-width:0.25;"/>
<line x1="277.700000" y1="74.040000" x2="277.700000" y2="74.040000"  style="stroke:black; stroke-linecap:round; stroke-width:0.25;"/>
<line x1="285.700000" y1="74.000000" x2="289.700000" y2="74.000000"  style="stroke:black; stroke-linecap:round; stroke-width:0.25;"/>
<line x1="289.700000" y1="74.000000" x2="293.700000" y2="74.000000"  style="stroke:black; stroke-linecap:round; stroke-width:0.25;"/>
<line x1="293.700000" y1="74.000000" x2="303.700000" y2="74.000000"  style="stroke:black; stroke-linecap:round; stroke-width:0.25;"/>
</svg>
