<?xml version="1.0"?>
<svg xmlns="http://www.w3.org/2000/svg" xmlns:xlink="http://www.w3.org/1999/xlink" viewBox="0 0 220.000000 208.000000" width="110.000000mm" height="104.000000mm" version="1.1">
<a xlink:href="zxu-0x7ffa06780650.svg">
<rect x="1.000000" y="1.000000" width="219.000000" height="207.000000" rx="0" ry="0" style="stroke:none;fill:#cccccc;"/>
<rect x="0.000000" y="0.000000" width="219.000000" height="207.000000" rx="0" ry="0" style="stroke:none;fill:#ffffff;"/>
</a>
<text x="10.000000" y="7.000000" font-family="Arial" font-size="7"></text>
<rect x="67.650000" y="35.000000" width="38.700000" height="24.000000" rx="0" ry="0" style="stroke:none;fill:#cccccc;"/>
<rect x="66.650000" y="34.000000" width="38.700000" height="24.000000" rx="0" ry="0" style="stroke:none;fill:#f44800;"/>
<text x="86.000000" y="48.000000" font-family="Arial" font-size="7" text-anchor="middle" fill="#FFFFFF">0.027974</text>
<circle cx="68.650000" cy="36.000000" r="1"/>
<line x1="57.650000" y1="25.000000" x2="57.650000" y2="67.000000"  style="stroke: black; stroke-linecap:round; stroke-width:0.25; stroke-dasharray:3,3;"/>
<line x1="57.650000" y1="67.000000" x2="114.350000" y2="67.000000"  style="stroke: black; stroke-linecap:round; stroke-width:0.25; stroke-dasharray:3,3;"/>
<line x1="114.350000" y1="67.000000" x2="114.350000" y2="25.000000"  style="stroke: black; stroke-linecap:round; stroke-width:0.25; stroke-dasharray:3,3;"/>
<line x1="57.650000" y1="25.000000" x2="62.650000" y2="25.000000"  style="stroke: black; stroke-linecap:round; stroke-width:0.25; stroke-dasharray:3,3;"/>
<line x1="114.350000" y1="25.000000" x2="114.350000" y2="25.000000"  style="stroke: black; stroke-linecap:round; stroke-width:0.25; stroke-dasharray:3,3;"/>
<text x="62.650000" y="27.000000" font-family="Arial" font-size="7">semBigCenterGain(18)</text>
<rect x="47.650000" y="77.000000" width="38.700000" height="24.000000" rx="0" ry="0" style="stroke:none;fill:#cccccc;"/>
<rect x="46.650000" y="76.000000" width="38.700000" height="24.000000" rx="0" ry="0" style="stroke:none;fill:#f44800;"/>
<text x="66.000000" y="90.000000" font-family="Arial" font-size="7" text-anchor="middle" fill="#FFFFFF">0.013929</text>
<circle cx="48.650000" cy="78.000000" r="1"/>
<a xlink:href="shape-0x7ff9fcd63920.svg">
<rect x="34.100000" y="109.000000" width="25.800000" height="24.000000" rx="0" ry="0" style="stroke:none;fill:#cccccc;"/>
<rect x="33.100000" y="108.000000" width="25.800000" height="24.000000" rx="0" ry="0" style="stroke:none;fill:#003366;"/>
</a>
<a xlink:href="shape-0x7ff9fcd63920.svg">
<text x="46.000000" y="122.000000" font-family="Arial" font-size="7" text-anchor="middle" fill="#FFFFFF">shape</text>
</a>
<circle cx="35.100000" cy="110.000000" r="1"/>
<rect x="35.000000" y="151.000000" width="24.000000" height="24.000000" rx="0" ry="0" style="stroke:none;fill:#cccccc;"/>
<rect x="34.000000" y="150.000000" width="24.000000" height="24.000000" rx="0" ry="0" style="stroke:none;fill:#f44800;"/>
<text x="46.000000" y="164.000000" font-family="Arial" font-size="7" text-anchor="middle" fill="#FFFFFF">1</text>
<circle cx="36.000000" cy="152.000000" r="1"/>
<line x1="25.000000" y1="141.000000" x2="25.000000" y2="183.000000"  style="stroke: black; stroke-linecap:round; stroke-width:0.25; stroke-dasharray:3,3;"/>
<line x1="25.000000" y1="183.000000" x2="67.000000" y2="183.000000"  style="stroke: black; stroke-linecap:round; stroke-width:0.25; stroke-dasharray:3,3;"/>
<line x1="67.000000" y1="183.000000" x2="67.000000" y2="141.000000"  style="stroke: black; stroke-linecap:round; stroke-width:0.25; stroke-dasharray:3,3;"/>
<line x1="25.000000" y1="141.000000" x2="30.000000" y2="141.000000"  style="stroke: black; stroke-linecap:round; stroke-width:0.25; stroke-dasharray:3,3;"/>
<line x1="42.900000" y1="141.000000" x2="67.000000" y2="141.000000"  style="stroke: black; stroke-linecap:round; stroke-width:0.25; stroke-dasharray:3,3;"/>
<text x="30.000000" y="143.000000" font-family="Arial" font-size="7">b0</text>
<rect x="85.000000" y="135.000000" width="24.000000" height="24.000000" rx="0" ry="0" style="stroke:none;fill:#cccccc;"/>
<rect x="84.000000" y="134.000000" width="24.000000" height="24.000000" rx="0" ry="0" style="stroke:none;fill:#4B71A1;"/>
<text x="96.000000" y="148.000000" font-family="Arial" font-size="7" text-anchor="middle" fill="#FFFFFF">-</text>
<circle cx="86.000000" cy="136.000000" r="1"/>
<line x1="81.000000" y1="141.000000" x2="84.000000" y2="142.000000"  transform="rotate(0.000000,84.000000,142.000000)" style="stroke: black; stroke-width:0.25;"/>
<line x1="81.000000" y1="143.000000" x2="84.000000" y2="142.000000"  transform="rotate(0.000000,84.000000,142.000000)" style="stroke: black; stroke-width:0.25;"/>
<line x1="81.000000" y1="149.000000" x2="84.000000" y2="150.000000"  transform="rotate(0.000000,84.000000,150.000000)" style="stroke: black; stroke-width:0.25;"/>
<line x1="81.000000" y1="151.000000" x2="84.000000" y2="150.000000"  transform="rotate(0.000000,84.000000,150.000000)" style="stroke: black; stroke-width:0.25;"/>
<rect x="125.000000" y="119.000000" width="24.000000" height="24.000000" rx="0" ry="0" style="stroke:none;fill:#cccccc;"/>
<rect x="124.000000" y="118.000000" width="24.000000" height="24.000000" rx="0" ry="0" style="stroke:none;fill:#4B71A1;"/>
<text x="136.000000" y="132.000000" font-family="Arial" font-size="7" text-anchor="middle" fill="#FFFFFF">*</text>
<circle cx="126.000000" cy="120.000000" r="1"/>
<line x1="121.000000" y1="125.000000" x2="124.000000" y2="126.000000"  transform="rotate(0.000000,124.000000,126.000000)" style="stroke: black; stroke-width:0.25;"/>
<line x1="121.000000" y1="127.000000" x2="124.000000" y2="126.000000"  transform="rotate(0.000000,124.000000,126.000000)" style="stroke: black; stroke-width:0.25;"/>
<line x1="121.000000" y1="133.000000" x2="124.000000" y2="134.000000"  transform="rotate(0.000000,124.000000,134.000000)" style="stroke: black; stroke-width:0.25;"/>
<line x1="121.000000" y1="135.000000" x2="124.000000" y2="134.000000"  transform="rotate(0.000000,124.000000,134.000000)" style="stroke: black; stroke-width:0.25;"/>
<rect x="165.000000" y="93.000000" width="24.000000" height="24.000000" rx="0" ry="0" style="stroke:none;fill:#cccccc;"/>
<rect x="164.000000" y="92.000000" width="24.000000" height="24.000000" rx="0" ry="0" style="stroke:none;fill:#4B71A1;"/>
<text x="176.000000" y="106.000000" font-family="Arial" font-size="7" text-anchor="middle" fill="#FFFFFF">+</text>
<circle cx="166.000000" cy="94.000000" r="1"/>
<line x1="161.000000" y1="99.000000" x2="164.000000" y2="100.000000"  transform="rotate(0.000000,164.000000,100.000000)" style="stroke: black; stroke-width:0.25;"/>
<line x1="161.000000" y1="101.000000" x2="164.000000" y2="100.000000"  transform="rotate(0.000000,164.000000,100.000000)" style="stroke: black; stroke-width:0.25;"/>
<line x1="161.000000" y1="107.000000" x2="164.000000" y2="108.000000"  transform="rotate(0.000000,164.000000,108.000000)" style="stroke: black; stroke-width:0.25;"/>
<line x1="161.000000" y1="109.000000" x2="164.000000" y2="108.000000"  transform="rotate(0.000000,164.000000,108.000000)" style="stroke: black; stroke-width:0.25;"/>
<line x1="15.000000" y1="15.000000" x2="15.000000" y2="193.000000"  style="stroke: black; stroke-linecap:round; stroke-width:0.25; stroke-dasharray:3,3;"/>
<line x1="15.000000" y1="193.000000" x2="205.000000" y2="193.000000"  style="stroke: black; stroke-linecap:round; stroke-width:0.25; stroke-dasharray:3,3;"/>
<line x1="205.000000" y1="193.000000" x2="205.000000" y2="15.000000"  style="stroke: black; stroke-linecap:round; stroke-width:0.25; stroke-dasharray:3,3;"/>
<line x1="15.000000" y1="15.000000" x2="20.000000" y2="15.000000"  style="stroke: black; stroke-linecap:round; stroke-width:0.25; stroke-dasharray:3,3;"/>
<line x1="36.125000" y1="15.000000" x2="205.000000" y2="15.000000"  style="stroke: black; stroke-linecap:round; stroke-width:0.25; stroke-dasharray:3,3;"/>
<text x="20.000000" y="17.000000" font-family="Arial" font-size="7">zx5</text>
<line x1="207.000000" y1="103.000000" x2="210.000000" y2="104.000000"  transform="rotate(0.000000,210.000000,104.000000)" style="stroke: black; stroke-width:0.25;"/>
<line x1="207.000000" y1="105.000000" x2="210.000000" y2="104.000000"  transform="rotate(0.000000,210.000000,104.000000)" style="stroke: black; stroke-width:0.25;"/>
<line x1="58.000000" y1="162.000000" x2="62.000000" y2="162.000000"  style="stroke:black; stroke-linecap:round; stroke-width:0.25;"/>
<line x1="58.900000" y1="120.000000" x2="62.900000" y2="120.000000"  style="stroke:black; stroke-linecap:round; stroke-width:0.25;"/>
<line x1="62.000000" y1="162.000000" x2="72.000000" y2="162.000000"  style="stroke:black; stroke-linecap:round; stroke-width:0.25;"/>
<line x1="62.900000" y1="120.000000" x2="72.000000" y2="120.000000"  style="stroke:black; stroke-linecap:round; stroke-width:0.25;"/>
<line x1="72.000000" y1="120.000000" x2="80.000000" y2="120.000000"  style="stroke:black; stroke-linecap:round; stroke-width:0.25;"/>
<line x1="72.000000" y1="150.000000" x2="80.000000" y2="150.000000"  style="stroke:black; stroke-linecap:round; stroke-width:0.25;"/>
<line x1="72.000000" y1="162.000000" x2="72.000000" y2="150.000000"  style="stroke:black; stroke-linecap:round; stroke-width:0.25;"/>
<line x1="72.000000" y1="162.000000" x2="72.000000" y2="162.000000"  style="stroke:black; stroke-linecap:round; stroke-width:0.25;"/>
<line x1="80.000000" y1="120.000000" x2="80.000000" y2="142.000000"  style="stroke:black; stroke-linecap:round; stroke-width:0.25;"/>
<line x1="80.000000" y1="142.000000" x2="80.000000" y2="142.000000"  style="stroke:black; stroke-linecap:round; stroke-width:0.25;"/>
<line x1="80.000000" y1="142.000000" x2="84.000000" y2="142.000000"  style="stroke:black; stroke-linecap:round; stroke-width:0.25;"/>
<line x1="80.000000" y1="150.000000" x2="84.000000" y2="150.000000"  style="stroke:black; stroke-linecap:round; stroke-width:0.25;"/>
<line x1="85.350000" y1="88.000000" x2="89.350000" y2="88.000000"  style="stroke:black; stroke-linecap:round; stroke-width:0.25;"/>
<line x1="89.350000" y1="88.000000" x2="112.000000" y2="88.000000"  style="stroke:black; stroke-linecap:round; stroke-width:0.25;"/>
<line x1="105.350000" y1="46.000000" x2="109.350000" y2="46.000000"  style="stroke:black; stroke-linecap:round; stroke-width:0.25;"/>
<line x1="108.000000" y1="146.000000" x2="112.000000" y2="146.000000"  style="stroke:black; stroke-linecap:round; stroke-width:0.25;"/>
<line x1="109.350000" y1="46.000000" x2="119.350000" y2="46.000000"  style="stroke:black; stroke-linecap:round; stroke-width:0.25;"/>
<line x1="112.000000" y1="88.000000" x2="120.000000" y2="88.000000"  style="stroke:black; stroke-linecap:round; stroke-width:0.25;"/>
<line x1="112.000000" y1="134.000000" x2="120.000000" y2="134.000000"  style="stroke:black; stroke-linecap:round; stroke-width:0.25;"/>
<line x1="112.000000" y1="146.000000" x2="112.000000" y2="134.000000"  style="stroke:black; stroke-linecap:round; stroke-width:0.25;"/>
<line x1="112.000000" y1="146.000000" x2="112.000000" y2="146.000000"  style="stroke:black; stroke-linecap:round; stroke-width:0.25;"/>
<line x1="119.350000" y1="46.000000" x2="152.000000" y2="46.000000"  style="stroke:black; stroke-linecap:round; stroke-width:0.25;"/>
<line x1="120.000000" y1="88.000000" x2="120.000000" y2="126.000000"  style="stroke:black; stroke-linecap:round; stroke-width:0.25;"/>
<line x1="120.000000" y1="126.000000" x2="120.000000" y2="126.000000"  style="stroke:black; stroke-linecap:round; stroke-width:0.25;"/>
<line x1="120.000000" y1="126.000000" x2="124.000000" y2="126.000000"  style="stroke:black; stroke-linecap:round; stroke-width:0.25;"/>
<line x1="120.000000" y1="134.000000" x2="124.000000" y2="134.000000"  style="stroke:black; stroke-linecap:round; stroke-width:0.25;"/>
<line x1="148.000000" y1="130.000000" x2="152.000000" y2="130.000000"  style="stroke:black; stroke-linecap:round; stroke-width:0.25;"/>
<line x1="152.000000" y1="46.000000" x2="160.000000" y2="46.000000"  style="stroke:black; stroke-linecap:round; stroke-width:0.25;"/>
<line x1="152.000000" y1="108.000000" x2="160.000000" y2="108.000000"  style="stroke:black; stroke-linecap:round; stroke-width:0.25;"/>
<line x1="152.000000" y1="130.000000" x2="152.000000" y2="108.000000"  style="stroke:black; stroke-linecap:round; stroke-width:0.25;"/>
<line x1="152.000000" y1="130.000000" x2="152.000000" y2="130.000000"  style="stroke:black; stroke-linecap:round; stroke-width:0.25;"/>
<line x1="160.000000" y1="46.000000" x2="160.000000" y2="100.000000"  style="stroke:black; stroke-linecap:round; stroke-width:0.25;"/>
<line x1="160.000000" y1="100.000000" x2="160.000000" y2="100.000000"  style="stroke:black; stroke-linecap:round; stroke-width:0.25;"/>
<line x1="160.000000" y1="100.000000" x2="164.000000" y2="100.000000"  style="stroke:black; stroke-linecap:round; stroke-width:0.25;"/>
<line x1="160.000000" y1="108.000000" x2="164.000000" y2="108.000000"  style="stroke:black; stroke-linecap:round; stroke-width:0.25;"/>
<line x1="188.000000" y1="104.000000" x2="192.000000" y2="104.000000"  style="stroke:black; stroke-linecap:round; stroke-width:0.25;"/>
<line x1="192.000000" y1="104.000000" x2="192.000000" y2="104.000000"  style="stroke:black; stroke-linecap:round; stroke-width:0.25;"/>
<line x1="192.000000" y1="104.000000" x2="196.000000" y2="104.000000"  style="stroke:black; stroke-linecap:round; stroke-width:0.25;"/>
<line x1="196.000000" y1="104.000000" x2="200.000000" y2="104.000000"  style="stroke:black; stroke-linecap:round; stroke-width:0.25;"/>
<line x1="200.000000" y1="104.000000" x2="210.000000" y2="104.000000"  style="stroke:black; stroke-linecap:round; stroke-width:0.25;"/>
</svg>
