<?xml version="1.0"?>
<svg xmlns="http://www.w3.org/2000/svg" xmlns:xlink="http://www.w3.org/1999/xlink" viewBox="0 0 217.000000 72.000000" width="108.500000mm" height="36.000000mm" version="1.1">
<rect x="1.000000" y="1.000000" width="216.000000" height="71.000000" rx="0" ry="0" style="stroke:none;fill:#cccccc;"/>
<rect x="0.000000" y="0.000000" width="216.000000" height="71.000000" rx="0" ry="0" style="stroke:none;fill:#ffffff;"/>
<text x="10.000000" y="7.000000" font-family="Arial" font-size="7"></text>
<a xlink:href="zita-0x124be4510.svg">
<rect x="33.000000" y="25.000000" width="51.600000" height="24.000000" rx="0" ry="0" style="stroke:none;fill:#cccccc;"/>
<rect x="32.000000" y="24.000000" width="51.600000" height="24.000000" rx="0" ry="0" style="stroke:none;fill:#003366;"/>
</a>
<a xlink:href="zita-0x124be4510.svg">
<text x="57.800000" y="38.000000" font-family="Arial" font-size="7" text-anchor="middle" fill="#FFFFFF">zita_light</text>
</a>
<circle cx="34.000000" cy="26.000000" r="1"/>
<line x1="29.000000" y1="31.000000" x2="32.000000" y2="32.000000"  transform="rotate(0.000000,32.000000,32.000000)" style="stroke: black; stroke-width:0.25;"/>
<line x1="29.000000" y1="33.000000" x2="32.000000" y2="32.000000"  transform="rotate(0.000000,32.000000,32.000000)" style="stroke: black; stroke-width:0.25;"/>
<line x1="29.000000" y1="39.000000" x2="32.000000" y2="40.000000"  transform="rotate(0.000000,32.000000,40.000000)" style="stroke: black; stroke-width:0.25;"/>
<line x1="29.000000" y1="41.000000" x2="32.000000" y2="40.000000"  transform="rotate(0.000000,32.000000,40.000000)" style="stroke: black; stroke-width:0.25;"/>
<a xlink:href="cubicnl-0x124be6600.svg">
<rect x="108.600000" y="25.000000" width="77.400000" height="24.000000" rx="0" ry="0" style="stroke:none;fill:#cccccc;"/>
<rect x="107.600000" y="24.000000" width="77.400000" height="24.000000" rx="0" ry="0" style="stroke:none;fill:#003366;"/>
</a>
<a xlink:href="cubicnl-0x124be6600.svg">
<text x="146.300000" y="38.000000" font-family="Arial" font-size="7" text-anchor="middle" fill="#FFFFFF">cubicnl(0.6f)(0)</text>
</a>
<circle cx="109.600000" cy="26.000000" r="1"/>
<line x1="104.600000" y1="35.000000" x2="107.600000" y2="36.000000"  transform="rotate(0.000000,107.600000,36.000000)" style="stroke: black; stroke-width:0.25;"/>
<line x1="104.600000" y1="37.000000" x2="107.600000" y2="36.000000"  transform="rotate(0.000000,107.600000,36.000000)" style="stroke: black; stroke-width:0.25;"/>
<line x1="15.000000" y1="15.000000" x2="15.000000" y2="57.000000"  style="stroke: black; stroke-linecap:round; stroke-width:0.25; stroke-dasharray:3,3;"/>
<line x1="15.000000" y1="57.000000" x2="202.000000" y2="57.000000"  style="stroke: black; stroke-linecap:round; stroke-width:0.25; stroke-dasharray:3,3;"/>
<line x1="202.000000" y1="57.000000" x2="202.000000" y2="15.000000"  style="stroke: black; stroke-linecap:round; stroke-width:0.25; stroke-dasharray:3,3;"/>
<line x1="15.000000" y1="15.000000" x2="20.000000" y2="15.000000"  style="stroke: black; stroke-linecap:round; stroke-width:0.25; stroke-dasharray:3,3;"/>
<line x1="49.025000" y1="15.000000" x2="202.000000" y2="15.000000"  style="stroke: black; stroke-linecap:round; stroke-width:0.25; stroke-dasharray:3,3;"/>
<text x="20.000000" y="17.000000" font-family="Arial" font-size="7">process</text>
<line x1="204.000000" y1="35.000000" x2="207.000000" y2="36.000000"  transform="rotate(0.000000,207.000000,36.000000)" style="stroke: black; stroke-width:0.25;"/>
<line x1="204.000000" y1="37.000000" x2="207.000000" y2="36.000000"  transform="rotate(0.000000,207.000000,36.000000)" style="stroke: black; stroke-width:0.25;"/>
<line x1="10.000000" y1="32.000000" x2="20.000000" y2="32.000000"  style="stroke:black; stroke-linecap:round; stroke-width:0.25;"/>
<line x1="10.000000" y1="40.000000" x2="20.000000" y2="40.000000"  style="stroke:black; stroke-linecap:round; stroke-width:0.25;"/>
<line x1="20.000000" y1="32.000000" x2="24.000000" y2="32.000000"  style="stroke:black; stroke-linecap:round; stroke-width:0.25;"/>
<line x1="20.000000" y1="40.000000" x2="24.000000" y2="40.000000"  style="stroke:black; stroke-linecap:round; stroke-width:0.25;"/>
<line x1="24.000000" y1="32.000000" x2="28.000000" y2="32.000000"  style="stroke:black; stroke-linecap:round; stroke-width:0.25;"/>
<line x1="24.000000" y1="40.000000" x2="28.000000" y2="40.000000"  style="stroke:black; stroke-linecap:round; stroke-width:0.25;"/>
<line x1="28.000000" y1="32.000000" x2="28.000000" y2="32.000000"  style="stroke:black; stroke-linecap:round; stroke-width:0.25;"/>
<line x1="28.000000" y1="32.000000" x2="32.000000" y2="32.000000"  style="stroke:black; stroke-linecap:round; stroke-width:0.25;"/>
<line x1="28.000000" y1="40.000000" x2="28.000000" y2="40.000000"  style="stroke:black; stroke-linecap:round; stroke-width:0.25;"/>
<line x1="28.000000" y1="40.000000" x2="32.000000" y2="40.000000"  style="stroke:black; stroke-linecap:round; stroke-width:0.25;"/>
<line x1="83.600000" y1="32.000000" x2="87.600000" y2="32.000000"  style="stroke:black; stroke-linecap:round; stroke-width:0.25;"/>
<line x1="83.600000" y1="40.000000" x2="87.600000" y2="40.000000"  style="stroke:black; stroke-linecap:round; stroke-width:0.25;"/>
<line x1="87.600000" y1="32.000000" x2="103.600000" y2="36.000000"  style="stroke:black; stroke-linecap:round; stroke-width:0.25;"/>
<line x1="87.600000" y1="40.000000" x2="103.600000" y2="36.000000"  style="stroke:black; stroke-linecap:round; stroke-width:0.25;"/>
<line x1="103.600000" y1="36.000000" x2="107.600000" y2="36.000000"  style="stroke:black; stroke-linecap:round; stroke-width:0.25;"/>
<line x1="185.000000" y1="36.000000" x2="189.000000" y2="36.000000"  style="stroke:black; stroke-linecap:round; stroke-width:0.25;"/>
<line x1="189.000000" y1="36.000000" x2="189.000000" y2="36.000000"  style="stroke:black; stroke-linecap:round; stroke-width:0.25;"/>
<line x1="189.000000" y1="36.000000" x2="193.000000" y2="36.000000"  style="stroke:black; stroke-linecap:round; stroke-width:0.25;"/>
<line x1="193.000000" y1="36.000000" x2="197.000000" y2="36.000000"  style="stroke:black; stroke-linecap:round; stroke-width:0.25;"/>
<line x1="197.000000" y1="36.000000" x2="207.000000" y2="36.000000"  style="stroke:black; stroke-linecap:round; stroke-width:0.25;"/>
</svg>
