<?xml version="1.0"?>
<svg xmlns="http://www.w3.org/2000/svg" xmlns:xlink="http://www.w3.org/1999/xlink" viewBox="0 0 571.400000 292.000000" width="285.700000mm" height="146.000000mm" version="1.1">
<a xlink:href="SFFormantMode-0x7fae6f119d90.svg">
<rect x="1.000000" y="1.000000" width="570.400000" height="291.000000" rx="0" ry="0" style="stroke:none;fill:#cccccc;"/>
<rect x="0.000000" y="0.000000" width="570.400000" height="291.000000" rx="0" ry="0" style="stroke:none;fill:#ffffff;"/>
</a>
<text x="10.000000" y="7.000000" font-family="Arial" font-size="7"></text>
<rect x="239.350000" y="35.000000" width="24.000000" height="24.000000" rx="0" ry="0" style="stroke:none;fill:#cccccc;"/>
<rect x="238.350000" y="34.000000" width="24.000000" height="24.000000" rx="0" ry="0" style="stroke:none;fill:#f44800;"/>
<text x="250.350000" y="48.000000" font-family="Arial" font-size="7" text-anchor="middle" fill="#FFFFFF">0</text>
<circle cx="240.350000" cy="36.000000" r="1"/>
<line x1="229.350000" y1="25.000000" x2="229.350000" y2="67.000000"  style="stroke: black; stroke-linecap:round; stroke-width:0.25; stroke-dasharray:3,3;"/>
<line x1="229.350000" y1="67.000000" x2="271.350000" y2="67.000000"  style="stroke: black; stroke-linecap:round; stroke-width:0.25; stroke-dasharray:3,3;"/>
<line x1="271.350000" y1="67.000000" x2="271.350000" y2="25.000000"  style="stroke: black; stroke-linecap:round; stroke-width:0.25; stroke-dasharray:3,3;"/>
<line x1="229.350000" y1="25.000000" x2="234.350000" y2="25.000000"  style="stroke: black; stroke-linecap:round; stroke-width:0.25; stroke-dasharray:3,3;"/>
<line x1="247.250000" y1="25.000000" x2="271.350000" y2="25.000000"  style="stroke: black; stroke-linecap:round; stroke-width:0.25; stroke-dasharray:3,3;"/>
<text x="234.350000" y="27.000000" font-family="Arial" font-size="7">b2</text>
<a xlink:href="sawtooth-0x7fae7a154e60.svg">
<rect x="25.000000" y="77.000000" width="129.000000" height="24.000000" rx="0" ry="0" style="stroke:none;fill:#cccccc;"/>
<rect x="24.000000" y="76.000000" width="129.000000" height="24.000000" rx="0" ry="0" style="stroke:none;fill:#003366;"/>
</a>
<a xlink:href="sawtooth-0x7fae7a154e60.svg">
<text x="88.500000" y="90.000000" font-family="Arial" font-size="7" text-anchor="middle" fill="#FFFFFF">sawtooth((((h...),1 : +) : *)</text>
</a>
<circle cx="26.000000" cy="78.000000" r="1"/>
<rect x="77.500000" y="119.000000" width="24.000000" height="24.000000" rx="0" ry="0" style="stroke:none;fill:#cccccc;"/>
<rect x="76.500000" y="118.000000" width="24.000000" height="24.000000" rx="0" ry="0" style="stroke:none;fill:#f44800;"/>
<text x="88.500000" y="132.000000" font-family="Arial" font-size="7" text-anchor="middle" fill="#FFFFFF">1</text>
<circle cx="78.500000" cy="120.000000" r="1"/>
<line x1="67.500000" y1="109.000000" x2="67.500000" y2="151.000000"  style="stroke: black; stroke-linecap:round; stroke-width:0.25; stroke-dasharray:3,3;"/>
<line x1="67.500000" y1="151.000000" x2="109.500000" y2="151.000000"  style="stroke: black; stroke-linecap:round; stroke-width:0.25; stroke-dasharray:3,3;"/>
<line x1="109.500000" y1="151.000000" x2="109.500000" y2="109.000000"  style="stroke: black; stroke-linecap:round; stroke-width:0.25; stroke-dasharray:3,3;"/>
<line x1="67.500000" y1="109.000000" x2="72.500000" y2="109.000000"  style="stroke: black; stroke-linecap:round; stroke-width:0.25; stroke-dasharray:3,3;"/>
<line x1="85.400000" y1="109.000000" x2="109.500000" y2="109.000000"  style="stroke: black; stroke-linecap:round; stroke-width:0.25; stroke-dasharray:3,3;"/>
<text x="72.500000" y="111.000000" font-family="Arial" font-size="7">a0</text>
<rect x="170.000000" y="103.000000" width="24.000000" height="24.000000" rx="0" ry="0" style="stroke:none;fill:#cccccc;"/>
<rect x="169.000000" y="102.000000" width="24.000000" height="24.000000" rx="0" ry="0" style="stroke:none;fill:#4B71A1;"/>
<text x="181.000000" y="116.000000" font-family="Arial" font-size="7" text-anchor="middle" fill="#FFFFFF">*</text>
<circle cx="171.000000" cy="104.000000" r="1"/>
<line x1="166.000000" y1="109.000000" x2="169.000000" y2="110.000000"  transform="rotate(0.000000,169.000000,110.000000)" style="stroke: black; stroke-width:0.25;"/>
<line x1="166.000000" y1="111.000000" x2="169.000000" y2="110.000000"  transform="rotate(0.000000,169.000000,110.000000)" style="stroke: black; stroke-width:0.25;"/>
<line x1="166.000000" y1="117.000000" x2="169.000000" y2="118.000000"  transform="rotate(0.000000,169.000000,118.000000)" style="stroke: black; stroke-width:0.25;"/>
<line x1="166.000000" y1="119.000000" x2="169.000000" y2="118.000000"  transform="rotate(0.000000,169.000000,118.000000)" style="stroke: black; stroke-width:0.25;"/>
<a xlink:href="breath-0x7fae7a53e9f0.svg">
<rect x="76.600000" y="161.000000" width="25.800000" height="24.000000" rx="0" ry="0" style="stroke:none;fill:#cccccc;"/>
<rect x="75.600000" y="160.000000" width="25.800000" height="24.000000" rx="0" ry="0" style="stroke:none;fill:#003366;"/>
</a>
<a xlink:href="breath-0x7fae7a53e9f0.svg">
<text x="88.500000" y="174.000000" font-family="Arial" font-size="7" text-anchor="middle" fill="#FFFFFF">breath</text>
</a>
<circle cx="77.600000" cy="162.000000" r="1"/>
<rect x="77.500000" y="203.000000" width="24.000000" height="24.000000" rx="0" ry="0" style="stroke:none;fill:#cccccc;"/>
<rect x="76.500000" y="202.000000" width="24.000000" height="24.000000" rx="0" ry="0" style="stroke:none;fill:#f44800;"/>
<text x="88.500000" y="216.000000" font-family="Arial" font-size="7" text-anchor="middle" fill="#FFFFFF">0</text>
<circle cx="78.500000" cy="204.000000" r="1"/>
<line x1="67.500000" y1="193.000000" x2="67.500000" y2="235.000000"  style="stroke: black; stroke-linecap:round; stroke-width:0.25; stroke-dasharray:3,3;"/>
<line x1="67.500000" y1="235.000000" x2="109.500000" y2="235.000000"  style="stroke: black; stroke-linecap:round; stroke-width:0.25; stroke-dasharray:3,3;"/>
<line x1="109.500000" y1="235.000000" x2="109.500000" y2="193.000000"  style="stroke: black; stroke-linecap:round; stroke-width:0.25; stroke-dasharray:3,3;"/>
<line x1="67.500000" y1="193.000000" x2="72.500000" y2="193.000000"  style="stroke: black; stroke-linecap:round; stroke-width:0.25; stroke-dasharray:3,3;"/>
<line x1="85.400000" y1="193.000000" x2="109.500000" y2="193.000000"  style="stroke: black; stroke-linecap:round; stroke-width:0.25; stroke-dasharray:3,3;"/>
<text x="72.500000" y="195.000000" font-family="Arial" font-size="7">b2</text>
<rect x="127.500000" y="187.000000" width="24.000000" height="24.000000" rx="0" ry="0" style="stroke:none;fill:#cccccc;"/>
<rect x="126.500000" y="186.000000" width="24.000000" height="24.000000" rx="0" ry="0" style="stroke:none;fill:#4B71A1;"/>
<text x="138.500000" y="200.000000" font-family="Arial" font-size="7" text-anchor="middle" fill="#FFFFFF">*</text>
<circle cx="128.500000" cy="188.000000" r="1"/>
<line x1="123.500000" y1="193.000000" x2="126.500000" y2="194.000000"  transform="rotate(0.000000,126.500000,194.000000)" style="stroke: black; stroke-width:0.25;"/>
<line x1="123.500000" y1="195.000000" x2="126.500000" y2="194.000000"  transform="rotate(0.000000,126.500000,194.000000)" style="stroke: black; stroke-width:0.25;"/>
<line x1="123.500000" y1="201.000000" x2="126.500000" y2="202.000000"  transform="rotate(0.000000,126.500000,202.000000)" style="stroke: black; stroke-width:0.25;"/>
<line x1="123.500000" y1="203.000000" x2="126.500000" y2="202.000000"  transform="rotate(0.000000,126.500000,202.000000)" style="stroke: black; stroke-width:0.25;"/>
<rect x="210.000000" y="145.000000" width="24.000000" height="24.000000" rx="0" ry="0" style="stroke:none;fill:#cccccc;"/>
<rect x="209.000000" y="144.000000" width="24.000000" height="24.000000" rx="0" ry="0" style="stroke:none;fill:#4B71A1;"/>
<text x="221.000000" y="158.000000" font-family="Arial" font-size="7" text-anchor="middle" fill="#FFFFFF">+</text>
<circle cx="211.000000" cy="146.000000" r="1"/>
<line x1="206.000000" y1="151.000000" x2="209.000000" y2="152.000000"  transform="rotate(0.000000,209.000000,152.000000)" style="stroke: black; stroke-width:0.25;"/>
<line x1="206.000000" y1="153.000000" x2="209.000000" y2="152.000000"  transform="rotate(0.000000,209.000000,152.000000)" style="stroke: black; stroke-width:0.25;"/>
<line x1="206.000000" y1="159.000000" x2="209.000000" y2="160.000000"  transform="rotate(0.000000,209.000000,160.000000)" style="stroke: black; stroke-width:0.25;"/>
<line x1="206.000000" y1="161.000000" x2="209.000000" y2="160.000000"  transform="rotate(0.000000,209.000000,160.000000)" style="stroke: black; stroke-width:0.25;"/>
<rect x="260.000000" y="149.000000" width="167.700000" height="24.000000" rx="0" ry="0" style="stroke:none;fill:#cccccc;"/>
<rect x="259.000000" y="148.000000" width="167.700000" height="24.000000" rx="0" ry="0" style="stroke:none;fill:#477881;"/>
<text x="342.850000" y="162.000000" font-family="Arial" font-size="7" text-anchor="middle" fill="#FFFFFF">hslider(gain, 0.25f, 0.0f, 1.0f, 0.01f)</text>
<circle cx="261.000000" cy="150.000000" r="1"/>
<line x1="250.000000" y1="139.000000" x2="250.000000" y2="181.000000"  style="stroke: black; stroke-linecap:round; stroke-width:0.25; stroke-dasharray:3,3;"/>
<line x1="250.000000" y1="181.000000" x2="435.700000" y2="181.000000"  style="stroke: black; stroke-linecap:round; stroke-width:0.25; stroke-dasharray:3,3;"/>
<line x1="435.700000" y1="181.000000" x2="435.700000" y2="139.000000"  style="stroke: black; stroke-linecap:round; stroke-width:0.25; stroke-dasharray:3,3;"/>
<line x1="250.000000" y1="139.000000" x2="255.000000" y2="139.000000"  style="stroke: black; stroke-linecap:round; stroke-width:0.25; stroke-dasharray:3,3;"/>
<line x1="274.350000" y1="139.000000" x2="435.700000" y2="139.000000"  style="stroke: black; stroke-linecap:round; stroke-width:0.25; stroke-dasharray:3,3;"/>
<text x="255.000000" y="141.000000" font-family="Arial" font-size="7">gain</text>
<rect x="453.700000" y="145.000000" width="24.000000" height="24.000000" rx="0" ry="0" style="stroke:none;fill:#cccccc;"/>
<rect x="452.700000" y="144.000000" width="24.000000" height="24.000000" rx="0" ry="0" style="stroke:none;fill:#4B71A1;"/>
<text x="464.700000" y="158.000000" font-family="Arial" font-size="7" text-anchor="middle" fill="#FFFFFF">*</text>
<circle cx="454.700000" cy="146.000000" r="1"/>
<line x1="449.700000" y1="151.000000" x2="452.700000" y2="152.000000"  transform="rotate(0.000000,452.700000,152.000000)" style="stroke: black; stroke-width:0.25;"/>
<line x1="449.700000" y1="153.000000" x2="452.700000" y2="152.000000"  transform="rotate(0.000000,452.700000,152.000000)" style="stroke: black; stroke-width:0.25;"/>
<line x1="449.700000" y1="159.000000" x2="452.700000" y2="160.000000"  transform="rotate(0.000000,452.700000,160.000000)" style="stroke: black; stroke-width:0.25;"/>
<line x1="449.700000" y1="161.000000" x2="452.700000" y2="160.000000"  transform="rotate(0.000000,452.700000,160.000000)" style="stroke: black; stroke-width:0.25;"/>
<a xlink:href="sawtooth-0x7fae7a154e60.svg">
<rect x="186.850000" y="245.000000" width="129.000000" height="24.000000" rx="0" ry="0" style="stroke:none;fill:#cccccc;"/>
<rect x="185.850000" y="244.000000" width="129.000000" height="24.000000" rx="0" ry="0" style="stroke:none;fill:#003366;"/>
</a>
<a xlink:href="sawtooth-0x7fae7a154e60.svg">
<text x="250.350000" y="258.000000" font-family="Arial" font-size="7" text-anchor="middle" fill="#FFFFFF">sawtooth((((h...),1 : +) : *)</text>
</a>
<circle cx="187.850000" cy="246.000000" r="1"/>
<rect x="501.700000" y="135.000000" width="38.700000" height="24.000000" rx="0" ry="0" style="stroke:none;fill:#cccccc;"/>
<rect x="500.700000" y="134.000000" width="38.700000" height="24.000000" rx="0" ry="0" style="stroke:none;fill:#4B71A1;"/>
<text x="520.050000" y="148.000000" font-family="Arial" font-size="7" text-anchor="middle" fill="#FFFFFF">select2</text>
<circle cx="502.700000" cy="136.000000" r="1"/>
<line x1="497.700000" y1="137.000000" x2="500.700000" y2="138.000000"  transform="rotate(0.000000,500.700000,138.000000)" style="stroke: black; stroke-width:0.25;"/>
<line x1="497.700000" y1="139.000000" x2="500.700000" y2="138.000000"  transform="rotate(0.000000,500.700000,138.000000)" style="stroke: black; stroke-width:0.25;"/>
<line x1="497.700000" y1="145.000000" x2="500.700000" y2="146.000000"  transform="rotate(0.000000,500.700000,146.000000)" style="stroke: black; stroke-width:0.25;"/>
<line x1="497.700000" y1="147.000000" x2="500.700000" y2="146.000000"  transform="rotate(0.000000,500.700000,146.000000)" style="stroke: black; stroke-width:0.25;"/>
<line x1="497.700000" y1="153.000000" x2="500.700000" y2="154.000000"  transform="rotate(0.000000,500.700000,154.000000)" style="stroke: black; stroke-width:0.25;"/>
<line x1="497.700000" y1="155.000000" x2="500.700000" y2="154.000000"  transform="rotate(0.000000,500.700000,154.000000)" style="stroke: black; stroke-width:0.25;"/>
<line x1="15.000000" y1="15.000000" x2="15.000000" y2="277.000000"  style="stroke: black; stroke-linecap:round; stroke-width:0.25; stroke-dasharray:3,3;"/>
<line x1="15.000000" y1="277.000000" x2="556.400000" y2="277.000000"  style="stroke: black; stroke-linecap:round; stroke-width:0.25; stroke-dasharray:3,3;"/>
<line x1="556.400000" y1="277.000000" x2="556.400000" y2="15.000000"  style="stroke: black; stroke-linecap:round; stroke-width:0.25; stroke-dasharray:3,3;"/>
<line x1="15.000000" y1="15.000000" x2="20.000000" y2="15.000000"  style="stroke: black; stroke-linecap:round; stroke-width:0.25; stroke-dasharray:3,3;"/>
<line x1="58.700000" y1="15.000000" x2="556.400000" y2="15.000000"  style="stroke: black; stroke-linecap:round; stroke-width:0.25; stroke-dasharray:3,3;"/>
<text x="20.000000" y="17.000000" font-family="Arial" font-size="7">excitation</text>
<line x1="558.400000" y1="145.000000" x2="561.400000" y2="146.000000"  transform="rotate(0.000000,561.400000,146.000000)" style="stroke: black; stroke-width:0.25;"/>
<line x1="558.400000" y1="147.000000" x2="561.400000" y2="146.000000"  transform="rotate(0.000000,561.400000,146.000000)" style="stroke: black; stroke-width:0.25;"/>
<line x1="100.500000" y1="130.000000" x2="104.500000" y2="130.000000"  style="stroke:black; stroke-linecap:round; stroke-width:0.25;"/>
<line x1="100.500000" y1="214.000000" x2="104.500000" y2="214.000000"  style="stroke:black; stroke-linecap:round; stroke-width:0.25;"/>
<line x1="101.400000" y1="172.000000" x2="105.400000" y2="172.000000"  style="stroke:black; stroke-linecap:round; stroke-width:0.25;"/>
<line x1="104.500000" y1="130.000000" x2="114.500000" y2="130.000000"  style="stroke:black; stroke-linecap:round; stroke-width:0.25;"/>
<line x1="104.500000" y1="214.000000" x2="114.500000" y2="214.000000"  style="stroke:black; stroke-linecap:round; stroke-width:0.25;"/>
<line x1="105.400000" y1="172.000000" x2="114.500000" y2="172.000000"  style="stroke:black; stroke-linecap:round; stroke-width:0.25;"/>
<line x1="114.500000" y1="130.000000" x2="157.000000" y2="130.000000"  style="stroke:black; stroke-linecap:round; stroke-width:0.25;"/>
<line x1="114.500000" y1="172.000000" x2="122.500000" y2="172.000000"  style="stroke:black; stroke-linecap:round; stroke-width:0.25;"/>
<line x1="114.500000" y1="202.000000" x2="122.500000" y2="202.000000"  style="stroke:black; stroke-linecap:round; stroke-width:0.25;"/>
<line x1="114.500000" y1="214.000000" x2="114.500000" y2="202.000000"  style="stroke:black; stroke-linecap:round; stroke-width:0.25;"/>
<line x1="114.500000" y1="214.000000" x2="114.500000" y2="214.000000"  style="stroke:black; stroke-linecap:round; stroke-width:0.25;"/>
<line x1="122.500000" y1="172.000000" x2="122.500000" y2="194.000000"  style="stroke:black; stroke-linecap:round; stroke-width:0.25;"/>
<line x1="122.500000" y1="194.000000" x2="122.500000" y2="194.000000"  style="stroke:black; stroke-linecap:round; stroke-width:0.25;"/>
<line x1="122.500000" y1="194.000000" x2="126.500000" y2="194.000000"  style="stroke:black; stroke-linecap:round; stroke-width:0.25;"/>
<line x1="122.500000" y1="202.000000" x2="126.500000" y2="202.000000"  style="stroke:black; stroke-linecap:round; stroke-width:0.25;"/>
<line x1="150.500000" y1="198.000000" x2="154.500000" y2="198.000000"  style="stroke:black; stroke-linecap:round; stroke-width:0.25;"/>
<line x1="153.000000" y1="88.000000" x2="157.000000" y2="88.000000"  style="stroke:black; stroke-linecap:round; stroke-width:0.25;"/>
<line x1="154.500000" y1="198.000000" x2="197.000000" y2="198.000000"  style="stroke:black; stroke-linecap:round; stroke-width:0.25;"/>
<line x1="157.000000" y1="88.000000" x2="165.000000" y2="88.000000"  style="stroke:black; stroke-linecap:round; stroke-width:0.25;"/>
<line x1="157.000000" y1="118.000000" x2="165.000000" y2="118.000000"  style="stroke:black; stroke-linecap:round; stroke-width:0.25;"/>
<line x1="157.000000" y1="130.000000" x2="157.000000" y2="118.000000"  style="stroke:black; stroke-linecap:round; stroke-width:0.25;"/>
<line x1="157.000000" y1="130.000000" x2="157.000000" y2="130.000000"  style="stroke:black; stroke-linecap:round; stroke-width:0.25;"/>
<line x1="165.000000" y1="88.000000" x2="165.000000" y2="110.000000"  style="stroke:black; stroke-linecap:round; stroke-width:0.25;"/>
<line x1="165.000000" y1="110.000000" x2="165.000000" y2="110.000000"  style="stroke:black; stroke-linecap:round; stroke-width:0.25;"/>
<line x1="165.000000" y1="110.000000" x2="169.000000" y2="110.000000"  style="stroke:black; stroke-linecap:round; stroke-width:0.25;"/>
<line x1="165.000000" y1="118.000000" x2="169.000000" y2="118.000000"  style="stroke:black; stroke-linecap:round; stroke-width:0.25;"/>
<line x1="193.000000" y1="114.000000" x2="197.000000" y2="114.000000"  style="stroke:black; stroke-linecap:round; stroke-width:0.25;"/>
<line x1="197.000000" y1="114.000000" x2="205.000000" y2="114.000000"  style="stroke:black; stroke-linecap:round; stroke-width:0.25;"/>
<line x1="197.000000" y1="160.000000" x2="205.000000" y2="160.000000"  style="stroke:black; stroke-linecap:round; stroke-width:0.25;"/>
<line x1="197.000000" y1="198.000000" x2="197.000000" y2="160.000000"  style="stroke:black; stroke-linecap:round; stroke-width:0.25;"/>
<line x1="197.000000" y1="198.000000" x2="197.000000" y2="198.000000"  style="stroke:black; stroke-linecap:round; stroke-width:0.25;"/>
<line x1="205.000000" y1="114.000000" x2="205.000000" y2="152.000000"  style="stroke:black; stroke-linecap:round; stroke-width:0.25;"/>
<line x1="205.000000" y1="152.000000" x2="205.000000" y2="152.000000"  style="stroke:black; stroke-linecap:round; stroke-width:0.25;"/>
<line x1="205.000000" y1="152.000000" x2="209.000000" y2="152.000000"  style="stroke:black; stroke-linecap:round; stroke-width:0.25;"/>
<line x1="205.000000" y1="160.000000" x2="209.000000" y2="160.000000"  style="stroke:black; stroke-linecap:round; stroke-width:0.25;"/>
<line x1="233.000000" y1="156.000000" x2="237.000000" y2="156.000000"  style="stroke:black; stroke-linecap:round; stroke-width:0.25;"/>
<line x1="237.000000" y1="130.000000" x2="245.000000" y2="130.000000"  style="stroke:black; stroke-linecap:round; stroke-width:0.25;"/>
<line x1="237.000000" y1="156.000000" x2="237.000000" y2="130.000000"  style="stroke:black; stroke-linecap:round; stroke-width:0.25;"/>
<line x1="237.000000" y1="156.000000" x2="237.000000" y2="156.000000"  style="stroke:black; stroke-linecap:round; stroke-width:0.25;"/>
<line x1="245.000000" y1="130.000000" x2="342.850000" y2="130.000000"  style="stroke:black; stroke-linecap:round; stroke-width:0.25;"/>
<line x1="262.350000" y1="46.000000" x2="266.350000" y2="46.000000"  style="stroke:black; stroke-linecap:round; stroke-width:0.25;"/>
<line x1="266.350000" y1="46.000000" x2="276.350000" y2="46.000000"  style="stroke:black; stroke-linecap:round; stroke-width:0.25;"/>
<line x1="276.350000" y1="46.000000" x2="480.700000" y2="46.000000"  style="stroke:black; stroke-linecap:round; stroke-width:0.25;"/>
<line x1="314.850000" y1="256.000000" x2="318.850000" y2="256.000000"  style="stroke:black; stroke-linecap:round; stroke-width:0.25;"/>
<line x1="318.850000" y1="256.000000" x2="480.700000" y2="256.000000"  style="stroke:black; stroke-linecap:round; stroke-width:0.25;"/>
<line x1="342.850000" y1="130.000000" x2="440.700000" y2="130.000000"  style="stroke:black; stroke-linecap:round; stroke-width:0.25;"/>
<line x1="426.700000" y1="160.000000" x2="430.700000" y2="160.000000"  style="stroke:black; stroke-linecap:round; stroke-width:0.25;"/>
<line x1="430.700000" y1="160.000000" x2="440.700000" y2="160.000000"  style="stroke:black; stroke-linecap:round; stroke-width:0.25;"/>
<line x1="440.700000" y1="160.000000" x2="448.700000" y2="160.000000"  style="stroke:black; stroke-linecap:round; stroke-width:0.25;"/>
<line x1="440.700000" y1="130.000000" x2="448.700000" y2="130.000000"  style="stroke:black; stroke-linecap:round; stroke-width:0.25;"/>
<line x1="448.700000" y1="152.000000" x2="452.700000" y2="152.000000"  style="stroke:black; stroke-linecap:round; stroke-width:0.25;"/>
<line x1="448.700000" y1="160.000000" x2="452.700000" y2="160.000000"  style="stroke:black; stroke-linecap:round; stroke-width:0.25;"/>
<line x1="448.700000" y1="130.000000" x2="448.700000" y2="152.000000"  style="stroke:black; stroke-linecap:round; stroke-width:0.25;"/>
<line x1="448.700000" y1="152.000000" x2="448.700000" y2="152.000000"  style="stroke:black; stroke-linecap:round; stroke-width:0.25;"/>
<line x1="476.700000" y1="156.000000" x2="480.700000" y2="156.000000"  style="stroke:black; stroke-linecap:round; stroke-width:0.25;"/>
<line x1="480.700000" y1="146.000000" x2="496.700000" y2="146.000000"  style="stroke:black; stroke-linecap:round; stroke-width:0.25;"/>
<line x1="480.700000" y1="156.000000" x2="480.700000" y2="146.000000"  style="stroke:black; stroke-linecap:round; stroke-width:0.25;"/>
<line x1="480.700000" y1="156.000000" x2="480.700000" y2="156.000000"  style="stroke:black; stroke-linecap:round; stroke-width:0.25;"/>
<line x1="480.700000" y1="46.000000" x2="496.700000" y2="46.000000"  style="stroke:black; stroke-linecap:round; stroke-width:0.25;"/>
<line x1="480.700000" y1="256.000000" x2="488.700000" y2="256.000000"  style="stroke:black; stroke-linecap:round; stroke-width:0.25;"/>
<line x1="488.700000" y1="154.000000" x2="496.700000" y2="154.000000"  style="stroke:black; stroke-linecap:round; stroke-width:0.25;"/>
<line x1="488.700000" y1="256.000000" x2="488.700000" y2="154.000000"  style="stroke:black; stroke-linecap:round; stroke-width:0.25;"/>
<line x1="496.700000" y1="138.000000" x2="500.700000" y2="138.000000"  style="stroke:black; stroke-linecap:round; stroke-width:0.25;"/>
<line x1="496.700000" y1="146.000000" x2="500.700000" y2="146.000000"  style="stroke:black; stroke-linecap:round; stroke-width:0.25;"/>
<line x1="496.700000" y1="154.000000" x2="500.700000" y2="154.000000"  style="stroke:black; stroke-linecap:round; stroke-width:0.25;"/>
<line x1="496.700000" y1="46.000000" x2="496.700000" y2="138.000000"  style="stroke:black; stroke-linecap:round; stroke-width:0.25;"/>
<line x1="496.700000" y1="138.000000" x2="496.700000" y2="138.000000"  style="stroke:black; stroke-linecap:round; stroke-width:0.25;"/>
<line x1="539.400000" y1="146.000000" x2="543.400000" y2="146.000000"  style="stroke:black; stroke-linecap:round; stroke-width:0.25;"/>
<line x1="543.400000" y1="146.000000" x2="543.400000" y2="146.000000"  style="stroke:black; stroke-linecap:round; stroke-width:0.25;"/>
<line x1="543.400000" y1="146.000000" x2="547.400000" y2="146.000000"  style="stroke:black; stroke-linecap:round; stroke-width:0.25;"/>
<line x1="547.400000" y1="146.000000" x2="551.400000" y2="146.000000"  style="stroke:black; stroke-linecap:round; stroke-width:0.25;"/>
<line x1="551.400000" y1="146.000000" x2="561.400000" y2="146.000000"  style="stroke:black; stroke-linecap:round; stroke-width:0.25;"/>
</svg>
