<?xml version="1.0"?>
<svg xmlns="http://www.w3.org/2000/svg" xmlns:xlink="http://www.w3.org/1999/xlink" viewBox="0 0 293.700000 148.000000" width="146.850000mm" height="74.000000mm" version="1.1">
<a xlink:href="autobendFreq-0x7fae6b712db0.svg">
<rect x="1.000000" y="1.000000" width="292.700000" height="147.000000" rx="0" ry="0" style="stroke:none;fill:#cccccc;"/>
<rect x="0.000000" y="0.000000" width="292.700000" height="147.000000" rx="0" ry="0" style="stroke:none;fill:#ffffff;"/>
</a>
<text x="10.000000" y="7.000000" font-family="Arial" font-size="7"></text>
<rect x="112.500000" y="35.000000" width="24.000000" height="24.000000" rx="0" ry="0" style="stroke:none;fill:#cccccc;"/>
<rect x="111.500000" y="34.000000" width="24.000000" height="24.000000" rx="0" ry="0" style="stroke:none;fill:#f44800;"/>
<text x="123.500000" y="48.000000" font-family="Arial" font-size="7" text-anchor="middle" fill="#FFFFFF">1</text>
<circle cx="113.500000" cy="36.000000" r="1"/>
<line x1="102.500000" y1="25.000000" x2="102.500000" y2="67.000000"  style="stroke: black; stroke-linecap:round; stroke-width:0.25; stroke-dasharray:3,3;"/>
<line x1="102.500000" y1="67.000000" x2="144.500000" y2="67.000000"  style="stroke: black; stroke-linecap:round; stroke-width:0.25; stroke-dasharray:3,3;"/>
<line x1="144.500000" y1="67.000000" x2="144.500000" y2="25.000000"  style="stroke: black; stroke-linecap:round; stroke-width:0.25; stroke-dasharray:3,3;"/>
<line x1="102.500000" y1="25.000000" x2="107.500000" y2="25.000000"  style="stroke: black; stroke-linecap:round; stroke-width:0.25; stroke-dasharray:3,3;"/>
<line x1="120.400000" y1="25.000000" x2="144.500000" y2="25.000000"  style="stroke: black; stroke-linecap:round; stroke-width:0.25; stroke-dasharray:3,3;"/>
<text x="107.500000" y="27.000000" font-family="Arial" font-size="7">a0</text>
<a xlink:href="if-0x7fae6b7128f0.svg">
<rect x="71.000000" y="85.000000" width="129.000000" height="40.000000" rx="0" ry="0" style="stroke:none;fill:#cccccc;"/>
<rect x="70.000000" y="84.000000" width="129.000000" height="40.000000" rx="0" ry="0" style="stroke:none;fill:#003366;"/>
</a>
<a xlink:href="if-0x7fae6b7128f0.svg">
<text x="134.500000" y="106.000000" font-family="Arial" font-size="7" text-anchor="middle" fill="#FFFFFF">if((_,1300 : ...+) : select2)</text>
</a>
<circle cx="72.000000" cy="86.000000" r="1"/>
<line x1="67.000000" y1="87.000000" x2="70.000000" y2="88.000000"  transform="rotate(0.000000,70.000000,88.000000)" style="stroke: black; stroke-width:0.25;"/>
<line x1="67.000000" y1="89.000000" x2="70.000000" y2="88.000000"  transform="rotate(0.000000,70.000000,88.000000)" style="stroke: black; stroke-width:0.25;"/>
<line x1="67.000000" y1="95.000000" x2="70.000000" y2="96.000000"  transform="rotate(0.000000,70.000000,96.000000)" style="stroke: black; stroke-width:0.25;"/>
<line x1="67.000000" y1="97.000000" x2="70.000000" y2="96.000000"  transform="rotate(0.000000,70.000000,96.000000)" style="stroke: black; stroke-width:0.25;"/>
<line x1="67.000000" y1="103.000000" x2="70.000000" y2="104.000000"  transform="rotate(0.000000,70.000000,104.000000)" style="stroke: black; stroke-width:0.25;"/>
<line x1="67.000000" y1="105.000000" x2="70.000000" y2="104.000000"  transform="rotate(0.000000,70.000000,104.000000)" style="stroke: black; stroke-width:0.25;"/>
<line x1="67.000000" y1="111.000000" x2="70.000000" y2="112.000000"  transform="rotate(0.000000,70.000000,112.000000)" style="stroke: black; stroke-width:0.25;"/>
<line x1="67.000000" y1="113.000000" x2="70.000000" y2="112.000000"  transform="rotate(0.000000,70.000000,112.000000)" style="stroke: black; stroke-width:0.25;"/>
<line x1="67.000000" y1="119.000000" x2="70.000000" y2="120.000000"  transform="rotate(0.000000,70.000000,120.000000)" style="stroke: black; stroke-width:0.25;"/>
<line x1="67.000000" y1="121.000000" x2="70.000000" y2="120.000000"  transform="rotate(0.000000,70.000000,120.000000)" style="stroke: black; stroke-width:0.25;"/>
<rect x="224.000000" y="63.000000" width="38.700000" height="24.000000" rx="0" ry="0" style="stroke:none;fill:#cccccc;"/>
<rect x="223.000000" y="62.000000" width="38.700000" height="24.000000" rx="0" ry="0" style="stroke:none;fill:#4B71A1;"/>
<text x="242.350000" y="76.000000" font-family="Arial" font-size="7" text-anchor="middle" fill="#FFFFFF">select2</text>
<circle cx="225.000000" cy="64.000000" r="1"/>
<line x1="220.000000" y1="65.000000" x2="223.000000" y2="66.000000"  transform="rotate(0.000000,223.000000,66.000000)" style="stroke: black; stroke-width:0.25;"/>
<line x1="220.000000" y1="67.000000" x2="223.000000" y2="66.000000"  transform="rotate(0.000000,223.000000,66.000000)" style="stroke: black; stroke-width:0.25;"/>
<line x1="220.000000" y1="73.000000" x2="223.000000" y2="74.000000"  transform="rotate(0.000000,223.000000,74.000000)" style="stroke: black; stroke-width:0.25;"/>
<line x1="220.000000" y1="75.000000" x2="223.000000" y2="74.000000"  transform="rotate(0.000000,223.000000,74.000000)" style="stroke: black; stroke-width:0.25;"/>
<line x1="220.000000" y1="81.000000" x2="223.000000" y2="82.000000"  transform="rotate(0.000000,223.000000,82.000000)" style="stroke: black; stroke-width:0.25;"/>
<line x1="220.000000" y1="83.000000" x2="223.000000" y2="82.000000"  transform="rotate(0.000000,223.000000,82.000000)" style="stroke: black; stroke-width:0.25;"/>
<line x1="15.000000" y1="15.000000" x2="15.000000" y2="133.000000"  style="stroke: black; stroke-linecap:round; stroke-width:0.25; stroke-dasharray:3,3;"/>
<line x1="15.000000" y1="133.000000" x2="278.700000" y2="133.000000"  style="stroke: black; stroke-linecap:round; stroke-width:0.25; stroke-dasharray:3,3;"/>
<line x1="278.700000" y1="133.000000" x2="278.700000" y2="15.000000"  style="stroke: black; stroke-linecap:round; stroke-width:0.25; stroke-dasharray:3,3;"/>
<line x1="15.000000" y1="15.000000" x2="20.000000" y2="15.000000"  style="stroke: black; stroke-linecap:round; stroke-width:0.25; stroke-dasharray:3,3;"/>
<line x1="129.650000" y1="15.000000" x2="278.700000" y2="15.000000"  style="stroke: black; stroke-linecap:round; stroke-width:0.25; stroke-dasharray:3,3;"/>
<text x="20.000000" y="17.000000" font-family="Arial" font-size="7">if(1)(_&lt;:((_,...-) : select2)(_)</text>
<line x1="280.700000" y1="73.000000" x2="283.700000" y2="74.000000"  transform="rotate(0.000000,283.700000,74.000000)" style="stroke: black; stroke-width:0.25;"/>
<line x1="280.700000" y1="75.000000" x2="283.700000" y2="74.000000"  transform="rotate(0.000000,283.700000,74.000000)" style="stroke: black; stroke-width:0.25;"/>
<line x1="10.000000" y1="70.000000" x2="20.000000" y2="70.000000"  style="stroke:black; stroke-linecap:round; stroke-width:0.25;"/>
<line x1="10.000000" y1="78.000000" x2="20.000000" y2="78.000000"  style="stroke:black; stroke-linecap:round; stroke-width:0.25;"/>
<line x1="20.000000" y1="70.000000" x2="24.000000" y2="70.000000"  style="stroke:black; stroke-linecap:round; stroke-width:0.25;"/>
<line x1="20.000000" y1="78.000000" x2="24.000000" y2="78.000000"  style="stroke:black; stroke-linecap:round; stroke-width:0.25;"/>
<line x1="24.000000" y1="70.000000" x2="28.000000" y2="70.000000"  style="stroke:black; stroke-linecap:round; stroke-width:0.25;"/>
<line x1="24.000000" y1="78.000000" x2="28.000000" y2="78.000000"  style="stroke:black; stroke-linecap:round; stroke-width:0.25;"/>
<line x1="28.000000" y1="70.000000" x2="44.000000" y2="70.000000"  style="stroke:black; stroke-linecap:round; stroke-width:0.25;"/>
<line x1="28.000000" y1="78.000000" x2="36.000000" y2="78.000000"  style="stroke:black; stroke-linecap:round; stroke-width:0.25;"/>
<line x1="36.000000" y1="78.000000" x2="36.000000" y2="104.000000"  style="stroke:black; stroke-linecap:round; stroke-width:0.25;"/>
<line x1="36.000000" y1="104.000000" x2="44.000000" y2="104.000000"  style="stroke:black; stroke-linecap:round; stroke-width:0.25;"/>
<line x1="44.000000" y1="70.000000" x2="44.000000" y2="76.000000"  style="stroke:black; stroke-linecap:round; stroke-width:0.25;"/>
<line x1="44.000000" y1="76.000000" x2="44.000000" y2="76.000000"  style="stroke:black; stroke-linecap:round; stroke-width:0.25;"/>
<line x1="44.000000" y1="76.000000" x2="123.500000" y2="76.000000"  style="stroke:black; stroke-linecap:round; stroke-width:0.25;"/>
<line x1="44.000000" y1="104.000000" x2="48.000000" y2="104.000000"  style="stroke:black; stroke-linecap:round; stroke-width:0.25;"/>
<line x1="48.000000" y1="104.000000" x2="52.000000" y2="104.000000"  style="stroke:black; stroke-linecap:round; stroke-width:0.25;"/>
<line x1="52.000000" y1="104.000000" x2="66.000000" y2="88.000000"  style="stroke:black; stroke-linecap:round; stroke-width:0.25;"/>
<line x1="52.000000" y1="104.000000" x2="66.000000" y2="96.000000"  style="stroke:black; stroke-linecap:round; stroke-width:0.25;"/>
<line x1="52.000000" y1="104.000000" x2="66.000000" y2="104.000000"  style="stroke:black; stroke-linecap:round; stroke-width:0.25;"/>
<line x1="52.000000" y1="104.000000" x2="66.000000" y2="112.000000"  style="stroke:black; stroke-linecap:round; stroke-width:0.25;"/>
<line x1="52.000000" y1="104.000000" x2="66.000000" y2="120.000000"  style="stroke:black; stroke-linecap:round; stroke-width:0.25;"/>
<line x1="66.000000" y1="88.000000" x2="70.000000" y2="88.000000"  style="stroke:black; stroke-linecap:round; stroke-width:0.25;"/>
<line x1="66.000000" y1="96.000000" x2="70.000000" y2="96.000000"  style="stroke:black; stroke-linecap:round; stroke-width:0.25;"/>
<line x1="66.000000" y1="104.000000" x2="70.000000" y2="104.000000"  style="stroke:black; stroke-linecap:round; stroke-width:0.25;"/>
<line x1="66.000000" y1="112.000000" x2="70.000000" y2="112.000000"  style="stroke:black; stroke-linecap:round; stroke-width:0.25;"/>
<line x1="66.000000" y1="120.000000" x2="70.000000" y2="120.000000"  style="stroke:black; stroke-linecap:round; stroke-width:0.25;"/>
<line x1="123.500000" y1="76.000000" x2="203.000000" y2="76.000000"  style="stroke:black; stroke-linecap:round; stroke-width:0.25;"/>
<line x1="135.500000" y1="46.000000" x2="139.500000" y2="46.000000"  style="stroke:black; stroke-linecap:round; stroke-width:0.25;"/>
<line x1="139.500000" y1="46.000000" x2="149.500000" y2="46.000000"  style="stroke:black; stroke-linecap:round; stroke-width:0.25;"/>
<line x1="149.500000" y1="46.000000" x2="203.000000" y2="46.000000"  style="stroke:black; stroke-linecap:round; stroke-width:0.25;"/>
<line x1="199.000000" y1="104.000000" x2="203.000000" y2="104.000000"  style="stroke:black; stroke-linecap:round; stroke-width:0.25;"/>
<line x1="203.000000" y1="46.000000" x2="219.000000" y2="46.000000"  style="stroke:black; stroke-linecap:round; stroke-width:0.25;"/>
<line x1="203.000000" y1="74.000000" x2="219.000000" y2="74.000000"  style="stroke:black; stroke-linecap:round; stroke-width:0.25;"/>
<line x1="203.000000" y1="76.000000" x2="203.000000" y2="74.000000"  style="stroke:black; stroke-linecap:round; stroke-width:0.25;"/>
<line x1="203.000000" y1="76.000000" x2="203.000000" y2="76.000000"  style="stroke:black; stroke-linecap:round; stroke-width:0.25;"/>
<line x1="203.000000" y1="104.000000" x2="211.000000" y2="104.000000"  style="stroke:black; stroke-linecap:round; stroke-width:0.25;"/>
<line x1="211.000000" y1="82.000000" x2="219.000000" y2="82.000000"  style="stroke:black; stroke-linecap:round; stroke-width:0.25;"/>
<line x1="211.000000" y1="104.000000" x2="211.000000" y2="82.000000"  style="stroke:black; stroke-linecap:round; stroke-width:0.25;"/>
<line x1="219.000000" y1="46.000000" x2="219.000000" y2="66.000000"  style="stroke:black; stroke-linecap:round; stroke-width:0.25;"/>
<line x1="219.000000" y1="66.000000" x2="219.000000" y2="66.000000"  style="stroke:black; stroke-linecap:round; stroke-width:0.25;"/>
<line x1="219.000000" y1="66.000000" x2="223.000000" y2="66.000000"  style="stroke:black; stroke-linecap:round; stroke-width:0.25;"/>
<line x1="219.000000" y1="74.000000" x2="223.000000" y2="74.000000"  style="stroke:black; stroke-linecap:round; stroke-width:0.25;"/>
<line x1="219.000000" y1="82.000000" x2="223.000000" y2="82.000000"  style="stroke:black; stroke-linecap:round; stroke-width:0.25;"/>
<line x1="261.700000" y1="74.000000" x2="265.700000" y2="74.000000"  style="stroke:black; stroke-linecap:round; stroke-width:0.25;"/>
<line x1="265.700000" y1="74.000000" x2="265.700000" y2="74.000000"  style="stroke:black; stroke-linecap:round; stroke-width:0.25;"/>
<line x1="265.700000" y1="74.000000" x2="269.700000" y2="74.000000"  style="stroke:black; stroke-linecap:round; stroke-width:0.25;"/>
<line x1="269.700000" y1="74.000000" x2="273.700000" y2="74.000000"  style="stroke:black; stroke-linecap:round; stroke-width:0.25;"/>
<line x1="273.700000" y1="74.000000" x2="283.700000" y2="74.000000"  style="stroke:black; stroke-linecap:round; stroke-width:0.25;"/>
</svg>
