<?xml version="1.0"?>
<svg xmlns="http://www.w3.org/2000/svg" xmlns:xlink="http://www.w3.org/1999/xlink" viewBox="0 0 390.900000 88.000000" width="195.450000mm" height="44.000000mm" version="1.1">
<rect x="1.000000" y="1.000000" width="389.900000" height="87.000000" rx="0" ry="0" style="stroke:none;fill:#cccccc;"/>
<rect x="0.000000" y="0.000000" width="389.900000" height="87.000000" rx="0" ry="0" style="stroke:none;fill:#ffffff;"/>
<text x="10.000000" y="7.000000" font-family="Arial" font-size="7"></text>
<a xlink:href="inswitch-0x7f8598721650.svg">
<rect x="57.000000" y="25.000000" width="38.700000" height="24.000000" rx="0" ry="0" style="stroke:none;fill:#cccccc;"/>
<rect x="56.000000" y="24.000000" width="38.700000" height="24.000000" rx="0" ry="0" style="stroke:none;fill:#003366;"/>
</a>
<a xlink:href="inswitch-0x7f8598721650.svg">
<text x="75.350000" y="38.000000" font-family="Arial" font-size="7" text-anchor="middle" fill="#FFFFFF">inswitch</text>
</a>
<circle cx="58.000000" cy="26.000000" r="1"/>
<line x1="53.000000" y1="31.000000" x2="56.000000" y2="32.000000"  transform="rotate(0.000000,56.000000,32.000000)" style="stroke: black; stroke-width:0.25;"/>
<line x1="53.000000" y1="33.000000" x2="56.000000" y2="32.000000"  transform="rotate(0.000000,56.000000,32.000000)" style="stroke: black; stroke-width:0.25;"/>
<line x1="53.000000" y1="39.000000" x2="56.000000" y2="40.000000"  transform="rotate(0.000000,56.000000,40.000000)" style="stroke: black; stroke-width:0.25;"/>
<line x1="53.000000" y1="41.000000" x2="56.000000" y2="40.000000"  transform="rotate(0.000000,56.000000,40.000000)" style="stroke: black; stroke-width:0.25;"/>
<a xlink:href="compressor-0x7f8598811e10.svg">
<rect x="103.700000" y="25.000000" width="103.200000" height="24.000000" rx="0" ry="0" style="stroke:none;fill:#cccccc;"/>
<rect x="102.700000" y="24.000000" width="103.200000" height="24.000000" rx="0" ry="0" style="stroke:none;fill:#003366;"/>
</a>
<a xlink:href="compressor-0x7f8598811e10.svg">
<text x="154.300000" y="38.000000" font-family="Arial" font-size="7" text-anchor="middle" fill="#FFFFFF">compressor_stereo_demo</text>
</a>
<circle cx="104.700000" cy="26.000000" r="1"/>
<line x1="99.700000" y1="31.000000" x2="102.700000" y2="32.000000"  transform="rotate(0.000000,102.700000,32.000000)" style="stroke: black; stroke-width:0.25;"/>
<line x1="99.700000" y1="33.000000" x2="102.700000" y2="32.000000"  transform="rotate(0.000000,102.700000,32.000000)" style="stroke: black; stroke-width:0.25;"/>
<line x1="99.700000" y1="39.000000" x2="102.700000" y2="40.000000"  transform="rotate(0.000000,102.700000,40.000000)" style="stroke: black; stroke-width:0.25;"/>
<line x1="99.700000" y1="41.000000" x2="102.700000" y2="40.000000"  transform="rotate(0.000000,102.700000,40.000000)" style="stroke: black; stroke-width:0.25;"/>
<a xlink:href="select2stereo-0x7f8598746010.svg">
<rect x="230.900000" y="29.000000" width="129.000000" height="32.000000" rx="0" ry="0" style="stroke:none;fill:#cccccc;"/>
<rect x="229.900000" y="28.000000" width="129.000000" height="32.000000" rx="0" ry="0" style="stroke:none;fill:#003366;"/>
</a>
<a xlink:href="select2stereo-0x7f8598746010.svg">
<text x="294.400000" y="46.000000" font-family="Arial" font-size="7" text-anchor="middle" fill="#FFFFFF">select2stereo... effect]&quot;))))</text>
</a>
<circle cx="231.900000" cy="30.000000" r="1"/>
<line x1="226.900000" y1="31.000000" x2="229.900000" y2="32.000000"  transform="rotate(0.000000,229.900000,32.000000)" style="stroke: black; stroke-width:0.25;"/>
<line x1="226.900000" y1="33.000000" x2="229.900000" y2="32.000000"  transform="rotate(0.000000,229.900000,32.000000)" style="stroke: black; stroke-width:0.25;"/>
<line x1="226.900000" y1="39.000000" x2="229.900000" y2="40.000000"  transform="rotate(0.000000,229.900000,40.000000)" style="stroke: black; stroke-width:0.25;"/>
<line x1="226.900000" y1="41.000000" x2="229.900000" y2="40.000000"  transform="rotate(0.000000,229.900000,40.000000)" style="stroke: black; stroke-width:0.25;"/>
<line x1="226.900000" y1="47.000000" x2="229.900000" y2="48.000000"  transform="rotate(0.000000,229.900000,48.000000)" style="stroke: black; stroke-width:0.25;"/>
<line x1="226.900000" y1="49.000000" x2="229.900000" y2="48.000000"  transform="rotate(0.000000,229.900000,48.000000)" style="stroke: black; stroke-width:0.25;"/>
<line x1="226.900000" y1="55.000000" x2="229.900000" y2="56.000000"  transform="rotate(0.000000,229.900000,56.000000)" style="stroke: black; stroke-width:0.25;"/>
<line x1="226.900000" y1="57.000000" x2="229.900000" y2="56.000000"  transform="rotate(0.000000,229.900000,56.000000)" style="stroke: black; stroke-width:0.25;"/>
<line x1="15.000000" y1="15.000000" x2="15.000000" y2="73.000000"  style="stroke: black; stroke-linecap:round; stroke-width:0.25; stroke-dasharray:3,3;"/>
<line x1="15.000000" y1="73.000000" x2="375.900000" y2="73.000000"  style="stroke: black; stroke-linecap:round; stroke-width:0.25; stroke-dasharray:3,3;"/>
<line x1="375.900000" y1="73.000000" x2="375.900000" y2="15.000000"  style="stroke: black; stroke-linecap:round; stroke-width:0.25; stroke-dasharray:3,3;"/>
<line x1="15.000000" y1="15.000000" x2="20.000000" y2="15.000000"  style="stroke: black; stroke-linecap:round; stroke-width:0.25; stroke-dasharray:3,3;"/>
<line x1="49.025000" y1="15.000000" x2="375.900000" y2="15.000000"  style="stroke: black; stroke-linecap:round; stroke-width:0.25; stroke-dasharray:3,3;"/>
<text x="20.000000" y="17.000000" font-family="Arial" font-size="7">process</text>
<line x1="377.900000" y1="39.000000" x2="380.900000" y2="40.000000"  transform="rotate(0.000000,380.900000,40.000000)" style="stroke: black; stroke-width:0.25;"/>
<line x1="377.900000" y1="41.000000" x2="380.900000" y2="40.000000"  transform="rotate(0.000000,380.900000,40.000000)" style="stroke: black; stroke-width:0.25;"/>
<line x1="377.900000" y1="47.000000" x2="380.900000" y2="48.000000"  transform="rotate(0.000000,380.900000,48.000000)" style="stroke: black; stroke-width:0.25;"/>
<line x1="377.900000" y1="49.000000" x2="380.900000" y2="48.000000"  transform="rotate(0.000000,380.900000,48.000000)" style="stroke: black; stroke-width:0.25;"/>
<line x1="10.000000" y1="40.000000" x2="20.000000" y2="40.000000"  style="stroke:black; stroke-linecap:round; stroke-width:0.25;"/>
<line x1="10.000000" y1="48.000000" x2="20.000000" y2="48.000000"  style="stroke:black; stroke-linecap:round; stroke-width:0.25;"/>
<line x1="20.000000" y1="40.000000" x2="24.000000" y2="40.000000"  style="stroke:black; stroke-linecap:round; stroke-width:0.25;"/>
<line x1="20.000000" y1="48.000000" x2="24.000000" y2="48.000000"  style="stroke:black; stroke-linecap:round; stroke-width:0.25;"/>
<line x1="24.000000" y1="40.000000" x2="28.000000" y2="40.000000"  style="stroke:black; stroke-linecap:round; stroke-width:0.25;"/>
<line x1="24.000000" y1="48.000000" x2="28.000000" y2="48.000000"  style="stroke:black; stroke-linecap:round; stroke-width:0.25;"/>
<line x1="28.000000" y1="40.000000" x2="28.000000" y2="40.000000"  style="stroke:black; stroke-linecap:round; stroke-width:0.25;"/>
<line x1="28.000000" y1="40.000000" x2="32.000000" y2="40.000000"  style="stroke:black; stroke-linecap:round; stroke-width:0.25;"/>
<line x1="28.000000" y1="48.000000" x2="28.000000" y2="48.000000"  style="stroke:black; stroke-linecap:round; stroke-width:0.25;"/>
<line x1="28.000000" y1="48.000000" x2="32.000000" y2="48.000000"  style="stroke:black; stroke-linecap:round; stroke-width:0.25;"/>
<line x1="32.000000" y1="40.000000" x2="36.000000" y2="40.000000"  style="stroke:black; stroke-linecap:round; stroke-width:0.25;"/>
<line x1="32.000000" y1="48.000000" x2="36.000000" y2="48.000000"  style="stroke:black; stroke-linecap:round; stroke-width:0.25;"/>
<line x1="36.000000" y1="40.000000" x2="52.000000" y2="32.000000"  style="stroke:black; stroke-linecap:round; stroke-width:0.25;"/>
<line x1="36.000000" y1="40.000000" x2="52.000000" y2="56.000000"  style="stroke:black; stroke-linecap:round; stroke-width:0.25;"/>
<line x1="36.000000" y1="48.000000" x2="52.000000" y2="40.000000"  style="stroke:black; stroke-linecap:round; stroke-width:0.25;"/>
<line x1="36.000000" y1="48.000000" x2="52.000000" y2="64.000000"  style="stroke:black; stroke-linecap:round; stroke-width:0.25;"/>
<line x1="52.000000" y1="32.000000" x2="56.000000" y2="32.000000"  style="stroke:black; stroke-linecap:round; stroke-width:0.25;"/>
<line x1="52.000000" y1="40.000000" x2="56.000000" y2="40.000000"  style="stroke:black; stroke-linecap:round; stroke-width:0.25;"/>
<line x1="52.000000" y1="56.000000" x2="130.950000" y2="56.000000"  style="stroke:black; stroke-linecap:round; stroke-width:0.25;"/>
<line x1="52.000000" y1="64.000000" x2="130.950000" y2="64.000000"  style="stroke:black; stroke-linecap:round; stroke-width:0.25;"/>
<line x1="94.700000" y1="32.000000" x2="98.700000" y2="32.000000"  style="stroke:black; stroke-linecap:round; stroke-width:0.25;"/>
<line x1="94.700000" y1="40.000000" x2="98.700000" y2="40.000000"  style="stroke:black; stroke-linecap:round; stroke-width:0.25;"/>
<line x1="98.700000" y1="32.000000" x2="98.700000" y2="32.000000"  style="stroke:black; stroke-linecap:round; stroke-width:0.25;"/>
<line x1="98.700000" y1="32.000000" x2="102.700000" y2="32.000000"  style="stroke:black; stroke-linecap:round; stroke-width:0.25;"/>
<line x1="98.700000" y1="40.000000" x2="98.700000" y2="40.000000"  style="stroke:black; stroke-linecap:round; stroke-width:0.25;"/>
<line x1="98.700000" y1="40.000000" x2="102.700000" y2="40.000000"  style="stroke:black; stroke-linecap:round; stroke-width:0.25;"/>
<line x1="130.950000" y1="56.000000" x2="209.900000" y2="56.000000"  style="stroke:black; stroke-linecap:round; stroke-width:0.25;"/>
<line x1="130.950000" y1="64.000000" x2="209.900000" y2="64.000000"  style="stroke:black; stroke-linecap:round; stroke-width:0.25;"/>
<line x1="205.900000" y1="32.000000" x2="209.900000" y2="32.000000"  style="stroke:black; stroke-linecap:round; stroke-width:0.25;"/>
<line x1="205.900000" y1="40.000000" x2="209.900000" y2="40.000000"  style="stroke:black; stroke-linecap:round; stroke-width:0.25;"/>
<line x1="209.900000" y1="32.000000" x2="225.900000" y2="32.000000"  style="stroke:black; stroke-linecap:round; stroke-width:0.25;"/>
<line x1="209.900000" y1="40.000000" x2="225.900000" y2="40.000000"  style="stroke:black; stroke-linecap:round; stroke-width:0.25;"/>
<line x1="209.900000" y1="48.000000" x2="225.900000" y2="48.000000"  style="stroke:black; stroke-linecap:round; stroke-width:0.25;"/>
<line x1="209.900000" y1="56.000000" x2="209.900000" y2="48.000000"  style="stroke:black; stroke-linecap:round; stroke-width:0.25;"/>
<line x1="209.900000" y1="56.000000" x2="209.900000" y2="56.000000"  style="stroke:black; stroke-linecap:round; stroke-width:0.25;"/>
<line x1="209.900000" y1="64.000000" x2="217.900000" y2="64.000000"  style="stroke:black; stroke-linecap:round; stroke-width:0.25;"/>
<line x1="217.900000" y1="56.000000" x2="225.900000" y2="56.000000"  style="stroke:black; stroke-linecap:round; stroke-width:0.25;"/>
<line x1="217.900000" y1="64.000000" x2="217.900000" y2="56.000000"  style="stroke:black; stroke-linecap:round; stroke-width:0.25;"/>
<line x1="225.900000" y1="32.000000" x2="229.900000" y2="32.000000"  style="stroke:black; stroke-linecap:round; stroke-width:0.25;"/>
<line x1="225.900000" y1="40.000000" x2="229.900000" y2="40.000000"  style="stroke:black; stroke-linecap:round; stroke-width:0.25;"/>
<line x1="225.900000" y1="48.000000" x2="229.900000" y2="48.000000"  style="stroke:black; stroke-linecap:round; stroke-width:0.25;"/>
<line x1="225.900000" y1="56.000000" x2="229.900000" y2="56.000000"  style="stroke:black; stroke-linecap:round; stroke-width:0.25;"/>
<line x1="358.900000" y1="40.000000" x2="362.900000" y2="40.000000"  style="stroke:black; stroke-linecap:round; stroke-width:0.25;"/>
<line x1="358.900000" y1="48.000000" x2="362.900000" y2="48.000000"  style="stroke:black; stroke-linecap:round; stroke-width:0.25;"/>
<line x1="362.900000" y1="40.000000" x2="362.900000" y2="40.000000"  style="stroke:black; stroke-linecap:round; stroke-width:0.25;"/>
<line x1="362.900000" y1="40.000000" x2="366.900000" y2="40.000000"  style="stroke:black; stroke-linecap:round; stroke-width:0.25;"/>
<line x1="362.900000" y1="48.000000" x2="362.900000" y2="48.000000"  style="stroke:black; stroke-linecap:round; stroke-width:0.25;"/>
<line x1="362.900000" y1="48.000000" x2="366.900000" y2="48.000000"  style="stroke:black; stroke-linecap:round; stroke-width:0.25;"/>
<line x1="366.900000" y1="40.000000" x2="370.900000" y2="40.000000"  style="stroke:black; stroke-linecap:round; stroke-width:0.25;"/>
<line x1="366.900000" y1="48.000000" x2="370.900000" y2="48.000000"  style="stroke:black; stroke-linecap:round; stroke-width:0.25;"/>
<line x1="370.900000" y1="40.000000" x2="380.900000" y2="40.000000"  style="stroke:black; stroke-linecap:round; stroke-width:0.25;"/>
<line x1="370.900000" y1="48.000000" x2="380.900000" y2="48.000000"  style="stroke:black; stroke-linecap:round; stroke-width:0.25;"/>
</svg>
