<?xml version="1.0"?>
<svg xmlns="http://www.w3.org/2000/svg" xmlns:xlink="http://www.w3.org/1999/xlink" viewBox="0 0 511.900000 112.000000" width="255.950000mm" height="56.000000mm" version="1.1">
<a xlink:href="vcf-0x7fd73bb5cd70.svg">
<rect x="1.000000" y="1.000000" width="510.900000" height="111.000000" rx="0" ry="0" style="stroke:none;fill:#cccccc;"/>
<rect x="0.000000" y="0.000000" width="510.900000" height="111.000000" rx="0" ry="0" style="stroke:none;fill:#ffffff;"/>
</a>
<text x="10.000000" y="7.000000" font-family="Arial" font-size="7"></text>
<rect x="45.000000" y="45.000000" width="296.700000" height="24.000000" rx="0" ry="0" style="stroke:none;fill:#cccccc;"/>
<rect x="44.000000" y="44.000000" width="296.700000" height="24.000000" rx="0" ry="0" style="stroke:none;fill:#477881;"/>
<text x="192.350000" y="58.000000" font-family="Arial" font-size="7" text-anchor="middle" fill="#FFFFFF">hslider(VCF Output Level, 5.0f, -60.0f, 20.0f, 0.10000000000000001f)</text>
<circle cx="46.000000" cy="46.000000" r="1"/>
<line x1="35.000000" y1="35.000000" x2="35.000000" y2="77.000000"  style="stroke: black; stroke-linecap:round; stroke-width:0.25; stroke-dasharray:3,3;"/>
<line x1="35.000000" y1="77.000000" x2="349.700000" y2="77.000000"  style="stroke: black; stroke-linecap:round; stroke-width:0.25; stroke-dasharray:3,3;"/>
<line x1="349.700000" y1="77.000000" x2="349.700000" y2="35.000000"  style="stroke: black; stroke-linecap:round; stroke-width:0.25; stroke-dasharray:3,3;"/>
<line x1="35.000000" y1="35.000000" x2="40.000000" y2="35.000000"  style="stroke: black; stroke-linecap:round; stroke-width:0.25; stroke-dasharray:3,3;"/>
<line x1="188.350000" y1="35.000000" x2="349.700000" y2="35.000000"  style="stroke: black; stroke-linecap:round; stroke-width:0.25; stroke-dasharray:3,3;"/>
<text x="40.000000" y="37.000000" font-family="Arial" font-size="7">hgroup(MOOG VCF (Voltage Controlled Filter))</text>
<line x1="25.000000" y1="25.000000" x2="25.000000" y2="87.000000"  style="stroke: black; stroke-linecap:round; stroke-width:0.25; stroke-dasharray:3,3;"/>
<line x1="25.000000" y1="87.000000" x2="359.700000" y2="87.000000"  style="stroke: black; stroke-linecap:round; stroke-width:0.25; stroke-dasharray:3,3;"/>
<line x1="359.700000" y1="87.000000" x2="359.700000" y2="25.000000"  style="stroke: black; stroke-linecap:round; stroke-width:0.25; stroke-dasharray:3,3;"/>
<line x1="25.000000" y1="25.000000" x2="30.000000" y2="25.000000"  style="stroke: black; stroke-linecap:round; stroke-width:0.25; stroke-dasharray:3,3;"/>
<line x1="129.975000" y1="25.000000" x2="359.700000" y2="25.000000"  style="stroke: black; stroke-linecap:round; stroke-width:0.25; stroke-dasharray:3,3;"/>
<text x="30.000000" y="27.000000" font-family="Arial" font-size="7">mvcf_group(hs...0000000001f))</text>
<a xlink:href="db2linear-0x7fd73bb5c8b0.svg">
<rect x="369.700000" y="45.000000" width="38.700000" height="24.000000" rx="0" ry="0" style="stroke:none;fill:#cccccc;"/>
<rect x="368.700000" y="44.000000" width="38.700000" height="24.000000" rx="0" ry="0" style="stroke:none;fill:#003366;"/>
</a>
<a xlink:href="db2linear-0x7fd73bb5c8b0.svg">
<text x="388.050000" y="58.000000" font-family="Arial" font-size="7" text-anchor="middle" fill="#FFFFFF">db2linear</text>
</a>
<circle cx="370.700000" cy="46.000000" r="1"/>
<line x1="365.700000" y1="55.000000" x2="368.700000" y2="56.000000"  transform="rotate(0.000000,368.700000,56.000000)" style="stroke: black; stroke-width:0.25;"/>
<line x1="365.700000" y1="57.000000" x2="368.700000" y2="56.000000"  transform="rotate(0.000000,368.700000,56.000000)" style="stroke: black; stroke-width:0.25;"/>
<a xlink:href="smooth-0x7fd739a24220.svg">
<rect x="416.400000" y="45.000000" width="64.500000" height="24.000000" rx="0" ry="0" style="stroke:none;fill:#cccccc;"/>
<rect x="415.400000" y="44.000000" width="64.500000" height="24.000000" rx="0" ry="0" style="stroke:none;fill:#003366;"/>
</a>
<a xlink:href="smooth-0x7fd739a24220.svg">
<text x="447.650000" y="58.000000" font-family="Arial" font-size="7" text-anchor="middle" fill="#FFFFFF">smooth(0.999f)</text>
</a>
<circle cx="417.400000" cy="46.000000" r="1"/>
<line x1="412.400000" y1="55.000000" x2="415.400000" y2="56.000000"  transform="rotate(0.000000,415.400000,56.000000)" style="stroke: black; stroke-width:0.25;"/>
<line x1="412.400000" y1="57.000000" x2="415.400000" y2="56.000000"  transform="rotate(0.000000,415.400000,56.000000)" style="stroke: black; stroke-width:0.25;"/>
<line x1="15.000000" y1="15.000000" x2="15.000000" y2="97.000000"  style="stroke: black; stroke-linecap:round; stroke-width:0.25; stroke-dasharray:3,3;"/>
<line x1="15.000000" y1="97.000000" x2="496.900000" y2="97.000000"  style="stroke: black; stroke-linecap:round; stroke-width:0.25; stroke-dasharray:3,3;"/>
<line x1="496.900000" y1="97.000000" x2="496.900000" y2="15.000000"  style="stroke: black; stroke-linecap:round; stroke-width:0.25; stroke-dasharray:3,3;"/>
<line x1="15.000000" y1="15.000000" x2="20.000000" y2="15.000000"  style="stroke: black; stroke-linecap:round; stroke-width:0.25; stroke-dasharray:3,3;"/>
<line x1="49.025000" y1="15.000000" x2="496.900000" y2="15.000000"  style="stroke: black; stroke-linecap:round; stroke-width:0.25; stroke-dasharray:3,3;"/>
<text x="20.000000" y="17.000000" font-family="Arial" font-size="7">outgain</text>
<line x1="498.900000" y1="55.000000" x2="501.900000" y2="56.000000"  transform="rotate(0.000000,501.900000,56.000000)" style="stroke: black; stroke-width:0.25;"/>
<line x1="498.900000" y1="57.000000" x2="501.900000" y2="56.000000"  transform="rotate(0.000000,501.900000,56.000000)" style="stroke: black; stroke-width:0.25;"/>
<line x1="340.700000" y1="56.000000" x2="344.700000" y2="56.000000"  style="stroke:black; stroke-linecap:round; stroke-width:0.25;"/>
<line x1="344.700000" y1="56.000000" x2="354.700000" y2="56.000000"  style="stroke:black; stroke-linecap:round; stroke-width:0.25;"/>
<line x1="354.700000" y1="56.000000" x2="364.700000" y2="56.000000"  style="stroke:black; stroke-linecap:round; stroke-width:0.25;"/>
<line x1="364.700000" y1="56.000000" x2="364.700000" y2="56.000000"  style="stroke:black; stroke-linecap:round; stroke-width:0.25;"/>
<line x1="364.700000" y1="56.000000" x2="368.700000" y2="56.000000"  style="stroke:black; stroke-linecap:round; stroke-width:0.25;"/>
<line x1="407.400000" y1="56.000000" x2="411.400000" y2="56.000000"  style="stroke:black; stroke-linecap:round; stroke-width:0.25;"/>
<line x1="411.400000" y1="56.000000" x2="411.400000" y2="56.000000"  style="stroke:black; stroke-linecap:round; stroke-width:0.25;"/>
<line x1="411.400000" y1="56.000000" x2="415.400000" y2="56.000000"  style="stroke:black; stroke-linecap:round; stroke-width:0.25;"/>
<line x1="479.900000" y1="56.000000" x2="483.900000" y2="56.000000"  style="stroke:black; stroke-linecap:round; stroke-width:0.25;"/>
<line x1="483.900000" y1="56.000000" x2="483.900000" y2="56.000000"  style="stroke:black; stroke-linecap:round; stroke-width:0.25;"/>
<line x1="483.900000" y1="56.000000" x2="487.900000" y2="56.000000"  style="stroke:black; stroke-linecap:round; stroke-width:0.25;"/>
<line x1="487.900000" y1="56.000000" x2="491.900000" y2="56.000000"  style="stroke:black; stroke-linecap:round; stroke-width:0.25;"/>
<line x1="491.900000" y1="56.000000" x2="501.900000" y2="56.000000"  style="stroke:black; stroke-linecap:round; stroke-width:0.25;"/>
</svg>
