<?xml version="1.0"?>
<svg xmlns="http://www.w3.org/2000/svg" xmlns:xlink="http://www.w3.org/1999/xlink" viewBox="0 0 260.100000 232.000000" width="130.050000mm" height="116.000000mm" version="1.1">
<a xlink:href="pole-0x7f8ec03a52c0.svg">
<rect x="1.000000" y="1.000000" width="259.100000" height="231.000000" rx="0" ry="0" style="stroke:none;fill:#cccccc;"/>
<rect x="0.000000" y="0.000000" width="259.100000" height="231.000000" rx="0" ry="0" style="stroke:none;fill:#ffffff;"/>
</a>
<text x="10.000000" y="7.000000" font-family="Arial" font-size="7"></text>
<a xlink:href="ugate-0x7f8ec037da80.svg">
<rect x="82.800000" y="25.000000" width="25.800000" height="24.000000" rx="0" ry="0" style="stroke:none;fill:#cccccc;"/>
<rect x="81.800000" y="24.000000" width="25.800000" height="24.000000" rx="0" ry="0" style="stroke:none;fill:#003366;"/>
</a>
<a xlink:href="ugate-0x7f8ec037da80.svg">
<text x="94.700000" y="38.000000" font-family="Arial" font-size="7" text-anchor="middle" fill="#FFFFFF">ugate</text>
</a>
<circle cx="83.800000" cy="26.000000" r="1"/>
<a xlink:href="rel-0x7f8ec0371910.svg">
<rect x="83.700000" y="57.000000" width="24.000000" height="24.000000" rx="0" ry="0" style="stroke:none;fill:#cccccc;"/>
<rect x="82.700000" y="56.000000" width="24.000000" height="24.000000" rx="0" ry="0" style="stroke:none;fill:#003366;"/>
</a>
<a xlink:href="rel-0x7f8ec0371910.svg">
<text x="94.700000" y="70.000000" font-family="Arial" font-size="7" text-anchor="middle" fill="#FFFFFF">rel</text>
</a>
<circle cx="84.700000" cy="58.000000" r="1"/>
<a xlink:href="samps-0x7f8ec037fca0.svg">
<rect x="31.450000" y="89.000000" width="25.800000" height="24.000000" rx="0" ry="0" style="stroke:none;fill:#cccccc;"/>
<rect x="30.450000" y="88.000000" width="25.800000" height="24.000000" rx="0" ry="0" style="stroke:none;fill:#003366;"/>
</a>
<a xlink:href="samps-0x7f8ec037fca0.svg">
<text x="43.350000" y="102.000000" font-family="Arial" font-size="7" text-anchor="middle" fill="#FFFFFF">samps</text>
</a>
<circle cx="32.450000" cy="90.000000" r="1"/>
<a xlink:href="attSamps-0x7f8ec0386cd0.svg">
<rect x="25.000000" y="121.000000" width="38.700000" height="24.000000" rx="0" ry="0" style="stroke:none;fill:#cccccc;"/>
<rect x="24.000000" y="120.000000" width="38.700000" height="24.000000" rx="0" ry="0" style="stroke:none;fill:#003366;"/>
</a>
<a xlink:href="attSamps-0x7f8ec0386cd0.svg">
<text x="43.350000" y="134.000000" font-family="Arial" font-size="7" text-anchor="middle" fill="#FFFFFF">attSamps</text>
</a>
<circle cx="26.000000" cy="122.000000" r="1"/>
<rect x="79.700000" y="105.000000" width="24.000000" height="24.000000" rx="0" ry="0" style="stroke:none;fill:#cccccc;"/>
<rect x="78.700000" y="104.000000" width="24.000000" height="24.000000" rx="0" ry="0" style="stroke:none;fill:#4B71A1;"/>
<text x="90.700000" y="118.000000" font-family="Arial" font-size="7" text-anchor="middle" fill="#FFFFFF">&lt;</text>
<circle cx="80.700000" cy="106.000000" r="1"/>
<line x1="75.700000" y1="111.000000" x2="78.700000" y2="112.000000"  transform="rotate(0.000000,78.700000,112.000000)" style="stroke: black; stroke-width:0.25;"/>
<line x1="75.700000" y1="113.000000" x2="78.700000" y2="112.000000"  transform="rotate(0.000000,78.700000,112.000000)" style="stroke: black; stroke-width:0.25;"/>
<line x1="75.700000" y1="119.000000" x2="78.700000" y2="120.000000"  transform="rotate(0.000000,78.700000,120.000000)" style="stroke: black; stroke-width:0.25;"/>
<line x1="75.700000" y1="121.000000" x2="78.700000" y2="120.000000"  transform="rotate(0.000000,78.700000,120.000000)" style="stroke: black; stroke-width:0.25;"/>
<a xlink:href="dec-0x7f8ec0373420.svg">
<rect x="52.350000" y="153.000000" width="24.000000" height="24.000000" rx="0" ry="0" style="stroke:none;fill:#cccccc;"/>
<rect x="51.350000" y="152.000000" width="24.000000" height="24.000000" rx="0" ry="0" style="stroke:none;fill:#003366;"/>
</a>
<a xlink:href="dec-0x7f8ec0373420.svg">
<text x="63.350000" y="166.000000" font-family="Arial" font-size="7" text-anchor="middle" fill="#FFFFFF">dec</text>
</a>
<circle cx="53.350000" cy="154.000000" r="1"/>
<a xlink:href="att-0x7f8ec0373fc0.svg">
<rect x="52.350000" y="185.000000" width="24.000000" height="24.000000" rx="0" ry="0" style="stroke:none;fill:#cccccc;"/>
<rect x="51.350000" y="184.000000" width="24.000000" height="24.000000" rx="0" ry="0" style="stroke:none;fill:#003366;"/>
</a>
<a xlink:href="att-0x7f8ec0373fc0.svg">
<text x="63.350000" y="198.000000" font-family="Arial" font-size="7" text-anchor="middle" fill="#FFFFFF">att</text>
</a>
<circle cx="53.350000" cy="186.000000" r="1"/>
<rect x="127.700000" y="137.000000" width="38.700000" height="24.000000" rx="0" ry="0" style="stroke:none;fill:#cccccc;"/>
<rect x="126.700000" y="136.000000" width="38.700000" height="24.000000" rx="0" ry="0" style="stroke:none;fill:#4B71A1;"/>
<text x="146.050000" y="150.000000" font-family="Arial" font-size="7" text-anchor="middle" fill="#FFFFFF">select2</text>
<circle cx="128.700000" cy="138.000000" r="1"/>
<line x1="123.700000" y1="139.000000" x2="126.700000" y2="140.000000"  transform="rotate(0.000000,126.700000,140.000000)" style="stroke: black; stroke-width:0.25;"/>
<line x1="123.700000" y1="141.000000" x2="126.700000" y2="140.000000"  transform="rotate(0.000000,126.700000,140.000000)" style="stroke: black; stroke-width:0.25;"/>
<line x1="123.700000" y1="147.000000" x2="126.700000" y2="148.000000"  transform="rotate(0.000000,126.700000,148.000000)" style="stroke: black; stroke-width:0.25;"/>
<line x1="123.700000" y1="149.000000" x2="126.700000" y2="148.000000"  transform="rotate(0.000000,126.700000,148.000000)" style="stroke: black; stroke-width:0.25;"/>
<line x1="123.700000" y1="155.000000" x2="126.700000" y2="156.000000"  transform="rotate(0.000000,126.700000,156.000000)" style="stroke: black; stroke-width:0.25;"/>
<line x1="123.700000" y1="157.000000" x2="126.700000" y2="156.000000"  transform="rotate(0.000000,126.700000,156.000000)" style="stroke: black; stroke-width:0.25;"/>
<rect x="190.400000" y="105.000000" width="38.700000" height="24.000000" rx="0" ry="0" style="stroke:none;fill:#cccccc;"/>
<rect x="189.400000" y="104.000000" width="38.700000" height="24.000000" rx="0" ry="0" style="stroke:none;fill:#4B71A1;"/>
<text x="208.750000" y="118.000000" font-family="Arial" font-size="7" text-anchor="middle" fill="#FFFFFF">select2</text>
<circle cx="191.400000" cy="106.000000" r="1"/>
<line x1="186.400000" y1="107.000000" x2="189.400000" y2="108.000000"  transform="rotate(0.000000,189.400000,108.000000)" style="stroke: black; stroke-width:0.25;"/>
<line x1="186.400000" y1="109.000000" x2="189.400000" y2="108.000000"  transform="rotate(0.000000,189.400000,108.000000)" style="stroke: black; stroke-width:0.25;"/>
<line x1="186.400000" y1="115.000000" x2="189.400000" y2="116.000000"  transform="rotate(0.000000,189.400000,116.000000)" style="stroke: black; stroke-width:0.25;"/>
<line x1="186.400000" y1="117.000000" x2="189.400000" y2="116.000000"  transform="rotate(0.000000,189.400000,116.000000)" style="stroke: black; stroke-width:0.25;"/>
<line x1="186.400000" y1="123.000000" x2="189.400000" y2="124.000000"  transform="rotate(0.000000,189.400000,124.000000)" style="stroke: black; stroke-width:0.25;"/>
<line x1="186.400000" y1="125.000000" x2="189.400000" y2="124.000000"  transform="rotate(0.000000,189.400000,124.000000)" style="stroke: black; stroke-width:0.25;"/>
<line x1="15.000000" y1="15.000000" x2="15.000000" y2="217.000000"  style="stroke: black; stroke-linecap:round; stroke-width:0.25; stroke-dasharray:3,3;"/>
<line x1="15.000000" y1="217.000000" x2="245.100000" y2="217.000000"  style="stroke: black; stroke-linecap:round; stroke-width:0.25; stroke-dasharray:3,3;"/>
<line x1="245.100000" y1="217.000000" x2="245.100000" y2="15.000000"  style="stroke: black; stroke-linecap:round; stroke-width:0.25; stroke-dasharray:3,3;"/>
<line x1="15.000000" y1="15.000000" x2="20.000000" y2="15.000000"  style="stroke: black; stroke-linecap:round; stroke-width:0.25; stroke-dasharray:3,3;"/>
<line x1="36.125000" y1="15.000000" x2="245.100000" y2="15.000000"  style="stroke: black; stroke-linecap:round; stroke-width:0.25; stroke-dasharray:3,3;"/>
<text x="20.000000" y="17.000000" font-family="Arial" font-size="7">t60</text>
<line x1="247.100000" y1="115.000000" x2="250.100000" y2="116.000000"  transform="rotate(0.000000,250.100000,116.000000)" style="stroke: black; stroke-width:0.25;"/>
<line x1="247.100000" y1="117.000000" x2="250.100000" y2="116.000000"  transform="rotate(0.000000,250.100000,116.000000)" style="stroke: black; stroke-width:0.25;"/>
<line x1="56.250000" y1="100.000000" x2="60.250000" y2="100.000000"  style="stroke:black; stroke-linecap:round; stroke-width:0.25;"/>
<line x1="60.250000" y1="100.000000" x2="66.700000" y2="100.000000"  style="stroke:black; stroke-linecap:round; stroke-width:0.25;"/>
<line x1="62.700000" y1="132.000000" x2="66.700000" y2="132.000000"  style="stroke:black; stroke-linecap:round; stroke-width:0.25;"/>
<line x1="66.700000" y1="120.000000" x2="74.700000" y2="120.000000"  style="stroke:black; stroke-linecap:round; stroke-width:0.25;"/>
<line x1="66.700000" y1="132.000000" x2="66.700000" y2="120.000000"  style="stroke:black; stroke-linecap:round; stroke-width:0.25;"/>
<line x1="66.700000" y1="132.000000" x2="66.700000" y2="132.000000"  style="stroke:black; stroke-linecap:round; stroke-width:0.25;"/>
<line x1="66.700000" y1="100.000000" x2="74.700000" y2="100.000000"  style="stroke:black; stroke-linecap:round; stroke-width:0.25;"/>
<line x1="74.700000" y1="112.000000" x2="78.700000" y2="112.000000"  style="stroke:black; stroke-linecap:round; stroke-width:0.25;"/>
<line x1="74.700000" y1="120.000000" x2="78.700000" y2="120.000000"  style="stroke:black; stroke-linecap:round; stroke-width:0.25;"/>
<line x1="74.700000" y1="100.000000" x2="74.700000" y2="112.000000"  style="stroke:black; stroke-linecap:round; stroke-width:0.25;"/>
<line x1="74.700000" y1="112.000000" x2="74.700000" y2="112.000000"  style="stroke:black; stroke-linecap:round; stroke-width:0.25;"/>
<line x1="75.350000" y1="164.000000" x2="79.350000" y2="164.000000"  style="stroke:black; stroke-linecap:round; stroke-width:0.25;"/>
<line x1="75.350000" y1="196.000000" x2="79.350000" y2="196.000000"  style="stroke:black; stroke-linecap:round; stroke-width:0.25;"/>
<line x1="79.350000" y1="164.000000" x2="106.700000" y2="164.000000"  style="stroke:black; stroke-linecap:round; stroke-width:0.25;"/>
<line x1="79.350000" y1="196.000000" x2="106.700000" y2="196.000000"  style="stroke:black; stroke-linecap:round; stroke-width:0.25;"/>
<line x1="102.700000" y1="116.000000" x2="106.700000" y2="116.000000"  style="stroke:black; stroke-linecap:round; stroke-width:0.25;"/>
<line x1="106.700000" y1="68.000000" x2="110.700000" y2="68.000000"  style="stroke:black; stroke-linecap:round; stroke-width:0.25;"/>
<line x1="106.700000" y1="116.000000" x2="122.700000" y2="116.000000"  style="stroke:black; stroke-linecap:round; stroke-width:0.25;"/>
<line x1="106.700000" y1="148.000000" x2="122.700000" y2="148.000000"  style="stroke:black; stroke-linecap:round; stroke-width:0.25;"/>
<line x1="106.700000" y1="164.000000" x2="106.700000" y2="148.000000"  style="stroke:black; stroke-linecap:round; stroke-width:0.25;"/>
<line x1="106.700000" y1="164.000000" x2="106.700000" y2="164.000000"  style="stroke:black; stroke-linecap:round; stroke-width:0.25;"/>
<line x1="106.700000" y1="196.000000" x2="114.700000" y2="196.000000"  style="stroke:black; stroke-linecap:round; stroke-width:0.25;"/>
<line x1="107.600000" y1="36.000000" x2="111.600000" y2="36.000000"  style="stroke:black; stroke-linecap:round; stroke-width:0.25;"/>
<line x1="110.700000" y1="68.000000" x2="169.400000" y2="68.000000"  style="stroke:black; stroke-linecap:round; stroke-width:0.25;"/>
<line x1="111.600000" y1="36.000000" x2="169.400000" y2="36.000000"  style="stroke:black; stroke-linecap:round; stroke-width:0.25;"/>
<line x1="114.700000" y1="156.000000" x2="122.700000" y2="156.000000"  style="stroke:black; stroke-linecap:round; stroke-width:0.25;"/>
<line x1="114.700000" y1="196.000000" x2="114.700000" y2="156.000000"  style="stroke:black; stroke-linecap:round; stroke-width:0.25;"/>
<line x1="122.700000" y1="116.000000" x2="122.700000" y2="140.000000"  style="stroke:black; stroke-linecap:round; stroke-width:0.25;"/>
<line x1="122.700000" y1="140.000000" x2="122.700000" y2="140.000000"  style="stroke:black; stroke-linecap:round; stroke-width:0.25;"/>
<line x1="122.700000" y1="140.000000" x2="126.700000" y2="140.000000"  style="stroke:black; stroke-linecap:round; stroke-width:0.25;"/>
<line x1="122.700000" y1="148.000000" x2="126.700000" y2="148.000000"  style="stroke:black; stroke-linecap:round; stroke-width:0.25;"/>
<line x1="122.700000" y1="156.000000" x2="126.700000" y2="156.000000"  style="stroke:black; stroke-linecap:round; stroke-width:0.25;"/>
<line x1="165.400000" y1="148.000000" x2="169.400000" y2="148.000000"  style="stroke:black; stroke-linecap:round; stroke-width:0.25;"/>
<line x1="169.400000" y1="36.000000" x2="185.400000" y2="36.000000"  style="stroke:black; stroke-linecap:round; stroke-width:0.25;"/>
<line x1="169.400000" y1="68.000000" x2="177.400000" y2="68.000000"  style="stroke:black; stroke-linecap:round; stroke-width:0.25;"/>
<line x1="169.400000" y1="124.000000" x2="185.400000" y2="124.000000"  style="stroke:black; stroke-linecap:round; stroke-width:0.25;"/>
<line x1="169.400000" y1="148.000000" x2="169.400000" y2="124.000000"  style="stroke:black; stroke-linecap:round; stroke-width:0.25;"/>
<line x1="169.400000" y1="148.000000" x2="169.400000" y2="148.000000"  style="stroke:black; stroke-linecap:round; stroke-width:0.25;"/>
<line x1="177.400000" y1="68.000000" x2="177.400000" y2="116.000000"  style="stroke:black; stroke-linecap:round; stroke-width:0.25;"/>
<line x1="177.400000" y1="116.000000" x2="185.400000" y2="116.000000"  style="stroke:black; stroke-linecap:round; stroke-width:0.25;"/>
<line x1="185.400000" y1="36.000000" x2="185.400000" y2="108.000000"  style="stroke:black; stroke-linecap:round; stroke-width:0.25;"/>
<line x1="185.400000" y1="108.000000" x2="185.400000" y2="108.000000"  style="stroke:black; stroke-linecap:round; stroke-width:0.25;"/>
<line x1="185.400000" y1="108.000000" x2="189.400000" y2="108.000000"  style="stroke:black; stroke-linecap:round; stroke-width:0.25;"/>
<line x1="185.400000" y1="116.000000" x2="189.400000" y2="116.000000"  style="stroke:black; stroke-linecap:round; stroke-width:0.25;"/>
<line x1="185.400000" y1="124.000000" x2="189.400000" y2="124.000000"  style="stroke:black; stroke-linecap:round; stroke-width:0.25;"/>
<line x1="228.100000" y1="116.000000" x2="232.100000" y2="116.000000"  style="stroke:black; stroke-linecap:round; stroke-width:0.25;"/>
<line x1="232.100000" y1="116.000000" x2="232.100000" y2="116.000000"  style="stroke:black; stroke-linecap:round; stroke-width:0.25;"/>
<line x1="232.100000" y1="116.000000" x2="236.100000" y2="116.000000"  style="stroke:black; stroke-linecap:round; stroke-width:0.25;"/>
<line x1="236.100000" y1="116.000000" x2="240.100000" y2="116.000000"  style="stroke:black; stroke-linecap:round; stroke-width:0.25;"/>
<line x1="240.100000" y1="116.000000" x2="250.100000" y2="116.000000"  style="stroke:black; stroke-linecap:round; stroke-width:0.25;"/>
</svg>
