<?xml version="1.0"?>
<svg xmlns="http://www.w3.org/2000/svg" xmlns:xlink="http://www.w3.org/1999/xlink" viewBox="0 0 486.500000 200.000000" width="243.250000mm" height="100.000000mm" version="1.1">
<a xlink:href="autobendFreq-0x7f9fc2a7f6b0.svg">
<rect x="1.000000" y="1.000000" width="485.500000" height="199.000000" rx="0" ry="0" style="stroke:none;fill:#cccccc;"/>
<rect x="0.000000" y="0.000000" width="485.500000" height="199.000000" rx="0" ry="0" style="stroke:none;fill:#ffffff;"/>
</a>
<text x="10.000000" y="7.000000" font-family="Arial" font-size="7"></text>
<rect x="59.000000" y="35.000000" width="283.800000" height="24.000000" rx="0" ry="0" style="stroke:none;fill:#cccccc;"/>
<rect x="58.000000" y="34.000000" width="283.800000" height="24.000000" rx="0" ry="0" style="stroke:none;fill:#477881;"/>
<text x="199.900000" y="48.000000" font-family="Arial" font-size="7" text-anchor="middle" fill="#FFFFFF">hslider(v:vocal/h:otherParams/voiceType, 0.0f, 0.0f, 4.0f, 1.0f)</text>
<circle cx="60.000000" cy="36.000000" r="1"/>
<line x1="49.000000" y1="25.000000" x2="49.000000" y2="67.000000"  style="stroke: black; stroke-linecap:round; stroke-width:0.25; stroke-dasharray:3,3;"/>
<line x1="49.000000" y1="67.000000" x2="350.800000" y2="67.000000"  style="stroke: black; stroke-linecap:round; stroke-width:0.25; stroke-dasharray:3,3;"/>
<line x1="350.800000" y1="67.000000" x2="350.800000" y2="25.000000"  style="stroke: black; stroke-linecap:round; stroke-width:0.25; stroke-dasharray:3,3;"/>
<line x1="49.000000" y1="25.000000" x2="54.000000" y2="25.000000"  style="stroke: black; stroke-linecap:round; stroke-width:0.25; stroke-dasharray:3,3;"/>
<line x1="89.475000" y1="25.000000" x2="350.800000" y2="25.000000"  style="stroke: black; stroke-linecap:round; stroke-width:0.25; stroke-dasharray:3,3;"/>
<text x="54.000000" y="27.000000" font-family="Arial" font-size="7">voiceType</text>
<rect x="188.900000" y="87.000000" width="24.000000" height="24.000000" rx="0" ry="0" style="stroke:none;fill:#cccccc;"/>
<rect x="187.900000" y="86.000000" width="24.000000" height="24.000000" rx="0" ry="0" style="stroke:none;fill:#f44800;"/>
<text x="199.900000" y="100.000000" font-family="Arial" font-size="7" text-anchor="middle" fill="#FFFFFF">2</text>
<circle cx="189.900000" cy="88.000000" r="1"/>
<line x1="178.900000" y1="77.000000" x2="178.900000" y2="119.000000"  style="stroke: black; stroke-linecap:round; stroke-width:0.25; stroke-dasharray:3,3;"/>
<line x1="178.900000" y1="119.000000" x2="220.900000" y2="119.000000"  style="stroke: black; stroke-linecap:round; stroke-width:0.25; stroke-dasharray:3,3;"/>
<line x1="220.900000" y1="119.000000" x2="220.900000" y2="77.000000"  style="stroke: black; stroke-linecap:round; stroke-width:0.25; stroke-dasharray:3,3;"/>
<line x1="178.900000" y1="77.000000" x2="183.900000" y2="77.000000"  style="stroke: black; stroke-linecap:round; stroke-width:0.25; stroke-dasharray:3,3;"/>
<line x1="206.475000" y1="77.000000" x2="220.900000" y2="77.000000"  style="stroke: black; stroke-linecap:round; stroke-width:0.25; stroke-dasharray:3,3;"/>
<text x="183.900000" y="79.000000" font-family="Arial" font-size="7">right</text>
<rect x="368.800000" y="61.000000" width="24.000000" height="24.000000" rx="0" ry="0" style="stroke:none;fill:#cccccc;"/>
<rect x="367.800000" y="60.000000" width="24.000000" height="24.000000" rx="0" ry="0" style="stroke:none;fill:#4B71A1;"/>
<text x="379.800000" y="74.000000" font-family="Arial" font-size="7" text-anchor="middle" fill="#FFFFFF">!=</text>
<circle cx="369.800000" cy="62.000000" r="1"/>
<line x1="364.800000" y1="67.000000" x2="367.800000" y2="68.000000"  transform="rotate(0.000000,367.800000,68.000000)" style="stroke: black; stroke-width:0.25;"/>
<line x1="364.800000" y1="69.000000" x2="367.800000" y2="68.000000"  transform="rotate(0.000000,367.800000,68.000000)" style="stroke: black; stroke-width:0.25;"/>
<line x1="364.800000" y1="75.000000" x2="367.800000" y2="76.000000"  transform="rotate(0.000000,367.800000,76.000000)" style="stroke: black; stroke-width:0.25;"/>
<line x1="364.800000" y1="77.000000" x2="367.800000" y2="76.000000"  transform="rotate(0.000000,367.800000,76.000000)" style="stroke: black; stroke-width:0.25;"/>
<a xlink:href="if-0x7f9fc2a7f1f0.svg">
<rect x="167.400000" y="137.000000" width="129.000000" height="40.000000" rx="0" ry="0" style="stroke:none;fill:#cccccc;"/>
<rect x="166.400000" y="136.000000" width="129.000000" height="40.000000" rx="0" ry="0" style="stroke:none;fill:#003366;"/>
</a>
<a xlink:href="if-0x7f9fc2a7f1f0.svg">
<text x="230.900000" y="158.000000" font-family="Arial" font-size="7" text-anchor="middle" fill="#FFFFFF">if((_,1300 : ...+) : select2)</text>
</a>
<circle cx="168.400000" cy="138.000000" r="1"/>
<line x1="163.400000" y1="139.000000" x2="166.400000" y2="140.000000"  transform="rotate(0.000000,166.400000,140.000000)" style="stroke: black; stroke-width:0.25;"/>
<line x1="163.400000" y1="141.000000" x2="166.400000" y2="140.000000"  transform="rotate(0.000000,166.400000,140.000000)" style="stroke: black; stroke-width:0.25;"/>
<line x1="163.400000" y1="147.000000" x2="166.400000" y2="148.000000"  transform="rotate(0.000000,166.400000,148.000000)" style="stroke: black; stroke-width:0.25;"/>
<line x1="163.400000" y1="149.000000" x2="166.400000" y2="148.000000"  transform="rotate(0.000000,166.400000,148.000000)" style="stroke: black; stroke-width:0.25;"/>
<line x1="163.400000" y1="155.000000" x2="166.400000" y2="156.000000"  transform="rotate(0.000000,166.400000,156.000000)" style="stroke: black; stroke-width:0.25;"/>
<line x1="163.400000" y1="157.000000" x2="166.400000" y2="156.000000"  transform="rotate(0.000000,166.400000,156.000000)" style="stroke: black; stroke-width:0.25;"/>
<line x1="163.400000" y1="163.000000" x2="166.400000" y2="164.000000"  transform="rotate(0.000000,166.400000,164.000000)" style="stroke: black; stroke-width:0.25;"/>
<line x1="163.400000" y1="165.000000" x2="166.400000" y2="164.000000"  transform="rotate(0.000000,166.400000,164.000000)" style="stroke: black; stroke-width:0.25;"/>
<line x1="163.400000" y1="171.000000" x2="166.400000" y2="172.000000"  transform="rotate(0.000000,166.400000,172.000000)" style="stroke: black; stroke-width:0.25;"/>
<line x1="163.400000" y1="173.000000" x2="166.400000" y2="172.000000"  transform="rotate(0.000000,166.400000,172.000000)" style="stroke: black; stroke-width:0.25;"/>
<rect x="416.800000" y="89.000000" width="38.700000" height="24.000000" rx="0" ry="0" style="stroke:none;fill:#cccccc;"/>
<rect x="415.800000" y="88.000000" width="38.700000" height="24.000000" rx="0" ry="0" style="stroke:none;fill:#4B71A1;"/>
<text x="435.150000" y="102.000000" font-family="Arial" font-size="7" text-anchor="middle" fill="#FFFFFF">select2</text>
<circle cx="417.800000" cy="90.000000" r="1"/>
<line x1="412.800000" y1="91.000000" x2="415.800000" y2="92.000000"  transform="rotate(0.000000,415.800000,92.000000)" style="stroke: black; stroke-width:0.25;"/>
<line x1="412.800000" y1="93.000000" x2="415.800000" y2="92.000000"  transform="rotate(0.000000,415.800000,92.000000)" style="stroke: black; stroke-width:0.25;"/>
<line x1="412.800000" y1="99.000000" x2="415.800000" y2="100.000000"  transform="rotate(0.000000,415.800000,100.000000)" style="stroke: black; stroke-width:0.25;"/>
<line x1="412.800000" y1="101.000000" x2="415.800000" y2="100.000000"  transform="rotate(0.000000,415.800000,100.000000)" style="stroke: black; stroke-width:0.25;"/>
<line x1="412.800000" y1="107.000000" x2="415.800000" y2="108.000000"  transform="rotate(0.000000,415.800000,108.000000)" style="stroke: black; stroke-width:0.25;"/>
<line x1="412.800000" y1="109.000000" x2="415.800000" y2="108.000000"  transform="rotate(0.000000,415.800000,108.000000)" style="stroke: black; stroke-width:0.25;"/>
<line x1="15.000000" y1="15.000000" x2="15.000000" y2="185.000000"  style="stroke: black; stroke-linecap:round; stroke-width:0.25; stroke-dasharray:3,3;"/>
<line x1="15.000000" y1="185.000000" x2="471.500000" y2="185.000000"  style="stroke: black; stroke-linecap:round; stroke-width:0.25; stroke-dasharray:3,3;"/>
<line x1="471.500000" y1="185.000000" x2="471.500000" y2="15.000000"  style="stroke: black; stroke-linecap:round; stroke-width:0.25; stroke-dasharray:3,3;"/>
<line x1="15.000000" y1="15.000000" x2="20.000000" y2="15.000000"  style="stroke: black; stroke-linecap:round; stroke-width:0.25; stroke-dasharray:3,3;"/>
<line x1="129.650000" y1="15.000000" x2="471.500000" y2="15.000000"  style="stroke: black; stroke-linecap:round; stroke-width:0.25; stroke-dasharray:3,3;"/>
<text x="20.000000" y="17.000000" font-family="Arial" font-size="7">if(hslider(&quot;v...-) : select2)(_)</text>
<line x1="473.500000" y1="99.000000" x2="476.500000" y2="100.000000"  transform="rotate(0.000000,476.500000,100.000000)" style="stroke: black; stroke-width:0.25;"/>
<line x1="473.500000" y1="101.000000" x2="476.500000" y2="100.000000"  transform="rotate(0.000000,476.500000,100.000000)" style="stroke: black; stroke-width:0.25;"/>
<line x1="10.000000" y1="96.000000" x2="20.000000" y2="96.000000"  style="stroke:black; stroke-linecap:round; stroke-width:0.25;"/>
<line x1="10.000000" y1="104.000000" x2="20.000000" y2="104.000000"  style="stroke:black; stroke-linecap:round; stroke-width:0.25;"/>
<line x1="20.000000" y1="96.000000" x2="24.000000" y2="96.000000"  style="stroke:black; stroke-linecap:round; stroke-width:0.25;"/>
<line x1="20.000000" y1="104.000000" x2="24.000000" y2="104.000000"  style="stroke:black; stroke-linecap:round; stroke-width:0.25;"/>
<line x1="24.000000" y1="96.000000" x2="28.000000" y2="96.000000"  style="stroke:black; stroke-linecap:round; stroke-width:0.25;"/>
<line x1="24.000000" y1="104.000000" x2="28.000000" y2="104.000000"  style="stroke:black; stroke-linecap:round; stroke-width:0.25;"/>
<line x1="28.000000" y1="96.000000" x2="44.000000" y2="96.000000"  style="stroke:black; stroke-linecap:round; stroke-width:0.25;"/>
<line x1="28.000000" y1="104.000000" x2="36.000000" y2="104.000000"  style="stroke:black; stroke-linecap:round; stroke-width:0.25;"/>
<line x1="36.000000" y1="104.000000" x2="36.000000" y2="156.000000"  style="stroke:black; stroke-linecap:round; stroke-width:0.25;"/>
<line x1="36.000000" y1="156.000000" x2="44.000000" y2="156.000000"  style="stroke:black; stroke-linecap:round; stroke-width:0.25;"/>
<line x1="44.000000" y1="96.000000" x2="44.000000" y2="128.000000"  style="stroke:black; stroke-linecap:round; stroke-width:0.25;"/>
<line x1="44.000000" y1="128.000000" x2="44.000000" y2="128.000000"  style="stroke:black; stroke-linecap:round; stroke-width:0.25;"/>
<line x1="44.000000" y1="128.000000" x2="140.400000" y2="128.000000"  style="stroke:black; stroke-linecap:round; stroke-width:0.25;"/>
<line x1="44.000000" y1="156.000000" x2="140.400000" y2="156.000000"  style="stroke:black; stroke-linecap:round; stroke-width:0.25;"/>
<line x1="140.400000" y1="128.000000" x2="219.900000" y2="128.000000"  style="stroke:black; stroke-linecap:round; stroke-width:0.25;"/>
<line x1="140.400000" y1="156.000000" x2="144.400000" y2="156.000000"  style="stroke:black; stroke-linecap:round; stroke-width:0.25;"/>
<line x1="144.400000" y1="156.000000" x2="148.400000" y2="156.000000"  style="stroke:black; stroke-linecap:round; stroke-width:0.25;"/>
<line x1="148.400000" y1="156.000000" x2="162.400000" y2="140.000000"  style="stroke:black; stroke-linecap:round; stroke-width:0.25;"/>
<line x1="148.400000" y1="156.000000" x2="162.400000" y2="148.000000"  style="stroke:black; stroke-linecap:round; stroke-width:0.25;"/>
<line x1="148.400000" y1="156.000000" x2="162.400000" y2="156.000000"  style="stroke:black; stroke-linecap:round; stroke-width:0.25;"/>
<line x1="148.400000" y1="156.000000" x2="162.400000" y2="164.000000"  style="stroke:black; stroke-linecap:round; stroke-width:0.25;"/>
<line x1="148.400000" y1="156.000000" x2="162.400000" y2="172.000000"  style="stroke:black; stroke-linecap:round; stroke-width:0.25;"/>
<line x1="162.400000" y1="140.000000" x2="166.400000" y2="140.000000"  style="stroke:black; stroke-linecap:round; stroke-width:0.25;"/>
<line x1="162.400000" y1="148.000000" x2="166.400000" y2="148.000000"  style="stroke:black; stroke-linecap:round; stroke-width:0.25;"/>
<line x1="162.400000" y1="156.000000" x2="166.400000" y2="156.000000"  style="stroke:black; stroke-linecap:round; stroke-width:0.25;"/>
<line x1="162.400000" y1="164.000000" x2="166.400000" y2="164.000000"  style="stroke:black; stroke-linecap:round; stroke-width:0.25;"/>
<line x1="162.400000" y1="172.000000" x2="166.400000" y2="172.000000"  style="stroke:black; stroke-linecap:round; stroke-width:0.25;"/>
<line x1="211.900000" y1="98.000000" x2="215.900000" y2="98.000000"  style="stroke:black; stroke-linecap:round; stroke-width:0.25;"/>
<line x1="215.900000" y1="98.000000" x2="225.900000" y2="98.000000"  style="stroke:black; stroke-linecap:round; stroke-width:0.25;"/>
<line x1="219.900000" y1="128.000000" x2="299.400000" y2="128.000000"  style="stroke:black; stroke-linecap:round; stroke-width:0.25;"/>
<line x1="225.900000" y1="98.000000" x2="355.800000" y2="98.000000"  style="stroke:black; stroke-linecap:round; stroke-width:0.25;"/>
<line x1="295.400000" y1="156.000000" x2="299.400000" y2="156.000000"  style="stroke:black; stroke-linecap:round; stroke-width:0.25;"/>
<line x1="299.400000" y1="128.000000" x2="395.800000" y2="128.000000"  style="stroke:black; stroke-linecap:round; stroke-width:0.25;"/>
<line x1="299.400000" y1="156.000000" x2="395.800000" y2="156.000000"  style="stroke:black; stroke-linecap:round; stroke-width:0.25;"/>
<line x1="341.800000" y1="46.000000" x2="345.800000" y2="46.000000"  style="stroke:black; stroke-linecap:round; stroke-width:0.25;"/>
<line x1="345.800000" y1="46.000000" x2="355.800000" y2="46.000000"  style="stroke:black; stroke-linecap:round; stroke-width:0.25;"/>
<line x1="355.800000" y1="46.000000" x2="363.800000" y2="46.000000"  style="stroke:black; stroke-linecap:round; stroke-width:0.25;"/>
<line x1="355.800000" y1="76.000000" x2="363.800000" y2="76.000000"  style="stroke:black; stroke-linecap:round; stroke-width:0.25;"/>
<line x1="355.800000" y1="98.000000" x2="355.800000" y2="76.000000"  style="stroke:black; stroke-linecap:round; stroke-width:0.25;"/>
<line x1="355.800000" y1="98.000000" x2="355.800000" y2="98.000000"  style="stroke:black; stroke-linecap:round; stroke-width:0.25;"/>
<line x1="363.800000" y1="46.000000" x2="363.800000" y2="68.000000"  style="stroke:black; stroke-linecap:round; stroke-width:0.25;"/>
<line x1="363.800000" y1="68.000000" x2="363.800000" y2="68.000000"  style="stroke:black; stroke-linecap:round; stroke-width:0.25;"/>
<line x1="363.800000" y1="68.000000" x2="367.800000" y2="68.000000"  style="stroke:black; stroke-linecap:round; stroke-width:0.25;"/>
<line x1="363.800000" y1="76.000000" x2="367.800000" y2="76.000000"  style="stroke:black; stroke-linecap:round; stroke-width:0.25;"/>
<line x1="391.800000" y1="72.000000" x2="395.800000" y2="72.000000"  style="stroke:black; stroke-linecap:round; stroke-width:0.25;"/>
<line x1="395.800000" y1="100.000000" x2="411.800000" y2="100.000000"  style="stroke:black; stroke-linecap:round; stroke-width:0.25;"/>
<line x1="395.800000" y1="128.000000" x2="395.800000" y2="100.000000"  style="stroke:black; stroke-linecap:round; stroke-width:0.25;"/>
<line x1="395.800000" y1="128.000000" x2="395.800000" y2="128.000000"  style="stroke:black; stroke-linecap:round; stroke-width:0.25;"/>
<line x1="395.800000" y1="156.000000" x2="403.800000" y2="156.000000"  style="stroke:black; stroke-linecap:round; stroke-width:0.25;"/>
<line x1="395.800000" y1="72.000000" x2="411.800000" y2="72.000000"  style="stroke:black; stroke-linecap:round; stroke-width:0.25;"/>
<line x1="403.800000" y1="108.000000" x2="411.800000" y2="108.000000"  style="stroke:black; stroke-linecap:round; stroke-width:0.25;"/>
<line x1="403.800000" y1="156.000000" x2="403.800000" y2="108.000000"  style="stroke:black; stroke-linecap:round; stroke-width:0.25;"/>
<line x1="411.800000" y1="72.000000" x2="411.800000" y2="92.000000"  style="stroke:black; stroke-linecap:round; stroke-width:0.25;"/>
<line x1="411.800000" y1="92.000000" x2="411.800000" y2="92.000000"  style="stroke:black; stroke-linecap:round; stroke-width:0.25;"/>
<line x1="411.800000" y1="92.000000" x2="415.800000" y2="92.000000"  style="stroke:black; stroke-linecap:round; stroke-width:0.25;"/>
<line x1="411.800000" y1="100.000000" x2="415.800000" y2="100.000000"  style="stroke:black; stroke-linecap:round; stroke-width:0.25;"/>
<line x1="411.800000" y1="108.000000" x2="415.800000" y2="108.000000"  style="stroke:black; stroke-linecap:round; stroke-width:0.25;"/>
<line x1="454.500000" y1="100.000000" x2="458.500000" y2="100.000000"  style="stroke:black; stroke-linecap:round; stroke-width:0.25;"/>
<line x1="458.500000" y1="100.000000" x2="458.500000" y2="100.000000"  style="stroke:black; stroke-linecap:round; stroke-width:0.25;"/>
<line x1="458.500000" y1="100.000000" x2="462.500000" y2="100.000000"  style="stroke:black; stroke-linecap:round; stroke-width:0.25;"/>
<line x1="462.500000" y1="100.000000" x2="466.500000" y2="100.000000"  style="stroke:black; stroke-linecap:round; stroke-width:0.25;"/>
<line x1="466.500000" y1="100.000000" x2="476.500000" y2="100.000000"  style="stroke:black; stroke-linecap:round; stroke-width:0.25;"/>
</svg>
