<?xml version="1.0"?>
<svg xmlns="http://www.w3.org/2000/svg" xmlns:xlink="http://www.w3.org/1999/xlink" viewBox="0 0 360.500000 460.000000" width="180.250000mm" height="230.000000mm" version="1.1">
<a xlink:href="vocalEffort-0x7f9fd107e550.svg">
<rect x="1.000000" y="1.000000" width="359.500000" height="459.000000" rx="0" ry="0" style="stroke:none;fill:#cccccc;"/>
<rect x="0.000000" y="0.000000" width="359.500000" height="459.000000" rx="0" ry="0" style="stroke:none;fill:#ffffff;"/>
</a>
<text x="10.000000" y="7.000000" font-family="Arial" font-size="7"></text>
<a xlink:href="gender-0x7f9fcb839380.svg">
<rect x="121.000000" y="25.000000" width="25.800000" height="24.000000" rx="0" ry="0" style="stroke:none;fill:#cccccc;"/>
<rect x="120.000000" y="24.000000" width="25.800000" height="24.000000" rx="0" ry="0" style="stroke:none;fill:#003366;"/>
</a>
<a xlink:href="gender-0x7f9fcb839380.svg">
<text x="132.900000" y="38.000000" font-family="Arial" font-size="7" text-anchor="middle" fill="#FFFFFF">gender</text>
</a>
<circle cx="122.000000" cy="26.000000" r="1"/>
<rect x="121.900000" y="57.000000" width="24.000000" height="24.000000" rx="0" ry="0" style="stroke:none;fill:#cccccc;"/>
<rect x="120.900000" y="56.000000" width="24.000000" height="24.000000" rx="0" ry="0" style="stroke:none;fill:#f44800;"/>
<text x="132.900000" y="70.000000" font-family="Arial" font-size="7" text-anchor="middle" fill="#FFFFFF">0</text>
<circle cx="122.900000" cy="58.000000" r="1"/>
<rect x="162.800000" y="41.000000" width="24.000000" height="24.000000" rx="0" ry="0" style="stroke:none;fill:#cccccc;"/>
<rect x="161.800000" y="40.000000" width="24.000000" height="24.000000" rx="0" ry="0" style="stroke:none;fill:#4B71A1;"/>
<text x="173.800000" y="54.000000" font-family="Arial" font-size="7" text-anchor="middle" fill="#FFFFFF">==</text>
<circle cx="163.800000" cy="42.000000" r="1"/>
<line x1="158.800000" y1="47.000000" x2="161.800000" y2="48.000000"  transform="rotate(0.000000,161.800000,48.000000)" style="stroke: black; stroke-width:0.25;"/>
<line x1="158.800000" y1="49.000000" x2="161.800000" y2="48.000000"  transform="rotate(0.000000,161.800000,48.000000)" style="stroke: black; stroke-width:0.25;"/>
<line x1="158.800000" y1="55.000000" x2="161.800000" y2="56.000000"  transform="rotate(0.000000,161.800000,56.000000)" style="stroke: black; stroke-width:0.25;"/>
<line x1="158.800000" y1="57.000000" x2="161.800000" y2="56.000000"  transform="rotate(0.000000,161.800000,56.000000)" style="stroke: black; stroke-width:0.25;"/>
<rect x="101.900000" y="97.000000" width="24.000000" height="24.000000" rx="0" ry="0" style="stroke:none;fill:#cccccc;"/>
<rect x="100.900000" y="96.000000" width="24.000000" height="24.000000" rx="0" ry="0" style="stroke:none;fill:#f44800;"/>
<text x="112.900000" y="110.000000" font-family="Arial" font-size="7" text-anchor="middle" fill="#FFFFFF">0.8</text>
<circle cx="102.900000" cy="98.000000" r="1"/>
<rect x="61.000000" y="129.000000" width="25.800000" height="24.000000" rx="0" ry="0" style="stroke:none;fill:#cccccc;"/>
<rect x="60.000000" y="128.000000" width="25.800000" height="24.000000" rx="0" ry="0" style="stroke:none;fill:#f44800;"/>
<text x="72.900000" y="142.000000" font-family="Arial" font-size="7" text-anchor="middle" fill="#FFFFFF">1.05</text>
<circle cx="62.000000" cy="130.000000" r="1"/>
<rect x="41.000000" y="161.000000" width="25.800000" height="24.000000" rx="0" ry="0" style="stroke:none;fill:#cccccc;"/>
<rect x="40.000000" y="160.000000" width="25.800000" height="24.000000" rx="0" ry="0" style="stroke:none;fill:#f44800;"/>
<text x="52.900000" y="174.000000" font-family="Arial" font-size="7" text-anchor="middle" fill="#FFFFFF">1000</text>
<circle cx="42.000000" cy="162.000000" r="1"/>
<a xlink:href="freq2-0x7f9fd107cf50.svg">
<rect x="41.000000" y="193.000000" width="25.800000" height="24.000000" rx="0" ry="0" style="stroke:none;fill:#cccccc;"/>
<rect x="40.000000" y="192.000000" width="25.800000" height="24.000000" rx="0" ry="0" style="stroke:none;fill:#003366;"/>
</a>
<a xlink:href="freq2-0x7f9fd107cf50.svg">
<text x="52.900000" y="206.000000" font-family="Arial" font-size="7" text-anchor="middle" fill="#FFFFFF">freq2</text>
</a>
<circle cx="42.000000" cy="194.000000" r="1"/>
<rect x="82.800000" y="177.000000" width="24.000000" height="24.000000" rx="0" ry="0" style="stroke:none;fill:#cccccc;"/>
<rect x="81.800000" y="176.000000" width="24.000000" height="24.000000" rx="0" ry="0" style="stroke:none;fill:#4B71A1;"/>
<text x="93.800000" y="190.000000" font-family="Arial" font-size="7" text-anchor="middle" fill="#FFFFFF">-</text>
<circle cx="83.800000" cy="178.000000" r="1"/>
<line x1="78.800000" y1="183.000000" x2="81.800000" y2="184.000000"  transform="rotate(0.000000,81.800000,184.000000)" style="stroke: black; stroke-width:0.25;"/>
<line x1="78.800000" y1="185.000000" x2="81.800000" y2="184.000000"  transform="rotate(0.000000,81.800000,184.000000)" style="stroke: black; stroke-width:0.25;"/>
<line x1="78.800000" y1="191.000000" x2="81.800000" y2="192.000000"  transform="rotate(0.000000,81.800000,192.000000)" style="stroke: black; stroke-width:0.25;"/>
<line x1="78.800000" y1="193.000000" x2="81.800000" y2="192.000000"  transform="rotate(0.000000,81.800000,192.000000)" style="stroke: black; stroke-width:0.25;"/>
<rect x="122.800000" y="161.000000" width="24.000000" height="24.000000" rx="0" ry="0" style="stroke:none;fill:#cccccc;"/>
<rect x="121.800000" y="160.000000" width="24.000000" height="24.000000" rx="0" ry="0" style="stroke:none;fill:#4B71A1;"/>
<text x="133.800000" y="174.000000" font-family="Arial" font-size="7" text-anchor="middle" fill="#FFFFFF">*</text>
<circle cx="123.800000" cy="162.000000" r="1"/>
<line x1="118.800000" y1="167.000000" x2="121.800000" y2="168.000000"  transform="rotate(0.000000,121.800000,168.000000)" style="stroke: black; stroke-width:0.25;"/>
<line x1="118.800000" y1="169.000000" x2="121.800000" y2="168.000000"  transform="rotate(0.000000,121.800000,168.000000)" style="stroke: black; stroke-width:0.25;"/>
<line x1="118.800000" y1="175.000000" x2="121.800000" y2="176.000000"  transform="rotate(0.000000,121.800000,176.000000)" style="stroke: black; stroke-width:0.25;"/>
<line x1="118.800000" y1="177.000000" x2="121.800000" y2="176.000000"  transform="rotate(0.000000,121.800000,176.000000)" style="stroke: black; stroke-width:0.25;"/>
<rect x="81.000000" y="225.000000" width="25.800000" height="24.000000" rx="0" ry="0" style="stroke:none;fill:#cccccc;"/>
<rect x="80.000000" y="224.000000" width="25.800000" height="24.000000" rx="0" ry="0" style="stroke:none;fill:#f44800;"/>
<text x="92.900000" y="238.000000" font-family="Arial" font-size="7" text-anchor="middle" fill="#FFFFFF">1250</text>
<circle cx="82.000000" cy="226.000000" r="1"/>
<rect x="162.800000" y="177.000000" width="24.000000" height="24.000000" rx="0" ry="0" style="stroke:none;fill:#cccccc;"/>
<rect x="161.800000" y="176.000000" width="24.000000" height="24.000000" rx="0" ry="0" style="stroke:none;fill:#4B71A1;"/>
<text x="173.800000" y="190.000000" font-family="Arial" font-size="7" text-anchor="middle" fill="#FFFFFF">/</text>
<circle cx="163.800000" cy="178.000000" r="1"/>
<line x1="158.800000" y1="183.000000" x2="161.800000" y2="184.000000"  transform="rotate(0.000000,161.800000,184.000000)" style="stroke: black; stroke-width:0.25;"/>
<line x1="158.800000" y1="185.000000" x2="161.800000" y2="184.000000"  transform="rotate(0.000000,161.800000,184.000000)" style="stroke: black; stroke-width:0.25;"/>
<line x1="158.800000" y1="191.000000" x2="161.800000" y2="192.000000"  transform="rotate(0.000000,161.800000,192.000000)" style="stroke: black; stroke-width:0.25;"/>
<line x1="158.800000" y1="193.000000" x2="161.800000" y2="192.000000"  transform="rotate(0.000000,161.800000,192.000000)" style="stroke: black; stroke-width:0.25;"/>
<rect x="202.800000" y="161.000000" width="24.000000" height="24.000000" rx="0" ry="0" style="stroke:none;fill:#cccccc;"/>
<rect x="201.800000" y="160.000000" width="24.000000" height="24.000000" rx="0" ry="0" style="stroke:none;fill:#4B71A1;"/>
<text x="213.800000" y="174.000000" font-family="Arial" font-size="7" text-anchor="middle" fill="#FFFFFF">+</text>
<circle cx="203.800000" cy="162.000000" r="1"/>
<line x1="198.800000" y1="167.000000" x2="201.800000" y2="168.000000"  transform="rotate(0.000000,201.800000,168.000000)" style="stroke: black; stroke-width:0.25;"/>
<line x1="198.800000" y1="169.000000" x2="201.800000" y2="168.000000"  transform="rotate(0.000000,201.800000,168.000000)" style="stroke: black; stroke-width:0.25;"/>
<line x1="198.800000" y1="175.000000" x2="201.800000" y2="176.000000"  transform="rotate(0.000000,201.800000,176.000000)" style="stroke: black; stroke-width:0.25;"/>
<line x1="198.800000" y1="177.000000" x2="201.800000" y2="176.000000"  transform="rotate(0.000000,201.800000,176.000000)" style="stroke: black; stroke-width:0.25;"/>
<rect x="242.800000" y="157.000000" width="24.000000" height="24.000000" rx="0" ry="0" style="stroke:none;fill:#cccccc;"/>
<rect x="241.800000" y="156.000000" width="24.000000" height="24.000000" rx="0" ry="0" style="stroke:none;fill:#4B71A1;"/>
<text x="253.800000" y="170.000000" font-family="Arial" font-size="7" text-anchor="middle" fill="#FFFFFF">*</text>
<circle cx="243.800000" cy="158.000000" r="1"/>
<line x1="238.800000" y1="163.000000" x2="241.800000" y2="164.000000"  transform="rotate(0.000000,241.800000,164.000000)" style="stroke: black; stroke-width:0.25;"/>
<line x1="238.800000" y1="165.000000" x2="241.800000" y2="164.000000"  transform="rotate(0.000000,241.800000,164.000000)" style="stroke: black; stroke-width:0.25;"/>
<line x1="238.800000" y1="171.000000" x2="241.800000" y2="172.000000"  transform="rotate(0.000000,241.800000,172.000000)" style="stroke: black; stroke-width:0.25;"/>
<line x1="238.800000" y1="173.000000" x2="241.800000" y2="172.000000"  transform="rotate(0.000000,241.800000,172.000000)" style="stroke: black; stroke-width:0.25;"/>
<rect x="101.900000" y="275.000000" width="24.000000" height="24.000000" rx="0" ry="0" style="stroke:none;fill:#cccccc;"/>
<rect x="100.900000" y="274.000000" width="24.000000" height="24.000000" rx="0" ry="0" style="stroke:none;fill:#f44800;"/>
<text x="112.900000" y="288.000000" font-family="Arial" font-size="7" text-anchor="middle" fill="#FFFFFF">3</text>
<circle cx="102.900000" cy="276.000000" r="1"/>
<line x1="91.900000" y1="265.000000" x2="91.900000" y2="307.000000"  style="stroke: black; stroke-linecap:round; stroke-width:0.25; stroke-dasharray:3,3;"/>
<line x1="91.900000" y1="307.000000" x2="133.900000" y2="307.000000"  style="stroke: black; stroke-linecap:round; stroke-width:0.25; stroke-dasharray:3,3;"/>
<line x1="133.900000" y1="307.000000" x2="133.900000" y2="265.000000"  style="stroke: black; stroke-linecap:round; stroke-width:0.25; stroke-dasharray:3,3;"/>
<line x1="91.900000" y1="265.000000" x2="96.900000" y2="265.000000"  style="stroke: black; stroke-linecap:round; stroke-width:0.25; stroke-dasharray:3,3;"/>
<line x1="116.250000" y1="265.000000" x2="133.900000" y2="265.000000"  style="stroke: black; stroke-linecap:round; stroke-width:0.25; stroke-dasharray:3,3;"/>
<text x="96.900000" y="267.000000" font-family="Arial" font-size="7">left</text>
<rect x="61.900000" y="317.000000" width="24.000000" height="24.000000" rx="0" ry="0" style="stroke:none;fill:#cccccc;"/>
<rect x="60.900000" y="316.000000" width="24.000000" height="24.000000" rx="0" ry="0" style="stroke:none;fill:#f44800;"/>
<text x="72.900000" y="330.000000" font-family="Arial" font-size="7" text-anchor="middle" fill="#FFFFFF">1.1</text>
<circle cx="62.900000" cy="318.000000" r="1"/>
<rect x="41.900000" y="349.000000" width="24.000000" height="24.000000" rx="0" ry="0" style="stroke:none;fill:#cccccc;"/>
<rect x="40.900000" y="348.000000" width="24.000000" height="24.000000" rx="0" ry="0" style="stroke:none;fill:#f44800;"/>
<text x="52.900000" y="362.000000" font-family="Arial" font-size="7" text-anchor="middle" fill="#FFFFFF">400</text>
<circle cx="42.900000" cy="350.000000" r="1"/>
<a xlink:href="freq2-0x7f9fd107cf50.svg">
<rect x="41.000000" y="381.000000" width="25.800000" height="24.000000" rx="0" ry="0" style="stroke:none;fill:#cccccc;"/>
<rect x="40.000000" y="380.000000" width="25.800000" height="24.000000" rx="0" ry="0" style="stroke:none;fill:#003366;"/>
</a>
<a xlink:href="freq2-0x7f9fd107cf50.svg">
<text x="52.900000" y="394.000000" font-family="Arial" font-size="7" text-anchor="middle" fill="#FFFFFF">freq2</text>
</a>
<circle cx="42.000000" cy="382.000000" r="1"/>
<rect x="82.800000" y="365.000000" width="24.000000" height="24.000000" rx="0" ry="0" style="stroke:none;fill:#cccccc;"/>
<rect x="81.800000" y="364.000000" width="24.000000" height="24.000000" rx="0" ry="0" style="stroke:none;fill:#4B71A1;"/>
<text x="93.800000" y="378.000000" font-family="Arial" font-size="7" text-anchor="middle" fill="#FFFFFF">-</text>
<circle cx="83.800000" cy="366.000000" r="1"/>
<line x1="78.800000" y1="371.000000" x2="81.800000" y2="372.000000"  transform="rotate(0.000000,81.800000,372.000000)" style="stroke: black; stroke-width:0.25;"/>
<line x1="78.800000" y1="373.000000" x2="81.800000" y2="372.000000"  transform="rotate(0.000000,81.800000,372.000000)" style="stroke: black; stroke-width:0.25;"/>
<line x1="78.800000" y1="379.000000" x2="81.800000" y2="380.000000"  transform="rotate(0.000000,81.800000,380.000000)" style="stroke: black; stroke-width:0.25;"/>
<line x1="78.800000" y1="381.000000" x2="81.800000" y2="380.000000"  transform="rotate(0.000000,81.800000,380.000000)" style="stroke: black; stroke-width:0.25;"/>
<rect x="122.800000" y="349.000000" width="24.000000" height="24.000000" rx="0" ry="0" style="stroke:none;fill:#cccccc;"/>
<rect x="121.800000" y="348.000000" width="24.000000" height="24.000000" rx="0" ry="0" style="stroke:none;fill:#4B71A1;"/>
<text x="133.800000" y="362.000000" font-family="Arial" font-size="7" text-anchor="middle" fill="#FFFFFF">*</text>
<circle cx="123.800000" cy="350.000000" r="1"/>
<line x1="118.800000" y1="355.000000" x2="121.800000" y2="356.000000"  transform="rotate(0.000000,121.800000,356.000000)" style="stroke: black; stroke-width:0.25;"/>
<line x1="118.800000" y1="357.000000" x2="121.800000" y2="356.000000"  transform="rotate(0.000000,121.800000,356.000000)" style="stroke: black; stroke-width:0.25;"/>
<line x1="118.800000" y1="363.000000" x2="121.800000" y2="364.000000"  transform="rotate(0.000000,121.800000,364.000000)" style="stroke: black; stroke-width:0.25;"/>
<line x1="118.800000" y1="365.000000" x2="121.800000" y2="364.000000"  transform="rotate(0.000000,121.800000,364.000000)" style="stroke: black; stroke-width:0.25;"/>
<rect x="81.900000" y="413.000000" width="24.000000" height="24.000000" rx="0" ry="0" style="stroke:none;fill:#cccccc;"/>
<rect x="80.900000" y="412.000000" width="24.000000" height="24.000000" rx="0" ry="0" style="stroke:none;fill:#f44800;"/>
<text x="92.900000" y="426.000000" font-family="Arial" font-size="7" text-anchor="middle" fill="#FFFFFF">300</text>
<circle cx="82.900000" cy="414.000000" r="1"/>
<rect x="162.800000" y="365.000000" width="24.000000" height="24.000000" rx="0" ry="0" style="stroke:none;fill:#cccccc;"/>
<rect x="161.800000" y="364.000000" width="24.000000" height="24.000000" rx="0" ry="0" style="stroke:none;fill:#4B71A1;"/>
<text x="173.800000" y="378.000000" font-family="Arial" font-size="7" text-anchor="middle" fill="#FFFFFF">/</text>
<circle cx="163.800000" cy="366.000000" r="1"/>
<line x1="158.800000" y1="371.000000" x2="161.800000" y2="372.000000"  transform="rotate(0.000000,161.800000,372.000000)" style="stroke: black; stroke-width:0.25;"/>
<line x1="158.800000" y1="373.000000" x2="161.800000" y2="372.000000"  transform="rotate(0.000000,161.800000,372.000000)" style="stroke: black; stroke-width:0.25;"/>
<line x1="158.800000" y1="379.000000" x2="161.800000" y2="380.000000"  transform="rotate(0.000000,161.800000,380.000000)" style="stroke: black; stroke-width:0.25;"/>
<line x1="158.800000" y1="381.000000" x2="161.800000" y2="380.000000"  transform="rotate(0.000000,161.800000,380.000000)" style="stroke: black; stroke-width:0.25;"/>
<rect x="202.800000" y="339.000000" width="24.000000" height="24.000000" rx="0" ry="0" style="stroke:none;fill:#cccccc;"/>
<rect x="201.800000" y="338.000000" width="24.000000" height="24.000000" rx="0" ry="0" style="stroke:none;fill:#4B71A1;"/>
<text x="213.800000" y="352.000000" font-family="Arial" font-size="7" text-anchor="middle" fill="#FFFFFF">+</text>
<circle cx="203.800000" cy="340.000000" r="1"/>
<line x1="198.800000" y1="345.000000" x2="201.800000" y2="346.000000"  transform="rotate(0.000000,201.800000,346.000000)" style="stroke: black; stroke-width:0.25;"/>
<line x1="198.800000" y1="347.000000" x2="201.800000" y2="346.000000"  transform="rotate(0.000000,201.800000,346.000000)" style="stroke: black; stroke-width:0.25;"/>
<line x1="198.800000" y1="353.000000" x2="201.800000" y2="354.000000"  transform="rotate(0.000000,201.800000,354.000000)" style="stroke: black; stroke-width:0.25;"/>
<line x1="198.800000" y1="355.000000" x2="201.800000" y2="354.000000"  transform="rotate(0.000000,201.800000,354.000000)" style="stroke: black; stroke-width:0.25;"/>
<rect x="242.800000" y="335.000000" width="24.000000" height="24.000000" rx="0" ry="0" style="stroke:none;fill:#cccccc;"/>
<rect x="241.800000" y="334.000000" width="24.000000" height="24.000000" rx="0" ry="0" style="stroke:none;fill:#4B71A1;"/>
<text x="253.800000" y="348.000000" font-family="Arial" font-size="7" text-anchor="middle" fill="#FFFFFF">*</text>
<circle cx="243.800000" cy="336.000000" r="1"/>
<line x1="238.800000" y1="341.000000" x2="241.800000" y2="342.000000"  transform="rotate(0.000000,241.800000,342.000000)" style="stroke: black; stroke-width:0.25;"/>
<line x1="238.800000" y1="343.000000" x2="241.800000" y2="342.000000"  transform="rotate(0.000000,241.800000,342.000000)" style="stroke: black; stroke-width:0.25;"/>
<line x1="238.800000" y1="349.000000" x2="241.800000" y2="350.000000"  transform="rotate(0.000000,241.800000,350.000000)" style="stroke: black; stroke-width:0.25;"/>
<line x1="238.800000" y1="351.000000" x2="241.800000" y2="350.000000"  transform="rotate(0.000000,241.800000,350.000000)" style="stroke: black; stroke-width:0.25;"/>
<rect x="290.800000" y="219.000000" width="38.700000" height="24.000000" rx="0" ry="0" style="stroke:none;fill:#cccccc;"/>
<rect x="289.800000" y="218.000000" width="38.700000" height="24.000000" rx="0" ry="0" style="stroke:none;fill:#4B71A1;"/>
<text x="309.150000" y="232.000000" font-family="Arial" font-size="7" text-anchor="middle" fill="#FFFFFF">select2</text>
<circle cx="291.800000" cy="220.000000" r="1"/>
<line x1="286.800000" y1="221.000000" x2="289.800000" y2="222.000000"  transform="rotate(0.000000,289.800000,222.000000)" style="stroke: black; stroke-width:0.25;"/>
<line x1="286.800000" y1="223.000000" x2="289.800000" y2="222.000000"  transform="rotate(0.000000,289.800000,222.000000)" style="stroke: black; stroke-width:0.25;"/>
<line x1="286.800000" y1="229.000000" x2="289.800000" y2="230.000000"  transform="rotate(0.000000,289.800000,230.000000)" style="stroke: black; stroke-width:0.25;"/>
<line x1="286.800000" y1="231.000000" x2="289.800000" y2="230.000000"  transform="rotate(0.000000,289.800000,230.000000)" style="stroke: black; stroke-width:0.25;"/>
<line x1="286.800000" y1="237.000000" x2="289.800000" y2="238.000000"  transform="rotate(0.000000,289.800000,238.000000)" style="stroke: black; stroke-width:0.25;"/>
<line x1="286.800000" y1="239.000000" x2="289.800000" y2="238.000000"  transform="rotate(0.000000,289.800000,238.000000)" style="stroke: black; stroke-width:0.25;"/>
<line x1="15.000000" y1="15.000000" x2="15.000000" y2="445.000000"  style="stroke: black; stroke-linecap:round; stroke-width:0.25; stroke-dasharray:3,3;"/>
<line x1="15.000000" y1="445.000000" x2="345.500000" y2="445.000000"  style="stroke: black; stroke-linecap:round; stroke-width:0.25; stroke-dasharray:3,3;"/>
<line x1="345.500000" y1="445.000000" x2="345.500000" y2="15.000000"  style="stroke: black; stroke-linecap:round; stroke-width:0.25; stroke-dasharray:3,3;"/>
<line x1="15.000000" y1="15.000000" x2="20.000000" y2="15.000000"  style="stroke: black; stroke-linecap:round; stroke-width:0.25; stroke-dasharray:3,3;"/>
<line x1="119.975000" y1="15.000000" x2="345.500000" y2="15.000000"  style="stroke: black; stroke-linecap:round; stroke-width:0.25; stroke-dasharray:3,3;"/>
<text x="20.000000" y="17.000000" font-family="Arial" font-size="7">if(((hslider(... /) : +) : *)</text>
<line x1="347.500000" y1="229.000000" x2="350.500000" y2="230.000000"  transform="rotate(0.000000,350.500000,230.000000)" style="stroke: black; stroke-width:0.25;"/>
<line x1="347.500000" y1="231.000000" x2="350.500000" y2="230.000000"  transform="rotate(0.000000,350.500000,230.000000)" style="stroke: black; stroke-width:0.25;"/>
<line x1="10.000000" y1="226.000000" x2="20.000000" y2="226.000000"  style="stroke:black; stroke-linecap:round; stroke-width:0.25;"/>
<line x1="10.000000" y1="234.000000" x2="20.000000" y2="234.000000"  style="stroke:black; stroke-linecap:round; stroke-width:0.25;"/>
<line x1="20.000000" y1="226.000000" x2="24.000000" y2="226.000000"  style="stroke:black; stroke-linecap:round; stroke-width:0.25;"/>
<line x1="20.000000" y1="234.000000" x2="24.000000" y2="234.000000"  style="stroke:black; stroke-linecap:round; stroke-width:0.25;"/>
<line x1="24.000000" y1="226.000000" x2="28.000000" y2="226.000000"  style="stroke:black; stroke-linecap:round; stroke-width:0.25;"/>
<line x1="24.000000" y1="234.000000" x2="28.000000" y2="234.000000"  style="stroke:black; stroke-linecap:round; stroke-width:0.25;"/>
<line x1="28.000000" y1="88.000000" x2="36.000000" y2="88.000000"  style="stroke:black; stroke-linecap:round; stroke-width:0.25;"/>
<line x1="28.000000" y1="226.000000" x2="28.000000" y2="88.000000"  style="stroke:black; stroke-linecap:round; stroke-width:0.25;"/>
<line x1="28.000000" y1="226.000000" x2="28.000000" y2="226.000000"  style="stroke:black; stroke-linecap:round; stroke-width:0.25;"/>
<line x1="28.000000" y1="234.000000" x2="36.000000" y2="234.000000"  style="stroke:black; stroke-linecap:round; stroke-width:0.25;"/>
<line x1="36.000000" y1="88.000000" x2="132.900000" y2="88.000000"  style="stroke:black; stroke-linecap:round; stroke-width:0.25;"/>
<line x1="36.000000" y1="234.000000" x2="36.000000" y2="256.000000"  style="stroke:black; stroke-linecap:round; stroke-width:0.25;"/>
<line x1="36.000000" y1="256.000000" x2="36.000000" y2="256.000000"  style="stroke:black; stroke-linecap:round; stroke-width:0.25;"/>
<line x1="36.000000" y1="256.000000" x2="132.900000" y2="256.000000"  style="stroke:black; stroke-linecap:round; stroke-width:0.25;"/>
<line x1="64.900000" y1="360.000000" x2="68.900000" y2="360.000000"  style="stroke:black; stroke-linecap:round; stroke-width:0.25;"/>
<line x1="65.800000" y1="172.000000" x2="69.800000" y2="172.000000"  style="stroke:black; stroke-linecap:round; stroke-width:0.25;"/>
<line x1="65.800000" y1="204.000000" x2="69.800000" y2="204.000000"  style="stroke:black; stroke-linecap:round; stroke-width:0.25;"/>
<line x1="65.800000" y1="392.000000" x2="69.800000" y2="392.000000"  style="stroke:black; stroke-linecap:round; stroke-width:0.25;"/>
<line x1="68.900000" y1="360.000000" x2="69.800000" y2="360.000000"  style="stroke:black; stroke-linecap:round; stroke-width:0.25;"/>
<line x1="69.800000" y1="172.000000" x2="77.800000" y2="172.000000"  style="stroke:black; stroke-linecap:round; stroke-width:0.25;"/>
<line x1="69.800000" y1="192.000000" x2="77.800000" y2="192.000000"  style="stroke:black; stroke-linecap:round; stroke-width:0.25;"/>
<line x1="69.800000" y1="204.000000" x2="69.800000" y2="192.000000"  style="stroke:black; stroke-linecap:round; stroke-width:0.25;"/>
<line x1="69.800000" y1="204.000000" x2="69.800000" y2="204.000000"  style="stroke:black; stroke-linecap:round; stroke-width:0.25;"/>
<line x1="69.800000" y1="380.000000" x2="77.800000" y2="380.000000"  style="stroke:black; stroke-linecap:round; stroke-width:0.25;"/>
<line x1="69.800000" y1="392.000000" x2="69.800000" y2="380.000000"  style="stroke:black; stroke-linecap:round; stroke-width:0.25;"/>
<line x1="69.800000" y1="392.000000" x2="69.800000" y2="392.000000"  style="stroke:black; stroke-linecap:round; stroke-width:0.25;"/>
<line x1="69.800000" y1="360.000000" x2="77.800000" y2="360.000000"  style="stroke:black; stroke-linecap:round; stroke-width:0.25;"/>
<line x1="77.800000" y1="172.000000" x2="77.800000" y2="184.000000"  style="stroke:black; stroke-linecap:round; stroke-width:0.25;"/>
<line x1="77.800000" y1="184.000000" x2="77.800000" y2="184.000000"  style="stroke:black; stroke-linecap:round; stroke-width:0.25;"/>
<line x1="77.800000" y1="184.000000" x2="81.800000" y2="184.000000"  style="stroke:black; stroke-linecap:round; stroke-width:0.25;"/>
<line x1="77.800000" y1="192.000000" x2="81.800000" y2="192.000000"  style="stroke:black; stroke-linecap:round; stroke-width:0.25;"/>
<line x1="77.800000" y1="372.000000" x2="81.800000" y2="372.000000"  style="stroke:black; stroke-linecap:round; stroke-width:0.25;"/>
<line x1="77.800000" y1="380.000000" x2="81.800000" y2="380.000000"  style="stroke:black; stroke-linecap:round; stroke-width:0.25;"/>
<line x1="77.800000" y1="360.000000" x2="77.800000" y2="372.000000"  style="stroke:black; stroke-linecap:round; stroke-width:0.25;"/>
<line x1="77.800000" y1="372.000000" x2="77.800000" y2="372.000000"  style="stroke:black; stroke-linecap:round; stroke-width:0.25;"/>
<line x1="84.900000" y1="328.000000" x2="88.900000" y2="328.000000"  style="stroke:black; stroke-linecap:round; stroke-width:0.25;"/>
<line x1="85.800000" y1="140.000000" x2="89.800000" y2="140.000000"  style="stroke:black; stroke-linecap:round; stroke-width:0.25;"/>
<line x1="88.900000" y1="328.000000" x2="109.800000" y2="328.000000"  style="stroke:black; stroke-linecap:round; stroke-width:0.25;"/>
<line x1="89.800000" y1="140.000000" x2="109.800000" y2="140.000000"  style="stroke:black; stroke-linecap:round; stroke-width:0.25;"/>
<line x1="104.900000" y1="424.000000" x2="108.900000" y2="424.000000"  style="stroke:black; stroke-linecap:round; stroke-width:0.25;"/>
<line x1="105.800000" y1="188.000000" x2="109.800000" y2="188.000000"  style="stroke:black; stroke-linecap:round; stroke-width:0.25;"/>
<line x1="105.800000" y1="236.000000" x2="109.800000" y2="236.000000"  style="stroke:black; stroke-linecap:round; stroke-width:0.25;"/>
<line x1="105.800000" y1="376.000000" x2="109.800000" y2="376.000000"  style="stroke:black; stroke-linecap:round; stroke-width:0.25;"/>
<line x1="108.900000" y1="424.000000" x2="149.800000" y2="424.000000"  style="stroke:black; stroke-linecap:round; stroke-width:0.25;"/>
<line x1="109.800000" y1="140.000000" x2="117.800000" y2="140.000000"  style="stroke:black; stroke-linecap:round; stroke-width:0.25;"/>
<line x1="109.800000" y1="176.000000" x2="117.800000" y2="176.000000"  style="stroke:black; stroke-linecap:round; stroke-width:0.25;"/>
<line x1="109.800000" y1="188.000000" x2="109.800000" y2="176.000000"  style="stroke:black; stroke-linecap:round; stroke-width:0.25;"/>
<line x1="109.800000" y1="188.000000" x2="109.800000" y2="188.000000"  style="stroke:black; stroke-linecap:round; stroke-width:0.25;"/>
<line x1="109.800000" y1="236.000000" x2="149.800000" y2="236.000000"  style="stroke:black; stroke-linecap:round; stroke-width:0.25;"/>
<line x1="109.800000" y1="364.000000" x2="117.800000" y2="364.000000"  style="stroke:black; stroke-linecap:round; stroke-width:0.25;"/>
<line x1="109.800000" y1="376.000000" x2="109.800000" y2="364.000000"  style="stroke:black; stroke-linecap:round; stroke-width:0.25;"/>
<line x1="109.800000" y1="376.000000" x2="109.800000" y2="376.000000"  style="stroke:black; stroke-linecap:round; stroke-width:0.25;"/>
<line x1="109.800000" y1="328.000000" x2="117.800000" y2="328.000000"  style="stroke:black; stroke-linecap:round; stroke-width:0.25;"/>
<line x1="117.800000" y1="140.000000" x2="117.800000" y2="168.000000"  style="stroke:black; stroke-linecap:round; stroke-width:0.25;"/>
<line x1="117.800000" y1="168.000000" x2="117.800000" y2="168.000000"  style="stroke:black; stroke-linecap:round; stroke-width:0.25;"/>
<line x1="117.800000" y1="168.000000" x2="121.800000" y2="168.000000"  style="stroke:black; stroke-linecap:round; stroke-width:0.25;"/>
<line x1="117.800000" y1="176.000000" x2="121.800000" y2="176.000000"  style="stroke:black; stroke-linecap:round; stroke-width:0.25;"/>
<line x1="117.800000" y1="356.000000" x2="121.800000" y2="356.000000"  style="stroke:black; stroke-linecap:round; stroke-width:0.25;"/>
<line x1="117.800000" y1="364.000000" x2="121.800000" y2="364.000000"  style="stroke:black; stroke-linecap:round; stroke-width:0.25;"/>
<line x1="117.800000" y1="328.000000" x2="117.800000" y2="356.000000"  style="stroke:black; stroke-linecap:round; stroke-width:0.25;"/>
<line x1="117.800000" y1="356.000000" x2="117.800000" y2="356.000000"  style="stroke:black; stroke-linecap:round; stroke-width:0.25;"/>
<line x1="124.900000" y1="108.000000" x2="128.900000" y2="108.000000"  style="stroke:black; stroke-linecap:round; stroke-width:0.25;"/>
<line x1="124.900000" y1="286.000000" x2="128.900000" y2="286.000000"  style="stroke:black; stroke-linecap:round; stroke-width:0.25;"/>
<line x1="128.900000" y1="108.000000" x2="189.800000" y2="108.000000"  style="stroke:black; stroke-linecap:round; stroke-width:0.25;"/>
<line x1="128.900000" y1="286.000000" x2="138.900000" y2="286.000000"  style="stroke:black; stroke-linecap:round; stroke-width:0.25;"/>
<line x1="132.900000" y1="88.000000" x2="229.800000" y2="88.000000"  style="stroke:black; stroke-linecap:round; stroke-width:0.25;"/>
<line x1="132.900000" y1="256.000000" x2="229.800000" y2="256.000000"  style="stroke:black; stroke-linecap:round; stroke-width:0.25;"/>
<line x1="138.900000" y1="286.000000" x2="189.800000" y2="286.000000"  style="stroke:black; stroke-linecap:round; stroke-width:0.25;"/>
<line x1="144.900000" y1="68.000000" x2="148.900000" y2="68.000000"  style="stroke:black; stroke-linecap:round; stroke-width:0.25;"/>
<line x1="145.800000" y1="36.000000" x2="149.800000" y2="36.000000"  style="stroke:black; stroke-linecap:round; stroke-width:0.25;"/>
<line x1="145.800000" y1="172.000000" x2="149.800000" y2="172.000000"  style="stroke:black; stroke-linecap:round; stroke-width:0.25;"/>
<line x1="145.800000" y1="360.000000" x2="149.800000" y2="360.000000"  style="stroke:black; stroke-linecap:round; stroke-width:0.25;"/>
<line x1="148.900000" y1="68.000000" x2="149.800000" y2="68.000000"  style="stroke:black; stroke-linecap:round; stroke-width:0.25;"/>
<line x1="149.800000" y1="36.000000" x2="157.800000" y2="36.000000"  style="stroke:black; stroke-linecap:round; stroke-width:0.25;"/>
<line x1="149.800000" y1="56.000000" x2="157.800000" y2="56.000000"  style="stroke:black; stroke-linecap:round; stroke-width:0.25;"/>
<line x1="149.800000" y1="68.000000" x2="149.800000" y2="56.000000"  style="stroke:black; stroke-linecap:round; stroke-width:0.25;"/>
<line x1="149.800000" y1="68.000000" x2="149.800000" y2="68.000000"  style="stroke:black; stroke-linecap:round; stroke-width:0.25;"/>
<line x1="149.800000" y1="172.000000" x2="157.800000" y2="172.000000"  style="stroke:black; stroke-linecap:round; stroke-width:0.25;"/>
<line x1="149.800000" y1="192.000000" x2="157.800000" y2="192.000000"  style="stroke:black; stroke-linecap:round; stroke-width:0.25;"/>
<line x1="149.800000" y1="236.000000" x2="149.800000" y2="192.000000"  style="stroke:black; stroke-linecap:round; stroke-width:0.25;"/>
<line x1="149.800000" y1="236.000000" x2="149.800000" y2="236.000000"  style="stroke:black; stroke-linecap:round; stroke-width:0.25;"/>
<line x1="149.800000" y1="360.000000" x2="157.800000" y2="360.000000"  style="stroke:black; stroke-linecap:round; stroke-width:0.25;"/>
<line x1="149.800000" y1="380.000000" x2="157.800000" y2="380.000000"  style="stroke:black; stroke-linecap:round; stroke-width:0.25;"/>
<line x1="149.800000" y1="424.000000" x2="149.800000" y2="380.000000"  style="stroke:black; stroke-linecap:round; stroke-width:0.25;"/>
<line x1="149.800000" y1="424.000000" x2="149.800000" y2="424.000000"  style="stroke:black; stroke-linecap:round; stroke-width:0.25;"/>
<line x1="157.800000" y1="36.000000" x2="157.800000" y2="48.000000"  style="stroke:black; stroke-linecap:round; stroke-width:0.25;"/>
<line x1="157.800000" y1="48.000000" x2="157.800000" y2="48.000000"  style="stroke:black; stroke-linecap:round; stroke-width:0.25;"/>
<line x1="157.800000" y1="48.000000" x2="161.800000" y2="48.000000"  style="stroke:black; stroke-linecap:round; stroke-width:0.25;"/>
<line x1="157.800000" y1="56.000000" x2="161.800000" y2="56.000000"  style="stroke:black; stroke-linecap:round; stroke-width:0.25;"/>
<line x1="157.800000" y1="172.000000" x2="157.800000" y2="184.000000"  style="stroke:black; stroke-linecap:round; stroke-width:0.25;"/>
<line x1="157.800000" y1="184.000000" x2="157.800000" y2="184.000000"  style="stroke:black; stroke-linecap:round; stroke-width:0.25;"/>
<line x1="157.800000" y1="184.000000" x2="161.800000" y2="184.000000"  style="stroke:black; stroke-linecap:round; stroke-width:0.25;"/>
<line x1="157.800000" y1="192.000000" x2="161.800000" y2="192.000000"  style="stroke:black; stroke-linecap:round; stroke-width:0.25;"/>
<line x1="157.800000" y1="360.000000" x2="157.800000" y2="372.000000"  style="stroke:black; stroke-linecap:round; stroke-width:0.25;"/>
<line x1="157.800000" y1="372.000000" x2="157.800000" y2="372.000000"  style="stroke:black; stroke-linecap:round; stroke-width:0.25;"/>
<line x1="157.800000" y1="372.000000" x2="161.800000" y2="372.000000"  style="stroke:black; stroke-linecap:round; stroke-width:0.25;"/>
<line x1="157.800000" y1="380.000000" x2="161.800000" y2="380.000000"  style="stroke:black; stroke-linecap:round; stroke-width:0.25;"/>
<line x1="185.800000" y1="52.000000" x2="189.800000" y2="52.000000"  style="stroke:black; stroke-linecap:round; stroke-width:0.25;"/>
<line x1="185.800000" y1="188.000000" x2="189.800000" y2="188.000000"  style="stroke:black; stroke-linecap:round; stroke-width:0.25;"/>
<line x1="185.800000" y1="376.000000" x2="189.800000" y2="376.000000"  style="stroke:black; stroke-linecap:round; stroke-width:0.25;"/>
<line x1="189.800000" y1="52.000000" x2="269.800000" y2="52.000000"  style="stroke:black; stroke-linecap:round; stroke-width:0.25;"/>
<line x1="189.800000" y1="108.000000" x2="197.800000" y2="108.000000"  style="stroke:black; stroke-linecap:round; stroke-width:0.25;"/>
<line x1="189.800000" y1="176.000000" x2="197.800000" y2="176.000000"  style="stroke:black; stroke-linecap:round; stroke-width:0.25;"/>
<line x1="189.800000" y1="188.000000" x2="189.800000" y2="176.000000"  style="stroke:black; stroke-linecap:round; stroke-width:0.25;"/>
<line x1="189.800000" y1="188.000000" x2="189.800000" y2="188.000000"  style="stroke:black; stroke-linecap:round; stroke-width:0.25;"/>
<line x1="189.800000" y1="286.000000" x2="197.800000" y2="286.000000"  style="stroke:black; stroke-linecap:round; stroke-width:0.25;"/>
<line x1="189.800000" y1="354.000000" x2="197.800000" y2="354.000000"  style="stroke:black; stroke-linecap:round; stroke-width:0.25;"/>
<line x1="189.800000" y1="376.000000" x2="189.800000" y2="354.000000"  style="stroke:black; stroke-linecap:round; stroke-width:0.25;"/>
<line x1="189.800000" y1="376.000000" x2="189.800000" y2="376.000000"  style="stroke:black; stroke-linecap:round; stroke-width:0.25;"/>
<line x1="197.800000" y1="108.000000" x2="197.800000" y2="168.000000"  style="stroke:black; stroke-linecap:round; stroke-width:0.25;"/>
<line x1="197.800000" y1="168.000000" x2="197.800000" y2="168.000000"  style="stroke:black; stroke-linecap:round; stroke-width:0.25;"/>
<line x1="197.800000" y1="168.000000" x2="201.800000" y2="168.000000"  style="stroke:black; stroke-linecap:round; stroke-width:0.25;"/>
<line x1="197.800000" y1="176.000000" x2="201.800000" y2="176.000000"  style="stroke:black; stroke-linecap:round; stroke-width:0.25;"/>
<line x1="197.800000" y1="286.000000" x2="197.800000" y2="346.000000"  style="stroke:black; stroke-linecap:round; stroke-width:0.25;"/>
<line x1="197.800000" y1="346.000000" x2="197.800000" y2="346.000000"  style="stroke:black; stroke-linecap:round; stroke-width:0.25;"/>
<line x1="197.800000" y1="346.000000" x2="201.800000" y2="346.000000"  style="stroke:black; stroke-linecap:round; stroke-width:0.25;"/>
<line x1="197.800000" y1="354.000000" x2="201.800000" y2="354.000000"  style="stroke:black; stroke-linecap:round; stroke-width:0.25;"/>
<line x1="225.800000" y1="172.000000" x2="229.800000" y2="172.000000"  style="stroke:black; stroke-linecap:round; stroke-width:0.25;"/>
<line x1="225.800000" y1="350.000000" x2="229.800000" y2="350.000000"  style="stroke:black; stroke-linecap:round; stroke-width:0.25;"/>
<line x1="229.800000" y1="88.000000" x2="237.800000" y2="88.000000"  style="stroke:black; stroke-linecap:round; stroke-width:0.25;"/>
<line x1="229.800000" y1="172.000000" x2="237.800000" y2="172.000000"  style="stroke:black; stroke-linecap:round; stroke-width:0.25;"/>
<line x1="229.800000" y1="256.000000" x2="237.800000" y2="256.000000"  style="stroke:black; stroke-linecap:round; stroke-width:0.25;"/>
<line x1="229.800000" y1="350.000000" x2="237.800000" y2="350.000000"  style="stroke:black; stroke-linecap:round; stroke-width:0.25;"/>
<line x1="237.800000" y1="88.000000" x2="237.800000" y2="164.000000"  style="stroke:black; stroke-linecap:round; stroke-width:0.25;"/>
<line x1="237.800000" y1="164.000000" x2="237.800000" y2="164.000000"  style="stroke:black; stroke-linecap:round; stroke-width:0.25;"/>
<line x1="237.800000" y1="164.000000" x2="241.800000" y2="164.000000"  style="stroke:black; stroke-linecap:round; stroke-width:0.25;"/>
<line x1="237.800000" y1="172.000000" x2="241.800000" y2="172.000000"  style="stroke:black; stroke-linecap:round; stroke-width:0.25;"/>
<line x1="237.800000" y1="256.000000" x2="237.800000" y2="342.000000"  style="stroke:black; stroke-linecap:round; stroke-width:0.25;"/>
<line x1="237.800000" y1="342.000000" x2="237.800000" y2="342.000000"  style="stroke:black; stroke-linecap:round; stroke-width:0.25;"/>
<line x1="237.800000" y1="342.000000" x2="241.800000" y2="342.000000"  style="stroke:black; stroke-linecap:round; stroke-width:0.25;"/>
<line x1="237.800000" y1="350.000000" x2="241.800000" y2="350.000000"  style="stroke:black; stroke-linecap:round; stroke-width:0.25;"/>
<line x1="265.800000" y1="168.000000" x2="269.800000" y2="168.000000"  style="stroke:black; stroke-linecap:round; stroke-width:0.25;"/>
<line x1="265.800000" y1="346.000000" x2="269.800000" y2="346.000000"  style="stroke:black; stroke-linecap:round; stroke-width:0.25;"/>
<line x1="269.800000" y1="52.000000" x2="285.800000" y2="52.000000"  style="stroke:black; stroke-linecap:round; stroke-width:0.25;"/>
<line x1="269.800000" y1="168.000000" x2="277.800000" y2="168.000000"  style="stroke:black; stroke-linecap:round; stroke-width:0.25;"/>
<line x1="269.800000" y1="238.000000" x2="285.800000" y2="238.000000"  style="stroke:black; stroke-linecap:round; stroke-width:0.25;"/>
<line x1="269.800000" y1="346.000000" x2="269.800000" y2="238.000000"  style="stroke:black; stroke-linecap:round; stroke-width:0.25;"/>
<line x1="269.800000" y1="346.000000" x2="269.800000" y2="346.000000"  style="stroke:black; stroke-linecap:round; stroke-width:0.25;"/>
<line x1="277.800000" y1="168.000000" x2="277.800000" y2="230.000000"  style="stroke:black; stroke-linecap:round; stroke-width:0.25;"/>
<line x1="277.800000" y1="230.000000" x2="285.800000" y2="230.000000"  style="stroke:black; stroke-linecap:round; stroke-width:0.25;"/>
<line x1="285.800000" y1="52.000000" x2="285.800000" y2="222.000000"  style="stroke:black; stroke-linecap:round; stroke-width:0.25;"/>
<line x1="285.800000" y1="222.000000" x2="285.800000" y2="222.000000"  style="stroke:black; stroke-linecap:round; stroke-width:0.25;"/>
<line x1="285.800000" y1="222.000000" x2="289.800000" y2="222.000000"  style="stroke:black; stroke-linecap:round; stroke-width:0.25;"/>
<line x1="285.800000" y1="230.000000" x2="289.800000" y2="230.000000"  style="stroke:black; stroke-linecap:round; stroke-width:0.25;"/>
<line x1="285.800000" y1="238.000000" x2="289.800000" y2="238.000000"  style="stroke:black; stroke-linecap:round; stroke-width:0.25;"/>
<line x1="328.500000" y1="230.000000" x2="332.500000" y2="230.000000"  style="stroke:black; stroke-linecap:round; stroke-width:0.25;"/>
<line x1="332.500000" y1="230.000000" x2="332.500000" y2="230.000000"  style="stroke:black; stroke-linecap:round; stroke-width:0.25;"/>
<line x1="332.500000" y1="230.000000" x2="336.500000" y2="230.000000"  style="stroke:black; stroke-linecap:round; stroke-width:0.25;"/>
<line x1="336.500000" y1="230.000000" x2="340.500000" y2="230.000000"  style="stroke:black; stroke-linecap:round; stroke-width:0.25;"/>
<line x1="340.500000" y1="230.000000" x2="350.500000" y2="230.000000"  style="stroke:black; stroke-linecap:round; stroke-width:0.25;"/>
</svg>
