<?xml version="1.0"?>
<svg xmlns="http://www.w3.org/2000/svg" xmlns:xlink="http://www.w3.org/1999/xlink" viewBox="0 0 358.400000 156.000000" width="179.200000mm" height="78.000000mm" version="1.1">
<a xlink:href="formantFilter-0x7f9fc333bfb0.svg">
<rect x="1.000000" y="1.000000" width="357.400000" height="155.000000" rx="0" ry="0" style="stroke:none;fill:#cccccc;"/>
<rect x="0.000000" y="0.000000" width="357.400000" height="155.000000" rx="0" ry="0" style="stroke:none;fill:#ffffff;"/>
</a>
<text x="10.000000" y="7.000000" font-family="Arial" font-size="7"></text>
<rect x="33.000000" y="67.000000" width="24.000000" height="24.000000" rx="0" ry="0" style="stroke:none;fill:#cccccc;"/>
<rect x="32.000000" y="66.000000" width="24.000000" height="24.000000" rx="0" ry="0" style="stroke:none;fill:#47945E;"/>
<text x="44.000000" y="80.000000" font-family="Arial" font-size="7" text-anchor="middle" fill="#FFFFFF">c</text>
<circle cx="34.000000" cy="68.000000" r="1"/>
<line x1="29.000000" y1="77.000000" x2="32.000000" y2="78.000000"  transform="rotate(0.000000,32.000000,78.000000)" style="stroke: black; stroke-width:0.25;"/>
<line x1="29.000000" y1="79.000000" x2="32.000000" y2="78.000000"  transform="rotate(0.000000,32.000000,78.000000)" style="stroke: black; stroke-width:0.25;"/>
<rect x="151.950000" y="35.000000" width="25.800000" height="24.000000" rx="0" ry="0" style="stroke:none;fill:#cccccc;"/>
<rect x="150.950000" y="34.000000" width="25.800000" height="24.000000" rx="0" ry="0" style="stroke:none;fill:#f44800;"/>
<text x="163.850000" y="48.000000" font-family="Arial" font-size="7" text-anchor="middle" fill="#FFFFFF">65536</text>
<circle cx="152.950000" cy="36.000000" r="1"/>
<line x1="141.950000" y1="25.000000" x2="141.950000" y2="67.000000"  style="stroke: black; stroke-linecap:round; stroke-width:0.25; stroke-dasharray:3,3;"/>
<line x1="141.950000" y1="67.000000" x2="185.750000" y2="67.000000"  style="stroke: black; stroke-linecap:round; stroke-width:0.25; stroke-dasharray:3,3;"/>
<line x1="185.750000" y1="67.000000" x2="185.750000" y2="25.000000"  style="stroke: black; stroke-linecap:round; stroke-width:0.25; stroke-dasharray:3,3;"/>
<line x1="141.950000" y1="25.000000" x2="146.950000" y2="25.000000"  style="stroke: black; stroke-linecap:round; stroke-width:0.25; stroke-dasharray:3,3;"/>
<line x1="182.425000" y1="25.000000" x2="185.750000" y2="25.000000"  style="stroke: black; stroke-linecap:round; stroke-width:0.25; stroke-dasharray:3,3;"/>
<text x="146.950000" y="27.000000" font-family="Arial" font-size="7">tablesize</text>
<a xlink:href="sinwaveform-0x7f9fca0bae40.svg">
<rect x="126.150000" y="77.000000" width="77.400000" height="24.000000" rx="0" ry="0" style="stroke:none;fill:#cccccc;"/>
<rect x="125.150000" y="76.000000" width="77.400000" height="24.000000" rx="0" ry="0" style="stroke:none;fill:#003366;"/>
</a>
<a xlink:href="sinwaveform-0x7f9fca0bae40.svg">
<text x="163.850000" y="90.000000" font-family="Arial" font-size="7" text-anchor="middle" fill="#FFFFFF">sinwaveform(65536)</text>
</a>
<circle cx="127.150000" cy="78.000000" r="1"/>
<a xlink:href="hs-0x7f9fc363cc40.svg">
<rect x="65.000000" y="109.000000" width="167.700000" height="24.000000" rx="0" ry="0" style="stroke:none;fill:#cccccc;"/>
<rect x="64.000000" y="108.000000" width="167.700000" height="24.000000" rx="0" ry="0" style="stroke:none;fill:#003366;"/>
</a>
<a xlink:href="hs-0x7f9fc363cc40.svg">
<text x="147.850000" y="122.000000" font-family="Arial" font-size="7" text-anchor="middle" fill="#FFFFFF">hs_phasor(655...nv = {}] : _)(x14135)</text>
</a>
<circle cx="66.000000" cy="110.000000" r="1"/>
<rect x="240.700000" y="109.000000" width="24.000000" height="24.000000" rx="0" ry="0" style="stroke:none;fill:#cccccc;"/>
<rect x="239.700000" y="108.000000" width="24.000000" height="24.000000" rx="0" ry="0" style="stroke:none;fill:#4B71A1;"/>
<text x="251.700000" y="122.000000" font-family="Arial" font-size="7" text-anchor="middle" fill="#FFFFFF">int</text>
<circle cx="241.700000" cy="110.000000" r="1"/>
<line x1="236.700000" y1="119.000000" x2="239.700000" y2="120.000000"  transform="rotate(0.000000,239.700000,120.000000)" style="stroke: black; stroke-width:0.25;"/>
<line x1="236.700000" y1="121.000000" x2="239.700000" y2="120.000000"  transform="rotate(0.000000,239.700000,120.000000)" style="stroke: black; stroke-width:0.25;"/>
<rect x="288.700000" y="67.000000" width="38.700000" height="24.000000" rx="0" ry="0" style="stroke:none;fill:#cccccc;"/>
<rect x="287.700000" y="66.000000" width="38.700000" height="24.000000" rx="0" ry="0" style="stroke:none;fill:#4B71A1;"/>
<text x="307.050000" y="80.000000" font-family="Arial" font-size="7" text-anchor="middle" fill="#FFFFFF">rdtable</text>
<circle cx="289.700000" cy="68.000000" r="1"/>
<line x1="284.700000" y1="69.000000" x2="287.700000" y2="70.000000"  transform="rotate(0.000000,287.700000,70.000000)" style="stroke: black; stroke-width:0.25;"/>
<line x1="284.700000" y1="71.000000" x2="287.700000" y2="70.000000"  transform="rotate(0.000000,287.700000,70.000000)" style="stroke: black; stroke-width:0.25;"/>
<line x1="284.700000" y1="77.000000" x2="287.700000" y2="78.000000"  transform="rotate(0.000000,287.700000,78.000000)" style="stroke: black; stroke-width:0.25;"/>
<line x1="284.700000" y1="79.000000" x2="287.700000" y2="78.000000"  transform="rotate(0.000000,287.700000,78.000000)" style="stroke: black; stroke-width:0.25;"/>
<line x1="284.700000" y1="85.000000" x2="287.700000" y2="86.000000"  transform="rotate(0.000000,287.700000,86.000000)" style="stroke: black; stroke-width:0.25;"/>
<line x1="284.700000" y1="87.000000" x2="287.700000" y2="86.000000"  transform="rotate(0.000000,287.700000,86.000000)" style="stroke: black; stroke-width:0.25;"/>
<line x1="15.000000" y1="15.000000" x2="15.000000" y2="141.000000"  style="stroke: black; stroke-linecap:round; stroke-width:0.25; stroke-dasharray:3,3;"/>
<line x1="15.000000" y1="141.000000" x2="343.400000" y2="141.000000"  style="stroke: black; stroke-linecap:round; stroke-width:0.25; stroke-dasharray:3,3;"/>
<line x1="343.400000" y1="141.000000" x2="343.400000" y2="15.000000"  style="stroke: black; stroke-linecap:round; stroke-width:0.25; stroke-dasharray:3,3;"/>
<line x1="15.000000" y1="15.000000" x2="20.000000" y2="15.000000"  style="stroke: black; stroke-linecap:round; stroke-width:0.25; stroke-dasharray:3,3;"/>
<line x1="29.675000" y1="15.000000" x2="343.400000" y2="15.000000"  style="stroke: black; stroke-linecap:round; stroke-width:0.25; stroke-dasharray:3,3;"/>
<text x="20.000000" y="17.000000" font-family="Arial" font-size="7">s</text>
<line x1="345.400000" y1="77.000000" x2="348.400000" y2="78.000000"  transform="rotate(0.000000,348.400000,78.000000)" style="stroke: black; stroke-width:0.25;"/>
<line x1="345.400000" y1="79.000000" x2="348.400000" y2="78.000000"  transform="rotate(0.000000,348.400000,78.000000)" style="stroke: black; stroke-width:0.25;"/>
<line x1="10.000000" y1="78.000000" x2="20.000000" y2="78.000000"  style="stroke:black; stroke-linecap:round; stroke-width:0.25;"/>
<line x1="20.000000" y1="78.000000" x2="24.000000" y2="78.000000"  style="stroke:black; stroke-linecap:round; stroke-width:0.25;"/>
<line x1="24.000000" y1="78.000000" x2="28.000000" y2="78.000000"  style="stroke:black; stroke-linecap:round; stroke-width:0.25;"/>
<line x1="28.000000" y1="78.000000" x2="28.000000" y2="78.000000"  style="stroke:black; stroke-linecap:round; stroke-width:0.25;"/>
<line x1="28.000000" y1="78.000000" x2="32.000000" y2="78.000000"  style="stroke:black; stroke-linecap:round; stroke-width:0.25;"/>
<line x1="176.750000" y1="46.000000" x2="180.750000" y2="46.000000"  style="stroke:black; stroke-linecap:round; stroke-width:0.25;"/>
<line x1="180.750000" y1="46.000000" x2="190.750000" y2="46.000000"  style="stroke:black; stroke-linecap:round; stroke-width:0.25;"/>
<line x1="190.750000" y1="46.000000" x2="267.700000" y2="46.000000"  style="stroke:black; stroke-linecap:round; stroke-width:0.25;"/>
<line x1="202.550000" y1="88.000000" x2="206.550000" y2="88.000000"  style="stroke:black; stroke-linecap:round; stroke-width:0.25;"/>
<line x1="206.550000" y1="88.000000" x2="267.700000" y2="88.000000"  style="stroke:black; stroke-linecap:round; stroke-width:0.25;"/>
<line x1="231.700000" y1="120.000000" x2="235.700000" y2="120.000000"  style="stroke:black; stroke-linecap:round; stroke-width:0.25;"/>
<line x1="235.700000" y1="120.000000" x2="235.700000" y2="120.000000"  style="stroke:black; stroke-linecap:round; stroke-width:0.25;"/>
<line x1="235.700000" y1="120.000000" x2="239.700000" y2="120.000000"  style="stroke:black; stroke-linecap:round; stroke-width:0.25;"/>
<line x1="263.700000" y1="120.000000" x2="267.700000" y2="120.000000"  style="stroke:black; stroke-linecap:round; stroke-width:0.25;"/>
<line x1="267.700000" y1="46.000000" x2="283.700000" y2="46.000000"  style="stroke:black; stroke-linecap:round; stroke-width:0.25;"/>
<line x1="267.700000" y1="78.000000" x2="283.700000" y2="78.000000"  style="stroke:black; stroke-linecap:round; stroke-width:0.25;"/>
<line x1="267.700000" y1="88.000000" x2="267.700000" y2="78.000000"  style="stroke:black; stroke-linecap:round; stroke-width:0.25;"/>
<line x1="267.700000" y1="88.000000" x2="267.700000" y2="88.000000"  style="stroke:black; stroke-linecap:round; stroke-width:0.25;"/>
<line x1="267.700000" y1="120.000000" x2="275.700000" y2="120.000000"  style="stroke:black; stroke-linecap:round; stroke-width:0.25;"/>
<line x1="275.700000" y1="86.000000" x2="283.700000" y2="86.000000"  style="stroke:black; stroke-linecap:round; stroke-width:0.25;"/>
<line x1="275.700000" y1="120.000000" x2="275.700000" y2="86.000000"  style="stroke:black; stroke-linecap:round; stroke-width:0.25;"/>
<line x1="283.700000" y1="46.000000" x2="283.700000" y2="70.000000"  style="stroke:black; stroke-linecap:round; stroke-width:0.25;"/>
<line x1="283.700000" y1="70.000000" x2="283.700000" y2="70.000000"  style="stroke:black; stroke-linecap:round; stroke-width:0.25;"/>
<line x1="283.700000" y1="70.000000" x2="287.700000" y2="70.000000"  style="stroke:black; stroke-linecap:round; stroke-width:0.25;"/>
<line x1="283.700000" y1="78.000000" x2="287.700000" y2="78.000000"  style="stroke:black; stroke-linecap:round; stroke-width:0.25;"/>
<line x1="283.700000" y1="86.000000" x2="287.700000" y2="86.000000"  style="stroke:black; stroke-linecap:round; stroke-width:0.25;"/>
<line x1="326.400000" y1="78.000000" x2="330.400000" y2="78.000000"  style="stroke:black; stroke-linecap:round; stroke-width:0.25;"/>
<line x1="330.400000" y1="78.000000" x2="330.400000" y2="78.000000"  style="stroke:black; stroke-linecap:round; stroke-width:0.25;"/>
<line x1="330.400000" y1="78.000000" x2="334.400000" y2="78.000000"  style="stroke:black; stroke-linecap:round; stroke-width:0.25;"/>
<line x1="334.400000" y1="78.000000" x2="338.400000" y2="78.000000"  style="stroke:black; stroke-linecap:round; stroke-width:0.25;"/>
<line x1="338.400000" y1="78.000000" x2="348.400000" y2="78.000000"  style="stroke:black; stroke-linecap:round; stroke-width:0.25;"/>
</svg>
