<?xml version="1.0"?>
<svg xmlns="http://www.w3.org/2000/svg" xmlns:xlink="http://www.w3.org/1999/xlink" viewBox="0 0 750.900000 544.000000" width="375.450000mm" height="272.000000mm" version="1.1">
<rect x="1.000000" y="1.000000" width="749.900000" height="543.000000" rx="0" ry="0" style="stroke:none;fill:#cccccc;"/>
<rect x="0.000000" y="0.000000" width="749.900000" height="543.000000" rx="0" ry="0" style="stroke:none;fill:#ffffff;"/>
<text x="10.000000" y="7.000000" font-family="Arial" font-size="7"></text>
<rect x="364.450000" y="467.000000" width="24.000000" height="24.000000" rx="0" ry="0" style="stroke:none;fill:#cccccc;"/>
<rect x="363.450000" y="466.000000" width="24.000000" height="24.000000" rx="0" ry="0" style="stroke:none;fill:#4B71A1;"/>
<text x="375.450000" y="480.000000" font-family="Arial" font-size="7" text-anchor="middle" fill="#FFFFFF">+</text>
<circle cx="365.450000" cy="468.000000" r="1"/>
<line x1="360.450000" y1="473.000000" x2="363.450000" y2="474.000000"  transform="rotate(0.000000,363.450000,474.000000)" style="stroke: black; stroke-width:0.25;"/>
<line x1="360.450000" y1="475.000000" x2="363.450000" y2="474.000000"  transform="rotate(0.000000,363.450000,474.000000)" style="stroke: black; stroke-width:0.25;"/>
<line x1="360.450000" y1="481.000000" x2="363.450000" y2="482.000000"  transform="rotate(0.000000,363.450000,482.000000)" style="stroke: black; stroke-width:0.25;"/>
<line x1="360.450000" y1="483.000000" x2="363.450000" y2="482.000000"  transform="rotate(0.000000,363.450000,482.000000)" style="stroke: black; stroke-width:0.25;"/>
<rect x="639.900000" y="277.000000" width="24.000000" height="24.000000" rx="0" ry="0" style="stroke:none;fill:#cccccc;"/>
<rect x="638.900000" y="276.000000" width="24.000000" height="24.000000" rx="0" ry="0" style="stroke:none;fill:#47945E;"/>
<text x="650.900000" y="290.000000" font-family="Arial" font-size="7" text-anchor="middle" fill="#FFFFFF">x</text>
<circle cx="660.900000" cy="298.000000" r="1"/>
<line x1="665.900000" y1="287.000000" x2="662.900000" y2="288.000000"  transform="rotate(0.000000,662.900000,288.000000)" style="stroke: black; stroke-width:0.25;"/>
<line x1="665.900000" y1="289.000000" x2="662.900000" y2="288.000000"  transform="rotate(0.000000,662.900000,288.000000)" style="stroke: black; stroke-width:0.25;"/>
<rect x="388.450000" y="425.000000" width="24.000000" height="24.000000" rx="0" ry="0" style="stroke:none;fill:#cccccc;"/>
<rect x="387.450000" y="424.000000" width="24.000000" height="24.000000" rx="0" ry="0" style="stroke:none;fill:#47945E;"/>
<text x="399.450000" y="438.000000" font-family="Arial" font-size="7" text-anchor="middle" fill="#FFFFFF">x</text>
<circle cx="409.450000" cy="446.000000" r="1"/>
<rect x="407.550000" y="393.000000" width="25.800000" height="24.000000" rx="0" ry="0" style="stroke:none;fill:#cccccc;"/>
<rect x="406.550000" y="392.000000" width="25.800000" height="24.000000" rx="0" ry="0" style="stroke:none;fill:#f44800;"/>
<text x="419.450000" y="406.000000" font-family="Arial" font-size="7" text-anchor="middle" fill="#FFFFFF">65536</text>
<circle cx="430.350000" cy="414.000000" r="1"/>
<rect x="428.450000" y="361.000000" width="24.000000" height="24.000000" rx="0" ry="0" style="stroke:none;fill:#cccccc;"/>
<rect x="427.450000" y="360.000000" width="24.000000" height="24.000000" rx="0" ry="0" style="stroke:none;fill:#f44800;"/>
<text x="439.450000" y="374.000000" font-family="Arial" font-size="7" text-anchor="middle" fill="#FFFFFF">0</text>
<circle cx="449.450000" cy="382.000000" r="1"/>
<rect x="361.000000" y="329.000000" width="270.900000" height="24.000000" rx="0" ry="0" style="stroke:none;fill:#cccccc;"/>
<rect x="360.000000" y="328.000000" width="270.900000" height="24.000000" rx="0" ry="0" style="stroke:none;fill:#477881;"/>
<text x="495.450000" y="342.000000" font-family="Arial" font-size="7" text-anchor="middle" fill="#FFFFFF">hslider(millisecond, 0.0f, 0.0f, 1000.0f, 0.10000000000000001f)</text>
<circle cx="628.900000" cy="350.000000" r="1"/>
<rect x="523.550000" y="277.000000" width="25.800000" height="24.000000" rx="0" ry="0" style="stroke:none;fill:#cccccc;"/>
<rect x="522.550000" y="276.000000" width="25.800000" height="24.000000" rx="0" ry="0" style="stroke:none;fill:#f44800;"/>
<text x="535.450000" y="290.000000" font-family="Arial" font-size="7" text-anchor="middle" fill="#FFFFFF">192000</text>
<circle cx="546.350000" cy="298.000000" r="1"/>
<rect x="544.450000" y="245.000000" width="24.000000" height="24.000000" rx="0" ry="0" style="stroke:none;fill:#cccccc;"/>
<rect x="543.450000" y="244.000000" width="24.000000" height="24.000000" rx="0" ry="0" style="stroke:none;fill:#f44800;"/>
<text x="555.450000" y="258.000000" font-family="Arial" font-size="7" text-anchor="middle" fill="#FFFFFF">1</text>
<circle cx="565.450000" cy="266.000000" r="1"/>
<rect x="524.200000" y="213.000000" width="64.500000" height="24.000000" rx="0" ry="0" style="stroke:none;fill:#cccccc;"/>
<rect x="523.200000" y="212.000000" width="64.500000" height="24.000000" rx="0" ry="0" style="stroke:none;fill:#4B71A1;"/>
<text x="555.450000" y="226.000000" font-family="Arial" font-size="7" text-anchor="middle" fill="#FFFFFF">fSamplingFreq</text>
<circle cx="585.700000" cy="234.000000" r="1"/>
<rect x="484.200000" y="229.000000" width="24.000000" height="24.000000" rx="0" ry="0" style="stroke:none;fill:#cccccc;"/>
<rect x="483.200000" y="228.000000" width="24.000000" height="24.000000" rx="0" ry="0" style="stroke:none;fill:#4B71A1;"/>
<text x="495.200000" y="242.000000" font-family="Arial" font-size="7" text-anchor="middle" fill="#FFFFFF">max</text>
<circle cx="505.200000" cy="250.000000" r="1"/>
<line x1="510.200000" y1="243.000000" x2="507.200000" y2="244.000000"  transform="rotate(0.000000,507.200000,244.000000)" style="stroke: black; stroke-width:0.25;"/>
<line x1="510.200000" y1="245.000000" x2="507.200000" y2="244.000000"  transform="rotate(0.000000,507.200000,244.000000)" style="stroke: black; stroke-width:0.25;"/>
<line x1="510.200000" y1="235.000000" x2="507.200000" y2="236.000000"  transform="rotate(0.000000,507.200000,236.000000)" style="stroke: black; stroke-width:0.25;"/>
<line x1="510.200000" y1="237.000000" x2="507.200000" y2="236.000000"  transform="rotate(0.000000,507.200000,236.000000)" style="stroke: black; stroke-width:0.25;"/>
<rect x="444.200000" y="245.000000" width="24.000000" height="24.000000" rx="0" ry="0" style="stroke:none;fill:#cccccc;"/>
<rect x="443.200000" y="244.000000" width="24.000000" height="24.000000" rx="0" ry="0" style="stroke:none;fill:#4B71A1;"/>
<text x="455.200000" y="258.000000" font-family="Arial" font-size="7" text-anchor="middle" fill="#FFFFFF">min</text>
<circle cx="465.200000" cy="266.000000" r="1"/>
<line x1="470.200000" y1="259.000000" x2="467.200000" y2="260.000000"  transform="rotate(0.000000,467.200000,260.000000)" style="stroke: black; stroke-width:0.25;"/>
<line x1="470.200000" y1="261.000000" x2="467.200000" y2="260.000000"  transform="rotate(0.000000,467.200000,260.000000)" style="stroke: black; stroke-width:0.25;"/>
<line x1="470.200000" y1="251.000000" x2="467.200000" y2="252.000000"  transform="rotate(0.000000,467.200000,252.000000)" style="stroke: black; stroke-width:0.25;"/>
<line x1="470.200000" y1="253.000000" x2="467.200000" y2="252.000000"  transform="rotate(0.000000,467.200000,252.000000)" style="stroke: black; stroke-width:0.25;"/>
<line x1="434.200000" y1="203.000000" x2="434.200000" y2="309.000000"  style="stroke: black; stroke-linecap:round; stroke-width:0.25; stroke-dasharray:3,3;"/>
<line x1="434.200000" y1="309.000000" x2="596.700000" y2="309.000000"  style="stroke: black; stroke-linecap:round; stroke-width:0.25; stroke-dasharray:3,3;"/>
<line x1="596.700000" y1="309.000000" x2="596.700000" y2="203.000000"  style="stroke: black; stroke-linecap:round; stroke-width:0.25; stroke-dasharray:3,3;"/>
<line x1="434.200000" y1="203.000000" x2="439.200000" y2="203.000000"  style="stroke: black; stroke-linecap:round; stroke-width:0.25; stroke-dasharray:3,3;"/>
<line x1="452.100000" y1="203.000000" x2="596.700000" y2="203.000000"  style="stroke: black; stroke-linecap:round; stroke-width:0.25; stroke-dasharray:3,3;"/>
<text x="439.200000" y="205.000000" font-family="Arial" font-size="7">SR</text>
<rect x="503.550000" y="171.000000" width="25.800000" height="24.000000" rx="0" ry="0" style="stroke:none;fill:#cccccc;"/>
<rect x="502.550000" y="170.000000" width="25.800000" height="24.000000" rx="0" ry="0" style="stroke:none;fill:#f44800;"/>
<text x="515.450000" y="184.000000" font-family="Arial" font-size="7" text-anchor="middle" fill="#FFFFFF">1000</text>
<circle cx="526.350000" cy="192.000000" r="1"/>
<rect x="394.200000" y="229.000000" width="24.000000" height="24.000000" rx="0" ry="0" style="stroke:none;fill:#cccccc;"/>
<rect x="393.200000" y="228.000000" width="24.000000" height="24.000000" rx="0" ry="0" style="stroke:none;fill:#4B71A1;"/>
<text x="405.200000" y="242.000000" font-family="Arial" font-size="7" text-anchor="middle" fill="#FFFFFF">/</text>
<circle cx="415.200000" cy="250.000000" r="1"/>
<line x1="420.200000" y1="243.000000" x2="417.200000" y2="244.000000"  transform="rotate(0.000000,417.200000,244.000000)" style="stroke: black; stroke-width:0.25;"/>
<line x1="420.200000" y1="245.000000" x2="417.200000" y2="244.000000"  transform="rotate(0.000000,417.200000,244.000000)" style="stroke: black; stroke-width:0.25;"/>
<line x1="420.200000" y1="235.000000" x2="417.200000" y2="236.000000"  transform="rotate(0.000000,417.200000,236.000000)" style="stroke: black; stroke-width:0.25;"/>
<line x1="420.200000" y1="237.000000" x2="417.200000" y2="236.000000"  transform="rotate(0.000000,417.200000,236.000000)" style="stroke: black; stroke-width:0.25;"/>
<line x1="384.200000" y1="161.000000" x2="384.200000" y2="319.000000"  style="stroke: black; stroke-linecap:round; stroke-width:0.25; stroke-dasharray:3,3;"/>
<line x1="384.200000" y1="319.000000" x2="606.700000" y2="319.000000"  style="stroke: black; stroke-linecap:round; stroke-width:0.25; stroke-dasharray:3,3;"/>
<line x1="606.700000" y1="319.000000" x2="606.700000" y2="161.000000"  style="stroke: black; stroke-linecap:round; stroke-width:0.25; stroke-dasharray:3,3;"/>
<line x1="384.200000" y1="161.000000" x2="389.200000" y2="161.000000"  style="stroke: black; stroke-linecap:round; stroke-width:0.25; stroke-dasharray:3,3;"/>
<line x1="421.450000" y1="161.000000" x2="606.700000" y2="161.000000"  style="stroke: black; stroke-linecap:round; stroke-width:0.25; stroke-dasharray:3,3;"/>
<text x="389.200000" y="163.000000" font-family="Arial" font-size="7">millisec</text>
<rect x="321.000000" y="245.000000" width="24.000000" height="24.000000" rx="0" ry="0" style="stroke:none;fill:#cccccc;"/>
<rect x="320.000000" y="244.000000" width="24.000000" height="24.000000" rx="0" ry="0" style="stroke:none;fill:#4B71A1;"/>
<text x="332.000000" y="258.000000" font-family="Arial" font-size="7" text-anchor="middle" fill="#FFFFFF">*</text>
<circle cx="342.000000" cy="266.000000" r="1"/>
<line x1="347.000000" y1="259.000000" x2="344.000000" y2="260.000000"  transform="rotate(0.000000,344.000000,260.000000)" style="stroke: black; stroke-width:0.25;"/>
<line x1="347.000000" y1="261.000000" x2="344.000000" y2="260.000000"  transform="rotate(0.000000,344.000000,260.000000)" style="stroke: black; stroke-width:0.25;"/>
<line x1="347.000000" y1="251.000000" x2="344.000000" y2="252.000000"  transform="rotate(0.000000,344.000000,252.000000)" style="stroke: black; stroke-width:0.25;"/>
<line x1="347.000000" y1="253.000000" x2="344.000000" y2="252.000000"  transform="rotate(0.000000,344.000000,252.000000)" style="stroke: black; stroke-width:0.25;"/>
<rect x="289.000000" y="245.000000" width="24.000000" height="24.000000" rx="0" ry="0" style="stroke:none;fill:#cccccc;"/>
<rect x="288.000000" y="244.000000" width="24.000000" height="24.000000" rx="0" ry="0" style="stroke:none;fill:#4B71A1;"/>
<text x="300.000000" y="258.000000" font-family="Arial" font-size="7" text-anchor="middle" fill="#FFFFFF">int</text>
<circle cx="310.000000" cy="266.000000" r="1"/>
<line x1="315.000000" y1="255.000000" x2="312.000000" y2="256.000000"  transform="rotate(0.000000,312.000000,256.000000)" style="stroke: black; stroke-width:0.25;"/>
<line x1="315.000000" y1="257.000000" x2="312.000000" y2="256.000000"  transform="rotate(0.000000,312.000000,256.000000)" style="stroke: black; stroke-width:0.25;"/>
<rect x="448.450000" y="129.000000" width="24.000000" height="24.000000" rx="0" ry="0" style="stroke:none;fill:#cccccc;"/>
<rect x="447.450000" y="128.000000" width="24.000000" height="24.000000" rx="0" ry="0" style="stroke:none;fill:#f44800;"/>
<text x="459.450000" y="142.000000" font-family="Arial" font-size="7" text-anchor="middle" fill="#FFFFFF">1</text>
<circle cx="469.450000" cy="150.000000" r="1"/>
<rect x="249.000000" y="229.000000" width="24.000000" height="24.000000" rx="0" ry="0" style="stroke:none;fill:#cccccc;"/>
<rect x="248.000000" y="228.000000" width="24.000000" height="24.000000" rx="0" ry="0" style="stroke:none;fill:#4B71A1;"/>
<text x="260.000000" y="242.000000" font-family="Arial" font-size="7" text-anchor="middle" fill="#FFFFFF">-</text>
<circle cx="270.000000" cy="250.000000" r="1"/>
<line x1="275.000000" y1="243.000000" x2="272.000000" y2="244.000000"  transform="rotate(0.000000,272.000000,244.000000)" style="stroke: black; stroke-width:0.25;"/>
<line x1="275.000000" y1="245.000000" x2="272.000000" y2="244.000000"  transform="rotate(0.000000,272.000000,244.000000)" style="stroke: black; stroke-width:0.25;"/>
<line x1="275.000000" y1="235.000000" x2="272.000000" y2="236.000000"  transform="rotate(0.000000,272.000000,236.000000)" style="stroke: black; stroke-width:0.25;"/>
<line x1="275.000000" y1="237.000000" x2="272.000000" y2="236.000000"  transform="rotate(0.000000,272.000000,236.000000)" style="stroke: black; stroke-width:0.25;"/>
<rect x="209.000000" y="245.000000" width="24.000000" height="24.000000" rx="0" ry="0" style="stroke:none;fill:#cccccc;"/>
<rect x="208.000000" y="244.000000" width="24.000000" height="24.000000" rx="0" ry="0" style="stroke:none;fill:#4B71A1;"/>
<text x="220.000000" y="258.000000" font-family="Arial" font-size="7" text-anchor="middle" fill="#FFFFFF">max</text>
<circle cx="230.000000" cy="266.000000" r="1"/>
<line x1="235.000000" y1="259.000000" x2="232.000000" y2="260.000000"  transform="rotate(0.000000,232.000000,260.000000)" style="stroke: black; stroke-width:0.25;"/>
<line x1="235.000000" y1="261.000000" x2="232.000000" y2="260.000000"  transform="rotate(0.000000,232.000000,260.000000)" style="stroke: black; stroke-width:0.25;"/>
<line x1="235.000000" y1="251.000000" x2="232.000000" y2="252.000000"  transform="rotate(0.000000,232.000000,252.000000)" style="stroke: black; stroke-width:0.25;"/>
<line x1="235.000000" y1="253.000000" x2="232.000000" y2="252.000000"  transform="rotate(0.000000,232.000000,252.000000)" style="stroke: black; stroke-width:0.25;"/>
<rect x="169.000000" y="261.000000" width="24.000000" height="24.000000" rx="0" ry="0" style="stroke:none;fill:#cccccc;"/>
<rect x="168.000000" y="260.000000" width="24.000000" height="24.000000" rx="0" ry="0" style="stroke:none;fill:#4B71A1;"/>
<text x="180.000000" y="274.000000" font-family="Arial" font-size="7" text-anchor="middle" fill="#FFFFFF">min</text>
<circle cx="190.000000" cy="282.000000" r="1"/>
<line x1="195.000000" y1="275.000000" x2="192.000000" y2="276.000000"  transform="rotate(0.000000,192.000000,276.000000)" style="stroke: black; stroke-width:0.25;"/>
<line x1="195.000000" y1="277.000000" x2="192.000000" y2="276.000000"  transform="rotate(0.000000,192.000000,276.000000)" style="stroke: black; stroke-width:0.25;"/>
<line x1="195.000000" y1="267.000000" x2="192.000000" y2="268.000000"  transform="rotate(0.000000,192.000000,268.000000)" style="stroke: black; stroke-width:0.25;"/>
<line x1="195.000000" y1="269.000000" x2="192.000000" y2="268.000000"  transform="rotate(0.000000,192.000000,268.000000)" style="stroke: black; stroke-width:0.25;"/>
<rect x="129.000000" y="277.000000" width="24.000000" height="24.000000" rx="0" ry="0" style="stroke:none;fill:#cccccc;"/>
<rect x="128.000000" y="276.000000" width="24.000000" height="24.000000" rx="0" ry="0" style="stroke:none;fill:#4B71A1;"/>
<text x="140.000000" y="290.000000" font-family="Arial" font-size="7" text-anchor="middle" fill="#FFFFFF">@</text>
<circle cx="150.000000" cy="298.000000" r="1"/>
<line x1="155.000000" y1="291.000000" x2="152.000000" y2="292.000000"  transform="rotate(0.000000,152.000000,292.000000)" style="stroke: black; stroke-width:0.25;"/>
<line x1="155.000000" y1="293.000000" x2="152.000000" y2="292.000000"  transform="rotate(0.000000,152.000000,292.000000)" style="stroke: black; stroke-width:0.25;"/>
<line x1="155.000000" y1="283.000000" x2="152.000000" y2="284.000000"  transform="rotate(0.000000,152.000000,284.000000)" style="stroke: black; stroke-width:0.25;"/>
<line x1="155.000000" y1="285.000000" x2="152.000000" y2="284.000000"  transform="rotate(0.000000,152.000000,284.000000)" style="stroke: black; stroke-width:0.25;"/>
<line x1="119.000000" y1="119.000000" x2="119.000000" y2="457.000000"  style="stroke: black; stroke-linecap:round; stroke-width:0.25; stroke-dasharray:3,3;"/>
<line x1="119.000000" y1="457.000000" x2="671.900000" y2="457.000000"  style="stroke: black; stroke-linecap:round; stroke-width:0.25; stroke-dasharray:3,3;"/>
<line x1="671.900000" y1="457.000000" x2="671.900000" y2="119.000000"  style="stroke: black; stroke-linecap:round; stroke-width:0.25; stroke-dasharray:3,3;"/>
<line x1="119.000000" y1="119.000000" x2="124.000000" y2="119.000000"  style="stroke: black; stroke-linecap:round; stroke-width:0.25; stroke-dasharray:3,3;"/>
<line x1="223.975000" y1="119.000000" x2="671.900000" y2="119.000000"  style="stroke: black; stroke-linecap:round; stroke-width:0.25; stroke-dasharray:3,3;"/>
<text x="124.000000" y="121.000000" font-family="Arial" font-size="7">delay(65536)(...: int),1 : -)</text>
<rect x="287.450000" y="87.000000" width="258.000000" height="24.000000" rx="0" ry="0" style="stroke:none;fill:#cccccc;"/>
<rect x="286.450000" y="86.000000" width="258.000000" height="24.000000" rx="0" ry="0" style="stroke:none;fill:#477881;"/>
<text x="415.450000" y="100.000000" font-family="Arial" font-size="7" text-anchor="middle" fill="#FFFFFF">hslider(feedback, 0.0f, 0.0f, 100.0f, 0.10000000000000001f)</text>
<circle cx="542.450000" cy="108.000000" r="1"/>
<rect x="404.450000" y="55.000000" width="24.000000" height="24.000000" rx="0" ry="0" style="stroke:none;fill:#cccccc;"/>
<rect x="403.450000" y="54.000000" width="24.000000" height="24.000000" rx="0" ry="0" style="stroke:none;fill:#f44800;"/>
<text x="415.450000" y="68.000000" font-family="Arial" font-size="7" text-anchor="middle" fill="#FFFFFF">100</text>
<circle cx="425.450000" cy="76.000000" r="1"/>
<rect x="247.450000" y="71.000000" width="24.000000" height="24.000000" rx="0" ry="0" style="stroke:none;fill:#cccccc;"/>
<rect x="246.450000" y="70.000000" width="24.000000" height="24.000000" rx="0" ry="0" style="stroke:none;fill:#4B71A1;"/>
<text x="258.450000" y="84.000000" font-family="Arial" font-size="7" text-anchor="middle" fill="#FFFFFF">/</text>
<circle cx="268.450000" cy="92.000000" r="1"/>
<line x1="273.450000" y1="85.000000" x2="270.450000" y2="86.000000"  transform="rotate(0.000000,270.450000,86.000000)" style="stroke: black; stroke-width:0.25;"/>
<line x1="273.450000" y1="87.000000" x2="270.450000" y2="86.000000"  transform="rotate(0.000000,270.450000,86.000000)" style="stroke: black; stroke-width:0.25;"/>
<line x1="273.450000" y1="77.000000" x2="270.450000" y2="78.000000"  transform="rotate(0.000000,270.450000,78.000000)" style="stroke: black; stroke-width:0.25;"/>
<line x1="273.450000" y1="79.000000" x2="270.450000" y2="78.000000"  transform="rotate(0.000000,270.450000,78.000000)" style="stroke: black; stroke-width:0.25;"/>
<rect x="79.000000" y="245.000000" width="24.000000" height="24.000000" rx="0" ry="0" style="stroke:none;fill:#cccccc;"/>
<rect x="78.000000" y="244.000000" width="24.000000" height="24.000000" rx="0" ry="0" style="stroke:none;fill:#4B71A1;"/>
<text x="90.000000" y="258.000000" font-family="Arial" font-size="7" text-anchor="middle" fill="#FFFFFF">*</text>
<circle cx="100.000000" cy="266.000000" r="1"/>
<line x1="105.000000" y1="259.000000" x2="102.000000" y2="260.000000"  transform="rotate(0.000000,102.000000,260.000000)" style="stroke: black; stroke-width:0.25;"/>
<line x1="105.000000" y1="261.000000" x2="102.000000" y2="260.000000"  transform="rotate(0.000000,102.000000,260.000000)" style="stroke: black; stroke-width:0.25;"/>
<line x1="105.000000" y1="251.000000" x2="102.000000" y2="252.000000"  transform="rotate(0.000000,102.000000,252.000000)" style="stroke: black; stroke-width:0.25;"/>
<line x1="105.000000" y1="253.000000" x2="102.000000" y2="252.000000"  transform="rotate(0.000000,102.000000,252.000000)" style="stroke: black; stroke-width:0.25;"/>
<line x1="674.900000" y1="478.000000" x2="674.900000" y2="474.000000"  style="stroke:black; stroke-linecap:round; stroke-width:0.25;"/>
<line x1="674.900000" y1="474.000000" x2="678.900000" y2="474.000000"  style="stroke:black; stroke-linecap:round; stroke-width:0.25;"/>
<line x1="678.900000" y1="474.000000" x2="678.900000" y2="478.000000"  style="stroke:black; stroke-linecap:round; stroke-width:0.25;"/>
<line x1="61.000000" y1="45.000000" x2="61.000000" y2="499.000000"  style="stroke: black; stroke-linecap:round; stroke-width:0.25; stroke-dasharray:3,3;"/>
<line x1="61.000000" y1="499.000000" x2="689.900000" y2="499.000000"  style="stroke: black; stroke-linecap:round; stroke-width:0.25; stroke-dasharray:3,3;"/>
<line x1="689.900000" y1="499.000000" x2="689.900000" y2="45.000000"  style="stroke: black; stroke-linecap:round; stroke-width:0.25; stroke-dasharray:3,3;"/>
<line x1="61.000000" y1="45.000000" x2="66.000000" y2="45.000000"  style="stroke: black; stroke-linecap:round; stroke-width:0.25; stroke-dasharray:3,3;"/>
<line x1="130.500000" y1="45.000000" x2="689.900000" y2="45.000000"  style="stroke: black; stroke-linecap:round; stroke-width:0.25; stroke-dasharray:3,3;"/>
<text x="66.000000" y="47.000000" font-family="Arial" font-size="7">vgroup(echo  1000)</text>
<line x1="51.000000" y1="35.000000" x2="51.000000" y2="509.000000"  style="stroke: black; stroke-linecap:round; stroke-width:0.25; stroke-dasharray:3,3;"/>
<line x1="51.000000" y1="509.000000" x2="699.900000" y2="509.000000"  style="stroke: black; stroke-linecap:round; stroke-width:0.25; stroke-dasharray:3,3;"/>
<line x1="699.900000" y1="509.000000" x2="699.900000" y2="35.000000"  style="stroke: black; stroke-linecap:round; stroke-width:0.25; stroke-dasharray:3,3;"/>
<line x1="51.000000" y1="35.000000" x2="56.000000" y2="35.000000"  style="stroke: black; stroke-linecap:round; stroke-width:0.25; stroke-dasharray:3,3;"/>
<line x1="81.800000" y1="35.000000" x2="699.900000" y2="35.000000"  style="stroke: black; stroke-linecap:round; stroke-width:0.25; stroke-dasharray:3,3;"/>
<text x="56.000000" y="37.000000" font-family="Arial" font-size="7">echo1s</text>
<line x1="41.000000" y1="25.000000" x2="41.000000" y2="519.000000"  style="stroke: black; stroke-linecap:round; stroke-width:0.25; stroke-dasharray:3,3;"/>
<line x1="41.000000" y1="519.000000" x2="709.900000" y2="519.000000"  style="stroke: black; stroke-linecap:round; stroke-width:0.25; stroke-dasharray:3,3;"/>
<line x1="709.900000" y1="519.000000" x2="709.900000" y2="25.000000"  style="stroke: black; stroke-linecap:round; stroke-width:0.25; stroke-dasharray:3,3;"/>
<line x1="41.000000" y1="25.000000" x2="46.000000" y2="25.000000"  style="stroke: black; stroke-linecap:round; stroke-width:0.25; stroke-dasharray:3,3;"/>
<line x1="113.725000" y1="25.000000" x2="709.900000" y2="25.000000"  style="stroke: black; stroke-linecap:round; stroke-width:0.25; stroke-dasharray:3,3;"/>
<text x="46.000000" y="27.000000" font-family="Arial" font-size="7">vgroup(echo-simple)</text>
<line x1="15.000000" y1="15.000000" x2="15.000000" y2="529.000000"  style="stroke: black; stroke-linecap:round; stroke-width:0.25; stroke-dasharray:3,3;"/>
<line x1="15.000000" y1="529.000000" x2="735.900000" y2="529.000000"  style="stroke: black; stroke-linecap:round; stroke-width:0.25; stroke-dasharray:3,3;"/>
<line x1="735.900000" y1="529.000000" x2="735.900000" y2="15.000000"  style="stroke: black; stroke-linecap:round; stroke-width:0.25; stroke-dasharray:3,3;"/>
<line x1="15.000000" y1="15.000000" x2="20.000000" y2="15.000000"  style="stroke: black; stroke-linecap:round; stroke-width:0.25; stroke-dasharray:3,3;"/>
<line x1="49.025000" y1="15.000000" x2="735.900000" y2="15.000000"  style="stroke: black; stroke-linecap:round; stroke-width:0.25; stroke-dasharray:3,3;"/>
<text x="20.000000" y="17.000000" font-family="Arial" font-size="7">process</text>
<line x1="737.900000" y1="271.000000" x2="740.900000" y2="272.000000"  transform="rotate(0.000000,740.900000,272.000000)" style="stroke: black; stroke-width:0.25;"/>
<line x1="737.900000" y1="273.000000" x2="740.900000" y2="272.000000"  transform="rotate(0.000000,740.900000,272.000000)" style="stroke: black; stroke-width:0.25;"/>
<line x1="10.000000" y1="272.000000" x2="20.000000" y2="272.000000"  style="stroke:black; stroke-linecap:round; stroke-width:0.25;"/>
<line x1="20.000000" y1="272.000000" x2="24.000000" y2="272.000000"  style="stroke:black; stroke-linecap:round; stroke-width:0.25;"/>
<line x1="24.000000" y1="272.000000" x2="28.000000" y2="272.000000"  style="stroke:black; stroke-linecap:round; stroke-width:0.25;"/>
<line x1="28.000000" y1="272.000000" x2="36.000000" y2="272.000000"  style="stroke:black; stroke-linecap:round; stroke-width:0.25;"/>
<line x1="36.000000" y1="272.000000" x2="36.000000" y2="482.000000"  style="stroke:black; stroke-linecap:round; stroke-width:0.25;"/>
<line x1="36.000000" y1="482.000000" x2="36.000000" y2="482.000000"  style="stroke:black; stroke-linecap:round; stroke-width:0.25;"/>
<line x1="36.000000" y1="482.000000" x2="46.000000" y2="482.000000"  style="stroke:black; stroke-linecap:round; stroke-width:0.25;"/>
<line x1="46.000000" y1="482.000000" x2="56.000000" y2="482.000000"  style="stroke:black; stroke-linecap:round; stroke-width:0.25;"/>
<line x1="56.000000" y1="482.000000" x2="66.000000" y2="482.000000"  style="stroke:black; stroke-linecap:round; stroke-width:0.25;"/>
<line x1="66.000000" y1="482.000000" x2="74.000000" y2="482.000000"  style="stroke:black; stroke-linecap:round; stroke-width:0.25;"/>
<line x1="74.000000" y1="256.000000" x2="74.000000" y2="256.000000"  style="stroke:black; stroke-linecap:round; stroke-width:0.25;"/>
<line x1="74.000000" y1="256.000000" x2="74.000000" y2="474.000000"  style="stroke:black; stroke-linecap:round; stroke-width:0.25;"/>
<line x1="74.000000" y1="474.000000" x2="74.000000" y2="474.000000"  style="stroke:black; stroke-linecap:round; stroke-width:0.25;"/>
<line x1="74.000000" y1="474.000000" x2="359.450000" y2="474.000000"  style="stroke:black; stroke-linecap:round; stroke-width:0.25;"/>
<line x1="74.000000" y1="482.000000" x2="359.450000" y2="482.000000"  style="stroke:black; stroke-linecap:round; stroke-width:0.25;"/>
<line x1="78.000000" y1="256.000000" x2="74.000000" y2="256.000000"  style="stroke:black; stroke-linecap:round; stroke-width:0.25;"/>
<line x1="106.000000" y1="252.000000" x2="102.000000" y2="252.000000"  style="stroke:black; stroke-linecap:round; stroke-width:0.25;"/>
<line x1="106.000000" y1="260.000000" x2="102.000000" y2="260.000000"  style="stroke:black; stroke-linecap:round; stroke-width:0.25;"/>
<line x1="106.000000" y1="260.000000" x2="106.000000" y2="260.000000"  style="stroke:black; stroke-linecap:round; stroke-width:0.25;"/>
<line x1="106.000000" y1="288.000000" x2="106.000000" y2="260.000000"  style="stroke:black; stroke-linecap:round; stroke-width:0.25;"/>
<line x1="114.000000" y1="82.000000" x2="114.000000" y2="82.000000"  style="stroke:black; stroke-linecap:round; stroke-width:0.25;"/>
<line x1="114.000000" y1="82.000000" x2="114.000000" y2="252.000000"  style="stroke:black; stroke-linecap:round; stroke-width:0.25;"/>
<line x1="114.000000" y1="252.000000" x2="106.000000" y2="252.000000"  style="stroke:black; stroke-linecap:round; stroke-width:0.25;"/>
<line x1="114.000000" y1="288.000000" x2="106.000000" y2="288.000000"  style="stroke:black; stroke-linecap:round; stroke-width:0.25;"/>
<line x1="124.000000" y1="288.000000" x2="114.000000" y2="288.000000"  style="stroke:black; stroke-linecap:round; stroke-width:0.25;"/>
<line x1="128.000000" y1="288.000000" x2="124.000000" y2="288.000000"  style="stroke:black; stroke-linecap:round; stroke-width:0.25;"/>
<line x1="156.000000" y1="284.000000" x2="152.000000" y2="284.000000"  style="stroke:black; stroke-linecap:round; stroke-width:0.25;"/>
<line x1="156.000000" y1="292.000000" x2="152.000000" y2="292.000000"  style="stroke:black; stroke-linecap:round; stroke-width:0.25;"/>
<line x1="156.000000" y1="292.000000" x2="156.000000" y2="292.000000"  style="stroke:black; stroke-linecap:round; stroke-width:0.25;"/>
<line x1="156.000000" y1="436.000000" x2="156.000000" y2="292.000000"  style="stroke:black; stroke-linecap:round; stroke-width:0.25;"/>
<line x1="164.000000" y1="272.000000" x2="164.000000" y2="272.000000"  style="stroke:black; stroke-linecap:round; stroke-width:0.25;"/>
<line x1="164.000000" y1="272.000000" x2="164.000000" y2="284.000000"  style="stroke:black; stroke-linecap:round; stroke-width:0.25;"/>
<line x1="164.000000" y1="284.000000" x2="156.000000" y2="284.000000"  style="stroke:black; stroke-linecap:round; stroke-width:0.25;"/>
<line x1="164.000000" y1="436.000000" x2="156.000000" y2="436.000000"  style="stroke:black; stroke-linecap:round; stroke-width:0.25;"/>
<line x1="168.000000" y1="272.000000" x2="164.000000" y2="272.000000"  style="stroke:black; stroke-linecap:round; stroke-width:0.25;"/>
<line x1="196.000000" y1="276.000000" x2="196.000000" y2="276.000000"  style="stroke:black; stroke-linecap:round; stroke-width:0.25;"/>
<line x1="196.000000" y1="404.000000" x2="196.000000" y2="276.000000"  style="stroke:black; stroke-linecap:round; stroke-width:0.25;"/>
<line x1="196.000000" y1="268.000000" x2="192.000000" y2="268.000000"  style="stroke:black; stroke-linecap:round; stroke-width:0.25;"/>
<line x1="196.000000" y1="276.000000" x2="192.000000" y2="276.000000"  style="stroke:black; stroke-linecap:round; stroke-width:0.25;"/>
<line x1="204.000000" y1="404.000000" x2="196.000000" y2="404.000000"  style="stroke:black; stroke-linecap:round; stroke-width:0.25;"/>
<line x1="204.000000" y1="256.000000" x2="204.000000" y2="256.000000"  style="stroke:black; stroke-linecap:round; stroke-width:0.25;"/>
<line x1="204.000000" y1="256.000000" x2="204.000000" y2="268.000000"  style="stroke:black; stroke-linecap:round; stroke-width:0.25;"/>
<line x1="204.000000" y1="268.000000" x2="196.000000" y2="268.000000"  style="stroke:black; stroke-linecap:round; stroke-width:0.25;"/>
<line x1="208.000000" y1="256.000000" x2="204.000000" y2="256.000000"  style="stroke:black; stroke-linecap:round; stroke-width:0.25;"/>
<line x1="236.000000" y1="252.000000" x2="232.000000" y2="252.000000"  style="stroke:black; stroke-linecap:round; stroke-width:0.25;"/>
<line x1="236.000000" y1="260.000000" x2="232.000000" y2="260.000000"  style="stroke:black; stroke-linecap:round; stroke-width:0.25;"/>
<line x1="236.000000" y1="260.000000" x2="236.000000" y2="260.000000"  style="stroke:black; stroke-linecap:round; stroke-width:0.25;"/>
<line x1="236.000000" y1="372.000000" x2="236.000000" y2="260.000000"  style="stroke:black; stroke-linecap:round; stroke-width:0.25;"/>
<line x1="242.450000" y1="82.000000" x2="114.000000" y2="82.000000"  style="stroke:black; stroke-linecap:round; stroke-width:0.25;"/>
<line x1="244.000000" y1="240.000000" x2="244.000000" y2="240.000000"  style="stroke:black; stroke-linecap:round; stroke-width:0.25;"/>
<line x1="244.000000" y1="240.000000" x2="244.000000" y2="252.000000"  style="stroke:black; stroke-linecap:round; stroke-width:0.25;"/>
<line x1="244.000000" y1="252.000000" x2="236.000000" y2="252.000000"  style="stroke:black; stroke-linecap:round; stroke-width:0.25;"/>
<line x1="244.000000" y1="372.000000" x2="236.000000" y2="372.000000"  style="stroke:black; stroke-linecap:round; stroke-width:0.25;"/>
<line x1="246.450000" y1="82.000000" x2="242.450000" y2="82.000000"  style="stroke:black; stroke-linecap:round; stroke-width:0.25;"/>
<line x1="248.000000" y1="240.000000" x2="244.000000" y2="240.000000"  style="stroke:black; stroke-linecap:round; stroke-width:0.25;"/>
<line x1="274.450000" y1="78.000000" x2="270.450000" y2="78.000000"  style="stroke:black; stroke-linecap:round; stroke-width:0.25;"/>
<line x1="274.450000" y1="86.000000" x2="270.450000" y2="86.000000"  style="stroke:black; stroke-linecap:round; stroke-width:0.25;"/>
<line x1="274.450000" y1="86.000000" x2="274.450000" y2="86.000000"  style="stroke:black; stroke-linecap:round; stroke-width:0.25;"/>
<line x1="274.450000" y1="98.000000" x2="274.450000" y2="86.000000"  style="stroke:black; stroke-linecap:round; stroke-width:0.25;"/>
<line x1="276.000000" y1="236.000000" x2="272.000000" y2="236.000000"  style="stroke:black; stroke-linecap:round; stroke-width:0.25;"/>
<line x1="276.000000" y1="244.000000" x2="272.000000" y2="244.000000"  style="stroke:black; stroke-linecap:round; stroke-width:0.25;"/>
<line x1="276.000000" y1="244.000000" x2="276.000000" y2="244.000000"  style="stroke:black; stroke-linecap:round; stroke-width:0.25;"/>
<line x1="276.000000" y1="256.000000" x2="276.000000" y2="244.000000"  style="stroke:black; stroke-linecap:round; stroke-width:0.25;"/>
<line x1="282.450000" y1="66.000000" x2="282.450000" y2="66.000000"  style="stroke:black; stroke-linecap:round; stroke-width:0.25;"/>
<line x1="282.450000" y1="66.000000" x2="282.450000" y2="78.000000"  style="stroke:black; stroke-linecap:round; stroke-width:0.25;"/>
<line x1="282.450000" y1="78.000000" x2="274.450000" y2="78.000000"  style="stroke:black; stroke-linecap:round; stroke-width:0.25;"/>
<line x1="282.450000" y1="98.000000" x2="274.450000" y2="98.000000"  style="stroke:black; stroke-linecap:round; stroke-width:0.25;"/>
<line x1="284.000000" y1="140.000000" x2="284.000000" y2="140.000000"  style="stroke:black; stroke-linecap:round; stroke-width:0.25;"/>
<line x1="284.000000" y1="140.000000" x2="284.000000" y2="236.000000"  style="stroke:black; stroke-linecap:round; stroke-width:0.25;"/>
<line x1="284.000000" y1="236.000000" x2="276.000000" y2="236.000000"  style="stroke:black; stroke-linecap:round; stroke-width:0.25;"/>
<line x1="284.000000" y1="256.000000" x2="276.000000" y2="256.000000"  style="stroke:black; stroke-linecap:round; stroke-width:0.25;"/>
<line x1="286.450000" y1="98.000000" x2="282.450000" y2="98.000000"  style="stroke:black; stroke-linecap:round; stroke-width:0.25;"/>
<line x1="288.000000" y1="256.000000" x2="284.000000" y2="256.000000"  style="stroke:black; stroke-linecap:round; stroke-width:0.25;"/>
<line x1="316.000000" y1="256.000000" x2="312.000000" y2="256.000000"  style="stroke:black; stroke-linecap:round; stroke-width:0.25;"/>
<line x1="316.000000" y1="256.000000" x2="316.000000" y2="256.000000"  style="stroke:black; stroke-linecap:round; stroke-width:0.25;"/>
<line x1="320.000000" y1="256.000000" x2="316.000000" y2="256.000000"  style="stroke:black; stroke-linecap:round; stroke-width:0.25;"/>
<line x1="348.000000" y1="252.000000" x2="344.000000" y2="252.000000"  style="stroke:black; stroke-linecap:round; stroke-width:0.25;"/>
<line x1="348.000000" y1="260.000000" x2="344.000000" y2="260.000000"  style="stroke:black; stroke-linecap:round; stroke-width:0.25;"/>
<line x1="348.000000" y1="260.000000" x2="348.000000" y2="260.000000"  style="stroke:black; stroke-linecap:round; stroke-width:0.25;"/>
<line x1="348.000000" y1="340.000000" x2="348.000000" y2="260.000000"  style="stroke:black; stroke-linecap:round; stroke-width:0.25;"/>
<line x1="356.000000" y1="240.000000" x2="356.000000" y2="240.000000"  style="stroke:black; stroke-linecap:round; stroke-width:0.25;"/>
<line x1="356.000000" y1="240.000000" x2="356.000000" y2="252.000000"  style="stroke:black; stroke-linecap:round; stroke-width:0.25;"/>
<line x1="356.000000" y1="252.000000" x2="348.000000" y2="252.000000"  style="stroke:black; stroke-linecap:round; stroke-width:0.25;"/>
<line x1="356.000000" y1="340.000000" x2="348.000000" y2="340.000000"  style="stroke:black; stroke-linecap:round; stroke-width:0.25;"/>
<line x1="359.450000" y1="474.000000" x2="363.450000" y2="474.000000"  style="stroke:black; stroke-linecap:round; stroke-width:0.25;"/>
<line x1="359.450000" y1="482.000000" x2="363.450000" y2="482.000000"  style="stroke:black; stroke-linecap:round; stroke-width:0.25;"/>
<line x1="360.000000" y1="340.000000" x2="356.000000" y2="340.000000"  style="stroke:black; stroke-linecap:round; stroke-width:0.25;"/>
<line x1="379.200000" y1="240.000000" x2="356.000000" y2="240.000000"  style="stroke:black; stroke-linecap:round; stroke-width:0.25;"/>
<line x1="383.450000" y1="436.000000" x2="164.000000" y2="436.000000"  style="stroke:black; stroke-linecap:round; stroke-width:0.25;"/>
<line x1="387.450000" y1="436.000000" x2="383.450000" y2="436.000000"  style="stroke:black; stroke-linecap:round; stroke-width:0.25;"/>
<line x1="387.450000" y1="478.000000" x2="391.450000" y2="478.000000"  style="stroke:black; stroke-linecap:round; stroke-width:0.25;"/>
<line x1="389.200000" y1="240.000000" x2="379.200000" y2="240.000000"  style="stroke:black; stroke-linecap:round; stroke-width:0.25;"/>
<line x1="391.450000" y1="478.000000" x2="676.900000" y2="478.000000"  style="stroke:black; stroke-linecap:round; stroke-width:0.25;"/>
<line x1="393.200000" y1="240.000000" x2="389.200000" y2="240.000000"  style="stroke:black; stroke-linecap:round; stroke-width:0.25;"/>
<line x1="399.450000" y1="66.000000" x2="282.450000" y2="66.000000"  style="stroke:black; stroke-linecap:round; stroke-width:0.25;"/>
<line x1="402.550000" y1="404.000000" x2="204.000000" y2="404.000000"  style="stroke:black; stroke-linecap:round; stroke-width:0.25;"/>
<line x1="403.450000" y1="66.000000" x2="399.450000" y2="66.000000"  style="stroke:black; stroke-linecap:round; stroke-width:0.25;"/>
<line x1="406.550000" y1="404.000000" x2="402.550000" y2="404.000000"  style="stroke:black; stroke-linecap:round; stroke-width:0.25;"/>
<line x1="421.200000" y1="236.000000" x2="417.200000" y2="236.000000"  style="stroke:black; stroke-linecap:round; stroke-width:0.25;"/>
<line x1="421.200000" y1="244.000000" x2="417.200000" y2="244.000000"  style="stroke:black; stroke-linecap:round; stroke-width:0.25;"/>
<line x1="421.200000" y1="244.000000" x2="421.200000" y2="244.000000"  style="stroke:black; stroke-linecap:round; stroke-width:0.25;"/>
<line x1="421.200000" y1="256.000000" x2="421.200000" y2="244.000000"  style="stroke:black; stroke-linecap:round; stroke-width:0.25;"/>
<line x1="423.450000" y1="372.000000" x2="244.000000" y2="372.000000"  style="stroke:black; stroke-linecap:round; stroke-width:0.25;"/>
<line x1="427.450000" y1="372.000000" x2="423.450000" y2="372.000000"  style="stroke:black; stroke-linecap:round; stroke-width:0.25;"/>
<line x1="429.200000" y1="182.000000" x2="429.200000" y2="182.000000"  style="stroke:black; stroke-linecap:round; stroke-width:0.25;"/>
<line x1="429.200000" y1="182.000000" x2="429.200000" y2="236.000000"  style="stroke:black; stroke-linecap:round; stroke-width:0.25;"/>
<line x1="429.200000" y1="236.000000" x2="421.200000" y2="236.000000"  style="stroke:black; stroke-linecap:round; stroke-width:0.25;"/>
<line x1="429.200000" y1="256.000000" x2="421.200000" y2="256.000000"  style="stroke:black; stroke-linecap:round; stroke-width:0.25;"/>
<line x1="439.200000" y1="256.000000" x2="429.200000" y2="256.000000"  style="stroke:black; stroke-linecap:round; stroke-width:0.25;"/>
<line x1="443.200000" y1="256.000000" x2="439.200000" y2="256.000000"  style="stroke:black; stroke-linecap:round; stroke-width:0.25;"/>
<line x1="443.450000" y1="140.000000" x2="284.000000" y2="140.000000"  style="stroke:black; stroke-linecap:round; stroke-width:0.25;"/>
<line x1="447.450000" y1="140.000000" x2="443.450000" y2="140.000000"  style="stroke:black; stroke-linecap:round; stroke-width:0.25;"/>
<line x1="471.200000" y1="260.000000" x2="471.200000" y2="260.000000"  style="stroke:black; stroke-linecap:round; stroke-width:0.25;"/>
<line x1="471.200000" y1="288.000000" x2="471.200000" y2="260.000000"  style="stroke:black; stroke-linecap:round; stroke-width:0.25;"/>
<line x1="471.200000" y1="252.000000" x2="467.200000" y2="252.000000"  style="stroke:black; stroke-linecap:round; stroke-width:0.25;"/>
<line x1="471.200000" y1="260.000000" x2="467.200000" y2="260.000000"  style="stroke:black; stroke-linecap:round; stroke-width:0.25;"/>
<line x1="479.200000" y1="288.000000" x2="471.200000" y2="288.000000"  style="stroke:black; stroke-linecap:round; stroke-width:0.25;"/>
<line x1="479.200000" y1="240.000000" x2="479.200000" y2="240.000000"  style="stroke:black; stroke-linecap:round; stroke-width:0.25;"/>
<line x1="479.200000" y1="240.000000" x2="479.200000" y2="252.000000"  style="stroke:black; stroke-linecap:round; stroke-width:0.25;"/>
<line x1="479.200000" y1="252.000000" x2="471.200000" y2="252.000000"  style="stroke:black; stroke-linecap:round; stroke-width:0.25;"/>
<line x1="483.200000" y1="240.000000" x2="479.200000" y2="240.000000"  style="stroke:black; stroke-linecap:round; stroke-width:0.25;"/>
<line x1="498.550000" y1="182.000000" x2="429.200000" y2="182.000000"  style="stroke:black; stroke-linecap:round; stroke-width:0.25;"/>
<line x1="502.550000" y1="182.000000" x2="498.550000" y2="182.000000"  style="stroke:black; stroke-linecap:round; stroke-width:0.25;"/>
<line x1="511.200000" y1="236.000000" x2="507.200000" y2="236.000000"  style="stroke:black; stroke-linecap:round; stroke-width:0.25;"/>
<line x1="511.200000" y1="244.000000" x2="507.200000" y2="244.000000"  style="stroke:black; stroke-linecap:round; stroke-width:0.25;"/>
<line x1="511.200000" y1="244.000000" x2="511.200000" y2="244.000000"  style="stroke:black; stroke-linecap:round; stroke-width:0.25;"/>
<line x1="511.200000" y1="256.000000" x2="511.200000" y2="244.000000"  style="stroke:black; stroke-linecap:round; stroke-width:0.25;"/>
<line x1="518.550000" y1="288.000000" x2="479.200000" y2="288.000000"  style="stroke:black; stroke-linecap:round; stroke-width:0.25;"/>
<line x1="519.200000" y1="224.000000" x2="519.200000" y2="224.000000"  style="stroke:black; stroke-linecap:round; stroke-width:0.25;"/>
<line x1="519.200000" y1="224.000000" x2="519.200000" y2="236.000000"  style="stroke:black; stroke-linecap:round; stroke-width:0.25;"/>
<line x1="519.200000" y1="236.000000" x2="511.200000" y2="236.000000"  style="stroke:black; stroke-linecap:round; stroke-width:0.25;"/>
<line x1="519.200000" y1="256.000000" x2="511.200000" y2="256.000000"  style="stroke:black; stroke-linecap:round; stroke-width:0.25;"/>
<line x1="522.550000" y1="288.000000" x2="518.550000" y2="288.000000"  style="stroke:black; stroke-linecap:round; stroke-width:0.25;"/>
<line x1="523.200000" y1="224.000000" x2="519.200000" y2="224.000000"  style="stroke:black; stroke-linecap:round; stroke-width:0.25;"/>
<line x1="539.450000" y1="256.000000" x2="519.200000" y2="256.000000"  style="stroke:black; stroke-linecap:round; stroke-width:0.25;"/>
<line x1="543.450000" y1="256.000000" x2="539.450000" y2="256.000000"  style="stroke:black; stroke-linecap:round; stroke-width:0.25;"/>
<line x1="666.900000" y1="288.000000" x2="662.900000" y2="288.000000"  style="stroke:black; stroke-linecap:round; stroke-width:0.25;"/>
<line x1="676.900000" y1="288.000000" x2="666.900000" y2="288.000000"  style="stroke:black; stroke-linecap:round; stroke-width:0.25;"/>
<line x1="676.900000" y1="288.000000" x2="676.900000" y2="288.000000"  style="stroke:black; stroke-linecap:round; stroke-width:0.25;"/>
<line x1="676.900000" y1="474.000000" x2="676.900000" y2="288.000000"  style="stroke:black; stroke-linecap:round; stroke-width:0.25;"/>
<line x1="676.900000" y1="478.000000" x2="678.900000" y2="478.000000"  style="stroke:black; stroke-linecap:round; stroke-width:0.25;"/>
<line x1="678.900000" y1="478.000000" x2="684.900000" y2="478.000000"  style="stroke:black; stroke-linecap:round; stroke-width:0.25;"/>
<line x1="684.900000" y1="478.000000" x2="694.900000" y2="478.000000"  style="stroke:black; stroke-linecap:round; stroke-width:0.25;"/>
<line x1="694.900000" y1="478.000000" x2="704.900000" y2="478.000000"  style="stroke:black; stroke-linecap:round; stroke-width:0.25;"/>
<line x1="704.900000" y1="478.000000" x2="714.900000" y2="478.000000"  style="stroke:black; stroke-linecap:round; stroke-width:0.25;"/>
<line x1="714.900000" y1="272.000000" x2="722.900000" y2="272.000000"  style="stroke:black; stroke-linecap:round; stroke-width:0.25;"/>
<line x1="714.900000" y1="478.000000" x2="714.900000" y2="272.000000"  style="stroke:black; stroke-linecap:round; stroke-width:0.25;"/>
<line x1="714.900000" y1="478.000000" x2="714.900000" y2="478.000000"  style="stroke:black; stroke-linecap:round; stroke-width:0.25;"/>
<line x1="722.900000" y1="272.000000" x2="726.900000" y2="272.000000"  style="stroke:black; stroke-linecap:round; stroke-width:0.25;"/>
<line x1="726.900000" y1="272.000000" x2="730.900000" y2="272.000000"  style="stroke:black; stroke-linecap:round; stroke-width:0.25;"/>
<line x1="730.900000" y1="272.000000" x2="740.900000" y2="272.000000"  style="stroke:black; stroke-linecap:round; stroke-width:0.25;"/>
</svg>
