<?xml version="1.0"?>
<svg xmlns="http://www.w3.org/2000/svg" xmlns:xlink="http://www.w3.org/1999/xlink" viewBox="0 0 236.100000 228.000000" width="118.050000mm" height="114.000000mm" version="1.1">
<rect x="1.000000" y="1.000000" width="235.100000" height="227.000000" rx="0" ry="0" style="stroke:none;fill:#cccccc;"/>
<rect x="0.000000" y="0.000000" width="235.100000" height="227.000000" rx="0" ry="0" style="stroke:none;fill:#ffffff;"/>
<text x="10.000000" y="7.000000" font-family="Arial" font-size="7"></text>
<rect x="53.900000" y="35.000000" width="25.800000" height="24.000000" rx="0" ry="0" style="stroke:none;fill:#cccccc;"/>
<rect x="52.900000" y="34.000000" width="25.800000" height="24.000000" rx="0" ry="0" style="stroke:none;fill:#f44800;"/>
<text x="65.800000" y="48.000000" font-family="Arial" font-size="7" text-anchor="middle" fill="#FFFFFF">220500</text>
<circle cx="54.900000" cy="36.000000" r="1"/>
<line x1="43.900000" y1="25.000000" x2="43.900000" y2="67.000000"  style="stroke: black; stroke-linecap:round; stroke-width:0.25; stroke-dasharray:3,3;"/>
<line x1="43.900000" y1="67.000000" x2="87.700000" y2="67.000000"  style="stroke: black; stroke-linecap:round; stroke-width:0.25; stroke-dasharray:3,3;"/>
<line x1="87.700000" y1="67.000000" x2="87.700000" y2="25.000000"  style="stroke: black; stroke-linecap:round; stroke-width:0.25; stroke-dasharray:3,3;"/>
<line x1="43.900000" y1="25.000000" x2="48.900000" y2="25.000000"  style="stroke: black; stroke-linecap:round; stroke-width:0.25; stroke-dasharray:3,3;"/>
<line x1="87.700000" y1="25.000000" x2="87.700000" y2="25.000000"  style="stroke: black; stroke-linecap:round; stroke-width:0.25; stroke-dasharray:3,3;"/>
<text x="48.900000" y="27.000000" font-family="Arial" font-size="7">MAX_DURATION</text>
<rect x="53.900000" y="77.000000" width="25.800000" height="24.000000" rx="0" ry="0" style="stroke:none;fill:#cccccc;"/>
<rect x="52.900000" y="76.000000" width="25.800000" height="24.000000" rx="0" ry="0" style="stroke:none;fill:#f44800;"/>
<text x="65.800000" y="90.000000" font-family="Arial" font-size="7" text-anchor="middle" fill="#FFFFFF">0.0f</text>
<circle cx="54.900000" cy="78.000000" r="1"/>
<a xlink:href="rec-0x600002702370.svg">
<rect x="47.450000" y="109.000000" width="38.700000" height="24.000000" rx="0" ry="0" style="stroke:none;fill:#cccccc;"/>
<rect x="46.450000" y="108.000000" width="38.700000" height="24.000000" rx="0" ry="0" style="stroke:none;fill:#003366;"/>
</a>
<a xlink:href="rec-0x600002702370.svg">
<text x="65.800000" y="122.000000" font-family="Arial" font-size="7" text-anchor="middle" fill="#FFFFFF">rec_index</text>
</a>
<circle cx="48.450000" cy="110.000000" r="1"/>
<a xlink:href="loop-0x600002671680.svg">
<rect x="41.000000" y="149.000000" width="51.600000" height="24.000000" rx="0" ry="0" style="stroke:none;fill:#cccccc;"/>
<rect x="40.000000" y="148.000000" width="51.600000" height="24.000000" rx="0" ry="0" style="stroke:none;fill:#003366;"/>
</a>
<a xlink:href="loop-0x600002671680.svg">
<text x="65.800000" y="162.000000" font-family="Arial" font-size="7" text-anchor="middle" fill="#FFFFFF">loop_index</text>
</a>
<circle cx="42.000000" cy="150.000000" r="1"/>
<rect x="124.600000" y="79.000000" width="38.700000" height="40.000000" rx="0" ry="0" style="stroke:none;fill:#cccccc;"/>
<rect x="123.600000" y="78.000000" width="38.700000" height="40.000000" rx="0" ry="0" style="stroke:none;fill:#4B71A1;"/>
<text x="142.950000" y="100.000000" font-family="Arial" font-size="7" text-anchor="middle" fill="#FFFFFF">rwtable</text>
<circle cx="125.600000" cy="80.000000" r="1"/>
<line x1="120.600000" y1="81.000000" x2="123.600000" y2="82.000000"  transform="rotate(0.000000,123.600000,82.000000)" style="stroke: black; stroke-width:0.25;"/>
<line x1="120.600000" y1="83.000000" x2="123.600000" y2="82.000000"  transform="rotate(0.000000,123.600000,82.000000)" style="stroke: black; stroke-width:0.25;"/>
<line x1="120.600000" y1="89.000000" x2="123.600000" y2="90.000000"  transform="rotate(0.000000,123.600000,90.000000)" style="stroke: black; stroke-width:0.25;"/>
<line x1="120.600000" y1="91.000000" x2="123.600000" y2="90.000000"  transform="rotate(0.000000,123.600000,90.000000)" style="stroke: black; stroke-width:0.25;"/>
<line x1="120.600000" y1="97.000000" x2="123.600000" y2="98.000000"  transform="rotate(0.000000,123.600000,98.000000)" style="stroke: black; stroke-width:0.25;"/>
<line x1="120.600000" y1="99.000000" x2="123.600000" y2="98.000000"  transform="rotate(0.000000,123.600000,98.000000)" style="stroke: black; stroke-width:0.25;"/>
<line x1="120.600000" y1="105.000000" x2="123.600000" y2="106.000000"  transform="rotate(0.000000,123.600000,106.000000)" style="stroke: black; stroke-width:0.25;"/>
<line x1="120.600000" y1="107.000000" x2="123.600000" y2="106.000000"  transform="rotate(0.000000,123.600000,106.000000)" style="stroke: black; stroke-width:0.25;"/>
<line x1="120.600000" y1="113.000000" x2="123.600000" y2="114.000000"  transform="rotate(0.000000,123.600000,114.000000)" style="stroke: black; stroke-width:0.25;"/>
<line x1="120.600000" y1="115.000000" x2="123.600000" y2="114.000000"  transform="rotate(0.000000,123.600000,114.000000)" style="stroke: black; stroke-width:0.25;"/>
<a xlink:href="pos-0x600002672250.svg">
<rect x="90.150000" y="181.000000" width="24.000000" height="24.000000" rx="0" ry="0" style="stroke:none;fill:#cccccc;"/>
<rect x="89.150000" y="180.000000" width="24.000000" height="24.000000" rx="0" ry="0" style="stroke:none;fill:#003366;"/>
</a>
<a xlink:href="pos-0x600002672250.svg">
<text x="101.150000" y="194.000000" font-family="Arial" font-size="7" text-anchor="middle" fill="#FFFFFF">pos</text>
</a>
<circle cx="91.150000" cy="182.000000" r="1"/>
<rect x="179.300000" y="103.000000" width="25.800000" height="24.000000" rx="0" ry="0" style="stroke:none;fill:#cccccc;"/>
<rect x="178.300000" y="102.000000" width="25.800000" height="24.000000" rx="0" ry="0" style="stroke:none;fill:#4B71A1;"/>
<text x="191.200000" y="116.000000" font-family="Arial" font-size="7" text-anchor="middle" fill="#FFFFFF">attach</text>
<circle cx="180.300000" cy="104.000000" r="1"/>
<line x1="175.300000" y1="109.000000" x2="178.300000" y2="110.000000"  transform="rotate(0.000000,178.300000,110.000000)" style="stroke: black; stroke-width:0.25;"/>
<line x1="175.300000" y1="111.000000" x2="178.300000" y2="110.000000"  transform="rotate(0.000000,178.300000,110.000000)" style="stroke: black; stroke-width:0.25;"/>
<line x1="175.300000" y1="117.000000" x2="178.300000" y2="118.000000"  transform="rotate(0.000000,178.300000,118.000000)" style="stroke: black; stroke-width:0.25;"/>
<line x1="175.300000" y1="119.000000" x2="178.300000" y2="118.000000"  transform="rotate(0.000000,178.300000,118.000000)" style="stroke: black; stroke-width:0.25;"/>
<line x1="15.000000" y1="15.000000" x2="15.000000" y2="213.000000"  style="stroke: black; stroke-linecap:round; stroke-width:0.25; stroke-dasharray:3,3;"/>
<line x1="15.000000" y1="213.000000" x2="221.100000" y2="213.000000"  style="stroke: black; stroke-linecap:round; stroke-width:0.25; stroke-dasharray:3,3;"/>
<line x1="221.100000" y1="213.000000" x2="221.100000" y2="15.000000"  style="stroke: black; stroke-linecap:round; stroke-width:0.25; stroke-dasharray:3,3;"/>
<line x1="15.000000" y1="15.000000" x2="20.000000" y2="15.000000"  style="stroke: black; stroke-linecap:round; stroke-width:0.25; stroke-dasharray:3,3;"/>
<line x1="49.025000" y1="15.000000" x2="221.100000" y2="15.000000"  style="stroke: black; stroke-linecap:round; stroke-width:0.25; stroke-dasharray:3,3;"/>
<text x="20.000000" y="17.000000" font-family="Arial" font-size="7">process</text>
<line x1="223.100000" y1="113.000000" x2="226.100000" y2="114.000000"  transform="rotate(0.000000,226.100000,114.000000)" style="stroke: black; stroke-width:0.25;"/>
<line x1="223.100000" y1="115.000000" x2="226.100000" y2="114.000000"  transform="rotate(0.000000,226.100000,114.000000)" style="stroke: black; stroke-width:0.25;"/>
<line x1="10.000000" y1="114.000000" x2="20.000000" y2="114.000000"  style="stroke:black; stroke-linecap:round; stroke-width:0.25;"/>
<line x1="20.000000" y1="114.000000" x2="24.000000" y2="114.000000"  style="stroke:black; stroke-linecap:round; stroke-width:0.25;"/>
<line x1="24.000000" y1="114.000000" x2="28.000000" y2="114.000000"  style="stroke:black; stroke-linecap:round; stroke-width:0.25;"/>
<line x1="28.000000" y1="114.000000" x2="36.000000" y2="114.000000"  style="stroke:black; stroke-linecap:round; stroke-width:0.25;"/>
<line x1="36.000000" y1="114.000000" x2="36.000000" y2="140.000000"  style="stroke:black; stroke-linecap:round; stroke-width:0.25;"/>
<line x1="36.000000" y1="140.000000" x2="36.000000" y2="140.000000"  style="stroke:black; stroke-linecap:round; stroke-width:0.25;"/>
<line x1="36.000000" y1="140.000000" x2="65.800000" y2="140.000000"  style="stroke:black; stroke-linecap:round; stroke-width:0.25;"/>
<line x1="65.800000" y1="140.000000" x2="95.600000" y2="140.000000"  style="stroke:black; stroke-linecap:round; stroke-width:0.25;"/>
<line x1="78.700000" y1="46.000000" x2="82.700000" y2="46.000000"  style="stroke:black; stroke-linecap:round; stroke-width:0.25;"/>
<line x1="78.700000" y1="88.000000" x2="82.700000" y2="88.000000"  style="stroke:black; stroke-linecap:round; stroke-width:0.25;"/>
<line x1="82.700000" y1="46.000000" x2="92.700000" y2="46.000000"  style="stroke:black; stroke-linecap:round; stroke-width:0.25;"/>
<line x1="82.700000" y1="88.000000" x2="95.600000" y2="88.000000"  style="stroke:black; stroke-linecap:round; stroke-width:0.25;"/>
<line x1="85.150000" y1="120.000000" x2="89.150000" y2="120.000000"  style="stroke:black; stroke-linecap:round; stroke-width:0.25;"/>
<line x1="89.150000" y1="120.000000" x2="95.600000" y2="120.000000"  style="stroke:black; stroke-linecap:round; stroke-width:0.25;"/>
<line x1="91.600000" y1="160.000000" x2="95.600000" y2="160.000000"  style="stroke:black; stroke-linecap:round; stroke-width:0.25;"/>
<line x1="92.700000" y1="46.000000" x2="95.600000" y2="46.000000"  style="stroke:black; stroke-linecap:round; stroke-width:0.25;"/>
<line x1="95.600000" y1="46.000000" x2="119.600000" y2="46.000000"  style="stroke:black; stroke-linecap:round; stroke-width:0.25;"/>
<line x1="95.600000" y1="88.000000" x2="111.600000" y2="88.000000"  style="stroke:black; stroke-linecap:round; stroke-width:0.25;"/>
<line x1="95.600000" y1="140.000000" x2="103.600000" y2="140.000000"  style="stroke:black; stroke-linecap:round; stroke-width:0.25;"/>
<line x1="95.600000" y1="160.000000" x2="111.600000" y2="160.000000"  style="stroke:black; stroke-linecap:round; stroke-width:0.25;"/>
<line x1="95.600000" y1="98.000000" x2="119.600000" y2="98.000000"  style="stroke:black; stroke-linecap:round; stroke-width:0.25;"/>
<line x1="95.600000" y1="120.000000" x2="95.600000" y2="98.000000"  style="stroke:black; stroke-linecap:round; stroke-width:0.25;"/>
<line x1="95.600000" y1="120.000000" x2="95.600000" y2="120.000000"  style="stroke:black; stroke-linecap:round; stroke-width:0.25;"/>
<line x1="103.600000" y1="106.000000" x2="119.600000" y2="106.000000"  style="stroke:black; stroke-linecap:round; stroke-width:0.25;"/>
<line x1="103.600000" y1="140.000000" x2="103.600000" y2="106.000000"  style="stroke:black; stroke-linecap:round; stroke-width:0.25;"/>
<line x1="111.600000" y1="88.000000" x2="111.600000" y2="90.000000"  style="stroke:black; stroke-linecap:round; stroke-width:0.25;"/>
<line x1="111.600000" y1="90.000000" x2="119.600000" y2="90.000000"  style="stroke:black; stroke-linecap:round; stroke-width:0.25;"/>
<line x1="111.600000" y1="114.000000" x2="119.600000" y2="114.000000"  style="stroke:black; stroke-linecap:round; stroke-width:0.25;"/>
<line x1="111.600000" y1="160.000000" x2="111.600000" y2="114.000000"  style="stroke:black; stroke-linecap:round; stroke-width:0.25;"/>
<line x1="113.150000" y1="192.000000" x2="117.150000" y2="192.000000"  style="stroke:black; stroke-linecap:round; stroke-width:0.25;"/>
<line x1="117.150000" y1="192.000000" x2="166.300000" y2="192.000000"  style="stroke:black; stroke-linecap:round; stroke-width:0.25;"/>
<line x1="119.600000" y1="46.000000" x2="119.600000" y2="82.000000"  style="stroke:black; stroke-linecap:round; stroke-width:0.25;"/>
<line x1="119.600000" y1="82.000000" x2="119.600000" y2="82.000000"  style="stroke:black; stroke-linecap:round; stroke-width:0.25;"/>
<line x1="119.600000" y1="82.000000" x2="123.600000" y2="82.000000"  style="stroke:black; stroke-linecap:round; stroke-width:0.25;"/>
<line x1="119.600000" y1="90.000000" x2="123.600000" y2="90.000000"  style="stroke:black; stroke-linecap:round; stroke-width:0.25;"/>
<line x1="119.600000" y1="98.000000" x2="123.600000" y2="98.000000"  style="stroke:black; stroke-linecap:round; stroke-width:0.25;"/>
<line x1="119.600000" y1="106.000000" x2="123.600000" y2="106.000000"  style="stroke:black; stroke-linecap:round; stroke-width:0.25;"/>
<line x1="119.600000" y1="114.000000" x2="123.600000" y2="114.000000"  style="stroke:black; stroke-linecap:round; stroke-width:0.25;"/>
<line x1="162.300000" y1="98.000000" x2="166.300000" y2="98.000000"  style="stroke:black; stroke-linecap:round; stroke-width:0.25;"/>
<line x1="166.300000" y1="98.000000" x2="174.300000" y2="98.000000"  style="stroke:black; stroke-linecap:round; stroke-width:0.25;"/>
<line x1="166.300000" y1="118.000000" x2="174.300000" y2="118.000000"  style="stroke:black; stroke-linecap:round; stroke-width:0.25;"/>
<line x1="166.300000" y1="192.000000" x2="166.300000" y2="118.000000"  style="stroke:black; stroke-linecap:round; stroke-width:0.25;"/>
<line x1="166.300000" y1="192.000000" x2="166.300000" y2="192.000000"  style="stroke:black; stroke-linecap:round; stroke-width:0.25;"/>
<line x1="174.300000" y1="98.000000" x2="174.300000" y2="110.000000"  style="stroke:black; stroke-linecap:round; stroke-width:0.25;"/>
<line x1="174.300000" y1="110.000000" x2="174.300000" y2="110.000000"  style="stroke:black; stroke-linecap:round; stroke-width:0.25;"/>
<line x1="174.300000" y1="110.000000" x2="178.300000" y2="110.000000"  style="stroke:black; stroke-linecap:round; stroke-width:0.25;"/>
<line x1="174.300000" y1="118.000000" x2="178.300000" y2="118.000000"  style="stroke:black; stroke-linecap:round; stroke-width:0.25;"/>
<line x1="204.100000" y1="114.000000" x2="208.100000" y2="114.000000"  style="stroke:black; stroke-linecap:round; stroke-width:0.25;"/>
<line x1="208.100000" y1="114.000000" x2="208.100000" y2="114.000000"  style="stroke:black; stroke-linecap:round; stroke-width:0.25;"/>
<line x1="208.100000" y1="114.000000" x2="212.100000" y2="114.000000"  style="stroke:black; stroke-linecap:round; stroke-width:0.25;"/>
<line x1="212.100000" y1="114.000000" x2="216.100000" y2="114.000000"  style="stroke:black; stroke-linecap:round; stroke-width:0.25;"/>
<line x1="216.100000" y1="114.000000" x2="226.100000" y2="114.000000"  style="stroke:black; stroke-linecap:round; stroke-width:0.25;"/>
</svg>
