<?xml version="1.0"?>
<svg xmlns="http://www.w3.org/2000/svg" xmlns:xlink="http://www.w3.org/1999/xlink" viewBox="0 0 646.700000 220.000000" width="323.350000mm" height="110.000000mm" version="1.1">
<a xlink:href="brassLipsTabl-0x7fe30aaf5440.svg">
<rect x="1.000000" y="1.000000" width="645.700000" height="219.000000" rx="0" ry="0" style="stroke:none;fill:#cccccc;"/>
<rect x="0.000000" y="0.000000" width="645.700000" height="219.000000" rx="0" ry="0" style="stroke:none;fill:#ffffff;"/>
</a>
<text x="10.000000" y="7.000000" font-family="Arial" font-size="7"></text>
<a xlink:href="sub-0x7fe30aaf2250.svg">
<rect x="161.350000" y="149.000000" width="24.000000" height="24.000000" rx="0" ry="0" style="stroke:none;fill:#cccccc;"/>
<rect x="160.350000" y="148.000000" width="24.000000" height="24.000000" rx="0" ry="0" style="stroke:none;fill:#003366;"/>
</a>
<a xlink:href="sub-0x7fe30aaf2250.svg">
<text x="172.350000" y="162.000000" font-family="Arial" font-size="7" text-anchor="middle" fill="#FFFFFF">sub</text>
</a>
<circle cx="162.350000" cy="150.000000" r="1"/>
<line x1="157.350000" y1="155.000000" x2="160.350000" y2="156.000000"  transform="rotate(0.000000,160.350000,156.000000)" style="stroke: black; stroke-width:0.25;"/>
<line x1="157.350000" y1="157.000000" x2="160.350000" y2="156.000000"  transform="rotate(0.000000,160.350000,156.000000)" style="stroke: black; stroke-width:0.25;"/>
<line x1="157.350000" y1="163.000000" x2="160.350000" y2="164.000000"  transform="rotate(0.000000,160.350000,164.000000)" style="stroke: black; stroke-width:0.25;"/>
<line x1="157.350000" y1="165.000000" x2="160.350000" y2="164.000000"  transform="rotate(0.000000,160.350000,164.000000)" style="stroke: black; stroke-width:0.25;"/>
<a xlink:href="a1-0x7fe30aaf4c00.svg">
<rect x="181.350000" y="109.000000" width="24.000000" height="24.000000" rx="0" ry="0" style="stroke:none;fill:#cccccc;"/>
<rect x="180.350000" y="108.000000" width="24.000000" height="24.000000" rx="0" ry="0" style="stroke:none;fill:#003366;"/>
</a>
<a xlink:href="a1-0x7fe30aaf4c00.svg">
<text x="192.350000" y="122.000000" font-family="Arial" font-size="7" text-anchor="middle" fill="#FFFFFF">a1</text>
</a>
<circle cx="202.350000" cy="130.000000" r="1"/>
<rect x="141.350000" y="113.000000" width="24.000000" height="24.000000" rx="0" ry="0" style="stroke:none;fill:#cccccc;"/>
<rect x="140.350000" y="112.000000" width="24.000000" height="24.000000" rx="0" ry="0" style="stroke:none;fill:#4B71A1;"/>
<text x="152.350000" y="126.000000" font-family="Arial" font-size="7" text-anchor="middle" fill="#FFFFFF">*</text>
<circle cx="162.350000" cy="134.000000" r="1"/>
<line x1="167.350000" y1="127.000000" x2="164.350000" y2="128.000000"  transform="rotate(0.000000,164.350000,128.000000)" style="stroke: black; stroke-width:0.25;"/>
<line x1="167.350000" y1="129.000000" x2="164.350000" y2="128.000000"  transform="rotate(0.000000,164.350000,128.000000)" style="stroke: black; stroke-width:0.25;"/>
<line x1="167.350000" y1="119.000000" x2="164.350000" y2="120.000000"  transform="rotate(0.000000,164.350000,120.000000)" style="stroke: black; stroke-width:0.25;"/>
<line x1="167.350000" y1="121.000000" x2="164.350000" y2="120.000000"  transform="rotate(0.000000,164.350000,120.000000)" style="stroke: black; stroke-width:0.25;"/>
<rect x="228.700000" y="59.000000" width="24.000000" height="24.000000" rx="0" ry="0" style="stroke:none;fill:#cccccc;"/>
<rect x="227.700000" y="58.000000" width="24.000000" height="24.000000" rx="0" ry="0" style="stroke:none;fill:#f44800;"/>
<text x="239.700000" y="72.000000" font-family="Arial" font-size="7" text-anchor="middle" fill="#FFFFFF">1</text>
<circle cx="249.700000" cy="80.000000" r="1"/>
<line x1="218.700000" y1="49.000000" x2="218.700000" y2="91.000000"  style="stroke: black; stroke-linecap:round; stroke-width:0.25; stroke-dasharray:3,3;"/>
<line x1="218.700000" y1="91.000000" x2="260.700000" y2="91.000000"  style="stroke: black; stroke-linecap:round; stroke-width:0.25; stroke-dasharray:3,3;"/>
<line x1="260.700000" y1="91.000000" x2="260.700000" y2="49.000000"  style="stroke: black; stroke-linecap:round; stroke-width:0.25; stroke-dasharray:3,3;"/>
<line x1="218.700000" y1="49.000000" x2="223.700000" y2="49.000000"  style="stroke: black; stroke-linecap:round; stroke-width:0.25; stroke-dasharray:3,3;"/>
<line x1="233.375000" y1="49.000000" x2="260.700000" y2="49.000000"  style="stroke: black; stroke-linecap:round; stroke-width:0.25; stroke-dasharray:3,3;"/>
<text x="223.700000" y="51.000000" font-family="Arial" font-size="7">S</text>
<rect x="178.700000" y="63.000000" width="24.000000" height="24.000000" rx="0" ry="0" style="stroke:none;fill:#cccccc;"/>
<rect x="177.700000" y="62.000000" width="24.000000" height="24.000000" rx="0" ry="0" style="stroke:none;fill:#4B71A1;"/>
<text x="189.700000" y="76.000000" font-family="Arial" font-size="7" text-anchor="middle" fill="#FFFFFF">@</text>
<circle cx="199.700000" cy="84.000000" r="1"/>
<line x1="204.700000" y1="77.000000" x2="201.700000" y2="78.000000"  transform="rotate(0.000000,201.700000,78.000000)" style="stroke: black; stroke-width:0.25;"/>
<line x1="204.700000" y1="79.000000" x2="201.700000" y2="78.000000"  transform="rotate(0.000000,201.700000,78.000000)" style="stroke: black; stroke-width:0.25;"/>
<line x1="204.700000" y1="69.000000" x2="201.700000" y2="70.000000"  transform="rotate(0.000000,201.700000,70.000000)" style="stroke: black; stroke-width:0.25;"/>
<line x1="204.700000" y1="71.000000" x2="201.700000" y2="70.000000"  transform="rotate(0.000000,201.700000,70.000000)" style="stroke: black; stroke-width:0.25;"/>
<rect x="124.000000" y="59.000000" width="38.700000" height="24.000000" rx="0" ry="0" style="stroke:none;fill:#cccccc;"/>
<rect x="123.000000" y="58.000000" width="38.700000" height="24.000000" rx="0" ry="0" style="stroke:none;fill:#f44800;"/>
<text x="142.350000" y="72.000000" font-family="Arial" font-size="7" text-anchor="middle" fill="#FFFFFF">0.994009</text>
<circle cx="159.700000" cy="80.000000" r="1"/>
<rect x="84.000000" y="63.000000" width="24.000000" height="24.000000" rx="0" ry="0" style="stroke:none;fill:#cccccc;"/>
<rect x="83.000000" y="62.000000" width="24.000000" height="24.000000" rx="0" ry="0" style="stroke:none;fill:#4B71A1;"/>
<text x="95.000000" y="76.000000" font-family="Arial" font-size="7" text-anchor="middle" fill="#FFFFFF">*</text>
<circle cx="105.000000" cy="84.000000" r="1"/>
<line x1="110.000000" y1="77.000000" x2="107.000000" y2="78.000000"  transform="rotate(0.000000,107.000000,78.000000)" style="stroke: black; stroke-width:0.25;"/>
<line x1="110.000000" y1="79.000000" x2="107.000000" y2="78.000000"  transform="rotate(0.000000,107.000000,78.000000)" style="stroke: black; stroke-width:0.25;"/>
<line x1="110.000000" y1="69.000000" x2="107.000000" y2="70.000000"  transform="rotate(0.000000,107.000000,70.000000)" style="stroke: black; stroke-width:0.25;"/>
<line x1="110.000000" y1="71.000000" x2="107.000000" y2="70.000000"  transform="rotate(0.000000,107.000000,70.000000)" style="stroke: black; stroke-width:0.25;"/>
<line x1="298.700000" y1="160.000000" x2="298.700000" y2="156.000000"  style="stroke:black; stroke-linecap:round; stroke-width:0.25;"/>
<line x1="298.700000" y1="156.000000" x2="302.700000" y2="156.000000"  style="stroke:black; stroke-linecap:round; stroke-width:0.25;"/>
<line x1="302.700000" y1="156.000000" x2="302.700000" y2="160.000000"  style="stroke:black; stroke-linecap:round; stroke-width:0.25;"/>
<rect x="436.700000" y="43.000000" width="24.000000" height="24.000000" rx="0" ry="0" style="stroke:none;fill:#cccccc;"/>
<rect x="435.700000" y="42.000000" width="24.000000" height="24.000000" rx="0" ry="0" style="stroke:none;fill:#f44800;"/>
<text x="447.700000" y="56.000000" font-family="Arial" font-size="7" text-anchor="middle" fill="#FFFFFF">1</text>
<circle cx="437.700000" cy="44.000000" r="1"/>
<line x1="426.700000" y1="33.000000" x2="426.700000" y2="75.000000"  style="stroke: black; stroke-linecap:round; stroke-width:0.25; stroke-dasharray:3,3;"/>
<line x1="426.700000" y1="75.000000" x2="468.700000" y2="75.000000"  style="stroke: black; stroke-linecap:round; stroke-width:0.25; stroke-dasharray:3,3;"/>
<line x1="468.700000" y1="75.000000" x2="468.700000" y2="33.000000"  style="stroke: black; stroke-linecap:round; stroke-width:0.25; stroke-dasharray:3,3;"/>
<line x1="426.700000" y1="33.000000" x2="431.700000" y2="33.000000"  style="stroke: black; stroke-linecap:round; stroke-width:0.25; stroke-dasharray:3,3;"/>
<line x1="441.375000" y1="33.000000" x2="468.700000" y2="33.000000"  style="stroke: black; stroke-linecap:round; stroke-width:0.25; stroke-dasharray:3,3;"/>
<text x="431.700000" y="35.000000" font-family="Arial" font-size="7">S</text>
<rect x="486.700000" y="39.000000" width="24.000000" height="24.000000" rx="0" ry="0" style="stroke:none;fill:#cccccc;"/>
<rect x="485.700000" y="38.000000" width="24.000000" height="24.000000" rx="0" ry="0" style="stroke:none;fill:#4B71A1;"/>
<text x="497.700000" y="52.000000" font-family="Arial" font-size="7" text-anchor="middle" fill="#FFFFFF">*</text>
<circle cx="487.700000" cy="40.000000" r="1"/>
<line x1="482.700000" y1="45.000000" x2="485.700000" y2="46.000000"  transform="rotate(0.000000,485.700000,46.000000)" style="stroke: black; stroke-width:0.25;"/>
<line x1="482.700000" y1="47.000000" x2="485.700000" y2="46.000000"  transform="rotate(0.000000,485.700000,46.000000)" style="stroke: black; stroke-width:0.25;"/>
<line x1="482.700000" y1="53.000000" x2="485.700000" y2="54.000000"  transform="rotate(0.000000,485.700000,54.000000)" style="stroke: black; stroke-width:0.25;"/>
<line x1="482.700000" y1="55.000000" x2="485.700000" y2="54.000000"  transform="rotate(0.000000,485.700000,54.000000)" style="stroke: black; stroke-width:0.25;"/>
<rect x="386.700000" y="103.000000" width="24.000000" height="24.000000" rx="0" ry="0" style="stroke:none;fill:#cccccc;"/>
<rect x="385.700000" y="102.000000" width="24.000000" height="24.000000" rx="0" ry="0" style="stroke:none;fill:#f44800;"/>
<text x="397.700000" y="116.000000" font-family="Arial" font-size="7" text-anchor="middle" fill="#FFFFFF">1</text>
<circle cx="387.700000" cy="104.000000" r="1"/>
<line x1="376.700000" y1="93.000000" x2="376.700000" y2="135.000000"  style="stroke: black; stroke-linecap:round; stroke-width:0.25; stroke-dasharray:3,3;"/>
<line x1="376.700000" y1="135.000000" x2="418.700000" y2="135.000000"  style="stroke: black; stroke-linecap:round; stroke-width:0.25; stroke-dasharray:3,3;"/>
<line x1="418.700000" y1="135.000000" x2="418.700000" y2="93.000000"  style="stroke: black; stroke-linecap:round; stroke-width:0.25; stroke-dasharray:3,3;"/>
<line x1="376.700000" y1="93.000000" x2="381.700000" y2="93.000000"  style="stroke: black; stroke-linecap:round; stroke-width:0.25; stroke-dasharray:3,3;"/>
<line x1="391.375000" y1="93.000000" x2="418.700000" y2="93.000000"  style="stroke: black; stroke-linecap:round; stroke-width:0.25; stroke-dasharray:3,3;"/>
<text x="381.700000" y="95.000000" font-family="Arial" font-size="7">S</text>
<rect x="436.700000" y="99.000000" width="24.000000" height="24.000000" rx="0" ry="0" style="stroke:none;fill:#cccccc;"/>
<rect x="435.700000" y="98.000000" width="24.000000" height="24.000000" rx="0" ry="0" style="stroke:none;fill:#4B71A1;"/>
<text x="447.700000" y="112.000000" font-family="Arial" font-size="7" text-anchor="middle" fill="#FFFFFF">@</text>
<circle cx="437.700000" cy="100.000000" r="1"/>
<line x1="432.700000" y1="105.000000" x2="435.700000" y2="106.000000"  transform="rotate(0.000000,435.700000,106.000000)" style="stroke: black; stroke-width:0.25;"/>
<line x1="432.700000" y1="107.000000" x2="435.700000" y2="106.000000"  transform="rotate(0.000000,435.700000,106.000000)" style="stroke: black; stroke-width:0.25;"/>
<line x1="432.700000" y1="113.000000" x2="435.700000" y2="114.000000"  transform="rotate(0.000000,435.700000,114.000000)" style="stroke: black; stroke-width:0.25;"/>
<line x1="432.700000" y1="115.000000" x2="435.700000" y2="114.000000"  transform="rotate(0.000000,435.700000,114.000000)" style="stroke: black; stroke-width:0.25;"/>
<rect x="486.700000" y="103.000000" width="24.000000" height="24.000000" rx="0" ry="0" style="stroke:none;fill:#cccccc;"/>
<rect x="485.700000" y="102.000000" width="24.000000" height="24.000000" rx="0" ry="0" style="stroke:none;fill:#f44800;"/>
<text x="497.700000" y="116.000000" font-family="Arial" font-size="7" text-anchor="middle" fill="#FFFFFF">0</text>
<circle cx="487.700000" cy="104.000000" r="1"/>
<line x1="476.700000" y1="93.000000" x2="476.700000" y2="135.000000"  style="stroke: black; stroke-linecap:round; stroke-width:0.25; stroke-dasharray:3,3;"/>
<line x1="476.700000" y1="135.000000" x2="518.700000" y2="135.000000"  style="stroke: black; stroke-linecap:round; stroke-width:0.25; stroke-dasharray:3,3;"/>
<line x1="518.700000" y1="135.000000" x2="518.700000" y2="93.000000"  style="stroke: black; stroke-linecap:round; stroke-width:0.25; stroke-dasharray:3,3;"/>
<line x1="476.700000" y1="93.000000" x2="481.700000" y2="93.000000"  style="stroke: black; stroke-linecap:round; stroke-width:0.25; stroke-dasharray:3,3;"/>
<line x1="518.700000" y1="93.000000" x2="518.700000" y2="93.000000"  style="stroke: black; stroke-linecap:round; stroke-width:0.25; stroke-dasharray:3,3;"/>
<text x="481.700000" y="95.000000" font-family="Arial" font-size="7">lengthTuning</text>
<rect x="536.700000" y="99.000000" width="24.000000" height="24.000000" rx="0" ry="0" style="stroke:none;fill:#cccccc;"/>
<rect x="535.700000" y="98.000000" width="24.000000" height="24.000000" rx="0" ry="0" style="stroke:none;fill:#4B71A1;"/>
<text x="547.700000" y="112.000000" font-family="Arial" font-size="7" text-anchor="middle" fill="#FFFFFF">*</text>
<circle cx="537.700000" cy="100.000000" r="1"/>
<line x1="532.700000" y1="105.000000" x2="535.700000" y2="106.000000"  transform="rotate(0.000000,535.700000,106.000000)" style="stroke: black; stroke-width:0.25;"/>
<line x1="532.700000" y1="107.000000" x2="535.700000" y2="106.000000"  transform="rotate(0.000000,535.700000,106.000000)" style="stroke: black; stroke-width:0.25;"/>
<line x1="532.700000" y1="113.000000" x2="535.700000" y2="114.000000"  transform="rotate(0.000000,535.700000,114.000000)" style="stroke: black; stroke-width:0.25;"/>
<line x1="532.700000" y1="115.000000" x2="535.700000" y2="114.000000"  transform="rotate(0.000000,535.700000,114.000000)" style="stroke: black; stroke-width:0.25;"/>
<rect x="386.700000" y="163.000000" width="24.000000" height="24.000000" rx="0" ry="0" style="stroke:none;fill:#cccccc;"/>
<rect x="385.700000" y="162.000000" width="24.000000" height="24.000000" rx="0" ry="0" style="stroke:none;fill:#f44800;"/>
<text x="397.700000" y="176.000000" font-family="Arial" font-size="7" text-anchor="middle" fill="#FFFFFF">2</text>
<circle cx="387.700000" cy="164.000000" r="1"/>
<rect x="426.700000" y="159.000000" width="24.000000" height="24.000000" rx="0" ry="0" style="stroke:none;fill:#cccccc;"/>
<rect x="425.700000" y="158.000000" width="24.000000" height="24.000000" rx="0" ry="0" style="stroke:none;fill:#4B71A1;"/>
<text x="437.700000" y="172.000000" font-family="Arial" font-size="7" text-anchor="middle" fill="#FFFFFF">@</text>
<circle cx="427.700000" cy="160.000000" r="1"/>
<line x1="422.700000" y1="165.000000" x2="425.700000" y2="166.000000"  transform="rotate(0.000000,425.700000,166.000000)" style="stroke: black; stroke-width:0.25;"/>
<line x1="422.700000" y1="167.000000" x2="425.700000" y2="166.000000"  transform="rotate(0.000000,425.700000,166.000000)" style="stroke: black; stroke-width:0.25;"/>
<line x1="422.700000" y1="173.000000" x2="425.700000" y2="174.000000"  transform="rotate(0.000000,425.700000,174.000000)" style="stroke: black; stroke-width:0.25;"/>
<line x1="422.700000" y1="175.000000" x2="425.700000" y2="174.000000"  transform="rotate(0.000000,425.700000,174.000000)" style="stroke: black; stroke-width:0.25;"/>
<rect x="476.700000" y="163.000000" width="24.000000" height="24.000000" rx="0" ry="0" style="stroke:none;fill:#cccccc;"/>
<rect x="475.700000" y="162.000000" width="24.000000" height="24.000000" rx="0" ry="0" style="stroke:none;fill:#f44800;"/>
<text x="487.700000" y="176.000000" font-family="Arial" font-size="7" text-anchor="middle" fill="#FFFFFF">0</text>
<circle cx="477.700000" cy="164.000000" r="1"/>
<line x1="466.700000" y1="153.000000" x2="466.700000" y2="195.000000"  style="stroke: black; stroke-linecap:round; stroke-width:0.25; stroke-dasharray:3,3;"/>
<line x1="466.700000" y1="195.000000" x2="508.700000" y2="195.000000"  style="stroke: black; stroke-linecap:round; stroke-width:0.25; stroke-dasharray:3,3;"/>
<line x1="508.700000" y1="195.000000" x2="508.700000" y2="153.000000"  style="stroke: black; stroke-linecap:round; stroke-width:0.25; stroke-dasharray:3,3;"/>
<line x1="466.700000" y1="153.000000" x2="471.700000" y2="153.000000"  style="stroke: black; stroke-linecap:round; stroke-width:0.25; stroke-dasharray:3,3;"/>
<line x1="508.700000" y1="153.000000" x2="508.700000" y2="153.000000"  style="stroke: black; stroke-linecap:round; stroke-width:0.25; stroke-dasharray:3,3;"/>
<text x="471.700000" y="155.000000" font-family="Arial" font-size="7">lengthTuning</text>
<rect x="526.700000" y="159.000000" width="24.000000" height="24.000000" rx="0" ry="0" style="stroke:none;fill:#cccccc;"/>
<rect x="525.700000" y="158.000000" width="24.000000" height="24.000000" rx="0" ry="0" style="stroke:none;fill:#4B71A1;"/>
<text x="537.700000" y="172.000000" font-family="Arial" font-size="7" text-anchor="middle" fill="#FFFFFF">*</text>
<circle cx="527.700000" cy="160.000000" r="1"/>
<line x1="522.700000" y1="165.000000" x2="525.700000" y2="166.000000"  transform="rotate(0.000000,525.700000,166.000000)" style="stroke: black; stroke-width:0.25;"/>
<line x1="522.700000" y1="167.000000" x2="525.700000" y2="166.000000"  transform="rotate(0.000000,525.700000,166.000000)" style="stroke: black; stroke-width:0.25;"/>
<line x1="522.700000" y1="173.000000" x2="525.700000" y2="174.000000"  transform="rotate(0.000000,525.700000,174.000000)" style="stroke: black; stroke-width:0.25;"/>
<line x1="522.700000" y1="175.000000" x2="525.700000" y2="174.000000"  transform="rotate(0.000000,525.700000,174.000000)" style="stroke: black; stroke-width:0.25;"/>
<line x1="15.000000" y1="15.000000" x2="15.000000" y2="205.000000"  style="stroke: black; stroke-linecap:round; stroke-width:0.25; stroke-dasharray:3,3;"/>
<line x1="15.000000" y1="205.000000" x2="631.700000" y2="205.000000"  style="stroke: black; stroke-linecap:round; stroke-width:0.25; stroke-dasharray:3,3;"/>
<line x1="631.700000" y1="205.000000" x2="631.700000" y2="15.000000"  style="stroke: black; stroke-linecap:round; stroke-width:0.25; stroke-dasharray:3,3;"/>
<line x1="15.000000" y1="15.000000" x2="20.000000" y2="15.000000"  style="stroke: black; stroke-linecap:round; stroke-width:0.25; stroke-dasharray:3,3;"/>
<line x1="55.475000" y1="15.000000" x2="631.700000" y2="15.000000"  style="stroke: black; stroke-linecap:round; stroke-width:0.25; stroke-dasharray:3,3;"/>
<text x="20.000000" y="17.000000" font-family="Arial" font-size="7">lipFilter</text>
<line x1="633.700000" y1="109.000000" x2="636.700000" y2="110.000000"  transform="rotate(0.000000,636.700000,110.000000)" style="stroke: black; stroke-width:0.25;"/>
<line x1="633.700000" y1="111.000000" x2="636.700000" y2="110.000000"  transform="rotate(0.000000,636.700000,110.000000)" style="stroke: black; stroke-width:0.25;"/>
<line x1="10.000000" y1="110.000000" x2="20.000000" y2="110.000000"  style="stroke:black; stroke-linecap:round; stroke-width:0.25;"/>
<line x1="20.000000" y1="110.000000" x2="24.000000" y2="110.000000"  style="stroke:black; stroke-linecap:round; stroke-width:0.25;"/>
<line x1="24.000000" y1="110.000000" x2="28.000000" y2="110.000000"  style="stroke:black; stroke-linecap:round; stroke-width:0.25;"/>
<line x1="28.000000" y1="110.000000" x2="36.000000" y2="110.000000"  style="stroke:black; stroke-linecap:round; stroke-width:0.25;"/>
<line x1="36.000000" y1="110.000000" x2="36.000000" y2="164.000000"  style="stroke:black; stroke-linecap:round; stroke-width:0.25;"/>
<line x1="36.000000" y1="164.000000" x2="36.000000" y2="164.000000"  style="stroke:black; stroke-linecap:round; stroke-width:0.25;"/>
<line x1="36.000000" y1="164.000000" x2="44.000000" y2="164.000000"  style="stroke:black; stroke-linecap:round; stroke-width:0.25;"/>
<line x1="44.000000" y1="94.000000" x2="44.000000" y2="94.000000"  style="stroke:black; stroke-linecap:round; stroke-width:0.25;"/>
<line x1="44.000000" y1="94.000000" x2="44.000000" y2="156.000000"  style="stroke:black; stroke-linecap:round; stroke-width:0.25;"/>
<line x1="44.000000" y1="156.000000" x2="44.000000" y2="156.000000"  style="stroke:black; stroke-linecap:round; stroke-width:0.25;"/>
<line x1="44.000000" y1="156.000000" x2="156.350000" y2="156.000000"  style="stroke:black; stroke-linecap:round; stroke-width:0.25;"/>
<line x1="44.000000" y1="164.000000" x2="156.350000" y2="164.000000"  style="stroke:black; stroke-linecap:round; stroke-width:0.25;"/>
<line x1="48.000000" y1="94.000000" x2="44.000000" y2="94.000000"  style="stroke:black; stroke-linecap:round; stroke-width:0.25;"/>
<line x1="52.000000" y1="94.000000" x2="48.000000" y2="94.000000"  style="stroke:black; stroke-linecap:round; stroke-width:0.25;"/>
<line x1="79.000000" y1="74.000000" x2="52.000000" y2="94.000000"  style="stroke:black; stroke-linecap:round; stroke-width:0.25;"/>
<line x1="79.000000" y1="124.000000" x2="52.000000" y2="94.000000"  style="stroke:black; stroke-linecap:round; stroke-width:0.25;"/>
<line x1="83.000000" y1="74.000000" x2="79.000000" y2="74.000000"  style="stroke:black; stroke-linecap:round; stroke-width:0.25;"/>
<line x1="111.000000" y1="70.000000" x2="107.000000" y2="70.000000"  style="stroke:black; stroke-linecap:round; stroke-width:0.25;"/>
<line x1="111.000000" y1="78.000000" x2="107.000000" y2="78.000000"  style="stroke:black; stroke-linecap:round; stroke-width:0.25;"/>
<line x1="111.000000" y1="78.000000" x2="111.000000" y2="78.000000"  style="stroke:black; stroke-linecap:round; stroke-width:0.25;"/>
<line x1="111.000000" y1="90.000000" x2="111.000000" y2="78.000000"  style="stroke:black; stroke-linecap:round; stroke-width:0.25;"/>
<line x1="119.000000" y1="70.000000" x2="111.000000" y2="70.000000"  style="stroke:black; stroke-linecap:round; stroke-width:0.25;"/>
<line x1="119.000000" y1="90.000000" x2="111.000000" y2="90.000000"  style="stroke:black; stroke-linecap:round; stroke-width:0.25;"/>
<line x1="123.000000" y1="70.000000" x2="119.000000" y2="70.000000"  style="stroke:black; stroke-linecap:round; stroke-width:0.25;"/>
<line x1="136.350000" y1="124.000000" x2="79.000000" y2="124.000000"  style="stroke:black; stroke-linecap:round; stroke-width:0.25;"/>
<line x1="140.350000" y1="124.000000" x2="136.350000" y2="124.000000"  style="stroke:black; stroke-linecap:round; stroke-width:0.25;"/>
<line x1="142.350000" y1="90.000000" x2="119.000000" y2="90.000000"  style="stroke:black; stroke-linecap:round; stroke-width:0.25;"/>
<line x1="156.350000" y1="156.000000" x2="160.350000" y2="156.000000"  style="stroke:black; stroke-linecap:round; stroke-width:0.25;"/>
<line x1="156.350000" y1="164.000000" x2="160.350000" y2="164.000000"  style="stroke:black; stroke-linecap:round; stroke-width:0.25;"/>
<line x1="165.700000" y1="90.000000" x2="142.350000" y2="90.000000"  style="stroke:black; stroke-linecap:round; stroke-width:0.25;"/>
<line x1="168.350000" y1="120.000000" x2="164.350000" y2="120.000000"  style="stroke:black; stroke-linecap:round; stroke-width:0.25;"/>
<line x1="168.350000" y1="128.000000" x2="164.350000" y2="128.000000"  style="stroke:black; stroke-linecap:round; stroke-width:0.25;"/>
<line x1="168.350000" y1="128.000000" x2="168.350000" y2="128.000000"  style="stroke:black; stroke-linecap:round; stroke-width:0.25;"/>
<line x1="168.350000" y1="140.000000" x2="168.350000" y2="128.000000"  style="stroke:black; stroke-linecap:round; stroke-width:0.25;"/>
<line x1="173.700000" y1="74.000000" x2="173.700000" y2="74.000000"  style="stroke:black; stroke-linecap:round; stroke-width:0.25;"/>
<line x1="173.700000" y1="74.000000" x2="173.700000" y2="90.000000"  style="stroke:black; stroke-linecap:round; stroke-width:0.25;"/>
<line x1="173.700000" y1="90.000000" x2="165.700000" y2="90.000000"  style="stroke:black; stroke-linecap:round; stroke-width:0.25;"/>
<line x1="176.350000" y1="120.000000" x2="168.350000" y2="120.000000"  style="stroke:black; stroke-linecap:round; stroke-width:0.25;"/>
<line x1="176.350000" y1="140.000000" x2="168.350000" y2="140.000000"  style="stroke:black; stroke-linecap:round; stroke-width:0.25;"/>
<line x1="177.700000" y1="74.000000" x2="173.700000" y2="74.000000"  style="stroke:black; stroke-linecap:round; stroke-width:0.25;"/>
<line x1="180.350000" y1="120.000000" x2="176.350000" y2="120.000000"  style="stroke:black; stroke-linecap:round; stroke-width:0.25;"/>
<line x1="184.350000" y1="160.000000" x2="188.350000" y2="160.000000"  style="stroke:black; stroke-linecap:round; stroke-width:0.25;"/>
<line x1="188.350000" y1="160.000000" x2="300.700000" y2="160.000000"  style="stroke:black; stroke-linecap:round; stroke-width:0.25;"/>
<line x1="192.350000" y1="140.000000" x2="176.350000" y2="140.000000"  style="stroke:black; stroke-linecap:round; stroke-width:0.25;"/>
<line x1="205.700000" y1="70.000000" x2="201.700000" y2="70.000000"  style="stroke:black; stroke-linecap:round; stroke-width:0.25;"/>
<line x1="205.700000" y1="78.000000" x2="201.700000" y2="78.000000"  style="stroke:black; stroke-linecap:round; stroke-width:0.25;"/>
<line x1="205.700000" y1="78.000000" x2="205.700000" y2="78.000000"  style="stroke:black; stroke-linecap:round; stroke-width:0.25;"/>
<line x1="205.700000" y1="100.000000" x2="205.700000" y2="78.000000"  style="stroke:black; stroke-linecap:round; stroke-width:0.25;"/>
<line x1="208.350000" y1="140.000000" x2="192.350000" y2="140.000000"  style="stroke:black; stroke-linecap:round; stroke-width:0.25;"/>
<line x1="213.700000" y1="70.000000" x2="205.700000" y2="70.000000"  style="stroke:black; stroke-linecap:round; stroke-width:0.25;"/>
<line x1="213.700000" y1="100.000000" x2="205.700000" y2="100.000000"  style="stroke:black; stroke-linecap:round; stroke-width:0.25;"/>
<line x1="223.700000" y1="70.000000" x2="213.700000" y2="70.000000"  style="stroke:black; stroke-linecap:round; stroke-width:0.25;"/>
<line x1="227.700000" y1="70.000000" x2="223.700000" y2="70.000000"  style="stroke:black; stroke-linecap:round; stroke-width:0.25;"/>
<line x1="239.700000" y1="100.000000" x2="213.700000" y2="100.000000"  style="stroke:black; stroke-linecap:round; stroke-width:0.25;"/>
<line x1="265.700000" y1="100.000000" x2="239.700000" y2="100.000000"  style="stroke:black; stroke-linecap:round; stroke-width:0.25;"/>
<line x1="265.700000" y1="140.000000" x2="208.350000" y2="140.000000"  style="stroke:black; stroke-linecap:round; stroke-width:0.25;"/>
<line x1="292.700000" y1="94.000000" x2="265.700000" y2="100.000000"  style="stroke:black; stroke-linecap:round; stroke-width:0.25;"/>
<line x1="292.700000" y1="94.000000" x2="265.700000" y2="140.000000"  style="stroke:black; stroke-linecap:round; stroke-width:0.25;"/>
<line x1="296.700000" y1="94.000000" x2="292.700000" y2="94.000000"  style="stroke:black; stroke-linecap:round; stroke-width:0.25;"/>
<line x1="300.700000" y1="94.000000" x2="296.700000" y2="94.000000"  style="stroke:black; stroke-linecap:round; stroke-width:0.25;"/>
<line x1="300.700000" y1="94.000000" x2="300.700000" y2="94.000000"  style="stroke:black; stroke-linecap:round; stroke-width:0.25;"/>
<line x1="300.700000" y1="156.000000" x2="300.700000" y2="94.000000"  style="stroke:black; stroke-linecap:round; stroke-width:0.25;"/>
<line x1="300.700000" y1="160.000000" x2="302.700000" y2="160.000000"  style="stroke:black; stroke-linecap:round; stroke-width:0.25;"/>
<line x1="302.700000" y1="160.000000" x2="308.700000" y2="160.000000"  style="stroke:black; stroke-linecap:round; stroke-width:0.25;"/>
<line x1="308.700000" y1="110.000000" x2="316.700000" y2="110.000000"  style="stroke:black; stroke-linecap:round; stroke-width:0.25;"/>
<line x1="308.700000" y1="160.000000" x2="308.700000" y2="110.000000"  style="stroke:black; stroke-linecap:round; stroke-width:0.25;"/>
<line x1="308.700000" y1="160.000000" x2="308.700000" y2="160.000000"  style="stroke:black; stroke-linecap:round; stroke-width:0.25;"/>
<line x1="316.700000" y1="110.000000" x2="320.700000" y2="110.000000"  style="stroke:black; stroke-linecap:round; stroke-width:0.25;"/>
<line x1="320.700000" y1="110.000000" x2="324.700000" y2="110.000000"  style="stroke:black; stroke-linecap:round; stroke-width:0.25;"/>
<line x1="324.700000" y1="110.000000" x2="371.700000" y2="24.000000"  style="stroke:black; stroke-linecap:round; stroke-width:0.25;"/>
<line x1="324.700000" y1="110.000000" x2="371.700000" y2="84.000000"  style="stroke:black; stroke-linecap:round; stroke-width:0.25;"/>
<line x1="324.700000" y1="110.000000" x2="371.700000" y2="154.000000"  style="stroke:black; stroke-linecap:round; stroke-width:0.25;"/>
<line x1="371.700000" y1="24.000000" x2="421.700000" y2="24.000000"  style="stroke:black; stroke-linecap:round; stroke-width:0.25;"/>
<line x1="371.700000" y1="84.000000" x2="397.700000" y2="84.000000"  style="stroke:black; stroke-linecap:round; stroke-width:0.25;"/>
<line x1="371.700000" y1="154.000000" x2="381.700000" y2="154.000000"  style="stroke:black; stroke-linecap:round; stroke-width:0.25;"/>
<line x1="381.700000" y1="154.000000" x2="397.700000" y2="154.000000"  style="stroke:black; stroke-linecap:round; stroke-width:0.25;"/>
<line x1="397.700000" y1="84.000000" x2="423.700000" y2="84.000000"  style="stroke:black; stroke-linecap:round; stroke-width:0.25;"/>
<line x1="397.700000" y1="154.000000" x2="413.700000" y2="154.000000"  style="stroke:black; stroke-linecap:round; stroke-width:0.25;"/>
<line x1="409.700000" y1="114.000000" x2="413.700000" y2="114.000000"  style="stroke:black; stroke-linecap:round; stroke-width:0.25;"/>
<line x1="409.700000" y1="174.000000" x2="413.700000" y2="174.000000"  style="stroke:black; stroke-linecap:round; stroke-width:0.25;"/>
<line x1="413.700000" y1="114.000000" x2="423.700000" y2="114.000000"  style="stroke:black; stroke-linecap:round; stroke-width:0.25;"/>
<line x1="413.700000" y1="154.000000" x2="421.700000" y2="154.000000"  style="stroke:black; stroke-linecap:round; stroke-width:0.25;"/>
<line x1="413.700000" y1="174.000000" x2="421.700000" y2="174.000000"  style="stroke:black; stroke-linecap:round; stroke-width:0.25;"/>
<line x1="421.700000" y1="24.000000" x2="447.700000" y2="24.000000"  style="stroke:black; stroke-linecap:round; stroke-width:0.25;"/>
<line x1="421.700000" y1="154.000000" x2="421.700000" y2="166.000000"  style="stroke:black; stroke-linecap:round; stroke-width:0.25;"/>
<line x1="421.700000" y1="166.000000" x2="421.700000" y2="166.000000"  style="stroke:black; stroke-linecap:round; stroke-width:0.25;"/>
<line x1="421.700000" y1="166.000000" x2="425.700000" y2="166.000000"  style="stroke:black; stroke-linecap:round; stroke-width:0.25;"/>
<line x1="421.700000" y1="174.000000" x2="425.700000" y2="174.000000"  style="stroke:black; stroke-linecap:round; stroke-width:0.25;"/>
<line x1="423.700000" y1="84.000000" x2="431.700000" y2="84.000000"  style="stroke:black; stroke-linecap:round; stroke-width:0.25;"/>
<line x1="423.700000" y1="114.000000" x2="431.700000" y2="114.000000"  style="stroke:black; stroke-linecap:round; stroke-width:0.25;"/>
<line x1="431.700000" y1="84.000000" x2="431.700000" y2="106.000000"  style="stroke:black; stroke-linecap:round; stroke-width:0.25;"/>
<line x1="431.700000" y1="106.000000" x2="431.700000" y2="106.000000"  style="stroke:black; stroke-linecap:round; stroke-width:0.25;"/>
<line x1="431.700000" y1="106.000000" x2="435.700000" y2="106.000000"  style="stroke:black; stroke-linecap:round; stroke-width:0.25;"/>
<line x1="431.700000" y1="114.000000" x2="435.700000" y2="114.000000"  style="stroke:black; stroke-linecap:round; stroke-width:0.25;"/>
<line x1="447.700000" y1="24.000000" x2="473.700000" y2="24.000000"  style="stroke:black; stroke-linecap:round; stroke-width:0.25;"/>
<line x1="449.700000" y1="170.000000" x2="453.700000" y2="170.000000"  style="stroke:black; stroke-linecap:round; stroke-width:0.25;"/>
<line x1="453.700000" y1="144.000000" x2="461.700000" y2="144.000000"  style="stroke:black; stroke-linecap:round; stroke-width:0.25;"/>
<line x1="453.700000" y1="170.000000" x2="453.700000" y2="144.000000"  style="stroke:black; stroke-linecap:round; stroke-width:0.25;"/>
<line x1="453.700000" y1="170.000000" x2="453.700000" y2="170.000000"  style="stroke:black; stroke-linecap:round; stroke-width:0.25;"/>
<line x1="459.700000" y1="54.000000" x2="463.700000" y2="54.000000"  style="stroke:black; stroke-linecap:round; stroke-width:0.25;"/>
<line x1="459.700000" y1="110.000000" x2="463.700000" y2="110.000000"  style="stroke:black; stroke-linecap:round; stroke-width:0.25;"/>
<line x1="461.700000" y1="144.000000" x2="487.700000" y2="144.000000"  style="stroke:black; stroke-linecap:round; stroke-width:0.25;"/>
<line x1="463.700000" y1="54.000000" x2="473.700000" y2="54.000000"  style="stroke:black; stroke-linecap:round; stroke-width:0.25;"/>
<line x1="463.700000" y1="84.000000" x2="471.700000" y2="84.000000"  style="stroke:black; stroke-linecap:round; stroke-width:0.25;"/>
<line x1="463.700000" y1="110.000000" x2="463.700000" y2="84.000000"  style="stroke:black; stroke-linecap:round; stroke-width:0.25;"/>
<line x1="463.700000" y1="110.000000" x2="463.700000" y2="110.000000"  style="stroke:black; stroke-linecap:round; stroke-width:0.25;"/>
<line x1="471.700000" y1="84.000000" x2="497.700000" y2="84.000000"  style="stroke:black; stroke-linecap:round; stroke-width:0.25;"/>
<line x1="473.700000" y1="24.000000" x2="481.700000" y2="24.000000"  style="stroke:black; stroke-linecap:round; stroke-width:0.25;"/>
<line x1="473.700000" y1="54.000000" x2="481.700000" y2="54.000000"  style="stroke:black; stroke-linecap:round; stroke-width:0.25;"/>
<line x1="481.700000" y1="24.000000" x2="481.700000" y2="46.000000"  style="stroke:black; stroke-linecap:round; stroke-width:0.25;"/>
<line x1="481.700000" y1="46.000000" x2="481.700000" y2="46.000000"  style="stroke:black; stroke-linecap:round; stroke-width:0.25;"/>
<line x1="481.700000" y1="46.000000" x2="485.700000" y2="46.000000"  style="stroke:black; stroke-linecap:round; stroke-width:0.25;"/>
<line x1="481.700000" y1="54.000000" x2="485.700000" y2="54.000000"  style="stroke:black; stroke-linecap:round; stroke-width:0.25;"/>
<line x1="487.700000" y1="144.000000" x2="513.700000" y2="144.000000"  style="stroke:black; stroke-linecap:round; stroke-width:0.25;"/>
<line x1="497.700000" y1="84.000000" x2="523.700000" y2="84.000000"  style="stroke:black; stroke-linecap:round; stroke-width:0.25;"/>
<line x1="499.700000" y1="174.000000" x2="503.700000" y2="174.000000"  style="stroke:black; stroke-linecap:round; stroke-width:0.25;"/>
<line x1="503.700000" y1="174.000000" x2="513.700000" y2="174.000000"  style="stroke:black; stroke-linecap:round; stroke-width:0.25;"/>
<line x1="509.700000" y1="50.000000" x2="513.700000" y2="50.000000"  style="stroke:black; stroke-linecap:round; stroke-width:0.25;"/>
<line x1="509.700000" y1="114.000000" x2="513.700000" y2="114.000000"  style="stroke:black; stroke-linecap:round; stroke-width:0.25;"/>
<line x1="513.700000" y1="50.000000" x2="563.700000" y2="50.000000"  style="stroke:black; stroke-linecap:round; stroke-width:0.25;"/>
<line x1="513.700000" y1="114.000000" x2="523.700000" y2="114.000000"  style="stroke:black; stroke-linecap:round; stroke-width:0.25;"/>
<line x1="513.700000" y1="144.000000" x2="521.700000" y2="144.000000"  style="stroke:black; stroke-linecap:round; stroke-width:0.25;"/>
<line x1="513.700000" y1="174.000000" x2="521.700000" y2="174.000000"  style="stroke:black; stroke-linecap:round; stroke-width:0.25;"/>
<line x1="521.700000" y1="144.000000" x2="521.700000" y2="166.000000"  style="stroke:black; stroke-linecap:round; stroke-width:0.25;"/>
<line x1="521.700000" y1="166.000000" x2="521.700000" y2="166.000000"  style="stroke:black; stroke-linecap:round; stroke-width:0.25;"/>
<line x1="521.700000" y1="166.000000" x2="525.700000" y2="166.000000"  style="stroke:black; stroke-linecap:round; stroke-width:0.25;"/>
<line x1="521.700000" y1="174.000000" x2="525.700000" y2="174.000000"  style="stroke:black; stroke-linecap:round; stroke-width:0.25;"/>
<line x1="523.700000" y1="84.000000" x2="531.700000" y2="84.000000"  style="stroke:black; stroke-linecap:round; stroke-width:0.25;"/>
<line x1="523.700000" y1="114.000000" x2="531.700000" y2="114.000000"  style="stroke:black; stroke-linecap:round; stroke-width:0.25;"/>
<line x1="531.700000" y1="84.000000" x2="531.700000" y2="106.000000"  style="stroke:black; stroke-linecap:round; stroke-width:0.25;"/>
<line x1="531.700000" y1="106.000000" x2="531.700000" y2="106.000000"  style="stroke:black; stroke-linecap:round; stroke-width:0.25;"/>
<line x1="531.700000" y1="106.000000" x2="535.700000" y2="106.000000"  style="stroke:black; stroke-linecap:round; stroke-width:0.25;"/>
<line x1="531.700000" y1="114.000000" x2="535.700000" y2="114.000000"  style="stroke:black; stroke-linecap:round; stroke-width:0.25;"/>
<line x1="549.700000" y1="170.000000" x2="553.700000" y2="170.000000"  style="stroke:black; stroke-linecap:round; stroke-width:0.25;"/>
<line x1="553.700000" y1="170.000000" x2="563.700000" y2="170.000000"  style="stroke:black; stroke-linecap:round; stroke-width:0.25;"/>
<line x1="559.700000" y1="110.000000" x2="563.700000" y2="110.000000"  style="stroke:black; stroke-linecap:round; stroke-width:0.25;"/>
<line x1="563.700000" y1="50.000000" x2="610.700000" y2="110.000000"  style="stroke:black; stroke-linecap:round; stroke-width:0.25;"/>
<line x1="563.700000" y1="110.000000" x2="610.700000" y2="110.000000"  style="stroke:black; stroke-linecap:round; stroke-width:0.25;"/>
<line x1="563.700000" y1="170.000000" x2="610.700000" y2="110.000000"  style="stroke:black; stroke-linecap:round; stroke-width:0.25;"/>
<line x1="610.700000" y1="110.000000" x2="614.700000" y2="110.000000"  style="stroke:black; stroke-linecap:round; stroke-width:0.25;"/>
<line x1="614.700000" y1="110.000000" x2="618.700000" y2="110.000000"  style="stroke:black; stroke-linecap:round; stroke-width:0.25;"/>
<line x1="618.700000" y1="110.000000" x2="618.700000" y2="110.000000"  style="stroke:black; stroke-linecap:round; stroke-width:0.25;"/>
<line x1="618.700000" y1="110.000000" x2="622.700000" y2="110.000000"  style="stroke:black; stroke-linecap:round; stroke-width:0.25;"/>
<line x1="622.700000" y1="110.000000" x2="626.700000" y2="110.000000"  style="stroke:black; stroke-linecap:round; stroke-width:0.25;"/>
<line x1="626.700000" y1="110.000000" x2="636.700000" y2="110.000000"  style="stroke:black; stroke-linecap:round; stroke-width:0.25;"/>
</svg>
