<?xml version="1.0"?>
<svg xmlns="http://www.w3.org/2000/svg" xmlns:xlink="http://www.w3.org/1999/xlink" viewBox="0 0 273.000000 120.080000" width="136.500000mm" height="60.040000mm" version="1.1">
<a xlink:href="brassChain-0x7f9f8ada6f50.svg">
<rect x="1.000000" y="1.000000" width="272.000000" height="119.080000" rx="0" ry="0" style="stroke:none;fill:#cccccc;"/>
<rect x="0.000000" y="0.000000" width="272.000000" height="119.080000" rx="0" ry="0" style="stroke:none;fill:#ffffff;"/>
</a>
<text x="10.000000" y="7.000000" font-family="Arial" font-size="7"></text>
<rect x="125.500000" y="57.080000" width="24.000000" height="24.000000" rx="0" ry="0" style="stroke:none;fill:#cccccc;"/>
<rect x="124.500000" y="56.080000" width="24.000000" height="24.000000" rx="0" ry="0" style="stroke:none;fill:#4B71A1;"/>
<text x="136.500000" y="70.080000" font-family="Arial" font-size="7" text-anchor="middle" fill="#FFFFFF">+</text>
<circle cx="126.500000" cy="58.080000" r="1"/>
<line x1="121.500000" y1="63.080000" x2="124.500000" y2="64.080000"  transform="rotate(0.000000,124.500000,64.080000)" style="stroke: black; stroke-width:0.25;"/>
<line x1="121.500000" y1="65.080000" x2="124.500000" y2="64.080000"  transform="rotate(0.000000,124.500000,64.080000)" style="stroke: black; stroke-width:0.25;"/>
<line x1="121.500000" y1="71.080000" x2="124.500000" y2="72.080000"  transform="rotate(0.000000,124.500000,72.080000)" style="stroke: black; stroke-width:0.25;"/>
<line x1="121.500000" y1="73.080000" x2="124.500000" y2="72.080000"  transform="rotate(0.000000,124.500000,72.080000)" style="stroke: black; stroke-width:0.25;"/>
<a xlink:href="smooth-0x7f9f89042c50.svg">
<rect x="73.000000" y="25.000000" width="129.000000" height="24.000000" rx="0" ry="0" style="stroke:none;fill:#cccccc;"/>
<rect x="72.000000" y="24.000000" width="129.000000" height="24.000000" rx="0" ry="0" style="stroke:none;fill:#003366;"/>
</a>
<a xlink:href="smooth-0x7f9f89042c50.svg">
<text x="136.500000" y="38.000000" font-family="Arial" font-size="7" text-anchor="middle" fill="#FFFFFF">smooth(hslide...,0.999f : *))</text>
</a>
<circle cx="199.000000" cy="46.000000" r="1"/>
<line x1="204.000000" y1="35.000000" x2="201.000000" y2="36.000000"  transform="rotate(0.000000,201.000000,36.000000)" style="stroke: black; stroke-width:0.25;"/>
<line x1="204.000000" y1="37.000000" x2="201.000000" y2="36.000000"  transform="rotate(0.000000,201.000000,36.000000)" style="stroke: black; stroke-width:0.25;"/>
<line x1="203.000000" y1="68.080000" x2="203.000000" y2="64.080000"  style="stroke:black; stroke-linecap:round; stroke-width:0.25;"/>
<line x1="203.000000" y1="64.080000" x2="207.000000" y2="64.080000"  style="stroke:black; stroke-linecap:round; stroke-width:0.25;"/>
<line x1="207.000000" y1="64.080000" x2="207.000000" y2="68.080000"  style="stroke:black; stroke-linecap:round; stroke-width:0.25;"/>
<line x1="211.000000" y1="76.080000" x2="211.000000" y2="72.080000"  style="stroke:black; stroke-linecap:round; stroke-width:0.25;"/>
<line x1="211.000000" y1="72.080000" x2="215.000000" y2="72.080000"  style="stroke:black; stroke-linecap:round; stroke-width:0.25;"/>
<line x1="215.000000" y1="72.080000" x2="215.000000" y2="76.080000"  style="stroke:black; stroke-linecap:round; stroke-width:0.25;"/>
<line x1="15.000000" y1="15.000000" x2="15.000000" y2="105.080000"  style="stroke: black; stroke-linecap:round; stroke-width:0.25; stroke-dasharray:3,3;"/>
<line x1="15.000000" y1="105.080000" x2="258.000000" y2="105.080000"  style="stroke: black; stroke-linecap:round; stroke-width:0.25; stroke-dasharray:3,3;"/>
<line x1="258.000000" y1="105.080000" x2="258.000000" y2="15.000000"  style="stroke: black; stroke-linecap:round; stroke-width:0.25; stroke-dasharray:3,3;"/>
<line x1="15.000000" y1="15.000000" x2="20.000000" y2="15.000000"  style="stroke: black; stroke-linecap:round; stroke-width:0.25; stroke-dasharray:3,3;"/>
<line x1="119.975000" y1="15.000000" x2="258.000000" y2="15.000000"  style="stroke: black; stroke-linecap:round; stroke-width:0.25; stroke-dasharray:3,3;"/>
<text x="20.000000" y="17.000000" font-family="Arial" font-size="7">wBell(hslider...,0.999f : *))</text>
<line x1="260.000000" y1="51.040000" x2="263.000000" y2="52.040000"  transform="rotate(0.000000,263.000000,52.040000)" style="stroke: black; stroke-width:0.25;"/>
<line x1="260.000000" y1="53.040000" x2="263.000000" y2="52.040000"  transform="rotate(0.000000,263.000000,52.040000)" style="stroke: black; stroke-width:0.25;"/>
<line x1="260.000000" y1="59.040000" x2="263.000000" y2="60.040000"  transform="rotate(0.000000,263.000000,60.040000)" style="stroke: black; stroke-width:0.25;"/>
<line x1="260.000000" y1="61.040000" x2="263.000000" y2="60.040000"  transform="rotate(0.000000,263.000000,60.040000)" style="stroke: black; stroke-width:0.25;"/>
<line x1="260.000000" y1="67.040000" x2="263.000000" y2="68.040000"  transform="rotate(0.000000,263.000000,68.040000)" style="stroke: black; stroke-width:0.25;"/>
<line x1="260.000000" y1="69.040000" x2="263.000000" y2="68.040000"  transform="rotate(0.000000,263.000000,68.040000)" style="stroke: black; stroke-width:0.25;"/>
<line x1="10.000000" y1="52.040000" x2="20.000000" y2="52.040000"  style="stroke:black; stroke-linecap:round; stroke-width:0.25;"/>
<line x1="10.000000" y1="60.040000" x2="20.000000" y2="60.040000"  style="stroke:black; stroke-linecap:round; stroke-width:0.25;"/>
<line x1="10.000000" y1="68.040000" x2="20.000000" y2="68.040000"  style="stroke:black; stroke-linecap:round; stroke-width:0.25;"/>
<line x1="20.000000" y1="52.040000" x2="24.000000" y2="52.040000"  style="stroke:black; stroke-linecap:round; stroke-width:0.25;"/>
<line x1="20.000000" y1="60.040000" x2="24.000000" y2="60.040000"  style="stroke:black; stroke-linecap:round; stroke-width:0.25;"/>
<line x1="20.000000" y1="68.040000" x2="24.000000" y2="68.040000"  style="stroke:black; stroke-linecap:round; stroke-width:0.25;"/>
<line x1="24.000000" y1="52.040000" x2="28.000000" y2="52.040000"  style="stroke:black; stroke-linecap:round; stroke-width:0.25;"/>
<line x1="24.000000" y1="60.040000" x2="28.000000" y2="60.040000"  style="stroke:black; stroke-linecap:round; stroke-width:0.25;"/>
<line x1="24.000000" y1="68.040000" x2="28.000000" y2="68.040000"  style="stroke:black; stroke-linecap:round; stroke-width:0.25;"/>
<line x1="28.000000" y1="52.040000" x2="52.000000" y2="52.040000"  style="stroke:black; stroke-linecap:round; stroke-width:0.25;"/>
<line x1="28.000000" y1="60.040000" x2="44.000000" y2="60.040000"  style="stroke:black; stroke-linecap:round; stroke-width:0.25;"/>
<line x1="28.000000" y1="68.040000" x2="36.000000" y2="68.040000"  style="stroke:black; stroke-linecap:round; stroke-width:0.25;"/>
<line x1="36.000000" y1="68.040000" x2="36.000000" y2="88.080000"  style="stroke:black; stroke-linecap:round; stroke-width:0.25;"/>
<line x1="36.000000" y1="88.080000" x2="52.000000" y2="88.080000"  style="stroke:black; stroke-linecap:round; stroke-width:0.25;"/>
<line x1="44.000000" y1="60.040000" x2="44.000000" y2="80.080000"  style="stroke:black; stroke-linecap:round; stroke-width:0.25;"/>
<line x1="44.000000" y1="80.080000" x2="52.000000" y2="80.080000"  style="stroke:black; stroke-linecap:round; stroke-width:0.25;"/>
<line x1="52.000000" y1="52.040000" x2="52.000000" y2="72.080000"  style="stroke:black; stroke-linecap:round; stroke-width:0.25;"/>
<line x1="52.000000" y1="72.080000" x2="52.000000" y2="72.080000"  style="stroke:black; stroke-linecap:round; stroke-width:0.25;"/>
<line x1="52.000000" y1="72.080000" x2="68.000000" y2="72.080000"  style="stroke:black; stroke-linecap:round; stroke-width:0.25;"/>
<line x1="52.000000" y1="80.080000" x2="68.000000" y2="80.080000"  style="stroke:black; stroke-linecap:round; stroke-width:0.25;"/>
<line x1="52.000000" y1="88.080000" x2="68.000000" y2="88.080000"  style="stroke:black; stroke-linecap:round; stroke-width:0.25;"/>
<line x1="68.000000" y1="36.000000" x2="68.000000" y2="36.000000"  style="stroke:black; stroke-linecap:round; stroke-width:0.25;"/>
<line x1="68.000000" y1="36.000000" x2="68.000000" y2="64.080000"  style="stroke:black; stroke-linecap:round; stroke-width:0.25;"/>
<line x1="68.000000" y1="64.080000" x2="68.000000" y2="64.080000"  style="stroke:black; stroke-linecap:round; stroke-width:0.25;"/>
<line x1="68.000000" y1="64.080000" x2="104.500000" y2="64.080000"  style="stroke:black; stroke-linecap:round; stroke-width:0.25;"/>
<line x1="68.000000" y1="72.080000" x2="104.500000" y2="72.080000"  style="stroke:black; stroke-linecap:round; stroke-width:0.25;"/>
<line x1="68.000000" y1="80.080000" x2="104.500000" y2="80.080000"  style="stroke:black; stroke-linecap:round; stroke-width:0.25;"/>
<line x1="68.000000" y1="88.080000" x2="104.500000" y2="88.080000"  style="stroke:black; stroke-linecap:round; stroke-width:0.25;"/>
<line x1="72.000000" y1="36.000000" x2="68.000000" y2="36.000000"  style="stroke:black; stroke-linecap:round; stroke-width:0.25;"/>
<line x1="104.500000" y1="64.080000" x2="120.500000" y2="64.080000"  style="stroke:black; stroke-linecap:round; stroke-width:0.25;"/>
<line x1="104.500000" y1="72.080000" x2="120.500000" y2="72.080000"  style="stroke:black; stroke-linecap:round; stroke-width:0.25;"/>
<line x1="104.500000" y1="80.080000" x2="120.500000" y2="80.080000"  style="stroke:black; stroke-linecap:round; stroke-width:0.25;"/>
<line x1="104.500000" y1="88.080000" x2="112.500000" y2="88.080000"  style="stroke:black; stroke-linecap:round; stroke-width:0.25;"/>
<line x1="112.500000" y1="88.080000" x2="112.500000" y2="96.080000"  style="stroke:black; stroke-linecap:round; stroke-width:0.25;"/>
<line x1="112.500000" y1="96.080000" x2="120.500000" y2="96.080000"  style="stroke:black; stroke-linecap:round; stroke-width:0.25;"/>
<line x1="120.500000" y1="64.080000" x2="124.500000" y2="64.080000"  style="stroke:black; stroke-linecap:round; stroke-width:0.25;"/>
<line x1="120.500000" y1="72.080000" x2="124.500000" y2="72.080000"  style="stroke:black; stroke-linecap:round; stroke-width:0.25;"/>
<line x1="120.500000" y1="80.080000" x2="120.500000" y2="88.080000"  style="stroke:black; stroke-linecap:round; stroke-width:0.25;"/>
<line x1="120.500000" y1="88.080000" x2="120.500000" y2="88.080000"  style="stroke:black; stroke-linecap:round; stroke-width:0.25;"/>
<line x1="120.500000" y1="88.080000" x2="136.500000" y2="88.080000"  style="stroke:black; stroke-linecap:round; stroke-width:0.25;"/>
<line x1="120.500000" y1="96.080000" x2="136.500000" y2="96.080000"  style="stroke:black; stroke-linecap:round; stroke-width:0.25;"/>
<line x1="136.500000" y1="88.080000" x2="152.500000" y2="88.080000"  style="stroke:black; stroke-linecap:round; stroke-width:0.25;"/>
<line x1="136.500000" y1="96.080000" x2="152.500000" y2="96.080000"  style="stroke:black; stroke-linecap:round; stroke-width:0.25;"/>
<line x1="148.500000" y1="68.080000" x2="152.500000" y2="68.080000"  style="stroke:black; stroke-linecap:round; stroke-width:0.25;"/>
<line x1="152.500000" y1="68.080000" x2="168.500000" y2="68.080000"  style="stroke:black; stroke-linecap:round; stroke-width:0.25;"/>
<line x1="152.500000" y1="76.080000" x2="168.500000" y2="76.080000"  style="stroke:black; stroke-linecap:round; stroke-width:0.25;"/>
<line x1="152.500000" y1="88.080000" x2="152.500000" y2="76.080000"  style="stroke:black; stroke-linecap:round; stroke-width:0.25;"/>
<line x1="152.500000" y1="88.080000" x2="152.500000" y2="88.080000"  style="stroke:black; stroke-linecap:round; stroke-width:0.25;"/>
<line x1="152.500000" y1="96.080000" x2="160.500000" y2="96.080000"  style="stroke:black; stroke-linecap:round; stroke-width:0.25;"/>
<line x1="160.500000" y1="84.080000" x2="168.500000" y2="84.080000"  style="stroke:black; stroke-linecap:round; stroke-width:0.25;"/>
<line x1="160.500000" y1="96.080000" x2="160.500000" y2="84.080000"  style="stroke:black; stroke-linecap:round; stroke-width:0.25;"/>
<line x1="168.500000" y1="68.080000" x2="205.000000" y2="68.080000"  style="stroke:black; stroke-linecap:round; stroke-width:0.25;"/>
<line x1="168.500000" y1="76.080000" x2="205.000000" y2="76.080000"  style="stroke:black; stroke-linecap:round; stroke-width:0.25;"/>
<line x1="168.500000" y1="84.080000" x2="205.000000" y2="84.080000"  style="stroke:black; stroke-linecap:round; stroke-width:0.25;"/>
<line x1="205.000000" y1="36.000000" x2="201.000000" y2="36.000000"  style="stroke:black; stroke-linecap:round; stroke-width:0.25;"/>
<line x1="205.000000" y1="68.080000" x2="207.000000" y2="68.080000"  style="stroke:black; stroke-linecap:round; stroke-width:0.25;"/>
<line x1="205.000000" y1="76.080000" x2="215.000000" y2="76.080000"  style="stroke:black; stroke-linecap:round; stroke-width:0.25;"/>
<line x1="205.000000" y1="84.080000" x2="221.000000" y2="84.080000"  style="stroke:black; stroke-linecap:round; stroke-width:0.25;"/>
<line x1="207.000000" y1="68.080000" x2="221.000000" y2="68.080000"  style="stroke:black; stroke-linecap:round; stroke-width:0.25;"/>
<line x1="213.000000" y1="36.000000" x2="205.000000" y2="36.000000"  style="stroke:black; stroke-linecap:round; stroke-width:0.25;"/>
<line x1="213.000000" y1="72.080000" x2="213.000000" y2="36.000000"  style="stroke:black; stroke-linecap:round; stroke-width:0.25;"/>
<line x1="215.000000" y1="76.080000" x2="221.000000" y2="76.080000"  style="stroke:black; stroke-linecap:round; stroke-width:0.25;"/>
<line x1="221.000000" y1="52.040000" x2="245.000000" y2="52.040000"  style="stroke:black; stroke-linecap:round; stroke-width:0.25;"/>
<line x1="221.000000" y1="68.080000" x2="221.000000" y2="52.040000"  style="stroke:black; stroke-linecap:round; stroke-width:0.25;"/>
<line x1="221.000000" y1="68.080000" x2="221.000000" y2="68.080000"  style="stroke:black; stroke-linecap:round; stroke-width:0.25;"/>
<line x1="221.000000" y1="76.080000" x2="229.000000" y2="76.080000"  style="stroke:black; stroke-linecap:round; stroke-width:0.25;"/>
<line x1="221.000000" y1="84.080000" x2="237.000000" y2="84.080000"  style="stroke:black; stroke-linecap:round; stroke-width:0.25;"/>
<line x1="229.000000" y1="60.040000" x2="245.000000" y2="60.040000"  style="stroke:black; stroke-linecap:round; stroke-width:0.25;"/>
<line x1="229.000000" y1="76.080000" x2="229.000000" y2="60.040000"  style="stroke:black; stroke-linecap:round; stroke-width:0.25;"/>
<line x1="237.000000" y1="68.040000" x2="245.000000" y2="68.040000"  style="stroke:black; stroke-linecap:round; stroke-width:0.25;"/>
<line x1="237.000000" y1="84.080000" x2="237.000000" y2="68.040000"  style="stroke:black; stroke-linecap:round; stroke-width:0.25;"/>
<line x1="245.000000" y1="52.040000" x2="249.000000" y2="52.040000"  style="stroke:black; stroke-linecap:round; stroke-width:0.25;"/>
<line x1="245.000000" y1="60.040000" x2="249.000000" y2="60.040000"  style="stroke:black; stroke-linecap:round; stroke-width:0.25;"/>
<line x1="245.000000" y1="68.040000" x2="249.000000" y2="68.040000"  style="stroke:black; stroke-linecap:round; stroke-width:0.25;"/>
<line x1="249.000000" y1="52.040000" x2="253.000000" y2="52.040000"  style="stroke:black; stroke-linecap:round; stroke-width:0.25;"/>
<line x1="249.000000" y1="60.040000" x2="253.000000" y2="60.040000"  style="stroke:black; stroke-linecap:round; stroke-width:0.25;"/>
<line x1="249.000000" y1="68.040000" x2="253.000000" y2="68.040000"  style="stroke:black; stroke-linecap:round; stroke-width:0.25;"/>
<line x1="253.000000" y1="52.040000" x2="263.000000" y2="52.040000"  style="stroke:black; stroke-linecap:round; stroke-width:0.25;"/>
<line x1="253.000000" y1="60.040000" x2="263.000000" y2="60.040000"  style="stroke:black; stroke-linecap:round; stroke-width:0.25;"/>
<line x1="253.000000" y1="68.040000" x2="263.000000" y2="68.040000"  style="stroke:black; stroke-linecap:round; stroke-width:0.25;"/>
</svg>
