<?xml version="1.0"?>
<svg xmlns="http://www.w3.org/2000/svg" xmlns:xlink="http://www.w3.org/1999/xlink" viewBox="0 0 361.000000 132.000000" width="180.500000mm" height="66.000000mm" version="1.1">
<a xlink:href="r4-0x7fd46050d1f0.svg">
<rect x="1.000000" y="1.000000" width="360.000000" height="131.000000" rx="0" ry="0" style="stroke:none;fill:#cccccc;"/>
<rect x="0.000000" y="0.000000" width="360.000000" height="131.000000" rx="0" ry="0" style="stroke:none;fill:#ffffff;"/>
</a>
<text x="10.000000" y="7.000000" font-family="Arial" font-size="7"></text>
<rect x="61.250000" y="43.000000" width="24.000000" height="24.000000" rx="0" ry="0" style="stroke:none;fill:#cccccc;"/>
<rect x="60.250000" y="42.000000" width="24.000000" height="24.000000" rx="0" ry="0" style="stroke:none;fill:#f44800;"/>
<text x="72.250000" y="56.000000" font-family="Arial" font-size="7" text-anchor="middle" fill="#FFFFFF">1</text>
<circle cx="62.250000" cy="44.000000" r="1"/>
<line x1="51.250000" y1="33.000000" x2="51.250000" y2="75.000000"  style="stroke: black; stroke-linecap:round; stroke-width:0.25; stroke-dasharray:3,3;"/>
<line x1="51.250000" y1="75.000000" x2="93.250000" y2="75.000000"  style="stroke: black; stroke-linecap:round; stroke-width:0.25; stroke-dasharray:3,3;"/>
<line x1="93.250000" y1="75.000000" x2="93.250000" y2="33.000000"  style="stroke: black; stroke-linecap:round; stroke-width:0.25; stroke-dasharray:3,3;"/>
<line x1="51.250000" y1="33.000000" x2="56.250000" y2="33.000000"  style="stroke: black; stroke-linecap:round; stroke-width:0.25; stroke-dasharray:3,3;"/>
<line x1="93.250000" y1="33.000000" x2="93.250000" y2="33.000000"  style="stroke: black; stroke-linecap:round; stroke-width:0.25; stroke-dasharray:3,3;"/>
<text x="56.250000" y="35.000000" font-family="Arial" font-size="7">clipweight</text>
<a xlink:href="tau2pole-0x7fd4629c4740.svg">
<rect x="41.000000" y="85.000000" width="64.500000" height="24.000000" rx="0" ry="0" style="stroke:none;fill:#cccccc;"/>
<rect x="40.000000" y="84.000000" width="64.500000" height="24.000000" rx="0" ry="0" style="stroke:none;fill:#003366;"/>
</a>
<a xlink:href="tau2pole-0x7fd4629c4740.svg">
<text x="72.250000" y="98.000000" font-family="Arial" font-size="7" text-anchor="middle" fill="#FFFFFF">tau2pole(0.02f)</text>
</a>
<circle cx="42.000000" cy="86.000000" r="1"/>
<rect x="121.500000" y="59.000000" width="24.000000" height="24.000000" rx="0" ry="0" style="stroke:none;fill:#cccccc;"/>
<rect x="120.500000" y="58.000000" width="24.000000" height="24.000000" rx="0" ry="0" style="stroke:none;fill:#4B71A1;"/>
<text x="132.500000" y="72.000000" font-family="Arial" font-size="7" text-anchor="middle" fill="#FFFFFF">-</text>
<circle cx="122.500000" cy="60.000000" r="1"/>
<line x1="117.500000" y1="65.000000" x2="120.500000" y2="66.000000"  transform="rotate(0.000000,120.500000,66.000000)" style="stroke: black; stroke-width:0.25;"/>
<line x1="117.500000" y1="67.000000" x2="120.500000" y2="66.000000"  transform="rotate(0.000000,120.500000,66.000000)" style="stroke: black; stroke-width:0.25;"/>
<line x1="117.500000" y1="73.000000" x2="120.500000" y2="74.000000"  transform="rotate(0.000000,120.500000,74.000000)" style="stroke: black; stroke-width:0.25;"/>
<line x1="117.500000" y1="75.000000" x2="120.500000" y2="74.000000"  transform="rotate(0.000000,120.500000,74.000000)" style="stroke: black; stroke-width:0.25;"/>
<rect x="161.500000" y="55.000000" width="24.000000" height="24.000000" rx="0" ry="0" style="stroke:none;fill:#cccccc;"/>
<rect x="160.500000" y="54.000000" width="24.000000" height="24.000000" rx="0" ry="0" style="stroke:none;fill:#4B71A1;"/>
<text x="172.500000" y="68.000000" font-family="Arial" font-size="7" text-anchor="middle" fill="#FFFFFF">*</text>
<circle cx="162.500000" cy="56.000000" r="1"/>
<line x1="157.500000" y1="61.000000" x2="160.500000" y2="62.000000"  transform="rotate(0.000000,160.500000,62.000000)" style="stroke: black; stroke-width:0.25;"/>
<line x1="157.500000" y1="63.000000" x2="160.500000" y2="62.000000"  transform="rotate(0.000000,160.500000,62.000000)" style="stroke: black; stroke-width:0.25;"/>
<line x1="157.500000" y1="69.000000" x2="160.500000" y2="70.000000"  transform="rotate(0.000000,160.500000,70.000000)" style="stroke: black; stroke-width:0.25;"/>
<line x1="157.500000" y1="71.000000" x2="160.500000" y2="70.000000"  transform="rotate(0.000000,160.500000,70.000000)" style="stroke: black; stroke-width:0.25;"/>
<rect x="249.750000" y="75.000000" width="24.000000" height="24.000000" rx="0" ry="0" style="stroke:none;fill:#cccccc;"/>
<rect x="248.750000" y="74.000000" width="24.000000" height="24.000000" rx="0" ry="0" style="stroke:none;fill:#4B71A1;"/>
<text x="260.750000" y="88.000000" font-family="Arial" font-size="7" text-anchor="middle" fill="#FFFFFF">+</text>
<circle cx="250.750000" cy="76.000000" r="1"/>
<line x1="245.750000" y1="81.000000" x2="248.750000" y2="82.000000"  transform="rotate(0.000000,248.750000,82.000000)" style="stroke: black; stroke-width:0.25;"/>
<line x1="245.750000" y1="83.000000" x2="248.750000" y2="82.000000"  transform="rotate(0.000000,248.750000,82.000000)" style="stroke: black; stroke-width:0.25;"/>
<line x1="245.750000" y1="89.000000" x2="248.750000" y2="90.000000"  transform="rotate(0.000000,248.750000,90.000000)" style="stroke: black; stroke-width:0.25;"/>
<line x1="245.750000" y1="91.000000" x2="248.750000" y2="90.000000"  transform="rotate(0.000000,248.750000,90.000000)" style="stroke: black; stroke-width:0.25;"/>
<a xlink:href="tau2pole-0x7fd4629c4740.svg">
<rect x="249.500000" y="35.000000" width="64.500000" height="24.000000" rx="0" ry="0" style="stroke:none;fill:#cccccc;"/>
<rect x="248.500000" y="34.000000" width="64.500000" height="24.000000" rx="0" ry="0" style="stroke:none;fill:#003366;"/>
</a>
<a xlink:href="tau2pole-0x7fd4629c4740.svg">
<text x="280.750000" y="48.000000" font-family="Arial" font-size="7" text-anchor="middle" fill="#FFFFFF">tau2pole(0.02f)</text>
</a>
<circle cx="311.000000" cy="56.000000" r="1"/>
<rect x="209.500000" y="39.000000" width="24.000000" height="24.000000" rx="0" ry="0" style="stroke:none;fill:#cccccc;"/>
<rect x="208.500000" y="38.000000" width="24.000000" height="24.000000" rx="0" ry="0" style="stroke:none;fill:#4B71A1;"/>
<text x="220.500000" y="52.000000" font-family="Arial" font-size="7" text-anchor="middle" fill="#FFFFFF">*</text>
<circle cx="230.500000" cy="60.000000" r="1"/>
<line x1="235.500000" y1="53.000000" x2="232.500000" y2="54.000000"  transform="rotate(0.000000,232.500000,54.000000)" style="stroke: black; stroke-width:0.25;"/>
<line x1="235.500000" y1="55.000000" x2="232.500000" y2="54.000000"  transform="rotate(0.000000,232.500000,54.000000)" style="stroke: black; stroke-width:0.25;"/>
<line x1="235.500000" y1="45.000000" x2="232.500000" y2="46.000000"  transform="rotate(0.000000,232.500000,46.000000)" style="stroke: black; stroke-width:0.25;"/>
<line x1="235.500000" y1="47.000000" x2="232.500000" y2="46.000000"  transform="rotate(0.000000,232.500000,46.000000)" style="stroke: black; stroke-width:0.25;"/>
<line x1="315.000000" y1="86.000000" x2="315.000000" y2="82.000000"  style="stroke:black; stroke-linecap:round; stroke-width:0.25;"/>
<line x1="315.000000" y1="82.000000" x2="319.000000" y2="82.000000"  style="stroke:black; stroke-linecap:round; stroke-width:0.25;"/>
<line x1="319.000000" y1="82.000000" x2="319.000000" y2="86.000000"  style="stroke:black; stroke-linecap:round; stroke-width:0.25;"/>
<line x1="15.000000" y1="15.000000" x2="15.000000" y2="117.000000"  style="stroke: black; stroke-linecap:round; stroke-width:0.25; stroke-dasharray:3,3;"/>
<line x1="15.000000" y1="117.000000" x2="346.000000" y2="117.000000"  style="stroke: black; stroke-linecap:round; stroke-width:0.25; stroke-dasharray:3,3;"/>
<line x1="346.000000" y1="117.000000" x2="346.000000" y2="15.000000"  style="stroke: black; stroke-linecap:round; stroke-width:0.25; stroke-dasharray:3,3;"/>
<line x1="15.000000" y1="15.000000" x2="20.000000" y2="15.000000"  style="stroke: black; stroke-linecap:round; stroke-width:0.25; stroke-dasharray:3,3;"/>
<line x1="119.975000" y1="15.000000" x2="346.000000" y2="15.000000"  style="stroke: black; stroke-linecap:round; stroke-width:0.25; stroke-dasharray:3,3;"/>
<text x="20.000000" y="17.000000" font-family="Arial" font-size="7">smooth(-1.0f,...*) : / : exp)</text>
<line x1="348.000000" y1="65.000000" x2="351.000000" y2="66.000000"  transform="rotate(0.000000,351.000000,66.000000)" style="stroke: black; stroke-width:0.25;"/>
<line x1="348.000000" y1="67.000000" x2="351.000000" y2="66.000000"  transform="rotate(0.000000,351.000000,66.000000)" style="stroke: black; stroke-width:0.25;"/>
<line x1="10.000000" y1="66.000000" x2="20.000000" y2="66.000000"  style="stroke:black; stroke-linecap:round; stroke-width:0.25;"/>
<line x1="20.000000" y1="66.000000" x2="24.000000" y2="66.000000"  style="stroke:black; stroke-linecap:round; stroke-width:0.25;"/>
<line x1="24.000000" y1="66.000000" x2="28.000000" y2="66.000000"  style="stroke:black; stroke-linecap:round; stroke-width:0.25;"/>
<line x1="28.000000" y1="24.000000" x2="36.000000" y2="24.000000"  style="stroke:black; stroke-linecap:round; stroke-width:0.25;"/>
<line x1="28.000000" y1="66.000000" x2="28.000000" y2="24.000000"  style="stroke:black; stroke-linecap:round; stroke-width:0.25;"/>
<line x1="28.000000" y1="66.000000" x2="28.000000" y2="66.000000"  style="stroke:black; stroke-linecap:round; stroke-width:0.25;"/>
<line x1="36.000000" y1="24.000000" x2="92.250000" y2="24.000000"  style="stroke:black; stroke-linecap:round; stroke-width:0.25;"/>
<line x1="84.250000" y1="54.000000" x2="88.250000" y2="54.000000"  style="stroke:black; stroke-linecap:round; stroke-width:0.25;"/>
<line x1="88.250000" y1="54.000000" x2="98.250000" y2="54.000000"  style="stroke:black; stroke-linecap:round; stroke-width:0.25;"/>
<line x1="92.250000" y1="24.000000" x2="148.500000" y2="24.000000"  style="stroke:black; stroke-linecap:round; stroke-width:0.25;"/>
<line x1="98.250000" y1="54.000000" x2="108.500000" y2="54.000000"  style="stroke:black; stroke-linecap:round; stroke-width:0.25;"/>
<line x1="104.500000" y1="96.000000" x2="108.500000" y2="96.000000"  style="stroke:black; stroke-linecap:round; stroke-width:0.25;"/>
<line x1="108.500000" y1="54.000000" x2="116.500000" y2="54.000000"  style="stroke:black; stroke-linecap:round; stroke-width:0.25;"/>
<line x1="108.500000" y1="74.000000" x2="116.500000" y2="74.000000"  style="stroke:black; stroke-linecap:round; stroke-width:0.25;"/>
<line x1="108.500000" y1="96.000000" x2="108.500000" y2="74.000000"  style="stroke:black; stroke-linecap:round; stroke-width:0.25;"/>
<line x1="108.500000" y1="96.000000" x2="108.500000" y2="96.000000"  style="stroke:black; stroke-linecap:round; stroke-width:0.25;"/>
<line x1="116.500000" y1="54.000000" x2="116.500000" y2="66.000000"  style="stroke:black; stroke-linecap:round; stroke-width:0.25;"/>
<line x1="116.500000" y1="66.000000" x2="116.500000" y2="66.000000"  style="stroke:black; stroke-linecap:round; stroke-width:0.25;"/>
<line x1="116.500000" y1="66.000000" x2="120.500000" y2="66.000000"  style="stroke:black; stroke-linecap:round; stroke-width:0.25;"/>
<line x1="116.500000" y1="74.000000" x2="120.500000" y2="74.000000"  style="stroke:black; stroke-linecap:round; stroke-width:0.25;"/>
<line x1="144.500000" y1="70.000000" x2="148.500000" y2="70.000000"  style="stroke:black; stroke-linecap:round; stroke-width:0.25;"/>
<line x1="148.500000" y1="24.000000" x2="156.500000" y2="24.000000"  style="stroke:black; stroke-linecap:round; stroke-width:0.25;"/>
<line x1="148.500000" y1="70.000000" x2="156.500000" y2="70.000000"  style="stroke:black; stroke-linecap:round; stroke-width:0.25;"/>
<line x1="156.500000" y1="24.000000" x2="156.500000" y2="62.000000"  style="stroke:black; stroke-linecap:round; stroke-width:0.25;"/>
<line x1="156.500000" y1="62.000000" x2="156.500000" y2="62.000000"  style="stroke:black; stroke-linecap:round; stroke-width:0.25;"/>
<line x1="156.500000" y1="62.000000" x2="160.500000" y2="62.000000"  style="stroke:black; stroke-linecap:round; stroke-width:0.25;"/>
<line x1="156.500000" y1="70.000000" x2="160.500000" y2="70.000000"  style="stroke:black; stroke-linecap:round; stroke-width:0.25;"/>
<line x1="184.500000" y1="66.000000" x2="188.500000" y2="66.000000"  style="stroke:black; stroke-linecap:round; stroke-width:0.25;"/>
<line x1="188.500000" y1="66.000000" x2="196.500000" y2="66.000000"  style="stroke:black; stroke-linecap:round; stroke-width:0.25;"/>
<line x1="196.500000" y1="66.000000" x2="196.500000" y2="90.000000"  style="stroke:black; stroke-linecap:round; stroke-width:0.25;"/>
<line x1="196.500000" y1="90.000000" x2="196.500000" y2="90.000000"  style="stroke:black; stroke-linecap:round; stroke-width:0.25;"/>
<line x1="196.500000" y1="90.000000" x2="204.500000" y2="90.000000"  style="stroke:black; stroke-linecap:round; stroke-width:0.25;"/>
<line x1="204.500000" y1="50.000000" x2="204.500000" y2="50.000000"  style="stroke:black; stroke-linecap:round; stroke-width:0.25;"/>
<line x1="204.500000" y1="50.000000" x2="204.500000" y2="82.000000"  style="stroke:black; stroke-linecap:round; stroke-width:0.25;"/>
<line x1="204.500000" y1="82.000000" x2="204.500000" y2="82.000000"  style="stroke:black; stroke-linecap:round; stroke-width:0.25;"/>
<line x1="204.500000" y1="82.000000" x2="244.750000" y2="82.000000"  style="stroke:black; stroke-linecap:round; stroke-width:0.25;"/>
<line x1="204.500000" y1="90.000000" x2="244.750000" y2="90.000000"  style="stroke:black; stroke-linecap:round; stroke-width:0.25;"/>
<line x1="208.500000" y1="50.000000" x2="204.500000" y2="50.000000"  style="stroke:black; stroke-linecap:round; stroke-width:0.25;"/>
<line x1="236.500000" y1="46.000000" x2="232.500000" y2="46.000000"  style="stroke:black; stroke-linecap:round; stroke-width:0.25;"/>
<line x1="236.500000" y1="54.000000" x2="232.500000" y2="54.000000"  style="stroke:black; stroke-linecap:round; stroke-width:0.25;"/>
<line x1="236.500000" y1="54.000000" x2="236.500000" y2="54.000000"  style="stroke:black; stroke-linecap:round; stroke-width:0.25;"/>
<line x1="236.500000" y1="66.000000" x2="236.500000" y2="54.000000"  style="stroke:black; stroke-linecap:round; stroke-width:0.25;"/>
<line x1="244.500000" y1="46.000000" x2="236.500000" y2="46.000000"  style="stroke:black; stroke-linecap:round; stroke-width:0.25;"/>
<line x1="244.500000" y1="66.000000" x2="236.500000" y2="66.000000"  style="stroke:black; stroke-linecap:round; stroke-width:0.25;"/>
<line x1="244.750000" y1="82.000000" x2="248.750000" y2="82.000000"  style="stroke:black; stroke-linecap:round; stroke-width:0.25;"/>
<line x1="244.750000" y1="90.000000" x2="248.750000" y2="90.000000"  style="stroke:black; stroke-linecap:round; stroke-width:0.25;"/>
<line x1="248.500000" y1="46.000000" x2="244.500000" y2="46.000000"  style="stroke:black; stroke-linecap:round; stroke-width:0.25;"/>
<line x1="272.750000" y1="86.000000" x2="276.750000" y2="86.000000"  style="stroke:black; stroke-linecap:round; stroke-width:0.25;"/>
<line x1="276.750000" y1="86.000000" x2="317.000000" y2="86.000000"  style="stroke:black; stroke-linecap:round; stroke-width:0.25;"/>
<line x1="280.750000" y1="66.000000" x2="244.500000" y2="66.000000"  style="stroke:black; stroke-linecap:round; stroke-width:0.25;"/>
<line x1="317.000000" y1="66.000000" x2="280.750000" y2="66.000000"  style="stroke:black; stroke-linecap:round; stroke-width:0.25;"/>
<line x1="317.000000" y1="66.000000" x2="317.000000" y2="66.000000"  style="stroke:black; stroke-linecap:round; stroke-width:0.25;"/>
<line x1="317.000000" y1="82.000000" x2="317.000000" y2="66.000000"  style="stroke:black; stroke-linecap:round; stroke-width:0.25;"/>
<line x1="317.000000" y1="86.000000" x2="319.000000" y2="86.000000"  style="stroke:black; stroke-linecap:round; stroke-width:0.25;"/>
<line x1="319.000000" y1="86.000000" x2="325.000000" y2="86.000000"  style="stroke:black; stroke-linecap:round; stroke-width:0.25;"/>
<line x1="325.000000" y1="66.000000" x2="333.000000" y2="66.000000"  style="stroke:black; stroke-linecap:round; stroke-width:0.25;"/>
<line x1="325.000000" y1="86.000000" x2="325.000000" y2="66.000000"  style="stroke:black; stroke-linecap:round; stroke-width:0.25;"/>
<line x1="325.000000" y1="86.000000" x2="325.000000" y2="86.000000"  style="stroke:black; stroke-linecap:round; stroke-width:0.25;"/>
<line x1="333.000000" y1="66.000000" x2="337.000000" y2="66.000000"  style="stroke:black; stroke-linecap:round; stroke-width:0.25;"/>
<line x1="337.000000" y1="66.000000" x2="341.000000" y2="66.000000"  style="stroke:black; stroke-linecap:round; stroke-width:0.25;"/>
<line x1="341.000000" y1="66.000000" x2="351.000000" y2="66.000000"  style="stroke:black; stroke-linecap:round; stroke-width:0.25;"/>
</svg>
