<?xml version="1.0"?>
<svg xmlns="http://www.w3.org/2000/svg" xmlns:xlink="http://www.w3.org/1999/xlink" viewBox="0 0 891.200000 132.000000" width="445.600000mm" height="66.000000mm" version="1.1">
<a xlink:href="wBell-0x7f8ca9d8d2c0.svg">
<rect x="1.000000" y="1.000000" width="890.200000" height="131.000000" rx="0" ry="0" style="stroke:none;fill:#cccccc;"/>
<rect x="0.000000" y="0.000000" width="890.200000" height="131.000000" rx="0" ry="0" style="stroke:none;fill:#ffffff;"/>
</a>
<text x="10.000000" y="7.000000" font-family="Arial" font-size="7"></text>
<rect x="193.800000" y="33.000000" width="24.000000" height="24.000000" rx="0" ry="0" style="stroke:none;fill:#cccccc;"/>
<rect x="192.800000" y="32.000000" width="24.000000" height="24.000000" rx="0" ry="0" style="stroke:none;fill:#f44800;"/>
<text x="204.800000" y="46.000000" font-family="Arial" font-size="7" text-anchor="middle" fill="#FFFFFF">1</text>
<circle cx="194.800000" cy="34.000000" r="1"/>
<rect x="51.000000" y="75.000000" width="309.600000" height="24.000000" rx="0" ry="0" style="stroke:none;fill:#cccccc;"/>
<rect x="50.000000" y="74.000000" width="309.600000" height="24.000000" rx="0" ry="0" style="stroke:none;fill:#477881;"/>
<text x="204.800000" y="88.000000" font-family="Arial" font-size="7" text-anchor="middle" fill="#FFFFFF">hslider(v:clarinet/h:otherParams/bellOpening, 0.5f, 0.0f, 1.0f, 0.01f)</text>
<circle cx="52.000000" cy="76.000000" r="1"/>
<line x1="41.000000" y1="65.000000" x2="41.000000" y2="107.000000"  style="stroke: black; stroke-linecap:round; stroke-width:0.25; stroke-dasharray:3,3;"/>
<line x1="41.000000" y1="107.000000" x2="368.600000" y2="107.000000"  style="stroke: black; stroke-linecap:round; stroke-width:0.25; stroke-dasharray:3,3;"/>
<line x1="368.600000" y1="107.000000" x2="368.600000" y2="65.000000"  style="stroke: black; stroke-linecap:round; stroke-width:0.25; stroke-dasharray:3,3;"/>
<line x1="41.000000" y1="65.000000" x2="46.000000" y2="65.000000"  style="stroke: black; stroke-linecap:round; stroke-width:0.25; stroke-dasharray:3,3;"/>
<line x1="87.925000" y1="65.000000" x2="368.600000" y2="65.000000"  style="stroke: black; stroke-linecap:round; stroke-width:0.25; stroke-dasharray:3,3;"/>
<text x="46.000000" y="67.000000" font-family="Arial" font-size="7">bellOpening</text>
<rect x="386.600000" y="59.000000" width="24.000000" height="24.000000" rx="0" ry="0" style="stroke:none;fill:#cccccc;"/>
<rect x="385.600000" y="58.000000" width="24.000000" height="24.000000" rx="0" ry="0" style="stroke:none;fill:#4B71A1;"/>
<text x="397.600000" y="72.000000" font-family="Arial" font-size="7" text-anchor="middle" fill="#FFFFFF">-</text>
<circle cx="387.600000" cy="60.000000" r="1"/>
<line x1="382.600000" y1="65.000000" x2="385.600000" y2="66.000000"  transform="rotate(0.000000,385.600000,66.000000)" style="stroke: black; stroke-width:0.25;"/>
<line x1="382.600000" y1="67.000000" x2="385.600000" y2="66.000000"  transform="rotate(0.000000,385.600000,66.000000)" style="stroke: black; stroke-width:0.25;"/>
<line x1="382.600000" y1="73.000000" x2="385.600000" y2="74.000000"  transform="rotate(0.000000,385.600000,74.000000)" style="stroke: black; stroke-width:0.25;"/>
<line x1="382.600000" y1="75.000000" x2="385.600000" y2="74.000000"  transform="rotate(0.000000,385.600000,74.000000)" style="stroke: black; stroke-width:0.25;"/>
<rect x="426.600000" y="55.000000" width="24.000000" height="24.000000" rx="0" ry="0" style="stroke:none;fill:#cccccc;"/>
<rect x="425.600000" y="54.000000" width="24.000000" height="24.000000" rx="0" ry="0" style="stroke:none;fill:#4B71A1;"/>
<text x="437.600000" y="68.000000" font-family="Arial" font-size="7" text-anchor="middle" fill="#FFFFFF">*</text>
<circle cx="427.600000" cy="56.000000" r="1"/>
<line x1="422.600000" y1="61.000000" x2="425.600000" y2="62.000000"  transform="rotate(0.000000,425.600000,62.000000)" style="stroke: black; stroke-width:0.25;"/>
<line x1="422.600000" y1="63.000000" x2="425.600000" y2="62.000000"  transform="rotate(0.000000,425.600000,62.000000)" style="stroke: black; stroke-width:0.25;"/>
<line x1="422.600000" y1="69.000000" x2="425.600000" y2="70.000000"  transform="rotate(0.000000,425.600000,70.000000)" style="stroke: black; stroke-width:0.25;"/>
<line x1="422.600000" y1="71.000000" x2="425.600000" y2="70.000000"  transform="rotate(0.000000,425.600000,70.000000)" style="stroke: black; stroke-width:0.25;"/>
<rect x="647.400000" y="85.000000" width="24.000000" height="24.000000" rx="0" ry="0" style="stroke:none;fill:#cccccc;"/>
<rect x="646.400000" y="84.000000" width="24.000000" height="24.000000" rx="0" ry="0" style="stroke:none;fill:#4B71A1;"/>
<text x="658.400000" y="98.000000" font-family="Arial" font-size="7" text-anchor="middle" fill="#FFFFFF">+</text>
<circle cx="648.400000" cy="86.000000" r="1"/>
<line x1="643.400000" y1="91.000000" x2="646.400000" y2="92.000000"  transform="rotate(0.000000,646.400000,92.000000)" style="stroke: black; stroke-width:0.25;"/>
<line x1="643.400000" y1="93.000000" x2="646.400000" y2="92.000000"  transform="rotate(0.000000,646.400000,92.000000)" style="stroke: black; stroke-width:0.25;"/>
<line x1="643.400000" y1="99.000000" x2="646.400000" y2="100.000000"  transform="rotate(0.000000,646.400000,100.000000)" style="stroke: black; stroke-width:0.25;"/>
<line x1="643.400000" y1="101.000000" x2="646.400000" y2="100.000000"  transform="rotate(0.000000,646.400000,100.000000)" style="stroke: black; stroke-width:0.25;"/>
<rect x="524.600000" y="35.000000" width="309.600000" height="24.000000" rx="0" ry="0" style="stroke:none;fill:#cccccc;"/>
<rect x="523.600000" y="34.000000" width="309.600000" height="24.000000" rx="0" ry="0" style="stroke:none;fill:#477881;"/>
<text x="678.400000" y="48.000000" font-family="Arial" font-size="7" text-anchor="middle" fill="#FFFFFF">hslider(v:clarinet/h:otherParams/bellOpening, 0.5f, 0.0f, 1.0f, 0.01f)</text>
<circle cx="831.200000" cy="56.000000" r="1"/>
<line x1="514.600000" y1="25.000000" x2="514.600000" y2="67.000000"  style="stroke: black; stroke-linecap:round; stroke-width:0.25; stroke-dasharray:3,3;"/>
<line x1="514.600000" y1="67.000000" x2="842.200000" y2="67.000000"  style="stroke: black; stroke-linecap:round; stroke-width:0.25; stroke-dasharray:3,3;"/>
<line x1="842.200000" y1="67.000000" x2="842.200000" y2="25.000000"  style="stroke: black; stroke-linecap:round; stroke-width:0.25; stroke-dasharray:3,3;"/>
<line x1="514.600000" y1="25.000000" x2="519.600000" y2="25.000000"  style="stroke: black; stroke-linecap:round; stroke-width:0.25; stroke-dasharray:3,3;"/>
<line x1="561.525000" y1="25.000000" x2="842.200000" y2="25.000000"  style="stroke: black; stroke-linecap:round; stroke-width:0.25; stroke-dasharray:3,3;"/>
<text x="519.600000" y="27.000000" font-family="Arial" font-size="7">bellOpening</text>
<rect x="474.600000" y="39.000000" width="24.000000" height="24.000000" rx="0" ry="0" style="stroke:none;fill:#cccccc;"/>
<rect x="473.600000" y="38.000000" width="24.000000" height="24.000000" rx="0" ry="0" style="stroke:none;fill:#4B71A1;"/>
<text x="485.600000" y="52.000000" font-family="Arial" font-size="7" text-anchor="middle" fill="#FFFFFF">*</text>
<circle cx="495.600000" cy="60.000000" r="1"/>
<line x1="500.600000" y1="53.000000" x2="497.600000" y2="54.000000"  transform="rotate(0.000000,497.600000,54.000000)" style="stroke: black; stroke-width:0.25;"/>
<line x1="500.600000" y1="55.000000" x2="497.600000" y2="54.000000"  transform="rotate(0.000000,497.600000,54.000000)" style="stroke: black; stroke-width:0.25;"/>
<line x1="500.600000" y1="45.000000" x2="497.600000" y2="46.000000"  transform="rotate(0.000000,497.600000,46.000000)" style="stroke: black; stroke-width:0.25;"/>
<line x1="500.600000" y1="47.000000" x2="497.600000" y2="46.000000"  transform="rotate(0.000000,497.600000,46.000000)" style="stroke: black; stroke-width:0.25;"/>
<line x1="845.200000" y1="96.000000" x2="845.200000" y2="92.000000"  style="stroke:black; stroke-linecap:round; stroke-width:0.25;"/>
<line x1="845.200000" y1="92.000000" x2="849.200000" y2="92.000000"  style="stroke:black; stroke-linecap:round; stroke-width:0.25;"/>
<line x1="849.200000" y1="92.000000" x2="849.200000" y2="96.000000"  style="stroke:black; stroke-linecap:round; stroke-width:0.25;"/>
<line x1="15.000000" y1="15.000000" x2="15.000000" y2="117.000000"  style="stroke: black; stroke-linecap:round; stroke-width:0.25; stroke-dasharray:3,3;"/>
<line x1="15.000000" y1="117.000000" x2="876.200000" y2="117.000000"  style="stroke: black; stroke-linecap:round; stroke-width:0.25; stroke-dasharray:3,3;"/>
<line x1="876.200000" y1="117.000000" x2="876.200000" y2="15.000000"  style="stroke: black; stroke-linecap:round; stroke-width:0.25; stroke-dasharray:3,3;"/>
<line x1="15.000000" y1="15.000000" x2="20.000000" y2="15.000000"  style="stroke: black; stroke-linecap:round; stroke-width:0.25; stroke-dasharray:3,3;"/>
<line x1="119.975000" y1="15.000000" x2="876.200000" y2="15.000000"  style="stroke: black; stroke-linecap:round; stroke-width:0.25; stroke-dasharray:3,3;"/>
<text x="20.000000" y="17.000000" font-family="Arial" font-size="7">smooth(hslide...1.0f, 0.01f))</text>
<line x1="878.200000" y1="65.000000" x2="881.200000" y2="66.000000"  transform="rotate(0.000000,881.200000,66.000000)" style="stroke: black; stroke-width:0.25;"/>
<line x1="878.200000" y1="67.000000" x2="881.200000" y2="66.000000"  transform="rotate(0.000000,881.200000,66.000000)" style="stroke: black; stroke-width:0.25;"/>
<line x1="10.000000" y1="66.000000" x2="20.000000" y2="66.000000"  style="stroke:black; stroke-linecap:round; stroke-width:0.25;"/>
<line x1="20.000000" y1="66.000000" x2="24.000000" y2="66.000000"  style="stroke:black; stroke-linecap:round; stroke-width:0.25;"/>
<line x1="24.000000" y1="66.000000" x2="28.000000" y2="66.000000"  style="stroke:black; stroke-linecap:round; stroke-width:0.25;"/>
<line x1="28.000000" y1="24.000000" x2="36.000000" y2="24.000000"  style="stroke:black; stroke-linecap:round; stroke-width:0.25;"/>
<line x1="28.000000" y1="66.000000" x2="28.000000" y2="24.000000"  style="stroke:black; stroke-linecap:round; stroke-width:0.25;"/>
<line x1="28.000000" y1="66.000000" x2="28.000000" y2="66.000000"  style="stroke:black; stroke-linecap:round; stroke-width:0.25;"/>
<line x1="36.000000" y1="24.000000" x2="224.800000" y2="24.000000"  style="stroke:black; stroke-linecap:round; stroke-width:0.25;"/>
<line x1="216.800000" y1="44.000000" x2="220.800000" y2="44.000000"  style="stroke:black; stroke-linecap:round; stroke-width:0.25;"/>
<line x1="220.800000" y1="44.000000" x2="373.600000" y2="44.000000"  style="stroke:black; stroke-linecap:round; stroke-width:0.25;"/>
<line x1="224.800000" y1="24.000000" x2="413.600000" y2="24.000000"  style="stroke:black; stroke-linecap:round; stroke-width:0.25;"/>
<line x1="359.600000" y1="86.000000" x2="363.600000" y2="86.000000"  style="stroke:black; stroke-linecap:round; stroke-width:0.25;"/>
<line x1="363.600000" y1="86.000000" x2="373.600000" y2="86.000000"  style="stroke:black; stroke-linecap:round; stroke-width:0.25;"/>
<line x1="373.600000" y1="44.000000" x2="381.600000" y2="44.000000"  style="stroke:black; stroke-linecap:round; stroke-width:0.25;"/>
<line x1="373.600000" y1="74.000000" x2="381.600000" y2="74.000000"  style="stroke:black; stroke-linecap:round; stroke-width:0.25;"/>
<line x1="373.600000" y1="86.000000" x2="373.600000" y2="74.000000"  style="stroke:black; stroke-linecap:round; stroke-width:0.25;"/>
<line x1="373.600000" y1="86.000000" x2="373.600000" y2="86.000000"  style="stroke:black; stroke-linecap:round; stroke-width:0.25;"/>
<line x1="381.600000" y1="44.000000" x2="381.600000" y2="66.000000"  style="stroke:black; stroke-linecap:round; stroke-width:0.25;"/>
<line x1="381.600000" y1="66.000000" x2="381.600000" y2="66.000000"  style="stroke:black; stroke-linecap:round; stroke-width:0.25;"/>
<line x1="381.600000" y1="66.000000" x2="385.600000" y2="66.000000"  style="stroke:black; stroke-linecap:round; stroke-width:0.25;"/>
<line x1="381.600000" y1="74.000000" x2="385.600000" y2="74.000000"  style="stroke:black; stroke-linecap:round; stroke-width:0.25;"/>
<line x1="409.600000" y1="70.000000" x2="413.600000" y2="70.000000"  style="stroke:black; stroke-linecap:round; stroke-width:0.25;"/>
<line x1="413.600000" y1="24.000000" x2="421.600000" y2="24.000000"  style="stroke:black; stroke-linecap:round; stroke-width:0.25;"/>
<line x1="413.600000" y1="70.000000" x2="421.600000" y2="70.000000"  style="stroke:black; stroke-linecap:round; stroke-width:0.25;"/>
<line x1="421.600000" y1="24.000000" x2="421.600000" y2="62.000000"  style="stroke:black; stroke-linecap:round; stroke-width:0.25;"/>
<line x1="421.600000" y1="62.000000" x2="421.600000" y2="62.000000"  style="stroke:black; stroke-linecap:round; stroke-width:0.25;"/>
<line x1="421.600000" y1="62.000000" x2="425.600000" y2="62.000000"  style="stroke:black; stroke-linecap:round; stroke-width:0.25;"/>
<line x1="421.600000" y1="70.000000" x2="425.600000" y2="70.000000"  style="stroke:black; stroke-linecap:round; stroke-width:0.25;"/>
<line x1="449.600000" y1="66.000000" x2="453.600000" y2="66.000000"  style="stroke:black; stroke-linecap:round; stroke-width:0.25;"/>
<line x1="453.600000" y1="66.000000" x2="461.600000" y2="66.000000"  style="stroke:black; stroke-linecap:round; stroke-width:0.25;"/>
<line x1="461.600000" y1="66.000000" x2="461.600000" y2="100.000000"  style="stroke:black; stroke-linecap:round; stroke-width:0.25;"/>
<line x1="461.600000" y1="100.000000" x2="461.600000" y2="100.000000"  style="stroke:black; stroke-linecap:round; stroke-width:0.25;"/>
<line x1="461.600000" y1="100.000000" x2="469.600000" y2="100.000000"  style="stroke:black; stroke-linecap:round; stroke-width:0.25;"/>
<line x1="469.600000" y1="50.000000" x2="469.600000" y2="50.000000"  style="stroke:black; stroke-linecap:round; stroke-width:0.25;"/>
<line x1="469.600000" y1="50.000000" x2="469.600000" y2="92.000000"  style="stroke:black; stroke-linecap:round; stroke-width:0.25;"/>
<line x1="469.600000" y1="92.000000" x2="469.600000" y2="92.000000"  style="stroke:black; stroke-linecap:round; stroke-width:0.25;"/>
<line x1="469.600000" y1="92.000000" x2="642.400000" y2="92.000000"  style="stroke:black; stroke-linecap:round; stroke-width:0.25;"/>
<line x1="469.600000" y1="100.000000" x2="642.400000" y2="100.000000"  style="stroke:black; stroke-linecap:round; stroke-width:0.25;"/>
<line x1="473.600000" y1="50.000000" x2="469.600000" y2="50.000000"  style="stroke:black; stroke-linecap:round; stroke-width:0.25;"/>
<line x1="501.600000" y1="46.000000" x2="497.600000" y2="46.000000"  style="stroke:black; stroke-linecap:round; stroke-width:0.25;"/>
<line x1="501.600000" y1="54.000000" x2="497.600000" y2="54.000000"  style="stroke:black; stroke-linecap:round; stroke-width:0.25;"/>
<line x1="501.600000" y1="54.000000" x2="501.600000" y2="54.000000"  style="stroke:black; stroke-linecap:round; stroke-width:0.25;"/>
<line x1="501.600000" y1="76.000000" x2="501.600000" y2="54.000000"  style="stroke:black; stroke-linecap:round; stroke-width:0.25;"/>
<line x1="509.600000" y1="46.000000" x2="501.600000" y2="46.000000"  style="stroke:black; stroke-linecap:round; stroke-width:0.25;"/>
<line x1="509.600000" y1="76.000000" x2="501.600000" y2="76.000000"  style="stroke:black; stroke-linecap:round; stroke-width:0.25;"/>
<line x1="519.600000" y1="46.000000" x2="509.600000" y2="46.000000"  style="stroke:black; stroke-linecap:round; stroke-width:0.25;"/>
<line x1="523.600000" y1="46.000000" x2="519.600000" y2="46.000000"  style="stroke:black; stroke-linecap:round; stroke-width:0.25;"/>
<line x1="642.400000" y1="92.000000" x2="646.400000" y2="92.000000"  style="stroke:black; stroke-linecap:round; stroke-width:0.25;"/>
<line x1="642.400000" y1="100.000000" x2="646.400000" y2="100.000000"  style="stroke:black; stroke-linecap:round; stroke-width:0.25;"/>
<line x1="670.400000" y1="96.000000" x2="674.400000" y2="96.000000"  style="stroke:black; stroke-linecap:round; stroke-width:0.25;"/>
<line x1="674.400000" y1="96.000000" x2="847.200000" y2="96.000000"  style="stroke:black; stroke-linecap:round; stroke-width:0.25;"/>
<line x1="678.400000" y1="76.000000" x2="509.600000" y2="76.000000"  style="stroke:black; stroke-linecap:round; stroke-width:0.25;"/>
<line x1="847.200000" y1="76.000000" x2="678.400000" y2="76.000000"  style="stroke:black; stroke-linecap:round; stroke-width:0.25;"/>
<line x1="847.200000" y1="76.000000" x2="847.200000" y2="76.000000"  style="stroke:black; stroke-linecap:round; stroke-width:0.25;"/>
<line x1="847.200000" y1="92.000000" x2="847.200000" y2="76.000000"  style="stroke:black; stroke-linecap:round; stroke-width:0.25;"/>
<line x1="847.200000" y1="96.000000" x2="849.200000" y2="96.000000"  style="stroke:black; stroke-linecap:round; stroke-width:0.25;"/>
<line x1="849.200000" y1="96.000000" x2="855.200000" y2="96.000000"  style="stroke:black; stroke-linecap:round; stroke-width:0.25;"/>
<line x1="855.200000" y1="66.000000" x2="863.200000" y2="66.000000"  style="stroke:black; stroke-linecap:round; stroke-width:0.25;"/>
<line x1="855.200000" y1="96.000000" x2="855.200000" y2="66.000000"  style="stroke:black; stroke-linecap:round; stroke-width:0.25;"/>
<line x1="855.200000" y1="96.000000" x2="855.200000" y2="96.000000"  style="stroke:black; stroke-linecap:round; stroke-width:0.25;"/>
<line x1="863.200000" y1="66.000000" x2="867.200000" y2="66.000000"  style="stroke:black; stroke-linecap:round; stroke-width:0.25;"/>
<line x1="867.200000" y1="66.000000" x2="871.200000" y2="66.000000"  style="stroke:black; stroke-linecap:round; stroke-width:0.25;"/>
<line x1="871.200000" y1="66.000000" x2="881.200000" y2="66.000000"  style="stroke:black; stroke-linecap:round; stroke-width:0.25;"/>
</svg>
