<?xml version="1.0"?>
<svg xmlns="http://www.w3.org/2000/svg" xmlns:xlink="http://www.w3.org/1999/xlink" viewBox="0 0 563.900000 100.000000" width="281.950000mm" height="50.000000mm" version="1.1">
<rect x="1.000000" y="1.000000" width="562.900000" height="99.000000" rx="0" ry="0" style="stroke:none;fill:#cccccc;"/>
<rect x="0.000000" y="0.000000" width="562.900000" height="99.000000" rx="0" ry="0" style="stroke:none;fill:#ffffff;"/>
<text x="10.000000" y="7.000000" font-family="Arial" font-size="7"></text>
<rect x="51.000000" y="43.000000" width="180.600000" height="24.000000" rx="0" ry="0" style="stroke:none;fill:#cccccc;"/>
<rect x="50.000000" y="42.000000" width="180.600000" height="24.000000" rx="0" ry="0" style="stroke:none;fill:#477881;"/>
<text x="140.300000" y="56.000000" font-family="Arial" font-size="7" text-anchor="middle" fill="#FFFFFF">hslider(volume, 1.0f, 0.0f, 1.0f, 0.001f)</text>
<circle cx="52.000000" cy="44.000000" r="1"/>
<line x1="41.000000" y1="33.000000" x2="41.000000" y2="75.000000"  style="stroke: black; stroke-linecap:round; stroke-width:0.25; stroke-dasharray:3,3;"/>
<line x1="41.000000" y1="75.000000" x2="239.600000" y2="75.000000"  style="stroke: black; stroke-linecap:round; stroke-width:0.25; stroke-dasharray:3,3;"/>
<line x1="239.600000" y1="75.000000" x2="239.600000" y2="33.000000"  style="stroke: black; stroke-linecap:round; stroke-width:0.25; stroke-dasharray:3,3;"/>
<line x1="41.000000" y1="33.000000" x2="46.000000" y2="33.000000"  style="stroke: black; stroke-linecap:round; stroke-width:0.25; stroke-dasharray:3,3;"/>
<line x1="62.125000" y1="33.000000" x2="239.600000" y2="33.000000"  style="stroke: black; stroke-linecap:round; stroke-width:0.25; stroke-dasharray:3,3;"/>
<text x="46.000000" y="35.000000" font-family="Arial" font-size="7">vol</text>
<rect x="257.600000" y="39.000000" width="24.000000" height="24.000000" rx="0" ry="0" style="stroke:none;fill:#cccccc;"/>
<rect x="256.600000" y="38.000000" width="24.000000" height="24.000000" rx="0" ry="0" style="stroke:none;fill:#4B71A1;"/>
<text x="268.600000" y="52.000000" font-family="Arial" font-size="7" text-anchor="middle" fill="#FFFFFF">*</text>
<circle cx="258.600000" cy="40.000000" r="1"/>
<line x1="253.600000" y1="45.000000" x2="256.600000" y2="46.000000"  transform="rotate(0.000000,256.600000,46.000000)" style="stroke: black; stroke-width:0.25;"/>
<line x1="253.600000" y1="47.000000" x2="256.600000" y2="46.000000"  transform="rotate(0.000000,256.600000,46.000000)" style="stroke: black; stroke-width:0.25;"/>
<line x1="253.600000" y1="53.000000" x2="256.600000" y2="54.000000"  transform="rotate(0.000000,256.600000,54.000000)" style="stroke: black; stroke-width:0.25;"/>
<line x1="253.600000" y1="55.000000" x2="256.600000" y2="54.000000"  transform="rotate(0.000000,256.600000,54.000000)" style="stroke: black; stroke-width:0.25;"/>
<a xlink:href="cubicnl-0x7fec1a40ac50.svg">
<rect x="289.600000" y="39.000000" width="129.000000" height="24.000000" rx="0" ry="0" style="stroke:none;fill:#cccccc;"/>
<rect x="288.600000" y="38.000000" width="129.000000" height="24.000000" rx="0" ry="0" style="stroke:none;fill:#003366;"/>
</a>
<a xlink:href="cubicnl-0x7fec1a40ac50.svg">
<text x="353.100000" y="52.000000" font-family="Arial" font-size="7" text-anchor="middle" fill="#FFFFFF">cubicnl_nodc(...00000000001f)</text>
</a>
<circle cx="290.600000" cy="40.000000" r="1"/>
<line x1="285.600000" y1="49.000000" x2="288.600000" y2="50.000000"  transform="rotate(0.000000,288.600000,50.000000)" style="stroke: black; stroke-width:0.25;"/>
<line x1="285.600000" y1="51.000000" x2="288.600000" y2="50.000000"  transform="rotate(0.000000,288.600000,50.000000)" style="stroke: black; stroke-width:0.25;"/>
<a xlink:href="flanger-0x7fec1a44de10.svg">
<rect x="426.600000" y="39.000000" width="38.700000" height="24.000000" rx="0" ry="0" style="stroke:none;fill:#cccccc;"/>
<rect x="425.600000" y="38.000000" width="38.700000" height="24.000000" rx="0" ry="0" style="stroke:none;fill:#003366;"/>
</a>
<a xlink:href="flanger-0x7fec1a44de10.svg">
<text x="444.950000" y="52.000000" font-family="Arial" font-size="7" text-anchor="middle" fill="#FFFFFF">flanger</text>
</a>
<circle cx="427.600000" cy="40.000000" r="1"/>
<line x1="422.600000" y1="49.000000" x2="425.600000" y2="50.000000"  transform="rotate(0.000000,425.600000,50.000000)" style="stroke: black; stroke-width:0.25;"/>
<line x1="422.600000" y1="51.000000" x2="425.600000" y2="50.000000"  transform="rotate(0.000000,425.600000,50.000000)" style="stroke: black; stroke-width:0.25;"/>
<a xlink:href="panno-0x7fec1a0e1380.svg">
<rect x="473.300000" y="39.000000" width="25.800000" height="24.000000" rx="0" ry="0" style="stroke:none;fill:#cccccc;"/>
<rect x="472.300000" y="38.000000" width="25.800000" height="24.000000" rx="0" ry="0" style="stroke:none;fill:#003366;"/>
</a>
<a xlink:href="panno-0x7fec1a0e1380.svg">
<text x="485.200000" y="52.000000" font-family="Arial" font-size="7" text-anchor="middle" fill="#FFFFFF">panno</text>
</a>
<circle cx="474.300000" cy="40.000000" r="1"/>
<line x1="469.300000" y1="49.000000" x2="472.300000" y2="50.000000"  transform="rotate(0.000000,472.300000,50.000000)" style="stroke: black; stroke-width:0.25;"/>
<line x1="469.300000" y1="51.000000" x2="472.300000" y2="50.000000"  transform="rotate(0.000000,472.300000,50.000000)" style="stroke: black; stroke-width:0.25;"/>
<a xlink:href="reverb-0x7fec1a469380.svg">
<rect x="507.100000" y="39.000000" width="25.800000" height="24.000000" rx="0" ry="0" style="stroke:none;fill:#cccccc;"/>
<rect x="506.100000" y="38.000000" width="25.800000" height="24.000000" rx="0" ry="0" style="stroke:none;fill:#003366;"/>
</a>
<a xlink:href="reverb-0x7fec1a469380.svg">
<text x="519.000000" y="52.000000" font-family="Arial" font-size="7" text-anchor="middle" fill="#FFFFFF">reverb</text>
</a>
<circle cx="508.100000" cy="40.000000" r="1"/>
<line x1="503.100000" y1="45.000000" x2="506.100000" y2="46.000000"  transform="rotate(0.000000,506.100000,46.000000)" style="stroke: black; stroke-width:0.25;"/>
<line x1="503.100000" y1="47.000000" x2="506.100000" y2="46.000000"  transform="rotate(0.000000,506.100000,46.000000)" style="stroke: black; stroke-width:0.25;"/>
<line x1="503.100000" y1="53.000000" x2="506.100000" y2="54.000000"  transform="rotate(0.000000,506.100000,54.000000)" style="stroke: black; stroke-width:0.25;"/>
<line x1="503.100000" y1="55.000000" x2="506.100000" y2="54.000000"  transform="rotate(0.000000,506.100000,54.000000)" style="stroke: black; stroke-width:0.25;"/>
<line x1="15.000000" y1="15.000000" x2="15.000000" y2="85.000000"  style="stroke: black; stroke-linecap:round; stroke-width:0.25; stroke-dasharray:3,3;"/>
<line x1="15.000000" y1="85.000000" x2="548.900000" y2="85.000000"  style="stroke: black; stroke-linecap:round; stroke-width:0.25; stroke-dasharray:3,3;"/>
<line x1="548.900000" y1="85.000000" x2="548.900000" y2="15.000000"  style="stroke: black; stroke-linecap:round; stroke-width:0.25; stroke-dasharray:3,3;"/>
<line x1="15.000000" y1="15.000000" x2="20.000000" y2="15.000000"  style="stroke: black; stroke-linecap:round; stroke-width:0.25; stroke-dasharray:3,3;"/>
<line x1="49.025000" y1="15.000000" x2="548.900000" y2="15.000000"  style="stroke: black; stroke-linecap:round; stroke-width:0.25; stroke-dasharray:3,3;"/>
<text x="20.000000" y="17.000000" font-family="Arial" font-size="7">process</text>
<line x1="550.900000" y1="45.000000" x2="553.900000" y2="46.000000"  transform="rotate(0.000000,553.900000,46.000000)" style="stroke: black; stroke-width:0.25;"/>
<line x1="550.900000" y1="47.000000" x2="553.900000" y2="46.000000"  transform="rotate(0.000000,553.900000,46.000000)" style="stroke: black; stroke-width:0.25;"/>
<line x1="550.900000" y1="53.000000" x2="553.900000" y2="54.000000"  transform="rotate(0.000000,553.900000,54.000000)" style="stroke: black; stroke-width:0.25;"/>
<line x1="550.900000" y1="55.000000" x2="553.900000" y2="54.000000"  transform="rotate(0.000000,553.900000,54.000000)" style="stroke: black; stroke-width:0.25;"/>
<line x1="10.000000" y1="50.000000" x2="20.000000" y2="50.000000"  style="stroke:black; stroke-linecap:round; stroke-width:0.25;"/>
<line x1="20.000000" y1="50.000000" x2="24.000000" y2="50.000000"  style="stroke:black; stroke-linecap:round; stroke-width:0.25;"/>
<line x1="24.000000" y1="50.000000" x2="28.000000" y2="50.000000"  style="stroke:black; stroke-linecap:round; stroke-width:0.25;"/>
<line x1="28.000000" y1="24.000000" x2="36.000000" y2="24.000000"  style="stroke:black; stroke-linecap:round; stroke-width:0.25;"/>
<line x1="28.000000" y1="50.000000" x2="28.000000" y2="24.000000"  style="stroke:black; stroke-linecap:round; stroke-width:0.25;"/>
<line x1="28.000000" y1="50.000000" x2="28.000000" y2="50.000000"  style="stroke:black; stroke-linecap:round; stroke-width:0.25;"/>
<line x1="36.000000" y1="24.000000" x2="140.300000" y2="24.000000"  style="stroke:black; stroke-linecap:round; stroke-width:0.25;"/>
<line x1="140.300000" y1="24.000000" x2="244.600000" y2="24.000000"  style="stroke:black; stroke-linecap:round; stroke-width:0.25;"/>
<line x1="230.600000" y1="54.000000" x2="234.600000" y2="54.000000"  style="stroke:black; stroke-linecap:round; stroke-width:0.25;"/>
<line x1="234.600000" y1="54.000000" x2="244.600000" y2="54.000000"  style="stroke:black; stroke-linecap:round; stroke-width:0.25;"/>
<line x1="244.600000" y1="54.000000" x2="252.600000" y2="54.000000"  style="stroke:black; stroke-linecap:round; stroke-width:0.25;"/>
<line x1="244.600000" y1="24.000000" x2="252.600000" y2="24.000000"  style="stroke:black; stroke-linecap:round; stroke-width:0.25;"/>
<line x1="252.600000" y1="46.000000" x2="256.600000" y2="46.000000"  style="stroke:black; stroke-linecap:round; stroke-width:0.25;"/>
<line x1="252.600000" y1="54.000000" x2="256.600000" y2="54.000000"  style="stroke:black; stroke-linecap:round; stroke-width:0.25;"/>
<line x1="252.600000" y1="24.000000" x2="252.600000" y2="46.000000"  style="stroke:black; stroke-linecap:round; stroke-width:0.25;"/>
<line x1="252.600000" y1="46.000000" x2="252.600000" y2="46.000000"  style="stroke:black; stroke-linecap:round; stroke-width:0.25;"/>
<line x1="280.600000" y1="50.000000" x2="284.600000" y2="50.000000"  style="stroke:black; stroke-linecap:round; stroke-width:0.25;"/>
<line x1="284.600000" y1="50.000000" x2="284.600000" y2="50.000000"  style="stroke:black; stroke-linecap:round; stroke-width:0.25;"/>
<line x1="284.600000" y1="50.000000" x2="288.600000" y2="50.000000"  style="stroke:black; stroke-linecap:round; stroke-width:0.25;"/>
<line x1="417.600000" y1="50.000000" x2="421.600000" y2="50.000000"  style="stroke:black; stroke-linecap:round; stroke-width:0.25;"/>
<line x1="421.600000" y1="50.000000" x2="421.600000" y2="50.000000"  style="stroke:black; stroke-linecap:round; stroke-width:0.25;"/>
<line x1="421.600000" y1="50.000000" x2="425.600000" y2="50.000000"  style="stroke:black; stroke-linecap:round; stroke-width:0.25;"/>
<line x1="464.300000" y1="50.000000" x2="468.300000" y2="50.000000"  style="stroke:black; stroke-linecap:round; stroke-width:0.25;"/>
<line x1="468.300000" y1="50.000000" x2="468.300000" y2="50.000000"  style="stroke:black; stroke-linecap:round; stroke-width:0.25;"/>
<line x1="468.300000" y1="50.000000" x2="472.300000" y2="50.000000"  style="stroke:black; stroke-linecap:round; stroke-width:0.25;"/>
<line x1="498.100000" y1="46.000000" x2="502.100000" y2="46.000000"  style="stroke:black; stroke-linecap:round; stroke-width:0.25;"/>
<line x1="498.100000" y1="54.000000" x2="502.100000" y2="54.000000"  style="stroke:black; stroke-linecap:round; stroke-width:0.25;"/>
<line x1="502.100000" y1="46.000000" x2="502.100000" y2="46.000000"  style="stroke:black; stroke-linecap:round; stroke-width:0.25;"/>
<line x1="502.100000" y1="46.000000" x2="506.100000" y2="46.000000"  style="stroke:black; stroke-linecap:round; stroke-width:0.25;"/>
<line x1="502.100000" y1="54.000000" x2="502.100000" y2="54.000000"  style="stroke:black; stroke-linecap:round; stroke-width:0.25;"/>
<line x1="502.100000" y1="54.000000" x2="506.100000" y2="54.000000"  style="stroke:black; stroke-linecap:round; stroke-width:0.25;"/>
<line x1="531.900000" y1="46.000000" x2="535.900000" y2="46.000000"  style="stroke:black; stroke-linecap:round; stroke-width:0.25;"/>
<line x1="531.900000" y1="54.000000" x2="535.900000" y2="54.000000"  style="stroke:black; stroke-linecap:round; stroke-width:0.25;"/>
<line x1="535.900000" y1="46.000000" x2="535.900000" y2="46.000000"  style="stroke:black; stroke-linecap:round; stroke-width:0.25;"/>
<line x1="535.900000" y1="46.000000" x2="539.900000" y2="46.000000"  style="stroke:black; stroke-linecap:round; stroke-width:0.25;"/>
<line x1="535.900000" y1="54.000000" x2="535.900000" y2="54.000000"  style="stroke:black; stroke-linecap:round; stroke-width:0.25;"/>
<line x1="535.900000" y1="54.000000" x2="539.900000" y2="54.000000"  style="stroke:black; stroke-linecap:round; stroke-width:0.25;"/>
<line x1="539.900000" y1="46.000000" x2="543.900000" y2="46.000000"  style="stroke:black; stroke-linecap:round; stroke-width:0.25;"/>
<line x1="539.900000" y1="54.000000" x2="543.900000" y2="54.000000"  style="stroke:black; stroke-linecap:round; stroke-width:0.25;"/>
<line x1="543.900000" y1="46.000000" x2="553.900000" y2="46.000000"  style="stroke:black; stroke-linecap:round; stroke-width:0.25;"/>
<line x1="543.900000" y1="54.000000" x2="553.900000" y2="54.000000"  style="stroke:black; stroke-linecap:round; stroke-width:0.25;"/>
</svg>
