<?xml version="1.0"?>
<svg xmlns="http://www.w3.org/2000/svg" xmlns:xlink="http://www.w3.org/1999/xlink" viewBox="0 0 441.700000 208.000000" width="220.850000mm" height="104.000000mm" version="1.1">
<a xlink:href="p-0x7f9192eea5b0.svg">
<rect x="1.000000" y="1.000000" width="440.700000" height="207.000000" rx="0" ry="0" style="stroke:none;fill:#cccccc;"/>
<rect x="0.000000" y="0.000000" width="440.700000" height="207.000000" rx="0" ry="0" style="stroke:none;fill:#ffffff;"/>
</a>
<text x="10.000000" y="7.000000" font-family="Arial" font-size="7"></text>
<rect x="166.500000" y="43.000000" width="24.000000" height="24.000000" rx="0" ry="0" style="stroke:none;fill:#cccccc;"/>
<rect x="165.500000" y="42.000000" width="24.000000" height="24.000000" rx="0" ry="0" style="stroke:none;fill:#f44800;"/>
<text x="177.500000" y="56.000000" font-family="Arial" font-size="7" text-anchor="middle" fill="#FFFFFF">0</text>
<circle cx="167.500000" cy="44.000000" r="1"/>
<line x1="156.500000" y1="33.000000" x2="156.500000" y2="75.000000"  style="stroke: black; stroke-linecap:round; stroke-width:0.25; stroke-dasharray:3,3;"/>
<line x1="156.500000" y1="75.000000" x2="198.500000" y2="75.000000"  style="stroke: black; stroke-linecap:round; stroke-width:0.25; stroke-dasharray:3,3;"/>
<line x1="198.500000" y1="75.000000" x2="198.500000" y2="33.000000"  style="stroke: black; stroke-linecap:round; stroke-width:0.25; stroke-dasharray:3,3;"/>
<line x1="156.500000" y1="33.000000" x2="161.500000" y2="33.000000"  style="stroke: black; stroke-linecap:round; stroke-width:0.25; stroke-dasharray:3,3;"/>
<line x1="174.400000" y1="33.000000" x2="198.500000" y2="33.000000"  style="stroke: black; stroke-linecap:round; stroke-width:0.25; stroke-dasharray:3,3;"/>
<text x="161.500000" y="35.000000" font-family="Arial" font-size="7">b2</text>
<rect x="216.500000" y="39.000000" width="24.000000" height="24.000000" rx="0" ry="0" style="stroke:none;fill:#cccccc;"/>
<rect x="215.500000" y="38.000000" width="24.000000" height="24.000000" rx="0" ry="0" style="stroke:none;fill:#4B71A1;"/>
<text x="227.500000" y="52.000000" font-family="Arial" font-size="7" text-anchor="middle" fill="#FFFFFF">&lt;</text>
<circle cx="217.500000" cy="40.000000" r="1"/>
<line x1="212.500000" y1="45.000000" x2="215.500000" y2="46.000000"  transform="rotate(0.000000,215.500000,46.000000)" style="stroke: black; stroke-width:0.25;"/>
<line x1="212.500000" y1="47.000000" x2="215.500000" y2="46.000000"  transform="rotate(0.000000,215.500000,46.000000)" style="stroke: black; stroke-width:0.25;"/>
<line x1="212.500000" y1="53.000000" x2="215.500000" y2="54.000000"  transform="rotate(0.000000,215.500000,54.000000)" style="stroke: black; stroke-width:0.25;"/>
<line x1="212.500000" y1="55.000000" x2="215.500000" y2="54.000000"  transform="rotate(0.000000,215.500000,54.000000)" style="stroke: black; stroke-width:0.25;"/>
<rect x="94.000000" y="111.000000" width="24.000000" height="24.000000" rx="0" ry="0" style="stroke:none;fill:#cccccc;"/>
<rect x="93.000000" y="110.000000" width="24.000000" height="24.000000" rx="0" ry="0" style="stroke:none;fill:#f44800;"/>
<text x="105.000000" y="124.000000" font-family="Arial" font-size="7" text-anchor="middle" fill="#FFFFFF">1</text>
<circle cx="95.000000" cy="112.000000" r="1"/>
<line x1="84.000000" y1="101.000000" x2="84.000000" y2="143.000000"  style="stroke: black; stroke-linecap:round; stroke-width:0.25; stroke-dasharray:3,3;"/>
<line x1="84.000000" y1="143.000000" x2="126.000000" y2="143.000000"  style="stroke: black; stroke-linecap:round; stroke-width:0.25; stroke-dasharray:3,3;"/>
<line x1="126.000000" y1="143.000000" x2="126.000000" y2="101.000000"  style="stroke: black; stroke-linecap:round; stroke-width:0.25; stroke-dasharray:3,3;"/>
<line x1="84.000000" y1="101.000000" x2="89.000000" y2="101.000000"  style="stroke: black; stroke-linecap:round; stroke-width:0.25; stroke-dasharray:3,3;"/>
<line x1="101.900000" y1="101.000000" x2="126.000000" y2="101.000000"  style="stroke: black; stroke-linecap:round; stroke-width:0.25; stroke-dasharray:3,3;"/>
<text x="89.000000" y="103.000000" font-family="Arial" font-size="7">b0</text>
<a xlink:href="p0-0x7f9192ee7730.svg">
<rect x="94.000000" y="153.000000" width="24.000000" height="24.000000" rx="0" ry="0" style="stroke:none;fill:#cccccc;"/>
<rect x="93.000000" y="152.000000" width="24.000000" height="24.000000" rx="0" ry="0" style="stroke:none;fill:#003366;"/>
</a>
<a xlink:href="p0-0x7f9192ee7730.svg">
<text x="105.000000" y="166.000000" font-family="Arial" font-size="7" text-anchor="middle" fill="#FFFFFF">p0</text>
</a>
<circle cx="95.000000" cy="154.000000" r="1"/>
<rect x="144.000000" y="127.000000" width="24.000000" height="24.000000" rx="0" ry="0" style="stroke:none;fill:#cccccc;"/>
<rect x="143.000000" y="126.000000" width="24.000000" height="24.000000" rx="0" ry="0" style="stroke:none;fill:#4B71A1;"/>
<text x="155.000000" y="140.000000" font-family="Arial" font-size="7" text-anchor="middle" fill="#FFFFFF">-</text>
<circle cx="145.000000" cy="128.000000" r="1"/>
<line x1="140.000000" y1="133.000000" x2="143.000000" y2="134.000000"  transform="rotate(0.000000,143.000000,134.000000)" style="stroke: black; stroke-width:0.25;"/>
<line x1="140.000000" y1="135.000000" x2="143.000000" y2="134.000000"  transform="rotate(0.000000,143.000000,134.000000)" style="stroke: black; stroke-width:0.25;"/>
<line x1="140.000000" y1="141.000000" x2="143.000000" y2="142.000000"  transform="rotate(0.000000,143.000000,142.000000)" style="stroke: black; stroke-width:0.25;"/>
<line x1="140.000000" y1="143.000000" x2="143.000000" y2="142.000000"  transform="rotate(0.000000,143.000000,142.000000)" style="stroke: black; stroke-width:0.25;"/>
<rect x="184.000000" y="123.000000" width="24.000000" height="24.000000" rx="0" ry="0" style="stroke:none;fill:#cccccc;"/>
<rect x="183.000000" y="122.000000" width="24.000000" height="24.000000" rx="0" ry="0" style="stroke:none;fill:#4B71A1;"/>
<text x="195.000000" y="136.000000" font-family="Arial" font-size="7" text-anchor="middle" fill="#FFFFFF">*</text>
<circle cx="185.000000" cy="124.000000" r="1"/>
<line x1="180.000000" y1="129.000000" x2="183.000000" y2="130.000000"  transform="rotate(0.000000,183.000000,130.000000)" style="stroke: black; stroke-width:0.25;"/>
<line x1="180.000000" y1="131.000000" x2="183.000000" y2="130.000000"  transform="rotate(0.000000,183.000000,130.000000)" style="stroke: black; stroke-width:0.25;"/>
<line x1="180.000000" y1="137.000000" x2="183.000000" y2="138.000000"  transform="rotate(0.000000,183.000000,138.000000)" style="stroke: black; stroke-width:0.25;"/>
<line x1="180.000000" y1="139.000000" x2="183.000000" y2="138.000000"  transform="rotate(0.000000,183.000000,138.000000)" style="stroke: black; stroke-width:0.25;"/>
<rect x="234.000000" y="127.000000" width="24.000000" height="24.000000" rx="0" ry="0" style="stroke:none;fill:#cccccc;"/>
<rect x="233.000000" y="126.000000" width="24.000000" height="24.000000" rx="0" ry="0" style="stroke:none;fill:#f44800;"/>
<text x="245.000000" y="140.000000" font-family="Arial" font-size="7" text-anchor="middle" fill="#FFFFFF">1</text>
<circle cx="235.000000" cy="128.000000" r="1"/>
<line x1="224.000000" y1="117.000000" x2="224.000000" y2="159.000000"  style="stroke: black; stroke-linecap:round; stroke-width:0.25; stroke-dasharray:3,3;"/>
<line x1="224.000000" y1="159.000000" x2="266.000000" y2="159.000000"  style="stroke: black; stroke-linecap:round; stroke-width:0.25; stroke-dasharray:3,3;"/>
<line x1="266.000000" y1="159.000000" x2="266.000000" y2="117.000000"  style="stroke: black; stroke-linecap:round; stroke-width:0.25; stroke-dasharray:3,3;"/>
<line x1="224.000000" y1="117.000000" x2="229.000000" y2="117.000000"  style="stroke: black; stroke-linecap:round; stroke-width:0.25; stroke-dasharray:3,3;"/>
<line x1="241.900000" y1="117.000000" x2="266.000000" y2="117.000000"  style="stroke: black; stroke-linecap:round; stroke-width:0.25; stroke-dasharray:3,3;"/>
<text x="229.000000" y="119.000000" font-family="Arial" font-size="7">b0</text>
<rect x="284.000000" y="123.000000" width="24.000000" height="24.000000" rx="0" ry="0" style="stroke:none;fill:#cccccc;"/>
<rect x="283.000000" y="122.000000" width="24.000000" height="24.000000" rx="0" ry="0" style="stroke:none;fill:#4B71A1;"/>
<text x="295.000000" y="136.000000" font-family="Arial" font-size="7" text-anchor="middle" fill="#FFFFFF">+</text>
<circle cx="285.000000" cy="124.000000" r="1"/>
<line x1="280.000000" y1="129.000000" x2="283.000000" y2="130.000000"  transform="rotate(0.000000,283.000000,130.000000)" style="stroke: black; stroke-width:0.25;"/>
<line x1="280.000000" y1="131.000000" x2="283.000000" y2="130.000000"  transform="rotate(0.000000,283.000000,130.000000)" style="stroke: black; stroke-width:0.25;"/>
<line x1="280.000000" y1="137.000000" x2="283.000000" y2="138.000000"  transform="rotate(0.000000,283.000000,138.000000)" style="stroke: black; stroke-width:0.25;"/>
<line x1="280.000000" y1="139.000000" x2="283.000000" y2="138.000000"  transform="rotate(0.000000,283.000000,138.000000)" style="stroke: black; stroke-width:0.25;"/>
<rect x="324.000000" y="119.000000" width="24.000000" height="24.000000" rx="0" ry="0" style="stroke:none;fill:#cccccc;"/>
<rect x="323.000000" y="118.000000" width="24.000000" height="24.000000" rx="0" ry="0" style="stroke:none;fill:#4B71A1;"/>
<text x="335.000000" y="132.000000" font-family="Arial" font-size="7" text-anchor="middle" fill="#FFFFFF">+</text>
<circle cx="325.000000" cy="120.000000" r="1"/>
<line x1="320.000000" y1="125.000000" x2="323.000000" y2="126.000000"  transform="rotate(0.000000,323.000000,126.000000)" style="stroke: black; stroke-width:0.25;"/>
<line x1="320.000000" y1="127.000000" x2="323.000000" y2="126.000000"  transform="rotate(0.000000,323.000000,126.000000)" style="stroke: black; stroke-width:0.25;"/>
<line x1="320.000000" y1="133.000000" x2="323.000000" y2="134.000000"  transform="rotate(0.000000,323.000000,134.000000)" style="stroke: black; stroke-width:0.25;"/>
<line x1="320.000000" y1="135.000000" x2="323.000000" y2="134.000000"  transform="rotate(0.000000,323.000000,134.000000)" style="stroke: black; stroke-width:0.25;"/>
<rect x="372.000000" y="93.000000" width="38.700000" height="24.000000" rx="0" ry="0" style="stroke:none;fill:#cccccc;"/>
<rect x="371.000000" y="92.000000" width="38.700000" height="24.000000" rx="0" ry="0" style="stroke:none;fill:#4B71A1;"/>
<text x="390.350000" y="106.000000" font-family="Arial" font-size="7" text-anchor="middle" fill="#FFFFFF">select2</text>
<circle cx="373.000000" cy="94.000000" r="1"/>
<line x1="368.000000" y1="95.000000" x2="371.000000" y2="96.000000"  transform="rotate(0.000000,371.000000,96.000000)" style="stroke: black; stroke-width:0.25;"/>
<line x1="368.000000" y1="97.000000" x2="371.000000" y2="96.000000"  transform="rotate(0.000000,371.000000,96.000000)" style="stroke: black; stroke-width:0.25;"/>
<line x1="368.000000" y1="103.000000" x2="371.000000" y2="104.000000"  transform="rotate(0.000000,371.000000,104.000000)" style="stroke: black; stroke-width:0.25;"/>
<line x1="368.000000" y1="105.000000" x2="371.000000" y2="104.000000"  transform="rotate(0.000000,371.000000,104.000000)" style="stroke: black; stroke-width:0.25;"/>
<line x1="368.000000" y1="111.000000" x2="371.000000" y2="112.000000"  transform="rotate(0.000000,371.000000,112.000000)" style="stroke: black; stroke-width:0.25;"/>
<line x1="368.000000" y1="113.000000" x2="371.000000" y2="112.000000"  transform="rotate(0.000000,371.000000,112.000000)" style="stroke: black; stroke-width:0.25;"/>
<line x1="15.000000" y1="15.000000" x2="15.000000" y2="193.000000"  style="stroke: black; stroke-linecap:round; stroke-width:0.25; stroke-dasharray:3,3;"/>
<line x1="15.000000" y1="193.000000" x2="426.700000" y2="193.000000"  style="stroke: black; stroke-linecap:round; stroke-width:0.25; stroke-dasharray:3,3;"/>
<line x1="426.700000" y1="193.000000" x2="426.700000" y2="15.000000"  style="stroke: black; stroke-linecap:round; stroke-width:0.25; stroke-dasharray:3,3;"/>
<line x1="15.000000" y1="15.000000" x2="20.000000" y2="15.000000"  style="stroke: black; stroke-linecap:round; stroke-width:0.25; stroke-dasharray:3,3;"/>
<line x1="55.475000" y1="15.000000" x2="426.700000" y2="15.000000"  style="stroke: black; stroke-linecap:round; stroke-width:0.25; stroke-dasharray:3,3;"/>
<text x="20.000000" y="17.000000" font-family="Arial" font-size="7">selector2</text>
<line x1="428.700000" y1="103.000000" x2="431.700000" y2="104.000000"  transform="rotate(0.000000,431.700000,104.000000)" style="stroke: black; stroke-width:0.25;"/>
<line x1="428.700000" y1="105.000000" x2="431.700000" y2="104.000000"  transform="rotate(0.000000,431.700000,104.000000)" style="stroke: black; stroke-width:0.25;"/>
<line x1="10.000000" y1="96.000000" x2="20.000000" y2="96.000000"  style="stroke:black; stroke-linecap:round; stroke-width:0.25;"/>
<line x1="10.000000" y1="104.000000" x2="20.000000" y2="104.000000"  style="stroke:black; stroke-linecap:round; stroke-width:0.25;"/>
<line x1="10.000000" y1="112.000000" x2="20.000000" y2="112.000000"  style="stroke:black; stroke-linecap:round; stroke-width:0.25;"/>
<line x1="20.000000" y1="96.000000" x2="24.000000" y2="96.000000"  style="stroke:black; stroke-linecap:round; stroke-width:0.25;"/>
<line x1="20.000000" y1="104.000000" x2="24.000000" y2="104.000000"  style="stroke:black; stroke-linecap:round; stroke-width:0.25;"/>
<line x1="20.000000" y1="112.000000" x2="24.000000" y2="112.000000"  style="stroke:black; stroke-linecap:round; stroke-width:0.25;"/>
<line x1="24.000000" y1="96.000000" x2="28.000000" y2="96.000000"  style="stroke:black; stroke-linecap:round; stroke-width:0.25;"/>
<line x1="24.000000" y1="104.000000" x2="28.000000" y2="104.000000"  style="stroke:black; stroke-linecap:round; stroke-width:0.25;"/>
<line x1="24.000000" y1="112.000000" x2="28.000000" y2="112.000000"  style="stroke:black; stroke-linecap:round; stroke-width:0.25;"/>
<line x1="28.000000" y1="24.000000" x2="44.000000" y2="24.000000"  style="stroke:black; stroke-linecap:round; stroke-width:0.25;"/>
<line x1="28.000000" y1="96.000000" x2="28.000000" y2="24.000000"  style="stroke:black; stroke-linecap:round; stroke-width:0.25;"/>
<line x1="28.000000" y1="96.000000" x2="28.000000" y2="96.000000"  style="stroke:black; stroke-linecap:round; stroke-width:0.25;"/>
<line x1="28.000000" y1="104.000000" x2="44.000000" y2="104.000000"  style="stroke:black; stroke-linecap:round; stroke-width:0.25;"/>
<line x1="28.000000" y1="112.000000" x2="36.000000" y2="112.000000"  style="stroke:black; stroke-linecap:round; stroke-width:0.25;"/>
<line x1="36.000000" y1="112.000000" x2="36.000000" y2="184.000000"  style="stroke:black; stroke-linecap:round; stroke-width:0.25;"/>
<line x1="36.000000" y1="184.000000" x2="44.000000" y2="184.000000"  style="stroke:black; stroke-linecap:round; stroke-width:0.25;"/>
<line x1="44.000000" y1="24.000000" x2="151.500000" y2="24.000000"  style="stroke:black; stroke-linecap:round; stroke-width:0.25;"/>
<line x1="44.000000" y1="104.000000" x2="44.000000" y2="130.000000"  style="stroke:black; stroke-linecap:round; stroke-width:0.25;"/>
<line x1="44.000000" y1="130.000000" x2="44.000000" y2="130.000000"  style="stroke:black; stroke-linecap:round; stroke-width:0.25;"/>
<line x1="44.000000" y1="130.000000" x2="48.000000" y2="130.000000"  style="stroke:black; stroke-linecap:round; stroke-width:0.25;"/>
<line x1="44.000000" y1="184.000000" x2="197.500000" y2="184.000000"  style="stroke:black; stroke-linecap:round; stroke-width:0.25;"/>
<line x1="48.000000" y1="130.000000" x2="52.000000" y2="130.000000"  style="stroke:black; stroke-linecap:round; stroke-width:0.25;"/>
<line x1="52.000000" y1="130.000000" x2="79.000000" y2="84.000000"  style="stroke:black; stroke-linecap:round; stroke-width:0.25;"/>
<line x1="52.000000" y1="130.000000" x2="79.000000" y2="92.000000"  style="stroke:black; stroke-linecap:round; stroke-width:0.25;"/>
<line x1="79.000000" y1="84.000000" x2="195.000000" y2="84.000000"  style="stroke:black; stroke-linecap:round; stroke-width:0.25;"/>
<line x1="79.000000" y1="92.000000" x2="125.000000" y2="92.000000"  style="stroke:black; stroke-linecap:round; stroke-width:0.25;"/>
<line x1="117.000000" y1="122.000000" x2="121.000000" y2="122.000000"  style="stroke:black; stroke-linecap:round; stroke-width:0.25;"/>
<line x1="117.000000" y1="164.000000" x2="121.000000" y2="164.000000"  style="stroke:black; stroke-linecap:round; stroke-width:0.25;"/>
<line x1="121.000000" y1="122.000000" x2="131.000000" y2="122.000000"  style="stroke:black; stroke-linecap:round; stroke-width:0.25;"/>
<line x1="121.000000" y1="164.000000" x2="131.000000" y2="164.000000"  style="stroke:black; stroke-linecap:round; stroke-width:0.25;"/>
<line x1="125.000000" y1="92.000000" x2="171.000000" y2="92.000000"  style="stroke:black; stroke-linecap:round; stroke-width:0.25;"/>
<line x1="131.000000" y1="122.000000" x2="139.000000" y2="122.000000"  style="stroke:black; stroke-linecap:round; stroke-width:0.25;"/>
<line x1="131.000000" y1="142.000000" x2="139.000000" y2="142.000000"  style="stroke:black; stroke-linecap:round; stroke-width:0.25;"/>
<line x1="131.000000" y1="164.000000" x2="131.000000" y2="142.000000"  style="stroke:black; stroke-linecap:round; stroke-width:0.25;"/>
<line x1="131.000000" y1="164.000000" x2="131.000000" y2="164.000000"  style="stroke:black; stroke-linecap:round; stroke-width:0.25;"/>
<line x1="139.000000" y1="122.000000" x2="139.000000" y2="134.000000"  style="stroke:black; stroke-linecap:round; stroke-width:0.25;"/>
<line x1="139.000000" y1="134.000000" x2="139.000000" y2="134.000000"  style="stroke:black; stroke-linecap:round; stroke-width:0.25;"/>
<line x1="139.000000" y1="134.000000" x2="143.000000" y2="134.000000"  style="stroke:black; stroke-linecap:round; stroke-width:0.25;"/>
<line x1="139.000000" y1="142.000000" x2="143.000000" y2="142.000000"  style="stroke:black; stroke-linecap:round; stroke-width:0.25;"/>
<line x1="151.500000" y1="24.000000" x2="177.500000" y2="24.000000"  style="stroke:black; stroke-linecap:round; stroke-width:0.25;"/>
<line x1="167.000000" y1="138.000000" x2="171.000000" y2="138.000000"  style="stroke:black; stroke-linecap:round; stroke-width:0.25;"/>
<line x1="171.000000" y1="92.000000" x2="179.000000" y2="92.000000"  style="stroke:black; stroke-linecap:round; stroke-width:0.25;"/>
<line x1="171.000000" y1="138.000000" x2="179.000000" y2="138.000000"  style="stroke:black; stroke-linecap:round; stroke-width:0.25;"/>
<line x1="177.500000" y1="24.000000" x2="203.500000" y2="24.000000"  style="stroke:black; stroke-linecap:round; stroke-width:0.25;"/>
<line x1="179.000000" y1="92.000000" x2="179.000000" y2="130.000000"  style="stroke:black; stroke-linecap:round; stroke-width:0.25;"/>
<line x1="179.000000" y1="130.000000" x2="179.000000" y2="130.000000"  style="stroke:black; stroke-linecap:round; stroke-width:0.25;"/>
<line x1="179.000000" y1="130.000000" x2="183.000000" y2="130.000000"  style="stroke:black; stroke-linecap:round; stroke-width:0.25;"/>
<line x1="179.000000" y1="138.000000" x2="183.000000" y2="138.000000"  style="stroke:black; stroke-linecap:round; stroke-width:0.25;"/>
<line x1="189.500000" y1="54.000000" x2="193.500000" y2="54.000000"  style="stroke:black; stroke-linecap:round; stroke-width:0.25;"/>
<line x1="193.500000" y1="54.000000" x2="203.500000" y2="54.000000"  style="stroke:black; stroke-linecap:round; stroke-width:0.25;"/>
<line x1="195.000000" y1="84.000000" x2="311.000000" y2="84.000000"  style="stroke:black; stroke-linecap:round; stroke-width:0.25;"/>
<line x1="197.500000" y1="184.000000" x2="351.000000" y2="184.000000"  style="stroke:black; stroke-linecap:round; stroke-width:0.25;"/>
<line x1="203.500000" y1="24.000000" x2="211.500000" y2="24.000000"  style="stroke:black; stroke-linecap:round; stroke-width:0.25;"/>
<line x1="203.500000" y1="54.000000" x2="211.500000" y2="54.000000"  style="stroke:black; stroke-linecap:round; stroke-width:0.25;"/>
<line x1="207.000000" y1="134.000000" x2="211.000000" y2="134.000000"  style="stroke:black; stroke-linecap:round; stroke-width:0.25;"/>
<line x1="211.000000" y1="108.000000" x2="219.000000" y2="108.000000"  style="stroke:black; stroke-linecap:round; stroke-width:0.25;"/>
<line x1="211.000000" y1="134.000000" x2="211.000000" y2="108.000000"  style="stroke:black; stroke-linecap:round; stroke-width:0.25;"/>
<line x1="211.000000" y1="134.000000" x2="211.000000" y2="134.000000"  style="stroke:black; stroke-linecap:round; stroke-width:0.25;"/>
<line x1="211.500000" y1="24.000000" x2="211.500000" y2="46.000000"  style="stroke:black; stroke-linecap:round; stroke-width:0.25;"/>
<line x1="211.500000" y1="46.000000" x2="211.500000" y2="46.000000"  style="stroke:black; stroke-linecap:round; stroke-width:0.25;"/>
<line x1="211.500000" y1="46.000000" x2="215.500000" y2="46.000000"  style="stroke:black; stroke-linecap:round; stroke-width:0.25;"/>
<line x1="211.500000" y1="54.000000" x2="215.500000" y2="54.000000"  style="stroke:black; stroke-linecap:round; stroke-width:0.25;"/>
<line x1="219.000000" y1="108.000000" x2="245.000000" y2="108.000000"  style="stroke:black; stroke-linecap:round; stroke-width:0.25;"/>
<line x1="239.500000" y1="50.000000" x2="243.500000" y2="50.000000"  style="stroke:black; stroke-linecap:round; stroke-width:0.25;"/>
<line x1="243.500000" y1="50.000000" x2="351.000000" y2="50.000000"  style="stroke:black; stroke-linecap:round; stroke-width:0.25;"/>
<line x1="245.000000" y1="108.000000" x2="271.000000" y2="108.000000"  style="stroke:black; stroke-linecap:round; stroke-width:0.25;"/>
<line x1="257.000000" y1="138.000000" x2="261.000000" y2="138.000000"  style="stroke:black; stroke-linecap:round; stroke-width:0.25;"/>
<line x1="261.000000" y1="138.000000" x2="271.000000" y2="138.000000"  style="stroke:black; stroke-linecap:round; stroke-width:0.25;"/>
<line x1="271.000000" y1="108.000000" x2="279.000000" y2="108.000000"  style="stroke:black; stroke-linecap:round; stroke-width:0.25;"/>
<line x1="271.000000" y1="138.000000" x2="279.000000" y2="138.000000"  style="stroke:black; stroke-linecap:round; stroke-width:0.25;"/>
<line x1="279.000000" y1="108.000000" x2="279.000000" y2="130.000000"  style="stroke:black; stroke-linecap:round; stroke-width:0.25;"/>
<line x1="279.000000" y1="130.000000" x2="279.000000" y2="130.000000"  style="stroke:black; stroke-linecap:round; stroke-width:0.25;"/>
<line x1="279.000000" y1="130.000000" x2="283.000000" y2="130.000000"  style="stroke:black; stroke-linecap:round; stroke-width:0.25;"/>
<line x1="279.000000" y1="138.000000" x2="283.000000" y2="138.000000"  style="stroke:black; stroke-linecap:round; stroke-width:0.25;"/>
<line x1="307.000000" y1="134.000000" x2="311.000000" y2="134.000000"  style="stroke:black; stroke-linecap:round; stroke-width:0.25;"/>
<line x1="311.000000" y1="84.000000" x2="319.000000" y2="84.000000"  style="stroke:black; stroke-linecap:round; stroke-width:0.25;"/>
<line x1="311.000000" y1="134.000000" x2="319.000000" y2="134.000000"  style="stroke:black; stroke-linecap:round; stroke-width:0.25;"/>
<line x1="319.000000" y1="84.000000" x2="319.000000" y2="126.000000"  style="stroke:black; stroke-linecap:round; stroke-width:0.25;"/>
<line x1="319.000000" y1="126.000000" x2="319.000000" y2="126.000000"  style="stroke:black; stroke-linecap:round; stroke-width:0.25;"/>
<line x1="319.000000" y1="126.000000" x2="323.000000" y2="126.000000"  style="stroke:black; stroke-linecap:round; stroke-width:0.25;"/>
<line x1="319.000000" y1="134.000000" x2="323.000000" y2="134.000000"  style="stroke:black; stroke-linecap:round; stroke-width:0.25;"/>
<line x1="347.000000" y1="130.000000" x2="351.000000" y2="130.000000"  style="stroke:black; stroke-linecap:round; stroke-width:0.25;"/>
<line x1="351.000000" y1="50.000000" x2="367.000000" y2="50.000000"  style="stroke:black; stroke-linecap:round; stroke-width:0.25;"/>
<line x1="351.000000" y1="104.000000" x2="367.000000" y2="104.000000"  style="stroke:black; stroke-linecap:round; stroke-width:0.25;"/>
<line x1="351.000000" y1="130.000000" x2="351.000000" y2="104.000000"  style="stroke:black; stroke-linecap:round; stroke-width:0.25;"/>
<line x1="351.000000" y1="130.000000" x2="351.000000" y2="130.000000"  style="stroke:black; stroke-linecap:round; stroke-width:0.25;"/>
<line x1="351.000000" y1="184.000000" x2="359.000000" y2="184.000000"  style="stroke:black; stroke-linecap:round; stroke-width:0.25;"/>
<line x1="359.000000" y1="112.000000" x2="367.000000" y2="112.000000"  style="stroke:black; stroke-linecap:round; stroke-width:0.25;"/>
<line x1="359.000000" y1="184.000000" x2="359.000000" y2="112.000000"  style="stroke:black; stroke-linecap:round; stroke-width:0.25;"/>
<line x1="367.000000" y1="50.000000" x2="367.000000" y2="96.000000"  style="stroke:black; stroke-linecap:round; stroke-width:0.25;"/>
<line x1="367.000000" y1="96.000000" x2="367.000000" y2="96.000000"  style="stroke:black; stroke-linecap:round; stroke-width:0.25;"/>
<line x1="367.000000" y1="96.000000" x2="371.000000" y2="96.000000"  style="stroke:black; stroke-linecap:round; stroke-width:0.25;"/>
<line x1="367.000000" y1="104.000000" x2="371.000000" y2="104.000000"  style="stroke:black; stroke-linecap:round; stroke-width:0.25;"/>
<line x1="367.000000" y1="112.000000" x2="371.000000" y2="112.000000"  style="stroke:black; stroke-linecap:round; stroke-width:0.25;"/>
<line x1="409.700000" y1="104.000000" x2="413.700000" y2="104.000000"  style="stroke:black; stroke-linecap:round; stroke-width:0.25;"/>
<line x1="413.700000" y1="104.000000" x2="413.700000" y2="104.000000"  style="stroke:black; stroke-linecap:round; stroke-width:0.25;"/>
<line x1="413.700000" y1="104.000000" x2="417.700000" y2="104.000000"  style="stroke:black; stroke-linecap:round; stroke-width:0.25;"/>
<line x1="417.700000" y1="104.000000" x2="421.700000" y2="104.000000"  style="stroke:black; stroke-linecap:round; stroke-width:0.25;"/>
<line x1="421.700000" y1="104.000000" x2="431.700000" y2="104.000000"  style="stroke:black; stroke-linecap:round; stroke-width:0.25;"/>
</svg>
