<?xml version="1.0"?>
<svg xmlns="http://www.w3.org/2000/svg" xmlns:xlink="http://www.w3.org/1999/xlink" viewBox="0 0 813.800000 132.000000" width="406.900000mm" height="66.000000mm" version="1.1">
<a xlink:href="wBell-0x7fbb4fd1fc80.svg">
<rect x="1.000000" y="1.000000" width="812.800000" height="131.000000" rx="0" ry="0" style="stroke:none;fill:#cccccc;"/>
<rect x="0.000000" y="0.000000" width="812.800000" height="131.000000" rx="0" ry="0" style="stroke:none;fill:#ffffff;"/>
</a>
<text x="10.000000" y="7.000000" font-family="Arial" font-size="7"></text>
<rect x="174.450000" y="33.000000" width="24.000000" height="24.000000" rx="0" ry="0" style="stroke:none;fill:#cccccc;"/>
<rect x="173.450000" y="32.000000" width="24.000000" height="24.000000" rx="0" ry="0" style="stroke:none;fill:#f44800;"/>
<text x="185.450000" y="46.000000" font-family="Arial" font-size="7" text-anchor="middle" fill="#FFFFFF">1</text>
<circle cx="175.450000" cy="34.000000" r="1"/>
<rect x="51.000000" y="75.000000" width="270.900000" height="24.000000" rx="0" ry="0" style="stroke:none;fill:#cccccc;"/>
<rect x="50.000000" y="74.000000" width="270.900000" height="24.000000" rx="0" ry="0" style="stroke:none;fill:#477881;"/>
<text x="185.450000" y="88.000000" font-family="Arial" font-size="7" text-anchor="middle" fill="#FFFFFF">hslider(v:clarinetModel/bellOpening, 0.5f, 0.0f, 1.0f, 0.01f)</text>
<circle cx="52.000000" cy="76.000000" r="1"/>
<line x1="41.000000" y1="65.000000" x2="41.000000" y2="107.000000"  style="stroke: black; stroke-linecap:round; stroke-width:0.25; stroke-dasharray:3,3;"/>
<line x1="41.000000" y1="107.000000" x2="329.900000" y2="107.000000"  style="stroke: black; stroke-linecap:round; stroke-width:0.25; stroke-dasharray:3,3;"/>
<line x1="329.900000" y1="107.000000" x2="329.900000" y2="65.000000"  style="stroke: black; stroke-linecap:round; stroke-width:0.25; stroke-dasharray:3,3;"/>
<line x1="41.000000" y1="65.000000" x2="46.000000" y2="65.000000"  style="stroke: black; stroke-linecap:round; stroke-width:0.25; stroke-dasharray:3,3;"/>
<line x1="87.925000" y1="65.000000" x2="329.900000" y2="65.000000"  style="stroke: black; stroke-linecap:round; stroke-width:0.25; stroke-dasharray:3,3;"/>
<text x="46.000000" y="67.000000" font-family="Arial" font-size="7">bellOpening</text>
<rect x="347.900000" y="59.000000" width="24.000000" height="24.000000" rx="0" ry="0" style="stroke:none;fill:#cccccc;"/>
<rect x="346.900000" y="58.000000" width="24.000000" height="24.000000" rx="0" ry="0" style="stroke:none;fill:#4B71A1;"/>
<text x="358.900000" y="72.000000" font-family="Arial" font-size="7" text-anchor="middle" fill="#FFFFFF">-</text>
<circle cx="348.900000" cy="60.000000" r="1"/>
<line x1="343.900000" y1="65.000000" x2="346.900000" y2="66.000000"  transform="rotate(0.000000,346.900000,66.000000)" style="stroke: black; stroke-width:0.25;"/>
<line x1="343.900000" y1="67.000000" x2="346.900000" y2="66.000000"  transform="rotate(0.000000,346.900000,66.000000)" style="stroke: black; stroke-width:0.25;"/>
<line x1="343.900000" y1="73.000000" x2="346.900000" y2="74.000000"  transform="rotate(0.000000,346.900000,74.000000)" style="stroke: black; stroke-width:0.25;"/>
<line x1="343.900000" y1="75.000000" x2="346.900000" y2="74.000000"  transform="rotate(0.000000,346.900000,74.000000)" style="stroke: black; stroke-width:0.25;"/>
<rect x="387.900000" y="55.000000" width="24.000000" height="24.000000" rx="0" ry="0" style="stroke:none;fill:#cccccc;"/>
<rect x="386.900000" y="54.000000" width="24.000000" height="24.000000" rx="0" ry="0" style="stroke:none;fill:#4B71A1;"/>
<text x="398.900000" y="68.000000" font-family="Arial" font-size="7" text-anchor="middle" fill="#FFFFFF">*</text>
<circle cx="388.900000" cy="56.000000" r="1"/>
<line x1="383.900000" y1="61.000000" x2="386.900000" y2="62.000000"  transform="rotate(0.000000,386.900000,62.000000)" style="stroke: black; stroke-width:0.25;"/>
<line x1="383.900000" y1="63.000000" x2="386.900000" y2="62.000000"  transform="rotate(0.000000,386.900000,62.000000)" style="stroke: black; stroke-width:0.25;"/>
<line x1="383.900000" y1="69.000000" x2="386.900000" y2="70.000000"  transform="rotate(0.000000,386.900000,70.000000)" style="stroke: black; stroke-width:0.25;"/>
<line x1="383.900000" y1="71.000000" x2="386.900000" y2="70.000000"  transform="rotate(0.000000,386.900000,70.000000)" style="stroke: black; stroke-width:0.25;"/>
<rect x="589.350000" y="85.000000" width="24.000000" height="24.000000" rx="0" ry="0" style="stroke:none;fill:#cccccc;"/>
<rect x="588.350000" y="84.000000" width="24.000000" height="24.000000" rx="0" ry="0" style="stroke:none;fill:#4B71A1;"/>
<text x="600.350000" y="98.000000" font-family="Arial" font-size="7" text-anchor="middle" fill="#FFFFFF">+</text>
<circle cx="590.350000" cy="86.000000" r="1"/>
<line x1="585.350000" y1="91.000000" x2="588.350000" y2="92.000000"  transform="rotate(0.000000,588.350000,92.000000)" style="stroke: black; stroke-width:0.25;"/>
<line x1="585.350000" y1="93.000000" x2="588.350000" y2="92.000000"  transform="rotate(0.000000,588.350000,92.000000)" style="stroke: black; stroke-width:0.25;"/>
<line x1="585.350000" y1="99.000000" x2="588.350000" y2="100.000000"  transform="rotate(0.000000,588.350000,100.000000)" style="stroke: black; stroke-width:0.25;"/>
<line x1="585.350000" y1="101.000000" x2="588.350000" y2="100.000000"  transform="rotate(0.000000,588.350000,100.000000)" style="stroke: black; stroke-width:0.25;"/>
<rect x="485.900000" y="35.000000" width="270.900000" height="24.000000" rx="0" ry="0" style="stroke:none;fill:#cccccc;"/>
<rect x="484.900000" y="34.000000" width="270.900000" height="24.000000" rx="0" ry="0" style="stroke:none;fill:#477881;"/>
<text x="620.350000" y="48.000000" font-family="Arial" font-size="7" text-anchor="middle" fill="#FFFFFF">hslider(v:clarinetModel/bellOpening, 0.5f, 0.0f, 1.0f, 0.01f)</text>
<circle cx="753.800000" cy="56.000000" r="1"/>
<line x1="475.900000" y1="25.000000" x2="475.900000" y2="67.000000"  style="stroke: black; stroke-linecap:round; stroke-width:0.25; stroke-dasharray:3,3;"/>
<line x1="475.900000" y1="67.000000" x2="764.800000" y2="67.000000"  style="stroke: black; stroke-linecap:round; stroke-width:0.25; stroke-dasharray:3,3;"/>
<line x1="764.800000" y1="67.000000" x2="764.800000" y2="25.000000"  style="stroke: black; stroke-linecap:round; stroke-width:0.25; stroke-dasharray:3,3;"/>
<line x1="475.900000" y1="25.000000" x2="480.900000" y2="25.000000"  style="stroke: black; stroke-linecap:round; stroke-width:0.25; stroke-dasharray:3,3;"/>
<line x1="522.825000" y1="25.000000" x2="764.800000" y2="25.000000"  style="stroke: black; stroke-linecap:round; stroke-width:0.25; stroke-dasharray:3,3;"/>
<text x="480.900000" y="27.000000" font-family="Arial" font-size="7">bellOpening</text>
<rect x="435.900000" y="39.000000" width="24.000000" height="24.000000" rx="0" ry="0" style="stroke:none;fill:#cccccc;"/>
<rect x="434.900000" y="38.000000" width="24.000000" height="24.000000" rx="0" ry="0" style="stroke:none;fill:#4B71A1;"/>
<text x="446.900000" y="52.000000" font-family="Arial" font-size="7" text-anchor="middle" fill="#FFFFFF">*</text>
<circle cx="456.900000" cy="60.000000" r="1"/>
<line x1="461.900000" y1="53.000000" x2="458.900000" y2="54.000000"  transform="rotate(0.000000,458.900000,54.000000)" style="stroke: black; stroke-width:0.25;"/>
<line x1="461.900000" y1="55.000000" x2="458.900000" y2="54.000000"  transform="rotate(0.000000,458.900000,54.000000)" style="stroke: black; stroke-width:0.25;"/>
<line x1="461.900000" y1="45.000000" x2="458.900000" y2="46.000000"  transform="rotate(0.000000,458.900000,46.000000)" style="stroke: black; stroke-width:0.25;"/>
<line x1="461.900000" y1="47.000000" x2="458.900000" y2="46.000000"  transform="rotate(0.000000,458.900000,46.000000)" style="stroke: black; stroke-width:0.25;"/>
<line x1="767.800000" y1="96.000000" x2="767.800000" y2="92.000000"  style="stroke:black; stroke-linecap:round; stroke-width:0.25;"/>
<line x1="767.800000" y1="92.000000" x2="771.800000" y2="92.000000"  style="stroke:black; stroke-linecap:round; stroke-width:0.25;"/>
<line x1="771.800000" y1="92.000000" x2="771.800000" y2="96.000000"  style="stroke:black; stroke-linecap:round; stroke-width:0.25;"/>
<line x1="15.000000" y1="15.000000" x2="15.000000" y2="117.000000"  style="stroke: black; stroke-linecap:round; stroke-width:0.25; stroke-dasharray:3,3;"/>
<line x1="15.000000" y1="117.000000" x2="798.800000" y2="117.000000"  style="stroke: black; stroke-linecap:round; stroke-width:0.25; stroke-dasharray:3,3;"/>
<line x1="798.800000" y1="117.000000" x2="798.800000" y2="15.000000"  style="stroke: black; stroke-linecap:round; stroke-width:0.25; stroke-dasharray:3,3;"/>
<line x1="15.000000" y1="15.000000" x2="20.000000" y2="15.000000"  style="stroke: black; stroke-linecap:round; stroke-width:0.25; stroke-dasharray:3,3;"/>
<line x1="119.975000" y1="15.000000" x2="798.800000" y2="15.000000"  style="stroke: black; stroke-linecap:round; stroke-width:0.25; stroke-dasharray:3,3;"/>
<text x="20.000000" y="17.000000" font-family="Arial" font-size="7">smooth(hslide...1.0f, 0.01f))</text>
<line x1="800.800000" y1="65.000000" x2="803.800000" y2="66.000000"  transform="rotate(0.000000,803.800000,66.000000)" style="stroke: black; stroke-width:0.25;"/>
<line x1="800.800000" y1="67.000000" x2="803.800000" y2="66.000000"  transform="rotate(0.000000,803.800000,66.000000)" style="stroke: black; stroke-width:0.25;"/>
<line x1="10.000000" y1="66.000000" x2="20.000000" y2="66.000000"  style="stroke:black; stroke-linecap:round; stroke-width:0.25;"/>
<line x1="20.000000" y1="66.000000" x2="24.000000" y2="66.000000"  style="stroke:black; stroke-linecap:round; stroke-width:0.25;"/>
<line x1="24.000000" y1="66.000000" x2="28.000000" y2="66.000000"  style="stroke:black; stroke-linecap:round; stroke-width:0.25;"/>
<line x1="28.000000" y1="24.000000" x2="36.000000" y2="24.000000"  style="stroke:black; stroke-linecap:round; stroke-width:0.25;"/>
<line x1="28.000000" y1="66.000000" x2="28.000000" y2="24.000000"  style="stroke:black; stroke-linecap:round; stroke-width:0.25;"/>
<line x1="28.000000" y1="66.000000" x2="28.000000" y2="66.000000"  style="stroke:black; stroke-linecap:round; stroke-width:0.25;"/>
<line x1="36.000000" y1="24.000000" x2="205.450000" y2="24.000000"  style="stroke:black; stroke-linecap:round; stroke-width:0.25;"/>
<line x1="197.450000" y1="44.000000" x2="201.450000" y2="44.000000"  style="stroke:black; stroke-linecap:round; stroke-width:0.25;"/>
<line x1="201.450000" y1="44.000000" x2="334.900000" y2="44.000000"  style="stroke:black; stroke-linecap:round; stroke-width:0.25;"/>
<line x1="205.450000" y1="24.000000" x2="374.900000" y2="24.000000"  style="stroke:black; stroke-linecap:round; stroke-width:0.25;"/>
<line x1="320.900000" y1="86.000000" x2="324.900000" y2="86.000000"  style="stroke:black; stroke-linecap:round; stroke-width:0.25;"/>
<line x1="324.900000" y1="86.000000" x2="334.900000" y2="86.000000"  style="stroke:black; stroke-linecap:round; stroke-width:0.25;"/>
<line x1="334.900000" y1="44.000000" x2="342.900000" y2="44.000000"  style="stroke:black; stroke-linecap:round; stroke-width:0.25;"/>
<line x1="334.900000" y1="74.000000" x2="342.900000" y2="74.000000"  style="stroke:black; stroke-linecap:round; stroke-width:0.25;"/>
<line x1="334.900000" y1="86.000000" x2="334.900000" y2="74.000000"  style="stroke:black; stroke-linecap:round; stroke-width:0.25;"/>
<line x1="334.900000" y1="86.000000" x2="334.900000" y2="86.000000"  style="stroke:black; stroke-linecap:round; stroke-width:0.25;"/>
<line x1="342.900000" y1="44.000000" x2="342.900000" y2="66.000000"  style="stroke:black; stroke-linecap:round; stroke-width:0.25;"/>
<line x1="342.900000" y1="66.000000" x2="342.900000" y2="66.000000"  style="stroke:black; stroke-linecap:round; stroke-width:0.25;"/>
<line x1="342.900000" y1="66.000000" x2="346.900000" y2="66.000000"  style="stroke:black; stroke-linecap:round; stroke-width:0.25;"/>
<line x1="342.900000" y1="74.000000" x2="346.900000" y2="74.000000"  style="stroke:black; stroke-linecap:round; stroke-width:0.25;"/>
<line x1="370.900000" y1="70.000000" x2="374.900000" y2="70.000000"  style="stroke:black; stroke-linecap:round; stroke-width:0.25;"/>
<line x1="374.900000" y1="24.000000" x2="382.900000" y2="24.000000"  style="stroke:black; stroke-linecap:round; stroke-width:0.25;"/>
<line x1="374.900000" y1="70.000000" x2="382.900000" y2="70.000000"  style="stroke:black; stroke-linecap:round; stroke-width:0.25;"/>
<line x1="382.900000" y1="24.000000" x2="382.900000" y2="62.000000"  style="stroke:black; stroke-linecap:round; stroke-width:0.25;"/>
<line x1="382.900000" y1="62.000000" x2="382.900000" y2="62.000000"  style="stroke:black; stroke-linecap:round; stroke-width:0.25;"/>
<line x1="382.900000" y1="62.000000" x2="386.900000" y2="62.000000"  style="stroke:black; stroke-linecap:round; stroke-width:0.25;"/>
<line x1="382.900000" y1="70.000000" x2="386.900000" y2="70.000000"  style="stroke:black; stroke-linecap:round; stroke-width:0.25;"/>
<line x1="410.900000" y1="66.000000" x2="414.900000" y2="66.000000"  style="stroke:black; stroke-linecap:round; stroke-width:0.25;"/>
<line x1="414.900000" y1="66.000000" x2="422.900000" y2="66.000000"  style="stroke:black; stroke-linecap:round; stroke-width:0.25;"/>
<line x1="422.900000" y1="100.000000" x2="430.900000" y2="100.000000"  style="stroke:black; stroke-linecap:round; stroke-width:0.25;"/>
<line x1="422.900000" y1="66.000000" x2="422.900000" y2="100.000000"  style="stroke:black; stroke-linecap:round; stroke-width:0.25;"/>
<line x1="422.900000" y1="100.000000" x2="422.900000" y2="100.000000"  style="stroke:black; stroke-linecap:round; stroke-width:0.25;"/>
<line x1="430.900000" y1="92.000000" x2="584.350000" y2="92.000000"  style="stroke:black; stroke-linecap:round; stroke-width:0.25;"/>
<line x1="430.900000" y1="100.000000" x2="584.350000" y2="100.000000"  style="stroke:black; stroke-linecap:round; stroke-width:0.25;"/>
<line x1="430.900000" y1="50.000000" x2="430.900000" y2="50.000000"  style="stroke:black; stroke-linecap:round; stroke-width:0.25;"/>
<line x1="430.900000" y1="50.000000" x2="430.900000" y2="92.000000"  style="stroke:black; stroke-linecap:round; stroke-width:0.25;"/>
<line x1="430.900000" y1="92.000000" x2="430.900000" y2="92.000000"  style="stroke:black; stroke-linecap:round; stroke-width:0.25;"/>
<line x1="434.900000" y1="50.000000" x2="430.900000" y2="50.000000"  style="stroke:black; stroke-linecap:round; stroke-width:0.25;"/>
<line x1="462.900000" y1="54.000000" x2="462.900000" y2="54.000000"  style="stroke:black; stroke-linecap:round; stroke-width:0.25;"/>
<line x1="462.900000" y1="76.000000" x2="462.900000" y2="54.000000"  style="stroke:black; stroke-linecap:round; stroke-width:0.25;"/>
<line x1="462.900000" y1="46.000000" x2="458.900000" y2="46.000000"  style="stroke:black; stroke-linecap:round; stroke-width:0.25;"/>
<line x1="462.900000" y1="54.000000" x2="458.900000" y2="54.000000"  style="stroke:black; stroke-linecap:round; stroke-width:0.25;"/>
<line x1="470.900000" y1="76.000000" x2="462.900000" y2="76.000000"  style="stroke:black; stroke-linecap:round; stroke-width:0.25;"/>
<line x1="470.900000" y1="46.000000" x2="462.900000" y2="46.000000"  style="stroke:black; stroke-linecap:round; stroke-width:0.25;"/>
<line x1="480.900000" y1="46.000000" x2="470.900000" y2="46.000000"  style="stroke:black; stroke-linecap:round; stroke-width:0.25;"/>
<line x1="484.900000" y1="46.000000" x2="480.900000" y2="46.000000"  style="stroke:black; stroke-linecap:round; stroke-width:0.25;"/>
<line x1="584.350000" y1="92.000000" x2="588.350000" y2="92.000000"  style="stroke:black; stroke-linecap:round; stroke-width:0.25;"/>
<line x1="584.350000" y1="100.000000" x2="588.350000" y2="100.000000"  style="stroke:black; stroke-linecap:round; stroke-width:0.25;"/>
<line x1="612.350000" y1="96.000000" x2="616.350000" y2="96.000000"  style="stroke:black; stroke-linecap:round; stroke-width:0.25;"/>
<line x1="616.350000" y1="96.000000" x2="769.800000" y2="96.000000"  style="stroke:black; stroke-linecap:round; stroke-width:0.25;"/>
<line x1="620.350000" y1="76.000000" x2="470.900000" y2="76.000000"  style="stroke:black; stroke-linecap:round; stroke-width:0.25;"/>
<line x1="769.800000" y1="76.000000" x2="620.350000" y2="76.000000"  style="stroke:black; stroke-linecap:round; stroke-width:0.25;"/>
<line x1="769.800000" y1="76.000000" x2="769.800000" y2="76.000000"  style="stroke:black; stroke-linecap:round; stroke-width:0.25;"/>
<line x1="769.800000" y1="92.000000" x2="769.800000" y2="76.000000"  style="stroke:black; stroke-linecap:round; stroke-width:0.25;"/>
<line x1="769.800000" y1="96.000000" x2="771.800000" y2="96.000000"  style="stroke:black; stroke-linecap:round; stroke-width:0.25;"/>
<line x1="771.800000" y1="96.000000" x2="777.800000" y2="96.000000"  style="stroke:black; stroke-linecap:round; stroke-width:0.25;"/>
<line x1="777.800000" y1="66.000000" x2="785.800000" y2="66.000000"  style="stroke:black; stroke-linecap:round; stroke-width:0.25;"/>
<line x1="777.800000" y1="96.000000" x2="777.800000" y2="66.000000"  style="stroke:black; stroke-linecap:round; stroke-width:0.25;"/>
<line x1="777.800000" y1="96.000000" x2="777.800000" y2="96.000000"  style="stroke:black; stroke-linecap:round; stroke-width:0.25;"/>
<line x1="785.800000" y1="66.000000" x2="789.800000" y2="66.000000"  style="stroke:black; stroke-linecap:round; stroke-width:0.25;"/>
<line x1="789.800000" y1="66.000000" x2="793.800000" y2="66.000000"  style="stroke:black; stroke-linecap:round; stroke-width:0.25;"/>
<line x1="793.800000" y1="66.000000" x2="803.800000" y2="66.000000"  style="stroke:black; stroke-linecap:round; stroke-width:0.25;"/>
</svg>
