<?xml version="1.0"?>
<svg xmlns="http://www.w3.org/2000/svg" xmlns:xlink="http://www.w3.org/1999/xlink" viewBox="0 0 408.200000 208.000000" width="204.100000mm" height="104.000000mm" version="1.1">
<a xlink:href="lbcf-0x7fef6f4d1d10.svg">
<rect x="1.000000" y="1.000000" width="407.200000" height="207.000000" rx="0" ry="0" style="stroke:none;fill:#cccccc;"/>
<rect x="0.000000" y="0.000000" width="407.200000" height="207.000000" rx="0" ry="0" style="stroke:none;fill:#ffffff;"/>
</a>
<text x="10.000000" y="7.000000" font-family="Arial" font-size="7"></text>
<rect x="25.000000" y="25.000000" width="232.200000" height="24.000000" rx="0" ry="0" style="stroke:none;fill:#cccccc;"/>
<rect x="24.000000" y="24.000000" width="232.200000" height="24.000000" rx="0" ry="0" style="stroke:none;fill:#477881;"/>
<text x="140.100000" y="38.000000" font-family="Arial" font-size="7" text-anchor="middle" fill="#FFFFFF">vslider(Damp, 0.5f, 0.0f, 1.0f, 0.025000000000000001f)</text>
<circle cx="26.000000" cy="26.000000" r="1"/>
<rect x="129.100000" y="67.000000" width="24.000000" height="24.000000" rx="0" ry="0" style="stroke:none;fill:#cccccc;"/>
<rect x="128.100000" y="66.000000" width="24.000000" height="24.000000" rx="0" ry="0" style="stroke:none;fill:#f44800;"/>
<text x="140.100000" y="80.000000" font-family="Arial" font-size="7" text-anchor="middle" fill="#FFFFFF">0.4</text>
<circle cx="130.100000" cy="68.000000" r="1"/>
<line x1="119.100000" y1="57.000000" x2="119.100000" y2="99.000000"  style="stroke: black; stroke-linecap:round; stroke-width:0.25; stroke-dasharray:3,3;"/>
<line x1="119.100000" y1="99.000000" x2="161.100000" y2="99.000000"  style="stroke: black; stroke-linecap:round; stroke-width:0.25; stroke-dasharray:3,3;"/>
<line x1="161.100000" y1="99.000000" x2="161.100000" y2="57.000000"  style="stroke: black; stroke-linecap:round; stroke-width:0.25; stroke-dasharray:3,3;"/>
<line x1="119.100000" y1="57.000000" x2="124.100000" y2="57.000000"  style="stroke: black; stroke-linecap:round; stroke-width:0.25; stroke-dasharray:3,3;"/>
<line x1="159.575000" y1="57.000000" x2="161.100000" y2="57.000000"  style="stroke: black; stroke-linecap:round; stroke-width:0.25; stroke-dasharray:3,3;"/>
<text x="124.100000" y="59.000000" font-family="Arial" font-size="7">scaledamp</text>
<rect x="273.200000" y="51.000000" width="24.000000" height="24.000000" rx="0" ry="0" style="stroke:none;fill:#cccccc;"/>
<rect x="272.200000" y="50.000000" width="24.000000" height="24.000000" rx="0" ry="0" style="stroke:none;fill:#4B71A1;"/>
<text x="284.200000" y="64.000000" font-family="Arial" font-size="7" text-anchor="middle" fill="#FFFFFF">*</text>
<circle cx="274.200000" cy="52.000000" r="1"/>
<line x1="269.200000" y1="57.000000" x2="272.200000" y2="58.000000"  transform="rotate(0.000000,272.200000,58.000000)" style="stroke: black; stroke-width:0.25;"/>
<line x1="269.200000" y1="59.000000" x2="272.200000" y2="58.000000"  transform="rotate(0.000000,272.200000,58.000000)" style="stroke: black; stroke-width:0.25;"/>
<line x1="269.200000" y1="65.000000" x2="272.200000" y2="66.000000"  transform="rotate(0.000000,272.200000,66.000000)" style="stroke: black; stroke-width:0.25;"/>
<line x1="269.200000" y1="67.000000" x2="272.200000" y2="66.000000"  transform="rotate(0.000000,272.200000,66.000000)" style="stroke: black; stroke-width:0.25;"/>
<rect x="148.200000" y="119.000000" width="25.800000" height="24.000000" rx="0" ry="0" style="stroke:none;fill:#cccccc;"/>
<rect x="147.200000" y="118.000000" width="25.800000" height="24.000000" rx="0" ry="0" style="stroke:none;fill:#f44800;"/>
<text x="160.100000" y="132.000000" font-family="Arial" font-size="7" text-anchor="middle" fill="#FFFFFF">44100</text>
<circle cx="149.200000" cy="120.000000" r="1"/>
<line x1="138.200000" y1="109.000000" x2="138.200000" y2="151.000000"  style="stroke: black; stroke-linecap:round; stroke-width:0.25; stroke-dasharray:3,3;"/>
<line x1="138.200000" y1="151.000000" x2="182.000000" y2="151.000000"  style="stroke: black; stroke-linecap:round; stroke-width:0.25; stroke-dasharray:3,3;"/>
<line x1="182.000000" y1="151.000000" x2="182.000000" y2="109.000000"  style="stroke: black; stroke-linecap:round; stroke-width:0.25; stroke-dasharray:3,3;"/>
<line x1="138.200000" y1="109.000000" x2="143.200000" y2="109.000000"  style="stroke: black; stroke-linecap:round; stroke-width:0.25; stroke-dasharray:3,3;"/>
<line x1="169.000000" y1="109.000000" x2="182.000000" y2="109.000000"  style="stroke: black; stroke-linecap:round; stroke-width:0.25; stroke-dasharray:3,3;"/>
<text x="143.200000" y="111.000000" font-family="Arial" font-size="7">origSR</text>
<rect x="313.200000" y="77.000000" width="24.000000" height="24.000000" rx="0" ry="0" style="stroke:none;fill:#cccccc;"/>
<rect x="312.200000" y="76.000000" width="24.000000" height="24.000000" rx="0" ry="0" style="stroke:none;fill:#4B71A1;"/>
<text x="324.200000" y="90.000000" font-family="Arial" font-size="7" text-anchor="middle" fill="#FFFFFF">*</text>
<circle cx="314.200000" cy="78.000000" r="1"/>
<line x1="309.200000" y1="83.000000" x2="312.200000" y2="84.000000"  transform="rotate(0.000000,312.200000,84.000000)" style="stroke: black; stroke-width:0.25;"/>
<line x1="309.200000" y1="85.000000" x2="312.200000" y2="84.000000"  transform="rotate(0.000000,312.200000,84.000000)" style="stroke: black; stroke-width:0.25;"/>
<line x1="309.200000" y1="91.000000" x2="312.200000" y2="92.000000"  transform="rotate(0.000000,312.200000,92.000000)" style="stroke: black; stroke-width:0.25;"/>
<line x1="309.200000" y1="93.000000" x2="312.200000" y2="92.000000"  transform="rotate(0.000000,312.200000,92.000000)" style="stroke: black; stroke-width:0.25;"/>
<a xlink:href="SR-0x7fef6f4c35c0.svg">
<rect x="169.100000" y="161.000000" width="24.000000" height="24.000000" rx="0" ry="0" style="stroke:none;fill:#cccccc;"/>
<rect x="168.100000" y="160.000000" width="24.000000" height="24.000000" rx="0" ry="0" style="stroke:none;fill:#003366;"/>
</a>
<a xlink:href="SR-0x7fef6f4c35c0.svg">
<text x="180.100000" y="174.000000" font-family="Arial" font-size="7" text-anchor="middle" fill="#FFFFFF">SR</text>
</a>
<circle cx="170.100000" cy="162.000000" r="1"/>
<rect x="353.200000" y="93.000000" width="24.000000" height="24.000000" rx="0" ry="0" style="stroke:none;fill:#cccccc;"/>
<rect x="352.200000" y="92.000000" width="24.000000" height="24.000000" rx="0" ry="0" style="stroke:none;fill:#4B71A1;"/>
<text x="364.200000" y="106.000000" font-family="Arial" font-size="7" text-anchor="middle" fill="#FFFFFF">/</text>
<circle cx="354.200000" cy="94.000000" r="1"/>
<line x1="349.200000" y1="99.000000" x2="352.200000" y2="100.000000"  transform="rotate(0.000000,352.200000,100.000000)" style="stroke: black; stroke-width:0.25;"/>
<line x1="349.200000" y1="101.000000" x2="352.200000" y2="100.000000"  transform="rotate(0.000000,352.200000,100.000000)" style="stroke: black; stroke-width:0.25;"/>
<line x1="349.200000" y1="107.000000" x2="352.200000" y2="108.000000"  transform="rotate(0.000000,352.200000,108.000000)" style="stroke: black; stroke-width:0.25;"/>
<line x1="349.200000" y1="109.000000" x2="352.200000" y2="108.000000"  transform="rotate(0.000000,352.200000,108.000000)" style="stroke: black; stroke-width:0.25;"/>
<line x1="15.000000" y1="15.000000" x2="15.000000" y2="193.000000"  style="stroke: black; stroke-linecap:round; stroke-width:0.25; stroke-dasharray:3,3;"/>
<line x1="15.000000" y1="193.000000" x2="393.200000" y2="193.000000"  style="stroke: black; stroke-linecap:round; stroke-width:0.25; stroke-dasharray:3,3;"/>
<line x1="393.200000" y1="193.000000" x2="393.200000" y2="15.000000"  style="stroke: black; stroke-linecap:round; stroke-width:0.25; stroke-dasharray:3,3;"/>
<line x1="15.000000" y1="15.000000" x2="20.000000" y2="15.000000"  style="stroke: black; stroke-linecap:round; stroke-width:0.25; stroke-dasharray:3,3;"/>
<line x1="49.025000" y1="15.000000" x2="393.200000" y2="15.000000"  style="stroke: black; stroke-linecap:round; stroke-width:0.25; stroke-dasharray:3,3;"/>
<text x="20.000000" y="17.000000" font-family="Arial" font-size="7">damping</text>
<line x1="395.200000" y1="103.000000" x2="398.200000" y2="104.000000"  transform="rotate(0.000000,398.200000,104.000000)" style="stroke: black; stroke-width:0.25;"/>
<line x1="395.200000" y1="105.000000" x2="398.200000" y2="104.000000"  transform="rotate(0.000000,398.200000,104.000000)" style="stroke: black; stroke-width:0.25;"/>
<line x1="152.100000" y1="78.000000" x2="156.100000" y2="78.000000"  style="stroke:black; stroke-linecap:round; stroke-width:0.25;"/>
<line x1="156.100000" y1="78.000000" x2="166.100000" y2="78.000000"  style="stroke:black; stroke-linecap:round; stroke-width:0.25;"/>
<line x1="166.100000" y1="78.000000" x2="260.200000" y2="78.000000"  style="stroke:black; stroke-linecap:round; stroke-width:0.25;"/>
<line x1="173.000000" y1="130.000000" x2="177.000000" y2="130.000000"  style="stroke:black; stroke-linecap:round; stroke-width:0.25;"/>
<line x1="177.000000" y1="130.000000" x2="187.000000" y2="130.000000"  style="stroke:black; stroke-linecap:round; stroke-width:0.25;"/>
<line x1="187.000000" y1="130.000000" x2="300.200000" y2="130.000000"  style="stroke:black; stroke-linecap:round; stroke-width:0.25;"/>
<line x1="192.100000" y1="172.000000" x2="196.100000" y2="172.000000"  style="stroke:black; stroke-linecap:round; stroke-width:0.25;"/>
<line x1="196.100000" y1="172.000000" x2="340.200000" y2="172.000000"  style="stroke:black; stroke-linecap:round; stroke-width:0.25;"/>
<line x1="256.200000" y1="36.000000" x2="260.200000" y2="36.000000"  style="stroke:black; stroke-linecap:round; stroke-width:0.25;"/>
<line x1="260.200000" y1="36.000000" x2="268.200000" y2="36.000000"  style="stroke:black; stroke-linecap:round; stroke-width:0.25;"/>
<line x1="260.200000" y1="66.000000" x2="268.200000" y2="66.000000"  style="stroke:black; stroke-linecap:round; stroke-width:0.25;"/>
<line x1="260.200000" y1="78.000000" x2="260.200000" y2="66.000000"  style="stroke:black; stroke-linecap:round; stroke-width:0.25;"/>
<line x1="260.200000" y1="78.000000" x2="260.200000" y2="78.000000"  style="stroke:black; stroke-linecap:round; stroke-width:0.25;"/>
<line x1="268.200000" y1="36.000000" x2="268.200000" y2="58.000000"  style="stroke:black; stroke-linecap:round; stroke-width:0.25;"/>
<line x1="268.200000" y1="58.000000" x2="268.200000" y2="58.000000"  style="stroke:black; stroke-linecap:round; stroke-width:0.25;"/>
<line x1="268.200000" y1="58.000000" x2="272.200000" y2="58.000000"  style="stroke:black; stroke-linecap:round; stroke-width:0.25;"/>
<line x1="268.200000" y1="66.000000" x2="272.200000" y2="66.000000"  style="stroke:black; stroke-linecap:round; stroke-width:0.25;"/>
<line x1="296.200000" y1="62.000000" x2="300.200000" y2="62.000000"  style="stroke:black; stroke-linecap:round; stroke-width:0.25;"/>
<line x1="300.200000" y1="62.000000" x2="308.200000" y2="62.000000"  style="stroke:black; stroke-linecap:round; stroke-width:0.25;"/>
<line x1="300.200000" y1="92.000000" x2="308.200000" y2="92.000000"  style="stroke:black; stroke-linecap:round; stroke-width:0.25;"/>
<line x1="300.200000" y1="130.000000" x2="300.200000" y2="92.000000"  style="stroke:black; stroke-linecap:round; stroke-width:0.25;"/>
<line x1="300.200000" y1="130.000000" x2="300.200000" y2="130.000000"  style="stroke:black; stroke-linecap:round; stroke-width:0.25;"/>
<line x1="308.200000" y1="62.000000" x2="308.200000" y2="84.000000"  style="stroke:black; stroke-linecap:round; stroke-width:0.25;"/>
<line x1="308.200000" y1="84.000000" x2="308.200000" y2="84.000000"  style="stroke:black; stroke-linecap:round; stroke-width:0.25;"/>
<line x1="308.200000" y1="84.000000" x2="312.200000" y2="84.000000"  style="stroke:black; stroke-linecap:round; stroke-width:0.25;"/>
<line x1="308.200000" y1="92.000000" x2="312.200000" y2="92.000000"  style="stroke:black; stroke-linecap:round; stroke-width:0.25;"/>
<line x1="336.200000" y1="88.000000" x2="340.200000" y2="88.000000"  style="stroke:black; stroke-linecap:round; stroke-width:0.25;"/>
<line x1="340.200000" y1="88.000000" x2="348.200000" y2="88.000000"  style="stroke:black; stroke-linecap:round; stroke-width:0.25;"/>
<line x1="340.200000" y1="108.000000" x2="348.200000" y2="108.000000"  style="stroke:black; stroke-linecap:round; stroke-width:0.25;"/>
<line x1="340.200000" y1="172.000000" x2="340.200000" y2="108.000000"  style="stroke:black; stroke-linecap:round; stroke-width:0.25;"/>
<line x1="340.200000" y1="172.000000" x2="340.200000" y2="172.000000"  style="stroke:black; stroke-linecap:round; stroke-width:0.25;"/>
<line x1="348.200000" y1="88.000000" x2="348.200000" y2="100.000000"  style="stroke:black; stroke-linecap:round; stroke-width:0.25;"/>
<line x1="348.200000" y1="100.000000" x2="348.200000" y2="100.000000"  style="stroke:black; stroke-linecap:round; stroke-width:0.25;"/>
<line x1="348.200000" y1="100.000000" x2="352.200000" y2="100.000000"  style="stroke:black; stroke-linecap:round; stroke-width:0.25;"/>
<line x1="348.200000" y1="108.000000" x2="352.200000" y2="108.000000"  style="stroke:black; stroke-linecap:round; stroke-width:0.25;"/>
<line x1="376.200000" y1="104.000000" x2="380.200000" y2="104.000000"  style="stroke:black; stroke-linecap:round; stroke-width:0.25;"/>
<line x1="380.200000" y1="104.000000" x2="380.200000" y2="104.000000"  style="stroke:black; stroke-linecap:round; stroke-width:0.25;"/>
<line x1="380.200000" y1="104.000000" x2="384.200000" y2="104.000000"  style="stroke:black; stroke-linecap:round; stroke-width:0.25;"/>
<line x1="384.200000" y1="104.000000" x2="388.200000" y2="104.000000"  style="stroke:black; stroke-linecap:round; stroke-width:0.25;"/>
<line x1="388.200000" y1="104.000000" x2="398.200000" y2="104.000000"  style="stroke:black; stroke-linecap:round; stroke-width:0.25;"/>
</svg>
