<?xml version="1.0"?>
<svg xmlns="http://www.w3.org/2000/svg" xmlns:xlink="http://www.w3.org/1999/xlink" viewBox="0 0 196.100000 168.000000" width="98.050000mm" height="84.000000mm" version="1.1">
<a xlink:href="osci-0x7fb5d3a08c00.svg">
<rect x="1.000000" y="1.000000" width="195.100000" height="167.000000" rx="0" ry="0" style="stroke:none;fill:#cccccc;"/>
<rect x="0.000000" y="0.000000" width="195.100000" height="167.000000" rx="0" ry="0" style="stroke:none;fill:#ffffff;"/>
</a>
<text x="10.000000" y="7.000000" font-family="Arial" font-size="7"></text>
<rect x="50.800000" y="25.000000" width="25.800000" height="24.000000" rx="0" ry="0" style="stroke:none;fill:#cccccc;"/>
<rect x="49.800000" y="24.000000" width="25.800000" height="24.000000" rx="0" ry="0" style="stroke:none;fill:#f44800;"/>
<text x="62.700000" y="38.000000" font-family="Arial" font-size="7" text-anchor="middle" fill="#FFFFFF">65537</text>
<circle cx="51.800000" cy="26.000000" r="1"/>
<a xlink:href="sinwaveform-0x7fb5d1fd6b70.svg">
<rect x="25.000000" y="57.000000" width="77.400000" height="24.000000" rx="0" ry="0" style="stroke:none;fill:#cccccc;"/>
<rect x="24.000000" y="56.000000" width="77.400000" height="24.000000" rx="0" ry="0" style="stroke:none;fill:#003366;"/>
</a>
<a xlink:href="sinwaveform-0x7fb5d1fd6b70.svg">
<text x="62.700000" y="70.000000" font-family="Arial" font-size="7" text-anchor="middle" fill="#FFFFFF">sinwaveform(65536)</text>
</a>
<circle cx="26.000000" cy="58.000000" r="1"/>
<a xlink:href="i-0x7fb5d1fd7d70.svg">
<rect x="31.700000" y="89.000000" width="24.000000" height="24.000000" rx="0" ry="0" style="stroke:none;fill:#cccccc;"/>
<rect x="30.700000" y="88.000000" width="24.000000" height="24.000000" rx="0" ry="0" style="stroke:none;fill:#003366;"/>
</a>
<a xlink:href="i-0x7fb5d1fd7d70.svg">
<text x="42.700000" y="102.000000" font-family="Arial" font-size="7" text-anchor="middle" fill="#FFFFFF">i</text>
</a>
<circle cx="32.700000" cy="90.000000" r="1"/>
<rect x="31.700000" y="121.000000" width="24.000000" height="24.000000" rx="0" ry="0" style="stroke:none;fill:#cccccc;"/>
<rect x="30.700000" y="120.000000" width="24.000000" height="24.000000" rx="0" ry="0" style="stroke:none;fill:#f44800;"/>
<text x="42.700000" y="134.000000" font-family="Arial" font-size="7" text-anchor="middle" fill="#FFFFFF">1</text>
<circle cx="32.700000" cy="122.000000" r="1"/>
<rect x="71.700000" y="105.000000" width="24.000000" height="24.000000" rx="0" ry="0" style="stroke:none;fill:#cccccc;"/>
<rect x="70.700000" y="104.000000" width="24.000000" height="24.000000" rx="0" ry="0" style="stroke:none;fill:#4B71A1;"/>
<text x="82.700000" y="118.000000" font-family="Arial" font-size="7" text-anchor="middle" fill="#FFFFFF">+</text>
<circle cx="72.700000" cy="106.000000" r="1"/>
<line x1="67.700000" y1="111.000000" x2="70.700000" y2="112.000000"  transform="rotate(0.000000,70.700000,112.000000)" style="stroke: black; stroke-width:0.25;"/>
<line x1="67.700000" y1="113.000000" x2="70.700000" y2="112.000000"  transform="rotate(0.000000,70.700000,112.000000)" style="stroke: black; stroke-width:0.25;"/>
<line x1="67.700000" y1="119.000000" x2="70.700000" y2="120.000000"  transform="rotate(0.000000,70.700000,120.000000)" style="stroke: black; stroke-width:0.25;"/>
<line x1="67.700000" y1="121.000000" x2="70.700000" y2="120.000000"  transform="rotate(0.000000,70.700000,120.000000)" style="stroke: black; stroke-width:0.25;"/>
<rect x="126.400000" y="73.000000" width="38.700000" height="24.000000" rx="0" ry="0" style="stroke:none;fill:#cccccc;"/>
<rect x="125.400000" y="72.000000" width="38.700000" height="24.000000" rx="0" ry="0" style="stroke:none;fill:#4B71A1;"/>
<text x="144.750000" y="86.000000" font-family="Arial" font-size="7" text-anchor="middle" fill="#FFFFFF">rdtable</text>
<circle cx="127.400000" cy="74.000000" r="1"/>
<line x1="122.400000" y1="75.000000" x2="125.400000" y2="76.000000"  transform="rotate(0.000000,125.400000,76.000000)" style="stroke: black; stroke-width:0.25;"/>
<line x1="122.400000" y1="77.000000" x2="125.400000" y2="76.000000"  transform="rotate(0.000000,125.400000,76.000000)" style="stroke: black; stroke-width:0.25;"/>
<line x1="122.400000" y1="83.000000" x2="125.400000" y2="84.000000"  transform="rotate(0.000000,125.400000,84.000000)" style="stroke: black; stroke-width:0.25;"/>
<line x1="122.400000" y1="85.000000" x2="125.400000" y2="84.000000"  transform="rotate(0.000000,125.400000,84.000000)" style="stroke: black; stroke-width:0.25;"/>
<line x1="122.400000" y1="91.000000" x2="125.400000" y2="92.000000"  transform="rotate(0.000000,125.400000,92.000000)" style="stroke: black; stroke-width:0.25;"/>
<line x1="122.400000" y1="93.000000" x2="125.400000" y2="92.000000"  transform="rotate(0.000000,125.400000,92.000000)" style="stroke: black; stroke-width:0.25;"/>
<line x1="15.000000" y1="15.000000" x2="15.000000" y2="153.000000"  style="stroke: black; stroke-linecap:round; stroke-width:0.25; stroke-dasharray:3,3;"/>
<line x1="15.000000" y1="153.000000" x2="181.100000" y2="153.000000"  style="stroke: black; stroke-linecap:round; stroke-width:0.25; stroke-dasharray:3,3;"/>
<line x1="181.100000" y1="153.000000" x2="181.100000" y2="15.000000"  style="stroke: black; stroke-linecap:round; stroke-width:0.25; stroke-dasharray:3,3;"/>
<line x1="15.000000" y1="15.000000" x2="20.000000" y2="15.000000"  style="stroke: black; stroke-linecap:round; stroke-width:0.25; stroke-dasharray:3,3;"/>
<line x1="32.900000" y1="15.000000" x2="181.100000" y2="15.000000"  style="stroke: black; stroke-linecap:round; stroke-width:0.25; stroke-dasharray:3,3;"/>
<text x="20.000000" y="17.000000" font-family="Arial" font-size="7">s2</text>
<line x1="183.100000" y1="83.000000" x2="186.100000" y2="84.000000"  transform="rotate(0.000000,186.100000,84.000000)" style="stroke: black; stroke-width:0.25;"/>
<line x1="183.100000" y1="85.000000" x2="186.100000" y2="84.000000"  transform="rotate(0.000000,186.100000,84.000000)" style="stroke: black; stroke-width:0.25;"/>
<line x1="54.700000" y1="100.000000" x2="58.700000" y2="100.000000"  style="stroke:black; stroke-linecap:round; stroke-width:0.25;"/>
<line x1="54.700000" y1="132.000000" x2="58.700000" y2="132.000000"  style="stroke:black; stroke-linecap:round; stroke-width:0.25;"/>
<line x1="58.700000" y1="100.000000" x2="66.700000" y2="100.000000"  style="stroke:black; stroke-linecap:round; stroke-width:0.25;"/>
<line x1="58.700000" y1="120.000000" x2="66.700000" y2="120.000000"  style="stroke:black; stroke-linecap:round; stroke-width:0.25;"/>
<line x1="58.700000" y1="132.000000" x2="58.700000" y2="120.000000"  style="stroke:black; stroke-linecap:round; stroke-width:0.25;"/>
<line x1="58.700000" y1="132.000000" x2="58.700000" y2="132.000000"  style="stroke:black; stroke-linecap:round; stroke-width:0.25;"/>
<line x1="66.700000" y1="100.000000" x2="66.700000" y2="112.000000"  style="stroke:black; stroke-linecap:round; stroke-width:0.25;"/>
<line x1="66.700000" y1="112.000000" x2="66.700000" y2="112.000000"  style="stroke:black; stroke-linecap:round; stroke-width:0.25;"/>
<line x1="66.700000" y1="112.000000" x2="70.700000" y2="112.000000"  style="stroke:black; stroke-linecap:round; stroke-width:0.25;"/>
<line x1="66.700000" y1="120.000000" x2="70.700000" y2="120.000000"  style="stroke:black; stroke-linecap:round; stroke-width:0.25;"/>
<line x1="75.600000" y1="36.000000" x2="79.600000" y2="36.000000"  style="stroke:black; stroke-linecap:round; stroke-width:0.25;"/>
<line x1="79.600000" y1="36.000000" x2="105.400000" y2="36.000000"  style="stroke:black; stroke-linecap:round; stroke-width:0.25;"/>
<line x1="94.700000" y1="116.000000" x2="98.700000" y2="116.000000"  style="stroke:black; stroke-linecap:round; stroke-width:0.25;"/>
<line x1="98.700000" y1="116.000000" x2="105.400000" y2="116.000000"  style="stroke:black; stroke-linecap:round; stroke-width:0.25;"/>
<line x1="101.400000" y1="68.000000" x2="105.400000" y2="68.000000"  style="stroke:black; stroke-linecap:round; stroke-width:0.25;"/>
<line x1="105.400000" y1="92.000000" x2="121.400000" y2="92.000000"  style="stroke:black; stroke-linecap:round; stroke-width:0.25;"/>
<line x1="105.400000" y1="116.000000" x2="105.400000" y2="92.000000"  style="stroke:black; stroke-linecap:round; stroke-width:0.25;"/>
<line x1="105.400000" y1="116.000000" x2="105.400000" y2="116.000000"  style="stroke:black; stroke-linecap:round; stroke-width:0.25;"/>
<line x1="105.400000" y1="36.000000" x2="121.400000" y2="36.000000"  style="stroke:black; stroke-linecap:round; stroke-width:0.25;"/>
<line x1="105.400000" y1="68.000000" x2="113.400000" y2="68.000000"  style="stroke:black; stroke-linecap:round; stroke-width:0.25;"/>
<line x1="113.400000" y1="68.000000" x2="113.400000" y2="84.000000"  style="stroke:black; stroke-linecap:round; stroke-width:0.25;"/>
<line x1="113.400000" y1="84.000000" x2="121.400000" y2="84.000000"  style="stroke:black; stroke-linecap:round; stroke-width:0.25;"/>
<line x1="121.400000" y1="36.000000" x2="121.400000" y2="76.000000"  style="stroke:black; stroke-linecap:round; stroke-width:0.25;"/>
<line x1="121.400000" y1="76.000000" x2="121.400000" y2="76.000000"  style="stroke:black; stroke-linecap:round; stroke-width:0.25;"/>
<line x1="121.400000" y1="76.000000" x2="125.400000" y2="76.000000"  style="stroke:black; stroke-linecap:round; stroke-width:0.25;"/>
<line x1="121.400000" y1="84.000000" x2="125.400000" y2="84.000000"  style="stroke:black; stroke-linecap:round; stroke-width:0.25;"/>
<line x1="121.400000" y1="92.000000" x2="125.400000" y2="92.000000"  style="stroke:black; stroke-linecap:round; stroke-width:0.25;"/>
<line x1="164.100000" y1="84.000000" x2="168.100000" y2="84.000000"  style="stroke:black; stroke-linecap:round; stroke-width:0.25;"/>
<line x1="168.100000" y1="84.000000" x2="168.100000" y2="84.000000"  style="stroke:black; stroke-linecap:round; stroke-width:0.25;"/>
<line x1="168.100000" y1="84.000000" x2="172.100000" y2="84.000000"  style="stroke:black; stroke-linecap:round; stroke-width:0.25;"/>
<line x1="172.100000" y1="84.000000" x2="176.100000" y2="84.000000"  style="stroke:black; stroke-linecap:round; stroke-width:0.25;"/>
<line x1="176.100000" y1="84.000000" x2="186.100000" y2="84.000000"  style="stroke:black; stroke-linecap:round; stroke-width:0.25;"/>
</svg>
