<?xml version="1.0"?>
<svg xmlns="http://www.w3.org/2000/svg" xmlns:xlink="http://www.w3.org/1999/xlink" viewBox="0 0 531.400000 156.000000" width="265.700000mm" height="78.000000mm" version="1.1">
<a xlink:href="t0-0x7f9bfd025db0.svg">
<rect x="1.000000" y="1.000000" width="530.400000" height="155.000000" rx="0" ry="0" style="stroke:none;fill:#cccccc;"/>
<rect x="0.000000" y="0.000000" width="530.400000" height="155.000000" rx="0" ry="0" style="stroke:none;fill:#ffffff;"/>
</a>
<text x="10.000000" y="7.000000" font-family="Arial" font-size="7"></text>
<a xlink:href="SR-0x7f9bfd021a30.svg">
<rect x="213.800000" y="25.000000" width="24.000000" height="24.000000" rx="0" ry="0" style="stroke:none;fill:#cccccc;"/>
<rect x="212.800000" y="24.000000" width="24.000000" height="24.000000" rx="0" ry="0" style="stroke:none;fill:#003366;"/>
</a>
<a xlink:href="SR-0x7f9bfd021a30.svg">
<text x="224.800000" y="38.000000" font-family="Arial" font-size="7" text-anchor="middle" fill="#FFFFFF">SR</text>
</a>
<circle cx="214.800000" cy="26.000000" r="1"/>
<rect x="245.800000" y="25.000000" width="25.800000" height="24.000000" rx="0" ry="0" style="stroke:none;fill:#cccccc;"/>
<rect x="244.800000" y="24.000000" width="25.800000" height="24.000000" rx="0" ry="0" style="stroke:none;fill:#4B71A1;"/>
<text x="257.700000" y="38.000000" font-family="Arial" font-size="7" text-anchor="middle" fill="#FFFFFF">float</text>
<circle cx="246.800000" cy="26.000000" r="1"/>
<line x1="241.800000" y1="35.000000" x2="244.800000" y2="36.000000"  transform="rotate(0.000000,244.800000,36.000000)" style="stroke: black; stroke-width:0.25;"/>
<line x1="241.800000" y1="37.000000" x2="244.800000" y2="36.000000"  transform="rotate(0.000000,244.800000,36.000000)" style="stroke: black; stroke-width:0.25;"/>
<rect x="192.900000" y="57.000000" width="25.800000" height="24.000000" rx="0" ry="0" style="stroke:none;fill:#cccccc;"/>
<rect x="191.900000" y="56.000000" width="25.800000" height="24.000000" rx="0" ry="0" style="stroke:none;fill:#f44800;"/>
<text x="204.800000" y="70.000000" font-family="Arial" font-size="7" text-anchor="middle" fill="#FFFFFF">1e-07</text>
<circle cx="193.900000" cy="58.000000" r="1"/>
<rect x="35.000000" y="99.000000" width="309.600000" height="24.000000" rx="0" ry="0" style="stroke:none;fill:#cccccc;"/>
<rect x="34.000000" y="98.000000" width="309.600000" height="24.000000" rx="0" ry="0" style="stroke:none;fill:#477881;"/>
<text x="188.800000" y="112.000000" font-family="Arial" font-size="7" text-anchor="middle" fill="#FFFFFF">vslider(h:Oscillator/freq, 440.0f, 50.0f, 1000.0f, 0.10000000000000001f)</text>
<circle cx="36.000000" cy="100.000000" r="1"/>
<line x1="25.000000" y1="89.000000" x2="25.000000" y2="131.000000"  style="stroke: black; stroke-linecap:round; stroke-width:0.25; stroke-dasharray:3,3;"/>
<line x1="25.000000" y1="131.000000" x2="352.600000" y2="131.000000"  style="stroke: black; stroke-linecap:round; stroke-width:0.25; stroke-dasharray:3,3;"/>
<line x1="352.600000" y1="131.000000" x2="352.600000" y2="89.000000"  style="stroke: black; stroke-linecap:round; stroke-width:0.25; stroke-dasharray:3,3;"/>
<line x1="25.000000" y1="89.000000" x2="30.000000" y2="89.000000"  style="stroke: black; stroke-linecap:round; stroke-width:0.25; stroke-dasharray:3,3;"/>
<line x1="49.350000" y1="89.000000" x2="352.600000" y2="89.000000"  style="stroke: black; stroke-linecap:round; stroke-width:0.25; stroke-dasharray:3,3;"/>
<text x="30.000000" y="91.000000" font-family="Arial" font-size="7">freq</text>
<rect x="362.600000" y="99.000000" width="24.000000" height="24.000000" rx="0" ry="0" style="stroke:none;fill:#cccccc;"/>
<rect x="361.600000" y="98.000000" width="24.000000" height="24.000000" rx="0" ry="0" style="stroke:none;fill:#4B71A1;"/>
<text x="373.600000" y="112.000000" font-family="Arial" font-size="7" text-anchor="middle" fill="#FFFFFF">abs</text>
<circle cx="363.600000" cy="100.000000" r="1"/>
<line x1="358.600000" y1="109.000000" x2="361.600000" y2="110.000000"  transform="rotate(0.000000,361.600000,110.000000)" style="stroke: black; stroke-width:0.25;"/>
<line x1="358.600000" y1="111.000000" x2="361.600000" y2="110.000000"  transform="rotate(0.000000,361.600000,110.000000)" style="stroke: black; stroke-width:0.25;"/>
<rect x="402.600000" y="83.000000" width="24.000000" height="24.000000" rx="0" ry="0" style="stroke:none;fill:#cccccc;"/>
<rect x="401.600000" y="82.000000" width="24.000000" height="24.000000" rx="0" ry="0" style="stroke:none;fill:#4B71A1;"/>
<text x="413.600000" y="96.000000" font-family="Arial" font-size="7" text-anchor="middle" fill="#FFFFFF">max</text>
<circle cx="403.600000" cy="84.000000" r="1"/>
<line x1="398.600000" y1="89.000000" x2="401.600000" y2="90.000000"  transform="rotate(0.000000,401.600000,90.000000)" style="stroke: black; stroke-width:0.25;"/>
<line x1="398.600000" y1="91.000000" x2="401.600000" y2="90.000000"  transform="rotate(0.000000,401.600000,90.000000)" style="stroke: black; stroke-width:0.25;"/>
<line x1="398.600000" y1="97.000000" x2="401.600000" y2="98.000000"  transform="rotate(0.000000,401.600000,98.000000)" style="stroke: black; stroke-width:0.25;"/>
<line x1="398.600000" y1="99.000000" x2="401.600000" y2="98.000000"  transform="rotate(0.000000,401.600000,98.000000)" style="stroke: black; stroke-width:0.25;"/>
<rect x="434.600000" y="83.000000" width="25.800000" height="24.000000" rx="0" ry="0" style="stroke:none;fill:#cccccc;"/>
<rect x="433.600000" y="82.000000" width="25.800000" height="24.000000" rx="0" ry="0" style="stroke:none;fill:#4B71A1;"/>
<text x="446.500000" y="96.000000" font-family="Arial" font-size="7" text-anchor="middle" fill="#FFFFFF">float</text>
<circle cx="435.600000" cy="84.000000" r="1"/>
<line x1="430.600000" y1="93.000000" x2="433.600000" y2="94.000000"  transform="rotate(0.000000,433.600000,94.000000)" style="stroke: black; stroke-width:0.25;"/>
<line x1="430.600000" y1="95.000000" x2="433.600000" y2="94.000000"  transform="rotate(0.000000,433.600000,94.000000)" style="stroke: black; stroke-width:0.25;"/>
<rect x="476.400000" y="67.000000" width="24.000000" height="24.000000" rx="0" ry="0" style="stroke:none;fill:#cccccc;"/>
<rect x="475.400000" y="66.000000" width="24.000000" height="24.000000" rx="0" ry="0" style="stroke:none;fill:#4B71A1;"/>
<text x="487.400000" y="80.000000" font-family="Arial" font-size="7" text-anchor="middle" fill="#FFFFFF">/</text>
<circle cx="477.400000" cy="68.000000" r="1"/>
<line x1="472.400000" y1="73.000000" x2="475.400000" y2="74.000000"  transform="rotate(0.000000,475.400000,74.000000)" style="stroke: black; stroke-width:0.25;"/>
<line x1="472.400000" y1="75.000000" x2="475.400000" y2="74.000000"  transform="rotate(0.000000,475.400000,74.000000)" style="stroke: black; stroke-width:0.25;"/>
<line x1="472.400000" y1="81.000000" x2="475.400000" y2="82.000000"  transform="rotate(0.000000,475.400000,82.000000)" style="stroke: black; stroke-width:0.25;"/>
<line x1="472.400000" y1="83.000000" x2="475.400000" y2="82.000000"  transform="rotate(0.000000,475.400000,82.000000)" style="stroke: black; stroke-width:0.25;"/>
<line x1="15.000000" y1="15.000000" x2="15.000000" y2="141.000000"  style="stroke: black; stroke-linecap:round; stroke-width:0.25; stroke-dasharray:3,3;"/>
<line x1="15.000000" y1="141.000000" x2="516.400000" y2="141.000000"  style="stroke: black; stroke-linecap:round; stroke-width:0.25; stroke-dasharray:3,3;"/>
<line x1="516.400000" y1="141.000000" x2="516.400000" y2="15.000000"  style="stroke: black; stroke-linecap:round; stroke-width:0.25; stroke-dasharray:3,3;"/>
<line x1="15.000000" y1="15.000000" x2="20.000000" y2="15.000000"  style="stroke: black; stroke-linecap:round; stroke-width:0.25; stroke-dasharray:3,3;"/>
<line x1="32.900000" y1="15.000000" x2="516.400000" y2="15.000000"  style="stroke: black; stroke-linecap:round; stroke-width:0.25; stroke-dasharray:3,3;"/>
<text x="20.000000" y="17.000000" font-family="Arial" font-size="7">p0</text>
<line x1="518.400000" y1="77.000000" x2="521.400000" y2="78.000000"  transform="rotate(0.000000,521.400000,78.000000)" style="stroke: black; stroke-width:0.25;"/>
<line x1="518.400000" y1="79.000000" x2="521.400000" y2="78.000000"  transform="rotate(0.000000,521.400000,78.000000)" style="stroke: black; stroke-width:0.25;"/>
<line x1="217.700000" y1="68.000000" x2="221.700000" y2="68.000000"  style="stroke:black; stroke-linecap:round; stroke-width:0.25;"/>
<line x1="221.700000" y1="68.000000" x2="389.600000" y2="68.000000"  style="stroke:black; stroke-linecap:round; stroke-width:0.25;"/>
<line x1="236.800000" y1="36.000000" x2="240.800000" y2="36.000000"  style="stroke:black; stroke-linecap:round; stroke-width:0.25;"/>
<line x1="240.800000" y1="36.000000" x2="240.800000" y2="36.000000"  style="stroke:black; stroke-linecap:round; stroke-width:0.25;"/>
<line x1="240.800000" y1="36.000000" x2="244.800000" y2="36.000000"  style="stroke:black; stroke-linecap:round; stroke-width:0.25;"/>
<line x1="270.600000" y1="36.000000" x2="274.600000" y2="36.000000"  style="stroke:black; stroke-linecap:round; stroke-width:0.25;"/>
<line x1="274.600000" y1="36.000000" x2="463.400000" y2="36.000000"  style="stroke:black; stroke-linecap:round; stroke-width:0.25;"/>
<line x1="343.600000" y1="110.000000" x2="347.600000" y2="110.000000"  style="stroke:black; stroke-linecap:round; stroke-width:0.25;"/>
<line x1="347.600000" y1="110.000000" x2="357.600000" y2="110.000000"  style="stroke:black; stroke-linecap:round; stroke-width:0.25;"/>
<line x1="357.600000" y1="110.000000" x2="357.600000" y2="110.000000"  style="stroke:black; stroke-linecap:round; stroke-width:0.25;"/>
<line x1="357.600000" y1="110.000000" x2="361.600000" y2="110.000000"  style="stroke:black; stroke-linecap:round; stroke-width:0.25;"/>
<line x1="385.600000" y1="110.000000" x2="389.600000" y2="110.000000"  style="stroke:black; stroke-linecap:round; stroke-width:0.25;"/>
<line x1="389.600000" y1="68.000000" x2="397.600000" y2="68.000000"  style="stroke:black; stroke-linecap:round; stroke-width:0.25;"/>
<line x1="389.600000" y1="98.000000" x2="397.600000" y2="98.000000"  style="stroke:black; stroke-linecap:round; stroke-width:0.25;"/>
<line x1="389.600000" y1="110.000000" x2="389.600000" y2="98.000000"  style="stroke:black; stroke-linecap:round; stroke-width:0.25;"/>
<line x1="389.600000" y1="110.000000" x2="389.600000" y2="110.000000"  style="stroke:black; stroke-linecap:round; stroke-width:0.25;"/>
<line x1="397.600000" y1="68.000000" x2="397.600000" y2="90.000000"  style="stroke:black; stroke-linecap:round; stroke-width:0.25;"/>
<line x1="397.600000" y1="90.000000" x2="397.600000" y2="90.000000"  style="stroke:black; stroke-linecap:round; stroke-width:0.25;"/>
<line x1="397.600000" y1="90.000000" x2="401.600000" y2="90.000000"  style="stroke:black; stroke-linecap:round; stroke-width:0.25;"/>
<line x1="397.600000" y1="98.000000" x2="401.600000" y2="98.000000"  style="stroke:black; stroke-linecap:round; stroke-width:0.25;"/>
<line x1="425.600000" y1="94.000000" x2="429.600000" y2="94.000000"  style="stroke:black; stroke-linecap:round; stroke-width:0.25;"/>
<line x1="429.600000" y1="94.000000" x2="429.600000" y2="94.000000"  style="stroke:black; stroke-linecap:round; stroke-width:0.25;"/>
<line x1="429.600000" y1="94.000000" x2="433.600000" y2="94.000000"  style="stroke:black; stroke-linecap:round; stroke-width:0.25;"/>
<line x1="459.400000" y1="94.000000" x2="463.400000" y2="94.000000"  style="stroke:black; stroke-linecap:round; stroke-width:0.25;"/>
<line x1="463.400000" y1="36.000000" x2="471.400000" y2="36.000000"  style="stroke:black; stroke-linecap:round; stroke-width:0.25;"/>
<line x1="463.400000" y1="82.000000" x2="471.400000" y2="82.000000"  style="stroke:black; stroke-linecap:round; stroke-width:0.25;"/>
<line x1="463.400000" y1="94.000000" x2="463.400000" y2="82.000000"  style="stroke:black; stroke-linecap:round; stroke-width:0.25;"/>
<line x1="463.400000" y1="94.000000" x2="463.400000" y2="94.000000"  style="stroke:black; stroke-linecap:round; stroke-width:0.25;"/>
<line x1="471.400000" y1="36.000000" x2="471.400000" y2="74.000000"  style="stroke:black; stroke-linecap:round; stroke-width:0.25;"/>
<line x1="471.400000" y1="74.000000" x2="471.400000" y2="74.000000"  style="stroke:black; stroke-linecap:round; stroke-width:0.25;"/>
<line x1="471.400000" y1="74.000000" x2="475.400000" y2="74.000000"  style="stroke:black; stroke-linecap:round; stroke-width:0.25;"/>
<line x1="471.400000" y1="82.000000" x2="475.400000" y2="82.000000"  style="stroke:black; stroke-linecap:round; stroke-width:0.25;"/>
<line x1="499.400000" y1="78.000000" x2="503.400000" y2="78.000000"  style="stroke:black; stroke-linecap:round; stroke-width:0.25;"/>
<line x1="503.400000" y1="78.000000" x2="503.400000" y2="78.000000"  style="stroke:black; stroke-linecap:round; stroke-width:0.25;"/>
<line x1="503.400000" y1="78.000000" x2="507.400000" y2="78.000000"  style="stroke:black; stroke-linecap:round; stroke-width:0.25;"/>
<line x1="507.400000" y1="78.000000" x2="511.400000" y2="78.000000"  style="stroke:black; stroke-linecap:round; stroke-width:0.25;"/>
<line x1="511.400000" y1="78.000000" x2="521.400000" y2="78.000000"  style="stroke:black; stroke-linecap:round; stroke-width:0.25;"/>
</svg>
