<?xml version="1.0"?>
<svg xmlns="http://www.w3.org/2000/svg" xmlns:xlink="http://www.w3.org/1999/xlink" viewBox="0 0 502.500000 248.000000" width="251.250000mm" height="124.000000mm" version="1.1">
<a xlink:href="b2d-0x7f9dc2c8e4a0.svg">
<rect x="1.000000" y="1.000000" width="501.500000" height="247.000000" rx="0" ry="0" style="stroke:none;fill:#cccccc;"/>
<rect x="0.000000" y="0.000000" width="501.500000" height="247.000000" rx="0" ry="0" style="stroke:none;fill:#ffffff;"/>
</a>
<text x="10.000000" y="7.000000" font-family="Arial" font-size="7"></text>
<rect x="55.000000" y="55.000000" width="283.800000" height="24.000000" rx="0" ry="0" style="stroke:none;fill:#cccccc;"/>
<rect x="54.000000" y="54.000000" width="283.800000" height="24.000000" rx="0" ry="0" style="stroke:none;fill:#477881;"/>
<text x="195.900000" y="68.000000" font-family="Arial" font-size="7" text-anchor="middle" fill="#FFFFFF">hslider(Peak Boost|Cut, 0.0f, -40.0f, 40.0f, 0.10000000000000001f)</text>
<circle cx="56.000000" cy="56.000000" r="1"/>
<line x1="45.000000" y1="45.000000" x2="45.000000" y2="87.000000"  style="stroke: black; stroke-linecap:round; stroke-width:0.25; stroke-dasharray:3,3;"/>
<line x1="45.000000" y1="87.000000" x2="346.800000" y2="87.000000"  style="stroke: black; stroke-linecap:round; stroke-width:0.25; stroke-dasharray:3,3;"/>
<line x1="346.800000" y1="87.000000" x2="346.800000" y2="45.000000"  style="stroke: black; stroke-linecap:round; stroke-width:0.25; stroke-dasharray:3,3;"/>
<line x1="45.000000" y1="45.000000" x2="50.000000" y2="45.000000"  style="stroke: black; stroke-linecap:round; stroke-width:0.25; stroke-dasharray:3,3;"/>
<line x1="137.075000" y1="45.000000" x2="346.800000" y2="45.000000"  style="stroke: black; stroke-linecap:round; stroke-width:0.25; stroke-dasharray:3,3;"/>
<text x="50.000000" y="47.000000" font-family="Arial" font-size="7">vgroup(Peaking Equalizer)</text>
<line x1="35.000000" y1="35.000000" x2="35.000000" y2="97.000000"  style="stroke: black; stroke-linecap:round; stroke-width:0.25; stroke-dasharray:3,3;"/>
<line x1="35.000000" y1="97.000000" x2="356.800000" y2="97.000000"  style="stroke: black; stroke-linecap:round; stroke-width:0.25; stroke-dasharray:3,3;"/>
<line x1="356.800000" y1="97.000000" x2="356.800000" y2="35.000000"  style="stroke: black; stroke-linecap:round; stroke-width:0.25; stroke-dasharray:3,3;"/>
<line x1="35.000000" y1="35.000000" x2="40.000000" y2="35.000000"  style="stroke: black; stroke-linecap:round; stroke-width:0.25; stroke-dasharray:3,3;"/>
<line x1="143.200000" y1="35.000000" x2="356.800000" y2="35.000000"  style="stroke: black; stroke-linecap:round; stroke-width:0.25; stroke-dasharray:3,3;"/>
<text x="40.000000" y="37.000000" font-family="Arial" font-size="7">hgroup(PARAMETRIC EQ SECTIONS)</text>
<line x1="25.000000" y1="25.000000" x2="25.000000" y2="107.000000"  style="stroke: black; stroke-linecap:round; stroke-width:0.25; stroke-dasharray:3,3;"/>
<line x1="25.000000" y1="107.000000" x2="366.800000" y2="107.000000"  style="stroke: black; stroke-linecap:round; stroke-width:0.25; stroke-dasharray:3,3;"/>
<line x1="366.800000" y1="107.000000" x2="366.800000" y2="25.000000"  style="stroke: black; stroke-linecap:round; stroke-width:0.25; stroke-dasharray:3,3;"/>
<line x1="25.000000" y1="25.000000" x2="30.000000" y2="25.000000"  style="stroke: black; stroke-linecap:round; stroke-width:0.25; stroke-dasharray:3,3;"/>
<line x1="42.900000" y1="25.000000" x2="366.800000" y2="25.000000"  style="stroke: black; stroke-linecap:round; stroke-width:0.25; stroke-dasharray:3,3;"/>
<text x="30.000000" y="27.000000" font-family="Arial" font-size="7">LP</text>
<rect x="184.900000" y="127.000000" width="24.000000" height="24.000000" rx="0" ry="0" style="stroke:none;fill:#cccccc;"/>
<rect x="183.900000" y="126.000000" width="24.000000" height="24.000000" rx="0" ry="0" style="stroke:none;fill:#f44800;"/>
<text x="195.900000" y="140.000000" font-family="Arial" font-size="7" text-anchor="middle" fill="#FFFFFF">0</text>
<circle cx="185.900000" cy="128.000000" r="1"/>
<line x1="174.900000" y1="117.000000" x2="174.900000" y2="159.000000"  style="stroke: black; stroke-linecap:round; stroke-width:0.25; stroke-dasharray:3,3;"/>
<line x1="174.900000" y1="159.000000" x2="216.900000" y2="159.000000"  style="stroke: black; stroke-linecap:round; stroke-width:0.25; stroke-dasharray:3,3;"/>
<line x1="216.900000" y1="159.000000" x2="216.900000" y2="117.000000"  style="stroke: black; stroke-linecap:round; stroke-width:0.25; stroke-dasharray:3,3;"/>
<line x1="174.900000" y1="117.000000" x2="179.900000" y2="117.000000"  style="stroke: black; stroke-linecap:round; stroke-width:0.25; stroke-dasharray:3,3;"/>
<line x1="196.025000" y1="117.000000" x2="216.900000" y2="117.000000"  style="stroke: black; stroke-linecap:round; stroke-width:0.25; stroke-dasharray:3,3;"/>
<text x="179.900000" y="119.000000" font-family="Arial" font-size="7">b13</text>
<rect x="384.800000" y="81.000000" width="24.000000" height="24.000000" rx="0" ry="0" style="stroke:none;fill:#cccccc;"/>
<rect x="383.800000" y="80.000000" width="24.000000" height="24.000000" rx="0" ry="0" style="stroke:none;fill:#4B71A1;"/>
<text x="395.800000" y="94.000000" font-family="Arial" font-size="7" text-anchor="middle" fill="#FFFFFF">&gt;</text>
<circle cx="385.800000" cy="82.000000" r="1"/>
<line x1="380.800000" y1="87.000000" x2="383.800000" y2="88.000000"  transform="rotate(0.000000,383.800000,88.000000)" style="stroke: black; stroke-width:0.25;"/>
<line x1="380.800000" y1="89.000000" x2="383.800000" y2="88.000000"  transform="rotate(0.000000,383.800000,88.000000)" style="stroke: black; stroke-width:0.25;"/>
<line x1="380.800000" y1="95.000000" x2="383.800000" y2="96.000000"  transform="rotate(0.000000,383.800000,96.000000)" style="stroke: black; stroke-width:0.25;"/>
<line x1="380.800000" y1="97.000000" x2="383.800000" y2="96.000000"  transform="rotate(0.000000,383.800000,96.000000)" style="stroke: black; stroke-width:0.25;"/>
<a xlink:href="a1-0x7f9dc2c8c510.svg">
<rect x="204.900000" y="169.000000" width="24.000000" height="24.000000" rx="0" ry="0" style="stroke:none;fill:#cccccc;"/>
<rect x="203.900000" y="168.000000" width="24.000000" height="24.000000" rx="0" ry="0" style="stroke:none;fill:#003366;"/>
</a>
<a xlink:href="a1-0x7f9dc2c8c510.svg">
<text x="215.900000" y="182.000000" font-family="Arial" font-size="7" text-anchor="middle" fill="#FFFFFF">a1</text>
</a>
<circle cx="205.900000" cy="170.000000" r="1"/>
<a xlink:href="b1-0x7f9dc2c8c720.svg">
<rect x="204.900000" y="201.000000" width="24.000000" height="24.000000" rx="0" ry="0" style="stroke:none;fill:#cccccc;"/>
<rect x="203.900000" y="200.000000" width="24.000000" height="24.000000" rx="0" ry="0" style="stroke:none;fill:#003366;"/>
</a>
<a xlink:href="b1-0x7f9dc2c8c720.svg">
<text x="215.900000" y="214.000000" font-family="Arial" font-size="7" text-anchor="middle" fill="#FFFFFF">b1</text>
</a>
<circle cx="205.900000" cy="202.000000" r="1"/>
<rect x="432.800000" y="113.000000" width="38.700000" height="24.000000" rx="0" ry="0" style="stroke:none;fill:#cccccc;"/>
<rect x="431.800000" y="112.000000" width="38.700000" height="24.000000" rx="0" ry="0" style="stroke:none;fill:#4B71A1;"/>
<text x="451.150000" y="126.000000" font-family="Arial" font-size="7" text-anchor="middle" fill="#FFFFFF">select2</text>
<circle cx="433.800000" cy="114.000000" r="1"/>
<line x1="428.800000" y1="115.000000" x2="431.800000" y2="116.000000"  transform="rotate(0.000000,431.800000,116.000000)" style="stroke: black; stroke-width:0.25;"/>
<line x1="428.800000" y1="117.000000" x2="431.800000" y2="116.000000"  transform="rotate(0.000000,431.800000,116.000000)" style="stroke: black; stroke-width:0.25;"/>
<line x1="428.800000" y1="123.000000" x2="431.800000" y2="124.000000"  transform="rotate(0.000000,431.800000,124.000000)" style="stroke: black; stroke-width:0.25;"/>
<line x1="428.800000" y1="125.000000" x2="431.800000" y2="124.000000"  transform="rotate(0.000000,431.800000,124.000000)" style="stroke: black; stroke-width:0.25;"/>
<line x1="428.800000" y1="131.000000" x2="431.800000" y2="132.000000"  transform="rotate(0.000000,431.800000,132.000000)" style="stroke: black; stroke-width:0.25;"/>
<line x1="428.800000" y1="133.000000" x2="431.800000" y2="132.000000"  transform="rotate(0.000000,431.800000,132.000000)" style="stroke: black; stroke-width:0.25;"/>
<line x1="15.000000" y1="15.000000" x2="15.000000" y2="233.000000"  style="stroke: black; stroke-linecap:round; stroke-width:0.25; stroke-dasharray:3,3;"/>
<line x1="15.000000" y1="233.000000" x2="487.500000" y2="233.000000"  style="stroke: black; stroke-linecap:round; stroke-width:0.25; stroke-dasharray:3,3;"/>
<line x1="487.500000" y1="233.000000" x2="487.500000" y2="15.000000"  style="stroke: black; stroke-linecap:round; stroke-width:0.25; stroke-dasharray:3,3;"/>
<line x1="15.000000" y1="15.000000" x2="20.000000" y2="15.000000"  style="stroke: black; stroke-linecap:round; stroke-width:0.25; stroke-dasharray:3,3;"/>
<line x1="36.125000" y1="15.000000" x2="487.500000" y2="15.000000"  style="stroke: black; stroke-linecap:round; stroke-width:0.25; stroke-dasharray:3,3;"/>
<text x="20.000000" y="17.000000" font-family="Arial" font-size="7">b1s</text>
<line x1="489.500000" y1="123.000000" x2="492.500000" y2="124.000000"  transform="rotate(0.000000,492.500000,124.000000)" style="stroke: black; stroke-width:0.25;"/>
<line x1="489.500000" y1="125.000000" x2="492.500000" y2="124.000000"  transform="rotate(0.000000,492.500000,124.000000)" style="stroke: black; stroke-width:0.25;"/>
<line x1="207.900000" y1="138.000000" x2="211.900000" y2="138.000000"  style="stroke:black; stroke-linecap:round; stroke-width:0.25;"/>
<line x1="211.900000" y1="138.000000" x2="221.900000" y2="138.000000"  style="stroke:black; stroke-linecap:round; stroke-width:0.25;"/>
<line x1="221.900000" y1="138.000000" x2="371.800000" y2="138.000000"  style="stroke:black; stroke-linecap:round; stroke-width:0.25;"/>
<line x1="227.900000" y1="180.000000" x2="231.900000" y2="180.000000"  style="stroke:black; stroke-linecap:round; stroke-width:0.25;"/>
<line x1="227.900000" y1="212.000000" x2="231.900000" y2="212.000000"  style="stroke:black; stroke-linecap:round; stroke-width:0.25;"/>
<line x1="231.900000" y1="180.000000" x2="411.800000" y2="180.000000"  style="stroke:black; stroke-linecap:round; stroke-width:0.25;"/>
<line x1="231.900000" y1="212.000000" x2="411.800000" y2="212.000000"  style="stroke:black; stroke-linecap:round; stroke-width:0.25;"/>
<line x1="337.800000" y1="66.000000" x2="341.800000" y2="66.000000"  style="stroke:black; stroke-linecap:round; stroke-width:0.25;"/>
<line x1="341.800000" y1="66.000000" x2="351.800000" y2="66.000000"  style="stroke:black; stroke-linecap:round; stroke-width:0.25;"/>
<line x1="351.800000" y1="66.000000" x2="361.800000" y2="66.000000"  style="stroke:black; stroke-linecap:round; stroke-width:0.25;"/>
<line x1="361.800000" y1="66.000000" x2="371.800000" y2="66.000000"  style="stroke:black; stroke-linecap:round; stroke-width:0.25;"/>
<line x1="371.800000" y1="66.000000" x2="379.800000" y2="66.000000"  style="stroke:black; stroke-linecap:round; stroke-width:0.25;"/>
<line x1="371.800000" y1="96.000000" x2="379.800000" y2="96.000000"  style="stroke:black; stroke-linecap:round; stroke-width:0.25;"/>
<line x1="371.800000" y1="138.000000" x2="371.800000" y2="96.000000"  style="stroke:black; stroke-linecap:round; stroke-width:0.25;"/>
<line x1="371.800000" y1="138.000000" x2="371.800000" y2="138.000000"  style="stroke:black; stroke-linecap:round; stroke-width:0.25;"/>
<line x1="379.800000" y1="66.000000" x2="379.800000" y2="88.000000"  style="stroke:black; stroke-linecap:round; stroke-width:0.25;"/>
<line x1="379.800000" y1="88.000000" x2="379.800000" y2="88.000000"  style="stroke:black; stroke-linecap:round; stroke-width:0.25;"/>
<line x1="379.800000" y1="88.000000" x2="383.800000" y2="88.000000"  style="stroke:black; stroke-linecap:round; stroke-width:0.25;"/>
<line x1="379.800000" y1="96.000000" x2="383.800000" y2="96.000000"  style="stroke:black; stroke-linecap:round; stroke-width:0.25;"/>
<line x1="407.800000" y1="92.000000" x2="411.800000" y2="92.000000"  style="stroke:black; stroke-linecap:round; stroke-width:0.25;"/>
<line x1="411.800000" y1="92.000000" x2="427.800000" y2="92.000000"  style="stroke:black; stroke-linecap:round; stroke-width:0.25;"/>
<line x1="411.800000" y1="124.000000" x2="427.800000" y2="124.000000"  style="stroke:black; stroke-linecap:round; stroke-width:0.25;"/>
<line x1="411.800000" y1="180.000000" x2="411.800000" y2="124.000000"  style="stroke:black; stroke-linecap:round; stroke-width:0.25;"/>
<line x1="411.800000" y1="180.000000" x2="411.800000" y2="180.000000"  style="stroke:black; stroke-linecap:round; stroke-width:0.25;"/>
<line x1="411.800000" y1="212.000000" x2="419.800000" y2="212.000000"  style="stroke:black; stroke-linecap:round; stroke-width:0.25;"/>
<line x1="419.800000" y1="132.000000" x2="427.800000" y2="132.000000"  style="stroke:black; stroke-linecap:round; stroke-width:0.25;"/>
<line x1="419.800000" y1="212.000000" x2="419.800000" y2="132.000000"  style="stroke:black; stroke-linecap:round; stroke-width:0.25;"/>
<line x1="427.800000" y1="92.000000" x2="427.800000" y2="116.000000"  style="stroke:black; stroke-linecap:round; stroke-width:0.25;"/>
<line x1="427.800000" y1="116.000000" x2="427.800000" y2="116.000000"  style="stroke:black; stroke-linecap:round; stroke-width:0.25;"/>
<line x1="427.800000" y1="116.000000" x2="431.800000" y2="116.000000"  style="stroke:black; stroke-linecap:round; stroke-width:0.25;"/>
<line x1="427.800000" y1="124.000000" x2="431.800000" y2="124.000000"  style="stroke:black; stroke-linecap:round; stroke-width:0.25;"/>
<line x1="427.800000" y1="132.000000" x2="431.800000" y2="132.000000"  style="stroke:black; stroke-linecap:round; stroke-width:0.25;"/>
<line x1="470.500000" y1="124.000000" x2="474.500000" y2="124.000000"  style="stroke:black; stroke-linecap:round; stroke-width:0.25;"/>
<line x1="474.500000" y1="124.000000" x2="474.500000" y2="124.000000"  style="stroke:black; stroke-linecap:round; stroke-width:0.25;"/>
<line x1="474.500000" y1="124.000000" x2="478.500000" y2="124.000000"  style="stroke:black; stroke-linecap:round; stroke-width:0.25;"/>
<line x1="478.500000" y1="124.000000" x2="482.500000" y2="124.000000"  style="stroke:black; stroke-linecap:round; stroke-width:0.25;"/>
<line x1="482.500000" y1="124.000000" x2="492.500000" y2="124.000000"  style="stroke:black; stroke-linecap:round; stroke-width:0.25;"/>
</svg>
