<?xml version="1.0"?>
<svg xmlns="http://www.w3.org/2000/svg" xmlns:xlink="http://www.w3.org/1999/xlink" viewBox="0 0 277.900000 176.000000" width="138.950000mm" height="88.000000mm" version="1.1">
<a xlink:href="sawN-0x7f9dc0d76d30.svg">
<rect x="1.000000" y="1.000000" width="276.900000" height="175.000000" rx="0" ry="0" style="stroke:none;fill:#cccccc;"/>
<rect x="0.000000" y="0.000000" width="276.900000" height="175.000000" rx="0" ry="0" style="stroke:none;fill:#ffffff;"/>
</a>
<text x="10.000000" y="7.000000" font-family="Arial" font-size="7"></text>
<rect x="83.950000" y="35.000000" width="24.000000" height="24.000000" rx="0" ry="0" style="stroke:none;fill:#cccccc;"/>
<rect x="82.950000" y="34.000000" width="24.000000" height="24.000000" rx="0" ry="0" style="stroke:none;fill:#f44800;"/>
<text x="94.950000" y="48.000000" font-family="Arial" font-size="7" text-anchor="middle" fill="#FFFFFF">2</text>
<circle cx="84.950000" cy="36.000000" r="1"/>
<line x1="73.950000" y1="25.000000" x2="73.950000" y2="67.000000"  style="stroke: black; stroke-linecap:round; stroke-width:0.25; stroke-dasharray:3,3;"/>
<line x1="73.950000" y1="67.000000" x2="115.950000" y2="67.000000"  style="stroke: black; stroke-linecap:round; stroke-width:0.25; stroke-dasharray:3,3;"/>
<line x1="115.950000" y1="67.000000" x2="115.950000" y2="25.000000"  style="stroke: black; stroke-linecap:round; stroke-width:0.25; stroke-dasharray:3,3;"/>
<line x1="73.950000" y1="25.000000" x2="78.950000" y2="25.000000"  style="stroke: black; stroke-linecap:round; stroke-width:0.25; stroke-dasharray:3,3;"/>
<line x1="88.625000" y1="25.000000" x2="115.950000" y2="25.000000"  style="stroke: black; stroke-linecap:round; stroke-width:0.25; stroke-dasharray:3,3;"/>
<text x="78.950000" y="27.000000" font-family="Arial" font-size="7">M</text>
<a xlink:href="lf-0x7f9dc0d72740.svg">
<rect x="25.000000" y="77.000000" width="141.900000" height="24.000000" rx="0" ry="0" style="stroke:none;fill:#cccccc;"/>
<rect x="24.000000" y="76.000000" width="141.900000" height="24.000000" rx="0" ry="0" style="stroke:none;fill:#003366;"/>
</a>
<a xlink:href="lf-0x7f9dc0d72740.svg">
<text x="94.950000" y="90.000000" font-family="Arial" font-size="7" text-anchor="middle" fill="#FFFFFF">lf_sawpos(20.0f,(x8 : abs) : max)</text>
</a>
<circle cx="26.000000" cy="78.000000" r="1"/>
<rect x="182.900000" y="51.000000" width="24.000000" height="24.000000" rx="0" ry="0" style="stroke:none;fill:#cccccc;"/>
<rect x="181.900000" y="50.000000" width="24.000000" height="24.000000" rx="0" ry="0" style="stroke:none;fill:#4B71A1;"/>
<text x="193.900000" y="64.000000" font-family="Arial" font-size="7" text-anchor="middle" fill="#FFFFFF">*</text>
<circle cx="183.900000" cy="52.000000" r="1"/>
<line x1="178.900000" y1="57.000000" x2="181.900000" y2="58.000000"  transform="rotate(0.000000,181.900000,58.000000)" style="stroke: black; stroke-width:0.25;"/>
<line x1="178.900000" y1="59.000000" x2="181.900000" y2="58.000000"  transform="rotate(0.000000,181.900000,58.000000)" style="stroke: black; stroke-width:0.25;"/>
<line x1="178.900000" y1="65.000000" x2="181.900000" y2="66.000000"  transform="rotate(0.000000,181.900000,66.000000)" style="stroke: black; stroke-width:0.25;"/>
<line x1="178.900000" y1="67.000000" x2="181.900000" y2="66.000000"  transform="rotate(0.000000,181.900000,66.000000)" style="stroke: black; stroke-width:0.25;"/>
<rect x="103.950000" y="119.000000" width="24.000000" height="24.000000" rx="0" ry="0" style="stroke:none;fill:#cccccc;"/>
<rect x="102.950000" y="118.000000" width="24.000000" height="24.000000" rx="0" ry="0" style="stroke:none;fill:#f44800;"/>
<text x="114.950000" y="132.000000" font-family="Arial" font-size="7" text-anchor="middle" fill="#FFFFFF">1</text>
<circle cx="104.950000" cy="120.000000" r="1"/>
<line x1="93.950000" y1="109.000000" x2="93.950000" y2="151.000000"  style="stroke: black; stroke-linecap:round; stroke-width:0.25; stroke-dasharray:3,3;"/>
<line x1="93.950000" y1="151.000000" x2="135.950000" y2="151.000000"  style="stroke: black; stroke-linecap:round; stroke-width:0.25; stroke-dasharray:3,3;"/>
<line x1="135.950000" y1="151.000000" x2="135.950000" y2="109.000000"  style="stroke: black; stroke-linecap:round; stroke-width:0.25; stroke-dasharray:3,3;"/>
<line x1="93.950000" y1="109.000000" x2="98.950000" y2="109.000000"  style="stroke: black; stroke-linecap:round; stroke-width:0.25; stroke-dasharray:3,3;"/>
<line x1="115.075000" y1="109.000000" x2="135.950000" y2="109.000000"  style="stroke: black; stroke-linecap:round; stroke-width:0.25; stroke-dasharray:3,3;"/>
<text x="98.950000" y="111.000000" font-family="Arial" font-size="7">a23</text>
<rect x="222.900000" y="77.000000" width="24.000000" height="24.000000" rx="0" ry="0" style="stroke:none;fill:#cccccc;"/>
<rect x="221.900000" y="76.000000" width="24.000000" height="24.000000" rx="0" ry="0" style="stroke:none;fill:#4B71A1;"/>
<text x="233.900000" y="90.000000" font-family="Arial" font-size="7" text-anchor="middle" fill="#FFFFFF">-</text>
<circle cx="223.900000" cy="78.000000" r="1"/>
<line x1="218.900000" y1="83.000000" x2="221.900000" y2="84.000000"  transform="rotate(0.000000,221.900000,84.000000)" style="stroke: black; stroke-width:0.25;"/>
<line x1="218.900000" y1="85.000000" x2="221.900000" y2="84.000000"  transform="rotate(0.000000,221.900000,84.000000)" style="stroke: black; stroke-width:0.25;"/>
<line x1="218.900000" y1="91.000000" x2="221.900000" y2="92.000000"  transform="rotate(0.000000,221.900000,92.000000)" style="stroke: black; stroke-width:0.25;"/>
<line x1="218.900000" y1="93.000000" x2="221.900000" y2="92.000000"  transform="rotate(0.000000,221.900000,92.000000)" style="stroke: black; stroke-width:0.25;"/>
<line x1="15.000000" y1="15.000000" x2="15.000000" y2="161.000000"  style="stroke: black; stroke-linecap:round; stroke-width:0.25; stroke-dasharray:3,3;"/>
<line x1="15.000000" y1="161.000000" x2="262.900000" y2="161.000000"  style="stroke: black; stroke-linecap:round; stroke-width:0.25; stroke-dasharray:3,3;"/>
<line x1="262.900000" y1="161.000000" x2="262.900000" y2="15.000000"  style="stroke: black; stroke-linecap:round; stroke-width:0.25; stroke-dasharray:3,3;"/>
<line x1="15.000000" y1="15.000000" x2="20.000000" y2="15.000000"  style="stroke: black; stroke-linecap:round; stroke-width:0.25; stroke-dasharray:3,3;"/>
<line x1="42.575000" y1="15.000000" x2="262.900000" y2="15.000000"  style="stroke: black; stroke-linecap:round; stroke-width:0.25; stroke-dasharray:3,3;"/>
<text x="20.000000" y="17.000000" font-family="Arial" font-size="7">saw1l</text>
<line x1="264.900000" y1="87.000000" x2="267.900000" y2="88.000000"  transform="rotate(0.000000,267.900000,88.000000)" style="stroke: black; stroke-width:0.25;"/>
<line x1="264.900000" y1="89.000000" x2="267.900000" y2="88.000000"  transform="rotate(0.000000,267.900000,88.000000)" style="stroke: black; stroke-width:0.25;"/>
<line x1="106.950000" y1="46.000000" x2="110.950000" y2="46.000000"  style="stroke:black; stroke-linecap:round; stroke-width:0.25;"/>
<line x1="110.950000" y1="46.000000" x2="120.950000" y2="46.000000"  style="stroke:black; stroke-linecap:round; stroke-width:0.25;"/>
<line x1="120.950000" y1="46.000000" x2="169.900000" y2="46.000000"  style="stroke:black; stroke-linecap:round; stroke-width:0.25;"/>
<line x1="126.950000" y1="130.000000" x2="130.950000" y2="130.000000"  style="stroke:black; stroke-linecap:round; stroke-width:0.25;"/>
<line x1="130.950000" y1="130.000000" x2="140.950000" y2="130.000000"  style="stroke:black; stroke-linecap:round; stroke-width:0.25;"/>
<line x1="140.950000" y1="130.000000" x2="209.900000" y2="130.000000"  style="stroke:black; stroke-linecap:round; stroke-width:0.25;"/>
<line x1="165.900000" y1="88.000000" x2="169.900000" y2="88.000000"  style="stroke:black; stroke-linecap:round; stroke-width:0.25;"/>
<line x1="169.900000" y1="46.000000" x2="177.900000" y2="46.000000"  style="stroke:black; stroke-linecap:round; stroke-width:0.25;"/>
<line x1="169.900000" y1="66.000000" x2="177.900000" y2="66.000000"  style="stroke:black; stroke-linecap:round; stroke-width:0.25;"/>
<line x1="169.900000" y1="88.000000" x2="169.900000" y2="66.000000"  style="stroke:black; stroke-linecap:round; stroke-width:0.25;"/>
<line x1="169.900000" y1="88.000000" x2="169.900000" y2="88.000000"  style="stroke:black; stroke-linecap:round; stroke-width:0.25;"/>
<line x1="177.900000" y1="46.000000" x2="177.900000" y2="58.000000"  style="stroke:black; stroke-linecap:round; stroke-width:0.25;"/>
<line x1="177.900000" y1="58.000000" x2="177.900000" y2="58.000000"  style="stroke:black; stroke-linecap:round; stroke-width:0.25;"/>
<line x1="177.900000" y1="58.000000" x2="181.900000" y2="58.000000"  style="stroke:black; stroke-linecap:round; stroke-width:0.25;"/>
<line x1="177.900000" y1="66.000000" x2="181.900000" y2="66.000000"  style="stroke:black; stroke-linecap:round; stroke-width:0.25;"/>
<line x1="205.900000" y1="62.000000" x2="209.900000" y2="62.000000"  style="stroke:black; stroke-linecap:round; stroke-width:0.25;"/>
<line x1="209.900000" y1="92.000000" x2="217.900000" y2="92.000000"  style="stroke:black; stroke-linecap:round; stroke-width:0.25;"/>
<line x1="209.900000" y1="130.000000" x2="209.900000" y2="92.000000"  style="stroke:black; stroke-linecap:round; stroke-width:0.25;"/>
<line x1="209.900000" y1="130.000000" x2="209.900000" y2="130.000000"  style="stroke:black; stroke-linecap:round; stroke-width:0.25;"/>
<line x1="209.900000" y1="62.000000" x2="217.900000" y2="62.000000"  style="stroke:black; stroke-linecap:round; stroke-width:0.25;"/>
<line x1="217.900000" y1="62.000000" x2="217.900000" y2="84.000000"  style="stroke:black; stroke-linecap:round; stroke-width:0.25;"/>
<line x1="217.900000" y1="84.000000" x2="217.900000" y2="84.000000"  style="stroke:black; stroke-linecap:round; stroke-width:0.25;"/>
<line x1="217.900000" y1="84.000000" x2="221.900000" y2="84.000000"  style="stroke:black; stroke-linecap:round; stroke-width:0.25;"/>
<line x1="217.900000" y1="92.000000" x2="221.900000" y2="92.000000"  style="stroke:black; stroke-linecap:round; stroke-width:0.25;"/>
<line x1="245.900000" y1="88.000000" x2="249.900000" y2="88.000000"  style="stroke:black; stroke-linecap:round; stroke-width:0.25;"/>
<line x1="249.900000" y1="88.000000" x2="249.900000" y2="88.000000"  style="stroke:black; stroke-linecap:round; stroke-width:0.25;"/>
<line x1="249.900000" y1="88.000000" x2="253.900000" y2="88.000000"  style="stroke:black; stroke-linecap:round; stroke-width:0.25;"/>
<line x1="253.900000" y1="88.000000" x2="257.900000" y2="88.000000"  style="stroke:black; stroke-linecap:round; stroke-width:0.25;"/>
<line x1="257.900000" y1="88.000000" x2="267.900000" y2="88.000000"  style="stroke:black; stroke-linecap:round; stroke-width:0.25;"/>
</svg>
