<?xml version="1.0"?>
<svg xmlns="http://www.w3.org/2000/svg" xmlns:xlink="http://www.w3.org/1999/xlink" viewBox="0 0 472.600000 188.000000" width="236.300000mm" height="94.000000mm" version="1.1">
<a xlink:href="sawchoice-0x7fa9956b7890.svg">
<rect x="1.000000" y="1.000000" width="471.600000" height="187.000000" rx="0" ry="0" style="stroke:none;fill:#cccccc;"/>
<rect x="0.000000" y="0.000000" width="471.600000" height="187.000000" rx="0" ry="0" style="stroke:none;fill:#ffffff;"/>
</a>
<text x="10.000000" y="7.000000" font-family="Arial" font-size="7"></text>
<rect x="33.000000" y="83.000000" width="25.800000" height="24.000000" rx="0" ry="0" style="stroke:none;fill:#cccccc;"/>
<rect x="32.000000" y="82.000000" width="25.800000" height="24.000000" rx="0" ry="0" style="stroke:none;fill:#47945E;"/>
<text x="44.900000" y="96.000000" font-family="Arial" font-size="7" text-anchor="middle" fill="#FFFFFF">freq</text>
<circle cx="34.000000" cy="84.000000" r="1"/>
<line x1="29.000000" y1="93.000000" x2="32.000000" y2="94.000000"  transform="rotate(0.000000,32.000000,94.000000)" style="stroke: black; stroke-width:0.25;"/>
<line x1="29.000000" y1="95.000000" x2="32.000000" y2="94.000000"  transform="rotate(0.000000,32.000000,94.000000)" style="stroke: black; stroke-width:0.25;"/>
<a xlink:href="saw1l-0x7fa995589170.svg">
<rect x="66.800000" y="83.000000" width="25.800000" height="24.000000" rx="0" ry="0" style="stroke:none;fill:#cccccc;"/>
<rect x="65.800000" y="82.000000" width="25.800000" height="24.000000" rx="0" ry="0" style="stroke:none;fill:#003366;"/>
</a>
<a xlink:href="saw1l-0x7fa995589170.svg">
<text x="78.700000" y="96.000000" font-family="Arial" font-size="7" text-anchor="middle" fill="#FFFFFF">saw1l</text>
</a>
<circle cx="67.800000" cy="84.000000" r="1"/>
<rect x="110.600000" y="83.000000" width="25.800000" height="24.000000" rx="0" ry="0" style="stroke:none;fill:#cccccc;"/>
<rect x="109.600000" y="82.000000" width="25.800000" height="24.000000" rx="0" ry="0" style="stroke:none;fill:#47945E;"/>
<text x="122.500000" y="96.000000" font-family="Arial" font-size="7" text-anchor="middle" fill="#FFFFFF">PM12</text>
<circle cx="111.600000" cy="84.000000" r="1"/>
<line x1="106.600000" y1="93.000000" x2="109.600000" y2="94.000000"  transform="rotate(0.000000,109.600000,94.000000)" style="stroke: black; stroke-width:0.25;"/>
<line x1="106.600000" y1="95.000000" x2="109.600000" y2="94.000000"  transform="rotate(0.000000,109.600000,94.000000)" style="stroke: black; stroke-width:0.25;"/>
<rect x="144.400000" y="35.000000" width="25.800000" height="24.000000" rx="0" ry="0" style="stroke:none;fill:#cccccc;"/>
<rect x="143.400000" y="34.000000" width="25.800000" height="24.000000" rx="0" ry="0" style="stroke:none;fill:#47945E;"/>
<text x="156.300000" y="48.000000" font-family="Arial" font-size="7" text-anchor="middle" fill="#FFFFFF">PM12</text>
<circle cx="145.400000" cy="36.000000" r="1"/>
<rect x="144.400000" y="67.000000" width="25.800000" height="24.000000" rx="0" ry="0" style="stroke:none;fill:#cccccc;"/>
<rect x="143.400000" y="66.000000" width="25.800000" height="24.000000" rx="0" ry="0" style="stroke:none;fill:#47945E;"/>
<text x="156.300000" y="80.000000" font-family="Arial" font-size="7" text-anchor="middle" fill="#FFFFFF">PM12</text>
<circle cx="145.400000" cy="68.000000" r="1"/>
<rect x="186.200000" y="51.000000" width="24.000000" height="24.000000" rx="0" ry="0" style="stroke:none;fill:#cccccc;"/>
<rect x="185.200000" y="50.000000" width="24.000000" height="24.000000" rx="0" ry="0" style="stroke:none;fill:#4B71A1;"/>
<text x="197.200000" y="64.000000" font-family="Arial" font-size="7" text-anchor="middle" fill="#FFFFFF">*</text>
<circle cx="187.200000" cy="52.000000" r="1"/>
<line x1="182.200000" y1="57.000000" x2="185.200000" y2="58.000000"  transform="rotate(0.000000,185.200000,58.000000)" style="stroke: black; stroke-width:0.25;"/>
<line x1="182.200000" y1="59.000000" x2="185.200000" y2="58.000000"  transform="rotate(0.000000,185.200000,58.000000)" style="stroke: black; stroke-width:0.25;"/>
<line x1="182.200000" y1="65.000000" x2="185.200000" y2="66.000000"  transform="rotate(0.000000,185.200000,66.000000)" style="stroke: black; stroke-width:0.25;"/>
<line x1="182.200000" y1="67.000000" x2="185.200000" y2="66.000000"  transform="rotate(0.000000,185.200000,66.000000)" style="stroke: black; stroke-width:0.25;"/>
<rect x="164.400000" y="99.000000" width="25.800000" height="24.000000" rx="0" ry="0" style="stroke:none;fill:#cccccc;"/>
<rect x="163.400000" y="98.000000" width="25.800000" height="24.000000" rx="0" ry="0" style="stroke:none;fill:#47945E;"/>
<text x="176.300000" y="112.000000" font-family="Arial" font-size="7" text-anchor="middle" fill="#FFFFFF">PM12</text>
<circle cx="165.400000" cy="100.000000" r="1"/>
<rect x="226.200000" y="67.000000" width="24.000000" height="24.000000" rx="0" ry="0" style="stroke:none;fill:#cccccc;"/>
<rect x="225.200000" y="66.000000" width="24.000000" height="24.000000" rx="0" ry="0" style="stroke:none;fill:#4B71A1;"/>
<text x="237.200000" y="80.000000" font-family="Arial" font-size="7" text-anchor="middle" fill="#FFFFFF">*</text>
<circle cx="227.200000" cy="68.000000" r="1"/>
<line x1="222.200000" y1="73.000000" x2="225.200000" y2="74.000000"  transform="rotate(0.000000,225.200000,74.000000)" style="stroke: black; stroke-width:0.25;"/>
<line x1="222.200000" y1="75.000000" x2="225.200000" y2="74.000000"  transform="rotate(0.000000,225.200000,74.000000)" style="stroke: black; stroke-width:0.25;"/>
<line x1="222.200000" y1="81.000000" x2="225.200000" y2="82.000000"  transform="rotate(0.000000,225.200000,82.000000)" style="stroke: black; stroke-width:0.25;"/>
<line x1="222.200000" y1="83.000000" x2="225.200000" y2="82.000000"  transform="rotate(0.000000,225.200000,82.000000)" style="stroke: black; stroke-width:0.25;"/>
<rect x="184.400000" y="131.000000" width="25.800000" height="24.000000" rx="0" ry="0" style="stroke:none;fill:#cccccc;"/>
<rect x="183.400000" y="130.000000" width="25.800000" height="24.000000" rx="0" ry="0" style="stroke:none;fill:#47945E;"/>
<text x="196.300000" y="144.000000" font-family="Arial" font-size="7" text-anchor="middle" fill="#FFFFFF">PM12</text>
<circle cx="185.400000" cy="132.000000" r="1"/>
<rect x="266.200000" y="83.000000" width="24.000000" height="24.000000" rx="0" ry="0" style="stroke:none;fill:#cccccc;"/>
<rect x="265.200000" y="82.000000" width="24.000000" height="24.000000" rx="0" ry="0" style="stroke:none;fill:#4B71A1;"/>
<text x="277.200000" y="96.000000" font-family="Arial" font-size="7" text-anchor="middle" fill="#FFFFFF">-</text>
<circle cx="267.200000" cy="84.000000" r="1"/>
<line x1="262.200000" y1="89.000000" x2="265.200000" y2="90.000000"  transform="rotate(0.000000,265.200000,90.000000)" style="stroke: black; stroke-width:0.25;"/>
<line x1="262.200000" y1="91.000000" x2="265.200000" y2="90.000000"  transform="rotate(0.000000,265.200000,90.000000)" style="stroke: black; stroke-width:0.25;"/>
<line x1="262.200000" y1="97.000000" x2="265.200000" y2="98.000000"  transform="rotate(0.000000,265.200000,98.000000)" style="stroke: black; stroke-width:0.25;"/>
<line x1="262.200000" y1="99.000000" x2="265.200000" y2="98.000000"  transform="rotate(0.000000,265.200000,98.000000)" style="stroke: black; stroke-width:0.25;"/>
<line x1="100.600000" y1="25.000000" x2="100.600000" y2="163.000000"  style="stroke: black; stroke-linecap:round; stroke-width:0.25; stroke-dasharray:3,3;"/>
<line x1="100.600000" y1="163.000000" x2="298.200000" y2="163.000000"  style="stroke: black; stroke-linecap:round; stroke-width:0.25; stroke-dasharray:3,3;"/>
<line x1="298.200000" y1="163.000000" x2="298.200000" y2="25.000000"  style="stroke: black; stroke-linecap:round; stroke-width:0.25; stroke-dasharray:3,3;"/>
<line x1="100.600000" y1="25.000000" x2="105.600000" y2="25.000000"  style="stroke: black; stroke-linecap:round; stroke-width:0.25; stroke-dasharray:3,3;"/>
<line x1="147.525000" y1="25.000000" x2="298.200000" y2="25.000000"  style="stroke: black; stroke-linecap:round; stroke-width:0.25; stroke-dasharray:3,3;"/>
<text x="105.600000" y="27.000000" font-family="Arial" font-size="7">Abstraction</text>
<a xlink:href="diff-0x7fa99558d620.svg">
<rect x="316.200000" y="67.000000" width="38.700000" height="24.000000" rx="0" ry="0" style="stroke:none;fill:#cccccc;"/>
<rect x="315.200000" y="66.000000" width="38.700000" height="24.000000" rx="0" ry="0" style="stroke:none;fill:#003366;"/>
</a>
<a xlink:href="diff-0x7fa99558d620.svg">
<text x="334.550000" y="80.000000" font-family="Arial" font-size="7" text-anchor="middle" fill="#FFFFFF">diff(2)</text>
</a>
<circle cx="317.200000" cy="68.000000" r="1"/>
<line x1="312.200000" y1="77.000000" x2="315.200000" y2="78.000000"  transform="rotate(0.000000,315.200000,78.000000)" style="stroke: black; stroke-width:0.25;"/>
<line x1="312.200000" y1="79.000000" x2="315.200000" y2="78.000000"  transform="rotate(0.000000,315.200000,78.000000)" style="stroke: black; stroke-width:0.25;"/>
<rect x="323.550000" y="99.000000" width="24.000000" height="24.000000" rx="0" ry="0" style="stroke:none;fill:#cccccc;"/>
<rect x="322.550000" y="98.000000" width="24.000000" height="24.000000" rx="0" ry="0" style="stroke:none;fill:#f44800;"/>
<text x="334.550000" y="112.000000" font-family="Arial" font-size="7" text-anchor="middle" fill="#FFFFFF">6</text>
<circle cx="324.550000" cy="100.000000" r="1"/>
<rect x="370.900000" y="83.000000" width="24.000000" height="24.000000" rx="0" ry="0" style="stroke:none;fill:#cccccc;"/>
<rect x="369.900000" y="82.000000" width="24.000000" height="24.000000" rx="0" ry="0" style="stroke:none;fill:#4B71A1;"/>
<text x="381.900000" y="96.000000" font-family="Arial" font-size="7" text-anchor="middle" fill="#FFFFFF">/</text>
<circle cx="371.900000" cy="84.000000" r="1"/>
<line x1="366.900000" y1="89.000000" x2="369.900000" y2="90.000000"  transform="rotate(0.000000,369.900000,90.000000)" style="stroke: black; stroke-width:0.25;"/>
<line x1="366.900000" y1="91.000000" x2="369.900000" y2="90.000000"  transform="rotate(0.000000,369.900000,90.000000)" style="stroke: black; stroke-width:0.25;"/>
<line x1="366.900000" y1="97.000000" x2="369.900000" y2="98.000000"  transform="rotate(0.000000,369.900000,98.000000)" style="stroke: black; stroke-width:0.25;"/>
<line x1="366.900000" y1="99.000000" x2="369.900000" y2="98.000000"  transform="rotate(0.000000,369.900000,98.000000)" style="stroke: black; stroke-width:0.25;"/>
<a xlink:href="gate-0x7fa995588790.svg">
<rect x="402.900000" y="83.000000" width="38.700000" height="24.000000" rx="0" ry="0" style="stroke:none;fill:#cccccc;"/>
<rect x="401.900000" y="82.000000" width="38.700000" height="24.000000" rx="0" ry="0" style="stroke:none;fill:#003366;"/>
</a>
<a xlink:href="gate-0x7fa995588790.svg">
<text x="421.250000" y="96.000000" font-family="Arial" font-size="7" text-anchor="middle" fill="#FFFFFF">gate(2)</text>
</a>
<circle cx="403.900000" cy="84.000000" r="1"/>
<line x1="398.900000" y1="93.000000" x2="401.900000" y2="94.000000"  transform="rotate(0.000000,401.900000,94.000000)" style="stroke: black; stroke-width:0.25;"/>
<line x1="398.900000" y1="95.000000" x2="401.900000" y2="94.000000"  transform="rotate(0.000000,401.900000,94.000000)" style="stroke: black; stroke-width:0.25;"/>
<line x1="15.000000" y1="15.000000" x2="15.000000" y2="173.000000"  style="stroke: black; stroke-linecap:round; stroke-width:0.25; stroke-dasharray:3,3;"/>
<line x1="15.000000" y1="173.000000" x2="457.600000" y2="173.000000"  style="stroke: black; stroke-linecap:round; stroke-width:0.25; stroke-dasharray:3,3;"/>
<line x1="457.600000" y1="173.000000" x2="457.600000" y2="15.000000"  style="stroke: black; stroke-linecap:round; stroke-width:0.25; stroke-dasharray:3,3;"/>
<line x1="15.000000" y1="15.000000" x2="20.000000" y2="15.000000"  style="stroke: black; stroke-linecap:round; stroke-width:0.25; stroke-dasharray:3,3;"/>
<line x1="49.025000" y1="15.000000" x2="457.600000" y2="15.000000"  style="stroke: black; stroke-linecap:round; stroke-width:0.25; stroke-dasharray:3,3;"/>
<text x="20.000000" y="17.000000" font-family="Arial" font-size="7">sawN(3)</text>
<line x1="459.600000" y1="93.000000" x2="462.600000" y2="94.000000"  transform="rotate(0.000000,462.600000,94.000000)" style="stroke: black; stroke-width:0.25;"/>
<line x1="459.600000" y1="95.000000" x2="462.600000" y2="94.000000"  transform="rotate(0.000000,462.600000,94.000000)" style="stroke: black; stroke-width:0.25;"/>
<line x1="10.000000" y1="94.000000" x2="20.000000" y2="94.000000"  style="stroke:black; stroke-linecap:round; stroke-width:0.25;"/>
<line x1="20.000000" y1="94.000000" x2="24.000000" y2="94.000000"  style="stroke:black; stroke-linecap:round; stroke-width:0.25;"/>
<line x1="24.000000" y1="94.000000" x2="28.000000" y2="94.000000"  style="stroke:black; stroke-linecap:round; stroke-width:0.25;"/>
<line x1="28.000000" y1="94.000000" x2="28.000000" y2="94.000000"  style="stroke:black; stroke-linecap:round; stroke-width:0.25;"/>
<line x1="28.000000" y1="94.000000" x2="32.000000" y2="94.000000"  style="stroke:black; stroke-linecap:round; stroke-width:0.25;"/>
<line x1="91.600000" y1="94.000000" x2="95.600000" y2="94.000000"  style="stroke:black; stroke-linecap:round; stroke-width:0.25;"/>
<line x1="95.600000" y1="94.000000" x2="95.600000" y2="94.000000"  style="stroke:black; stroke-linecap:round; stroke-width:0.25;"/>
<line x1="95.600000" y1="94.000000" x2="105.600000" y2="94.000000"  style="stroke:black; stroke-linecap:round; stroke-width:0.25;"/>
<line x1="105.600000" y1="94.000000" x2="109.600000" y2="94.000000"  style="stroke:black; stroke-linecap:round; stroke-width:0.25;"/>
<line x1="169.200000" y1="46.000000" x2="173.200000" y2="46.000000"  style="stroke:black; stroke-linecap:round; stroke-width:0.25;"/>
<line x1="169.200000" y1="78.000000" x2="173.200000" y2="78.000000"  style="stroke:black; stroke-linecap:round; stroke-width:0.25;"/>
<line x1="173.200000" y1="46.000000" x2="181.200000" y2="46.000000"  style="stroke:black; stroke-linecap:round; stroke-width:0.25;"/>
<line x1="173.200000" y1="66.000000" x2="181.200000" y2="66.000000"  style="stroke:black; stroke-linecap:round; stroke-width:0.25;"/>
<line x1="173.200000" y1="78.000000" x2="173.200000" y2="66.000000"  style="stroke:black; stroke-linecap:round; stroke-width:0.25;"/>
<line x1="173.200000" y1="78.000000" x2="173.200000" y2="78.000000"  style="stroke:black; stroke-linecap:round; stroke-width:0.25;"/>
<line x1="181.200000" y1="46.000000" x2="181.200000" y2="58.000000"  style="stroke:black; stroke-linecap:round; stroke-width:0.25;"/>
<line x1="181.200000" y1="58.000000" x2="181.200000" y2="58.000000"  style="stroke:black; stroke-linecap:round; stroke-width:0.25;"/>
<line x1="181.200000" y1="58.000000" x2="185.200000" y2="58.000000"  style="stroke:black; stroke-linecap:round; stroke-width:0.25;"/>
<line x1="181.200000" y1="66.000000" x2="185.200000" y2="66.000000"  style="stroke:black; stroke-linecap:round; stroke-width:0.25;"/>
<line x1="189.200000" y1="110.000000" x2="193.200000" y2="110.000000"  style="stroke:black; stroke-linecap:round; stroke-width:0.25;"/>
<line x1="193.200000" y1="110.000000" x2="213.200000" y2="110.000000"  style="stroke:black; stroke-linecap:round; stroke-width:0.25;"/>
<line x1="209.200000" y1="62.000000" x2="213.200000" y2="62.000000"  style="stroke:black; stroke-linecap:round; stroke-width:0.25;"/>
<line x1="209.200000" y1="142.000000" x2="213.200000" y2="142.000000"  style="stroke:black; stroke-linecap:round; stroke-width:0.25;"/>
<line x1="213.200000" y1="62.000000" x2="221.200000" y2="62.000000"  style="stroke:black; stroke-linecap:round; stroke-width:0.25;"/>
<line x1="213.200000" y1="82.000000" x2="221.200000" y2="82.000000"  style="stroke:black; stroke-linecap:round; stroke-width:0.25;"/>
<line x1="213.200000" y1="110.000000" x2="213.200000" y2="82.000000"  style="stroke:black; stroke-linecap:round; stroke-width:0.25;"/>
<line x1="213.200000" y1="110.000000" x2="213.200000" y2="110.000000"  style="stroke:black; stroke-linecap:round; stroke-width:0.25;"/>
<line x1="213.200000" y1="142.000000" x2="253.200000" y2="142.000000"  style="stroke:black; stroke-linecap:round; stroke-width:0.25;"/>
<line x1="221.200000" y1="62.000000" x2="221.200000" y2="74.000000"  style="stroke:black; stroke-linecap:round; stroke-width:0.25;"/>
<line x1="221.200000" y1="74.000000" x2="221.200000" y2="74.000000"  style="stroke:black; stroke-linecap:round; stroke-width:0.25;"/>
<line x1="221.200000" y1="74.000000" x2="225.200000" y2="74.000000"  style="stroke:black; stroke-linecap:round; stroke-width:0.25;"/>
<line x1="221.200000" y1="82.000000" x2="225.200000" y2="82.000000"  style="stroke:black; stroke-linecap:round; stroke-width:0.25;"/>
<line x1="249.200000" y1="78.000000" x2="253.200000" y2="78.000000"  style="stroke:black; stroke-linecap:round; stroke-width:0.25;"/>
<line x1="253.200000" y1="78.000000" x2="261.200000" y2="78.000000"  style="stroke:black; stroke-linecap:round; stroke-width:0.25;"/>
<line x1="253.200000" y1="98.000000" x2="261.200000" y2="98.000000"  style="stroke:black; stroke-linecap:round; stroke-width:0.25;"/>
<line x1="253.200000" y1="142.000000" x2="253.200000" y2="98.000000"  style="stroke:black; stroke-linecap:round; stroke-width:0.25;"/>
<line x1="253.200000" y1="142.000000" x2="253.200000" y2="142.000000"  style="stroke:black; stroke-linecap:round; stroke-width:0.25;"/>
<line x1="261.200000" y1="78.000000" x2="261.200000" y2="90.000000"  style="stroke:black; stroke-linecap:round; stroke-width:0.25;"/>
<line x1="261.200000" y1="90.000000" x2="261.200000" y2="90.000000"  style="stroke:black; stroke-linecap:round; stroke-width:0.25;"/>
<line x1="261.200000" y1="90.000000" x2="265.200000" y2="90.000000"  style="stroke:black; stroke-linecap:round; stroke-width:0.25;"/>
<line x1="261.200000" y1="98.000000" x2="265.200000" y2="98.000000"  style="stroke:black; stroke-linecap:round; stroke-width:0.25;"/>
<line x1="289.200000" y1="94.000000" x2="293.200000" y2="94.000000"  style="stroke:black; stroke-linecap:round; stroke-width:0.25;"/>
<line x1="293.200000" y1="94.000000" x2="303.200000" y2="94.000000"  style="stroke:black; stroke-linecap:round; stroke-width:0.25;"/>
<line x1="303.200000" y1="78.000000" x2="311.200000" y2="78.000000"  style="stroke:black; stroke-linecap:round; stroke-width:0.25;"/>
<line x1="303.200000" y1="94.000000" x2="303.200000" y2="78.000000"  style="stroke:black; stroke-linecap:round; stroke-width:0.25;"/>
<line x1="303.200000" y1="94.000000" x2="303.200000" y2="94.000000"  style="stroke:black; stroke-linecap:round; stroke-width:0.25;"/>
<line x1="311.200000" y1="78.000000" x2="315.200000" y2="78.000000"  style="stroke:black; stroke-linecap:round; stroke-width:0.25;"/>
<line x1="346.550000" y1="110.000000" x2="350.550000" y2="110.000000"  style="stroke:black; stroke-linecap:round; stroke-width:0.25;"/>
<line x1="350.550000" y1="110.000000" x2="357.900000" y2="110.000000"  style="stroke:black; stroke-linecap:round; stroke-width:0.25;"/>
<line x1="353.900000" y1="78.000000" x2="357.900000" y2="78.000000"  style="stroke:black; stroke-linecap:round; stroke-width:0.25;"/>
<line x1="357.900000" y1="78.000000" x2="365.900000" y2="78.000000"  style="stroke:black; stroke-linecap:round; stroke-width:0.25;"/>
<line x1="357.900000" y1="98.000000" x2="365.900000" y2="98.000000"  style="stroke:black; stroke-linecap:round; stroke-width:0.25;"/>
<line x1="357.900000" y1="110.000000" x2="357.900000" y2="98.000000"  style="stroke:black; stroke-linecap:round; stroke-width:0.25;"/>
<line x1="357.900000" y1="110.000000" x2="357.900000" y2="110.000000"  style="stroke:black; stroke-linecap:round; stroke-width:0.25;"/>
<line x1="365.900000" y1="78.000000" x2="365.900000" y2="90.000000"  style="stroke:black; stroke-linecap:round; stroke-width:0.25;"/>
<line x1="365.900000" y1="90.000000" x2="365.900000" y2="90.000000"  style="stroke:black; stroke-linecap:round; stroke-width:0.25;"/>
<line x1="365.900000" y1="90.000000" x2="369.900000" y2="90.000000"  style="stroke:black; stroke-linecap:round; stroke-width:0.25;"/>
<line x1="365.900000" y1="98.000000" x2="369.900000" y2="98.000000"  style="stroke:black; stroke-linecap:round; stroke-width:0.25;"/>
<line x1="393.900000" y1="94.000000" x2="397.900000" y2="94.000000"  style="stroke:black; stroke-linecap:round; stroke-width:0.25;"/>
<line x1="397.900000" y1="94.000000" x2="397.900000" y2="94.000000"  style="stroke:black; stroke-linecap:round; stroke-width:0.25;"/>
<line x1="397.900000" y1="94.000000" x2="401.900000" y2="94.000000"  style="stroke:black; stroke-linecap:round; stroke-width:0.25;"/>
<line x1="440.600000" y1="94.000000" x2="444.600000" y2="94.000000"  style="stroke:black; stroke-linecap:round; stroke-width:0.25;"/>
<line x1="444.600000" y1="94.000000" x2="444.600000" y2="94.000000"  style="stroke:black; stroke-linecap:round; stroke-width:0.25;"/>
<line x1="444.600000" y1="94.000000" x2="448.600000" y2="94.000000"  style="stroke:black; stroke-linecap:round; stroke-width:0.25;"/>
<line x1="448.600000" y1="94.000000" x2="452.600000" y2="94.000000"  style="stroke:black; stroke-linecap:round; stroke-width:0.25;"/>
<line x1="452.600000" y1="94.000000" x2="462.600000" y2="94.000000"  style="stroke:black; stroke-linecap:round; stroke-width:0.25;"/>
</svg>
