<?xml version="1.0"?>
<svg xmlns="http://www.w3.org/2000/svg" xmlns:xlink="http://www.w3.org/1999/xlink" viewBox="0 0 394.300000 124.000000" width="197.150000mm" height="62.000000mm" version="1.1">
<a xlink:href="sawchoice-0x7f9dc0dbabc0.svg">
<rect x="1.000000" y="1.000000" width="393.300000" height="123.000000" rx="0" ry="0" style="stroke:none;fill:#cccccc;"/>
<rect x="0.000000" y="0.000000" width="393.300000" height="123.000000" rx="0" ry="0" style="stroke:none;fill:#ffffff;"/>
</a>
<text x="10.000000" y="7.000000" font-family="Arial" font-size="7"></text>
<rect x="33.000000" y="51.000000" width="25.800000" height="24.000000" rx="0" ry="0" style="stroke:none;fill:#cccccc;"/>
<rect x="32.000000" y="50.000000" width="25.800000" height="24.000000" rx="0" ry="0" style="stroke:none;fill:#47945E;"/>
<text x="44.900000" y="64.000000" font-family="Arial" font-size="7" text-anchor="middle" fill="#FFFFFF">freq</text>
<circle cx="34.000000" cy="52.000000" r="1"/>
<line x1="29.000000" y1="61.000000" x2="32.000000" y2="62.000000"  transform="rotate(0.000000,32.000000,62.000000)" style="stroke: black; stroke-width:0.25;"/>
<line x1="29.000000" y1="63.000000" x2="32.000000" y2="62.000000"  transform="rotate(0.000000,32.000000,62.000000)" style="stroke: black; stroke-width:0.25;"/>
<a xlink:href="saw1l-0x7f9dc0d72af0.svg">
<rect x="66.800000" y="51.000000" width="25.800000" height="24.000000" rx="0" ry="0" style="stroke:none;fill:#cccccc;"/>
<rect x="65.800000" y="50.000000" width="25.800000" height="24.000000" rx="0" ry="0" style="stroke:none;fill:#003366;"/>
</a>
<a xlink:href="saw1l-0x7f9dc0d72af0.svg">
<text x="78.700000" y="64.000000" font-family="Arial" font-size="7" text-anchor="middle" fill="#FFFFFF">saw1l</text>
</a>
<circle cx="67.800000" cy="52.000000" r="1"/>
<rect x="110.600000" y="51.000000" width="24.000000" height="24.000000" rx="0" ry="0" style="stroke:none;fill:#cccccc;"/>
<rect x="109.600000" y="50.000000" width="24.000000" height="24.000000" rx="0" ry="0" style="stroke:none;fill:#47945E;"/>
<text x="121.600000" y="64.000000" font-family="Arial" font-size="7" text-anchor="middle" fill="#FFFFFF">PM9</text>
<circle cx="111.600000" cy="52.000000" r="1"/>
<line x1="106.600000" y1="61.000000" x2="109.600000" y2="62.000000"  transform="rotate(0.000000,109.600000,62.000000)" style="stroke: black; stroke-width:0.25;"/>
<line x1="106.600000" y1="63.000000" x2="109.600000" y2="62.000000"  transform="rotate(0.000000,109.600000,62.000000)" style="stroke: black; stroke-width:0.25;"/>
<rect x="142.600000" y="35.000000" width="24.000000" height="24.000000" rx="0" ry="0" style="stroke:none;fill:#cccccc;"/>
<rect x="141.600000" y="34.000000" width="24.000000" height="24.000000" rx="0" ry="0" style="stroke:none;fill:#47945E;"/>
<text x="153.600000" y="48.000000" font-family="Arial" font-size="7" text-anchor="middle" fill="#FFFFFF">PM9</text>
<circle cx="143.600000" cy="36.000000" r="1"/>
<rect x="142.600000" y="67.000000" width="24.000000" height="24.000000" rx="0" ry="0" style="stroke:none;fill:#cccccc;"/>
<rect x="141.600000" y="66.000000" width="24.000000" height="24.000000" rx="0" ry="0" style="stroke:none;fill:#47945E;"/>
<text x="153.600000" y="80.000000" font-family="Arial" font-size="7" text-anchor="middle" fill="#FFFFFF">PM9</text>
<circle cx="143.600000" cy="68.000000" r="1"/>
<rect x="182.600000" y="51.000000" width="24.000000" height="24.000000" rx="0" ry="0" style="stroke:none;fill:#cccccc;"/>
<rect x="181.600000" y="50.000000" width="24.000000" height="24.000000" rx="0" ry="0" style="stroke:none;fill:#4B71A1;"/>
<text x="193.600000" y="64.000000" font-family="Arial" font-size="7" text-anchor="middle" fill="#FFFFFF">*</text>
<circle cx="183.600000" cy="52.000000" r="1"/>
<line x1="178.600000" y1="57.000000" x2="181.600000" y2="58.000000"  transform="rotate(0.000000,181.600000,58.000000)" style="stroke: black; stroke-width:0.25;"/>
<line x1="178.600000" y1="59.000000" x2="181.600000" y2="58.000000"  transform="rotate(0.000000,181.600000,58.000000)" style="stroke: black; stroke-width:0.25;"/>
<line x1="178.600000" y1="65.000000" x2="181.600000" y2="66.000000"  transform="rotate(0.000000,181.600000,66.000000)" style="stroke: black; stroke-width:0.25;"/>
<line x1="178.600000" y1="67.000000" x2="181.600000" y2="66.000000"  transform="rotate(0.000000,181.600000,66.000000)" style="stroke: black; stroke-width:0.25;"/>
<line x1="100.600000" y1="25.000000" x2="100.600000" y2="99.000000"  style="stroke: black; stroke-linecap:round; stroke-width:0.25; stroke-dasharray:3,3;"/>
<line x1="100.600000" y1="99.000000" x2="214.600000" y2="99.000000"  style="stroke: black; stroke-linecap:round; stroke-width:0.25; stroke-dasharray:3,3;"/>
<line x1="214.600000" y1="99.000000" x2="214.600000" y2="25.000000"  style="stroke: black; stroke-linecap:round; stroke-width:0.25; stroke-dasharray:3,3;"/>
<line x1="100.600000" y1="25.000000" x2="105.600000" y2="25.000000"  style="stroke: black; stroke-linecap:round; stroke-width:0.25; stroke-dasharray:3,3;"/>
<line x1="147.525000" y1="25.000000" x2="214.600000" y2="25.000000"  style="stroke: black; stroke-linecap:round; stroke-width:0.25; stroke-dasharray:3,3;"/>
<text x="105.600000" y="27.000000" font-family="Arial" font-size="7">Abstraction</text>
<a xlink:href="diff-0x7f9dc0d76770.svg">
<rect x="235.250000" y="25.000000" width="38.700000" height="24.000000" rx="0" ry="0" style="stroke:none;fill:#cccccc;"/>
<rect x="234.250000" y="24.000000" width="38.700000" height="24.000000" rx="0" ry="0" style="stroke:none;fill:#003366;"/>
</a>
<a xlink:href="diff-0x7f9dc0d76770.svg">
<text x="253.600000" y="38.000000" font-family="Arial" font-size="7" text-anchor="middle" fill="#FFFFFF">diff(1)</text>
</a>
<circle cx="236.250000" cy="26.000000" r="1"/>
<line x1="231.250000" y1="35.000000" x2="234.250000" y2="36.000000"  transform="rotate(0.000000,234.250000,36.000000)" style="stroke: black; stroke-width:0.25;"/>
<line x1="231.250000" y1="37.000000" x2="234.250000" y2="36.000000"  transform="rotate(0.000000,234.250000,36.000000)" style="stroke: black; stroke-width:0.25;"/>
<rect x="242.600000" y="67.000000" width="24.000000" height="24.000000" rx="0" ry="0" style="stroke:none;fill:#cccccc;"/>
<rect x="241.600000" y="66.000000" width="24.000000" height="24.000000" rx="0" ry="0" style="stroke:none;fill:#f44800;"/>
<text x="253.600000" y="80.000000" font-family="Arial" font-size="7" text-anchor="middle" fill="#FFFFFF">2</text>
<circle cx="243.600000" cy="68.000000" r="1"/>
<line x1="232.600000" y1="57.000000" x2="232.600000" y2="99.000000"  style="stroke: black; stroke-linecap:round; stroke-width:0.25; stroke-dasharray:3,3;"/>
<line x1="232.600000" y1="99.000000" x2="274.600000" y2="99.000000"  style="stroke: black; stroke-linecap:round; stroke-width:0.25; stroke-dasharray:3,3;"/>
<line x1="274.600000" y1="99.000000" x2="274.600000" y2="57.000000"  style="stroke: black; stroke-linecap:round; stroke-width:0.25; stroke-dasharray:3,3;"/>
<line x1="232.600000" y1="57.000000" x2="237.600000" y2="57.000000"  style="stroke: black; stroke-linecap:round; stroke-width:0.25; stroke-dasharray:3,3;"/>
<line x1="247.275000" y1="57.000000" x2="274.600000" y2="57.000000"  style="stroke: black; stroke-linecap:round; stroke-width:0.25; stroke-dasharray:3,3;"/>
<text x="237.600000" y="59.000000" font-family="Arial" font-size="7">M</text>
<rect x="292.600000" y="51.000000" width="24.000000" height="24.000000" rx="0" ry="0" style="stroke:none;fill:#cccccc;"/>
<rect x="291.600000" y="50.000000" width="24.000000" height="24.000000" rx="0" ry="0" style="stroke:none;fill:#4B71A1;"/>
<text x="303.600000" y="64.000000" font-family="Arial" font-size="7" text-anchor="middle" fill="#FFFFFF">/</text>
<circle cx="293.600000" cy="52.000000" r="1"/>
<line x1="288.600000" y1="57.000000" x2="291.600000" y2="58.000000"  transform="rotate(0.000000,291.600000,58.000000)" style="stroke: black; stroke-width:0.25;"/>
<line x1="288.600000" y1="59.000000" x2="291.600000" y2="58.000000"  transform="rotate(0.000000,291.600000,58.000000)" style="stroke: black; stroke-width:0.25;"/>
<line x1="288.600000" y1="65.000000" x2="291.600000" y2="66.000000"  transform="rotate(0.000000,291.600000,66.000000)" style="stroke: black; stroke-width:0.25;"/>
<line x1="288.600000" y1="67.000000" x2="291.600000" y2="66.000000"  transform="rotate(0.000000,291.600000,66.000000)" style="stroke: black; stroke-width:0.25;"/>
<a xlink:href="gate-0x7f9dc0d72110.svg">
<rect x="324.600000" y="51.000000" width="38.700000" height="24.000000" rx="0" ry="0" style="stroke:none;fill:#cccccc;"/>
<rect x="323.600000" y="50.000000" width="38.700000" height="24.000000" rx="0" ry="0" style="stroke:none;fill:#003366;"/>
</a>
<a xlink:href="gate-0x7f9dc0d72110.svg">
<text x="342.950000" y="64.000000" font-family="Arial" font-size="7" text-anchor="middle" fill="#FFFFFF">gate(1)</text>
</a>
<circle cx="325.600000" cy="52.000000" r="1"/>
<line x1="320.600000" y1="61.000000" x2="323.600000" y2="62.000000"  transform="rotate(0.000000,323.600000,62.000000)" style="stroke: black; stroke-width:0.25;"/>
<line x1="320.600000" y1="63.000000" x2="323.600000" y2="62.000000"  transform="rotate(0.000000,323.600000,62.000000)" style="stroke: black; stroke-width:0.25;"/>
<line x1="15.000000" y1="15.000000" x2="15.000000" y2="109.000000"  style="stroke: black; stroke-linecap:round; stroke-width:0.25; stroke-dasharray:3,3;"/>
<line x1="15.000000" y1="109.000000" x2="379.300000" y2="109.000000"  style="stroke: black; stroke-linecap:round; stroke-width:0.25; stroke-dasharray:3,3;"/>
<line x1="379.300000" y1="109.000000" x2="379.300000" y2="15.000000"  style="stroke: black; stroke-linecap:round; stroke-width:0.25; stroke-dasharray:3,3;"/>
<line x1="15.000000" y1="15.000000" x2="20.000000" y2="15.000000"  style="stroke: black; stroke-linecap:round; stroke-width:0.25; stroke-dasharray:3,3;"/>
<line x1="49.025000" y1="15.000000" x2="379.300000" y2="15.000000"  style="stroke: black; stroke-linecap:round; stroke-width:0.25; stroke-dasharray:3,3;"/>
<text x="20.000000" y="17.000000" font-family="Arial" font-size="7">sawN(2)</text>
<line x1="381.300000" y1="61.000000" x2="384.300000" y2="62.000000"  transform="rotate(0.000000,384.300000,62.000000)" style="stroke: black; stroke-width:0.25;"/>
<line x1="381.300000" y1="63.000000" x2="384.300000" y2="62.000000"  transform="rotate(0.000000,384.300000,62.000000)" style="stroke: black; stroke-width:0.25;"/>
<line x1="10.000000" y1="62.000000" x2="20.000000" y2="62.000000"  style="stroke:black; stroke-linecap:round; stroke-width:0.25;"/>
<line x1="20.000000" y1="62.000000" x2="24.000000" y2="62.000000"  style="stroke:black; stroke-linecap:round; stroke-width:0.25;"/>
<line x1="24.000000" y1="62.000000" x2="28.000000" y2="62.000000"  style="stroke:black; stroke-linecap:round; stroke-width:0.25;"/>
<line x1="28.000000" y1="62.000000" x2="28.000000" y2="62.000000"  style="stroke:black; stroke-linecap:round; stroke-width:0.25;"/>
<line x1="28.000000" y1="62.000000" x2="32.000000" y2="62.000000"  style="stroke:black; stroke-linecap:round; stroke-width:0.25;"/>
<line x1="91.600000" y1="62.000000" x2="95.600000" y2="62.000000"  style="stroke:black; stroke-linecap:round; stroke-width:0.25;"/>
<line x1="95.600000" y1="62.000000" x2="95.600000" y2="62.000000"  style="stroke:black; stroke-linecap:round; stroke-width:0.25;"/>
<line x1="95.600000" y1="62.000000" x2="105.600000" y2="62.000000"  style="stroke:black; stroke-linecap:round; stroke-width:0.25;"/>
<line x1="105.600000" y1="62.000000" x2="109.600000" y2="62.000000"  style="stroke:black; stroke-linecap:round; stroke-width:0.25;"/>
<line x1="165.600000" y1="46.000000" x2="169.600000" y2="46.000000"  style="stroke:black; stroke-linecap:round; stroke-width:0.25;"/>
<line x1="165.600000" y1="78.000000" x2="169.600000" y2="78.000000"  style="stroke:black; stroke-linecap:round; stroke-width:0.25;"/>
<line x1="169.600000" y1="46.000000" x2="177.600000" y2="46.000000"  style="stroke:black; stroke-linecap:round; stroke-width:0.25;"/>
<line x1="169.600000" y1="66.000000" x2="177.600000" y2="66.000000"  style="stroke:black; stroke-linecap:round; stroke-width:0.25;"/>
<line x1="169.600000" y1="78.000000" x2="169.600000" y2="66.000000"  style="stroke:black; stroke-linecap:round; stroke-width:0.25;"/>
<line x1="169.600000" y1="78.000000" x2="169.600000" y2="78.000000"  style="stroke:black; stroke-linecap:round; stroke-width:0.25;"/>
<line x1="177.600000" y1="46.000000" x2="177.600000" y2="58.000000"  style="stroke:black; stroke-linecap:round; stroke-width:0.25;"/>
<line x1="177.600000" y1="58.000000" x2="177.600000" y2="58.000000"  style="stroke:black; stroke-linecap:round; stroke-width:0.25;"/>
<line x1="177.600000" y1="58.000000" x2="181.600000" y2="58.000000"  style="stroke:black; stroke-linecap:round; stroke-width:0.25;"/>
<line x1="177.600000" y1="66.000000" x2="181.600000" y2="66.000000"  style="stroke:black; stroke-linecap:round; stroke-width:0.25;"/>
<line x1="205.600000" y1="62.000000" x2="209.600000" y2="62.000000"  style="stroke:black; stroke-linecap:round; stroke-width:0.25;"/>
<line x1="209.600000" y1="62.000000" x2="219.600000" y2="62.000000"  style="stroke:black; stroke-linecap:round; stroke-width:0.25;"/>
<line x1="219.600000" y1="36.000000" x2="227.600000" y2="36.000000"  style="stroke:black; stroke-linecap:round; stroke-width:0.25;"/>
<line x1="219.600000" y1="62.000000" x2="219.600000" y2="36.000000"  style="stroke:black; stroke-linecap:round; stroke-width:0.25;"/>
<line x1="219.600000" y1="62.000000" x2="219.600000" y2="62.000000"  style="stroke:black; stroke-linecap:round; stroke-width:0.25;"/>
<line x1="227.600000" y1="36.000000" x2="230.250000" y2="36.000000"  style="stroke:black; stroke-linecap:round; stroke-width:0.25;"/>
<line x1="230.250000" y1="36.000000" x2="234.250000" y2="36.000000"  style="stroke:black; stroke-linecap:round; stroke-width:0.25;"/>
<line x1="265.600000" y1="78.000000" x2="269.600000" y2="78.000000"  style="stroke:black; stroke-linecap:round; stroke-width:0.25;"/>
<line x1="269.600000" y1="78.000000" x2="279.600000" y2="78.000000"  style="stroke:black; stroke-linecap:round; stroke-width:0.25;"/>
<line x1="272.950000" y1="36.000000" x2="276.950000" y2="36.000000"  style="stroke:black; stroke-linecap:round; stroke-width:0.25;"/>
<line x1="276.950000" y1="36.000000" x2="279.600000" y2="36.000000"  style="stroke:black; stroke-linecap:round; stroke-width:0.25;"/>
<line x1="279.600000" y1="36.000000" x2="287.600000" y2="36.000000"  style="stroke:black; stroke-linecap:round; stroke-width:0.25;"/>
<line x1="279.600000" y1="66.000000" x2="287.600000" y2="66.000000"  style="stroke:black; stroke-linecap:round; stroke-width:0.25;"/>
<line x1="279.600000" y1="78.000000" x2="279.600000" y2="66.000000"  style="stroke:black; stroke-linecap:round; stroke-width:0.25;"/>
<line x1="279.600000" y1="78.000000" x2="279.600000" y2="78.000000"  style="stroke:black; stroke-linecap:round; stroke-width:0.25;"/>
<line x1="287.600000" y1="36.000000" x2="287.600000" y2="58.000000"  style="stroke:black; stroke-linecap:round; stroke-width:0.25;"/>
<line x1="287.600000" y1="58.000000" x2="287.600000" y2="58.000000"  style="stroke:black; stroke-linecap:round; stroke-width:0.25;"/>
<line x1="287.600000" y1="58.000000" x2="291.600000" y2="58.000000"  style="stroke:black; stroke-linecap:round; stroke-width:0.25;"/>
<line x1="287.600000" y1="66.000000" x2="291.600000" y2="66.000000"  style="stroke:black; stroke-linecap:round; stroke-width:0.25;"/>
<line x1="315.600000" y1="62.000000" x2="319.600000" y2="62.000000"  style="stroke:black; stroke-linecap:round; stroke-width:0.25;"/>
<line x1="319.600000" y1="62.000000" x2="319.600000" y2="62.000000"  style="stroke:black; stroke-linecap:round; stroke-width:0.25;"/>
<line x1="319.600000" y1="62.000000" x2="323.600000" y2="62.000000"  style="stroke:black; stroke-linecap:round; stroke-width:0.25;"/>
<line x1="362.300000" y1="62.000000" x2="366.300000" y2="62.000000"  style="stroke:black; stroke-linecap:round; stroke-width:0.25;"/>
<line x1="366.300000" y1="62.000000" x2="366.300000" y2="62.000000"  style="stroke:black; stroke-linecap:round; stroke-width:0.25;"/>
<line x1="366.300000" y1="62.000000" x2="370.300000" y2="62.000000"  style="stroke:black; stroke-linecap:round; stroke-width:0.25;"/>
<line x1="370.300000" y1="62.000000" x2="374.300000" y2="62.000000"  style="stroke:black; stroke-linecap:round; stroke-width:0.25;"/>
<line x1="374.300000" y1="62.000000" x2="384.300000" y2="62.000000"  style="stroke:black; stroke-linecap:round; stroke-width:0.25;"/>
</svg>
