<?xml version="1.0"?>
<svg xmlns="http://www.w3.org/2000/svg" xmlns:xlink="http://www.w3.org/1999/xlink" viewBox="0 0 429.600000 104.000000" width="214.800000mm" height="52.000000mm" version="1.1">
<a xlink:href="filter-0x7fe775b666b0.svg">
<rect x="1.000000" y="1.000000" width="428.600000" height="103.000000" rx="0" ry="0" style="stroke:none;fill:#cccccc;"/>
<rect x="0.000000" y="0.000000" width="428.600000" height="103.000000" rx="0" ry="0" style="stroke:none;fill:#ffffff;"/>
</a>
<text x="10.000000" y="7.000000" font-family="Arial" font-size="7"></text>
<a xlink:href="gM-0x7fe775600770.svg">
<rect x="106.400000" y="25.000000" width="24.000000" height="24.000000" rx="0" ry="0" style="stroke:none;fill:#cccccc;"/>
<rect x="105.400000" y="24.000000" width="24.000000" height="24.000000" rx="0" ry="0" style="stroke:none;fill:#003366;"/>
</a>
<a xlink:href="gM-0x7fe775600770.svg">
<text x="117.400000" y="38.000000" font-family="Arial" font-size="7" text-anchor="middle" fill="#FFFFFF">gM</text>
</a>
<circle cx="107.400000" cy="26.000000" r="1"/>
<a xlink:href="low-0x7fe775b65f10.svg">
<rect x="41.000000" y="57.000000" width="154.800000" height="24.000000" rx="0" ry="0" style="stroke:none;fill:#cccccc;"/>
<rect x="40.000000" y="56.000000" width="154.800000" height="24.000000" rx="0" ry="0" style="stroke:none;fill:#003366;"/>
</a>
<a xlink:href="low-0x7fe775b65f10.svg">
<text x="117.400000" y="70.000000" font-family="Arial" font-size="7" text-anchor="middle" fill="#FFFFFF">low_shelf1_l(.../ : exp) : /)(200)</text>
</a>
<circle cx="42.000000" cy="58.000000" r="1"/>
<line x1="37.000000" y1="67.000000" x2="40.000000" y2="68.000000"  transform="rotate(0.000000,40.000000,68.000000)" style="stroke: black; stroke-width:0.25;"/>
<line x1="37.000000" y1="69.000000" x2="40.000000" y2="68.000000"  transform="rotate(0.000000,40.000000,68.000000)" style="stroke: black; stroke-width:0.25;"/>
<rect x="211.800000" y="41.000000" width="24.000000" height="24.000000" rx="0" ry="0" style="stroke:none;fill:#cccccc;"/>
<rect x="210.800000" y="40.000000" width="24.000000" height="24.000000" rx="0" ry="0" style="stroke:none;fill:#4B71A1;"/>
<text x="222.800000" y="54.000000" font-family="Arial" font-size="7" text-anchor="middle" fill="#FFFFFF">*</text>
<circle cx="212.800000" cy="42.000000" r="1"/>
<line x1="207.800000" y1="47.000000" x2="210.800000" y2="48.000000"  transform="rotate(0.000000,210.800000,48.000000)" style="stroke: black; stroke-width:0.25;"/>
<line x1="207.800000" y1="49.000000" x2="210.800000" y2="48.000000"  transform="rotate(0.000000,210.800000,48.000000)" style="stroke: black; stroke-width:0.25;"/>
<line x1="207.800000" y1="55.000000" x2="210.800000" y2="56.000000"  transform="rotate(0.000000,210.800000,56.000000)" style="stroke: black; stroke-width:0.25;"/>
<line x1="207.800000" y1="57.000000" x2="210.800000" y2="56.000000"  transform="rotate(0.000000,210.800000,56.000000)" style="stroke: black; stroke-width:0.25;"/>
<a xlink:href="special-0x7fe775813e20.svg">
<rect x="243.800000" y="41.000000" width="154.800000" height="24.000000" rx="0" ry="0" style="stroke:none;fill:#cccccc;"/>
<rect x="242.800000" y="40.000000" width="154.800000" height="24.000000" rx="0" ry="0" style="stroke:none;fill:#003366;"/>
</a>
<a xlink:href="special-0x7fe775813e20.svg">
<text x="320.200000" y="54.000000" font-family="Arial" font-size="7" text-anchor="middle" fill="#FFFFFF">special_lowpa...*) : / : exp)(6000)</text>
</a>
<circle cx="244.800000" cy="42.000000" r="1"/>
<line x1="239.800000" y1="51.000000" x2="242.800000" y2="52.000000"  transform="rotate(0.000000,242.800000,52.000000)" style="stroke: black; stroke-width:0.25;"/>
<line x1="239.800000" y1="53.000000" x2="242.800000" y2="52.000000"  transform="rotate(0.000000,242.800000,52.000000)" style="stroke: black; stroke-width:0.25;"/>
<line x1="15.000000" y1="15.000000" x2="15.000000" y2="89.000000"  style="stroke: black; stroke-linecap:round; stroke-width:0.25; stroke-dasharray:3,3;"/>
<line x1="15.000000" y1="89.000000" x2="414.600000" y2="89.000000"  style="stroke: black; stroke-linecap:round; stroke-width:0.25; stroke-dasharray:3,3;"/>
<line x1="414.600000" y1="89.000000" x2="414.600000" y2="15.000000"  style="stroke: black; stroke-linecap:round; stroke-width:0.25; stroke-dasharray:3,3;"/>
<line x1="15.000000" y1="15.000000" x2="20.000000" y2="15.000000"  style="stroke: black; stroke-linecap:round; stroke-width:0.25; stroke-dasharray:3,3;"/>
<line x1="87.725000" y1="15.000000" x2="414.600000" y2="15.000000"  style="stroke: black; stroke-linecap:round; stroke-width:0.25; stroke-dasharray:3,3;"/>
<text x="20.000000" y="17.000000" font-family="Arial" font-size="7">lowshelf_lowpass(6)</text>
<line x1="416.600000" y1="51.000000" x2="419.600000" y2="52.000000"  transform="rotate(0.000000,419.600000,52.000000)" style="stroke: black; stroke-width:0.25;"/>
<line x1="416.600000" y1="53.000000" x2="419.600000" y2="52.000000"  transform="rotate(0.000000,419.600000,52.000000)" style="stroke: black; stroke-width:0.25;"/>
<line x1="10.000000" y1="52.000000" x2="20.000000" y2="52.000000"  style="stroke:black; stroke-linecap:round; stroke-width:0.25;"/>
<line x1="20.000000" y1="52.000000" x2="24.000000" y2="52.000000"  style="stroke:black; stroke-linecap:round; stroke-width:0.25;"/>
<line x1="24.000000" y1="52.000000" x2="28.000000" y2="52.000000"  style="stroke:black; stroke-linecap:round; stroke-width:0.25;"/>
<line x1="28.000000" y1="52.000000" x2="36.000000" y2="52.000000"  style="stroke:black; stroke-linecap:round; stroke-width:0.25;"/>
<line x1="36.000000" y1="52.000000" x2="36.000000" y2="68.000000"  style="stroke:black; stroke-linecap:round; stroke-width:0.25;"/>
<line x1="36.000000" y1="68.000000" x2="36.000000" y2="68.000000"  style="stroke:black; stroke-linecap:round; stroke-width:0.25;"/>
<line x1="36.000000" y1="68.000000" x2="40.000000" y2="68.000000"  style="stroke:black; stroke-linecap:round; stroke-width:0.25;"/>
<line x1="129.400000" y1="36.000000" x2="133.400000" y2="36.000000"  style="stroke:black; stroke-linecap:round; stroke-width:0.25;"/>
<line x1="133.400000" y1="36.000000" x2="198.800000" y2="36.000000"  style="stroke:black; stroke-linecap:round; stroke-width:0.25;"/>
<line x1="194.800000" y1="68.000000" x2="198.800000" y2="68.000000"  style="stroke:black; stroke-linecap:round; stroke-width:0.25;"/>
<line x1="198.800000" y1="36.000000" x2="206.800000" y2="36.000000"  style="stroke:black; stroke-linecap:round; stroke-width:0.25;"/>
<line x1="198.800000" y1="56.000000" x2="206.800000" y2="56.000000"  style="stroke:black; stroke-linecap:round; stroke-width:0.25;"/>
<line x1="198.800000" y1="68.000000" x2="198.800000" y2="56.000000"  style="stroke:black; stroke-linecap:round; stroke-width:0.25;"/>
<line x1="198.800000" y1="68.000000" x2="198.800000" y2="68.000000"  style="stroke:black; stroke-linecap:round; stroke-width:0.25;"/>
<line x1="206.800000" y1="36.000000" x2="206.800000" y2="48.000000"  style="stroke:black; stroke-linecap:round; stroke-width:0.25;"/>
<line x1="206.800000" y1="48.000000" x2="206.800000" y2="48.000000"  style="stroke:black; stroke-linecap:round; stroke-width:0.25;"/>
<line x1="206.800000" y1="48.000000" x2="210.800000" y2="48.000000"  style="stroke:black; stroke-linecap:round; stroke-width:0.25;"/>
<line x1="206.800000" y1="56.000000" x2="210.800000" y2="56.000000"  style="stroke:black; stroke-linecap:round; stroke-width:0.25;"/>
<line x1="234.800000" y1="52.000000" x2="238.800000" y2="52.000000"  style="stroke:black; stroke-linecap:round; stroke-width:0.25;"/>
<line x1="238.800000" y1="52.000000" x2="238.800000" y2="52.000000"  style="stroke:black; stroke-linecap:round; stroke-width:0.25;"/>
<line x1="238.800000" y1="52.000000" x2="242.800000" y2="52.000000"  style="stroke:black; stroke-linecap:round; stroke-width:0.25;"/>
<line x1="397.600000" y1="52.000000" x2="401.600000" y2="52.000000"  style="stroke:black; stroke-linecap:round; stroke-width:0.25;"/>
<line x1="401.600000" y1="52.000000" x2="401.600000" y2="52.000000"  style="stroke:black; stroke-linecap:round; stroke-width:0.25;"/>
<line x1="401.600000" y1="52.000000" x2="405.600000" y2="52.000000"  style="stroke:black; stroke-linecap:round; stroke-width:0.25;"/>
<line x1="405.600000" y1="52.000000" x2="409.600000" y2="52.000000"  style="stroke:black; stroke-linecap:round; stroke-width:0.25;"/>
<line x1="409.600000" y1="52.000000" x2="419.600000" y2="52.000000"  style="stroke:black; stroke-linecap:round; stroke-width:0.25;"/>
</svg>
