<?xml version="1.0"?>
<svg xmlns="http://www.w3.org/2000/svg" xmlns:xlink="http://www.w3.org/1999/xlink" viewBox="0 0 267.600000 200.000000" width="133.800000mm" height="100.000000mm" version="1.1">
<a xlink:href="tf2s-0x7f8c787cd280.svg">
<rect x="1.000000" y="1.000000" width="266.600000" height="199.000000" rx="0" ry="0" style="stroke:none;fill:#cccccc;"/>
<rect x="0.000000" y="0.000000" width="266.600000" height="199.000000" rx="0" ry="0" style="stroke:none;fill:#ffffff;"/>
</a>
<text x="10.000000" y="7.000000" font-family="Arial" font-size="7"></text>
<rect x="78.800000" y="25.000000" width="24.000000" height="24.000000" rx="0" ry="0" style="stroke:none;fill:#cccccc;"/>
<rect x="77.800000" y="24.000000" width="24.000000" height="24.000000" rx="0" ry="0" style="stroke:none;fill:#f44800;"/>
<text x="89.800000" y="38.000000" font-family="Arial" font-size="7" text-anchor="middle" fill="#FFFFFF">2</text>
<circle cx="79.800000" cy="26.000000" r="1"/>
<rect x="45.000000" y="57.000000" width="51.600000" height="24.000000" rx="0" ry="0" style="stroke:none;fill:#cccccc;"/>
<rect x="44.000000" y="56.000000" width="51.600000" height="24.000000" rx="0" ry="0" style="stroke:none;fill:#f44800;"/>
<text x="69.800000" y="70.000000" font-family="Arial" font-size="7" text-anchor="middle" fill="#FFFFFF">0.000407678</text>
<circle cx="46.000000" cy="58.000000" r="1"/>
<rect x="25.000000" y="89.000000" width="51.600000" height="24.000000" rx="0" ry="0" style="stroke:none;fill:#cccccc;"/>
<rect x="24.000000" y="88.000000" width="51.600000" height="24.000000" rx="0" ry="0" style="stroke:none;fill:#f44800;"/>
<text x="49.800000" y="102.000000" font-family="Arial" font-size="7" text-anchor="middle" fill="#FFFFFF">0.00176617</text>
<circle cx="26.000000" cy="90.000000" r="1"/>
<a xlink:href="csq-0x7f8c78692fc0.svg">
<rect x="38.800000" y="121.000000" width="24.000000" height="24.000000" rx="0" ry="0" style="stroke:none;fill:#cccccc;"/>
<rect x="37.800000" y="120.000000" width="24.000000" height="24.000000" rx="0" ry="0" style="stroke:none;fill:#003366;"/>
</a>
<a xlink:href="csq-0x7f8c78692fc0.svg">
<text x="49.800000" y="134.000000" font-family="Arial" font-size="7" text-anchor="middle" fill="#FFFFFF">csq</text>
</a>
<circle cx="39.800000" cy="122.000000" r="1"/>
<rect x="92.600000" y="105.000000" width="24.000000" height="24.000000" rx="0" ry="0" style="stroke:none;fill:#cccccc;"/>
<rect x="91.600000" y="104.000000" width="24.000000" height="24.000000" rx="0" ry="0" style="stroke:none;fill:#4B71A1;"/>
<text x="103.600000" y="118.000000" font-family="Arial" font-size="7" text-anchor="middle" fill="#FFFFFF">*</text>
<circle cx="93.600000" cy="106.000000" r="1"/>
<line x1="88.600000" y1="111.000000" x2="91.600000" y2="112.000000"  transform="rotate(0.000000,91.600000,112.000000)" style="stroke: black; stroke-width:0.25;"/>
<line x1="88.600000" y1="113.000000" x2="91.600000" y2="112.000000"  transform="rotate(0.000000,91.600000,112.000000)" style="stroke: black; stroke-width:0.25;"/>
<line x1="88.600000" y1="119.000000" x2="91.600000" y2="120.000000"  transform="rotate(0.000000,91.600000,120.000000)" style="stroke: black; stroke-width:0.25;"/>
<line x1="88.600000" y1="121.000000" x2="91.600000" y2="120.000000"  transform="rotate(0.000000,91.600000,120.000000)" style="stroke: black; stroke-width:0.25;"/>
<rect x="132.600000" y="89.000000" width="24.000000" height="24.000000" rx="0" ry="0" style="stroke:none;fill:#cccccc;"/>
<rect x="131.600000" y="88.000000" width="24.000000" height="24.000000" rx="0" ry="0" style="stroke:none;fill:#4B71A1;"/>
<text x="143.600000" y="102.000000" font-family="Arial" font-size="7" text-anchor="middle" fill="#FFFFFF">-</text>
<circle cx="133.600000" cy="90.000000" r="1"/>
<line x1="128.600000" y1="95.000000" x2="131.600000" y2="96.000000"  transform="rotate(0.000000,131.600000,96.000000)" style="stroke: black; stroke-width:0.25;"/>
<line x1="128.600000" y1="97.000000" x2="131.600000" y2="96.000000"  transform="rotate(0.000000,131.600000,96.000000)" style="stroke: black; stroke-width:0.25;"/>
<line x1="128.600000" y1="103.000000" x2="131.600000" y2="104.000000"  transform="rotate(0.000000,131.600000,104.000000)" style="stroke: black; stroke-width:0.25;"/>
<line x1="128.600000" y1="105.000000" x2="131.600000" y2="104.000000"  transform="rotate(0.000000,131.600000,104.000000)" style="stroke: black; stroke-width:0.25;"/>
<rect x="172.600000" y="73.000000" width="24.000000" height="24.000000" rx="0" ry="0" style="stroke:none;fill:#cccccc;"/>
<rect x="171.600000" y="72.000000" width="24.000000" height="24.000000" rx="0" ry="0" style="stroke:none;fill:#4B71A1;"/>
<text x="183.600000" y="86.000000" font-family="Arial" font-size="7" text-anchor="middle" fill="#FFFFFF">*</text>
<circle cx="173.600000" cy="74.000000" r="1"/>
<line x1="168.600000" y1="79.000000" x2="171.600000" y2="80.000000"  transform="rotate(0.000000,171.600000,80.000000)" style="stroke: black; stroke-width:0.25;"/>
<line x1="168.600000" y1="81.000000" x2="171.600000" y2="80.000000"  transform="rotate(0.000000,171.600000,80.000000)" style="stroke: black; stroke-width:0.25;"/>
<line x1="168.600000" y1="87.000000" x2="171.600000" y2="88.000000"  transform="rotate(0.000000,171.600000,88.000000)" style="stroke: black; stroke-width:0.25;"/>
<line x1="168.600000" y1="89.000000" x2="171.600000" y2="88.000000"  transform="rotate(0.000000,171.600000,88.000000)" style="stroke: black; stroke-width:0.25;"/>
<a xlink:href="d-0x7f8c786941f0.svg">
<rect x="98.800000" y="153.000000" width="24.000000" height="24.000000" rx="0" ry="0" style="stroke:none;fill:#cccccc;"/>
<rect x="97.800000" y="152.000000" width="24.000000" height="24.000000" rx="0" ry="0" style="stroke:none;fill:#003366;"/>
</a>
<a xlink:href="d-0x7f8c786941f0.svg">
<text x="109.800000" y="166.000000" font-family="Arial" font-size="7" text-anchor="middle" fill="#FFFFFF">d</text>
</a>
<circle cx="99.800000" cy="154.000000" r="1"/>
<rect x="212.600000" y="89.000000" width="24.000000" height="24.000000" rx="0" ry="0" style="stroke:none;fill:#cccccc;"/>
<rect x="211.600000" y="88.000000" width="24.000000" height="24.000000" rx="0" ry="0" style="stroke:none;fill:#4B71A1;"/>
<text x="223.600000" y="102.000000" font-family="Arial" font-size="7" text-anchor="middle" fill="#FFFFFF">/</text>
<circle cx="213.600000" cy="90.000000" r="1"/>
<line x1="208.600000" y1="95.000000" x2="211.600000" y2="96.000000"  transform="rotate(0.000000,211.600000,96.000000)" style="stroke: black; stroke-width:0.25;"/>
<line x1="208.600000" y1="97.000000" x2="211.600000" y2="96.000000"  transform="rotate(0.000000,211.600000,96.000000)" style="stroke: black; stroke-width:0.25;"/>
<line x1="208.600000" y1="103.000000" x2="211.600000" y2="104.000000"  transform="rotate(0.000000,211.600000,104.000000)" style="stroke: black; stroke-width:0.25;"/>
<line x1="208.600000" y1="105.000000" x2="211.600000" y2="104.000000"  transform="rotate(0.000000,211.600000,104.000000)" style="stroke: black; stroke-width:0.25;"/>
<line x1="15.000000" y1="15.000000" x2="15.000000" y2="185.000000"  style="stroke: black; stroke-linecap:round; stroke-width:0.25; stroke-dasharray:3,3;"/>
<line x1="15.000000" y1="185.000000" x2="252.600000" y2="185.000000"  style="stroke: black; stroke-linecap:round; stroke-width:0.25; stroke-dasharray:3,3;"/>
<line x1="252.600000" y1="185.000000" x2="252.600000" y2="15.000000"  style="stroke: black; stroke-linecap:round; stroke-width:0.25; stroke-dasharray:3,3;"/>
<line x1="15.000000" y1="15.000000" x2="20.000000" y2="15.000000"  style="stroke: black; stroke-linecap:round; stroke-width:0.25; stroke-dasharray:3,3;"/>
<line x1="36.125000" y1="15.000000" x2="252.600000" y2="15.000000"  style="stroke: black; stroke-linecap:round; stroke-width:0.25; stroke-dasharray:3,3;"/>
<text x="20.000000" y="17.000000" font-family="Arial" font-size="7">b1d</text>
<line x1="254.600000" y1="99.000000" x2="257.600000" y2="100.000000"  transform="rotate(0.000000,257.600000,100.000000)" style="stroke: black; stroke-width:0.25;"/>
<line x1="254.600000" y1="101.000000" x2="257.600000" y2="100.000000"  transform="rotate(0.000000,257.600000,100.000000)" style="stroke: black; stroke-width:0.25;"/>
<line x1="61.800000" y1="132.000000" x2="65.800000" y2="132.000000"  style="stroke:black; stroke-linecap:round; stroke-width:0.25;"/>
<line x1="65.800000" y1="132.000000" x2="79.600000" y2="132.000000"  style="stroke:black; stroke-linecap:round; stroke-width:0.25;"/>
<line x1="75.600000" y1="100.000000" x2="79.600000" y2="100.000000"  style="stroke:black; stroke-linecap:round; stroke-width:0.25;"/>
<line x1="79.600000" y1="100.000000" x2="87.600000" y2="100.000000"  style="stroke:black; stroke-linecap:round; stroke-width:0.25;"/>
<line x1="79.600000" y1="120.000000" x2="87.600000" y2="120.000000"  style="stroke:black; stroke-linecap:round; stroke-width:0.25;"/>
<line x1="79.600000" y1="132.000000" x2="79.600000" y2="120.000000"  style="stroke:black; stroke-linecap:round; stroke-width:0.25;"/>
<line x1="79.600000" y1="132.000000" x2="79.600000" y2="132.000000"  style="stroke:black; stroke-linecap:round; stroke-width:0.25;"/>
<line x1="87.600000" y1="100.000000" x2="87.600000" y2="112.000000"  style="stroke:black; stroke-linecap:round; stroke-width:0.25;"/>
<line x1="87.600000" y1="112.000000" x2="87.600000" y2="112.000000"  style="stroke:black; stroke-linecap:round; stroke-width:0.25;"/>
<line x1="87.600000" y1="112.000000" x2="91.600000" y2="112.000000"  style="stroke:black; stroke-linecap:round; stroke-width:0.25;"/>
<line x1="87.600000" y1="120.000000" x2="91.600000" y2="120.000000"  style="stroke:black; stroke-linecap:round; stroke-width:0.25;"/>
<line x1="95.600000" y1="68.000000" x2="99.600000" y2="68.000000"  style="stroke:black; stroke-linecap:round; stroke-width:0.25;"/>
<line x1="99.600000" y1="68.000000" x2="119.600000" y2="68.000000"  style="stroke:black; stroke-linecap:round; stroke-width:0.25;"/>
<line x1="101.800000" y1="36.000000" x2="105.800000" y2="36.000000"  style="stroke:black; stroke-linecap:round; stroke-width:0.25;"/>
<line x1="105.800000" y1="36.000000" x2="159.600000" y2="36.000000"  style="stroke:black; stroke-linecap:round; stroke-width:0.25;"/>
<line x1="115.600000" y1="116.000000" x2="119.600000" y2="116.000000"  style="stroke:black; stroke-linecap:round; stroke-width:0.25;"/>
<line x1="119.600000" y1="68.000000" x2="127.600000" y2="68.000000"  style="stroke:black; stroke-linecap:round; stroke-width:0.25;"/>
<line x1="119.600000" y1="104.000000" x2="127.600000" y2="104.000000"  style="stroke:black; stroke-linecap:round; stroke-width:0.25;"/>
<line x1="119.600000" y1="116.000000" x2="119.600000" y2="104.000000"  style="stroke:black; stroke-linecap:round; stroke-width:0.25;"/>
<line x1="119.600000" y1="116.000000" x2="119.600000" y2="116.000000"  style="stroke:black; stroke-linecap:round; stroke-width:0.25;"/>
<line x1="121.800000" y1="164.000000" x2="125.800000" y2="164.000000"  style="stroke:black; stroke-linecap:round; stroke-width:0.25;"/>
<line x1="125.800000" y1="164.000000" x2="199.600000" y2="164.000000"  style="stroke:black; stroke-linecap:round; stroke-width:0.25;"/>
<line x1="127.600000" y1="68.000000" x2="127.600000" y2="96.000000"  style="stroke:black; stroke-linecap:round; stroke-width:0.25;"/>
<line x1="127.600000" y1="96.000000" x2="127.600000" y2="96.000000"  style="stroke:black; stroke-linecap:round; stroke-width:0.25;"/>
<line x1="127.600000" y1="96.000000" x2="131.600000" y2="96.000000"  style="stroke:black; stroke-linecap:round; stroke-width:0.25;"/>
<line x1="127.600000" y1="104.000000" x2="131.600000" y2="104.000000"  style="stroke:black; stroke-linecap:round; stroke-width:0.25;"/>
<line x1="155.600000" y1="100.000000" x2="159.600000" y2="100.000000"  style="stroke:black; stroke-linecap:round; stroke-width:0.25;"/>
<line x1="159.600000" y1="36.000000" x2="167.600000" y2="36.000000"  style="stroke:black; stroke-linecap:round; stroke-width:0.25;"/>
<line x1="159.600000" y1="88.000000" x2="167.600000" y2="88.000000"  style="stroke:black; stroke-linecap:round; stroke-width:0.25;"/>
<line x1="159.600000" y1="100.000000" x2="159.600000" y2="88.000000"  style="stroke:black; stroke-linecap:round; stroke-width:0.25;"/>
<line x1="159.600000" y1="100.000000" x2="159.600000" y2="100.000000"  style="stroke:black; stroke-linecap:round; stroke-width:0.25;"/>
<line x1="167.600000" y1="36.000000" x2="167.600000" y2="80.000000"  style="stroke:black; stroke-linecap:round; stroke-width:0.25;"/>
<line x1="167.600000" y1="80.000000" x2="167.600000" y2="80.000000"  style="stroke:black; stroke-linecap:round; stroke-width:0.25;"/>
<line x1="167.600000" y1="80.000000" x2="171.600000" y2="80.000000"  style="stroke:black; stroke-linecap:round; stroke-width:0.25;"/>
<line x1="167.600000" y1="88.000000" x2="171.600000" y2="88.000000"  style="stroke:black; stroke-linecap:round; stroke-width:0.25;"/>
<line x1="195.600000" y1="84.000000" x2="199.600000" y2="84.000000"  style="stroke:black; stroke-linecap:round; stroke-width:0.25;"/>
<line x1="199.600000" y1="84.000000" x2="207.600000" y2="84.000000"  style="stroke:black; stroke-linecap:round; stroke-width:0.25;"/>
<line x1="199.600000" y1="104.000000" x2="207.600000" y2="104.000000"  style="stroke:black; stroke-linecap:round; stroke-width:0.25;"/>
<line x1="199.600000" y1="164.000000" x2="199.600000" y2="104.000000"  style="stroke:black; stroke-linecap:round; stroke-width:0.25;"/>
<line x1="199.600000" y1="164.000000" x2="199.600000" y2="164.000000"  style="stroke:black; stroke-linecap:round; stroke-width:0.25;"/>
<line x1="207.600000" y1="84.000000" x2="207.600000" y2="96.000000"  style="stroke:black; stroke-linecap:round; stroke-width:0.25;"/>
<line x1="207.600000" y1="96.000000" x2="207.600000" y2="96.000000"  style="stroke:black; stroke-linecap:round; stroke-width:0.25;"/>
<line x1="207.600000" y1="96.000000" x2="211.600000" y2="96.000000"  style="stroke:black; stroke-linecap:round; stroke-width:0.25;"/>
<line x1="207.600000" y1="104.000000" x2="211.600000" y2="104.000000"  style="stroke:black; stroke-linecap:round; stroke-width:0.25;"/>
<line x1="235.600000" y1="100.000000" x2="239.600000" y2="100.000000"  style="stroke:black; stroke-linecap:round; stroke-width:0.25;"/>
<line x1="239.600000" y1="100.000000" x2="239.600000" y2="100.000000"  style="stroke:black; stroke-linecap:round; stroke-width:0.25;"/>
<line x1="239.600000" y1="100.000000" x2="243.600000" y2="100.000000"  style="stroke:black; stroke-linecap:round; stroke-width:0.25;"/>
<line x1="243.600000" y1="100.000000" x2="247.600000" y2="100.000000"  style="stroke:black; stroke-linecap:round; stroke-width:0.25;"/>
<line x1="247.600000" y1="100.000000" x2="257.600000" y2="100.000000"  style="stroke:black; stroke-linecap:round; stroke-width:0.25;"/>
</svg>
