<?xml version="1.0"?>
<svg xmlns="http://www.w3.org/2000/svg" xmlns:xlink="http://www.w3.org/1999/xlink" viewBox="0 0 364.700000 196.000000" width="182.350000mm" height="98.000000mm" version="1.1">
<a xlink:href="vcfarch-0x7fc0a92f3160.svg">
<rect x="1.000000" y="1.000000" width="363.700000" height="195.000000" rx="0" ry="0" style="stroke:none;fill:#cccccc;"/>
<rect x="0.000000" y="0.000000" width="363.700000" height="195.000000" rx="0" ry="0" style="stroke:none;fill:#ffffff;"/>
</a>
<text x="10.000000" y="7.000000" font-family="Arial" font-size="7"></text>
<rect x="112.000000" y="55.000000" width="129.000000" height="24.000000" rx="0" ry="0" style="stroke:none;fill:#cccccc;"/>
<rect x="111.000000" y="54.000000" width="129.000000" height="24.000000" rx="0" ry="0" style="stroke:none;fill:#477881;"/>
<text x="175.500000" y="68.000000" font-family="Arial" font-size="7" text-anchor="middle" fill="#FFFFFF">checkbox(Normalized Ladders)</text>
<circle cx="113.000000" cy="56.000000" r="1"/>
<line x1="102.000000" y1="45.000000" x2="102.000000" y2="87.000000"  style="stroke: black; stroke-linecap:round; stroke-width:0.25; stroke-dasharray:3,3;"/>
<line x1="102.000000" y1="87.000000" x2="249.000000" y2="87.000000"  style="stroke: black; stroke-linecap:round; stroke-width:0.25; stroke-dasharray:3,3;"/>
<line x1="249.000000" y1="87.000000" x2="249.000000" y2="45.000000"  style="stroke: black; stroke-linecap:round; stroke-width:0.25; stroke-dasharray:3,3;"/>
<line x1="102.000000" y1="45.000000" x2="107.000000" y2="45.000000"  style="stroke: black; stroke-linecap:round; stroke-width:0.25; stroke-dasharray:3,3;"/>
<line x1="139.250000" y1="45.000000" x2="249.000000" y2="45.000000"  style="stroke: black; stroke-linecap:round; stroke-width:0.25; stroke-dasharray:3,3;"/>
<text x="107.000000" y="47.000000" font-family="Arial" font-size="7">hgroup()</text>
<line x1="92.000000" y1="35.000000" x2="92.000000" y2="97.000000"  style="stroke: black; stroke-linecap:round; stroke-width:0.25; stroke-dasharray:3,3;"/>
<line x1="92.000000" y1="97.000000" x2="259.000000" y2="97.000000"  style="stroke: black; stroke-linecap:round; stroke-width:0.25; stroke-dasharray:3,3;"/>
<line x1="259.000000" y1="97.000000" x2="259.000000" y2="35.000000"  style="stroke: black; stroke-linecap:round; stroke-width:0.25; stroke-dasharray:3,3;"/>
<line x1="92.000000" y1="35.000000" x2="97.000000" y2="35.000000"  style="stroke: black; stroke-linecap:round; stroke-width:0.25; stroke-dasharray:3,3;"/>
<line x1="245.350000" y1="35.000000" x2="259.000000" y2="35.000000"  style="stroke: black; stroke-linecap:round; stroke-width:0.25; stroke-dasharray:3,3;"/>
<text x="97.000000" y="37.000000" font-family="Arial" font-size="7">hgroup(MOOG VCF (Voltage Controlled Filter))</text>
<line x1="82.000000" y1="25.000000" x2="82.000000" y2="107.000000"  style="stroke: black; stroke-linecap:round; stroke-width:0.25; stroke-dasharray:3,3;"/>
<line x1="82.000000" y1="107.000000" x2="269.000000" y2="107.000000"  style="stroke: black; stroke-linecap:round; stroke-width:0.25; stroke-dasharray:3,3;"/>
<line x1="269.000000" y1="107.000000" x2="269.000000" y2="25.000000"  style="stroke: black; stroke-linecap:round; stroke-width:0.25; stroke-dasharray:3,3;"/>
<line x1="82.000000" y1="25.000000" x2="87.000000" y2="25.000000"  style="stroke: black; stroke-linecap:round; stroke-width:0.25; stroke-dasharray:3,3;"/>
<line x1="106.350000" y1="25.000000" x2="269.000000" y2="25.000000"  style="stroke: black; stroke-linecap:round; stroke-width:0.25; stroke-dasharray:3,3;"/>
<text x="87.000000" y="27.000000" font-family="Arial" font-size="7">bqsw</text>
<a xlink:href="moog-0x7fc0a92cc8e0.svg">
<rect x="112.000000" y="117.000000" width="129.000000" height="24.000000" rx="0" ry="0" style="stroke:none;fill:#cccccc;"/>
<rect x="111.000000" y="116.000000" width="129.000000" height="24.000000" rx="0" ry="0" style="stroke:none;fill:#003366;"/>
</a>
<a xlink:href="moog-0x7fc0a92cc8e0.svg">
<text x="175.500000" y="130.000000" font-family="Arial" font-size="7" text-anchor="middle" fill="#FFFFFF">moog_vcf_2b(h...,0.999f : *))</text>
</a>
<circle cx="113.000000" cy="118.000000" r="1"/>
<line x1="108.000000" y1="127.000000" x2="111.000000" y2="128.000000"  transform="rotate(0.000000,111.000000,128.000000)" style="stroke: black; stroke-width:0.25;"/>
<line x1="108.000000" y1="129.000000" x2="111.000000" y2="128.000000"  transform="rotate(0.000000,111.000000,128.000000)" style="stroke: black; stroke-width:0.25;"/>
<a xlink:href="moog-0x7fc0a92f2a00.svg">
<rect x="112.000000" y="149.000000" width="129.000000" height="24.000000" rx="0" ry="0" style="stroke:none;fill:#cccccc;"/>
<rect x="111.000000" y="148.000000" width="129.000000" height="24.000000" rx="0" ry="0" style="stroke:none;fill:#003366;"/>
</a>
<a xlink:href="moog-0x7fc0a92f2a00.svg">
<text x="175.500000" y="162.000000" font-family="Arial" font-size="7" text-anchor="middle" fill="#FFFFFF">moog_vcf_2bn(...,0.999f : *))</text>
</a>
<circle cx="113.000000" cy="150.000000" r="1"/>
<line x1="108.000000" y1="159.000000" x2="111.000000" y2="160.000000"  transform="rotate(0.000000,111.000000,160.000000)" style="stroke: black; stroke-width:0.25;"/>
<line x1="108.000000" y1="161.000000" x2="111.000000" y2="160.000000"  transform="rotate(0.000000,111.000000,160.000000)" style="stroke: black; stroke-width:0.25;"/>
<rect x="295.000000" y="87.000000" width="38.700000" height="24.000000" rx="0" ry="0" style="stroke:none;fill:#cccccc;"/>
<rect x="294.000000" y="86.000000" width="38.700000" height="24.000000" rx="0" ry="0" style="stroke:none;fill:#4B71A1;"/>
<text x="313.350000" y="100.000000" font-family="Arial" font-size="7" text-anchor="middle" fill="#FFFFFF">select2</text>
<circle cx="296.000000" cy="88.000000" r="1"/>
<line x1="291.000000" y1="89.000000" x2="294.000000" y2="90.000000"  transform="rotate(0.000000,294.000000,90.000000)" style="stroke: black; stroke-width:0.25;"/>
<line x1="291.000000" y1="91.000000" x2="294.000000" y2="90.000000"  transform="rotate(0.000000,294.000000,90.000000)" style="stroke: black; stroke-width:0.25;"/>
<line x1="291.000000" y1="97.000000" x2="294.000000" y2="98.000000"  transform="rotate(0.000000,294.000000,98.000000)" style="stroke: black; stroke-width:0.25;"/>
<line x1="291.000000" y1="99.000000" x2="294.000000" y2="98.000000"  transform="rotate(0.000000,294.000000,98.000000)" style="stroke: black; stroke-width:0.25;"/>
<line x1="291.000000" y1="105.000000" x2="294.000000" y2="106.000000"  transform="rotate(0.000000,294.000000,106.000000)" style="stroke: black; stroke-width:0.25;"/>
<line x1="291.000000" y1="107.000000" x2="294.000000" y2="106.000000"  transform="rotate(0.000000,294.000000,106.000000)" style="stroke: black; stroke-width:0.25;"/>
<line x1="15.000000" y1="15.000000" x2="15.000000" y2="181.000000"  style="stroke: black; stroke-linecap:round; stroke-width:0.25; stroke-dasharray:3,3;"/>
<line x1="15.000000" y1="181.000000" x2="349.700000" y2="181.000000"  style="stroke: black; stroke-linecap:round; stroke-width:0.25; stroke-dasharray:3,3;"/>
<line x1="349.700000" y1="181.000000" x2="349.700000" y2="15.000000"  style="stroke: black; stroke-linecap:round; stroke-width:0.25; stroke-dasharray:3,3;"/>
<line x1="15.000000" y1="15.000000" x2="20.000000" y2="15.000000"  style="stroke: black; stroke-linecap:round; stroke-width:0.25; stroke-dasharray:3,3;"/>
<line x1="42.575000" y1="15.000000" x2="349.700000" y2="15.000000"  style="stroke: black; stroke-linecap:round; stroke-width:0.25; stroke-dasharray:3,3;"/>
<text x="20.000000" y="17.000000" font-family="Arial" font-size="7">vcfbq</text>
<line x1="351.700000" y1="97.000000" x2="354.700000" y2="98.000000"  transform="rotate(0.000000,354.700000,98.000000)" style="stroke: black; stroke-width:0.25;"/>
<line x1="351.700000" y1="99.000000" x2="354.700000" y2="98.000000"  transform="rotate(0.000000,354.700000,98.000000)" style="stroke: black; stroke-width:0.25;"/>
<line x1="10.000000" y1="98.000000" x2="20.000000" y2="98.000000"  style="stroke:black; stroke-linecap:round; stroke-width:0.25;"/>
<line x1="20.000000" y1="98.000000" x2="24.000000" y2="98.000000"  style="stroke:black; stroke-linecap:round; stroke-width:0.25;"/>
<line x1="24.000000" y1="98.000000" x2="28.000000" y2="98.000000"  style="stroke:black; stroke-linecap:round; stroke-width:0.25;"/>
<line x1="28.000000" y1="98.000000" x2="28.000000" y2="98.000000"  style="stroke:black; stroke-linecap:round; stroke-width:0.25;"/>
<line x1="28.000000" y1="98.000000" x2="32.000000" y2="98.000000"  style="stroke:black; stroke-linecap:round; stroke-width:0.25;"/>
<line x1="32.000000" y1="98.000000" x2="36.000000" y2="98.000000"  style="stroke:black; stroke-linecap:round; stroke-width:0.25;"/>
<line x1="36.000000" y1="98.000000" x2="77.000000" y2="128.000000"  style="stroke:black; stroke-linecap:round; stroke-width:0.25;"/>
<line x1="36.000000" y1="98.000000" x2="77.000000" y2="160.000000"  style="stroke:black; stroke-linecap:round; stroke-width:0.25;"/>
<line x1="77.000000" y1="128.000000" x2="107.000000" y2="128.000000"  style="stroke:black; stroke-linecap:round; stroke-width:0.25;"/>
<line x1="77.000000" y1="160.000000" x2="107.000000" y2="160.000000"  style="stroke:black; stroke-linecap:round; stroke-width:0.25;"/>
<line x1="107.000000" y1="128.000000" x2="111.000000" y2="128.000000"  style="stroke:black; stroke-linecap:round; stroke-width:0.25;"/>
<line x1="107.000000" y1="160.000000" x2="111.000000" y2="160.000000"  style="stroke:black; stroke-linecap:round; stroke-width:0.25;"/>
<line x1="240.000000" y1="66.000000" x2="244.000000" y2="66.000000"  style="stroke:black; stroke-linecap:round; stroke-width:0.25;"/>
<line x1="240.000000" y1="128.000000" x2="244.000000" y2="128.000000"  style="stroke:black; stroke-linecap:round; stroke-width:0.25;"/>
<line x1="240.000000" y1="160.000000" x2="244.000000" y2="160.000000"  style="stroke:black; stroke-linecap:round; stroke-width:0.25;"/>
<line x1="244.000000" y1="66.000000" x2="254.000000" y2="66.000000"  style="stroke:black; stroke-linecap:round; stroke-width:0.25;"/>
<line x1="244.000000" y1="128.000000" x2="274.000000" y2="128.000000"  style="stroke:black; stroke-linecap:round; stroke-width:0.25;"/>
<line x1="244.000000" y1="160.000000" x2="274.000000" y2="160.000000"  style="stroke:black; stroke-linecap:round; stroke-width:0.25;"/>
<line x1="254.000000" y1="66.000000" x2="264.000000" y2="66.000000"  style="stroke:black; stroke-linecap:round; stroke-width:0.25;"/>
<line x1="264.000000" y1="66.000000" x2="274.000000" y2="66.000000"  style="stroke:black; stroke-linecap:round; stroke-width:0.25;"/>
<line x1="274.000000" y1="66.000000" x2="290.000000" y2="66.000000"  style="stroke:black; stroke-linecap:round; stroke-width:0.25;"/>
<line x1="274.000000" y1="98.000000" x2="290.000000" y2="98.000000"  style="stroke:black; stroke-linecap:round; stroke-width:0.25;"/>
<line x1="274.000000" y1="128.000000" x2="274.000000" y2="98.000000"  style="stroke:black; stroke-linecap:round; stroke-width:0.25;"/>
<line x1="274.000000" y1="128.000000" x2="274.000000" y2="128.000000"  style="stroke:black; stroke-linecap:round; stroke-width:0.25;"/>
<line x1="274.000000" y1="160.000000" x2="282.000000" y2="160.000000"  style="stroke:black; stroke-linecap:round; stroke-width:0.25;"/>
<line x1="282.000000" y1="106.000000" x2="290.000000" y2="106.000000"  style="stroke:black; stroke-linecap:round; stroke-width:0.25;"/>
<line x1="282.000000" y1="160.000000" x2="282.000000" y2="106.000000"  style="stroke:black; stroke-linecap:round; stroke-width:0.25;"/>
<line x1="290.000000" y1="66.000000" x2="290.000000" y2="90.000000"  style="stroke:black; stroke-linecap:round; stroke-width:0.25;"/>
<line x1="290.000000" y1="90.000000" x2="290.000000" y2="90.000000"  style="stroke:black; stroke-linecap:round; stroke-width:0.25;"/>
<line x1="290.000000" y1="90.000000" x2="294.000000" y2="90.000000"  style="stroke:black; stroke-linecap:round; stroke-width:0.25;"/>
<line x1="290.000000" y1="98.000000" x2="294.000000" y2="98.000000"  style="stroke:black; stroke-linecap:round; stroke-width:0.25;"/>
<line x1="290.000000" y1="106.000000" x2="294.000000" y2="106.000000"  style="stroke:black; stroke-linecap:round; stroke-width:0.25;"/>
<line x1="332.700000" y1="98.000000" x2="336.700000" y2="98.000000"  style="stroke:black; stroke-linecap:round; stroke-width:0.25;"/>
<line x1="336.700000" y1="98.000000" x2="336.700000" y2="98.000000"  style="stroke:black; stroke-linecap:round; stroke-width:0.25;"/>
<line x1="336.700000" y1="98.000000" x2="340.700000" y2="98.000000"  style="stroke:black; stroke-linecap:round; stroke-width:0.25;"/>
<line x1="340.700000" y1="98.000000" x2="344.700000" y2="98.000000"  style="stroke:black; stroke-linecap:round; stroke-width:0.25;"/>
<line x1="344.700000" y1="98.000000" x2="354.700000" y2="98.000000"  style="stroke:black; stroke-linecap:round; stroke-width:0.25;"/>
</svg>
