<?xml version="1.0"?>
<svg xmlns="http://www.w3.org/2000/svg" xmlns:xlink="http://www.w3.org/1999/xlink" viewBox="0 0 576.100000 272.000000" width="288.050000mm" height="136.000000mm" version="1.1">
<rect x="1.000000" y="1.000000" width="575.100000" height="271.000000" rx="0" ry="0" style="stroke:none;fill:#cccccc;"/>
<rect x="0.000000" y="0.000000" width="575.100000" height="271.000000" rx="0" ry="0" style="stroke:none;fill:#ffffff;"/>
<text x="10.000000" y="7.000000" font-family="Arial" font-size="7"></text>
<rect x="105.250000" y="35.000000" width="24.000000" height="24.000000" rx="0" ry="0" style="stroke:none;fill:#cccccc;"/>
<rect x="104.250000" y="34.000000" width="24.000000" height="24.000000" rx="0" ry="0" style="stroke:none;fill:#f44800;"/>
<text x="116.250000" y="48.000000" font-family="Arial" font-size="7" text-anchor="middle" fill="#FFFFFF">440</text>
<circle cx="106.250000" cy="36.000000" r="1"/>
<rect x="77.900000" y="77.000000" width="38.700000" height="24.000000" rx="0" ry="0" style="stroke:none;fill:#cccccc;"/>
<rect x="76.900000" y="76.000000" width="38.700000" height="24.000000" rx="0" ry="0" style="stroke:none;fill:#f44800;"/>
<text x="96.250000" y="90.000000" font-family="Arial" font-size="7" text-anchor="middle" fill="#FFFFFF">1.92e+05f</text>
<circle cx="78.900000" cy="78.000000" r="1"/>
<rect x="64.350000" y="109.000000" width="25.800000" height="24.000000" rx="0" ry="0" style="stroke:none;fill:#cccccc;"/>
<rect x="63.350000" y="108.000000" width="25.800000" height="24.000000" rx="0" ry="0" style="stroke:none;fill:#f44800;"/>
<text x="76.250000" y="122.000000" font-family="Arial" font-size="7" text-anchor="middle" fill="#FFFFFF">1.0f</text>
<circle cx="65.350000" cy="110.000000" r="1"/>
<rect x="45.000000" y="141.000000" width="64.500000" height="24.000000" rx="0" ry="0" style="stroke:none;fill:#cccccc;"/>
<rect x="44.000000" y="140.000000" width="64.500000" height="24.000000" rx="0" ry="0" style="stroke:none;fill:#4B71A1;"/>
<text x="76.250000" y="154.000000" font-family="Arial" font-size="7" text-anchor="middle" fill="#FFFFFF">fSamplingFreq</text>
<circle cx="46.000000" cy="142.000000" r="1"/>
<rect x="125.500000" y="125.000000" width="24.000000" height="24.000000" rx="0" ry="0" style="stroke:none;fill:#cccccc;"/>
<rect x="124.500000" y="124.000000" width="24.000000" height="24.000000" rx="0" ry="0" style="stroke:none;fill:#4B71A1;"/>
<text x="136.500000" y="138.000000" font-family="Arial" font-size="7" text-anchor="middle" fill="#FFFFFF">max</text>
<circle cx="126.500000" cy="126.000000" r="1"/>
<line x1="121.500000" y1="131.000000" x2="124.500000" y2="132.000000"  transform="rotate(0.000000,124.500000,132.000000)" style="stroke: black; stroke-width:0.25;"/>
<line x1="121.500000" y1="133.000000" x2="124.500000" y2="132.000000"  transform="rotate(0.000000,124.500000,132.000000)" style="stroke: black; stroke-width:0.25;"/>
<line x1="121.500000" y1="139.000000" x2="124.500000" y2="140.000000"  transform="rotate(0.000000,124.500000,140.000000)" style="stroke: black; stroke-width:0.25;"/>
<line x1="121.500000" y1="141.000000" x2="124.500000" y2="140.000000"  transform="rotate(0.000000,124.500000,140.000000)" style="stroke: black; stroke-width:0.25;"/>
<rect x="165.500000" y="109.000000" width="24.000000" height="24.000000" rx="0" ry="0" style="stroke:none;fill:#cccccc;"/>
<rect x="164.500000" y="108.000000" width="24.000000" height="24.000000" rx="0" ry="0" style="stroke:none;fill:#4B71A1;"/>
<text x="176.500000" y="122.000000" font-family="Arial" font-size="7" text-anchor="middle" fill="#FFFFFF">min</text>
<circle cx="166.500000" cy="110.000000" r="1"/>
<line x1="161.500000" y1="115.000000" x2="164.500000" y2="116.000000"  transform="rotate(0.000000,164.500000,116.000000)" style="stroke: black; stroke-width:0.25;"/>
<line x1="161.500000" y1="117.000000" x2="164.500000" y2="116.000000"  transform="rotate(0.000000,164.500000,116.000000)" style="stroke: black; stroke-width:0.25;"/>
<line x1="161.500000" y1="123.000000" x2="164.500000" y2="124.000000"  transform="rotate(0.000000,164.500000,124.000000)" style="stroke: black; stroke-width:0.25;"/>
<line x1="161.500000" y1="125.000000" x2="164.500000" y2="124.000000"  transform="rotate(0.000000,164.500000,124.000000)" style="stroke: black; stroke-width:0.25;"/>
<line x1="35.000000" y1="67.000000" x2="35.000000" y2="173.000000"  style="stroke: black; stroke-linecap:round; stroke-width:0.25; stroke-dasharray:3,3;"/>
<line x1="35.000000" y1="173.000000" x2="197.500000" y2="173.000000"  style="stroke: black; stroke-linecap:round; stroke-width:0.25; stroke-dasharray:3,3;"/>
<line x1="197.500000" y1="173.000000" x2="197.500000" y2="67.000000"  style="stroke: black; stroke-linecap:round; stroke-width:0.25; stroke-dasharray:3,3;"/>
<line x1="35.000000" y1="67.000000" x2="40.000000" y2="67.000000"  style="stroke: black; stroke-linecap:round; stroke-width:0.25; stroke-dasharray:3,3;"/>
<line x1="52.900000" y1="67.000000" x2="197.500000" y2="67.000000"  style="stroke: black; stroke-linecap:round; stroke-width:0.25; stroke-dasharray:3,3;"/>
<text x="40.000000" y="69.000000" font-family="Arial" font-size="7">SR</text>
<rect x="215.500000" y="93.000000" width="24.000000" height="24.000000" rx="0" ry="0" style="stroke:none;fill:#cccccc;"/>
<rect x="214.500000" y="92.000000" width="24.000000" height="24.000000" rx="0" ry="0" style="stroke:none;fill:#4B71A1;"/>
<text x="226.500000" y="106.000000" font-family="Arial" font-size="7" text-anchor="middle" fill="#FFFFFF">/</text>
<circle cx="216.500000" cy="94.000000" r="1"/>
<line x1="211.500000" y1="99.000000" x2="214.500000" y2="100.000000"  transform="rotate(0.000000,214.500000,100.000000)" style="stroke: black; stroke-width:0.25;"/>
<line x1="211.500000" y1="101.000000" x2="214.500000" y2="100.000000"  transform="rotate(0.000000,214.500000,100.000000)" style="stroke: black; stroke-width:0.25;"/>
<line x1="211.500000" y1="107.000000" x2="214.500000" y2="108.000000"  transform="rotate(0.000000,214.500000,108.000000)" style="stroke: black; stroke-width:0.25;"/>
<line x1="211.500000" y1="109.000000" x2="214.500000" y2="108.000000"  transform="rotate(0.000000,214.500000,108.000000)" style="stroke: black; stroke-width:0.25;"/>
<rect x="263.500000" y="97.000000" width="24.000000" height="24.000000" rx="0" ry="0" style="stroke:none;fill:#cccccc;"/>
<rect x="262.500000" y="96.000000" width="24.000000" height="24.000000" rx="0" ry="0" style="stroke:none;fill:#4B71A1;"/>
<text x="274.500000" y="110.000000" font-family="Arial" font-size="7" text-anchor="middle" fill="#FFFFFF">+</text>
<circle cx="264.500000" cy="98.000000" r="1"/>
<line x1="259.500000" y1="103.000000" x2="262.500000" y2="104.000000"  transform="rotate(0.000000,262.500000,104.000000)" style="stroke: black; stroke-width:0.25;"/>
<line x1="259.500000" y1="105.000000" x2="262.500000" y2="104.000000"  transform="rotate(0.000000,262.500000,104.000000)" style="stroke: black; stroke-width:0.25;"/>
<line x1="259.500000" y1="111.000000" x2="262.500000" y2="112.000000"  transform="rotate(0.000000,262.500000,112.000000)" style="stroke: black; stroke-width:0.25;"/>
<line x1="259.500000" y1="113.000000" x2="262.500000" y2="112.000000"  transform="rotate(0.000000,262.500000,112.000000)" style="stroke: black; stroke-width:0.25;"/>
<rect x="305.500000" y="97.000000" width="25.800000" height="24.000000" rx="0" ry="0" style="stroke:none;fill:#cccccc;"/>
<rect x="304.500000" y="96.000000" width="25.800000" height="24.000000" rx="0" ry="0" style="stroke:none;fill:#47945E;"/>
<text x="317.400000" y="110.000000" font-family="Arial" font-size="7" text-anchor="middle" fill="#FFFFFF">[1] x</text>
<circle cx="306.500000" cy="98.000000" r="1"/>
<line x1="301.500000" y1="107.000000" x2="304.500000" y2="108.000000"  transform="rotate(0.000000,304.500000,108.000000)" style="stroke: black; stroke-width:0.25;"/>
<line x1="301.500000" y1="109.000000" x2="304.500000" y2="108.000000"  transform="rotate(0.000000,304.500000,108.000000)" style="stroke: black; stroke-width:0.25;"/>
<rect x="355.300000" y="81.000000" width="25.800000" height="24.000000" rx="0" ry="0" style="stroke:none;fill:#cccccc;"/>
<rect x="354.300000" y="80.000000" width="25.800000" height="24.000000" rx="0" ry="0" style="stroke:none;fill:#47945E;"/>
<text x="367.200000" y="94.000000" font-family="Arial" font-size="7" text-anchor="middle" fill="#FFFFFF">[1] x</text>
<circle cx="356.300000" cy="82.000000" r="1"/>
<rect x="339.300000" y="113.000000" width="25.800000" height="24.000000" rx="0" ry="0" style="stroke:none;fill:#cccccc;"/>
<rect x="338.300000" y="112.000000" width="25.800000" height="24.000000" rx="0" ry="0" style="stroke:none;fill:#47945E;"/>
<text x="351.200000" y="126.000000" font-family="Arial" font-size="7" text-anchor="middle" fill="#FFFFFF">[1] x</text>
<circle cx="340.300000" cy="114.000000" r="1"/>
<rect x="373.100000" y="113.000000" width="24.000000" height="24.000000" rx="0" ry="0" style="stroke:none;fill:#cccccc;"/>
<rect x="372.100000" y="112.000000" width="24.000000" height="24.000000" rx="0" ry="0" style="stroke:none;fill:#4B71A1;"/>
<text x="384.100000" y="126.000000" font-family="Arial" font-size="7" text-anchor="middle" fill="#FFFFFF">int</text>
<circle cx="374.100000" cy="114.000000" r="1"/>
<line x1="369.100000" y1="123.000000" x2="372.100000" y2="124.000000"  transform="rotate(0.000000,372.100000,124.000000)" style="stroke: black; stroke-width:0.25;"/>
<line x1="369.100000" y1="125.000000" x2="372.100000" y2="124.000000"  transform="rotate(0.000000,372.100000,124.000000)" style="stroke: black; stroke-width:0.25;"/>
<rect x="413.100000" y="97.000000" width="24.000000" height="24.000000" rx="0" ry="0" style="stroke:none;fill:#cccccc;"/>
<rect x="412.100000" y="96.000000" width="24.000000" height="24.000000" rx="0" ry="0" style="stroke:none;fill:#4B71A1;"/>
<text x="424.100000" y="110.000000" font-family="Arial" font-size="7" text-anchor="middle" fill="#FFFFFF">-</text>
<circle cx="414.100000" cy="98.000000" r="1"/>
<line x1="409.100000" y1="103.000000" x2="412.100000" y2="104.000000"  transform="rotate(0.000000,412.100000,104.000000)" style="stroke: black; stroke-width:0.25;"/>
<line x1="409.100000" y1="105.000000" x2="412.100000" y2="104.000000"  transform="rotate(0.000000,412.100000,104.000000)" style="stroke: black; stroke-width:0.25;"/>
<line x1="409.100000" y1="111.000000" x2="412.100000" y2="112.000000"  transform="rotate(0.000000,412.100000,112.000000)" style="stroke: black; stroke-width:0.25;"/>
<line x1="409.100000" y1="113.000000" x2="412.100000" y2="112.000000"  transform="rotate(0.000000,412.100000,112.000000)" style="stroke: black; stroke-width:0.25;"/>
<line x1="295.500000" y1="71.000000" x2="295.500000" y2="145.000000"  style="stroke: black; stroke-linecap:round; stroke-width:0.25; stroke-dasharray:3,3;"/>
<line x1="295.500000" y1="145.000000" x2="445.100000" y2="145.000000"  style="stroke: black; stroke-linecap:round; stroke-width:0.25; stroke-dasharray:3,3;"/>
<line x1="445.100000" y1="145.000000" x2="445.100000" y2="71.000000"  style="stroke: black; stroke-linecap:round; stroke-width:0.25; stroke-dasharray:3,3;"/>
<line x1="295.500000" y1="71.000000" x2="300.500000" y2="71.000000"  style="stroke: black; stroke-linecap:round; stroke-width:0.25; stroke-dasharray:3,3;"/>
<line x1="342.425000" y1="71.000000" x2="445.100000" y2="71.000000"  style="stroke: black; stroke-linecap:round; stroke-width:0.25; stroke-dasharray:3,3;"/>
<text x="300.500000" y="73.000000" font-family="Arial" font-size="7">decimalpart</text>
<line x1="448.100000" y1="108.000000" x2="448.100000" y2="104.000000"  style="stroke:black; stroke-linecap:round; stroke-width:0.25;"/>
<line x1="448.100000" y1="104.000000" x2="452.100000" y2="104.000000"  style="stroke:black; stroke-linecap:round; stroke-width:0.25;"/>
<line x1="452.100000" y1="104.000000" x2="452.100000" y2="108.000000"  style="stroke:black; stroke-linecap:round; stroke-width:0.25;"/>
<line x1="25.000000" y1="25.000000" x2="25.000000" y2="183.000000"  style="stroke: black; stroke-linecap:round; stroke-width:0.25; stroke-dasharray:3,3;"/>
<line x1="25.000000" y1="183.000000" x2="463.100000" y2="183.000000"  style="stroke: black; stroke-linecap:round; stroke-width:0.25; stroke-dasharray:3,3;"/>
<line x1="463.100000" y1="183.000000" x2="463.100000" y2="25.000000"  style="stroke: black; stroke-linecap:round; stroke-width:0.25; stroke-dasharray:3,3;"/>
<line x1="25.000000" y1="25.000000" x2="30.000000" y2="25.000000"  style="stroke: black; stroke-linecap:round; stroke-width:0.25; stroke-dasharray:3,3;"/>
<line x1="68.700000" y1="25.000000" x2="463.100000" y2="25.000000"  style="stroke: black; stroke-linecap:round; stroke-width:0.25; stroke-dasharray:3,3;"/>
<text x="30.000000" y="27.000000" font-family="Arial" font-size="7">phase(440)</text>
<rect x="233.050000" y="193.000000" width="24.000000" height="24.000000" rx="0" ry="0" style="stroke:none;fill:#cccccc;"/>
<rect x="232.050000" y="192.000000" width="24.000000" height="24.000000" rx="0" ry="0" style="stroke:none;fill:#f44800;"/>
<text x="244.050000" y="206.000000" font-family="Arial" font-size="7" text-anchor="middle" fill="#FFFFFF">2</text>
<circle cx="234.050000" cy="194.000000" r="1"/>
<rect x="481.100000" y="109.000000" width="24.000000" height="24.000000" rx="0" ry="0" style="stroke:none;fill:#cccccc;"/>
<rect x="480.100000" y="108.000000" width="24.000000" height="24.000000" rx="0" ry="0" style="stroke:none;fill:#4B71A1;"/>
<text x="492.100000" y="122.000000" font-family="Arial" font-size="7" text-anchor="middle" fill="#FFFFFF">*</text>
<circle cx="482.100000" cy="110.000000" r="1"/>
<line x1="477.100000" y1="115.000000" x2="480.100000" y2="116.000000"  transform="rotate(0.000000,480.100000,116.000000)" style="stroke: black; stroke-width:0.25;"/>
<line x1="477.100000" y1="117.000000" x2="480.100000" y2="116.000000"  transform="rotate(0.000000,480.100000,116.000000)" style="stroke: black; stroke-width:0.25;"/>
<line x1="477.100000" y1="123.000000" x2="480.100000" y2="124.000000"  transform="rotate(0.000000,480.100000,124.000000)" style="stroke: black; stroke-width:0.25;"/>
<line x1="477.100000" y1="125.000000" x2="480.100000" y2="124.000000"  transform="rotate(0.000000,480.100000,124.000000)" style="stroke: black; stroke-width:0.25;"/>
<rect x="253.050000" y="225.000000" width="24.000000" height="24.000000" rx="0" ry="0" style="stroke:none;fill:#cccccc;"/>
<rect x="252.050000" y="224.000000" width="24.000000" height="24.000000" rx="0" ry="0" style="stroke:none;fill:#f44800;"/>
<text x="264.050000" y="238.000000" font-family="Arial" font-size="7" text-anchor="middle" fill="#FFFFFF">1</text>
<circle cx="254.050000" cy="226.000000" r="1"/>
<rect x="521.100000" y="125.000000" width="24.000000" height="24.000000" rx="0" ry="0" style="stroke:none;fill:#cccccc;"/>
<rect x="520.100000" y="124.000000" width="24.000000" height="24.000000" rx="0" ry="0" style="stroke:none;fill:#4B71A1;"/>
<text x="532.100000" y="138.000000" font-family="Arial" font-size="7" text-anchor="middle" fill="#FFFFFF">-</text>
<circle cx="522.100000" cy="126.000000" r="1"/>
<line x1="517.100000" y1="131.000000" x2="520.100000" y2="132.000000"  transform="rotate(0.000000,520.100000,132.000000)" style="stroke: black; stroke-width:0.25;"/>
<line x1="517.100000" y1="133.000000" x2="520.100000" y2="132.000000"  transform="rotate(0.000000,520.100000,132.000000)" style="stroke: black; stroke-width:0.25;"/>
<line x1="517.100000" y1="139.000000" x2="520.100000" y2="140.000000"  transform="rotate(0.000000,520.100000,140.000000)" style="stroke: black; stroke-width:0.25;"/>
<line x1="517.100000" y1="141.000000" x2="520.100000" y2="140.000000"  transform="rotate(0.000000,520.100000,140.000000)" style="stroke: black; stroke-width:0.25;"/>
<line x1="15.000000" y1="15.000000" x2="15.000000" y2="257.000000"  style="stroke: black; stroke-linecap:round; stroke-width:0.25; stroke-dasharray:3,3;"/>
<line x1="15.000000" y1="257.000000" x2="561.100000" y2="257.000000"  style="stroke: black; stroke-linecap:round; stroke-width:0.25; stroke-dasharray:3,3;"/>
<line x1="561.100000" y1="257.000000" x2="561.100000" y2="15.000000"  style="stroke: black; stroke-linecap:round; stroke-width:0.25; stroke-dasharray:3,3;"/>
<line x1="15.000000" y1="15.000000" x2="20.000000" y2="15.000000"  style="stroke: black; stroke-linecap:round; stroke-width:0.25; stroke-dasharray:3,3;"/>
<line x1="49.025000" y1="15.000000" x2="561.100000" y2="15.000000"  style="stroke: black; stroke-linecap:round; stroke-width:0.25; stroke-dasharray:3,3;"/>
<text x="20.000000" y="17.000000" font-family="Arial" font-size="7">process</text>
<line x1="563.100000" y1="135.000000" x2="566.100000" y2="136.000000"  transform="rotate(0.000000,566.100000,136.000000)" style="stroke: black; stroke-width:0.25;"/>
<line x1="563.100000" y1="137.000000" x2="566.100000" y2="136.000000"  transform="rotate(0.000000,566.100000,136.000000)" style="stroke: black; stroke-width:0.25;"/>
<line x1="89.150000" y1="120.000000" x2="93.150000" y2="120.000000"  style="stroke:black; stroke-linecap:round; stroke-width:0.25;"/>
<line x1="93.150000" y1="120.000000" x2="112.500000" y2="120.000000"  style="stroke:black; stroke-linecap:round; stroke-width:0.25;"/>
<line x1="108.500000" y1="152.000000" x2="112.500000" y2="152.000000"  style="stroke:black; stroke-linecap:round; stroke-width:0.25;"/>
<line x1="112.500000" y1="120.000000" x2="120.500000" y2="120.000000"  style="stroke:black; stroke-linecap:round; stroke-width:0.25;"/>
<line x1="112.500000" y1="140.000000" x2="120.500000" y2="140.000000"  style="stroke:black; stroke-linecap:round; stroke-width:0.25;"/>
<line x1="112.500000" y1="152.000000" x2="112.500000" y2="140.000000"  style="stroke:black; stroke-linecap:round; stroke-width:0.25;"/>
<line x1="112.500000" y1="152.000000" x2="112.500000" y2="152.000000"  style="stroke:black; stroke-linecap:round; stroke-width:0.25;"/>
<line x1="115.600000" y1="88.000000" x2="119.600000" y2="88.000000"  style="stroke:black; stroke-linecap:round; stroke-width:0.25;"/>
<line x1="119.600000" y1="88.000000" x2="152.500000" y2="88.000000"  style="stroke:black; stroke-linecap:round; stroke-width:0.25;"/>
<line x1="120.500000" y1="120.000000" x2="120.500000" y2="132.000000"  style="stroke:black; stroke-linecap:round; stroke-width:0.25;"/>
<line x1="120.500000" y1="132.000000" x2="120.500000" y2="132.000000"  style="stroke:black; stroke-linecap:round; stroke-width:0.25;"/>
<line x1="120.500000" y1="132.000000" x2="124.500000" y2="132.000000"  style="stroke:black; stroke-linecap:round; stroke-width:0.25;"/>
<line x1="120.500000" y1="140.000000" x2="124.500000" y2="140.000000"  style="stroke:black; stroke-linecap:round; stroke-width:0.25;"/>
<line x1="128.250000" y1="46.000000" x2="132.250000" y2="46.000000"  style="stroke:black; stroke-linecap:round; stroke-width:0.25;"/>
<line x1="132.250000" y1="46.000000" x2="202.500000" y2="46.000000"  style="stroke:black; stroke-linecap:round; stroke-width:0.25;"/>
<line x1="148.500000" y1="136.000000" x2="152.500000" y2="136.000000"  style="stroke:black; stroke-linecap:round; stroke-width:0.25;"/>
<line x1="152.500000" y1="88.000000" x2="160.500000" y2="88.000000"  style="stroke:black; stroke-linecap:round; stroke-width:0.25;"/>
<line x1="152.500000" y1="124.000000" x2="160.500000" y2="124.000000"  style="stroke:black; stroke-linecap:round; stroke-width:0.25;"/>
<line x1="152.500000" y1="136.000000" x2="152.500000" y2="124.000000"  style="stroke:black; stroke-linecap:round; stroke-width:0.25;"/>
<line x1="152.500000" y1="136.000000" x2="152.500000" y2="136.000000"  style="stroke:black; stroke-linecap:round; stroke-width:0.25;"/>
<line x1="160.500000" y1="88.000000" x2="160.500000" y2="116.000000"  style="stroke:black; stroke-linecap:round; stroke-width:0.25;"/>
<line x1="160.500000" y1="116.000000" x2="160.500000" y2="116.000000"  style="stroke:black; stroke-linecap:round; stroke-width:0.25;"/>
<line x1="160.500000" y1="116.000000" x2="164.500000" y2="116.000000"  style="stroke:black; stroke-linecap:round; stroke-width:0.25;"/>
<line x1="160.500000" y1="124.000000" x2="164.500000" y2="124.000000"  style="stroke:black; stroke-linecap:round; stroke-width:0.25;"/>
<line x1="188.500000" y1="120.000000" x2="192.500000" y2="120.000000"  style="stroke:black; stroke-linecap:round; stroke-width:0.25;"/>
<line x1="192.500000" y1="120.000000" x2="202.500000" y2="120.000000"  style="stroke:black; stroke-linecap:round; stroke-width:0.25;"/>
<line x1="202.500000" y1="46.000000" x2="210.500000" y2="46.000000"  style="stroke:black; stroke-linecap:round; stroke-width:0.25;"/>
<line x1="202.500000" y1="108.000000" x2="210.500000" y2="108.000000"  style="stroke:black; stroke-linecap:round; stroke-width:0.25;"/>
<line x1="202.500000" y1="120.000000" x2="202.500000" y2="108.000000"  style="stroke:black; stroke-linecap:round; stroke-width:0.25;"/>
<line x1="202.500000" y1="120.000000" x2="202.500000" y2="120.000000"  style="stroke:black; stroke-linecap:round; stroke-width:0.25;"/>
<line x1="210.500000" y1="46.000000" x2="210.500000" y2="100.000000"  style="stroke:black; stroke-linecap:round; stroke-width:0.25;"/>
<line x1="210.500000" y1="100.000000" x2="210.500000" y2="100.000000"  style="stroke:black; stroke-linecap:round; stroke-width:0.25;"/>
<line x1="210.500000" y1="100.000000" x2="214.500000" y2="100.000000"  style="stroke:black; stroke-linecap:round; stroke-width:0.25;"/>
<line x1="210.500000" y1="108.000000" x2="214.500000" y2="108.000000"  style="stroke:black; stroke-linecap:round; stroke-width:0.25;"/>
<line x1="238.500000" y1="104.000000" x2="242.500000" y2="104.000000"  style="stroke:black; stroke-linecap:round; stroke-width:0.25;"/>
<line x1="242.500000" y1="104.000000" x2="250.500000" y2="104.000000"  style="stroke:black; stroke-linecap:round; stroke-width:0.25;"/>
<line x1="250.500000" y1="104.000000" x2="250.500000" y2="112.000000"  style="stroke:black; stroke-linecap:round; stroke-width:0.25;"/>
<line x1="250.500000" y1="112.000000" x2="250.500000" y2="112.000000"  style="stroke:black; stroke-linecap:round; stroke-width:0.25;"/>
<line x1="250.500000" y1="112.000000" x2="258.500000" y2="112.000000"  style="stroke:black; stroke-linecap:round; stroke-width:0.25;"/>
<line x1="256.050000" y1="204.000000" x2="260.050000" y2="204.000000"  style="stroke:black; stroke-linecap:round; stroke-width:0.25;"/>
<line x1="258.500000" y1="62.000000" x2="258.500000" y2="62.000000"  style="stroke:black; stroke-linecap:round; stroke-width:0.25;"/>
<line x1="258.500000" y1="62.000000" x2="258.500000" y2="104.000000"  style="stroke:black; stroke-linecap:round; stroke-width:0.25;"/>
<line x1="258.500000" y1="104.000000" x2="258.500000" y2="104.000000"  style="stroke:black; stroke-linecap:round; stroke-width:0.25;"/>
<line x1="258.500000" y1="104.000000" x2="262.500000" y2="104.000000"  style="stroke:black; stroke-linecap:round; stroke-width:0.25;"/>
<line x1="258.500000" y1="112.000000" x2="262.500000" y2="112.000000"  style="stroke:black; stroke-linecap:round; stroke-width:0.25;"/>
<line x1="260.050000" y1="204.000000" x2="468.100000" y2="204.000000"  style="stroke:black; stroke-linecap:round; stroke-width:0.25;"/>
<line x1="276.050000" y1="236.000000" x2="280.050000" y2="236.000000"  style="stroke:black; stroke-linecap:round; stroke-width:0.25;"/>
<line x1="280.050000" y1="236.000000" x2="508.100000" y2="236.000000"  style="stroke:black; stroke-linecap:round; stroke-width:0.25;"/>
<line x1="286.500000" y1="108.000000" x2="290.500000" y2="108.000000"  style="stroke:black; stroke-linecap:round; stroke-width:0.25;"/>
<line x1="290.500000" y1="108.000000" x2="290.500000" y2="108.000000"  style="stroke:black; stroke-linecap:round; stroke-width:0.25;"/>
<line x1="290.500000" y1="108.000000" x2="300.500000" y2="108.000000"  style="stroke:black; stroke-linecap:round; stroke-width:0.25;"/>
<line x1="300.500000" y1="108.000000" x2="304.500000" y2="108.000000"  style="stroke:black; stroke-linecap:round; stroke-width:0.25;"/>
<line x1="354.300000" y1="62.000000" x2="258.500000" y2="62.000000"  style="stroke:black; stroke-linecap:round; stroke-width:0.25;"/>
<line x1="364.100000" y1="124.000000" x2="368.100000" y2="124.000000"  style="stroke:black; stroke-linecap:round; stroke-width:0.25;"/>
<line x1="368.100000" y1="124.000000" x2="368.100000" y2="124.000000"  style="stroke:black; stroke-linecap:round; stroke-width:0.25;"/>
<line x1="368.100000" y1="124.000000" x2="372.100000" y2="124.000000"  style="stroke:black; stroke-linecap:round; stroke-width:0.25;"/>
<line x1="380.100000" y1="92.000000" x2="384.100000" y2="92.000000"  style="stroke:black; stroke-linecap:round; stroke-width:0.25;"/>
<line x1="384.100000" y1="92.000000" x2="400.100000" y2="92.000000"  style="stroke:black; stroke-linecap:round; stroke-width:0.25;"/>
<line x1="396.100000" y1="124.000000" x2="400.100000" y2="124.000000"  style="stroke:black; stroke-linecap:round; stroke-width:0.25;"/>
<line x1="400.100000" y1="92.000000" x2="408.100000" y2="92.000000"  style="stroke:black; stroke-linecap:round; stroke-width:0.25;"/>
<line x1="400.100000" y1="112.000000" x2="408.100000" y2="112.000000"  style="stroke:black; stroke-linecap:round; stroke-width:0.25;"/>
<line x1="400.100000" y1="124.000000" x2="400.100000" y2="112.000000"  style="stroke:black; stroke-linecap:round; stroke-width:0.25;"/>
<line x1="400.100000" y1="124.000000" x2="400.100000" y2="124.000000"  style="stroke:black; stroke-linecap:round; stroke-width:0.25;"/>
<line x1="408.100000" y1="92.000000" x2="408.100000" y2="104.000000"  style="stroke:black; stroke-linecap:round; stroke-width:0.25;"/>
<line x1="408.100000" y1="104.000000" x2="408.100000" y2="104.000000"  style="stroke:black; stroke-linecap:round; stroke-width:0.25;"/>
<line x1="408.100000" y1="104.000000" x2="412.100000" y2="104.000000"  style="stroke:black; stroke-linecap:round; stroke-width:0.25;"/>
<line x1="408.100000" y1="112.000000" x2="412.100000" y2="112.000000"  style="stroke:black; stroke-linecap:round; stroke-width:0.25;"/>
<line x1="436.100000" y1="108.000000" x2="440.100000" y2="108.000000"  style="stroke:black; stroke-linecap:round; stroke-width:0.25;"/>
<line x1="440.100000" y1="108.000000" x2="450.100000" y2="108.000000"  style="stroke:black; stroke-linecap:round; stroke-width:0.25;"/>
<line x1="450.100000" y1="62.000000" x2="354.300000" y2="62.000000"  style="stroke:black; stroke-linecap:round; stroke-width:0.25;"/>
<line x1="450.100000" y1="62.000000" x2="450.100000" y2="62.000000"  style="stroke:black; stroke-linecap:round; stroke-width:0.25;"/>
<line x1="450.100000" y1="104.000000" x2="450.100000" y2="62.000000"  style="stroke:black; stroke-linecap:round; stroke-width:0.25;"/>
<line x1="450.100000" y1="108.000000" x2="452.100000" y2="108.000000"  style="stroke:black; stroke-linecap:round; stroke-width:0.25;"/>
<line x1="452.100000" y1="108.000000" x2="458.100000" y2="108.000000"  style="stroke:black; stroke-linecap:round; stroke-width:0.25;"/>
<line x1="458.100000" y1="108.000000" x2="468.100000" y2="108.000000"  style="stroke:black; stroke-linecap:round; stroke-width:0.25;"/>
<line x1="468.100000" y1="108.000000" x2="476.100000" y2="108.000000"  style="stroke:black; stroke-linecap:round; stroke-width:0.25;"/>
<line x1="468.100000" y1="124.000000" x2="476.100000" y2="124.000000"  style="stroke:black; stroke-linecap:round; stroke-width:0.25;"/>
<line x1="468.100000" y1="204.000000" x2="468.100000" y2="124.000000"  style="stroke:black; stroke-linecap:round; stroke-width:0.25;"/>
<line x1="468.100000" y1="204.000000" x2="468.100000" y2="204.000000"  style="stroke:black; stroke-linecap:round; stroke-width:0.25;"/>
<line x1="476.100000" y1="108.000000" x2="476.100000" y2="116.000000"  style="stroke:black; stroke-linecap:round; stroke-width:0.25;"/>
<line x1="476.100000" y1="116.000000" x2="476.100000" y2="116.000000"  style="stroke:black; stroke-linecap:round; stroke-width:0.25;"/>
<line x1="476.100000" y1="116.000000" x2="480.100000" y2="116.000000"  style="stroke:black; stroke-linecap:round; stroke-width:0.25;"/>
<line x1="476.100000" y1="124.000000" x2="480.100000" y2="124.000000"  style="stroke:black; stroke-linecap:round; stroke-width:0.25;"/>
<line x1="504.100000" y1="120.000000" x2="508.100000" y2="120.000000"  style="stroke:black; stroke-linecap:round; stroke-width:0.25;"/>
<line x1="508.100000" y1="120.000000" x2="516.100000" y2="120.000000"  style="stroke:black; stroke-linecap:round; stroke-width:0.25;"/>
<line x1="508.100000" y1="140.000000" x2="516.100000" y2="140.000000"  style="stroke:black; stroke-linecap:round; stroke-width:0.25;"/>
<line x1="508.100000" y1="236.000000" x2="508.100000" y2="140.000000"  style="stroke:black; stroke-linecap:round; stroke-width:0.25;"/>
<line x1="508.100000" y1="236.000000" x2="508.100000" y2="236.000000"  style="stroke:black; stroke-linecap:round; stroke-width:0.25;"/>
<line x1="516.100000" y1="120.000000" x2="516.100000" y2="132.000000"  style="stroke:black; stroke-linecap:round; stroke-width:0.25;"/>
<line x1="516.100000" y1="132.000000" x2="516.100000" y2="132.000000"  style="stroke:black; stroke-linecap:round; stroke-width:0.25;"/>
<line x1="516.100000" y1="132.000000" x2="520.100000" y2="132.000000"  style="stroke:black; stroke-linecap:round; stroke-width:0.25;"/>
<line x1="516.100000" y1="140.000000" x2="520.100000" y2="140.000000"  style="stroke:black; stroke-linecap:round; stroke-width:0.25;"/>
<line x1="544.100000" y1="136.000000" x2="548.100000" y2="136.000000"  style="stroke:black; stroke-linecap:round; stroke-width:0.25;"/>
<line x1="548.100000" y1="136.000000" x2="548.100000" y2="136.000000"  style="stroke:black; stroke-linecap:round; stroke-width:0.25;"/>
<line x1="548.100000" y1="136.000000" x2="552.100000" y2="136.000000"  style="stroke:black; stroke-linecap:round; stroke-width:0.25;"/>
<line x1="552.100000" y1="136.000000" x2="556.100000" y2="136.000000"  style="stroke:black; stroke-linecap:round; stroke-width:0.25;"/>
<line x1="556.100000" y1="136.000000" x2="566.100000" y2="136.000000"  style="stroke:black; stroke-linecap:round; stroke-width:0.25;"/>
</svg>
