<?xml version="1.0"?>
<svg xmlns="http://www.w3.org/2000/svg" xmlns:xlink="http://www.w3.org/1999/xlink" viewBox="0 0 553.100000 232.000000" width="276.550000mm" height="116.000000mm" version="1.1">
<a xlink:href="fdelay-0x7f9cc54eaf30.svg">
<rect x="1.000000" y="1.000000" width="552.100000" height="231.000000" rx="0" ry="0" style="stroke:none;fill:#cccccc;"/>
<rect x="0.000000" y="0.000000" width="552.100000" height="231.000000" rx="0" ry="0" style="stroke:none;fill:#ffffff;"/>
</a>
<text x="10.000000" y="7.000000" font-family="Arial" font-size="7"></text>
<rect x="241.550000" y="25.000000" width="24.000000" height="24.000000" rx="0" ry="0" style="stroke:none;fill:#cccccc;"/>
<rect x="240.550000" y="24.000000" width="24.000000" height="24.000000" rx="0" ry="0" style="stroke:none;fill:#47945E;"/>
<text x="252.550000" y="38.000000" font-family="Arial" font-size="7" text-anchor="middle" fill="#FFFFFF">sig</text>
<circle cx="242.550000" cy="26.000000" r="1"/>
<rect x="210.650000" y="57.000000" width="25.800000" height="24.000000" rx="0" ry="0" style="stroke:none;fill:#cccccc;"/>
<rect x="209.650000" y="56.000000" width="25.800000" height="24.000000" rx="0" ry="0" style="stroke:none;fill:#f44800;"/>
<text x="222.550000" y="70.000000" font-family="Arial" font-size="7" text-anchor="middle" fill="#FFFFFF">65537</text>
<circle cx="211.650000" cy="58.000000" r="1"/>
<rect x="191.550000" y="89.000000" width="24.000000" height="24.000000" rx="0" ry="0" style="stroke:none;fill:#cccccc;"/>
<rect x="190.550000" y="88.000000" width="24.000000" height="24.000000" rx="0" ry="0" style="stroke:none;fill:#f44800;"/>
<text x="202.550000" y="102.000000" font-family="Arial" font-size="7" text-anchor="middle" fill="#FFFFFF">0</text>
<circle cx="192.550000" cy="90.000000" r="1"/>
<a xlink:href="d-0x7f9cc54873e0.svg">
<rect x="135.550000" y="121.000000" width="24.000000" height="24.000000" rx="0" ry="0" style="stroke:none;fill:#cccccc;"/>
<rect x="134.550000" y="120.000000" width="24.000000" height="24.000000" rx="0" ry="0" style="stroke:none;fill:#003366;"/>
</a>
<a xlink:href="d-0x7f9cc54873e0.svg">
<text x="146.550000" y="134.000000" font-family="Arial" font-size="7" text-anchor="middle" fill="#FFFFFF">d</text>
</a>
<circle cx="136.550000" cy="122.000000" r="1"/>
<rect x="25.000000" y="153.000000" width="245.100000" height="24.000000" rx="0" ry="0" style="stroke:none;fill:#cccccc;"/>
<rect x="24.000000" y="152.000000" width="245.100000" height="24.000000" rx="0" ry="0" style="stroke:none;fill:#477881;"/>
<text x="146.550000" y="166.000000" font-family="Arial" font-size="7" text-anchor="middle" fill="#FFFFFF">hslider(window (samples), 1000.0f, 50.0f, 10000.0f, 1.0f)</text>
<circle cx="26.000000" cy="154.000000" r="1"/>
<rect x="286.100000" y="137.000000" width="24.000000" height="24.000000" rx="0" ry="0" style="stroke:none;fill:#cccccc;"/>
<rect x="285.100000" y="136.000000" width="24.000000" height="24.000000" rx="0" ry="0" style="stroke:none;fill:#4B71A1;"/>
<text x="297.100000" y="150.000000" font-family="Arial" font-size="7" text-anchor="middle" fill="#FFFFFF">+</text>
<circle cx="287.100000" cy="138.000000" r="1"/>
<line x1="282.100000" y1="143.000000" x2="285.100000" y2="144.000000"  transform="rotate(0.000000,285.100000,144.000000)" style="stroke: black; stroke-width:0.25;"/>
<line x1="282.100000" y1="145.000000" x2="285.100000" y2="144.000000"  transform="rotate(0.000000,285.100000,144.000000)" style="stroke: black; stroke-width:0.25;"/>
<line x1="282.100000" y1="151.000000" x2="285.100000" y2="152.000000"  transform="rotate(0.000000,285.100000,152.000000)" style="stroke: black; stroke-width:0.25;"/>
<line x1="282.100000" y1="153.000000" x2="285.100000" y2="152.000000"  transform="rotate(0.000000,285.100000,152.000000)" style="stroke: black; stroke-width:0.25;"/>
<rect x="318.100000" y="137.000000" width="24.000000" height="24.000000" rx="0" ry="0" style="stroke:none;fill:#cccccc;"/>
<rect x="317.100000" y="136.000000" width="24.000000" height="24.000000" rx="0" ry="0" style="stroke:none;fill:#4B71A1;"/>
<text x="329.100000" y="150.000000" font-family="Arial" font-size="7" text-anchor="middle" fill="#FFFFFF">int</text>
<circle cx="319.100000" cy="138.000000" r="1"/>
<line x1="314.100000" y1="147.000000" x2="317.100000" y2="148.000000"  transform="rotate(0.000000,317.100000,148.000000)" style="stroke: black; stroke-width:0.25;"/>
<line x1="314.100000" y1="149.000000" x2="317.100000" y2="148.000000"  transform="rotate(0.000000,317.100000,148.000000)" style="stroke: black; stroke-width:0.25;"/>
<rect x="171.550000" y="185.000000" width="24.000000" height="24.000000" rx="0" ry="0" style="stroke:none;fill:#cccccc;"/>
<rect x="170.550000" y="184.000000" width="24.000000" height="24.000000" rx="0" ry="0" style="stroke:none;fill:#f44800;"/>
<text x="182.550000" y="198.000000" font-family="Arial" font-size="7" text-anchor="middle" fill="#FFFFFF">1</text>
<circle cx="172.550000" cy="186.000000" r="1"/>
<rect x="358.100000" y="153.000000" width="24.000000" height="24.000000" rx="0" ry="0" style="stroke:none;fill:#cccccc;"/>
<rect x="357.100000" y="152.000000" width="24.000000" height="24.000000" rx="0" ry="0" style="stroke:none;fill:#4B71A1;"/>
<text x="369.100000" y="166.000000" font-family="Arial" font-size="7" text-anchor="middle" fill="#FFFFFF">+</text>
<circle cx="359.100000" cy="154.000000" r="1"/>
<line x1="354.100000" y1="159.000000" x2="357.100000" y2="160.000000"  transform="rotate(0.000000,357.100000,160.000000)" style="stroke: black; stroke-width:0.25;"/>
<line x1="354.100000" y1="161.000000" x2="357.100000" y2="160.000000"  transform="rotate(0.000000,357.100000,160.000000)" style="stroke: black; stroke-width:0.25;"/>
<line x1="354.100000" y1="167.000000" x2="357.100000" y2="168.000000"  transform="rotate(0.000000,357.100000,168.000000)" style="stroke: black; stroke-width:0.25;"/>
<line x1="354.100000" y1="169.000000" x2="357.100000" y2="168.000000"  transform="rotate(0.000000,357.100000,168.000000)" style="stroke: black; stroke-width:0.25;"/>
<rect x="398.100000" y="137.000000" width="24.000000" height="24.000000" rx="0" ry="0" style="stroke:none;fill:#cccccc;"/>
<rect x="397.100000" y="136.000000" width="24.000000" height="24.000000" rx="0" ry="0" style="stroke:none;fill:#4B71A1;"/>
<text x="409.100000" y="150.000000" font-family="Arial" font-size="7" text-anchor="middle" fill="#FFFFFF">max</text>
<circle cx="399.100000" cy="138.000000" r="1"/>
<line x1="394.100000" y1="143.000000" x2="397.100000" y2="144.000000"  transform="rotate(0.000000,397.100000,144.000000)" style="stroke: black; stroke-width:0.25;"/>
<line x1="394.100000" y1="145.000000" x2="397.100000" y2="144.000000"  transform="rotate(0.000000,397.100000,144.000000)" style="stroke: black; stroke-width:0.25;"/>
<line x1="394.100000" y1="151.000000" x2="397.100000" y2="152.000000"  transform="rotate(0.000000,397.100000,152.000000)" style="stroke: black; stroke-width:0.25;"/>
<line x1="394.100000" y1="153.000000" x2="397.100000" y2="152.000000"  transform="rotate(0.000000,397.100000,152.000000)" style="stroke: black; stroke-width:0.25;"/>
<rect x="448.100000" y="121.000000" width="24.000000" height="24.000000" rx="0" ry="0" style="stroke:none;fill:#cccccc;"/>
<rect x="447.100000" y="120.000000" width="24.000000" height="24.000000" rx="0" ry="0" style="stroke:none;fill:#4B71A1;"/>
<text x="459.100000" y="134.000000" font-family="Arial" font-size="7" text-anchor="middle" fill="#FFFFFF">min</text>
<circle cx="449.100000" cy="122.000000" r="1"/>
<line x1="444.100000" y1="127.000000" x2="447.100000" y2="128.000000"  transform="rotate(0.000000,447.100000,128.000000)" style="stroke: black; stroke-width:0.25;"/>
<line x1="444.100000" y1="129.000000" x2="447.100000" y2="128.000000"  transform="rotate(0.000000,447.100000,128.000000)" style="stroke: black; stroke-width:0.25;"/>
<line x1="444.100000" y1="135.000000" x2="447.100000" y2="136.000000"  transform="rotate(0.000000,447.100000,136.000000)" style="stroke: black; stroke-width:0.25;"/>
<line x1="444.100000" y1="137.000000" x2="447.100000" y2="136.000000"  transform="rotate(0.000000,447.100000,136.000000)" style="stroke: black; stroke-width:0.25;"/>
<line x1="438.100000" y1="111.000000" x2="438.100000" y2="153.000000"  style="stroke: black; stroke-linecap:round; stroke-width:0.25; stroke-dasharray:3,3;"/>
<line x1="438.100000" y1="153.000000" x2="480.100000" y2="153.000000"  style="stroke: black; stroke-linecap:round; stroke-width:0.25; stroke-dasharray:3,3;"/>
<line x1="480.100000" y1="153.000000" x2="480.100000" y2="111.000000"  style="stroke: black; stroke-linecap:round; stroke-width:0.25; stroke-dasharray:3,3;"/>
<line x1="438.100000" y1="111.000000" x2="443.100000" y2="111.000000"  style="stroke: black; stroke-linecap:round; stroke-width:0.25; stroke-dasharray:3,3;"/>
<line x1="462.450000" y1="111.000000" x2="480.100000" y2="111.000000"  style="stroke: black; stroke-linecap:round; stroke-width:0.25; stroke-dasharray:3,3;"/>
<text x="443.100000" y="113.000000" font-family="Arial" font-size="7">fmin</text>
<rect x="498.100000" y="105.000000" width="24.000000" height="24.000000" rx="0" ry="0" style="stroke:none;fill:#cccccc;"/>
<rect x="497.100000" y="104.000000" width="24.000000" height="24.000000" rx="0" ry="0" style="stroke:none;fill:#4B71A1;"/>
<text x="509.100000" y="118.000000" font-family="Arial" font-size="7" text-anchor="middle" fill="#FFFFFF">@</text>
<circle cx="499.100000" cy="106.000000" r="1"/>
<line x1="494.100000" y1="111.000000" x2="497.100000" y2="112.000000"  transform="rotate(0.000000,497.100000,112.000000)" style="stroke: black; stroke-width:0.25;"/>
<line x1="494.100000" y1="113.000000" x2="497.100000" y2="112.000000"  transform="rotate(0.000000,497.100000,112.000000)" style="stroke: black; stroke-width:0.25;"/>
<line x1="494.100000" y1="119.000000" x2="497.100000" y2="120.000000"  transform="rotate(0.000000,497.100000,120.000000)" style="stroke: black; stroke-width:0.25;"/>
<line x1="494.100000" y1="121.000000" x2="497.100000" y2="120.000000"  transform="rotate(0.000000,497.100000,120.000000)" style="stroke: black; stroke-width:0.25;"/>
<line x1="15.000000" y1="15.000000" x2="15.000000" y2="217.000000"  style="stroke: black; stroke-linecap:round; stroke-width:0.25; stroke-dasharray:3,3;"/>
<line x1="15.000000" y1="217.000000" x2="538.100000" y2="217.000000"  style="stroke: black; stroke-linecap:round; stroke-width:0.25; stroke-dasharray:3,3;"/>
<line x1="538.100000" y1="217.000000" x2="538.100000" y2="15.000000"  style="stroke: black; stroke-linecap:round; stroke-width:0.25; stroke-dasharray:3,3;"/>
<line x1="15.000000" y1="15.000000" x2="20.000000" y2="15.000000"  style="stroke: black; stroke-linecap:round; stroke-width:0.25; stroke-dasharray:3,3;"/>
<line x1="132.875000" y1="15.000000" x2="538.100000" y2="15.000000"  style="stroke: black; stroke-linecap:round; stroke-width:0.25; stroke-dasharray:3,3;"/>
<text x="20.000000" y="17.000000" font-family="Arial" font-size="7">delay(65537)(...: int),1 : +)(x1)</text>
<line x1="540.100000" y1="115.000000" x2="543.100000" y2="116.000000"  transform="rotate(0.000000,543.100000,116.000000)" style="stroke: black; stroke-width:0.25;"/>
<line x1="540.100000" y1="117.000000" x2="543.100000" y2="116.000000"  transform="rotate(0.000000,543.100000,116.000000)" style="stroke: black; stroke-width:0.25;"/>
<line x1="158.550000" y1="132.000000" x2="162.550000" y2="132.000000"  style="stroke:black; stroke-linecap:round; stroke-width:0.25;"/>
<line x1="162.550000" y1="132.000000" x2="273.100000" y2="132.000000"  style="stroke:black; stroke-linecap:round; stroke-width:0.25;"/>
<line x1="194.550000" y1="196.000000" x2="198.550000" y2="196.000000"  style="stroke:black; stroke-linecap:round; stroke-width:0.25;"/>
<line x1="198.550000" y1="196.000000" x2="345.100000" y2="196.000000"  style="stroke:black; stroke-linecap:round; stroke-width:0.25;"/>
<line x1="214.550000" y1="100.000000" x2="218.550000" y2="100.000000"  style="stroke:black; stroke-linecap:round; stroke-width:0.25;"/>
<line x1="218.550000" y1="100.000000" x2="385.100000" y2="100.000000"  style="stroke:black; stroke-linecap:round; stroke-width:0.25;"/>
<line x1="235.450000" y1="68.000000" x2="239.450000" y2="68.000000"  style="stroke:black; stroke-linecap:round; stroke-width:0.25;"/>
<line x1="239.450000" y1="68.000000" x2="425.100000" y2="68.000000"  style="stroke:black; stroke-linecap:round; stroke-width:0.25;"/>
<line x1="264.550000" y1="36.000000" x2="268.550000" y2="36.000000"  style="stroke:black; stroke-linecap:round; stroke-width:0.25;"/>
<line x1="268.550000" y1="36.000000" x2="485.100000" y2="36.000000"  style="stroke:black; stroke-linecap:round; stroke-width:0.25;"/>
<line x1="269.100000" y1="164.000000" x2="273.100000" y2="164.000000"  style="stroke:black; stroke-linecap:round; stroke-width:0.25;"/>
<line x1="273.100000" y1="132.000000" x2="281.100000" y2="132.000000"  style="stroke:black; stroke-linecap:round; stroke-width:0.25;"/>
<line x1="273.100000" y1="152.000000" x2="281.100000" y2="152.000000"  style="stroke:black; stroke-linecap:round; stroke-width:0.25;"/>
<line x1="273.100000" y1="164.000000" x2="273.100000" y2="152.000000"  style="stroke:black; stroke-linecap:round; stroke-width:0.25;"/>
<line x1="273.100000" y1="164.000000" x2="273.100000" y2="164.000000"  style="stroke:black; stroke-linecap:round; stroke-width:0.25;"/>
<line x1="281.100000" y1="132.000000" x2="281.100000" y2="144.000000"  style="stroke:black; stroke-linecap:round; stroke-width:0.25;"/>
<line x1="281.100000" y1="144.000000" x2="281.100000" y2="144.000000"  style="stroke:black; stroke-linecap:round; stroke-width:0.25;"/>
<line x1="281.100000" y1="144.000000" x2="285.100000" y2="144.000000"  style="stroke:black; stroke-linecap:round; stroke-width:0.25;"/>
<line x1="281.100000" y1="152.000000" x2="285.100000" y2="152.000000"  style="stroke:black; stroke-linecap:round; stroke-width:0.25;"/>
<line x1="309.100000" y1="148.000000" x2="313.100000" y2="148.000000"  style="stroke:black; stroke-linecap:round; stroke-width:0.25;"/>
<line x1="313.100000" y1="148.000000" x2="313.100000" y2="148.000000"  style="stroke:black; stroke-linecap:round; stroke-width:0.25;"/>
<line x1="313.100000" y1="148.000000" x2="317.100000" y2="148.000000"  style="stroke:black; stroke-linecap:round; stroke-width:0.25;"/>
<line x1="341.100000" y1="148.000000" x2="345.100000" y2="148.000000"  style="stroke:black; stroke-linecap:round; stroke-width:0.25;"/>
<line x1="345.100000" y1="148.000000" x2="353.100000" y2="148.000000"  style="stroke:black; stroke-linecap:round; stroke-width:0.25;"/>
<line x1="345.100000" y1="168.000000" x2="353.100000" y2="168.000000"  style="stroke:black; stroke-linecap:round; stroke-width:0.25;"/>
<line x1="345.100000" y1="196.000000" x2="345.100000" y2="168.000000"  style="stroke:black; stroke-linecap:round; stroke-width:0.25;"/>
<line x1="345.100000" y1="196.000000" x2="345.100000" y2="196.000000"  style="stroke:black; stroke-linecap:round; stroke-width:0.25;"/>
<line x1="353.100000" y1="148.000000" x2="353.100000" y2="160.000000"  style="stroke:black; stroke-linecap:round; stroke-width:0.25;"/>
<line x1="353.100000" y1="160.000000" x2="353.100000" y2="160.000000"  style="stroke:black; stroke-linecap:round; stroke-width:0.25;"/>
<line x1="353.100000" y1="160.000000" x2="357.100000" y2="160.000000"  style="stroke:black; stroke-linecap:round; stroke-width:0.25;"/>
<line x1="353.100000" y1="168.000000" x2="357.100000" y2="168.000000"  style="stroke:black; stroke-linecap:round; stroke-width:0.25;"/>
<line x1="381.100000" y1="164.000000" x2="385.100000" y2="164.000000"  style="stroke:black; stroke-linecap:round; stroke-width:0.25;"/>
<line x1="385.100000" y1="100.000000" x2="393.100000" y2="100.000000"  style="stroke:black; stroke-linecap:round; stroke-width:0.25;"/>
<line x1="385.100000" y1="152.000000" x2="393.100000" y2="152.000000"  style="stroke:black; stroke-linecap:round; stroke-width:0.25;"/>
<line x1="385.100000" y1="164.000000" x2="385.100000" y2="152.000000"  style="stroke:black; stroke-linecap:round; stroke-width:0.25;"/>
<line x1="385.100000" y1="164.000000" x2="385.100000" y2="164.000000"  style="stroke:black; stroke-linecap:round; stroke-width:0.25;"/>
<line x1="393.100000" y1="100.000000" x2="393.100000" y2="144.000000"  style="stroke:black; stroke-linecap:round; stroke-width:0.25;"/>
<line x1="393.100000" y1="144.000000" x2="393.100000" y2="144.000000"  style="stroke:black; stroke-linecap:round; stroke-width:0.25;"/>
<line x1="393.100000" y1="144.000000" x2="397.100000" y2="144.000000"  style="stroke:black; stroke-linecap:round; stroke-width:0.25;"/>
<line x1="393.100000" y1="152.000000" x2="397.100000" y2="152.000000"  style="stroke:black; stroke-linecap:round; stroke-width:0.25;"/>
<line x1="421.100000" y1="148.000000" x2="425.100000" y2="148.000000"  style="stroke:black; stroke-linecap:round; stroke-width:0.25;"/>
<line x1="425.100000" y1="68.000000" x2="433.100000" y2="68.000000"  style="stroke:black; stroke-linecap:round; stroke-width:0.25;"/>
<line x1="425.100000" y1="136.000000" x2="433.100000" y2="136.000000"  style="stroke:black; stroke-linecap:round; stroke-width:0.25;"/>
<line x1="425.100000" y1="148.000000" x2="425.100000" y2="136.000000"  style="stroke:black; stroke-linecap:round; stroke-width:0.25;"/>
<line x1="425.100000" y1="148.000000" x2="425.100000" y2="148.000000"  style="stroke:black; stroke-linecap:round; stroke-width:0.25;"/>
<line x1="433.100000" y1="68.000000" x2="433.100000" y2="128.000000"  style="stroke:black; stroke-linecap:round; stroke-width:0.25;"/>
<line x1="433.100000" y1="128.000000" x2="433.100000" y2="128.000000"  style="stroke:black; stroke-linecap:round; stroke-width:0.25;"/>
<line x1="433.100000" y1="128.000000" x2="443.100000" y2="128.000000"  style="stroke:black; stroke-linecap:round; stroke-width:0.25;"/>
<line x1="433.100000" y1="136.000000" x2="443.100000" y2="136.000000"  style="stroke:black; stroke-linecap:round; stroke-width:0.25;"/>
<line x1="443.100000" y1="128.000000" x2="447.100000" y2="128.000000"  style="stroke:black; stroke-linecap:round; stroke-width:0.25;"/>
<line x1="443.100000" y1="136.000000" x2="447.100000" y2="136.000000"  style="stroke:black; stroke-linecap:round; stroke-width:0.25;"/>
<line x1="471.100000" y1="132.000000" x2="475.100000" y2="132.000000"  style="stroke:black; stroke-linecap:round; stroke-width:0.25;"/>
<line x1="475.100000" y1="132.000000" x2="485.100000" y2="132.000000"  style="stroke:black; stroke-linecap:round; stroke-width:0.25;"/>
<line x1="485.100000" y1="36.000000" x2="493.100000" y2="36.000000"  style="stroke:black; stroke-linecap:round; stroke-width:0.25;"/>
<line x1="485.100000" y1="120.000000" x2="493.100000" y2="120.000000"  style="stroke:black; stroke-linecap:round; stroke-width:0.25;"/>
<line x1="485.100000" y1="132.000000" x2="485.100000" y2="120.000000"  style="stroke:black; stroke-linecap:round; stroke-width:0.25;"/>
<line x1="485.100000" y1="132.000000" x2="485.100000" y2="132.000000"  style="stroke:black; stroke-linecap:round; stroke-width:0.25;"/>
<line x1="493.100000" y1="36.000000" x2="493.100000" y2="112.000000"  style="stroke:black; stroke-linecap:round; stroke-width:0.25;"/>
<line x1="493.100000" y1="112.000000" x2="493.100000" y2="112.000000"  style="stroke:black; stroke-linecap:round; stroke-width:0.25;"/>
<line x1="493.100000" y1="112.000000" x2="497.100000" y2="112.000000"  style="stroke:black; stroke-linecap:round; stroke-width:0.25;"/>
<line x1="493.100000" y1="120.000000" x2="497.100000" y2="120.000000"  style="stroke:black; stroke-linecap:round; stroke-width:0.25;"/>
<line x1="521.100000" y1="116.000000" x2="525.100000" y2="116.000000"  style="stroke:black; stroke-linecap:round; stroke-width:0.25;"/>
<line x1="525.100000" y1="116.000000" x2="525.100000" y2="116.000000"  style="stroke:black; stroke-linecap:round; stroke-width:0.25;"/>
<line x1="525.100000" y1="116.000000" x2="529.100000" y2="116.000000"  style="stroke:black; stroke-linecap:round; stroke-width:0.25;"/>
<line x1="529.100000" y1="116.000000" x2="533.100000" y2="116.000000"  style="stroke:black; stroke-linecap:round; stroke-width:0.25;"/>
<line x1="533.100000" y1="116.000000" x2="543.100000" y2="116.000000"  style="stroke:black; stroke-linecap:round; stroke-width:0.25;"/>
</svg>
