<?xml version="1.0"?>
<svg xmlns="http://www.w3.org/2000/svg" xmlns:xlink="http://www.w3.org/1999/xlink" viewBox="0 0 305.000000 200.000000" width="152.500000mm" height="100.000000mm" version="1.1">
<a xlink:href="transpose-0x7f9cc54ec360.svg">
<rect x="1.000000" y="1.000000" width="304.000000" height="199.000000" rx="0" ry="0" style="stroke:none;fill:#cccccc;"/>
<rect x="0.000000" y="0.000000" width="304.000000" height="199.000000" rx="0" ry="0" style="stroke:none;fill:#ffffff;"/>
</a>
<text x="10.000000" y="7.000000" font-family="Arial" font-size="7"></text>
<a xlink:href="delay-0x7f9cc54e3110.svg">
<rect x="38.550000" y="25.000000" width="141.900000" height="24.000000" rx="0" ry="0" style="stroke:none;fill:#cccccc;"/>
<rect x="37.550000" y="24.000000" width="141.900000" height="24.000000" rx="0" ry="0" style="stroke:none;fill:#003366;"/>
</a>
<a xlink:href="delay-0x7f9cc54e3110.svg">
<text x="108.500000" y="38.000000" font-family="Arial" font-size="7" text-anchor="middle" fill="#FFFFFF">delay(65537)(...f) : + : int)(x1)</text>
</a>
<circle cx="39.550000" cy="26.000000" r="1"/>
<rect x="77.500000" y="57.000000" width="24.000000" height="24.000000" rx="0" ry="0" style="stroke:none;fill:#cccccc;"/>
<rect x="76.500000" y="56.000000" width="24.000000" height="24.000000" rx="0" ry="0" style="stroke:none;fill:#f44800;"/>
<text x="88.500000" y="70.000000" font-family="Arial" font-size="7" text-anchor="middle" fill="#FFFFFF">1</text>
<circle cx="78.500000" cy="58.000000" r="1"/>
<a xlink:href="decimal-0x7f9cc54e46b0.svg">
<rect x="25.000000" y="89.000000" width="129.000000" height="24.000000" rx="0" ry="0" style="stroke:none;fill:#cccccc;"/>
<rect x="24.000000" y="88.000000" width="129.000000" height="24.000000" rx="0" ry="0" style="stroke:none;fill:#003366;"/>
</a>
<a xlink:href="decimal-0x7f9cc54e46b0.svg">
<text x="88.500000" y="102.000000" font-family="Arial" font-size="7" text-anchor="middle" fill="#FFFFFF">decimal((1,(2...f, 1.0f) : +)</text>
</a>
<circle cx="26.000000" cy="90.000000" r="1"/>
<rect x="170.000000" y="73.000000" width="24.000000" height="24.000000" rx="0" ry="0" style="stroke:none;fill:#cccccc;"/>
<rect x="169.000000" y="72.000000" width="24.000000" height="24.000000" rx="0" ry="0" style="stroke:none;fill:#4B71A1;"/>
<text x="181.000000" y="86.000000" font-family="Arial" font-size="7" text-anchor="middle" fill="#FFFFFF">-</text>
<circle cx="171.000000" cy="74.000000" r="1"/>
<line x1="166.000000" y1="79.000000" x2="169.000000" y2="80.000000"  transform="rotate(0.000000,169.000000,80.000000)" style="stroke: black; stroke-width:0.25;"/>
<line x1="166.000000" y1="81.000000" x2="169.000000" y2="80.000000"  transform="rotate(0.000000,169.000000,80.000000)" style="stroke: black; stroke-width:0.25;"/>
<line x1="166.000000" y1="87.000000" x2="169.000000" y2="88.000000"  transform="rotate(0.000000,169.000000,88.000000)" style="stroke: black; stroke-width:0.25;"/>
<line x1="166.000000" y1="89.000000" x2="169.000000" y2="88.000000"  transform="rotate(0.000000,169.000000,88.000000)" style="stroke: black; stroke-width:0.25;"/>
<rect x="210.000000" y="57.000000" width="24.000000" height="24.000000" rx="0" ry="0" style="stroke:none;fill:#cccccc;"/>
<rect x="209.000000" y="56.000000" width="24.000000" height="24.000000" rx="0" ry="0" style="stroke:none;fill:#4B71A1;"/>
<text x="221.000000" y="70.000000" font-family="Arial" font-size="7" text-anchor="middle" fill="#FFFFFF">*</text>
<circle cx="211.000000" cy="58.000000" r="1"/>
<line x1="206.000000" y1="63.000000" x2="209.000000" y2="64.000000"  transform="rotate(0.000000,209.000000,64.000000)" style="stroke: black; stroke-width:0.25;"/>
<line x1="206.000000" y1="65.000000" x2="209.000000" y2="64.000000"  transform="rotate(0.000000,209.000000,64.000000)" style="stroke: black; stroke-width:0.25;"/>
<line x1="206.000000" y1="71.000000" x2="209.000000" y2="72.000000"  transform="rotate(0.000000,209.000000,72.000000)" style="stroke: black; stroke-width:0.25;"/>
<line x1="206.000000" y1="73.000000" x2="209.000000" y2="72.000000"  transform="rotate(0.000000,209.000000,72.000000)" style="stroke: black; stroke-width:0.25;"/>
<a xlink:href="delay-0x7f9cc54eab10.svg">
<rect x="38.550000" y="121.000000" width="141.900000" height="24.000000" rx="0" ry="0" style="stroke:none;fill:#cccccc;"/>
<rect x="37.550000" y="120.000000" width="141.900000" height="24.000000" rx="0" ry="0" style="stroke:none;fill:#003366;"/>
</a>
<a xlink:href="delay-0x7f9cc54eab10.svg">
<text x="108.500000" y="134.000000" font-family="Arial" font-size="7" text-anchor="middle" fill="#FFFFFF">delay(65537)(...: int),1 : +)(x1)</text>
</a>
<circle cx="39.550000" cy="122.000000" r="1"/>
<a xlink:href="decimal-0x7f9cc54e46b0.svg">
<rect x="45.000000" y="153.000000" width="129.000000" height="24.000000" rx="0" ry="0" style="stroke:none;fill:#cccccc;"/>
<rect x="44.000000" y="152.000000" width="129.000000" height="24.000000" rx="0" ry="0" style="stroke:none;fill:#003366;"/>
</a>
<a xlink:href="decimal-0x7f9cc54e46b0.svg">
<text x="108.500000" y="166.000000" font-family="Arial" font-size="7" text-anchor="middle" fill="#FFFFFF">decimal((1,(2...f, 1.0f) : +)</text>
</a>
<circle cx="46.000000" cy="154.000000" r="1"/>
<rect x="196.450000" y="137.000000" width="24.000000" height="24.000000" rx="0" ry="0" style="stroke:none;fill:#cccccc;"/>
<rect x="195.450000" y="136.000000" width="24.000000" height="24.000000" rx="0" ry="0" style="stroke:none;fill:#4B71A1;"/>
<text x="207.450000" y="150.000000" font-family="Arial" font-size="7" text-anchor="middle" fill="#FFFFFF">*</text>
<circle cx="197.450000" cy="138.000000" r="1"/>
<line x1="192.450000" y1="143.000000" x2="195.450000" y2="144.000000"  transform="rotate(0.000000,195.450000,144.000000)" style="stroke: black; stroke-width:0.25;"/>
<line x1="192.450000" y1="145.000000" x2="195.450000" y2="144.000000"  transform="rotate(0.000000,195.450000,144.000000)" style="stroke: black; stroke-width:0.25;"/>
<line x1="192.450000" y1="151.000000" x2="195.450000" y2="152.000000"  transform="rotate(0.000000,195.450000,152.000000)" style="stroke: black; stroke-width:0.25;"/>
<line x1="192.450000" y1="153.000000" x2="195.450000" y2="152.000000"  transform="rotate(0.000000,195.450000,152.000000)" style="stroke: black; stroke-width:0.25;"/>
<rect x="250.000000" y="89.000000" width="24.000000" height="24.000000" rx="0" ry="0" style="stroke:none;fill:#cccccc;"/>
<rect x="249.000000" y="88.000000" width="24.000000" height="24.000000" rx="0" ry="0" style="stroke:none;fill:#4B71A1;"/>
<text x="261.000000" y="102.000000" font-family="Arial" font-size="7" text-anchor="middle" fill="#FFFFFF">+</text>
<circle cx="251.000000" cy="90.000000" r="1"/>
<line x1="246.000000" y1="95.000000" x2="249.000000" y2="96.000000"  transform="rotate(0.000000,249.000000,96.000000)" style="stroke: black; stroke-width:0.25;"/>
<line x1="246.000000" y1="97.000000" x2="249.000000" y2="96.000000"  transform="rotate(0.000000,249.000000,96.000000)" style="stroke: black; stroke-width:0.25;"/>
<line x1="246.000000" y1="103.000000" x2="249.000000" y2="104.000000"  transform="rotate(0.000000,249.000000,104.000000)" style="stroke: black; stroke-width:0.25;"/>
<line x1="246.000000" y1="105.000000" x2="249.000000" y2="104.000000"  transform="rotate(0.000000,249.000000,104.000000)" style="stroke: black; stroke-width:0.25;"/>
<line x1="15.000000" y1="15.000000" x2="15.000000" y2="185.000000"  style="stroke: black; stroke-linecap:round; stroke-width:0.25; stroke-dasharray:3,3;"/>
<line x1="15.000000" y1="185.000000" x2="290.000000" y2="185.000000"  style="stroke: black; stroke-linecap:round; stroke-width:0.25; stroke-dasharray:3,3;"/>
<line x1="290.000000" y1="185.000000" x2="290.000000" y2="15.000000"  style="stroke: black; stroke-linecap:round; stroke-width:0.25; stroke-dasharray:3,3;"/>
<line x1="15.000000" y1="15.000000" x2="20.000000" y2="15.000000"  style="stroke: black; stroke-linecap:round; stroke-width:0.25; stroke-dasharray:3,3;"/>
<line x1="132.875000" y1="15.000000" x2="290.000000" y2="15.000000"  style="stroke: black; stroke-linecap:round; stroke-width:0.25; stroke-dasharray:3,3;"/>
<text x="20.000000" y="17.000000" font-family="Arial" font-size="7">fdelay(65536)...f, 1.0f) : +)(x1)</text>
<line x1="292.000000" y1="99.000000" x2="295.000000" y2="100.000000"  transform="rotate(0.000000,295.000000,100.000000)" style="stroke: black; stroke-width:0.25;"/>
<line x1="292.000000" y1="101.000000" x2="295.000000" y2="100.000000"  transform="rotate(0.000000,295.000000,100.000000)" style="stroke: black; stroke-width:0.25;"/>
<line x1="100.500000" y1="68.000000" x2="104.500000" y2="68.000000"  style="stroke:black; stroke-linecap:round; stroke-width:0.25;"/>
<line x1="104.500000" y1="68.000000" x2="157.000000" y2="68.000000"  style="stroke:black; stroke-linecap:round; stroke-width:0.25;"/>
<line x1="153.000000" y1="100.000000" x2="157.000000" y2="100.000000"  style="stroke:black; stroke-linecap:round; stroke-width:0.25;"/>
<line x1="157.000000" y1="68.000000" x2="165.000000" y2="68.000000"  style="stroke:black; stroke-linecap:round; stroke-width:0.25;"/>
<line x1="157.000000" y1="88.000000" x2="165.000000" y2="88.000000"  style="stroke:black; stroke-linecap:round; stroke-width:0.25;"/>
<line x1="157.000000" y1="100.000000" x2="157.000000" y2="88.000000"  style="stroke:black; stroke-linecap:round; stroke-width:0.25;"/>
<line x1="157.000000" y1="100.000000" x2="157.000000" y2="100.000000"  style="stroke:black; stroke-linecap:round; stroke-width:0.25;"/>
<line x1="165.000000" y1="68.000000" x2="165.000000" y2="80.000000"  style="stroke:black; stroke-linecap:round; stroke-width:0.25;"/>
<line x1="165.000000" y1="80.000000" x2="165.000000" y2="80.000000"  style="stroke:black; stroke-linecap:round; stroke-width:0.25;"/>
<line x1="165.000000" y1="80.000000" x2="169.000000" y2="80.000000"  style="stroke:black; stroke-linecap:round; stroke-width:0.25;"/>
<line x1="165.000000" y1="88.000000" x2="169.000000" y2="88.000000"  style="stroke:black; stroke-linecap:round; stroke-width:0.25;"/>
<line x1="173.000000" y1="164.000000" x2="177.000000" y2="164.000000"  style="stroke:black; stroke-linecap:round; stroke-width:0.25;"/>
<line x1="177.000000" y1="164.000000" x2="183.450000" y2="164.000000"  style="stroke:black; stroke-linecap:round; stroke-width:0.25;"/>
<line x1="179.450000" y1="36.000000" x2="183.450000" y2="36.000000"  style="stroke:black; stroke-linecap:round; stroke-width:0.25;"/>
<line x1="179.450000" y1="132.000000" x2="183.450000" y2="132.000000"  style="stroke:black; stroke-linecap:round; stroke-width:0.25;"/>
<line x1="183.450000" y1="36.000000" x2="197.000000" y2="36.000000"  style="stroke:black; stroke-linecap:round; stroke-width:0.25;"/>
<line x1="183.450000" y1="132.000000" x2="191.450000" y2="132.000000"  style="stroke:black; stroke-linecap:round; stroke-width:0.25;"/>
<line x1="183.450000" y1="152.000000" x2="191.450000" y2="152.000000"  style="stroke:black; stroke-linecap:round; stroke-width:0.25;"/>
<line x1="183.450000" y1="164.000000" x2="183.450000" y2="152.000000"  style="stroke:black; stroke-linecap:round; stroke-width:0.25;"/>
<line x1="183.450000" y1="164.000000" x2="183.450000" y2="164.000000"  style="stroke:black; stroke-linecap:round; stroke-width:0.25;"/>
<line x1="191.450000" y1="132.000000" x2="191.450000" y2="144.000000"  style="stroke:black; stroke-linecap:round; stroke-width:0.25;"/>
<line x1="191.450000" y1="144.000000" x2="191.450000" y2="144.000000"  style="stroke:black; stroke-linecap:round; stroke-width:0.25;"/>
<line x1="191.450000" y1="144.000000" x2="195.450000" y2="144.000000"  style="stroke:black; stroke-linecap:round; stroke-width:0.25;"/>
<line x1="191.450000" y1="152.000000" x2="195.450000" y2="152.000000"  style="stroke:black; stroke-linecap:round; stroke-width:0.25;"/>
<line x1="193.000000" y1="84.000000" x2="197.000000" y2="84.000000"  style="stroke:black; stroke-linecap:round; stroke-width:0.25;"/>
<line x1="197.000000" y1="36.000000" x2="205.000000" y2="36.000000"  style="stroke:black; stroke-linecap:round; stroke-width:0.25;"/>
<line x1="197.000000" y1="72.000000" x2="205.000000" y2="72.000000"  style="stroke:black; stroke-linecap:round; stroke-width:0.25;"/>
<line x1="197.000000" y1="84.000000" x2="197.000000" y2="72.000000"  style="stroke:black; stroke-linecap:round; stroke-width:0.25;"/>
<line x1="197.000000" y1="84.000000" x2="197.000000" y2="84.000000"  style="stroke:black; stroke-linecap:round; stroke-width:0.25;"/>
<line x1="205.000000" y1="36.000000" x2="205.000000" y2="64.000000"  style="stroke:black; stroke-linecap:round; stroke-width:0.25;"/>
<line x1="205.000000" y1="64.000000" x2="205.000000" y2="64.000000"  style="stroke:black; stroke-linecap:round; stroke-width:0.25;"/>
<line x1="205.000000" y1="64.000000" x2="209.000000" y2="64.000000"  style="stroke:black; stroke-linecap:round; stroke-width:0.25;"/>
<line x1="205.000000" y1="72.000000" x2="209.000000" y2="72.000000"  style="stroke:black; stroke-linecap:round; stroke-width:0.25;"/>
<line x1="219.450000" y1="148.000000" x2="223.450000" y2="148.000000"  style="stroke:black; stroke-linecap:round; stroke-width:0.25;"/>
<line x1="223.450000" y1="148.000000" x2="237.000000" y2="148.000000"  style="stroke:black; stroke-linecap:round; stroke-width:0.25;"/>
<line x1="233.000000" y1="68.000000" x2="237.000000" y2="68.000000"  style="stroke:black; stroke-linecap:round; stroke-width:0.25;"/>
<line x1="237.000000" y1="68.000000" x2="245.000000" y2="68.000000"  style="stroke:black; stroke-linecap:round; stroke-width:0.25;"/>
<line x1="237.000000" y1="104.000000" x2="245.000000" y2="104.000000"  style="stroke:black; stroke-linecap:round; stroke-width:0.25;"/>
<line x1="237.000000" y1="148.000000" x2="237.000000" y2="104.000000"  style="stroke:black; stroke-linecap:round; stroke-width:0.25;"/>
<line x1="237.000000" y1="148.000000" x2="237.000000" y2="148.000000"  style="stroke:black; stroke-linecap:round; stroke-width:0.25;"/>
<line x1="245.000000" y1="68.000000" x2="245.000000" y2="96.000000"  style="stroke:black; stroke-linecap:round; stroke-width:0.25;"/>
<line x1="245.000000" y1="96.000000" x2="245.000000" y2="96.000000"  style="stroke:black; stroke-linecap:round; stroke-width:0.25;"/>
<line x1="245.000000" y1="96.000000" x2="249.000000" y2="96.000000"  style="stroke:black; stroke-linecap:round; stroke-width:0.25;"/>
<line x1="245.000000" y1="104.000000" x2="249.000000" y2="104.000000"  style="stroke:black; stroke-linecap:round; stroke-width:0.25;"/>
<line x1="273.000000" y1="100.000000" x2="277.000000" y2="100.000000"  style="stroke:black; stroke-linecap:round; stroke-width:0.25;"/>
<line x1="277.000000" y1="100.000000" x2="277.000000" y2="100.000000"  style="stroke:black; stroke-linecap:round; stroke-width:0.25;"/>
<line x1="277.000000" y1="100.000000" x2="281.000000" y2="100.000000"  style="stroke:black; stroke-linecap:round; stroke-width:0.25;"/>
<line x1="281.000000" y1="100.000000" x2="285.000000" y2="100.000000"  style="stroke:black; stroke-linecap:round; stroke-width:0.25;"/>
<line x1="285.000000" y1="100.000000" x2="295.000000" y2="100.000000"  style="stroke:black; stroke-linecap:round; stroke-width:0.25;"/>
</svg>
