<?xml version="1.0"?>
<svg xmlns="http://www.w3.org/2000/svg" xmlns:xlink="http://www.w3.org/1999/xlink" viewBox="0 0 252.100000 172.000000" width="126.050000mm" height="86.000000mm" version="1.1">
<a xlink:href="cubicnl-0x7fe1cdb39650.svg">
<rect x="1.000000" y="1.000000" width="251.100000" height="171.000000" rx="0" ry="0" style="stroke:none;fill:#cccccc;"/>
<rect x="0.000000" y="0.000000" width="251.100000" height="171.000000" rx="0" ry="0" style="stroke:none;fill:#ffffff;"/>
</a>
<text x="10.000000" y="7.000000" font-family="Arial" font-size="7"></text>
<rect x="61.000000" y="45.000000" width="77.400000" height="24.000000" rx="0" ry="0" style="stroke:none;fill:#cccccc;"/>
<rect x="60.000000" y="44.000000" width="77.400000" height="24.000000" rx="0" ry="0" style="stroke:none;fill:#477881;"/>
<text x="98.700000" y="58.000000" font-family="Arial" font-size="7" text-anchor="middle" fill="#FFFFFF">checkbox(Bypass)</text>
<circle cx="62.000000" cy="46.000000" r="1"/>
<line x1="51.000000" y1="35.000000" x2="51.000000" y2="77.000000"  style="stroke: black; stroke-linecap:round; stroke-width:0.25; stroke-dasharray:3,3;"/>
<line x1="51.000000" y1="77.000000" x2="146.400000" y2="77.000000"  style="stroke: black; stroke-linecap:round; stroke-width:0.25; stroke-dasharray:3,3;"/>
<line x1="146.400000" y1="77.000000" x2="146.400000" y2="35.000000"  style="stroke: black; stroke-linecap:round; stroke-width:0.25; stroke-dasharray:3,3;"/>
<line x1="51.000000" y1="35.000000" x2="56.000000" y2="35.000000"  style="stroke: black; stroke-linecap:round; stroke-width:0.25; stroke-dasharray:3,3;"/>
<line x1="146.400000" y1="35.000000" x2="146.400000" y2="35.000000"  style="stroke: black; stroke-linecap:round; stroke-width:0.25; stroke-dasharray:3,3;"/>
<text x="56.000000" y="37.000000" font-family="Arial" font-size="7">vgroup(CUBIC NONLINEARITY cubicnl)</text>
<line x1="41.000000" y1="25.000000" x2="41.000000" y2="87.000000"  style="stroke: black; stroke-linecap:round; stroke-width:0.25; stroke-dasharray:3,3;"/>
<line x1="41.000000" y1="87.000000" x2="156.400000" y2="87.000000"  style="stroke: black; stroke-linecap:round; stroke-width:0.25; stroke-dasharray:3,3;"/>
<line x1="156.400000" y1="87.000000" x2="156.400000" y2="25.000000"  style="stroke: black; stroke-linecap:round; stroke-width:0.25; stroke-dasharray:3,3;"/>
<line x1="41.000000" y1="25.000000" x2="46.000000" y2="25.000000"  style="stroke: black; stroke-linecap:round; stroke-width:0.25; stroke-dasharray:3,3;"/>
<line x1="58.900000" y1="25.000000" x2="156.400000" y2="25.000000"  style="stroke: black; stroke-linecap:round; stroke-width:0.25; stroke-dasharray:3,3;"/>
<text x="46.000000" y="27.000000" font-family="Arial" font-size="7">bp</text>
<rect x="87.700000" y="115.000000" width="24.000000" height="24.000000" rx="0" ry="0" style="stroke:none;fill:#cccccc;"/>
<rect x="86.700000" y="114.000000" width="24.000000" height="24.000000" rx="0" ry="0" style="stroke:none;fill:#f44800;"/>
<text x="98.700000" y="128.000000" font-family="Arial" font-size="7" text-anchor="middle" fill="#FFFFFF">0</text>
<circle cx="88.700000" cy="116.000000" r="1"/>
<line x1="77.700000" y1="105.000000" x2="77.700000" y2="147.000000"  style="stroke: black; stroke-linecap:round; stroke-width:0.25; stroke-dasharray:3,3;"/>
<line x1="77.700000" y1="147.000000" x2="119.700000" y2="147.000000"  style="stroke: black; stroke-linecap:round; stroke-width:0.25; stroke-dasharray:3,3;"/>
<line x1="119.700000" y1="147.000000" x2="119.700000" y2="105.000000"  style="stroke: black; stroke-linecap:round; stroke-width:0.25; stroke-dasharray:3,3;"/>
<line x1="77.700000" y1="105.000000" x2="82.700000" y2="105.000000"  style="stroke: black; stroke-linecap:round; stroke-width:0.25; stroke-dasharray:3,3;"/>
<line x1="102.050000" y1="105.000000" x2="119.700000" y2="105.000000"  style="stroke: black; stroke-linecap:round; stroke-width:0.25; stroke-dasharray:3,3;"/>
<text x="82.700000" y="107.000000" font-family="Arial" font-size="7">eq2l</text>
<rect x="182.400000" y="75.000000" width="38.700000" height="24.000000" rx="0" ry="0" style="stroke:none;fill:#cccccc;"/>
<rect x="181.400000" y="74.000000" width="38.700000" height="24.000000" rx="0" ry="0" style="stroke:none;fill:#4B71A1;"/>
<text x="200.750000" y="88.000000" font-family="Arial" font-size="7" text-anchor="middle" fill="#FFFFFF">select2</text>
<circle cx="183.400000" cy="76.000000" r="1"/>
<line x1="178.400000" y1="77.000000" x2="181.400000" y2="78.000000"  transform="rotate(0.000000,181.400000,78.000000)" style="stroke: black; stroke-width:0.25;"/>
<line x1="178.400000" y1="79.000000" x2="181.400000" y2="78.000000"  transform="rotate(0.000000,181.400000,78.000000)" style="stroke: black; stroke-width:0.25;"/>
<line x1="178.400000" y1="85.000000" x2="181.400000" y2="86.000000"  transform="rotate(0.000000,181.400000,86.000000)" style="stroke: black; stroke-width:0.25;"/>
<line x1="178.400000" y1="87.000000" x2="181.400000" y2="86.000000"  transform="rotate(0.000000,181.400000,86.000000)" style="stroke: black; stroke-width:0.25;"/>
<line x1="178.400000" y1="93.000000" x2="181.400000" y2="94.000000"  transform="rotate(0.000000,181.400000,94.000000)" style="stroke: black; stroke-width:0.25;"/>
<line x1="178.400000" y1="95.000000" x2="181.400000" y2="94.000000"  transform="rotate(0.000000,181.400000,94.000000)" style="stroke: black; stroke-width:0.25;"/>
<line x1="15.000000" y1="15.000000" x2="15.000000" y2="157.000000"  style="stroke: black; stroke-linecap:round; stroke-width:0.25; stroke-dasharray:3,3;"/>
<line x1="15.000000" y1="157.000000" x2="237.100000" y2="157.000000"  style="stroke: black; stroke-linecap:round; stroke-width:0.25; stroke-dasharray:3,3;"/>
<line x1="237.100000" y1="157.000000" x2="237.100000" y2="15.000000"  style="stroke: black; stroke-linecap:round; stroke-width:0.25; stroke-dasharray:3,3;"/>
<line x1="15.000000" y1="15.000000" x2="20.000000" y2="15.000000"  style="stroke: black; stroke-linecap:round; stroke-width:0.25; stroke-dasharray:3,3;"/>
<line x1="52.250000" y1="15.000000" x2="237.100000" y2="15.000000"  style="stroke: black; stroke-linecap:round; stroke-width:0.25; stroke-dasharray:3,3;"/>
<text x="20.000000" y="17.000000" font-family="Arial" font-size="7">inswitch</text>
<line x1="239.100000" y1="85.000000" x2="242.100000" y2="86.000000"  transform="rotate(0.000000,242.100000,86.000000)" style="stroke: black; stroke-width:0.25;"/>
<line x1="239.100000" y1="87.000000" x2="242.100000" y2="86.000000"  transform="rotate(0.000000,242.100000,86.000000)" style="stroke: black; stroke-width:0.25;"/>
<line x1="10.000000" y1="86.000000" x2="20.000000" y2="86.000000"  style="stroke:black; stroke-linecap:round; stroke-width:0.25;"/>
<line x1="20.000000" y1="86.000000" x2="24.000000" y2="86.000000"  style="stroke:black; stroke-linecap:round; stroke-width:0.25;"/>
<line x1="24.000000" y1="86.000000" x2="28.000000" y2="86.000000"  style="stroke:black; stroke-linecap:round; stroke-width:0.25;"/>
<line x1="28.000000" y1="86.000000" x2="36.000000" y2="86.000000"  style="stroke:black; stroke-linecap:round; stroke-width:0.25;"/>
<line x1="36.000000" y1="96.000000" x2="72.700000" y2="96.000000"  style="stroke:black; stroke-linecap:round; stroke-width:0.25;"/>
<line x1="36.000000" y1="86.000000" x2="36.000000" y2="96.000000"  style="stroke:black; stroke-linecap:round; stroke-width:0.25;"/>
<line x1="36.000000" y1="96.000000" x2="36.000000" y2="96.000000"  style="stroke:black; stroke-linecap:round; stroke-width:0.25;"/>
<line x1="72.700000" y1="96.000000" x2="98.700000" y2="96.000000"  style="stroke:black; stroke-linecap:round; stroke-width:0.25;"/>
<line x1="98.700000" y1="96.000000" x2="124.700000" y2="96.000000"  style="stroke:black; stroke-linecap:round; stroke-width:0.25;"/>
<line x1="110.700000" y1="126.000000" x2="114.700000" y2="126.000000"  style="stroke:black; stroke-linecap:round; stroke-width:0.25;"/>
<line x1="114.700000" y1="126.000000" x2="124.700000" y2="126.000000"  style="stroke:black; stroke-linecap:round; stroke-width:0.25;"/>
<line x1="124.700000" y1="96.000000" x2="161.400000" y2="96.000000"  style="stroke:black; stroke-linecap:round; stroke-width:0.25;"/>
<line x1="124.700000" y1="126.000000" x2="161.400000" y2="126.000000"  style="stroke:black; stroke-linecap:round; stroke-width:0.25;"/>
<line x1="137.400000" y1="56.000000" x2="141.400000" y2="56.000000"  style="stroke:black; stroke-linecap:round; stroke-width:0.25;"/>
<line x1="141.400000" y1="56.000000" x2="151.400000" y2="56.000000"  style="stroke:black; stroke-linecap:round; stroke-width:0.25;"/>
<line x1="151.400000" y1="56.000000" x2="161.400000" y2="56.000000"  style="stroke:black; stroke-linecap:round; stroke-width:0.25;"/>
<line x1="161.400000" y1="56.000000" x2="177.400000" y2="56.000000"  style="stroke:black; stroke-linecap:round; stroke-width:0.25;"/>
<line x1="161.400000" y1="86.000000" x2="177.400000" y2="86.000000"  style="stroke:black; stroke-linecap:round; stroke-width:0.25;"/>
<line x1="161.400000" y1="96.000000" x2="161.400000" y2="86.000000"  style="stroke:black; stroke-linecap:round; stroke-width:0.25;"/>
<line x1="161.400000" y1="96.000000" x2="161.400000" y2="96.000000"  style="stroke:black; stroke-linecap:round; stroke-width:0.25;"/>
<line x1="161.400000" y1="126.000000" x2="169.400000" y2="126.000000"  style="stroke:black; stroke-linecap:round; stroke-width:0.25;"/>
<line x1="169.400000" y1="94.000000" x2="177.400000" y2="94.000000"  style="stroke:black; stroke-linecap:round; stroke-width:0.25;"/>
<line x1="169.400000" y1="126.000000" x2="169.400000" y2="94.000000"  style="stroke:black; stroke-linecap:round; stroke-width:0.25;"/>
<line x1="177.400000" y1="56.000000" x2="177.400000" y2="78.000000"  style="stroke:black; stroke-linecap:round; stroke-width:0.25;"/>
<line x1="177.400000" y1="78.000000" x2="177.400000" y2="78.000000"  style="stroke:black; stroke-linecap:round; stroke-width:0.25;"/>
<line x1="177.400000" y1="78.000000" x2="181.400000" y2="78.000000"  style="stroke:black; stroke-linecap:round; stroke-width:0.25;"/>
<line x1="177.400000" y1="86.000000" x2="181.400000" y2="86.000000"  style="stroke:black; stroke-linecap:round; stroke-width:0.25;"/>
<line x1="177.400000" y1="94.000000" x2="181.400000" y2="94.000000"  style="stroke:black; stroke-linecap:round; stroke-width:0.25;"/>
<line x1="220.100000" y1="86.000000" x2="224.100000" y2="86.000000"  style="stroke:black; stroke-linecap:round; stroke-width:0.25;"/>
<line x1="224.100000" y1="86.000000" x2="224.100000" y2="86.000000"  style="stroke:black; stroke-linecap:round; stroke-width:0.25;"/>
<line x1="224.100000" y1="86.000000" x2="228.100000" y2="86.000000"  style="stroke:black; stroke-linecap:round; stroke-width:0.25;"/>
<line x1="228.100000" y1="86.000000" x2="232.100000" y2="86.000000"  style="stroke:black; stroke-linecap:round; stroke-width:0.25;"/>
<line x1="232.100000" y1="86.000000" x2="242.100000" y2="86.000000"  style="stroke:black; stroke-linecap:round; stroke-width:0.25;"/>
</svg>
