<?xml version="1.0"?>
<svg xmlns="http://www.w3.org/2000/svg" xmlns:xlink="http://www.w3.org/1999/xlink" viewBox="0 0 309.000000 144.000000" width="154.500000mm" height="72.000000mm" version="1.1">
<a xlink:href="phaser2-0x7fe1cbd794c0.svg">
<rect x="1.000000" y="1.000000" width="308.000000" height="143.000000" rx="0" ry="0" style="stroke:none;fill:#cccccc;"/>
<rect x="0.000000" y="0.000000" width="308.000000" height="143.000000" rx="0" ry="0" style="stroke:none;fill:#ffffff;"/>
</a>
<text x="10.000000" y="7.000000" font-family="Arial" font-size="7"></text>
<a xlink:href="g1-0x7fe1cbc5e3e0.svg">
<rect x="121.500000" y="33.000000" width="24.000000" height="24.000000" rx="0" ry="0" style="stroke:none;fill:#cccccc;"/>
<rect x="120.500000" y="32.000000" width="24.000000" height="24.000000" rx="0" ry="0" style="stroke:none;fill:#003366;"/>
</a>
<a xlink:href="g1-0x7fe1cbc5e3e0.svg">
<text x="132.500000" y="46.000000" font-family="Arial" font-size="7" text-anchor="middle" fill="#FFFFFF">g1</text>
</a>
<circle cx="122.500000" cy="34.000000" r="1"/>
<rect x="161.500000" y="29.000000" width="24.000000" height="24.000000" rx="0" ry="0" style="stroke:none;fill:#cccccc;"/>
<rect x="160.500000" y="28.000000" width="24.000000" height="24.000000" rx="0" ry="0" style="stroke:none;fill:#4B71A1;"/>
<text x="172.500000" y="42.000000" font-family="Arial" font-size="7" text-anchor="middle" fill="#FFFFFF">*</text>
<circle cx="162.500000" cy="30.000000" r="1"/>
<line x1="157.500000" y1="35.000000" x2="160.500000" y2="36.000000"  transform="rotate(0.000000,160.500000,36.000000)" style="stroke: black; stroke-width:0.25;"/>
<line x1="157.500000" y1="37.000000" x2="160.500000" y2="36.000000"  transform="rotate(0.000000,160.500000,36.000000)" style="stroke: black; stroke-width:0.25;"/>
<line x1="157.500000" y1="43.000000" x2="160.500000" y2="44.000000"  transform="rotate(0.000000,160.500000,44.000000)" style="stroke: black; stroke-width:0.25;"/>
<line x1="157.500000" y1="45.000000" x2="160.500000" y2="44.000000"  transform="rotate(0.000000,160.500000,44.000000)" style="stroke: black; stroke-width:0.25;"/>
<a xlink:href="g2mi-0x7fe1cbc60bd0.svg">
<rect x="120.600000" y="65.000000" width="25.800000" height="24.000000" rx="0" ry="0" style="stroke:none;fill:#cccccc;"/>
<rect x="119.600000" y="64.000000" width="25.800000" height="24.000000" rx="0" ry="0" style="stroke:none;fill:#003366;"/>
</a>
<a xlink:href="g2mi-0x7fe1cbc60bd0.svg">
<text x="132.500000" y="78.000000" font-family="Arial" font-size="7" text-anchor="middle" fill="#FFFFFF">g2mi</text>
</a>
<circle cx="121.600000" cy="66.000000" r="1"/>
<a xlink:href="vibrato2-0x7fe1cbd78ec0.svg">
<rect x="69.000000" y="97.000000" width="129.000000" height="24.000000" rx="0" ry="0" style="stroke:none;fill:#cccccc;"/>
<rect x="68.000000" y="96.000000" width="129.000000" height="24.000000" rx="0" ry="0" style="stroke:none;fill:#003366;"/>
</a>
<a xlink:href="vibrato2-0x7fe1cbd78ec0.svg">
<text x="132.500000" y="110.000000" font-family="Arial" font-size="7" text-anchor="middle" fill="#FFFFFF">vibrato2_mono...f, 0.001f))))</text>
</a>
<circle cx="70.000000" cy="98.000000" r="1"/>
<line x1="65.000000" y1="107.000000" x2="68.000000" y2="108.000000"  transform="rotate(0.000000,68.000000,108.000000)" style="stroke: black; stroke-width:0.25;"/>
<line x1="65.000000" y1="109.000000" x2="68.000000" y2="108.000000"  transform="rotate(0.000000,68.000000,108.000000)" style="stroke: black; stroke-width:0.25;"/>
<rect x="214.000000" y="81.000000" width="24.000000" height="24.000000" rx="0" ry="0" style="stroke:none;fill:#cccccc;"/>
<rect x="213.000000" y="80.000000" width="24.000000" height="24.000000" rx="0" ry="0" style="stroke:none;fill:#4B71A1;"/>
<text x="225.000000" y="94.000000" font-family="Arial" font-size="7" text-anchor="middle" fill="#FFFFFF">*</text>
<circle cx="215.000000" cy="82.000000" r="1"/>
<line x1="210.000000" y1="87.000000" x2="213.000000" y2="88.000000"  transform="rotate(0.000000,213.000000,88.000000)" style="stroke: black; stroke-width:0.25;"/>
<line x1="210.000000" y1="89.000000" x2="213.000000" y2="88.000000"  transform="rotate(0.000000,213.000000,88.000000)" style="stroke: black; stroke-width:0.25;"/>
<line x1="210.000000" y1="95.000000" x2="213.000000" y2="96.000000"  transform="rotate(0.000000,213.000000,96.000000)" style="stroke: black; stroke-width:0.25;"/>
<line x1="210.000000" y1="97.000000" x2="213.000000" y2="96.000000"  transform="rotate(0.000000,213.000000,96.000000)" style="stroke: black; stroke-width:0.25;"/>
<rect x="254.000000" y="61.000000" width="24.000000" height="24.000000" rx="0" ry="0" style="stroke:none;fill:#cccccc;"/>
<rect x="253.000000" y="60.000000" width="24.000000" height="24.000000" rx="0" ry="0" style="stroke:none;fill:#4B71A1;"/>
<text x="265.000000" y="74.000000" font-family="Arial" font-size="7" text-anchor="middle" fill="#FFFFFF">+</text>
<circle cx="255.000000" cy="62.000000" r="1"/>
<line x1="250.000000" y1="67.000000" x2="253.000000" y2="68.000000"  transform="rotate(0.000000,253.000000,68.000000)" style="stroke: black; stroke-width:0.25;"/>
<line x1="250.000000" y1="69.000000" x2="253.000000" y2="68.000000"  transform="rotate(0.000000,253.000000,68.000000)" style="stroke: black; stroke-width:0.25;"/>
<line x1="250.000000" y1="75.000000" x2="253.000000" y2="76.000000"  transform="rotate(0.000000,253.000000,76.000000)" style="stroke: black; stroke-width:0.25;"/>
<line x1="250.000000" y1="77.000000" x2="253.000000" y2="76.000000"  transform="rotate(0.000000,253.000000,76.000000)" style="stroke: black; stroke-width:0.25;"/>
<line x1="15.000000" y1="15.000000" x2="15.000000" y2="129.000000"  style="stroke: black; stroke-linecap:round; stroke-width:0.25; stroke-dasharray:3,3;"/>
<line x1="15.000000" y1="129.000000" x2="294.000000" y2="129.000000"  style="stroke: black; stroke-linecap:round; stroke-width:0.25; stroke-dasharray:3,3;"/>
<line x1="294.000000" y1="129.000000" x2="294.000000" y2="15.000000"  style="stroke: black; stroke-linecap:round; stroke-width:0.25; stroke-dasharray:3,3;"/>
<line x1="15.000000" y1="15.000000" x2="20.000000" y2="15.000000"  style="stroke: black; stroke-linecap:round; stroke-width:0.25; stroke-dasharray:3,3;"/>
<line x1="119.975000" y1="15.000000" x2="294.000000" y2="15.000000"  style="stroke: black; stroke-linecap:round; stroke-width:0.25; stroke-dasharray:3,3;"/>
<text x="20.000000" y="17.000000" font-family="Arial" font-size="7">phaser2_mono(...aser Sum&quot;))))</text>
<line x1="296.000000" y1="71.000000" x2="299.000000" y2="72.000000"  transform="rotate(0.000000,299.000000,72.000000)" style="stroke: black; stroke-width:0.25;"/>
<line x1="296.000000" y1="73.000000" x2="299.000000" y2="72.000000"  transform="rotate(0.000000,299.000000,72.000000)" style="stroke: black; stroke-width:0.25;"/>
<line x1="10.000000" y1="72.000000" x2="20.000000" y2="72.000000"  style="stroke:black; stroke-linecap:round; stroke-width:0.25;"/>
<line x1="20.000000" y1="72.000000" x2="24.000000" y2="72.000000"  style="stroke:black; stroke-linecap:round; stroke-width:0.25;"/>
<line x1="24.000000" y1="72.000000" x2="28.000000" y2="72.000000"  style="stroke:black; stroke-linecap:round; stroke-width:0.25;"/>
<line x1="28.000000" y1="72.000000" x2="28.000000" y2="72.000000"  style="stroke:black; stroke-linecap:round; stroke-width:0.25;"/>
<line x1="28.000000" y1="72.000000" x2="32.000000" y2="72.000000"  style="stroke:black; stroke-linecap:round; stroke-width:0.25;"/>
<line x1="32.000000" y1="72.000000" x2="36.000000" y2="72.000000"  style="stroke:black; stroke-linecap:round; stroke-width:0.25;"/>
<line x1="36.000000" y1="72.000000" x2="64.000000" y2="24.000000"  style="stroke:black; stroke-linecap:round; stroke-width:0.25;"/>
<line x1="36.000000" y1="72.000000" x2="64.000000" y2="108.000000"  style="stroke:black; stroke-linecap:round; stroke-width:0.25;"/>
<line x1="64.000000" y1="24.000000" x2="116.500000" y2="24.000000"  style="stroke:black; stroke-linecap:round; stroke-width:0.25;"/>
<line x1="64.000000" y1="108.000000" x2="68.000000" y2="108.000000"  style="stroke:black; stroke-linecap:round; stroke-width:0.25;"/>
<line x1="116.500000" y1="24.000000" x2="132.500000" y2="24.000000"  style="stroke:black; stroke-linecap:round; stroke-width:0.25;"/>
<line x1="132.500000" y1="24.000000" x2="148.500000" y2="24.000000"  style="stroke:black; stroke-linecap:round; stroke-width:0.25;"/>
<line x1="144.500000" y1="44.000000" x2="148.500000" y2="44.000000"  style="stroke:black; stroke-linecap:round; stroke-width:0.25;"/>
<line x1="145.400000" y1="76.000000" x2="149.400000" y2="76.000000"  style="stroke:black; stroke-linecap:round; stroke-width:0.25;"/>
<line x1="148.500000" y1="24.000000" x2="156.500000" y2="24.000000"  style="stroke:black; stroke-linecap:round; stroke-width:0.25;"/>
<line x1="148.500000" y1="44.000000" x2="156.500000" y2="44.000000"  style="stroke:black; stroke-linecap:round; stroke-width:0.25;"/>
<line x1="149.400000" y1="76.000000" x2="201.000000" y2="76.000000"  style="stroke:black; stroke-linecap:round; stroke-width:0.25;"/>
<line x1="156.500000" y1="24.000000" x2="156.500000" y2="36.000000"  style="stroke:black; stroke-linecap:round; stroke-width:0.25;"/>
<line x1="156.500000" y1="36.000000" x2="156.500000" y2="36.000000"  style="stroke:black; stroke-linecap:round; stroke-width:0.25;"/>
<line x1="156.500000" y1="36.000000" x2="160.500000" y2="36.000000"  style="stroke:black; stroke-linecap:round; stroke-width:0.25;"/>
<line x1="156.500000" y1="44.000000" x2="160.500000" y2="44.000000"  style="stroke:black; stroke-linecap:round; stroke-width:0.25;"/>
<line x1="184.500000" y1="40.000000" x2="188.500000" y2="40.000000"  style="stroke:black; stroke-linecap:round; stroke-width:0.25;"/>
<line x1="188.500000" y1="40.000000" x2="241.000000" y2="40.000000"  style="stroke:black; stroke-linecap:round; stroke-width:0.25;"/>
<line x1="197.000000" y1="108.000000" x2="201.000000" y2="108.000000"  style="stroke:black; stroke-linecap:round; stroke-width:0.25;"/>
<line x1="201.000000" y1="76.000000" x2="209.000000" y2="76.000000"  style="stroke:black; stroke-linecap:round; stroke-width:0.25;"/>
<line x1="201.000000" y1="96.000000" x2="209.000000" y2="96.000000"  style="stroke:black; stroke-linecap:round; stroke-width:0.25;"/>
<line x1="201.000000" y1="108.000000" x2="201.000000" y2="96.000000"  style="stroke:black; stroke-linecap:round; stroke-width:0.25;"/>
<line x1="201.000000" y1="108.000000" x2="201.000000" y2="108.000000"  style="stroke:black; stroke-linecap:round; stroke-width:0.25;"/>
<line x1="209.000000" y1="76.000000" x2="209.000000" y2="88.000000"  style="stroke:black; stroke-linecap:round; stroke-width:0.25;"/>
<line x1="209.000000" y1="88.000000" x2="209.000000" y2="88.000000"  style="stroke:black; stroke-linecap:round; stroke-width:0.25;"/>
<line x1="209.000000" y1="88.000000" x2="213.000000" y2="88.000000"  style="stroke:black; stroke-linecap:round; stroke-width:0.25;"/>
<line x1="209.000000" y1="96.000000" x2="213.000000" y2="96.000000"  style="stroke:black; stroke-linecap:round; stroke-width:0.25;"/>
<line x1="237.000000" y1="92.000000" x2="241.000000" y2="92.000000"  style="stroke:black; stroke-linecap:round; stroke-width:0.25;"/>
<line x1="241.000000" y1="40.000000" x2="249.000000" y2="40.000000"  style="stroke:black; stroke-linecap:round; stroke-width:0.25;"/>
<line x1="241.000000" y1="76.000000" x2="249.000000" y2="76.000000"  style="stroke:black; stroke-linecap:round; stroke-width:0.25;"/>
<line x1="241.000000" y1="92.000000" x2="241.000000" y2="76.000000"  style="stroke:black; stroke-linecap:round; stroke-width:0.25;"/>
<line x1="241.000000" y1="92.000000" x2="241.000000" y2="92.000000"  style="stroke:black; stroke-linecap:round; stroke-width:0.25;"/>
<line x1="249.000000" y1="40.000000" x2="249.000000" y2="68.000000"  style="stroke:black; stroke-linecap:round; stroke-width:0.25;"/>
<line x1="249.000000" y1="68.000000" x2="249.000000" y2="68.000000"  style="stroke:black; stroke-linecap:round; stroke-width:0.25;"/>
<line x1="249.000000" y1="68.000000" x2="253.000000" y2="68.000000"  style="stroke:black; stroke-linecap:round; stroke-width:0.25;"/>
<line x1="249.000000" y1="76.000000" x2="253.000000" y2="76.000000"  style="stroke:black; stroke-linecap:round; stroke-width:0.25;"/>
<line x1="277.000000" y1="72.000000" x2="281.000000" y2="72.000000"  style="stroke:black; stroke-linecap:round; stroke-width:0.25;"/>
<line x1="281.000000" y1="72.000000" x2="281.000000" y2="72.000000"  style="stroke:black; stroke-linecap:round; stroke-width:0.25;"/>
<line x1="281.000000" y1="72.000000" x2="285.000000" y2="72.000000"  style="stroke:black; stroke-linecap:round; stroke-width:0.25;"/>
<line x1="285.000000" y1="72.000000" x2="289.000000" y2="72.000000"  style="stroke:black; stroke-linecap:round; stroke-width:0.25;"/>
<line x1="289.000000" y1="72.000000" x2="299.000000" y2="72.000000"  style="stroke:black; stroke-linecap:round; stroke-width:0.25;"/>
</svg>
