<?xml version="1.0"?>
<svg xmlns="http://www.w3.org/2000/svg" xmlns:xlink="http://www.w3.org/1999/xlink" viewBox="0 0 447.300000 196.000000" width="223.650000mm" height="98.000000mm" version="1.1">
<a xlink:href="a1-0x7fbd9f1a7a90.svg">
<rect x="1.000000" y="1.000000" width="446.300000" height="195.000000" rx="0" ry="0" style="stroke:none;fill:#cccccc;"/>
<rect x="0.000000" y="0.000000" width="446.300000" height="195.000000" rx="0" ry="0" style="stroke:none;fill:#ffffff;"/>
</a>
<text x="10.000000" y="7.000000" font-family="Arial" font-size="7"></text>
<rect x="145.300000" y="25.000000" width="38.700000" height="24.000000" rx="0" ry="0" style="stroke:none;fill:#cccccc;"/>
<rect x="144.300000" y="24.000000" width="38.700000" height="24.000000" rx="0" ry="0" style="stroke:none;fill:#f44800;"/>
<text x="163.650000" y="38.000000" font-family="Arial" font-size="7" text-anchor="middle" fill="#FFFFFF">-3.14159</text>
<circle cx="146.300000" cy="26.000000" r="1"/>
<rect x="55.000000" y="87.000000" width="219.300000" height="24.000000" rx="0" ry="0" style="stroke:none;fill:#cccccc;"/>
<rect x="54.000000" y="86.000000" width="219.300000" height="24.000000" rx="0" ry="0" style="stroke:none;fill:#477881;"/>
<text x="163.650000" y="100.000000" font-family="Arial" font-size="7" text-anchor="middle" fill="#FFFFFF">hslider(Notch width, 1000.0f, 10.0f, 5000.0f, 1.0f)</text>
<circle cx="56.000000" cy="88.000000" r="1"/>
<line x1="45.000000" y1="77.000000" x2="45.000000" y2="119.000000"  style="stroke: black; stroke-linecap:round; stroke-width:0.25; stroke-dasharray:3,3;"/>
<line x1="45.000000" y1="119.000000" x2="282.300000" y2="119.000000"  style="stroke: black; stroke-linecap:round; stroke-width:0.25; stroke-dasharray:3,3;"/>
<line x1="282.300000" y1="119.000000" x2="282.300000" y2="77.000000"  style="stroke: black; stroke-linecap:round; stroke-width:0.25; stroke-dasharray:3,3;"/>
<line x1="45.000000" y1="77.000000" x2="50.000000" y2="77.000000"  style="stroke: black; stroke-linecap:round; stroke-width:0.25; stroke-dasharray:3,3;"/>
<line x1="82.250000" y1="77.000000" x2="282.300000" y2="77.000000"  style="stroke: black; stroke-linecap:round; stroke-width:0.25; stroke-dasharray:3,3;"/>
<text x="50.000000" y="79.000000" font-family="Arial" font-size="7">hgroup()</text>
<line x1="35.000000" y1="67.000000" x2="35.000000" y2="129.000000"  style="stroke: black; stroke-linecap:round; stroke-width:0.25; stroke-dasharray:3,3;"/>
<line x1="35.000000" y1="129.000000" x2="292.300000" y2="129.000000"  style="stroke: black; stroke-linecap:round; stroke-width:0.25; stroke-dasharray:3,3;"/>
<line x1="292.300000" y1="129.000000" x2="292.300000" y2="67.000000"  style="stroke: black; stroke-linecap:round; stroke-width:0.25; stroke-dasharray:3,3;"/>
<line x1="35.000000" y1="67.000000" x2="40.000000" y2="67.000000"  style="stroke: black; stroke-linecap:round; stroke-width:0.25; stroke-dasharray:3,3;"/>
<line x1="94.825000" y1="67.000000" x2="292.300000" y2="67.000000"  style="stroke: black; stroke-linecap:round; stroke-width:0.25; stroke-dasharray:3,3;"/>
<text x="40.000000" y="69.000000" font-family="Arial" font-size="7">vgroup(PHASER2)</text>
<line x1="25.000000" y1="57.000000" x2="25.000000" y2="139.000000"  style="stroke: black; stroke-linecap:round; stroke-width:0.25; stroke-dasharray:3,3;"/>
<line x1="25.000000" y1="139.000000" x2="302.300000" y2="139.000000"  style="stroke: black; stroke-linecap:round; stroke-width:0.25; stroke-dasharray:3,3;"/>
<line x1="302.300000" y1="139.000000" x2="302.300000" y2="57.000000"  style="stroke: black; stroke-linecap:round; stroke-width:0.25; stroke-dasharray:3,3;"/>
<line x1="25.000000" y1="57.000000" x2="30.000000" y2="57.000000"  style="stroke: black; stroke-linecap:round; stroke-width:0.25; stroke-dasharray:3,3;"/>
<line x1="52.575000" y1="57.000000" x2="302.300000" y2="57.000000"  style="stroke: black; stroke-linecap:round; stroke-width:0.25; stroke-dasharray:3,3;"/>
<text x="30.000000" y="59.000000" font-family="Arial" font-size="7">width</text>
<rect x="320.300000" y="71.000000" width="24.000000" height="24.000000" rx="0" ry="0" style="stroke:none;fill:#cccccc;"/>
<rect x="319.300000" y="70.000000" width="24.000000" height="24.000000" rx="0" ry="0" style="stroke:none;fill:#4B71A1;"/>
<text x="331.300000" y="84.000000" font-family="Arial" font-size="7" text-anchor="middle" fill="#FFFFFF">*</text>
<circle cx="321.300000" cy="72.000000" r="1"/>
<line x1="316.300000" y1="77.000000" x2="319.300000" y2="78.000000"  transform="rotate(0.000000,319.300000,78.000000)" style="stroke: black; stroke-width:0.25;"/>
<line x1="316.300000" y1="79.000000" x2="319.300000" y2="78.000000"  transform="rotate(0.000000,319.300000,78.000000)" style="stroke: black; stroke-width:0.25;"/>
<line x1="316.300000" y1="85.000000" x2="319.300000" y2="86.000000"  transform="rotate(0.000000,319.300000,86.000000)" style="stroke: black; stroke-width:0.25;"/>
<line x1="316.300000" y1="87.000000" x2="319.300000" y2="86.000000"  transform="rotate(0.000000,319.300000,86.000000)" style="stroke: black; stroke-width:0.25;"/>
<a xlink:href="SR-0x7fbd9db35400.svg">
<rect x="172.650000" y="149.000000" width="24.000000" height="24.000000" rx="0" ry="0" style="stroke:none;fill:#cccccc;"/>
<rect x="171.650000" y="148.000000" width="24.000000" height="24.000000" rx="0" ry="0" style="stroke:none;fill:#003366;"/>
</a>
<a xlink:href="SR-0x7fbd9db35400.svg">
<text x="183.650000" y="162.000000" font-family="Arial" font-size="7" text-anchor="middle" fill="#FFFFFF">SR</text>
</a>
<circle cx="173.650000" cy="150.000000" r="1"/>
<rect x="360.300000" y="87.000000" width="24.000000" height="24.000000" rx="0" ry="0" style="stroke:none;fill:#cccccc;"/>
<rect x="359.300000" y="86.000000" width="24.000000" height="24.000000" rx="0" ry="0" style="stroke:none;fill:#4B71A1;"/>
<text x="371.300000" y="100.000000" font-family="Arial" font-size="7" text-anchor="middle" fill="#FFFFFF">/</text>
<circle cx="361.300000" cy="88.000000" r="1"/>
<line x1="356.300000" y1="93.000000" x2="359.300000" y2="94.000000"  transform="rotate(0.000000,359.300000,94.000000)" style="stroke: black; stroke-width:0.25;"/>
<line x1="356.300000" y1="95.000000" x2="359.300000" y2="94.000000"  transform="rotate(0.000000,359.300000,94.000000)" style="stroke: black; stroke-width:0.25;"/>
<line x1="356.300000" y1="101.000000" x2="359.300000" y2="102.000000"  transform="rotate(0.000000,359.300000,102.000000)" style="stroke: black; stroke-width:0.25;"/>
<line x1="356.300000" y1="103.000000" x2="359.300000" y2="102.000000"  transform="rotate(0.000000,359.300000,102.000000)" style="stroke: black; stroke-width:0.25;"/>
<rect x="392.300000" y="87.000000" width="24.000000" height="24.000000" rx="0" ry="0" style="stroke:none;fill:#cccccc;"/>
<rect x="391.300000" y="86.000000" width="24.000000" height="24.000000" rx="0" ry="0" style="stroke:none;fill:#4B71A1;"/>
<text x="403.300000" y="100.000000" font-family="Arial" font-size="7" text-anchor="middle" fill="#FFFFFF">exp</text>
<circle cx="393.300000" cy="88.000000" r="1"/>
<line x1="388.300000" y1="97.000000" x2="391.300000" y2="98.000000"  transform="rotate(0.000000,391.300000,98.000000)" style="stroke: black; stroke-width:0.25;"/>
<line x1="388.300000" y1="99.000000" x2="391.300000" y2="98.000000"  transform="rotate(0.000000,391.300000,98.000000)" style="stroke: black; stroke-width:0.25;"/>
<line x1="15.000000" y1="15.000000" x2="15.000000" y2="181.000000"  style="stroke: black; stroke-linecap:round; stroke-width:0.25; stroke-dasharray:3,3;"/>
<line x1="15.000000" y1="181.000000" x2="432.300000" y2="181.000000"  style="stroke: black; stroke-linecap:round; stroke-width:0.25; stroke-dasharray:3,3;"/>
<line x1="432.300000" y1="181.000000" x2="432.300000" y2="15.000000"  style="stroke: black; stroke-linecap:round; stroke-width:0.25; stroke-dasharray:3,3;"/>
<line x1="15.000000" y1="15.000000" x2="20.000000" y2="15.000000"  style="stroke: black; stroke-linecap:round; stroke-width:0.25; stroke-dasharray:3,3;"/>
<line x1="29.675000" y1="15.000000" x2="432.300000" y2="15.000000"  style="stroke: black; stroke-linecap:round; stroke-width:0.25; stroke-dasharray:3,3;"/>
<text x="20.000000" y="17.000000" font-family="Arial" font-size="7">R</text>
<line x1="434.300000" y1="97.000000" x2="437.300000" y2="98.000000"  transform="rotate(0.000000,437.300000,98.000000)" style="stroke: black; stroke-width:0.25;"/>
<line x1="434.300000" y1="99.000000" x2="437.300000" y2="98.000000"  transform="rotate(0.000000,437.300000,98.000000)" style="stroke: black; stroke-width:0.25;"/>
<line x1="183.000000" y1="36.000000" x2="187.000000" y2="36.000000"  style="stroke:black; stroke-linecap:round; stroke-width:0.25;"/>
<line x1="187.000000" y1="36.000000" x2="307.300000" y2="36.000000"  style="stroke:black; stroke-linecap:round; stroke-width:0.25;"/>
<line x1="195.650000" y1="160.000000" x2="199.650000" y2="160.000000"  style="stroke:black; stroke-linecap:round; stroke-width:0.25;"/>
<line x1="199.650000" y1="160.000000" x2="347.300000" y2="160.000000"  style="stroke:black; stroke-linecap:round; stroke-width:0.25;"/>
<line x1="273.300000" y1="98.000000" x2="277.300000" y2="98.000000"  style="stroke:black; stroke-linecap:round; stroke-width:0.25;"/>
<line x1="277.300000" y1="98.000000" x2="287.300000" y2="98.000000"  style="stroke:black; stroke-linecap:round; stroke-width:0.25;"/>
<line x1="287.300000" y1="98.000000" x2="297.300000" y2="98.000000"  style="stroke:black; stroke-linecap:round; stroke-width:0.25;"/>
<line x1="297.300000" y1="98.000000" x2="307.300000" y2="98.000000"  style="stroke:black; stroke-linecap:round; stroke-width:0.25;"/>
<line x1="307.300000" y1="36.000000" x2="315.300000" y2="36.000000"  style="stroke:black; stroke-linecap:round; stroke-width:0.25;"/>
<line x1="307.300000" y1="86.000000" x2="315.300000" y2="86.000000"  style="stroke:black; stroke-linecap:round; stroke-width:0.25;"/>
<line x1="307.300000" y1="98.000000" x2="307.300000" y2="86.000000"  style="stroke:black; stroke-linecap:round; stroke-width:0.25;"/>
<line x1="307.300000" y1="98.000000" x2="307.300000" y2="98.000000"  style="stroke:black; stroke-linecap:round; stroke-width:0.25;"/>
<line x1="315.300000" y1="36.000000" x2="315.300000" y2="78.000000"  style="stroke:black; stroke-linecap:round; stroke-width:0.25;"/>
<line x1="315.300000" y1="78.000000" x2="315.300000" y2="78.000000"  style="stroke:black; stroke-linecap:round; stroke-width:0.25;"/>
<line x1="315.300000" y1="78.000000" x2="319.300000" y2="78.000000"  style="stroke:black; stroke-linecap:round; stroke-width:0.25;"/>
<line x1="315.300000" y1="86.000000" x2="319.300000" y2="86.000000"  style="stroke:black; stroke-linecap:round; stroke-width:0.25;"/>
<line x1="343.300000" y1="82.000000" x2="347.300000" y2="82.000000"  style="stroke:black; stroke-linecap:round; stroke-width:0.25;"/>
<line x1="347.300000" y1="82.000000" x2="355.300000" y2="82.000000"  style="stroke:black; stroke-linecap:round; stroke-width:0.25;"/>
<line x1="347.300000" y1="102.000000" x2="355.300000" y2="102.000000"  style="stroke:black; stroke-linecap:round; stroke-width:0.25;"/>
<line x1="347.300000" y1="160.000000" x2="347.300000" y2="102.000000"  style="stroke:black; stroke-linecap:round; stroke-width:0.25;"/>
<line x1="347.300000" y1="160.000000" x2="347.300000" y2="160.000000"  style="stroke:black; stroke-linecap:round; stroke-width:0.25;"/>
<line x1="355.300000" y1="82.000000" x2="355.300000" y2="94.000000"  style="stroke:black; stroke-linecap:round; stroke-width:0.25;"/>
<line x1="355.300000" y1="94.000000" x2="355.300000" y2="94.000000"  style="stroke:black; stroke-linecap:round; stroke-width:0.25;"/>
<line x1="355.300000" y1="94.000000" x2="359.300000" y2="94.000000"  style="stroke:black; stroke-linecap:round; stroke-width:0.25;"/>
<line x1="355.300000" y1="102.000000" x2="359.300000" y2="102.000000"  style="stroke:black; stroke-linecap:round; stroke-width:0.25;"/>
<line x1="383.300000" y1="98.000000" x2="387.300000" y2="98.000000"  style="stroke:black; stroke-linecap:round; stroke-width:0.25;"/>
<line x1="387.300000" y1="98.000000" x2="387.300000" y2="98.000000"  style="stroke:black; stroke-linecap:round; stroke-width:0.25;"/>
<line x1="387.300000" y1="98.000000" x2="391.300000" y2="98.000000"  style="stroke:black; stroke-linecap:round; stroke-width:0.25;"/>
<line x1="415.300000" y1="98.000000" x2="419.300000" y2="98.000000"  style="stroke:black; stroke-linecap:round; stroke-width:0.25;"/>
<line x1="419.300000" y1="98.000000" x2="419.300000" y2="98.000000"  style="stroke:black; stroke-linecap:round; stroke-width:0.25;"/>
<line x1="419.300000" y1="98.000000" x2="423.300000" y2="98.000000"  style="stroke:black; stroke-linecap:round; stroke-width:0.25;"/>
<line x1="423.300000" y1="98.000000" x2="427.300000" y2="98.000000"  style="stroke:black; stroke-linecap:round; stroke-width:0.25;"/>
<line x1="427.300000" y1="98.000000" x2="437.300000" y2="98.000000"  style="stroke:black; stroke-linecap:round; stroke-width:0.25;"/>
</svg>
