<?xml version="1.0"?>
<svg xmlns="http://www.w3.org/2000/svg" xmlns:xlink="http://www.w3.org/1999/xlink" viewBox="0 0 297.700000 168.000000" width="148.850000mm" height="84.000000mm" version="1.1">
<a xlink:href="tone-0x7fafc1b79a80.svg">
<rect x="1.000000" y="1.000000" width="296.700000" height="167.000000" rx="0" ry="0" style="stroke:none;fill:#cccccc;"/>
<rect x="0.000000" y="0.000000" width="296.700000" height="167.000000" rx="0" ry="0" style="stroke:none;fill:#ffffff;"/>
</a>
<text x="10.000000" y="7.000000" font-family="Arial" font-size="7"></text>
<a xlink:href="sawN-0x7fafc1a48a30.svg">
<rect x="75.000000" y="25.000000" width="38.700000" height="24.000000" rx="0" ry="0" style="stroke:none;fill:#cccccc;"/>
<rect x="74.000000" y="24.000000" width="38.700000" height="24.000000" rx="0" ry="0" style="stroke:none;fill:#003366;"/>
</a>
<a xlink:href="sawN-0x7fafc1a48a30.svg">
<text x="93.350000" y="38.000000" font-family="Arial" font-size="7" text-anchor="middle" fill="#FFFFFF">sawN(1)</text>
</a>
<circle cx="76.000000" cy="26.000000" r="1"/>
<line x1="71.000000" y1="35.000000" x2="74.000000" y2="36.000000"  transform="rotate(0.000000,74.000000,36.000000)" style="stroke: black; stroke-width:0.25;"/>
<line x1="71.000000" y1="37.000000" x2="74.000000" y2="36.000000"  transform="rotate(0.000000,74.000000,36.000000)" style="stroke: black; stroke-width:0.25;"/>
<a xlink:href="sawN-0x7fafc1b16040.svg">
<rect x="75.000000" y="57.000000" width="38.700000" height="24.000000" rx="0" ry="0" style="stroke:none;fill:#cccccc;"/>
<rect x="74.000000" y="56.000000" width="38.700000" height="24.000000" rx="0" ry="0" style="stroke:none;fill:#003366;"/>
</a>
<a xlink:href="sawN-0x7fafc1b16040.svg">
<text x="93.350000" y="70.000000" font-family="Arial" font-size="7" text-anchor="middle" fill="#FFFFFF">sawN(2)</text>
</a>
<circle cx="76.000000" cy="58.000000" r="1"/>
<line x1="71.000000" y1="67.000000" x2="74.000000" y2="68.000000"  transform="rotate(0.000000,74.000000,68.000000)" style="stroke: black; stroke-width:0.25;"/>
<line x1="71.000000" y1="69.000000" x2="74.000000" y2="68.000000"  transform="rotate(0.000000,74.000000,68.000000)" style="stroke: black; stroke-width:0.25;"/>
<a xlink:href="sawN-0x7fafc1b36cc0.svg">
<rect x="75.000000" y="89.000000" width="38.700000" height="24.000000" rx="0" ry="0" style="stroke:none;fill:#cccccc;"/>
<rect x="74.000000" y="88.000000" width="38.700000" height="24.000000" rx="0" ry="0" style="stroke:none;fill:#003366;"/>
</a>
<a xlink:href="sawN-0x7fafc1b36cc0.svg">
<text x="93.350000" y="102.000000" font-family="Arial" font-size="7" text-anchor="middle" fill="#FFFFFF">sawN(3)</text>
</a>
<circle cx="76.000000" cy="90.000000" r="1"/>
<line x1="71.000000" y1="99.000000" x2="74.000000" y2="100.000000"  transform="rotate(0.000000,74.000000,100.000000)" style="stroke: black; stroke-width:0.25;"/>
<line x1="71.000000" y1="101.000000" x2="74.000000" y2="100.000000"  transform="rotate(0.000000,74.000000,100.000000)" style="stroke: black; stroke-width:0.25;"/>
<a xlink:href="sawN-0x7fafc1b58b20.svg">
<rect x="75.000000" y="121.000000" width="38.700000" height="24.000000" rx="0" ry="0" style="stroke:none;fill:#cccccc;"/>
<rect x="74.000000" y="120.000000" width="38.700000" height="24.000000" rx="0" ry="0" style="stroke:none;fill:#003366;"/>
</a>
<a xlink:href="sawN-0x7fafc1b58b20.svg">
<text x="93.350000" y="134.000000" font-family="Arial" font-size="7" text-anchor="middle" fill="#FFFFFF">sawN(4)</text>
</a>
<circle cx="76.000000" cy="122.000000" r="1"/>
<line x1="71.000000" y1="131.000000" x2="74.000000" y2="132.000000"  transform="rotate(0.000000,74.000000,132.000000)" style="stroke: black; stroke-width:0.25;"/>
<line x1="71.000000" y1="133.000000" x2="74.000000" y2="132.000000"  transform="rotate(0.000000,74.000000,132.000000)" style="stroke: black; stroke-width:0.25;"/>
<a xlink:href="selectn-0x7fafc1b64de0.svg">
<rect x="137.700000" y="69.000000" width="129.000000" height="32.000000" rx="0" ry="0" style="stroke:none;fill:#cccccc;"/>
<rect x="136.700000" y="68.000000" width="129.000000" height="32.000000" rx="0" ry="0" style="stroke:none;fill:#003366;"/>
</a>
<a xlink:href="selectn-0x7fafc1b64de0.svg">
<text x="201.200000" y="86.000000" font-family="Arial" font-size="7" text-anchor="middle" fill="#FFFFFF">selectn(4)(vg...,1 : - : int)</text>
</a>
<circle cx="138.700000" cy="70.000000" r="1"/>
<line x1="133.700000" y1="71.000000" x2="136.700000" y2="72.000000"  transform="rotate(0.000000,136.700000,72.000000)" style="stroke: black; stroke-width:0.25;"/>
<line x1="133.700000" y1="73.000000" x2="136.700000" y2="72.000000"  transform="rotate(0.000000,136.700000,72.000000)" style="stroke: black; stroke-width:0.25;"/>
<line x1="133.700000" y1="79.000000" x2="136.700000" y2="80.000000"  transform="rotate(0.000000,136.700000,80.000000)" style="stroke: black; stroke-width:0.25;"/>
<line x1="133.700000" y1="81.000000" x2="136.700000" y2="80.000000"  transform="rotate(0.000000,136.700000,80.000000)" style="stroke: black; stroke-width:0.25;"/>
<line x1="133.700000" y1="87.000000" x2="136.700000" y2="88.000000"  transform="rotate(0.000000,136.700000,88.000000)" style="stroke: black; stroke-width:0.25;"/>
<line x1="133.700000" y1="89.000000" x2="136.700000" y2="88.000000"  transform="rotate(0.000000,136.700000,88.000000)" style="stroke: black; stroke-width:0.25;"/>
<line x1="133.700000" y1="95.000000" x2="136.700000" y2="96.000000"  transform="rotate(0.000000,136.700000,96.000000)" style="stroke: black; stroke-width:0.25;"/>
<line x1="133.700000" y1="97.000000" x2="136.700000" y2="96.000000"  transform="rotate(0.000000,136.700000,96.000000)" style="stroke: black; stroke-width:0.25;"/>
<line x1="15.000000" y1="15.000000" x2="15.000000" y2="153.000000"  style="stroke: black; stroke-linecap:round; stroke-width:0.25; stroke-dasharray:3,3;"/>
<line x1="15.000000" y1="153.000000" x2="282.700000" y2="153.000000"  style="stroke: black; stroke-linecap:round; stroke-width:0.25; stroke-dasharray:3,3;"/>
<line x1="282.700000" y1="153.000000" x2="282.700000" y2="15.000000"  style="stroke: black; stroke-linecap:round; stroke-width:0.25; stroke-dasharray:3,3;"/>
<line x1="15.000000" y1="15.000000" x2="20.000000" y2="15.000000"  style="stroke: black; stroke-linecap:round; stroke-width:0.25; stroke-dasharray:3,3;"/>
<line x1="55.475000" y1="15.000000" x2="282.700000" y2="15.000000"  style="stroke: black; stroke-linecap:round; stroke-width:0.25; stroke-dasharray:3,3;"/>
<text x="20.000000" y="17.000000" font-family="Arial" font-size="7">sawchoice</text>
<line x1="284.700000" y1="83.000000" x2="287.700000" y2="84.000000"  transform="rotate(0.000000,287.700000,84.000000)" style="stroke: black; stroke-width:0.25;"/>
<line x1="284.700000" y1="85.000000" x2="287.700000" y2="84.000000"  transform="rotate(0.000000,287.700000,84.000000)" style="stroke: black; stroke-width:0.25;"/>
<line x1="10.000000" y1="84.000000" x2="20.000000" y2="84.000000"  style="stroke:black; stroke-linecap:round; stroke-width:0.25;"/>
<line x1="20.000000" y1="84.000000" x2="24.000000" y2="84.000000"  style="stroke:black; stroke-linecap:round; stroke-width:0.25;"/>
<line x1="24.000000" y1="84.000000" x2="28.000000" y2="84.000000"  style="stroke:black; stroke-linecap:round; stroke-width:0.25;"/>
<line x1="28.000000" y1="84.000000" x2="28.000000" y2="84.000000"  style="stroke:black; stroke-linecap:round; stroke-width:0.25;"/>
<line x1="28.000000" y1="84.000000" x2="32.000000" y2="84.000000"  style="stroke:black; stroke-linecap:round; stroke-width:0.25;"/>
<line x1="32.000000" y1="84.000000" x2="36.000000" y2="84.000000"  style="stroke:black; stroke-linecap:round; stroke-width:0.25;"/>
<line x1="36.000000" y1="84.000000" x2="70.000000" y2="36.000000"  style="stroke:black; stroke-linecap:round; stroke-width:0.25;"/>
<line x1="36.000000" y1="84.000000" x2="70.000000" y2="68.000000"  style="stroke:black; stroke-linecap:round; stroke-width:0.25;"/>
<line x1="36.000000" y1="84.000000" x2="70.000000" y2="100.000000"  style="stroke:black; stroke-linecap:round; stroke-width:0.25;"/>
<line x1="36.000000" y1="84.000000" x2="70.000000" y2="132.000000"  style="stroke:black; stroke-linecap:round; stroke-width:0.25;"/>
<line x1="70.000000" y1="36.000000" x2="74.000000" y2="36.000000"  style="stroke:black; stroke-linecap:round; stroke-width:0.25;"/>
<line x1="70.000000" y1="68.000000" x2="74.000000" y2="68.000000"  style="stroke:black; stroke-linecap:round; stroke-width:0.25;"/>
<line x1="70.000000" y1="100.000000" x2="74.000000" y2="100.000000"  style="stroke:black; stroke-linecap:round; stroke-width:0.25;"/>
<line x1="70.000000" y1="132.000000" x2="74.000000" y2="132.000000"  style="stroke:black; stroke-linecap:round; stroke-width:0.25;"/>
<line x1="112.700000" y1="36.000000" x2="116.700000" y2="36.000000"  style="stroke:black; stroke-linecap:round; stroke-width:0.25;"/>
<line x1="112.700000" y1="68.000000" x2="116.700000" y2="68.000000"  style="stroke:black; stroke-linecap:round; stroke-width:0.25;"/>
<line x1="112.700000" y1="100.000000" x2="116.700000" y2="100.000000"  style="stroke:black; stroke-linecap:round; stroke-width:0.25;"/>
<line x1="112.700000" y1="132.000000" x2="116.700000" y2="132.000000"  style="stroke:black; stroke-linecap:round; stroke-width:0.25;"/>
<line x1="116.700000" y1="36.000000" x2="132.700000" y2="36.000000"  style="stroke:black; stroke-linecap:round; stroke-width:0.25;"/>
<line x1="116.700000" y1="68.000000" x2="124.700000" y2="68.000000"  style="stroke:black; stroke-linecap:round; stroke-width:0.25;"/>
<line x1="116.700000" y1="88.000000" x2="132.700000" y2="88.000000"  style="stroke:black; stroke-linecap:round; stroke-width:0.25;"/>
<line x1="116.700000" y1="100.000000" x2="116.700000" y2="88.000000"  style="stroke:black; stroke-linecap:round; stroke-width:0.25;"/>
<line x1="116.700000" y1="100.000000" x2="116.700000" y2="100.000000"  style="stroke:black; stroke-linecap:round; stroke-width:0.25;"/>
<line x1="116.700000" y1="132.000000" x2="124.700000" y2="132.000000"  style="stroke:black; stroke-linecap:round; stroke-width:0.25;"/>
<line x1="124.700000" y1="68.000000" x2="124.700000" y2="80.000000"  style="stroke:black; stroke-linecap:round; stroke-width:0.25;"/>
<line x1="124.700000" y1="80.000000" x2="132.700000" y2="80.000000"  style="stroke:black; stroke-linecap:round; stroke-width:0.25;"/>
<line x1="124.700000" y1="96.000000" x2="132.700000" y2="96.000000"  style="stroke:black; stroke-linecap:round; stroke-width:0.25;"/>
<line x1="124.700000" y1="132.000000" x2="124.700000" y2="96.000000"  style="stroke:black; stroke-linecap:round; stroke-width:0.25;"/>
<line x1="132.700000" y1="36.000000" x2="132.700000" y2="72.000000"  style="stroke:black; stroke-linecap:round; stroke-width:0.25;"/>
<line x1="132.700000" y1="72.000000" x2="132.700000" y2="72.000000"  style="stroke:black; stroke-linecap:round; stroke-width:0.25;"/>
<line x1="132.700000" y1="72.000000" x2="136.700000" y2="72.000000"  style="stroke:black; stroke-linecap:round; stroke-width:0.25;"/>
<line x1="132.700000" y1="80.000000" x2="136.700000" y2="80.000000"  style="stroke:black; stroke-linecap:round; stroke-width:0.25;"/>
<line x1="132.700000" y1="88.000000" x2="136.700000" y2="88.000000"  style="stroke:black; stroke-linecap:round; stroke-width:0.25;"/>
<line x1="132.700000" y1="96.000000" x2="136.700000" y2="96.000000"  style="stroke:black; stroke-linecap:round; stroke-width:0.25;"/>
<line x1="265.700000" y1="84.000000" x2="269.700000" y2="84.000000"  style="stroke:black; stroke-linecap:round; stroke-width:0.25;"/>
<line x1="269.700000" y1="84.000000" x2="269.700000" y2="84.000000"  style="stroke:black; stroke-linecap:round; stroke-width:0.25;"/>
<line x1="269.700000" y1="84.000000" x2="273.700000" y2="84.000000"  style="stroke:black; stroke-linecap:round; stroke-width:0.25;"/>
<line x1="273.700000" y1="84.000000" x2="277.700000" y2="84.000000"  style="stroke:black; stroke-linecap:round; stroke-width:0.25;"/>
<line x1="277.700000" y1="84.000000" x2="287.700000" y2="84.000000"  style="stroke:black; stroke-linecap:round; stroke-width:0.25;"/>
</svg>
