<?xml version="1.0"?>
<svg xmlns="http://www.w3.org/2000/svg" xmlns:xlink="http://www.w3.org/1999/xlink" viewBox="0 0 301.400000 284.000000" width="150.700000mm" height="142.000000mm" version="1.1">
<a xlink:href="process.svg">
<rect x="1.000000" y="1.000000" width="300.400000" height="283.000000" rx="0" ry="0" style="stroke:none;fill:#cccccc;"/>
<rect x="0.000000" y="0.000000" width="300.400000" height="283.000000" rx="0" ry="0" style="stroke:none;fill:#ffffff;"/>
</a>
<text x="10.000000" y="7.000000" font-family="Arial" font-size="7"></text>
<a xlink:href="amp-0x7fafc1b79050.svg">
<rect x="95.700000" y="25.000000" width="24.000000" height="24.000000" rx="0" ry="0" style="stroke:none;fill:#cccccc;"/>
<rect x="94.700000" y="24.000000" width="24.000000" height="24.000000" rx="0" ry="0" style="stroke:none;fill:#003366;"/>
</a>
<a xlink:href="amp-0x7fafc1b79050.svg">
<text x="106.700000" y="38.000000" font-family="Arial" font-size="7" text-anchor="middle" fill="#FFFFFF">amp</text>
</a>
<circle cx="96.700000" cy="26.000000" r="1"/>
<rect x="95.700000" y="67.000000" width="24.000000" height="24.000000" rx="0" ry="0" style="stroke:none;fill:#cccccc;"/>
<rect x="94.700000" y="66.000000" width="24.000000" height="24.000000" rx="0" ry="0" style="stroke:none;fill:#f44800;"/>
<text x="106.700000" y="80.000000" font-family="Arial" font-size="7" text-anchor="middle" fill="#FFFFFF">3</text>
<circle cx="96.700000" cy="68.000000" r="1"/>
<line x1="85.700000" y1="57.000000" x2="85.700000" y2="99.000000"  style="stroke: black; stroke-linecap:round; stroke-width:0.25; stroke-dasharray:3,3;"/>
<line x1="85.700000" y1="99.000000" x2="127.700000" y2="99.000000"  style="stroke: black; stroke-linecap:round; stroke-width:0.25; stroke-dasharray:3,3;"/>
<line x1="127.700000" y1="99.000000" x2="127.700000" y2="57.000000"  style="stroke: black; stroke-linecap:round; stroke-width:0.25; stroke-dasharray:3,3;"/>
<line x1="85.700000" y1="57.000000" x2="90.700000" y2="57.000000"  style="stroke: black; stroke-linecap:round; stroke-width:0.25; stroke-dasharray:3,3;"/>
<line x1="103.600000" y1="57.000000" x2="127.700000" y2="57.000000"  style="stroke: black; stroke-linecap:round; stroke-width:0.25; stroke-dasharray:3,3;"/>
<text x="90.700000" y="59.000000" font-family="Arial" font-size="7">Nc</text>
<rect x="145.700000" y="51.000000" width="24.000000" height="24.000000" rx="0" ry="0" style="stroke:none;fill:#cccccc;"/>
<rect x="144.700000" y="50.000000" width="24.000000" height="24.000000" rx="0" ry="0" style="stroke:none;fill:#4B71A1;"/>
<text x="156.700000" y="64.000000" font-family="Arial" font-size="7" text-anchor="middle" fill="#FFFFFF">/</text>
<circle cx="146.700000" cy="52.000000" r="1"/>
<line x1="141.700000" y1="57.000000" x2="144.700000" y2="58.000000"  transform="rotate(0.000000,144.700000,58.000000)" style="stroke: black; stroke-width:0.25;"/>
<line x1="141.700000" y1="59.000000" x2="144.700000" y2="58.000000"  transform="rotate(0.000000,144.700000,58.000000)" style="stroke: black; stroke-width:0.25;"/>
<line x1="141.700000" y1="65.000000" x2="144.700000" y2="66.000000"  transform="rotate(0.000000,144.700000,66.000000)" style="stroke: black; stroke-width:0.25;"/>
<line x1="141.700000" y1="67.000000" x2="144.700000" y2="66.000000"  transform="rotate(0.000000,144.700000,66.000000)" style="stroke: black; stroke-width:0.25;"/>
<a xlink:href="sfreq-0x7fafc1b69b30.svg">
<rect x="51.450000" y="109.000000" width="25.800000" height="24.000000" rx="0" ry="0" style="stroke:none;fill:#cccccc;"/>
<rect x="50.450000" y="108.000000" width="25.800000" height="24.000000" rx="0" ry="0" style="stroke:none;fill:#003366;"/>
</a>
<a xlink:href="sfreq-0x7fafc1b69b30.svg">
<text x="63.350000" y="122.000000" font-family="Arial" font-size="7" text-anchor="middle" fill="#FFFFFF">sfreq</text>
</a>
<circle cx="52.450000" cy="110.000000" r="1"/>
<a xlink:href="sawchoice-0x7fafc1b64fd0.svg">
<rect x="85.250000" y="109.000000" width="38.700000" height="24.000000" rx="0" ry="0" style="stroke:none;fill:#cccccc;"/>
<rect x="84.250000" y="108.000000" width="38.700000" height="24.000000" rx="0" ry="0" style="stroke:none;fill:#003366;"/>
</a>
<a xlink:href="sawchoice-0x7fafc1b64fd0.svg">
<text x="103.600000" y="122.000000" font-family="Arial" font-size="7" text-anchor="middle" fill="#FFFFFF">sawchoice</text>
</a>
<circle cx="86.250000" cy="110.000000" r="1"/>
<line x1="81.250000" y1="119.000000" x2="84.250000" y2="120.000000"  transform="rotate(0.000000,84.250000,120.000000)" style="stroke: black; stroke-width:0.25;"/>
<line x1="81.250000" y1="121.000000" x2="84.250000" y2="120.000000"  transform="rotate(0.000000,84.250000,120.000000)" style="stroke: black; stroke-width:0.25;"/>
<a xlink:href="sfreq-0x7fafc1b69b30.svg">
<rect x="31.450000" y="141.000000" width="25.800000" height="24.000000" rx="0" ry="0" style="stroke:none;fill:#cccccc;"/>
<rect x="30.450000" y="140.000000" width="25.800000" height="24.000000" rx="0" ry="0" style="stroke:none;fill:#003366;"/>
</a>
<a xlink:href="sfreq-0x7fafc1b69b30.svg">
<text x="43.350000" y="154.000000" font-family="Arial" font-size="7" text-anchor="middle" fill="#FFFFFF">sfreq</text>
</a>
<circle cx="32.450000" cy="142.000000" r="1"/>
<a xlink:href="detune1-0x7fafc1b6e5b0.svg">
<rect x="25.000000" y="173.000000" width="38.700000" height="24.000000" rx="0" ry="0" style="stroke:none;fill:#cccccc;"/>
<rect x="24.000000" y="172.000000" width="38.700000" height="24.000000" rx="0" ry="0" style="stroke:none;fill:#003366;"/>
</a>
<a xlink:href="detune1-0x7fafc1b6e5b0.svg">
<text x="43.350000" y="186.000000" font-family="Arial" font-size="7" text-anchor="middle" fill="#FFFFFF">detune1</text>
</a>
<circle cx="26.000000" cy="174.000000" r="1"/>
<rect x="79.700000" y="157.000000" width="24.000000" height="24.000000" rx="0" ry="0" style="stroke:none;fill:#cccccc;"/>
<rect x="78.700000" y="156.000000" width="24.000000" height="24.000000" rx="0" ry="0" style="stroke:none;fill:#4B71A1;"/>
<text x="90.700000" y="170.000000" font-family="Arial" font-size="7" text-anchor="middle" fill="#FFFFFF">*</text>
<circle cx="80.700000" cy="158.000000" r="1"/>
<line x1="75.700000" y1="163.000000" x2="78.700000" y2="164.000000"  transform="rotate(0.000000,78.700000,164.000000)" style="stroke: black; stroke-width:0.25;"/>
<line x1="75.700000" y1="165.000000" x2="78.700000" y2="164.000000"  transform="rotate(0.000000,78.700000,164.000000)" style="stroke: black; stroke-width:0.25;"/>
<line x1="75.700000" y1="171.000000" x2="78.700000" y2="172.000000"  transform="rotate(0.000000,78.700000,172.000000)" style="stroke: black; stroke-width:0.25;"/>
<line x1="75.700000" y1="173.000000" x2="78.700000" y2="172.000000"  transform="rotate(0.000000,78.700000,172.000000)" style="stroke: black; stroke-width:0.25;"/>
<a xlink:href="sawchoice-0x7fafc1b64fd0.svg">
<rect x="111.700000" y="157.000000" width="38.700000" height="24.000000" rx="0" ry="0" style="stroke:none;fill:#cccccc;"/>
<rect x="110.700000" y="156.000000" width="38.700000" height="24.000000" rx="0" ry="0" style="stroke:none;fill:#003366;"/>
</a>
<a xlink:href="sawchoice-0x7fafc1b64fd0.svg">
<text x="130.050000" y="170.000000" font-family="Arial" font-size="7" text-anchor="middle" fill="#FFFFFF">sawchoice</text>
</a>
<circle cx="112.700000" cy="158.000000" r="1"/>
<line x1="107.700000" y1="167.000000" x2="110.700000" y2="168.000000"  transform="rotate(0.000000,110.700000,168.000000)" style="stroke: black; stroke-width:0.25;"/>
<line x1="107.700000" y1="169.000000" x2="110.700000" y2="168.000000"  transform="rotate(0.000000,110.700000,168.000000)" style="stroke: black; stroke-width:0.25;"/>
<rect x="166.400000" y="141.000000" width="24.000000" height="24.000000" rx="0" ry="0" style="stroke:none;fill:#cccccc;"/>
<rect x="165.400000" y="140.000000" width="24.000000" height="24.000000" rx="0" ry="0" style="stroke:none;fill:#4B71A1;"/>
<text x="177.400000" y="154.000000" font-family="Arial" font-size="7" text-anchor="middle" fill="#FFFFFF">+</text>
<circle cx="167.400000" cy="142.000000" r="1"/>
<line x1="162.400000" y1="147.000000" x2="165.400000" y2="148.000000"  transform="rotate(0.000000,165.400000,148.000000)" style="stroke: black; stroke-width:0.25;"/>
<line x1="162.400000" y1="149.000000" x2="165.400000" y2="148.000000"  transform="rotate(0.000000,165.400000,148.000000)" style="stroke: black; stroke-width:0.25;"/>
<line x1="162.400000" y1="155.000000" x2="165.400000" y2="156.000000"  transform="rotate(0.000000,165.400000,156.000000)" style="stroke: black; stroke-width:0.25;"/>
<line x1="162.400000" y1="157.000000" x2="165.400000" y2="156.000000"  transform="rotate(0.000000,165.400000,156.000000)" style="stroke: black; stroke-width:0.25;"/>
<a xlink:href="sfreq-0x7fafc1b69b30.svg">
<rect x="51.450000" y="205.000000" width="25.800000" height="24.000000" rx="0" ry="0" style="stroke:none;fill:#cccccc;"/>
<rect x="50.450000" y="204.000000" width="25.800000" height="24.000000" rx="0" ry="0" style="stroke:none;fill:#003366;"/>
</a>
<a xlink:href="sfreq-0x7fafc1b69b30.svg">
<text x="63.350000" y="218.000000" font-family="Arial" font-size="7" text-anchor="middle" fill="#FFFFFF">sfreq</text>
</a>
<circle cx="52.450000" cy="206.000000" r="1"/>
<a xlink:href="detune2-0x7fafc1b725c0.svg">
<rect x="45.000000" y="237.000000" width="38.700000" height="24.000000" rx="0" ry="0" style="stroke:none;fill:#cccccc;"/>
<rect x="44.000000" y="236.000000" width="38.700000" height="24.000000" rx="0" ry="0" style="stroke:none;fill:#003366;"/>
</a>
<a xlink:href="detune2-0x7fafc1b725c0.svg">
<text x="63.350000" y="250.000000" font-family="Arial" font-size="7" text-anchor="middle" fill="#FFFFFF">detune2</text>
</a>
<circle cx="46.000000" cy="238.000000" r="1"/>
<rect x="99.700000" y="221.000000" width="24.000000" height="24.000000" rx="0" ry="0" style="stroke:none;fill:#cccccc;"/>
<rect x="98.700000" y="220.000000" width="24.000000" height="24.000000" rx="0" ry="0" style="stroke:none;fill:#4B71A1;"/>
<text x="110.700000" y="234.000000" font-family="Arial" font-size="7" text-anchor="middle" fill="#FFFFFF">*</text>
<circle cx="100.700000" cy="222.000000" r="1"/>
<line x1="95.700000" y1="227.000000" x2="98.700000" y2="228.000000"  transform="rotate(0.000000,98.700000,228.000000)" style="stroke: black; stroke-width:0.25;"/>
<line x1="95.700000" y1="229.000000" x2="98.700000" y2="228.000000"  transform="rotate(0.000000,98.700000,228.000000)" style="stroke: black; stroke-width:0.25;"/>
<line x1="95.700000" y1="235.000000" x2="98.700000" y2="236.000000"  transform="rotate(0.000000,98.700000,236.000000)" style="stroke: black; stroke-width:0.25;"/>
<line x1="95.700000" y1="237.000000" x2="98.700000" y2="236.000000"  transform="rotate(0.000000,98.700000,236.000000)" style="stroke: black; stroke-width:0.25;"/>
<a xlink:href="sawchoice-0x7fafc1b64fd0.svg">
<rect x="131.700000" y="221.000000" width="38.700000" height="24.000000" rx="0" ry="0" style="stroke:none;fill:#cccccc;"/>
<rect x="130.700000" y="220.000000" width="38.700000" height="24.000000" rx="0" ry="0" style="stroke:none;fill:#003366;"/>
</a>
<a xlink:href="sawchoice-0x7fafc1b64fd0.svg">
<text x="150.050000" y="234.000000" font-family="Arial" font-size="7" text-anchor="middle" fill="#FFFFFF">sawchoice</text>
</a>
<circle cx="132.700000" cy="222.000000" r="1"/>
<line x1="127.700000" y1="231.000000" x2="130.700000" y2="232.000000"  transform="rotate(0.000000,130.700000,232.000000)" style="stroke: black; stroke-width:0.25;"/>
<line x1="127.700000" y1="233.000000" x2="130.700000" y2="232.000000"  transform="rotate(0.000000,130.700000,232.000000)" style="stroke: black; stroke-width:0.25;"/>
<rect x="206.400000" y="173.000000" width="24.000000" height="24.000000" rx="0" ry="0" style="stroke:none;fill:#cccccc;"/>
<rect x="205.400000" y="172.000000" width="24.000000" height="24.000000" rx="0" ry="0" style="stroke:none;fill:#4B71A1;"/>
<text x="217.400000" y="186.000000" font-family="Arial" font-size="7" text-anchor="middle" fill="#FFFFFF">+</text>
<circle cx="207.400000" cy="174.000000" r="1"/>
<line x1="202.400000" y1="179.000000" x2="205.400000" y2="180.000000"  transform="rotate(0.000000,205.400000,180.000000)" style="stroke: black; stroke-width:0.25;"/>
<line x1="202.400000" y1="181.000000" x2="205.400000" y2="180.000000"  transform="rotate(0.000000,205.400000,180.000000)" style="stroke: black; stroke-width:0.25;"/>
<line x1="202.400000" y1="187.000000" x2="205.400000" y2="188.000000"  transform="rotate(0.000000,205.400000,188.000000)" style="stroke: black; stroke-width:0.25;"/>
<line x1="202.400000" y1="189.000000" x2="205.400000" y2="188.000000"  transform="rotate(0.000000,205.400000,188.000000)" style="stroke: black; stroke-width:0.25;"/>
<rect x="246.400000" y="131.000000" width="24.000000" height="24.000000" rx="0" ry="0" style="stroke:none;fill:#cccccc;"/>
<rect x="245.400000" y="130.000000" width="24.000000" height="24.000000" rx="0" ry="0" style="stroke:none;fill:#4B71A1;"/>
<text x="257.400000" y="144.000000" font-family="Arial" font-size="7" text-anchor="middle" fill="#FFFFFF">*</text>
<circle cx="247.400000" cy="132.000000" r="1"/>
<line x1="242.400000" y1="137.000000" x2="245.400000" y2="138.000000"  transform="rotate(0.000000,245.400000,138.000000)" style="stroke: black; stroke-width:0.25;"/>
<line x1="242.400000" y1="139.000000" x2="245.400000" y2="138.000000"  transform="rotate(0.000000,245.400000,138.000000)" style="stroke: black; stroke-width:0.25;"/>
<line x1="242.400000" y1="145.000000" x2="245.400000" y2="146.000000"  transform="rotate(0.000000,245.400000,146.000000)" style="stroke: black; stroke-width:0.25;"/>
<line x1="242.400000" y1="147.000000" x2="245.400000" y2="146.000000"  transform="rotate(0.000000,245.400000,146.000000)" style="stroke: black; stroke-width:0.25;"/>
<line x1="15.000000" y1="15.000000" x2="15.000000" y2="269.000000"  style="stroke: black; stroke-linecap:round; stroke-width:0.25; stroke-dasharray:3,3;"/>
<line x1="15.000000" y1="269.000000" x2="286.400000" y2="269.000000"  style="stroke: black; stroke-linecap:round; stroke-width:0.25; stroke-dasharray:3,3;"/>
<line x1="286.400000" y1="269.000000" x2="286.400000" y2="15.000000"  style="stroke: black; stroke-linecap:round; stroke-width:0.25; stroke-dasharray:3,3;"/>
<line x1="15.000000" y1="15.000000" x2="20.000000" y2="15.000000"  style="stroke: black; stroke-linecap:round; stroke-width:0.25; stroke-dasharray:3,3;"/>
<line x1="39.350000" y1="15.000000" x2="286.400000" y2="15.000000"  style="stroke: black; stroke-linecap:round; stroke-width:0.25; stroke-dasharray:3,3;"/>
<text x="20.000000" y="17.000000" font-family="Arial" font-size="7">tone</text>
<line x1="288.400000" y1="141.000000" x2="291.400000" y2="142.000000"  transform="rotate(0.000000,291.400000,142.000000)" style="stroke: black; stroke-width:0.25;"/>
<line x1="288.400000" y1="143.000000" x2="291.400000" y2="142.000000"  transform="rotate(0.000000,291.400000,142.000000)" style="stroke: black; stroke-width:0.25;"/>
<line x1="56.250000" y1="152.000000" x2="60.250000" y2="152.000000"  style="stroke:black; stroke-linecap:round; stroke-width:0.25;"/>
<line x1="60.250000" y1="152.000000" x2="66.700000" y2="152.000000"  style="stroke:black; stroke-linecap:round; stroke-width:0.25;"/>
<line x1="62.700000" y1="184.000000" x2="66.700000" y2="184.000000"  style="stroke:black; stroke-linecap:round; stroke-width:0.25;"/>
<line x1="66.700000" y1="172.000000" x2="74.700000" y2="172.000000"  style="stroke:black; stroke-linecap:round; stroke-width:0.25;"/>
<line x1="66.700000" y1="184.000000" x2="66.700000" y2="172.000000"  style="stroke:black; stroke-linecap:round; stroke-width:0.25;"/>
<line x1="66.700000" y1="184.000000" x2="66.700000" y2="184.000000"  style="stroke:black; stroke-linecap:round; stroke-width:0.25;"/>
<line x1="66.700000" y1="152.000000" x2="74.700000" y2="152.000000"  style="stroke:black; stroke-linecap:round; stroke-width:0.25;"/>
<line x1="74.700000" y1="164.000000" x2="78.700000" y2="164.000000"  style="stroke:black; stroke-linecap:round; stroke-width:0.25;"/>
<line x1="74.700000" y1="172.000000" x2="78.700000" y2="172.000000"  style="stroke:black; stroke-linecap:round; stroke-width:0.25;"/>
<line x1="74.700000" y1="152.000000" x2="74.700000" y2="164.000000"  style="stroke:black; stroke-linecap:round; stroke-width:0.25;"/>
<line x1="74.700000" y1="164.000000" x2="74.700000" y2="164.000000"  style="stroke:black; stroke-linecap:round; stroke-width:0.25;"/>
<line x1="76.250000" y1="120.000000" x2="80.250000" y2="120.000000"  style="stroke:black; stroke-linecap:round; stroke-width:0.25;"/>
<line x1="76.250000" y1="216.000000" x2="80.250000" y2="216.000000"  style="stroke:black; stroke-linecap:round; stroke-width:0.25;"/>
<line x1="80.250000" y1="120.000000" x2="80.250000" y2="120.000000"  style="stroke:black; stroke-linecap:round; stroke-width:0.25;"/>
<line x1="80.250000" y1="120.000000" x2="84.250000" y2="120.000000"  style="stroke:black; stroke-linecap:round; stroke-width:0.25;"/>
<line x1="80.250000" y1="216.000000" x2="86.700000" y2="216.000000"  style="stroke:black; stroke-linecap:round; stroke-width:0.25;"/>
<line x1="82.700000" y1="248.000000" x2="86.700000" y2="248.000000"  style="stroke:black; stroke-linecap:round; stroke-width:0.25;"/>
<line x1="86.700000" y1="236.000000" x2="94.700000" y2="236.000000"  style="stroke:black; stroke-linecap:round; stroke-width:0.25;"/>
<line x1="86.700000" y1="248.000000" x2="86.700000" y2="236.000000"  style="stroke:black; stroke-linecap:round; stroke-width:0.25;"/>
<line x1="86.700000" y1="248.000000" x2="86.700000" y2="248.000000"  style="stroke:black; stroke-linecap:round; stroke-width:0.25;"/>
<line x1="86.700000" y1="216.000000" x2="94.700000" y2="216.000000"  style="stroke:black; stroke-linecap:round; stroke-width:0.25;"/>
<line x1="94.700000" y1="228.000000" x2="98.700000" y2="228.000000"  style="stroke:black; stroke-linecap:round; stroke-width:0.25;"/>
<line x1="94.700000" y1="236.000000" x2="98.700000" y2="236.000000"  style="stroke:black; stroke-linecap:round; stroke-width:0.25;"/>
<line x1="94.700000" y1="216.000000" x2="94.700000" y2="228.000000"  style="stroke:black; stroke-linecap:round; stroke-width:0.25;"/>
<line x1="94.700000" y1="228.000000" x2="94.700000" y2="228.000000"  style="stroke:black; stroke-linecap:round; stroke-width:0.25;"/>
<line x1="102.700000" y1="168.000000" x2="106.700000" y2="168.000000"  style="stroke:black; stroke-linecap:round; stroke-width:0.25;"/>
<line x1="106.700000" y1="168.000000" x2="106.700000" y2="168.000000"  style="stroke:black; stroke-linecap:round; stroke-width:0.25;"/>
<line x1="106.700000" y1="168.000000" x2="110.700000" y2="168.000000"  style="stroke:black; stroke-linecap:round; stroke-width:0.25;"/>
<line x1="118.700000" y1="36.000000" x2="122.700000" y2="36.000000"  style="stroke:black; stroke-linecap:round; stroke-width:0.25;"/>
<line x1="118.700000" y1="78.000000" x2="122.700000" y2="78.000000"  style="stroke:black; stroke-linecap:round; stroke-width:0.25;"/>
<line x1="122.700000" y1="36.000000" x2="132.700000" y2="36.000000"  style="stroke:black; stroke-linecap:round; stroke-width:0.25;"/>
<line x1="122.700000" y1="78.000000" x2="132.700000" y2="78.000000"  style="stroke:black; stroke-linecap:round; stroke-width:0.25;"/>
<line x1="122.700000" y1="232.000000" x2="126.700000" y2="232.000000"  style="stroke:black; stroke-linecap:round; stroke-width:0.25;"/>
<line x1="122.950000" y1="120.000000" x2="126.950000" y2="120.000000"  style="stroke:black; stroke-linecap:round; stroke-width:0.25;"/>
<line x1="126.700000" y1="232.000000" x2="126.700000" y2="232.000000"  style="stroke:black; stroke-linecap:round; stroke-width:0.25;"/>
<line x1="126.700000" y1="232.000000" x2="130.700000" y2="232.000000"  style="stroke:black; stroke-linecap:round; stroke-width:0.25;"/>
<line x1="126.950000" y1="120.000000" x2="153.400000" y2="120.000000"  style="stroke:black; stroke-linecap:round; stroke-width:0.25;"/>
<line x1="132.700000" y1="36.000000" x2="140.700000" y2="36.000000"  style="stroke:black; stroke-linecap:round; stroke-width:0.25;"/>
<line x1="132.700000" y1="66.000000" x2="140.700000" y2="66.000000"  style="stroke:black; stroke-linecap:round; stroke-width:0.25;"/>
<line x1="132.700000" y1="78.000000" x2="132.700000" y2="66.000000"  style="stroke:black; stroke-linecap:round; stroke-width:0.25;"/>
<line x1="132.700000" y1="78.000000" x2="132.700000" y2="78.000000"  style="stroke:black; stroke-linecap:round; stroke-width:0.25;"/>
<line x1="140.700000" y1="36.000000" x2="140.700000" y2="58.000000"  style="stroke:black; stroke-linecap:round; stroke-width:0.25;"/>
<line x1="140.700000" y1="58.000000" x2="140.700000" y2="58.000000"  style="stroke:black; stroke-linecap:round; stroke-width:0.25;"/>
<line x1="140.700000" y1="58.000000" x2="144.700000" y2="58.000000"  style="stroke:black; stroke-linecap:round; stroke-width:0.25;"/>
<line x1="140.700000" y1="66.000000" x2="144.700000" y2="66.000000"  style="stroke:black; stroke-linecap:round; stroke-width:0.25;"/>
<line x1="149.400000" y1="168.000000" x2="153.400000" y2="168.000000"  style="stroke:black; stroke-linecap:round; stroke-width:0.25;"/>
<line x1="153.400000" y1="120.000000" x2="161.400000" y2="120.000000"  style="stroke:black; stroke-linecap:round; stroke-width:0.25;"/>
<line x1="153.400000" y1="156.000000" x2="161.400000" y2="156.000000"  style="stroke:black; stroke-linecap:round; stroke-width:0.25;"/>
<line x1="153.400000" y1="168.000000" x2="153.400000" y2="156.000000"  style="stroke:black; stroke-linecap:round; stroke-width:0.25;"/>
<line x1="153.400000" y1="168.000000" x2="153.400000" y2="168.000000"  style="stroke:black; stroke-linecap:round; stroke-width:0.25;"/>
<line x1="161.400000" y1="120.000000" x2="161.400000" y2="148.000000"  style="stroke:black; stroke-linecap:round; stroke-width:0.25;"/>
<line x1="161.400000" y1="148.000000" x2="161.400000" y2="148.000000"  style="stroke:black; stroke-linecap:round; stroke-width:0.25;"/>
<line x1="161.400000" y1="148.000000" x2="165.400000" y2="148.000000"  style="stroke:black; stroke-linecap:round; stroke-width:0.25;"/>
<line x1="161.400000" y1="156.000000" x2="165.400000" y2="156.000000"  style="stroke:black; stroke-linecap:round; stroke-width:0.25;"/>
<line x1="168.700000" y1="62.000000" x2="172.700000" y2="62.000000"  style="stroke:black; stroke-linecap:round; stroke-width:0.25;"/>
<line x1="169.400000" y1="232.000000" x2="173.400000" y2="232.000000"  style="stroke:black; stroke-linecap:round; stroke-width:0.25;"/>
<line x1="172.700000" y1="62.000000" x2="233.400000" y2="62.000000"  style="stroke:black; stroke-linecap:round; stroke-width:0.25;"/>
<line x1="173.400000" y1="232.000000" x2="193.400000" y2="232.000000"  style="stroke:black; stroke-linecap:round; stroke-width:0.25;"/>
<line x1="189.400000" y1="152.000000" x2="193.400000" y2="152.000000"  style="stroke:black; stroke-linecap:round; stroke-width:0.25;"/>
<line x1="193.400000" y1="152.000000" x2="201.400000" y2="152.000000"  style="stroke:black; stroke-linecap:round; stroke-width:0.25;"/>
<line x1="193.400000" y1="188.000000" x2="201.400000" y2="188.000000"  style="stroke:black; stroke-linecap:round; stroke-width:0.25;"/>
<line x1="193.400000" y1="232.000000" x2="193.400000" y2="188.000000"  style="stroke:black; stroke-linecap:round; stroke-width:0.25;"/>
<line x1="193.400000" y1="232.000000" x2="193.400000" y2="232.000000"  style="stroke:black; stroke-linecap:round; stroke-width:0.25;"/>
<line x1="201.400000" y1="152.000000" x2="201.400000" y2="180.000000"  style="stroke:black; stroke-linecap:round; stroke-width:0.25;"/>
<line x1="201.400000" y1="180.000000" x2="201.400000" y2="180.000000"  style="stroke:black; stroke-linecap:round; stroke-width:0.25;"/>
<line x1="201.400000" y1="180.000000" x2="205.400000" y2="180.000000"  style="stroke:black; stroke-linecap:round; stroke-width:0.25;"/>
<line x1="201.400000" y1="188.000000" x2="205.400000" y2="188.000000"  style="stroke:black; stroke-linecap:round; stroke-width:0.25;"/>
<line x1="229.400000" y1="184.000000" x2="233.400000" y2="184.000000"  style="stroke:black; stroke-linecap:round; stroke-width:0.25;"/>
<line x1="233.400000" y1="62.000000" x2="241.400000" y2="62.000000"  style="stroke:black; stroke-linecap:round; stroke-width:0.25;"/>
<line x1="233.400000" y1="146.000000" x2="241.400000" y2="146.000000"  style="stroke:black; stroke-linecap:round; stroke-width:0.25;"/>
<line x1="233.400000" y1="184.000000" x2="233.400000" y2="146.000000"  style="stroke:black; stroke-linecap:round; stroke-width:0.25;"/>
<line x1="233.400000" y1="184.000000" x2="233.400000" y2="184.000000"  style="stroke:black; stroke-linecap:round; stroke-width:0.25;"/>
<line x1="241.400000" y1="62.000000" x2="241.400000" y2="138.000000"  style="stroke:black; stroke-linecap:round; stroke-width:0.25;"/>
<line x1="241.400000" y1="138.000000" x2="241.400000" y2="138.000000"  style="stroke:black; stroke-linecap:round; stroke-width:0.25;"/>
<line x1="241.400000" y1="138.000000" x2="245.400000" y2="138.000000"  style="stroke:black; stroke-linecap:round; stroke-width:0.25;"/>
<line x1="241.400000" y1="146.000000" x2="245.400000" y2="146.000000"  style="stroke:black; stroke-linecap:round; stroke-width:0.25;"/>
<line x1="269.400000" y1="142.000000" x2="273.400000" y2="142.000000"  style="stroke:black; stroke-linecap:round; stroke-width:0.25;"/>
<line x1="273.400000" y1="142.000000" x2="273.400000" y2="142.000000"  style="stroke:black; stroke-linecap:round; stroke-width:0.25;"/>
<line x1="273.400000" y1="142.000000" x2="277.400000" y2="142.000000"  style="stroke:black; stroke-linecap:round; stroke-width:0.25;"/>
<line x1="277.400000" y1="142.000000" x2="281.400000" y2="142.000000"  style="stroke:black; stroke-linecap:round; stroke-width:0.25;"/>
<line x1="281.400000" y1="142.000000" x2="291.400000" y2="142.000000"  style="stroke:black; stroke-linecap:round; stroke-width:0.25;"/>
</svg>
