<?xml version="1.0"?>
<svg xmlns="http://www.w3.org/2000/svg" xmlns:xlink="http://www.w3.org/1999/xlink" viewBox="0 0 392.100000 124.000000" width="196.050000mm" height="62.000000mm" version="1.1">
<a xlink:href="osc-0x7ffe43ded440.svg">
<rect x="1.000000" y="1.000000" width="391.100000" height="123.000000" rx="0" ry="0" style="stroke:none;fill:#cccccc;"/>
<rect x="0.000000" y="0.000000" width="391.100000" height="123.000000" rx="0" ry="0" style="stroke:none;fill:#ffffff;"/>
</a>
<text x="10.000000" y="7.000000" font-family="Arial" font-size="7"></text>
<rect x="41.900000" y="35.000000" width="24.000000" height="24.000000" rx="0" ry="0" style="stroke:none;fill:#cccccc;"/>
<rect x="40.900000" y="34.000000" width="24.000000" height="24.000000" rx="0" ry="0" style="stroke:none;fill:#f44800;"/>
<text x="52.900000" y="48.000000" font-family="Arial" font-size="7" text-anchor="middle" fill="#FFFFFF">5</text>
<circle cx="42.900000" cy="36.000000" r="1"/>
<line x1="31.900000" y1="25.000000" x2="31.900000" y2="67.000000"  style="stroke: black; stroke-linecap:round; stroke-width:0.25; stroke-dasharray:3,3;"/>
<line x1="31.900000" y1="67.000000" x2="73.900000" y2="67.000000"  style="stroke: black; stroke-linecap:round; stroke-width:0.25; stroke-dasharray:3,3;"/>
<line x1="73.900000" y1="67.000000" x2="73.900000" y2="25.000000"  style="stroke: black; stroke-linecap:round; stroke-width:0.25; stroke-dasharray:3,3;"/>
<line x1="31.900000" y1="25.000000" x2="36.900000" y2="25.000000"  style="stroke: black; stroke-linecap:round; stroke-width:0.25; stroke-dasharray:3,3;"/>
<line x1="73.900000" y1="25.000000" x2="73.900000" y2="25.000000"  style="stroke: black; stroke-linecap:round; stroke-width:0.25; stroke-dasharray:3,3;"/>
<text x="36.900000" y="27.000000" font-family="Arial" font-size="7">vibratoFreq</text>
<a xlink:href="SR-0x7ffe439dbde0.svg">
<rect x="25.000000" y="77.000000" width="24.000000" height="24.000000" rx="0" ry="0" style="stroke:none;fill:#cccccc;"/>
<rect x="24.000000" y="76.000000" width="24.000000" height="24.000000" rx="0" ry="0" style="stroke:none;fill:#003366;"/>
</a>
<a xlink:href="SR-0x7ffe439dbde0.svg">
<text x="36.000000" y="90.000000" font-family="Arial" font-size="7" text-anchor="middle" fill="#FFFFFF">SR</text>
</a>
<circle cx="26.000000" cy="78.000000" r="1"/>
<rect x="57.000000" y="77.000000" width="25.800000" height="24.000000" rx="0" ry="0" style="stroke:none;fill:#cccccc;"/>
<rect x="56.000000" y="76.000000" width="25.800000" height="24.000000" rx="0" ry="0" style="stroke:none;fill:#4B71A1;"/>
<text x="68.900000" y="90.000000" font-family="Arial" font-size="7" text-anchor="middle" fill="#FFFFFF">float</text>
<circle cx="58.000000" cy="78.000000" r="1"/>
<line x1="53.000000" y1="87.000000" x2="56.000000" y2="88.000000"  transform="rotate(0.000000,56.000000,88.000000)" style="stroke: black; stroke-width:0.25;"/>
<line x1="53.000000" y1="89.000000" x2="56.000000" y2="88.000000"  transform="rotate(0.000000,56.000000,88.000000)" style="stroke: black; stroke-width:0.25;"/>
<rect x="98.800000" y="51.000000" width="24.000000" height="24.000000" rx="0" ry="0" style="stroke:none;fill:#cccccc;"/>
<rect x="97.800000" y="50.000000" width="24.000000" height="24.000000" rx="0" ry="0" style="stroke:none;fill:#4B71A1;"/>
<text x="109.800000" y="64.000000" font-family="Arial" font-size="7" text-anchor="middle" fill="#FFFFFF">/</text>
<circle cx="99.800000" cy="52.000000" r="1"/>
<line x1="94.800000" y1="57.000000" x2="97.800000" y2="58.000000"  transform="rotate(0.000000,97.800000,58.000000)" style="stroke: black; stroke-width:0.25;"/>
<line x1="94.800000" y1="59.000000" x2="97.800000" y2="58.000000"  transform="rotate(0.000000,97.800000,58.000000)" style="stroke: black; stroke-width:0.25;"/>
<line x1="94.800000" y1="65.000000" x2="97.800000" y2="66.000000"  transform="rotate(0.000000,97.800000,66.000000)" style="stroke: black; stroke-width:0.25;"/>
<line x1="94.800000" y1="67.000000" x2="97.800000" y2="66.000000"  transform="rotate(0.000000,97.800000,66.000000)" style="stroke: black; stroke-width:0.25;"/>
<rect x="146.800000" y="55.000000" width="24.000000" height="24.000000" rx="0" ry="0" style="stroke:none;fill:#cccccc;"/>
<rect x="145.800000" y="54.000000" width="24.000000" height="24.000000" rx="0" ry="0" style="stroke:none;fill:#4B71A1;"/>
<text x="157.800000" y="68.000000" font-family="Arial" font-size="7" text-anchor="middle" fill="#FFFFFF">+</text>
<circle cx="147.800000" cy="56.000000" r="1"/>
<line x1="142.800000" y1="61.000000" x2="145.800000" y2="62.000000"  transform="rotate(0.000000,145.800000,62.000000)" style="stroke: black; stroke-width:0.25;"/>
<line x1="142.800000" y1="63.000000" x2="145.800000" y2="62.000000"  transform="rotate(0.000000,145.800000,62.000000)" style="stroke: black; stroke-width:0.25;"/>
<line x1="142.800000" y1="69.000000" x2="145.800000" y2="70.000000"  transform="rotate(0.000000,145.800000,70.000000)" style="stroke: black; stroke-width:0.25;"/>
<line x1="142.800000" y1="71.000000" x2="145.800000" y2="70.000000"  transform="rotate(0.000000,145.800000,70.000000)" style="stroke: black; stroke-width:0.25;"/>
<a xlink:href="decimal-0x7ffe439e0730.svg">
<rect x="178.800000" y="55.000000" width="38.700000" height="24.000000" rx="0" ry="0" style="stroke:none;fill:#cccccc;"/>
<rect x="177.800000" y="54.000000" width="38.700000" height="24.000000" rx="0" ry="0" style="stroke:none;fill:#003366;"/>
</a>
<a xlink:href="decimal-0x7ffe439e0730.svg">
<text x="197.150000" y="68.000000" font-family="Arial" font-size="7" text-anchor="middle" fill="#FFFFFF">decimal</text>
</a>
<circle cx="179.800000" cy="56.000000" r="1"/>
<line x1="174.800000" y1="65.000000" x2="177.800000" y2="66.000000"  transform="rotate(0.000000,177.800000,66.000000)" style="stroke: black; stroke-width:0.25;"/>
<line x1="174.800000" y1="67.000000" x2="177.800000" y2="66.000000"  transform="rotate(0.000000,177.800000,66.000000)" style="stroke: black; stroke-width:0.25;"/>
<line x1="218.500000" y1="66.000000" x2="218.500000" y2="62.000000"  style="stroke:black; stroke-linecap:round; stroke-width:0.25;"/>
<line x1="218.500000" y1="62.000000" x2="222.500000" y2="62.000000"  style="stroke:black; stroke-linecap:round; stroke-width:0.25;"/>
<line x1="222.500000" y1="62.000000" x2="222.500000" y2="66.000000"  style="stroke:black; stroke-linecap:round; stroke-width:0.25;"/>
<rect x="251.500000" y="55.000000" width="25.800000" height="24.000000" rx="0" ry="0" style="stroke:none;fill:#cccccc;"/>
<rect x="250.500000" y="54.000000" width="25.800000" height="24.000000" rx="0" ry="0" style="stroke:none;fill:#f44800;"/>
<text x="263.400000" y="68.000000" font-family="Arial" font-size="7" text-anchor="middle" fill="#FFFFFF">65536</text>
<circle cx="252.500000" cy="56.000000" r="1"/>
<line x1="241.500000" y1="45.000000" x2="241.500000" y2="87.000000"  style="stroke: black; stroke-linecap:round; stroke-width:0.25; stroke-dasharray:3,3;"/>
<line x1="241.500000" y1="87.000000" x2="285.300000" y2="87.000000"  style="stroke: black; stroke-linecap:round; stroke-width:0.25; stroke-dasharray:3,3;"/>
<line x1="285.300000" y1="87.000000" x2="285.300000" y2="45.000000"  style="stroke: black; stroke-linecap:round; stroke-width:0.25; stroke-dasharray:3,3;"/>
<line x1="241.500000" y1="45.000000" x2="246.500000" y2="45.000000"  style="stroke: black; stroke-linecap:round; stroke-width:0.25; stroke-dasharray:3,3;"/>
<line x1="281.975000" y1="45.000000" x2="285.300000" y2="45.000000"  style="stroke: black; stroke-linecap:round; stroke-width:0.25; stroke-dasharray:3,3;"/>
<text x="246.500000" y="47.000000" font-family="Arial" font-size="7">tablesize</text>
<rect x="295.300000" y="55.000000" width="25.800000" height="24.000000" rx="0" ry="0" style="stroke:none;fill:#cccccc;"/>
<rect x="294.300000" y="54.000000" width="25.800000" height="24.000000" rx="0" ry="0" style="stroke:none;fill:#4B71A1;"/>
<text x="307.200000" y="68.000000" font-family="Arial" font-size="7" text-anchor="middle" fill="#FFFFFF">float</text>
<circle cx="296.300000" cy="56.000000" r="1"/>
<line x1="291.300000" y1="65.000000" x2="294.300000" y2="66.000000"  transform="rotate(0.000000,294.300000,66.000000)" style="stroke: black; stroke-width:0.25;"/>
<line x1="291.300000" y1="67.000000" x2="294.300000" y2="66.000000"  transform="rotate(0.000000,294.300000,66.000000)" style="stroke: black; stroke-width:0.25;"/>
<rect x="337.100000" y="51.000000" width="24.000000" height="24.000000" rx="0" ry="0" style="stroke:none;fill:#cccccc;"/>
<rect x="336.100000" y="50.000000" width="24.000000" height="24.000000" rx="0" ry="0" style="stroke:none;fill:#4B71A1;"/>
<text x="348.100000" y="64.000000" font-family="Arial" font-size="7" text-anchor="middle" fill="#FFFFFF">*</text>
<circle cx="338.100000" cy="52.000000" r="1"/>
<line x1="333.100000" y1="57.000000" x2="336.100000" y2="58.000000"  transform="rotate(0.000000,336.100000,58.000000)" style="stroke: black; stroke-width:0.25;"/>
<line x1="333.100000" y1="59.000000" x2="336.100000" y2="58.000000"  transform="rotate(0.000000,336.100000,58.000000)" style="stroke: black; stroke-width:0.25;"/>
<line x1="333.100000" y1="65.000000" x2="336.100000" y2="66.000000"  transform="rotate(0.000000,336.100000,66.000000)" style="stroke: black; stroke-width:0.25;"/>
<line x1="333.100000" y1="67.000000" x2="336.100000" y2="66.000000"  transform="rotate(0.000000,336.100000,66.000000)" style="stroke: black; stroke-width:0.25;"/>
<line x1="15.000000" y1="15.000000" x2="15.000000" y2="109.000000"  style="stroke: black; stroke-linecap:round; stroke-width:0.25; stroke-dasharray:3,3;"/>
<line x1="15.000000" y1="109.000000" x2="377.100000" y2="109.000000"  style="stroke: black; stroke-linecap:round; stroke-width:0.25; stroke-dasharray:3,3;"/>
<line x1="377.100000" y1="109.000000" x2="377.100000" y2="15.000000"  style="stroke: black; stroke-linecap:round; stroke-width:0.25; stroke-dasharray:3,3;"/>
<line x1="15.000000" y1="15.000000" x2="20.000000" y2="15.000000"  style="stroke: black; stroke-linecap:round; stroke-width:0.25; stroke-dasharray:3,3;"/>
<line x1="78.050000" y1="15.000000" x2="377.100000" y2="15.000000"  style="stroke: black; stroke-linecap:round; stroke-width:0.25; stroke-dasharray:3,3;"/>
<text x="20.000000" y="17.000000" font-family="Arial" font-size="7">phasor(65536)(5)</text>
<line x1="379.100000" y1="61.000000" x2="382.100000" y2="62.000000"  transform="rotate(0.000000,382.100000,62.000000)" style="stroke: black; stroke-width:0.25;"/>
<line x1="379.100000" y1="63.000000" x2="382.100000" y2="62.000000"  transform="rotate(0.000000,382.100000,62.000000)" style="stroke: black; stroke-width:0.25;"/>
<line x1="48.000000" y1="88.000000" x2="52.000000" y2="88.000000"  style="stroke:black; stroke-linecap:round; stroke-width:0.25;"/>
<line x1="52.000000" y1="88.000000" x2="52.000000" y2="88.000000"  style="stroke:black; stroke-linecap:round; stroke-width:0.25;"/>
<line x1="52.000000" y1="88.000000" x2="56.000000" y2="88.000000"  style="stroke:black; stroke-linecap:round; stroke-width:0.25;"/>
<line x1="64.900000" y1="46.000000" x2="68.900000" y2="46.000000"  style="stroke:black; stroke-linecap:round; stroke-width:0.25;"/>
<line x1="68.900000" y1="46.000000" x2="78.900000" y2="46.000000"  style="stroke:black; stroke-linecap:round; stroke-width:0.25;"/>
<line x1="78.900000" y1="46.000000" x2="85.800000" y2="46.000000"  style="stroke:black; stroke-linecap:round; stroke-width:0.25;"/>
<line x1="81.800000" y1="88.000000" x2="85.800000" y2="88.000000"  style="stroke:black; stroke-linecap:round; stroke-width:0.25;"/>
<line x1="85.800000" y1="66.000000" x2="93.800000" y2="66.000000"  style="stroke:black; stroke-linecap:round; stroke-width:0.25;"/>
<line x1="85.800000" y1="88.000000" x2="85.800000" y2="66.000000"  style="stroke:black; stroke-linecap:round; stroke-width:0.25;"/>
<line x1="85.800000" y1="88.000000" x2="85.800000" y2="88.000000"  style="stroke:black; stroke-linecap:round; stroke-width:0.25;"/>
<line x1="85.800000" y1="46.000000" x2="93.800000" y2="46.000000"  style="stroke:black; stroke-linecap:round; stroke-width:0.25;"/>
<line x1="93.800000" y1="58.000000" x2="97.800000" y2="58.000000"  style="stroke:black; stroke-linecap:round; stroke-width:0.25;"/>
<line x1="93.800000" y1="66.000000" x2="97.800000" y2="66.000000"  style="stroke:black; stroke-linecap:round; stroke-width:0.25;"/>
<line x1="93.800000" y1="46.000000" x2="93.800000" y2="58.000000"  style="stroke:black; stroke-linecap:round; stroke-width:0.25;"/>
<line x1="93.800000" y1="58.000000" x2="93.800000" y2="58.000000"  style="stroke:black; stroke-linecap:round; stroke-width:0.25;"/>
<line x1="121.800000" y1="62.000000" x2="125.800000" y2="62.000000"  style="stroke:black; stroke-linecap:round; stroke-width:0.25;"/>
<line x1="125.800000" y1="62.000000" x2="133.800000" y2="62.000000"  style="stroke:black; stroke-linecap:round; stroke-width:0.25;"/>
<line x1="133.800000" y1="62.000000" x2="133.800000" y2="70.000000"  style="stroke:black; stroke-linecap:round; stroke-width:0.25;"/>
<line x1="133.800000" y1="70.000000" x2="133.800000" y2="70.000000"  style="stroke:black; stroke-linecap:round; stroke-width:0.25;"/>
<line x1="133.800000" y1="70.000000" x2="141.800000" y2="70.000000"  style="stroke:black; stroke-linecap:round; stroke-width:0.25;"/>
<line x1="141.800000" y1="46.000000" x2="141.800000" y2="46.000000"  style="stroke:black; stroke-linecap:round; stroke-width:0.25;"/>
<line x1="141.800000" y1="46.000000" x2="141.800000" y2="62.000000"  style="stroke:black; stroke-linecap:round; stroke-width:0.25;"/>
<line x1="141.800000" y1="62.000000" x2="141.800000" y2="62.000000"  style="stroke:black; stroke-linecap:round; stroke-width:0.25;"/>
<line x1="141.800000" y1="62.000000" x2="145.800000" y2="62.000000"  style="stroke:black; stroke-linecap:round; stroke-width:0.25;"/>
<line x1="141.800000" y1="70.000000" x2="145.800000" y2="70.000000"  style="stroke:black; stroke-linecap:round; stroke-width:0.25;"/>
<line x1="169.800000" y1="66.000000" x2="173.800000" y2="66.000000"  style="stroke:black; stroke-linecap:round; stroke-width:0.25;"/>
<line x1="173.800000" y1="66.000000" x2="173.800000" y2="66.000000"  style="stroke:black; stroke-linecap:round; stroke-width:0.25;"/>
<line x1="173.800000" y1="66.000000" x2="177.800000" y2="66.000000"  style="stroke:black; stroke-linecap:round; stroke-width:0.25;"/>
<line x1="181.150000" y1="46.000000" x2="141.800000" y2="46.000000"  style="stroke:black; stroke-linecap:round; stroke-width:0.25;"/>
<line x1="216.500000" y1="66.000000" x2="220.500000" y2="66.000000"  style="stroke:black; stroke-linecap:round; stroke-width:0.25;"/>
<line x1="220.500000" y1="46.000000" x2="181.150000" y2="46.000000"  style="stroke:black; stroke-linecap:round; stroke-width:0.25;"/>
<line x1="220.500000" y1="46.000000" x2="220.500000" y2="46.000000"  style="stroke:black; stroke-linecap:round; stroke-width:0.25;"/>
<line x1="220.500000" y1="62.000000" x2="220.500000" y2="46.000000"  style="stroke:black; stroke-linecap:round; stroke-width:0.25;"/>
<line x1="220.500000" y1="66.000000" x2="222.500000" y2="66.000000"  style="stroke:black; stroke-linecap:round; stroke-width:0.25;"/>
<line x1="222.500000" y1="66.000000" x2="228.500000" y2="66.000000"  style="stroke:black; stroke-linecap:round; stroke-width:0.25;"/>
<line x1="228.500000" y1="36.000000" x2="236.500000" y2="36.000000"  style="stroke:black; stroke-linecap:round; stroke-width:0.25;"/>
<line x1="228.500000" y1="66.000000" x2="228.500000" y2="36.000000"  style="stroke:black; stroke-linecap:round; stroke-width:0.25;"/>
<line x1="228.500000" y1="66.000000" x2="228.500000" y2="66.000000"  style="stroke:black; stroke-linecap:round; stroke-width:0.25;"/>
<line x1="236.500000" y1="36.000000" x2="280.300000" y2="36.000000"  style="stroke:black; stroke-linecap:round; stroke-width:0.25;"/>
<line x1="276.300000" y1="66.000000" x2="280.300000" y2="66.000000"  style="stroke:black; stroke-linecap:round; stroke-width:0.25;"/>
<line x1="280.300000" y1="36.000000" x2="324.100000" y2="36.000000"  style="stroke:black; stroke-linecap:round; stroke-width:0.25;"/>
<line x1="280.300000" y1="66.000000" x2="290.300000" y2="66.000000"  style="stroke:black; stroke-linecap:round; stroke-width:0.25;"/>
<line x1="290.300000" y1="66.000000" x2="290.300000" y2="66.000000"  style="stroke:black; stroke-linecap:round; stroke-width:0.25;"/>
<line x1="290.300000" y1="66.000000" x2="294.300000" y2="66.000000"  style="stroke:black; stroke-linecap:round; stroke-width:0.25;"/>
<line x1="320.100000" y1="66.000000" x2="324.100000" y2="66.000000"  style="stroke:black; stroke-linecap:round; stroke-width:0.25;"/>
<line x1="324.100000" y1="36.000000" x2="332.100000" y2="36.000000"  style="stroke:black; stroke-linecap:round; stroke-width:0.25;"/>
<line x1="324.100000" y1="66.000000" x2="332.100000" y2="66.000000"  style="stroke:black; stroke-linecap:round; stroke-width:0.25;"/>
<line x1="332.100000" y1="36.000000" x2="332.100000" y2="58.000000"  style="stroke:black; stroke-linecap:round; stroke-width:0.25;"/>
<line x1="332.100000" y1="58.000000" x2="332.100000" y2="58.000000"  style="stroke:black; stroke-linecap:round; stroke-width:0.25;"/>
<line x1="332.100000" y1="58.000000" x2="336.100000" y2="58.000000"  style="stroke:black; stroke-linecap:round; stroke-width:0.25;"/>
<line x1="332.100000" y1="66.000000" x2="336.100000" y2="66.000000"  style="stroke:black; stroke-linecap:round; stroke-width:0.25;"/>
<line x1="360.100000" y1="62.000000" x2="364.100000" y2="62.000000"  style="stroke:black; stroke-linecap:round; stroke-width:0.25;"/>
<line x1="364.100000" y1="62.000000" x2="368.100000" y2="62.000000"  style="stroke:black; stroke-linecap:round; stroke-width:0.25;"/>
<line x1="364.100000" y1="62.000000" x2="364.100000" y2="62.000000"  style="stroke:black; stroke-linecap:round; stroke-width:0.25;"/>
<line x1="368.100000" y1="62.000000" x2="372.100000" y2="62.000000"  style="stroke:black; stroke-linecap:round; stroke-width:0.25;"/>
<line x1="372.100000" y1="62.000000" x2="382.100000" y2="62.000000"  style="stroke:black; stroke-linecap:round; stroke-width:0.25;"/>
</svg>
