<?xml version="1.0"?>
<svg xmlns="http://www.w3.org/2000/svg" xmlns:xlink="http://www.w3.org/1999/xlink" viewBox="0 0 273.000000 124.000000" width="136.500000mm" height="62.000000mm" version="1.1">
<a xlink:href="tunedLength-0x7fba5d4693b0.svg">
<rect x="1.000000" y="1.000000" width="272.000000" height="123.000000" rx="0" ry="0" style="stroke:none;fill:#cccccc;"/>
<rect x="0.000000" y="0.000000" width="272.000000" height="123.000000" rx="0" ry="0" style="stroke:none;fill:#ffffff;"/>
</a>
<text x="10.000000" y="7.000000" font-family="Arial" font-size="7"></text>
<rect x="38.800000" y="35.000000" width="24.000000" height="24.000000" rx="0" ry="0" style="stroke:none;fill:#cccccc;"/>
<rect x="37.800000" y="34.000000" width="24.000000" height="24.000000" rx="0" ry="0" style="stroke:none;fill:#f44800;"/>
<text x="49.800000" y="48.000000" font-family="Arial" font-size="7" text-anchor="middle" fill="#FFFFFF">48</text>
<circle cx="39.800000" cy="36.000000" r="1"/>
<line x1="28.800000" y1="25.000000" x2="28.800000" y2="67.000000"  style="stroke: black; stroke-linecap:round; stroke-width:0.25; stroke-dasharray:3,3;"/>
<line x1="28.800000" y1="67.000000" x2="70.800000" y2="67.000000"  style="stroke: black; stroke-linecap:round; stroke-width:0.25; stroke-dasharray:3,3;"/>
<line x1="70.800000" y1="67.000000" x2="70.800000" y2="25.000000"  style="stroke: black; stroke-linecap:round; stroke-width:0.25; stroke-dasharray:3,3;"/>
<line x1="28.800000" y1="25.000000" x2="33.800000" y2="25.000000"  style="stroke: black; stroke-linecap:round; stroke-width:0.25; stroke-dasharray:3,3;"/>
<line x1="69.275000" y1="25.000000" x2="70.800000" y2="25.000000"  style="stroke: black; stroke-linecap:round; stroke-width:0.25; stroke-dasharray:3,3;"/>
<text x="33.800000" y="27.000000" font-family="Arial" font-size="7">basePitch</text>
<a xlink:href="pitchShift-0x7fba5b949340.svg">
<rect x="25.000000" y="77.000000" width="51.600000" height="24.000000" rx="0" ry="0" style="stroke:none;fill:#cccccc;"/>
<rect x="24.000000" y="76.000000" width="51.600000" height="24.000000" rx="0" ry="0" style="stroke:none;fill:#003366;"/>
</a>
<a xlink:href="pitchShift-0x7fba5b949340.svg">
<text x="49.800000" y="90.000000" font-family="Arial" font-size="7" text-anchor="middle" fill="#FFFFFF">pitchShift</text>
</a>
<circle cx="26.000000" cy="78.000000" r="1"/>
<rect x="92.600000" y="51.000000" width="24.000000" height="24.000000" rx="0" ry="0" style="stroke:none;fill:#cccccc;"/>
<rect x="91.600000" y="50.000000" width="24.000000" height="24.000000" rx="0" ry="0" style="stroke:none;fill:#4B71A1;"/>
<text x="103.600000" y="64.000000" font-family="Arial" font-size="7" text-anchor="middle" fill="#FFFFFF">-</text>
<circle cx="93.600000" cy="52.000000" r="1"/>
<line x1="88.600000" y1="57.000000" x2="91.600000" y2="58.000000"  transform="rotate(0.000000,91.600000,58.000000)" style="stroke: black; stroke-width:0.25;"/>
<line x1="88.600000" y1="59.000000" x2="91.600000" y2="58.000000"  transform="rotate(0.000000,91.600000,58.000000)" style="stroke: black; stroke-width:0.25;"/>
<line x1="88.600000" y1="65.000000" x2="91.600000" y2="66.000000"  transform="rotate(0.000000,91.600000,66.000000)" style="stroke: black; stroke-width:0.25;"/>
<line x1="88.600000" y1="67.000000" x2="91.600000" y2="66.000000"  transform="rotate(0.000000,91.600000,66.000000)" style="stroke: black; stroke-width:0.25;"/>
<a xlink:href="midikey2hz-0x7fba5d466580.svg">
<rect x="124.600000" y="51.000000" width="51.600000" height="24.000000" rx="0" ry="0" style="stroke:none;fill:#cccccc;"/>
<rect x="123.600000" y="50.000000" width="51.600000" height="24.000000" rx="0" ry="0" style="stroke:none;fill:#003366;"/>
</a>
<a xlink:href="midikey2hz-0x7fba5d466580.svg">
<text x="149.400000" y="64.000000" font-family="Arial" font-size="7" text-anchor="middle" fill="#FFFFFF">midikey2hz</text>
</a>
<circle cx="125.600000" cy="52.000000" r="1"/>
<line x1="120.600000" y1="61.000000" x2="123.600000" y2="62.000000"  transform="rotate(0.000000,123.600000,62.000000)" style="stroke: black; stroke-width:0.25;"/>
<line x1="120.600000" y1="63.000000" x2="123.600000" y2="62.000000"  transform="rotate(0.000000,123.600000,62.000000)" style="stroke: black; stroke-width:0.25;"/>
<a xlink:href="f2l-0x7fba5d468f00.svg">
<rect x="184.200000" y="51.000000" width="24.000000" height="24.000000" rx="0" ry="0" style="stroke:none;fill:#cccccc;"/>
<rect x="183.200000" y="50.000000" width="24.000000" height="24.000000" rx="0" ry="0" style="stroke:none;fill:#003366;"/>
</a>
<a xlink:href="f2l-0x7fba5d468f00.svg">
<text x="195.200000" y="64.000000" font-family="Arial" font-size="7" text-anchor="middle" fill="#FFFFFF">f2l</text>
</a>
<circle cx="185.200000" cy="52.000000" r="1"/>
<line x1="180.200000" y1="61.000000" x2="183.200000" y2="62.000000"  transform="rotate(0.000000,183.200000,62.000000)" style="stroke: black; stroke-width:0.25;"/>
<line x1="180.200000" y1="63.000000" x2="183.200000" y2="62.000000"  transform="rotate(0.000000,183.200000,62.000000)" style="stroke: black; stroke-width:0.25;"/>
<a xlink:href="smoo-0x7fba5ba538b0.svg">
<rect x="216.200000" y="51.000000" width="25.800000" height="24.000000" rx="0" ry="0" style="stroke:none;fill:#cccccc;"/>
<rect x="215.200000" y="50.000000" width="25.800000" height="24.000000" rx="0" ry="0" style="stroke:none;fill:#003366;"/>
</a>
<a xlink:href="smoo-0x7fba5ba538b0.svg">
<text x="228.100000" y="64.000000" font-family="Arial" font-size="7" text-anchor="middle" fill="#FFFFFF">smoo</text>
</a>
<circle cx="217.200000" cy="52.000000" r="1"/>
<line x1="212.200000" y1="61.000000" x2="215.200000" y2="62.000000"  transform="rotate(0.000000,215.200000,62.000000)" style="stroke: black; stroke-width:0.25;"/>
<line x1="212.200000" y1="63.000000" x2="215.200000" y2="62.000000"  transform="rotate(0.000000,215.200000,62.000000)" style="stroke: black; stroke-width:0.25;"/>
<line x1="15.000000" y1="15.000000" x2="15.000000" y2="109.000000"  style="stroke: black; stroke-linecap:round; stroke-width:0.25; stroke-dasharray:3,3;"/>
<line x1="15.000000" y1="109.000000" x2="258.000000" y2="109.000000"  style="stroke: black; stroke-linecap:round; stroke-width:0.25; stroke-dasharray:3,3;"/>
<line x1="258.000000" y1="109.000000" x2="258.000000" y2="15.000000"  style="stroke: black; stroke-linecap:round; stroke-width:0.25; stroke-dasharray:3,3;"/>
<line x1="15.000000" y1="15.000000" x2="20.000000" y2="15.000000"  style="stroke: black; stroke-linecap:round; stroke-width:0.25; stroke-dasharray:3,3;"/>
<line x1="58.700000" y1="15.000000" x2="258.000000" y2="15.000000"  style="stroke: black; stroke-linecap:round; stroke-width:0.25; stroke-dasharray:3,3;"/>
<text x="20.000000" y="17.000000" font-family="Arial" font-size="7">tubeLength</text>
<line x1="260.000000" y1="61.000000" x2="263.000000" y2="62.000000"  transform="rotate(0.000000,263.000000,62.000000)" style="stroke: black; stroke-width:0.25;"/>
<line x1="260.000000" y1="63.000000" x2="263.000000" y2="62.000000"  transform="rotate(0.000000,263.000000,62.000000)" style="stroke: black; stroke-width:0.25;"/>
<line x1="61.800000" y1="46.000000" x2="65.800000" y2="46.000000"  style="stroke:black; stroke-linecap:round; stroke-width:0.25;"/>
<line x1="65.800000" y1="46.000000" x2="75.800000" y2="46.000000"  style="stroke:black; stroke-linecap:round; stroke-width:0.25;"/>
<line x1="75.600000" y1="88.000000" x2="79.600000" y2="88.000000"  style="stroke:black; stroke-linecap:round; stroke-width:0.25;"/>
<line x1="75.800000" y1="46.000000" x2="79.600000" y2="46.000000"  style="stroke:black; stroke-linecap:round; stroke-width:0.25;"/>
<line x1="79.600000" y1="46.000000" x2="87.600000" y2="46.000000"  style="stroke:black; stroke-linecap:round; stroke-width:0.25;"/>
<line x1="79.600000" y1="66.000000" x2="87.600000" y2="66.000000"  style="stroke:black; stroke-linecap:round; stroke-width:0.25;"/>
<line x1="79.600000" y1="88.000000" x2="79.600000" y2="66.000000"  style="stroke:black; stroke-linecap:round; stroke-width:0.25;"/>
<line x1="79.600000" y1="88.000000" x2="79.600000" y2="88.000000"  style="stroke:black; stroke-linecap:round; stroke-width:0.25;"/>
<line x1="87.600000" y1="46.000000" x2="87.600000" y2="58.000000"  style="stroke:black; stroke-linecap:round; stroke-width:0.25;"/>
<line x1="87.600000" y1="58.000000" x2="87.600000" y2="58.000000"  style="stroke:black; stroke-linecap:round; stroke-width:0.25;"/>
<line x1="87.600000" y1="58.000000" x2="91.600000" y2="58.000000"  style="stroke:black; stroke-linecap:round; stroke-width:0.25;"/>
<line x1="87.600000" y1="66.000000" x2="91.600000" y2="66.000000"  style="stroke:black; stroke-linecap:round; stroke-width:0.25;"/>
<line x1="115.600000" y1="62.000000" x2="119.600000" y2="62.000000"  style="stroke:black; stroke-linecap:round; stroke-width:0.25;"/>
<line x1="119.600000" y1="62.000000" x2="119.600000" y2="62.000000"  style="stroke:black; stroke-linecap:round; stroke-width:0.25;"/>
<line x1="119.600000" y1="62.000000" x2="123.600000" y2="62.000000"  style="stroke:black; stroke-linecap:round; stroke-width:0.25;"/>
<line x1="175.200000" y1="62.000000" x2="179.200000" y2="62.000000"  style="stroke:black; stroke-linecap:round; stroke-width:0.25;"/>
<line x1="179.200000" y1="62.000000" x2="179.200000" y2="62.000000"  style="stroke:black; stroke-linecap:round; stroke-width:0.25;"/>
<line x1="179.200000" y1="62.000000" x2="183.200000" y2="62.000000"  style="stroke:black; stroke-linecap:round; stroke-width:0.25;"/>
<line x1="207.200000" y1="62.000000" x2="211.200000" y2="62.000000"  style="stroke:black; stroke-linecap:round; stroke-width:0.25;"/>
<line x1="211.200000" y1="62.000000" x2="211.200000" y2="62.000000"  style="stroke:black; stroke-linecap:round; stroke-width:0.25;"/>
<line x1="211.200000" y1="62.000000" x2="215.200000" y2="62.000000"  style="stroke:black; stroke-linecap:round; stroke-width:0.25;"/>
<line x1="241.000000" y1="62.000000" x2="245.000000" y2="62.000000"  style="stroke:black; stroke-linecap:round; stroke-width:0.25;"/>
<line x1="245.000000" y1="62.000000" x2="245.000000" y2="62.000000"  style="stroke:black; stroke-linecap:round; stroke-width:0.25;"/>
<line x1="245.000000" y1="62.000000" x2="249.000000" y2="62.000000"  style="stroke:black; stroke-linecap:round; stroke-width:0.25;"/>
<line x1="249.000000" y1="62.000000" x2="253.000000" y2="62.000000"  style="stroke:black; stroke-linecap:round; stroke-width:0.25;"/>
<line x1="253.000000" y1="62.000000" x2="263.000000" y2="62.000000"  style="stroke:black; stroke-linecap:round; stroke-width:0.25;"/>
</svg>
