<?xml version="1.0"?>
<svg xmlns="http://www.w3.org/2000/svg" xmlns:xlink="http://www.w3.org/1999/xlink" viewBox="0 0 924.200000 360.000000" width="462.100000mm" height="180.000000mm" version="1.1">
<a xlink:href="mth-0x7fb46fcb7e00.svg">
<rect x="1.000000" y="1.000000" width="923.200000" height="359.000000" rx="0" ry="0" style="stroke:none;fill:#cccccc;"/>
<rect x="0.000000" y="0.000000" width="923.200000" height="359.000000" rx="0" ry="0" style="stroke:none;fill:#ffffff;"/>
</a>
<text x="10.000000" y="7.000000" font-family="Arial" font-size="7"></text>
<a xlink:href="hp-0x7fb46fcabb00.svg">
<rect x="475.200000" y="25.000000" width="25.800000" height="24.000000" rx="0" ry="0" style="stroke:none;fill:#cccccc;"/>
<rect x="474.200000" y="24.000000" width="25.800000" height="24.000000" rx="0" ry="0" style="stroke:none;fill:#003366;"/>
</a>
<a xlink:href="hp-0x7fb46fcabb00.svg">
<text x="487.100000" y="38.000000" font-family="Arial" font-size="7" text-anchor="middle" fill="#FFFFFF">hp(9)</text>
</a>
<circle cx="476.200000" cy="26.000000" r="1"/>
<line x1="471.200000" y1="35.000000" x2="474.200000" y2="36.000000"  transform="rotate(0.000000,474.200000,36.000000)" style="stroke: black; stroke-width:0.25;"/>
<line x1="471.200000" y1="37.000000" x2="474.200000" y2="36.000000"  transform="rotate(0.000000,474.200000,36.000000)" style="stroke: black; stroke-width:0.25;"/>
<a xlink:href="lp-0x7fb46fcabf60.svg">
<rect x="123.000000" y="185.000000" width="25.800000" height="24.000000" rx="0" ry="0" style="stroke:none;fill:#cccccc;"/>
<rect x="122.000000" y="184.000000" width="25.800000" height="24.000000" rx="0" ry="0" style="stroke:none;fill:#003366;"/>
</a>
<a xlink:href="lp-0x7fb46fcabf60.svg">
<text x="134.900000" y="198.000000" font-family="Arial" font-size="7" text-anchor="middle" fill="#FFFFFF">lp(9)</text>
</a>
<circle cx="124.000000" cy="186.000000" r="1"/>
<line x1="119.000000" y1="195.000000" x2="122.000000" y2="196.000000"  transform="rotate(0.000000,122.000000,196.000000)" style="stroke: black; stroke-width:0.25;"/>
<line x1="119.000000" y1="197.000000" x2="122.000000" y2="196.000000"  transform="rotate(0.000000,122.000000,196.000000)" style="stroke: black; stroke-width:0.25;"/>
<a xlink:href="hp-0x7fb46fcac5a0.svg">
<rect x="532.100000" y="57.000000" width="25.800000" height="24.000000" rx="0" ry="0" style="stroke:none;fill:#cccccc;"/>
<rect x="531.100000" y="56.000000" width="25.800000" height="24.000000" rx="0" ry="0" style="stroke:none;fill:#003366;"/>
</a>
<a xlink:href="hp-0x7fb46fcac5a0.svg">
<text x="544.000000" y="70.000000" font-family="Arial" font-size="7" text-anchor="middle" fill="#FFFFFF">hp(8)</text>
</a>
<circle cx="533.100000" cy="58.000000" r="1"/>
<line x1="528.100000" y1="67.000000" x2="531.100000" y2="68.000000"  transform="rotate(0.000000,531.100000,68.000000)" style="stroke: black; stroke-width:0.25;"/>
<line x1="528.100000" y1="69.000000" x2="531.100000" y2="68.000000"  transform="rotate(0.000000,531.100000,68.000000)" style="stroke: black; stroke-width:0.25;"/>
<a xlink:href="lp-0x7fb46fcaca00.svg">
<rect x="236.800000" y="201.000000" width="25.800000" height="24.000000" rx="0" ry="0" style="stroke:none;fill:#cccccc;"/>
<rect x="235.800000" y="200.000000" width="25.800000" height="24.000000" rx="0" ry="0" style="stroke:none;fill:#003366;"/>
</a>
<a xlink:href="lp-0x7fb46fcaca00.svg">
<text x="248.700000" y="214.000000" font-family="Arial" font-size="7" text-anchor="middle" fill="#FFFFFF">lp(8)</text>
</a>
<circle cx="237.800000" cy="202.000000" r="1"/>
<line x1="232.800000" y1="211.000000" x2="235.800000" y2="212.000000"  transform="rotate(0.000000,235.800000,212.000000)" style="stroke: black; stroke-width:0.25;"/>
<line x1="232.800000" y1="213.000000" x2="235.800000" y2="212.000000"  transform="rotate(0.000000,235.800000,212.000000)" style="stroke: black; stroke-width:0.25;"/>
<a xlink:href="hp-0x7fb46fcad040.svg">
<rect x="585.000000" y="89.000000" width="25.800000" height="24.000000" rx="0" ry="0" style="stroke:none;fill:#cccccc;"/>
<rect x="584.000000" y="88.000000" width="25.800000" height="24.000000" rx="0" ry="0" style="stroke:none;fill:#003366;"/>
</a>
<a xlink:href="hp-0x7fb46fcad040.svg">
<text x="596.900000" y="102.000000" font-family="Arial" font-size="7" text-anchor="middle" fill="#FFFFFF">hp(7)</text>
</a>
<circle cx="586.000000" cy="90.000000" r="1"/>
<line x1="581.000000" y1="99.000000" x2="584.000000" y2="100.000000"  transform="rotate(0.000000,584.000000,100.000000)" style="stroke: black; stroke-width:0.25;"/>
<line x1="581.000000" y1="101.000000" x2="584.000000" y2="100.000000"  transform="rotate(0.000000,584.000000,100.000000)" style="stroke: black; stroke-width:0.25;"/>
<a xlink:href="lp-0x7fb46fcad4a0.svg">
<rect x="342.600000" y="217.000000" width="25.800000" height="24.000000" rx="0" ry="0" style="stroke:none;fill:#cccccc;"/>
<rect x="341.600000" y="216.000000" width="25.800000" height="24.000000" rx="0" ry="0" style="stroke:none;fill:#003366;"/>
</a>
<a xlink:href="lp-0x7fb46fcad4a0.svg">
<text x="354.500000" y="230.000000" font-family="Arial" font-size="7" text-anchor="middle" fill="#FFFFFF">lp(7)</text>
</a>
<circle cx="343.600000" cy="218.000000" r="1"/>
<line x1="338.600000" y1="227.000000" x2="341.600000" y2="228.000000"  transform="rotate(0.000000,341.600000,228.000000)" style="stroke: black; stroke-width:0.25;"/>
<line x1="338.600000" y1="229.000000" x2="341.600000" y2="228.000000"  transform="rotate(0.000000,341.600000,228.000000)" style="stroke: black; stroke-width:0.25;"/>
<a xlink:href="hp-0x7fb46fcadae0.svg">
<rect x="633.900000" y="121.000000" width="25.800000" height="24.000000" rx="0" ry="0" style="stroke:none;fill:#cccccc;"/>
<rect x="632.900000" y="120.000000" width="25.800000" height="24.000000" rx="0" ry="0" style="stroke:none;fill:#003366;"/>
</a>
<a xlink:href="hp-0x7fb46fcadae0.svg">
<text x="645.800000" y="134.000000" font-family="Arial" font-size="7" text-anchor="middle" fill="#FFFFFF">hp(6)</text>
</a>
<circle cx="634.900000" cy="122.000000" r="1"/>
<line x1="629.900000" y1="131.000000" x2="632.900000" y2="132.000000"  transform="rotate(0.000000,632.900000,132.000000)" style="stroke: black; stroke-width:0.25;"/>
<line x1="629.900000" y1="133.000000" x2="632.900000" y2="132.000000"  transform="rotate(0.000000,632.900000,132.000000)" style="stroke: black; stroke-width:0.25;"/>
<a xlink:href="lp-0x7fb46fcadf40.svg">
<rect x="440.400000" y="233.000000" width="25.800000" height="24.000000" rx="0" ry="0" style="stroke:none;fill:#cccccc;"/>
<rect x="439.400000" y="232.000000" width="25.800000" height="24.000000" rx="0" ry="0" style="stroke:none;fill:#003366;"/>
</a>
<a xlink:href="lp-0x7fb46fcadf40.svg">
<text x="452.300000" y="246.000000" font-family="Arial" font-size="7" text-anchor="middle" fill="#FFFFFF">lp(6)</text>
</a>
<circle cx="441.400000" cy="234.000000" r="1"/>
<line x1="436.400000" y1="243.000000" x2="439.400000" y2="244.000000"  transform="rotate(0.000000,439.400000,244.000000)" style="stroke: black; stroke-width:0.25;"/>
<line x1="436.400000" y1="245.000000" x2="439.400000" y2="244.000000"  transform="rotate(0.000000,439.400000,244.000000)" style="stroke: black; stroke-width:0.25;"/>
<a xlink:href="hp-0x7fb46fcae580.svg">
<rect x="678.800000" y="153.000000" width="25.800000" height="24.000000" rx="0" ry="0" style="stroke:none;fill:#cccccc;"/>
<rect x="677.800000" y="152.000000" width="25.800000" height="24.000000" rx="0" ry="0" style="stroke:none;fill:#003366;"/>
</a>
<a xlink:href="hp-0x7fb46fcae580.svg">
<text x="690.700000" y="166.000000" font-family="Arial" font-size="7" text-anchor="middle" fill="#FFFFFF">hp(5)</text>
</a>
<circle cx="679.800000" cy="154.000000" r="1"/>
<line x1="674.800000" y1="163.000000" x2="677.800000" y2="164.000000"  transform="rotate(0.000000,677.800000,164.000000)" style="stroke: black; stroke-width:0.25;"/>
<line x1="674.800000" y1="165.000000" x2="677.800000" y2="164.000000"  transform="rotate(0.000000,677.800000,164.000000)" style="stroke: black; stroke-width:0.25;"/>
<a xlink:href="lp-0x7fb46fcae9e0.svg">
<rect x="530.200000" y="249.000000" width="25.800000" height="24.000000" rx="0" ry="0" style="stroke:none;fill:#cccccc;"/>
<rect x="529.200000" y="248.000000" width="25.800000" height="24.000000" rx="0" ry="0" style="stroke:none;fill:#003366;"/>
</a>
<a xlink:href="lp-0x7fb46fcae9e0.svg">
<text x="542.100000" y="262.000000" font-family="Arial" font-size="7" text-anchor="middle" fill="#FFFFFF">lp(5)</text>
</a>
<circle cx="531.200000" cy="250.000000" r="1"/>
<line x1="526.200000" y1="259.000000" x2="529.200000" y2="260.000000"  transform="rotate(0.000000,529.200000,260.000000)" style="stroke: black; stroke-width:0.25;"/>
<line x1="526.200000" y1="261.000000" x2="529.200000" y2="260.000000"  transform="rotate(0.000000,529.200000,260.000000)" style="stroke: black; stroke-width:0.25;"/>
<a xlink:href="hp-0x7fb46fcaf020.svg">
<rect x="719.700000" y="185.000000" width="25.800000" height="24.000000" rx="0" ry="0" style="stroke:none;fill:#cccccc;"/>
<rect x="718.700000" y="184.000000" width="25.800000" height="24.000000" rx="0" ry="0" style="stroke:none;fill:#003366;"/>
</a>
<a xlink:href="hp-0x7fb46fcaf020.svg">
<text x="731.600000" y="198.000000" font-family="Arial" font-size="7" text-anchor="middle" fill="#FFFFFF">hp(4)</text>
</a>
<circle cx="720.700000" cy="186.000000" r="1"/>
<line x1="715.700000" y1="195.000000" x2="718.700000" y2="196.000000"  transform="rotate(0.000000,718.700000,196.000000)" style="stroke: black; stroke-width:0.25;"/>
<line x1="715.700000" y1="197.000000" x2="718.700000" y2="196.000000"  transform="rotate(0.000000,718.700000,196.000000)" style="stroke: black; stroke-width:0.25;"/>
<a xlink:href="lp-0x7fb46fcaf480.svg">
<rect x="612.000000" y="265.000000" width="25.800000" height="24.000000" rx="0" ry="0" style="stroke:none;fill:#cccccc;"/>
<rect x="611.000000" y="264.000000" width="25.800000" height="24.000000" rx="0" ry="0" style="stroke:none;fill:#003366;"/>
</a>
<a xlink:href="lp-0x7fb46fcaf480.svg">
<text x="623.900000" y="278.000000" font-family="Arial" font-size="7" text-anchor="middle" fill="#FFFFFF">lp(4)</text>
</a>
<circle cx="613.000000" cy="266.000000" r="1"/>
<line x1="608.000000" y1="275.000000" x2="611.000000" y2="276.000000"  transform="rotate(0.000000,611.000000,276.000000)" style="stroke: black; stroke-width:0.25;"/>
<line x1="608.000000" y1="277.000000" x2="611.000000" y2="276.000000"  transform="rotate(0.000000,611.000000,276.000000)" style="stroke: black; stroke-width:0.25;"/>
<a xlink:href="hp-0x7fb46fcafac0.svg">
<rect x="756.600000" y="217.000000" width="25.800000" height="24.000000" rx="0" ry="0" style="stroke:none;fill:#cccccc;"/>
<rect x="755.600000" y="216.000000" width="25.800000" height="24.000000" rx="0" ry="0" style="stroke:none;fill:#003366;"/>
</a>
<a xlink:href="hp-0x7fb46fcafac0.svg">
<text x="768.500000" y="230.000000" font-family="Arial" font-size="7" text-anchor="middle" fill="#FFFFFF">hp(3)</text>
</a>
<circle cx="757.600000" cy="218.000000" r="1"/>
<line x1="752.600000" y1="227.000000" x2="755.600000" y2="228.000000"  transform="rotate(0.000000,755.600000,228.000000)" style="stroke: black; stroke-width:0.25;"/>
<line x1="752.600000" y1="229.000000" x2="755.600000" y2="228.000000"  transform="rotate(0.000000,755.600000,228.000000)" style="stroke: black; stroke-width:0.25;"/>
<a xlink:href="lp-0x7fb46fcaff20.svg">
<rect x="685.800000" y="281.000000" width="25.800000" height="24.000000" rx="0" ry="0" style="stroke:none;fill:#cccccc;"/>
<rect x="684.800000" y="280.000000" width="25.800000" height="24.000000" rx="0" ry="0" style="stroke:none;fill:#003366;"/>
</a>
<a xlink:href="lp-0x7fb46fcaff20.svg">
<text x="697.700000" y="294.000000" font-family="Arial" font-size="7" text-anchor="middle" fill="#FFFFFF">lp(3)</text>
</a>
<circle cx="686.800000" cy="282.000000" r="1"/>
<line x1="681.800000" y1="291.000000" x2="684.800000" y2="292.000000"  transform="rotate(0.000000,684.800000,292.000000)" style="stroke: black; stroke-width:0.25;"/>
<line x1="681.800000" y1="293.000000" x2="684.800000" y2="292.000000"  transform="rotate(0.000000,684.800000,292.000000)" style="stroke: black; stroke-width:0.25;"/>
<a xlink:href="hp-0x7fb46fcb0560.svg">
<rect x="789.500000" y="249.000000" width="25.800000" height="24.000000" rx="0" ry="0" style="stroke:none;fill:#cccccc;"/>
<rect x="788.500000" y="248.000000" width="25.800000" height="24.000000" rx="0" ry="0" style="stroke:none;fill:#003366;"/>
</a>
<a xlink:href="hp-0x7fb46fcb0560.svg">
<text x="801.400000" y="262.000000" font-family="Arial" font-size="7" text-anchor="middle" fill="#FFFFFF">hp(2)</text>
</a>
<circle cx="790.500000" cy="250.000000" r="1"/>
<line x1="785.500000" y1="259.000000" x2="788.500000" y2="260.000000"  transform="rotate(0.000000,788.500000,260.000000)" style="stroke: black; stroke-width:0.25;"/>
<line x1="785.500000" y1="261.000000" x2="788.500000" y2="260.000000"  transform="rotate(0.000000,788.500000,260.000000)" style="stroke: black; stroke-width:0.25;"/>
<a xlink:href="lp-0x7fb46fcb09c0.svg">
<rect x="751.600000" y="297.000000" width="25.800000" height="24.000000" rx="0" ry="0" style="stroke:none;fill:#cccccc;"/>
<rect x="750.600000" y="296.000000" width="25.800000" height="24.000000" rx="0" ry="0" style="stroke:none;fill:#003366;"/>
</a>
<a xlink:href="lp-0x7fb46fcb09c0.svg">
<text x="763.500000" y="310.000000" font-family="Arial" font-size="7" text-anchor="middle" fill="#FFFFFF">lp(2)</text>
</a>
<circle cx="752.600000" cy="298.000000" r="1"/>
<line x1="747.600000" y1="307.000000" x2="750.600000" y2="308.000000"  transform="rotate(0.000000,750.600000,308.000000)" style="stroke: black; stroke-width:0.25;"/>
<line x1="747.600000" y1="309.000000" x2="750.600000" y2="308.000000"  transform="rotate(0.000000,750.600000,308.000000)" style="stroke: black; stroke-width:0.25;"/>
<a xlink:href="hp-0x7fb46fcb1000.svg">
<rect x="818.400000" y="281.000000" width="25.800000" height="24.000000" rx="0" ry="0" style="stroke:none;fill:#cccccc;"/>
<rect x="817.400000" y="280.000000" width="25.800000" height="24.000000" rx="0" ry="0" style="stroke:none;fill:#003366;"/>
</a>
<a xlink:href="hp-0x7fb46fcb1000.svg">
<text x="830.300000" y="294.000000" font-family="Arial" font-size="7" text-anchor="middle" fill="#FFFFFF">hp(1)</text>
</a>
<circle cx="819.400000" cy="282.000000" r="1"/>
<line x1="814.400000" y1="291.000000" x2="817.400000" y2="292.000000"  transform="rotate(0.000000,817.400000,292.000000)" style="stroke: black; stroke-width:0.25;"/>
<line x1="814.400000" y1="293.000000" x2="817.400000" y2="292.000000"  transform="rotate(0.000000,817.400000,292.000000)" style="stroke: black; stroke-width:0.25;"/>
<a xlink:href="lp-0x7fb46fcb1460.svg">
<rect x="809.400000" y="313.000000" width="25.800000" height="24.000000" rx="0" ry="0" style="stroke:none;fill:#cccccc;"/>
<rect x="808.400000" y="312.000000" width="25.800000" height="24.000000" rx="0" ry="0" style="stroke:none;fill:#003366;"/>
</a>
<a xlink:href="lp-0x7fb46fcb1460.svg">
<text x="821.300000" y="326.000000" font-family="Arial" font-size="7" text-anchor="middle" fill="#FFFFFF">lp(1)</text>
</a>
<circle cx="810.400000" cy="314.000000" r="1"/>
<line x1="805.400000" y1="323.000000" x2="808.400000" y2="324.000000"  transform="rotate(0.000000,808.400000,324.000000)" style="stroke: black; stroke-width:0.25;"/>
<line x1="805.400000" y1="325.000000" x2="808.400000" y2="324.000000"  transform="rotate(0.000000,808.400000,324.000000)" style="stroke: black; stroke-width:0.25;"/>
<line x1="15.000000" y1="15.000000" x2="15.000000" y2="345.000000"  style="stroke: black; stroke-linecap:round; stroke-width:0.25; stroke-dasharray:3,3;"/>
<line x1="15.000000" y1="345.000000" x2="909.200000" y2="345.000000"  style="stroke: black; stroke-linecap:round; stroke-width:0.25; stroke-dasharray:3,3;"/>
<line x1="909.200000" y1="345.000000" x2="909.200000" y2="15.000000"  style="stroke: black; stroke-linecap:round; stroke-width:0.25; stroke-dasharray:3,3;"/>
<line x1="15.000000" y1="15.000000" x2="20.000000" y2="15.000000"  style="stroke: black; stroke-linecap:round; stroke-width:0.25; stroke-dasharray:3,3;"/>
<line x1="142.550000" y1="15.000000" x2="909.200000" y2="15.000000"  style="stroke: black; stroke-linecap:round; stroke-width:0.25; stroke-dasharray:3,3;"/>
<text x="20.000000" y="17.000000" font-family="Arial" font-size="7">mth_octave_analyzer(5)(1)(10000)(10)</text>
<line x1="911.200000" y1="143.000000" x2="914.200000" y2="144.000000"  transform="rotate(0.000000,914.200000,144.000000)" style="stroke: black; stroke-width:0.25;"/>
<line x1="911.200000" y1="145.000000" x2="914.200000" y2="144.000000"  transform="rotate(0.000000,914.200000,144.000000)" style="stroke: black; stroke-width:0.25;"/>
<line x1="911.200000" y1="151.000000" x2="914.200000" y2="152.000000"  transform="rotate(0.000000,914.200000,152.000000)" style="stroke: black; stroke-width:0.25;"/>
<line x1="911.200000" y1="153.000000" x2="914.200000" y2="152.000000"  transform="rotate(0.000000,914.200000,152.000000)" style="stroke: black; stroke-width:0.25;"/>
<line x1="911.200000" y1="159.000000" x2="914.200000" y2="160.000000"  transform="rotate(0.000000,914.200000,160.000000)" style="stroke: black; stroke-width:0.25;"/>
<line x1="911.200000" y1="161.000000" x2="914.200000" y2="160.000000"  transform="rotate(0.000000,914.200000,160.000000)" style="stroke: black; stroke-width:0.25;"/>
<line x1="911.200000" y1="167.000000" x2="914.200000" y2="168.000000"  transform="rotate(0.000000,914.200000,168.000000)" style="stroke: black; stroke-width:0.25;"/>
<line x1="911.200000" y1="169.000000" x2="914.200000" y2="168.000000"  transform="rotate(0.000000,914.200000,168.000000)" style="stroke: black; stroke-width:0.25;"/>
<line x1="911.200000" y1="175.000000" x2="914.200000" y2="176.000000"  transform="rotate(0.000000,914.200000,176.000000)" style="stroke: black; stroke-width:0.25;"/>
<line x1="911.200000" y1="177.000000" x2="914.200000" y2="176.000000"  transform="rotate(0.000000,914.200000,176.000000)" style="stroke: black; stroke-width:0.25;"/>
<line x1="911.200000" y1="183.000000" x2="914.200000" y2="184.000000"  transform="rotate(0.000000,914.200000,184.000000)" style="stroke: black; stroke-width:0.25;"/>
<line x1="911.200000" y1="185.000000" x2="914.200000" y2="184.000000"  transform="rotate(0.000000,914.200000,184.000000)" style="stroke: black; stroke-width:0.25;"/>
<line x1="911.200000" y1="191.000000" x2="914.200000" y2="192.000000"  transform="rotate(0.000000,914.200000,192.000000)" style="stroke: black; stroke-width:0.25;"/>
<line x1="911.200000" y1="193.000000" x2="914.200000" y2="192.000000"  transform="rotate(0.000000,914.200000,192.000000)" style="stroke: black; stroke-width:0.25;"/>
<line x1="911.200000" y1="199.000000" x2="914.200000" y2="200.000000"  transform="rotate(0.000000,914.200000,200.000000)" style="stroke: black; stroke-width:0.25;"/>
<line x1="911.200000" y1="201.000000" x2="914.200000" y2="200.000000"  transform="rotate(0.000000,914.200000,200.000000)" style="stroke: black; stroke-width:0.25;"/>
<line x1="911.200000" y1="207.000000" x2="914.200000" y2="208.000000"  transform="rotate(0.000000,914.200000,208.000000)" style="stroke: black; stroke-width:0.25;"/>
<line x1="911.200000" y1="209.000000" x2="914.200000" y2="208.000000"  transform="rotate(0.000000,914.200000,208.000000)" style="stroke: black; stroke-width:0.25;"/>
<line x1="911.200000" y1="215.000000" x2="914.200000" y2="216.000000"  transform="rotate(0.000000,914.200000,216.000000)" style="stroke: black; stroke-width:0.25;"/>
<line x1="911.200000" y1="217.000000" x2="914.200000" y2="216.000000"  transform="rotate(0.000000,914.200000,216.000000)" style="stroke: black; stroke-width:0.25;"/>
<line x1="10.000000" y1="180.000000" x2="20.000000" y2="180.000000"  style="stroke:black; stroke-linecap:round; stroke-width:0.25;"/>
<line x1="20.000000" y1="180.000000" x2="24.000000" y2="180.000000"  style="stroke:black; stroke-linecap:round; stroke-width:0.25;"/>
<line x1="24.000000" y1="180.000000" x2="28.000000" y2="180.000000"  style="stroke:black; stroke-linecap:round; stroke-width:0.25;"/>
<line x1="28.000000" y1="180.000000" x2="28.000000" y2="180.000000"  style="stroke:black; stroke-linecap:round; stroke-width:0.25;"/>
<line x1="28.000000" y1="180.000000" x2="32.000000" y2="180.000000"  style="stroke:black; stroke-linecap:round; stroke-width:0.25;"/>
<line x1="32.000000" y1="180.000000" x2="36.000000" y2="180.000000"  style="stroke:black; stroke-linecap:round; stroke-width:0.25;"/>
<line x1="36.000000" y1="180.000000" x2="118.000000" y2="36.000000"  style="stroke:black; stroke-linecap:round; stroke-width:0.25;"/>
<line x1="36.000000" y1="180.000000" x2="118.000000" y2="196.000000"  style="stroke:black; stroke-linecap:round; stroke-width:0.25;"/>
<line x1="118.000000" y1="36.000000" x2="470.200000" y2="36.000000"  style="stroke:black; stroke-linecap:round; stroke-width:0.25;"/>
<line x1="118.000000" y1="196.000000" x2="122.000000" y2="196.000000"  style="stroke:black; stroke-linecap:round; stroke-width:0.25;"/>
<line x1="147.800000" y1="196.000000" x2="151.800000" y2="196.000000"  style="stroke:black; stroke-linecap:round; stroke-width:0.25;"/>
<line x1="151.800000" y1="196.000000" x2="231.800000" y2="68.000000"  style="stroke:black; stroke-linecap:round; stroke-width:0.25;"/>
<line x1="151.800000" y1="196.000000" x2="231.800000" y2="212.000000"  style="stroke:black; stroke-linecap:round; stroke-width:0.25;"/>
<line x1="231.800000" y1="68.000000" x2="527.100000" y2="68.000000"  style="stroke:black; stroke-linecap:round; stroke-width:0.25;"/>
<line x1="231.800000" y1="212.000000" x2="235.800000" y2="212.000000"  style="stroke:black; stroke-linecap:round; stroke-width:0.25;"/>
<line x1="261.600000" y1="212.000000" x2="265.600000" y2="212.000000"  style="stroke:black; stroke-linecap:round; stroke-width:0.25;"/>
<line x1="265.600000" y1="212.000000" x2="337.600000" y2="100.000000"  style="stroke:black; stroke-linecap:round; stroke-width:0.25;"/>
<line x1="265.600000" y1="212.000000" x2="337.600000" y2="228.000000"  style="stroke:black; stroke-linecap:round; stroke-width:0.25;"/>
<line x1="337.600000" y1="100.000000" x2="580.000000" y2="100.000000"  style="stroke:black; stroke-linecap:round; stroke-width:0.25;"/>
<line x1="337.600000" y1="228.000000" x2="341.600000" y2="228.000000"  style="stroke:black; stroke-linecap:round; stroke-width:0.25;"/>
<line x1="367.400000" y1="228.000000" x2="371.400000" y2="228.000000"  style="stroke:black; stroke-linecap:round; stroke-width:0.25;"/>
<line x1="371.400000" y1="228.000000" x2="435.400000" y2="244.000000"  style="stroke:black; stroke-linecap:round; stroke-width:0.25;"/>
<line x1="371.400000" y1="228.000000" x2="435.400000" y2="132.000000"  style="stroke:black; stroke-linecap:round; stroke-width:0.25;"/>
<line x1="435.400000" y1="244.000000" x2="439.400000" y2="244.000000"  style="stroke:black; stroke-linecap:round; stroke-width:0.25;"/>
<line x1="435.400000" y1="132.000000" x2="628.900000" y2="132.000000"  style="stroke:black; stroke-linecap:round; stroke-width:0.25;"/>
<line x1="465.200000" y1="244.000000" x2="469.200000" y2="244.000000"  style="stroke:black; stroke-linecap:round; stroke-width:0.25;"/>
<line x1="469.200000" y1="244.000000" x2="525.200000" y2="164.000000"  style="stroke:black; stroke-linecap:round; stroke-width:0.25;"/>
<line x1="469.200000" y1="244.000000" x2="525.200000" y2="260.000000"  style="stroke:black; stroke-linecap:round; stroke-width:0.25;"/>
<line x1="470.200000" y1="36.000000" x2="474.200000" y2="36.000000"  style="stroke:black; stroke-linecap:round; stroke-width:0.25;"/>
<line x1="500.000000" y1="36.000000" x2="504.000000" y2="36.000000"  style="stroke:black; stroke-linecap:round; stroke-width:0.25;"/>
<line x1="504.000000" y1="36.000000" x2="856.200000" y2="36.000000"  style="stroke:black; stroke-linecap:round; stroke-width:0.25;"/>
<line x1="525.200000" y1="164.000000" x2="673.800000" y2="164.000000"  style="stroke:black; stroke-linecap:round; stroke-width:0.25;"/>
<line x1="525.200000" y1="260.000000" x2="529.200000" y2="260.000000"  style="stroke:black; stroke-linecap:round; stroke-width:0.25;"/>
<line x1="527.100000" y1="68.000000" x2="531.100000" y2="68.000000"  style="stroke:black; stroke-linecap:round; stroke-width:0.25;"/>
<line x1="555.000000" y1="260.000000" x2="559.000000" y2="260.000000"  style="stroke:black; stroke-linecap:round; stroke-width:0.25;"/>
<line x1="556.900000" y1="68.000000" x2="560.900000" y2="68.000000"  style="stroke:black; stroke-linecap:round; stroke-width:0.25;"/>
<line x1="559.000000" y1="260.000000" x2="607.000000" y2="196.000000"  style="stroke:black; stroke-linecap:round; stroke-width:0.25;"/>
<line x1="559.000000" y1="260.000000" x2="607.000000" y2="276.000000"  style="stroke:black; stroke-linecap:round; stroke-width:0.25;"/>
<line x1="560.900000" y1="68.000000" x2="856.200000" y2="68.000000"  style="stroke:black; stroke-linecap:round; stroke-width:0.25;"/>
<line x1="580.000000" y1="100.000000" x2="584.000000" y2="100.000000"  style="stroke:black; stroke-linecap:round; stroke-width:0.25;"/>
<line x1="607.000000" y1="196.000000" x2="714.700000" y2="196.000000"  style="stroke:black; stroke-linecap:round; stroke-width:0.25;"/>
<line x1="607.000000" y1="276.000000" x2="611.000000" y2="276.000000"  style="stroke:black; stroke-linecap:round; stroke-width:0.25;"/>
<line x1="609.800000" y1="100.000000" x2="613.800000" y2="100.000000"  style="stroke:black; stroke-linecap:round; stroke-width:0.25;"/>
<line x1="613.800000" y1="100.000000" x2="856.200000" y2="100.000000"  style="stroke:black; stroke-linecap:round; stroke-width:0.25;"/>
<line x1="628.900000" y1="132.000000" x2="632.900000" y2="132.000000"  style="stroke:black; stroke-linecap:round; stroke-width:0.25;"/>
<line x1="636.800000" y1="276.000000" x2="640.800000" y2="276.000000"  style="stroke:black; stroke-linecap:round; stroke-width:0.25;"/>
<line x1="640.800000" y1="276.000000" x2="680.800000" y2="228.000000"  style="stroke:black; stroke-linecap:round; stroke-width:0.25;"/>
<line x1="640.800000" y1="276.000000" x2="680.800000" y2="292.000000"  style="stroke:black; stroke-linecap:round; stroke-width:0.25;"/>
<line x1="658.700000" y1="132.000000" x2="662.700000" y2="132.000000"  style="stroke:black; stroke-linecap:round; stroke-width:0.25;"/>
<line x1="662.700000" y1="132.000000" x2="856.200000" y2="132.000000"  style="stroke:black; stroke-linecap:round; stroke-width:0.25;"/>
<line x1="673.800000" y1="164.000000" x2="677.800000" y2="164.000000"  style="stroke:black; stroke-linecap:round; stroke-width:0.25;"/>
<line x1="680.800000" y1="228.000000" x2="751.600000" y2="228.000000"  style="stroke:black; stroke-linecap:round; stroke-width:0.25;"/>
<line x1="680.800000" y1="292.000000" x2="684.800000" y2="292.000000"  style="stroke:black; stroke-linecap:round; stroke-width:0.25;"/>
<line x1="703.600000" y1="164.000000" x2="707.600000" y2="164.000000"  style="stroke:black; stroke-linecap:round; stroke-width:0.25;"/>
<line x1="707.600000" y1="164.000000" x2="856.200000" y2="164.000000"  style="stroke:black; stroke-linecap:round; stroke-width:0.25;"/>
<line x1="710.600000" y1="292.000000" x2="714.600000" y2="292.000000"  style="stroke:black; stroke-linecap:round; stroke-width:0.25;"/>
<line x1="714.600000" y1="292.000000" x2="746.600000" y2="260.000000"  style="stroke:black; stroke-linecap:round; stroke-width:0.25;"/>
<line x1="714.600000" y1="292.000000" x2="746.600000" y2="308.000000"  style="stroke:black; stroke-linecap:round; stroke-width:0.25;"/>
<line x1="714.700000" y1="196.000000" x2="718.700000" y2="196.000000"  style="stroke:black; stroke-linecap:round; stroke-width:0.25;"/>
<line x1="744.500000" y1="196.000000" x2="748.500000" y2="196.000000"  style="stroke:black; stroke-linecap:round; stroke-width:0.25;"/>
<line x1="746.600000" y1="260.000000" x2="784.500000" y2="260.000000"  style="stroke:black; stroke-linecap:round; stroke-width:0.25;"/>
<line x1="746.600000" y1="308.000000" x2="750.600000" y2="308.000000"  style="stroke:black; stroke-linecap:round; stroke-width:0.25;"/>
<line x1="748.500000" y1="196.000000" x2="856.200000" y2="196.000000"  style="stroke:black; stroke-linecap:round; stroke-width:0.25;"/>
<line x1="751.600000" y1="228.000000" x2="755.600000" y2="228.000000"  style="stroke:black; stroke-linecap:round; stroke-width:0.25;"/>
<line x1="776.400000" y1="308.000000" x2="780.400000" y2="308.000000"  style="stroke:black; stroke-linecap:round; stroke-width:0.25;"/>
<line x1="780.400000" y1="308.000000" x2="804.400000" y2="292.000000"  style="stroke:black; stroke-linecap:round; stroke-width:0.25;"/>
<line x1="780.400000" y1="308.000000" x2="804.400000" y2="324.000000"  style="stroke:black; stroke-linecap:round; stroke-width:0.25;"/>
<line x1="781.400000" y1="228.000000" x2="785.400000" y2="228.000000"  style="stroke:black; stroke-linecap:round; stroke-width:0.25;"/>
<line x1="784.500000" y1="260.000000" x2="788.500000" y2="260.000000"  style="stroke:black; stroke-linecap:round; stroke-width:0.25;"/>
<line x1="785.400000" y1="228.000000" x2="856.200000" y2="228.000000"  style="stroke:black; stroke-linecap:round; stroke-width:0.25;"/>
<line x1="804.400000" y1="292.000000" x2="813.400000" y2="292.000000"  style="stroke:black; stroke-linecap:round; stroke-width:0.25;"/>
<line x1="804.400000" y1="324.000000" x2="808.400000" y2="324.000000"  style="stroke:black; stroke-linecap:round; stroke-width:0.25;"/>
<line x1="813.400000" y1="292.000000" x2="817.400000" y2="292.000000"  style="stroke:black; stroke-linecap:round; stroke-width:0.25;"/>
<line x1="814.300000" y1="260.000000" x2="818.300000" y2="260.000000"  style="stroke:black; stroke-linecap:round; stroke-width:0.25;"/>
<line x1="818.300000" y1="260.000000" x2="856.200000" y2="260.000000"  style="stroke:black; stroke-linecap:round; stroke-width:0.25;"/>
<line x1="834.200000" y1="324.000000" x2="838.200000" y2="324.000000"  style="stroke:black; stroke-linecap:round; stroke-width:0.25;"/>
<line x1="838.200000" y1="324.000000" x2="848.200000" y2="324.000000"  style="stroke:black; stroke-linecap:round; stroke-width:0.25;"/>
<line x1="843.200000" y1="292.000000" x2="847.200000" y2="292.000000"  style="stroke:black; stroke-linecap:round; stroke-width:0.25;"/>
<line x1="847.200000" y1="292.000000" x2="856.200000" y2="292.000000"  style="stroke:black; stroke-linecap:round; stroke-width:0.25;"/>
<line x1="848.200000" y1="324.000000" x2="852.200000" y2="324.000000"  style="stroke:black; stroke-linecap:round; stroke-width:0.25;"/>
<line x1="852.200000" y1="324.000000" x2="856.200000" y2="324.000000"  style="stroke:black; stroke-linecap:round; stroke-width:0.25;"/>
<line x1="856.200000" y1="228.000000" x2="864.200000" y2="228.000000"  style="stroke:black; stroke-linecap:round; stroke-width:0.25;"/>
<line x1="856.200000" y1="260.000000" x2="872.200000" y2="260.000000"  style="stroke:black; stroke-linecap:round; stroke-width:0.25;"/>
<line x1="856.200000" y1="292.000000" x2="880.200000" y2="292.000000"  style="stroke:black; stroke-linecap:round; stroke-width:0.25;"/>
<line x1="856.200000" y1="324.000000" x2="888.200000" y2="324.000000"  style="stroke:black; stroke-linecap:round; stroke-width:0.25;"/>
<line x1="856.200000" y1="100.000000" x2="880.200000" y2="100.000000"  style="stroke:black; stroke-linecap:round; stroke-width:0.25;"/>
<line x1="856.200000" y1="36.000000" x2="896.200000" y2="36.000000"  style="stroke:black; stroke-linecap:round; stroke-width:0.25;"/>
<line x1="856.200000" y1="68.000000" x2="888.200000" y2="68.000000"  style="stroke:black; stroke-linecap:round; stroke-width:0.25;"/>
<line x1="856.200000" y1="132.000000" x2="872.200000" y2="132.000000"  style="stroke:black; stroke-linecap:round; stroke-width:0.25;"/>
<line x1="856.200000" y1="164.000000" x2="864.200000" y2="164.000000"  style="stroke:black; stroke-linecap:round; stroke-width:0.25;"/>
<line x1="856.200000" y1="184.000000" x2="896.200000" y2="184.000000"  style="stroke:black; stroke-linecap:round; stroke-width:0.25;"/>
<line x1="856.200000" y1="196.000000" x2="856.200000" y2="184.000000"  style="stroke:black; stroke-linecap:round; stroke-width:0.25;"/>
<line x1="856.200000" y1="196.000000" x2="856.200000" y2="196.000000"  style="stroke:black; stroke-linecap:round; stroke-width:0.25;"/>
<line x1="864.200000" y1="192.000000" x2="896.200000" y2="192.000000"  style="stroke:black; stroke-linecap:round; stroke-width:0.25;"/>
<line x1="864.200000" y1="228.000000" x2="864.200000" y2="192.000000"  style="stroke:black; stroke-linecap:round; stroke-width:0.25;"/>
<line x1="864.200000" y1="164.000000" x2="864.200000" y2="176.000000"  style="stroke:black; stroke-linecap:round; stroke-width:0.25;"/>
<line x1="864.200000" y1="176.000000" x2="896.200000" y2="176.000000"  style="stroke:black; stroke-linecap:round; stroke-width:0.25;"/>
<line x1="872.200000" y1="200.000000" x2="896.200000" y2="200.000000"  style="stroke:black; stroke-linecap:round; stroke-width:0.25;"/>
<line x1="872.200000" y1="260.000000" x2="872.200000" y2="200.000000"  style="stroke:black; stroke-linecap:round; stroke-width:0.25;"/>
<line x1="872.200000" y1="132.000000" x2="872.200000" y2="168.000000"  style="stroke:black; stroke-linecap:round; stroke-width:0.25;"/>
<line x1="872.200000" y1="168.000000" x2="896.200000" y2="168.000000"  style="stroke:black; stroke-linecap:round; stroke-width:0.25;"/>
<line x1="880.200000" y1="208.000000" x2="896.200000" y2="208.000000"  style="stroke:black; stroke-linecap:round; stroke-width:0.25;"/>
<line x1="880.200000" y1="292.000000" x2="880.200000" y2="208.000000"  style="stroke:black; stroke-linecap:round; stroke-width:0.25;"/>
<line x1="880.200000" y1="100.000000" x2="880.200000" y2="160.000000"  style="stroke:black; stroke-linecap:round; stroke-width:0.25;"/>
<line x1="880.200000" y1="160.000000" x2="896.200000" y2="160.000000"  style="stroke:black; stroke-linecap:round; stroke-width:0.25;"/>
<line x1="888.200000" y1="216.000000" x2="896.200000" y2="216.000000"  style="stroke:black; stroke-linecap:round; stroke-width:0.25;"/>
<line x1="888.200000" y1="324.000000" x2="888.200000" y2="216.000000"  style="stroke:black; stroke-linecap:round; stroke-width:0.25;"/>
<line x1="888.200000" y1="68.000000" x2="888.200000" y2="152.000000"  style="stroke:black; stroke-linecap:round; stroke-width:0.25;"/>
<line x1="888.200000" y1="152.000000" x2="896.200000" y2="152.000000"  style="stroke:black; stroke-linecap:round; stroke-width:0.25;"/>
<line x1="896.200000" y1="144.000000" x2="900.200000" y2="144.000000"  style="stroke:black; stroke-linecap:round; stroke-width:0.25;"/>
<line x1="896.200000" y1="152.000000" x2="900.200000" y2="152.000000"  style="stroke:black; stroke-linecap:round; stroke-width:0.25;"/>
<line x1="896.200000" y1="160.000000" x2="900.200000" y2="160.000000"  style="stroke:black; stroke-linecap:round; stroke-width:0.25;"/>
<line x1="896.200000" y1="168.000000" x2="900.200000" y2="168.000000"  style="stroke:black; stroke-linecap:round; stroke-width:0.25;"/>
<line x1="896.200000" y1="176.000000" x2="900.200000" y2="176.000000"  style="stroke:black; stroke-linecap:round; stroke-width:0.25;"/>
<line x1="896.200000" y1="184.000000" x2="900.200000" y2="184.000000"  style="stroke:black; stroke-linecap:round; stroke-width:0.25;"/>
<line x1="896.200000" y1="192.000000" x2="900.200000" y2="192.000000"  style="stroke:black; stroke-linecap:round; stroke-width:0.25;"/>
<line x1="896.200000" y1="200.000000" x2="900.200000" y2="200.000000"  style="stroke:black; stroke-linecap:round; stroke-width:0.25;"/>
<line x1="896.200000" y1="208.000000" x2="900.200000" y2="208.000000"  style="stroke:black; stroke-linecap:round; stroke-width:0.25;"/>
<line x1="896.200000" y1="216.000000" x2="900.200000" y2="216.000000"  style="stroke:black; stroke-linecap:round; stroke-width:0.25;"/>
<line x1="896.200000" y1="36.000000" x2="896.200000" y2="144.000000"  style="stroke:black; stroke-linecap:round; stroke-width:0.25;"/>
<line x1="896.200000" y1="144.000000" x2="896.200000" y2="144.000000"  style="stroke:black; stroke-linecap:round; stroke-width:0.25;"/>
<line x1="900.200000" y1="144.000000" x2="904.200000" y2="144.000000"  style="stroke:black; stroke-linecap:round; stroke-width:0.25;"/>
<line x1="900.200000" y1="152.000000" x2="904.200000" y2="152.000000"  style="stroke:black; stroke-linecap:round; stroke-width:0.25;"/>
<line x1="900.200000" y1="160.000000" x2="904.200000" y2="160.000000"  style="stroke:black; stroke-linecap:round; stroke-width:0.25;"/>
<line x1="900.200000" y1="168.000000" x2="904.200000" y2="168.000000"  style="stroke:black; stroke-linecap:round; stroke-width:0.25;"/>
<line x1="900.200000" y1="176.000000" x2="904.200000" y2="176.000000"  style="stroke:black; stroke-linecap:round; stroke-width:0.25;"/>
<line x1="900.200000" y1="184.000000" x2="904.200000" y2="184.000000"  style="stroke:black; stroke-linecap:round; stroke-width:0.25;"/>
<line x1="900.200000" y1="192.000000" x2="904.200000" y2="192.000000"  style="stroke:black; stroke-linecap:round; stroke-width:0.25;"/>
<line x1="900.200000" y1="200.000000" x2="904.200000" y2="200.000000"  style="stroke:black; stroke-linecap:round; stroke-width:0.25;"/>
<line x1="900.200000" y1="208.000000" x2="904.200000" y2="208.000000"  style="stroke:black; stroke-linecap:round; stroke-width:0.25;"/>
<line x1="900.200000" y1="216.000000" x2="904.200000" y2="216.000000"  style="stroke:black; stroke-linecap:round; stroke-width:0.25;"/>
<line x1="904.200000" y1="144.000000" x2="914.200000" y2="144.000000"  style="stroke:black; stroke-linecap:round; stroke-width:0.25;"/>
<line x1="904.200000" y1="152.000000" x2="914.200000" y2="152.000000"  style="stroke:black; stroke-linecap:round; stroke-width:0.25;"/>
<line x1="904.200000" y1="160.000000" x2="914.200000" y2="160.000000"  style="stroke:black; stroke-linecap:round; stroke-width:0.25;"/>
<line x1="904.200000" y1="168.000000" x2="914.200000" y2="168.000000"  style="stroke:black; stroke-linecap:round; stroke-width:0.25;"/>
<line x1="904.200000" y1="176.000000" x2="914.200000" y2="176.000000"  style="stroke:black; stroke-linecap:round; stroke-width:0.25;"/>
<line x1="904.200000" y1="184.000000" x2="914.200000" y2="184.000000"  style="stroke:black; stroke-linecap:round; stroke-width:0.25;"/>
<line x1="904.200000" y1="192.000000" x2="914.200000" y2="192.000000"  style="stroke:black; stroke-linecap:round; stroke-width:0.25;"/>
<line x1="904.200000" y1="200.000000" x2="914.200000" y2="200.000000"  style="stroke:black; stroke-linecap:round; stroke-width:0.25;"/>
<line x1="904.200000" y1="208.000000" x2="914.200000" y2="208.000000"  style="stroke:black; stroke-linecap:round; stroke-width:0.25;"/>
<line x1="904.200000" y1="216.000000" x2="914.200000" y2="216.000000"  style="stroke:black; stroke-linecap:round; stroke-width:0.25;"/>
</svg>
