<?xml version="1.0"?>
<svg xmlns="http://www.w3.org/2000/svg" xmlns:xlink="http://www.w3.org/1999/xlink" viewBox="0 0 543.300000 168.000000" width="271.650000mm" height="84.000000mm" version="1.1">
<a xlink:href="i-0x7ff1e79828a0.svg">
<rect x="1.000000" y="1.000000" width="542.300000" height="167.000000" rx="0" ry="0" style="stroke:none;fill:#cccccc;"/>
<rect x="0.000000" y="0.000000" width="542.300000" height="167.000000" rx="0" ry="0" style="stroke:none;fill:#ffffff;"/>
</a>
<text x="10.000000" y="7.000000" font-family="Arial" font-size="7"></text>
<a xlink:href="gFreq-0x7ff1e7a8d5a0.svg">
<rect x="96.600000" y="25.000000" width="25.800000" height="24.000000" rx="0" ry="0" style="stroke:none;fill:#cccccc;"/>
<rect x="95.600000" y="24.000000" width="25.800000" height="24.000000" rx="0" ry="0" style="stroke:none;fill:#003366;"/>
</a>
<a xlink:href="gFreq-0x7ff1e7a8d5a0.svg">
<text x="108.500000" y="38.000000" font-family="Arial" font-size="7" text-anchor="middle" fill="#FFFFFF">gFreq</text>
</a>
<circle cx="97.600000" cy="26.000000" r="1"/>
<a xlink:href="FMdepth-0x7ff1e7ad8e30.svg">
<rect x="70.150000" y="57.000000" width="38.700000" height="24.000000" rx="0" ry="0" style="stroke:none;fill:#cccccc;"/>
<rect x="69.150000" y="56.000000" width="38.700000" height="24.000000" rx="0" ry="0" style="stroke:none;fill:#003366;"/>
</a>
<a xlink:href="FMdepth-0x7ff1e7ad8e30.svg">
<text x="88.500000" y="70.000000" font-family="Arial" font-size="7" text-anchor="middle" fill="#FFFFFF">FMdepth</text>
</a>
<circle cx="71.150000" cy="58.000000" r="1"/>
<a xlink:href="FMfeedback-0x7ff1e797fa70.svg">
<rect x="25.000000" y="89.000000" width="129.000000" height="24.000000" rx="0" ry="0" style="stroke:none;fill:#cccccc;"/>
<rect x="24.000000" y="88.000000" width="129.000000" height="24.000000" rx="0" ry="0" style="stroke:none;fill:#003366;"/>
</a>
<a xlink:href="FMfeedback-0x7ff1e797fa70.svg">
<text x="88.500000" y="102.000000" font-family="Arial" font-size="7" text-anchor="middle" fill="#FFFFFF">FMfeedback((n...9f : *)) : *)</text>
</a>
<circle cx="26.000000" cy="90.000000" r="1"/>
<rect x="170.000000" y="73.000000" width="24.000000" height="24.000000" rx="0" ry="0" style="stroke:none;fill:#cccccc;"/>
<rect x="169.000000" y="72.000000" width="24.000000" height="24.000000" rx="0" ry="0" style="stroke:none;fill:#4B71A1;"/>
<text x="181.000000" y="86.000000" font-family="Arial" font-size="7" text-anchor="middle" fill="#FFFFFF">*</text>
<circle cx="171.000000" cy="74.000000" r="1"/>
<line x1="166.000000" y1="79.000000" x2="169.000000" y2="80.000000"  transform="rotate(0.000000,169.000000,80.000000)" style="stroke: black; stroke-width:0.25;"/>
<line x1="166.000000" y1="81.000000" x2="169.000000" y2="80.000000"  transform="rotate(0.000000,169.000000,80.000000)" style="stroke: black; stroke-width:0.25;"/>
<line x1="166.000000" y1="87.000000" x2="169.000000" y2="88.000000"  transform="rotate(0.000000,169.000000,88.000000)" style="stroke: black; stroke-width:0.25;"/>
<line x1="166.000000" y1="89.000000" x2="169.000000" y2="88.000000"  transform="rotate(0.000000,169.000000,88.000000)" style="stroke: black; stroke-width:0.25;"/>
<rect x="210.000000" y="57.000000" width="24.000000" height="24.000000" rx="0" ry="0" style="stroke:none;fill:#cccccc;"/>
<rect x="209.000000" y="56.000000" width="24.000000" height="24.000000" rx="0" ry="0" style="stroke:none;fill:#4B71A1;"/>
<text x="221.000000" y="70.000000" font-family="Arial" font-size="7" text-anchor="middle" fill="#FFFFFF">+</text>
<circle cx="211.000000" cy="58.000000" r="1"/>
<line x1="206.000000" y1="63.000000" x2="209.000000" y2="64.000000"  transform="rotate(0.000000,209.000000,64.000000)" style="stroke: black; stroke-width:0.25;"/>
<line x1="206.000000" y1="65.000000" x2="209.000000" y2="64.000000"  transform="rotate(0.000000,209.000000,64.000000)" style="stroke: black; stroke-width:0.25;"/>
<line x1="206.000000" y1="71.000000" x2="209.000000" y2="72.000000"  transform="rotate(0.000000,209.000000,72.000000)" style="stroke: black; stroke-width:0.25;"/>
<line x1="206.000000" y1="73.000000" x2="209.000000" y2="72.000000"  transform="rotate(0.000000,209.000000,72.000000)" style="stroke: black; stroke-width:0.25;"/>
<a xlink:href="SR-0x7ff1e7ab04c0.svg">
<rect x="100.600000" y="121.000000" width="24.000000" height="24.000000" rx="0" ry="0" style="stroke:none;fill:#cccccc;"/>
<rect x="99.600000" y="120.000000" width="24.000000" height="24.000000" rx="0" ry="0" style="stroke:none;fill:#003366;"/>
</a>
<a xlink:href="SR-0x7ff1e7ab04c0.svg">
<text x="111.600000" y="134.000000" font-family="Arial" font-size="7" text-anchor="middle" fill="#FFFFFF">SR</text>
</a>
<circle cx="101.600000" cy="122.000000" r="1"/>
<rect x="132.600000" y="121.000000" width="25.800000" height="24.000000" rx="0" ry="0" style="stroke:none;fill:#cccccc;"/>
<rect x="131.600000" y="120.000000" width="25.800000" height="24.000000" rx="0" ry="0" style="stroke:none;fill:#4B71A1;"/>
<text x="144.500000" y="134.000000" font-family="Arial" font-size="7" text-anchor="middle" fill="#FFFFFF">float</text>
<circle cx="133.600000" cy="122.000000" r="1"/>
<line x1="128.600000" y1="131.000000" x2="131.600000" y2="132.000000"  transform="rotate(0.000000,131.600000,132.000000)" style="stroke: black; stroke-width:0.25;"/>
<line x1="128.600000" y1="133.000000" x2="131.600000" y2="132.000000"  transform="rotate(0.000000,131.600000,132.000000)" style="stroke: black; stroke-width:0.25;"/>
<rect x="250.000000" y="73.000000" width="24.000000" height="24.000000" rx="0" ry="0" style="stroke:none;fill:#cccccc;"/>
<rect x="249.000000" y="72.000000" width="24.000000" height="24.000000" rx="0" ry="0" style="stroke:none;fill:#4B71A1;"/>
<text x="261.000000" y="86.000000" font-family="Arial" font-size="7" text-anchor="middle" fill="#FFFFFF">/</text>
<circle cx="251.000000" cy="74.000000" r="1"/>
<line x1="246.000000" y1="79.000000" x2="249.000000" y2="80.000000"  transform="rotate(0.000000,249.000000,80.000000)" style="stroke: black; stroke-width:0.25;"/>
<line x1="246.000000" y1="81.000000" x2="249.000000" y2="80.000000"  transform="rotate(0.000000,249.000000,80.000000)" style="stroke: black; stroke-width:0.25;"/>
<line x1="246.000000" y1="87.000000" x2="249.000000" y2="88.000000"  transform="rotate(0.000000,249.000000,88.000000)" style="stroke: black; stroke-width:0.25;"/>
<line x1="246.000000" y1="89.000000" x2="249.000000" y2="88.000000"  transform="rotate(0.000000,249.000000,88.000000)" style="stroke: black; stroke-width:0.25;"/>
<rect x="298.000000" y="77.000000" width="24.000000" height="24.000000" rx="0" ry="0" style="stroke:none;fill:#cccccc;"/>
<rect x="297.000000" y="76.000000" width="24.000000" height="24.000000" rx="0" ry="0" style="stroke:none;fill:#4B71A1;"/>
<text x="309.000000" y="90.000000" font-family="Arial" font-size="7" text-anchor="middle" fill="#FFFFFF">+</text>
<circle cx="299.000000" cy="78.000000" r="1"/>
<line x1="294.000000" y1="83.000000" x2="297.000000" y2="84.000000"  transform="rotate(0.000000,297.000000,84.000000)" style="stroke: black; stroke-width:0.25;"/>
<line x1="294.000000" y1="85.000000" x2="297.000000" y2="84.000000"  transform="rotate(0.000000,297.000000,84.000000)" style="stroke: black; stroke-width:0.25;"/>
<line x1="294.000000" y1="91.000000" x2="297.000000" y2="92.000000"  transform="rotate(0.000000,297.000000,92.000000)" style="stroke: black; stroke-width:0.25;"/>
<line x1="294.000000" y1="93.000000" x2="297.000000" y2="92.000000"  transform="rotate(0.000000,297.000000,92.000000)" style="stroke: black; stroke-width:0.25;"/>
<a xlink:href="decimal-0x7ff1e7b03c20.svg">
<rect x="330.000000" y="77.000000" width="38.700000" height="24.000000" rx="0" ry="0" style="stroke:none;fill:#cccccc;"/>
<rect x="329.000000" y="76.000000" width="38.700000" height="24.000000" rx="0" ry="0" style="stroke:none;fill:#003366;"/>
</a>
<a xlink:href="decimal-0x7ff1e7b03c20.svg">
<text x="348.350000" y="90.000000" font-family="Arial" font-size="7" text-anchor="middle" fill="#FFFFFF">decimal</text>
</a>
<circle cx="331.000000" cy="78.000000" r="1"/>
<line x1="326.000000" y1="87.000000" x2="329.000000" y2="88.000000"  transform="rotate(0.000000,329.000000,88.000000)" style="stroke: black; stroke-width:0.25;"/>
<line x1="326.000000" y1="89.000000" x2="329.000000" y2="88.000000"  transform="rotate(0.000000,329.000000,88.000000)" style="stroke: black; stroke-width:0.25;"/>
<line x1="369.700000" y1="88.000000" x2="369.700000" y2="84.000000"  style="stroke:black; stroke-linecap:round; stroke-width:0.25;"/>
<line x1="369.700000" y1="84.000000" x2="373.700000" y2="84.000000"  style="stroke:black; stroke-linecap:round; stroke-width:0.25;"/>
<line x1="373.700000" y1="84.000000" x2="373.700000" y2="88.000000"  style="stroke:black; stroke-linecap:round; stroke-width:0.25;"/>
<rect x="402.700000" y="77.000000" width="25.800000" height="24.000000" rx="0" ry="0" style="stroke:none;fill:#cccccc;"/>
<rect x="401.700000" y="76.000000" width="25.800000" height="24.000000" rx="0" ry="0" style="stroke:none;fill:#f44800;"/>
<text x="414.600000" y="90.000000" font-family="Arial" font-size="7" text-anchor="middle" fill="#FFFFFF">65536</text>
<circle cx="403.700000" cy="78.000000" r="1"/>
<line x1="392.700000" y1="67.000000" x2="392.700000" y2="109.000000"  style="stroke: black; stroke-linecap:round; stroke-width:0.25; stroke-dasharray:3,3;"/>
<line x1="392.700000" y1="109.000000" x2="436.500000" y2="109.000000"  style="stroke: black; stroke-linecap:round; stroke-width:0.25; stroke-dasharray:3,3;"/>
<line x1="436.500000" y1="109.000000" x2="436.500000" y2="67.000000"  style="stroke: black; stroke-linecap:round; stroke-width:0.25; stroke-dasharray:3,3;"/>
<line x1="392.700000" y1="67.000000" x2="397.700000" y2="67.000000"  style="stroke: black; stroke-linecap:round; stroke-width:0.25; stroke-dasharray:3,3;"/>
<line x1="433.175000" y1="67.000000" x2="436.500000" y2="67.000000"  style="stroke: black; stroke-linecap:round; stroke-width:0.25; stroke-dasharray:3,3;"/>
<text x="397.700000" y="69.000000" font-family="Arial" font-size="7">tablesize</text>
<rect x="446.500000" y="77.000000" width="25.800000" height="24.000000" rx="0" ry="0" style="stroke:none;fill:#cccccc;"/>
<rect x="445.500000" y="76.000000" width="25.800000" height="24.000000" rx="0" ry="0" style="stroke:none;fill:#4B71A1;"/>
<text x="458.400000" y="90.000000" font-family="Arial" font-size="7" text-anchor="middle" fill="#FFFFFF">float</text>
<circle cx="447.500000" cy="78.000000" r="1"/>
<line x1="442.500000" y1="87.000000" x2="445.500000" y2="88.000000"  transform="rotate(0.000000,445.500000,88.000000)" style="stroke: black; stroke-width:0.25;"/>
<line x1="442.500000" y1="89.000000" x2="445.500000" y2="88.000000"  transform="rotate(0.000000,445.500000,88.000000)" style="stroke: black; stroke-width:0.25;"/>
<rect x="488.300000" y="73.000000" width="24.000000" height="24.000000" rx="0" ry="0" style="stroke:none;fill:#cccccc;"/>
<rect x="487.300000" y="72.000000" width="24.000000" height="24.000000" rx="0" ry="0" style="stroke:none;fill:#4B71A1;"/>
<text x="499.300000" y="86.000000" font-family="Arial" font-size="7" text-anchor="middle" fill="#FFFFFF">*</text>
<circle cx="489.300000" cy="74.000000" r="1"/>
<line x1="484.300000" y1="79.000000" x2="487.300000" y2="80.000000"  transform="rotate(0.000000,487.300000,80.000000)" style="stroke: black; stroke-width:0.25;"/>
<line x1="484.300000" y1="81.000000" x2="487.300000" y2="80.000000"  transform="rotate(0.000000,487.300000,80.000000)" style="stroke: black; stroke-width:0.25;"/>
<line x1="484.300000" y1="87.000000" x2="487.300000" y2="88.000000"  transform="rotate(0.000000,487.300000,88.000000)" style="stroke: black; stroke-width:0.25;"/>
<line x1="484.300000" y1="89.000000" x2="487.300000" y2="88.000000"  transform="rotate(0.000000,487.300000,88.000000)" style="stroke: black; stroke-width:0.25;"/>
<line x1="15.000000" y1="15.000000" x2="15.000000" y2="153.000000"  style="stroke: black; stroke-linecap:round; stroke-width:0.25; stroke-dasharray:3,3;"/>
<line x1="15.000000" y1="153.000000" x2="528.300000" y2="153.000000"  style="stroke: black; stroke-linecap:round; stroke-width:0.25; stroke-dasharray:3,3;"/>
<line x1="528.300000" y1="153.000000" x2="528.300000" y2="15.000000"  style="stroke: black; stroke-linecap:round; stroke-width:0.25; stroke-dasharray:3,3;"/>
<line x1="15.000000" y1="15.000000" x2="20.000000" y2="15.000000"  style="stroke: black; stroke-linecap:round; stroke-width:0.25; stroke-dasharray:3,3;"/>
<line x1="119.975000" y1="15.000000" x2="528.300000" y2="15.000000"  style="stroke: black; stroke-linecap:round; stroke-width:0.25; stroke-dasharray:3,3;"/>
<text x="20.000000" y="17.000000" font-family="Arial" font-size="7">phasor(65536)... *) : *) : +)</text>
<line x1="530.300000" y1="83.000000" x2="533.300000" y2="84.000000"  transform="rotate(0.000000,533.300000,84.000000)" style="stroke: black; stroke-width:0.25;"/>
<line x1="530.300000" y1="85.000000" x2="533.300000" y2="84.000000"  transform="rotate(0.000000,533.300000,84.000000)" style="stroke: black; stroke-width:0.25;"/>
<line x1="107.850000" y1="68.000000" x2="111.850000" y2="68.000000"  style="stroke:black; stroke-linecap:round; stroke-width:0.25;"/>
<line x1="111.850000" y1="68.000000" x2="157.000000" y2="68.000000"  style="stroke:black; stroke-linecap:round; stroke-width:0.25;"/>
<line x1="121.400000" y1="36.000000" x2="125.400000" y2="36.000000"  style="stroke:black; stroke-linecap:round; stroke-width:0.25;"/>
<line x1="123.600000" y1="132.000000" x2="127.600000" y2="132.000000"  style="stroke:black; stroke-linecap:round; stroke-width:0.25;"/>
<line x1="125.400000" y1="36.000000" x2="197.000000" y2="36.000000"  style="stroke:black; stroke-linecap:round; stroke-width:0.25;"/>
<line x1="127.600000" y1="132.000000" x2="127.600000" y2="132.000000"  style="stroke:black; stroke-linecap:round; stroke-width:0.25;"/>
<line x1="127.600000" y1="132.000000" x2="131.600000" y2="132.000000"  style="stroke:black; stroke-linecap:round; stroke-width:0.25;"/>
<line x1="153.000000" y1="100.000000" x2="157.000000" y2="100.000000"  style="stroke:black; stroke-linecap:round; stroke-width:0.25;"/>
<line x1="157.000000" y1="68.000000" x2="165.000000" y2="68.000000"  style="stroke:black; stroke-linecap:round; stroke-width:0.25;"/>
<line x1="157.000000" y1="88.000000" x2="165.000000" y2="88.000000"  style="stroke:black; stroke-linecap:round; stroke-width:0.25;"/>
<line x1="157.000000" y1="100.000000" x2="157.000000" y2="88.000000"  style="stroke:black; stroke-linecap:round; stroke-width:0.25;"/>
<line x1="157.000000" y1="100.000000" x2="157.000000" y2="100.000000"  style="stroke:black; stroke-linecap:round; stroke-width:0.25;"/>
<line x1="157.400000" y1="132.000000" x2="161.400000" y2="132.000000"  style="stroke:black; stroke-linecap:round; stroke-width:0.25;"/>
<line x1="161.400000" y1="132.000000" x2="237.000000" y2="132.000000"  style="stroke:black; stroke-linecap:round; stroke-width:0.25;"/>
<line x1="165.000000" y1="68.000000" x2="165.000000" y2="80.000000"  style="stroke:black; stroke-linecap:round; stroke-width:0.25;"/>
<line x1="165.000000" y1="80.000000" x2="165.000000" y2="80.000000"  style="stroke:black; stroke-linecap:round; stroke-width:0.25;"/>
<line x1="165.000000" y1="80.000000" x2="169.000000" y2="80.000000"  style="stroke:black; stroke-linecap:round; stroke-width:0.25;"/>
<line x1="165.000000" y1="88.000000" x2="169.000000" y2="88.000000"  style="stroke:black; stroke-linecap:round; stroke-width:0.25;"/>
<line x1="193.000000" y1="84.000000" x2="197.000000" y2="84.000000"  style="stroke:black; stroke-linecap:round; stroke-width:0.25;"/>
<line x1="197.000000" y1="36.000000" x2="205.000000" y2="36.000000"  style="stroke:black; stroke-linecap:round; stroke-width:0.25;"/>
<line x1="197.000000" y1="72.000000" x2="205.000000" y2="72.000000"  style="stroke:black; stroke-linecap:round; stroke-width:0.25;"/>
<line x1="197.000000" y1="84.000000" x2="197.000000" y2="72.000000"  style="stroke:black; stroke-linecap:round; stroke-width:0.25;"/>
<line x1="197.000000" y1="84.000000" x2="197.000000" y2="84.000000"  style="stroke:black; stroke-linecap:round; stroke-width:0.25;"/>
<line x1="205.000000" y1="36.000000" x2="205.000000" y2="64.000000"  style="stroke:black; stroke-linecap:round; stroke-width:0.25;"/>
<line x1="205.000000" y1="64.000000" x2="205.000000" y2="64.000000"  style="stroke:black; stroke-linecap:round; stroke-width:0.25;"/>
<line x1="205.000000" y1="64.000000" x2="209.000000" y2="64.000000"  style="stroke:black; stroke-linecap:round; stroke-width:0.25;"/>
<line x1="205.000000" y1="72.000000" x2="209.000000" y2="72.000000"  style="stroke:black; stroke-linecap:round; stroke-width:0.25;"/>
<line x1="233.000000" y1="68.000000" x2="237.000000" y2="68.000000"  style="stroke:black; stroke-linecap:round; stroke-width:0.25;"/>
<line x1="237.000000" y1="88.000000" x2="245.000000" y2="88.000000"  style="stroke:black; stroke-linecap:round; stroke-width:0.25;"/>
<line x1="237.000000" y1="132.000000" x2="237.000000" y2="88.000000"  style="stroke:black; stroke-linecap:round; stroke-width:0.25;"/>
<line x1="237.000000" y1="132.000000" x2="237.000000" y2="132.000000"  style="stroke:black; stroke-linecap:round; stroke-width:0.25;"/>
<line x1="237.000000" y1="68.000000" x2="245.000000" y2="68.000000"  style="stroke:black; stroke-linecap:round; stroke-width:0.25;"/>
<line x1="245.000000" y1="68.000000" x2="245.000000" y2="80.000000"  style="stroke:black; stroke-linecap:round; stroke-width:0.25;"/>
<line x1="245.000000" y1="80.000000" x2="245.000000" y2="80.000000"  style="stroke:black; stroke-linecap:round; stroke-width:0.25;"/>
<line x1="245.000000" y1="80.000000" x2="249.000000" y2="80.000000"  style="stroke:black; stroke-linecap:round; stroke-width:0.25;"/>
<line x1="245.000000" y1="88.000000" x2="249.000000" y2="88.000000"  style="stroke:black; stroke-linecap:round; stroke-width:0.25;"/>
<line x1="273.000000" y1="84.000000" x2="277.000000" y2="84.000000"  style="stroke:black; stroke-linecap:round; stroke-width:0.25;"/>
<line x1="277.000000" y1="84.000000" x2="285.000000" y2="84.000000"  style="stroke:black; stroke-linecap:round; stroke-width:0.25;"/>
<line x1="285.000000" y1="84.000000" x2="285.000000" y2="92.000000"  style="stroke:black; stroke-linecap:round; stroke-width:0.25;"/>
<line x1="285.000000" y1="92.000000" x2="285.000000" y2="92.000000"  style="stroke:black; stroke-linecap:round; stroke-width:0.25;"/>
<line x1="285.000000" y1="92.000000" x2="293.000000" y2="92.000000"  style="stroke:black; stroke-linecap:round; stroke-width:0.25;"/>
<line x1="293.000000" y1="68.000000" x2="293.000000" y2="68.000000"  style="stroke:black; stroke-linecap:round; stroke-width:0.25;"/>
<line x1="293.000000" y1="68.000000" x2="293.000000" y2="84.000000"  style="stroke:black; stroke-linecap:round; stroke-width:0.25;"/>
<line x1="293.000000" y1="84.000000" x2="293.000000" y2="84.000000"  style="stroke:black; stroke-linecap:round; stroke-width:0.25;"/>
<line x1="293.000000" y1="84.000000" x2="297.000000" y2="84.000000"  style="stroke:black; stroke-linecap:round; stroke-width:0.25;"/>
<line x1="293.000000" y1="92.000000" x2="297.000000" y2="92.000000"  style="stroke:black; stroke-linecap:round; stroke-width:0.25;"/>
<line x1="321.000000" y1="88.000000" x2="325.000000" y2="88.000000"  style="stroke:black; stroke-linecap:round; stroke-width:0.25;"/>
<line x1="325.000000" y1="88.000000" x2="325.000000" y2="88.000000"  style="stroke:black; stroke-linecap:round; stroke-width:0.25;"/>
<line x1="325.000000" y1="88.000000" x2="329.000000" y2="88.000000"  style="stroke:black; stroke-linecap:round; stroke-width:0.25;"/>
<line x1="332.350000" y1="68.000000" x2="293.000000" y2="68.000000"  style="stroke:black; stroke-linecap:round; stroke-width:0.25;"/>
<line x1="367.700000" y1="88.000000" x2="371.700000" y2="88.000000"  style="stroke:black; stroke-linecap:round; stroke-width:0.25;"/>
<line x1="371.700000" y1="68.000000" x2="371.700000" y2="68.000000"  style="stroke:black; stroke-linecap:round; stroke-width:0.25;"/>
<line x1="371.700000" y1="84.000000" x2="371.700000" y2="68.000000"  style="stroke:black; stroke-linecap:round; stroke-width:0.25;"/>
<line x1="371.700000" y1="88.000000" x2="373.700000" y2="88.000000"  style="stroke:black; stroke-linecap:round; stroke-width:0.25;"/>
<line x1="371.700000" y1="68.000000" x2="332.350000" y2="68.000000"  style="stroke:black; stroke-linecap:round; stroke-width:0.25;"/>
<line x1="373.700000" y1="88.000000" x2="379.700000" y2="88.000000"  style="stroke:black; stroke-linecap:round; stroke-width:0.25;"/>
<line x1="379.700000" y1="58.000000" x2="387.700000" y2="58.000000"  style="stroke:black; stroke-linecap:round; stroke-width:0.25;"/>
<line x1="379.700000" y1="88.000000" x2="379.700000" y2="58.000000"  style="stroke:black; stroke-linecap:round; stroke-width:0.25;"/>
<line x1="379.700000" y1="88.000000" x2="379.700000" y2="88.000000"  style="stroke:black; stroke-linecap:round; stroke-width:0.25;"/>
<line x1="387.700000" y1="58.000000" x2="431.500000" y2="58.000000"  style="stroke:black; stroke-linecap:round; stroke-width:0.25;"/>
<line x1="427.500000" y1="88.000000" x2="431.500000" y2="88.000000"  style="stroke:black; stroke-linecap:round; stroke-width:0.25;"/>
<line x1="431.500000" y1="58.000000" x2="475.300000" y2="58.000000"  style="stroke:black; stroke-linecap:round; stroke-width:0.25;"/>
<line x1="431.500000" y1="88.000000" x2="441.500000" y2="88.000000"  style="stroke:black; stroke-linecap:round; stroke-width:0.25;"/>
<line x1="441.500000" y1="88.000000" x2="441.500000" y2="88.000000"  style="stroke:black; stroke-linecap:round; stroke-width:0.25;"/>
<line x1="441.500000" y1="88.000000" x2="445.500000" y2="88.000000"  style="stroke:black; stroke-linecap:round; stroke-width:0.25;"/>
<line x1="471.300000" y1="88.000000" x2="475.300000" y2="88.000000"  style="stroke:black; stroke-linecap:round; stroke-width:0.25;"/>
<line x1="475.300000" y1="58.000000" x2="483.300000" y2="58.000000"  style="stroke:black; stroke-linecap:round; stroke-width:0.25;"/>
<line x1="475.300000" y1="88.000000" x2="483.300000" y2="88.000000"  style="stroke:black; stroke-linecap:round; stroke-width:0.25;"/>
<line x1="483.300000" y1="80.000000" x2="487.300000" y2="80.000000"  style="stroke:black; stroke-linecap:round; stroke-width:0.25;"/>
<line x1="483.300000" y1="88.000000" x2="487.300000" y2="88.000000"  style="stroke:black; stroke-linecap:round; stroke-width:0.25;"/>
<line x1="483.300000" y1="58.000000" x2="483.300000" y2="80.000000"  style="stroke:black; stroke-linecap:round; stroke-width:0.25;"/>
<line x1="483.300000" y1="80.000000" x2="483.300000" y2="80.000000"  style="stroke:black; stroke-linecap:round; stroke-width:0.25;"/>
<line x1="511.300000" y1="84.000000" x2="515.300000" y2="84.000000"  style="stroke:black; stroke-linecap:round; stroke-width:0.25;"/>
<line x1="515.300000" y1="84.000000" x2="515.300000" y2="84.000000"  style="stroke:black; stroke-linecap:round; stroke-width:0.25;"/>
<line x1="515.300000" y1="84.000000" x2="519.300000" y2="84.000000"  style="stroke:black; stroke-linecap:round; stroke-width:0.25;"/>
<line x1="519.300000" y1="84.000000" x2="523.300000" y2="84.000000"  style="stroke:black; stroke-linecap:round; stroke-width:0.25;"/>
<line x1="523.300000" y1="84.000000" x2="533.300000" y2="84.000000"  style="stroke:black; stroke-linecap:round; stroke-width:0.25;"/>
</svg>
