<?xml version="1.0"?>
<svg xmlns="http://www.w3.org/2000/svg" xmlns:xlink="http://www.w3.org/1999/xlink" viewBox="0 0 283.700000 156.000000" width="141.850000mm" height="78.000000mm" version="1.1">
<a xlink:href="phasor-0x7fe6c1b4c790.svg">
<rect x="1.000000" y="1.000000" width="282.700000" height="155.000000" rx="0" ry="0" style="stroke:none;fill:#cccccc;"/>
<rect x="0.000000" y="0.000000" width="282.700000" height="155.000000" rx="0" ry="0" style="stroke:none;fill:#ffffff;"/>
</a>
<text x="10.000000" y="7.000000" font-family="Arial" font-size="7"></text>
<a xlink:href="vol-0x7fe6bfeec990.svg">
<rect x="86.850000" y="25.000000" width="24.000000" height="24.000000" rx="0" ry="0" style="stroke:none;fill:#cccccc;"/>
<rect x="85.850000" y="24.000000" width="24.000000" height="24.000000" rx="0" ry="0" style="stroke:none;fill:#003366;"/>
</a>
<a xlink:href="vol-0x7fe6bfeec990.svg">
<text x="97.850000" y="38.000000" font-family="Arial" font-size="7" text-anchor="middle" fill="#FFFFFF">vol</text>
</a>
<circle cx="87.850000" cy="26.000000" r="1"/>
<rect x="85.950000" y="57.000000" width="25.800000" height="24.000000" rx="0" ry="0" style="stroke:none;fill:#cccccc;"/>
<rect x="84.950000" y="56.000000" width="25.800000" height="24.000000" rx="0" ry="0" style="stroke:none;fill:#f44800;"/>
<text x="97.850000" y="70.000000" font-family="Arial" font-size="7" text-anchor="middle" fill="#FFFFFF">1000</text>
<circle cx="86.950000" cy="58.000000" r="1"/>
<rect x="127.750000" y="41.000000" width="24.000000" height="24.000000" rx="0" ry="0" style="stroke:none;fill:#cccccc;"/>
<rect x="126.750000" y="40.000000" width="24.000000" height="24.000000" rx="0" ry="0" style="stroke:none;fill:#4B71A1;"/>
<text x="138.750000" y="54.000000" font-family="Arial" font-size="7" text-anchor="middle" fill="#FFFFFF">*</text>
<circle cx="128.750000" cy="42.000000" r="1"/>
<line x1="123.750000" y1="47.000000" x2="126.750000" y2="48.000000"  transform="rotate(0.000000,126.750000,48.000000)" style="stroke: black; stroke-width:0.25;"/>
<line x1="123.750000" y1="49.000000" x2="126.750000" y2="48.000000"  transform="rotate(0.000000,126.750000,48.000000)" style="stroke: black; stroke-width:0.25;"/>
<line x1="123.750000" y1="55.000000" x2="126.750000" y2="56.000000"  transform="rotate(0.000000,126.750000,56.000000)" style="stroke: black; stroke-width:0.25;"/>
<line x1="123.750000" y1="57.000000" x2="126.750000" y2="56.000000"  transform="rotate(0.000000,126.750000,56.000000)" style="stroke: black; stroke-width:0.25;"/>
<rect x="35.000000" y="99.000000" width="167.700000" height="24.000000" rx="0" ry="0" style="stroke:none;fill:#cccccc;"/>
<rect x="34.000000" y="98.000000" width="167.700000" height="24.000000" rx="0" ry="0" style="stroke:none;fill:#477881;"/>
<text x="117.850000" y="112.000000" font-family="Arial" font-size="7" text-anchor="middle" fill="#FFFFFF">nentry(gain, 1.0f, 0.0f, 1.0f, 0.01f)</text>
<circle cx="36.000000" cy="100.000000" r="1"/>
<line x1="25.000000" y1="89.000000" x2="25.000000" y2="131.000000"  style="stroke: black; stroke-linecap:round; stroke-width:0.25; stroke-dasharray:3,3;"/>
<line x1="25.000000" y1="131.000000" x2="210.700000" y2="131.000000"  style="stroke: black; stroke-linecap:round; stroke-width:0.25; stroke-dasharray:3,3;"/>
<line x1="210.700000" y1="131.000000" x2="210.700000" y2="89.000000"  style="stroke: black; stroke-linecap:round; stroke-width:0.25; stroke-dasharray:3,3;"/>
<line x1="25.000000" y1="89.000000" x2="30.000000" y2="89.000000"  style="stroke: black; stroke-linecap:round; stroke-width:0.25; stroke-dasharray:3,3;"/>
<line x1="62.250000" y1="89.000000" x2="210.700000" y2="89.000000"  style="stroke: black; stroke-linecap:round; stroke-width:0.25; stroke-dasharray:3,3;"/>
<text x="30.000000" y="91.000000" font-family="Arial" font-size="7">midigain</text>
<rect x="228.700000" y="67.000000" width="24.000000" height="24.000000" rx="0" ry="0" style="stroke:none;fill:#cccccc;"/>
<rect x="227.700000" y="66.000000" width="24.000000" height="24.000000" rx="0" ry="0" style="stroke:none;fill:#4B71A1;"/>
<text x="239.700000" y="80.000000" font-family="Arial" font-size="7" text-anchor="middle" fill="#FFFFFF">*</text>
<circle cx="229.700000" cy="68.000000" r="1"/>
<line x1="224.700000" y1="73.000000" x2="227.700000" y2="74.000000"  transform="rotate(0.000000,227.700000,74.000000)" style="stroke: black; stroke-width:0.25;"/>
<line x1="224.700000" y1="75.000000" x2="227.700000" y2="74.000000"  transform="rotate(0.000000,227.700000,74.000000)" style="stroke: black; stroke-width:0.25;"/>
<line x1="224.700000" y1="81.000000" x2="227.700000" y2="82.000000"  transform="rotate(0.000000,227.700000,82.000000)" style="stroke: black; stroke-width:0.25;"/>
<line x1="224.700000" y1="83.000000" x2="227.700000" y2="82.000000"  transform="rotate(0.000000,227.700000,82.000000)" style="stroke: black; stroke-width:0.25;"/>
<line x1="15.000000" y1="15.000000" x2="15.000000" y2="141.000000"  style="stroke: black; stroke-linecap:round; stroke-width:0.25; stroke-dasharray:3,3;"/>
<line x1="15.000000" y1="141.000000" x2="268.700000" y2="141.000000"  style="stroke: black; stroke-linecap:round; stroke-width:0.25; stroke-dasharray:3,3;"/>
<line x1="268.700000" y1="141.000000" x2="268.700000" y2="15.000000"  style="stroke: black; stroke-linecap:round; stroke-width:0.25; stroke-dasharray:3,3;"/>
<line x1="15.000000" y1="15.000000" x2="20.000000" y2="15.000000"  style="stroke: black; stroke-linecap:round; stroke-width:0.25; stroke-dasharray:3,3;"/>
<line x1="49.025000" y1="15.000000" x2="268.700000" y2="15.000000"  style="stroke: black; stroke-linecap:round; stroke-width:0.25; stroke-dasharray:3,3;"/>
<text x="20.000000" y="17.000000" font-family="Arial" font-size="7">FMdepth</text>
<line x1="270.700000" y1="77.000000" x2="273.700000" y2="78.000000"  transform="rotate(0.000000,273.700000,78.000000)" style="stroke: black; stroke-width:0.25;"/>
<line x1="270.700000" y1="79.000000" x2="273.700000" y2="78.000000"  transform="rotate(0.000000,273.700000,78.000000)" style="stroke: black; stroke-width:0.25;"/>
<line x1="109.850000" y1="36.000000" x2="113.850000" y2="36.000000"  style="stroke:black; stroke-linecap:round; stroke-width:0.25;"/>
<line x1="110.750000" y1="68.000000" x2="114.750000" y2="68.000000"  style="stroke:black; stroke-linecap:round; stroke-width:0.25;"/>
<line x1="113.850000" y1="36.000000" x2="114.750000" y2="36.000000"  style="stroke:black; stroke-linecap:round; stroke-width:0.25;"/>
<line x1="114.750000" y1="56.000000" x2="122.750000" y2="56.000000"  style="stroke:black; stroke-linecap:round; stroke-width:0.25;"/>
<line x1="114.750000" y1="68.000000" x2="114.750000" y2="56.000000"  style="stroke:black; stroke-linecap:round; stroke-width:0.25;"/>
<line x1="114.750000" y1="68.000000" x2="114.750000" y2="68.000000"  style="stroke:black; stroke-linecap:round; stroke-width:0.25;"/>
<line x1="114.750000" y1="36.000000" x2="122.750000" y2="36.000000"  style="stroke:black; stroke-linecap:round; stroke-width:0.25;"/>
<line x1="122.750000" y1="48.000000" x2="126.750000" y2="48.000000"  style="stroke:black; stroke-linecap:round; stroke-width:0.25;"/>
<line x1="122.750000" y1="56.000000" x2="126.750000" y2="56.000000"  style="stroke:black; stroke-linecap:round; stroke-width:0.25;"/>
<line x1="122.750000" y1="36.000000" x2="122.750000" y2="48.000000"  style="stroke:black; stroke-linecap:round; stroke-width:0.25;"/>
<line x1="122.750000" y1="48.000000" x2="122.750000" y2="48.000000"  style="stroke:black; stroke-linecap:round; stroke-width:0.25;"/>
<line x1="150.750000" y1="52.000000" x2="154.750000" y2="52.000000"  style="stroke:black; stroke-linecap:round; stroke-width:0.25;"/>
<line x1="154.750000" y1="52.000000" x2="215.700000" y2="52.000000"  style="stroke:black; stroke-linecap:round; stroke-width:0.25;"/>
<line x1="201.700000" y1="110.000000" x2="205.700000" y2="110.000000"  style="stroke:black; stroke-linecap:round; stroke-width:0.25;"/>
<line x1="205.700000" y1="110.000000" x2="215.700000" y2="110.000000"  style="stroke:black; stroke-linecap:round; stroke-width:0.25;"/>
<line x1="215.700000" y1="52.000000" x2="223.700000" y2="52.000000"  style="stroke:black; stroke-linecap:round; stroke-width:0.25;"/>
<line x1="215.700000" y1="82.000000" x2="223.700000" y2="82.000000"  style="stroke:black; stroke-linecap:round; stroke-width:0.25;"/>
<line x1="215.700000" y1="110.000000" x2="215.700000" y2="82.000000"  style="stroke:black; stroke-linecap:round; stroke-width:0.25;"/>
<line x1="215.700000" y1="110.000000" x2="215.700000" y2="110.000000"  style="stroke:black; stroke-linecap:round; stroke-width:0.25;"/>
<line x1="223.700000" y1="52.000000" x2="223.700000" y2="74.000000"  style="stroke:black; stroke-linecap:round; stroke-width:0.25;"/>
<line x1="223.700000" y1="74.000000" x2="223.700000" y2="74.000000"  style="stroke:black; stroke-linecap:round; stroke-width:0.25;"/>
<line x1="223.700000" y1="74.000000" x2="227.700000" y2="74.000000"  style="stroke:black; stroke-linecap:round; stroke-width:0.25;"/>
<line x1="223.700000" y1="82.000000" x2="227.700000" y2="82.000000"  style="stroke:black; stroke-linecap:round; stroke-width:0.25;"/>
<line x1="251.700000" y1="78.000000" x2="255.700000" y2="78.000000"  style="stroke:black; stroke-linecap:round; stroke-width:0.25;"/>
<line x1="255.700000" y1="78.000000" x2="255.700000" y2="78.000000"  style="stroke:black; stroke-linecap:round; stroke-width:0.25;"/>
<line x1="255.700000" y1="78.000000" x2="259.700000" y2="78.000000"  style="stroke:black; stroke-linecap:round; stroke-width:0.25;"/>
<line x1="259.700000" y1="78.000000" x2="263.700000" y2="78.000000"  style="stroke:black; stroke-linecap:round; stroke-width:0.25;"/>
<line x1="263.700000" y1="78.000000" x2="273.700000" y2="78.000000"  style="stroke:black; stroke-linecap:round; stroke-width:0.25;"/>
</svg>
