<?xml version="1.0"?>
<svg xmlns="http://www.w3.org/2000/svg" xmlns:xlink="http://www.w3.org/1999/xlink" viewBox="0 0 426.000000 248.160000" width="213.000000mm" height="124.080000mm" version="1.1">
<a xlink:href="oscr-0x7fb5019faaa0.svg">
<rect x="1.000000" y="1.000000" width="425.000000" height="247.160000" rx="0" ry="0" style="stroke:none;fill:#cccccc;"/>
<rect x="0.000000" y="0.000000" width="425.000000" height="247.160000" rx="0" ry="0" style="stroke:none;fill:#ffffff;"/>
</a>
<text x="10.000000" y="7.000000" font-family="Arial" font-size="7"></text>
<rect x="33.000000" y="113.080000" width="24.000000" height="24.000000" rx="0" ry="0" style="stroke:none;fill:#cccccc;"/>
<rect x="32.000000" y="112.080000" width="24.000000" height="24.000000" rx="0" ry="0" style="stroke:none;fill:#47945E;"/>
<text x="44.000000" y="126.080000" font-family="Arial" font-size="7" text-anchor="middle" fill="#FFFFFF">x</text>
<circle cx="34.000000" cy="114.080000" r="1"/>
<line x1="29.000000" y1="123.080000" x2="32.000000" y2="124.080000"  transform="rotate(0.000000,32.000000,124.080000)" style="stroke: black; stroke-width:0.25;"/>
<line x1="29.000000" y1="125.080000" x2="32.000000" y2="124.080000"  transform="rotate(0.000000,32.000000,124.080000)" style="stroke: black; stroke-width:0.25;"/>
<a xlink:href="s-0x7fb5019f6240.svg">
<rect x="147.000000" y="49.160000" width="24.000000" height="24.000000" rx="0" ry="0" style="stroke:none;fill:#cccccc;"/>
<rect x="146.000000" y="48.160000" width="24.000000" height="24.000000" rx="0" ry="0" style="stroke:none;fill:#003366;"/>
</a>
<a xlink:href="s-0x7fb5019f6240.svg">
<text x="158.000000" y="62.160000" font-family="Arial" font-size="7" text-anchor="middle" fill="#FFFFFF">s</text>
</a>
<circle cx="148.000000" cy="50.160000" r="1"/>
<rect x="187.000000" y="45.160000" width="24.000000" height="24.000000" rx="0" ry="0" style="stroke:none;fill:#cccccc;"/>
<rect x="186.000000" y="44.160000" width="24.000000" height="24.000000" rx="0" ry="0" style="stroke:none;fill:#4B71A1;"/>
<text x="198.000000" y="58.160000" font-family="Arial" font-size="7" text-anchor="middle" fill="#FFFFFF">*</text>
<circle cx="188.000000" cy="46.160000" r="1"/>
<line x1="183.000000" y1="51.160000" x2="186.000000" y2="52.160000"  transform="rotate(0.000000,186.000000,52.160000)" style="stroke: black; stroke-width:0.25;"/>
<line x1="183.000000" y1="53.160000" x2="186.000000" y2="52.160000"  transform="rotate(0.000000,186.000000,52.160000)" style="stroke: black; stroke-width:0.25;"/>
<line x1="183.000000" y1="59.160000" x2="186.000000" y2="60.160000"  transform="rotate(0.000000,186.000000,60.160000)" style="stroke: black; stroke-width:0.25;"/>
<line x1="183.000000" y1="61.160000" x2="186.000000" y2="60.160000"  transform="rotate(0.000000,186.000000,60.160000)" style="stroke: black; stroke-width:0.25;"/>
<a xlink:href="c-0x7fb5019f7020.svg">
<rect x="147.000000" y="89.160000" width="24.000000" height="24.000000" rx="0" ry="0" style="stroke:none;fill:#cccccc;"/>
<rect x="146.000000" y="88.160000" width="24.000000" height="24.000000" rx="0" ry="0" style="stroke:none;fill:#003366;"/>
</a>
<a xlink:href="c-0x7fb5019f7020.svg">
<text x="158.000000" y="102.160000" font-family="Arial" font-size="7" text-anchor="middle" fill="#FFFFFF">c</text>
</a>
<circle cx="148.000000" cy="90.160000" r="1"/>
<rect x="187.000000" y="85.160000" width="24.000000" height="24.000000" rx="0" ry="0" style="stroke:none;fill:#cccccc;"/>
<rect x="186.000000" y="84.160000" width="24.000000" height="24.000000" rx="0" ry="0" style="stroke:none;fill:#4B71A1;"/>
<text x="198.000000" y="98.160000" font-family="Arial" font-size="7" text-anchor="middle" fill="#FFFFFF">*</text>
<circle cx="188.000000" cy="86.160000" r="1"/>
<line x1="183.000000" y1="91.160000" x2="186.000000" y2="92.160000"  transform="rotate(0.000000,186.000000,92.160000)" style="stroke: black; stroke-width:0.25;"/>
<line x1="183.000000" y1="93.160000" x2="186.000000" y2="92.160000"  transform="rotate(0.000000,186.000000,92.160000)" style="stroke: black; stroke-width:0.25;"/>
<line x1="183.000000" y1="99.160000" x2="186.000000" y2="100.160000"  transform="rotate(0.000000,186.000000,100.160000)" style="stroke: black; stroke-width:0.25;"/>
<line x1="183.000000" y1="101.160000" x2="186.000000" y2="100.160000"  transform="rotate(0.000000,186.000000,100.160000)" style="stroke: black; stroke-width:0.25;"/>
<a xlink:href="c-0x7fb5019f7020.svg">
<rect x="147.000000" y="129.160000" width="24.000000" height="24.000000" rx="0" ry="0" style="stroke:none;fill:#cccccc;"/>
<rect x="146.000000" y="128.160000" width="24.000000" height="24.000000" rx="0" ry="0" style="stroke:none;fill:#003366;"/>
</a>
<a xlink:href="c-0x7fb5019f7020.svg">
<text x="158.000000" y="142.160000" font-family="Arial" font-size="7" text-anchor="middle" fill="#FFFFFF">c</text>
</a>
<circle cx="148.000000" cy="130.160000" r="1"/>
<rect x="187.000000" y="125.160000" width="24.000000" height="24.000000" rx="0" ry="0" style="stroke:none;fill:#cccccc;"/>
<rect x="186.000000" y="124.160000" width="24.000000" height="24.000000" rx="0" ry="0" style="stroke:none;fill:#4B71A1;"/>
<text x="198.000000" y="138.160000" font-family="Arial" font-size="7" text-anchor="middle" fill="#FFFFFF">*</text>
<circle cx="188.000000" cy="126.160000" r="1"/>
<line x1="183.000000" y1="131.160000" x2="186.000000" y2="132.160000"  transform="rotate(0.000000,186.000000,132.160000)" style="stroke: black; stroke-width:0.25;"/>
<line x1="183.000000" y1="133.160000" x2="186.000000" y2="132.160000"  transform="rotate(0.000000,186.000000,132.160000)" style="stroke: black; stroke-width:0.25;"/>
<line x1="183.000000" y1="139.160000" x2="186.000000" y2="140.160000"  transform="rotate(0.000000,186.000000,140.160000)" style="stroke: black; stroke-width:0.25;"/>
<line x1="183.000000" y1="141.160000" x2="186.000000" y2="140.160000"  transform="rotate(0.000000,186.000000,140.160000)" style="stroke: black; stroke-width:0.25;"/>
<rect x="127.000000" y="169.160000" width="24.000000" height="24.000000" rx="0" ry="0" style="stroke:none;fill:#cccccc;"/>
<rect x="126.000000" y="168.160000" width="24.000000" height="24.000000" rx="0" ry="0" style="stroke:none;fill:#f44800;"/>
<text x="138.000000" y="182.160000" font-family="Arial" font-size="7" text-anchor="middle" fill="#FFFFFF">0</text>
<circle cx="128.000000" cy="170.160000" r="1"/>
<a xlink:href="s-0x7fb5019f6240.svg">
<rect x="127.000000" y="201.160000" width="24.000000" height="24.000000" rx="0" ry="0" style="stroke:none;fill:#cccccc;"/>
<rect x="126.000000" y="200.160000" width="24.000000" height="24.000000" rx="0" ry="0" style="stroke:none;fill:#003366;"/>
</a>
<a xlink:href="s-0x7fb5019f6240.svg">
<text x="138.000000" y="214.160000" font-family="Arial" font-size="7" text-anchor="middle" fill="#FFFFFF">s</text>
</a>
<circle cx="128.000000" cy="202.160000" r="1"/>
<rect x="167.000000" y="185.160000" width="24.000000" height="24.000000" rx="0" ry="0" style="stroke:none;fill:#cccccc;"/>
<rect x="166.000000" y="184.160000" width="24.000000" height="24.000000" rx="0" ry="0" style="stroke:none;fill:#4B71A1;"/>
<text x="178.000000" y="198.160000" font-family="Arial" font-size="7" text-anchor="middle" fill="#FFFFFF">-</text>
<circle cx="168.000000" cy="186.160000" r="1"/>
<line x1="163.000000" y1="191.160000" x2="166.000000" y2="192.160000"  transform="rotate(0.000000,166.000000,192.160000)" style="stroke: black; stroke-width:0.25;"/>
<line x1="163.000000" y1="193.160000" x2="166.000000" y2="192.160000"  transform="rotate(0.000000,166.000000,192.160000)" style="stroke: black; stroke-width:0.25;"/>
<line x1="163.000000" y1="199.160000" x2="166.000000" y2="200.160000"  transform="rotate(0.000000,166.000000,200.160000)" style="stroke: black; stroke-width:0.25;"/>
<line x1="163.000000" y1="201.160000" x2="166.000000" y2="200.160000"  transform="rotate(0.000000,166.000000,200.160000)" style="stroke: black; stroke-width:0.25;"/>
<rect x="207.000000" y="181.160000" width="24.000000" height="24.000000" rx="0" ry="0" style="stroke:none;fill:#cccccc;"/>
<rect x="206.000000" y="180.160000" width="24.000000" height="24.000000" rx="0" ry="0" style="stroke:none;fill:#4B71A1;"/>
<text x="218.000000" y="194.160000" font-family="Arial" font-size="7" text-anchor="middle" fill="#FFFFFF">*</text>
<circle cx="208.000000" cy="182.160000" r="1"/>
<line x1="203.000000" y1="187.160000" x2="206.000000" y2="188.160000"  transform="rotate(0.000000,206.000000,188.160000)" style="stroke: black; stroke-width:0.25;"/>
<line x1="203.000000" y1="189.160000" x2="206.000000" y2="188.160000"  transform="rotate(0.000000,206.000000,188.160000)" style="stroke: black; stroke-width:0.25;"/>
<line x1="203.000000" y1="195.160000" x2="206.000000" y2="196.160000"  transform="rotate(0.000000,206.000000,196.160000)" style="stroke: black; stroke-width:0.25;"/>
<line x1="203.000000" y1="197.160000" x2="206.000000" y2="196.160000"  transform="rotate(0.000000,206.000000,196.160000)" style="stroke: black; stroke-width:0.25;"/>
<rect x="307.000000" y="105.160000" width="24.000000" height="24.000000" rx="0" ry="0" style="stroke:none;fill:#cccccc;"/>
<rect x="306.000000" y="104.160000" width="24.000000" height="24.000000" rx="0" ry="0" style="stroke:none;fill:#f44800;"/>
<text x="318.000000" y="118.160000" font-family="Arial" font-size="7" text-anchor="middle" fill="#FFFFFF">1</text>
<circle cx="308.000000" cy="106.160000" r="1"/>
<rect x="347.000000" y="101.160000" width="24.000000" height="24.000000" rx="0" ry="0" style="stroke:none;fill:#cccccc;"/>
<rect x="346.000000" y="100.160000" width="24.000000" height="24.000000" rx="0" ry="0" style="stroke:none;fill:#4B71A1;"/>
<text x="358.000000" y="114.160000" font-family="Arial" font-size="7" text-anchor="middle" fill="#FFFFFF">*</text>
<circle cx="348.000000" cy="102.160000" r="1"/>
<line x1="343.000000" y1="107.160000" x2="346.000000" y2="108.160000"  transform="rotate(0.000000,346.000000,108.160000)" style="stroke: black; stroke-width:0.25;"/>
<line x1="343.000000" y1="109.160000" x2="346.000000" y2="108.160000"  transform="rotate(0.000000,346.000000,108.160000)" style="stroke: black; stroke-width:0.25;"/>
<line x1="343.000000" y1="115.160000" x2="346.000000" y2="116.160000"  transform="rotate(0.000000,346.000000,116.160000)" style="stroke: black; stroke-width:0.25;"/>
<line x1="343.000000" y1="117.160000" x2="346.000000" y2="116.160000"  transform="rotate(0.000000,346.000000,116.160000)" style="stroke: black; stroke-width:0.25;"/>
<rect x="307.000000" y="145.160000" width="24.000000" height="24.000000" rx="0" ry="0" style="stroke:none;fill:#cccccc;"/>
<rect x="306.000000" y="144.160000" width="24.000000" height="24.000000" rx="0" ry="0" style="stroke:none;fill:#47945E;"/>
<text x="318.000000" y="158.160000" font-family="Arial" font-size="7" text-anchor="middle" fill="#FFFFFF">x</text>
<circle cx="308.000000" cy="146.160000" r="1"/>
<rect x="347.000000" y="141.160000" width="24.000000" height="24.000000" rx="0" ry="0" style="stroke:none;fill:#cccccc;"/>
<rect x="346.000000" y="140.160000" width="24.000000" height="24.000000" rx="0" ry="0" style="stroke:none;fill:#4B71A1;"/>
<text x="358.000000" y="154.160000" font-family="Arial" font-size="7" text-anchor="middle" fill="#FFFFFF">+</text>
<circle cx="348.000000" cy="142.160000" r="1"/>
<line x1="343.000000" y1="147.160000" x2="346.000000" y2="148.160000"  transform="rotate(0.000000,346.000000,148.160000)" style="stroke: black; stroke-width:0.25;"/>
<line x1="343.000000" y1="149.160000" x2="346.000000" y2="148.160000"  transform="rotate(0.000000,346.000000,148.160000)" style="stroke: black; stroke-width:0.25;"/>
<line x1="343.000000" y1="155.160000" x2="346.000000" y2="156.160000"  transform="rotate(0.000000,346.000000,156.160000)" style="stroke: black; stroke-width:0.25;"/>
<line x1="343.000000" y1="157.160000" x2="346.000000" y2="156.160000"  transform="rotate(0.000000,346.000000,156.160000)" style="stroke: black; stroke-width:0.25;"/>
<line x1="372.000000" y1="112.160000" x2="372.000000" y2="108.160000"  style="stroke:black; stroke-linecap:round; stroke-width:0.25;"/>
<line x1="372.000000" y1="108.160000" x2="376.000000" y2="108.160000"  style="stroke:black; stroke-linecap:round; stroke-width:0.25;"/>
<line x1="376.000000" y1="108.160000" x2="376.000000" y2="112.160000"  style="stroke:black; stroke-linecap:round; stroke-width:0.25;"/>
<line x1="380.000000" y1="152.160000" x2="380.000000" y2="148.160000"  style="stroke:black; stroke-linecap:round; stroke-width:0.25;"/>
<line x1="380.000000" y1="148.160000" x2="384.000000" y2="148.160000"  style="stroke:black; stroke-linecap:round; stroke-width:0.25;"/>
<line x1="384.000000" y1="148.160000" x2="384.000000" y2="152.160000"  style="stroke:black; stroke-linecap:round; stroke-width:0.25;"/>
<line x1="15.000000" y1="15.000000" x2="15.000000" y2="233.160000"  style="stroke: black; stroke-linecap:round; stroke-width:0.25; stroke-dasharray:3,3;"/>
<line x1="15.000000" y1="233.160000" x2="411.000000" y2="233.160000"  style="stroke: black; stroke-linecap:round; stroke-width:0.25; stroke-dasharray:3,3;"/>
<line x1="411.000000" y1="233.160000" x2="411.000000" y2="15.000000"  style="stroke: black; stroke-linecap:round; stroke-width:0.25; stroke-dasharray:3,3;"/>
<line x1="15.000000" y1="15.000000" x2="20.000000" y2="15.000000"  style="stroke: black; stroke-linecap:round; stroke-width:0.25; stroke-dasharray:3,3;"/>
<line x1="129.650000" y1="15.000000" x2="411.000000" y2="15.000000"  style="stroke: black; stroke-linecap:round; stroke-width:0.25; stroke-dasharray:3,3;"/>
<text x="20.000000" y="17.000000" font-family="Arial" font-size="7">nlf2((nentry(...) : *),1 : *)(1)</text>
<line x1="413.000000" y1="119.080000" x2="416.000000" y2="120.080000"  transform="rotate(0.000000,416.000000,120.080000)" style="stroke: black; stroke-width:0.25;"/>
<line x1="413.000000" y1="121.080000" x2="416.000000" y2="120.080000"  transform="rotate(0.000000,416.000000,120.080000)" style="stroke: black; stroke-width:0.25;"/>
<line x1="413.000000" y1="127.080000" x2="416.000000" y2="128.080000"  transform="rotate(0.000000,416.000000,128.080000)" style="stroke: black; stroke-width:0.25;"/>
<line x1="413.000000" y1="129.080000" x2="416.000000" y2="128.080000"  transform="rotate(0.000000,416.000000,128.080000)" style="stroke: black; stroke-width:0.25;"/>
<line x1="10.000000" y1="124.080000" x2="20.000000" y2="124.080000"  style="stroke:black; stroke-linecap:round; stroke-width:0.25;"/>
<line x1="20.000000" y1="124.080000" x2="24.000000" y2="124.080000"  style="stroke:black; stroke-linecap:round; stroke-width:0.25;"/>
<line x1="24.000000" y1="124.080000" x2="28.000000" y2="124.080000"  style="stroke:black; stroke-linecap:round; stroke-width:0.25;"/>
<line x1="28.000000" y1="124.080000" x2="28.000000" y2="124.080000"  style="stroke:black; stroke-linecap:round; stroke-width:0.25;"/>
<line x1="28.000000" y1="124.080000" x2="32.000000" y2="124.080000"  style="stroke:black; stroke-linecap:round; stroke-width:0.25;"/>
<line x1="68.000000" y1="24.080000" x2="68.000000" y2="140.160000"  style="stroke:black; stroke-linecap:round; stroke-width:0.25;"/>
<line x1="68.000000" y1="140.160000" x2="76.000000" y2="140.160000"  style="stroke:black; stroke-linecap:round; stroke-width:0.25;"/>
<line x1="76.000000" y1="24.080000" x2="68.000000" y2="24.080000"  style="stroke:black; stroke-linecap:round; stroke-width:0.25;"/>
<line x1="76.000000" y1="32.080000" x2="76.000000" y2="32.080000"  style="stroke:black; stroke-linecap:round; stroke-width:0.25;"/>
<line x1="76.000000" y1="32.080000" x2="76.000000" y2="124.160000"  style="stroke:black; stroke-linecap:round; stroke-width:0.25;"/>
<line x1="76.000000" y1="124.160000" x2="76.000000" y2="124.160000"  style="stroke:black; stroke-linecap:round; stroke-width:0.25;"/>
<line x1="76.000000" y1="124.160000" x2="80.000000" y2="124.160000"  style="stroke:black; stroke-linecap:round; stroke-width:0.25;"/>
<line x1="76.000000" y1="140.160000" x2="80.000000" y2="140.160000"  style="stroke:black; stroke-linecap:round; stroke-width:0.25;"/>
<line x1="80.000000" y1="124.160000" x2="84.000000" y2="124.160000"  style="stroke:black; stroke-linecap:round; stroke-width:0.25;"/>
<line x1="80.000000" y1="140.160000" x2="84.000000" y2="140.160000"  style="stroke:black; stroke-linecap:round; stroke-width:0.25;"/>
<line x1="84.000000" y1="124.160000" x2="90.000000" y2="120.160000"  style="stroke:black; stroke-linecap:round; stroke-width:0.25;"/>
<line x1="84.000000" y1="124.160000" x2="90.000000" y2="128.160000"  style="stroke:black; stroke-linecap:round; stroke-width:0.25;"/>
<line x1="84.000000" y1="140.160000" x2="90.000000" y2="136.160000"  style="stroke:black; stroke-linecap:round; stroke-width:0.25;"/>
<line x1="84.000000" y1="140.160000" x2="90.000000" y2="144.160000"  style="stroke:black; stroke-linecap:round; stroke-width:0.25;"/>
<line x1="90.000000" y1="120.160000" x2="94.000000" y2="120.160000"  style="stroke:black; stroke-linecap:round; stroke-width:0.25;"/>
<line x1="90.000000" y1="128.160000" x2="94.000000" y2="128.160000"  style="stroke:black; stroke-linecap:round; stroke-width:0.25;"/>
<line x1="90.000000" y1="136.160000" x2="94.000000" y2="136.160000"  style="stroke:black; stroke-linecap:round; stroke-width:0.25;"/>
<line x1="90.000000" y1="144.160000" x2="94.000000" y2="144.160000"  style="stroke:black; stroke-linecap:round; stroke-width:0.25;"/>
<line x1="94.000000" y1="120.160000" x2="98.000000" y2="120.160000"  style="stroke:black; stroke-linecap:round; stroke-width:0.25;"/>
<line x1="94.000000" y1="128.160000" x2="98.000000" y2="128.160000"  style="stroke:black; stroke-linecap:round; stroke-width:0.25;"/>
<line x1="94.000000" y1="136.160000" x2="98.000000" y2="136.160000"  style="stroke:black; stroke-linecap:round; stroke-width:0.25;"/>
<line x1="94.000000" y1="144.160000" x2="98.000000" y2="144.160000"  style="stroke:black; stroke-linecap:round; stroke-width:0.25;"/>
<line x1="98.000000" y1="40.160000" x2="122.000000" y2="40.160000"  style="stroke:black; stroke-linecap:round; stroke-width:0.25;"/>
<line x1="98.000000" y1="120.160000" x2="98.000000" y2="40.160000"  style="stroke:black; stroke-linecap:round; stroke-width:0.25;"/>
<line x1="98.000000" y1="120.160000" x2="98.000000" y2="120.160000"  style="stroke:black; stroke-linecap:round; stroke-width:0.25;"/>
<line x1="98.000000" y1="128.160000" x2="106.000000" y2="128.160000"  style="stroke:black; stroke-linecap:round; stroke-width:0.25;"/>
<line x1="98.000000" y1="136.160000" x2="114.000000" y2="136.160000"  style="stroke:black; stroke-linecap:round; stroke-width:0.25;"/>
<line x1="98.000000" y1="144.160000" x2="122.000000" y2="144.160000"  style="stroke:black; stroke-linecap:round; stroke-width:0.25;"/>
<line x1="106.000000" y1="80.160000" x2="122.000000" y2="80.160000"  style="stroke:black; stroke-linecap:round; stroke-width:0.25;"/>
<line x1="106.000000" y1="128.160000" x2="106.000000" y2="80.160000"  style="stroke:black; stroke-linecap:round; stroke-width:0.25;"/>
<line x1="114.000000" y1="120.160000" x2="122.000000" y2="120.160000"  style="stroke:black; stroke-linecap:round; stroke-width:0.25;"/>
<line x1="114.000000" y1="136.160000" x2="114.000000" y2="120.160000"  style="stroke:black; stroke-linecap:round; stroke-width:0.25;"/>
<line x1="122.000000" y1="40.160000" x2="142.000000" y2="40.160000"  style="stroke:black; stroke-linecap:round; stroke-width:0.25;"/>
<line x1="122.000000" y1="80.160000" x2="142.000000" y2="80.160000"  style="stroke:black; stroke-linecap:round; stroke-width:0.25;"/>
<line x1="122.000000" y1="120.160000" x2="142.000000" y2="120.160000"  style="stroke:black; stroke-linecap:round; stroke-width:0.25;"/>
<line x1="122.000000" y1="144.160000" x2="122.000000" y2="160.160000"  style="stroke:black; stroke-linecap:round; stroke-width:0.25;"/>
<line x1="122.000000" y1="160.160000" x2="122.000000" y2="160.160000"  style="stroke:black; stroke-linecap:round; stroke-width:0.25;"/>
<line x1="122.000000" y1="160.160000" x2="158.000000" y2="160.160000"  style="stroke:black; stroke-linecap:round; stroke-width:0.25;"/>
<line x1="142.000000" y1="40.160000" x2="158.000000" y2="40.160000"  style="stroke:black; stroke-linecap:round; stroke-width:0.25;"/>
<line x1="142.000000" y1="80.160000" x2="158.000000" y2="80.160000"  style="stroke:black; stroke-linecap:round; stroke-width:0.25;"/>
<line x1="142.000000" y1="120.160000" x2="158.000000" y2="120.160000"  style="stroke:black; stroke-linecap:round; stroke-width:0.25;"/>
<line x1="150.000000" y1="180.160000" x2="154.000000" y2="180.160000"  style="stroke:black; stroke-linecap:round; stroke-width:0.25;"/>
<line x1="150.000000" y1="212.160000" x2="154.000000" y2="212.160000"  style="stroke:black; stroke-linecap:round; stroke-width:0.25;"/>
<line x1="154.000000" y1="180.160000" x2="162.000000" y2="180.160000"  style="stroke:black; stroke-linecap:round; stroke-width:0.25;"/>
<line x1="154.000000" y1="200.160000" x2="162.000000" y2="200.160000"  style="stroke:black; stroke-linecap:round; stroke-width:0.25;"/>
<line x1="154.000000" y1="212.160000" x2="154.000000" y2="200.160000"  style="stroke:black; stroke-linecap:round; stroke-width:0.25;"/>
<line x1="154.000000" y1="212.160000" x2="154.000000" y2="212.160000"  style="stroke:black; stroke-linecap:round; stroke-width:0.25;"/>
<line x1="158.000000" y1="40.160000" x2="174.000000" y2="40.160000"  style="stroke:black; stroke-linecap:round; stroke-width:0.25;"/>
<line x1="158.000000" y1="80.160000" x2="174.000000" y2="80.160000"  style="stroke:black; stroke-linecap:round; stroke-width:0.25;"/>
<line x1="158.000000" y1="120.160000" x2="174.000000" y2="120.160000"  style="stroke:black; stroke-linecap:round; stroke-width:0.25;"/>
<line x1="158.000000" y1="160.160000" x2="194.000000" y2="160.160000"  style="stroke:black; stroke-linecap:round; stroke-width:0.25;"/>
<line x1="162.000000" y1="180.160000" x2="162.000000" y2="192.160000"  style="stroke:black; stroke-linecap:round; stroke-width:0.25;"/>
<line x1="162.000000" y1="192.160000" x2="162.000000" y2="192.160000"  style="stroke:black; stroke-linecap:round; stroke-width:0.25;"/>
<line x1="162.000000" y1="192.160000" x2="166.000000" y2="192.160000"  style="stroke:black; stroke-linecap:round; stroke-width:0.25;"/>
<line x1="162.000000" y1="200.160000" x2="166.000000" y2="200.160000"  style="stroke:black; stroke-linecap:round; stroke-width:0.25;"/>
<line x1="170.000000" y1="60.160000" x2="174.000000" y2="60.160000"  style="stroke:black; stroke-linecap:round; stroke-width:0.25;"/>
<line x1="170.000000" y1="100.160000" x2="174.000000" y2="100.160000"  style="stroke:black; stroke-linecap:round; stroke-width:0.25;"/>
<line x1="170.000000" y1="140.160000" x2="174.000000" y2="140.160000"  style="stroke:black; stroke-linecap:round; stroke-width:0.25;"/>
<line x1="174.000000" y1="40.160000" x2="182.000000" y2="40.160000"  style="stroke:black; stroke-linecap:round; stroke-width:0.25;"/>
<line x1="174.000000" y1="60.160000" x2="182.000000" y2="60.160000"  style="stroke:black; stroke-linecap:round; stroke-width:0.25;"/>
<line x1="174.000000" y1="80.160000" x2="182.000000" y2="80.160000"  style="stroke:black; stroke-linecap:round; stroke-width:0.25;"/>
<line x1="174.000000" y1="100.160000" x2="182.000000" y2="100.160000"  style="stroke:black; stroke-linecap:round; stroke-width:0.25;"/>
<line x1="174.000000" y1="120.160000" x2="182.000000" y2="120.160000"  style="stroke:black; stroke-linecap:round; stroke-width:0.25;"/>
<line x1="174.000000" y1="140.160000" x2="182.000000" y2="140.160000"  style="stroke:black; stroke-linecap:round; stroke-width:0.25;"/>
<line x1="182.000000" y1="40.160000" x2="182.000000" y2="52.160000"  style="stroke:black; stroke-linecap:round; stroke-width:0.25;"/>
<line x1="182.000000" y1="52.160000" x2="182.000000" y2="52.160000"  style="stroke:black; stroke-linecap:round; stroke-width:0.25;"/>
<line x1="182.000000" y1="52.160000" x2="186.000000" y2="52.160000"  style="stroke:black; stroke-linecap:round; stroke-width:0.25;"/>
<line x1="182.000000" y1="60.160000" x2="186.000000" y2="60.160000"  style="stroke:black; stroke-linecap:round; stroke-width:0.25;"/>
<line x1="182.000000" y1="80.160000" x2="182.000000" y2="92.160000"  style="stroke:black; stroke-linecap:round; stroke-width:0.25;"/>
<line x1="182.000000" y1="92.160000" x2="182.000000" y2="92.160000"  style="stroke:black; stroke-linecap:round; stroke-width:0.25;"/>
<line x1="182.000000" y1="92.160000" x2="186.000000" y2="92.160000"  style="stroke:black; stroke-linecap:round; stroke-width:0.25;"/>
<line x1="182.000000" y1="100.160000" x2="186.000000" y2="100.160000"  style="stroke:black; stroke-linecap:round; stroke-width:0.25;"/>
<line x1="182.000000" y1="120.160000" x2="182.000000" y2="132.160000"  style="stroke:black; stroke-linecap:round; stroke-width:0.25;"/>
<line x1="182.000000" y1="132.160000" x2="182.000000" y2="132.160000"  style="stroke:black; stroke-linecap:round; stroke-width:0.25;"/>
<line x1="182.000000" y1="132.160000" x2="186.000000" y2="132.160000"  style="stroke:black; stroke-linecap:round; stroke-width:0.25;"/>
<line x1="182.000000" y1="140.160000" x2="186.000000" y2="140.160000"  style="stroke:black; stroke-linecap:round; stroke-width:0.25;"/>
<line x1="190.000000" y1="196.160000" x2="194.000000" y2="196.160000"  style="stroke:black; stroke-linecap:round; stroke-width:0.25;"/>
<line x1="194.000000" y1="160.160000" x2="202.000000" y2="160.160000"  style="stroke:black; stroke-linecap:round; stroke-width:0.25;"/>
<line x1="194.000000" y1="196.160000" x2="202.000000" y2="196.160000"  style="stroke:black; stroke-linecap:round; stroke-width:0.25;"/>
<line x1="202.000000" y1="160.160000" x2="202.000000" y2="188.160000"  style="stroke:black; stroke-linecap:round; stroke-width:0.25;"/>
<line x1="202.000000" y1="188.160000" x2="202.000000" y2="188.160000"  style="stroke:black; stroke-linecap:round; stroke-width:0.25;"/>
<line x1="202.000000" y1="188.160000" x2="206.000000" y2="188.160000"  style="stroke:black; stroke-linecap:round; stroke-width:0.25;"/>
<line x1="202.000000" y1="196.160000" x2="206.000000" y2="196.160000"  style="stroke:black; stroke-linecap:round; stroke-width:0.25;"/>
<line x1="210.000000" y1="56.160000" x2="214.000000" y2="56.160000"  style="stroke:black; stroke-linecap:round; stroke-width:0.25;"/>
<line x1="210.000000" y1="96.160000" x2="214.000000" y2="96.160000"  style="stroke:black; stroke-linecap:round; stroke-width:0.25;"/>
<line x1="210.000000" y1="136.160000" x2="214.000000" y2="136.160000"  style="stroke:black; stroke-linecap:round; stroke-width:0.25;"/>
<line x1="212.980000" y1="24.080000" x2="76.000000" y2="24.080000"  style="stroke:black; stroke-linecap:round; stroke-width:0.25;"/>
<line x1="212.980000" y1="32.080000" x2="76.000000" y2="32.080000"  style="stroke:black; stroke-linecap:round; stroke-width:0.25;"/>
<line x1="214.000000" y1="56.160000" x2="234.000000" y2="56.160000"  style="stroke:black; stroke-linecap:round; stroke-width:0.25;"/>
<line x1="214.000000" y1="96.160000" x2="234.000000" y2="96.160000"  style="stroke:black; stroke-linecap:round; stroke-width:0.25;"/>
<line x1="214.000000" y1="136.160000" x2="234.000000" y2="136.160000"  style="stroke:black; stroke-linecap:round; stroke-width:0.25;"/>
<line x1="216.980000" y1="24.080000" x2="212.980000" y2="24.080000"  style="stroke:black; stroke-linecap:round; stroke-width:0.25;"/>
<line x1="216.980000" y1="32.080000" x2="212.980000" y2="32.080000"  style="stroke:black; stroke-linecap:round; stroke-width:0.25;"/>
<line x1="220.980000" y1="24.080000" x2="216.980000" y2="24.080000"  style="stroke:black; stroke-linecap:round; stroke-width:0.25;"/>
<line x1="220.980000" y1="32.080000" x2="216.980000" y2="32.080000"  style="stroke:black; stroke-linecap:round; stroke-width:0.25;"/>
<line x1="229.020000" y1="24.080000" x2="220.980000" y2="32.080000"  style="stroke:black; stroke-linecap:round; stroke-width:0.25;"/>
<line x1="229.020000" y1="32.080000" x2="220.980000" y2="24.080000"  style="stroke:black; stroke-linecap:round; stroke-width:0.25;"/>
<line x1="230.000000" y1="192.160000" x2="234.000000" y2="192.160000"  style="stroke:black; stroke-linecap:round; stroke-width:0.25;"/>
<line x1="233.020000" y1="24.080000" x2="229.020000" y2="24.080000"  style="stroke:black; stroke-linecap:round; stroke-width:0.25;"/>
<line x1="233.020000" y1="32.080000" x2="229.020000" y2="32.080000"  style="stroke:black; stroke-linecap:round; stroke-width:0.25;"/>
<line x1="234.000000" y1="56.160000" x2="302.000000" y2="96.160000"  style="stroke:black; stroke-linecap:round; stroke-width:0.25;"/>
<line x1="234.000000" y1="96.160000" x2="302.000000" y2="136.160000"  style="stroke:black; stroke-linecap:round; stroke-width:0.25;"/>
<line x1="234.000000" y1="136.160000" x2="302.000000" y2="96.160000"  style="stroke:black; stroke-linecap:round; stroke-width:0.25;"/>
<line x1="234.000000" y1="192.160000" x2="302.000000" y2="136.160000"  style="stroke:black; stroke-linecap:round; stroke-width:0.25;"/>
<line x1="237.020000" y1="24.080000" x2="233.020000" y2="24.080000"  style="stroke:black; stroke-linecap:round; stroke-width:0.25;"/>
<line x1="237.020000" y1="32.080000" x2="233.020000" y2="32.080000"  style="stroke:black; stroke-linecap:round; stroke-width:0.25;"/>
<line x1="302.000000" y1="96.160000" x2="318.000000" y2="96.160000"  style="stroke:black; stroke-linecap:round; stroke-width:0.25;"/>
<line x1="302.000000" y1="136.160000" x2="318.000000" y2="136.160000"  style="stroke:black; stroke-linecap:round; stroke-width:0.25;"/>
<line x1="318.000000" y1="96.160000" x2="334.000000" y2="96.160000"  style="stroke:black; stroke-linecap:round; stroke-width:0.25;"/>
<line x1="318.000000" y1="136.160000" x2="334.000000" y2="136.160000"  style="stroke:black; stroke-linecap:round; stroke-width:0.25;"/>
<line x1="330.000000" y1="116.160000" x2="334.000000" y2="116.160000"  style="stroke:black; stroke-linecap:round; stroke-width:0.25;"/>
<line x1="330.000000" y1="156.160000" x2="334.000000" y2="156.160000"  style="stroke:black; stroke-linecap:round; stroke-width:0.25;"/>
<line x1="334.000000" y1="96.160000" x2="342.000000" y2="96.160000"  style="stroke:black; stroke-linecap:round; stroke-width:0.25;"/>
<line x1="334.000000" y1="116.160000" x2="342.000000" y2="116.160000"  style="stroke:black; stroke-linecap:round; stroke-width:0.25;"/>
<line x1="334.000000" y1="136.160000" x2="342.000000" y2="136.160000"  style="stroke:black; stroke-linecap:round; stroke-width:0.25;"/>
<line x1="334.000000" y1="156.160000" x2="342.000000" y2="156.160000"  style="stroke:black; stroke-linecap:round; stroke-width:0.25;"/>
<line x1="342.000000" y1="96.160000" x2="342.000000" y2="108.160000"  style="stroke:black; stroke-linecap:round; stroke-width:0.25;"/>
<line x1="342.000000" y1="108.160000" x2="342.000000" y2="108.160000"  style="stroke:black; stroke-linecap:round; stroke-width:0.25;"/>
<line x1="342.000000" y1="108.160000" x2="346.000000" y2="108.160000"  style="stroke:black; stroke-linecap:round; stroke-width:0.25;"/>
<line x1="342.000000" y1="116.160000" x2="346.000000" y2="116.160000"  style="stroke:black; stroke-linecap:round; stroke-width:0.25;"/>
<line x1="342.000000" y1="136.160000" x2="342.000000" y2="148.160000"  style="stroke:black; stroke-linecap:round; stroke-width:0.25;"/>
<line x1="342.000000" y1="148.160000" x2="342.000000" y2="148.160000"  style="stroke:black; stroke-linecap:round; stroke-width:0.25;"/>
<line x1="342.000000" y1="148.160000" x2="346.000000" y2="148.160000"  style="stroke:black; stroke-linecap:round; stroke-width:0.25;"/>
<line x1="342.000000" y1="156.160000" x2="346.000000" y2="156.160000"  style="stroke:black; stroke-linecap:round; stroke-width:0.25;"/>
<line x1="370.000000" y1="112.160000" x2="374.000000" y2="112.160000"  style="stroke:black; stroke-linecap:round; stroke-width:0.25;"/>
<line x1="370.000000" y1="152.160000" x2="374.000000" y2="152.160000"  style="stroke:black; stroke-linecap:round; stroke-width:0.25;"/>
<line x1="374.000000" y1="24.080000" x2="237.020000" y2="24.080000"  style="stroke:black; stroke-linecap:round; stroke-width:0.25;"/>
<line x1="374.000000" y1="32.080000" x2="237.020000" y2="32.080000"  style="stroke:black; stroke-linecap:round; stroke-width:0.25;"/>
<line x1="374.000000" y1="32.080000" x2="374.000000" y2="32.080000"  style="stroke:black; stroke-linecap:round; stroke-width:0.25;"/>
<line x1="374.000000" y1="108.160000" x2="374.000000" y2="32.080000"  style="stroke:black; stroke-linecap:round; stroke-width:0.25;"/>
<line x1="374.000000" y1="112.160000" x2="376.000000" y2="112.160000"  style="stroke:black; stroke-linecap:round; stroke-width:0.25;"/>
<line x1="374.000000" y1="152.160000" x2="384.000000" y2="152.160000"  style="stroke:black; stroke-linecap:round; stroke-width:0.25;"/>
<line x1="376.000000" y1="112.160000" x2="390.000000" y2="112.160000"  style="stroke:black; stroke-linecap:round; stroke-width:0.25;"/>
<line x1="382.000000" y1="24.080000" x2="374.000000" y2="24.080000"  style="stroke:black; stroke-linecap:round; stroke-width:0.25;"/>
<line x1="382.000000" y1="148.160000" x2="382.000000" y2="24.080000"  style="stroke:black; stroke-linecap:round; stroke-width:0.25;"/>
<line x1="384.000000" y1="152.160000" x2="390.000000" y2="152.160000"  style="stroke:black; stroke-linecap:round; stroke-width:0.25;"/>
<line x1="390.000000" y1="112.160000" x2="398.000000" y2="112.160000"  style="stroke:black; stroke-linecap:round; stroke-width:0.25;"/>
<line x1="390.000000" y1="128.080000" x2="398.000000" y2="128.080000"  style="stroke:black; stroke-linecap:round; stroke-width:0.25;"/>
<line x1="390.000000" y1="152.160000" x2="390.000000" y2="128.080000"  style="stroke:black; stroke-linecap:round; stroke-width:0.25;"/>
<line x1="390.000000" y1="152.160000" x2="390.000000" y2="152.160000"  style="stroke:black; stroke-linecap:round; stroke-width:0.25;"/>
<line x1="398.000000" y1="112.160000" x2="398.000000" y2="120.080000"  style="stroke:black; stroke-linecap:round; stroke-width:0.25;"/>
<line x1="398.000000" y1="120.080000" x2="398.000000" y2="120.080000"  style="stroke:black; stroke-linecap:round; stroke-width:0.25;"/>
<line x1="398.000000" y1="120.080000" x2="402.000000" y2="120.080000"  style="stroke:black; stroke-linecap:round; stroke-width:0.25;"/>
<line x1="398.000000" y1="128.080000" x2="402.000000" y2="128.080000"  style="stroke:black; stroke-linecap:round; stroke-width:0.25;"/>
<line x1="402.000000" y1="120.080000" x2="406.000000" y2="120.080000"  style="stroke:black; stroke-linecap:round; stroke-width:0.25;"/>
<line x1="402.000000" y1="128.080000" x2="406.000000" y2="128.080000"  style="stroke:black; stroke-linecap:round; stroke-width:0.25;"/>
<line x1="406.000000" y1="120.080000" x2="416.000000" y2="120.080000"  style="stroke:black; stroke-linecap:round; stroke-width:0.25;"/>
<line x1="406.000000" y1="128.080000" x2="416.000000" y2="128.080000"  style="stroke:black; stroke-linecap:round; stroke-width:0.25;"/>
</svg>
