<?xml version="1.0"?>
<svg xmlns="http://www.w3.org/2000/svg" xmlns:xlink="http://www.w3.org/1999/xlink" viewBox="0 0 303.600000 180.080000" width="151.800000mm" height="90.040000mm" version="1.1">
<a xlink:href="egChain-0x7fb3feebde70.svg">
<rect x="1.000000" y="1.000000" width="302.600000" height="179.080000" rx="0" ry="0" style="stroke:none;fill:#cccccc;"/>
<rect x="0.000000" y="0.000000" width="302.600000" height="179.080000" rx="0" ry="0" style="stroke:none;fill:#ffffff;"/>
</a>
<text x="10.000000" y="7.000000" font-family="Arial" font-size="7"></text>
<rect x="140.800000" y="117.080000" width="24.000000" height="24.000000" rx="0" ry="0" style="stroke:none;fill:#cccccc;"/>
<rect x="139.800000" y="116.080000" width="24.000000" height="24.000000" rx="0" ry="0" style="stroke:none;fill:#4B71A1;"/>
<text x="151.800000" y="130.080000" font-family="Arial" font-size="7" text-anchor="middle" fill="#FFFFFF">+</text>
<circle cx="141.800000" cy="118.080000" r="1"/>
<line x1="136.800000" y1="123.080000" x2="139.800000" y2="124.080000"  transform="rotate(0.000000,139.800000,124.080000)" style="stroke: black; stroke-width:0.25;"/>
<line x1="136.800000" y1="125.080000" x2="139.800000" y2="124.080000"  transform="rotate(0.000000,139.800000,124.080000)" style="stroke: black; stroke-width:0.25;"/>
<line x1="136.800000" y1="131.080000" x2="139.800000" y2="132.080000"  transform="rotate(0.000000,139.800000,132.080000)" style="stroke: black; stroke-width:0.25;"/>
<line x1="136.800000" y1="133.080000" x2="139.800000" y2="132.080000"  transform="rotate(0.000000,139.800000,132.080000)" style="stroke: black; stroke-width:0.25;"/>
<rect x="198.600000" y="75.000000" width="24.000000" height="24.000000" rx="0" ry="0" style="stroke:none;fill:#cccccc;"/>
<rect x="197.600000" y="74.000000" width="24.000000" height="24.000000" rx="0" ry="0" style="stroke:none;fill:#f44800;"/>
<text x="209.600000" y="88.000000" font-family="Arial" font-size="7" text-anchor="middle" fill="#FFFFFF">0.8</text>
<circle cx="219.600000" cy="96.000000" r="1"/>
<line x1="188.600000" y1="65.000000" x2="188.600000" y2="107.000000"  style="stroke: black; stroke-linecap:round; stroke-width:0.25; stroke-dasharray:3,3;"/>
<line x1="188.600000" y1="107.000000" x2="230.600000" y2="107.000000"  style="stroke: black; stroke-linecap:round; stroke-width:0.25; stroke-dasharray:3,3;"/>
<line x1="230.600000" y1="107.000000" x2="230.600000" y2="65.000000"  style="stroke: black; stroke-linecap:round; stroke-width:0.25; stroke-dasharray:3,3;"/>
<line x1="188.600000" y1="65.000000" x2="193.600000" y2="65.000000"  style="stroke: black; stroke-linecap:round; stroke-width:0.25; stroke-dasharray:3,3;"/>
<line x1="230.600000" y1="65.000000" x2="230.600000" y2="65.000000"  style="stroke: black; stroke-linecap:round; stroke-width:0.25; stroke-dasharray:3,3;"/>
<text x="193.600000" y="67.000000" font-family="Arial" font-size="7">pluckPosition</text>
<rect x="198.600000" y="33.000000" width="24.000000" height="24.000000" rx="0" ry="0" style="stroke:none;fill:#cccccc;"/>
<rect x="197.600000" y="32.000000" width="24.000000" height="24.000000" rx="0" ry="0" style="stroke:none;fill:#f44800;"/>
<text x="209.600000" y="46.000000" font-family="Arial" font-size="7" text-anchor="middle" fill="#FFFFFF">0.6</text>
<circle cx="219.600000" cy="54.000000" r="1"/>
<rect x="126.800000" y="71.000000" width="24.000000" height="24.000000" rx="0" ry="0" style="stroke:none;fill:#cccccc;"/>
<rect x="125.800000" y="70.000000" width="24.000000" height="24.000000" rx="0" ry="0" style="stroke:none;fill:#f44800;"/>
<text x="137.800000" y="84.000000" font-family="Arial" font-size="7" text-anchor="middle" fill="#FFFFFF">0</text>
<circle cx="147.800000" cy="92.000000" r="1"/>
<line x1="116.800000" y1="61.000000" x2="116.800000" y2="103.000000"  style="stroke: black; stroke-linecap:round; stroke-width:0.25; stroke-dasharray:3,3;"/>
<line x1="116.800000" y1="103.000000" x2="158.800000" y2="103.000000"  style="stroke: black; stroke-linecap:round; stroke-width:0.25; stroke-dasharray:3,3;"/>
<line x1="158.800000" y1="103.000000" x2="158.800000" y2="61.000000"  style="stroke: black; stroke-linecap:round; stroke-width:0.25; stroke-dasharray:3,3;"/>
<line x1="116.800000" y1="61.000000" x2="121.800000" y2="61.000000"  style="stroke: black; stroke-linecap:round; stroke-width:0.25; stroke-dasharray:3,3;"/>
<line x1="147.600000" y1="61.000000" x2="158.800000" y2="61.000000"  style="stroke: black; stroke-linecap:round; stroke-width:0.25; stroke-dasharray:3,3;"/>
<text x="121.800000" y="63.000000" font-family="Arial" font-size="7">parity</text>
<a xlink:href="bridgeFilter-0x7fb3feebc740.svg">
<rect x="113.000000" y="29.000000" width="51.600000" height="24.000000" rx="0" ry="0" style="stroke:none;fill:#cccccc;"/>
<rect x="112.000000" y="28.000000" width="51.600000" height="24.000000" rx="0" ry="0" style="stroke:none;fill:#003366;"/>
</a>
<a xlink:href="bridgeFilter-0x7fb3feebc740.svg">
<text x="137.800000" y="42.000000" font-family="Arial" font-size="7" text-anchor="middle" fill="#FFFFFF">bridgeFilter</text>
</a>
<circle cx="161.600000" cy="50.000000" r="1"/>
<line x1="166.600000" y1="47.000000" x2="163.600000" y2="48.000000"  transform="rotate(0.000000,163.600000,48.000000)" style="stroke: black; stroke-width:0.25;"/>
<line x1="166.600000" y1="49.000000" x2="163.600000" y2="48.000000"  transform="rotate(0.000000,163.600000,48.000000)" style="stroke: black; stroke-width:0.25;"/>
<line x1="166.600000" y1="39.000000" x2="163.600000" y2="40.000000"  transform="rotate(0.000000,163.600000,40.000000)" style="stroke: black; stroke-width:0.25;"/>
<line x1="166.600000" y1="41.000000" x2="163.600000" y2="40.000000"  transform="rotate(0.000000,163.600000,40.000000)" style="stroke: black; stroke-width:0.25;"/>
<line x1="166.600000" y1="31.000000" x2="163.600000" y2="32.000000"  transform="rotate(0.000000,163.600000,32.000000)" style="stroke: black; stroke-width:0.25;"/>
<line x1="166.600000" y1="33.000000" x2="163.600000" y2="32.000000"  transform="rotate(0.000000,163.600000,32.000000)" style="stroke: black; stroke-width:0.25;"/>
<rect x="73.000000" y="55.000000" width="24.000000" height="24.000000" rx="0" ry="0" style="stroke:none;fill:#cccccc;"/>
<rect x="72.000000" y="54.000000" width="24.000000" height="24.000000" rx="0" ry="0" style="stroke:none;fill:#4B71A1;"/>
<text x="84.000000" y="68.000000" font-family="Arial" font-size="7" text-anchor="middle" fill="#FFFFFF">-</text>
<circle cx="94.000000" cy="76.000000" r="1"/>
<line x1="99.000000" y1="69.000000" x2="96.000000" y2="70.000000"  transform="rotate(0.000000,96.000000,70.000000)" style="stroke: black; stroke-width:0.25;"/>
<line x1="99.000000" y1="71.000000" x2="96.000000" y2="70.000000"  transform="rotate(0.000000,96.000000,70.000000)" style="stroke: black; stroke-width:0.25;"/>
<line x1="99.000000" y1="61.000000" x2="96.000000" y2="62.000000"  transform="rotate(0.000000,96.000000,62.000000)" style="stroke: black; stroke-width:0.25;"/>
<line x1="99.000000" y1="63.000000" x2="96.000000" y2="62.000000"  transform="rotate(0.000000,96.000000,62.000000)" style="stroke: black; stroke-width:0.25;"/>
<line x1="233.600000" y1="128.080000" x2="233.600000" y2="124.080000"  style="stroke:black; stroke-linecap:round; stroke-width:0.25;"/>
<line x1="233.600000" y1="124.080000" x2="237.600000" y2="124.080000"  style="stroke:black; stroke-linecap:round; stroke-width:0.25;"/>
<line x1="237.600000" y1="124.080000" x2="237.600000" y2="128.080000"  style="stroke:black; stroke-linecap:round; stroke-width:0.25;"/>
<line x1="241.600000" y1="136.080000" x2="241.600000" y2="132.080000"  style="stroke:black; stroke-linecap:round; stroke-width:0.25;"/>
<line x1="241.600000" y1="132.080000" x2="245.600000" y2="132.080000"  style="stroke:black; stroke-linecap:round; stroke-width:0.25;"/>
<line x1="245.600000" y1="132.080000" x2="245.600000" y2="136.080000"  style="stroke:black; stroke-linecap:round; stroke-width:0.25;"/>
<line x1="15.000000" y1="15.000000" x2="15.000000" y2="165.080000"  style="stroke: black; stroke-linecap:round; stroke-width:0.25; stroke-dasharray:3,3;"/>
<line x1="15.000000" y1="165.080000" x2="288.600000" y2="165.080000"  style="stroke: black; stroke-linecap:round; stroke-width:0.25; stroke-dasharray:3,3;"/>
<line x1="288.600000" y1="165.080000" x2="288.600000" y2="15.000000"  style="stroke: black; stroke-linecap:round; stroke-width:0.25; stroke-dasharray:3,3;"/>
<line x1="15.000000" y1="15.000000" x2="20.000000" y2="15.000000"  style="stroke: black; stroke-linecap:round; stroke-width:0.25; stroke-dasharray:3,3;"/>
<line x1="78.050000" y1="15.000000" x2="288.600000" y2="15.000000"  style="stroke: black; stroke-linecap:round; stroke-width:0.25; stroke-dasharray:3,3;"/>
<text x="20.000000" y="17.000000" font-family="Arial" font-size="7">elecGuitarBridge</text>
<line x1="290.600000" y1="81.040000" x2="293.600000" y2="82.040000"  transform="rotate(0.000000,293.600000,82.040000)" style="stroke: black; stroke-width:0.25;"/>
<line x1="290.600000" y1="83.040000" x2="293.600000" y2="82.040000"  transform="rotate(0.000000,293.600000,82.040000)" style="stroke: black; stroke-width:0.25;"/>
<line x1="290.600000" y1="89.040000" x2="293.600000" y2="90.040000"  transform="rotate(0.000000,293.600000,90.040000)" style="stroke: black; stroke-width:0.25;"/>
<line x1="290.600000" y1="91.040000" x2="293.600000" y2="90.040000"  transform="rotate(0.000000,293.600000,90.040000)" style="stroke: black; stroke-width:0.25;"/>
<line x1="290.600000" y1="97.040000" x2="293.600000" y2="98.040000"  transform="rotate(0.000000,293.600000,98.040000)" style="stroke: black; stroke-width:0.25;"/>
<line x1="290.600000" y1="99.040000" x2="293.600000" y2="98.040000"  transform="rotate(0.000000,293.600000,98.040000)" style="stroke: black; stroke-width:0.25;"/>
<line x1="10.000000" y1="82.040000" x2="20.000000" y2="82.040000"  style="stroke:black; stroke-linecap:round; stroke-width:0.25;"/>
<line x1="10.000000" y1="90.040000" x2="20.000000" y2="90.040000"  style="stroke:black; stroke-linecap:round; stroke-width:0.25;"/>
<line x1="10.000000" y1="98.040000" x2="20.000000" y2="98.040000"  style="stroke:black; stroke-linecap:round; stroke-width:0.25;"/>
<line x1="20.000000" y1="82.040000" x2="24.000000" y2="82.040000"  style="stroke:black; stroke-linecap:round; stroke-width:0.25;"/>
<line x1="20.000000" y1="90.040000" x2="24.000000" y2="90.040000"  style="stroke:black; stroke-linecap:round; stroke-width:0.25;"/>
<line x1="20.000000" y1="98.040000" x2="24.000000" y2="98.040000"  style="stroke:black; stroke-linecap:round; stroke-width:0.25;"/>
<line x1="24.000000" y1="82.040000" x2="28.000000" y2="82.040000"  style="stroke:black; stroke-linecap:round; stroke-width:0.25;"/>
<line x1="24.000000" y1="90.040000" x2="28.000000" y2="90.040000"  style="stroke:black; stroke-linecap:round; stroke-width:0.25;"/>
<line x1="24.000000" y1="98.040000" x2="28.000000" y2="98.040000"  style="stroke:black; stroke-linecap:round; stroke-width:0.25;"/>
<line x1="28.000000" y1="82.040000" x2="52.000000" y2="82.040000"  style="stroke:black; stroke-linecap:round; stroke-width:0.25;"/>
<line x1="28.000000" y1="90.040000" x2="44.000000" y2="90.040000"  style="stroke:black; stroke-linecap:round; stroke-width:0.25;"/>
<line x1="28.000000" y1="98.040000" x2="36.000000" y2="98.040000"  style="stroke:black; stroke-linecap:round; stroke-width:0.25;"/>
<line x1="36.000000" y1="98.040000" x2="36.000000" y2="148.080000"  style="stroke:black; stroke-linecap:round; stroke-width:0.25;"/>
<line x1="36.000000" y1="148.080000" x2="52.000000" y2="148.080000"  style="stroke:black; stroke-linecap:round; stroke-width:0.25;"/>
<line x1="44.000000" y1="90.040000" x2="44.000000" y2="140.080000"  style="stroke:black; stroke-linecap:round; stroke-width:0.25;"/>
<line x1="44.000000" y1="140.080000" x2="52.000000" y2="140.080000"  style="stroke:black; stroke-linecap:round; stroke-width:0.25;"/>
<line x1="52.000000" y1="82.040000" x2="52.000000" y2="132.080000"  style="stroke:black; stroke-linecap:round; stroke-width:0.25;"/>
<line x1="52.000000" y1="132.080000" x2="52.000000" y2="132.080000"  style="stroke:black; stroke-linecap:round; stroke-width:0.25;"/>
<line x1="52.000000" y1="132.080000" x2="68.000000" y2="132.080000"  style="stroke:black; stroke-linecap:round; stroke-width:0.25;"/>
<line x1="52.000000" y1="140.080000" x2="68.000000" y2="140.080000"  style="stroke:black; stroke-linecap:round; stroke-width:0.25;"/>
<line x1="52.000000" y1="148.080000" x2="68.000000" y2="148.080000"  style="stroke:black; stroke-linecap:round; stroke-width:0.25;"/>
<line x1="68.000000" y1="66.000000" x2="68.000000" y2="66.000000"  style="stroke:black; stroke-linecap:round; stroke-width:0.25;"/>
<line x1="68.000000" y1="66.000000" x2="68.000000" y2="124.080000"  style="stroke:black; stroke-linecap:round; stroke-width:0.25;"/>
<line x1="68.000000" y1="124.080000" x2="68.000000" y2="124.080000"  style="stroke:black; stroke-linecap:round; stroke-width:0.25;"/>
<line x1="68.000000" y1="124.080000" x2="119.800000" y2="124.080000"  style="stroke:black; stroke-linecap:round; stroke-width:0.25;"/>
<line x1="68.000000" y1="132.080000" x2="119.800000" y2="132.080000"  style="stroke:black; stroke-linecap:round; stroke-width:0.25;"/>
<line x1="68.000000" y1="140.080000" x2="119.800000" y2="140.080000"  style="stroke:black; stroke-linecap:round; stroke-width:0.25;"/>
<line x1="68.000000" y1="148.080000" x2="119.800000" y2="148.080000"  style="stroke:black; stroke-linecap:round; stroke-width:0.25;"/>
<line x1="72.000000" y1="66.000000" x2="68.000000" y2="66.000000"  style="stroke:black; stroke-linecap:round; stroke-width:0.25;"/>
<line x1="100.000000" y1="62.000000" x2="96.000000" y2="62.000000"  style="stroke:black; stroke-linecap:round; stroke-width:0.25;"/>
<line x1="100.000000" y1="70.000000" x2="96.000000" y2="70.000000"  style="stroke:black; stroke-linecap:round; stroke-width:0.25;"/>
<line x1="100.000000" y1="70.000000" x2="100.000000" y2="70.000000"  style="stroke:black; stroke-linecap:round; stroke-width:0.25;"/>
<line x1="100.000000" y1="82.000000" x2="100.000000" y2="70.000000"  style="stroke:black; stroke-linecap:round; stroke-width:0.25;"/>
<line x1="108.000000" y1="40.000000" x2="108.000000" y2="40.000000"  style="stroke:black; stroke-linecap:round; stroke-width:0.25;"/>
<line x1="108.000000" y1="40.000000" x2="108.000000" y2="62.000000"  style="stroke:black; stroke-linecap:round; stroke-width:0.25;"/>
<line x1="108.000000" y1="62.000000" x2="100.000000" y2="62.000000"  style="stroke:black; stroke-linecap:round; stroke-width:0.25;"/>
<line x1="108.000000" y1="82.000000" x2="100.000000" y2="82.000000"  style="stroke:black; stroke-linecap:round; stroke-width:0.25;"/>
<line x1="111.800000" y1="82.000000" x2="108.000000" y2="82.000000"  style="stroke:black; stroke-linecap:round; stroke-width:0.25;"/>
<line x1="112.000000" y1="40.000000" x2="108.000000" y2="40.000000"  style="stroke:black; stroke-linecap:round; stroke-width:0.25;"/>
<line x1="119.800000" y1="124.080000" x2="135.800000" y2="124.080000"  style="stroke:black; stroke-linecap:round; stroke-width:0.25;"/>
<line x1="119.800000" y1="132.080000" x2="135.800000" y2="132.080000"  style="stroke:black; stroke-linecap:round; stroke-width:0.25;"/>
<line x1="119.800000" y1="140.080000" x2="135.800000" y2="140.080000"  style="stroke:black; stroke-linecap:round; stroke-width:0.25;"/>
<line x1="119.800000" y1="148.080000" x2="127.800000" y2="148.080000"  style="stroke:black; stroke-linecap:round; stroke-width:0.25;"/>
<line x1="121.800000" y1="82.000000" x2="111.800000" y2="82.000000"  style="stroke:black; stroke-linecap:round; stroke-width:0.25;"/>
<line x1="125.800000" y1="82.000000" x2="121.800000" y2="82.000000"  style="stroke:black; stroke-linecap:round; stroke-width:0.25;"/>
<line x1="127.800000" y1="148.080000" x2="127.800000" y2="156.080000"  style="stroke:black; stroke-linecap:round; stroke-width:0.25;"/>
<line x1="127.800000" y1="156.080000" x2="135.800000" y2="156.080000"  style="stroke:black; stroke-linecap:round; stroke-width:0.25;"/>
<line x1="135.800000" y1="124.080000" x2="139.800000" y2="124.080000"  style="stroke:black; stroke-linecap:round; stroke-width:0.25;"/>
<line x1="135.800000" y1="132.080000" x2="139.800000" y2="132.080000"  style="stroke:black; stroke-linecap:round; stroke-width:0.25;"/>
<line x1="135.800000" y1="140.080000" x2="135.800000" y2="148.080000"  style="stroke:black; stroke-linecap:round; stroke-width:0.25;"/>
<line x1="135.800000" y1="148.080000" x2="135.800000" y2="148.080000"  style="stroke:black; stroke-linecap:round; stroke-width:0.25;"/>
<line x1="135.800000" y1="148.080000" x2="151.800000" y2="148.080000"  style="stroke:black; stroke-linecap:round; stroke-width:0.25;"/>
<line x1="135.800000" y1="156.080000" x2="151.800000" y2="156.080000"  style="stroke:black; stroke-linecap:round; stroke-width:0.25;"/>
<line x1="151.800000" y1="148.080000" x2="167.800000" y2="148.080000"  style="stroke:black; stroke-linecap:round; stroke-width:0.25;"/>
<line x1="151.800000" y1="156.080000" x2="167.800000" y2="156.080000"  style="stroke:black; stroke-linecap:round; stroke-width:0.25;"/>
<line x1="163.800000" y1="128.080000" x2="167.800000" y2="128.080000"  style="stroke:black; stroke-linecap:round; stroke-width:0.25;"/>
<line x1="167.600000" y1="32.000000" x2="163.600000" y2="32.000000"  style="stroke:black; stroke-linecap:round; stroke-width:0.25;"/>
<line x1="167.600000" y1="40.000000" x2="163.600000" y2="40.000000"  style="stroke:black; stroke-linecap:round; stroke-width:0.25;"/>
<line x1="167.600000" y1="48.000000" x2="163.600000" y2="48.000000"  style="stroke:black; stroke-linecap:round; stroke-width:0.25;"/>
<line x1="167.600000" y1="48.000000" x2="167.600000" y2="48.000000"  style="stroke:black; stroke-linecap:round; stroke-width:0.25;"/>
<line x1="167.600000" y1="86.000000" x2="167.600000" y2="48.000000"  style="stroke:black; stroke-linecap:round; stroke-width:0.25;"/>
<line x1="167.800000" y1="128.080000" x2="183.800000" y2="128.080000"  style="stroke:black; stroke-linecap:round; stroke-width:0.25;"/>
<line x1="167.800000" y1="136.080000" x2="183.800000" y2="136.080000"  style="stroke:black; stroke-linecap:round; stroke-width:0.25;"/>
<line x1="167.800000" y1="148.080000" x2="167.800000" y2="136.080000"  style="stroke:black; stroke-linecap:round; stroke-width:0.25;"/>
<line x1="167.800000" y1="148.080000" x2="167.800000" y2="148.080000"  style="stroke:black; stroke-linecap:round; stroke-width:0.25;"/>
<line x1="167.800000" y1="156.080000" x2="175.800000" y2="156.080000"  style="stroke:black; stroke-linecap:round; stroke-width:0.25;"/>
<line x1="175.600000" y1="40.000000" x2="167.600000" y2="40.000000"  style="stroke:black; stroke-linecap:round; stroke-width:0.25;"/>
<line x1="175.600000" y1="44.000000" x2="175.600000" y2="40.000000"  style="stroke:black; stroke-linecap:round; stroke-width:0.25;"/>
<line x1="175.800000" y1="144.080000" x2="183.800000" y2="144.080000"  style="stroke:black; stroke-linecap:round; stroke-width:0.25;"/>
<line x1="175.800000" y1="156.080000" x2="175.800000" y2="144.080000"  style="stroke:black; stroke-linecap:round; stroke-width:0.25;"/>
<line x1="183.600000" y1="24.000000" x2="183.600000" y2="24.000000"  style="stroke:black; stroke-linecap:round; stroke-width:0.25;"/>
<line x1="183.600000" y1="24.000000" x2="183.600000" y2="32.000000"  style="stroke:black; stroke-linecap:round; stroke-width:0.25;"/>
<line x1="183.600000" y1="32.000000" x2="167.600000" y2="32.000000"  style="stroke:black; stroke-linecap:round; stroke-width:0.25;"/>
<line x1="183.600000" y1="44.000000" x2="175.600000" y2="44.000000"  style="stroke:black; stroke-linecap:round; stroke-width:0.25;"/>
<line x1="183.600000" y1="86.000000" x2="167.600000" y2="86.000000"  style="stroke:black; stroke-linecap:round; stroke-width:0.25;"/>
<line x1="183.800000" y1="128.080000" x2="235.600000" y2="128.080000"  style="stroke:black; stroke-linecap:round; stroke-width:0.25;"/>
<line x1="183.800000" y1="136.080000" x2="235.600000" y2="136.080000"  style="stroke:black; stroke-linecap:round; stroke-width:0.25;"/>
<line x1="183.800000" y1="144.080000" x2="235.600000" y2="144.080000"  style="stroke:black; stroke-linecap:round; stroke-width:0.25;"/>
<line x1="193.600000" y1="24.000000" x2="183.600000" y2="24.000000"  style="stroke:black; stroke-linecap:round; stroke-width:0.25;"/>
<line x1="193.600000" y1="44.000000" x2="183.600000" y2="44.000000"  style="stroke:black; stroke-linecap:round; stroke-width:0.25;"/>
<line x1="193.600000" y1="86.000000" x2="183.600000" y2="86.000000"  style="stroke:black; stroke-linecap:round; stroke-width:0.25;"/>
<line x1="197.600000" y1="44.000000" x2="193.600000" y2="44.000000"  style="stroke:black; stroke-linecap:round; stroke-width:0.25;"/>
<line x1="197.600000" y1="86.000000" x2="193.600000" y2="86.000000"  style="stroke:black; stroke-linecap:round; stroke-width:0.25;"/>
<line x1="209.600000" y1="24.000000" x2="193.600000" y2="24.000000"  style="stroke:black; stroke-linecap:round; stroke-width:0.25;"/>
<line x1="225.600000" y1="24.000000" x2="209.600000" y2="24.000000"  style="stroke:black; stroke-linecap:round; stroke-width:0.25;"/>
<line x1="235.600000" y1="24.000000" x2="225.600000" y2="24.000000"  style="stroke:black; stroke-linecap:round; stroke-width:0.25;"/>
<line x1="235.600000" y1="128.080000" x2="237.600000" y2="128.080000"  style="stroke:black; stroke-linecap:round; stroke-width:0.25;"/>
<line x1="235.600000" y1="136.080000" x2="245.600000" y2="136.080000"  style="stroke:black; stroke-linecap:round; stroke-width:0.25;"/>
<line x1="235.600000" y1="144.080000" x2="251.600000" y2="144.080000"  style="stroke:black; stroke-linecap:round; stroke-width:0.25;"/>
<line x1="237.600000" y1="128.080000" x2="251.600000" y2="128.080000"  style="stroke:black; stroke-linecap:round; stroke-width:0.25;"/>
<line x1="243.600000" y1="24.000000" x2="235.600000" y2="24.000000"  style="stroke:black; stroke-linecap:round; stroke-width:0.25;"/>
<line x1="243.600000" y1="132.080000" x2="243.600000" y2="24.000000"  style="stroke:black; stroke-linecap:round; stroke-width:0.25;"/>
<line x1="245.600000" y1="136.080000" x2="251.600000" y2="136.080000"  style="stroke:black; stroke-linecap:round; stroke-width:0.25;"/>
<line x1="251.600000" y1="82.040000" x2="275.600000" y2="82.040000"  style="stroke:black; stroke-linecap:round; stroke-width:0.25;"/>
<line x1="251.600000" y1="128.080000" x2="251.600000" y2="82.040000"  style="stroke:black; stroke-linecap:round; stroke-width:0.25;"/>
<line x1="251.600000" y1="128.080000" x2="251.600000" y2="128.080000"  style="stroke:black; stroke-linecap:round; stroke-width:0.25;"/>
<line x1="251.600000" y1="136.080000" x2="259.600000" y2="136.080000"  style="stroke:black; stroke-linecap:round; stroke-width:0.25;"/>
<line x1="251.600000" y1="144.080000" x2="267.600000" y2="144.080000"  style="stroke:black; stroke-linecap:round; stroke-width:0.25;"/>
<line x1="259.600000" y1="90.040000" x2="275.600000" y2="90.040000"  style="stroke:black; stroke-linecap:round; stroke-width:0.25;"/>
<line x1="259.600000" y1="136.080000" x2="259.600000" y2="90.040000"  style="stroke:black; stroke-linecap:round; stroke-width:0.25;"/>
<line x1="267.600000" y1="98.040000" x2="275.600000" y2="98.040000"  style="stroke:black; stroke-linecap:round; stroke-width:0.25;"/>
<line x1="267.600000" y1="144.080000" x2="267.600000" y2="98.040000"  style="stroke:black; stroke-linecap:round; stroke-width:0.25;"/>
<line x1="275.600000" y1="82.040000" x2="279.600000" y2="82.040000"  style="stroke:black; stroke-linecap:round; stroke-width:0.25;"/>
<line x1="275.600000" y1="90.040000" x2="279.600000" y2="90.040000"  style="stroke:black; stroke-linecap:round; stroke-width:0.25;"/>
<line x1="275.600000" y1="98.040000" x2="279.600000" y2="98.040000"  style="stroke:black; stroke-linecap:round; stroke-width:0.25;"/>
<line x1="279.600000" y1="82.040000" x2="283.600000" y2="82.040000"  style="stroke:black; stroke-linecap:round; stroke-width:0.25;"/>
<line x1="279.600000" y1="90.040000" x2="283.600000" y2="90.040000"  style="stroke:black; stroke-linecap:round; stroke-width:0.25;"/>
<line x1="279.600000" y1="98.040000" x2="283.600000" y2="98.040000"  style="stroke:black; stroke-linecap:round; stroke-width:0.25;"/>
<line x1="283.600000" y1="82.040000" x2="293.600000" y2="82.040000"  style="stroke:black; stroke-linecap:round; stroke-width:0.25;"/>
<line x1="283.600000" y1="90.040000" x2="293.600000" y2="90.040000"  style="stroke:black; stroke-linecap:round; stroke-width:0.25;"/>
<line x1="283.600000" y1="98.040000" x2="293.600000" y2="98.040000"  style="stroke:black; stroke-linecap:round; stroke-width:0.25;"/>
</svg>
