<?xml version="1.0"?>
<svg xmlns="http://www.w3.org/2000/svg" xmlns:xlink="http://www.w3.org/1999/xlink" viewBox="0 0 462.500000 132.000000" width="231.250000mm" height="66.000000mm" version="1.1">
<a xlink:href="elecGuitar-0x7ff437b65950.svg">
<rect x="1.000000" y="1.000000" width="461.500000" height="131.000000" rx="0" ry="0" style="stroke:none;fill:#cccccc;"/>
<rect x="0.000000" y="0.000000" width="461.500000" height="131.000000" rx="0" ry="0" style="stroke:none;fill:#ffffff;"/>
</a>
<text x="10.000000" y="7.000000" font-family="Arial" font-size="7"></text>
<a xlink:href="noise-0x7ff433b54410.svg">
<rect x="25.000000" y="55.000000" width="25.800000" height="24.000000" rx="0" ry="0" style="stroke:none;fill:#cccccc;"/>
<rect x="24.000000" y="54.000000" width="25.800000" height="24.000000" rx="0" ry="0" style="stroke:none;fill:#003366;"/>
</a>
<a xlink:href="noise-0x7ff433b54410.svg">
<text x="36.900000" y="68.000000" font-family="Arial" font-size="7" text-anchor="middle" fill="#FFFFFF">noise</text>
</a>
<circle cx="26.000000" cy="56.000000" r="1"/>
<a xlink:href="lowpass-0x7ff433ddbe70.svg">
<rect x="58.800000" y="55.000000" width="129.000000" height="24.000000" rx="0" ry="0" style="stroke:none;fill:#cccccc;"/>
<rect x="57.800000" y="54.000000" width="129.000000" height="24.000000" rx="0" ry="0" style="stroke:none;fill:#003366;"/>
</a>
<a xlink:href="lowpass-0x7ff433ddbe70.svg">
<text x="122.300000" y="68.000000" font-family="Arial" font-size="7" text-anchor="middle" fill="#FFFFFF">lowpass(2)(((...5 : *),1 : *)</text>
</a>
<circle cx="59.800000" cy="56.000000" r="1"/>
<line x1="54.800000" y1="65.000000" x2="57.800000" y2="66.000000"  transform="rotate(0.000000,57.800000,66.000000)" style="stroke: black; stroke-width:0.25;"/>
<line x1="54.800000" y1="67.000000" x2="57.800000" y2="66.000000"  transform="rotate(0.000000,57.800000,66.000000)" style="stroke: black; stroke-width:0.25;"/>
<a xlink:href="ar-0x7ff433dd30a0.svg">
<rect x="213.150000" y="33.000000" width="129.000000" height="24.000000" rx="0" ry="0" style="stroke:none;fill:#cccccc;"/>
<rect x="212.150000" y="32.000000" width="129.000000" height="24.000000" rx="0" ry="0" style="stroke:none;fill:#003366;"/>
</a>
<a xlink:href="ar-0x7ff433dd30a0.svg">
<text x="276.650000" y="46.000000" font-family="Arial" font-size="7" text-anchor="middle" fill="#FFFFFF">ar(0.002f,((1... : 1,_ : min)</text>
</a>
<circle cx="214.150000" cy="34.000000" r="1"/>
<rect x="358.150000" y="29.000000" width="24.000000" height="24.000000" rx="0" ry="0" style="stroke:none;fill:#cccccc;"/>
<rect x="357.150000" y="28.000000" width="24.000000" height="24.000000" rx="0" ry="0" style="stroke:none;fill:#4B71A1;"/>
<text x="369.150000" y="42.000000" font-family="Arial" font-size="7" text-anchor="middle" fill="#FFFFFF">*</text>
<circle cx="359.150000" cy="30.000000" r="1"/>
<line x1="354.150000" y1="35.000000" x2="357.150000" y2="36.000000"  transform="rotate(0.000000,357.150000,36.000000)" style="stroke: black; stroke-width:0.25;"/>
<line x1="354.150000" y1="37.000000" x2="357.150000" y2="36.000000"  transform="rotate(0.000000,357.150000,36.000000)" style="stroke: black; stroke-width:0.25;"/>
<line x1="354.150000" y1="43.000000" x2="357.150000" y2="44.000000"  transform="rotate(0.000000,357.150000,44.000000)" style="stroke: black; stroke-width:0.25;"/>
<line x1="354.150000" y1="45.000000" x2="357.150000" y2="44.000000"  transform="rotate(0.000000,357.150000,44.000000)" style="stroke: black; stroke-width:0.25;"/>
<rect x="213.800000" y="75.000000" width="167.700000" height="24.000000" rx="0" ry="0" style="stroke:none;fill:#cccccc;"/>
<rect x="212.800000" y="74.000000" width="167.700000" height="24.000000" rx="0" ry="0" style="stroke:none;fill:#477881;"/>
<text x="296.650000" y="88.000000" font-family="Arial" font-size="7" text-anchor="middle" fill="#FFFFFF">hslider(gain, 1.0f, 0.0f, 1.0f, 0.01f)</text>
<circle cx="214.800000" cy="76.000000" r="1"/>
<line x1="203.800000" y1="65.000000" x2="203.800000" y2="107.000000"  style="stroke: black; stroke-linecap:round; stroke-width:0.25; stroke-dasharray:3,3;"/>
<line x1="203.800000" y1="107.000000" x2="389.500000" y2="107.000000"  style="stroke: black; stroke-linecap:round; stroke-width:0.25; stroke-dasharray:3,3;"/>
<line x1="389.500000" y1="107.000000" x2="389.500000" y2="65.000000"  style="stroke: black; stroke-linecap:round; stroke-width:0.25; stroke-dasharray:3,3;"/>
<line x1="203.800000" y1="65.000000" x2="208.800000" y2="65.000000"  style="stroke: black; stroke-linecap:round; stroke-width:0.25; stroke-dasharray:3,3;"/>
<line x1="228.150000" y1="65.000000" x2="389.500000" y2="65.000000"  style="stroke: black; stroke-linecap:round; stroke-width:0.25; stroke-dasharray:3,3;"/>
<text x="208.800000" y="67.000000" font-family="Arial" font-size="7">gain</text>
<rect x="407.500000" y="55.000000" width="24.000000" height="24.000000" rx="0" ry="0" style="stroke:none;fill:#cccccc;"/>
<rect x="406.500000" y="54.000000" width="24.000000" height="24.000000" rx="0" ry="0" style="stroke:none;fill:#4B71A1;"/>
<text x="418.500000" y="68.000000" font-family="Arial" font-size="7" text-anchor="middle" fill="#FFFFFF">*</text>
<circle cx="408.500000" cy="56.000000" r="1"/>
<line x1="403.500000" y1="61.000000" x2="406.500000" y2="62.000000"  transform="rotate(0.000000,406.500000,62.000000)" style="stroke: black; stroke-width:0.25;"/>
<line x1="403.500000" y1="63.000000" x2="406.500000" y2="62.000000"  transform="rotate(0.000000,406.500000,62.000000)" style="stroke: black; stroke-width:0.25;"/>
<line x1="403.500000" y1="69.000000" x2="406.500000" y2="70.000000"  transform="rotate(0.000000,406.500000,70.000000)" style="stroke: black; stroke-width:0.25;"/>
<line x1="403.500000" y1="71.000000" x2="406.500000" y2="70.000000"  transform="rotate(0.000000,406.500000,70.000000)" style="stroke: black; stroke-width:0.25;"/>
<line x1="15.000000" y1="15.000000" x2="15.000000" y2="117.000000"  style="stroke: black; stroke-linecap:round; stroke-width:0.25; stroke-dasharray:3,3;"/>
<line x1="15.000000" y1="117.000000" x2="447.500000" y2="117.000000"  style="stroke: black; stroke-linecap:round; stroke-width:0.25; stroke-dasharray:3,3;"/>
<line x1="447.500000" y1="117.000000" x2="447.500000" y2="15.000000"  style="stroke: black; stroke-linecap:round; stroke-width:0.25; stroke-dasharray:3,3;"/>
<line x1="15.000000" y1="15.000000" x2="20.000000" y2="15.000000"  style="stroke: black; stroke-linecap:round; stroke-width:0.25; stroke-dasharray:3,3;"/>
<line x1="119.975000" y1="15.000000" x2="447.500000" y2="15.000000"  style="stroke: black; stroke-linecap:round; stroke-width:0.25; stroke-dasharray:3,3;"/>
<text x="20.000000" y="17.000000" font-family="Arial" font-size="7">pluckString(h... : 1,_ : min)</text>
<line x1="449.500000" y1="65.000000" x2="452.500000" y2="66.000000"  transform="rotate(0.000000,452.500000,66.000000)" style="stroke: black; stroke-width:0.25;"/>
<line x1="449.500000" y1="67.000000" x2="452.500000" y2="66.000000"  transform="rotate(0.000000,452.500000,66.000000)" style="stroke: black; stroke-width:0.25;"/>
<line x1="49.800000" y1="66.000000" x2="53.800000" y2="66.000000"  style="stroke:black; stroke-linecap:round; stroke-width:0.25;"/>
<line x1="53.800000" y1="66.000000" x2="53.800000" y2="66.000000"  style="stroke:black; stroke-linecap:round; stroke-width:0.25;"/>
<line x1="53.800000" y1="66.000000" x2="57.800000" y2="66.000000"  style="stroke:black; stroke-linecap:round; stroke-width:0.25;"/>
<line x1="186.800000" y1="66.000000" x2="190.800000" y2="66.000000"  style="stroke:black; stroke-linecap:round; stroke-width:0.25;"/>
<line x1="190.800000" y1="24.000000" x2="198.800000" y2="24.000000"  style="stroke:black; stroke-linecap:round; stroke-width:0.25;"/>
<line x1="190.800000" y1="66.000000" x2="190.800000" y2="24.000000"  style="stroke:black; stroke-linecap:round; stroke-width:0.25;"/>
<line x1="190.800000" y1="66.000000" x2="190.800000" y2="66.000000"  style="stroke:black; stroke-linecap:round; stroke-width:0.25;"/>
<line x1="198.800000" y1="24.000000" x2="208.150000" y2="24.000000"  style="stroke:black; stroke-linecap:round; stroke-width:0.25;"/>
<line x1="208.150000" y1="24.000000" x2="276.650000" y2="24.000000"  style="stroke:black; stroke-linecap:round; stroke-width:0.25;"/>
<line x1="276.650000" y1="24.000000" x2="345.150000" y2="24.000000"  style="stroke:black; stroke-linecap:round; stroke-width:0.25;"/>
<line x1="341.150000" y1="44.000000" x2="345.150000" y2="44.000000"  style="stroke:black; stroke-linecap:round; stroke-width:0.25;"/>
<line x1="345.150000" y1="24.000000" x2="353.150000" y2="24.000000"  style="stroke:black; stroke-linecap:round; stroke-width:0.25;"/>
<line x1="345.150000" y1="44.000000" x2="353.150000" y2="44.000000"  style="stroke:black; stroke-linecap:round; stroke-width:0.25;"/>
<line x1="353.150000" y1="24.000000" x2="353.150000" y2="36.000000"  style="stroke:black; stroke-linecap:round; stroke-width:0.25;"/>
<line x1="353.150000" y1="36.000000" x2="353.150000" y2="36.000000"  style="stroke:black; stroke-linecap:round; stroke-width:0.25;"/>
<line x1="353.150000" y1="36.000000" x2="357.150000" y2="36.000000"  style="stroke:black; stroke-linecap:round; stroke-width:0.25;"/>
<line x1="353.150000" y1="44.000000" x2="357.150000" y2="44.000000"  style="stroke:black; stroke-linecap:round; stroke-width:0.25;"/>
<line x1="380.500000" y1="86.000000" x2="384.500000" y2="86.000000"  style="stroke:black; stroke-linecap:round; stroke-width:0.25;"/>
<line x1="381.150000" y1="40.000000" x2="385.150000" y2="40.000000"  style="stroke:black; stroke-linecap:round; stroke-width:0.25;"/>
<line x1="384.500000" y1="86.000000" x2="394.500000" y2="86.000000"  style="stroke:black; stroke-linecap:round; stroke-width:0.25;"/>
<line x1="385.150000" y1="40.000000" x2="394.500000" y2="40.000000"  style="stroke:black; stroke-linecap:round; stroke-width:0.25;"/>
<line x1="394.500000" y1="40.000000" x2="402.500000" y2="40.000000"  style="stroke:black; stroke-linecap:round; stroke-width:0.25;"/>
<line x1="394.500000" y1="70.000000" x2="402.500000" y2="70.000000"  style="stroke:black; stroke-linecap:round; stroke-width:0.25;"/>
<line x1="394.500000" y1="86.000000" x2="394.500000" y2="70.000000"  style="stroke:black; stroke-linecap:round; stroke-width:0.25;"/>
<line x1="394.500000" y1="86.000000" x2="394.500000" y2="86.000000"  style="stroke:black; stroke-linecap:round; stroke-width:0.25;"/>
<line x1="402.500000" y1="40.000000" x2="402.500000" y2="62.000000"  style="stroke:black; stroke-linecap:round; stroke-width:0.25;"/>
<line x1="402.500000" y1="62.000000" x2="402.500000" y2="62.000000"  style="stroke:black; stroke-linecap:round; stroke-width:0.25;"/>
<line x1="402.500000" y1="62.000000" x2="406.500000" y2="62.000000"  style="stroke:black; stroke-linecap:round; stroke-width:0.25;"/>
<line x1="402.500000" y1="70.000000" x2="406.500000" y2="70.000000"  style="stroke:black; stroke-linecap:round; stroke-width:0.25;"/>
<line x1="430.500000" y1="66.000000" x2="434.500000" y2="66.000000"  style="stroke:black; stroke-linecap:round; stroke-width:0.25;"/>
<line x1="434.500000" y1="66.000000" x2="434.500000" y2="66.000000"  style="stroke:black; stroke-linecap:round; stroke-width:0.25;"/>
<line x1="434.500000" y1="66.000000" x2="438.500000" y2="66.000000"  style="stroke:black; stroke-linecap:round; stroke-width:0.25;"/>
<line x1="438.500000" y1="66.000000" x2="442.500000" y2="66.000000"  style="stroke:black; stroke-linecap:round; stroke-width:0.25;"/>
<line x1="442.500000" y1="66.000000" x2="452.500000" y2="66.000000"  style="stroke:black; stroke-linecap:round; stroke-width:0.25;"/>
</svg>
