<?xml version="1.0"?>
<svg xmlns="http://www.w3.org/2000/svg" xmlns:xlink="http://www.w3.org/1999/xlink" viewBox="0 0 199.400000 80.000000" width="99.700000mm" height="40.000000mm" version="1.1">
<rect x="1.000000" y="1.000000" width="198.400000" height="79.000000" rx="0" ry="0" style="stroke:none;fill:#cccccc;"/>
<rect x="0.000000" y="0.000000" width="198.400000" height="79.000000" rx="0" ry="0" style="stroke:none;fill:#ffffff;"/>
<text x="10.000000" y="7.000000" font-family="Arial" font-size="7"></text>
<a xlink:href="bridge-0x85c72d180.svg">
<rect x="25.000000" y="29.000000" width="25.800000" height="24.000000" rx="0" ry="0" style="stroke:none;fill:#cccccc;"/>
<rect x="24.000000" y="28.000000" width="25.800000" height="24.000000" rx="0" ry="0" style="stroke:none;fill:#003366;"/>
</a>
<a xlink:href="bridge-0x85c72d180.svg">
<text x="36.900000" y="42.000000" font-family="Arial" font-size="7" text-anchor="middle" fill="#FFFFFF">bridge</text>
</a>
<circle cx="26.000000" cy="30.000000" r="1"/>
<a xlink:href="soundboard-0x85c08fc60.svg">
<rect x="76.800000" y="33.000000" width="51.600000" height="24.000000" rx="0" ry="0" style="stroke:none;fill:#cccccc;"/>
<rect x="75.800000" y="32.000000" width="51.600000" height="24.000000" rx="0" ry="0" style="stroke:none;fill:#003366;"/>
</a>
<a xlink:href="soundboard-0x85c08fc60.svg">
<text x="101.600000" y="46.000000" font-family="Arial" font-size="7" text-anchor="middle" fill="#FFFFFF">soundboard</text>
</a>
<circle cx="77.800000" cy="34.000000" r="1"/>
<line x1="72.800000" y1="43.000000" x2="75.800000" y2="44.000000"  transform="rotate(0.000000,75.800000,44.000000)" style="stroke: black; stroke-width:0.25;"/>
<line x1="72.800000" y1="45.000000" x2="75.800000" y2="44.000000"  transform="rotate(0.000000,75.800000,44.000000)" style="stroke: black; stroke-width:0.25;"/>
<a xlink:href="mix-0x85c095c70.svg">
<rect x="144.400000" y="29.000000" width="24.000000" height="24.000000" rx="0" ry="0" style="stroke:none;fill:#cccccc;"/>
<rect x="143.400000" y="28.000000" width="24.000000" height="24.000000" rx="0" ry="0" style="stroke:none;fill:#003366;"/>
</a>
<a xlink:href="mix-0x85c095c70.svg">
<text x="155.400000" y="42.000000" font-family="Arial" font-size="7" text-anchor="middle" fill="#FFFFFF">mix</text>
</a>
<circle cx="145.400000" cy="30.000000" r="1"/>
<line x1="140.400000" y1="31.000000" x2="143.400000" y2="32.000000"  transform="rotate(0.000000,143.400000,32.000000)" style="stroke: black; stroke-width:0.25;"/>
<line x1="140.400000" y1="33.000000" x2="143.400000" y2="32.000000"  transform="rotate(0.000000,143.400000,32.000000)" style="stroke: black; stroke-width:0.25;"/>
<line x1="140.400000" y1="39.000000" x2="143.400000" y2="40.000000"  transform="rotate(0.000000,143.400000,40.000000)" style="stroke: black; stroke-width:0.25;"/>
<line x1="140.400000" y1="41.000000" x2="143.400000" y2="40.000000"  transform="rotate(0.000000,143.400000,40.000000)" style="stroke: black; stroke-width:0.25;"/>
<line x1="140.400000" y1="47.000000" x2="143.400000" y2="48.000000"  transform="rotate(0.000000,143.400000,48.000000)" style="stroke: black; stroke-width:0.25;"/>
<line x1="140.400000" y1="49.000000" x2="143.400000" y2="48.000000"  transform="rotate(0.000000,143.400000,48.000000)" style="stroke: black; stroke-width:0.25;"/>
<line x1="15.000000" y1="15.000000" x2="15.000000" y2="65.000000"  style="stroke: black; stroke-linecap:round; stroke-width:0.25; stroke-dasharray:3,3;"/>
<line x1="15.000000" y1="65.000000" x2="184.400000" y2="65.000000"  style="stroke: black; stroke-linecap:round; stroke-width:0.25; stroke-dasharray:3,3;"/>
<line x1="184.400000" y1="65.000000" x2="184.400000" y2="15.000000"  style="stroke: black; stroke-linecap:round; stroke-width:0.25; stroke-dasharray:3,3;"/>
<line x1="15.000000" y1="15.000000" x2="20.000000" y2="15.000000"  style="stroke: black; stroke-linecap:round; stroke-width:0.25; stroke-dasharray:3,3;"/>
<line x1="49.025000" y1="15.000000" x2="184.400000" y2="15.000000"  style="stroke: black; stroke-linecap:round; stroke-width:0.25; stroke-dasharray:3,3;"/>
<text x="20.000000" y="17.000000" font-family="Arial" font-size="7">process</text>
<line x1="186.400000" y1="35.000000" x2="189.400000" y2="36.000000"  transform="rotate(0.000000,189.400000,36.000000)" style="stroke: black; stroke-width:0.25;"/>
<line x1="186.400000" y1="37.000000" x2="189.400000" y2="36.000000"  transform="rotate(0.000000,189.400000,36.000000)" style="stroke: black; stroke-width:0.25;"/>
<line x1="186.400000" y1="43.000000" x2="189.400000" y2="44.000000"  transform="rotate(0.000000,189.400000,44.000000)" style="stroke: black; stroke-width:0.25;"/>
<line x1="186.400000" y1="45.000000" x2="189.400000" y2="44.000000"  transform="rotate(0.000000,189.400000,44.000000)" style="stroke: black; stroke-width:0.25;"/>
<line x1="49.800000" y1="40.000000" x2="53.800000" y2="40.000000"  style="stroke:black; stroke-linecap:round; stroke-width:0.25;"/>
<line x1="53.800000" y1="40.000000" x2="71.800000" y2="24.000000"  style="stroke:black; stroke-linecap:round; stroke-width:0.25;"/>
<line x1="53.800000" y1="40.000000" x2="71.800000" y2="44.000000"  style="stroke:black; stroke-linecap:round; stroke-width:0.25;"/>
<line x1="71.800000" y1="24.000000" x2="101.600000" y2="24.000000"  style="stroke:black; stroke-linecap:round; stroke-width:0.25;"/>
<line x1="71.800000" y1="44.000000" x2="75.800000" y2="44.000000"  style="stroke:black; stroke-linecap:round; stroke-width:0.25;"/>
<line x1="101.600000" y1="24.000000" x2="131.400000" y2="24.000000"  style="stroke:black; stroke-linecap:round; stroke-width:0.25;"/>
<line x1="127.400000" y1="40.000000" x2="131.400000" y2="40.000000"  style="stroke:black; stroke-linecap:round; stroke-width:0.25;"/>
<line x1="127.400000" y1="48.000000" x2="131.400000" y2="48.000000"  style="stroke:black; stroke-linecap:round; stroke-width:0.25;"/>
<line x1="131.400000" y1="24.000000" x2="139.400000" y2="24.000000"  style="stroke:black; stroke-linecap:round; stroke-width:0.25;"/>
<line x1="131.400000" y1="40.000000" x2="139.400000" y2="40.000000"  style="stroke:black; stroke-linecap:round; stroke-width:0.25;"/>
<line x1="131.400000" y1="48.000000" x2="139.400000" y2="48.000000"  style="stroke:black; stroke-linecap:round; stroke-width:0.25;"/>
<line x1="139.400000" y1="24.000000" x2="139.400000" y2="32.000000"  style="stroke:black; stroke-linecap:round; stroke-width:0.25;"/>
<line x1="139.400000" y1="32.000000" x2="139.400000" y2="32.000000"  style="stroke:black; stroke-linecap:round; stroke-width:0.25;"/>
<line x1="139.400000" y1="32.000000" x2="143.400000" y2="32.000000"  style="stroke:black; stroke-linecap:round; stroke-width:0.25;"/>
<line x1="139.400000" y1="40.000000" x2="143.400000" y2="40.000000"  style="stroke:black; stroke-linecap:round; stroke-width:0.25;"/>
<line x1="139.400000" y1="48.000000" x2="143.400000" y2="48.000000"  style="stroke:black; stroke-linecap:round; stroke-width:0.25;"/>
<line x1="167.400000" y1="36.000000" x2="171.400000" y2="36.000000"  style="stroke:black; stroke-linecap:round; stroke-width:0.25;"/>
<line x1="167.400000" y1="44.000000" x2="171.400000" y2="44.000000"  style="stroke:black; stroke-linecap:round; stroke-width:0.25;"/>
<line x1="171.400000" y1="36.000000" x2="171.400000" y2="36.000000"  style="stroke:black; stroke-linecap:round; stroke-width:0.25;"/>
<line x1="171.400000" y1="36.000000" x2="175.400000" y2="36.000000"  style="stroke:black; stroke-linecap:round; stroke-width:0.25;"/>
<line x1="171.400000" y1="44.000000" x2="171.400000" y2="44.000000"  style="stroke:black; stroke-linecap:round; stroke-width:0.25;"/>
<line x1="171.400000" y1="44.000000" x2="175.400000" y2="44.000000"  style="stroke:black; stroke-linecap:round; stroke-width:0.25;"/>
<line x1="175.400000" y1="36.000000" x2="179.400000" y2="36.000000"  style="stroke:black; stroke-linecap:round; stroke-width:0.25;"/>
<line x1="175.400000" y1="44.000000" x2="179.400000" y2="44.000000"  style="stroke:black; stroke-linecap:round; stroke-width:0.25;"/>
<line x1="179.400000" y1="36.000000" x2="189.400000" y2="36.000000"  style="stroke:black; stroke-linecap:round; stroke-width:0.25;"/>
<line x1="179.400000" y1="44.000000" x2="189.400000" y2="44.000000"  style="stroke:black; stroke-linecap:round; stroke-width:0.25;"/>
</svg>
