<?xml version="1.0"?>
<svg xmlns="http://www.w3.org/2000/svg" xmlns:xlink="http://www.w3.org/1999/xlink" viewBox="0 0 399.400000 72.000000" width="199.700000mm" height="36.000000mm" version="1.1">
<a xlink:href="btbd-0x7fa40be008e0.svg">
<rect x="1.000000" y="1.000000" width="398.400000" height="71.000000" rx="0" ry="0" style="stroke:none;fill:#cccccc;"/>
<rect x="0.000000" y="0.000000" width="398.400000" height="71.000000" rx="0" ry="0" style="stroke:none;fill:#ffffff;"/>
</a>
<text x="10.000000" y="7.000000" font-family="Arial" font-size="7"></text>
<rect x="25.000000" y="25.000000" width="309.600000" height="24.000000" rx="0" ry="0" style="stroke:none;fill:#cccccc;"/>
<rect x="24.000000" y="24.000000" width="309.600000" height="24.000000" rx="0" ry="0" style="stroke:none;fill:#477881;"/>
<text x="178.800000" y="38.000000" font-family="Arial" font-size="7" text-anchor="middle" fill="#FFFFFF">hslider(v:guitar/pluckPosition, 0.80000000000000004f, 0.0f, 1.0f, 0.01f)</text>
<circle cx="26.000000" cy="26.000000" r="1"/>
<a xlink:href="smoo-0x7fa4098d53d0.svg">
<rect x="342.600000" y="25.000000" width="25.800000" height="24.000000" rx="0" ry="0" style="stroke:none;fill:#cccccc;"/>
<rect x="341.600000" y="24.000000" width="25.800000" height="24.000000" rx="0" ry="0" style="stroke:none;fill:#003366;"/>
</a>
<a xlink:href="smoo-0x7fa4098d53d0.svg">
<text x="354.500000" y="38.000000" font-family="Arial" font-size="7" text-anchor="middle" fill="#FFFFFF">smoo</text>
</a>
<circle cx="343.600000" cy="26.000000" r="1"/>
<line x1="338.600000" y1="35.000000" x2="341.600000" y2="36.000000"  transform="rotate(0.000000,341.600000,36.000000)" style="stroke: black; stroke-width:0.25;"/>
<line x1="338.600000" y1="37.000000" x2="341.600000" y2="36.000000"  transform="rotate(0.000000,341.600000,36.000000)" style="stroke: black; stroke-width:0.25;"/>
<line x1="15.000000" y1="15.000000" x2="15.000000" y2="57.000000"  style="stroke: black; stroke-linecap:round; stroke-width:0.25; stroke-dasharray:3,3;"/>
<line x1="15.000000" y1="57.000000" x2="384.400000" y2="57.000000"  style="stroke: black; stroke-linecap:round; stroke-width:0.25; stroke-dasharray:3,3;"/>
<line x1="384.400000" y1="57.000000" x2="384.400000" y2="15.000000"  style="stroke: black; stroke-linecap:round; stroke-width:0.25; stroke-dasharray:3,3;"/>
<line x1="15.000000" y1="15.000000" x2="20.000000" y2="15.000000"  style="stroke: black; stroke-linecap:round; stroke-width:0.25; stroke-dasharray:3,3;"/>
<line x1="68.375000" y1="15.000000" x2="384.400000" y2="15.000000"  style="stroke: black; stroke-linecap:round; stroke-width:0.25; stroke-dasharray:3,3;"/>
<text x="20.000000" y="17.000000" font-family="Arial" font-size="7">pluckPosition</text>
<line x1="386.400000" y1="35.000000" x2="389.400000" y2="36.000000"  transform="rotate(0.000000,389.400000,36.000000)" style="stroke: black; stroke-width:0.25;"/>
<line x1="386.400000" y1="37.000000" x2="389.400000" y2="36.000000"  transform="rotate(0.000000,389.400000,36.000000)" style="stroke: black; stroke-width:0.25;"/>
<line x1="333.600000" y1="36.000000" x2="337.600000" y2="36.000000"  style="stroke:black; stroke-linecap:round; stroke-width:0.25;"/>
<line x1="337.600000" y1="36.000000" x2="337.600000" y2="36.000000"  style="stroke:black; stroke-linecap:round; stroke-width:0.25;"/>
<line x1="337.600000" y1="36.000000" x2="341.600000" y2="36.000000"  style="stroke:black; stroke-linecap:round; stroke-width:0.25;"/>
<line x1="367.400000" y1="36.000000" x2="371.400000" y2="36.000000"  style="stroke:black; stroke-linecap:round; stroke-width:0.25;"/>
<line x1="371.400000" y1="36.000000" x2="371.400000" y2="36.000000"  style="stroke:black; stroke-linecap:round; stroke-width:0.25;"/>
<line x1="371.400000" y1="36.000000" x2="375.400000" y2="36.000000"  style="stroke:black; stroke-linecap:round; stroke-width:0.25;"/>
<line x1="375.400000" y1="36.000000" x2="379.400000" y2="36.000000"  style="stroke:black; stroke-linecap:round; stroke-width:0.25;"/>
<line x1="379.400000" y1="36.000000" x2="389.400000" y2="36.000000"  style="stroke:black; stroke-linecap:round; stroke-width:0.25;"/>
</svg>
