<?xml version="1.0"?>
<svg xmlns="http://www.w3.org/2000/svg" xmlns:xlink="http://www.w3.org/1999/xlink" viewBox="0 0 279.700000 144.000000" width="139.850000mm" height="72.000000mm" version="1.1">
<rect x="1.000000" y="1.000000" width="278.700000" height="143.000000" rx="0" ry="0" style="stroke:none;fill:#cccccc;"/>
<rect x="0.000000" y="0.000000" width="278.700000" height="143.000000" rx="0" ry="0" style="stroke:none;fill:#ffffff;"/>
<text x="10.000000" y="7.000000" font-family="Arial" font-size="7"></text>
<rect x="71.950000" y="33.000000" width="25.800000" height="24.000000" rx="0" ry="0" style="stroke:none;fill:#cccccc;"/>
<rect x="70.950000" y="32.000000" width="25.800000" height="24.000000" rx="0" ry="0" style="stroke:none;fill:#f44800;"/>
<text x="83.850000" y="46.000000" font-family="Arial" font-size="7" text-anchor="middle" fill="#FFFFFF">0.5f</text>
<circle cx="72.950000" cy="34.000000" r="1"/>
<rect x="113.750000" y="29.000000" width="24.000000" height="24.000000" rx="0" ry="0" style="stroke:none;fill:#cccccc;"/>
<rect x="112.750000" y="28.000000" width="24.000000" height="24.000000" rx="0" ry="0" style="stroke:none;fill:#4B71A1;"/>
<text x="124.750000" y="42.000000" font-family="Arial" font-size="7" text-anchor="middle" fill="#FFFFFF">+</text>
<circle cx="114.750000" cy="30.000000" r="1"/>
<line x1="109.750000" y1="35.000000" x2="112.750000" y2="36.000000"  transform="rotate(0.000000,112.750000,36.000000)" style="stroke: black; stroke-width:0.25;"/>
<line x1="109.750000" y1="37.000000" x2="112.750000" y2="36.000000"  transform="rotate(0.000000,112.750000,36.000000)" style="stroke: black; stroke-width:0.25;"/>
<line x1="109.750000" y1="43.000000" x2="112.750000" y2="44.000000"  transform="rotate(0.000000,112.750000,44.000000)" style="stroke: black; stroke-width:0.25;"/>
<line x1="109.750000" y1="45.000000" x2="112.750000" y2="44.000000"  transform="rotate(0.000000,112.750000,44.000000)" style="stroke: black; stroke-width:0.25;"/>
<rect x="92.850000" y="65.000000" width="24.000000" height="24.000000" rx="0" ry="0" style="stroke:none;fill:#cccccc;"/>
<rect x="91.850000" y="64.000000" width="24.000000" height="24.000000" rx="0" ry="0" style="stroke:none;fill:#f44800;"/>
<text x="103.850000" y="78.000000" font-family="Arial" font-size="7" text-anchor="middle" fill="#FFFFFF">500</text>
<circle cx="93.850000" cy="66.000000" r="1"/>
<rect x="153.750000" y="45.000000" width="24.000000" height="24.000000" rx="0" ry="0" style="stroke:none;fill:#cccccc;"/>
<rect x="152.750000" y="44.000000" width="24.000000" height="24.000000" rx="0" ry="0" style="stroke:none;fill:#4B71A1;"/>
<text x="164.750000" y="58.000000" font-family="Arial" font-size="7" text-anchor="middle" fill="#FFFFFF">@</text>
<circle cx="154.750000" cy="46.000000" r="1"/>
<line x1="149.750000" y1="51.000000" x2="152.750000" y2="52.000000"  transform="rotate(0.000000,152.750000,52.000000)" style="stroke: black; stroke-width:0.25;"/>
<line x1="149.750000" y1="53.000000" x2="152.750000" y2="52.000000"  transform="rotate(0.000000,152.750000,52.000000)" style="stroke: black; stroke-width:0.25;"/>
<line x1="149.750000" y1="59.000000" x2="152.750000" y2="60.000000"  transform="rotate(0.000000,152.750000,60.000000)" style="stroke: black; stroke-width:0.25;"/>
<line x1="149.750000" y1="61.000000" x2="152.750000" y2="60.000000"  transform="rotate(0.000000,152.750000,60.000000)" style="stroke: black; stroke-width:0.25;"/>
<rect x="41.000000" y="97.000000" width="167.700000" height="24.000000" rx="0" ry="0" style="stroke:none;fill:#cccccc;"/>
<rect x="40.000000" y="96.000000" width="167.700000" height="24.000000" rx="0" ry="0" style="stroke:none;fill:#477881;"/>
<text x="123.850000" y="110.000000" font-family="Arial" font-size="7" text-anchor="middle" fill="#FFFFFF">vslider(Vol, 0.5f, 0.0f, 1.0f, 0.01f)</text>
<circle cx="42.000000" cy="98.000000" r="1"/>
<rect x="224.700000" y="61.000000" width="24.000000" height="24.000000" rx="0" ry="0" style="stroke:none;fill:#cccccc;"/>
<rect x="223.700000" y="60.000000" width="24.000000" height="24.000000" rx="0" ry="0" style="stroke:none;fill:#4B71A1;"/>
<text x="235.700000" y="74.000000" font-family="Arial" font-size="7" text-anchor="middle" fill="#FFFFFF">*</text>
<circle cx="225.700000" cy="62.000000" r="1"/>
<line x1="220.700000" y1="67.000000" x2="223.700000" y2="68.000000"  transform="rotate(0.000000,223.700000,68.000000)" style="stroke: black; stroke-width:0.25;"/>
<line x1="220.700000" y1="69.000000" x2="223.700000" y2="68.000000"  transform="rotate(0.000000,223.700000,68.000000)" style="stroke: black; stroke-width:0.25;"/>
<line x1="220.700000" y1="75.000000" x2="223.700000" y2="76.000000"  transform="rotate(0.000000,223.700000,76.000000)" style="stroke: black; stroke-width:0.25;"/>
<line x1="220.700000" y1="77.000000" x2="223.700000" y2="76.000000"  transform="rotate(0.000000,223.700000,76.000000)" style="stroke: black; stroke-width:0.25;"/>
<line x1="15.000000" y1="15.000000" x2="15.000000" y2="129.000000"  style="stroke: black; stroke-linecap:round; stroke-width:0.25; stroke-dasharray:3,3;"/>
<line x1="15.000000" y1="129.000000" x2="264.700000" y2="129.000000"  style="stroke: black; stroke-linecap:round; stroke-width:0.25; stroke-dasharray:3,3;"/>
<line x1="264.700000" y1="129.000000" x2="264.700000" y2="15.000000"  style="stroke: black; stroke-linecap:round; stroke-width:0.25; stroke-dasharray:3,3;"/>
<line x1="15.000000" y1="15.000000" x2="20.000000" y2="15.000000"  style="stroke: black; stroke-linecap:round; stroke-width:0.25; stroke-dasharray:3,3;"/>
<line x1="49.025000" y1="15.000000" x2="264.700000" y2="15.000000"  style="stroke: black; stroke-linecap:round; stroke-width:0.25; stroke-dasharray:3,3;"/>
<text x="20.000000" y="17.000000" font-family="Arial" font-size="7">process</text>
<line x1="266.700000" y1="71.000000" x2="269.700000" y2="72.000000"  transform="rotate(0.000000,269.700000,72.000000)" style="stroke: black; stroke-width:0.25;"/>
<line x1="266.700000" y1="73.000000" x2="269.700000" y2="72.000000"  transform="rotate(0.000000,269.700000,72.000000)" style="stroke: black; stroke-width:0.25;"/>
<line x1="10.000000" y1="72.000000" x2="20.000000" y2="72.000000"  style="stroke:black; stroke-linecap:round; stroke-width:0.25;"/>
<line x1="20.000000" y1="72.000000" x2="24.000000" y2="72.000000"  style="stroke:black; stroke-linecap:round; stroke-width:0.25;"/>
<line x1="24.000000" y1="72.000000" x2="28.000000" y2="72.000000"  style="stroke:black; stroke-linecap:round; stroke-width:0.25;"/>
<line x1="28.000000" y1="24.000000" x2="36.000000" y2="24.000000"  style="stroke:black; stroke-linecap:round; stroke-width:0.25;"/>
<line x1="28.000000" y1="72.000000" x2="28.000000" y2="24.000000"  style="stroke:black; stroke-linecap:round; stroke-width:0.25;"/>
<line x1="28.000000" y1="72.000000" x2="28.000000" y2="72.000000"  style="stroke:black; stroke-linecap:round; stroke-width:0.25;"/>
<line x1="36.000000" y1="24.000000" x2="66.950000" y2="24.000000"  style="stroke:black; stroke-linecap:round; stroke-width:0.25;"/>
<line x1="66.950000" y1="24.000000" x2="83.850000" y2="24.000000"  style="stroke:black; stroke-linecap:round; stroke-width:0.25;"/>
<line x1="83.850000" y1="24.000000" x2="100.750000" y2="24.000000"  style="stroke:black; stroke-linecap:round; stroke-width:0.25;"/>
<line x1="96.750000" y1="44.000000" x2="100.750000" y2="44.000000"  style="stroke:black; stroke-linecap:round; stroke-width:0.25;"/>
<line x1="100.750000" y1="44.000000" x2="108.750000" y2="44.000000"  style="stroke:black; stroke-linecap:round; stroke-width:0.25;"/>
<line x1="100.750000" y1="24.000000" x2="108.750000" y2="24.000000"  style="stroke:black; stroke-linecap:round; stroke-width:0.25;"/>
<line x1="108.750000" y1="36.000000" x2="112.750000" y2="36.000000"  style="stroke:black; stroke-linecap:round; stroke-width:0.25;"/>
<line x1="108.750000" y1="44.000000" x2="112.750000" y2="44.000000"  style="stroke:black; stroke-linecap:round; stroke-width:0.25;"/>
<line x1="108.750000" y1="24.000000" x2="108.750000" y2="36.000000"  style="stroke:black; stroke-linecap:round; stroke-width:0.25;"/>
<line x1="108.750000" y1="36.000000" x2="108.750000" y2="36.000000"  style="stroke:black; stroke-linecap:round; stroke-width:0.25;"/>
<line x1="115.850000" y1="76.000000" x2="119.850000" y2="76.000000"  style="stroke:black; stroke-linecap:round; stroke-width:0.25;"/>
<line x1="119.850000" y1="76.000000" x2="140.750000" y2="76.000000"  style="stroke:black; stroke-linecap:round; stroke-width:0.25;"/>
<line x1="136.750000" y1="40.000000" x2="140.750000" y2="40.000000"  style="stroke:black; stroke-linecap:round; stroke-width:0.25;"/>
<line x1="140.750000" y1="40.000000" x2="148.750000" y2="40.000000"  style="stroke:black; stroke-linecap:round; stroke-width:0.25;"/>
<line x1="140.750000" y1="60.000000" x2="148.750000" y2="60.000000"  style="stroke:black; stroke-linecap:round; stroke-width:0.25;"/>
<line x1="140.750000" y1="76.000000" x2="140.750000" y2="60.000000"  style="stroke:black; stroke-linecap:round; stroke-width:0.25;"/>
<line x1="140.750000" y1="76.000000" x2="140.750000" y2="76.000000"  style="stroke:black; stroke-linecap:round; stroke-width:0.25;"/>
<line x1="148.750000" y1="40.000000" x2="148.750000" y2="52.000000"  style="stroke:black; stroke-linecap:round; stroke-width:0.25;"/>
<line x1="148.750000" y1="52.000000" x2="148.750000" y2="52.000000"  style="stroke:black; stroke-linecap:round; stroke-width:0.25;"/>
<line x1="148.750000" y1="52.000000" x2="152.750000" y2="52.000000"  style="stroke:black; stroke-linecap:round; stroke-width:0.25;"/>
<line x1="148.750000" y1="60.000000" x2="152.750000" y2="60.000000"  style="stroke:black; stroke-linecap:round; stroke-width:0.25;"/>
<line x1="176.750000" y1="56.000000" x2="180.750000" y2="56.000000"  style="stroke:black; stroke-linecap:round; stroke-width:0.25;"/>
<line x1="180.750000" y1="56.000000" x2="211.700000" y2="56.000000"  style="stroke:black; stroke-linecap:round; stroke-width:0.25;"/>
<line x1="207.700000" y1="108.000000" x2="211.700000" y2="108.000000"  style="stroke:black; stroke-linecap:round; stroke-width:0.25;"/>
<line x1="211.700000" y1="56.000000" x2="219.700000" y2="56.000000"  style="stroke:black; stroke-linecap:round; stroke-width:0.25;"/>
<line x1="211.700000" y1="76.000000" x2="219.700000" y2="76.000000"  style="stroke:black; stroke-linecap:round; stroke-width:0.25;"/>
<line x1="211.700000" y1="108.000000" x2="211.700000" y2="76.000000"  style="stroke:black; stroke-linecap:round; stroke-width:0.25;"/>
<line x1="211.700000" y1="108.000000" x2="211.700000" y2="108.000000"  style="stroke:black; stroke-linecap:round; stroke-width:0.25;"/>
<line x1="219.700000" y1="56.000000" x2="219.700000" y2="68.000000"  style="stroke:black; stroke-linecap:round; stroke-width:0.25;"/>
<line x1="219.700000" y1="68.000000" x2="219.700000" y2="68.000000"  style="stroke:black; stroke-linecap:round; stroke-width:0.25;"/>
<line x1="219.700000" y1="68.000000" x2="223.700000" y2="68.000000"  style="stroke:black; stroke-linecap:round; stroke-width:0.25;"/>
<line x1="219.700000" y1="76.000000" x2="223.700000" y2="76.000000"  style="stroke:black; stroke-linecap:round; stroke-width:0.25;"/>
<line x1="247.700000" y1="72.000000" x2="251.700000" y2="72.000000"  style="stroke:black; stroke-linecap:round; stroke-width:0.25;"/>
<line x1="251.700000" y1="72.000000" x2="251.700000" y2="72.000000"  style="stroke:black; stroke-linecap:round; stroke-width:0.25;"/>
<line x1="251.700000" y1="72.000000" x2="255.700000" y2="72.000000"  style="stroke:black; stroke-linecap:round; stroke-width:0.25;"/>
<line x1="255.700000" y1="72.000000" x2="259.700000" y2="72.000000"  style="stroke:black; stroke-linecap:round; stroke-width:0.25;"/>
<line x1="259.700000" y1="72.000000" x2="269.700000" y2="72.000000"  style="stroke:black; stroke-linecap:round; stroke-width:0.25;"/>
</svg>
