<?xml version="1.0"?>
<svg xmlns="http://www.w3.org/2000/svg" xmlns:xlink="http://www.w3.org/1999/xlink" viewBox="0 0 421.100000 188.000000" width="210.550000mm" height="94.000000mm" version="1.1">
<a xlink:href="delay-0x7fee384c2190.svg">
<rect x="1.000000" y="1.000000" width="420.100000" height="187.000000" rx="0" ry="0" style="stroke:none;fill:#cccccc;"/>
<rect x="0.000000" y="0.000000" width="420.100000" height="187.000000" rx="0" ry="0" style="stroke:none;fill:#ffffff;"/>
</a>
<text x="10.000000" y="7.000000" font-family="Arial" font-size="7"></text>
<rect x="25.000000" y="25.000000" width="245.100000" height="24.000000" rx="0" ry="0" style="stroke:none;fill:#cccccc;"/>
<rect x="24.000000" y="24.000000" width="245.100000" height="24.000000" rx="0" ry="0" style="stroke:none;fill:#477881;"/>
<text x="146.550000" y="38.000000" font-family="Arial" font-size="7" text-anchor="middle" fill="#FFFFFF">vslider(Stereo, 0.59999999999999998f, 0.0f, 1.0f, 0.01f)</text>
<circle cx="26.000000" cy="26.000000" r="1"/>
<rect x="135.550000" y="57.000000" width="24.000000" height="24.000000" rx="0" ry="0" style="stroke:none;fill:#cccccc;"/>
<rect x="134.550000" y="56.000000" width="24.000000" height="24.000000" rx="0" ry="0" style="stroke:none;fill:#f44800;"/>
<text x="146.550000" y="70.000000" font-family="Arial" font-size="7" text-anchor="middle" fill="#FFFFFF">46</text>
<circle cx="136.550000" cy="58.000000" r="1"/>
<rect x="286.100000" y="41.000000" width="24.000000" height="24.000000" rx="0" ry="0" style="stroke:none;fill:#cccccc;"/>
<rect x="285.100000" y="40.000000" width="24.000000" height="24.000000" rx="0" ry="0" style="stroke:none;fill:#4B71A1;"/>
<text x="297.100000" y="54.000000" font-family="Arial" font-size="7" text-anchor="middle" fill="#FFFFFF">*</text>
<circle cx="287.100000" cy="42.000000" r="1"/>
<line x1="282.100000" y1="47.000000" x2="285.100000" y2="48.000000"  transform="rotate(0.000000,285.100000,48.000000)" style="stroke: black; stroke-width:0.25;"/>
<line x1="282.100000" y1="49.000000" x2="285.100000" y2="48.000000"  transform="rotate(0.000000,285.100000,48.000000)" style="stroke: black; stroke-width:0.25;"/>
<line x1="282.100000" y1="55.000000" x2="285.100000" y2="56.000000"  transform="rotate(0.000000,285.100000,56.000000)" style="stroke: black; stroke-width:0.25;"/>
<line x1="282.100000" y1="57.000000" x2="285.100000" y2="56.000000"  transform="rotate(0.000000,285.100000,56.000000)" style="stroke: black; stroke-width:0.25;"/>
<a xlink:href="SR-0x7fee3847a7c0.svg">
<rect x="155.550000" y="89.000000" width="24.000000" height="24.000000" rx="0" ry="0" style="stroke:none;fill:#cccccc;"/>
<rect x="154.550000" y="88.000000" width="24.000000" height="24.000000" rx="0" ry="0" style="stroke:none;fill:#003366;"/>
</a>
<a xlink:href="SR-0x7fee3847a7c0.svg">
<text x="166.550000" y="102.000000" font-family="Arial" font-size="7" text-anchor="middle" fill="#FFFFFF">SR</text>
</a>
<circle cx="156.550000" cy="90.000000" r="1"/>
<rect x="326.100000" y="57.000000" width="24.000000" height="24.000000" rx="0" ry="0" style="stroke:none;fill:#cccccc;"/>
<rect x="325.100000" y="56.000000" width="24.000000" height="24.000000" rx="0" ry="0" style="stroke:none;fill:#4B71A1;"/>
<text x="337.100000" y="70.000000" font-family="Arial" font-size="7" text-anchor="middle" fill="#FFFFFF">*</text>
<circle cx="327.100000" cy="58.000000" r="1"/>
<line x1="322.100000" y1="63.000000" x2="325.100000" y2="64.000000"  transform="rotate(0.000000,325.100000,64.000000)" style="stroke: black; stroke-width:0.25;"/>
<line x1="322.100000" y1="65.000000" x2="325.100000" y2="64.000000"  transform="rotate(0.000000,325.100000,64.000000)" style="stroke: black; stroke-width:0.25;"/>
<line x1="322.100000" y1="71.000000" x2="325.100000" y2="72.000000"  transform="rotate(0.000000,325.100000,72.000000)" style="stroke: black; stroke-width:0.25;"/>
<line x1="322.100000" y1="73.000000" x2="325.100000" y2="72.000000"  transform="rotate(0.000000,325.100000,72.000000)" style="stroke: black; stroke-width:0.25;"/>
<rect x="174.650000" y="131.000000" width="25.800000" height="24.000000" rx="0" ry="0" style="stroke:none;fill:#cccccc;"/>
<rect x="173.650000" y="130.000000" width="25.800000" height="24.000000" rx="0" ry="0" style="stroke:none;fill:#f44800;"/>
<text x="186.550000" y="144.000000" font-family="Arial" font-size="7" text-anchor="middle" fill="#FFFFFF">44100</text>
<circle cx="175.650000" cy="132.000000" r="1"/>
<line x1="164.650000" y1="121.000000" x2="164.650000" y2="163.000000"  style="stroke: black; stroke-linecap:round; stroke-width:0.25; stroke-dasharray:3,3;"/>
<line x1="164.650000" y1="163.000000" x2="208.450000" y2="163.000000"  style="stroke: black; stroke-linecap:round; stroke-width:0.25; stroke-dasharray:3,3;"/>
<line x1="208.450000" y1="163.000000" x2="208.450000" y2="121.000000"  style="stroke: black; stroke-linecap:round; stroke-width:0.25; stroke-dasharray:3,3;"/>
<line x1="164.650000" y1="121.000000" x2="169.650000" y2="121.000000"  style="stroke: black; stroke-linecap:round; stroke-width:0.25; stroke-dasharray:3,3;"/>
<line x1="195.450000" y1="121.000000" x2="208.450000" y2="121.000000"  style="stroke: black; stroke-linecap:round; stroke-width:0.25; stroke-dasharray:3,3;"/>
<text x="169.650000" y="123.000000" font-family="Arial" font-size="7">origSR</text>
<rect x="366.100000" y="83.000000" width="24.000000" height="24.000000" rx="0" ry="0" style="stroke:none;fill:#cccccc;"/>
<rect x="365.100000" y="82.000000" width="24.000000" height="24.000000" rx="0" ry="0" style="stroke:none;fill:#4B71A1;"/>
<text x="377.100000" y="96.000000" font-family="Arial" font-size="7" text-anchor="middle" fill="#FFFFFF">/</text>
<circle cx="367.100000" cy="84.000000" r="1"/>
<line x1="362.100000" y1="89.000000" x2="365.100000" y2="90.000000"  transform="rotate(0.000000,365.100000,90.000000)" style="stroke: black; stroke-width:0.25;"/>
<line x1="362.100000" y1="91.000000" x2="365.100000" y2="90.000000"  transform="rotate(0.000000,365.100000,90.000000)" style="stroke: black; stroke-width:0.25;"/>
<line x1="362.100000" y1="97.000000" x2="365.100000" y2="98.000000"  transform="rotate(0.000000,365.100000,98.000000)" style="stroke: black; stroke-width:0.25;"/>
<line x1="362.100000" y1="99.000000" x2="365.100000" y2="98.000000"  transform="rotate(0.000000,365.100000,98.000000)" style="stroke: black; stroke-width:0.25;"/>
<line x1="15.000000" y1="15.000000" x2="15.000000" y2="173.000000"  style="stroke: black; stroke-linecap:round; stroke-width:0.25; stroke-dasharray:3,3;"/>
<line x1="15.000000" y1="173.000000" x2="406.100000" y2="173.000000"  style="stroke: black; stroke-linecap:round; stroke-width:0.25; stroke-dasharray:3,3;"/>
<line x1="406.100000" y1="173.000000" x2="406.100000" y2="15.000000"  style="stroke: black; stroke-linecap:round; stroke-width:0.25; stroke-dasharray:3,3;"/>
<line x1="15.000000" y1="15.000000" x2="20.000000" y2="15.000000"  style="stroke: black; stroke-linecap:round; stroke-width:0.25; stroke-dasharray:3,3;"/>
<line x1="58.700000" y1="15.000000" x2="406.100000" y2="15.000000"  style="stroke: black; stroke-linecap:round; stroke-width:0.25; stroke-dasharray:3,3;"/>
<text x="20.000000" y="17.000000" font-family="Arial" font-size="7">spatSpread</text>
<line x1="408.100000" y1="93.000000" x2="411.100000" y2="94.000000"  transform="rotate(0.000000,411.100000,94.000000)" style="stroke: black; stroke-width:0.25;"/>
<line x1="408.100000" y1="95.000000" x2="411.100000" y2="94.000000"  transform="rotate(0.000000,411.100000,94.000000)" style="stroke: black; stroke-width:0.25;"/>
<line x1="158.550000" y1="68.000000" x2="162.550000" y2="68.000000"  style="stroke:black; stroke-linecap:round; stroke-width:0.25;"/>
<line x1="162.550000" y1="68.000000" x2="273.100000" y2="68.000000"  style="stroke:black; stroke-linecap:round; stroke-width:0.25;"/>
<line x1="178.550000" y1="100.000000" x2="182.550000" y2="100.000000"  style="stroke:black; stroke-linecap:round; stroke-width:0.25;"/>
<line x1="182.550000" y1="100.000000" x2="313.100000" y2="100.000000"  style="stroke:black; stroke-linecap:round; stroke-width:0.25;"/>
<line x1="199.450000" y1="142.000000" x2="203.450000" y2="142.000000"  style="stroke:black; stroke-linecap:round; stroke-width:0.25;"/>
<line x1="203.450000" y1="142.000000" x2="213.450000" y2="142.000000"  style="stroke:black; stroke-linecap:round; stroke-width:0.25;"/>
<line x1="213.450000" y1="142.000000" x2="353.100000" y2="142.000000"  style="stroke:black; stroke-linecap:round; stroke-width:0.25;"/>
<line x1="269.100000" y1="36.000000" x2="273.100000" y2="36.000000"  style="stroke:black; stroke-linecap:round; stroke-width:0.25;"/>
<line x1="273.100000" y1="36.000000" x2="281.100000" y2="36.000000"  style="stroke:black; stroke-linecap:round; stroke-width:0.25;"/>
<line x1="273.100000" y1="56.000000" x2="281.100000" y2="56.000000"  style="stroke:black; stroke-linecap:round; stroke-width:0.25;"/>
<line x1="273.100000" y1="68.000000" x2="273.100000" y2="56.000000"  style="stroke:black; stroke-linecap:round; stroke-width:0.25;"/>
<line x1="273.100000" y1="68.000000" x2="273.100000" y2="68.000000"  style="stroke:black; stroke-linecap:round; stroke-width:0.25;"/>
<line x1="281.100000" y1="36.000000" x2="281.100000" y2="48.000000"  style="stroke:black; stroke-linecap:round; stroke-width:0.25;"/>
<line x1="281.100000" y1="48.000000" x2="281.100000" y2="48.000000"  style="stroke:black; stroke-linecap:round; stroke-width:0.25;"/>
<line x1="281.100000" y1="48.000000" x2="285.100000" y2="48.000000"  style="stroke:black; stroke-linecap:round; stroke-width:0.25;"/>
<line x1="281.100000" y1="56.000000" x2="285.100000" y2="56.000000"  style="stroke:black; stroke-linecap:round; stroke-width:0.25;"/>
<line x1="309.100000" y1="52.000000" x2="313.100000" y2="52.000000"  style="stroke:black; stroke-linecap:round; stroke-width:0.25;"/>
<line x1="313.100000" y1="52.000000" x2="321.100000" y2="52.000000"  style="stroke:black; stroke-linecap:round; stroke-width:0.25;"/>
<line x1="313.100000" y1="72.000000" x2="321.100000" y2="72.000000"  style="stroke:black; stroke-linecap:round; stroke-width:0.25;"/>
<line x1="313.100000" y1="100.000000" x2="313.100000" y2="72.000000"  style="stroke:black; stroke-linecap:round; stroke-width:0.25;"/>
<line x1="313.100000" y1="100.000000" x2="313.100000" y2="100.000000"  style="stroke:black; stroke-linecap:round; stroke-width:0.25;"/>
<line x1="321.100000" y1="52.000000" x2="321.100000" y2="64.000000"  style="stroke:black; stroke-linecap:round; stroke-width:0.25;"/>
<line x1="321.100000" y1="64.000000" x2="321.100000" y2="64.000000"  style="stroke:black; stroke-linecap:round; stroke-width:0.25;"/>
<line x1="321.100000" y1="64.000000" x2="325.100000" y2="64.000000"  style="stroke:black; stroke-linecap:round; stroke-width:0.25;"/>
<line x1="321.100000" y1="72.000000" x2="325.100000" y2="72.000000"  style="stroke:black; stroke-linecap:round; stroke-width:0.25;"/>
<line x1="349.100000" y1="68.000000" x2="353.100000" y2="68.000000"  style="stroke:black; stroke-linecap:round; stroke-width:0.25;"/>
<line x1="353.100000" y1="68.000000" x2="361.100000" y2="68.000000"  style="stroke:black; stroke-linecap:round; stroke-width:0.25;"/>
<line x1="353.100000" y1="98.000000" x2="361.100000" y2="98.000000"  style="stroke:black; stroke-linecap:round; stroke-width:0.25;"/>
<line x1="353.100000" y1="142.000000" x2="353.100000" y2="98.000000"  style="stroke:black; stroke-linecap:round; stroke-width:0.25;"/>
<line x1="353.100000" y1="142.000000" x2="353.100000" y2="142.000000"  style="stroke:black; stroke-linecap:round; stroke-width:0.25;"/>
<line x1="361.100000" y1="68.000000" x2="361.100000" y2="90.000000"  style="stroke:black; stroke-linecap:round; stroke-width:0.25;"/>
<line x1="361.100000" y1="90.000000" x2="361.100000" y2="90.000000"  style="stroke:black; stroke-linecap:round; stroke-width:0.25;"/>
<line x1="361.100000" y1="90.000000" x2="365.100000" y2="90.000000"  style="stroke:black; stroke-linecap:round; stroke-width:0.25;"/>
<line x1="361.100000" y1="98.000000" x2="365.100000" y2="98.000000"  style="stroke:black; stroke-linecap:round; stroke-width:0.25;"/>
<line x1="389.100000" y1="94.000000" x2="393.100000" y2="94.000000"  style="stroke:black; stroke-linecap:round; stroke-width:0.25;"/>
<line x1="393.100000" y1="94.000000" x2="393.100000" y2="94.000000"  style="stroke:black; stroke-linecap:round; stroke-width:0.25;"/>
<line x1="393.100000" y1="94.000000" x2="397.100000" y2="94.000000"  style="stroke:black; stroke-linecap:round; stroke-width:0.25;"/>
<line x1="397.100000" y1="94.000000" x2="401.100000" y2="94.000000"  style="stroke:black; stroke-linecap:round; stroke-width:0.25;"/>
<line x1="401.100000" y1="94.000000" x2="411.100000" y2="94.000000"  style="stroke:black; stroke-linecap:round; stroke-width:0.25;"/>
</svg>
