<?xml version="1.0"?>
<svg xmlns="http://www.w3.org/2000/svg" xmlns:xlink="http://www.w3.org/1999/xlink" viewBox="0 0 362.400000 176.000000" width="181.200000mm" height="88.000000mm" version="1.1">
<a xlink:href="dry-0x7ff325f54f90.svg">
<rect x="1.000000" y="1.000000" width="361.400000" height="175.000000" rx="0" ry="0" style="stroke:none;fill:#cccccc;"/>
<rect x="0.000000" y="0.000000" width="361.400000" height="175.000000" rx="0" ry="0" style="stroke:none;fill:#ffffff;"/>
</a>
<text x="10.000000" y="7.000000" font-family="Arial" font-size="7"></text>
<rect x="146.200000" y="35.000000" width="24.000000" height="24.000000" rx="0" ry="0" style="stroke:none;fill:#cccccc;"/>
<rect x="145.200000" y="34.000000" width="24.000000" height="24.000000" rx="0" ry="0" style="stroke:none;fill:#f44800;"/>
<text x="157.200000" y="48.000000" font-family="Arial" font-size="7" text-anchor="middle" fill="#FFFFFF">0.5</text>
<circle cx="147.200000" cy="36.000000" r="1"/>
<line x1="136.200000" y1="25.000000" x2="136.200000" y2="67.000000"  style="stroke: black; stroke-linecap:round; stroke-width:0.25; stroke-dasharray:3,3;"/>
<line x1="136.200000" y1="67.000000" x2="178.200000" y2="67.000000"  style="stroke: black; stroke-linecap:round; stroke-width:0.25; stroke-dasharray:3,3;"/>
<line x1="178.200000" y1="67.000000" x2="178.200000" y2="25.000000"  style="stroke: black; stroke-linecap:round; stroke-width:0.25; stroke-dasharray:3,3;"/>
<line x1="136.200000" y1="25.000000" x2="141.200000" y2="25.000000"  style="stroke: black; stroke-linecap:round; stroke-width:0.25; stroke-dasharray:3,3;"/>
<line x1="178.200000" y1="25.000000" x2="178.200000" y2="25.000000"  style="stroke: black; stroke-linecap:round; stroke-width:0.25; stroke-dasharray:3,3;"/>
<text x="141.200000" y="27.000000" font-family="Arial" font-size="7">allpassfeed</text>
<rect x="35.000000" y="87.000000" width="206.400000" height="24.000000" rx="0" ry="0" style="stroke:none;fill:#cccccc;"/>
<rect x="34.000000" y="86.000000" width="206.400000" height="24.000000" rx="0" ry="0" style="stroke:none;fill:#477881;"/>
<text x="137.200000" y="100.000000" font-family="Arial" font-size="7" text-anchor="middle" fill="#FFFFFF">hslider(dryWetFlang, 0.5f, 0.0f, 1.0f, 0.001f)</text>
<circle cx="36.000000" cy="88.000000" r="1"/>
<line x1="25.000000" y1="77.000000" x2="25.000000" y2="119.000000"  style="stroke: black; stroke-linecap:round; stroke-width:0.25; stroke-dasharray:3,3;"/>
<line x1="25.000000" y1="119.000000" x2="249.400000" y2="119.000000"  style="stroke: black; stroke-linecap:round; stroke-width:0.25; stroke-dasharray:3,3;"/>
<line x1="249.400000" y1="119.000000" x2="249.400000" y2="77.000000"  style="stroke: black; stroke-linecap:round; stroke-width:0.25; stroke-dasharray:3,3;"/>
<line x1="25.000000" y1="77.000000" x2="30.000000" y2="77.000000"  style="stroke: black; stroke-linecap:round; stroke-width:0.25; stroke-dasharray:3,3;"/>
<line x1="49.350000" y1="77.000000" x2="249.400000" y2="77.000000"  style="stroke: black; stroke-linecap:round; stroke-width:0.25; stroke-dasharray:3,3;"/>
<text x="30.000000" y="79.000000" font-family="Arial" font-size="7">fldw</text>
<rect x="126.200000" y="129.000000" width="24.000000" height="24.000000" rx="0" ry="0" style="stroke:none;fill:#cccccc;"/>
<rect x="125.200000" y="128.000000" width="24.000000" height="24.000000" rx="0" ry="0" style="stroke:none;fill:#f44800;"/>
<text x="137.200000" y="142.000000" font-family="Arial" font-size="7" text-anchor="middle" fill="#FFFFFF">1</text>
<circle cx="127.200000" cy="130.000000" r="1"/>
<rect x="267.400000" y="103.000000" width="24.000000" height="24.000000" rx="0" ry="0" style="stroke:none;fill:#cccccc;"/>
<rect x="266.400000" y="102.000000" width="24.000000" height="24.000000" rx="0" ry="0" style="stroke:none;fill:#4B71A1;"/>
<text x="278.400000" y="116.000000" font-family="Arial" font-size="7" text-anchor="middle" fill="#FFFFFF">+</text>
<circle cx="268.400000" cy="104.000000" r="1"/>
<line x1="263.400000" y1="109.000000" x2="266.400000" y2="110.000000"  transform="rotate(0.000000,266.400000,110.000000)" style="stroke: black; stroke-width:0.25;"/>
<line x1="263.400000" y1="111.000000" x2="266.400000" y2="110.000000"  transform="rotate(0.000000,266.400000,110.000000)" style="stroke: black; stroke-width:0.25;"/>
<line x1="263.400000" y1="117.000000" x2="266.400000" y2="118.000000"  transform="rotate(0.000000,266.400000,118.000000)" style="stroke: black; stroke-width:0.25;"/>
<line x1="263.400000" y1="119.000000" x2="266.400000" y2="118.000000"  transform="rotate(0.000000,266.400000,118.000000)" style="stroke: black; stroke-width:0.25;"/>
<rect x="307.400000" y="77.000000" width="24.000000" height="24.000000" rx="0" ry="0" style="stroke:none;fill:#cccccc;"/>
<rect x="306.400000" y="76.000000" width="24.000000" height="24.000000" rx="0" ry="0" style="stroke:none;fill:#4B71A1;"/>
<text x="318.400000" y="90.000000" font-family="Arial" font-size="7" text-anchor="middle" fill="#FFFFFF">*</text>
<circle cx="308.400000" cy="78.000000" r="1"/>
<line x1="303.400000" y1="83.000000" x2="306.400000" y2="84.000000"  transform="rotate(0.000000,306.400000,84.000000)" style="stroke: black; stroke-width:0.25;"/>
<line x1="303.400000" y1="85.000000" x2="306.400000" y2="84.000000"  transform="rotate(0.000000,306.400000,84.000000)" style="stroke: black; stroke-width:0.25;"/>
<line x1="303.400000" y1="91.000000" x2="306.400000" y2="92.000000"  transform="rotate(0.000000,306.400000,92.000000)" style="stroke: black; stroke-width:0.25;"/>
<line x1="303.400000" y1="93.000000" x2="306.400000" y2="92.000000"  transform="rotate(0.000000,306.400000,92.000000)" style="stroke: black; stroke-width:0.25;"/>
<line x1="15.000000" y1="15.000000" x2="15.000000" y2="161.000000"  style="stroke: black; stroke-linecap:round; stroke-width:0.25; stroke-dasharray:3,3;"/>
<line x1="15.000000" y1="161.000000" x2="347.400000" y2="161.000000"  style="stroke: black; stroke-linecap:round; stroke-width:0.25; stroke-dasharray:3,3;"/>
<line x1="347.400000" y1="161.000000" x2="347.400000" y2="15.000000"  style="stroke: black; stroke-linecap:round; stroke-width:0.25; stroke-dasharray:3,3;"/>
<line x1="15.000000" y1="15.000000" x2="20.000000" y2="15.000000"  style="stroke: black; stroke-linecap:round; stroke-width:0.25; stroke-dasharray:3,3;"/>
<line x1="36.125000" y1="15.000000" x2="347.400000" y2="15.000000"  style="stroke: black; stroke-linecap:round; stroke-width:0.25; stroke-dasharray:3,3;"/>
<text x="20.000000" y="17.000000" font-family="Arial" font-size="7">wet</text>
<line x1="349.400000" y1="87.000000" x2="352.400000" y2="88.000000"  transform="rotate(0.000000,352.400000,88.000000)" style="stroke: black; stroke-width:0.25;"/>
<line x1="349.400000" y1="89.000000" x2="352.400000" y2="88.000000"  transform="rotate(0.000000,352.400000,88.000000)" style="stroke: black; stroke-width:0.25;"/>
<line x1="149.200000" y1="140.000000" x2="153.200000" y2="140.000000"  style="stroke:black; stroke-linecap:round; stroke-width:0.25;"/>
<line x1="153.200000" y1="140.000000" x2="254.400000" y2="140.000000"  style="stroke:black; stroke-linecap:round; stroke-width:0.25;"/>
<line x1="169.200000" y1="46.000000" x2="173.200000" y2="46.000000"  style="stroke:black; stroke-linecap:round; stroke-width:0.25;"/>
<line x1="173.200000" y1="46.000000" x2="183.200000" y2="46.000000"  style="stroke:black; stroke-linecap:round; stroke-width:0.25;"/>
<line x1="183.200000" y1="46.000000" x2="294.400000" y2="46.000000"  style="stroke:black; stroke-linecap:round; stroke-width:0.25;"/>
<line x1="240.400000" y1="98.000000" x2="244.400000" y2="98.000000"  style="stroke:black; stroke-linecap:round; stroke-width:0.25;"/>
<line x1="244.400000" y1="98.000000" x2="254.400000" y2="98.000000"  style="stroke:black; stroke-linecap:round; stroke-width:0.25;"/>
<line x1="254.400000" y1="98.000000" x2="262.400000" y2="98.000000"  style="stroke:black; stroke-linecap:round; stroke-width:0.25;"/>
<line x1="254.400000" y1="118.000000" x2="262.400000" y2="118.000000"  style="stroke:black; stroke-linecap:round; stroke-width:0.25;"/>
<line x1="254.400000" y1="140.000000" x2="254.400000" y2="118.000000"  style="stroke:black; stroke-linecap:round; stroke-width:0.25;"/>
<line x1="254.400000" y1="140.000000" x2="254.400000" y2="140.000000"  style="stroke:black; stroke-linecap:round; stroke-width:0.25;"/>
<line x1="262.400000" y1="98.000000" x2="262.400000" y2="110.000000"  style="stroke:black; stroke-linecap:round; stroke-width:0.25;"/>
<line x1="262.400000" y1="110.000000" x2="262.400000" y2="110.000000"  style="stroke:black; stroke-linecap:round; stroke-width:0.25;"/>
<line x1="262.400000" y1="110.000000" x2="266.400000" y2="110.000000"  style="stroke:black; stroke-linecap:round; stroke-width:0.25;"/>
<line x1="262.400000" y1="118.000000" x2="266.400000" y2="118.000000"  style="stroke:black; stroke-linecap:round; stroke-width:0.25;"/>
<line x1="290.400000" y1="114.000000" x2="294.400000" y2="114.000000"  style="stroke:black; stroke-linecap:round; stroke-width:0.25;"/>
<line x1="294.400000" y1="46.000000" x2="302.400000" y2="46.000000"  style="stroke:black; stroke-linecap:round; stroke-width:0.25;"/>
<line x1="294.400000" y1="92.000000" x2="302.400000" y2="92.000000"  style="stroke:black; stroke-linecap:round; stroke-width:0.25;"/>
<line x1="294.400000" y1="114.000000" x2="294.400000" y2="92.000000"  style="stroke:black; stroke-linecap:round; stroke-width:0.25;"/>
<line x1="294.400000" y1="114.000000" x2="294.400000" y2="114.000000"  style="stroke:black; stroke-linecap:round; stroke-width:0.25;"/>
<line x1="302.400000" y1="46.000000" x2="302.400000" y2="84.000000"  style="stroke:black; stroke-linecap:round; stroke-width:0.25;"/>
<line x1="302.400000" y1="84.000000" x2="302.400000" y2="84.000000"  style="stroke:black; stroke-linecap:round; stroke-width:0.25;"/>
<line x1="302.400000" y1="84.000000" x2="306.400000" y2="84.000000"  style="stroke:black; stroke-linecap:round; stroke-width:0.25;"/>
<line x1="302.400000" y1="92.000000" x2="306.400000" y2="92.000000"  style="stroke:black; stroke-linecap:round; stroke-width:0.25;"/>
<line x1="330.400000" y1="88.000000" x2="334.400000" y2="88.000000"  style="stroke:black; stroke-linecap:round; stroke-width:0.25;"/>
<line x1="334.400000" y1="88.000000" x2="334.400000" y2="88.000000"  style="stroke:black; stroke-linecap:round; stroke-width:0.25;"/>
<line x1="334.400000" y1="88.000000" x2="338.400000" y2="88.000000"  style="stroke:black; stroke-linecap:round; stroke-width:0.25;"/>
<line x1="338.400000" y1="88.000000" x2="342.400000" y2="88.000000"  style="stroke:black; stroke-linecap:round; stroke-width:0.25;"/>
<line x1="342.400000" y1="88.000000" x2="352.400000" y2="88.000000"  style="stroke:black; stroke-linecap:round; stroke-width:0.25;"/>
</svg>
