<?xml version="1.0"?>
<svg xmlns="http://www.w3.org/2000/svg" xmlns:xlink="http://www.w3.org/1999/xlink" viewBox="0 0 293.000000 200.000000" width="146.500000mm" height="100.000000mm" version="1.1">
<a xlink:href="resonance-0x7fd51633fdf0.svg">
<rect x="1.000000" y="1.000000" width="292.000000" height="199.000000" rx="0" ry="0" style="stroke:none;fill:#cccccc;"/>
<rect x="0.000000" y="0.000000" width="292.000000" height="199.000000" rx="0" ry="0" style="stroke:none;fill:#ffffff;"/>
</a>
<text x="10.000000" y="7.000000" font-family="Arial" font-size="7"></text>
<a xlink:href="formantFilter-0x7fd51633ae90.svg">
<rect x="83.000000" y="25.000000" width="129.000000" height="24.000000" rx="0" ry="0" style="stroke:none;fill:#cccccc;"/>
<rect x="82.000000" y="24.000000" width="129.000000" height="24.000000" rx="0" ry="0" style="stroke:none;fill:#003366;"/>
</a>
<a xlink:href="formantFilter-0x7fd51633ae90.svg">
<text x="146.500000" y="38.000000" font-family="Arial" font-size="7" text-anchor="middle" fill="#FFFFFF">formantFilter...),1 : +) : *)</text>
</a>
<circle cx="84.000000" cy="26.000000" r="1"/>
<line x1="79.000000" y1="35.000000" x2="82.000000" y2="36.000000"  transform="rotate(0.000000,82.000000,36.000000)" style="stroke: black; stroke-width:0.25;"/>
<line x1="79.000000" y1="37.000000" x2="82.000000" y2="36.000000"  transform="rotate(0.000000,82.000000,36.000000)" style="stroke: black; stroke-width:0.25;"/>
<a xlink:href="formantFilter-0x7fd51633c0a0.svg">
<rect x="83.000000" y="57.000000" width="129.000000" height="24.000000" rx="0" ry="0" style="stroke:none;fill:#cccccc;"/>
<rect x="82.000000" y="56.000000" width="129.000000" height="24.000000" rx="0" ry="0" style="stroke:none;fill:#003366;"/>
</a>
<a xlink:href="formantFilter-0x7fd51633c0a0.svg">
<text x="146.500000" y="70.000000" font-family="Arial" font-size="7" text-anchor="middle" fill="#FFFFFF">formantFilter...),1 : +) : *)</text>
</a>
<circle cx="84.000000" cy="58.000000" r="1"/>
<line x1="79.000000" y1="67.000000" x2="82.000000" y2="68.000000"  transform="rotate(0.000000,82.000000,68.000000)" style="stroke: black; stroke-width:0.25;"/>
<line x1="79.000000" y1="69.000000" x2="82.000000" y2="68.000000"  transform="rotate(0.000000,82.000000,68.000000)" style="stroke: black; stroke-width:0.25;"/>
<a xlink:href="formantFilter-0x7fd51633d2b0.svg">
<rect x="83.000000" y="89.000000" width="129.000000" height="24.000000" rx="0" ry="0" style="stroke:none;fill:#cccccc;"/>
<rect x="82.000000" y="88.000000" width="129.000000" height="24.000000" rx="0" ry="0" style="stroke:none;fill:#003366;"/>
</a>
<a xlink:href="formantFilter-0x7fd51633d2b0.svg">
<text x="146.500000" y="102.000000" font-family="Arial" font-size="7" text-anchor="middle" fill="#FFFFFF">formantFilter...),1 : +) : *)</text>
</a>
<circle cx="84.000000" cy="90.000000" r="1"/>
<line x1="79.000000" y1="99.000000" x2="82.000000" y2="100.000000"  transform="rotate(0.000000,82.000000,100.000000)" style="stroke: black; stroke-width:0.25;"/>
<line x1="79.000000" y1="101.000000" x2="82.000000" y2="100.000000"  transform="rotate(0.000000,82.000000,100.000000)" style="stroke: black; stroke-width:0.25;"/>
<a xlink:href="formantFilter-0x7fd51633e4c0.svg">
<rect x="83.000000" y="121.000000" width="129.000000" height="24.000000" rx="0" ry="0" style="stroke:none;fill:#cccccc;"/>
<rect x="82.000000" y="120.000000" width="129.000000" height="24.000000" rx="0" ry="0" style="stroke:none;fill:#003366;"/>
</a>
<a xlink:href="formantFilter-0x7fd51633e4c0.svg">
<text x="146.500000" y="134.000000" font-family="Arial" font-size="7" text-anchor="middle" fill="#FFFFFF">formantFilter...),1 : +) : *)</text>
</a>
<circle cx="84.000000" cy="122.000000" r="1"/>
<line x1="79.000000" y1="131.000000" x2="82.000000" y2="132.000000"  transform="rotate(0.000000,82.000000,132.000000)" style="stroke: black; stroke-width:0.25;"/>
<line x1="79.000000" y1="133.000000" x2="82.000000" y2="132.000000"  transform="rotate(0.000000,82.000000,132.000000)" style="stroke: black; stroke-width:0.25;"/>
<a xlink:href="formantFilter-0x7fd51633f6c0.svg">
<rect x="83.000000" y="153.000000" width="129.000000" height="24.000000" rx="0" ry="0" style="stroke:none;fill:#cccccc;"/>
<rect x="82.000000" y="152.000000" width="129.000000" height="24.000000" rx="0" ry="0" style="stroke:none;fill:#003366;"/>
</a>
<a xlink:href="formantFilter-0x7fd51633f6c0.svg">
<text x="146.500000" y="166.000000" font-family="Arial" font-size="7" text-anchor="middle" fill="#FFFFFF">formantFilter...),1 : +) : *)</text>
</a>
<circle cx="84.000000" cy="154.000000" r="1"/>
<line x1="79.000000" y1="163.000000" x2="82.000000" y2="164.000000"  transform="rotate(0.000000,82.000000,164.000000)" style="stroke: black; stroke-width:0.25;"/>
<line x1="79.000000" y1="165.000000" x2="82.000000" y2="164.000000"  transform="rotate(0.000000,82.000000,164.000000)" style="stroke: black; stroke-width:0.25;"/>
<line x1="15.000000" y1="15.000000" x2="15.000000" y2="185.000000"  style="stroke: black; stroke-linecap:round; stroke-width:0.25; stroke-dasharray:3,3;"/>
<line x1="15.000000" y1="185.000000" x2="278.000000" y2="185.000000"  style="stroke: black; stroke-linecap:round; stroke-width:0.25; stroke-dasharray:3,3;"/>
<line x1="278.000000" y1="185.000000" x2="278.000000" y2="15.000000"  style="stroke: black; stroke-linecap:round; stroke-width:0.25; stroke-dasharray:3,3;"/>
<line x1="15.000000" y1="15.000000" x2="20.000000" y2="15.000000"  style="stroke: black; stroke-linecap:round; stroke-width:0.25; stroke-dasharray:3,3;"/>
<line x1="119.975000" y1="15.000000" x2="278.000000" y2="15.000000"  style="stroke: black; stroke-linecap:round; stroke-width:0.25; stroke-dasharray:3,3;"/>
<text x="20.000000" y="17.000000" font-family="Arial" font-size="7">formantFilter...),1 : +) : *)</text>
<line x1="280.000000" y1="99.000000" x2="283.000000" y2="100.000000"  transform="rotate(0.000000,283.000000,100.000000)" style="stroke: black; stroke-width:0.25;"/>
<line x1="280.000000" y1="101.000000" x2="283.000000" y2="100.000000"  transform="rotate(0.000000,283.000000,100.000000)" style="stroke: black; stroke-width:0.25;"/>
<line x1="10.000000" y1="100.000000" x2="20.000000" y2="100.000000"  style="stroke:black; stroke-linecap:round; stroke-width:0.25;"/>
<line x1="20.000000" y1="100.000000" x2="24.000000" y2="100.000000"  style="stroke:black; stroke-linecap:round; stroke-width:0.25;"/>
<line x1="24.000000" y1="100.000000" x2="28.000000" y2="100.000000"  style="stroke:black; stroke-linecap:round; stroke-width:0.25;"/>
<line x1="28.000000" y1="100.000000" x2="28.000000" y2="100.000000"  style="stroke:black; stroke-linecap:round; stroke-width:0.25;"/>
<line x1="28.000000" y1="100.000000" x2="32.000000" y2="100.000000"  style="stroke:black; stroke-linecap:round; stroke-width:0.25;"/>
<line x1="32.000000" y1="100.000000" x2="36.000000" y2="100.000000"  style="stroke:black; stroke-linecap:round; stroke-width:0.25;"/>
<line x1="36.000000" y1="100.000000" x2="78.000000" y2="36.000000"  style="stroke:black; stroke-linecap:round; stroke-width:0.25;"/>
<line x1="36.000000" y1="100.000000" x2="78.000000" y2="68.000000"  style="stroke:black; stroke-linecap:round; stroke-width:0.25;"/>
<line x1="36.000000" y1="100.000000" x2="78.000000" y2="100.000000"  style="stroke:black; stroke-linecap:round; stroke-width:0.25;"/>
<line x1="36.000000" y1="100.000000" x2="78.000000" y2="132.000000"  style="stroke:black; stroke-linecap:round; stroke-width:0.25;"/>
<line x1="36.000000" y1="100.000000" x2="78.000000" y2="164.000000"  style="stroke:black; stroke-linecap:round; stroke-width:0.25;"/>
<line x1="78.000000" y1="36.000000" x2="82.000000" y2="36.000000"  style="stroke:black; stroke-linecap:round; stroke-width:0.25;"/>
<line x1="78.000000" y1="68.000000" x2="82.000000" y2="68.000000"  style="stroke:black; stroke-linecap:round; stroke-width:0.25;"/>
<line x1="78.000000" y1="100.000000" x2="82.000000" y2="100.000000"  style="stroke:black; stroke-linecap:round; stroke-width:0.25;"/>
<line x1="78.000000" y1="132.000000" x2="82.000000" y2="132.000000"  style="stroke:black; stroke-linecap:round; stroke-width:0.25;"/>
<line x1="78.000000" y1="164.000000" x2="82.000000" y2="164.000000"  style="stroke:black; stroke-linecap:round; stroke-width:0.25;"/>
<line x1="211.000000" y1="36.000000" x2="215.000000" y2="36.000000"  style="stroke:black; stroke-linecap:round; stroke-width:0.25;"/>
<line x1="211.000000" y1="68.000000" x2="215.000000" y2="68.000000"  style="stroke:black; stroke-linecap:round; stroke-width:0.25;"/>
<line x1="211.000000" y1="100.000000" x2="215.000000" y2="100.000000"  style="stroke:black; stroke-linecap:round; stroke-width:0.25;"/>
<line x1="211.000000" y1="132.000000" x2="215.000000" y2="132.000000"  style="stroke:black; stroke-linecap:round; stroke-width:0.25;"/>
<line x1="211.000000" y1="164.000000" x2="215.000000" y2="164.000000"  style="stroke:black; stroke-linecap:round; stroke-width:0.25;"/>
<line x1="215.000000" y1="36.000000" x2="257.000000" y2="100.000000"  style="stroke:black; stroke-linecap:round; stroke-width:0.25;"/>
<line x1="215.000000" y1="68.000000" x2="257.000000" y2="100.000000"  style="stroke:black; stroke-linecap:round; stroke-width:0.25;"/>
<line x1="215.000000" y1="100.000000" x2="257.000000" y2="100.000000"  style="stroke:black; stroke-linecap:round; stroke-width:0.25;"/>
<line x1="215.000000" y1="132.000000" x2="257.000000" y2="100.000000"  style="stroke:black; stroke-linecap:round; stroke-width:0.25;"/>
<line x1="215.000000" y1="164.000000" x2="257.000000" y2="100.000000"  style="stroke:black; stroke-linecap:round; stroke-width:0.25;"/>
<line x1="257.000000" y1="100.000000" x2="261.000000" y2="100.000000"  style="stroke:black; stroke-linecap:round; stroke-width:0.25;"/>
<line x1="261.000000" y1="100.000000" x2="265.000000" y2="100.000000"  style="stroke:black; stroke-linecap:round; stroke-width:0.25;"/>
<line x1="265.000000" y1="100.000000" x2="265.000000" y2="100.000000"  style="stroke:black; stroke-linecap:round; stroke-width:0.25;"/>
<line x1="265.000000" y1="100.000000" x2="269.000000" y2="100.000000"  style="stroke:black; stroke-linecap:round; stroke-width:0.25;"/>
<line x1="269.000000" y1="100.000000" x2="273.000000" y2="100.000000"  style="stroke:black; stroke-linecap:round; stroke-width:0.25;"/>
<line x1="273.000000" y1="100.000000" x2="283.000000" y2="100.000000"  style="stroke:black; stroke-linecap:round; stroke-width:0.25;"/>
</svg>
