<?xml version="1.0"?>
<svg xmlns="http://www.w3.org/2000/svg" xmlns:xlink="http://www.w3.org/1999/xlink" viewBox="0 0 457.600000 160.000000" width="228.800000mm" height="80.000000mm" version="1.1">
<a xlink:href="resonance-0x7f87980cc4f0.svg">
<rect x="1.000000" y="1.000000" width="456.600000" height="159.000000" rx="0" ry="0" style="stroke:none;fill:#cccccc;"/>
<rect x="0.000000" y="0.000000" width="456.600000" height="159.000000" rx="0" ry="0" style="stroke:none;fill:#ffffff;"/>
</a>
<text x="10.000000" y="7.000000" font-family="Arial" font-size="7"></text>
<rect x="186.450000" y="35.000000" width="24.000000" height="24.000000" rx="0" ry="0" style="stroke:none;fill:#cccccc;"/>
<rect x="185.450000" y="34.000000" width="24.000000" height="24.000000" rx="0" ry="0" style="stroke:none;fill:#f44800;"/>
<text x="197.450000" y="48.000000" font-family="Arial" font-size="7" text-anchor="middle" fill="#FFFFFF">0</text>
<circle cx="187.450000" cy="36.000000" r="1"/>
<line x1="176.450000" y1="25.000000" x2="176.450000" y2="67.000000"  style="stroke: black; stroke-linecap:round; stroke-width:0.25; stroke-dasharray:3,3;"/>
<line x1="176.450000" y1="67.000000" x2="218.450000" y2="67.000000"  style="stroke: black; stroke-linecap:round; stroke-width:0.25; stroke-dasharray:3,3;"/>
<line x1="218.450000" y1="67.000000" x2="218.450000" y2="25.000000"  style="stroke: black; stroke-linecap:round; stroke-width:0.25; stroke-dasharray:3,3;"/>
<line x1="176.450000" y1="25.000000" x2="181.450000" y2="25.000000"  style="stroke: black; stroke-linecap:round; stroke-width:0.25; stroke-dasharray:3,3;"/>
<line x1="194.350000" y1="25.000000" x2="218.450000" y2="25.000000"  style="stroke: black; stroke-linecap:round; stroke-width:0.25; stroke-dasharray:3,3;"/>
<text x="181.450000" y="27.000000" font-family="Arial" font-size="7">b2</text>
<rect x="43.000000" y="103.000000" width="270.900000" height="24.000000" rx="0" ry="0" style="stroke:none;fill:#cccccc;"/>
<rect x="42.000000" y="102.000000" width="270.900000" height="24.000000" rx="0" ry="0" style="stroke:none;fill:#477881;"/>
<text x="177.450000" y="116.000000" font-family="Arial" font-size="7" text-anchor="middle" fill="#FFFFFF">hslider(v:vocal/gain, 0.90000000000000002f, 0.0f, 1.0f, 0.01f)</text>
<circle cx="44.000000" cy="104.000000" r="1"/>
<line x1="33.000000" y1="93.000000" x2="33.000000" y2="135.000000"  style="stroke: black; stroke-linecap:round; stroke-width:0.25; stroke-dasharray:3,3;"/>
<line x1="33.000000" y1="135.000000" x2="321.900000" y2="135.000000"  style="stroke: black; stroke-linecap:round; stroke-width:0.25; stroke-dasharray:3,3;"/>
<line x1="321.900000" y1="135.000000" x2="321.900000" y2="93.000000"  style="stroke: black; stroke-linecap:round; stroke-width:0.25; stroke-dasharray:3,3;"/>
<line x1="33.000000" y1="93.000000" x2="38.000000" y2="93.000000"  style="stroke: black; stroke-linecap:round; stroke-width:0.25; stroke-dasharray:3,3;"/>
<line x1="57.350000" y1="93.000000" x2="321.900000" y2="93.000000"  style="stroke: black; stroke-linecap:round; stroke-width:0.25; stroke-dasharray:3,3;"/>
<text x="38.000000" y="95.000000" font-family="Arial" font-size="7">gain</text>
<rect x="339.900000" y="99.000000" width="24.000000" height="24.000000" rx="0" ry="0" style="stroke:none;fill:#cccccc;"/>
<rect x="338.900000" y="98.000000" width="24.000000" height="24.000000" rx="0" ry="0" style="stroke:none;fill:#4B71A1;"/>
<text x="350.900000" y="112.000000" font-family="Arial" font-size="7" text-anchor="middle" fill="#FFFFFF">*</text>
<circle cx="340.900000" cy="100.000000" r="1"/>
<line x1="335.900000" y1="105.000000" x2="338.900000" y2="106.000000"  transform="rotate(0.000000,338.900000,106.000000)" style="stroke: black; stroke-width:0.25;"/>
<line x1="335.900000" y1="107.000000" x2="338.900000" y2="106.000000"  transform="rotate(0.000000,338.900000,106.000000)" style="stroke: black; stroke-width:0.25;"/>
<line x1="335.900000" y1="113.000000" x2="338.900000" y2="114.000000"  transform="rotate(0.000000,338.900000,114.000000)" style="stroke: black; stroke-width:0.25;"/>
<line x1="335.900000" y1="115.000000" x2="338.900000" y2="114.000000"  transform="rotate(0.000000,338.900000,114.000000)" style="stroke: black; stroke-width:0.25;"/>
<rect x="387.900000" y="69.000000" width="38.700000" height="24.000000" rx="0" ry="0" style="stroke:none;fill:#cccccc;"/>
<rect x="386.900000" y="68.000000" width="38.700000" height="24.000000" rx="0" ry="0" style="stroke:none;fill:#4B71A1;"/>
<text x="406.250000" y="82.000000" font-family="Arial" font-size="7" text-anchor="middle" fill="#FFFFFF">select2</text>
<circle cx="388.900000" cy="70.000000" r="1"/>
<line x1="383.900000" y1="71.000000" x2="386.900000" y2="72.000000"  transform="rotate(0.000000,386.900000,72.000000)" style="stroke: black; stroke-width:0.25;"/>
<line x1="383.900000" y1="73.000000" x2="386.900000" y2="72.000000"  transform="rotate(0.000000,386.900000,72.000000)" style="stroke: black; stroke-width:0.25;"/>
<line x1="383.900000" y1="79.000000" x2="386.900000" y2="80.000000"  transform="rotate(0.000000,386.900000,80.000000)" style="stroke: black; stroke-width:0.25;"/>
<line x1="383.900000" y1="81.000000" x2="386.900000" y2="80.000000"  transform="rotate(0.000000,386.900000,80.000000)" style="stroke: black; stroke-width:0.25;"/>
<line x1="383.900000" y1="87.000000" x2="386.900000" y2="88.000000"  transform="rotate(0.000000,386.900000,88.000000)" style="stroke: black; stroke-width:0.25;"/>
<line x1="383.900000" y1="89.000000" x2="386.900000" y2="88.000000"  transform="rotate(0.000000,386.900000,88.000000)" style="stroke: black; stroke-width:0.25;"/>
<line x1="15.000000" y1="15.000000" x2="15.000000" y2="145.000000"  style="stroke: black; stroke-linecap:round; stroke-width:0.25; stroke-dasharray:3,3;"/>
<line x1="15.000000" y1="145.000000" x2="442.600000" y2="145.000000"  style="stroke: black; stroke-linecap:round; stroke-width:0.25; stroke-dasharray:3,3;"/>
<line x1="442.600000" y1="145.000000" x2="442.600000" y2="15.000000"  style="stroke: black; stroke-linecap:round; stroke-width:0.25; stroke-dasharray:3,3;"/>
<line x1="15.000000" y1="15.000000" x2="20.000000" y2="15.000000"  style="stroke: black; stroke-linecap:round; stroke-width:0.25; stroke-dasharray:3,3;"/>
<line x1="129.650000" y1="15.000000" x2="442.600000" y2="15.000000"  style="stroke: black; stroke-linecap:round; stroke-width:0.25; stroke-dasharray:3,3;"/>
<text x="20.000000" y="17.000000" font-family="Arial" font-size="7">if(0)(_,hslid..., 0.01f) : *)(_)</text>
<line x1="444.600000" y1="79.000000" x2="447.600000" y2="80.000000"  transform="rotate(0.000000,447.600000,80.000000)" style="stroke: black; stroke-width:0.25;"/>
<line x1="444.600000" y1="81.000000" x2="447.600000" y2="80.000000"  transform="rotate(0.000000,447.600000,80.000000)" style="stroke: black; stroke-width:0.25;"/>
<line x1="10.000000" y1="76.000000" x2="20.000000" y2="76.000000"  style="stroke:black; stroke-linecap:round; stroke-width:0.25;"/>
<line x1="10.000000" y1="84.000000" x2="20.000000" y2="84.000000"  style="stroke:black; stroke-linecap:round; stroke-width:0.25;"/>
<line x1="20.000000" y1="76.000000" x2="24.000000" y2="76.000000"  style="stroke:black; stroke-linecap:round; stroke-width:0.25;"/>
<line x1="20.000000" y1="84.000000" x2="24.000000" y2="84.000000"  style="stroke:black; stroke-linecap:round; stroke-width:0.25;"/>
<line x1="24.000000" y1="76.000000" x2="28.000000" y2="76.000000"  style="stroke:black; stroke-linecap:round; stroke-width:0.25;"/>
<line x1="24.000000" y1="84.000000" x2="28.000000" y2="84.000000"  style="stroke:black; stroke-linecap:round; stroke-width:0.25;"/>
<line x1="28.000000" y1="76.000000" x2="28.000000" y2="76.000000"  style="stroke:black; stroke-linecap:round; stroke-width:0.25;"/>
<line x1="28.000000" y1="76.000000" x2="197.450000" y2="76.000000"  style="stroke:black; stroke-linecap:round; stroke-width:0.25;"/>
<line x1="28.000000" y1="84.000000" x2="28.000000" y2="84.000000"  style="stroke:black; stroke-linecap:round; stroke-width:0.25;"/>
<line x1="28.000000" y1="84.000000" x2="177.450000" y2="84.000000"  style="stroke:black; stroke-linecap:round; stroke-width:0.25;"/>
<line x1="177.450000" y1="84.000000" x2="326.900000" y2="84.000000"  style="stroke:black; stroke-linecap:round; stroke-width:0.25;"/>
<line x1="197.450000" y1="76.000000" x2="366.900000" y2="76.000000"  style="stroke:black; stroke-linecap:round; stroke-width:0.25;"/>
<line x1="209.450000" y1="46.000000" x2="213.450000" y2="46.000000"  style="stroke:black; stroke-linecap:round; stroke-width:0.25;"/>
<line x1="213.450000" y1="46.000000" x2="223.450000" y2="46.000000"  style="stroke:black; stroke-linecap:round; stroke-width:0.25;"/>
<line x1="223.450000" y1="46.000000" x2="366.900000" y2="46.000000"  style="stroke:black; stroke-linecap:round; stroke-width:0.25;"/>
<line x1="312.900000" y1="114.000000" x2="316.900000" y2="114.000000"  style="stroke:black; stroke-linecap:round; stroke-width:0.25;"/>
<line x1="316.900000" y1="114.000000" x2="326.900000" y2="114.000000"  style="stroke:black; stroke-linecap:round; stroke-width:0.25;"/>
<line x1="326.900000" y1="84.000000" x2="334.900000" y2="84.000000"  style="stroke:black; stroke-linecap:round; stroke-width:0.25;"/>
<line x1="326.900000" y1="114.000000" x2="334.900000" y2="114.000000"  style="stroke:black; stroke-linecap:round; stroke-width:0.25;"/>
<line x1="334.900000" y1="84.000000" x2="334.900000" y2="106.000000"  style="stroke:black; stroke-linecap:round; stroke-width:0.25;"/>
<line x1="334.900000" y1="106.000000" x2="334.900000" y2="106.000000"  style="stroke:black; stroke-linecap:round; stroke-width:0.25;"/>
<line x1="334.900000" y1="106.000000" x2="338.900000" y2="106.000000"  style="stroke:black; stroke-linecap:round; stroke-width:0.25;"/>
<line x1="334.900000" y1="114.000000" x2="338.900000" y2="114.000000"  style="stroke:black; stroke-linecap:round; stroke-width:0.25;"/>
<line x1="362.900000" y1="110.000000" x2="366.900000" y2="110.000000"  style="stroke:black; stroke-linecap:round; stroke-width:0.25;"/>
<line x1="366.900000" y1="46.000000" x2="382.900000" y2="46.000000"  style="stroke:black; stroke-linecap:round; stroke-width:0.25;"/>
<line x1="366.900000" y1="76.000000" x2="374.900000" y2="76.000000"  style="stroke:black; stroke-linecap:round; stroke-width:0.25;"/>
<line x1="366.900000" y1="88.000000" x2="382.900000" y2="88.000000"  style="stroke:black; stroke-linecap:round; stroke-width:0.25;"/>
<line x1="366.900000" y1="110.000000" x2="366.900000" y2="88.000000"  style="stroke:black; stroke-linecap:round; stroke-width:0.25;"/>
<line x1="366.900000" y1="110.000000" x2="366.900000" y2="110.000000"  style="stroke:black; stroke-linecap:round; stroke-width:0.25;"/>
<line x1="374.900000" y1="76.000000" x2="374.900000" y2="80.000000"  style="stroke:black; stroke-linecap:round; stroke-width:0.25;"/>
<line x1="374.900000" y1="80.000000" x2="382.900000" y2="80.000000"  style="stroke:black; stroke-linecap:round; stroke-width:0.25;"/>
<line x1="382.900000" y1="46.000000" x2="382.900000" y2="72.000000"  style="stroke:black; stroke-linecap:round; stroke-width:0.25;"/>
<line x1="382.900000" y1="72.000000" x2="382.900000" y2="72.000000"  style="stroke:black; stroke-linecap:round; stroke-width:0.25;"/>
<line x1="382.900000" y1="72.000000" x2="386.900000" y2="72.000000"  style="stroke:black; stroke-linecap:round; stroke-width:0.25;"/>
<line x1="382.900000" y1="80.000000" x2="386.900000" y2="80.000000"  style="stroke:black; stroke-linecap:round; stroke-width:0.25;"/>
<line x1="382.900000" y1="88.000000" x2="386.900000" y2="88.000000"  style="stroke:black; stroke-linecap:round; stroke-width:0.25;"/>
<line x1="425.600000" y1="80.000000" x2="429.600000" y2="80.000000"  style="stroke:black; stroke-linecap:round; stroke-width:0.25;"/>
<line x1="429.600000" y1="80.000000" x2="429.600000" y2="80.000000"  style="stroke:black; stroke-linecap:round; stroke-width:0.25;"/>
<line x1="429.600000" y1="80.000000" x2="433.600000" y2="80.000000"  style="stroke:black; stroke-linecap:round; stroke-width:0.25;"/>
<line x1="433.600000" y1="80.000000" x2="437.600000" y2="80.000000"  style="stroke:black; stroke-linecap:round; stroke-width:0.25;"/>
<line x1="437.600000" y1="80.000000" x2="447.600000" y2="80.000000"  style="stroke:black; stroke-linecap:round; stroke-width:0.25;"/>
</svg>
