<?xml version="1.0"?>
<svg xmlns="http://www.w3.org/2000/svg" xmlns:xlink="http://www.w3.org/1999/xlink" viewBox="0 0 280.500000 248.000000" width="140.250000mm" height="124.000000mm" version="1.1">
<a xlink:href="if-0x7fd512825490.svg">
<rect x="1.000000" y="1.000000" width="279.500000" height="247.000000" rx="0" ry="0" style="stroke:none;fill:#cccccc;"/>
<rect x="0.000000" y="0.000000" width="279.500000" height="247.000000" rx="0" ry="0" style="stroke:none;fill:#ffffff;"/>
</a>
<text x="10.000000" y="7.000000" font-family="Arial" font-size="7"></text>
<rect x="61.900000" y="33.000000" width="24.000000" height="24.000000" rx="0" ry="0" style="stroke:none;fill:#cccccc;"/>
<rect x="60.900000" y="32.000000" width="24.000000" height="24.000000" rx="0" ry="0" style="stroke:none;fill:#f44800;"/>
<text x="72.900000" y="46.000000" font-family="Arial" font-size="7" text-anchor="middle" fill="#FFFFFF">30</text>
<circle cx="62.900000" cy="34.000000" r="1"/>
<rect x="41.900000" y="65.000000" width="24.000000" height="24.000000" rx="0" ry="0" style="stroke:none;fill:#cccccc;"/>
<rect x="40.900000" y="64.000000" width="24.000000" height="24.000000" rx="0" ry="0" style="stroke:none;fill:#f44800;"/>
<text x="52.900000" y="78.000000" font-family="Arial" font-size="7" text-anchor="middle" fill="#FFFFFF">2</text>
<circle cx="42.900000" cy="66.000000" r="1"/>
<a xlink:href="freq2-0x7fd512824400.svg">
<rect x="41.000000" y="97.000000" width="25.800000" height="24.000000" rx="0" ry="0" style="stroke:none;fill:#cccccc;"/>
<rect x="40.000000" y="96.000000" width="25.800000" height="24.000000" rx="0" ry="0" style="stroke:none;fill:#003366;"/>
</a>
<a xlink:href="freq2-0x7fd512824400.svg">
<text x="52.900000" y="110.000000" font-family="Arial" font-size="7" text-anchor="middle" fill="#FFFFFF">freq2</text>
</a>
<circle cx="42.000000" cy="98.000000" r="1"/>
<rect x="82.800000" y="81.000000" width="24.000000" height="24.000000" rx="0" ry="0" style="stroke:none;fill:#cccccc;"/>
<rect x="81.800000" y="80.000000" width="24.000000" height="24.000000" rx="0" ry="0" style="stroke:none;fill:#4B71A1;"/>
<text x="93.800000" y="94.000000" font-family="Arial" font-size="7" text-anchor="middle" fill="#FFFFFF">*</text>
<circle cx="83.800000" cy="82.000000" r="1"/>
<line x1="78.800000" y1="87.000000" x2="81.800000" y2="88.000000"  transform="rotate(0.000000,81.800000,88.000000)" style="stroke: black; stroke-width:0.25;"/>
<line x1="78.800000" y1="89.000000" x2="81.800000" y2="88.000000"  transform="rotate(0.000000,81.800000,88.000000)" style="stroke: black; stroke-width:0.25;"/>
<line x1="78.800000" y1="95.000000" x2="81.800000" y2="96.000000"  transform="rotate(0.000000,81.800000,96.000000)" style="stroke: black; stroke-width:0.25;"/>
<line x1="78.800000" y1="97.000000" x2="81.800000" y2="96.000000"  transform="rotate(0.000000,81.800000,96.000000)" style="stroke: black; stroke-width:0.25;"/>
<rect x="122.800000" y="65.000000" width="24.000000" height="24.000000" rx="0" ry="0" style="stroke:none;fill:#cccccc;"/>
<rect x="121.800000" y="64.000000" width="24.000000" height="24.000000" rx="0" ry="0" style="stroke:none;fill:#4B71A1;"/>
<text x="133.800000" y="78.000000" font-family="Arial" font-size="7" text-anchor="middle" fill="#FFFFFF">+</text>
<circle cx="123.800000" cy="66.000000" r="1"/>
<line x1="118.800000" y1="71.000000" x2="121.800000" y2="72.000000"  transform="rotate(0.000000,121.800000,72.000000)" style="stroke: black; stroke-width:0.25;"/>
<line x1="118.800000" y1="73.000000" x2="121.800000" y2="72.000000"  transform="rotate(0.000000,121.800000,72.000000)" style="stroke: black; stroke-width:0.25;"/>
<line x1="118.800000" y1="79.000000" x2="121.800000" y2="80.000000"  transform="rotate(0.000000,121.800000,80.000000)" style="stroke: black; stroke-width:0.25;"/>
<line x1="118.800000" y1="81.000000" x2="121.800000" y2="80.000000"  transform="rotate(0.000000,121.800000,80.000000)" style="stroke: black; stroke-width:0.25;"/>
<rect x="162.800000" y="61.000000" width="24.000000" height="24.000000" rx="0" ry="0" style="stroke:none;fill:#cccccc;"/>
<rect x="161.800000" y="60.000000" width="24.000000" height="24.000000" rx="0" ry="0" style="stroke:none;fill:#4B71A1;"/>
<text x="173.800000" y="74.000000" font-family="Arial" font-size="7" text-anchor="middle" fill="#FFFFFF">&lt;=</text>
<circle cx="163.800000" cy="62.000000" r="1"/>
<line x1="158.800000" y1="67.000000" x2="161.800000" y2="68.000000"  transform="rotate(0.000000,161.800000,68.000000)" style="stroke: black; stroke-width:0.25;"/>
<line x1="158.800000" y1="69.000000" x2="161.800000" y2="68.000000"  transform="rotate(0.000000,161.800000,68.000000)" style="stroke: black; stroke-width:0.25;"/>
<line x1="158.800000" y1="75.000000" x2="161.800000" y2="76.000000"  transform="rotate(0.000000,161.800000,76.000000)" style="stroke: black; stroke-width:0.25;"/>
<line x1="158.800000" y1="77.000000" x2="161.800000" y2="76.000000"  transform="rotate(0.000000,161.800000,76.000000)" style="stroke: black; stroke-width:0.25;"/>
<rect x="81.900000" y="137.000000" width="24.000000" height="24.000000" rx="0" ry="0" style="stroke:none;fill:#cccccc;"/>
<rect x="80.900000" y="136.000000" width="24.000000" height="24.000000" rx="0" ry="0" style="stroke:none;fill:#f44800;"/>
<text x="92.900000" y="150.000000" font-family="Arial" font-size="7" text-anchor="middle" fill="#FFFFFF">30</text>
<circle cx="82.900000" cy="138.000000" r="1"/>
<rect x="61.900000" y="169.000000" width="24.000000" height="24.000000" rx="0" ry="0" style="stroke:none;fill:#cccccc;"/>
<rect x="60.900000" y="168.000000" width="24.000000" height="24.000000" rx="0" ry="0" style="stroke:none;fill:#f44800;"/>
<text x="72.900000" y="182.000000" font-family="Arial" font-size="7" text-anchor="middle" fill="#FFFFFF">2</text>
<circle cx="62.900000" cy="170.000000" r="1"/>
<a xlink:href="freq2-0x7fd512824400.svg">
<rect x="61.000000" y="201.000000" width="25.800000" height="24.000000" rx="0" ry="0" style="stroke:none;fill:#cccccc;"/>
<rect x="60.000000" y="200.000000" width="25.800000" height="24.000000" rx="0" ry="0" style="stroke:none;fill:#003366;"/>
</a>
<a xlink:href="freq2-0x7fd512824400.svg">
<text x="72.900000" y="214.000000" font-family="Arial" font-size="7" text-anchor="middle" fill="#FFFFFF">freq2</text>
</a>
<circle cx="62.000000" cy="202.000000" r="1"/>
<rect x="102.800000" y="185.000000" width="24.000000" height="24.000000" rx="0" ry="0" style="stroke:none;fill:#cccccc;"/>
<rect x="101.800000" y="184.000000" width="24.000000" height="24.000000" rx="0" ry="0" style="stroke:none;fill:#4B71A1;"/>
<text x="113.800000" y="198.000000" font-family="Arial" font-size="7" text-anchor="middle" fill="#FFFFFF">*</text>
<circle cx="103.800000" cy="186.000000" r="1"/>
<line x1="98.800000" y1="191.000000" x2="101.800000" y2="192.000000"  transform="rotate(0.000000,101.800000,192.000000)" style="stroke: black; stroke-width:0.25;"/>
<line x1="98.800000" y1="193.000000" x2="101.800000" y2="192.000000"  transform="rotate(0.000000,101.800000,192.000000)" style="stroke: black; stroke-width:0.25;"/>
<line x1="98.800000" y1="199.000000" x2="101.800000" y2="200.000000"  transform="rotate(0.000000,101.800000,200.000000)" style="stroke: black; stroke-width:0.25;"/>
<line x1="98.800000" y1="201.000000" x2="101.800000" y2="200.000000"  transform="rotate(0.000000,101.800000,200.000000)" style="stroke: black; stroke-width:0.25;"/>
<rect x="142.800000" y="169.000000" width="24.000000" height="24.000000" rx="0" ry="0" style="stroke:none;fill:#cccccc;"/>
<rect x="141.800000" y="168.000000" width="24.000000" height="24.000000" rx="0" ry="0" style="stroke:none;fill:#4B71A1;"/>
<text x="153.800000" y="182.000000" font-family="Arial" font-size="7" text-anchor="middle" fill="#FFFFFF">+</text>
<circle cx="143.800000" cy="170.000000" r="1"/>
<line x1="138.800000" y1="175.000000" x2="141.800000" y2="176.000000"  transform="rotate(0.000000,141.800000,176.000000)" style="stroke: black; stroke-width:0.25;"/>
<line x1="138.800000" y1="177.000000" x2="141.800000" y2="176.000000"  transform="rotate(0.000000,141.800000,176.000000)" style="stroke: black; stroke-width:0.25;"/>
<line x1="138.800000" y1="183.000000" x2="141.800000" y2="184.000000"  transform="rotate(0.000000,141.800000,184.000000)" style="stroke: black; stroke-width:0.25;"/>
<line x1="138.800000" y1="185.000000" x2="141.800000" y2="184.000000"  transform="rotate(0.000000,141.800000,184.000000)" style="stroke: black; stroke-width:0.25;"/>
<rect x="210.800000" y="113.000000" width="38.700000" height="24.000000" rx="0" ry="0" style="stroke:none;fill:#cccccc;"/>
<rect x="209.800000" y="112.000000" width="38.700000" height="24.000000" rx="0" ry="0" style="stroke:none;fill:#4B71A1;"/>
<text x="229.150000" y="126.000000" font-family="Arial" font-size="7" text-anchor="middle" fill="#FFFFFF">select2</text>
<circle cx="211.800000" cy="114.000000" r="1"/>
<line x1="206.800000" y1="115.000000" x2="209.800000" y2="116.000000"  transform="rotate(0.000000,209.800000,116.000000)" style="stroke: black; stroke-width:0.25;"/>
<line x1="206.800000" y1="117.000000" x2="209.800000" y2="116.000000"  transform="rotate(0.000000,209.800000,116.000000)" style="stroke: black; stroke-width:0.25;"/>
<line x1="206.800000" y1="123.000000" x2="209.800000" y2="124.000000"  transform="rotate(0.000000,209.800000,124.000000)" style="stroke: black; stroke-width:0.25;"/>
<line x1="206.800000" y1="125.000000" x2="209.800000" y2="124.000000"  transform="rotate(0.000000,209.800000,124.000000)" style="stroke: black; stroke-width:0.25;"/>
<line x1="206.800000" y1="131.000000" x2="209.800000" y2="132.000000"  transform="rotate(0.000000,209.800000,132.000000)" style="stroke: black; stroke-width:0.25;"/>
<line x1="206.800000" y1="133.000000" x2="209.800000" y2="132.000000"  transform="rotate(0.000000,209.800000,132.000000)" style="stroke: black; stroke-width:0.25;"/>
<line x1="15.000000" y1="15.000000" x2="15.000000" y2="233.000000"  style="stroke: black; stroke-linecap:round; stroke-width:0.25; stroke-dasharray:3,3;"/>
<line x1="15.000000" y1="233.000000" x2="265.500000" y2="233.000000"  style="stroke: black; stroke-linecap:round; stroke-width:0.25; stroke-dasharray:3,3;"/>
<line x1="265.500000" y1="233.000000" x2="265.500000" y2="15.000000"  style="stroke: black; stroke-linecap:round; stroke-width:0.25; stroke-dasharray:3,3;"/>
<line x1="15.000000" y1="15.000000" x2="20.000000" y2="15.000000"  style="stroke: black; stroke-linecap:round; stroke-width:0.25; stroke-dasharray:3,3;"/>
<line x1="129.650000" y1="15.000000" x2="265.500000" y2="15.000000"  style="stroke: black; stroke-linecap:round; stroke-width:0.25; stroke-dasharray:3,3;"/>
<text x="20.000000" y="17.000000" font-family="Arial" font-size="7">if(_,(30,(2,(... *) : *) : +)(_)</text>
<line x1="267.500000" y1="123.000000" x2="270.500000" y2="124.000000"  transform="rotate(0.000000,270.500000,124.000000)" style="stroke: black; stroke-width:0.25;"/>
<line x1="267.500000" y1="125.000000" x2="270.500000" y2="124.000000"  transform="rotate(0.000000,270.500000,124.000000)" style="stroke: black; stroke-width:0.25;"/>
<line x1="10.000000" y1="120.000000" x2="20.000000" y2="120.000000"  style="stroke:black; stroke-linecap:round; stroke-width:0.25;"/>
<line x1="10.000000" y1="128.000000" x2="20.000000" y2="128.000000"  style="stroke:black; stroke-linecap:round; stroke-width:0.25;"/>
<line x1="20.000000" y1="120.000000" x2="24.000000" y2="120.000000"  style="stroke:black; stroke-linecap:round; stroke-width:0.25;"/>
<line x1="20.000000" y1="128.000000" x2="24.000000" y2="128.000000"  style="stroke:black; stroke-linecap:round; stroke-width:0.25;"/>
<line x1="24.000000" y1="120.000000" x2="28.000000" y2="120.000000"  style="stroke:black; stroke-linecap:round; stroke-width:0.25;"/>
<line x1="24.000000" y1="128.000000" x2="28.000000" y2="128.000000"  style="stroke:black; stroke-linecap:round; stroke-width:0.25;"/>
<line x1="28.000000" y1="24.000000" x2="36.000000" y2="24.000000"  style="stroke:black; stroke-linecap:round; stroke-width:0.25;"/>
<line x1="28.000000" y1="120.000000" x2="28.000000" y2="24.000000"  style="stroke:black; stroke-linecap:round; stroke-width:0.25;"/>
<line x1="28.000000" y1="120.000000" x2="28.000000" y2="120.000000"  style="stroke:black; stroke-linecap:round; stroke-width:0.25;"/>
<line x1="28.000000" y1="128.000000" x2="36.000000" y2="128.000000"  style="stroke:black; stroke-linecap:round; stroke-width:0.25;"/>
<line x1="36.000000" y1="128.000000" x2="56.000000" y2="128.000000"  style="stroke:black; stroke-linecap:round; stroke-width:0.25;"/>
<line x1="36.000000" y1="24.000000" x2="92.900000" y2="24.000000"  style="stroke:black; stroke-linecap:round; stroke-width:0.25;"/>
<line x1="56.000000" y1="128.000000" x2="112.900000" y2="128.000000"  style="stroke:black; stroke-linecap:round; stroke-width:0.25;"/>
<line x1="64.900000" y1="76.000000" x2="68.900000" y2="76.000000"  style="stroke:black; stroke-linecap:round; stroke-width:0.25;"/>
<line x1="65.800000" y1="108.000000" x2="69.800000" y2="108.000000"  style="stroke:black; stroke-linecap:round; stroke-width:0.25;"/>
<line x1="68.900000" y1="76.000000" x2="69.800000" y2="76.000000"  style="stroke:black; stroke-linecap:round; stroke-width:0.25;"/>
<line x1="69.800000" y1="96.000000" x2="77.800000" y2="96.000000"  style="stroke:black; stroke-linecap:round; stroke-width:0.25;"/>
<line x1="69.800000" y1="108.000000" x2="69.800000" y2="96.000000"  style="stroke:black; stroke-linecap:round; stroke-width:0.25;"/>
<line x1="69.800000" y1="108.000000" x2="69.800000" y2="108.000000"  style="stroke:black; stroke-linecap:round; stroke-width:0.25;"/>
<line x1="69.800000" y1="76.000000" x2="77.800000" y2="76.000000"  style="stroke:black; stroke-linecap:round; stroke-width:0.25;"/>
<line x1="77.800000" y1="88.000000" x2="81.800000" y2="88.000000"  style="stroke:black; stroke-linecap:round; stroke-width:0.25;"/>
<line x1="77.800000" y1="96.000000" x2="81.800000" y2="96.000000"  style="stroke:black; stroke-linecap:round; stroke-width:0.25;"/>
<line x1="77.800000" y1="76.000000" x2="77.800000" y2="88.000000"  style="stroke:black; stroke-linecap:round; stroke-width:0.25;"/>
<line x1="77.800000" y1="88.000000" x2="77.800000" y2="88.000000"  style="stroke:black; stroke-linecap:round; stroke-width:0.25;"/>
<line x1="84.900000" y1="44.000000" x2="88.900000" y2="44.000000"  style="stroke:black; stroke-linecap:round; stroke-width:0.25;"/>
<line x1="84.900000" y1="180.000000" x2="88.900000" y2="180.000000"  style="stroke:black; stroke-linecap:round; stroke-width:0.25;"/>
<line x1="85.800000" y1="212.000000" x2="89.800000" y2="212.000000"  style="stroke:black; stroke-linecap:round; stroke-width:0.25;"/>
<line x1="88.900000" y1="44.000000" x2="109.800000" y2="44.000000"  style="stroke:black; stroke-linecap:round; stroke-width:0.25;"/>
<line x1="88.900000" y1="180.000000" x2="89.800000" y2="180.000000"  style="stroke:black; stroke-linecap:round; stroke-width:0.25;"/>
<line x1="89.800000" y1="180.000000" x2="97.800000" y2="180.000000"  style="stroke:black; stroke-linecap:round; stroke-width:0.25;"/>
<line x1="89.800000" y1="200.000000" x2="97.800000" y2="200.000000"  style="stroke:black; stroke-linecap:round; stroke-width:0.25;"/>
<line x1="89.800000" y1="212.000000" x2="89.800000" y2="200.000000"  style="stroke:black; stroke-linecap:round; stroke-width:0.25;"/>
<line x1="89.800000" y1="212.000000" x2="89.800000" y2="212.000000"  style="stroke:black; stroke-linecap:round; stroke-width:0.25;"/>
<line x1="92.900000" y1="24.000000" x2="149.800000" y2="24.000000"  style="stroke:black; stroke-linecap:round; stroke-width:0.25;"/>
<line x1="97.800000" y1="180.000000" x2="97.800000" y2="192.000000"  style="stroke:black; stroke-linecap:round; stroke-width:0.25;"/>
<line x1="97.800000" y1="192.000000" x2="97.800000" y2="192.000000"  style="stroke:black; stroke-linecap:round; stroke-width:0.25;"/>
<line x1="97.800000" y1="192.000000" x2="101.800000" y2="192.000000"  style="stroke:black; stroke-linecap:round; stroke-width:0.25;"/>
<line x1="97.800000" y1="200.000000" x2="101.800000" y2="200.000000"  style="stroke:black; stroke-linecap:round; stroke-width:0.25;"/>
<line x1="104.900000" y1="148.000000" x2="108.900000" y2="148.000000"  style="stroke:black; stroke-linecap:round; stroke-width:0.25;"/>
<line x1="105.800000" y1="92.000000" x2="109.800000" y2="92.000000"  style="stroke:black; stroke-linecap:round; stroke-width:0.25;"/>
<line x1="108.900000" y1="148.000000" x2="129.800000" y2="148.000000"  style="stroke:black; stroke-linecap:round; stroke-width:0.25;"/>
<line x1="109.800000" y1="80.000000" x2="117.800000" y2="80.000000"  style="stroke:black; stroke-linecap:round; stroke-width:0.25;"/>
<line x1="109.800000" y1="92.000000" x2="109.800000" y2="80.000000"  style="stroke:black; stroke-linecap:round; stroke-width:0.25;"/>
<line x1="109.800000" y1="92.000000" x2="109.800000" y2="92.000000"  style="stroke:black; stroke-linecap:round; stroke-width:0.25;"/>
<line x1="109.800000" y1="44.000000" x2="117.800000" y2="44.000000"  style="stroke:black; stroke-linecap:round; stroke-width:0.25;"/>
<line x1="112.900000" y1="128.000000" x2="169.800000" y2="128.000000"  style="stroke:black; stroke-linecap:round; stroke-width:0.25;"/>
<line x1="117.800000" y1="72.000000" x2="121.800000" y2="72.000000"  style="stroke:black; stroke-linecap:round; stroke-width:0.25;"/>
<line x1="117.800000" y1="80.000000" x2="121.800000" y2="80.000000"  style="stroke:black; stroke-linecap:round; stroke-width:0.25;"/>
<line x1="117.800000" y1="44.000000" x2="117.800000" y2="72.000000"  style="stroke:black; stroke-linecap:round; stroke-width:0.25;"/>
<line x1="117.800000" y1="72.000000" x2="117.800000" y2="72.000000"  style="stroke:black; stroke-linecap:round; stroke-width:0.25;"/>
<line x1="125.800000" y1="196.000000" x2="129.800000" y2="196.000000"  style="stroke:black; stroke-linecap:round; stroke-width:0.25;"/>
<line x1="129.800000" y1="148.000000" x2="137.800000" y2="148.000000"  style="stroke:black; stroke-linecap:round; stroke-width:0.25;"/>
<line x1="129.800000" y1="184.000000" x2="137.800000" y2="184.000000"  style="stroke:black; stroke-linecap:round; stroke-width:0.25;"/>
<line x1="129.800000" y1="196.000000" x2="129.800000" y2="184.000000"  style="stroke:black; stroke-linecap:round; stroke-width:0.25;"/>
<line x1="129.800000" y1="196.000000" x2="129.800000" y2="196.000000"  style="stroke:black; stroke-linecap:round; stroke-width:0.25;"/>
<line x1="137.800000" y1="148.000000" x2="137.800000" y2="176.000000"  style="stroke:black; stroke-linecap:round; stroke-width:0.25;"/>
<line x1="137.800000" y1="176.000000" x2="137.800000" y2="176.000000"  style="stroke:black; stroke-linecap:round; stroke-width:0.25;"/>
<line x1="137.800000" y1="176.000000" x2="141.800000" y2="176.000000"  style="stroke:black; stroke-linecap:round; stroke-width:0.25;"/>
<line x1="137.800000" y1="184.000000" x2="141.800000" y2="184.000000"  style="stroke:black; stroke-linecap:round; stroke-width:0.25;"/>
<line x1="145.800000" y1="76.000000" x2="149.800000" y2="76.000000"  style="stroke:black; stroke-linecap:round; stroke-width:0.25;"/>
<line x1="149.800000" y1="24.000000" x2="157.800000" y2="24.000000"  style="stroke:black; stroke-linecap:round; stroke-width:0.25;"/>
<line x1="149.800000" y1="76.000000" x2="157.800000" y2="76.000000"  style="stroke:black; stroke-linecap:round; stroke-width:0.25;"/>
<line x1="157.800000" y1="24.000000" x2="157.800000" y2="68.000000"  style="stroke:black; stroke-linecap:round; stroke-width:0.25;"/>
<line x1="157.800000" y1="68.000000" x2="157.800000" y2="68.000000"  style="stroke:black; stroke-linecap:round; stroke-width:0.25;"/>
<line x1="157.800000" y1="68.000000" x2="161.800000" y2="68.000000"  style="stroke:black; stroke-linecap:round; stroke-width:0.25;"/>
<line x1="157.800000" y1="76.000000" x2="161.800000" y2="76.000000"  style="stroke:black; stroke-linecap:round; stroke-width:0.25;"/>
<line x1="165.800000" y1="180.000000" x2="169.800000" y2="180.000000"  style="stroke:black; stroke-linecap:round; stroke-width:0.25;"/>
<line x1="169.800000" y1="128.000000" x2="189.800000" y2="128.000000"  style="stroke:black; stroke-linecap:round; stroke-width:0.25;"/>
<line x1="169.800000" y1="180.000000" x2="189.800000" y2="180.000000"  style="stroke:black; stroke-linecap:round; stroke-width:0.25;"/>
<line x1="185.800000" y1="72.000000" x2="189.800000" y2="72.000000"  style="stroke:black; stroke-linecap:round; stroke-width:0.25;"/>
<line x1="189.800000" y1="72.000000" x2="205.800000" y2="72.000000"  style="stroke:black; stroke-linecap:round; stroke-width:0.25;"/>
<line x1="189.800000" y1="124.000000" x2="205.800000" y2="124.000000"  style="stroke:black; stroke-linecap:round; stroke-width:0.25;"/>
<line x1="189.800000" y1="128.000000" x2="189.800000" y2="124.000000"  style="stroke:black; stroke-linecap:round; stroke-width:0.25;"/>
<line x1="189.800000" y1="128.000000" x2="189.800000" y2="128.000000"  style="stroke:black; stroke-linecap:round; stroke-width:0.25;"/>
<line x1="189.800000" y1="180.000000" x2="197.800000" y2="180.000000"  style="stroke:black; stroke-linecap:round; stroke-width:0.25;"/>
<line x1="197.800000" y1="132.000000" x2="205.800000" y2="132.000000"  style="stroke:black; stroke-linecap:round; stroke-width:0.25;"/>
<line x1="197.800000" y1="180.000000" x2="197.800000" y2="132.000000"  style="stroke:black; stroke-linecap:round; stroke-width:0.25;"/>
<line x1="205.800000" y1="72.000000" x2="205.800000" y2="116.000000"  style="stroke:black; stroke-linecap:round; stroke-width:0.25;"/>
<line x1="205.800000" y1="116.000000" x2="205.800000" y2="116.000000"  style="stroke:black; stroke-linecap:round; stroke-width:0.25;"/>
<line x1="205.800000" y1="116.000000" x2="209.800000" y2="116.000000"  style="stroke:black; stroke-linecap:round; stroke-width:0.25;"/>
<line x1="205.800000" y1="124.000000" x2="209.800000" y2="124.000000"  style="stroke:black; stroke-linecap:round; stroke-width:0.25;"/>
<line x1="205.800000" y1="132.000000" x2="209.800000" y2="132.000000"  style="stroke:black; stroke-linecap:round; stroke-width:0.25;"/>
<line x1="248.500000" y1="124.000000" x2="252.500000" y2="124.000000"  style="stroke:black; stroke-linecap:round; stroke-width:0.25;"/>
<line x1="252.500000" y1="124.000000" x2="252.500000" y2="124.000000"  style="stroke:black; stroke-linecap:round; stroke-width:0.25;"/>
<line x1="252.500000" y1="124.000000" x2="256.500000" y2="124.000000"  style="stroke:black; stroke-linecap:round; stroke-width:0.25;"/>
<line x1="256.500000" y1="124.000000" x2="260.500000" y2="124.000000"  style="stroke:black; stroke-linecap:round; stroke-width:0.25;"/>
<line x1="260.500000" y1="124.000000" x2="270.500000" y2="124.000000"  style="stroke:black; stroke-linecap:round; stroke-width:0.25;"/>
</svg>
