<?xml version="1.0"?>
<svg xmlns="http://www.w3.org/2000/svg" xmlns:xlink="http://www.w3.org/1999/xlink" viewBox="0 0 233.400000 164.000000" width="116.700000mm" height="82.000000mm" version="1.1">
<rect x="1.000000" y="1.000000" width="232.400000" height="163.000000" rx="0" ry="0" style="stroke:none;fill:#cccccc;"/>
<rect x="0.000000" y="0.000000" width="232.400000" height="163.000000" rx="0" ry="0" style="stroke:none;fill:#ffffff;"/>
<text x="10.000000" y="7.000000" font-family="Arial" font-size="7"></text>
<rect x="76.800000" y="117.000000" width="25.800000" height="24.000000" rx="0" ry="0" style="stroke:none;fill:#cccccc;"/>
<rect x="75.800000" y="116.000000" width="25.800000" height="24.000000" rx="0" ry="0" style="stroke:none;fill:#f44800;"/>
<text x="88.700000" y="130.000000" font-family="Arial" font-size="7" text-anchor="middle" fill="#FFFFFF">0.01f</text>
<circle cx="77.800000" cy="118.000000" r="1"/>
<rect x="118.600000" y="113.000000" width="24.000000" height="24.000000" rx="0" ry="0" style="stroke:none;fill:#cccccc;"/>
<rect x="117.600000" y="112.000000" width="24.000000" height="24.000000" rx="0" ry="0" style="stroke:none;fill:#4B71A1;"/>
<text x="129.600000" y="126.000000" font-family="Arial" font-size="7" text-anchor="middle" fill="#FFFFFF">+</text>
<circle cx="119.600000" cy="114.000000" r="1"/>
<line x1="114.600000" y1="119.000000" x2="117.600000" y2="120.000000"  transform="rotate(0.000000,117.600000,120.000000)" style="stroke: black; stroke-width:0.25;"/>
<line x1="114.600000" y1="121.000000" x2="117.600000" y2="120.000000"  transform="rotate(0.000000,117.600000,120.000000)" style="stroke: black; stroke-width:0.25;"/>
<line x1="114.600000" y1="127.000000" x2="117.600000" y2="128.000000"  transform="rotate(0.000000,117.600000,128.000000)" style="stroke: black; stroke-width:0.25;"/>
<line x1="114.600000" y1="129.000000" x2="117.600000" y2="128.000000"  transform="rotate(0.000000,117.600000,128.000000)" style="stroke: black; stroke-width:0.25;"/>
<rect x="150.600000" y="51.000000" width="25.800000" height="24.000000" rx="0" ry="0" style="stroke:none;fill:#cccccc;"/>
<rect x="149.600000" y="50.000000" width="25.800000" height="24.000000" rx="0" ry="0" style="stroke:none;fill:#47945E;"/>
<text x="162.500000" y="64.000000" font-family="Arial" font-size="7" text-anchor="middle" fill="#FFFFFF">[1] n</text>
<circle cx="173.400000" cy="72.000000" r="1"/>
<line x1="178.400000" y1="61.000000" x2="175.400000" y2="62.000000"  transform="rotate(0.000000,175.400000,62.000000)" style="stroke: black; stroke-width:0.25;"/>
<line x1="178.400000" y1="63.000000" x2="175.400000" y2="62.000000"  transform="rotate(0.000000,175.400000,62.000000)" style="stroke: black; stroke-width:0.25;"/>
<rect x="99.900000" y="67.000000" width="25.800000" height="24.000000" rx="0" ry="0" style="stroke:none;fill:#cccccc;"/>
<rect x="98.900000" y="66.000000" width="25.800000" height="24.000000" rx="0" ry="0" style="stroke:none;fill:#47945E;"/>
<text x="111.800000" y="80.000000" font-family="Arial" font-size="7" text-anchor="middle" fill="#FFFFFF">[1] n</text>
<circle cx="122.700000" cy="88.000000" r="1"/>
<rect x="116.800000" y="35.000000" width="25.800000" height="24.000000" rx="0" ry="0" style="stroke:none;fill:#cccccc;"/>
<rect x="115.800000" y="34.000000" width="25.800000" height="24.000000" rx="0" ry="0" style="stroke:none;fill:#47945E;"/>
<text x="128.700000" y="48.000000" font-family="Arial" font-size="7" text-anchor="middle" fill="#FFFFFF">[1] n</text>
<circle cx="139.600000" cy="56.000000" r="1"/>
<rect x="83.000000" y="35.000000" width="25.800000" height="24.000000" rx="0" ry="0" style="stroke:none;fill:#cccccc;"/>
<rect x="82.000000" y="34.000000" width="25.800000" height="24.000000" rx="0" ry="0" style="stroke:none;fill:#4B71A1;"/>
<text x="94.900000" y="48.000000" font-family="Arial" font-size="7" text-anchor="middle" fill="#FFFFFF">floor</text>
<circle cx="105.800000" cy="56.000000" r="1"/>
<line x1="110.800000" y1="45.000000" x2="107.800000" y2="46.000000"  transform="rotate(0.000000,107.800000,46.000000)" style="stroke: black; stroke-width:0.25;"/>
<line x1="110.800000" y1="47.000000" x2="107.800000" y2="46.000000"  transform="rotate(0.000000,107.800000,46.000000)" style="stroke: black; stroke-width:0.25;"/>
<rect x="43.000000" y="51.000000" width="24.000000" height="24.000000" rx="0" ry="0" style="stroke:none;fill:#cccccc;"/>
<rect x="42.000000" y="50.000000" width="24.000000" height="24.000000" rx="0" ry="0" style="stroke:none;fill:#4B71A1;"/>
<text x="54.000000" y="64.000000" font-family="Arial" font-size="7" text-anchor="middle" fill="#FFFFFF">-</text>
<circle cx="64.000000" cy="72.000000" r="1"/>
<line x1="69.000000" y1="65.000000" x2="66.000000" y2="66.000000"  transform="rotate(0.000000,66.000000,66.000000)" style="stroke: black; stroke-width:0.25;"/>
<line x1="69.000000" y1="67.000000" x2="66.000000" y2="66.000000"  transform="rotate(0.000000,66.000000,66.000000)" style="stroke: black; stroke-width:0.25;"/>
<line x1="69.000000" y1="57.000000" x2="66.000000" y2="58.000000"  transform="rotate(0.000000,66.000000,58.000000)" style="stroke: black; stroke-width:0.25;"/>
<line x1="69.000000" y1="59.000000" x2="66.000000" y2="58.000000"  transform="rotate(0.000000,66.000000,58.000000)" style="stroke: black; stroke-width:0.25;"/>
<line x1="33.000000" y1="25.000000" x2="33.000000" y2="99.000000"  style="stroke: black; stroke-linecap:round; stroke-width:0.25; stroke-dasharray:3,3;"/>
<line x1="33.000000" y1="99.000000" x2="184.400000" y2="99.000000"  style="stroke: black; stroke-linecap:round; stroke-width:0.25; stroke-dasharray:3,3;"/>
<line x1="184.400000" y1="99.000000" x2="184.400000" y2="25.000000"  style="stroke: black; stroke-linecap:round; stroke-width:0.25; stroke-dasharray:3,3;"/>
<line x1="33.000000" y1="25.000000" x2="38.000000" y2="25.000000"  style="stroke: black; stroke-linecap:round; stroke-width:0.25; stroke-dasharray:3,3;"/>
<line x1="67.025000" y1="25.000000" x2="184.400000" y2="25.000000"  style="stroke: black; stroke-linecap:round; stroke-width:0.25; stroke-dasharray:3,3;"/>
<text x="38.000000" y="27.000000" font-family="Arial" font-size="7">decimal</text>
<line x1="187.400000" y1="124.000000" x2="187.400000" y2="120.000000"  style="stroke:black; stroke-linecap:round; stroke-width:0.25;"/>
<line x1="187.400000" y1="120.000000" x2="191.400000" y2="120.000000"  style="stroke:black; stroke-linecap:round; stroke-width:0.25;"/>
<line x1="191.400000" y1="120.000000" x2="191.400000" y2="124.000000"  style="stroke:black; stroke-linecap:round; stroke-width:0.25;"/>
<line x1="15.000000" y1="15.000000" x2="15.000000" y2="149.000000"  style="stroke: black; stroke-linecap:round; stroke-width:0.25; stroke-dasharray:3,3;"/>
<line x1="15.000000" y1="149.000000" x2="218.400000" y2="149.000000"  style="stroke: black; stroke-linecap:round; stroke-width:0.25; stroke-dasharray:3,3;"/>
<line x1="218.400000" y1="149.000000" x2="218.400000" y2="15.000000"  style="stroke: black; stroke-linecap:round; stroke-width:0.25; stroke-dasharray:3,3;"/>
<line x1="15.000000" y1="15.000000" x2="20.000000" y2="15.000000"  style="stroke: black; stroke-linecap:round; stroke-width:0.25; stroke-dasharray:3,3;"/>
<line x1="49.025000" y1="15.000000" x2="218.400000" y2="15.000000"  style="stroke: black; stroke-linecap:round; stroke-width:0.25; stroke-dasharray:3,3;"/>
<text x="20.000000" y="17.000000" font-family="Arial" font-size="7">process</text>
<line x1="220.400000" y1="81.000000" x2="223.400000" y2="82.000000"  transform="rotate(0.000000,223.400000,82.000000)" style="stroke: black; stroke-width:0.25;"/>
<line x1="220.400000" y1="83.000000" x2="223.400000" y2="82.000000"  transform="rotate(0.000000,223.400000,82.000000)" style="stroke: black; stroke-width:0.25;"/>
<line x1="28.000000" y1="108.000000" x2="71.800000" y2="108.000000"  style="stroke:black; stroke-linecap:round; stroke-width:0.25;"/>
<line x1="28.000000" y1="62.000000" x2="28.000000" y2="62.000000"  style="stroke:black; stroke-linecap:round; stroke-width:0.25;"/>
<line x1="28.000000" y1="62.000000" x2="28.000000" y2="108.000000"  style="stroke:black; stroke-linecap:round; stroke-width:0.25;"/>
<line x1="28.000000" y1="108.000000" x2="28.000000" y2="108.000000"  style="stroke:black; stroke-linecap:round; stroke-width:0.25;"/>
<line x1="38.000000" y1="62.000000" x2="28.000000" y2="62.000000"  style="stroke:black; stroke-linecap:round; stroke-width:0.25;"/>
<line x1="42.000000" y1="62.000000" x2="38.000000" y2="62.000000"  style="stroke:black; stroke-linecap:round; stroke-width:0.25;"/>
<line x1="70.000000" y1="58.000000" x2="66.000000" y2="58.000000"  style="stroke:black; stroke-linecap:round; stroke-width:0.25;"/>
<line x1="70.000000" y1="66.000000" x2="66.000000" y2="66.000000"  style="stroke:black; stroke-linecap:round; stroke-width:0.25;"/>
<line x1="70.000000" y1="66.000000" x2="70.000000" y2="66.000000"  style="stroke:black; stroke-linecap:round; stroke-width:0.25;"/>
<line x1="70.000000" y1="78.000000" x2="70.000000" y2="66.000000"  style="stroke:black; stroke-linecap:round; stroke-width:0.25;"/>
<line x1="71.800000" y1="108.000000" x2="88.700000" y2="108.000000"  style="stroke:black; stroke-linecap:round; stroke-width:0.25;"/>
<line x1="78.000000" y1="46.000000" x2="78.000000" y2="46.000000"  style="stroke:black; stroke-linecap:round; stroke-width:0.25;"/>
<line x1="78.000000" y1="46.000000" x2="78.000000" y2="58.000000"  style="stroke:black; stroke-linecap:round; stroke-width:0.25;"/>
<line x1="78.000000" y1="58.000000" x2="70.000000" y2="58.000000"  style="stroke:black; stroke-linecap:round; stroke-width:0.25;"/>
<line x1="78.000000" y1="78.000000" x2="70.000000" y2="78.000000"  style="stroke:black; stroke-linecap:round; stroke-width:0.25;"/>
<line x1="82.000000" y1="46.000000" x2="78.000000" y2="46.000000"  style="stroke:black; stroke-linecap:round; stroke-width:0.25;"/>
<line x1="88.700000" y1="108.000000" x2="105.600000" y2="108.000000"  style="stroke:black; stroke-linecap:round; stroke-width:0.25;"/>
<line x1="94.900000" y1="78.000000" x2="78.000000" y2="78.000000"  style="stroke:black; stroke-linecap:round; stroke-width:0.25;"/>
<line x1="98.900000" y1="78.000000" x2="94.900000" y2="78.000000"  style="stroke:black; stroke-linecap:round; stroke-width:0.25;"/>
<line x1="101.600000" y1="128.000000" x2="105.600000" y2="128.000000"  style="stroke:black; stroke-linecap:round; stroke-width:0.25;"/>
<line x1="105.600000" y1="128.000000" x2="113.600000" y2="128.000000"  style="stroke:black; stroke-linecap:round; stroke-width:0.25;"/>
<line x1="105.600000" y1="108.000000" x2="113.600000" y2="108.000000"  style="stroke:black; stroke-linecap:round; stroke-width:0.25;"/>
<line x1="111.800000" y1="46.000000" x2="107.800000" y2="46.000000"  style="stroke:black; stroke-linecap:round; stroke-width:0.25;"/>
<line x1="111.800000" y1="46.000000" x2="111.800000" y2="46.000000"  style="stroke:black; stroke-linecap:round; stroke-width:0.25;"/>
<line x1="113.600000" y1="120.000000" x2="117.600000" y2="120.000000"  style="stroke:black; stroke-linecap:round; stroke-width:0.25;"/>
<line x1="113.600000" y1="128.000000" x2="117.600000" y2="128.000000"  style="stroke:black; stroke-linecap:round; stroke-width:0.25;"/>
<line x1="113.600000" y1="108.000000" x2="113.600000" y2="120.000000"  style="stroke:black; stroke-linecap:round; stroke-width:0.25;"/>
<line x1="113.600000" y1="120.000000" x2="113.600000" y2="120.000000"  style="stroke:black; stroke-linecap:round; stroke-width:0.25;"/>
<line x1="115.800000" y1="46.000000" x2="111.800000" y2="46.000000"  style="stroke:black; stroke-linecap:round; stroke-width:0.25;"/>
<line x1="141.600000" y1="124.000000" x2="145.600000" y2="124.000000"  style="stroke:black; stroke-linecap:round; stroke-width:0.25;"/>
<line x1="145.600000" y1="124.000000" x2="189.400000" y2="124.000000"  style="stroke:black; stroke-linecap:round; stroke-width:0.25;"/>
<line x1="179.400000" y1="62.000000" x2="175.400000" y2="62.000000"  style="stroke:black; stroke-linecap:round; stroke-width:0.25;"/>
<line x1="189.400000" y1="62.000000" x2="189.400000" y2="62.000000"  style="stroke:black; stroke-linecap:round; stroke-width:0.25;"/>
<line x1="189.400000" y1="120.000000" x2="189.400000" y2="62.000000"  style="stroke:black; stroke-linecap:round; stroke-width:0.25;"/>
<line x1="189.400000" y1="124.000000" x2="191.400000" y2="124.000000"  style="stroke:black; stroke-linecap:round; stroke-width:0.25;"/>
<line x1="189.400000" y1="62.000000" x2="179.400000" y2="62.000000"  style="stroke:black; stroke-linecap:round; stroke-width:0.25;"/>
<line x1="191.400000" y1="124.000000" x2="197.400000" y2="124.000000"  style="stroke:black; stroke-linecap:round; stroke-width:0.25;"/>
<line x1="197.400000" y1="82.000000" x2="205.400000" y2="82.000000"  style="stroke:black; stroke-linecap:round; stroke-width:0.25;"/>
<line x1="197.400000" y1="124.000000" x2="197.400000" y2="82.000000"  style="stroke:black; stroke-linecap:round; stroke-width:0.25;"/>
<line x1="197.400000" y1="124.000000" x2="197.400000" y2="124.000000"  style="stroke:black; stroke-linecap:round; stroke-width:0.25;"/>
<line x1="205.400000" y1="82.000000" x2="209.400000" y2="82.000000"  style="stroke:black; stroke-linecap:round; stroke-width:0.25;"/>
<line x1="209.400000" y1="82.000000" x2="213.400000" y2="82.000000"  style="stroke:black; stroke-linecap:round; stroke-width:0.25;"/>
<line x1="213.400000" y1="82.000000" x2="223.400000" y2="82.000000"  style="stroke:black; stroke-linecap:round; stroke-width:0.25;"/>
</svg>
