<?xml version="1.0"?>
<svg xmlns="http://www.w3.org/2000/svg" xmlns:xlink="http://www.w3.org/1999/xlink" viewBox="0 0 333.700000 152.000000" width="166.850000mm" height="76.000000mm" version="1.1">
<a xlink:href="stg-0x7f7f309721b0.svg">
<rect x="1.000000" y="1.000000" width="332.700000" height="151.000000" rx="0" ry="0" style="stroke:none;fill:#cccccc;"/>
<rect x="0.000000" y="0.000000" width="332.700000" height="151.000000" rx="0" ry="0" style="stroke:none;fill:#ffffff;"/>
</a>
<text x="10.000000" y="7.000000" font-family="Arial" font-size="7"></text>
<rect x="91.000000" y="45.000000" width="129.000000" height="24.000000" rx="0" ry="0" style="stroke:none;fill:#cccccc;"/>
<rect x="90.000000" y="44.000000" width="129.000000" height="24.000000" rx="0" ry="0" style="stroke:none;fill:#477881;"/>
<text x="154.500000" y="58.000000" font-family="Arial" font-size="7" text-anchor="middle" fill="#FFFFFF">checkbox(Bypass Spectral Tilt)</text>
<circle cx="92.000000" cy="46.000000" r="1"/>
<line x1="81.000000" y1="35.000000" x2="81.000000" y2="77.000000"  style="stroke: black; stroke-linecap:round; stroke-width:0.25; stroke-dasharray:3,3;"/>
<line x1="81.000000" y1="77.000000" x2="228.000000" y2="77.000000"  style="stroke: black; stroke-linecap:round; stroke-width:0.25; stroke-dasharray:3,3;"/>
<line x1="228.000000" y1="77.000000" x2="228.000000" y2="35.000000"  style="stroke: black; stroke-linecap:round; stroke-width:0.25; stroke-dasharray:3,3;"/>
<line x1="81.000000" y1="35.000000" x2="86.000000" y2="35.000000"  style="stroke: black; stroke-linecap:round; stroke-width:0.25; stroke-dasharray:3,3;"/>
<line x1="182.750000" y1="35.000000" x2="228.000000" y2="35.000000"  style="stroke: black; stroke-linecap:round; stroke-width:0.25; stroke-dasharray:3,3;"/>
<text x="86.000000" y="37.000000" font-family="Arial" font-size="7">vgroup(Spectral Tilt Filter)</text>
<line x1="71.000000" y1="25.000000" x2="71.000000" y2="87.000000"  style="stroke: black; stroke-linecap:round; stroke-width:0.25; stroke-dasharray:3,3;"/>
<line x1="71.000000" y1="87.000000" x2="238.000000" y2="87.000000"  style="stroke: black; stroke-linecap:round; stroke-width:0.25; stroke-dasharray:3,3;"/>
<line x1="238.000000" y1="87.000000" x2="238.000000" y2="25.000000"  style="stroke: black; stroke-linecap:round; stroke-width:0.25; stroke-dasharray:3,3;"/>
<line x1="71.000000" y1="25.000000" x2="76.000000" y2="25.000000"  style="stroke: black; stroke-linecap:round; stroke-width:0.25; stroke-dasharray:3,3;"/>
<line x1="88.900000" y1="25.000000" x2="238.000000" y2="25.000000"  style="stroke: black; stroke-linecap:round; stroke-width:0.25; stroke-dasharray:3,3;"/>
<text x="76.000000" y="27.000000" font-family="Arial" font-size="7">bp</text>
<a xlink:href="inswitch-0x7f7f30940d60.svg">
<rect x="80.550000" y="97.000000" width="38.700000" height="24.000000" rx="0" ry="0" style="stroke:none;fill:#cccccc;"/>
<rect x="79.550000" y="96.000000" width="38.700000" height="24.000000" rx="0" ry="0" style="stroke:none;fill:#003366;"/>
</a>
<a xlink:href="inswitch-0x7f7f30940d60.svg">
<text x="98.900000" y="110.000000" font-family="Arial" font-size="7" text-anchor="middle" fill="#FFFFFF">inswitch</text>
</a>
<circle cx="81.550000" cy="98.000000" r="1"/>
<line x1="76.550000" y1="107.000000" x2="79.550000" y2="108.000000"  transform="rotate(0.000000,79.550000,108.000000)" style="stroke: black; stroke-width:0.25;"/>
<line x1="76.550000" y1="109.000000" x2="79.550000" y2="108.000000"  transform="rotate(0.000000,79.550000,108.000000)" style="stroke: black; stroke-width:0.25;"/>
<a xlink:href="spectral-0x7f7f30913490.svg">
<rect x="127.250000" y="97.000000" width="103.200000" height="24.000000" rx="0" ry="0" style="stroke:none;fill:#cccccc;"/>
<rect x="126.250000" y="96.000000" width="103.200000" height="24.000000" rx="0" ry="0" style="stroke:none;fill:#003366;"/>
</a>
<a xlink:href="spectral-0x7f7f30913490.svg">
<text x="177.850000" y="110.000000" font-family="Arial" font-size="7" text-anchor="middle" fill="#FFFFFF">spectral_tilt_demo(10)</text>
</a>
<circle cx="128.250000" cy="98.000000" r="1"/>
<line x1="123.250000" y1="107.000000" x2="126.250000" y2="108.000000"  transform="rotate(0.000000,126.250000,108.000000)" style="stroke: black; stroke-width:0.25;"/>
<line x1="123.250000" y1="109.000000" x2="126.250000" y2="108.000000"  transform="rotate(0.000000,126.250000,108.000000)" style="stroke: black; stroke-width:0.25;"/>
<rect x="264.000000" y="65.000000" width="38.700000" height="24.000000" rx="0" ry="0" style="stroke:none;fill:#cccccc;"/>
<rect x="263.000000" y="64.000000" width="38.700000" height="24.000000" rx="0" ry="0" style="stroke:none;fill:#4B71A1;"/>
<text x="282.350000" y="78.000000" font-family="Arial" font-size="7" text-anchor="middle" fill="#FFFFFF">select2</text>
<circle cx="265.000000" cy="66.000000" r="1"/>
<line x1="260.000000" y1="67.000000" x2="263.000000" y2="68.000000"  transform="rotate(0.000000,263.000000,68.000000)" style="stroke: black; stroke-width:0.25;"/>
<line x1="260.000000" y1="69.000000" x2="263.000000" y2="68.000000"  transform="rotate(0.000000,263.000000,68.000000)" style="stroke: black; stroke-width:0.25;"/>
<line x1="260.000000" y1="75.000000" x2="263.000000" y2="76.000000"  transform="rotate(0.000000,263.000000,76.000000)" style="stroke: black; stroke-width:0.25;"/>
<line x1="260.000000" y1="77.000000" x2="263.000000" y2="76.000000"  transform="rotate(0.000000,263.000000,76.000000)" style="stroke: black; stroke-width:0.25;"/>
<line x1="260.000000" y1="83.000000" x2="263.000000" y2="84.000000"  transform="rotate(0.000000,263.000000,84.000000)" style="stroke: black; stroke-width:0.25;"/>
<line x1="260.000000" y1="85.000000" x2="263.000000" y2="84.000000"  transform="rotate(0.000000,263.000000,84.000000)" style="stroke: black; stroke-width:0.25;"/>
<line x1="15.000000" y1="15.000000" x2="15.000000" y2="137.000000"  style="stroke: black; stroke-linecap:round; stroke-width:0.25; stroke-dasharray:3,3;"/>
<line x1="15.000000" y1="137.000000" x2="318.700000" y2="137.000000"  style="stroke: black; stroke-linecap:round; stroke-width:0.25; stroke-dasharray:3,3;"/>
<line x1="318.700000" y1="137.000000" x2="318.700000" y2="15.000000"  style="stroke: black; stroke-linecap:round; stroke-width:0.25; stroke-dasharray:3,3;"/>
<line x1="15.000000" y1="15.000000" x2="20.000000" y2="15.000000"  style="stroke: black; stroke-linecap:round; stroke-width:0.25; stroke-dasharray:3,3;"/>
<line x1="119.975000" y1="15.000000" x2="318.700000" y2="15.000000"  style="stroke: black; stroke-linecap:round; stroke-width:0.25; stroke-dasharray:3,3;"/>
<text x="20.000000" y="17.000000" font-family="Arial" font-size="7">bypass1(vgrou...-) : *)) : *)</text>
<line x1="320.700000" y1="75.000000" x2="323.700000" y2="76.000000"  transform="rotate(0.000000,323.700000,76.000000)" style="stroke: black; stroke-width:0.25;"/>
<line x1="320.700000" y1="77.000000" x2="323.700000" y2="76.000000"  transform="rotate(0.000000,323.700000,76.000000)" style="stroke: black; stroke-width:0.25;"/>
<line x1="10.000000" y1="76.000000" x2="20.000000" y2="76.000000"  style="stroke:black; stroke-linecap:round; stroke-width:0.25;"/>
<line x1="20.000000" y1="76.000000" x2="24.000000" y2="76.000000"  style="stroke:black; stroke-linecap:round; stroke-width:0.25;"/>
<line x1="24.000000" y1="76.000000" x2="28.000000" y2="76.000000"  style="stroke:black; stroke-linecap:round; stroke-width:0.25;"/>
<line x1="28.000000" y1="76.000000" x2="28.000000" y2="76.000000"  style="stroke:black; stroke-linecap:round; stroke-width:0.25;"/>
<line x1="28.000000" y1="76.000000" x2="32.000000" y2="76.000000"  style="stroke:black; stroke-linecap:round; stroke-width:0.25;"/>
<line x1="32.000000" y1="76.000000" x2="36.000000" y2="76.000000"  style="stroke:black; stroke-linecap:round; stroke-width:0.25;"/>
<line x1="36.000000" y1="76.000000" x2="66.000000" y2="108.000000"  style="stroke:black; stroke-linecap:round; stroke-width:0.25;"/>
<line x1="36.000000" y1="76.000000" x2="66.000000" y2="128.000000"  style="stroke:black; stroke-linecap:round; stroke-width:0.25;"/>
<line x1="66.000000" y1="108.000000" x2="75.550000" y2="108.000000"  style="stroke:black; stroke-linecap:round; stroke-width:0.25;"/>
<line x1="66.000000" y1="128.000000" x2="75.550000" y2="128.000000"  style="stroke:black; stroke-linecap:round; stroke-width:0.25;"/>
<line x1="75.550000" y1="108.000000" x2="79.550000" y2="108.000000"  style="stroke:black; stroke-linecap:round; stroke-width:0.25;"/>
<line x1="75.550000" y1="128.000000" x2="154.500000" y2="128.000000"  style="stroke:black; stroke-linecap:round; stroke-width:0.25;"/>
<line x1="118.250000" y1="108.000000" x2="122.250000" y2="108.000000"  style="stroke:black; stroke-linecap:round; stroke-width:0.25;"/>
<line x1="122.250000" y1="108.000000" x2="122.250000" y2="108.000000"  style="stroke:black; stroke-linecap:round; stroke-width:0.25;"/>
<line x1="122.250000" y1="108.000000" x2="126.250000" y2="108.000000"  style="stroke:black; stroke-linecap:round; stroke-width:0.25;"/>
<line x1="154.500000" y1="128.000000" x2="233.450000" y2="128.000000"  style="stroke:black; stroke-linecap:round; stroke-width:0.25;"/>
<line x1="219.000000" y1="56.000000" x2="223.000000" y2="56.000000"  style="stroke:black; stroke-linecap:round; stroke-width:0.25;"/>
<line x1="223.000000" y1="56.000000" x2="233.000000" y2="56.000000"  style="stroke:black; stroke-linecap:round; stroke-width:0.25;"/>
<line x1="229.450000" y1="108.000000" x2="233.450000" y2="108.000000"  style="stroke:black; stroke-linecap:round; stroke-width:0.25;"/>
<line x1="233.000000" y1="56.000000" x2="243.000000" y2="56.000000"  style="stroke:black; stroke-linecap:round; stroke-width:0.25;"/>
<line x1="233.450000" y1="108.000000" x2="243.000000" y2="108.000000"  style="stroke:black; stroke-linecap:round; stroke-width:0.25;"/>
<line x1="233.450000" y1="128.000000" x2="243.000000" y2="128.000000"  style="stroke:black; stroke-linecap:round; stroke-width:0.25;"/>
<line x1="243.000000" y1="56.000000" x2="259.000000" y2="56.000000"  style="stroke:black; stroke-linecap:round; stroke-width:0.25;"/>
<line x1="243.000000" y1="76.000000" x2="259.000000" y2="76.000000"  style="stroke:black; stroke-linecap:round; stroke-width:0.25;"/>
<line x1="243.000000" y1="108.000000" x2="243.000000" y2="76.000000"  style="stroke:black; stroke-linecap:round; stroke-width:0.25;"/>
<line x1="243.000000" y1="108.000000" x2="243.000000" y2="108.000000"  style="stroke:black; stroke-linecap:round; stroke-width:0.25;"/>
<line x1="243.000000" y1="128.000000" x2="251.000000" y2="128.000000"  style="stroke:black; stroke-linecap:round; stroke-width:0.25;"/>
<line x1="251.000000" y1="84.000000" x2="259.000000" y2="84.000000"  style="stroke:black; stroke-linecap:round; stroke-width:0.25;"/>
<line x1="251.000000" y1="128.000000" x2="251.000000" y2="84.000000"  style="stroke:black; stroke-linecap:round; stroke-width:0.25;"/>
<line x1="259.000000" y1="56.000000" x2="259.000000" y2="68.000000"  style="stroke:black; stroke-linecap:round; stroke-width:0.25;"/>
<line x1="259.000000" y1="68.000000" x2="259.000000" y2="68.000000"  style="stroke:black; stroke-linecap:round; stroke-width:0.25;"/>
<line x1="259.000000" y1="68.000000" x2="263.000000" y2="68.000000"  style="stroke:black; stroke-linecap:round; stroke-width:0.25;"/>
<line x1="259.000000" y1="76.000000" x2="263.000000" y2="76.000000"  style="stroke:black; stroke-linecap:round; stroke-width:0.25;"/>
<line x1="259.000000" y1="84.000000" x2="263.000000" y2="84.000000"  style="stroke:black; stroke-linecap:round; stroke-width:0.25;"/>
<line x1="301.700000" y1="76.000000" x2="305.700000" y2="76.000000"  style="stroke:black; stroke-linecap:round; stroke-width:0.25;"/>
<line x1="305.700000" y1="76.000000" x2="305.700000" y2="76.000000"  style="stroke:black; stroke-linecap:round; stroke-width:0.25;"/>
<line x1="305.700000" y1="76.000000" x2="309.700000" y2="76.000000"  style="stroke:black; stroke-linecap:round; stroke-width:0.25;"/>
<line x1="309.700000" y1="76.000000" x2="313.700000" y2="76.000000"  style="stroke:black; stroke-linecap:round; stroke-width:0.25;"/>
<line x1="313.700000" y1="76.000000" x2="323.700000" y2="76.000000"  style="stroke:black; stroke-linecap:round; stroke-width:0.25;"/>
</svg>
