<?xml version="1.0"?>
<svg xmlns="http://www.w3.org/2000/svg" xmlns:xlink="http://www.w3.org/1999/xlink" viewBox="0 0 545.600000 260.000000" width="272.800000mm" height="130.000000mm" version="1.1">
<a xlink:href="b0-0x7f7f3073a820.svg">
<rect x="1.000000" y="1.000000" width="544.600000" height="259.000000" rx="0" ry="0" style="stroke:none;fill:#cccccc;"/>
<rect x="0.000000" y="0.000000" width="544.600000" height="259.000000" rx="0" ry="0" style="stroke:none;fill:#ffffff;"/>
</a>
<text x="10.000000" y="7.000000" font-family="Arial" font-size="7"></text>
<a xlink:href="w0-0x7f7f30497c10.svg">
<rect x="237.800000" y="25.000000" width="24.000000" height="24.000000" rx="0" ry="0" style="stroke:none;fill:#cccccc;"/>
<rect x="236.800000" y="24.000000" width="24.000000" height="24.000000" rx="0" ry="0" style="stroke:none;fill:#003366;"/>
</a>
<a xlink:href="w0-0x7f7f30497c10.svg">
<text x="248.800000" y="38.000000" font-family="Arial" font-size="7" text-anchor="middle" fill="#FFFFFF">w0</text>
</a>
<circle cx="238.800000" cy="26.000000" r="1"/>
<a xlink:href="r-0x7f7f304a21d0.svg">
<rect x="217.800000" y="57.000000" width="24.000000" height="24.000000" rx="0" ry="0" style="stroke:none;fill:#cccccc;"/>
<rect x="216.800000" y="56.000000" width="24.000000" height="24.000000" rx="0" ry="0" style="stroke:none;fill:#003366;"/>
</a>
<a xlink:href="r-0x7f7f304a21d0.svg">
<text x="228.800000" y="70.000000" font-family="Arial" font-size="7" text-anchor="middle" fill="#FFFFFF">r</text>
</a>
<circle cx="218.800000" cy="58.000000" r="1"/>
<rect x="177.800000" y="99.000000" width="24.000000" height="24.000000" rx="0" ry="0" style="stroke:none;fill:#cccccc;"/>
<rect x="176.800000" y="98.000000" width="24.000000" height="24.000000" rx="0" ry="0" style="stroke:none;fill:#f44800;"/>
<text x="188.800000" y="112.000000" font-family="Arial" font-size="7" text-anchor="middle" fill="#FFFFFF">0</text>
<circle cx="178.800000" cy="100.000000" r="1"/>
<line x1="167.800000" y1="89.000000" x2="167.800000" y2="131.000000"  style="stroke: black; stroke-linecap:round; stroke-width:0.25; stroke-dasharray:3,3;"/>
<line x1="167.800000" y1="131.000000" x2="209.800000" y2="131.000000"  style="stroke: black; stroke-linecap:round; stroke-width:0.25; stroke-dasharray:3,3;"/>
<line x1="209.800000" y1="131.000000" x2="209.800000" y2="89.000000"  style="stroke: black; stroke-linecap:round; stroke-width:0.25; stroke-dasharray:3,3;"/>
<line x1="167.800000" y1="89.000000" x2="172.800000" y2="89.000000"  style="stroke: black; stroke-linecap:round; stroke-width:0.25; stroke-dasharray:3,3;"/>
<line x1="188.925000" y1="89.000000" x2="209.800000" y2="89.000000"  style="stroke: black; stroke-linecap:round; stroke-width:0.25; stroke-dasharray:3,3;"/>
<text x="172.800000" y="91.000000" font-family="Arial" font-size="7">b13</text>
<rect x="35.000000" y="151.000000" width="309.600000" height="24.000000" rx="0" ry="0" style="stroke:none;fill:#cccccc;"/>
<rect x="34.000000" y="150.000000" width="309.600000" height="24.000000" rx="0" ry="0" style="stroke:none;fill:#477881;"/>
<text x="188.800000" y="164.000000" font-family="Arial" font-size="7" text-anchor="middle" fill="#FFFFFF">hslider(Slope of Spectral Tilt across Band, -0.5f, -1.0f, 1.0f, 0.001f)</text>
<circle cx="36.000000" cy="152.000000" r="1"/>
<line x1="25.000000" y1="141.000000" x2="25.000000" y2="183.000000"  style="stroke: black; stroke-linecap:round; stroke-width:0.25; stroke-dasharray:3,3;"/>
<line x1="25.000000" y1="183.000000" x2="352.600000" y2="183.000000"  style="stroke: black; stroke-linecap:round; stroke-width:0.25; stroke-dasharray:3,3;"/>
<line x1="352.600000" y1="183.000000" x2="352.600000" y2="141.000000"  style="stroke: black; stroke-linecap:round; stroke-width:0.25; stroke-dasharray:3,3;"/>
<line x1="25.000000" y1="141.000000" x2="30.000000" y2="141.000000"  style="stroke: black; stroke-linecap:round; stroke-width:0.25; stroke-dasharray:3,3;"/>
<line x1="52.575000" y1="141.000000" x2="352.600000" y2="141.000000"  style="stroke: black; stroke-linecap:round; stroke-width:0.25; stroke-dasharray:3,3;"/>
<text x="30.000000" y="143.000000" font-family="Arial" font-size="7">alpha</text>
<rect x="370.600000" y="125.000000" width="24.000000" height="24.000000" rx="0" ry="0" style="stroke:none;fill:#cccccc;"/>
<rect x="369.600000" y="124.000000" width="24.000000" height="24.000000" rx="0" ry="0" style="stroke:none;fill:#4B71A1;"/>
<text x="381.600000" y="138.000000" font-family="Arial" font-size="7" text-anchor="middle" fill="#FFFFFF">-</text>
<circle cx="371.600000" cy="126.000000" r="1"/>
<line x1="366.600000" y1="131.000000" x2="369.600000" y2="132.000000"  transform="rotate(0.000000,369.600000,132.000000)" style="stroke: black; stroke-width:0.25;"/>
<line x1="366.600000" y1="133.000000" x2="369.600000" y2="132.000000"  transform="rotate(0.000000,369.600000,132.000000)" style="stroke: black; stroke-width:0.25;"/>
<line x1="366.600000" y1="139.000000" x2="369.600000" y2="140.000000"  transform="rotate(0.000000,369.600000,140.000000)" style="stroke: black; stroke-width:0.25;"/>
<line x1="366.600000" y1="141.000000" x2="369.600000" y2="140.000000"  transform="rotate(0.000000,369.600000,140.000000)" style="stroke: black; stroke-width:0.25;"/>
<rect x="197.800000" y="203.000000" width="24.000000" height="24.000000" rx="0" ry="0" style="stroke:none;fill:#cccccc;"/>
<rect x="196.800000" y="202.000000" width="24.000000" height="24.000000" rx="0" ry="0" style="stroke:none;fill:#f44800;"/>
<text x="208.800000" y="216.000000" font-family="Arial" font-size="7" text-anchor="middle" fill="#FFFFFF">3</text>
<circle cx="198.800000" cy="204.000000" r="1"/>
<line x1="187.800000" y1="193.000000" x2="187.800000" y2="235.000000"  style="stroke: black; stroke-linecap:round; stroke-width:0.25; stroke-dasharray:3,3;"/>
<line x1="187.800000" y1="235.000000" x2="229.800000" y2="235.000000"  style="stroke: black; stroke-linecap:round; stroke-width:0.25; stroke-dasharray:3,3;"/>
<line x1="229.800000" y1="235.000000" x2="229.800000" y2="193.000000"  style="stroke: black; stroke-linecap:round; stroke-width:0.25; stroke-dasharray:3,3;"/>
<line x1="187.800000" y1="193.000000" x2="192.800000" y2="193.000000"  style="stroke: black; stroke-linecap:round; stroke-width:0.25; stroke-dasharray:3,3;"/>
<line x1="205.700000" y1="193.000000" x2="229.800000" y2="193.000000"  style="stroke: black; stroke-linecap:round; stroke-width:0.25; stroke-dasharray:3,3;"/>
<text x="192.800000" y="195.000000" font-family="Arial" font-size="7">Nc</text>
<rect x="410.600000" y="151.000000" width="24.000000" height="24.000000" rx="0" ry="0" style="stroke:none;fill:#cccccc;"/>
<rect x="409.600000" y="150.000000" width="24.000000" height="24.000000" rx="0" ry="0" style="stroke:none;fill:#4B71A1;"/>
<text x="421.600000" y="164.000000" font-family="Arial" font-size="7" text-anchor="middle" fill="#FFFFFF">+</text>
<circle cx="411.600000" cy="152.000000" r="1"/>
<line x1="406.600000" y1="157.000000" x2="409.600000" y2="158.000000"  transform="rotate(0.000000,409.600000,158.000000)" style="stroke: black; stroke-width:0.25;"/>
<line x1="406.600000" y1="159.000000" x2="409.600000" y2="158.000000"  transform="rotate(0.000000,409.600000,158.000000)" style="stroke: black; stroke-width:0.25;"/>
<line x1="406.600000" y1="165.000000" x2="409.600000" y2="166.000000"  transform="rotate(0.000000,409.600000,166.000000)" style="stroke: black; stroke-width:0.25;"/>
<line x1="406.600000" y1="167.000000" x2="409.600000" y2="166.000000"  transform="rotate(0.000000,409.600000,166.000000)" style="stroke: black; stroke-width:0.25;"/>
<rect x="450.600000" y="135.000000" width="24.000000" height="24.000000" rx="0" ry="0" style="stroke:none;fill:#cccccc;"/>
<rect x="449.600000" y="134.000000" width="24.000000" height="24.000000" rx="0" ry="0" style="stroke:none;fill:#4B71A1;"/>
<text x="461.600000" y="148.000000" font-family="Arial" font-size="7" text-anchor="middle" fill="#FFFFFF">pow</text>
<circle cx="451.600000" cy="136.000000" r="1"/>
<line x1="446.600000" y1="141.000000" x2="449.600000" y2="142.000000"  transform="rotate(0.000000,449.600000,142.000000)" style="stroke: black; stroke-width:0.25;"/>
<line x1="446.600000" y1="143.000000" x2="449.600000" y2="142.000000"  transform="rotate(0.000000,449.600000,142.000000)" style="stroke: black; stroke-width:0.25;"/>
<line x1="446.600000" y1="149.000000" x2="449.600000" y2="150.000000"  transform="rotate(0.000000,449.600000,150.000000)" style="stroke: black; stroke-width:0.25;"/>
<line x1="446.600000" y1="151.000000" x2="449.600000" y2="150.000000"  transform="rotate(0.000000,449.600000,150.000000)" style="stroke: black; stroke-width:0.25;"/>
<rect x="490.600000" y="119.000000" width="24.000000" height="24.000000" rx="0" ry="0" style="stroke:none;fill:#cccccc;"/>
<rect x="489.600000" y="118.000000" width="24.000000" height="24.000000" rx="0" ry="0" style="stroke:none;fill:#4B71A1;"/>
<text x="501.600000" y="132.000000" font-family="Arial" font-size="7" text-anchor="middle" fill="#FFFFFF">*</text>
<circle cx="491.600000" cy="120.000000" r="1"/>
<line x1="486.600000" y1="125.000000" x2="489.600000" y2="126.000000"  transform="rotate(0.000000,489.600000,126.000000)" style="stroke: black; stroke-width:0.25;"/>
<line x1="486.600000" y1="127.000000" x2="489.600000" y2="126.000000"  transform="rotate(0.000000,489.600000,126.000000)" style="stroke: black; stroke-width:0.25;"/>
<line x1="486.600000" y1="133.000000" x2="489.600000" y2="134.000000"  transform="rotate(0.000000,489.600000,134.000000)" style="stroke: black; stroke-width:0.25;"/>
<line x1="486.600000" y1="135.000000" x2="489.600000" y2="134.000000"  transform="rotate(0.000000,489.600000,134.000000)" style="stroke: black; stroke-width:0.25;"/>
<line x1="15.000000" y1="15.000000" x2="15.000000" y2="245.000000"  style="stroke: black; stroke-linecap:round; stroke-width:0.25; stroke-dasharray:3,3;"/>
<line x1="15.000000" y1="245.000000" x2="530.600000" y2="245.000000"  style="stroke: black; stroke-linecap:round; stroke-width:0.25; stroke-dasharray:3,3;"/>
<line x1="530.600000" y1="245.000000" x2="530.600000" y2="15.000000"  style="stroke: black; stroke-linecap:round; stroke-width:0.25; stroke-dasharray:3,3;"/>
<line x1="15.000000" y1="15.000000" x2="20.000000" y2="15.000000"  style="stroke: black; stroke-linecap:round; stroke-width:0.25; stroke-dasharray:3,3;"/>
<line x1="42.575000" y1="15.000000" x2="530.600000" y2="15.000000"  style="stroke: black; stroke-linecap:round; stroke-width:0.25; stroke-dasharray:3,3;"/>
<text x="20.000000" y="17.000000" font-family="Arial" font-size="7">mz(3)</text>
<line x1="532.600000" y1="129.000000" x2="535.600000" y2="130.000000"  transform="rotate(0.000000,535.600000,130.000000)" style="stroke: black; stroke-width:0.25;"/>
<line x1="532.600000" y1="131.000000" x2="535.600000" y2="130.000000"  transform="rotate(0.000000,535.600000,130.000000)" style="stroke: black; stroke-width:0.25;"/>
<line x1="200.800000" y1="110.000000" x2="204.800000" y2="110.000000"  style="stroke:black; stroke-linecap:round; stroke-width:0.25;"/>
<line x1="204.800000" y1="110.000000" x2="214.800000" y2="110.000000"  style="stroke:black; stroke-linecap:round; stroke-width:0.25;"/>
<line x1="214.800000" y1="110.000000" x2="357.600000" y2="110.000000"  style="stroke:black; stroke-linecap:round; stroke-width:0.25;"/>
<line x1="220.800000" y1="214.000000" x2="224.800000" y2="214.000000"  style="stroke:black; stroke-linecap:round; stroke-width:0.25;"/>
<line x1="224.800000" y1="214.000000" x2="234.800000" y2="214.000000"  style="stroke:black; stroke-linecap:round; stroke-width:0.25;"/>
<line x1="234.800000" y1="214.000000" x2="397.600000" y2="214.000000"  style="stroke:black; stroke-linecap:round; stroke-width:0.25;"/>
<line x1="240.800000" y1="68.000000" x2="244.800000" y2="68.000000"  style="stroke:black; stroke-linecap:round; stroke-width:0.25;"/>
<line x1="244.800000" y1="68.000000" x2="437.600000" y2="68.000000"  style="stroke:black; stroke-linecap:round; stroke-width:0.25;"/>
<line x1="260.800000" y1="36.000000" x2="264.800000" y2="36.000000"  style="stroke:black; stroke-linecap:round; stroke-width:0.25;"/>
<line x1="264.800000" y1="36.000000" x2="477.600000" y2="36.000000"  style="stroke:black; stroke-linecap:round; stroke-width:0.25;"/>
<line x1="343.600000" y1="162.000000" x2="347.600000" y2="162.000000"  style="stroke:black; stroke-linecap:round; stroke-width:0.25;"/>
<line x1="347.600000" y1="162.000000" x2="357.600000" y2="162.000000"  style="stroke:black; stroke-linecap:round; stroke-width:0.25;"/>
<line x1="357.600000" y1="110.000000" x2="365.600000" y2="110.000000"  style="stroke:black; stroke-linecap:round; stroke-width:0.25;"/>
<line x1="357.600000" y1="140.000000" x2="365.600000" y2="140.000000"  style="stroke:black; stroke-linecap:round; stroke-width:0.25;"/>
<line x1="357.600000" y1="162.000000" x2="357.600000" y2="140.000000"  style="stroke:black; stroke-linecap:round; stroke-width:0.25;"/>
<line x1="357.600000" y1="162.000000" x2="357.600000" y2="162.000000"  style="stroke:black; stroke-linecap:round; stroke-width:0.25;"/>
<line x1="365.600000" y1="110.000000" x2="365.600000" y2="132.000000"  style="stroke:black; stroke-linecap:round; stroke-width:0.25;"/>
<line x1="365.600000" y1="132.000000" x2="365.600000" y2="132.000000"  style="stroke:black; stroke-linecap:round; stroke-width:0.25;"/>
<line x1="365.600000" y1="132.000000" x2="369.600000" y2="132.000000"  style="stroke:black; stroke-linecap:round; stroke-width:0.25;"/>
<line x1="365.600000" y1="140.000000" x2="369.600000" y2="140.000000"  style="stroke:black; stroke-linecap:round; stroke-width:0.25;"/>
<line x1="393.600000" y1="136.000000" x2="397.600000" y2="136.000000"  style="stroke:black; stroke-linecap:round; stroke-width:0.25;"/>
<line x1="397.600000" y1="136.000000" x2="405.600000" y2="136.000000"  style="stroke:black; stroke-linecap:round; stroke-width:0.25;"/>
<line x1="397.600000" y1="166.000000" x2="405.600000" y2="166.000000"  style="stroke:black; stroke-linecap:round; stroke-width:0.25;"/>
<line x1="397.600000" y1="214.000000" x2="397.600000" y2="166.000000"  style="stroke:black; stroke-linecap:round; stroke-width:0.25;"/>
<line x1="397.600000" y1="214.000000" x2="397.600000" y2="214.000000"  style="stroke:black; stroke-linecap:round; stroke-width:0.25;"/>
<line x1="405.600000" y1="136.000000" x2="405.600000" y2="158.000000"  style="stroke:black; stroke-linecap:round; stroke-width:0.25;"/>
<line x1="405.600000" y1="158.000000" x2="405.600000" y2="158.000000"  style="stroke:black; stroke-linecap:round; stroke-width:0.25;"/>
<line x1="405.600000" y1="158.000000" x2="409.600000" y2="158.000000"  style="stroke:black; stroke-linecap:round; stroke-width:0.25;"/>
<line x1="405.600000" y1="166.000000" x2="409.600000" y2="166.000000"  style="stroke:black; stroke-linecap:round; stroke-width:0.25;"/>
<line x1="433.600000" y1="162.000000" x2="437.600000" y2="162.000000"  style="stroke:black; stroke-linecap:round; stroke-width:0.25;"/>
<line x1="437.600000" y1="68.000000" x2="445.600000" y2="68.000000"  style="stroke:black; stroke-linecap:round; stroke-width:0.25;"/>
<line x1="437.600000" y1="150.000000" x2="445.600000" y2="150.000000"  style="stroke:black; stroke-linecap:round; stroke-width:0.25;"/>
<line x1="437.600000" y1="162.000000" x2="437.600000" y2="150.000000"  style="stroke:black; stroke-linecap:round; stroke-width:0.25;"/>
<line x1="437.600000" y1="162.000000" x2="437.600000" y2="162.000000"  style="stroke:black; stroke-linecap:round; stroke-width:0.25;"/>
<line x1="445.600000" y1="68.000000" x2="445.600000" y2="142.000000"  style="stroke:black; stroke-linecap:round; stroke-width:0.25;"/>
<line x1="445.600000" y1="142.000000" x2="445.600000" y2="142.000000"  style="stroke:black; stroke-linecap:round; stroke-width:0.25;"/>
<line x1="445.600000" y1="142.000000" x2="449.600000" y2="142.000000"  style="stroke:black; stroke-linecap:round; stroke-width:0.25;"/>
<line x1="445.600000" y1="150.000000" x2="449.600000" y2="150.000000"  style="stroke:black; stroke-linecap:round; stroke-width:0.25;"/>
<line x1="473.600000" y1="146.000000" x2="477.600000" y2="146.000000"  style="stroke:black; stroke-linecap:round; stroke-width:0.25;"/>
<line x1="477.600000" y1="36.000000" x2="485.600000" y2="36.000000"  style="stroke:black; stroke-linecap:round; stroke-width:0.25;"/>
<line x1="477.600000" y1="134.000000" x2="485.600000" y2="134.000000"  style="stroke:black; stroke-linecap:round; stroke-width:0.25;"/>
<line x1="477.600000" y1="146.000000" x2="477.600000" y2="134.000000"  style="stroke:black; stroke-linecap:round; stroke-width:0.25;"/>
<line x1="477.600000" y1="146.000000" x2="477.600000" y2="146.000000"  style="stroke:black; stroke-linecap:round; stroke-width:0.25;"/>
<line x1="485.600000" y1="36.000000" x2="485.600000" y2="126.000000"  style="stroke:black; stroke-linecap:round; stroke-width:0.25;"/>
<line x1="485.600000" y1="126.000000" x2="485.600000" y2="126.000000"  style="stroke:black; stroke-linecap:round; stroke-width:0.25;"/>
<line x1="485.600000" y1="126.000000" x2="489.600000" y2="126.000000"  style="stroke:black; stroke-linecap:round; stroke-width:0.25;"/>
<line x1="485.600000" y1="134.000000" x2="489.600000" y2="134.000000"  style="stroke:black; stroke-linecap:round; stroke-width:0.25;"/>
<line x1="513.600000" y1="130.000000" x2="517.600000" y2="130.000000"  style="stroke:black; stroke-linecap:round; stroke-width:0.25;"/>
<line x1="517.600000" y1="130.000000" x2="517.600000" y2="130.000000"  style="stroke:black; stroke-linecap:round; stroke-width:0.25;"/>
<line x1="517.600000" y1="130.000000" x2="521.600000" y2="130.000000"  style="stroke:black; stroke-linecap:round; stroke-width:0.25;"/>
<line x1="521.600000" y1="130.000000" x2="525.600000" y2="130.000000"  style="stroke:black; stroke-linecap:round; stroke-width:0.25;"/>
<line x1="525.600000" y1="130.000000" x2="535.600000" y2="130.000000"  style="stroke:black; stroke-linecap:round; stroke-width:0.25;"/>
</svg>
