<?xml version="1.0"?>
<svg xmlns="http://www.w3.org/2000/svg" xmlns:xlink="http://www.w3.org/1999/xlink" viewBox="0 0 261.800000 140.000000" width="130.900000mm" height="70.000000mm" version="1.1">
<a xlink:href="modelChain-0x7fbf64b085e0.svg">
<rect x="1.000000" y="1.000000" width="260.800000" height="139.000000" rx="0" ry="0" style="stroke:none;fill:#cccccc;"/>
<rect x="0.000000" y="0.000000" width="260.800000" height="139.000000" rx="0" ry="0" style="stroke:none;fill:#ffffff;"/>
</a>
<text x="10.000000" y="7.000000" font-family="Arial" font-size="7"></text>
<line x1="65.000000" y1="57.000000" x2="65.000000" y2="99.000000"  style="stroke: black; stroke-linecap:round; stroke-width:0.25; stroke-dasharray:3,3;"/>
<line x1="65.000000" y1="99.000000" x2="107.000000" y2="99.000000"  style="stroke: black; stroke-linecap:round; stroke-width:0.25; stroke-dasharray:3,3;"/>
<line x1="107.000000" y1="99.000000" x2="107.000000" y2="57.000000"  style="stroke: black; stroke-linecap:round; stroke-width:0.25; stroke-dasharray:3,3;"/>
<line x1="65.000000" y1="57.000000" x2="70.000000" y2="57.000000"  style="stroke: black; stroke-linecap:round; stroke-width:0.25; stroke-dasharray:3,3;"/>
<line x1="107.000000" y1="57.000000" x2="107.000000" y2="57.000000"  style="stroke: black; stroke-linecap:round; stroke-width:0.25; stroke-dasharray:3,3;"/>
<text x="70.000000" y="59.000000" font-family="Arial" font-size="7">crossnn(1)</text>
<rect x="133.000000" y="75.000000" width="24.000000" height="24.000000" rx="0" ry="0" style="stroke:none;fill:#cccccc;"/>
<rect x="132.000000" y="74.000000" width="24.000000" height="24.000000" rx="0" ry="0" style="stroke:none;fill:#4B71A1;"/>
<text x="144.000000" y="88.000000" font-family="Arial" font-size="7" text-anchor="middle" fill="#FFFFFF">+</text>
<circle cx="134.000000" cy="76.000000" r="1"/>
<line x1="129.000000" y1="81.000000" x2="132.000000" y2="82.000000"  transform="rotate(0.000000,132.000000,82.000000)" style="stroke: black; stroke-width:0.25;"/>
<line x1="129.000000" y1="83.000000" x2="132.000000" y2="82.000000"  transform="rotate(0.000000,132.000000,82.000000)" style="stroke: black; stroke-width:0.25;"/>
<line x1="129.000000" y1="89.000000" x2="132.000000" y2="90.000000"  transform="rotate(0.000000,132.000000,90.000000)" style="stroke: black; stroke-width:0.25;"/>
<line x1="129.000000" y1="91.000000" x2="132.000000" y2="90.000000"  transform="rotate(0.000000,132.000000,90.000000)" style="stroke: black; stroke-width:0.25;"/>
<a xlink:href="in-0x7fbf62174010.svg">
<rect x="173.000000" y="75.000000" width="25.800000" height="24.000000" rx="0" ry="0" style="stroke:none;fill:#cccccc;"/>
<rect x="172.000000" y="74.000000" width="25.800000" height="24.000000" rx="0" ry="0" style="stroke:none;fill:#003366;"/>
</a>
<a xlink:href="in-0x7fbf62174010.svg">
<text x="184.900000" y="88.000000" font-family="Arial" font-size="7" text-anchor="middle" fill="#FFFFFF">in(x2)</text>
</a>
<circle cx="174.000000" cy="76.000000" r="1"/>
<line x1="169.000000" y1="77.000000" x2="172.000000" y2="78.000000"  transform="rotate(0.000000,172.000000,78.000000)" style="stroke: black; stroke-width:0.25;"/>
<line x1="169.000000" y1="79.000000" x2="172.000000" y2="78.000000"  transform="rotate(0.000000,172.000000,78.000000)" style="stroke: black; stroke-width:0.25;"/>
<line x1="169.000000" y1="85.000000" x2="172.000000" y2="86.000000"  transform="rotate(0.000000,172.000000,86.000000)" style="stroke: black; stroke-width:0.25;"/>
<line x1="169.000000" y1="87.000000" x2="172.000000" y2="86.000000"  transform="rotate(0.000000,172.000000,86.000000)" style="stroke: black; stroke-width:0.25;"/>
<line x1="169.000000" y1="93.000000" x2="172.000000" y2="94.000000"  transform="rotate(0.000000,172.000000,94.000000)" style="stroke: black; stroke-width:0.25;"/>
<line x1="169.000000" y1="95.000000" x2="172.000000" y2="94.000000"  transform="rotate(0.000000,172.000000,94.000000)" style="stroke: black; stroke-width:0.25;"/>
<a xlink:href="reedInteraction-0x7fbf62180080.svg">
<rect x="99.650000" y="25.000000" width="64.500000" height="24.000000" rx="0" ry="0" style="stroke:none;fill:#cccccc;"/>
<rect x="98.650000" y="24.000000" width="64.500000" height="24.000000" rx="0" ry="0" style="stroke:none;fill:#003366;"/>
</a>
<a xlink:href="reedInteraction-0x7fbf62180080.svg">
<text x="130.900000" y="38.000000" font-family="Arial" font-size="7" text-anchor="middle" fill="#FFFFFF">reedInteraction</text>
</a>
<circle cx="161.150000" cy="46.000000" r="1"/>
<line x1="166.150000" y1="35.000000" x2="163.150000" y2="36.000000"  transform="rotate(0.000000,163.150000,36.000000)" style="stroke: black; stroke-width:0.25;"/>
<line x1="166.150000" y1="37.000000" x2="163.150000" y2="36.000000"  transform="rotate(0.000000,163.150000,36.000000)" style="stroke: black; stroke-width:0.25;"/>
<line x1="199.800000" y1="78.000000" x2="199.800000" y2="74.000000"  style="stroke:black; stroke-linecap:round; stroke-width:0.25;"/>
<line x1="199.800000" y1="74.000000" x2="203.800000" y2="74.000000"  style="stroke:black; stroke-linecap:round; stroke-width:0.25;"/>
<line x1="203.800000" y1="74.000000" x2="203.800000" y2="78.000000"  style="stroke:black; stroke-linecap:round; stroke-width:0.25;"/>
<line x1="15.000000" y1="15.000000" x2="15.000000" y2="125.000000"  style="stroke: black; stroke-linecap:round; stroke-width:0.25; stroke-dasharray:3,3;"/>
<line x1="15.000000" y1="125.000000" x2="246.800000" y2="125.000000"  style="stroke: black; stroke-linecap:round; stroke-width:0.25; stroke-dasharray:3,3;"/>
<line x1="246.800000" y1="125.000000" x2="246.800000" y2="15.000000"  style="stroke: black; stroke-linecap:round; stroke-width:0.25; stroke-dasharray:3,3;"/>
<line x1="15.000000" y1="15.000000" x2="20.000000" y2="15.000000"  style="stroke: black; stroke-linecap:round; stroke-width:0.25; stroke-dasharray:3,3;"/>
<line x1="132.875000" y1="15.000000" x2="246.800000" y2="15.000000"  style="stroke: black; stroke-linecap:round; stroke-width:0.25; stroke-dasharray:3,3;"/>
<text x="20.000000" y="17.000000" font-family="Arial" font-size="7">clarinetMouth...,0.999f : *))(x2)</text>
<line x1="248.800000" y1="61.000000" x2="251.800000" y2="62.000000"  transform="rotate(0.000000,251.800000,62.000000)" style="stroke: black; stroke-width:0.25;"/>
<line x1="248.800000" y1="63.000000" x2="251.800000" y2="62.000000"  transform="rotate(0.000000,251.800000,62.000000)" style="stroke: black; stroke-width:0.25;"/>
<line x1="248.800000" y1="69.000000" x2="251.800000" y2="70.000000"  transform="rotate(0.000000,251.800000,70.000000)" style="stroke: black; stroke-width:0.25;"/>
<line x1="248.800000" y1="71.000000" x2="251.800000" y2="70.000000"  transform="rotate(0.000000,251.800000,70.000000)" style="stroke: black; stroke-width:0.25;"/>
<line x1="248.800000" y1="77.000000" x2="251.800000" y2="78.000000"  transform="rotate(0.000000,251.800000,78.000000)" style="stroke: black; stroke-width:0.25;"/>
<line x1="248.800000" y1="79.000000" x2="251.800000" y2="78.000000"  transform="rotate(0.000000,251.800000,78.000000)" style="stroke: black; stroke-width:0.25;"/>
<line x1="10.000000" y1="62.000000" x2="20.000000" y2="62.000000"  style="stroke:black; stroke-linecap:round; stroke-width:0.25;"/>
<line x1="10.000000" y1="70.000000" x2="20.000000" y2="70.000000"  style="stroke:black; stroke-linecap:round; stroke-width:0.25;"/>
<line x1="10.000000" y1="78.000000" x2="20.000000" y2="78.000000"  style="stroke:black; stroke-linecap:round; stroke-width:0.25;"/>
<line x1="20.000000" y1="62.000000" x2="24.000000" y2="62.000000"  style="stroke:black; stroke-linecap:round; stroke-width:0.25;"/>
<line x1="20.000000" y1="70.000000" x2="24.000000" y2="70.000000"  style="stroke:black; stroke-linecap:round; stroke-width:0.25;"/>
<line x1="20.000000" y1="78.000000" x2="24.000000" y2="78.000000"  style="stroke:black; stroke-linecap:round; stroke-width:0.25;"/>
<line x1="24.000000" y1="62.000000" x2="28.000000" y2="62.000000"  style="stroke:black; stroke-linecap:round; stroke-width:0.25;"/>
<line x1="24.000000" y1="70.000000" x2="28.000000" y2="70.000000"  style="stroke:black; stroke-linecap:round; stroke-width:0.25;"/>
<line x1="24.000000" y1="78.000000" x2="28.000000" y2="78.000000"  style="stroke:black; stroke-linecap:round; stroke-width:0.25;"/>
<line x1="28.000000" y1="62.000000" x2="52.000000" y2="62.000000"  style="stroke:black; stroke-linecap:round; stroke-width:0.25;"/>
<line x1="28.000000" y1="70.000000" x2="44.000000" y2="70.000000"  style="stroke:black; stroke-linecap:round; stroke-width:0.25;"/>
<line x1="28.000000" y1="78.000000" x2="36.000000" y2="78.000000"  style="stroke:black; stroke-linecap:round; stroke-width:0.25;"/>
<line x1="36.000000" y1="78.000000" x2="36.000000" y2="116.000000"  style="stroke:black; stroke-linecap:round; stroke-width:0.25;"/>
<line x1="36.000000" y1="116.000000" x2="52.000000" y2="116.000000"  style="stroke:black; stroke-linecap:round; stroke-width:0.25;"/>
<line x1="44.000000" y1="70.000000" x2="44.000000" y2="108.000000"  style="stroke:black; stroke-linecap:round; stroke-width:0.25;"/>
<line x1="44.000000" y1="108.000000" x2="52.000000" y2="108.000000"  style="stroke:black; stroke-linecap:round; stroke-width:0.25;"/>
<line x1="52.000000" y1="62.000000" x2="52.000000" y2="82.000000"  style="stroke:black; stroke-linecap:round; stroke-width:0.25;"/>
<line x1="52.000000" y1="82.000000" x2="52.000000" y2="82.000000"  style="stroke:black; stroke-linecap:round; stroke-width:0.25;"/>
<line x1="52.000000" y1="82.000000" x2="60.000000" y2="82.000000"  style="stroke:black; stroke-linecap:round; stroke-width:0.25;"/>
<line x1="52.000000" y1="108.000000" x2="60.000000" y2="108.000000"  style="stroke:black; stroke-linecap:round; stroke-width:0.25;"/>
<line x1="52.000000" y1="116.000000" x2="60.000000" y2="116.000000"  style="stroke:black; stroke-linecap:round; stroke-width:0.25;"/>
<line x1="60.000000" y1="36.000000" x2="60.000000" y2="36.000000"  style="stroke:black; stroke-linecap:round; stroke-width:0.25;"/>
<line x1="60.000000" y1="36.000000" x2="60.000000" y2="74.000000"  style="stroke:black; stroke-linecap:round; stroke-width:0.25;"/>
<line x1="60.000000" y1="74.000000" x2="60.000000" y2="74.000000"  style="stroke:black; stroke-linecap:round; stroke-width:0.25;"/>
<line x1="60.000000" y1="74.000000" x2="70.000000" y2="74.000000"  style="stroke:black; stroke-linecap:round; stroke-width:0.25;"/>
<line x1="60.000000" y1="82.000000" x2="70.000000" y2="82.000000"  style="stroke:black; stroke-linecap:round; stroke-width:0.25;"/>
<line x1="60.000000" y1="108.000000" x2="86.000000" y2="108.000000"  style="stroke:black; stroke-linecap:round; stroke-width:0.25;"/>
<line x1="60.000000" y1="116.000000" x2="86.000000" y2="116.000000"  style="stroke:black; stroke-linecap:round; stroke-width:0.25;"/>
<line x1="70.000000" y1="74.000000" x2="74.000000" y2="74.000000"  style="stroke:black; stroke-linecap:round; stroke-width:0.25;"/>
<line x1="70.000000" y1="82.000000" x2="74.000000" y2="82.000000"  style="stroke:black; stroke-linecap:round; stroke-width:0.25;"/>
<line x1="74.000000" y1="74.000000" x2="98.000000" y2="82.000000"  style="stroke:black; stroke-linecap:round; stroke-width:0.25;"/>
<line x1="74.000000" y1="82.000000" x2="98.000000" y2="74.000000"  style="stroke:black; stroke-linecap:round; stroke-width:0.25;"/>
<line x1="86.000000" y1="108.000000" x2="112.000000" y2="108.000000"  style="stroke:black; stroke-linecap:round; stroke-width:0.25;"/>
<line x1="86.000000" y1="116.000000" x2="112.000000" y2="116.000000"  style="stroke:black; stroke-linecap:round; stroke-width:0.25;"/>
<line x1="94.650000" y1="36.000000" x2="60.000000" y2="36.000000"  style="stroke:black; stroke-linecap:round; stroke-width:0.25;"/>
<line x1="98.000000" y1="74.000000" x2="102.000000" y2="74.000000"  style="stroke:black; stroke-linecap:round; stroke-width:0.25;"/>
<line x1="98.000000" y1="82.000000" x2="102.000000" y2="82.000000"  style="stroke:black; stroke-linecap:round; stroke-width:0.25;"/>
<line x1="98.650000" y1="36.000000" x2="94.650000" y2="36.000000"  style="stroke:black; stroke-linecap:round; stroke-width:0.25;"/>
<line x1="102.000000" y1="74.000000" x2="112.000000" y2="74.000000"  style="stroke:black; stroke-linecap:round; stroke-width:0.25;"/>
<line x1="102.000000" y1="82.000000" x2="112.000000" y2="82.000000"  style="stroke:black; stroke-linecap:round; stroke-width:0.25;"/>
<line x1="112.000000" y1="66.000000" x2="128.000000" y2="66.000000"  style="stroke:black; stroke-linecap:round; stroke-width:0.25;"/>
<line x1="112.000000" y1="74.000000" x2="112.000000" y2="66.000000"  style="stroke:black; stroke-linecap:round; stroke-width:0.25;"/>
<line x1="112.000000" y1="74.000000" x2="112.000000" y2="74.000000"  style="stroke:black; stroke-linecap:round; stroke-width:0.25;"/>
<line x1="112.000000" y1="82.000000" x2="128.000000" y2="82.000000"  style="stroke:black; stroke-linecap:round; stroke-width:0.25;"/>
<line x1="112.000000" y1="90.000000" x2="128.000000" y2="90.000000"  style="stroke:black; stroke-linecap:round; stroke-width:0.25;"/>
<line x1="112.000000" y1="108.000000" x2="112.000000" y2="90.000000"  style="stroke:black; stroke-linecap:round; stroke-width:0.25;"/>
<line x1="112.000000" y1="108.000000" x2="112.000000" y2="108.000000"  style="stroke:black; stroke-linecap:round; stroke-width:0.25;"/>
<line x1="112.000000" y1="116.000000" x2="120.000000" y2="116.000000"  style="stroke:black; stroke-linecap:round; stroke-width:0.25;"/>
<line x1="120.000000" y1="106.000000" x2="128.000000" y2="106.000000"  style="stroke:black; stroke-linecap:round; stroke-width:0.25;"/>
<line x1="120.000000" y1="116.000000" x2="120.000000" y2="106.000000"  style="stroke:black; stroke-linecap:round; stroke-width:0.25;"/>
<line x1="128.000000" y1="66.000000" x2="144.000000" y2="66.000000"  style="stroke:black; stroke-linecap:round; stroke-width:0.25;"/>
<line x1="128.000000" y1="82.000000" x2="132.000000" y2="82.000000"  style="stroke:black; stroke-linecap:round; stroke-width:0.25;"/>
<line x1="128.000000" y1="90.000000" x2="132.000000" y2="90.000000"  style="stroke:black; stroke-linecap:round; stroke-width:0.25;"/>
<line x1="128.000000" y1="106.000000" x2="144.000000" y2="106.000000"  style="stroke:black; stroke-linecap:round; stroke-width:0.25;"/>
<line x1="144.000000" y1="66.000000" x2="160.000000" y2="66.000000"  style="stroke:black; stroke-linecap:round; stroke-width:0.25;"/>
<line x1="144.000000" y1="106.000000" x2="160.000000" y2="106.000000"  style="stroke:black; stroke-linecap:round; stroke-width:0.25;"/>
<line x1="156.000000" y1="86.000000" x2="160.000000" y2="86.000000"  style="stroke:black; stroke-linecap:round; stroke-width:0.25;"/>
<line x1="160.000000" y1="66.000000" x2="168.000000" y2="66.000000"  style="stroke:black; stroke-linecap:round; stroke-width:0.25;"/>
<line x1="160.000000" y1="86.000000" x2="168.000000" y2="86.000000"  style="stroke:black; stroke-linecap:round; stroke-width:0.25;"/>
<line x1="160.000000" y1="94.000000" x2="168.000000" y2="94.000000"  style="stroke:black; stroke-linecap:round; stroke-width:0.25;"/>
<line x1="160.000000" y1="106.000000" x2="160.000000" y2="94.000000"  style="stroke:black; stroke-linecap:round; stroke-width:0.25;"/>
<line x1="160.000000" y1="106.000000" x2="160.000000" y2="106.000000"  style="stroke:black; stroke-linecap:round; stroke-width:0.25;"/>
<line x1="167.150000" y1="36.000000" x2="163.150000" y2="36.000000"  style="stroke:black; stroke-linecap:round; stroke-width:0.25;"/>
<line x1="168.000000" y1="66.000000" x2="168.000000" y2="78.000000"  style="stroke:black; stroke-linecap:round; stroke-width:0.25;"/>
<line x1="168.000000" y1="78.000000" x2="168.000000" y2="78.000000"  style="stroke:black; stroke-linecap:round; stroke-width:0.25;"/>
<line x1="168.000000" y1="78.000000" x2="172.000000" y2="78.000000"  style="stroke:black; stroke-linecap:round; stroke-width:0.25;"/>
<line x1="168.000000" y1="86.000000" x2="172.000000" y2="86.000000"  style="stroke:black; stroke-linecap:round; stroke-width:0.25;"/>
<line x1="168.000000" y1="94.000000" x2="172.000000" y2="94.000000"  style="stroke:black; stroke-linecap:round; stroke-width:0.25;"/>
<line x1="197.800000" y1="78.000000" x2="201.800000" y2="78.000000"  style="stroke:black; stroke-linecap:round; stroke-width:0.25;"/>
<line x1="197.800000" y1="86.000000" x2="201.800000" y2="86.000000"  style="stroke:black; stroke-linecap:round; stroke-width:0.25;"/>
<line x1="197.800000" y1="94.000000" x2="201.800000" y2="94.000000"  style="stroke:black; stroke-linecap:round; stroke-width:0.25;"/>
<line x1="201.800000" y1="36.000000" x2="167.150000" y2="36.000000"  style="stroke:black; stroke-linecap:round; stroke-width:0.25;"/>
<line x1="201.800000" y1="36.000000" x2="201.800000" y2="36.000000"  style="stroke:black; stroke-linecap:round; stroke-width:0.25;"/>
<line x1="201.800000" y1="74.000000" x2="201.800000" y2="36.000000"  style="stroke:black; stroke-linecap:round; stroke-width:0.25;"/>
<line x1="201.800000" y1="78.000000" x2="203.800000" y2="78.000000"  style="stroke:black; stroke-linecap:round; stroke-width:0.25;"/>
<line x1="201.800000" y1="86.000000" x2="209.800000" y2="86.000000"  style="stroke:black; stroke-linecap:round; stroke-width:0.25;"/>
<line x1="201.800000" y1="94.000000" x2="209.800000" y2="94.000000"  style="stroke:black; stroke-linecap:round; stroke-width:0.25;"/>
<line x1="203.800000" y1="78.000000" x2="209.800000" y2="78.000000"  style="stroke:black; stroke-linecap:round; stroke-width:0.25;"/>
<line x1="209.800000" y1="62.000000" x2="233.800000" y2="62.000000"  style="stroke:black; stroke-linecap:round; stroke-width:0.25;"/>
<line x1="209.800000" y1="78.000000" x2="209.800000" y2="62.000000"  style="stroke:black; stroke-linecap:round; stroke-width:0.25;"/>
<line x1="209.800000" y1="78.000000" x2="209.800000" y2="78.000000"  style="stroke:black; stroke-linecap:round; stroke-width:0.25;"/>
<line x1="209.800000" y1="86.000000" x2="217.800000" y2="86.000000"  style="stroke:black; stroke-linecap:round; stroke-width:0.25;"/>
<line x1="209.800000" y1="94.000000" x2="225.800000" y2="94.000000"  style="stroke:black; stroke-linecap:round; stroke-width:0.25;"/>
<line x1="217.800000" y1="70.000000" x2="233.800000" y2="70.000000"  style="stroke:black; stroke-linecap:round; stroke-width:0.25;"/>
<line x1="217.800000" y1="86.000000" x2="217.800000" y2="70.000000"  style="stroke:black; stroke-linecap:round; stroke-width:0.25;"/>
<line x1="225.800000" y1="78.000000" x2="233.800000" y2="78.000000"  style="stroke:black; stroke-linecap:round; stroke-width:0.25;"/>
<line x1="225.800000" y1="94.000000" x2="225.800000" y2="78.000000"  style="stroke:black; stroke-linecap:round; stroke-width:0.25;"/>
<line x1="233.800000" y1="62.000000" x2="237.800000" y2="62.000000"  style="stroke:black; stroke-linecap:round; stroke-width:0.25;"/>
<line x1="233.800000" y1="70.000000" x2="237.800000" y2="70.000000"  style="stroke:black; stroke-linecap:round; stroke-width:0.25;"/>
<line x1="233.800000" y1="78.000000" x2="237.800000" y2="78.000000"  style="stroke:black; stroke-linecap:round; stroke-width:0.25;"/>
<line x1="237.800000" y1="62.000000" x2="241.800000" y2="62.000000"  style="stroke:black; stroke-linecap:round; stroke-width:0.25;"/>
<line x1="237.800000" y1="70.000000" x2="241.800000" y2="70.000000"  style="stroke:black; stroke-linecap:round; stroke-width:0.25;"/>
<line x1="237.800000" y1="78.000000" x2="241.800000" y2="78.000000"  style="stroke:black; stroke-linecap:round; stroke-width:0.25;"/>
<line x1="241.800000" y1="62.000000" x2="251.800000" y2="62.000000"  style="stroke:black; stroke-linecap:round; stroke-width:0.25;"/>
<line x1="241.800000" y1="70.000000" x2="251.800000" y2="70.000000"  style="stroke:black; stroke-linecap:round; stroke-width:0.25;"/>
<line x1="241.800000" y1="78.000000" x2="251.800000" y2="78.000000"  style="stroke:black; stroke-linecap:round; stroke-width:0.25;"/>
</svg>
