<?xml version="1.0"?>
<svg xmlns="http://www.w3.org/2000/svg" xmlns:xlink="http://www.w3.org/1999/xlink" viewBox="0 0 200.000000 120.080000" width="100.000000mm" height="60.040000mm" version="1.1">
<a xlink:href="modelChain-0x7fbf64b085e0.svg">
<rect x="1.000000" y="1.000000" width="199.000000" height="119.080000" rx="0" ry="0" style="stroke:none;fill:#cccccc;"/>
<rect x="0.000000" y="0.000000" width="199.000000" height="119.080000" rx="0" ry="0" style="stroke:none;fill:#ffffff;"/>
</a>
<text x="10.000000" y="7.000000" font-family="Arial" font-size="7"></text>
<rect x="89.000000" y="57.080000" width="24.000000" height="24.000000" rx="0" ry="0" style="stroke:none;fill:#cccccc;"/>
<rect x="88.000000" y="56.080000" width="24.000000" height="24.000000" rx="0" ry="0" style="stroke:none;fill:#4B71A1;"/>
<text x="100.000000" y="70.080000" font-family="Arial" font-size="7" text-anchor="middle" fill="#FFFFFF">+</text>
<circle cx="90.000000" cy="58.080000" r="1"/>
<line x1="85.000000" y1="63.080000" x2="88.000000" y2="64.080000"  transform="rotate(0.000000,88.000000,64.080000)" style="stroke: black; stroke-width:0.25;"/>
<line x1="85.000000" y1="65.080000" x2="88.000000" y2="64.080000"  transform="rotate(0.000000,88.000000,64.080000)" style="stroke: black; stroke-width:0.25;"/>
<line x1="85.000000" y1="71.080000" x2="88.000000" y2="72.080000"  transform="rotate(0.000000,88.000000,72.080000)" style="stroke: black; stroke-width:0.25;"/>
<line x1="85.000000" y1="73.080000" x2="88.000000" y2="72.080000"  transform="rotate(0.000000,88.000000,72.080000)" style="stroke: black; stroke-width:0.25;"/>
<a xlink:href="smooth-0x7fbf624014d0.svg">
<rect x="75.200000" y="25.000000" width="51.600000" height="24.000000" rx="0" ry="0" style="stroke:none;fill:#cccccc;"/>
<rect x="74.200000" y="24.000000" width="51.600000" height="24.000000" rx="0" ry="0" style="stroke:none;fill:#003366;"/>
</a>
<a xlink:href="smooth-0x7fbf624014d0.svg">
<text x="100.000000" y="38.000000" font-family="Arial" font-size="7" text-anchor="middle" fill="#FFFFFF">smooth(0.5f)</text>
</a>
<circle cx="123.800000" cy="46.000000" r="1"/>
<line x1="128.800000" y1="35.000000" x2="125.800000" y2="36.000000"  transform="rotate(0.000000,125.800000,36.000000)" style="stroke: black; stroke-width:0.25;"/>
<line x1="128.800000" y1="37.000000" x2="125.800000" y2="36.000000"  transform="rotate(0.000000,125.800000,36.000000)" style="stroke: black; stroke-width:0.25;"/>
<line x1="130.000000" y1="68.080000" x2="130.000000" y2="64.080000"  style="stroke:black; stroke-linecap:round; stroke-width:0.25;"/>
<line x1="130.000000" y1="64.080000" x2="134.000000" y2="64.080000"  style="stroke:black; stroke-linecap:round; stroke-width:0.25;"/>
<line x1="134.000000" y1="64.080000" x2="134.000000" y2="68.080000"  style="stroke:black; stroke-linecap:round; stroke-width:0.25;"/>
<line x1="138.000000" y1="76.080000" x2="138.000000" y2="72.080000"  style="stroke:black; stroke-linecap:round; stroke-width:0.25;"/>
<line x1="138.000000" y1="72.080000" x2="142.000000" y2="72.080000"  style="stroke:black; stroke-linecap:round; stroke-width:0.25;"/>
<line x1="142.000000" y1="72.080000" x2="142.000000" y2="76.080000"  style="stroke:black; stroke-linecap:round; stroke-width:0.25;"/>
<line x1="15.000000" y1="15.000000" x2="15.000000" y2="105.080000"  style="stroke: black; stroke-linecap:round; stroke-width:0.25; stroke-dasharray:3,3;"/>
<line x1="15.000000" y1="105.080000" x2="185.000000" y2="105.080000"  style="stroke: black; stroke-linecap:round; stroke-width:0.25; stroke-dasharray:3,3;"/>
<line x1="185.000000" y1="105.080000" x2="185.000000" y2="15.000000"  style="stroke: black; stroke-linecap:round; stroke-width:0.25; stroke-dasharray:3,3;"/>
<line x1="15.000000" y1="15.000000" x2="20.000000" y2="15.000000"  style="stroke: black; stroke-linecap:round; stroke-width:0.25; stroke-dasharray:3,3;"/>
<line x1="61.925000" y1="15.000000" x2="185.000000" y2="15.000000"  style="stroke: black; stroke-linecap:round; stroke-width:0.25; stroke-dasharray:3,3;"/>
<text x="20.000000" y="17.000000" font-family="Arial" font-size="7">wBell(0.5f)</text>
<line x1="187.000000" y1="51.040000" x2="190.000000" y2="52.040000"  transform="rotate(0.000000,190.000000,52.040000)" style="stroke: black; stroke-width:0.25;"/>
<line x1="187.000000" y1="53.040000" x2="190.000000" y2="52.040000"  transform="rotate(0.000000,190.000000,52.040000)" style="stroke: black; stroke-width:0.25;"/>
<line x1="187.000000" y1="59.040000" x2="190.000000" y2="60.040000"  transform="rotate(0.000000,190.000000,60.040000)" style="stroke: black; stroke-width:0.25;"/>
<line x1="187.000000" y1="61.040000" x2="190.000000" y2="60.040000"  transform="rotate(0.000000,190.000000,60.040000)" style="stroke: black; stroke-width:0.25;"/>
<line x1="187.000000" y1="67.040000" x2="190.000000" y2="68.040000"  transform="rotate(0.000000,190.000000,68.040000)" style="stroke: black; stroke-width:0.25;"/>
<line x1="187.000000" y1="69.040000" x2="190.000000" y2="68.040000"  transform="rotate(0.000000,190.000000,68.040000)" style="stroke: black; stroke-width:0.25;"/>
<line x1="10.000000" y1="52.040000" x2="20.000000" y2="52.040000"  style="stroke:black; stroke-linecap:round; stroke-width:0.25;"/>
<line x1="10.000000" y1="60.040000" x2="20.000000" y2="60.040000"  style="stroke:black; stroke-linecap:round; stroke-width:0.25;"/>
<line x1="10.000000" y1="68.040000" x2="20.000000" y2="68.040000"  style="stroke:black; stroke-linecap:round; stroke-width:0.25;"/>
<line x1="20.000000" y1="52.040000" x2="24.000000" y2="52.040000"  style="stroke:black; stroke-linecap:round; stroke-width:0.25;"/>
<line x1="20.000000" y1="60.040000" x2="24.000000" y2="60.040000"  style="stroke:black; stroke-linecap:round; stroke-width:0.25;"/>
<line x1="20.000000" y1="68.040000" x2="24.000000" y2="68.040000"  style="stroke:black; stroke-linecap:round; stroke-width:0.25;"/>
<line x1="24.000000" y1="52.040000" x2="28.000000" y2="52.040000"  style="stroke:black; stroke-linecap:round; stroke-width:0.25;"/>
<line x1="24.000000" y1="60.040000" x2="28.000000" y2="60.040000"  style="stroke:black; stroke-linecap:round; stroke-width:0.25;"/>
<line x1="24.000000" y1="68.040000" x2="28.000000" y2="68.040000"  style="stroke:black; stroke-linecap:round; stroke-width:0.25;"/>
<line x1="28.000000" y1="52.040000" x2="52.000000" y2="52.040000"  style="stroke:black; stroke-linecap:round; stroke-width:0.25;"/>
<line x1="28.000000" y1="60.040000" x2="44.000000" y2="60.040000"  style="stroke:black; stroke-linecap:round; stroke-width:0.25;"/>
<line x1="28.000000" y1="68.040000" x2="36.000000" y2="68.040000"  style="stroke:black; stroke-linecap:round; stroke-width:0.25;"/>
<line x1="36.000000" y1="68.040000" x2="36.000000" y2="88.080000"  style="stroke:black; stroke-linecap:round; stroke-width:0.25;"/>
<line x1="36.000000" y1="88.080000" x2="52.000000" y2="88.080000"  style="stroke:black; stroke-linecap:round; stroke-width:0.25;"/>
<line x1="44.000000" y1="60.040000" x2="44.000000" y2="80.080000"  style="stroke:black; stroke-linecap:round; stroke-width:0.25;"/>
<line x1="44.000000" y1="80.080000" x2="52.000000" y2="80.080000"  style="stroke:black; stroke-linecap:round; stroke-width:0.25;"/>
<line x1="52.000000" y1="52.040000" x2="52.000000" y2="72.080000"  style="stroke:black; stroke-linecap:round; stroke-width:0.25;"/>
<line x1="52.000000" y1="72.080000" x2="52.000000" y2="72.080000"  style="stroke:black; stroke-linecap:round; stroke-width:0.25;"/>
<line x1="52.000000" y1="72.080000" x2="68.000000" y2="72.080000"  style="stroke:black; stroke-linecap:round; stroke-width:0.25;"/>
<line x1="52.000000" y1="80.080000" x2="68.000000" y2="80.080000"  style="stroke:black; stroke-linecap:round; stroke-width:0.25;"/>
<line x1="52.000000" y1="88.080000" x2="68.000000" y2="88.080000"  style="stroke:black; stroke-linecap:round; stroke-width:0.25;"/>
<line x1="68.000000" y1="36.000000" x2="68.000000" y2="36.000000"  style="stroke:black; stroke-linecap:round; stroke-width:0.25;"/>
<line x1="68.000000" y1="36.000000" x2="68.000000" y2="64.080000"  style="stroke:black; stroke-linecap:round; stroke-width:0.25;"/>
<line x1="68.000000" y1="64.080000" x2="68.000000" y2="64.080000"  style="stroke:black; stroke-linecap:round; stroke-width:0.25;"/>
<line x1="68.000000" y1="64.080000" x2="84.000000" y2="64.080000"  style="stroke:black; stroke-linecap:round; stroke-width:0.25;"/>
<line x1="68.000000" y1="72.080000" x2="84.000000" y2="72.080000"  style="stroke:black; stroke-linecap:round; stroke-width:0.25;"/>
<line x1="68.000000" y1="80.080000" x2="84.000000" y2="80.080000"  style="stroke:black; stroke-linecap:round; stroke-width:0.25;"/>
<line x1="68.000000" y1="88.080000" x2="76.000000" y2="88.080000"  style="stroke:black; stroke-linecap:round; stroke-width:0.25;"/>
<line x1="70.200000" y1="36.000000" x2="68.000000" y2="36.000000"  style="stroke:black; stroke-linecap:round; stroke-width:0.25;"/>
<line x1="74.200000" y1="36.000000" x2="70.200000" y2="36.000000"  style="stroke:black; stroke-linecap:round; stroke-width:0.25;"/>
<line x1="76.000000" y1="88.080000" x2="76.000000" y2="96.080000"  style="stroke:black; stroke-linecap:round; stroke-width:0.25;"/>
<line x1="76.000000" y1="96.080000" x2="84.000000" y2="96.080000"  style="stroke:black; stroke-linecap:round; stroke-width:0.25;"/>
<line x1="84.000000" y1="64.080000" x2="88.000000" y2="64.080000"  style="stroke:black; stroke-linecap:round; stroke-width:0.25;"/>
<line x1="84.000000" y1="72.080000" x2="88.000000" y2="72.080000"  style="stroke:black; stroke-linecap:round; stroke-width:0.25;"/>
<line x1="84.000000" y1="80.080000" x2="84.000000" y2="88.080000"  style="stroke:black; stroke-linecap:round; stroke-width:0.25;"/>
<line x1="84.000000" y1="88.080000" x2="84.000000" y2="88.080000"  style="stroke:black; stroke-linecap:round; stroke-width:0.25;"/>
<line x1="84.000000" y1="88.080000" x2="100.000000" y2="88.080000"  style="stroke:black; stroke-linecap:round; stroke-width:0.25;"/>
<line x1="84.000000" y1="96.080000" x2="100.000000" y2="96.080000"  style="stroke:black; stroke-linecap:round; stroke-width:0.25;"/>
<line x1="100.000000" y1="88.080000" x2="116.000000" y2="88.080000"  style="stroke:black; stroke-linecap:round; stroke-width:0.25;"/>
<line x1="100.000000" y1="96.080000" x2="116.000000" y2="96.080000"  style="stroke:black; stroke-linecap:round; stroke-width:0.25;"/>
<line x1="112.000000" y1="68.080000" x2="116.000000" y2="68.080000"  style="stroke:black; stroke-linecap:round; stroke-width:0.25;"/>
<line x1="116.000000" y1="68.080000" x2="132.000000" y2="68.080000"  style="stroke:black; stroke-linecap:round; stroke-width:0.25;"/>
<line x1="116.000000" y1="76.080000" x2="132.000000" y2="76.080000"  style="stroke:black; stroke-linecap:round; stroke-width:0.25;"/>
<line x1="116.000000" y1="88.080000" x2="116.000000" y2="76.080000"  style="stroke:black; stroke-linecap:round; stroke-width:0.25;"/>
<line x1="116.000000" y1="88.080000" x2="116.000000" y2="88.080000"  style="stroke:black; stroke-linecap:round; stroke-width:0.25;"/>
<line x1="116.000000" y1="96.080000" x2="124.000000" y2="96.080000"  style="stroke:black; stroke-linecap:round; stroke-width:0.25;"/>
<line x1="124.000000" y1="84.080000" x2="132.000000" y2="84.080000"  style="stroke:black; stroke-linecap:round; stroke-width:0.25;"/>
<line x1="124.000000" y1="96.080000" x2="124.000000" y2="84.080000"  style="stroke:black; stroke-linecap:round; stroke-width:0.25;"/>
<line x1="129.800000" y1="36.000000" x2="125.800000" y2="36.000000"  style="stroke:black; stroke-linecap:round; stroke-width:0.25;"/>
<line x1="132.000000" y1="36.000000" x2="129.800000" y2="36.000000"  style="stroke:black; stroke-linecap:round; stroke-width:0.25;"/>
<line x1="132.000000" y1="68.080000" x2="134.000000" y2="68.080000"  style="stroke:black; stroke-linecap:round; stroke-width:0.25;"/>
<line x1="132.000000" y1="76.080000" x2="142.000000" y2="76.080000"  style="stroke:black; stroke-linecap:round; stroke-width:0.25;"/>
<line x1="132.000000" y1="84.080000" x2="148.000000" y2="84.080000"  style="stroke:black; stroke-linecap:round; stroke-width:0.25;"/>
<line x1="134.000000" y1="68.080000" x2="148.000000" y2="68.080000"  style="stroke:black; stroke-linecap:round; stroke-width:0.25;"/>
<line x1="140.000000" y1="36.000000" x2="132.000000" y2="36.000000"  style="stroke:black; stroke-linecap:round; stroke-width:0.25;"/>
<line x1="140.000000" y1="72.080000" x2="140.000000" y2="36.000000"  style="stroke:black; stroke-linecap:round; stroke-width:0.25;"/>
<line x1="142.000000" y1="76.080000" x2="148.000000" y2="76.080000"  style="stroke:black; stroke-linecap:round; stroke-width:0.25;"/>
<line x1="148.000000" y1="52.040000" x2="172.000000" y2="52.040000"  style="stroke:black; stroke-linecap:round; stroke-width:0.25;"/>
<line x1="148.000000" y1="68.080000" x2="148.000000" y2="52.040000"  style="stroke:black; stroke-linecap:round; stroke-width:0.25;"/>
<line x1="148.000000" y1="68.080000" x2="148.000000" y2="68.080000"  style="stroke:black; stroke-linecap:round; stroke-width:0.25;"/>
<line x1="148.000000" y1="76.080000" x2="156.000000" y2="76.080000"  style="stroke:black; stroke-linecap:round; stroke-width:0.25;"/>
<line x1="148.000000" y1="84.080000" x2="164.000000" y2="84.080000"  style="stroke:black; stroke-linecap:round; stroke-width:0.25;"/>
<line x1="156.000000" y1="60.040000" x2="172.000000" y2="60.040000"  style="stroke:black; stroke-linecap:round; stroke-width:0.25;"/>
<line x1="156.000000" y1="76.080000" x2="156.000000" y2="60.040000"  style="stroke:black; stroke-linecap:round; stroke-width:0.25;"/>
<line x1="164.000000" y1="68.040000" x2="172.000000" y2="68.040000"  style="stroke:black; stroke-linecap:round; stroke-width:0.25;"/>
<line x1="164.000000" y1="84.080000" x2="164.000000" y2="68.040000"  style="stroke:black; stroke-linecap:round; stroke-width:0.25;"/>
<line x1="172.000000" y1="52.040000" x2="176.000000" y2="52.040000"  style="stroke:black; stroke-linecap:round; stroke-width:0.25;"/>
<line x1="172.000000" y1="60.040000" x2="176.000000" y2="60.040000"  style="stroke:black; stroke-linecap:round; stroke-width:0.25;"/>
<line x1="172.000000" y1="68.040000" x2="176.000000" y2="68.040000"  style="stroke:black; stroke-linecap:round; stroke-width:0.25;"/>
<line x1="176.000000" y1="52.040000" x2="180.000000" y2="52.040000"  style="stroke:black; stroke-linecap:round; stroke-width:0.25;"/>
<line x1="176.000000" y1="60.040000" x2="180.000000" y2="60.040000"  style="stroke:black; stroke-linecap:round; stroke-width:0.25;"/>
<line x1="176.000000" y1="68.040000" x2="180.000000" y2="68.040000"  style="stroke:black; stroke-linecap:round; stroke-width:0.25;"/>
<line x1="180.000000" y1="52.040000" x2="190.000000" y2="52.040000"  style="stroke:black; stroke-linecap:round; stroke-width:0.25;"/>
<line x1="180.000000" y1="60.040000" x2="190.000000" y2="60.040000"  style="stroke:black; stroke-linecap:round; stroke-width:0.25;"/>
<line x1="180.000000" y1="68.040000" x2="190.000000" y2="68.040000"  style="stroke:black; stroke-linecap:round; stroke-width:0.25;"/>
</svg>
