<?xml version="1.0"?>
<svg xmlns="http://www.w3.org/2000/svg" xmlns:xlink="http://www.w3.org/1999/xlink" viewBox="0 0 399.800000 124.000000" width="199.900000mm" height="62.000000mm" version="1.1">
<a xlink:href="rn-0x7fd8c4bd9b10.svg">
<rect x="1.000000" y="1.000000" width="398.800000" height="123.000000" rx="0" ry="0" style="stroke:none;fill:#cccccc;"/>
<rect x="0.000000" y="0.000000" width="398.800000" height="123.000000" rx="0" ry="0" style="stroke:none;fill:#ffffff;"/>
</a>
<text x="10.000000" y="7.000000" font-family="Arial" font-size="7"></text>
<rect x="164.000000" y="25.000000" width="25.800000" height="24.000000" rx="0" ry="0" style="stroke:none;fill:#cccccc;"/>
<rect x="163.000000" y="24.000000" width="25.800000" height="24.000000" rx="0" ry="0" style="stroke:none;fill:#f44800;"/>
<text x="175.900000" y="38.000000" font-family="Arial" font-size="7" text-anchor="middle" fill="#FFFFFF">0.002</text>
<circle cx="165.000000" cy="26.000000" r="1"/>
<rect x="35.000000" y="67.000000" width="283.800000" height="24.000000" rx="0" ry="0" style="stroke:none;fill:#cccccc;"/>
<rect x="34.000000" y="66.000000" width="283.800000" height="24.000000" rx="0" ry="0" style="stroke:none;fill:#477881;"/>
<text x="175.900000" y="80.000000" font-family="Arial" font-size="7" text-anchor="middle" fill="#FFFFFF">hslider(v:englishBell/strikeSharpness, 0.5f, 0.01f, 5.0f, 0.01f)</text>
<circle cx="36.000000" cy="68.000000" r="1"/>
<line x1="25.000000" y1="57.000000" x2="25.000000" y2="99.000000"  style="stroke: black; stroke-linecap:round; stroke-width:0.25; stroke-dasharray:3,3;"/>
<line x1="25.000000" y1="99.000000" x2="326.800000" y2="99.000000"  style="stroke: black; stroke-linecap:round; stroke-width:0.25; stroke-dasharray:3,3;"/>
<line x1="326.800000" y1="99.000000" x2="326.800000" y2="57.000000"  style="stroke: black; stroke-linecap:round; stroke-width:0.25; stroke-dasharray:3,3;"/>
<line x1="25.000000" y1="57.000000" x2="30.000000" y2="57.000000"  style="stroke: black; stroke-linecap:round; stroke-width:0.25; stroke-dasharray:3,3;"/>
<line x1="84.825000" y1="57.000000" x2="326.800000" y2="57.000000"  style="stroke: black; stroke-linecap:round; stroke-width:0.25; stroke-dasharray:3,3;"/>
<text x="30.000000" y="59.000000" font-family="Arial" font-size="7">strikeSharpness</text>
<rect x="344.800000" y="51.000000" width="24.000000" height="24.000000" rx="0" ry="0" style="stroke:none;fill:#cccccc;"/>
<rect x="343.800000" y="50.000000" width="24.000000" height="24.000000" rx="0" ry="0" style="stroke:none;fill:#4B71A1;"/>
<text x="355.800000" y="64.000000" font-family="Arial" font-size="7" text-anchor="middle" fill="#FFFFFF">*</text>
<circle cx="345.800000" cy="52.000000" r="1"/>
<line x1="340.800000" y1="57.000000" x2="343.800000" y2="58.000000"  transform="rotate(0.000000,343.800000,58.000000)" style="stroke: black; stroke-width:0.25;"/>
<line x1="340.800000" y1="59.000000" x2="343.800000" y2="58.000000"  transform="rotate(0.000000,343.800000,58.000000)" style="stroke: black; stroke-width:0.25;"/>
<line x1="340.800000" y1="65.000000" x2="343.800000" y2="66.000000"  transform="rotate(0.000000,343.800000,66.000000)" style="stroke: black; stroke-width:0.25;"/>
<line x1="340.800000" y1="67.000000" x2="343.800000" y2="66.000000"  transform="rotate(0.000000,343.800000,66.000000)" style="stroke: black; stroke-width:0.25;"/>
<line x1="15.000000" y1="15.000000" x2="15.000000" y2="109.000000"  style="stroke: black; stroke-linecap:round; stroke-width:0.25; stroke-dasharray:3,3;"/>
<line x1="15.000000" y1="109.000000" x2="384.800000" y2="109.000000"  style="stroke: black; stroke-linecap:round; stroke-width:0.25; stroke-dasharray:3,3;"/>
<line x1="384.800000" y1="109.000000" x2="384.800000" y2="15.000000"  style="stroke: black; stroke-linecap:round; stroke-width:0.25; stroke-dasharray:3,3;"/>
<line x1="15.000000" y1="15.000000" x2="20.000000" y2="15.000000"  style="stroke: black; stroke-linecap:round; stroke-width:0.25; stroke-dasharray:3,3;"/>
<line x1="36.125000" y1="15.000000" x2="384.800000" y2="15.000000"  style="stroke: black; stroke-linecap:round; stroke-width:0.25; stroke-dasharray:3,3;"/>
<text x="20.000000" y="17.000000" font-family="Arial" font-size="7">rel</text>
<line x1="386.800000" y1="61.000000" x2="389.800000" y2="62.000000"  transform="rotate(0.000000,389.800000,62.000000)" style="stroke: black; stroke-width:0.25;"/>
<line x1="386.800000" y1="63.000000" x2="389.800000" y2="62.000000"  transform="rotate(0.000000,389.800000,62.000000)" style="stroke: black; stroke-width:0.25;"/>
<line x1="188.800000" y1="36.000000" x2="192.800000" y2="36.000000"  style="stroke:black; stroke-linecap:round; stroke-width:0.25;"/>
<line x1="192.800000" y1="36.000000" x2="331.800000" y2="36.000000"  style="stroke:black; stroke-linecap:round; stroke-width:0.25;"/>
<line x1="317.800000" y1="78.000000" x2="321.800000" y2="78.000000"  style="stroke:black; stroke-linecap:round; stroke-width:0.25;"/>
<line x1="321.800000" y1="78.000000" x2="331.800000" y2="78.000000"  style="stroke:black; stroke-linecap:round; stroke-width:0.25;"/>
<line x1="331.800000" y1="36.000000" x2="339.800000" y2="36.000000"  style="stroke:black; stroke-linecap:round; stroke-width:0.25;"/>
<line x1="331.800000" y1="66.000000" x2="339.800000" y2="66.000000"  style="stroke:black; stroke-linecap:round; stroke-width:0.25;"/>
<line x1="331.800000" y1="78.000000" x2="331.800000" y2="66.000000"  style="stroke:black; stroke-linecap:round; stroke-width:0.25;"/>
<line x1="331.800000" y1="78.000000" x2="331.800000" y2="78.000000"  style="stroke:black; stroke-linecap:round; stroke-width:0.25;"/>
<line x1="339.800000" y1="36.000000" x2="339.800000" y2="58.000000"  style="stroke:black; stroke-linecap:round; stroke-width:0.25;"/>
<line x1="339.800000" y1="58.000000" x2="339.800000" y2="58.000000"  style="stroke:black; stroke-linecap:round; stroke-width:0.25;"/>
<line x1="339.800000" y1="58.000000" x2="343.800000" y2="58.000000"  style="stroke:black; stroke-linecap:round; stroke-width:0.25;"/>
<line x1="339.800000" y1="66.000000" x2="343.800000" y2="66.000000"  style="stroke:black; stroke-linecap:round; stroke-width:0.25;"/>
<line x1="367.800000" y1="62.000000" x2="371.800000" y2="62.000000"  style="stroke:black; stroke-linecap:round; stroke-width:0.25;"/>
<line x1="371.800000" y1="62.000000" x2="371.800000" y2="62.000000"  style="stroke:black; stroke-linecap:round; stroke-width:0.25;"/>
<line x1="371.800000" y1="62.000000" x2="375.800000" y2="62.000000"  style="stroke:black; stroke-linecap:round; stroke-width:0.25;"/>
<line x1="375.800000" y1="62.000000" x2="379.800000" y2="62.000000"  style="stroke:black; stroke-linecap:round; stroke-width:0.25;"/>
<line x1="379.800000" y1="62.000000" x2="389.800000" y2="62.000000"  style="stroke:black; stroke-linecap:round; stroke-width:0.25;"/>
</svg>
