<?xml version="1.0"?>
<svg xmlns="http://www.w3.org/2000/svg" xmlns:xlink="http://www.w3.org/1999/xlink" viewBox="0 0 246.700000 188.000000" width="123.350000mm" height="94.000000mm" version="1.1">
<a xlink:href="fdelay-0x7fee351b7b70.svg">
<rect x="1.000000" y="1.000000" width="245.700000" height="187.000000" rx="0" ry="0" style="stroke:none;fill:#cccccc;"/>
<rect x="0.000000" y="0.000000" width="245.700000" height="187.000000" rx="0" ry="0" style="stroke:none;fill:#ffffff;"/>
</a>
<text x="10.000000" y="7.000000" font-family="Arial" font-size="7"></text>
<rect x="88.350000" y="25.000000" width="24.000000" height="24.000000" rx="0" ry="0" style="stroke:none;fill:#cccccc;"/>
<rect x="87.350000" y="24.000000" width="24.000000" height="24.000000" rx="0" ry="0" style="stroke:none;fill:#47945E;"/>
<text x="99.350000" y="38.000000" font-family="Arial" font-size="7" text-anchor="middle" fill="#FFFFFF">x</text>
<circle cx="89.350000" cy="26.000000" r="1"/>
<rect x="67.450000" y="57.000000" width="25.800000" height="24.000000" rx="0" ry="0" style="stroke:none;fill:#cccccc;"/>
<rect x="66.450000" y="56.000000" width="25.800000" height="24.000000" rx="0" ry="0" style="stroke:none;fill:#f44800;"/>
<text x="79.350000" y="70.000000" font-family="Arial" font-size="7" text-anchor="middle" fill="#FFFFFF">2049</text>
<circle cx="68.450000" cy="58.000000" r="1"/>
<rect x="48.350000" y="99.000000" width="24.000000" height="24.000000" rx="0" ry="0" style="stroke:none;fill:#cccccc;"/>
<rect x="47.350000" y="98.000000" width="24.000000" height="24.000000" rx="0" ry="0" style="stroke:none;fill:#f44800;"/>
<text x="59.350000" y="112.000000" font-family="Arial" font-size="7" text-anchor="middle" fill="#FFFFFF">0</text>
<circle cx="49.350000" cy="100.000000" r="1"/>
<line x1="38.350000" y1="89.000000" x2="38.350000" y2="131.000000"  style="stroke: black; stroke-linecap:round; stroke-width:0.25; stroke-dasharray:3,3;"/>
<line x1="38.350000" y1="131.000000" x2="80.350000" y2="131.000000"  style="stroke: black; stroke-linecap:round; stroke-width:0.25; stroke-dasharray:3,3;"/>
<line x1="80.350000" y1="131.000000" x2="80.350000" y2="89.000000"  style="stroke: black; stroke-linecap:round; stroke-width:0.25; stroke-dasharray:3,3;"/>
<line x1="38.350000" y1="89.000000" x2="43.350000" y2="89.000000"  style="stroke: black; stroke-linecap:round; stroke-width:0.25; stroke-dasharray:3,3;"/>
<line x1="59.475000" y1="89.000000" x2="80.350000" y2="89.000000"  style="stroke: black; stroke-linecap:round; stroke-width:0.25; stroke-dasharray:3,3;"/>
<text x="43.350000" y="91.000000" font-family="Arial" font-size="7">b13</text>
<a xlink:href="curdel1-0x7fee3536e170.svg">
<rect x="25.000000" y="141.000000" width="38.700000" height="24.000000" rx="0" ry="0" style="stroke:none;fill:#cccccc;"/>
<rect x="24.000000" y="140.000000" width="38.700000" height="24.000000" rx="0" ry="0" style="stroke:none;fill:#003366;"/>
</a>
<a xlink:href="curdel1-0x7fee3536e170.svg">
<text x="43.350000" y="154.000000" font-family="Arial" font-size="7" text-anchor="middle" fill="#FFFFFF">curdel1</text>
</a>
<circle cx="26.000000" cy="142.000000" r="1"/>
<rect x="71.700000" y="141.000000" width="24.000000" height="24.000000" rx="0" ry="0" style="stroke:none;fill:#cccccc;"/>
<rect x="70.700000" y="140.000000" width="24.000000" height="24.000000" rx="0" ry="0" style="stroke:none;fill:#4B71A1;"/>
<text x="82.700000" y="154.000000" font-family="Arial" font-size="7" text-anchor="middle" fill="#FFFFFF">int</text>
<circle cx="72.700000" cy="142.000000" r="1"/>
<line x1="67.700000" y1="151.000000" x2="70.700000" y2="152.000000"  transform="rotate(0.000000,70.700000,152.000000)" style="stroke: black; stroke-width:0.25;"/>
<line x1="67.700000" y1="153.000000" x2="70.700000" y2="152.000000"  transform="rotate(0.000000,70.700000,152.000000)" style="stroke: black; stroke-width:0.25;"/>
<rect x="111.700000" y="115.000000" width="24.000000" height="24.000000" rx="0" ry="0" style="stroke:none;fill:#cccccc;"/>
<rect x="110.700000" y="114.000000" width="24.000000" height="24.000000" rx="0" ry="0" style="stroke:none;fill:#4B71A1;"/>
<text x="122.700000" y="128.000000" font-family="Arial" font-size="7" text-anchor="middle" fill="#FFFFFF">max</text>
<circle cx="112.700000" cy="116.000000" r="1"/>
<line x1="107.700000" y1="121.000000" x2="110.700000" y2="122.000000"  transform="rotate(0.000000,110.700000,122.000000)" style="stroke: black; stroke-width:0.25;"/>
<line x1="107.700000" y1="123.000000" x2="110.700000" y2="122.000000"  transform="rotate(0.000000,110.700000,122.000000)" style="stroke: black; stroke-width:0.25;"/>
<line x1="107.700000" y1="129.000000" x2="110.700000" y2="130.000000"  transform="rotate(0.000000,110.700000,130.000000)" style="stroke: black; stroke-width:0.25;"/>
<line x1="107.700000" y1="131.000000" x2="110.700000" y2="130.000000"  transform="rotate(0.000000,110.700000,130.000000)" style="stroke: black; stroke-width:0.25;"/>
<rect x="151.700000" y="99.000000" width="24.000000" height="24.000000" rx="0" ry="0" style="stroke:none;fill:#cccccc;"/>
<rect x="150.700000" y="98.000000" width="24.000000" height="24.000000" rx="0" ry="0" style="stroke:none;fill:#4B71A1;"/>
<text x="162.700000" y="112.000000" font-family="Arial" font-size="7" text-anchor="middle" fill="#FFFFFF">min</text>
<circle cx="152.700000" cy="100.000000" r="1"/>
<line x1="147.700000" y1="105.000000" x2="150.700000" y2="106.000000"  transform="rotate(0.000000,150.700000,106.000000)" style="stroke: black; stroke-width:0.25;"/>
<line x1="147.700000" y1="107.000000" x2="150.700000" y2="106.000000"  transform="rotate(0.000000,150.700000,106.000000)" style="stroke: black; stroke-width:0.25;"/>
<line x1="147.700000" y1="113.000000" x2="150.700000" y2="114.000000"  transform="rotate(0.000000,150.700000,114.000000)" style="stroke: black; stroke-width:0.25;"/>
<line x1="147.700000" y1="115.000000" x2="150.700000" y2="114.000000"  transform="rotate(0.000000,150.700000,114.000000)" style="stroke: black; stroke-width:0.25;"/>
<rect x="191.700000" y="83.000000" width="24.000000" height="24.000000" rx="0" ry="0" style="stroke:none;fill:#cccccc;"/>
<rect x="190.700000" y="82.000000" width="24.000000" height="24.000000" rx="0" ry="0" style="stroke:none;fill:#4B71A1;"/>
<text x="202.700000" y="96.000000" font-family="Arial" font-size="7" text-anchor="middle" fill="#FFFFFF">@</text>
<circle cx="192.700000" cy="84.000000" r="1"/>
<line x1="187.700000" y1="89.000000" x2="190.700000" y2="90.000000"  transform="rotate(0.000000,190.700000,90.000000)" style="stroke: black; stroke-width:0.25;"/>
<line x1="187.700000" y1="91.000000" x2="190.700000" y2="90.000000"  transform="rotate(0.000000,190.700000,90.000000)" style="stroke: black; stroke-width:0.25;"/>
<line x1="187.700000" y1="97.000000" x2="190.700000" y2="98.000000"  transform="rotate(0.000000,190.700000,98.000000)" style="stroke: black; stroke-width:0.25;"/>
<line x1="187.700000" y1="99.000000" x2="190.700000" y2="98.000000"  transform="rotate(0.000000,190.700000,98.000000)" style="stroke: black; stroke-width:0.25;"/>
<line x1="15.000000" y1="15.000000" x2="15.000000" y2="173.000000"  style="stroke: black; stroke-linecap:round; stroke-width:0.25; stroke-dasharray:3,3;"/>
<line x1="15.000000" y1="173.000000" x2="231.700000" y2="173.000000"  style="stroke: black; stroke-linecap:round; stroke-width:0.25; stroke-dasharray:3,3;"/>
<line x1="231.700000" y1="173.000000" x2="231.700000" y2="15.000000"  style="stroke: black; stroke-linecap:round; stroke-width:0.25; stroke-dasharray:3,3;"/>
<line x1="15.000000" y1="15.000000" x2="20.000000" y2="15.000000"  style="stroke: black; stroke-linecap:round; stroke-width:0.25; stroke-dasharray:3,3;"/>
<line x1="136.100000" y1="15.000000" x2="231.700000" y2="15.000000"  style="stroke: black; stroke-linecap:round; stroke-width:0.25; stroke-dasharray:3,3;"/>
<text x="20.000000" y="17.000000" font-family="Arial" font-size="7">delay(2049)((.../) : + : int)(x70)</text>
<line x1="233.700000" y1="93.000000" x2="236.700000" y2="94.000000"  transform="rotate(0.000000,236.700000,94.000000)" style="stroke: black; stroke-width:0.25;"/>
<line x1="233.700000" y1="95.000000" x2="236.700000" y2="94.000000"  transform="rotate(0.000000,236.700000,94.000000)" style="stroke: black; stroke-width:0.25;"/>
<line x1="62.700000" y1="152.000000" x2="66.700000" y2="152.000000"  style="stroke:black; stroke-linecap:round; stroke-width:0.25;"/>
<line x1="66.700000" y1="152.000000" x2="66.700000" y2="152.000000"  style="stroke:black; stroke-linecap:round; stroke-width:0.25;"/>
<line x1="66.700000" y1="152.000000" x2="70.700000" y2="152.000000"  style="stroke:black; stroke-linecap:round; stroke-width:0.25;"/>
<line x1="71.350000" y1="110.000000" x2="75.350000" y2="110.000000"  style="stroke:black; stroke-linecap:round; stroke-width:0.25;"/>
<line x1="75.350000" y1="110.000000" x2="85.350000" y2="110.000000"  style="stroke:black; stroke-linecap:round; stroke-width:0.25;"/>
<line x1="85.350000" y1="110.000000" x2="98.700000" y2="110.000000"  style="stroke:black; stroke-linecap:round; stroke-width:0.25;"/>
<line x1="92.250000" y1="68.000000" x2="96.250000" y2="68.000000"  style="stroke:black; stroke-linecap:round; stroke-width:0.25;"/>
<line x1="94.700000" y1="152.000000" x2="98.700000" y2="152.000000"  style="stroke:black; stroke-linecap:round; stroke-width:0.25;"/>
<line x1="96.250000" y1="68.000000" x2="138.700000" y2="68.000000"  style="stroke:black; stroke-linecap:round; stroke-width:0.25;"/>
<line x1="98.700000" y1="110.000000" x2="106.700000" y2="110.000000"  style="stroke:black; stroke-linecap:round; stroke-width:0.25;"/>
<line x1="98.700000" y1="130.000000" x2="106.700000" y2="130.000000"  style="stroke:black; stroke-linecap:round; stroke-width:0.25;"/>
<line x1="98.700000" y1="152.000000" x2="98.700000" y2="130.000000"  style="stroke:black; stroke-linecap:round; stroke-width:0.25;"/>
<line x1="98.700000" y1="152.000000" x2="98.700000" y2="152.000000"  style="stroke:black; stroke-linecap:round; stroke-width:0.25;"/>
<line x1="106.700000" y1="110.000000" x2="106.700000" y2="122.000000"  style="stroke:black; stroke-linecap:round; stroke-width:0.25;"/>
<line x1="106.700000" y1="122.000000" x2="106.700000" y2="122.000000"  style="stroke:black; stroke-linecap:round; stroke-width:0.25;"/>
<line x1="106.700000" y1="122.000000" x2="110.700000" y2="122.000000"  style="stroke:black; stroke-linecap:round; stroke-width:0.25;"/>
<line x1="106.700000" y1="130.000000" x2="110.700000" y2="130.000000"  style="stroke:black; stroke-linecap:round; stroke-width:0.25;"/>
<line x1="111.350000" y1="36.000000" x2="115.350000" y2="36.000000"  style="stroke:black; stroke-linecap:round; stroke-width:0.25;"/>
<line x1="115.350000" y1="36.000000" x2="178.700000" y2="36.000000"  style="stroke:black; stroke-linecap:round; stroke-width:0.25;"/>
<line x1="134.700000" y1="126.000000" x2="138.700000" y2="126.000000"  style="stroke:black; stroke-linecap:round; stroke-width:0.25;"/>
<line x1="138.700000" y1="68.000000" x2="146.700000" y2="68.000000"  style="stroke:black; stroke-linecap:round; stroke-width:0.25;"/>
<line x1="138.700000" y1="114.000000" x2="146.700000" y2="114.000000"  style="stroke:black; stroke-linecap:round; stroke-width:0.25;"/>
<line x1="138.700000" y1="126.000000" x2="138.700000" y2="114.000000"  style="stroke:black; stroke-linecap:round; stroke-width:0.25;"/>
<line x1="138.700000" y1="126.000000" x2="138.700000" y2="126.000000"  style="stroke:black; stroke-linecap:round; stroke-width:0.25;"/>
<line x1="146.700000" y1="68.000000" x2="146.700000" y2="106.000000"  style="stroke:black; stroke-linecap:round; stroke-width:0.25;"/>
<line x1="146.700000" y1="106.000000" x2="146.700000" y2="106.000000"  style="stroke:black; stroke-linecap:round; stroke-width:0.25;"/>
<line x1="146.700000" y1="106.000000" x2="150.700000" y2="106.000000"  style="stroke:black; stroke-linecap:round; stroke-width:0.25;"/>
<line x1="146.700000" y1="114.000000" x2="150.700000" y2="114.000000"  style="stroke:black; stroke-linecap:round; stroke-width:0.25;"/>
<line x1="174.700000" y1="110.000000" x2="178.700000" y2="110.000000"  style="stroke:black; stroke-linecap:round; stroke-width:0.25;"/>
<line x1="178.700000" y1="36.000000" x2="186.700000" y2="36.000000"  style="stroke:black; stroke-linecap:round; stroke-width:0.25;"/>
<line x1="178.700000" y1="98.000000" x2="186.700000" y2="98.000000"  style="stroke:black; stroke-linecap:round; stroke-width:0.25;"/>
<line x1="178.700000" y1="110.000000" x2="178.700000" y2="98.000000"  style="stroke:black; stroke-linecap:round; stroke-width:0.25;"/>
<line x1="178.700000" y1="110.000000" x2="178.700000" y2="110.000000"  style="stroke:black; stroke-linecap:round; stroke-width:0.25;"/>
<line x1="186.700000" y1="36.000000" x2="186.700000" y2="90.000000"  style="stroke:black; stroke-linecap:round; stroke-width:0.25;"/>
<line x1="186.700000" y1="90.000000" x2="186.700000" y2="90.000000"  style="stroke:black; stroke-linecap:round; stroke-width:0.25;"/>
<line x1="186.700000" y1="90.000000" x2="190.700000" y2="90.000000"  style="stroke:black; stroke-linecap:round; stroke-width:0.25;"/>
<line x1="186.700000" y1="98.000000" x2="190.700000" y2="98.000000"  style="stroke:black; stroke-linecap:round; stroke-width:0.25;"/>
<line x1="214.700000" y1="94.000000" x2="218.700000" y2="94.000000"  style="stroke:black; stroke-linecap:round; stroke-width:0.25;"/>
<line x1="218.700000" y1="94.000000" x2="218.700000" y2="94.000000"  style="stroke:black; stroke-linecap:round; stroke-width:0.25;"/>
<line x1="218.700000" y1="94.000000" x2="222.700000" y2="94.000000"  style="stroke:black; stroke-linecap:round; stroke-width:0.25;"/>
<line x1="222.700000" y1="94.000000" x2="226.700000" y2="94.000000"  style="stroke:black; stroke-linecap:round; stroke-width:0.25;"/>
<line x1="226.700000" y1="94.000000" x2="236.700000" y2="94.000000"  style="stroke:black; stroke-linecap:round; stroke-width:0.25;"/>
</svg>
