<?xml version="1.0"?>
<svg xmlns="http://www.w3.org/2000/svg" xmlns:xlink="http://www.w3.org/1999/xlink" viewBox="0 0 1009.700000 384.000000" width="504.850000mm" height="192.000000mm" version="1.1">
<a xlink:href="flanger-0x7ffaacc14d50.svg">
<rect x="1.000000" y="1.000000" width="1008.700000" height="383.000000" rx="0" ry="0" style="stroke:none;fill:#cccccc;"/>
<rect x="0.000000" y="0.000000" width="1008.700000" height="383.000000" rx="0" ry="0" style="stroke:none;fill:#ffffff;"/>
</a>
<text x="10.000000" y="7.000000" font-family="Arial" font-size="7"></text>
<rect x="209.700000" y="235.000000" width="24.000000" height="24.000000" rx="0" ry="0" style="stroke:none;fill:#cccccc;"/>
<rect x="208.700000" y="234.000000" width="24.000000" height="24.000000" rx="0" ry="0" style="stroke:none;fill:#4B71A1;"/>
<text x="220.700000" y="248.000000" font-family="Arial" font-size="7" text-anchor="middle" fill="#FFFFFF">-</text>
<circle cx="210.700000" cy="236.000000" r="1"/>
<line x1="205.700000" y1="241.000000" x2="208.700000" y2="242.000000"  transform="rotate(0.000000,208.700000,242.000000)" style="stroke: black; stroke-width:0.25;"/>
<line x1="205.700000" y1="243.000000" x2="208.700000" y2="242.000000"  transform="rotate(0.000000,208.700000,242.000000)" style="stroke: black; stroke-width:0.25;"/>
<line x1="205.700000" y1="249.000000" x2="208.700000" y2="250.000000"  transform="rotate(0.000000,208.700000,250.000000)" style="stroke: black; stroke-width:0.25;"/>
<line x1="205.700000" y1="251.000000" x2="208.700000" y2="250.000000"  transform="rotate(0.000000,208.700000,250.000000)" style="stroke: black; stroke-width:0.25;"/>
<a xlink:href="fdelay-0x7ffaacc14760.svg">
<rect x="241.700000" y="235.000000" width="129.000000" height="24.000000" rx="0" ry="0" style="stroke:none;fill:#cccccc;"/>
<rect x="240.700000" y="234.000000" width="129.000000" height="24.000000" rx="0" ry="0" style="stroke:none;fill:#003366;"/>
</a>
<a xlink:href="fdelay-0x7ffaacc14760.svg">
<text x="305.200000" y="248.000000" font-family="Arial" font-size="7" text-anchor="middle" fill="#FFFFFF">fdelay(2048)(...),2 : /) : +)</text>
</a>
<circle cx="242.700000" cy="236.000000" r="1"/>
<line x1="237.700000" y1="245.000000" x2="240.700000" y2="246.000000"  transform="rotate(0.000000,240.700000,246.000000)" style="stroke: black; stroke-width:0.25;"/>
<line x1="237.700000" y1="247.000000" x2="240.700000" y2="246.000000"  transform="rotate(0.000000,240.700000,246.000000)" style="stroke: black; stroke-width:0.25;"/>
<rect x="207.000000" y="165.000000" width="206.400000" height="24.000000" rx="0" ry="0" style="stroke:none;fill:#cccccc;"/>
<rect x="206.000000" y="164.000000" width="206.400000" height="24.000000" rx="0" ry="0" style="stroke:none;fill:#477881;"/>
<text x="309.200000" y="178.000000" font-family="Arial" font-size="7" text-anchor="middle" fill="#FFFFFF">hslider(Feedback, 0.0f, -0.999f, 0.999f, 0.001f)</text>
<circle cx="410.400000" cy="186.000000" r="1"/>
<line x1="197.000000" y1="155.000000" x2="197.000000" y2="197.000000"  style="stroke: black; stroke-linecap:round; stroke-width:0.25; stroke-dasharray:3,3;"/>
<line x1="197.000000" y1="197.000000" x2="421.400000" y2="197.000000"  style="stroke: black; stroke-linecap:round; stroke-width:0.25; stroke-dasharray:3,3;"/>
<line x1="421.400000" y1="197.000000" x2="421.400000" y2="155.000000"  style="stroke: black; stroke-linecap:round; stroke-width:0.25; stroke-dasharray:3,3;"/>
<line x1="197.000000" y1="155.000000" x2="202.000000" y2="155.000000"  style="stroke: black; stroke-linecap:round; stroke-width:0.25; stroke-dasharray:3,3;"/>
<line x1="234.250000" y1="155.000000" x2="421.400000" y2="155.000000"  style="stroke: black; stroke-linecap:round; stroke-width:0.25; stroke-dasharray:3,3;"/>
<text x="202.000000" y="157.000000" font-family="Arial" font-size="7">hgroup()</text>
<line x1="187.000000" y1="145.000000" x2="187.000000" y2="207.000000"  style="stroke: black; stroke-linecap:round; stroke-width:0.25; stroke-dasharray:3,3;"/>
<line x1="187.000000" y1="207.000000" x2="431.400000" y2="207.000000"  style="stroke: black; stroke-linecap:round; stroke-width:0.25; stroke-dasharray:3,3;"/>
<line x1="431.400000" y1="207.000000" x2="431.400000" y2="145.000000"  style="stroke: black; stroke-linecap:round; stroke-width:0.25; stroke-dasharray:3,3;"/>
<line x1="187.000000" y1="145.000000" x2="192.000000" y2="145.000000"  style="stroke: black; stroke-linecap:round; stroke-width:0.25; stroke-dasharray:3,3;"/>
<line x1="246.825000" y1="145.000000" x2="431.400000" y2="145.000000"  style="stroke: black; stroke-linecap:round; stroke-width:0.25; stroke-dasharray:3,3;"/>
<text x="192.000000" y="147.000000" font-family="Arial" font-size="7">vgroup(FLANGER)</text>
<line x1="177.000000" y1="135.000000" x2="177.000000" y2="217.000000"  style="stroke: black; stroke-linecap:round; stroke-width:0.25; stroke-dasharray:3,3;"/>
<line x1="177.000000" y1="217.000000" x2="441.400000" y2="217.000000"  style="stroke: black; stroke-linecap:round; stroke-width:0.25; stroke-dasharray:3,3;"/>
<line x1="441.400000" y1="217.000000" x2="441.400000" y2="135.000000"  style="stroke: black; stroke-linecap:round; stroke-width:0.25; stroke-dasharray:3,3;"/>
<line x1="177.000000" y1="135.000000" x2="182.000000" y2="135.000000"  style="stroke: black; stroke-linecap:round; stroke-width:0.25; stroke-dasharray:3,3;"/>
<line x1="194.900000" y1="135.000000" x2="441.400000" y2="135.000000"  style="stroke: black; stroke-linecap:round; stroke-width:0.25; stroke-dasharray:3,3;"/>
<text x="182.000000" y="137.000000" font-family="Arial" font-size="7">fb</text>
<rect x="137.000000" y="169.000000" width="24.000000" height="24.000000" rx="0" ry="0" style="stroke:none;fill:#cccccc;"/>
<rect x="136.000000" y="168.000000" width="24.000000" height="24.000000" rx="0" ry="0" style="stroke:none;fill:#4B71A1;"/>
<text x="148.000000" y="182.000000" font-family="Arial" font-size="7" text-anchor="middle" fill="#FFFFFF">*</text>
<circle cx="158.000000" cy="190.000000" r="1"/>
<line x1="163.000000" y1="183.000000" x2="160.000000" y2="184.000000"  transform="rotate(0.000000,160.000000,184.000000)" style="stroke: black; stroke-width:0.25;"/>
<line x1="163.000000" y1="185.000000" x2="160.000000" y2="184.000000"  transform="rotate(0.000000,160.000000,184.000000)" style="stroke: black; stroke-width:0.25;"/>
<line x1="163.000000" y1="175.000000" x2="160.000000" y2="176.000000"  transform="rotate(0.000000,160.000000,176.000000)" style="stroke: black; stroke-width:0.25;"/>
<line x1="163.000000" y1="177.000000" x2="160.000000" y2="176.000000"  transform="rotate(0.000000,160.000000,176.000000)" style="stroke: black; stroke-width:0.25;"/>
<line x1="444.400000" y1="246.000000" x2="444.400000" y2="242.000000"  style="stroke:black; stroke-linecap:round; stroke-width:0.25;"/>
<line x1="444.400000" y1="242.000000" x2="448.400000" y2="242.000000"  style="stroke:black; stroke-linecap:round; stroke-width:0.25;"/>
<line x1="448.400000" y1="242.000000" x2="448.400000" y2="246.000000"  style="stroke:black; stroke-linecap:round; stroke-width:0.25;"/>
<rect x="557.650000" y="71.000000" width="116.100000" height="24.000000" rx="0" ry="0" style="stroke:none;fill:#cccccc;"/>
<rect x="556.650000" y="70.000000" width="116.100000" height="24.000000" rx="0" ry="0" style="stroke:none;fill:#477881;"/>
<text x="614.700000" y="84.000000" font-family="Arial" font-size="7" text-anchor="middle" fill="#FFFFFF">checkbox(Invert Flange Sum)</text>
<circle cx="558.650000" cy="72.000000" r="1"/>
<line x1="547.650000" y1="61.000000" x2="547.650000" y2="103.000000"  style="stroke: black; stroke-linecap:round; stroke-width:0.25; stroke-dasharray:3,3;"/>
<line x1="547.650000" y1="103.000000" x2="681.750000" y2="103.000000"  style="stroke: black; stroke-linecap:round; stroke-width:0.25; stroke-dasharray:3,3;"/>
<line x1="681.750000" y1="103.000000" x2="681.750000" y2="61.000000"  style="stroke: black; stroke-linecap:round; stroke-width:0.25; stroke-dasharray:3,3;"/>
<line x1="547.650000" y1="61.000000" x2="552.650000" y2="61.000000"  style="stroke: black; stroke-linecap:round; stroke-width:0.25; stroke-dasharray:3,3;"/>
<line x1="584.900000" y1="61.000000" x2="681.750000" y2="61.000000"  style="stroke: black; stroke-linecap:round; stroke-width:0.25; stroke-dasharray:3,3;"/>
<text x="552.650000" y="63.000000" font-family="Arial" font-size="7">hgroup()</text>
<line x1="537.650000" y1="51.000000" x2="537.650000" y2="113.000000"  style="stroke: black; stroke-linecap:round; stroke-width:0.25; stroke-dasharray:3,3;"/>
<line x1="537.650000" y1="113.000000" x2="691.750000" y2="113.000000"  style="stroke: black; stroke-linecap:round; stroke-width:0.25; stroke-dasharray:3,3;"/>
<line x1="691.750000" y1="113.000000" x2="691.750000" y2="51.000000"  style="stroke: black; stroke-linecap:round; stroke-width:0.25; stroke-dasharray:3,3;"/>
<line x1="537.650000" y1="51.000000" x2="542.650000" y2="51.000000"  style="stroke: black; stroke-linecap:round; stroke-width:0.25; stroke-dasharray:3,3;"/>
<line x1="597.475000" y1="51.000000" x2="691.750000" y2="51.000000"  style="stroke: black; stroke-linecap:round; stroke-width:0.25; stroke-dasharray:3,3;"/>
<text x="542.650000" y="53.000000" font-family="Arial" font-size="7">vgroup(FLANGER)</text>
<line x1="527.650000" y1="41.000000" x2="527.650000" y2="123.000000"  style="stroke: black; stroke-linecap:round; stroke-width:0.25; stroke-dasharray:3,3;"/>
<line x1="527.650000" y1="123.000000" x2="701.750000" y2="123.000000"  style="stroke: black; stroke-linecap:round; stroke-width:0.25; stroke-dasharray:3,3;"/>
<line x1="701.750000" y1="123.000000" x2="701.750000" y2="41.000000"  style="stroke: black; stroke-linecap:round; stroke-width:0.25; stroke-dasharray:3,3;"/>
<line x1="527.650000" y1="41.000000" x2="532.650000" y2="41.000000"  style="stroke: black; stroke-linecap:round; stroke-width:0.25; stroke-dasharray:3,3;"/>
<line x1="558.450000" y1="41.000000" x2="701.750000" y2="41.000000"  style="stroke: black; stroke-linecap:round; stroke-width:0.25; stroke-dasharray:3,3;"/>
<text x="532.650000" y="43.000000" font-family="Arial" font-size="7">invert</text>
<rect x="525.400000" y="163.000000" width="180.600000" height="24.000000" rx="0" ry="0" style="stroke:none;fill:#cccccc;"/>
<rect x="524.400000" y="162.000000" width="180.600000" height="24.000000" rx="0" ry="0" style="stroke:none;fill:#477881;"/>
<text x="614.700000" y="176.000000" font-family="Arial" font-size="7" text-anchor="middle" fill="#FFFFFF">hslider(Depth, 1.0f, 0.0f, 1.0f, 0.001f)</text>
<circle cx="526.400000" cy="164.000000" r="1"/>
<line x1="515.400000" y1="153.000000" x2="515.400000" y2="195.000000"  style="stroke: black; stroke-linecap:round; stroke-width:0.25; stroke-dasharray:3,3;"/>
<line x1="515.400000" y1="195.000000" x2="714.000000" y2="195.000000"  style="stroke: black; stroke-linecap:round; stroke-width:0.25; stroke-dasharray:3,3;"/>
<line x1="714.000000" y1="195.000000" x2="714.000000" y2="153.000000"  style="stroke: black; stroke-linecap:round; stroke-width:0.25; stroke-dasharray:3,3;"/>
<line x1="515.400000" y1="153.000000" x2="520.400000" y2="153.000000"  style="stroke: black; stroke-linecap:round; stroke-width:0.25; stroke-dasharray:3,3;"/>
<line x1="552.650000" y1="153.000000" x2="714.000000" y2="153.000000"  style="stroke: black; stroke-linecap:round; stroke-width:0.25; stroke-dasharray:3,3;"/>
<text x="520.400000" y="155.000000" font-family="Arial" font-size="7">hgroup()</text>
<line x1="505.400000" y1="143.000000" x2="505.400000" y2="205.000000"  style="stroke: black; stroke-linecap:round; stroke-width:0.25; stroke-dasharray:3,3;"/>
<line x1="505.400000" y1="205.000000" x2="724.000000" y2="205.000000"  style="stroke: black; stroke-linecap:round; stroke-width:0.25; stroke-dasharray:3,3;"/>
<line x1="724.000000" y1="205.000000" x2="724.000000" y2="143.000000"  style="stroke: black; stroke-linecap:round; stroke-width:0.25; stroke-dasharray:3,3;"/>
<line x1="505.400000" y1="143.000000" x2="510.400000" y2="143.000000"  style="stroke: black; stroke-linecap:round; stroke-width:0.25; stroke-dasharray:3,3;"/>
<line x1="565.225000" y1="143.000000" x2="724.000000" y2="143.000000"  style="stroke: black; stroke-linecap:round; stroke-width:0.25; stroke-dasharray:3,3;"/>
<text x="510.400000" y="145.000000" font-family="Arial" font-size="7">vgroup(FLANGER)</text>
<line x1="495.400000" y1="133.000000" x2="495.400000" y2="215.000000"  style="stroke: black; stroke-linecap:round; stroke-width:0.25; stroke-dasharray:3,3;"/>
<line x1="495.400000" y1="215.000000" x2="734.000000" y2="215.000000"  style="stroke: black; stroke-linecap:round; stroke-width:0.25; stroke-dasharray:3,3;"/>
<line x1="734.000000" y1="215.000000" x2="734.000000" y2="133.000000"  style="stroke: black; stroke-linecap:round; stroke-width:0.25; stroke-dasharray:3,3;"/>
<line x1="495.400000" y1="133.000000" x2="500.400000" y2="133.000000"  style="stroke: black; stroke-linecap:round; stroke-width:0.25; stroke-dasharray:3,3;"/>
<line x1="522.975000" y1="133.000000" x2="734.000000" y2="133.000000"  style="stroke: black; stroke-linecap:round; stroke-width:0.25; stroke-dasharray:3,3;"/>
<text x="500.400000" y="135.000000" font-family="Arial" font-size="7">depth</text>
<rect x="583.700000" y="235.000000" width="24.000000" height="24.000000" rx="0" ry="0" style="stroke:none;fill:#cccccc;"/>
<rect x="582.700000" y="234.000000" width="24.000000" height="24.000000" rx="0" ry="0" style="stroke:none;fill:#f44800;"/>
<text x="594.700000" y="248.000000" font-family="Arial" font-size="7" text-anchor="middle" fill="#FFFFFF">0</text>
<circle cx="584.700000" cy="236.000000" r="1"/>
<line x1="573.700000" y1="225.000000" x2="573.700000" y2="267.000000"  style="stroke: black; stroke-linecap:round; stroke-width:0.25; stroke-dasharray:3,3;"/>
<line x1="573.700000" y1="267.000000" x2="615.700000" y2="267.000000"  style="stroke: black; stroke-linecap:round; stroke-width:0.25; stroke-dasharray:3,3;"/>
<line x1="615.700000" y1="267.000000" x2="615.700000" y2="225.000000"  style="stroke: black; stroke-linecap:round; stroke-width:0.25; stroke-dasharray:3,3;"/>
<line x1="573.700000" y1="225.000000" x2="578.700000" y2="225.000000"  style="stroke: black; stroke-linecap:round; stroke-width:0.25; stroke-dasharray:3,3;"/>
<line x1="594.825000" y1="225.000000" x2="615.700000" y2="225.000000"  style="stroke: black; stroke-linecap:round; stroke-width:0.25; stroke-dasharray:3,3;"/>
<text x="578.700000" y="227.000000" font-family="Arial" font-size="7">b13</text>
<rect x="505.400000" y="307.000000" width="180.600000" height="24.000000" rx="0" ry="0" style="stroke:none;fill:#cccccc;"/>
<rect x="504.400000" y="306.000000" width="180.600000" height="24.000000" rx="0" ry="0" style="stroke:none;fill:#477881;"/>
<text x="594.700000" y="320.000000" font-family="Arial" font-size="7" text-anchor="middle" fill="#FFFFFF">hslider(Depth, 1.0f, 0.0f, 1.0f, 0.001f)</text>
<circle cx="506.400000" cy="308.000000" r="1"/>
<line x1="495.400000" y1="297.000000" x2="495.400000" y2="339.000000"  style="stroke: black; stroke-linecap:round; stroke-width:0.25; stroke-dasharray:3,3;"/>
<line x1="495.400000" y1="339.000000" x2="694.000000" y2="339.000000"  style="stroke: black; stroke-linecap:round; stroke-width:0.25; stroke-dasharray:3,3;"/>
<line x1="694.000000" y1="339.000000" x2="694.000000" y2="297.000000"  style="stroke: black; stroke-linecap:round; stroke-width:0.25; stroke-dasharray:3,3;"/>
<line x1="495.400000" y1="297.000000" x2="500.400000" y2="297.000000"  style="stroke: black; stroke-linecap:round; stroke-width:0.25; stroke-dasharray:3,3;"/>
<line x1="532.650000" y1="297.000000" x2="694.000000" y2="297.000000"  style="stroke: black; stroke-linecap:round; stroke-width:0.25; stroke-dasharray:3,3;"/>
<text x="500.400000" y="299.000000" font-family="Arial" font-size="7">hgroup()</text>
<line x1="485.400000" y1="287.000000" x2="485.400000" y2="349.000000"  style="stroke: black; stroke-linecap:round; stroke-width:0.25; stroke-dasharray:3,3;"/>
<line x1="485.400000" y1="349.000000" x2="704.000000" y2="349.000000"  style="stroke: black; stroke-linecap:round; stroke-width:0.25; stroke-dasharray:3,3;"/>
<line x1="704.000000" y1="349.000000" x2="704.000000" y2="287.000000"  style="stroke: black; stroke-linecap:round; stroke-width:0.25; stroke-dasharray:3,3;"/>
<line x1="485.400000" y1="287.000000" x2="490.400000" y2="287.000000"  style="stroke: black; stroke-linecap:round; stroke-width:0.25; stroke-dasharray:3,3;"/>
<line x1="545.225000" y1="287.000000" x2="704.000000" y2="287.000000"  style="stroke: black; stroke-linecap:round; stroke-width:0.25; stroke-dasharray:3,3;"/>
<text x="490.400000" y="289.000000" font-family="Arial" font-size="7">vgroup(FLANGER)</text>
<line x1="475.400000" y1="277.000000" x2="475.400000" y2="359.000000"  style="stroke: black; stroke-linecap:round; stroke-width:0.25; stroke-dasharray:3,3;"/>
<line x1="475.400000" y1="359.000000" x2="714.000000" y2="359.000000"  style="stroke: black; stroke-linecap:round; stroke-width:0.25; stroke-dasharray:3,3;"/>
<line x1="714.000000" y1="359.000000" x2="714.000000" y2="277.000000"  style="stroke: black; stroke-linecap:round; stroke-width:0.25; stroke-dasharray:3,3;"/>
<line x1="475.400000" y1="277.000000" x2="480.400000" y2="277.000000"  style="stroke: black; stroke-linecap:round; stroke-width:0.25; stroke-dasharray:3,3;"/>
<line x1="502.975000" y1="277.000000" x2="714.000000" y2="277.000000"  style="stroke: black; stroke-linecap:round; stroke-width:0.25; stroke-dasharray:3,3;"/>
<text x="480.400000" y="279.000000" font-family="Arial" font-size="7">depth</text>
<rect x="732.000000" y="281.000000" width="24.000000" height="24.000000" rx="0" ry="0" style="stroke:none;fill:#cccccc;"/>
<rect x="731.000000" y="280.000000" width="24.000000" height="24.000000" rx="0" ry="0" style="stroke:none;fill:#4B71A1;"/>
<text x="743.000000" y="294.000000" font-family="Arial" font-size="7" text-anchor="middle" fill="#FFFFFF">-</text>
<circle cx="733.000000" cy="282.000000" r="1"/>
<line x1="728.000000" y1="287.000000" x2="731.000000" y2="288.000000"  transform="rotate(0.000000,731.000000,288.000000)" style="stroke: black; stroke-width:0.25;"/>
<line x1="728.000000" y1="289.000000" x2="731.000000" y2="288.000000"  transform="rotate(0.000000,731.000000,288.000000)" style="stroke: black; stroke-width:0.25;"/>
<line x1="728.000000" y1="295.000000" x2="731.000000" y2="296.000000"  transform="rotate(0.000000,731.000000,296.000000)" style="stroke: black; stroke-width:0.25;"/>
<line x1="728.000000" y1="297.000000" x2="731.000000" y2="296.000000"  transform="rotate(0.000000,731.000000,296.000000)" style="stroke: black; stroke-width:0.25;"/>
<rect x="780.000000" y="189.000000" width="38.700000" height="24.000000" rx="0" ry="0" style="stroke:none;fill:#cccccc;"/>
<rect x="779.000000" y="188.000000" width="38.700000" height="24.000000" rx="0" ry="0" style="stroke:none;fill:#4B71A1;"/>
<text x="798.350000" y="202.000000" font-family="Arial" font-size="7" text-anchor="middle" fill="#FFFFFF">select2</text>
<circle cx="781.000000" cy="190.000000" r="1"/>
<line x1="776.000000" y1="191.000000" x2="779.000000" y2="192.000000"  transform="rotate(0.000000,779.000000,192.000000)" style="stroke: black; stroke-width:0.25;"/>
<line x1="776.000000" y1="193.000000" x2="779.000000" y2="192.000000"  transform="rotate(0.000000,779.000000,192.000000)" style="stroke: black; stroke-width:0.25;"/>
<line x1="776.000000" y1="199.000000" x2="779.000000" y2="200.000000"  transform="rotate(0.000000,779.000000,200.000000)" style="stroke: black; stroke-width:0.25;"/>
<line x1="776.000000" y1="201.000000" x2="779.000000" y2="200.000000"  transform="rotate(0.000000,779.000000,200.000000)" style="stroke: black; stroke-width:0.25;"/>
<line x1="776.000000" y1="207.000000" x2="779.000000" y2="208.000000"  transform="rotate(0.000000,779.000000,208.000000)" style="stroke: black; stroke-width:0.25;"/>
<line x1="776.000000" y1="209.000000" x2="779.000000" y2="208.000000"  transform="rotate(0.000000,779.000000,208.000000)" style="stroke: black; stroke-width:0.25;"/>
<rect x="834.700000" y="185.000000" width="24.000000" height="24.000000" rx="0" ry="0" style="stroke:none;fill:#cccccc;"/>
<rect x="833.700000" y="184.000000" width="24.000000" height="24.000000" rx="0" ry="0" style="stroke:none;fill:#4B71A1;"/>
<text x="845.700000" y="198.000000" font-family="Arial" font-size="7" text-anchor="middle" fill="#FFFFFF">*</text>
<circle cx="835.700000" cy="186.000000" r="1"/>
<line x1="830.700000" y1="191.000000" x2="833.700000" y2="192.000000"  transform="rotate(0.000000,833.700000,192.000000)" style="stroke: black; stroke-width:0.25;"/>
<line x1="830.700000" y1="193.000000" x2="833.700000" y2="192.000000"  transform="rotate(0.000000,833.700000,192.000000)" style="stroke: black; stroke-width:0.25;"/>
<line x1="830.700000" y1="199.000000" x2="833.700000" y2="200.000000"  transform="rotate(0.000000,833.700000,200.000000)" style="stroke: black; stroke-width:0.25;"/>
<line x1="830.700000" y1="201.000000" x2="833.700000" y2="200.000000"  transform="rotate(0.000000,833.700000,200.000000)" style="stroke: black; stroke-width:0.25;"/>
<rect x="874.700000" y="181.000000" width="24.000000" height="24.000000" rx="0" ry="0" style="stroke:none;fill:#cccccc;"/>
<rect x="873.700000" y="180.000000" width="24.000000" height="24.000000" rx="0" ry="0" style="stroke:none;fill:#4B71A1;"/>
<text x="885.700000" y="194.000000" font-family="Arial" font-size="7" text-anchor="middle" fill="#FFFFFF">+</text>
<circle cx="875.700000" cy="182.000000" r="1"/>
<line x1="870.700000" y1="187.000000" x2="873.700000" y2="188.000000"  transform="rotate(0.000000,873.700000,188.000000)" style="stroke: black; stroke-width:0.25;"/>
<line x1="870.700000" y1="189.000000" x2="873.700000" y2="188.000000"  transform="rotate(0.000000,873.700000,188.000000)" style="stroke: black; stroke-width:0.25;"/>
<line x1="870.700000" y1="195.000000" x2="873.700000" y2="196.000000"  transform="rotate(0.000000,873.700000,196.000000)" style="stroke: black; stroke-width:0.25;"/>
<line x1="870.700000" y1="197.000000" x2="873.700000" y2="196.000000"  transform="rotate(0.000000,873.700000,196.000000)" style="stroke: black; stroke-width:0.25;"/>
<rect x="914.700000" y="185.000000" width="24.000000" height="24.000000" rx="0" ry="0" style="stroke:none;fill:#cccccc;"/>
<rect x="913.700000" y="184.000000" width="24.000000" height="24.000000" rx="0" ry="0" style="stroke:none;fill:#f44800;"/>
<text x="925.700000" y="198.000000" font-family="Arial" font-size="7" text-anchor="middle" fill="#FFFFFF">0.5</text>
<circle cx="915.700000" cy="186.000000" r="1"/>
<rect x="954.700000" y="181.000000" width="24.000000" height="24.000000" rx="0" ry="0" style="stroke:none;fill:#cccccc;"/>
<rect x="953.700000" y="180.000000" width="24.000000" height="24.000000" rx="0" ry="0" style="stroke:none;fill:#4B71A1;"/>
<text x="965.700000" y="194.000000" font-family="Arial" font-size="7" text-anchor="middle" fill="#FFFFFF">*</text>
<circle cx="955.700000" cy="182.000000" r="1"/>
<line x1="950.700000" y1="187.000000" x2="953.700000" y2="188.000000"  transform="rotate(0.000000,953.700000,188.000000)" style="stroke: black; stroke-width:0.25;"/>
<line x1="950.700000" y1="189.000000" x2="953.700000" y2="188.000000"  transform="rotate(0.000000,953.700000,188.000000)" style="stroke: black; stroke-width:0.25;"/>
<line x1="950.700000" y1="195.000000" x2="953.700000" y2="196.000000"  transform="rotate(0.000000,953.700000,196.000000)" style="stroke: black; stroke-width:0.25;"/>
<line x1="950.700000" y1="197.000000" x2="953.700000" y2="196.000000"  transform="rotate(0.000000,953.700000,196.000000)" style="stroke: black; stroke-width:0.25;"/>
<line x1="15.000000" y1="15.000000" x2="15.000000" y2="369.000000"  style="stroke: black; stroke-linecap:round; stroke-width:0.25; stroke-dasharray:3,3;"/>
<line x1="15.000000" y1="369.000000" x2="994.700000" y2="369.000000"  style="stroke: black; stroke-linecap:round; stroke-width:0.25; stroke-dasharray:3,3;"/>
<line x1="994.700000" y1="369.000000" x2="994.700000" y2="15.000000"  style="stroke: black; stroke-linecap:round; stroke-width:0.25; stroke-dasharray:3,3;"/>
<line x1="15.000000" y1="15.000000" x2="20.000000" y2="15.000000"  style="stroke: black; stroke-linecap:round; stroke-width:0.25; stroke-dasharray:3,3;"/>
<line x1="119.975000" y1="15.000000" x2="994.700000" y2="15.000000"  style="stroke: black; stroke-linecap:round; stroke-width:0.25; stroke-dasharray:3,3;"/>
<text x="20.000000" y="17.000000" font-family="Arial" font-size="7">flanger_mono(...ange Sum&quot;))))</text>
<line x1="996.700000" y1="191.000000" x2="999.700000" y2="192.000000"  transform="rotate(0.000000,999.700000,192.000000)" style="stroke: black; stroke-width:0.25;"/>
<line x1="996.700000" y1="193.000000" x2="999.700000" y2="192.000000"  transform="rotate(0.000000,999.700000,192.000000)" style="stroke: black; stroke-width:0.25;"/>
<line x1="10.000000" y1="192.000000" x2="20.000000" y2="192.000000"  style="stroke:black; stroke-linecap:round; stroke-width:0.25;"/>
<line x1="20.000000" y1="192.000000" x2="24.000000" y2="192.000000"  style="stroke:black; stroke-linecap:round; stroke-width:0.25;"/>
<line x1="24.000000" y1="192.000000" x2="28.000000" y2="192.000000"  style="stroke:black; stroke-linecap:round; stroke-width:0.25;"/>
<line x1="28.000000" y1="192.000000" x2="28.000000" y2="192.000000"  style="stroke:black; stroke-linecap:round; stroke-width:0.25;"/>
<line x1="28.000000" y1="192.000000" x2="32.000000" y2="192.000000"  style="stroke:black; stroke-linecap:round; stroke-width:0.25;"/>
<line x1="32.000000" y1="192.000000" x2="36.000000" y2="192.000000"  style="stroke:black; stroke-linecap:round; stroke-width:0.25;"/>
<line x1="36.000000" y1="192.000000" x2="124.000000" y2="126.000000"  style="stroke:black; stroke-linecap:round; stroke-width:0.25;"/>
<line x1="36.000000" y1="192.000000" x2="124.000000" y2="250.000000"  style="stroke:black; stroke-linecap:round; stroke-width:0.25;"/>
<line x1="124.000000" y1="126.000000" x2="289.200000" y2="126.000000"  style="stroke:black; stroke-linecap:round; stroke-width:0.25;"/>
<line x1="124.000000" y1="250.000000" x2="132.000000" y2="250.000000"  style="stroke:black; stroke-linecap:round; stroke-width:0.25;"/>
<line x1="132.000000" y1="180.000000" x2="132.000000" y2="180.000000"  style="stroke:black; stroke-linecap:round; stroke-width:0.25;"/>
<line x1="132.000000" y1="180.000000" x2="132.000000" y2="242.000000"  style="stroke:black; stroke-linecap:round; stroke-width:0.25;"/>
<line x1="132.000000" y1="242.000000" x2="132.000000" y2="242.000000"  style="stroke:black; stroke-linecap:round; stroke-width:0.25;"/>
<line x1="132.000000" y1="242.000000" x2="204.700000" y2="242.000000"  style="stroke:black; stroke-linecap:round; stroke-width:0.25;"/>
<line x1="132.000000" y1="250.000000" x2="204.700000" y2="250.000000"  style="stroke:black; stroke-linecap:round; stroke-width:0.25;"/>
<line x1="136.000000" y1="180.000000" x2="132.000000" y2="180.000000"  style="stroke:black; stroke-linecap:round; stroke-width:0.25;"/>
<line x1="164.000000" y1="176.000000" x2="160.000000" y2="176.000000"  style="stroke:black; stroke-linecap:round; stroke-width:0.25;"/>
<line x1="164.000000" y1="184.000000" x2="160.000000" y2="184.000000"  style="stroke:black; stroke-linecap:round; stroke-width:0.25;"/>
<line x1="164.000000" y1="184.000000" x2="164.000000" y2="184.000000"  style="stroke:black; stroke-linecap:round; stroke-width:0.25;"/>
<line x1="164.000000" y1="226.000000" x2="164.000000" y2="184.000000"  style="stroke:black; stroke-linecap:round; stroke-width:0.25;"/>
<line x1="172.000000" y1="176.000000" x2="164.000000" y2="176.000000"  style="stroke:black; stroke-linecap:round; stroke-width:0.25;"/>
<line x1="172.000000" y1="226.000000" x2="164.000000" y2="226.000000"  style="stroke:black; stroke-linecap:round; stroke-width:0.25;"/>
<line x1="182.000000" y1="176.000000" x2="172.000000" y2="176.000000"  style="stroke:black; stroke-linecap:round; stroke-width:0.25;"/>
<line x1="192.000000" y1="176.000000" x2="182.000000" y2="176.000000"  style="stroke:black; stroke-linecap:round; stroke-width:0.25;"/>
<line x1="202.000000" y1="176.000000" x2="192.000000" y2="176.000000"  style="stroke:black; stroke-linecap:round; stroke-width:0.25;"/>
<line x1="204.700000" y1="242.000000" x2="208.700000" y2="242.000000"  style="stroke:black; stroke-linecap:round; stroke-width:0.25;"/>
<line x1="204.700000" y1="250.000000" x2="208.700000" y2="250.000000"  style="stroke:black; stroke-linecap:round; stroke-width:0.25;"/>
<line x1="206.000000" y1="176.000000" x2="202.000000" y2="176.000000"  style="stroke:black; stroke-linecap:round; stroke-width:0.25;"/>
<line x1="232.700000" y1="246.000000" x2="236.700000" y2="246.000000"  style="stroke:black; stroke-linecap:round; stroke-width:0.25;"/>
<line x1="236.700000" y1="246.000000" x2="236.700000" y2="246.000000"  style="stroke:black; stroke-linecap:round; stroke-width:0.25;"/>
<line x1="236.700000" y1="246.000000" x2="240.700000" y2="246.000000"  style="stroke:black; stroke-linecap:round; stroke-width:0.25;"/>
<line x1="289.200000" y1="126.000000" x2="454.400000" y2="126.000000"  style="stroke:black; stroke-linecap:round; stroke-width:0.25;"/>
<line x1="309.200000" y1="226.000000" x2="172.000000" y2="226.000000"  style="stroke:black; stroke-linecap:round; stroke-width:0.25;"/>
<line x1="369.700000" y1="246.000000" x2="373.700000" y2="246.000000"  style="stroke:black; stroke-linecap:round; stroke-width:0.25;"/>
<line x1="373.700000" y1="246.000000" x2="446.400000" y2="246.000000"  style="stroke:black; stroke-linecap:round; stroke-width:0.25;"/>
<line x1="446.400000" y1="226.000000" x2="309.200000" y2="226.000000"  style="stroke:black; stroke-linecap:round; stroke-width:0.25;"/>
<line x1="446.400000" y1="226.000000" x2="446.400000" y2="226.000000"  style="stroke:black; stroke-linecap:round; stroke-width:0.25;"/>
<line x1="446.400000" y1="242.000000" x2="446.400000" y2="226.000000"  style="stroke:black; stroke-linecap:round; stroke-width:0.25;"/>
<line x1="446.400000" y1="246.000000" x2="448.400000" y2="246.000000"  style="stroke:black; stroke-linecap:round; stroke-width:0.25;"/>
<line x1="448.400000" y1="246.000000" x2="454.400000" y2="246.000000"  style="stroke:black; stroke-linecap:round; stroke-width:0.25;"/>
<line x1="454.400000" y1="24.000000" x2="470.400000" y2="24.000000"  style="stroke:black; stroke-linecap:round; stroke-width:0.25;"/>
<line x1="454.400000" y1="126.000000" x2="454.400000" y2="24.000000"  style="stroke:black; stroke-linecap:round; stroke-width:0.25;"/>
<line x1="454.400000" y1="126.000000" x2="454.400000" y2="126.000000"  style="stroke:black; stroke-linecap:round; stroke-width:0.25;"/>
<line x1="454.400000" y1="246.000000" x2="462.400000" y2="246.000000"  style="stroke:black; stroke-linecap:round; stroke-width:0.25;"/>
<line x1="462.400000" y1="32.000000" x2="470.400000" y2="32.000000"  style="stroke:black; stroke-linecap:round; stroke-width:0.25;"/>
<line x1="462.400000" y1="246.000000" x2="462.400000" y2="32.000000"  style="stroke:black; stroke-linecap:round; stroke-width:0.25;"/>
<line x1="470.400000" y1="24.000000" x2="666.050000" y2="24.000000"  style="stroke:black; stroke-linecap:round; stroke-width:0.25;"/>
<line x1="470.400000" y1="32.000000" x2="646.050000" y2="32.000000"  style="stroke:black; stroke-linecap:round; stroke-width:0.25;"/>
<line x1="606.700000" y1="246.000000" x2="610.700000" y2="246.000000"  style="stroke:black; stroke-linecap:round; stroke-width:0.25;"/>
<line x1="610.700000" y1="246.000000" x2="620.700000" y2="246.000000"  style="stroke:black; stroke-linecap:round; stroke-width:0.25;"/>
<line x1="620.700000" y1="246.000000" x2="719.000000" y2="246.000000"  style="stroke:black; stroke-linecap:round; stroke-width:0.25;"/>
<line x1="646.050000" y1="32.000000" x2="821.700000" y2="32.000000"  style="stroke:black; stroke-linecap:round; stroke-width:0.25;"/>
<line x1="666.050000" y1="24.000000" x2="861.700000" y2="24.000000"  style="stroke:black; stroke-linecap:round; stroke-width:0.25;"/>
<line x1="672.750000" y1="82.000000" x2="676.750000" y2="82.000000"  style="stroke:black; stroke-linecap:round; stroke-width:0.25;"/>
<line x1="676.750000" y1="82.000000" x2="686.750000" y2="82.000000"  style="stroke:black; stroke-linecap:round; stroke-width:0.25;"/>
<line x1="685.000000" y1="318.000000" x2="689.000000" y2="318.000000"  style="stroke:black; stroke-linecap:round; stroke-width:0.25;"/>
<line x1="686.750000" y1="82.000000" x2="696.750000" y2="82.000000"  style="stroke:black; stroke-linecap:round; stroke-width:0.25;"/>
<line x1="689.000000" y1="318.000000" x2="699.000000" y2="318.000000"  style="stroke:black; stroke-linecap:round; stroke-width:0.25;"/>
<line x1="696.750000" y1="82.000000" x2="706.750000" y2="82.000000"  style="stroke:black; stroke-linecap:round; stroke-width:0.25;"/>
<line x1="699.000000" y1="318.000000" x2="709.000000" y2="318.000000"  style="stroke:black; stroke-linecap:round; stroke-width:0.25;"/>
<line x1="705.000000" y1="174.000000" x2="709.000000" y2="174.000000"  style="stroke:black; stroke-linecap:round; stroke-width:0.25;"/>
<line x1="706.750000" y1="82.000000" x2="759.000000" y2="82.000000"  style="stroke:black; stroke-linecap:round; stroke-width:0.25;"/>
<line x1="709.000000" y1="174.000000" x2="719.000000" y2="174.000000"  style="stroke:black; stroke-linecap:round; stroke-width:0.25;"/>
<line x1="709.000000" y1="318.000000" x2="719.000000" y2="318.000000"  style="stroke:black; stroke-linecap:round; stroke-width:0.25;"/>
<line x1="719.000000" y1="246.000000" x2="727.000000" y2="246.000000"  style="stroke:black; stroke-linecap:round; stroke-width:0.25;"/>
<line x1="719.000000" y1="174.000000" x2="729.000000" y2="174.000000"  style="stroke:black; stroke-linecap:round; stroke-width:0.25;"/>
<line x1="719.000000" y1="296.000000" x2="727.000000" y2="296.000000"  style="stroke:black; stroke-linecap:round; stroke-width:0.25;"/>
<line x1="719.000000" y1="318.000000" x2="719.000000" y2="296.000000"  style="stroke:black; stroke-linecap:round; stroke-width:0.25;"/>
<line x1="719.000000" y1="318.000000" x2="719.000000" y2="318.000000"  style="stroke:black; stroke-linecap:round; stroke-width:0.25;"/>
<line x1="727.000000" y1="246.000000" x2="727.000000" y2="288.000000"  style="stroke:black; stroke-linecap:round; stroke-width:0.25;"/>
<line x1="727.000000" y1="288.000000" x2="727.000000" y2="288.000000"  style="stroke:black; stroke-linecap:round; stroke-width:0.25;"/>
<line x1="727.000000" y1="288.000000" x2="731.000000" y2="288.000000"  style="stroke:black; stroke-linecap:round; stroke-width:0.25;"/>
<line x1="727.000000" y1="296.000000" x2="731.000000" y2="296.000000"  style="stroke:black; stroke-linecap:round; stroke-width:0.25;"/>
<line x1="729.000000" y1="174.000000" x2="739.000000" y2="174.000000"  style="stroke:black; stroke-linecap:round; stroke-width:0.25;"/>
<line x1="739.000000" y1="174.000000" x2="759.000000" y2="174.000000"  style="stroke:black; stroke-linecap:round; stroke-width:0.25;"/>
<line x1="755.000000" y1="292.000000" x2="759.000000" y2="292.000000"  style="stroke:black; stroke-linecap:round; stroke-width:0.25;"/>
<line x1="759.000000" y1="82.000000" x2="775.000000" y2="82.000000"  style="stroke:black; stroke-linecap:round; stroke-width:0.25;"/>
<line x1="759.000000" y1="174.000000" x2="767.000000" y2="174.000000"  style="stroke:black; stroke-linecap:round; stroke-width:0.25;"/>
<line x1="759.000000" y1="208.000000" x2="775.000000" y2="208.000000"  style="stroke:black; stroke-linecap:round; stroke-width:0.25;"/>
<line x1="759.000000" y1="292.000000" x2="759.000000" y2="208.000000"  style="stroke:black; stroke-linecap:round; stroke-width:0.25;"/>
<line x1="759.000000" y1="292.000000" x2="759.000000" y2="292.000000"  style="stroke:black; stroke-linecap:round; stroke-width:0.25;"/>
<line x1="767.000000" y1="174.000000" x2="767.000000" y2="200.000000"  style="stroke:black; stroke-linecap:round; stroke-width:0.25;"/>
<line x1="767.000000" y1="200.000000" x2="775.000000" y2="200.000000"  style="stroke:black; stroke-linecap:round; stroke-width:0.25;"/>
<line x1="775.000000" y1="82.000000" x2="775.000000" y2="192.000000"  style="stroke:black; stroke-linecap:round; stroke-width:0.25;"/>
<line x1="775.000000" y1="192.000000" x2="775.000000" y2="192.000000"  style="stroke:black; stroke-linecap:round; stroke-width:0.25;"/>
<line x1="775.000000" y1="192.000000" x2="779.000000" y2="192.000000"  style="stroke:black; stroke-linecap:round; stroke-width:0.25;"/>
<line x1="775.000000" y1="200.000000" x2="779.000000" y2="200.000000"  style="stroke:black; stroke-linecap:round; stroke-width:0.25;"/>
<line x1="775.000000" y1="208.000000" x2="779.000000" y2="208.000000"  style="stroke:black; stroke-linecap:round; stroke-width:0.25;"/>
<line x1="817.700000" y1="200.000000" x2="821.700000" y2="200.000000"  style="stroke:black; stroke-linecap:round; stroke-width:0.25;"/>
<line x1="821.700000" y1="32.000000" x2="829.700000" y2="32.000000"  style="stroke:black; stroke-linecap:round; stroke-width:0.25;"/>
<line x1="821.700000" y1="200.000000" x2="829.700000" y2="200.000000"  style="stroke:black; stroke-linecap:round; stroke-width:0.25;"/>
<line x1="829.700000" y1="32.000000" x2="829.700000" y2="192.000000"  style="stroke:black; stroke-linecap:round; stroke-width:0.25;"/>
<line x1="829.700000" y1="192.000000" x2="829.700000" y2="192.000000"  style="stroke:black; stroke-linecap:round; stroke-width:0.25;"/>
<line x1="829.700000" y1="192.000000" x2="833.700000" y2="192.000000"  style="stroke:black; stroke-linecap:round; stroke-width:0.25;"/>
<line x1="829.700000" y1="200.000000" x2="833.700000" y2="200.000000"  style="stroke:black; stroke-linecap:round; stroke-width:0.25;"/>
<line x1="857.700000" y1="196.000000" x2="861.700000" y2="196.000000"  style="stroke:black; stroke-linecap:round; stroke-width:0.25;"/>
<line x1="861.700000" y1="24.000000" x2="869.700000" y2="24.000000"  style="stroke:black; stroke-linecap:round; stroke-width:0.25;"/>
<line x1="861.700000" y1="196.000000" x2="869.700000" y2="196.000000"  style="stroke:black; stroke-linecap:round; stroke-width:0.25;"/>
<line x1="869.700000" y1="24.000000" x2="869.700000" y2="188.000000"  style="stroke:black; stroke-linecap:round; stroke-width:0.25;"/>
<line x1="869.700000" y1="188.000000" x2="869.700000" y2="188.000000"  style="stroke:black; stroke-linecap:round; stroke-width:0.25;"/>
<line x1="869.700000" y1="188.000000" x2="873.700000" y2="188.000000"  style="stroke:black; stroke-linecap:round; stroke-width:0.25;"/>
<line x1="869.700000" y1="196.000000" x2="873.700000" y2="196.000000"  style="stroke:black; stroke-linecap:round; stroke-width:0.25;"/>
<line x1="897.700000" y1="192.000000" x2="901.700000" y2="192.000000"  style="stroke:black; stroke-linecap:round; stroke-width:0.25;"/>
<line x1="901.700000" y1="176.000000" x2="909.700000" y2="176.000000"  style="stroke:black; stroke-linecap:round; stroke-width:0.25;"/>
<line x1="901.700000" y1="192.000000" x2="901.700000" y2="176.000000"  style="stroke:black; stroke-linecap:round; stroke-width:0.25;"/>
<line x1="901.700000" y1="192.000000" x2="901.700000" y2="192.000000"  style="stroke:black; stroke-linecap:round; stroke-width:0.25;"/>
<line x1="909.700000" y1="176.000000" x2="925.700000" y2="176.000000"  style="stroke:black; stroke-linecap:round; stroke-width:0.25;"/>
<line x1="925.700000" y1="176.000000" x2="941.700000" y2="176.000000"  style="stroke:black; stroke-linecap:round; stroke-width:0.25;"/>
<line x1="937.700000" y1="196.000000" x2="941.700000" y2="196.000000"  style="stroke:black; stroke-linecap:round; stroke-width:0.25;"/>
<line x1="941.700000" y1="176.000000" x2="949.700000" y2="176.000000"  style="stroke:black; stroke-linecap:round; stroke-width:0.25;"/>
<line x1="941.700000" y1="196.000000" x2="949.700000" y2="196.000000"  style="stroke:black; stroke-linecap:round; stroke-width:0.25;"/>
<line x1="949.700000" y1="176.000000" x2="949.700000" y2="188.000000"  style="stroke:black; stroke-linecap:round; stroke-width:0.25;"/>
<line x1="949.700000" y1="188.000000" x2="949.700000" y2="188.000000"  style="stroke:black; stroke-linecap:round; stroke-width:0.25;"/>
<line x1="949.700000" y1="188.000000" x2="953.700000" y2="188.000000"  style="stroke:black; stroke-linecap:round; stroke-width:0.25;"/>
<line x1="949.700000" y1="196.000000" x2="953.700000" y2="196.000000"  style="stroke:black; stroke-linecap:round; stroke-width:0.25;"/>
<line x1="977.700000" y1="192.000000" x2="981.700000" y2="192.000000"  style="stroke:black; stroke-linecap:round; stroke-width:0.25;"/>
<line x1="981.700000" y1="192.000000" x2="981.700000" y2="192.000000"  style="stroke:black; stroke-linecap:round; stroke-width:0.25;"/>
<line x1="981.700000" y1="192.000000" x2="985.700000" y2="192.000000"  style="stroke:black; stroke-linecap:round; stroke-width:0.25;"/>
<line x1="985.700000" y1="192.000000" x2="989.700000" y2="192.000000"  style="stroke:black; stroke-linecap:round; stroke-width:0.25;"/>
<line x1="989.700000" y1="192.000000" x2="999.700000" y2="192.000000"  style="stroke:black; stroke-linecap:round; stroke-width:0.25;"/>
</svg>
