<?xml version="1.0"?>
<svg xmlns="http://www.w3.org/2000/svg" xmlns:xlink="http://www.w3.org/1999/xlink" viewBox="0 0 260.600000 72.000000" width="130.300000mm" height="36.000000mm" version="1.1">
<a xlink:href="flangeview-0x7fee3514bd20.svg">
<rect x="1.000000" y="1.000000" width="259.600000" height="71.000000" rx="0" ry="0" style="stroke:none;fill:#cccccc;"/>
<rect x="0.000000" y="0.000000" width="259.600000" height="71.000000" rx="0" ry="0" style="stroke:none;fill:#ffffff;"/>
</a>
<text x="10.000000" y="7.000000" font-family="Arial" font-size="7"></text>
<a xlink:href="impulse-0x7fee338683e0.svg">
<rect x="25.000000" y="25.000000" width="38.700000" height="24.000000" rx="0" ry="0" style="stroke:none;fill:#cccccc;"/>
<rect x="24.000000" y="24.000000" width="38.700000" height="24.000000" rx="0" ry="0" style="stroke:none;fill:#003366;"/>
</a>
<a xlink:href="impulse-0x7fee338683e0.svg">
<text x="43.350000" y="38.000000" font-family="Arial" font-size="7" text-anchor="middle" fill="#FFFFFF">impulse</text>
</a>
<circle cx="26.000000" cy="26.000000" r="1"/>
<a xlink:href="nlf2-0x7fee35142980.svg">
<rect x="71.700000" y="25.000000" width="141.900000" height="24.000000" rx="0" ry="0" style="stroke:none;fill:#cccccc;"/>
<rect x="70.700000" y="24.000000" width="141.900000" height="24.000000" rx="0" ry="0" style="stroke:none;fill:#003366;"/>
</a>
<a xlink:href="nlf2-0x7fee35142980.svg">
<text x="141.650000" y="38.000000" font-family="Arial" font-size="7" text-anchor="middle" fill="#FFFFFF">nlf2(vgroup(&quot;...0f, 0.01f))))(1)</text>
</a>
<circle cx="72.700000" cy="26.000000" r="1"/>
<line x1="67.700000" y1="35.000000" x2="70.700000" y2="36.000000"  transform="rotate(0.000000,70.700000,36.000000)" style="stroke: black; stroke-width:0.25;"/>
<line x1="67.700000" y1="37.000000" x2="70.700000" y2="36.000000"  transform="rotate(0.000000,70.700000,36.000000)" style="stroke: black; stroke-width:0.25;"/>
<line x1="15.000000" y1="15.000000" x2="15.000000" y2="57.000000"  style="stroke: black; stroke-linecap:round; stroke-width:0.25; stroke-dasharray:3,3;"/>
<line x1="15.000000" y1="57.000000" x2="245.600000" y2="57.000000"  style="stroke: black; stroke-linecap:round; stroke-width:0.25; stroke-dasharray:3,3;"/>
<line x1="245.600000" y1="57.000000" x2="245.600000" y2="15.000000"  style="stroke: black; stroke-linecap:round; stroke-width:0.25; stroke-dasharray:3,3;"/>
<line x1="15.000000" y1="15.000000" x2="20.000000" y2="15.000000"  style="stroke: black; stroke-linecap:round; stroke-width:0.25; stroke-dasharray:3,3;"/>
<line x1="119.975000" y1="15.000000" x2="245.600000" y2="15.000000"  style="stroke: black; stroke-linecap:round; stroke-width:0.25; stroke-dasharray:3,3;"/>
<text x="20.000000" y="17.000000" font-family="Arial" font-size="7">lfor(vgroup(&quot;...0f, 0.01f))))</text>
<line x1="247.600000" y1="35.000000" x2="250.600000" y2="36.000000"  transform="rotate(0.000000,250.600000,36.000000)" style="stroke: black; stroke-width:0.25;"/>
<line x1="247.600000" y1="37.000000" x2="250.600000" y2="36.000000"  transform="rotate(0.000000,250.600000,36.000000)" style="stroke: black; stroke-width:0.25;"/>
<line x1="62.700000" y1="36.000000" x2="66.700000" y2="36.000000"  style="stroke:black; stroke-linecap:round; stroke-width:0.25;"/>
<line x1="66.700000" y1="36.000000" x2="66.700000" y2="36.000000"  style="stroke:black; stroke-linecap:round; stroke-width:0.25;"/>
<line x1="66.700000" y1="36.000000" x2="70.700000" y2="36.000000"  style="stroke:black; stroke-linecap:round; stroke-width:0.25;"/>
<line x1="212.600000" y1="40.000000" x2="216.600000" y2="40.000000"  style="stroke:black; stroke-linecap:round; stroke-width:0.25;"/>
<line x1="216.600000" y1="36.040000" x2="224.600000" y2="36.040000"  style="stroke:black; stroke-linecap:round; stroke-width:0.25;"/>
<line x1="216.600000" y1="40.000000" x2="216.600000" y2="36.040000"  style="stroke:black; stroke-linecap:round; stroke-width:0.25;"/>
<line x1="216.600000" y1="40.000000" x2="216.600000" y2="40.000000"  style="stroke:black; stroke-linecap:round; stroke-width:0.25;"/>
<line x1="224.600000" y1="36.000000" x2="232.600000" y2="36.000000"  style="stroke:black; stroke-linecap:round; stroke-width:0.25;"/>
<line x1="224.600000" y1="36.040000" x2="224.600000" y2="36.000000"  style="stroke:black; stroke-linecap:round; stroke-width:0.25;"/>
<line x1="224.600000" y1="36.040000" x2="224.600000" y2="36.040000"  style="stroke:black; stroke-linecap:round; stroke-width:0.25;"/>
<line x1="232.600000" y1="36.000000" x2="236.600000" y2="36.000000"  style="stroke:black; stroke-linecap:round; stroke-width:0.25;"/>
<line x1="236.600000" y1="36.000000" x2="240.600000" y2="36.000000"  style="stroke:black; stroke-linecap:round; stroke-width:0.25;"/>
<line x1="240.600000" y1="36.000000" x2="250.600000" y2="36.000000"  style="stroke:black; stroke-linecap:round; stroke-width:0.25;"/>
</svg>
