<?xml version="1.0"?>
<svg xmlns="http://www.w3.org/2000/svg" xmlns:xlink="http://www.w3.org/1999/xlink" viewBox="0 0 392.100000 652.000000" width="196.050000mm" height="326.000000mm" version="1.1">
<rect x="1.000000" y="1.000000" width="391.100000" height="651.000000" rx="0" ry="0" style="stroke:none;fill:#cccccc;"/>
<rect x="0.000000" y="0.000000" width="391.100000" height="651.000000" rx="0" ry="0" style="stroke:none;fill:#ffffff;"/>
<text x="10.000000" y="7.000000" font-family="Arial" font-size="7"></text>
<rect x="148.150000" y="33.000000" width="24.000000" height="24.000000" rx="0" ry="0" style="stroke:none;fill:#cccccc;"/>
<rect x="147.150000" y="32.000000" width="24.000000" height="24.000000" rx="0" ry="0" style="stroke:none;fill:#f44800;"/>
<text x="159.150000" y="46.000000" font-family="Arial" font-size="7" text-anchor="middle" fill="#FFFFFF">0</text>
<circle cx="149.150000" cy="34.000000" r="1"/>
<rect x="188.150000" y="29.000000" width="24.000000" height="24.000000" rx="0" ry="0" style="stroke:none;fill:#cccccc;"/>
<rect x="187.150000" y="28.000000" width="24.000000" height="24.000000" rx="0" ry="0" style="stroke:none;fill:#4B71A1;"/>
<text x="199.150000" y="42.000000" font-family="Arial" font-size="7" text-anchor="middle" fill="#FFFFFF">*</text>
<circle cx="189.150000" cy="30.000000" r="1"/>
<line x1="184.150000" y1="35.000000" x2="187.150000" y2="36.000000"  transform="rotate(0.000000,187.150000,36.000000)" style="stroke: black; stroke-width:0.25;"/>
<line x1="184.150000" y1="37.000000" x2="187.150000" y2="36.000000"  transform="rotate(0.000000,187.150000,36.000000)" style="stroke: black; stroke-width:0.25;"/>
<line x1="184.150000" y1="43.000000" x2="187.150000" y2="44.000000"  transform="rotate(0.000000,187.150000,44.000000)" style="stroke: black; stroke-width:0.25;"/>
<line x1="184.150000" y1="45.000000" x2="187.150000" y2="44.000000"  transform="rotate(0.000000,187.150000,44.000000)" style="stroke: black; stroke-width:0.25;"/>
<a xlink:href="controltester-0x7fe858418160.svg">
<rect x="73.900000" y="85.000000" width="64.500000" height="24.000000" rx="0" ry="0" style="stroke:none;fill:#cccccc;"/>
<rect x="72.900000" y="84.000000" width="64.500000" height="24.000000" rx="0" ry="0" style="stroke:none;fill:#003366;"/>
</a>
<a xlink:href="controltester-0x7fe858418160.svg">
<text x="105.150000" y="98.000000" font-family="Arial" font-size="7" text-anchor="middle" fill="#FFFFFF">controltester</text>
</a>
<circle cx="74.900000" cy="86.000000" r="1"/>
<a xlink:href="controlchanteste-0x7fe85841d0f0.svg">
<rect x="67.450000" y="117.000000" width="77.400000" height="24.000000" rx="0" ry="0" style="stroke:none;fill:#cccccc;"/>
<rect x="66.450000" y="116.000000" width="77.400000" height="24.000000" rx="0" ry="0" style="stroke:none;fill:#003366;"/>
</a>
<a xlink:href="controlchanteste-0x7fe85841d0f0.svg">
<text x="105.150000" y="130.000000" font-family="Arial" font-size="7" text-anchor="middle" fill="#FFFFFF">controlchantester</text>
</a>
<circle cx="68.450000" cy="118.000000" r="1"/>
<a xlink:href="noteontester-0x7fe858422410.svg">
<rect x="80.350000" y="149.000000" width="51.600000" height="24.000000" rx="0" ry="0" style="stroke:none;fill:#cccccc;"/>
<rect x="79.350000" y="148.000000" width="51.600000" height="24.000000" rx="0" ry="0" style="stroke:none;fill:#003366;"/>
</a>
<a xlink:href="noteontester-0x7fe858422410.svg">
<text x="105.150000" y="162.000000" font-family="Arial" font-size="7" text-anchor="middle" fill="#FFFFFF">noteontester</text>
</a>
<circle cx="81.350000" cy="150.000000" r="1"/>
<a xlink:href="noteonchantester-0x7fe85842aaf0.svg">
<rect x="67.450000" y="181.000000" width="77.400000" height="24.000000" rx="0" ry="0" style="stroke:none;fill:#cccccc;"/>
<rect x="66.450000" y="180.000000" width="77.400000" height="24.000000" rx="0" ry="0" style="stroke:none;fill:#003366;"/>
</a>
<a xlink:href="noteonchantester-0x7fe85842aaf0.svg">
<text x="105.150000" y="194.000000" font-family="Arial" font-size="7" text-anchor="middle" fill="#FFFFFF">noteonchantester</text>
</a>
<circle cx="68.450000" cy="182.000000" r="1"/>
<a xlink:href="noteofftester-0x7fe85842fe40.svg">
<rect x="73.900000" y="213.000000" width="64.500000" height="24.000000" rx="0" ry="0" style="stroke:none;fill:#cccccc;"/>
<rect x="72.900000" y="212.000000" width="64.500000" height="24.000000" rx="0" ry="0" style="stroke:none;fill:#003366;"/>
</a>
<a xlink:href="noteofftester-0x7fe85842fe40.svg">
<text x="105.150000" y="226.000000" font-family="Arial" font-size="7" text-anchor="middle" fill="#FFFFFF">noteofftester</text>
</a>
<circle cx="74.900000" cy="214.000000" r="1"/>
<a xlink:href="noteoffchanteste-0x7fe858437990.svg">
<rect x="67.450000" y="245.000000" width="77.400000" height="24.000000" rx="0" ry="0" style="stroke:none;fill:#cccccc;"/>
<rect x="66.450000" y="244.000000" width="77.400000" height="24.000000" rx="0" ry="0" style="stroke:none;fill:#003366;"/>
</a>
<a xlink:href="noteoffchanteste-0x7fe858437990.svg">
<text x="105.150000" y="258.000000" font-family="Arial" font-size="7" text-anchor="middle" fill="#FFFFFF">noteoffchantester</text>
</a>
<circle cx="68.450000" cy="246.000000" r="1"/>
<a xlink:href="keypresschantest-0x7fe85843f4d0.svg">
<rect x="67.450000" y="277.000000" width="77.400000" height="24.000000" rx="0" ry="0" style="stroke:none;fill:#cccccc;"/>
<rect x="66.450000" y="276.000000" width="77.400000" height="24.000000" rx="0" ry="0" style="stroke:none;fill:#003366;"/>
</a>
<a xlink:href="keypresschantest-0x7fe85843f4d0.svg">
<text x="105.150000" y="290.000000" font-family="Arial" font-size="7" text-anchor="middle" fill="#FFFFFF">keypresschantester</text>
</a>
<circle cx="68.450000" cy="278.000000" r="1"/>
<a xlink:href="midiclocktester-0x7fe858440cf0.svg">
<rect x="73.900000" y="309.000000" width="64.500000" height="24.000000" rx="0" ry="0" style="stroke:none;fill:#cccccc;"/>
<rect x="72.900000" y="308.000000" width="64.500000" height="24.000000" rx="0" ry="0" style="stroke:none;fill:#003366;"/>
</a>
<a xlink:href="midiclocktester-0x7fe858440cf0.svg">
<text x="105.150000" y="322.000000" font-family="Arial" font-size="7" text-anchor="middle" fill="#FFFFFF">midiclocktester</text>
</a>
<circle cx="74.900000" cy="310.000000" r="1"/>
<line x1="57.450000" y1="75.000000" x2="57.450000" y2="341.000000"  style="stroke: black; stroke-linecap:round; stroke-width:0.25; stroke-dasharray:3,3;"/>
<line x1="57.450000" y1="341.000000" x2="152.850000" y2="341.000000"  style="stroke: black; stroke-linecap:round; stroke-width:0.25; stroke-dasharray:3,3;"/>
<line x1="152.850000" y1="341.000000" x2="152.850000" y2="75.000000"  style="stroke: black; stroke-linecap:round; stroke-width:0.25; stroke-dasharray:3,3;"/>
<line x1="57.450000" y1="75.000000" x2="62.450000" y2="75.000000"  style="stroke: black; stroke-linecap:round; stroke-width:0.25; stroke-dasharray:3,3;"/>
<line x1="94.700000" y1="75.000000" x2="152.850000" y2="75.000000"  style="stroke: black; stroke-linecap:round; stroke-width:0.25; stroke-dasharray:3,3;"/>
<text x="62.450000" y="77.000000" font-family="Arial" font-size="7">hgroup()</text>
<a xlink:href="kattester-0x7fe8584468c0.svg">
<rect x="86.800000" y="361.000000" width="38.700000" height="24.000000" rx="0" ry="0" style="stroke:none;fill:#cccccc;"/>
<rect x="85.800000" y="360.000000" width="38.700000" height="24.000000" rx="0" ry="0" style="stroke:none;fill:#003366;"/>
</a>
<a xlink:href="kattester-0x7fe8584468c0.svg">
<text x="105.150000" y="374.000000" font-family="Arial" font-size="7" text-anchor="middle" fill="#FFFFFF">kattester</text>
</a>
<circle cx="87.800000" cy="362.000000" r="1"/>
<a xlink:href="katchantester-0x7fe85844e940.svg">
<rect x="73.900000" y="393.000000" width="64.500000" height="24.000000" rx="0" ry="0" style="stroke:none;fill:#cccccc;"/>
<rect x="72.900000" y="392.000000" width="64.500000" height="24.000000" rx="0" ry="0" style="stroke:none;fill:#003366;"/>
</a>
<a xlink:href="katchantester-0x7fe85844e940.svg">
<text x="105.150000" y="406.000000" font-family="Arial" font-size="7" text-anchor="middle" fill="#FFFFFF">katchantester</text>
</a>
<circle cx="74.900000" cy="394.000000" r="1"/>
<a xlink:href="pctester-0x7fe858454020.svg">
<rect x="86.800000" y="425.000000" width="38.700000" height="24.000000" rx="0" ry="0" style="stroke:none;fill:#cccccc;"/>
<rect x="85.800000" y="424.000000" width="38.700000" height="24.000000" rx="0" ry="0" style="stroke:none;fill:#003366;"/>
</a>
<a xlink:href="pctester-0x7fe858454020.svg">
<text x="105.150000" y="438.000000" font-family="Arial" font-size="7" text-anchor="middle" fill="#FFFFFF">pctester</text>
</a>
<circle cx="87.800000" cy="426.000000" r="1"/>
<a xlink:href="pcchantester-0x7fe85845c040.svg">
<rect x="80.350000" y="457.000000" width="51.600000" height="24.000000" rx="0" ry="0" style="stroke:none;fill:#cccccc;"/>
<rect x="79.350000" y="456.000000" width="51.600000" height="24.000000" rx="0" ry="0" style="stroke:none;fill:#003366;"/>
</a>
<a xlink:href="pcchantester-0x7fe85845c040.svg">
<text x="105.150000" y="470.000000" font-family="Arial" font-size="7" text-anchor="middle" fill="#FFFFFF">pcchantester</text>
</a>
<circle cx="81.350000" cy="458.000000" r="1"/>
<a xlink:href="chattester-0x7fe8584613d0.svg">
<rect x="80.350000" y="489.000000" width="51.600000" height="24.000000" rx="0" ry="0" style="stroke:none;fill:#cccccc;"/>
<rect x="79.350000" y="488.000000" width="51.600000" height="24.000000" rx="0" ry="0" style="stroke:none;fill:#003366;"/>
</a>
<a xlink:href="chattester-0x7fe8584613d0.svg">
<text x="105.150000" y="502.000000" font-family="Arial" font-size="7" text-anchor="middle" fill="#FFFFFF">chattester</text>
</a>
<circle cx="81.350000" cy="490.000000" r="1"/>
<a xlink:href="chatchantester-0x7fe858469020.svg">
<rect x="73.900000" y="521.000000" width="64.500000" height="24.000000" rx="0" ry="0" style="stroke:none;fill:#cccccc;"/>
<rect x="72.900000" y="520.000000" width="64.500000" height="24.000000" rx="0" ry="0" style="stroke:none;fill:#003366;"/>
</a>
<a xlink:href="chatchantester-0x7fe858469020.svg">
<text x="105.150000" y="534.000000" font-family="Arial" font-size="7" text-anchor="middle" fill="#FFFFFF">chatchantester</text>
</a>
<circle cx="74.900000" cy="522.000000" r="1"/>
<a xlink:href="pitchwheeltester-0x7fe85846bc70.svg">
<rect x="67.450000" y="553.000000" width="77.400000" height="24.000000" rx="0" ry="0" style="stroke:none;fill:#cccccc;"/>
<rect x="66.450000" y="552.000000" width="77.400000" height="24.000000" rx="0" ry="0" style="stroke:none;fill:#003366;"/>
</a>
<a xlink:href="pitchwheeltester-0x7fe85846bc70.svg">
<text x="105.150000" y="566.000000" font-family="Arial" font-size="7" text-anchor="middle" fill="#FFFFFF">pitchwheeltester</text>
</a>
<circle cx="68.450000" cy="554.000000" r="1"/>
<a xlink:href="pitchwheelchante-0x7fe858471510.svg">
<rect x="61.000000" y="585.000000" width="90.300000" height="24.000000" rx="0" ry="0" style="stroke:none;fill:#cccccc;"/>
<rect x="60.000000" y="584.000000" width="90.300000" height="24.000000" rx="0" ry="0" style="stroke:none;fill:#003366;"/>
</a>
<a xlink:href="pitchwheelchante-0x7fe858471510.svg">
<text x="105.150000" y="598.000000" font-family="Arial" font-size="7" text-anchor="middle" fill="#FFFFFF">pitchwheelchantester</text>
</a>
<circle cx="62.000000" cy="586.000000" r="1"/>
<line x1="51.000000" y1="351.000000" x2="51.000000" y2="617.000000"  style="stroke: black; stroke-linecap:round; stroke-width:0.25; stroke-dasharray:3,3;"/>
<line x1="51.000000" y1="617.000000" x2="159.300000" y2="617.000000"  style="stroke: black; stroke-linecap:round; stroke-width:0.25; stroke-dasharray:3,3;"/>
<line x1="159.300000" y1="617.000000" x2="159.300000" y2="351.000000"  style="stroke: black; stroke-linecap:round; stroke-width:0.25; stroke-dasharray:3,3;"/>
<line x1="51.000000" y1="351.000000" x2="56.000000" y2="351.000000"  style="stroke: black; stroke-linecap:round; stroke-width:0.25; stroke-dasharray:3,3;"/>
<line x1="88.250000" y1="351.000000" x2="159.300000" y2="351.000000"  style="stroke: black; stroke-linecap:round; stroke-width:0.25; stroke-dasharray:3,3;"/>
<text x="56.000000" y="353.000000" font-family="Arial" font-size="7">hgroup()</text>
<line x1="41.000000" y1="65.000000" x2="41.000000" y2="627.000000"  style="stroke: black; stroke-linecap:round; stroke-width:0.25; stroke-dasharray:3,3;"/>
<line x1="41.000000" y1="627.000000" x2="317.300000" y2="627.000000"  style="stroke: black; stroke-linecap:round; stroke-width:0.25; stroke-dasharray:3,3;"/>
<line x1="317.300000" y1="627.000000" x2="317.300000" y2="65.000000"  style="stroke: black; stroke-linecap:round; stroke-width:0.25; stroke-dasharray:3,3;"/>
<line x1="41.000000" y1="65.000000" x2="46.000000" y2="65.000000"  style="stroke: black; stroke-linecap:round; stroke-width:0.25; stroke-dasharray:3,3;"/>
<line x1="133.075000" y1="65.000000" x2="317.300000" y2="65.000000"  style="stroke: black; stroke-linecap:round; stroke-width:0.25; stroke-dasharray:3,3;"/>
<text x="46.000000" y="67.000000" font-family="Arial" font-size="7">vgroup(FAUST MIDI TESTER)</text>
<rect x="335.300000" y="315.000000" width="25.800000" height="24.000000" rx="0" ry="0" style="stroke:none;fill:#cccccc;"/>
<rect x="334.300000" y="314.000000" width="25.800000" height="24.000000" rx="0" ry="0" style="stroke:none;fill:#4B71A1;"/>
<text x="347.200000" y="328.000000" font-family="Arial" font-size="7" text-anchor="middle" fill="#FFFFFF">attach</text>
<circle cx="336.300000" cy="316.000000" r="1"/>
<line x1="331.300000" y1="321.000000" x2="334.300000" y2="322.000000"  transform="rotate(0.000000,334.300000,322.000000)" style="stroke: black; stroke-width:0.25;"/>
<line x1="331.300000" y1="323.000000" x2="334.300000" y2="322.000000"  transform="rotate(0.000000,334.300000,322.000000)" style="stroke: black; stroke-width:0.25;"/>
<line x1="331.300000" y1="329.000000" x2="334.300000" y2="330.000000"  transform="rotate(0.000000,334.300000,330.000000)" style="stroke: black; stroke-width:0.25;"/>
<line x1="331.300000" y1="331.000000" x2="334.300000" y2="330.000000"  transform="rotate(0.000000,334.300000,330.000000)" style="stroke: black; stroke-width:0.25;"/>
<line x1="15.000000" y1="15.000000" x2="15.000000" y2="637.000000"  style="stroke: black; stroke-linecap:round; stroke-width:0.25; stroke-dasharray:3,3;"/>
<line x1="15.000000" y1="637.000000" x2="377.100000" y2="637.000000"  style="stroke: black; stroke-linecap:round; stroke-width:0.25; stroke-dasharray:3,3;"/>
<line x1="377.100000" y1="637.000000" x2="377.100000" y2="15.000000"  style="stroke: black; stroke-linecap:round; stroke-width:0.25; stroke-dasharray:3,3;"/>
<line x1="15.000000" y1="15.000000" x2="20.000000" y2="15.000000"  style="stroke: black; stroke-linecap:round; stroke-width:0.25; stroke-dasharray:3,3;"/>
<line x1="49.025000" y1="15.000000" x2="377.100000" y2="15.000000"  style="stroke: black; stroke-linecap:round; stroke-width:0.25; stroke-dasharray:3,3;"/>
<text x="20.000000" y="17.000000" font-family="Arial" font-size="7">process</text>
<line x1="379.100000" y1="325.000000" x2="382.100000" y2="326.000000"  transform="rotate(0.000000,382.100000,326.000000)" style="stroke: black; stroke-width:0.25;"/>
<line x1="379.100000" y1="327.000000" x2="382.100000" y2="326.000000"  transform="rotate(0.000000,382.100000,326.000000)" style="stroke: black; stroke-width:0.25;"/>
<line x1="10.000000" y1="326.000000" x2="20.000000" y2="326.000000"  style="stroke:black; stroke-linecap:round; stroke-width:0.25;"/>
<line x1="20.000000" y1="326.000000" x2="24.000000" y2="326.000000"  style="stroke:black; stroke-linecap:round; stroke-width:0.25;"/>
<line x1="24.000000" y1="326.000000" x2="28.000000" y2="326.000000"  style="stroke:black; stroke-linecap:round; stroke-width:0.25;"/>
<line x1="28.000000" y1="24.000000" x2="36.000000" y2="24.000000"  style="stroke:black; stroke-linecap:round; stroke-width:0.25;"/>
<line x1="28.000000" y1="326.000000" x2="28.000000" y2="24.000000"  style="stroke:black; stroke-linecap:round; stroke-width:0.25;"/>
<line x1="28.000000" y1="326.000000" x2="28.000000" y2="326.000000"  style="stroke:black; stroke-linecap:round; stroke-width:0.25;"/>
<line x1="36.000000" y1="24.000000" x2="143.150000" y2="24.000000"  style="stroke:black; stroke-linecap:round; stroke-width:0.25;"/>
<line x1="124.500000" y1="368.000000" x2="128.500000" y2="368.000000"  style="stroke:black; stroke-linecap:round; stroke-width:0.25;"/>
<line x1="124.500000" y1="376.000000" x2="128.500000" y2="376.000000"  style="stroke:black; stroke-linecap:round; stroke-width:0.25;"/>
<line x1="124.500000" y1="432.000000" x2="128.500000" y2="432.000000"  style="stroke:black; stroke-linecap:round; stroke-width:0.25;"/>
<line x1="124.500000" y1="440.000000" x2="128.500000" y2="440.000000"  style="stroke:black; stroke-linecap:round; stroke-width:0.25;"/>
<line x1="128.500000" y1="368.000000" x2="154.300000" y2="368.000000"  style="stroke:black; stroke-linecap:round; stroke-width:0.25;"/>
<line x1="128.500000" y1="376.000000" x2="154.300000" y2="376.000000"  style="stroke:black; stroke-linecap:round; stroke-width:0.25;"/>
<line x1="128.500000" y1="432.000000" x2="154.300000" y2="432.000000"  style="stroke:black; stroke-linecap:round; stroke-width:0.25;"/>
<line x1="128.500000" y1="440.000000" x2="154.300000" y2="440.000000"  style="stroke:black; stroke-linecap:round; stroke-width:0.25;"/>
<line x1="130.950000" y1="156.000000" x2="134.950000" y2="156.000000"  style="stroke:black; stroke-linecap:round; stroke-width:0.25;"/>
<line x1="130.950000" y1="164.000000" x2="134.950000" y2="164.000000"  style="stroke:black; stroke-linecap:round; stroke-width:0.25;"/>
<line x1="130.950000" y1="464.000000" x2="134.950000" y2="464.000000"  style="stroke:black; stroke-linecap:round; stroke-width:0.25;"/>
<line x1="130.950000" y1="472.000000" x2="134.950000" y2="472.000000"  style="stroke:black; stroke-linecap:round; stroke-width:0.25;"/>
<line x1="130.950000" y1="496.000000" x2="134.950000" y2="496.000000"  style="stroke:black; stroke-linecap:round; stroke-width:0.25;"/>
<line x1="130.950000" y1="504.000000" x2="134.950000" y2="504.000000"  style="stroke:black; stroke-linecap:round; stroke-width:0.25;"/>
<line x1="134.950000" y1="156.000000" x2="147.850000" y2="156.000000"  style="stroke:black; stroke-linecap:round; stroke-width:0.25;"/>
<line x1="134.950000" y1="164.000000" x2="147.850000" y2="164.000000"  style="stroke:black; stroke-linecap:round; stroke-width:0.25;"/>
<line x1="134.950000" y1="464.000000" x2="154.300000" y2="464.000000"  style="stroke:black; stroke-linecap:round; stroke-width:0.25;"/>
<line x1="134.950000" y1="472.000000" x2="154.300000" y2="472.000000"  style="stroke:black; stroke-linecap:round; stroke-width:0.25;"/>
<line x1="134.950000" y1="496.000000" x2="154.300000" y2="496.000000"  style="stroke:black; stroke-linecap:round; stroke-width:0.25;"/>
<line x1="134.950000" y1="504.000000" x2="154.300000" y2="504.000000"  style="stroke:black; stroke-linecap:round; stroke-width:0.25;"/>
<line x1="137.400000" y1="92.000000" x2="141.400000" y2="92.000000"  style="stroke:black; stroke-linecap:round; stroke-width:0.25;"/>
<line x1="137.400000" y1="100.000000" x2="141.400000" y2="100.000000"  style="stroke:black; stroke-linecap:round; stroke-width:0.25;"/>
<line x1="137.400000" y1="220.000000" x2="141.400000" y2="220.000000"  style="stroke:black; stroke-linecap:round; stroke-width:0.25;"/>
<line x1="137.400000" y1="228.000000" x2="141.400000" y2="228.000000"  style="stroke:black; stroke-linecap:round; stroke-width:0.25;"/>
<line x1="137.400000" y1="316.000000" x2="141.400000" y2="316.000000"  style="stroke:black; stroke-linecap:round; stroke-width:0.25;"/>
<line x1="137.400000" y1="324.000000" x2="141.400000" y2="324.000000"  style="stroke:black; stroke-linecap:round; stroke-width:0.25;"/>
<line x1="137.400000" y1="400.000000" x2="141.400000" y2="400.000000"  style="stroke:black; stroke-linecap:round; stroke-width:0.25;"/>
<line x1="137.400000" y1="408.000000" x2="141.400000" y2="408.000000"  style="stroke:black; stroke-linecap:round; stroke-width:0.25;"/>
<line x1="137.400000" y1="528.000000" x2="141.400000" y2="528.000000"  style="stroke:black; stroke-linecap:round; stroke-width:0.25;"/>
<line x1="137.400000" y1="536.000000" x2="141.400000" y2="536.000000"  style="stroke:black; stroke-linecap:round; stroke-width:0.25;"/>
<line x1="141.400000" y1="92.000000" x2="147.850000" y2="92.000000"  style="stroke:black; stroke-linecap:round; stroke-width:0.25;"/>
<line x1="141.400000" y1="100.000000" x2="147.850000" y2="100.000000"  style="stroke:black; stroke-linecap:round; stroke-width:0.25;"/>
<line x1="141.400000" y1="220.000000" x2="147.850000" y2="220.000000"  style="stroke:black; stroke-linecap:round; stroke-width:0.25;"/>
<line x1="141.400000" y1="228.000000" x2="147.850000" y2="228.000000"  style="stroke:black; stroke-linecap:round; stroke-width:0.25;"/>
<line x1="141.400000" y1="316.000000" x2="147.850000" y2="316.000000"  style="stroke:black; stroke-linecap:round; stroke-width:0.25;"/>
<line x1="141.400000" y1="324.000000" x2="147.850000" y2="324.000000"  style="stroke:black; stroke-linecap:round; stroke-width:0.25;"/>
<line x1="141.400000" y1="400.000000" x2="154.300000" y2="400.000000"  style="stroke:black; stroke-linecap:round; stroke-width:0.25;"/>
<line x1="141.400000" y1="408.000000" x2="154.300000" y2="408.000000"  style="stroke:black; stroke-linecap:round; stroke-width:0.25;"/>
<line x1="141.400000" y1="528.000000" x2="154.300000" y2="528.000000"  style="stroke:black; stroke-linecap:round; stroke-width:0.25;"/>
<line x1="141.400000" y1="536.000000" x2="154.300000" y2="536.000000"  style="stroke:black; stroke-linecap:round; stroke-width:0.25;"/>
<line x1="143.150000" y1="24.000000" x2="159.150000" y2="24.000000"  style="stroke:black; stroke-linecap:round; stroke-width:0.25;"/>
<line x1="143.850000" y1="128.000000" x2="147.850000" y2="128.000000"  style="stroke:black; stroke-linecap:round; stroke-width:0.25;"/>
<line x1="143.850000" y1="188.000000" x2="147.850000" y2="188.000000"  style="stroke:black; stroke-linecap:round; stroke-width:0.25;"/>
<line x1="143.850000" y1="196.000000" x2="147.850000" y2="196.000000"  style="stroke:black; stroke-linecap:round; stroke-width:0.25;"/>
<line x1="143.850000" y1="252.000000" x2="147.850000" y2="252.000000"  style="stroke:black; stroke-linecap:round; stroke-width:0.25;"/>
<line x1="143.850000" y1="260.000000" x2="147.850000" y2="260.000000"  style="stroke:black; stroke-linecap:round; stroke-width:0.25;"/>
<line x1="143.850000" y1="284.000000" x2="147.850000" y2="284.000000"  style="stroke:black; stroke-linecap:round; stroke-width:0.25;"/>
<line x1="143.850000" y1="292.000000" x2="147.850000" y2="292.000000"  style="stroke:black; stroke-linecap:round; stroke-width:0.25;"/>
<line x1="143.850000" y1="560.000000" x2="147.850000" y2="560.000000"  style="stroke:black; stroke-linecap:round; stroke-width:0.25;"/>
<line x1="143.850000" y1="568.000000" x2="147.850000" y2="568.000000"  style="stroke:black; stroke-linecap:round; stroke-width:0.25;"/>
<line x1="147.850000" y1="92.000000" x2="157.850000" y2="92.000000"  style="stroke:black; stroke-linecap:round; stroke-width:0.25;"/>
<line x1="147.850000" y1="100.000000" x2="157.850000" y2="100.000000"  style="stroke:black; stroke-linecap:round; stroke-width:0.25;"/>
<line x1="147.850000" y1="128.000000" x2="157.850000" y2="128.000000"  style="stroke:black; stroke-linecap:round; stroke-width:0.25;"/>
<line x1="147.850000" y1="156.000000" x2="157.850000" y2="156.000000"  style="stroke:black; stroke-linecap:round; stroke-width:0.25;"/>
<line x1="147.850000" y1="164.000000" x2="157.850000" y2="164.000000"  style="stroke:black; stroke-linecap:round; stroke-width:0.25;"/>
<line x1="147.850000" y1="188.000000" x2="157.850000" y2="188.000000"  style="stroke:black; stroke-linecap:round; stroke-width:0.25;"/>
<line x1="147.850000" y1="196.000000" x2="157.850000" y2="196.000000"  style="stroke:black; stroke-linecap:round; stroke-width:0.25;"/>
<line x1="147.850000" y1="220.000000" x2="157.850000" y2="220.000000"  style="stroke:black; stroke-linecap:round; stroke-width:0.25;"/>
<line x1="147.850000" y1="228.000000" x2="157.850000" y2="228.000000"  style="stroke:black; stroke-linecap:round; stroke-width:0.25;"/>
<line x1="147.850000" y1="252.000000" x2="157.850000" y2="252.000000"  style="stroke:black; stroke-linecap:round; stroke-width:0.25;"/>
<line x1="147.850000" y1="260.000000" x2="157.850000" y2="260.000000"  style="stroke:black; stroke-linecap:round; stroke-width:0.25;"/>
<line x1="147.850000" y1="284.000000" x2="157.850000" y2="284.000000"  style="stroke:black; stroke-linecap:round; stroke-width:0.25;"/>
<line x1="147.850000" y1="292.000000" x2="157.850000" y2="292.000000"  style="stroke:black; stroke-linecap:round; stroke-width:0.25;"/>
<line x1="147.850000" y1="316.000000" x2="157.850000" y2="316.000000"  style="stroke:black; stroke-linecap:round; stroke-width:0.25;"/>
<line x1="147.850000" y1="324.000000" x2="157.850000" y2="324.000000"  style="stroke:black; stroke-linecap:round; stroke-width:0.25;"/>
<line x1="147.850000" y1="560.000000" x2="154.300000" y2="560.000000"  style="stroke:black; stroke-linecap:round; stroke-width:0.25;"/>
<line x1="147.850000" y1="568.000000" x2="154.300000" y2="568.000000"  style="stroke:black; stroke-linecap:round; stroke-width:0.25;"/>
<line x1="150.300000" y1="592.000000" x2="154.300000" y2="592.000000"  style="stroke:black; stroke-linecap:round; stroke-width:0.25;"/>
<line x1="150.300000" y1="600.000000" x2="154.300000" y2="600.000000"  style="stroke:black; stroke-linecap:round; stroke-width:0.25;"/>
<line x1="154.300000" y1="464.000000" x2="164.300000" y2="464.000000"  style="stroke:black; stroke-linecap:round; stroke-width:0.25;"/>
<line x1="154.300000" y1="472.000000" x2="164.300000" y2="472.000000"  style="stroke:black; stroke-linecap:round; stroke-width:0.25;"/>
<line x1="154.300000" y1="496.000000" x2="164.300000" y2="496.000000"  style="stroke:black; stroke-linecap:round; stroke-width:0.25;"/>
<line x1="154.300000" y1="504.000000" x2="164.300000" y2="504.000000"  style="stroke:black; stroke-linecap:round; stroke-width:0.25;"/>
<line x1="154.300000" y1="368.000000" x2="164.300000" y2="368.000000"  style="stroke:black; stroke-linecap:round; stroke-width:0.25;"/>
<line x1="154.300000" y1="376.000000" x2="164.300000" y2="376.000000"  style="stroke:black; stroke-linecap:round; stroke-width:0.25;"/>
<line x1="154.300000" y1="400.000000" x2="164.300000" y2="400.000000"  style="stroke:black; stroke-linecap:round; stroke-width:0.25;"/>
<line x1="154.300000" y1="408.000000" x2="164.300000" y2="408.000000"  style="stroke:black; stroke-linecap:round; stroke-width:0.25;"/>
<line x1="154.300000" y1="432.000000" x2="164.300000" y2="432.000000"  style="stroke:black; stroke-linecap:round; stroke-width:0.25;"/>
<line x1="154.300000" y1="440.000000" x2="164.300000" y2="440.000000"  style="stroke:black; stroke-linecap:round; stroke-width:0.25;"/>
<line x1="154.300000" y1="528.000000" x2="164.300000" y2="528.000000"  style="stroke:black; stroke-linecap:round; stroke-width:0.25;"/>
<line x1="154.300000" y1="536.000000" x2="164.300000" y2="536.000000"  style="stroke:black; stroke-linecap:round; stroke-width:0.25;"/>
<line x1="154.300000" y1="560.000000" x2="164.300000" y2="560.000000"  style="stroke:black; stroke-linecap:round; stroke-width:0.25;"/>
<line x1="154.300000" y1="568.000000" x2="164.300000" y2="568.000000"  style="stroke:black; stroke-linecap:round; stroke-width:0.25;"/>
<line x1="154.300000" y1="592.000000" x2="164.300000" y2="592.000000"  style="stroke:black; stroke-linecap:round; stroke-width:0.25;"/>
<line x1="154.300000" y1="600.000000" x2="164.300000" y2="600.000000"  style="stroke:black; stroke-linecap:round; stroke-width:0.25;"/>
<line x1="157.850000" y1="92.000000" x2="164.300000" y2="92.000000"  style="stroke:black; stroke-linecap:round; stroke-width:0.25;"/>
<line x1="157.850000" y1="100.000000" x2="164.300000" y2="100.000000"  style="stroke:black; stroke-linecap:round; stroke-width:0.25;"/>
<line x1="157.850000" y1="128.000000" x2="164.300000" y2="128.000000"  style="stroke:black; stroke-linecap:round; stroke-width:0.25;"/>
<line x1="157.850000" y1="156.000000" x2="164.300000" y2="156.000000"  style="stroke:black; stroke-linecap:round; stroke-width:0.25;"/>
<line x1="157.850000" y1="164.000000" x2="164.300000" y2="164.000000"  style="stroke:black; stroke-linecap:round; stroke-width:0.25;"/>
<line x1="157.850000" y1="188.000000" x2="164.300000" y2="188.000000"  style="stroke:black; stroke-linecap:round; stroke-width:0.25;"/>
<line x1="157.850000" y1="196.000000" x2="164.300000" y2="196.000000"  style="stroke:black; stroke-linecap:round; stroke-width:0.25;"/>
<line x1="157.850000" y1="220.000000" x2="164.300000" y2="220.000000"  style="stroke:black; stroke-linecap:round; stroke-width:0.25;"/>
<line x1="157.850000" y1="228.000000" x2="164.300000" y2="228.000000"  style="stroke:black; stroke-linecap:round; stroke-width:0.25;"/>
<line x1="157.850000" y1="252.000000" x2="164.300000" y2="252.000000"  style="stroke:black; stroke-linecap:round; stroke-width:0.25;"/>
<line x1="157.850000" y1="260.000000" x2="164.300000" y2="260.000000"  style="stroke:black; stroke-linecap:round; stroke-width:0.25;"/>
<line x1="157.850000" y1="284.000000" x2="164.300000" y2="284.000000"  style="stroke:black; stroke-linecap:round; stroke-width:0.25;"/>
<line x1="157.850000" y1="292.000000" x2="164.300000" y2="292.000000"  style="stroke:black; stroke-linecap:round; stroke-width:0.25;"/>
<line x1="157.850000" y1="316.000000" x2="164.300000" y2="316.000000"  style="stroke:black; stroke-linecap:round; stroke-width:0.25;"/>
<line x1="157.850000" y1="324.000000" x2="164.300000" y2="324.000000"  style="stroke:black; stroke-linecap:round; stroke-width:0.25;"/>
<line x1="159.150000" y1="24.000000" x2="175.150000" y2="24.000000"  style="stroke:black; stroke-linecap:round; stroke-width:0.25;"/>
<line x1="164.300000" y1="464.000000" x2="304.300000" y2="346.000000"  style="stroke:black; stroke-linecap:round; stroke-width:0.25;"/>
<line x1="164.300000" y1="472.000000" x2="304.300000" y2="346.000000"  style="stroke:black; stroke-linecap:round; stroke-width:0.25;"/>
<line x1="164.300000" y1="496.000000" x2="304.300000" y2="346.000000"  style="stroke:black; stroke-linecap:round; stroke-width:0.25;"/>
<line x1="164.300000" y1="504.000000" x2="304.300000" y2="346.000000"  style="stroke:black; stroke-linecap:round; stroke-width:0.25;"/>
<line x1="164.300000" y1="92.000000" x2="304.300000" y2="346.000000"  style="stroke:black; stroke-linecap:round; stroke-width:0.25;"/>
<line x1="164.300000" y1="100.000000" x2="304.300000" y2="346.000000"  style="stroke:black; stroke-linecap:round; stroke-width:0.25;"/>
<line x1="164.300000" y1="128.000000" x2="304.300000" y2="346.000000"  style="stroke:black; stroke-linecap:round; stroke-width:0.25;"/>
<line x1="164.300000" y1="156.000000" x2="304.300000" y2="346.000000"  style="stroke:black; stroke-linecap:round; stroke-width:0.25;"/>
<line x1="164.300000" y1="164.000000" x2="304.300000" y2="346.000000"  style="stroke:black; stroke-linecap:round; stroke-width:0.25;"/>
<line x1="164.300000" y1="188.000000" x2="304.300000" y2="346.000000"  style="stroke:black; stroke-linecap:round; stroke-width:0.25;"/>
<line x1="164.300000" y1="196.000000" x2="304.300000" y2="346.000000"  style="stroke:black; stroke-linecap:round; stroke-width:0.25;"/>
<line x1="164.300000" y1="220.000000" x2="304.300000" y2="346.000000"  style="stroke:black; stroke-linecap:round; stroke-width:0.25;"/>
<line x1="164.300000" y1="228.000000" x2="304.300000" y2="346.000000"  style="stroke:black; stroke-linecap:round; stroke-width:0.25;"/>
<line x1="164.300000" y1="252.000000" x2="304.300000" y2="346.000000"  style="stroke:black; stroke-linecap:round; stroke-width:0.25;"/>
<line x1="164.300000" y1="260.000000" x2="304.300000" y2="346.000000"  style="stroke:black; stroke-linecap:round; stroke-width:0.25;"/>
<line x1="164.300000" y1="284.000000" x2="304.300000" y2="346.000000"  style="stroke:black; stroke-linecap:round; stroke-width:0.25;"/>
<line x1="164.300000" y1="292.000000" x2="304.300000" y2="346.000000"  style="stroke:black; stroke-linecap:round; stroke-width:0.25;"/>
<line x1="164.300000" y1="316.000000" x2="304.300000" y2="346.000000"  style="stroke:black; stroke-linecap:round; stroke-width:0.25;"/>
<line x1="164.300000" y1="324.000000" x2="304.300000" y2="346.000000"  style="stroke:black; stroke-linecap:round; stroke-width:0.25;"/>
<line x1="164.300000" y1="368.000000" x2="304.300000" y2="346.000000"  style="stroke:black; stroke-linecap:round; stroke-width:0.25;"/>
<line x1="164.300000" y1="376.000000" x2="304.300000" y2="346.000000"  style="stroke:black; stroke-linecap:round; stroke-width:0.25;"/>
<line x1="164.300000" y1="400.000000" x2="304.300000" y2="346.000000"  style="stroke:black; stroke-linecap:round; stroke-width:0.25;"/>
<line x1="164.300000" y1="408.000000" x2="304.300000" y2="346.000000"  style="stroke:black; stroke-linecap:round; stroke-width:0.25;"/>
<line x1="164.300000" y1="432.000000" x2="304.300000" y2="346.000000"  style="stroke:black; stroke-linecap:round; stroke-width:0.25;"/>
<line x1="164.300000" y1="440.000000" x2="304.300000" y2="346.000000"  style="stroke:black; stroke-linecap:round; stroke-width:0.25;"/>
<line x1="164.300000" y1="528.000000" x2="304.300000" y2="346.000000"  style="stroke:black; stroke-linecap:round; stroke-width:0.25;"/>
<line x1="164.300000" y1="536.000000" x2="304.300000" y2="346.000000"  style="stroke:black; stroke-linecap:round; stroke-width:0.25;"/>
<line x1="164.300000" y1="560.000000" x2="304.300000" y2="346.000000"  style="stroke:black; stroke-linecap:round; stroke-width:0.25;"/>
<line x1="164.300000" y1="568.000000" x2="304.300000" y2="346.000000"  style="stroke:black; stroke-linecap:round; stroke-width:0.25;"/>
<line x1="164.300000" y1="592.000000" x2="304.300000" y2="346.000000"  style="stroke:black; stroke-linecap:round; stroke-width:0.25;"/>
<line x1="164.300000" y1="600.000000" x2="304.300000" y2="346.000000"  style="stroke:black; stroke-linecap:round; stroke-width:0.25;"/>
<line x1="171.150000" y1="44.000000" x2="175.150000" y2="44.000000"  style="stroke:black; stroke-linecap:round; stroke-width:0.25;"/>
<line x1="175.150000" y1="24.000000" x2="183.150000" y2="24.000000"  style="stroke:black; stroke-linecap:round; stroke-width:0.25;"/>
<line x1="175.150000" y1="44.000000" x2="183.150000" y2="44.000000"  style="stroke:black; stroke-linecap:round; stroke-width:0.25;"/>
<line x1="183.150000" y1="24.000000" x2="183.150000" y2="36.000000"  style="stroke:black; stroke-linecap:round; stroke-width:0.25;"/>
<line x1="183.150000" y1="36.000000" x2="183.150000" y2="36.000000"  style="stroke:black; stroke-linecap:round; stroke-width:0.25;"/>
<line x1="183.150000" y1="36.000000" x2="187.150000" y2="36.000000"  style="stroke:black; stroke-linecap:round; stroke-width:0.25;"/>
<line x1="183.150000" y1="44.000000" x2="187.150000" y2="44.000000"  style="stroke:black; stroke-linecap:round; stroke-width:0.25;"/>
<line x1="211.150000" y1="40.000000" x2="215.150000" y2="40.000000"  style="stroke:black; stroke-linecap:round; stroke-width:0.25;"/>
<line x1="215.150000" y1="40.000000" x2="322.300000" y2="40.000000"  style="stroke:black; stroke-linecap:round; stroke-width:0.25;"/>
<line x1="304.300000" y1="346.000000" x2="308.300000" y2="346.000000"  style="stroke:black; stroke-linecap:round; stroke-width:0.25;"/>
<line x1="308.300000" y1="346.000000" x2="312.300000" y2="346.000000"  style="stroke:black; stroke-linecap:round; stroke-width:0.25;"/>
<line x1="312.300000" y1="346.000000" x2="322.300000" y2="346.000000"  style="stroke:black; stroke-linecap:round; stroke-width:0.25;"/>
<line x1="322.300000" y1="40.000000" x2="330.300000" y2="40.000000"  style="stroke:black; stroke-linecap:round; stroke-width:0.25;"/>
<line x1="322.300000" y1="330.000000" x2="330.300000" y2="330.000000"  style="stroke:black; stroke-linecap:round; stroke-width:0.25;"/>
<line x1="322.300000" y1="346.000000" x2="322.300000" y2="330.000000"  style="stroke:black; stroke-linecap:round; stroke-width:0.25;"/>
<line x1="322.300000" y1="346.000000" x2="322.300000" y2="346.000000"  style="stroke:black; stroke-linecap:round; stroke-width:0.25;"/>
<line x1="330.300000" y1="40.000000" x2="330.300000" y2="322.000000"  style="stroke:black; stroke-linecap:round; stroke-width:0.25;"/>
<line x1="330.300000" y1="322.000000" x2="330.300000" y2="322.000000"  style="stroke:black; stroke-linecap:round; stroke-width:0.25;"/>
<line x1="330.300000" y1="322.000000" x2="334.300000" y2="322.000000"  style="stroke:black; stroke-linecap:round; stroke-width:0.25;"/>
<line x1="330.300000" y1="330.000000" x2="334.300000" y2="330.000000"  style="stroke:black; stroke-linecap:round; stroke-width:0.25;"/>
<line x1="360.100000" y1="326.000000" x2="364.100000" y2="326.000000"  style="stroke:black; stroke-linecap:round; stroke-width:0.25;"/>
<line x1="364.100000" y1="326.000000" x2="364.100000" y2="326.000000"  style="stroke:black; stroke-linecap:round; stroke-width:0.25;"/>
<line x1="364.100000" y1="326.000000" x2="368.100000" y2="326.000000"  style="stroke:black; stroke-linecap:round; stroke-width:0.25;"/>
<line x1="368.100000" y1="326.000000" x2="372.100000" y2="326.000000"  style="stroke:black; stroke-linecap:round; stroke-width:0.25;"/>
<line x1="372.100000" y1="326.000000" x2="382.100000" y2="326.000000"  style="stroke:black; stroke-linecap:round; stroke-width:0.25;"/>
</svg>
