<?xml version="1.0"?>
<svg xmlns="http://www.w3.org/2000/svg" xmlns:xlink="http://www.w3.org/1999/xlink" viewBox="0 0 539.800000 240.000000" width="269.900000mm" height="120.000000mm" version="1.1">
<a xlink:href="moog-0x7fdb3a72f950.svg">
<rect x="1.000000" y="1.000000" width="538.800000" height="239.000000" rx="0" ry="0" style="stroke:none;fill:#cccccc;"/>
<rect x="0.000000" y="0.000000" width="538.800000" height="239.000000" rx="0" ry="0" style="stroke:none;fill:#ffffff;"/>
</a>
<text x="10.000000" y="7.000000" font-family="Arial" font-size="7"></text>
<rect x="234.900000" y="25.000000" width="24.000000" height="24.000000" rx="0" ry="0" style="stroke:none;fill:#cccccc;"/>
<rect x="233.900000" y="24.000000" width="24.000000" height="24.000000" rx="0" ry="0" style="stroke:none;fill:#f44800;"/>
<text x="245.900000" y="38.000000" font-family="Arial" font-size="7" text-anchor="middle" fill="#FFFFFF">-4</text>
<circle cx="235.900000" cy="26.000000" r="1"/>
<rect x="214.900000" y="57.000000" width="24.000000" height="24.000000" rx="0" ry="0" style="stroke:none;fill:#cccccc;"/>
<rect x="213.900000" y="56.000000" width="24.000000" height="24.000000" rx="0" ry="0" style="stroke:none;fill:#f44800;"/>
<text x="225.900000" y="70.000000" font-family="Arial" font-size="7" text-anchor="middle" fill="#FFFFFF">0</text>
<circle cx="215.900000" cy="58.000000" r="1"/>
<rect x="45.000000" y="109.000000" width="283.800000" height="24.000000" rx="0" ry="0" style="stroke:none;fill:#cccccc;"/>
<rect x="44.000000" y="108.000000" width="283.800000" height="24.000000" rx="0" ry="0" style="stroke:none;fill:#477881;"/>
<text x="185.900000" y="122.000000" font-family="Arial" font-size="7" text-anchor="middle" fill="#FFFFFF">hslider(Corner Resonance, 0.90000000000000002f, 0.0f, 1.0f, 0.01f)</text>
<circle cx="46.000000" cy="110.000000" r="1"/>
<line x1="35.000000" y1="99.000000" x2="35.000000" y2="141.000000"  style="stroke: black; stroke-linecap:round; stroke-width:0.25; stroke-dasharray:3,3;"/>
<line x1="35.000000" y1="141.000000" x2="336.800000" y2="141.000000"  style="stroke: black; stroke-linecap:round; stroke-width:0.25; stroke-dasharray:3,3;"/>
<line x1="336.800000" y1="141.000000" x2="336.800000" y2="99.000000"  style="stroke: black; stroke-linecap:round; stroke-width:0.25; stroke-dasharray:3,3;"/>
<line x1="35.000000" y1="99.000000" x2="40.000000" y2="99.000000"  style="stroke: black; stroke-linecap:round; stroke-width:0.25; stroke-dasharray:3,3;"/>
<line x1="188.350000" y1="99.000000" x2="336.800000" y2="99.000000"  style="stroke: black; stroke-linecap:round; stroke-width:0.25; stroke-dasharray:3,3;"/>
<text x="40.000000" y="101.000000" font-family="Arial" font-size="7">hgroup(MOOG VCF (Voltage Controlled Filter))</text>
<line x1="25.000000" y1="89.000000" x2="25.000000" y2="151.000000"  style="stroke: black; stroke-linecap:round; stroke-width:0.25; stroke-dasharray:3,3;"/>
<line x1="25.000000" y1="151.000000" x2="346.800000" y2="151.000000"  style="stroke: black; stroke-linecap:round; stroke-width:0.25; stroke-dasharray:3,3;"/>
<line x1="346.800000" y1="151.000000" x2="346.800000" y2="89.000000"  style="stroke: black; stroke-linecap:round; stroke-width:0.25; stroke-dasharray:3,3;"/>
<line x1="25.000000" y1="89.000000" x2="30.000000" y2="89.000000"  style="stroke: black; stroke-linecap:round; stroke-width:0.25; stroke-dasharray:3,3;"/>
<line x1="46.125000" y1="89.000000" x2="346.800000" y2="89.000000"  style="stroke: black; stroke-linecap:round; stroke-width:0.25; stroke-dasharray:3,3;"/>
<text x="30.000000" y="91.000000" font-family="Arial" font-size="7">res</text>
<rect x="174.900000" y="161.000000" width="24.000000" height="24.000000" rx="0" ry="0" style="stroke:none;fill:#cccccc;"/>
<rect x="173.900000" y="160.000000" width="24.000000" height="24.000000" rx="0" ry="0" style="stroke:none;fill:#f44800;"/>
<text x="185.900000" y="174.000000" font-family="Arial" font-size="7" text-anchor="middle" fill="#FFFFFF">4</text>
<circle cx="175.900000" cy="162.000000" r="1"/>
<rect x="364.800000" y="125.000000" width="24.000000" height="24.000000" rx="0" ry="0" style="stroke:none;fill:#cccccc;"/>
<rect x="363.800000" y="124.000000" width="24.000000" height="24.000000" rx="0" ry="0" style="stroke:none;fill:#4B71A1;"/>
<text x="375.800000" y="138.000000" font-family="Arial" font-size="7" text-anchor="middle" fill="#FFFFFF">pow</text>
<circle cx="365.800000" cy="126.000000" r="1"/>
<line x1="360.800000" y1="131.000000" x2="363.800000" y2="132.000000"  transform="rotate(0.000000,363.800000,132.000000)" style="stroke: black; stroke-width:0.25;"/>
<line x1="360.800000" y1="133.000000" x2="363.800000" y2="132.000000"  transform="rotate(0.000000,363.800000,132.000000)" style="stroke: black; stroke-width:0.25;"/>
<line x1="360.800000" y1="139.000000" x2="363.800000" y2="140.000000"  transform="rotate(0.000000,363.800000,140.000000)" style="stroke: black; stroke-width:0.25;"/>
<line x1="360.800000" y1="141.000000" x2="363.800000" y2="140.000000"  transform="rotate(0.000000,363.800000,140.000000)" style="stroke: black; stroke-width:0.25;"/>
<rect x="187.550000" y="193.000000" width="38.700000" height="24.000000" rx="0" ry="0" style="stroke:none;fill:#cccccc;"/>
<rect x="186.550000" y="192.000000" width="38.700000" height="24.000000" rx="0" ry="0" style="stroke:none;fill:#f44800;"/>
<text x="205.900000" y="206.000000" font-family="Arial" font-size="7" text-anchor="middle" fill="#FFFFFF">0.999999</text>
<circle cx="188.550000" cy="194.000000" r="1"/>
<rect x="404.800000" y="141.000000" width="24.000000" height="24.000000" rx="0" ry="0" style="stroke:none;fill:#cccccc;"/>
<rect x="403.800000" y="140.000000" width="24.000000" height="24.000000" rx="0" ry="0" style="stroke:none;fill:#4B71A1;"/>
<text x="415.800000" y="154.000000" font-family="Arial" font-size="7" text-anchor="middle" fill="#FFFFFF">min</text>
<circle cx="405.800000" cy="142.000000" r="1"/>
<line x1="400.800000" y1="147.000000" x2="403.800000" y2="148.000000"  transform="rotate(0.000000,403.800000,148.000000)" style="stroke: black; stroke-width:0.25;"/>
<line x1="400.800000" y1="149.000000" x2="403.800000" y2="148.000000"  transform="rotate(0.000000,403.800000,148.000000)" style="stroke: black; stroke-width:0.25;"/>
<line x1="400.800000" y1="155.000000" x2="403.800000" y2="156.000000"  transform="rotate(0.000000,403.800000,156.000000)" style="stroke: black; stroke-width:0.25;"/>
<line x1="400.800000" y1="157.000000" x2="403.800000" y2="156.000000"  transform="rotate(0.000000,403.800000,156.000000)" style="stroke: black; stroke-width:0.25;"/>
<rect x="444.800000" y="125.000000" width="24.000000" height="24.000000" rx="0" ry="0" style="stroke:none;fill:#cccccc;"/>
<rect x="443.800000" y="124.000000" width="24.000000" height="24.000000" rx="0" ry="0" style="stroke:none;fill:#4B71A1;"/>
<text x="455.800000" y="138.000000" font-family="Arial" font-size="7" text-anchor="middle" fill="#FFFFFF">max</text>
<circle cx="445.800000" cy="126.000000" r="1"/>
<line x1="440.800000" y1="131.000000" x2="443.800000" y2="132.000000"  transform="rotate(0.000000,443.800000,132.000000)" style="stroke: black; stroke-width:0.25;"/>
<line x1="440.800000" y1="133.000000" x2="443.800000" y2="132.000000"  transform="rotate(0.000000,443.800000,132.000000)" style="stroke: black; stroke-width:0.25;"/>
<line x1="440.800000" y1="139.000000" x2="443.800000" y2="140.000000"  transform="rotate(0.000000,443.800000,140.000000)" style="stroke: black; stroke-width:0.25;"/>
<line x1="440.800000" y1="141.000000" x2="443.800000" y2="140.000000"  transform="rotate(0.000000,443.800000,140.000000)" style="stroke: black; stroke-width:0.25;"/>
<rect x="484.800000" y="109.000000" width="24.000000" height="24.000000" rx="0" ry="0" style="stroke:none;fill:#cccccc;"/>
<rect x="483.800000" y="108.000000" width="24.000000" height="24.000000" rx="0" ry="0" style="stroke:none;fill:#4B71A1;"/>
<text x="495.800000" y="122.000000" font-family="Arial" font-size="7" text-anchor="middle" fill="#FFFFFF">*</text>
<circle cx="485.800000" cy="110.000000" r="1"/>
<line x1="480.800000" y1="115.000000" x2="483.800000" y2="116.000000"  transform="rotate(0.000000,483.800000,116.000000)" style="stroke: black; stroke-width:0.25;"/>
<line x1="480.800000" y1="117.000000" x2="483.800000" y2="116.000000"  transform="rotate(0.000000,483.800000,116.000000)" style="stroke: black; stroke-width:0.25;"/>
<line x1="480.800000" y1="123.000000" x2="483.800000" y2="124.000000"  transform="rotate(0.000000,483.800000,124.000000)" style="stroke: black; stroke-width:0.25;"/>
<line x1="480.800000" y1="125.000000" x2="483.800000" y2="124.000000"  transform="rotate(0.000000,483.800000,124.000000)" style="stroke: black; stroke-width:0.25;"/>
<line x1="15.000000" y1="15.000000" x2="15.000000" y2="225.000000"  style="stroke: black; stroke-linecap:round; stroke-width:0.25; stroke-dasharray:3,3;"/>
<line x1="15.000000" y1="225.000000" x2="524.800000" y2="225.000000"  style="stroke: black; stroke-linecap:round; stroke-width:0.25; stroke-dasharray:3,3;"/>
<line x1="524.800000" y1="225.000000" x2="524.800000" y2="15.000000"  style="stroke: black; stroke-linecap:round; stroke-width:0.25; stroke-dasharray:3,3;"/>
<line x1="15.000000" y1="15.000000" x2="20.000000" y2="15.000000"  style="stroke: black; stroke-linecap:round; stroke-width:0.25; stroke-dasharray:3,3;"/>
<line x1="32.900000" y1="15.000000" x2="524.800000" y2="15.000000"  style="stroke: black; stroke-linecap:round; stroke-width:0.25; stroke-dasharray:3,3;"/>
<text x="20.000000" y="17.000000" font-family="Arial" font-size="7">mk</text>
<line x1="526.800000" y1="119.000000" x2="529.800000" y2="120.000000"  transform="rotate(0.000000,529.800000,120.000000)" style="stroke: black; stroke-width:0.25;"/>
<line x1="526.800000" y1="121.000000" x2="529.800000" y2="120.000000"  transform="rotate(0.000000,529.800000,120.000000)" style="stroke: black; stroke-width:0.25;"/>
<line x1="197.900000" y1="172.000000" x2="201.900000" y2="172.000000"  style="stroke:black; stroke-linecap:round; stroke-width:0.25;"/>
<line x1="201.900000" y1="172.000000" x2="351.800000" y2="172.000000"  style="stroke:black; stroke-linecap:round; stroke-width:0.25;"/>
<line x1="225.250000" y1="204.000000" x2="229.250000" y2="204.000000"  style="stroke:black; stroke-linecap:round; stroke-width:0.25;"/>
<line x1="229.250000" y1="204.000000" x2="391.800000" y2="204.000000"  style="stroke:black; stroke-linecap:round; stroke-width:0.25;"/>
<line x1="237.900000" y1="68.000000" x2="241.900000" y2="68.000000"  style="stroke:black; stroke-linecap:round; stroke-width:0.25;"/>
<line x1="241.900000" y1="68.000000" x2="431.800000" y2="68.000000"  style="stroke:black; stroke-linecap:round; stroke-width:0.25;"/>
<line x1="257.900000" y1="36.000000" x2="261.900000" y2="36.000000"  style="stroke:black; stroke-linecap:round; stroke-width:0.25;"/>
<line x1="261.900000" y1="36.000000" x2="471.800000" y2="36.000000"  style="stroke:black; stroke-linecap:round; stroke-width:0.25;"/>
<line x1="327.800000" y1="120.000000" x2="331.800000" y2="120.000000"  style="stroke:black; stroke-linecap:round; stroke-width:0.25;"/>
<line x1="331.800000" y1="120.000000" x2="341.800000" y2="120.000000"  style="stroke:black; stroke-linecap:round; stroke-width:0.25;"/>
<line x1="341.800000" y1="120.000000" x2="351.800000" y2="120.000000"  style="stroke:black; stroke-linecap:round; stroke-width:0.25;"/>
<line x1="351.800000" y1="120.000000" x2="359.800000" y2="120.000000"  style="stroke:black; stroke-linecap:round; stroke-width:0.25;"/>
<line x1="351.800000" y1="140.000000" x2="359.800000" y2="140.000000"  style="stroke:black; stroke-linecap:round; stroke-width:0.25;"/>
<line x1="351.800000" y1="172.000000" x2="351.800000" y2="140.000000"  style="stroke:black; stroke-linecap:round; stroke-width:0.25;"/>
<line x1="351.800000" y1="172.000000" x2="351.800000" y2="172.000000"  style="stroke:black; stroke-linecap:round; stroke-width:0.25;"/>
<line x1="359.800000" y1="120.000000" x2="359.800000" y2="132.000000"  style="stroke:black; stroke-linecap:round; stroke-width:0.25;"/>
<line x1="359.800000" y1="132.000000" x2="359.800000" y2="132.000000"  style="stroke:black; stroke-linecap:round; stroke-width:0.25;"/>
<line x1="359.800000" y1="132.000000" x2="363.800000" y2="132.000000"  style="stroke:black; stroke-linecap:round; stroke-width:0.25;"/>
<line x1="359.800000" y1="140.000000" x2="363.800000" y2="140.000000"  style="stroke:black; stroke-linecap:round; stroke-width:0.25;"/>
<line x1="387.800000" y1="136.000000" x2="391.800000" y2="136.000000"  style="stroke:black; stroke-linecap:round; stroke-width:0.25;"/>
<line x1="391.800000" y1="136.000000" x2="399.800000" y2="136.000000"  style="stroke:black; stroke-linecap:round; stroke-width:0.25;"/>
<line x1="391.800000" y1="156.000000" x2="399.800000" y2="156.000000"  style="stroke:black; stroke-linecap:round; stroke-width:0.25;"/>
<line x1="391.800000" y1="204.000000" x2="391.800000" y2="156.000000"  style="stroke:black; stroke-linecap:round; stroke-width:0.25;"/>
<line x1="391.800000" y1="204.000000" x2="391.800000" y2="204.000000"  style="stroke:black; stroke-linecap:round; stroke-width:0.25;"/>
<line x1="399.800000" y1="136.000000" x2="399.800000" y2="148.000000"  style="stroke:black; stroke-linecap:round; stroke-width:0.25;"/>
<line x1="399.800000" y1="148.000000" x2="399.800000" y2="148.000000"  style="stroke:black; stroke-linecap:round; stroke-width:0.25;"/>
<line x1="399.800000" y1="148.000000" x2="403.800000" y2="148.000000"  style="stroke:black; stroke-linecap:round; stroke-width:0.25;"/>
<line x1="399.800000" y1="156.000000" x2="403.800000" y2="156.000000"  style="stroke:black; stroke-linecap:round; stroke-width:0.25;"/>
<line x1="427.800000" y1="152.000000" x2="431.800000" y2="152.000000"  style="stroke:black; stroke-linecap:round; stroke-width:0.25;"/>
<line x1="431.800000" y1="68.000000" x2="439.800000" y2="68.000000"  style="stroke:black; stroke-linecap:round; stroke-width:0.25;"/>
<line x1="431.800000" y1="140.000000" x2="439.800000" y2="140.000000"  style="stroke:black; stroke-linecap:round; stroke-width:0.25;"/>
<line x1="431.800000" y1="152.000000" x2="431.800000" y2="140.000000"  style="stroke:black; stroke-linecap:round; stroke-width:0.25;"/>
<line x1="431.800000" y1="152.000000" x2="431.800000" y2="152.000000"  style="stroke:black; stroke-linecap:round; stroke-width:0.25;"/>
<line x1="439.800000" y1="68.000000" x2="439.800000" y2="132.000000"  style="stroke:black; stroke-linecap:round; stroke-width:0.25;"/>
<line x1="439.800000" y1="132.000000" x2="439.800000" y2="132.000000"  style="stroke:black; stroke-linecap:round; stroke-width:0.25;"/>
<line x1="439.800000" y1="132.000000" x2="443.800000" y2="132.000000"  style="stroke:black; stroke-linecap:round; stroke-width:0.25;"/>
<line x1="439.800000" y1="140.000000" x2="443.800000" y2="140.000000"  style="stroke:black; stroke-linecap:round; stroke-width:0.25;"/>
<line x1="467.800000" y1="136.000000" x2="471.800000" y2="136.000000"  style="stroke:black; stroke-linecap:round; stroke-width:0.25;"/>
<line x1="471.800000" y1="36.000000" x2="479.800000" y2="36.000000"  style="stroke:black; stroke-linecap:round; stroke-width:0.25;"/>
<line x1="471.800000" y1="124.000000" x2="479.800000" y2="124.000000"  style="stroke:black; stroke-linecap:round; stroke-width:0.25;"/>
<line x1="471.800000" y1="136.000000" x2="471.800000" y2="124.000000"  style="stroke:black; stroke-linecap:round; stroke-width:0.25;"/>
<line x1="471.800000" y1="136.000000" x2="471.800000" y2="136.000000"  style="stroke:black; stroke-linecap:round; stroke-width:0.25;"/>
<line x1="479.800000" y1="36.000000" x2="479.800000" y2="116.000000"  style="stroke:black; stroke-linecap:round; stroke-width:0.25;"/>
<line x1="479.800000" y1="116.000000" x2="479.800000" y2="116.000000"  style="stroke:black; stroke-linecap:round; stroke-width:0.25;"/>
<line x1="479.800000" y1="116.000000" x2="483.800000" y2="116.000000"  style="stroke:black; stroke-linecap:round; stroke-width:0.25;"/>
<line x1="479.800000" y1="124.000000" x2="483.800000" y2="124.000000"  style="stroke:black; stroke-linecap:round; stroke-width:0.25;"/>
<line x1="507.800000" y1="120.000000" x2="511.800000" y2="120.000000"  style="stroke:black; stroke-linecap:round; stroke-width:0.25;"/>
<line x1="511.800000" y1="120.000000" x2="511.800000" y2="120.000000"  style="stroke:black; stroke-linecap:round; stroke-width:0.25;"/>
<line x1="511.800000" y1="120.000000" x2="515.800000" y2="120.000000"  style="stroke:black; stroke-linecap:round; stroke-width:0.25;"/>
<line x1="515.800000" y1="120.000000" x2="519.800000" y2="120.000000"  style="stroke:black; stroke-linecap:round; stroke-width:0.25;"/>
<line x1="519.800000" y1="120.000000" x2="529.800000" y2="120.000000"  style="stroke:black; stroke-linecap:round; stroke-width:0.25;"/>
</svg>
