<?xml version="1.0"?>
<svg xmlns="http://www.w3.org/2000/svg" xmlns:xlink="http://www.w3.org/1999/xlink" viewBox="0 0 671.300000 516.000000" width="335.650000mm" height="258.000000mm" version="1.1">
<a xlink:href="spat-0x7fec6df72ea0.svg">
<rect x="1.000000" y="1.000000" width="670.300000" height="515.000000" rx="0" ry="0" style="stroke:none;fill:#cccccc;"/>
<rect x="0.000000" y="0.000000" width="670.300000" height="515.000000" rx="0" ry="0" style="stroke:none;fill:#ffffff;"/>
</a>
<text x="10.000000" y="7.000000" font-family="Arial" font-size="7"></text>
<rect x="182.350000" y="35.000000" width="180.600000" height="24.000000" rx="0" ry="0" style="stroke:none;fill:#cccccc;"/>
<rect x="181.350000" y="34.000000" width="180.600000" height="24.000000" rx="0" ry="0" style="stroke:none;fill:#477881;"/>
<text x="271.650000" y="48.000000" font-family="Arial" font-size="7" text-anchor="middle" fill="#FFFFFF">hslider(distance, 0.5f, 0.0f, 1.0f, 0.01f)</text>
<circle cx="183.350000" cy="36.000000" r="1"/>
<line x1="172.350000" y1="25.000000" x2="172.350000" y2="67.000000"  style="stroke: black; stroke-linecap:round; stroke-width:0.25; stroke-dasharray:3,3;"/>
<line x1="172.350000" y1="67.000000" x2="370.950000" y2="67.000000"  style="stroke: black; stroke-linecap:round; stroke-width:0.25; stroke-dasharray:3,3;"/>
<line x1="370.950000" y1="67.000000" x2="370.950000" y2="25.000000"  style="stroke: black; stroke-linecap:round; stroke-width:0.25; stroke-dasharray:3,3;"/>
<line x1="172.350000" y1="25.000000" x2="177.350000" y2="25.000000"  style="stroke: black; stroke-linecap:round; stroke-width:0.25; stroke-dasharray:3,3;"/>
<line x1="209.600000" y1="25.000000" x2="370.950000" y2="25.000000"  style="stroke: black; stroke-linecap:round; stroke-width:0.25; stroke-dasharray:3,3;"/>
<text x="177.350000" y="27.000000" font-family="Arial" font-size="7">distance</text>
<rect x="260.650000" y="77.000000" width="24.000000" height="24.000000" rx="0" ry="0" style="stroke:none;fill:#cccccc;"/>
<rect x="259.650000" y="76.000000" width="24.000000" height="24.000000" rx="0" ry="0" style="stroke:none;fill:#f44800;"/>
<text x="271.650000" y="90.000000" font-family="Arial" font-size="7" text-anchor="middle" fill="#FFFFFF">2</text>
<circle cx="261.650000" cy="78.000000" r="1"/>
<rect x="388.950000" y="51.000000" width="24.000000" height="24.000000" rx="0" ry="0" style="stroke:none;fill:#cccccc;"/>
<rect x="387.950000" y="50.000000" width="24.000000" height="24.000000" rx="0" ry="0" style="stroke:none;fill:#4B71A1;"/>
<text x="399.950000" y="64.000000" font-family="Arial" font-size="7" text-anchor="middle" fill="#FFFFFF">/</text>
<circle cx="389.950000" cy="52.000000" r="1"/>
<line x1="384.950000" y1="57.000000" x2="387.950000" y2="58.000000"  transform="rotate(0.000000,387.950000,58.000000)" style="stroke: black; stroke-width:0.25;"/>
<line x1="384.950000" y1="59.000000" x2="387.950000" y2="58.000000"  transform="rotate(0.000000,387.950000,58.000000)" style="stroke: black; stroke-width:0.25;"/>
<line x1="384.950000" y1="65.000000" x2="387.950000" y2="66.000000"  transform="rotate(0.000000,387.950000,66.000000)" style="stroke: black; stroke-width:0.25;"/>
<line x1="384.950000" y1="67.000000" x2="387.950000" y2="66.000000"  transform="rotate(0.000000,387.950000,66.000000)" style="stroke: black; stroke-width:0.25;"/>
<rect x="280.650000" y="109.000000" width="24.000000" height="24.000000" rx="0" ry="0" style="stroke:none;fill:#cccccc;"/>
<rect x="279.650000" y="108.000000" width="24.000000" height="24.000000" rx="0" ry="0" style="stroke:none;fill:#f44800;"/>
<text x="291.650000" y="122.000000" font-family="Arial" font-size="7" text-anchor="middle" fill="#FFFFFF">0.5</text>
<circle cx="281.650000" cy="110.000000" r="1"/>
<rect x="428.950000" y="67.000000" width="24.000000" height="24.000000" rx="0" ry="0" style="stroke:none;fill:#cccccc;"/>
<rect x="427.950000" y="66.000000" width="24.000000" height="24.000000" rx="0" ry="0" style="stroke:none;fill:#4B71A1;"/>
<text x="439.950000" y="80.000000" font-family="Arial" font-size="7" text-anchor="middle" fill="#FFFFFF">+</text>
<circle cx="429.950000" cy="68.000000" r="1"/>
<line x1="424.950000" y1="73.000000" x2="427.950000" y2="74.000000"  transform="rotate(0.000000,427.950000,74.000000)" style="stroke: black; stroke-width:0.25;"/>
<line x1="424.950000" y1="75.000000" x2="427.950000" y2="74.000000"  transform="rotate(0.000000,427.950000,74.000000)" style="stroke: black; stroke-width:0.25;"/>
<line x1="424.950000" y1="81.000000" x2="427.950000" y2="82.000000"  transform="rotate(0.000000,427.950000,82.000000)" style="stroke: black; stroke-width:0.25;"/>
<line x1="424.950000" y1="83.000000" x2="427.950000" y2="82.000000"  transform="rotate(0.000000,427.950000,82.000000)" style="stroke: black; stroke-width:0.25;"/>
<rect x="263.750000" y="141.000000" width="24.000000" height="24.000000" rx="0" ry="0" style="stroke:none;fill:#cccccc;"/>
<rect x="262.750000" y="140.000000" width="24.000000" height="24.000000" rx="0" ry="0" style="stroke:none;fill:#f44800;"/>
<text x="274.750000" y="154.000000" font-family="Arial" font-size="7" text-anchor="middle" fill="#FFFFFF">0</text>
<circle cx="264.750000" cy="142.000000" r="1"/>
<rect x="243.750000" y="173.000000" width="24.000000" height="24.000000" rx="0" ry="0" style="stroke:none;fill:#cccccc;"/>
<rect x="242.750000" y="172.000000" width="24.000000" height="24.000000" rx="0" ry="0" style="stroke:none;fill:#f44800;"/>
<text x="254.750000" y="186.000000" font-family="Arial" font-size="7" text-anchor="middle" fill="#FFFFFF">1</text>
<circle cx="244.750000" cy="174.000000" r="1"/>
<rect x="35.000000" y="215.000000" width="167.700000" height="24.000000" rx="0" ry="0" style="stroke:none;fill:#cccccc;"/>
<rect x="34.000000" y="214.000000" width="167.700000" height="24.000000" rx="0" ry="0" style="stroke:none;fill:#477881;"/>
<text x="117.850000" y="228.000000" font-family="Arial" font-size="7" text-anchor="middle" fill="#FFFFFF">hslider(angle, 0.0f, 0.0f, 1.0f, 0.01f)</text>
<circle cx="36.000000" cy="216.000000" r="1"/>
<line x1="25.000000" y1="205.000000" x2="25.000000" y2="247.000000"  style="stroke: black; stroke-linecap:round; stroke-width:0.25; stroke-dasharray:3,3;"/>
<line x1="25.000000" y1="247.000000" x2="210.700000" y2="247.000000"  style="stroke: black; stroke-linecap:round; stroke-width:0.25; stroke-dasharray:3,3;"/>
<line x1="210.700000" y1="247.000000" x2="210.700000" y2="205.000000"  style="stroke: black; stroke-linecap:round; stroke-width:0.25; stroke-dasharray:3,3;"/>
<line x1="25.000000" y1="205.000000" x2="30.000000" y2="205.000000"  style="stroke: black; stroke-linecap:round; stroke-width:0.25; stroke-dasharray:3,3;"/>
<line x1="52.575000" y1="205.000000" x2="210.700000" y2="205.000000"  style="stroke: black; stroke-linecap:round; stroke-width:0.25; stroke-dasharray:3,3;"/>
<text x="30.000000" y="207.000000" font-family="Arial" font-size="7">angle</text>
<rect x="106.850000" y="257.000000" width="24.000000" height="24.000000" rx="0" ry="0" style="stroke:none;fill:#cccccc;"/>
<rect x="105.850000" y="256.000000" width="24.000000" height="24.000000" rx="0" ry="0" style="stroke:none;fill:#f44800;"/>
<text x="117.850000" y="270.000000" font-family="Arial" font-size="7" text-anchor="middle" fill="#FFFFFF">0.5</text>
<circle cx="107.850000" cy="258.000000" r="1"/>
<rect x="228.700000" y="231.000000" width="24.000000" height="24.000000" rx="0" ry="0" style="stroke:none;fill:#cccccc;"/>
<rect x="227.700000" y="230.000000" width="24.000000" height="24.000000" rx="0" ry="0" style="stroke:none;fill:#4B71A1;"/>
<text x="239.700000" y="244.000000" font-family="Arial" font-size="7" text-anchor="middle" fill="#FFFFFF">+</text>
<circle cx="229.700000" cy="232.000000" r="1"/>
<line x1="224.700000" y1="237.000000" x2="227.700000" y2="238.000000"  transform="rotate(0.000000,227.700000,238.000000)" style="stroke: black; stroke-width:0.25;"/>
<line x1="224.700000" y1="239.000000" x2="227.700000" y2="238.000000"  transform="rotate(0.000000,227.700000,238.000000)" style="stroke: black; stroke-width:0.25;"/>
<line x1="224.700000" y1="245.000000" x2="227.700000" y2="246.000000"  transform="rotate(0.000000,227.700000,246.000000)" style="stroke: black; stroke-width:0.25;"/>
<line x1="224.700000" y1="247.000000" x2="227.700000" y2="246.000000"  transform="rotate(0.000000,227.700000,246.000000)" style="stroke: black; stroke-width:0.25;"/>
<rect x="89.950000" y="289.000000" width="24.000000" height="24.000000" rx="0" ry="0" style="stroke:none;fill:#cccccc;"/>
<rect x="88.950000" y="288.000000" width="24.000000" height="24.000000" rx="0" ry="0" style="stroke:none;fill:#f44800;"/>
<text x="100.950000" y="302.000000" font-family="Arial" font-size="7" text-anchor="middle" fill="#FFFFFF">3</text>
<circle cx="90.950000" cy="290.000000" r="1"/>
<rect x="121.950000" y="289.000000" width="25.800000" height="24.000000" rx="0" ry="0" style="stroke:none;fill:#cccccc;"/>
<rect x="120.950000" y="288.000000" width="25.800000" height="24.000000" rx="0" ry="0" style="stroke:none;fill:#4B71A1;"/>
<text x="133.850000" y="302.000000" font-family="Arial" font-size="7" text-anchor="middle" fill="#FFFFFF">float</text>
<circle cx="122.950000" cy="290.000000" r="1"/>
<line x1="117.950000" y1="299.000000" x2="120.950000" y2="300.000000"  transform="rotate(0.000000,120.950000,300.000000)" style="stroke: black; stroke-width:0.25;"/>
<line x1="117.950000" y1="301.000000" x2="120.950000" y2="300.000000"  transform="rotate(0.000000,120.950000,300.000000)" style="stroke: black; stroke-width:0.25;"/>
<rect x="106.850000" y="321.000000" width="24.000000" height="24.000000" rx="0" ry="0" style="stroke:none;fill:#cccccc;"/>
<rect x="105.850000" y="320.000000" width="24.000000" height="24.000000" rx="0" ry="0" style="stroke:none;fill:#f44800;"/>
<text x="117.850000" y="334.000000" font-family="Arial" font-size="7" text-anchor="middle" fill="#FFFFFF">8</text>
<circle cx="107.850000" cy="322.000000" r="1"/>
<rect x="163.750000" y="305.000000" width="24.000000" height="24.000000" rx="0" ry="0" style="stroke:none;fill:#cccccc;"/>
<rect x="162.750000" y="304.000000" width="24.000000" height="24.000000" rx="0" ry="0" style="stroke:none;fill:#4B71A1;"/>
<text x="174.750000" y="318.000000" font-family="Arial" font-size="7" text-anchor="middle" fill="#FFFFFF">/</text>
<circle cx="164.750000" cy="306.000000" r="1"/>
<line x1="159.750000" y1="311.000000" x2="162.750000" y2="312.000000"  transform="rotate(0.000000,162.750000,312.000000)" style="stroke: black; stroke-width:0.25;"/>
<line x1="159.750000" y1="313.000000" x2="162.750000" y2="312.000000"  transform="rotate(0.000000,162.750000,312.000000)" style="stroke: black; stroke-width:0.25;"/>
<line x1="159.750000" y1="319.000000" x2="162.750000" y2="320.000000"  transform="rotate(0.000000,162.750000,320.000000)" style="stroke: black; stroke-width:0.25;"/>
<line x1="159.750000" y1="321.000000" x2="162.750000" y2="320.000000"  transform="rotate(0.000000,162.750000,320.000000)" style="stroke: black; stroke-width:0.25;"/>
<rect x="268.700000" y="263.000000" width="24.000000" height="24.000000" rx="0" ry="0" style="stroke:none;fill:#cccccc;"/>
<rect x="267.700000" y="262.000000" width="24.000000" height="24.000000" rx="0" ry="0" style="stroke:none;fill:#4B71A1;"/>
<text x="279.700000" y="276.000000" font-family="Arial" font-size="7" text-anchor="middle" fill="#FFFFFF">+</text>
<circle cx="269.700000" cy="264.000000" r="1"/>
<line x1="264.700000" y1="269.000000" x2="267.700000" y2="270.000000"  transform="rotate(0.000000,267.700000,270.000000)" style="stroke: black; stroke-width:0.25;"/>
<line x1="264.700000" y1="271.000000" x2="267.700000" y2="270.000000"  transform="rotate(0.000000,267.700000,270.000000)" style="stroke: black; stroke-width:0.25;"/>
<line x1="264.700000" y1="277.000000" x2="267.700000" y2="278.000000"  transform="rotate(0.000000,267.700000,278.000000)" style="stroke: black; stroke-width:0.25;"/>
<line x1="264.700000" y1="279.000000" x2="267.700000" y2="278.000000"  transform="rotate(0.000000,267.700000,278.000000)" style="stroke: black; stroke-width:0.25;"/>
<rect x="146.850000" y="353.000000" width="24.000000" height="24.000000" rx="0" ry="0" style="stroke:none;fill:#cccccc;"/>
<rect x="145.850000" y="352.000000" width="24.000000" height="24.000000" rx="0" ry="0" style="stroke:none;fill:#f44800;"/>
<text x="157.850000" y="366.000000" font-family="Arial" font-size="7" text-anchor="middle" fill="#FFFFFF">1</text>
<circle cx="147.850000" cy="354.000000" r="1"/>
<rect x="308.700000" y="279.000000" width="25.800000" height="24.000000" rx="0" ry="0" style="stroke:none;fill:#cccccc;"/>
<rect x="307.700000" y="278.000000" width="25.800000" height="24.000000" rx="0" ry="0" style="stroke:none;fill:#4B71A1;"/>
<text x="320.600000" y="292.000000" font-family="Arial" font-size="7" text-anchor="middle" fill="#FFFFFF">fmod</text>
<circle cx="309.700000" cy="280.000000" r="1"/>
<line x1="304.700000" y1="285.000000" x2="307.700000" y2="286.000000"  transform="rotate(0.000000,307.700000,286.000000)" style="stroke: black; stroke-width:0.25;"/>
<line x1="304.700000" y1="287.000000" x2="307.700000" y2="286.000000"  transform="rotate(0.000000,307.700000,286.000000)" style="stroke: black; stroke-width:0.25;"/>
<line x1="304.700000" y1="293.000000" x2="307.700000" y2="294.000000"  transform="rotate(0.000000,307.700000,294.000000)" style="stroke: black; stroke-width:0.25;"/>
<line x1="304.700000" y1="295.000000" x2="307.700000" y2="294.000000"  transform="rotate(0.000000,307.700000,294.000000)" style="stroke: black; stroke-width:0.25;"/>
<rect x="167.750000" y="385.000000" width="24.000000" height="24.000000" rx="0" ry="0" style="stroke:none;fill:#cccccc;"/>
<rect x="166.750000" y="384.000000" width="24.000000" height="24.000000" rx="0" ry="0" style="stroke:none;fill:#f44800;"/>
<text x="178.750000" y="398.000000" font-family="Arial" font-size="7" text-anchor="middle" fill="#FFFFFF">0.5</text>
<circle cx="168.750000" cy="386.000000" r="1"/>
<rect x="350.500000" y="295.000000" width="24.000000" height="24.000000" rx="0" ry="0" style="stroke:none;fill:#cccccc;"/>
<rect x="349.500000" y="294.000000" width="24.000000" height="24.000000" rx="0" ry="0" style="stroke:none;fill:#4B71A1;"/>
<text x="361.500000" y="308.000000" font-family="Arial" font-size="7" text-anchor="middle" fill="#FFFFFF">-</text>
<circle cx="351.500000" cy="296.000000" r="1"/>
<line x1="346.500000" y1="301.000000" x2="349.500000" y2="302.000000"  transform="rotate(0.000000,349.500000,302.000000)" style="stroke: black; stroke-width:0.25;"/>
<line x1="346.500000" y1="303.000000" x2="349.500000" y2="302.000000"  transform="rotate(0.000000,349.500000,302.000000)" style="stroke: black; stroke-width:0.25;"/>
<line x1="346.500000" y1="309.000000" x2="349.500000" y2="310.000000"  transform="rotate(0.000000,349.500000,310.000000)" style="stroke: black; stroke-width:0.25;"/>
<line x1="346.500000" y1="311.000000" x2="349.500000" y2="310.000000"  transform="rotate(0.000000,349.500000,310.000000)" style="stroke: black; stroke-width:0.25;"/>
<rect x="382.500000" y="295.000000" width="24.000000" height="24.000000" rx="0" ry="0" style="stroke:none;fill:#cccccc;"/>
<rect x="381.500000" y="294.000000" width="24.000000" height="24.000000" rx="0" ry="0" style="stroke:none;fill:#4B71A1;"/>
<text x="393.500000" y="308.000000" font-family="Arial" font-size="7" text-anchor="middle" fill="#FFFFFF">abs</text>
<circle cx="383.500000" cy="296.000000" r="1"/>
<line x1="378.500000" y1="305.000000" x2="381.500000" y2="306.000000"  transform="rotate(0.000000,381.500000,306.000000)" style="stroke: black; stroke-width:0.25;"/>
<line x1="378.500000" y1="307.000000" x2="381.500000" y2="306.000000"  transform="rotate(0.000000,381.500000,306.000000)" style="stroke: black; stroke-width:0.25;"/>
<rect x="203.750000" y="417.000000" width="24.000000" height="24.000000" rx="0" ry="0" style="stroke:none;fill:#cccccc;"/>
<rect x="202.750000" y="416.000000" width="24.000000" height="24.000000" rx="0" ry="0" style="stroke:none;fill:#f44800;"/>
<text x="214.750000" y="430.000000" font-family="Arial" font-size="7" text-anchor="middle" fill="#FFFFFF">8</text>
<circle cx="204.750000" cy="418.000000" r="1"/>
<rect x="422.500000" y="311.000000" width="24.000000" height="24.000000" rx="0" ry="0" style="stroke:none;fill:#cccccc;"/>
<rect x="421.500000" y="310.000000" width="24.000000" height="24.000000" rx="0" ry="0" style="stroke:none;fill:#4B71A1;"/>
<text x="433.500000" y="324.000000" font-family="Arial" font-size="7" text-anchor="middle" fill="#FFFFFF">*</text>
<circle cx="423.500000" cy="312.000000" r="1"/>
<line x1="418.500000" y1="317.000000" x2="421.500000" y2="318.000000"  transform="rotate(0.000000,421.500000,318.000000)" style="stroke: black; stroke-width:0.25;"/>
<line x1="418.500000" y1="319.000000" x2="421.500000" y2="318.000000"  transform="rotate(0.000000,421.500000,318.000000)" style="stroke: black; stroke-width:0.25;"/>
<line x1="418.500000" y1="325.000000" x2="421.500000" y2="326.000000"  transform="rotate(0.000000,421.500000,326.000000)" style="stroke: black; stroke-width:0.25;"/>
<line x1="418.500000" y1="327.000000" x2="421.500000" y2="326.000000"  transform="rotate(0.000000,421.500000,326.000000)" style="stroke: black; stroke-width:0.25;"/>
<rect x="145.450000" y="459.000000" width="180.600000" height="24.000000" rx="0" ry="0" style="stroke:none;fill:#cccccc;"/>
<rect x="144.450000" y="458.000000" width="180.600000" height="24.000000" rx="0" ry="0" style="stroke:none;fill:#477881;"/>
<text x="234.750000" y="472.000000" font-family="Arial" font-size="7" text-anchor="middle" fill="#FFFFFF">hslider(distance, 0.5f, 0.0f, 1.0f, 0.01f)</text>
<circle cx="146.450000" cy="460.000000" r="1"/>
<line x1="135.450000" y1="449.000000" x2="135.450000" y2="491.000000"  style="stroke: black; stroke-linecap:round; stroke-width:0.25; stroke-dasharray:3,3;"/>
<line x1="135.450000" y1="491.000000" x2="334.050000" y2="491.000000"  style="stroke: black; stroke-linecap:round; stroke-width:0.25; stroke-dasharray:3,3;"/>
<line x1="334.050000" y1="491.000000" x2="334.050000" y2="449.000000"  style="stroke: black; stroke-linecap:round; stroke-width:0.25; stroke-dasharray:3,3;"/>
<line x1="135.450000" y1="449.000000" x2="140.450000" y2="449.000000"  style="stroke: black; stroke-linecap:round; stroke-width:0.25; stroke-dasharray:3,3;"/>
<line x1="172.700000" y1="449.000000" x2="334.050000" y2="449.000000"  style="stroke: black; stroke-linecap:round; stroke-width:0.25; stroke-dasharray:3,3;"/>
<text x="140.450000" y="451.000000" font-family="Arial" font-size="7">distance</text>
<rect x="462.500000" y="337.000000" width="24.000000" height="24.000000" rx="0" ry="0" style="stroke:none;fill:#cccccc;"/>
<rect x="461.500000" y="336.000000" width="24.000000" height="24.000000" rx="0" ry="0" style="stroke:none;fill:#4B71A1;"/>
<text x="473.500000" y="350.000000" font-family="Arial" font-size="7" text-anchor="middle" fill="#FFFFFF">*</text>
<circle cx="463.500000" cy="338.000000" r="1"/>
<line x1="458.500000" y1="343.000000" x2="461.500000" y2="344.000000"  transform="rotate(0.000000,461.500000,344.000000)" style="stroke: black; stroke-width:0.25;"/>
<line x1="458.500000" y1="345.000000" x2="461.500000" y2="344.000000"  transform="rotate(0.000000,461.500000,344.000000)" style="stroke: black; stroke-width:0.25;"/>
<line x1="458.500000" y1="351.000000" x2="461.500000" y2="352.000000"  transform="rotate(0.000000,461.500000,352.000000)" style="stroke: black; stroke-width:0.25;"/>
<line x1="458.500000" y1="353.000000" x2="461.500000" y2="352.000000"  transform="rotate(0.000000,461.500000,352.000000)" style="stroke: black; stroke-width:0.25;"/>
<rect x="502.500000" y="321.000000" width="24.000000" height="24.000000" rx="0" ry="0" style="stroke:none;fill:#cccccc;"/>
<rect x="501.500000" y="320.000000" width="24.000000" height="24.000000" rx="0" ry="0" style="stroke:none;fill:#4B71A1;"/>
<text x="513.500000" y="334.000000" font-family="Arial" font-size="7" text-anchor="middle" fill="#FFFFFF">-</text>
<circle cx="503.500000" cy="322.000000" r="1"/>
<line x1="498.500000" y1="327.000000" x2="501.500000" y2="328.000000"  transform="rotate(0.000000,501.500000,328.000000)" style="stroke: black; stroke-width:0.25;"/>
<line x1="498.500000" y1="329.000000" x2="501.500000" y2="328.000000"  transform="rotate(0.000000,501.500000,328.000000)" style="stroke: black; stroke-width:0.25;"/>
<line x1="498.500000" y1="335.000000" x2="501.500000" y2="336.000000"  transform="rotate(0.000000,501.500000,336.000000)" style="stroke: black; stroke-width:0.25;"/>
<line x1="498.500000" y1="337.000000" x2="501.500000" y2="336.000000"  transform="rotate(0.000000,501.500000,336.000000)" style="stroke: black; stroke-width:0.25;"/>
<rect x="542.500000" y="305.000000" width="24.000000" height="24.000000" rx="0" ry="0" style="stroke:none;fill:#cccccc;"/>
<rect x="541.500000" y="304.000000" width="24.000000" height="24.000000" rx="0" ry="0" style="stroke:none;fill:#4B71A1;"/>
<text x="553.500000" y="318.000000" font-family="Arial" font-size="7" text-anchor="middle" fill="#FFFFFF">max</text>
<circle cx="543.500000" cy="306.000000" r="1"/>
<line x1="538.500000" y1="311.000000" x2="541.500000" y2="312.000000"  transform="rotate(0.000000,541.500000,312.000000)" style="stroke: black; stroke-width:0.25;"/>
<line x1="538.500000" y1="313.000000" x2="541.500000" y2="312.000000"  transform="rotate(0.000000,541.500000,312.000000)" style="stroke: black; stroke-width:0.25;"/>
<line x1="538.500000" y1="319.000000" x2="541.500000" y2="320.000000"  transform="rotate(0.000000,541.500000,320.000000)" style="stroke: black; stroke-width:0.25;"/>
<line x1="538.500000" y1="321.000000" x2="541.500000" y2="320.000000"  transform="rotate(0.000000,541.500000,320.000000)" style="stroke: black; stroke-width:0.25;"/>
<rect x="574.500000" y="305.000000" width="25.800000" height="24.000000" rx="0" ry="0" style="stroke:none;fill:#cccccc;"/>
<rect x="573.500000" y="304.000000" width="25.800000" height="24.000000" rx="0" ry="0" style="stroke:none;fill:#4B71A1;"/>
<text x="586.400000" y="318.000000" font-family="Arial" font-size="7" text-anchor="middle" fill="#FFFFFF">sqrt</text>
<circle cx="575.500000" cy="306.000000" r="1"/>
<line x1="570.500000" y1="315.000000" x2="573.500000" y2="316.000000"  transform="rotate(0.000000,573.500000,316.000000)" style="stroke: black; stroke-width:0.25;"/>
<line x1="570.500000" y1="317.000000" x2="573.500000" y2="316.000000"  transform="rotate(0.000000,573.500000,316.000000)" style="stroke: black; stroke-width:0.25;"/>
<rect x="616.300000" y="247.000000" width="24.000000" height="24.000000" rx="0" ry="0" style="stroke:none;fill:#cccccc;"/>
<rect x="615.300000" y="246.000000" width="24.000000" height="24.000000" rx="0" ry="0" style="stroke:none;fill:#4B71A1;"/>
<text x="627.300000" y="260.000000" font-family="Arial" font-size="7" text-anchor="middle" fill="#FFFFFF">*</text>
<circle cx="617.300000" cy="248.000000" r="1"/>
<line x1="612.300000" y1="253.000000" x2="615.300000" y2="254.000000"  transform="rotate(0.000000,615.300000,254.000000)" style="stroke: black; stroke-width:0.25;"/>
<line x1="612.300000" y1="255.000000" x2="615.300000" y2="254.000000"  transform="rotate(0.000000,615.300000,254.000000)" style="stroke: black; stroke-width:0.25;"/>
<line x1="612.300000" y1="261.000000" x2="615.300000" y2="262.000000"  transform="rotate(0.000000,615.300000,262.000000)" style="stroke: black; stroke-width:0.25;"/>
<line x1="612.300000" y1="263.000000" x2="615.300000" y2="262.000000"  transform="rotate(0.000000,615.300000,262.000000)" style="stroke: black; stroke-width:0.25;"/>
<line x1="15.000000" y1="15.000000" x2="15.000000" y2="501.000000"  style="stroke: black; stroke-linecap:round; stroke-width:0.25; stroke-dasharray:3,3;"/>
<line x1="15.000000" y1="501.000000" x2="656.300000" y2="501.000000"  style="stroke: black; stroke-linecap:round; stroke-width:0.25; stroke-dasharray:3,3;"/>
<line x1="656.300000" y1="501.000000" x2="656.300000" y2="15.000000"  style="stroke: black; stroke-linecap:round; stroke-width:0.25; stroke-dasharray:3,3;"/>
<line x1="15.000000" y1="15.000000" x2="20.000000" y2="15.000000"  style="stroke: black; stroke-linecap:round; stroke-width:0.25; stroke-dasharray:3,3;"/>
<line x1="119.975000" y1="15.000000" x2="656.300000" y2="15.000000"  style="stroke: black; stroke-linecap:round; stroke-width:0.25; stroke-dasharray:3,3;"/>
<text x="20.000000" y="17.000000" font-family="Arial" font-size="7">scaler(5)(8)(...1.0f, 0.01f))</text>
<line x1="658.300000" y1="257.000000" x2="661.300000" y2="258.000000"  transform="rotate(0.000000,661.300000,258.000000)" style="stroke: black; stroke-width:0.25;"/>
<line x1="658.300000" y1="259.000000" x2="661.300000" y2="258.000000"  transform="rotate(0.000000,661.300000,258.000000)" style="stroke: black; stroke-width:0.25;"/>
<line x1="112.950000" y1="300.000000" x2="116.950000" y2="300.000000"  style="stroke:black; stroke-linecap:round; stroke-width:0.25;"/>
<line x1="116.950000" y1="300.000000" x2="116.950000" y2="300.000000"  style="stroke:black; stroke-linecap:round; stroke-width:0.25;"/>
<line x1="116.950000" y1="300.000000" x2="120.950000" y2="300.000000"  style="stroke:black; stroke-linecap:round; stroke-width:0.25;"/>
<line x1="129.850000" y1="268.000000" x2="133.850000" y2="268.000000"  style="stroke:black; stroke-linecap:round; stroke-width:0.25;"/>
<line x1="129.850000" y1="332.000000" x2="133.850000" y2="332.000000"  style="stroke:black; stroke-linecap:round; stroke-width:0.25;"/>
<line x1="133.850000" y1="268.000000" x2="215.700000" y2="268.000000"  style="stroke:black; stroke-linecap:round; stroke-width:0.25;"/>
<line x1="133.850000" y1="332.000000" x2="150.750000" y2="332.000000"  style="stroke:black; stroke-linecap:round; stroke-width:0.25;"/>
<line x1="146.750000" y1="300.000000" x2="150.750000" y2="300.000000"  style="stroke:black; stroke-linecap:round; stroke-width:0.25;"/>
<line x1="150.750000" y1="300.000000" x2="158.750000" y2="300.000000"  style="stroke:black; stroke-linecap:round; stroke-width:0.25;"/>
<line x1="150.750000" y1="320.000000" x2="158.750000" y2="320.000000"  style="stroke:black; stroke-linecap:round; stroke-width:0.25;"/>
<line x1="150.750000" y1="332.000000" x2="150.750000" y2="320.000000"  style="stroke:black; stroke-linecap:round; stroke-width:0.25;"/>
<line x1="150.750000" y1="332.000000" x2="150.750000" y2="332.000000"  style="stroke:black; stroke-linecap:round; stroke-width:0.25;"/>
<line x1="158.750000" y1="300.000000" x2="158.750000" y2="312.000000"  style="stroke:black; stroke-linecap:round; stroke-width:0.25;"/>
<line x1="158.750000" y1="312.000000" x2="158.750000" y2="312.000000"  style="stroke:black; stroke-linecap:round; stroke-width:0.25;"/>
<line x1="158.750000" y1="312.000000" x2="162.750000" y2="312.000000"  style="stroke:black; stroke-linecap:round; stroke-width:0.25;"/>
<line x1="158.750000" y1="320.000000" x2="162.750000" y2="320.000000"  style="stroke:black; stroke-linecap:round; stroke-width:0.25;"/>
<line x1="169.850000" y1="364.000000" x2="173.850000" y2="364.000000"  style="stroke:black; stroke-linecap:round; stroke-width:0.25;"/>
<line x1="173.850000" y1="364.000000" x2="295.700000" y2="364.000000"  style="stroke:black; stroke-linecap:round; stroke-width:0.25;"/>
<line x1="186.750000" y1="316.000000" x2="190.750000" y2="316.000000"  style="stroke:black; stroke-linecap:round; stroke-width:0.25;"/>
<line x1="190.750000" y1="316.000000" x2="255.700000" y2="316.000000"  style="stroke:black; stroke-linecap:round; stroke-width:0.25;"/>
<line x1="190.750000" y1="396.000000" x2="194.750000" y2="396.000000"  style="stroke:black; stroke-linecap:round; stroke-width:0.25;"/>
<line x1="194.750000" y1="396.000000" x2="337.500000" y2="396.000000"  style="stroke:black; stroke-linecap:round; stroke-width:0.25;"/>
<line x1="201.700000" y1="226.000000" x2="205.700000" y2="226.000000"  style="stroke:black; stroke-linecap:round; stroke-width:0.25;"/>
<line x1="205.700000" y1="226.000000" x2="215.700000" y2="226.000000"  style="stroke:black; stroke-linecap:round; stroke-width:0.25;"/>
<line x1="215.700000" y1="226.000000" x2="223.700000" y2="226.000000"  style="stroke:black; stroke-linecap:round; stroke-width:0.25;"/>
<line x1="215.700000" y1="246.000000" x2="223.700000" y2="246.000000"  style="stroke:black; stroke-linecap:round; stroke-width:0.25;"/>
<line x1="215.700000" y1="268.000000" x2="215.700000" y2="246.000000"  style="stroke:black; stroke-linecap:round; stroke-width:0.25;"/>
<line x1="215.700000" y1="268.000000" x2="215.700000" y2="268.000000"  style="stroke:black; stroke-linecap:round; stroke-width:0.25;"/>
<line x1="223.700000" y1="226.000000" x2="223.700000" y2="238.000000"  style="stroke:black; stroke-linecap:round; stroke-width:0.25;"/>
<line x1="223.700000" y1="238.000000" x2="223.700000" y2="238.000000"  style="stroke:black; stroke-linecap:round; stroke-width:0.25;"/>
<line x1="223.700000" y1="238.000000" x2="227.700000" y2="238.000000"  style="stroke:black; stroke-linecap:round; stroke-width:0.25;"/>
<line x1="223.700000" y1="246.000000" x2="227.700000" y2="246.000000"  style="stroke:black; stroke-linecap:round; stroke-width:0.25;"/>
<line x1="226.750000" y1="428.000000" x2="230.750000" y2="428.000000"  style="stroke:black; stroke-linecap:round; stroke-width:0.25;"/>
<line x1="230.750000" y1="428.000000" x2="409.500000" y2="428.000000"  style="stroke:black; stroke-linecap:round; stroke-width:0.25;"/>
<line x1="251.700000" y1="242.000000" x2="255.700000" y2="242.000000"  style="stroke:black; stroke-linecap:round; stroke-width:0.25;"/>
<line x1="255.700000" y1="242.000000" x2="263.700000" y2="242.000000"  style="stroke:black; stroke-linecap:round; stroke-width:0.25;"/>
<line x1="255.700000" y1="278.000000" x2="263.700000" y2="278.000000"  style="stroke:black; stroke-linecap:round; stroke-width:0.25;"/>
<line x1="255.700000" y1="316.000000" x2="255.700000" y2="278.000000"  style="stroke:black; stroke-linecap:round; stroke-width:0.25;"/>
<line x1="255.700000" y1="316.000000" x2="255.700000" y2="316.000000"  style="stroke:black; stroke-linecap:round; stroke-width:0.25;"/>
<line x1="263.700000" y1="242.000000" x2="263.700000" y2="270.000000"  style="stroke:black; stroke-linecap:round; stroke-width:0.25;"/>
<line x1="263.700000" y1="270.000000" x2="263.700000" y2="270.000000"  style="stroke:black; stroke-linecap:round; stroke-width:0.25;"/>
<line x1="263.700000" y1="270.000000" x2="267.700000" y2="270.000000"  style="stroke:black; stroke-linecap:round; stroke-width:0.25;"/>
<line x1="263.700000" y1="278.000000" x2="267.700000" y2="278.000000"  style="stroke:black; stroke-linecap:round; stroke-width:0.25;"/>
<line x1="266.750000" y1="184.000000" x2="270.750000" y2="184.000000"  style="stroke:black; stroke-linecap:round; stroke-width:0.25;"/>
<line x1="270.750000" y1="184.000000" x2="489.500000" y2="184.000000"  style="stroke:black; stroke-linecap:round; stroke-width:0.25;"/>
<line x1="283.650000" y1="88.000000" x2="287.650000" y2="88.000000"  style="stroke:black; stroke-linecap:round; stroke-width:0.25;"/>
<line x1="286.750000" y1="152.000000" x2="290.750000" y2="152.000000"  style="stroke:black; stroke-linecap:round; stroke-width:0.25;"/>
<line x1="287.650000" y1="88.000000" x2="375.950000" y2="88.000000"  style="stroke:black; stroke-linecap:round; stroke-width:0.25;"/>
<line x1="290.750000" y1="152.000000" x2="529.500000" y2="152.000000"  style="stroke:black; stroke-linecap:round; stroke-width:0.25;"/>
<line x1="291.700000" y1="274.000000" x2="295.700000" y2="274.000000"  style="stroke:black; stroke-linecap:round; stroke-width:0.25;"/>
<line x1="295.700000" y1="274.000000" x2="303.700000" y2="274.000000"  style="stroke:black; stroke-linecap:round; stroke-width:0.25;"/>
<line x1="295.700000" y1="294.000000" x2="303.700000" y2="294.000000"  style="stroke:black; stroke-linecap:round; stroke-width:0.25;"/>
<line x1="295.700000" y1="364.000000" x2="295.700000" y2="294.000000"  style="stroke:black; stroke-linecap:round; stroke-width:0.25;"/>
<line x1="295.700000" y1="364.000000" x2="295.700000" y2="364.000000"  style="stroke:black; stroke-linecap:round; stroke-width:0.25;"/>
<line x1="303.650000" y1="120.000000" x2="307.650000" y2="120.000000"  style="stroke:black; stroke-linecap:round; stroke-width:0.25;"/>
<line x1="303.700000" y1="274.000000" x2="303.700000" y2="286.000000"  style="stroke:black; stroke-linecap:round; stroke-width:0.25;"/>
<line x1="303.700000" y1="286.000000" x2="303.700000" y2="286.000000"  style="stroke:black; stroke-linecap:round; stroke-width:0.25;"/>
<line x1="303.700000" y1="286.000000" x2="307.700000" y2="286.000000"  style="stroke:black; stroke-linecap:round; stroke-width:0.25;"/>
<line x1="303.700000" y1="294.000000" x2="307.700000" y2="294.000000"  style="stroke:black; stroke-linecap:round; stroke-width:0.25;"/>
<line x1="307.650000" y1="120.000000" x2="415.950000" y2="120.000000"  style="stroke:black; stroke-linecap:round; stroke-width:0.25;"/>
<line x1="325.050000" y1="470.000000" x2="329.050000" y2="470.000000"  style="stroke:black; stroke-linecap:round; stroke-width:0.25;"/>
<line x1="329.050000" y1="470.000000" x2="339.050000" y2="470.000000"  style="stroke:black; stroke-linecap:round; stroke-width:0.25;"/>
<line x1="333.500000" y1="290.000000" x2="337.500000" y2="290.000000"  style="stroke:black; stroke-linecap:round; stroke-width:0.25;"/>
<line x1="337.500000" y1="290.000000" x2="345.500000" y2="290.000000"  style="stroke:black; stroke-linecap:round; stroke-width:0.25;"/>
<line x1="337.500000" y1="310.000000" x2="345.500000" y2="310.000000"  style="stroke:black; stroke-linecap:round; stroke-width:0.25;"/>
<line x1="337.500000" y1="396.000000" x2="337.500000" y2="310.000000"  style="stroke:black; stroke-linecap:round; stroke-width:0.25;"/>
<line x1="337.500000" y1="396.000000" x2="337.500000" y2="396.000000"  style="stroke:black; stroke-linecap:round; stroke-width:0.25;"/>
<line x1="339.050000" y1="470.000000" x2="449.500000" y2="470.000000"  style="stroke:black; stroke-linecap:round; stroke-width:0.25;"/>
<line x1="345.500000" y1="290.000000" x2="345.500000" y2="302.000000"  style="stroke:black; stroke-linecap:round; stroke-width:0.25;"/>
<line x1="345.500000" y1="302.000000" x2="345.500000" y2="302.000000"  style="stroke:black; stroke-linecap:round; stroke-width:0.25;"/>
<line x1="345.500000" y1="302.000000" x2="349.500000" y2="302.000000"  style="stroke:black; stroke-linecap:round; stroke-width:0.25;"/>
<line x1="345.500000" y1="310.000000" x2="349.500000" y2="310.000000"  style="stroke:black; stroke-linecap:round; stroke-width:0.25;"/>
<line x1="361.950000" y1="46.000000" x2="365.950000" y2="46.000000"  style="stroke:black; stroke-linecap:round; stroke-width:0.25;"/>
<line x1="365.950000" y1="46.000000" x2="375.950000" y2="46.000000"  style="stroke:black; stroke-linecap:round; stroke-width:0.25;"/>
<line x1="373.500000" y1="306.000000" x2="377.500000" y2="306.000000"  style="stroke:black; stroke-linecap:round; stroke-width:0.25;"/>
<line x1="375.950000" y1="46.000000" x2="383.950000" y2="46.000000"  style="stroke:black; stroke-linecap:round; stroke-width:0.25;"/>
<line x1="375.950000" y1="66.000000" x2="383.950000" y2="66.000000"  style="stroke:black; stroke-linecap:round; stroke-width:0.25;"/>
<line x1="375.950000" y1="88.000000" x2="375.950000" y2="66.000000"  style="stroke:black; stroke-linecap:round; stroke-width:0.25;"/>
<line x1="375.950000" y1="88.000000" x2="375.950000" y2="88.000000"  style="stroke:black; stroke-linecap:round; stroke-width:0.25;"/>
<line x1="377.500000" y1="306.000000" x2="377.500000" y2="306.000000"  style="stroke:black; stroke-linecap:round; stroke-width:0.25;"/>
<line x1="377.500000" y1="306.000000" x2="381.500000" y2="306.000000"  style="stroke:black; stroke-linecap:round; stroke-width:0.25;"/>
<line x1="383.950000" y1="46.000000" x2="383.950000" y2="58.000000"  style="stroke:black; stroke-linecap:round; stroke-width:0.25;"/>
<line x1="383.950000" y1="58.000000" x2="383.950000" y2="58.000000"  style="stroke:black; stroke-linecap:round; stroke-width:0.25;"/>
<line x1="383.950000" y1="58.000000" x2="387.950000" y2="58.000000"  style="stroke:black; stroke-linecap:round; stroke-width:0.25;"/>
<line x1="383.950000" y1="66.000000" x2="387.950000" y2="66.000000"  style="stroke:black; stroke-linecap:round; stroke-width:0.25;"/>
<line x1="405.500000" y1="306.000000" x2="409.500000" y2="306.000000"  style="stroke:black; stroke-linecap:round; stroke-width:0.25;"/>
<line x1="409.500000" y1="306.000000" x2="417.500000" y2="306.000000"  style="stroke:black; stroke-linecap:round; stroke-width:0.25;"/>
<line x1="409.500000" y1="326.000000" x2="417.500000" y2="326.000000"  style="stroke:black; stroke-linecap:round; stroke-width:0.25;"/>
<line x1="409.500000" y1="428.000000" x2="409.500000" y2="326.000000"  style="stroke:black; stroke-linecap:round; stroke-width:0.25;"/>
<line x1="409.500000" y1="428.000000" x2="409.500000" y2="428.000000"  style="stroke:black; stroke-linecap:round; stroke-width:0.25;"/>
<line x1="411.950000" y1="62.000000" x2="415.950000" y2="62.000000"  style="stroke:black; stroke-linecap:round; stroke-width:0.25;"/>
<line x1="415.950000" y1="62.000000" x2="423.950000" y2="62.000000"  style="stroke:black; stroke-linecap:round; stroke-width:0.25;"/>
<line x1="415.950000" y1="82.000000" x2="423.950000" y2="82.000000"  style="stroke:black; stroke-linecap:round; stroke-width:0.25;"/>
<line x1="415.950000" y1="120.000000" x2="415.950000" y2="82.000000"  style="stroke:black; stroke-linecap:round; stroke-width:0.25;"/>
<line x1="415.950000" y1="120.000000" x2="415.950000" y2="120.000000"  style="stroke:black; stroke-linecap:round; stroke-width:0.25;"/>
<line x1="417.500000" y1="306.000000" x2="417.500000" y2="318.000000"  style="stroke:black; stroke-linecap:round; stroke-width:0.25;"/>
<line x1="417.500000" y1="318.000000" x2="417.500000" y2="318.000000"  style="stroke:black; stroke-linecap:round; stroke-width:0.25;"/>
<line x1="417.500000" y1="318.000000" x2="421.500000" y2="318.000000"  style="stroke:black; stroke-linecap:round; stroke-width:0.25;"/>
<line x1="417.500000" y1="326.000000" x2="421.500000" y2="326.000000"  style="stroke:black; stroke-linecap:round; stroke-width:0.25;"/>
<line x1="423.950000" y1="62.000000" x2="423.950000" y2="74.000000"  style="stroke:black; stroke-linecap:round; stroke-width:0.25;"/>
<line x1="423.950000" y1="74.000000" x2="423.950000" y2="74.000000"  style="stroke:black; stroke-linecap:round; stroke-width:0.25;"/>
<line x1="423.950000" y1="74.000000" x2="427.950000" y2="74.000000"  style="stroke:black; stroke-linecap:round; stroke-width:0.25;"/>
<line x1="423.950000" y1="82.000000" x2="427.950000" y2="82.000000"  style="stroke:black; stroke-linecap:round; stroke-width:0.25;"/>
<line x1="445.500000" y1="322.000000" x2="449.500000" y2="322.000000"  style="stroke:black; stroke-linecap:round; stroke-width:0.25;"/>
<line x1="449.500000" y1="352.000000" x2="457.500000" y2="352.000000"  style="stroke:black; stroke-linecap:round; stroke-width:0.25;"/>
<line x1="449.500000" y1="470.000000" x2="449.500000" y2="352.000000"  style="stroke:black; stroke-linecap:round; stroke-width:0.25;"/>
<line x1="449.500000" y1="470.000000" x2="449.500000" y2="470.000000"  style="stroke:black; stroke-linecap:round; stroke-width:0.25;"/>
<line x1="449.500000" y1="322.000000" x2="457.500000" y2="322.000000"  style="stroke:black; stroke-linecap:round; stroke-width:0.25;"/>
<line x1="451.950000" y1="78.000000" x2="455.950000" y2="78.000000"  style="stroke:black; stroke-linecap:round; stroke-width:0.25;"/>
<line x1="455.950000" y1="78.000000" x2="603.300000" y2="78.000000"  style="stroke:black; stroke-linecap:round; stroke-width:0.25;"/>
<line x1="457.500000" y1="322.000000" x2="457.500000" y2="344.000000"  style="stroke:black; stroke-linecap:round; stroke-width:0.25;"/>
<line x1="457.500000" y1="344.000000" x2="457.500000" y2="344.000000"  style="stroke:black; stroke-linecap:round; stroke-width:0.25;"/>
<line x1="457.500000" y1="344.000000" x2="461.500000" y2="344.000000"  style="stroke:black; stroke-linecap:round; stroke-width:0.25;"/>
<line x1="457.500000" y1="352.000000" x2="461.500000" y2="352.000000"  style="stroke:black; stroke-linecap:round; stroke-width:0.25;"/>
<line x1="485.500000" y1="348.000000" x2="489.500000" y2="348.000000"  style="stroke:black; stroke-linecap:round; stroke-width:0.25;"/>
<line x1="489.500000" y1="184.000000" x2="497.500000" y2="184.000000"  style="stroke:black; stroke-linecap:round; stroke-width:0.25;"/>
<line x1="489.500000" y1="336.000000" x2="497.500000" y2="336.000000"  style="stroke:black; stroke-linecap:round; stroke-width:0.25;"/>
<line x1="489.500000" y1="348.000000" x2="489.500000" y2="336.000000"  style="stroke:black; stroke-linecap:round; stroke-width:0.25;"/>
<line x1="489.500000" y1="348.000000" x2="489.500000" y2="348.000000"  style="stroke:black; stroke-linecap:round; stroke-width:0.25;"/>
<line x1="497.500000" y1="184.000000" x2="497.500000" y2="328.000000"  style="stroke:black; stroke-linecap:round; stroke-width:0.25;"/>
<line x1="497.500000" y1="328.000000" x2="497.500000" y2="328.000000"  style="stroke:black; stroke-linecap:round; stroke-width:0.25;"/>
<line x1="497.500000" y1="328.000000" x2="501.500000" y2="328.000000"  style="stroke:black; stroke-linecap:round; stroke-width:0.25;"/>
<line x1="497.500000" y1="336.000000" x2="501.500000" y2="336.000000"  style="stroke:black; stroke-linecap:round; stroke-width:0.25;"/>
<line x1="525.500000" y1="332.000000" x2="529.500000" y2="332.000000"  style="stroke:black; stroke-linecap:round; stroke-width:0.25;"/>
<line x1="529.500000" y1="152.000000" x2="537.500000" y2="152.000000"  style="stroke:black; stroke-linecap:round; stroke-width:0.25;"/>
<line x1="529.500000" y1="320.000000" x2="537.500000" y2="320.000000"  style="stroke:black; stroke-linecap:round; stroke-width:0.25;"/>
<line x1="529.500000" y1="332.000000" x2="529.500000" y2="320.000000"  style="stroke:black; stroke-linecap:round; stroke-width:0.25;"/>
<line x1="529.500000" y1="332.000000" x2="529.500000" y2="332.000000"  style="stroke:black; stroke-linecap:round; stroke-width:0.25;"/>
<line x1="537.500000" y1="152.000000" x2="537.500000" y2="312.000000"  style="stroke:black; stroke-linecap:round; stroke-width:0.25;"/>
<line x1="537.500000" y1="312.000000" x2="537.500000" y2="312.000000"  style="stroke:black; stroke-linecap:round; stroke-width:0.25;"/>
<line x1="537.500000" y1="312.000000" x2="541.500000" y2="312.000000"  style="stroke:black; stroke-linecap:round; stroke-width:0.25;"/>
<line x1="537.500000" y1="320.000000" x2="541.500000" y2="320.000000"  style="stroke:black; stroke-linecap:round; stroke-width:0.25;"/>
<line x1="565.500000" y1="316.000000" x2="569.500000" y2="316.000000"  style="stroke:black; stroke-linecap:round; stroke-width:0.25;"/>
<line x1="569.500000" y1="316.000000" x2="569.500000" y2="316.000000"  style="stroke:black; stroke-linecap:round; stroke-width:0.25;"/>
<line x1="569.500000" y1="316.000000" x2="573.500000" y2="316.000000"  style="stroke:black; stroke-linecap:round; stroke-width:0.25;"/>
<line x1="599.300000" y1="316.000000" x2="603.300000" y2="316.000000"  style="stroke:black; stroke-linecap:round; stroke-width:0.25;"/>
<line x1="603.300000" y1="78.000000" x2="611.300000" y2="78.000000"  style="stroke:black; stroke-linecap:round; stroke-width:0.25;"/>
<line x1="603.300000" y1="262.000000" x2="611.300000" y2="262.000000"  style="stroke:black; stroke-linecap:round; stroke-width:0.25;"/>
<line x1="603.300000" y1="316.000000" x2="603.300000" y2="262.000000"  style="stroke:black; stroke-linecap:round; stroke-width:0.25;"/>
<line x1="603.300000" y1="316.000000" x2="603.300000" y2="316.000000"  style="stroke:black; stroke-linecap:round; stroke-width:0.25;"/>
<line x1="611.300000" y1="78.000000" x2="611.300000" y2="254.000000"  style="stroke:black; stroke-linecap:round; stroke-width:0.25;"/>
<line x1="611.300000" y1="254.000000" x2="611.300000" y2="254.000000"  style="stroke:black; stroke-linecap:round; stroke-width:0.25;"/>
<line x1="611.300000" y1="254.000000" x2="615.300000" y2="254.000000"  style="stroke:black; stroke-linecap:round; stroke-width:0.25;"/>
<line x1="611.300000" y1="262.000000" x2="615.300000" y2="262.000000"  style="stroke:black; stroke-linecap:round; stroke-width:0.25;"/>
<line x1="639.300000" y1="258.000000" x2="643.300000" y2="258.000000"  style="stroke:black; stroke-linecap:round; stroke-width:0.25;"/>
<line x1="643.300000" y1="258.000000" x2="643.300000" y2="258.000000"  style="stroke:black; stroke-linecap:round; stroke-width:0.25;"/>
<line x1="643.300000" y1="258.000000" x2="647.300000" y2="258.000000"  style="stroke:black; stroke-linecap:round; stroke-width:0.25;"/>
<line x1="647.300000" y1="258.000000" x2="651.300000" y2="258.000000"  style="stroke:black; stroke-linecap:round; stroke-width:0.25;"/>
<line x1="651.300000" y1="258.000000" x2="661.300000" y2="258.000000"  style="stroke:black; stroke-linecap:round; stroke-width:0.25;"/>
</svg>
