<?xml version="1.0"?>
<svg xmlns="http://www.w3.org/2000/svg" xmlns:xlink="http://www.w3.org/1999/xlink" viewBox="0 0 492.000000 360.000000" width="246.000000mm" height="180.000000mm" version="1.1">
<a xlink:href="process.svg">
<rect x="1.000000" y="1.000000" width="491.000000" height="359.000000" rx="0" ry="0" style="stroke:none;fill:#cccccc;"/>
<rect x="0.000000" y="0.000000" width="491.000000" height="359.000000" rx="0" ry="0" style="stroke:none;fill:#ffffff;"/>
</a>
<text x="10.000000" y="7.000000" font-family="Arial" font-size="7"></text>
<a xlink:href="scaler-0x7fe3f957cc10.svg">
<rect x="123.000000" y="33.000000" width="129.000000" height="24.000000" rx="0" ry="0" style="stroke:none;fill:#cccccc;"/>
<rect x="122.000000" y="32.000000" width="129.000000" height="24.000000" rx="0" ry="0" style="stroke:none;fill:#003366;"/>
</a>
<a xlink:href="scaler-0x7fe3f957cc10.svg">
<text x="186.500000" y="46.000000" font-family="Arial" font-size="7" text-anchor="middle" fill="#FFFFFF">scaler(0)(8)(...1.0f, 0.01f))</text>
</a>
<circle cx="124.000000" cy="34.000000" r="1"/>
<a xlink:href="smooth-0x7fe3f9538a40.svg">
<rect x="260.000000" y="33.000000" width="129.000000" height="24.000000" rx="0" ry="0" style="stroke:none;fill:#cccccc;"/>
<rect x="259.000000" y="32.000000" width="129.000000" height="24.000000" rx="0" ry="0" style="stroke:none;fill:#003366;"/>
</a>
<a xlink:href="smooth-0x7fe3f9538a40.svg">
<text x="323.500000" y="46.000000" font-family="Arial" font-size="7" text-anchor="middle" fill="#FFFFFF">smooth(0.99990000000000001f)</text>
</a>
<circle cx="261.000000" cy="34.000000" r="1"/>
<line x1="256.000000" y1="43.000000" x2="259.000000" y2="44.000000"  transform="rotate(0.000000,259.000000,44.000000)" style="stroke: black; stroke-width:0.25;"/>
<line x1="256.000000" y1="45.000000" x2="259.000000" y2="44.000000"  transform="rotate(0.000000,259.000000,44.000000)" style="stroke: black; stroke-width:0.25;"/>
<rect x="405.000000" y="29.000000" width="24.000000" height="24.000000" rx="0" ry="0" style="stroke:none;fill:#cccccc;"/>
<rect x="404.000000" y="28.000000" width="24.000000" height="24.000000" rx="0" ry="0" style="stroke:none;fill:#4B71A1;"/>
<text x="416.000000" y="42.000000" font-family="Arial" font-size="7" text-anchor="middle" fill="#FFFFFF">*</text>
<circle cx="406.000000" cy="30.000000" r="1"/>
<line x1="401.000000" y1="35.000000" x2="404.000000" y2="36.000000"  transform="rotate(0.000000,404.000000,36.000000)" style="stroke: black; stroke-width:0.25;"/>
<line x1="401.000000" y1="37.000000" x2="404.000000" y2="36.000000"  transform="rotate(0.000000,404.000000,36.000000)" style="stroke: black; stroke-width:0.25;"/>
<line x1="401.000000" y1="43.000000" x2="404.000000" y2="44.000000"  transform="rotate(0.000000,404.000000,44.000000)" style="stroke: black; stroke-width:0.25;"/>
<line x1="401.000000" y1="45.000000" x2="404.000000" y2="44.000000"  transform="rotate(0.000000,404.000000,44.000000)" style="stroke: black; stroke-width:0.25;"/>
<a xlink:href="scaler-0x7fe3f9572f30.svg">
<rect x="123.000000" y="73.000000" width="129.000000" height="24.000000" rx="0" ry="0" style="stroke:none;fill:#cccccc;"/>
<rect x="122.000000" y="72.000000" width="129.000000" height="24.000000" rx="0" ry="0" style="stroke:none;fill:#003366;"/>
</a>
<a xlink:href="scaler-0x7fe3f9572f30.svg">
<text x="186.500000" y="86.000000" font-family="Arial" font-size="7" text-anchor="middle" fill="#FFFFFF">scaler(1)(8)(...1.0f, 0.01f))</text>
</a>
<circle cx="124.000000" cy="74.000000" r="1"/>
<a xlink:href="smooth-0x7fe3f9538a40.svg">
<rect x="260.000000" y="73.000000" width="129.000000" height="24.000000" rx="0" ry="0" style="stroke:none;fill:#cccccc;"/>
<rect x="259.000000" y="72.000000" width="129.000000" height="24.000000" rx="0" ry="0" style="stroke:none;fill:#003366;"/>
</a>
<a xlink:href="smooth-0x7fe3f9538a40.svg">
<text x="323.500000" y="86.000000" font-family="Arial" font-size="7" text-anchor="middle" fill="#FFFFFF">smooth(0.99990000000000001f)</text>
</a>
<circle cx="261.000000" cy="74.000000" r="1"/>
<line x1="256.000000" y1="83.000000" x2="259.000000" y2="84.000000"  transform="rotate(0.000000,259.000000,84.000000)" style="stroke: black; stroke-width:0.25;"/>
<line x1="256.000000" y1="85.000000" x2="259.000000" y2="84.000000"  transform="rotate(0.000000,259.000000,84.000000)" style="stroke: black; stroke-width:0.25;"/>
<rect x="405.000000" y="69.000000" width="24.000000" height="24.000000" rx="0" ry="0" style="stroke:none;fill:#cccccc;"/>
<rect x="404.000000" y="68.000000" width="24.000000" height="24.000000" rx="0" ry="0" style="stroke:none;fill:#4B71A1;"/>
<text x="416.000000" y="82.000000" font-family="Arial" font-size="7" text-anchor="middle" fill="#FFFFFF">*</text>
<circle cx="406.000000" cy="70.000000" r="1"/>
<line x1="401.000000" y1="75.000000" x2="404.000000" y2="76.000000"  transform="rotate(0.000000,404.000000,76.000000)" style="stroke: black; stroke-width:0.25;"/>
<line x1="401.000000" y1="77.000000" x2="404.000000" y2="76.000000"  transform="rotate(0.000000,404.000000,76.000000)" style="stroke: black; stroke-width:0.25;"/>
<line x1="401.000000" y1="83.000000" x2="404.000000" y2="84.000000"  transform="rotate(0.000000,404.000000,84.000000)" style="stroke: black; stroke-width:0.25;"/>
<line x1="401.000000" y1="85.000000" x2="404.000000" y2="84.000000"  transform="rotate(0.000000,404.000000,84.000000)" style="stroke: black; stroke-width:0.25;"/>
<a xlink:href="scaler-0x7fe3f9569220.svg">
<rect x="123.000000" y="113.000000" width="129.000000" height="24.000000" rx="0" ry="0" style="stroke:none;fill:#cccccc;"/>
<rect x="122.000000" y="112.000000" width="129.000000" height="24.000000" rx="0" ry="0" style="stroke:none;fill:#003366;"/>
</a>
<a xlink:href="scaler-0x7fe3f9569220.svg">
<text x="186.500000" y="126.000000" font-family="Arial" font-size="7" text-anchor="middle" fill="#FFFFFF">scaler(2)(8)(...1.0f, 0.01f))</text>
</a>
<circle cx="124.000000" cy="114.000000" r="1"/>
<a xlink:href="smooth-0x7fe3f9538a40.svg">
<rect x="260.000000" y="113.000000" width="129.000000" height="24.000000" rx="0" ry="0" style="stroke:none;fill:#cccccc;"/>
<rect x="259.000000" y="112.000000" width="129.000000" height="24.000000" rx="0" ry="0" style="stroke:none;fill:#003366;"/>
</a>
<a xlink:href="smooth-0x7fe3f9538a40.svg">
<text x="323.500000" y="126.000000" font-family="Arial" font-size="7" text-anchor="middle" fill="#FFFFFF">smooth(0.99990000000000001f)</text>
</a>
<circle cx="261.000000" cy="114.000000" r="1"/>
<line x1="256.000000" y1="123.000000" x2="259.000000" y2="124.000000"  transform="rotate(0.000000,259.000000,124.000000)" style="stroke: black; stroke-width:0.25;"/>
<line x1="256.000000" y1="125.000000" x2="259.000000" y2="124.000000"  transform="rotate(0.000000,259.000000,124.000000)" style="stroke: black; stroke-width:0.25;"/>
<rect x="405.000000" y="109.000000" width="24.000000" height="24.000000" rx="0" ry="0" style="stroke:none;fill:#cccccc;"/>
<rect x="404.000000" y="108.000000" width="24.000000" height="24.000000" rx="0" ry="0" style="stroke:none;fill:#4B71A1;"/>
<text x="416.000000" y="122.000000" font-family="Arial" font-size="7" text-anchor="middle" fill="#FFFFFF">*</text>
<circle cx="406.000000" cy="110.000000" r="1"/>
<line x1="401.000000" y1="115.000000" x2="404.000000" y2="116.000000"  transform="rotate(0.000000,404.000000,116.000000)" style="stroke: black; stroke-width:0.25;"/>
<line x1="401.000000" y1="117.000000" x2="404.000000" y2="116.000000"  transform="rotate(0.000000,404.000000,116.000000)" style="stroke: black; stroke-width:0.25;"/>
<line x1="401.000000" y1="123.000000" x2="404.000000" y2="124.000000"  transform="rotate(0.000000,404.000000,124.000000)" style="stroke: black; stroke-width:0.25;"/>
<line x1="401.000000" y1="125.000000" x2="404.000000" y2="124.000000"  transform="rotate(0.000000,404.000000,124.000000)" style="stroke: black; stroke-width:0.25;"/>
<a xlink:href="scaler-0x7fe3f955f510.svg">
<rect x="123.000000" y="153.000000" width="129.000000" height="24.000000" rx="0" ry="0" style="stroke:none;fill:#cccccc;"/>
<rect x="122.000000" y="152.000000" width="129.000000" height="24.000000" rx="0" ry="0" style="stroke:none;fill:#003366;"/>
</a>
<a xlink:href="scaler-0x7fe3f955f510.svg">
<text x="186.500000" y="166.000000" font-family="Arial" font-size="7" text-anchor="middle" fill="#FFFFFF">scaler(3)(8)(...1.0f, 0.01f))</text>
</a>
<circle cx="124.000000" cy="154.000000" r="1"/>
<a xlink:href="smooth-0x7fe3f9538a40.svg">
<rect x="260.000000" y="153.000000" width="129.000000" height="24.000000" rx="0" ry="0" style="stroke:none;fill:#cccccc;"/>
<rect x="259.000000" y="152.000000" width="129.000000" height="24.000000" rx="0" ry="0" style="stroke:none;fill:#003366;"/>
</a>
<a xlink:href="smooth-0x7fe3f9538a40.svg">
<text x="323.500000" y="166.000000" font-family="Arial" font-size="7" text-anchor="middle" fill="#FFFFFF">smooth(0.99990000000000001f)</text>
</a>
<circle cx="261.000000" cy="154.000000" r="1"/>
<line x1="256.000000" y1="163.000000" x2="259.000000" y2="164.000000"  transform="rotate(0.000000,259.000000,164.000000)" style="stroke: black; stroke-width:0.25;"/>
<line x1="256.000000" y1="165.000000" x2="259.000000" y2="164.000000"  transform="rotate(0.000000,259.000000,164.000000)" style="stroke: black; stroke-width:0.25;"/>
<rect x="405.000000" y="149.000000" width="24.000000" height="24.000000" rx="0" ry="0" style="stroke:none;fill:#cccccc;"/>
<rect x="404.000000" y="148.000000" width="24.000000" height="24.000000" rx="0" ry="0" style="stroke:none;fill:#4B71A1;"/>
<text x="416.000000" y="162.000000" font-family="Arial" font-size="7" text-anchor="middle" fill="#FFFFFF">*</text>
<circle cx="406.000000" cy="150.000000" r="1"/>
<line x1="401.000000" y1="155.000000" x2="404.000000" y2="156.000000"  transform="rotate(0.000000,404.000000,156.000000)" style="stroke: black; stroke-width:0.25;"/>
<line x1="401.000000" y1="157.000000" x2="404.000000" y2="156.000000"  transform="rotate(0.000000,404.000000,156.000000)" style="stroke: black; stroke-width:0.25;"/>
<line x1="401.000000" y1="163.000000" x2="404.000000" y2="164.000000"  transform="rotate(0.000000,404.000000,164.000000)" style="stroke: black; stroke-width:0.25;"/>
<line x1="401.000000" y1="165.000000" x2="404.000000" y2="164.000000"  transform="rotate(0.000000,404.000000,164.000000)" style="stroke: black; stroke-width:0.25;"/>
<a xlink:href="scaler-0x7fe3f9555800.svg">
<rect x="123.000000" y="193.000000" width="129.000000" height="24.000000" rx="0" ry="0" style="stroke:none;fill:#cccccc;"/>
<rect x="122.000000" y="192.000000" width="129.000000" height="24.000000" rx="0" ry="0" style="stroke:none;fill:#003366;"/>
</a>
<a xlink:href="scaler-0x7fe3f9555800.svg">
<text x="186.500000" y="206.000000" font-family="Arial" font-size="7" text-anchor="middle" fill="#FFFFFF">scaler(4)(8)(...1.0f, 0.01f))</text>
</a>
<circle cx="124.000000" cy="194.000000" r="1"/>
<a xlink:href="smooth-0x7fe3f9538a40.svg">
<rect x="260.000000" y="193.000000" width="129.000000" height="24.000000" rx="0" ry="0" style="stroke:none;fill:#cccccc;"/>
<rect x="259.000000" y="192.000000" width="129.000000" height="24.000000" rx="0" ry="0" style="stroke:none;fill:#003366;"/>
</a>
<a xlink:href="smooth-0x7fe3f9538a40.svg">
<text x="323.500000" y="206.000000" font-family="Arial" font-size="7" text-anchor="middle" fill="#FFFFFF">smooth(0.99990000000000001f)</text>
</a>
<circle cx="261.000000" cy="194.000000" r="1"/>
<line x1="256.000000" y1="203.000000" x2="259.000000" y2="204.000000"  transform="rotate(0.000000,259.000000,204.000000)" style="stroke: black; stroke-width:0.25;"/>
<line x1="256.000000" y1="205.000000" x2="259.000000" y2="204.000000"  transform="rotate(0.000000,259.000000,204.000000)" style="stroke: black; stroke-width:0.25;"/>
<rect x="405.000000" y="189.000000" width="24.000000" height="24.000000" rx="0" ry="0" style="stroke:none;fill:#cccccc;"/>
<rect x="404.000000" y="188.000000" width="24.000000" height="24.000000" rx="0" ry="0" style="stroke:none;fill:#4B71A1;"/>
<text x="416.000000" y="202.000000" font-family="Arial" font-size="7" text-anchor="middle" fill="#FFFFFF">*</text>
<circle cx="406.000000" cy="190.000000" r="1"/>
<line x1="401.000000" y1="195.000000" x2="404.000000" y2="196.000000"  transform="rotate(0.000000,404.000000,196.000000)" style="stroke: black; stroke-width:0.25;"/>
<line x1="401.000000" y1="197.000000" x2="404.000000" y2="196.000000"  transform="rotate(0.000000,404.000000,196.000000)" style="stroke: black; stroke-width:0.25;"/>
<line x1="401.000000" y1="203.000000" x2="404.000000" y2="204.000000"  transform="rotate(0.000000,404.000000,204.000000)" style="stroke: black; stroke-width:0.25;"/>
<line x1="401.000000" y1="205.000000" x2="404.000000" y2="204.000000"  transform="rotate(0.000000,404.000000,204.000000)" style="stroke: black; stroke-width:0.25;"/>
<a xlink:href="scaler-0x7fe3f954b9d0.svg">
<rect x="123.000000" y="233.000000" width="129.000000" height="24.000000" rx="0" ry="0" style="stroke:none;fill:#cccccc;"/>
<rect x="122.000000" y="232.000000" width="129.000000" height="24.000000" rx="0" ry="0" style="stroke:none;fill:#003366;"/>
</a>
<a xlink:href="scaler-0x7fe3f954b9d0.svg">
<text x="186.500000" y="246.000000" font-family="Arial" font-size="7" text-anchor="middle" fill="#FFFFFF">scaler(5)(8)(...1.0f, 0.01f))</text>
</a>
<circle cx="124.000000" cy="234.000000" r="1"/>
<a xlink:href="smooth-0x7fe3f9538a40.svg">
<rect x="260.000000" y="233.000000" width="129.000000" height="24.000000" rx="0" ry="0" style="stroke:none;fill:#cccccc;"/>
<rect x="259.000000" y="232.000000" width="129.000000" height="24.000000" rx="0" ry="0" style="stroke:none;fill:#003366;"/>
</a>
<a xlink:href="smooth-0x7fe3f9538a40.svg">
<text x="323.500000" y="246.000000" font-family="Arial" font-size="7" text-anchor="middle" fill="#FFFFFF">smooth(0.99990000000000001f)</text>
</a>
<circle cx="261.000000" cy="234.000000" r="1"/>
<line x1="256.000000" y1="243.000000" x2="259.000000" y2="244.000000"  transform="rotate(0.000000,259.000000,244.000000)" style="stroke: black; stroke-width:0.25;"/>
<line x1="256.000000" y1="245.000000" x2="259.000000" y2="244.000000"  transform="rotate(0.000000,259.000000,244.000000)" style="stroke: black; stroke-width:0.25;"/>
<rect x="405.000000" y="229.000000" width="24.000000" height="24.000000" rx="0" ry="0" style="stroke:none;fill:#cccccc;"/>
<rect x="404.000000" y="228.000000" width="24.000000" height="24.000000" rx="0" ry="0" style="stroke:none;fill:#4B71A1;"/>
<text x="416.000000" y="242.000000" font-family="Arial" font-size="7" text-anchor="middle" fill="#FFFFFF">*</text>
<circle cx="406.000000" cy="230.000000" r="1"/>
<line x1="401.000000" y1="235.000000" x2="404.000000" y2="236.000000"  transform="rotate(0.000000,404.000000,236.000000)" style="stroke: black; stroke-width:0.25;"/>
<line x1="401.000000" y1="237.000000" x2="404.000000" y2="236.000000"  transform="rotate(0.000000,404.000000,236.000000)" style="stroke: black; stroke-width:0.25;"/>
<line x1="401.000000" y1="243.000000" x2="404.000000" y2="244.000000"  transform="rotate(0.000000,404.000000,244.000000)" style="stroke: black; stroke-width:0.25;"/>
<line x1="401.000000" y1="245.000000" x2="404.000000" y2="244.000000"  transform="rotate(0.000000,404.000000,244.000000)" style="stroke: black; stroke-width:0.25;"/>
<a xlink:href="scaler-0x7fe3f9541a80.svg">
<rect x="123.000000" y="273.000000" width="129.000000" height="24.000000" rx="0" ry="0" style="stroke:none;fill:#cccccc;"/>
<rect x="122.000000" y="272.000000" width="129.000000" height="24.000000" rx="0" ry="0" style="stroke:none;fill:#003366;"/>
</a>
<a xlink:href="scaler-0x7fe3f9541a80.svg">
<text x="186.500000" y="286.000000" font-family="Arial" font-size="7" text-anchor="middle" fill="#FFFFFF">scaler(6)(8)(...1.0f, 0.01f))</text>
</a>
<circle cx="124.000000" cy="274.000000" r="1"/>
<a xlink:href="smooth-0x7fe3f9538a40.svg">
<rect x="260.000000" y="273.000000" width="129.000000" height="24.000000" rx="0" ry="0" style="stroke:none;fill:#cccccc;"/>
<rect x="259.000000" y="272.000000" width="129.000000" height="24.000000" rx="0" ry="0" style="stroke:none;fill:#003366;"/>
</a>
<a xlink:href="smooth-0x7fe3f9538a40.svg">
<text x="323.500000" y="286.000000" font-family="Arial" font-size="7" text-anchor="middle" fill="#FFFFFF">smooth(0.99990000000000001f)</text>
</a>
<circle cx="261.000000" cy="274.000000" r="1"/>
<line x1="256.000000" y1="283.000000" x2="259.000000" y2="284.000000"  transform="rotate(0.000000,259.000000,284.000000)" style="stroke: black; stroke-width:0.25;"/>
<line x1="256.000000" y1="285.000000" x2="259.000000" y2="284.000000"  transform="rotate(0.000000,259.000000,284.000000)" style="stroke: black; stroke-width:0.25;"/>
<rect x="405.000000" y="269.000000" width="24.000000" height="24.000000" rx="0" ry="0" style="stroke:none;fill:#cccccc;"/>
<rect x="404.000000" y="268.000000" width="24.000000" height="24.000000" rx="0" ry="0" style="stroke:none;fill:#4B71A1;"/>
<text x="416.000000" y="282.000000" font-family="Arial" font-size="7" text-anchor="middle" fill="#FFFFFF">*</text>
<circle cx="406.000000" cy="270.000000" r="1"/>
<line x1="401.000000" y1="275.000000" x2="404.000000" y2="276.000000"  transform="rotate(0.000000,404.000000,276.000000)" style="stroke: black; stroke-width:0.25;"/>
<line x1="401.000000" y1="277.000000" x2="404.000000" y2="276.000000"  transform="rotate(0.000000,404.000000,276.000000)" style="stroke: black; stroke-width:0.25;"/>
<line x1="401.000000" y1="283.000000" x2="404.000000" y2="284.000000"  transform="rotate(0.000000,404.000000,284.000000)" style="stroke: black; stroke-width:0.25;"/>
<line x1="401.000000" y1="285.000000" x2="404.000000" y2="284.000000"  transform="rotate(0.000000,404.000000,284.000000)" style="stroke: black; stroke-width:0.25;"/>
<a xlink:href="scaler-0x7fe3f95209f0.svg">
<rect x="123.000000" y="313.000000" width="129.000000" height="24.000000" rx="0" ry="0" style="stroke:none;fill:#cccccc;"/>
<rect x="122.000000" y="312.000000" width="129.000000" height="24.000000" rx="0" ry="0" style="stroke:none;fill:#003366;"/>
</a>
<a xlink:href="scaler-0x7fe3f95209f0.svg">
<text x="186.500000" y="326.000000" font-family="Arial" font-size="7" text-anchor="middle" fill="#FFFFFF">scaler(7)(8)(...1.0f, 0.01f))</text>
</a>
<circle cx="124.000000" cy="314.000000" r="1"/>
<a xlink:href="smooth-0x7fe3f9538a40.svg">
<rect x="260.000000" y="313.000000" width="129.000000" height="24.000000" rx="0" ry="0" style="stroke:none;fill:#cccccc;"/>
<rect x="259.000000" y="312.000000" width="129.000000" height="24.000000" rx="0" ry="0" style="stroke:none;fill:#003366;"/>
</a>
<a xlink:href="smooth-0x7fe3f9538a40.svg">
<text x="323.500000" y="326.000000" font-family="Arial" font-size="7" text-anchor="middle" fill="#FFFFFF">smooth(0.99990000000000001f)</text>
</a>
<circle cx="261.000000" cy="314.000000" r="1"/>
<line x1="256.000000" y1="323.000000" x2="259.000000" y2="324.000000"  transform="rotate(0.000000,259.000000,324.000000)" style="stroke: black; stroke-width:0.25;"/>
<line x1="256.000000" y1="325.000000" x2="259.000000" y2="324.000000"  transform="rotate(0.000000,259.000000,324.000000)" style="stroke: black; stroke-width:0.25;"/>
<rect x="405.000000" y="309.000000" width="24.000000" height="24.000000" rx="0" ry="0" style="stroke:none;fill:#cccccc;"/>
<rect x="404.000000" y="308.000000" width="24.000000" height="24.000000" rx="0" ry="0" style="stroke:none;fill:#4B71A1;"/>
<text x="416.000000" y="322.000000" font-family="Arial" font-size="7" text-anchor="middle" fill="#FFFFFF">*</text>
<circle cx="406.000000" cy="310.000000" r="1"/>
<line x1="401.000000" y1="315.000000" x2="404.000000" y2="316.000000"  transform="rotate(0.000000,404.000000,316.000000)" style="stroke: black; stroke-width:0.25;"/>
<line x1="401.000000" y1="317.000000" x2="404.000000" y2="316.000000"  transform="rotate(0.000000,404.000000,316.000000)" style="stroke: black; stroke-width:0.25;"/>
<line x1="401.000000" y1="323.000000" x2="404.000000" y2="324.000000"  transform="rotate(0.000000,404.000000,324.000000)" style="stroke: black; stroke-width:0.25;"/>
<line x1="401.000000" y1="325.000000" x2="404.000000" y2="324.000000"  transform="rotate(0.000000,404.000000,324.000000)" style="stroke: black; stroke-width:0.25;"/>
<line x1="15.000000" y1="15.000000" x2="15.000000" y2="345.000000"  style="stroke: black; stroke-linecap:round; stroke-width:0.25; stroke-dasharray:3,3;"/>
<line x1="15.000000" y1="345.000000" x2="477.000000" y2="345.000000"  style="stroke: black; stroke-linecap:round; stroke-width:0.25; stroke-dasharray:3,3;"/>
<line x1="477.000000" y1="345.000000" x2="477.000000" y2="15.000000"  style="stroke: black; stroke-linecap:round; stroke-width:0.25; stroke-dasharray:3,3;"/>
<line x1="15.000000" y1="15.000000" x2="20.000000" y2="15.000000"  style="stroke: black; stroke-linecap:round; stroke-width:0.25; stroke-dasharray:3,3;"/>
<line x1="119.975000" y1="15.000000" x2="477.000000" y2="15.000000"  style="stroke: black; stroke-linecap:round; stroke-width:0.25; stroke-dasharray:3,3;"/>
<text x="20.000000" y="17.000000" font-family="Arial" font-size="7">spat(8)(hslid...1.0f, 0.01f))</text>
<line x1="479.000000" y1="151.000000" x2="482.000000" y2="152.000000"  transform="rotate(0.000000,482.000000,152.000000)" style="stroke: black; stroke-width:0.25;"/>
<line x1="479.000000" y1="153.000000" x2="482.000000" y2="152.000000"  transform="rotate(0.000000,482.000000,152.000000)" style="stroke: black; stroke-width:0.25;"/>
<line x1="479.000000" y1="159.000000" x2="482.000000" y2="160.000000"  transform="rotate(0.000000,482.000000,160.000000)" style="stroke: black; stroke-width:0.25;"/>
<line x1="479.000000" y1="161.000000" x2="482.000000" y2="160.000000"  transform="rotate(0.000000,482.000000,160.000000)" style="stroke: black; stroke-width:0.25;"/>
<line x1="479.000000" y1="167.000000" x2="482.000000" y2="168.000000"  transform="rotate(0.000000,482.000000,168.000000)" style="stroke: black; stroke-width:0.25;"/>
<line x1="479.000000" y1="169.000000" x2="482.000000" y2="168.000000"  transform="rotate(0.000000,482.000000,168.000000)" style="stroke: black; stroke-width:0.25;"/>
<line x1="479.000000" y1="175.000000" x2="482.000000" y2="176.000000"  transform="rotate(0.000000,482.000000,176.000000)" style="stroke: black; stroke-width:0.25;"/>
<line x1="479.000000" y1="177.000000" x2="482.000000" y2="176.000000"  transform="rotate(0.000000,482.000000,176.000000)" style="stroke: black; stroke-width:0.25;"/>
<line x1="479.000000" y1="183.000000" x2="482.000000" y2="184.000000"  transform="rotate(0.000000,482.000000,184.000000)" style="stroke: black; stroke-width:0.25;"/>
<line x1="479.000000" y1="185.000000" x2="482.000000" y2="184.000000"  transform="rotate(0.000000,482.000000,184.000000)" style="stroke: black; stroke-width:0.25;"/>
<line x1="479.000000" y1="191.000000" x2="482.000000" y2="192.000000"  transform="rotate(0.000000,482.000000,192.000000)" style="stroke: black; stroke-width:0.25;"/>
<line x1="479.000000" y1="193.000000" x2="482.000000" y2="192.000000"  transform="rotate(0.000000,482.000000,192.000000)" style="stroke: black; stroke-width:0.25;"/>
<line x1="479.000000" y1="199.000000" x2="482.000000" y2="200.000000"  transform="rotate(0.000000,482.000000,200.000000)" style="stroke: black; stroke-width:0.25;"/>
<line x1="479.000000" y1="201.000000" x2="482.000000" y2="200.000000"  transform="rotate(0.000000,482.000000,200.000000)" style="stroke: black; stroke-width:0.25;"/>
<line x1="479.000000" y1="207.000000" x2="482.000000" y2="208.000000"  transform="rotate(0.000000,482.000000,208.000000)" style="stroke: black; stroke-width:0.25;"/>
<line x1="479.000000" y1="209.000000" x2="482.000000" y2="208.000000"  transform="rotate(0.000000,482.000000,208.000000)" style="stroke: black; stroke-width:0.25;"/>
<line x1="10.000000" y1="180.000000" x2="20.000000" y2="180.000000"  style="stroke:black; stroke-linecap:round; stroke-width:0.25;"/>
<line x1="20.000000" y1="180.000000" x2="24.000000" y2="180.000000"  style="stroke:black; stroke-linecap:round; stroke-width:0.25;"/>
<line x1="24.000000" y1="180.000000" x2="28.000000" y2="180.000000"  style="stroke:black; stroke-linecap:round; stroke-width:0.25;"/>
<line x1="28.000000" y1="180.000000" x2="28.000000" y2="180.000000"  style="stroke:black; stroke-linecap:round; stroke-width:0.25;"/>
<line x1="28.000000" y1="180.000000" x2="32.000000" y2="180.000000"  style="stroke:black; stroke-linecap:round; stroke-width:0.25;"/>
<line x1="32.000000" y1="180.000000" x2="36.000000" y2="180.000000"  style="stroke:black; stroke-linecap:round; stroke-width:0.25;"/>
<line x1="36.000000" y1="180.000000" x2="118.000000" y2="24.000000"  style="stroke:black; stroke-linecap:round; stroke-width:0.25;"/>
<line x1="36.000000" y1="180.000000" x2="118.000000" y2="64.000000"  style="stroke:black; stroke-linecap:round; stroke-width:0.25;"/>
<line x1="36.000000" y1="180.000000" x2="118.000000" y2="104.000000"  style="stroke:black; stroke-linecap:round; stroke-width:0.25;"/>
<line x1="36.000000" y1="180.000000" x2="118.000000" y2="144.000000"  style="stroke:black; stroke-linecap:round; stroke-width:0.25;"/>
<line x1="36.000000" y1="180.000000" x2="118.000000" y2="184.000000"  style="stroke:black; stroke-linecap:round; stroke-width:0.25;"/>
<line x1="36.000000" y1="180.000000" x2="118.000000" y2="224.000000"  style="stroke:black; stroke-linecap:round; stroke-width:0.25;"/>
<line x1="36.000000" y1="180.000000" x2="118.000000" y2="264.000000"  style="stroke:black; stroke-linecap:round; stroke-width:0.25;"/>
<line x1="36.000000" y1="180.000000" x2="118.000000" y2="304.000000"  style="stroke:black; stroke-linecap:round; stroke-width:0.25;"/>
<line x1="118.000000" y1="24.000000" x2="255.000000" y2="24.000000"  style="stroke:black; stroke-linecap:round; stroke-width:0.25;"/>
<line x1="118.000000" y1="64.000000" x2="255.000000" y2="64.000000"  style="stroke:black; stroke-linecap:round; stroke-width:0.25;"/>
<line x1="118.000000" y1="104.000000" x2="255.000000" y2="104.000000"  style="stroke:black; stroke-linecap:round; stroke-width:0.25;"/>
<line x1="118.000000" y1="144.000000" x2="255.000000" y2="144.000000"  style="stroke:black; stroke-linecap:round; stroke-width:0.25;"/>
<line x1="118.000000" y1="184.000000" x2="255.000000" y2="184.000000"  style="stroke:black; stroke-linecap:round; stroke-width:0.25;"/>
<line x1="118.000000" y1="224.000000" x2="255.000000" y2="224.000000"  style="stroke:black; stroke-linecap:round; stroke-width:0.25;"/>
<line x1="118.000000" y1="264.000000" x2="255.000000" y2="264.000000"  style="stroke:black; stroke-linecap:round; stroke-width:0.25;"/>
<line x1="118.000000" y1="304.000000" x2="255.000000" y2="304.000000"  style="stroke:black; stroke-linecap:round; stroke-width:0.25;"/>
<line x1="251.000000" y1="44.000000" x2="255.000000" y2="44.000000"  style="stroke:black; stroke-linecap:round; stroke-width:0.25;"/>
<line x1="251.000000" y1="84.000000" x2="255.000000" y2="84.000000"  style="stroke:black; stroke-linecap:round; stroke-width:0.25;"/>
<line x1="251.000000" y1="124.000000" x2="255.000000" y2="124.000000"  style="stroke:black; stroke-linecap:round; stroke-width:0.25;"/>
<line x1="251.000000" y1="164.000000" x2="255.000000" y2="164.000000"  style="stroke:black; stroke-linecap:round; stroke-width:0.25;"/>
<line x1="251.000000" y1="204.000000" x2="255.000000" y2="204.000000"  style="stroke:black; stroke-linecap:round; stroke-width:0.25;"/>
<line x1="251.000000" y1="244.000000" x2="255.000000" y2="244.000000"  style="stroke:black; stroke-linecap:round; stroke-width:0.25;"/>
<line x1="251.000000" y1="284.000000" x2="255.000000" y2="284.000000"  style="stroke:black; stroke-linecap:round; stroke-width:0.25;"/>
<line x1="251.000000" y1="324.000000" x2="255.000000" y2="324.000000"  style="stroke:black; stroke-linecap:round; stroke-width:0.25;"/>
<line x1="255.000000" y1="24.000000" x2="392.000000" y2="24.000000"  style="stroke:black; stroke-linecap:round; stroke-width:0.25;"/>
<line x1="255.000000" y1="44.000000" x2="255.000000" y2="44.000000"  style="stroke:black; stroke-linecap:round; stroke-width:0.25;"/>
<line x1="255.000000" y1="44.000000" x2="259.000000" y2="44.000000"  style="stroke:black; stroke-linecap:round; stroke-width:0.25;"/>
<line x1="255.000000" y1="64.000000" x2="392.000000" y2="64.000000"  style="stroke:black; stroke-linecap:round; stroke-width:0.25;"/>
<line x1="255.000000" y1="84.000000" x2="255.000000" y2="84.000000"  style="stroke:black; stroke-linecap:round; stroke-width:0.25;"/>
<line x1="255.000000" y1="84.000000" x2="259.000000" y2="84.000000"  style="stroke:black; stroke-linecap:round; stroke-width:0.25;"/>
<line x1="255.000000" y1="104.000000" x2="392.000000" y2="104.000000"  style="stroke:black; stroke-linecap:round; stroke-width:0.25;"/>
<line x1="255.000000" y1="124.000000" x2="255.000000" y2="124.000000"  style="stroke:black; stroke-linecap:round; stroke-width:0.25;"/>
<line x1="255.000000" y1="124.000000" x2="259.000000" y2="124.000000"  style="stroke:black; stroke-linecap:round; stroke-width:0.25;"/>
<line x1="255.000000" y1="144.000000" x2="392.000000" y2="144.000000"  style="stroke:black; stroke-linecap:round; stroke-width:0.25;"/>
<line x1="255.000000" y1="164.000000" x2="255.000000" y2="164.000000"  style="stroke:black; stroke-linecap:round; stroke-width:0.25;"/>
<line x1="255.000000" y1="164.000000" x2="259.000000" y2="164.000000"  style="stroke:black; stroke-linecap:round; stroke-width:0.25;"/>
<line x1="255.000000" y1="184.000000" x2="392.000000" y2="184.000000"  style="stroke:black; stroke-linecap:round; stroke-width:0.25;"/>
<line x1="255.000000" y1="204.000000" x2="255.000000" y2="204.000000"  style="stroke:black; stroke-linecap:round; stroke-width:0.25;"/>
<line x1="255.000000" y1="204.000000" x2="259.000000" y2="204.000000"  style="stroke:black; stroke-linecap:round; stroke-width:0.25;"/>
<line x1="255.000000" y1="224.000000" x2="392.000000" y2="224.000000"  style="stroke:black; stroke-linecap:round; stroke-width:0.25;"/>
<line x1="255.000000" y1="244.000000" x2="255.000000" y2="244.000000"  style="stroke:black; stroke-linecap:round; stroke-width:0.25;"/>
<line x1="255.000000" y1="244.000000" x2="259.000000" y2="244.000000"  style="stroke:black; stroke-linecap:round; stroke-width:0.25;"/>
<line x1="255.000000" y1="264.000000" x2="392.000000" y2="264.000000"  style="stroke:black; stroke-linecap:round; stroke-width:0.25;"/>
<line x1="255.000000" y1="284.000000" x2="255.000000" y2="284.000000"  style="stroke:black; stroke-linecap:round; stroke-width:0.25;"/>
<line x1="255.000000" y1="284.000000" x2="259.000000" y2="284.000000"  style="stroke:black; stroke-linecap:round; stroke-width:0.25;"/>
<line x1="255.000000" y1="304.000000" x2="392.000000" y2="304.000000"  style="stroke:black; stroke-linecap:round; stroke-width:0.25;"/>
<line x1="255.000000" y1="324.000000" x2="255.000000" y2="324.000000"  style="stroke:black; stroke-linecap:round; stroke-width:0.25;"/>
<line x1="255.000000" y1="324.000000" x2="259.000000" y2="324.000000"  style="stroke:black; stroke-linecap:round; stroke-width:0.25;"/>
<line x1="388.000000" y1="44.000000" x2="392.000000" y2="44.000000"  style="stroke:black; stroke-linecap:round; stroke-width:0.25;"/>
<line x1="388.000000" y1="84.000000" x2="392.000000" y2="84.000000"  style="stroke:black; stroke-linecap:round; stroke-width:0.25;"/>
<line x1="388.000000" y1="124.000000" x2="392.000000" y2="124.000000"  style="stroke:black; stroke-linecap:round; stroke-width:0.25;"/>
<line x1="388.000000" y1="164.000000" x2="392.000000" y2="164.000000"  style="stroke:black; stroke-linecap:round; stroke-width:0.25;"/>
<line x1="388.000000" y1="204.000000" x2="392.000000" y2="204.000000"  style="stroke:black; stroke-linecap:round; stroke-width:0.25;"/>
<line x1="388.000000" y1="244.000000" x2="392.000000" y2="244.000000"  style="stroke:black; stroke-linecap:round; stroke-width:0.25;"/>
<line x1="388.000000" y1="284.000000" x2="392.000000" y2="284.000000"  style="stroke:black; stroke-linecap:round; stroke-width:0.25;"/>
<line x1="388.000000" y1="324.000000" x2="392.000000" y2="324.000000"  style="stroke:black; stroke-linecap:round; stroke-width:0.25;"/>
<line x1="392.000000" y1="24.000000" x2="400.000000" y2="24.000000"  style="stroke:black; stroke-linecap:round; stroke-width:0.25;"/>
<line x1="392.000000" y1="44.000000" x2="400.000000" y2="44.000000"  style="stroke:black; stroke-linecap:round; stroke-width:0.25;"/>
<line x1="392.000000" y1="64.000000" x2="400.000000" y2="64.000000"  style="stroke:black; stroke-linecap:round; stroke-width:0.25;"/>
<line x1="392.000000" y1="84.000000" x2="400.000000" y2="84.000000"  style="stroke:black; stroke-linecap:round; stroke-width:0.25;"/>
<line x1="392.000000" y1="104.000000" x2="400.000000" y2="104.000000"  style="stroke:black; stroke-linecap:round; stroke-width:0.25;"/>
<line x1="392.000000" y1="124.000000" x2="400.000000" y2="124.000000"  style="stroke:black; stroke-linecap:round; stroke-width:0.25;"/>
<line x1="392.000000" y1="144.000000" x2="400.000000" y2="144.000000"  style="stroke:black; stroke-linecap:round; stroke-width:0.25;"/>
<line x1="392.000000" y1="164.000000" x2="400.000000" y2="164.000000"  style="stroke:black; stroke-linecap:round; stroke-width:0.25;"/>
<line x1="392.000000" y1="184.000000" x2="400.000000" y2="184.000000"  style="stroke:black; stroke-linecap:round; stroke-width:0.25;"/>
<line x1="392.000000" y1="204.000000" x2="400.000000" y2="204.000000"  style="stroke:black; stroke-linecap:round; stroke-width:0.25;"/>
<line x1="392.000000" y1="224.000000" x2="400.000000" y2="224.000000"  style="stroke:black; stroke-linecap:round; stroke-width:0.25;"/>
<line x1="392.000000" y1="244.000000" x2="400.000000" y2="244.000000"  style="stroke:black; stroke-linecap:round; stroke-width:0.25;"/>
<line x1="392.000000" y1="264.000000" x2="400.000000" y2="264.000000"  style="stroke:black; stroke-linecap:round; stroke-width:0.25;"/>
<line x1="392.000000" y1="284.000000" x2="400.000000" y2="284.000000"  style="stroke:black; stroke-linecap:round; stroke-width:0.25;"/>
<line x1="392.000000" y1="304.000000" x2="400.000000" y2="304.000000"  style="stroke:black; stroke-linecap:round; stroke-width:0.25;"/>
<line x1="392.000000" y1="324.000000" x2="400.000000" y2="324.000000"  style="stroke:black; stroke-linecap:round; stroke-width:0.25;"/>
<line x1="400.000000" y1="24.000000" x2="400.000000" y2="36.000000"  style="stroke:black; stroke-linecap:round; stroke-width:0.25;"/>
<line x1="400.000000" y1="36.000000" x2="400.000000" y2="36.000000"  style="stroke:black; stroke-linecap:round; stroke-width:0.25;"/>
<line x1="400.000000" y1="36.000000" x2="404.000000" y2="36.000000"  style="stroke:black; stroke-linecap:round; stroke-width:0.25;"/>
<line x1="400.000000" y1="44.000000" x2="404.000000" y2="44.000000"  style="stroke:black; stroke-linecap:round; stroke-width:0.25;"/>
<line x1="400.000000" y1="64.000000" x2="400.000000" y2="76.000000"  style="stroke:black; stroke-linecap:round; stroke-width:0.25;"/>
<line x1="400.000000" y1="76.000000" x2="400.000000" y2="76.000000"  style="stroke:black; stroke-linecap:round; stroke-width:0.25;"/>
<line x1="400.000000" y1="76.000000" x2="404.000000" y2="76.000000"  style="stroke:black; stroke-linecap:round; stroke-width:0.25;"/>
<line x1="400.000000" y1="84.000000" x2="404.000000" y2="84.000000"  style="stroke:black; stroke-linecap:round; stroke-width:0.25;"/>
<line x1="400.000000" y1="104.000000" x2="400.000000" y2="116.000000"  style="stroke:black; stroke-linecap:round; stroke-width:0.25;"/>
<line x1="400.000000" y1="116.000000" x2="400.000000" y2="116.000000"  style="stroke:black; stroke-linecap:round; stroke-width:0.25;"/>
<line x1="400.000000" y1="116.000000" x2="404.000000" y2="116.000000"  style="stroke:black; stroke-linecap:round; stroke-width:0.25;"/>
<line x1="400.000000" y1="124.000000" x2="404.000000" y2="124.000000"  style="stroke:black; stroke-linecap:round; stroke-width:0.25;"/>
<line x1="400.000000" y1="144.000000" x2="400.000000" y2="156.000000"  style="stroke:black; stroke-linecap:round; stroke-width:0.25;"/>
<line x1="400.000000" y1="156.000000" x2="400.000000" y2="156.000000"  style="stroke:black; stroke-linecap:round; stroke-width:0.25;"/>
<line x1="400.000000" y1="156.000000" x2="404.000000" y2="156.000000"  style="stroke:black; stroke-linecap:round; stroke-width:0.25;"/>
<line x1="400.000000" y1="164.000000" x2="404.000000" y2="164.000000"  style="stroke:black; stroke-linecap:round; stroke-width:0.25;"/>
<line x1="400.000000" y1="184.000000" x2="400.000000" y2="196.000000"  style="stroke:black; stroke-linecap:round; stroke-width:0.25;"/>
<line x1="400.000000" y1="196.000000" x2="400.000000" y2="196.000000"  style="stroke:black; stroke-linecap:round; stroke-width:0.25;"/>
<line x1="400.000000" y1="196.000000" x2="404.000000" y2="196.000000"  style="stroke:black; stroke-linecap:round; stroke-width:0.25;"/>
<line x1="400.000000" y1="204.000000" x2="404.000000" y2="204.000000"  style="stroke:black; stroke-linecap:round; stroke-width:0.25;"/>
<line x1="400.000000" y1="224.000000" x2="400.000000" y2="236.000000"  style="stroke:black; stroke-linecap:round; stroke-width:0.25;"/>
<line x1="400.000000" y1="236.000000" x2="400.000000" y2="236.000000"  style="stroke:black; stroke-linecap:round; stroke-width:0.25;"/>
<line x1="400.000000" y1="236.000000" x2="404.000000" y2="236.000000"  style="stroke:black; stroke-linecap:round; stroke-width:0.25;"/>
<line x1="400.000000" y1="244.000000" x2="404.000000" y2="244.000000"  style="stroke:black; stroke-linecap:round; stroke-width:0.25;"/>
<line x1="400.000000" y1="264.000000" x2="400.000000" y2="276.000000"  style="stroke:black; stroke-linecap:round; stroke-width:0.25;"/>
<line x1="400.000000" y1="276.000000" x2="400.000000" y2="276.000000"  style="stroke:black; stroke-linecap:round; stroke-width:0.25;"/>
<line x1="400.000000" y1="276.000000" x2="404.000000" y2="276.000000"  style="stroke:black; stroke-linecap:round; stroke-width:0.25;"/>
<line x1="400.000000" y1="284.000000" x2="404.000000" y2="284.000000"  style="stroke:black; stroke-linecap:round; stroke-width:0.25;"/>
<line x1="400.000000" y1="304.000000" x2="400.000000" y2="316.000000"  style="stroke:black; stroke-linecap:round; stroke-width:0.25;"/>
<line x1="400.000000" y1="316.000000" x2="400.000000" y2="316.000000"  style="stroke:black; stroke-linecap:round; stroke-width:0.25;"/>
<line x1="400.000000" y1="316.000000" x2="404.000000" y2="316.000000"  style="stroke:black; stroke-linecap:round; stroke-width:0.25;"/>
<line x1="400.000000" y1="324.000000" x2="404.000000" y2="324.000000"  style="stroke:black; stroke-linecap:round; stroke-width:0.25;"/>
<line x1="428.000000" y1="40.000000" x2="432.000000" y2="40.000000"  style="stroke:black; stroke-linecap:round; stroke-width:0.25;"/>
<line x1="428.000000" y1="80.000000" x2="432.000000" y2="80.000000"  style="stroke:black; stroke-linecap:round; stroke-width:0.25;"/>
<line x1="428.000000" y1="120.000000" x2="432.000000" y2="120.000000"  style="stroke:black; stroke-linecap:round; stroke-width:0.25;"/>
<line x1="428.000000" y1="160.000000" x2="432.000000" y2="160.000000"  style="stroke:black; stroke-linecap:round; stroke-width:0.25;"/>
<line x1="428.000000" y1="200.000000" x2="432.000000" y2="200.000000"  style="stroke:black; stroke-linecap:round; stroke-width:0.25;"/>
<line x1="428.000000" y1="240.000000" x2="432.000000" y2="240.000000"  style="stroke:black; stroke-linecap:round; stroke-width:0.25;"/>
<line x1="428.000000" y1="280.000000" x2="432.000000" y2="280.000000"  style="stroke:black; stroke-linecap:round; stroke-width:0.25;"/>
<line x1="428.000000" y1="320.000000" x2="432.000000" y2="320.000000"  style="stroke:black; stroke-linecap:round; stroke-width:0.25;"/>
<line x1="432.000000" y1="40.000000" x2="464.000000" y2="40.000000"  style="stroke:black; stroke-linecap:round; stroke-width:0.25;"/>
<line x1="432.000000" y1="80.000000" x2="456.000000" y2="80.000000"  style="stroke:black; stroke-linecap:round; stroke-width:0.25;"/>
<line x1="432.000000" y1="120.000000" x2="448.000000" y2="120.000000"  style="stroke:black; stroke-linecap:round; stroke-width:0.25;"/>
<line x1="432.000000" y1="160.000000" x2="440.000000" y2="160.000000"  style="stroke:black; stroke-linecap:round; stroke-width:0.25;"/>
<line x1="432.000000" y1="184.000000" x2="464.000000" y2="184.000000"  style="stroke:black; stroke-linecap:round; stroke-width:0.25;"/>
<line x1="432.000000" y1="200.000000" x2="432.000000" y2="184.000000"  style="stroke:black; stroke-linecap:round; stroke-width:0.25;"/>
<line x1="432.000000" y1="200.000000" x2="432.000000" y2="200.000000"  style="stroke:black; stroke-linecap:round; stroke-width:0.25;"/>
<line x1="432.000000" y1="240.000000" x2="440.000000" y2="240.000000"  style="stroke:black; stroke-linecap:round; stroke-width:0.25;"/>
<line x1="432.000000" y1="280.000000" x2="448.000000" y2="280.000000"  style="stroke:black; stroke-linecap:round; stroke-width:0.25;"/>
<line x1="432.000000" y1="320.000000" x2="456.000000" y2="320.000000"  style="stroke:black; stroke-linecap:round; stroke-width:0.25;"/>
<line x1="440.000000" y1="160.000000" x2="440.000000" y2="176.000000"  style="stroke:black; stroke-linecap:round; stroke-width:0.25;"/>
<line x1="440.000000" y1="176.000000" x2="464.000000" y2="176.000000"  style="stroke:black; stroke-linecap:round; stroke-width:0.25;"/>
<line x1="440.000000" y1="192.000000" x2="464.000000" y2="192.000000"  style="stroke:black; stroke-linecap:round; stroke-width:0.25;"/>
<line x1="440.000000" y1="240.000000" x2="440.000000" y2="192.000000"  style="stroke:black; stroke-linecap:round; stroke-width:0.25;"/>
<line x1="448.000000" y1="120.000000" x2="448.000000" y2="168.000000"  style="stroke:black; stroke-linecap:round; stroke-width:0.25;"/>
<line x1="448.000000" y1="168.000000" x2="464.000000" y2="168.000000"  style="stroke:black; stroke-linecap:round; stroke-width:0.25;"/>
<line x1="448.000000" y1="200.000000" x2="464.000000" y2="200.000000"  style="stroke:black; stroke-linecap:round; stroke-width:0.25;"/>
<line x1="448.000000" y1="280.000000" x2="448.000000" y2="200.000000"  style="stroke:black; stroke-linecap:round; stroke-width:0.25;"/>
<line x1="456.000000" y1="80.000000" x2="456.000000" y2="160.000000"  style="stroke:black; stroke-linecap:round; stroke-width:0.25;"/>
<line x1="456.000000" y1="160.000000" x2="464.000000" y2="160.000000"  style="stroke:black; stroke-linecap:round; stroke-width:0.25;"/>
<line x1="456.000000" y1="208.000000" x2="464.000000" y2="208.000000"  style="stroke:black; stroke-linecap:round; stroke-width:0.25;"/>
<line x1="456.000000" y1="320.000000" x2="456.000000" y2="208.000000"  style="stroke:black; stroke-linecap:round; stroke-width:0.25;"/>
<line x1="464.000000" y1="40.000000" x2="464.000000" y2="152.000000"  style="stroke:black; stroke-linecap:round; stroke-width:0.25;"/>
<line x1="464.000000" y1="152.000000" x2="464.000000" y2="152.000000"  style="stroke:black; stroke-linecap:round; stroke-width:0.25;"/>
<line x1="464.000000" y1="152.000000" x2="468.000000" y2="152.000000"  style="stroke:black; stroke-linecap:round; stroke-width:0.25;"/>
<line x1="464.000000" y1="160.000000" x2="468.000000" y2="160.000000"  style="stroke:black; stroke-linecap:round; stroke-width:0.25;"/>
<line x1="464.000000" y1="168.000000" x2="468.000000" y2="168.000000"  style="stroke:black; stroke-linecap:round; stroke-width:0.25;"/>
<line x1="464.000000" y1="176.000000" x2="468.000000" y2="176.000000"  style="stroke:black; stroke-linecap:round; stroke-width:0.25;"/>
<line x1="464.000000" y1="184.000000" x2="468.000000" y2="184.000000"  style="stroke:black; stroke-linecap:round; stroke-width:0.25;"/>
<line x1="464.000000" y1="192.000000" x2="468.000000" y2="192.000000"  style="stroke:black; stroke-linecap:round; stroke-width:0.25;"/>
<line x1="464.000000" y1="200.000000" x2="468.000000" y2="200.000000"  style="stroke:black; stroke-linecap:round; stroke-width:0.25;"/>
<line x1="464.000000" y1="208.000000" x2="468.000000" y2="208.000000"  style="stroke:black; stroke-linecap:round; stroke-width:0.25;"/>
<line x1="468.000000" y1="152.000000" x2="472.000000" y2="152.000000"  style="stroke:black; stroke-linecap:round; stroke-width:0.25;"/>
<line x1="468.000000" y1="160.000000" x2="472.000000" y2="160.000000"  style="stroke:black; stroke-linecap:round; stroke-width:0.25;"/>
<line x1="468.000000" y1="168.000000" x2="472.000000" y2="168.000000"  style="stroke:black; stroke-linecap:round; stroke-width:0.25;"/>
<line x1="468.000000" y1="176.000000" x2="472.000000" y2="176.000000"  style="stroke:black; stroke-linecap:round; stroke-width:0.25;"/>
<line x1="468.000000" y1="184.000000" x2="472.000000" y2="184.000000"  style="stroke:black; stroke-linecap:round; stroke-width:0.25;"/>
<line x1="468.000000" y1="192.000000" x2="472.000000" y2="192.000000"  style="stroke:black; stroke-linecap:round; stroke-width:0.25;"/>
<line x1="468.000000" y1="200.000000" x2="472.000000" y2="200.000000"  style="stroke:black; stroke-linecap:round; stroke-width:0.25;"/>
<line x1="468.000000" y1="208.000000" x2="472.000000" y2="208.000000"  style="stroke:black; stroke-linecap:round; stroke-width:0.25;"/>
<line x1="472.000000" y1="152.000000" x2="482.000000" y2="152.000000"  style="stroke:black; stroke-linecap:round; stroke-width:0.25;"/>
<line x1="472.000000" y1="160.000000" x2="482.000000" y2="160.000000"  style="stroke:black; stroke-linecap:round; stroke-width:0.25;"/>
<line x1="472.000000" y1="168.000000" x2="482.000000" y2="168.000000"  style="stroke:black; stroke-linecap:round; stroke-width:0.25;"/>
<line x1="472.000000" y1="176.000000" x2="482.000000" y2="176.000000"  style="stroke:black; stroke-linecap:round; stroke-width:0.25;"/>
<line x1="472.000000" y1="184.000000" x2="482.000000" y2="184.000000"  style="stroke:black; stroke-linecap:round; stroke-width:0.25;"/>
<line x1="472.000000" y1="192.000000" x2="482.000000" y2="192.000000"  style="stroke:black; stroke-linecap:round; stroke-width:0.25;"/>
<line x1="472.000000" y1="200.000000" x2="482.000000" y2="200.000000"  style="stroke:black; stroke-linecap:round; stroke-width:0.25;"/>
<line x1="472.000000" y1="208.000000" x2="482.000000" y2="208.000000"  style="stroke:black; stroke-linecap:round; stroke-width:0.25;"/>
</svg>
