<?xml version="1.0"?>
<svg xmlns="http://www.w3.org/2000/svg" xmlns:xlink="http://www.w3.org/1999/xlink" viewBox="0 0 498.500000 232.000000" width="249.250000mm" height="116.000000mm" version="1.1">
<a xlink:href="conv3-0x7fa9c1964820.svg">
<rect x="1.000000" y="1.000000" width="497.500000" height="231.000000" rx="0" ry="0" style="stroke:none;fill:#cccccc;"/>
<rect x="0.000000" y="0.000000" width="497.500000" height="231.000000" rx="0" ry="0" style="stroke:none;fill:#ffffff;"/>
</a>
<text x="10.000000" y="7.000000" font-family="Arial" font-size="7"></text>
<rect x="194.250000" y="25.000000" width="24.000000" height="24.000000" rx="0" ry="0" style="stroke:none;fill:#cccccc;"/>
<rect x="193.250000" y="24.000000" width="24.000000" height="24.000000" rx="0" ry="0" style="stroke:none;fill:#f44800;"/>
<text x="205.250000" y="38.000000" font-family="Arial" font-size="7" text-anchor="middle" fill="#FFFFFF">1</text>
<circle cx="195.250000" cy="26.000000" r="1"/>
<a xlink:href="V-0x7fa9c18eab90.svg">
<rect x="154.250000" y="57.000000" width="24.000000" height="24.000000" rx="0" ry="0" style="stroke:none;fill:#cccccc;"/>
<rect x="153.250000" y="56.000000" width="24.000000" height="24.000000" rx="0" ry="0" style="stroke:none;fill:#003366;"/>
</a>
<a xlink:href="V-0x7fa9c18eab90.svg">
<text x="165.250000" y="70.000000" font-family="Arial" font-size="7" text-anchor="middle" fill="#FFFFFF">V</text>
</a>
<circle cx="155.250000" cy="58.000000" r="1"/>
<a xlink:href="K-0x7fa9c1922d80.svg">
<rect x="154.250000" y="89.000000" width="24.000000" height="24.000000" rx="0" ry="0" style="stroke:none;fill:#cccccc;"/>
<rect x="153.250000" y="88.000000" width="24.000000" height="24.000000" rx="0" ry="0" style="stroke:none;fill:#003366;"/>
</a>
<a xlink:href="K-0x7fa9c1922d80.svg">
<text x="165.250000" y="102.000000" font-family="Arial" font-size="7" text-anchor="middle" fill="#FFFFFF">K</text>
</a>
<circle cx="155.250000" cy="90.000000" r="1"/>
<rect x="194.250000" y="73.000000" width="24.000000" height="24.000000" rx="0" ry="0" style="stroke:none;fill:#cccccc;"/>
<rect x="193.250000" y="72.000000" width="24.000000" height="24.000000" rx="0" ry="0" style="stroke:none;fill:#4B71A1;"/>
<text x="205.250000" y="86.000000" font-family="Arial" font-size="7" text-anchor="middle" fill="#FFFFFF">*</text>
<circle cx="195.250000" cy="74.000000" r="1"/>
<line x1="190.250000" y1="79.000000" x2="193.250000" y2="80.000000"  transform="rotate(0.000000,193.250000,80.000000)" style="stroke: black; stroke-width:0.25;"/>
<line x1="190.250000" y1="81.000000" x2="193.250000" y2="80.000000"  transform="rotate(0.000000,193.250000,80.000000)" style="stroke: black; stroke-width:0.25;"/>
<line x1="190.250000" y1="87.000000" x2="193.250000" y2="88.000000"  transform="rotate(0.000000,193.250000,88.000000)" style="stroke: black; stroke-width:0.25;"/>
<line x1="190.250000" y1="89.000000" x2="193.250000" y2="88.000000"  transform="rotate(0.000000,193.250000,88.000000)" style="stroke: black; stroke-width:0.25;"/>
<rect x="25.000000" y="121.000000" width="322.500000" height="24.000000" rx="0" ry="0" style="stroke:none;fill:#cccccc;"/>
<rect x="24.000000" y="120.000000" width="322.500000" height="24.000000" rx="0" ry="0" style="stroke:none;fill:#477881;"/>
<text x="185.250000" y="134.000000" font-family="Arial" font-size="7" text-anchor="middle" fill="#FFFFFF">nentry(Q factor, 50.0f, 0.10000000000000001f, 100.0f, 0.10000000000000001f)</text>
<circle cx="26.000000" cy="122.000000" r="1"/>
<rect x="363.500000" y="89.000000" width="24.000000" height="24.000000" rx="0" ry="0" style="stroke:none;fill:#cccccc;"/>
<rect x="362.500000" y="88.000000" width="24.000000" height="24.000000" rx="0" ry="0" style="stroke:none;fill:#4B71A1;"/>
<text x="374.500000" y="102.000000" font-family="Arial" font-size="7" text-anchor="middle" fill="#FFFFFF">/</text>
<circle cx="364.500000" cy="90.000000" r="1"/>
<line x1="359.500000" y1="95.000000" x2="362.500000" y2="96.000000"  transform="rotate(0.000000,362.500000,96.000000)" style="stroke: black; stroke-width:0.25;"/>
<line x1="359.500000" y1="97.000000" x2="362.500000" y2="96.000000"  transform="rotate(0.000000,362.500000,96.000000)" style="stroke: black; stroke-width:0.25;"/>
<line x1="359.500000" y1="103.000000" x2="362.500000" y2="104.000000"  transform="rotate(0.000000,362.500000,104.000000)" style="stroke: black; stroke-width:0.25;"/>
<line x1="359.500000" y1="105.000000" x2="362.500000" y2="104.000000"  transform="rotate(0.000000,362.500000,104.000000)" style="stroke: black; stroke-width:0.25;"/>
<rect x="403.500000" y="73.000000" width="24.000000" height="24.000000" rx="0" ry="0" style="stroke:none;fill:#cccccc;"/>
<rect x="402.500000" y="72.000000" width="24.000000" height="24.000000" rx="0" ry="0" style="stroke:none;fill:#4B71A1;"/>
<text x="414.500000" y="86.000000" font-family="Arial" font-size="7" text-anchor="middle" fill="#FFFFFF">+</text>
<circle cx="404.500000" cy="74.000000" r="1"/>
<line x1="399.500000" y1="79.000000" x2="402.500000" y2="80.000000"  transform="rotate(0.000000,402.500000,80.000000)" style="stroke: black; stroke-width:0.25;"/>
<line x1="399.500000" y1="81.000000" x2="402.500000" y2="80.000000"  transform="rotate(0.000000,402.500000,80.000000)" style="stroke: black; stroke-width:0.25;"/>
<line x1="399.500000" y1="87.000000" x2="402.500000" y2="88.000000"  transform="rotate(0.000000,402.500000,88.000000)" style="stroke: black; stroke-width:0.25;"/>
<line x1="399.500000" y1="89.000000" x2="402.500000" y2="88.000000"  transform="rotate(0.000000,402.500000,88.000000)" style="stroke: black; stroke-width:0.25;"/>
<a xlink:href="K-0x7fa9c1922d80.svg">
<rect x="194.250000" y="153.000000" width="24.000000" height="24.000000" rx="0" ry="0" style="stroke:none;fill:#cccccc;"/>
<rect x="193.250000" y="152.000000" width="24.000000" height="24.000000" rx="0" ry="0" style="stroke:none;fill:#003366;"/>
</a>
<a xlink:href="K-0x7fa9c1922d80.svg">
<text x="205.250000" y="166.000000" font-family="Arial" font-size="7" text-anchor="middle" fill="#FFFFFF">K</text>
</a>
<circle cx="195.250000" cy="154.000000" r="1"/>
<a xlink:href="K-0x7fa9c1922d80.svg">
<rect x="194.250000" y="185.000000" width="24.000000" height="24.000000" rx="0" ry="0" style="stroke:none;fill:#cccccc;"/>
<rect x="193.250000" y="184.000000" width="24.000000" height="24.000000" rx="0" ry="0" style="stroke:none;fill:#003366;"/>
</a>
<a xlink:href="K-0x7fa9c1922d80.svg">
<text x="205.250000" y="198.000000" font-family="Arial" font-size="7" text-anchor="middle" fill="#FFFFFF">K</text>
</a>
<circle cx="195.250000" cy="186.000000" r="1"/>
<rect x="234.250000" y="169.000000" width="24.000000" height="24.000000" rx="0" ry="0" style="stroke:none;fill:#cccccc;"/>
<rect x="233.250000" y="168.000000" width="24.000000" height="24.000000" rx="0" ry="0" style="stroke:none;fill:#4B71A1;"/>
<text x="245.250000" y="182.000000" font-family="Arial" font-size="7" text-anchor="middle" fill="#FFFFFF">*</text>
<circle cx="235.250000" cy="170.000000" r="1"/>
<line x1="230.250000" y1="175.000000" x2="233.250000" y2="176.000000"  transform="rotate(0.000000,233.250000,176.000000)" style="stroke: black; stroke-width:0.25;"/>
<line x1="230.250000" y1="177.000000" x2="233.250000" y2="176.000000"  transform="rotate(0.000000,233.250000,176.000000)" style="stroke: black; stroke-width:0.25;"/>
<line x1="230.250000" y1="183.000000" x2="233.250000" y2="184.000000"  transform="rotate(0.000000,233.250000,184.000000)" style="stroke: black; stroke-width:0.25;"/>
<line x1="230.250000" y1="185.000000" x2="233.250000" y2="184.000000"  transform="rotate(0.000000,233.250000,184.000000)" style="stroke: black; stroke-width:0.25;"/>
<rect x="443.500000" y="105.000000" width="24.000000" height="24.000000" rx="0" ry="0" style="stroke:none;fill:#cccccc;"/>
<rect x="442.500000" y="104.000000" width="24.000000" height="24.000000" rx="0" ry="0" style="stroke:none;fill:#4B71A1;"/>
<text x="454.500000" y="118.000000" font-family="Arial" font-size="7" text-anchor="middle" fill="#FFFFFF">+</text>
<circle cx="444.500000" cy="106.000000" r="1"/>
<line x1="439.500000" y1="111.000000" x2="442.500000" y2="112.000000"  transform="rotate(0.000000,442.500000,112.000000)" style="stroke: black; stroke-width:0.25;"/>
<line x1="439.500000" y1="113.000000" x2="442.500000" y2="112.000000"  transform="rotate(0.000000,442.500000,112.000000)" style="stroke: black; stroke-width:0.25;"/>
<line x1="439.500000" y1="119.000000" x2="442.500000" y2="120.000000"  transform="rotate(0.000000,442.500000,120.000000)" style="stroke: black; stroke-width:0.25;"/>
<line x1="439.500000" y1="121.000000" x2="442.500000" y2="120.000000"  transform="rotate(0.000000,442.500000,120.000000)" style="stroke: black; stroke-width:0.25;"/>
<line x1="15.000000" y1="15.000000" x2="15.000000" y2="217.000000"  style="stroke: black; stroke-linecap:round; stroke-width:0.25; stroke-dasharray:3,3;"/>
<line x1="15.000000" y1="217.000000" x2="483.500000" y2="217.000000"  style="stroke: black; stroke-linecap:round; stroke-width:0.25; stroke-dasharray:3,3;"/>
<line x1="483.500000" y1="217.000000" x2="483.500000" y2="15.000000"  style="stroke: black; stroke-linecap:round; stroke-width:0.25; stroke-dasharray:3,3;"/>
<line x1="15.000000" y1="15.000000" x2="20.000000" y2="15.000000"  style="stroke: black; stroke-linecap:round; stroke-width:0.25; stroke-dasharray:3,3;"/>
<line x1="29.675000" y1="15.000000" x2="483.500000" y2="15.000000"  style="stroke: black; stroke-linecap:round; stroke-width:0.25; stroke-dasharray:3,3;"/>
<text x="20.000000" y="17.000000" font-family="Arial" font-size="7">D</text>
<line x1="485.500000" y1="115.000000" x2="488.500000" y2="116.000000"  transform="rotate(0.000000,488.500000,116.000000)" style="stroke: black; stroke-width:0.25;"/>
<line x1="485.500000" y1="117.000000" x2="488.500000" y2="116.000000"  transform="rotate(0.000000,488.500000,116.000000)" style="stroke: black; stroke-width:0.25;"/>
<line x1="177.250000" y1="68.000000" x2="181.250000" y2="68.000000"  style="stroke:black; stroke-linecap:round; stroke-width:0.25;"/>
<line x1="177.250000" y1="100.000000" x2="181.250000" y2="100.000000"  style="stroke:black; stroke-linecap:round; stroke-width:0.25;"/>
<line x1="181.250000" y1="68.000000" x2="189.250000" y2="68.000000"  style="stroke:black; stroke-linecap:round; stroke-width:0.25;"/>
<line x1="181.250000" y1="88.000000" x2="189.250000" y2="88.000000"  style="stroke:black; stroke-linecap:round; stroke-width:0.25;"/>
<line x1="181.250000" y1="100.000000" x2="181.250000" y2="88.000000"  style="stroke:black; stroke-linecap:round; stroke-width:0.25;"/>
<line x1="181.250000" y1="100.000000" x2="181.250000" y2="100.000000"  style="stroke:black; stroke-linecap:round; stroke-width:0.25;"/>
<line x1="189.250000" y1="68.000000" x2="189.250000" y2="80.000000"  style="stroke:black; stroke-linecap:round; stroke-width:0.25;"/>
<line x1="189.250000" y1="80.000000" x2="189.250000" y2="80.000000"  style="stroke:black; stroke-linecap:round; stroke-width:0.25;"/>
<line x1="189.250000" y1="80.000000" x2="193.250000" y2="80.000000"  style="stroke:black; stroke-linecap:round; stroke-width:0.25;"/>
<line x1="189.250000" y1="88.000000" x2="193.250000" y2="88.000000"  style="stroke:black; stroke-linecap:round; stroke-width:0.25;"/>
<line x1="217.250000" y1="36.000000" x2="221.250000" y2="36.000000"  style="stroke:black; stroke-linecap:round; stroke-width:0.25;"/>
<line x1="217.250000" y1="84.000000" x2="221.250000" y2="84.000000"  style="stroke:black; stroke-linecap:round; stroke-width:0.25;"/>
<line x1="217.250000" y1="164.000000" x2="221.250000" y2="164.000000"  style="stroke:black; stroke-linecap:round; stroke-width:0.25;"/>
<line x1="217.250000" y1="196.000000" x2="221.250000" y2="196.000000"  style="stroke:black; stroke-linecap:round; stroke-width:0.25;"/>
<line x1="221.250000" y1="36.000000" x2="390.500000" y2="36.000000"  style="stroke:black; stroke-linecap:round; stroke-width:0.25;"/>
<line x1="221.250000" y1="84.000000" x2="350.500000" y2="84.000000"  style="stroke:black; stroke-linecap:round; stroke-width:0.25;"/>
<line x1="221.250000" y1="164.000000" x2="229.250000" y2="164.000000"  style="stroke:black; stroke-linecap:round; stroke-width:0.25;"/>
<line x1="221.250000" y1="184.000000" x2="229.250000" y2="184.000000"  style="stroke:black; stroke-linecap:round; stroke-width:0.25;"/>
<line x1="221.250000" y1="196.000000" x2="221.250000" y2="184.000000"  style="stroke:black; stroke-linecap:round; stroke-width:0.25;"/>
<line x1="221.250000" y1="196.000000" x2="221.250000" y2="196.000000"  style="stroke:black; stroke-linecap:round; stroke-width:0.25;"/>
<line x1="229.250000" y1="164.000000" x2="229.250000" y2="176.000000"  style="stroke:black; stroke-linecap:round; stroke-width:0.25;"/>
<line x1="229.250000" y1="176.000000" x2="229.250000" y2="176.000000"  style="stroke:black; stroke-linecap:round; stroke-width:0.25;"/>
<line x1="229.250000" y1="176.000000" x2="233.250000" y2="176.000000"  style="stroke:black; stroke-linecap:round; stroke-width:0.25;"/>
<line x1="229.250000" y1="184.000000" x2="233.250000" y2="184.000000"  style="stroke:black; stroke-linecap:round; stroke-width:0.25;"/>
<line x1="257.250000" y1="180.000000" x2="261.250000" y2="180.000000"  style="stroke:black; stroke-linecap:round; stroke-width:0.25;"/>
<line x1="261.250000" y1="180.000000" x2="430.500000" y2="180.000000"  style="stroke:black; stroke-linecap:round; stroke-width:0.25;"/>
<line x1="346.500000" y1="132.000000" x2="350.500000" y2="132.000000"  style="stroke:black; stroke-linecap:round; stroke-width:0.25;"/>
<line x1="350.500000" y1="84.000000" x2="358.500000" y2="84.000000"  style="stroke:black; stroke-linecap:round; stroke-width:0.25;"/>
<line x1="350.500000" y1="104.000000" x2="358.500000" y2="104.000000"  style="stroke:black; stroke-linecap:round; stroke-width:0.25;"/>
<line x1="350.500000" y1="132.000000" x2="350.500000" y2="104.000000"  style="stroke:black; stroke-linecap:round; stroke-width:0.25;"/>
<line x1="350.500000" y1="132.000000" x2="350.500000" y2="132.000000"  style="stroke:black; stroke-linecap:round; stroke-width:0.25;"/>
<line x1="358.500000" y1="84.000000" x2="358.500000" y2="96.000000"  style="stroke:black; stroke-linecap:round; stroke-width:0.25;"/>
<line x1="358.500000" y1="96.000000" x2="358.500000" y2="96.000000"  style="stroke:black; stroke-linecap:round; stroke-width:0.25;"/>
<line x1="358.500000" y1="96.000000" x2="362.500000" y2="96.000000"  style="stroke:black; stroke-linecap:round; stroke-width:0.25;"/>
<line x1="358.500000" y1="104.000000" x2="362.500000" y2="104.000000"  style="stroke:black; stroke-linecap:round; stroke-width:0.25;"/>
<line x1="386.500000" y1="100.000000" x2="390.500000" y2="100.000000"  style="stroke:black; stroke-linecap:round; stroke-width:0.25;"/>
<line x1="390.500000" y1="36.000000" x2="398.500000" y2="36.000000"  style="stroke:black; stroke-linecap:round; stroke-width:0.25;"/>
<line x1="390.500000" y1="88.000000" x2="398.500000" y2="88.000000"  style="stroke:black; stroke-linecap:round; stroke-width:0.25;"/>
<line x1="390.500000" y1="100.000000" x2="390.500000" y2="88.000000"  style="stroke:black; stroke-linecap:round; stroke-width:0.25;"/>
<line x1="390.500000" y1="100.000000" x2="390.500000" y2="100.000000"  style="stroke:black; stroke-linecap:round; stroke-width:0.25;"/>
<line x1="398.500000" y1="36.000000" x2="398.500000" y2="80.000000"  style="stroke:black; stroke-linecap:round; stroke-width:0.25;"/>
<line x1="398.500000" y1="80.000000" x2="398.500000" y2="80.000000"  style="stroke:black; stroke-linecap:round; stroke-width:0.25;"/>
<line x1="398.500000" y1="80.000000" x2="402.500000" y2="80.000000"  style="stroke:black; stroke-linecap:round; stroke-width:0.25;"/>
<line x1="398.500000" y1="88.000000" x2="402.500000" y2="88.000000"  style="stroke:black; stroke-linecap:round; stroke-width:0.25;"/>
<line x1="426.500000" y1="84.000000" x2="430.500000" y2="84.000000"  style="stroke:black; stroke-linecap:round; stroke-width:0.25;"/>
<line x1="430.500000" y1="84.000000" x2="438.500000" y2="84.000000"  style="stroke:black; stroke-linecap:round; stroke-width:0.25;"/>
<line x1="430.500000" y1="120.000000" x2="438.500000" y2="120.000000"  style="stroke:black; stroke-linecap:round; stroke-width:0.25;"/>
<line x1="430.500000" y1="180.000000" x2="430.500000" y2="120.000000"  style="stroke:black; stroke-linecap:round; stroke-width:0.25;"/>
<line x1="430.500000" y1="180.000000" x2="430.500000" y2="180.000000"  style="stroke:black; stroke-linecap:round; stroke-width:0.25;"/>
<line x1="438.500000" y1="84.000000" x2="438.500000" y2="112.000000"  style="stroke:black; stroke-linecap:round; stroke-width:0.25;"/>
<line x1="438.500000" y1="112.000000" x2="438.500000" y2="112.000000"  style="stroke:black; stroke-linecap:round; stroke-width:0.25;"/>
<line x1="438.500000" y1="112.000000" x2="442.500000" y2="112.000000"  style="stroke:black; stroke-linecap:round; stroke-width:0.25;"/>
<line x1="438.500000" y1="120.000000" x2="442.500000" y2="120.000000"  style="stroke:black; stroke-linecap:round; stroke-width:0.25;"/>
<line x1="466.500000" y1="116.000000" x2="470.500000" y2="116.000000"  style="stroke:black; stroke-linecap:round; stroke-width:0.25;"/>
<line x1="470.500000" y1="116.000000" x2="470.500000" y2="116.000000"  style="stroke:black; stroke-linecap:round; stroke-width:0.25;"/>
<line x1="470.500000" y1="116.000000" x2="474.500000" y2="116.000000"  style="stroke:black; stroke-linecap:round; stroke-width:0.25;"/>
<line x1="474.500000" y1="116.000000" x2="478.500000" y2="116.000000"  style="stroke:black; stroke-linecap:round; stroke-width:0.25;"/>
<line x1="478.500000" y1="116.000000" x2="488.500000" y2="116.000000"  style="stroke:black; stroke-linecap:round; stroke-width:0.25;"/>
</svg>
