<?xml version="1.0"?>
<svg xmlns="http://www.w3.org/2000/svg" xmlns:xlink="http://www.w3.org/1999/xlink" viewBox="0 0 361.500000 156.000000" width="180.750000mm" height="78.000000mm" version="1.1">
<a xlink:href="conv3-0x7f8ae1536340.svg">
<rect x="1.000000" y="1.000000" width="360.500000" height="155.000000" rx="0" ry="0" style="stroke:none;fill:#cccccc;"/>
<rect x="0.000000" y="0.000000" width="360.500000" height="155.000000" rx="0" ry="0" style="stroke:none;fill:#ffffff;"/>
</a>
<text x="10.000000" y="7.000000" font-family="Arial" font-size="7"></text>
<rect x="102.400000" y="35.000000" width="38.700000" height="24.000000" rx="0" ry="0" style="stroke:none;fill:#cccccc;"/>
<rect x="101.400000" y="34.000000" width="38.700000" height="24.000000" rx="0" ry="0" style="stroke:none;fill:#f44800;"/>
<text x="120.750000" y="48.000000" font-family="Arial" font-size="7" text-anchor="middle" fill="#FFFFFF">3.14159</text>
<circle cx="103.400000" cy="36.000000" r="1"/>
<line x1="92.400000" y1="25.000000" x2="92.400000" y2="67.000000"  style="stroke: black; stroke-linecap:round; stroke-width:0.25; stroke-dasharray:3,3;"/>
<line x1="92.400000" y1="67.000000" x2="149.100000" y2="67.000000"  style="stroke: black; stroke-linecap:round; stroke-width:0.25; stroke-dasharray:3,3;"/>
<line x1="149.100000" y1="67.000000" x2="149.100000" y2="25.000000"  style="stroke: black; stroke-linecap:round; stroke-width:0.25; stroke-dasharray:3,3;"/>
<line x1="92.400000" y1="25.000000" x2="97.400000" y2="25.000000"  style="stroke: black; stroke-linecap:round; stroke-width:0.25; stroke-dasharray:3,3;"/>
<line x1="110.300000" y1="25.000000" x2="149.100000" y2="25.000000"  style="stroke: black; stroke-linecap:round; stroke-width:0.25; stroke-dasharray:3,3;"/>
<text x="97.400000" y="27.000000" font-family="Arial" font-size="7">PI</text>
<rect x="25.000000" y="77.000000" width="193.500000" height="24.000000" rx="0" ry="0" style="stroke:none;fill:#cccccc;"/>
<rect x="24.000000" y="76.000000" width="193.500000" height="24.000000" rx="0" ry="0" style="stroke:none;fill:#477881;"/>
<text x="120.750000" y="90.000000" font-family="Arial" font-size="7" text-anchor="middle" fill="#FFFFFF">nentry(freq, 1000.0f, 20.0f, 20000.0f, 1.0f)</text>
<circle cx="26.000000" cy="78.000000" r="1"/>
<rect x="234.500000" y="51.000000" width="24.000000" height="24.000000" rx="0" ry="0" style="stroke:none;fill:#cccccc;"/>
<rect x="233.500000" y="50.000000" width="24.000000" height="24.000000" rx="0" ry="0" style="stroke:none;fill:#4B71A1;"/>
<text x="245.500000" y="64.000000" font-family="Arial" font-size="7" text-anchor="middle" fill="#FFFFFF">*</text>
<circle cx="235.500000" cy="52.000000" r="1"/>
<line x1="230.500000" y1="57.000000" x2="233.500000" y2="58.000000"  transform="rotate(0.000000,233.500000,58.000000)" style="stroke: black; stroke-width:0.25;"/>
<line x1="230.500000" y1="59.000000" x2="233.500000" y2="58.000000"  transform="rotate(0.000000,233.500000,58.000000)" style="stroke: black; stroke-width:0.25;"/>
<line x1="230.500000" y1="65.000000" x2="233.500000" y2="66.000000"  transform="rotate(0.000000,233.500000,66.000000)" style="stroke: black; stroke-width:0.25;"/>
<line x1="230.500000" y1="67.000000" x2="233.500000" y2="66.000000"  transform="rotate(0.000000,233.500000,66.000000)" style="stroke: black; stroke-width:0.25;"/>
<a xlink:href="SR-0x7f8ae1420060.svg">
<rect x="129.750000" y="109.000000" width="24.000000" height="24.000000" rx="0" ry="0" style="stroke:none;fill:#cccccc;"/>
<rect x="128.750000" y="108.000000" width="24.000000" height="24.000000" rx="0" ry="0" style="stroke:none;fill:#003366;"/>
</a>
<a xlink:href="SR-0x7f8ae1420060.svg">
<text x="140.750000" y="122.000000" font-family="Arial" font-size="7" text-anchor="middle" fill="#FFFFFF">SR</text>
</a>
<circle cx="130.750000" cy="110.000000" r="1"/>
<rect x="274.500000" y="67.000000" width="24.000000" height="24.000000" rx="0" ry="0" style="stroke:none;fill:#cccccc;"/>
<rect x="273.500000" y="66.000000" width="24.000000" height="24.000000" rx="0" ry="0" style="stroke:none;fill:#4B71A1;"/>
<text x="285.500000" y="80.000000" font-family="Arial" font-size="7" text-anchor="middle" fill="#FFFFFF">/</text>
<circle cx="275.500000" cy="68.000000" r="1"/>
<line x1="270.500000" y1="73.000000" x2="273.500000" y2="74.000000"  transform="rotate(0.000000,273.500000,74.000000)" style="stroke: black; stroke-width:0.25;"/>
<line x1="270.500000" y1="75.000000" x2="273.500000" y2="74.000000"  transform="rotate(0.000000,273.500000,74.000000)" style="stroke: black; stroke-width:0.25;"/>
<line x1="270.500000" y1="81.000000" x2="273.500000" y2="82.000000"  transform="rotate(0.000000,273.500000,82.000000)" style="stroke: black; stroke-width:0.25;"/>
<line x1="270.500000" y1="83.000000" x2="273.500000" y2="82.000000"  transform="rotate(0.000000,273.500000,82.000000)" style="stroke: black; stroke-width:0.25;"/>
<rect x="306.500000" y="67.000000" width="24.000000" height="24.000000" rx="0" ry="0" style="stroke:none;fill:#cccccc;"/>
<rect x="305.500000" y="66.000000" width="24.000000" height="24.000000" rx="0" ry="0" style="stroke:none;fill:#4B71A1;"/>
<text x="317.500000" y="80.000000" font-family="Arial" font-size="7" text-anchor="middle" fill="#FFFFFF">tan</text>
<circle cx="307.500000" cy="68.000000" r="1"/>
<line x1="302.500000" y1="77.000000" x2="305.500000" y2="78.000000"  transform="rotate(0.000000,305.500000,78.000000)" style="stroke: black; stroke-width:0.25;"/>
<line x1="302.500000" y1="79.000000" x2="305.500000" y2="78.000000"  transform="rotate(0.000000,305.500000,78.000000)" style="stroke: black; stroke-width:0.25;"/>
<line x1="15.000000" y1="15.000000" x2="15.000000" y2="141.000000"  style="stroke: black; stroke-linecap:round; stroke-width:0.25; stroke-dasharray:3,3;"/>
<line x1="15.000000" y1="141.000000" x2="346.500000" y2="141.000000"  style="stroke: black; stroke-linecap:round; stroke-width:0.25; stroke-dasharray:3,3;"/>
<line x1="346.500000" y1="141.000000" x2="346.500000" y2="15.000000"  style="stroke: black; stroke-linecap:round; stroke-width:0.25; stroke-dasharray:3,3;"/>
<line x1="15.000000" y1="15.000000" x2="20.000000" y2="15.000000"  style="stroke: black; stroke-linecap:round; stroke-width:0.25; stroke-dasharray:3,3;"/>
<line x1="29.675000" y1="15.000000" x2="346.500000" y2="15.000000"  style="stroke: black; stroke-linecap:round; stroke-width:0.25; stroke-dasharray:3,3;"/>
<text x="20.000000" y="17.000000" font-family="Arial" font-size="7">K</text>
<line x1="348.500000" y1="77.000000" x2="351.500000" y2="78.000000"  transform="rotate(0.000000,351.500000,78.000000)" style="stroke: black; stroke-width:0.25;"/>
<line x1="348.500000" y1="79.000000" x2="351.500000" y2="78.000000"  transform="rotate(0.000000,351.500000,78.000000)" style="stroke: black; stroke-width:0.25;"/>
<line x1="140.100000" y1="46.000000" x2="144.100000" y2="46.000000"  style="stroke:black; stroke-linecap:round; stroke-width:0.25;"/>
<line x1="144.100000" y1="46.000000" x2="154.100000" y2="46.000000"  style="stroke:black; stroke-linecap:round; stroke-width:0.25;"/>
<line x1="152.750000" y1="120.000000" x2="156.750000" y2="120.000000"  style="stroke:black; stroke-linecap:round; stroke-width:0.25;"/>
<line x1="154.100000" y1="46.000000" x2="221.500000" y2="46.000000"  style="stroke:black; stroke-linecap:round; stroke-width:0.25;"/>
<line x1="156.750000" y1="120.000000" x2="261.500000" y2="120.000000"  style="stroke:black; stroke-linecap:round; stroke-width:0.25;"/>
<line x1="217.500000" y1="88.000000" x2="221.500000" y2="88.000000"  style="stroke:black; stroke-linecap:round; stroke-width:0.25;"/>
<line x1="221.500000" y1="46.000000" x2="229.500000" y2="46.000000"  style="stroke:black; stroke-linecap:round; stroke-width:0.25;"/>
<line x1="221.500000" y1="66.000000" x2="229.500000" y2="66.000000"  style="stroke:black; stroke-linecap:round; stroke-width:0.25;"/>
<line x1="221.500000" y1="88.000000" x2="221.500000" y2="66.000000"  style="stroke:black; stroke-linecap:round; stroke-width:0.25;"/>
<line x1="221.500000" y1="88.000000" x2="221.500000" y2="88.000000"  style="stroke:black; stroke-linecap:round; stroke-width:0.25;"/>
<line x1="229.500000" y1="46.000000" x2="229.500000" y2="58.000000"  style="stroke:black; stroke-linecap:round; stroke-width:0.25;"/>
<line x1="229.500000" y1="58.000000" x2="229.500000" y2="58.000000"  style="stroke:black; stroke-linecap:round; stroke-width:0.25;"/>
<line x1="229.500000" y1="58.000000" x2="233.500000" y2="58.000000"  style="stroke:black; stroke-linecap:round; stroke-width:0.25;"/>
<line x1="229.500000" y1="66.000000" x2="233.500000" y2="66.000000"  style="stroke:black; stroke-linecap:round; stroke-width:0.25;"/>
<line x1="257.500000" y1="62.000000" x2="261.500000" y2="62.000000"  style="stroke:black; stroke-linecap:round; stroke-width:0.25;"/>
<line x1="261.500000" y1="62.000000" x2="269.500000" y2="62.000000"  style="stroke:black; stroke-linecap:round; stroke-width:0.25;"/>
<line x1="261.500000" y1="82.000000" x2="269.500000" y2="82.000000"  style="stroke:black; stroke-linecap:round; stroke-width:0.25;"/>
<line x1="261.500000" y1="120.000000" x2="261.500000" y2="82.000000"  style="stroke:black; stroke-linecap:round; stroke-width:0.25;"/>
<line x1="261.500000" y1="120.000000" x2="261.500000" y2="120.000000"  style="stroke:black; stroke-linecap:round; stroke-width:0.25;"/>
<line x1="269.500000" y1="62.000000" x2="269.500000" y2="74.000000"  style="stroke:black; stroke-linecap:round; stroke-width:0.25;"/>
<line x1="269.500000" y1="74.000000" x2="269.500000" y2="74.000000"  style="stroke:black; stroke-linecap:round; stroke-width:0.25;"/>
<line x1="269.500000" y1="74.000000" x2="273.500000" y2="74.000000"  style="stroke:black; stroke-linecap:round; stroke-width:0.25;"/>
<line x1="269.500000" y1="82.000000" x2="273.500000" y2="82.000000"  style="stroke:black; stroke-linecap:round; stroke-width:0.25;"/>
<line x1="297.500000" y1="78.000000" x2="301.500000" y2="78.000000"  style="stroke:black; stroke-linecap:round; stroke-width:0.25;"/>
<line x1="301.500000" y1="78.000000" x2="301.500000" y2="78.000000"  style="stroke:black; stroke-linecap:round; stroke-width:0.25;"/>
<line x1="301.500000" y1="78.000000" x2="305.500000" y2="78.000000"  style="stroke:black; stroke-linecap:round; stroke-width:0.25;"/>
<line x1="329.500000" y1="78.000000" x2="333.500000" y2="78.000000"  style="stroke:black; stroke-linecap:round; stroke-width:0.25;"/>
<line x1="333.500000" y1="78.000000" x2="333.500000" y2="78.000000"  style="stroke:black; stroke-linecap:round; stroke-width:0.25;"/>
<line x1="333.500000" y1="78.000000" x2="337.500000" y2="78.000000"  style="stroke:black; stroke-linecap:round; stroke-width:0.25;"/>
<line x1="337.500000" y1="78.000000" x2="341.500000" y2="78.000000"  style="stroke:black; stroke-linecap:round; stroke-width:0.25;"/>
<line x1="341.500000" y1="78.000000" x2="351.500000" y2="78.000000"  style="stroke:black; stroke-linecap:round; stroke-width:0.25;"/>
</svg>
