<?xml version="1.0"?>
<svg xmlns="http://www.w3.org/2000/svg" xmlns:xlink="http://www.w3.org/1999/xlink" viewBox="0 0 382.800000 352.000000" width="191.400000mm" height="176.000000mm" version="1.1">
<a xlink:href="LPcutoff-0x7f96ca1e8740.svg">
<rect x="1.000000" y="1.000000" width="381.800000" height="351.000000" rx="0" ry="0" style="stroke:none;fill:#cccccc;"/>
<rect x="0.000000" y="0.000000" width="381.800000" height="351.000000" rx="0" ry="0" style="stroke:none;fill:#ffffff;"/>
</a>
<text x="10.000000" y="7.000000" font-family="Arial" font-size="7"></text>
<rect x="35.000000" y="35.000000" width="154.800000" height="24.000000" rx="0" ry="0" style="stroke:none;fill:#cccccc;"/>
<rect x="34.000000" y="34.000000" width="154.800000" height="24.000000" rx="0" ry="0" style="stroke:none;fill:#477881;"/>
<text x="111.400000" y="48.000000" font-family="Arial" font-size="7" text-anchor="middle" fill="#FFFFFF">hslider(x, 1.0f, 0.0f, 1.0f, 0.001f)</text>
<circle cx="36.000000" cy="36.000000" r="1"/>
<line x1="25.000000" y1="25.000000" x2="25.000000" y2="67.000000"  style="stroke: black; stroke-linecap:round; stroke-width:0.25; stroke-dasharray:3,3;"/>
<line x1="25.000000" y1="67.000000" x2="197.800000" y2="67.000000"  style="stroke: black; stroke-linecap:round; stroke-width:0.25; stroke-dasharray:3,3;"/>
<line x1="197.800000" y1="67.000000" x2="197.800000" y2="25.000000"  style="stroke: black; stroke-linecap:round; stroke-width:0.25; stroke-dasharray:3,3;"/>
<line x1="25.000000" y1="25.000000" x2="30.000000" y2="25.000000"  style="stroke: black; stroke-linecap:round; stroke-width:0.25; stroke-dasharray:3,3;"/>
<line x1="39.675000" y1="25.000000" x2="197.800000" y2="25.000000"  style="stroke: black; stroke-linecap:round; stroke-width:0.25; stroke-dasharray:3,3;"/>
<text x="30.000000" y="27.000000" font-family="Arial" font-size="7">x</text>
<rect x="100.400000" y="87.000000" width="24.000000" height="24.000000" rx="0" ry="0" style="stroke:none;fill:#cccccc;"/>
<rect x="99.400000" y="86.000000" width="24.000000" height="24.000000" rx="0" ry="0" style="stroke:none;fill:#f44800;"/>
<text x="111.400000" y="100.000000" font-family="Arial" font-size="7" text-anchor="middle" fill="#FFFFFF">2</text>
<circle cx="101.400000" cy="88.000000" r="1"/>
<line x1="90.400000" y1="77.000000" x2="90.400000" y2="119.000000"  style="stroke: black; stroke-linecap:round; stroke-width:0.25; stroke-dasharray:3,3;"/>
<line x1="90.400000" y1="119.000000" x2="132.400000" y2="119.000000"  style="stroke: black; stroke-linecap:round; stroke-width:0.25; stroke-dasharray:3,3;"/>
<line x1="132.400000" y1="119.000000" x2="132.400000" y2="77.000000"  style="stroke: black; stroke-linecap:round; stroke-width:0.25; stroke-dasharray:3,3;"/>
<line x1="90.400000" y1="77.000000" x2="95.400000" y2="77.000000"  style="stroke: black; stroke-linecap:round; stroke-width:0.25; stroke-dasharray:3,3;"/>
<line x1="114.750000" y1="77.000000" x2="132.400000" y2="77.000000"  style="stroke: black; stroke-linecap:round; stroke-width:0.25; stroke-dasharray:3,3;"/>
<text x="95.400000" y="79.000000" font-family="Arial" font-size="7">gain</text>
<rect x="215.800000" y="61.000000" width="24.000000" height="24.000000" rx="0" ry="0" style="stroke:none;fill:#cccccc;"/>
<rect x="214.800000" y="60.000000" width="24.000000" height="24.000000" rx="0" ry="0" style="stroke:none;fill:#4B71A1;"/>
<text x="226.800000" y="74.000000" font-family="Arial" font-size="7" text-anchor="middle" fill="#FFFFFF">*</text>
<circle cx="216.800000" cy="62.000000" r="1"/>
<line x1="211.800000" y1="67.000000" x2="214.800000" y2="68.000000"  transform="rotate(0.000000,214.800000,68.000000)" style="stroke: black; stroke-width:0.25;"/>
<line x1="211.800000" y1="69.000000" x2="214.800000" y2="68.000000"  transform="rotate(0.000000,214.800000,68.000000)" style="stroke: black; stroke-width:0.25;"/>
<line x1="211.800000" y1="75.000000" x2="214.800000" y2="76.000000"  transform="rotate(0.000000,214.800000,76.000000)" style="stroke: black; stroke-width:0.25;"/>
<line x1="211.800000" y1="77.000000" x2="214.800000" y2="76.000000"  transform="rotate(0.000000,214.800000,76.000000)" style="stroke: black; stroke-width:0.25;"/>
<rect x="120.400000" y="139.000000" width="24.000000" height="24.000000" rx="0" ry="0" style="stroke:none;fill:#cccccc;"/>
<rect x="119.400000" y="138.000000" width="24.000000" height="24.000000" rx="0" ry="0" style="stroke:none;fill:#f44800;"/>
<text x="131.400000" y="152.000000" font-family="Arial" font-size="7" text-anchor="middle" fill="#FFFFFF">1</text>
<circle cx="121.400000" cy="140.000000" r="1"/>
<line x1="110.400000" y1="129.000000" x2="110.400000" y2="171.000000"  style="stroke: black; stroke-linecap:round; stroke-width:0.25; stroke-dasharray:3,3;"/>
<line x1="110.400000" y1="171.000000" x2="152.400000" y2="171.000000"  style="stroke: black; stroke-linecap:round; stroke-width:0.25; stroke-dasharray:3,3;"/>
<line x1="152.400000" y1="171.000000" x2="152.400000" y2="129.000000"  style="stroke: black; stroke-linecap:round; stroke-width:0.25; stroke-dasharray:3,3;"/>
<line x1="110.400000" y1="129.000000" x2="115.400000" y2="129.000000"  style="stroke: black; stroke-linecap:round; stroke-width:0.25; stroke-dasharray:3,3;"/>
<line x1="128.300000" y1="129.000000" x2="152.400000" y2="129.000000"  style="stroke: black; stroke-linecap:round; stroke-width:0.25; stroke-dasharray:3,3;"/>
<text x="115.400000" y="131.000000" font-family="Arial" font-size="7">b0</text>
<rect x="255.800000" y="87.000000" width="24.000000" height="24.000000" rx="0" ry="0" style="stroke:none;fill:#cccccc;"/>
<rect x="254.800000" y="86.000000" width="24.000000" height="24.000000" rx="0" ry="0" style="stroke:none;fill:#4B71A1;"/>
<text x="266.800000" y="100.000000" font-family="Arial" font-size="7" text-anchor="middle" fill="#FFFFFF">-</text>
<circle cx="256.800000" cy="88.000000" r="1"/>
<line x1="251.800000" y1="93.000000" x2="254.800000" y2="94.000000"  transform="rotate(0.000000,254.800000,94.000000)" style="stroke: black; stroke-width:0.25;"/>
<line x1="251.800000" y1="95.000000" x2="254.800000" y2="94.000000"  transform="rotate(0.000000,254.800000,94.000000)" style="stroke: black; stroke-width:0.25;"/>
<line x1="251.800000" y1="101.000000" x2="254.800000" y2="102.000000"  transform="rotate(0.000000,254.800000,102.000000)" style="stroke: black; stroke-width:0.25;"/>
<line x1="251.800000" y1="103.000000" x2="254.800000" y2="102.000000"  transform="rotate(0.000000,254.800000,102.000000)" style="stroke: black; stroke-width:0.25;"/>
<rect x="287.800000" y="87.000000" width="24.000000" height="24.000000" rx="0" ry="0" style="stroke:none;fill:#cccccc;"/>
<rect x="286.800000" y="86.000000" width="24.000000" height="24.000000" rx="0" ry="0" style="stroke:none;fill:#4B71A1;"/>
<text x="298.800000" y="100.000000" font-family="Arial" font-size="7" text-anchor="middle" fill="#FFFFFF">abs</text>
<circle cx="288.800000" cy="88.000000" r="1"/>
<line x1="283.800000" y1="97.000000" x2="286.800000" y2="98.000000"  transform="rotate(0.000000,286.800000,98.000000)" style="stroke: black; stroke-width:0.25;"/>
<line x1="283.800000" y1="99.000000" x2="286.800000" y2="98.000000"  transform="rotate(0.000000,286.800000,98.000000)" style="stroke: black; stroke-width:0.25;"/>
<rect x="35.000000" y="191.000000" width="154.800000" height="24.000000" rx="0" ry="0" style="stroke:none;fill:#cccccc;"/>
<rect x="34.000000" y="190.000000" width="154.800000" height="24.000000" rx="0" ry="0" style="stroke:none;fill:#477881;"/>
<text x="111.400000" y="204.000000" font-family="Arial" font-size="7" text-anchor="middle" fill="#FFFFFF">hslider(y, 1.0f, 0.0f, 1.0f, 0.001f)</text>
<circle cx="36.000000" cy="192.000000" r="1"/>
<line x1="25.000000" y1="181.000000" x2="25.000000" y2="223.000000"  style="stroke: black; stroke-linecap:round; stroke-width:0.25; stroke-dasharray:3,3;"/>
<line x1="25.000000" y1="223.000000" x2="197.800000" y2="223.000000"  style="stroke: black; stroke-linecap:round; stroke-width:0.25; stroke-dasharray:3,3;"/>
<line x1="197.800000" y1="223.000000" x2="197.800000" y2="181.000000"  style="stroke: black; stroke-linecap:round; stroke-width:0.25; stroke-dasharray:3,3;"/>
<line x1="25.000000" y1="181.000000" x2="30.000000" y2="181.000000"  style="stroke: black; stroke-linecap:round; stroke-width:0.25; stroke-dasharray:3,3;"/>
<line x1="39.675000" y1="181.000000" x2="197.800000" y2="181.000000"  style="stroke: black; stroke-linecap:round; stroke-width:0.25; stroke-dasharray:3,3;"/>
<text x="30.000000" y="183.000000" font-family="Arial" font-size="7">y</text>
<rect x="100.400000" y="243.000000" width="24.000000" height="24.000000" rx="0" ry="0" style="stroke:none;fill:#cccccc;"/>
<rect x="99.400000" y="242.000000" width="24.000000" height="24.000000" rx="0" ry="0" style="stroke:none;fill:#f44800;"/>
<text x="111.400000" y="256.000000" font-family="Arial" font-size="7" text-anchor="middle" fill="#FFFFFF">2</text>
<circle cx="101.400000" cy="244.000000" r="1"/>
<line x1="90.400000" y1="233.000000" x2="90.400000" y2="275.000000"  style="stroke: black; stroke-linecap:round; stroke-width:0.25; stroke-dasharray:3,3;"/>
<line x1="90.400000" y1="275.000000" x2="132.400000" y2="275.000000"  style="stroke: black; stroke-linecap:round; stroke-width:0.25; stroke-dasharray:3,3;"/>
<line x1="132.400000" y1="275.000000" x2="132.400000" y2="233.000000"  style="stroke: black; stroke-linecap:round; stroke-width:0.25; stroke-dasharray:3,3;"/>
<line x1="90.400000" y1="233.000000" x2="95.400000" y2="233.000000"  style="stroke: black; stroke-linecap:round; stroke-width:0.25; stroke-dasharray:3,3;"/>
<line x1="114.750000" y1="233.000000" x2="132.400000" y2="233.000000"  style="stroke: black; stroke-linecap:round; stroke-width:0.25; stroke-dasharray:3,3;"/>
<text x="95.400000" y="235.000000" font-family="Arial" font-size="7">gain</text>
<rect x="215.800000" y="217.000000" width="24.000000" height="24.000000" rx="0" ry="0" style="stroke:none;fill:#cccccc;"/>
<rect x="214.800000" y="216.000000" width="24.000000" height="24.000000" rx="0" ry="0" style="stroke:none;fill:#4B71A1;"/>
<text x="226.800000" y="230.000000" font-family="Arial" font-size="7" text-anchor="middle" fill="#FFFFFF">*</text>
<circle cx="216.800000" cy="218.000000" r="1"/>
<line x1="211.800000" y1="223.000000" x2="214.800000" y2="224.000000"  transform="rotate(0.000000,214.800000,224.000000)" style="stroke: black; stroke-width:0.25;"/>
<line x1="211.800000" y1="225.000000" x2="214.800000" y2="224.000000"  transform="rotate(0.000000,214.800000,224.000000)" style="stroke: black; stroke-width:0.25;"/>
<line x1="211.800000" y1="231.000000" x2="214.800000" y2="232.000000"  transform="rotate(0.000000,214.800000,232.000000)" style="stroke: black; stroke-width:0.25;"/>
<line x1="211.800000" y1="233.000000" x2="214.800000" y2="232.000000"  transform="rotate(0.000000,214.800000,232.000000)" style="stroke: black; stroke-width:0.25;"/>
<rect x="120.400000" y="295.000000" width="24.000000" height="24.000000" rx="0" ry="0" style="stroke:none;fill:#cccccc;"/>
<rect x="119.400000" y="294.000000" width="24.000000" height="24.000000" rx="0" ry="0" style="stroke:none;fill:#f44800;"/>
<text x="131.400000" y="308.000000" font-family="Arial" font-size="7" text-anchor="middle" fill="#FFFFFF">1</text>
<circle cx="121.400000" cy="296.000000" r="1"/>
<line x1="110.400000" y1="285.000000" x2="110.400000" y2="327.000000"  style="stroke: black; stroke-linecap:round; stroke-width:0.25; stroke-dasharray:3,3;"/>
<line x1="110.400000" y1="327.000000" x2="152.400000" y2="327.000000"  style="stroke: black; stroke-linecap:round; stroke-width:0.25; stroke-dasharray:3,3;"/>
<line x1="152.400000" y1="327.000000" x2="152.400000" y2="285.000000"  style="stroke: black; stroke-linecap:round; stroke-width:0.25; stroke-dasharray:3,3;"/>
<line x1="110.400000" y1="285.000000" x2="115.400000" y2="285.000000"  style="stroke: black; stroke-linecap:round; stroke-width:0.25; stroke-dasharray:3,3;"/>
<line x1="128.300000" y1="285.000000" x2="152.400000" y2="285.000000"  style="stroke: black; stroke-linecap:round; stroke-width:0.25; stroke-dasharray:3,3;"/>
<text x="115.400000" y="287.000000" font-family="Arial" font-size="7">b0</text>
<rect x="255.800000" y="243.000000" width="24.000000" height="24.000000" rx="0" ry="0" style="stroke:none;fill:#cccccc;"/>
<rect x="254.800000" y="242.000000" width="24.000000" height="24.000000" rx="0" ry="0" style="stroke:none;fill:#4B71A1;"/>
<text x="266.800000" y="256.000000" font-family="Arial" font-size="7" text-anchor="middle" fill="#FFFFFF">-</text>
<circle cx="256.800000" cy="244.000000" r="1"/>
<line x1="251.800000" y1="249.000000" x2="254.800000" y2="250.000000"  transform="rotate(0.000000,254.800000,250.000000)" style="stroke: black; stroke-width:0.25;"/>
<line x1="251.800000" y1="251.000000" x2="254.800000" y2="250.000000"  transform="rotate(0.000000,254.800000,250.000000)" style="stroke: black; stroke-width:0.25;"/>
<line x1="251.800000" y1="257.000000" x2="254.800000" y2="258.000000"  transform="rotate(0.000000,254.800000,258.000000)" style="stroke: black; stroke-width:0.25;"/>
<line x1="251.800000" y1="259.000000" x2="254.800000" y2="258.000000"  transform="rotate(0.000000,254.800000,258.000000)" style="stroke: black; stroke-width:0.25;"/>
<rect x="287.800000" y="243.000000" width="24.000000" height="24.000000" rx="0" ry="0" style="stroke:none;fill:#cccccc;"/>
<rect x="286.800000" y="242.000000" width="24.000000" height="24.000000" rx="0" ry="0" style="stroke:none;fill:#4B71A1;"/>
<text x="298.800000" y="256.000000" font-family="Arial" font-size="7" text-anchor="middle" fill="#FFFFFF">abs</text>
<circle cx="288.800000" cy="244.000000" r="1"/>
<line x1="283.800000" y1="253.000000" x2="286.800000" y2="254.000000"  transform="rotate(0.000000,286.800000,254.000000)" style="stroke: black; stroke-width:0.25;"/>
<line x1="283.800000" y1="255.000000" x2="286.800000" y2="254.000000"  transform="rotate(0.000000,286.800000,254.000000)" style="stroke: black; stroke-width:0.25;"/>
<rect x="327.800000" y="165.000000" width="24.000000" height="24.000000" rx="0" ry="0" style="stroke:none;fill:#cccccc;"/>
<rect x="326.800000" y="164.000000" width="24.000000" height="24.000000" rx="0" ry="0" style="stroke:none;fill:#4B71A1;"/>
<text x="338.800000" y="178.000000" font-family="Arial" font-size="7" text-anchor="middle" fill="#FFFFFF">min</text>
<circle cx="328.800000" cy="166.000000" r="1"/>
<line x1="323.800000" y1="171.000000" x2="326.800000" y2="172.000000"  transform="rotate(0.000000,326.800000,172.000000)" style="stroke: black; stroke-width:0.25;"/>
<line x1="323.800000" y1="173.000000" x2="326.800000" y2="172.000000"  transform="rotate(0.000000,326.800000,172.000000)" style="stroke: black; stroke-width:0.25;"/>
<line x1="323.800000" y1="179.000000" x2="326.800000" y2="180.000000"  transform="rotate(0.000000,326.800000,180.000000)" style="stroke: black; stroke-width:0.25;"/>
<line x1="323.800000" y1="181.000000" x2="326.800000" y2="180.000000"  transform="rotate(0.000000,326.800000,180.000000)" style="stroke: black; stroke-width:0.25;"/>
<line x1="15.000000" y1="15.000000" x2="15.000000" y2="337.000000"  style="stroke: black; stroke-linecap:round; stroke-width:0.25; stroke-dasharray:3,3;"/>
<line x1="15.000000" y1="337.000000" x2="367.800000" y2="337.000000"  style="stroke: black; stroke-linecap:round; stroke-width:0.25; stroke-dasharray:3,3;"/>
<line x1="367.800000" y1="337.000000" x2="367.800000" y2="15.000000"  style="stroke: black; stroke-linecap:round; stroke-width:0.25; stroke-dasharray:3,3;"/>
<line x1="15.000000" y1="15.000000" x2="20.000000" y2="15.000000"  style="stroke: black; stroke-linecap:round; stroke-width:0.25; stroke-dasharray:3,3;"/>
<line x1="42.575000" y1="15.000000" x2="367.800000" y2="15.000000"  style="stroke: black; stroke-linecap:round; stroke-width:0.25; stroke-dasharray:3,3;"/>
<text x="20.000000" y="17.000000" font-family="Arial" font-size="7">exPos</text>
<line x1="369.800000" y1="175.000000" x2="372.800000" y2="176.000000"  transform="rotate(0.000000,372.800000,176.000000)" style="stroke: black; stroke-width:0.25;"/>
<line x1="369.800000" y1="177.000000" x2="372.800000" y2="176.000000"  transform="rotate(0.000000,372.800000,176.000000)" style="stroke: black; stroke-width:0.25;"/>
<line x1="123.400000" y1="98.000000" x2="127.400000" y2="98.000000"  style="stroke:black; stroke-linecap:round; stroke-width:0.25;"/>
<line x1="123.400000" y1="254.000000" x2="127.400000" y2="254.000000"  style="stroke:black; stroke-linecap:round; stroke-width:0.25;"/>
<line x1="127.400000" y1="98.000000" x2="137.400000" y2="98.000000"  style="stroke:black; stroke-linecap:round; stroke-width:0.25;"/>
<line x1="127.400000" y1="254.000000" x2="137.400000" y2="254.000000"  style="stroke:black; stroke-linecap:round; stroke-width:0.25;"/>
<line x1="137.400000" y1="98.000000" x2="202.800000" y2="98.000000"  style="stroke:black; stroke-linecap:round; stroke-width:0.25;"/>
<line x1="137.400000" y1="254.000000" x2="202.800000" y2="254.000000"  style="stroke:black; stroke-linecap:round; stroke-width:0.25;"/>
<line x1="143.400000" y1="150.000000" x2="147.400000" y2="150.000000"  style="stroke:black; stroke-linecap:round; stroke-width:0.25;"/>
<line x1="143.400000" y1="306.000000" x2="147.400000" y2="306.000000"  style="stroke:black; stroke-linecap:round; stroke-width:0.25;"/>
<line x1="147.400000" y1="150.000000" x2="157.400000" y2="150.000000"  style="stroke:black; stroke-linecap:round; stroke-width:0.25;"/>
<line x1="147.400000" y1="306.000000" x2="157.400000" y2="306.000000"  style="stroke:black; stroke-linecap:round; stroke-width:0.25;"/>
<line x1="157.400000" y1="150.000000" x2="242.800000" y2="150.000000"  style="stroke:black; stroke-linecap:round; stroke-width:0.25;"/>
<line x1="157.400000" y1="306.000000" x2="242.800000" y2="306.000000"  style="stroke:black; stroke-linecap:round; stroke-width:0.25;"/>
<line x1="188.800000" y1="46.000000" x2="192.800000" y2="46.000000"  style="stroke:black; stroke-linecap:round; stroke-width:0.25;"/>
<line x1="188.800000" y1="202.000000" x2="192.800000" y2="202.000000"  style="stroke:black; stroke-linecap:round; stroke-width:0.25;"/>
<line x1="192.800000" y1="46.000000" x2="202.800000" y2="46.000000"  style="stroke:black; stroke-linecap:round; stroke-width:0.25;"/>
<line x1="192.800000" y1="202.000000" x2="202.800000" y2="202.000000"  style="stroke:black; stroke-linecap:round; stroke-width:0.25;"/>
<line x1="202.800000" y1="76.000000" x2="210.800000" y2="76.000000"  style="stroke:black; stroke-linecap:round; stroke-width:0.25;"/>
<line x1="202.800000" y1="98.000000" x2="202.800000" y2="76.000000"  style="stroke:black; stroke-linecap:round; stroke-width:0.25;"/>
<line x1="202.800000" y1="98.000000" x2="202.800000" y2="98.000000"  style="stroke:black; stroke-linecap:round; stroke-width:0.25;"/>
<line x1="202.800000" y1="232.000000" x2="210.800000" y2="232.000000"  style="stroke:black; stroke-linecap:round; stroke-width:0.25;"/>
<line x1="202.800000" y1="254.000000" x2="202.800000" y2="232.000000"  style="stroke:black; stroke-linecap:round; stroke-width:0.25;"/>
<line x1="202.800000" y1="254.000000" x2="202.800000" y2="254.000000"  style="stroke:black; stroke-linecap:round; stroke-width:0.25;"/>
<line x1="202.800000" y1="46.000000" x2="210.800000" y2="46.000000"  style="stroke:black; stroke-linecap:round; stroke-width:0.25;"/>
<line x1="202.800000" y1="202.000000" x2="210.800000" y2="202.000000"  style="stroke:black; stroke-linecap:round; stroke-width:0.25;"/>
<line x1="210.800000" y1="46.000000" x2="210.800000" y2="68.000000"  style="stroke:black; stroke-linecap:round; stroke-width:0.25;"/>
<line x1="210.800000" y1="68.000000" x2="210.800000" y2="68.000000"  style="stroke:black; stroke-linecap:round; stroke-width:0.25;"/>
<line x1="210.800000" y1="68.000000" x2="214.800000" y2="68.000000"  style="stroke:black; stroke-linecap:round; stroke-width:0.25;"/>
<line x1="210.800000" y1="76.000000" x2="214.800000" y2="76.000000"  style="stroke:black; stroke-linecap:round; stroke-width:0.25;"/>
<line x1="210.800000" y1="202.000000" x2="210.800000" y2="224.000000"  style="stroke:black; stroke-linecap:round; stroke-width:0.25;"/>
<line x1="210.800000" y1="224.000000" x2="210.800000" y2="224.000000"  style="stroke:black; stroke-linecap:round; stroke-width:0.25;"/>
<line x1="210.800000" y1="224.000000" x2="214.800000" y2="224.000000"  style="stroke:black; stroke-linecap:round; stroke-width:0.25;"/>
<line x1="210.800000" y1="232.000000" x2="214.800000" y2="232.000000"  style="stroke:black; stroke-linecap:round; stroke-width:0.25;"/>
<line x1="238.800000" y1="72.000000" x2="242.800000" y2="72.000000"  style="stroke:black; stroke-linecap:round; stroke-width:0.25;"/>
<line x1="238.800000" y1="228.000000" x2="242.800000" y2="228.000000"  style="stroke:black; stroke-linecap:round; stroke-width:0.25;"/>
<line x1="242.800000" y1="102.000000" x2="250.800000" y2="102.000000"  style="stroke:black; stroke-linecap:round; stroke-width:0.25;"/>
<line x1="242.800000" y1="150.000000" x2="242.800000" y2="102.000000"  style="stroke:black; stroke-linecap:round; stroke-width:0.25;"/>
<line x1="242.800000" y1="150.000000" x2="242.800000" y2="150.000000"  style="stroke:black; stroke-linecap:round; stroke-width:0.25;"/>
<line x1="242.800000" y1="258.000000" x2="250.800000" y2="258.000000"  style="stroke:black; stroke-linecap:round; stroke-width:0.25;"/>
<line x1="242.800000" y1="306.000000" x2="242.800000" y2="258.000000"  style="stroke:black; stroke-linecap:round; stroke-width:0.25;"/>
<line x1="242.800000" y1="306.000000" x2="242.800000" y2="306.000000"  style="stroke:black; stroke-linecap:round; stroke-width:0.25;"/>
<line x1="242.800000" y1="72.000000" x2="250.800000" y2="72.000000"  style="stroke:black; stroke-linecap:round; stroke-width:0.25;"/>
<line x1="242.800000" y1="228.000000" x2="250.800000" y2="228.000000"  style="stroke:black; stroke-linecap:round; stroke-width:0.25;"/>
<line x1="250.800000" y1="72.000000" x2="250.800000" y2="94.000000"  style="stroke:black; stroke-linecap:round; stroke-width:0.25;"/>
<line x1="250.800000" y1="94.000000" x2="250.800000" y2="94.000000"  style="stroke:black; stroke-linecap:round; stroke-width:0.25;"/>
<line x1="250.800000" y1="94.000000" x2="254.800000" y2="94.000000"  style="stroke:black; stroke-linecap:round; stroke-width:0.25;"/>
<line x1="250.800000" y1="102.000000" x2="254.800000" y2="102.000000"  style="stroke:black; stroke-linecap:round; stroke-width:0.25;"/>
<line x1="250.800000" y1="228.000000" x2="250.800000" y2="250.000000"  style="stroke:black; stroke-linecap:round; stroke-width:0.25;"/>
<line x1="250.800000" y1="250.000000" x2="250.800000" y2="250.000000"  style="stroke:black; stroke-linecap:round; stroke-width:0.25;"/>
<line x1="250.800000" y1="250.000000" x2="254.800000" y2="250.000000"  style="stroke:black; stroke-linecap:round; stroke-width:0.25;"/>
<line x1="250.800000" y1="258.000000" x2="254.800000" y2="258.000000"  style="stroke:black; stroke-linecap:round; stroke-width:0.25;"/>
<line x1="278.800000" y1="98.000000" x2="282.800000" y2="98.000000"  style="stroke:black; stroke-linecap:round; stroke-width:0.25;"/>
<line x1="278.800000" y1="254.000000" x2="282.800000" y2="254.000000"  style="stroke:black; stroke-linecap:round; stroke-width:0.25;"/>
<line x1="282.800000" y1="98.000000" x2="282.800000" y2="98.000000"  style="stroke:black; stroke-linecap:round; stroke-width:0.25;"/>
<line x1="282.800000" y1="98.000000" x2="286.800000" y2="98.000000"  style="stroke:black; stroke-linecap:round; stroke-width:0.25;"/>
<line x1="282.800000" y1="254.000000" x2="282.800000" y2="254.000000"  style="stroke:black; stroke-linecap:round; stroke-width:0.25;"/>
<line x1="282.800000" y1="254.000000" x2="286.800000" y2="254.000000"  style="stroke:black; stroke-linecap:round; stroke-width:0.25;"/>
<line x1="310.800000" y1="98.000000" x2="314.800000" y2="98.000000"  style="stroke:black; stroke-linecap:round; stroke-width:0.25;"/>
<line x1="310.800000" y1="254.000000" x2="314.800000" y2="254.000000"  style="stroke:black; stroke-linecap:round; stroke-width:0.25;"/>
<line x1="314.800000" y1="98.000000" x2="322.800000" y2="98.000000"  style="stroke:black; stroke-linecap:round; stroke-width:0.25;"/>
<line x1="314.800000" y1="180.000000" x2="322.800000" y2="180.000000"  style="stroke:black; stroke-linecap:round; stroke-width:0.25;"/>
<line x1="314.800000" y1="254.000000" x2="314.800000" y2="180.000000"  style="stroke:black; stroke-linecap:round; stroke-width:0.25;"/>
<line x1="314.800000" y1="254.000000" x2="314.800000" y2="254.000000"  style="stroke:black; stroke-linecap:round; stroke-width:0.25;"/>
<line x1="322.800000" y1="98.000000" x2="322.800000" y2="172.000000"  style="stroke:black; stroke-linecap:round; stroke-width:0.25;"/>
<line x1="322.800000" y1="172.000000" x2="322.800000" y2="172.000000"  style="stroke:black; stroke-linecap:round; stroke-width:0.25;"/>
<line x1="322.800000" y1="172.000000" x2="326.800000" y2="172.000000"  style="stroke:black; stroke-linecap:round; stroke-width:0.25;"/>
<line x1="322.800000" y1="180.000000" x2="326.800000" y2="180.000000"  style="stroke:black; stroke-linecap:round; stroke-width:0.25;"/>
<line x1="350.800000" y1="176.000000" x2="354.800000" y2="176.000000"  style="stroke:black; stroke-linecap:round; stroke-width:0.25;"/>
<line x1="354.800000" y1="176.000000" x2="354.800000" y2="176.000000"  style="stroke:black; stroke-linecap:round; stroke-width:0.25;"/>
<line x1="354.800000" y1="176.000000" x2="358.800000" y2="176.000000"  style="stroke:black; stroke-linecap:round; stroke-width:0.25;"/>
<line x1="358.800000" y1="176.000000" x2="362.800000" y2="176.000000"  style="stroke:black; stroke-linecap:round; stroke-width:0.25;"/>
<line x1="362.800000" y1="176.000000" x2="372.800000" y2="176.000000"  style="stroke:black; stroke-linecap:round; stroke-width:0.25;"/>
</svg>
