<?xml version="1.0"?>
<svg xmlns="http://www.w3.org/2000/svg" xmlns:xlink="http://www.w3.org/1999/xlink" viewBox="0 0 606.600000 132.000000" width="303.300000mm" height="66.000000mm" version="1.1">
<a xlink:href="drumModel-0x7fccef887e80.svg">
<rect x="1.000000" y="1.000000" width="605.600000" height="131.000000" rx="0" ry="0" style="stroke:none;fill:#cccccc;"/>
<rect x="0.000000" y="0.000000" width="605.600000" height="131.000000" rx="0" ry="0" style="stroke:none;fill:#ffffff;"/>
</a>
<text x="10.000000" y="7.000000" font-family="Arial" font-size="7"></text>
<a xlink:href="noise-0x7fccebeca840.svg">
<rect x="25.000000" y="55.000000" width="25.800000" height="24.000000" rx="0" ry="0" style="stroke:none;fill:#cccccc;"/>
<rect x="24.000000" y="54.000000" width="25.800000" height="24.000000" rx="0" ry="0" style="stroke:none;fill:#003366;"/>
</a>
<a xlink:href="noise-0x7fccebeca840.svg">
<text x="36.900000" y="68.000000" font-family="Arial" font-size="7" text-anchor="middle" fill="#FFFFFF">noise</text>
</a>
<circle cx="26.000000" cy="56.000000" r="1"/>
<a xlink:href="highpass-0x7fccef87e5a0.svg">
<rect x="58.800000" y="55.000000" width="129.000000" height="24.000000" rx="0" ry="0" style="stroke:none;fill:#cccccc;"/>
<rect x="57.800000" y="54.000000" width="129.000000" height="24.000000" rx="0" ry="0" style="stroke:none;fill:#003366;"/>
</a>
<a xlink:href="highpass-0x7fccef87e5a0.svg">
<text x="122.300000" y="68.000000" font-family="Arial" font-size="7" text-anchor="middle" fill="#FFFFFF">highpass(2)(4...500 : *) : +)</text>
</a>
<circle cx="59.800000" cy="56.000000" r="1"/>
<line x1="54.800000" y1="65.000000" x2="57.800000" y2="66.000000"  transform="rotate(0.000000,57.800000,66.000000)" style="stroke: black; stroke-width:0.25;"/>
<line x1="54.800000" y1="67.000000" x2="57.800000" y2="66.000000"  transform="rotate(0.000000,57.800000,66.000000)" style="stroke: black; stroke-width:0.25;"/>
<a xlink:href="lowpass-0x7fccef87eca0.svg">
<rect x="195.800000" y="55.000000" width="129.000000" height="24.000000" rx="0" ry="0" style="stroke:none;fill:#cccccc;"/>
<rect x="194.800000" y="54.000000" width="129.000000" height="24.000000" rx="0" ry="0" style="stroke:none;fill:#003366;"/>
</a>
<a xlink:href="lowpass-0x7fccef87eca0.svg">
<text x="259.300000" y="68.000000" font-family="Arial" font-size="7" text-anchor="middle" fill="#FFFFFF">lowpass(2)(50...000 : *) : +)</text>
</a>
<circle cx="196.800000" cy="56.000000" r="1"/>
<line x1="191.800000" y1="65.000000" x2="194.800000" y2="66.000000"  transform="rotate(0.000000,194.800000,66.000000)" style="stroke: black; stroke-width:0.25;"/>
<line x1="191.800000" y1="67.000000" x2="194.800000" y2="66.000000"  transform="rotate(0.000000,194.800000,66.000000)" style="stroke: black; stroke-width:0.25;"/>
<a xlink:href="ar-0x7fccedaf9ea0.svg">
<rect x="340.800000" y="33.000000" width="154.800000" height="24.000000" rx="0" ry="0" style="stroke:none;fill:#cccccc;"/>
<rect x="339.800000" y="32.000000" width="154.800000" height="24.000000" rx="0" ry="0" style="stroke:none;fill:#003366;"/>
</a>
<a xlink:href="ar-0x7fccedaf9ea0.svg">
<text x="417.200000" y="46.000000" font-family="Arial" font-size="7" text-anchor="middle" fill="#FFFFFF">ar(0.001f)(0.001f)(button(&quot;gate&quot;))</text>
</a>
<circle cx="341.800000" cy="34.000000" r="1"/>
<rect x="511.600000" y="29.000000" width="24.000000" height="24.000000" rx="0" ry="0" style="stroke:none;fill:#cccccc;"/>
<rect x="510.600000" y="28.000000" width="24.000000" height="24.000000" rx="0" ry="0" style="stroke:none;fill:#4B71A1;"/>
<text x="522.600000" y="42.000000" font-family="Arial" font-size="7" text-anchor="middle" fill="#FFFFFF">*</text>
<circle cx="512.600000" cy="30.000000" r="1"/>
<line x1="507.600000" y1="35.000000" x2="510.600000" y2="36.000000"  transform="rotate(0.000000,510.600000,36.000000)" style="stroke: black; stroke-width:0.25;"/>
<line x1="507.600000" y1="37.000000" x2="510.600000" y2="36.000000"  transform="rotate(0.000000,510.600000,36.000000)" style="stroke: black; stroke-width:0.25;"/>
<line x1="507.600000" y1="43.000000" x2="510.600000" y2="44.000000"  transform="rotate(0.000000,510.600000,44.000000)" style="stroke: black; stroke-width:0.25;"/>
<line x1="507.600000" y1="45.000000" x2="510.600000" y2="44.000000"  transform="rotate(0.000000,510.600000,44.000000)" style="stroke: black; stroke-width:0.25;"/>
<rect x="426.200000" y="75.000000" width="24.000000" height="24.000000" rx="0" ry="0" style="stroke:none;fill:#cccccc;"/>
<rect x="425.200000" y="74.000000" width="24.000000" height="24.000000" rx="0" ry="0" style="stroke:none;fill:#f44800;"/>
<text x="437.200000" y="88.000000" font-family="Arial" font-size="7" text-anchor="middle" fill="#FFFFFF">2</text>
<circle cx="427.200000" cy="76.000000" r="1"/>
<line x1="416.200000" y1="65.000000" x2="416.200000" y2="107.000000"  style="stroke: black; stroke-linecap:round; stroke-width:0.25; stroke-dasharray:3,3;"/>
<line x1="416.200000" y1="107.000000" x2="458.200000" y2="107.000000"  style="stroke: black; stroke-linecap:round; stroke-width:0.25; stroke-dasharray:3,3;"/>
<line x1="458.200000" y1="107.000000" x2="458.200000" y2="65.000000"  style="stroke: black; stroke-linecap:round; stroke-width:0.25; stroke-dasharray:3,3;"/>
<line x1="416.200000" y1="65.000000" x2="421.200000" y2="65.000000"  style="stroke: black; stroke-linecap:round; stroke-width:0.25; stroke-dasharray:3,3;"/>
<line x1="440.550000" y1="65.000000" x2="458.200000" y2="65.000000"  style="stroke: black; stroke-linecap:round; stroke-width:0.25; stroke-dasharray:3,3;"/>
<text x="421.200000" y="67.000000" font-family="Arial" font-size="7">gain</text>
<rect x="551.600000" y="55.000000" width="24.000000" height="24.000000" rx="0" ry="0" style="stroke:none;fill:#cccccc;"/>
<rect x="550.600000" y="54.000000" width="24.000000" height="24.000000" rx="0" ry="0" style="stroke:none;fill:#4B71A1;"/>
<text x="562.600000" y="68.000000" font-family="Arial" font-size="7" text-anchor="middle" fill="#FFFFFF">*</text>
<circle cx="552.600000" cy="56.000000" r="1"/>
<line x1="547.600000" y1="61.000000" x2="550.600000" y2="62.000000"  transform="rotate(0.000000,550.600000,62.000000)" style="stroke: black; stroke-width:0.25;"/>
<line x1="547.600000" y1="63.000000" x2="550.600000" y2="62.000000"  transform="rotate(0.000000,550.600000,62.000000)" style="stroke: black; stroke-width:0.25;"/>
<line x1="547.600000" y1="69.000000" x2="550.600000" y2="70.000000"  transform="rotate(0.000000,550.600000,70.000000)" style="stroke: black; stroke-width:0.25;"/>
<line x1="547.600000" y1="71.000000" x2="550.600000" y2="70.000000"  transform="rotate(0.000000,550.600000,70.000000)" style="stroke: black; stroke-width:0.25;"/>
<line x1="15.000000" y1="15.000000" x2="15.000000" y2="117.000000"  style="stroke: black; stroke-linecap:round; stroke-width:0.25; stroke-dasharray:3,3;"/>
<line x1="15.000000" y1="117.000000" x2="591.600000" y2="117.000000"  style="stroke: black; stroke-linecap:round; stroke-width:0.25; stroke-dasharray:3,3;"/>
<line x1="591.600000" y1="117.000000" x2="591.600000" y2="15.000000"  style="stroke: black; stroke-linecap:round; stroke-width:0.25; stroke-dasharray:3,3;"/>
<line x1="15.000000" y1="15.000000" x2="20.000000" y2="15.000000"  style="stroke: black; stroke-linecap:round; stroke-width:0.25; stroke-dasharray:3,3;"/>
<line x1="119.975000" y1="15.000000" x2="591.600000" y2="15.000000"  style="stroke: black; stroke-linecap:round; stroke-width:0.25; stroke-dasharray:3,3;"/>
<text x="20.000000" y="17.000000" font-family="Arial" font-size="7">strike(((hsli...tton(&quot;gate&quot;))</text>
<line x1="593.600000" y1="65.000000" x2="596.600000" y2="66.000000"  transform="rotate(0.000000,596.600000,66.000000)" style="stroke: black; stroke-width:0.25;"/>
<line x1="593.600000" y1="67.000000" x2="596.600000" y2="66.000000"  transform="rotate(0.000000,596.600000,66.000000)" style="stroke: black; stroke-width:0.25;"/>
<line x1="49.800000" y1="66.000000" x2="53.800000" y2="66.000000"  style="stroke:black; stroke-linecap:round; stroke-width:0.25;"/>
<line x1="53.800000" y1="66.000000" x2="53.800000" y2="66.000000"  style="stroke:black; stroke-linecap:round; stroke-width:0.25;"/>
<line x1="53.800000" y1="66.000000" x2="57.800000" y2="66.000000"  style="stroke:black; stroke-linecap:round; stroke-width:0.25;"/>
<line x1="186.800000" y1="66.000000" x2="190.800000" y2="66.000000"  style="stroke:black; stroke-linecap:round; stroke-width:0.25;"/>
<line x1="190.800000" y1="66.000000" x2="190.800000" y2="66.000000"  style="stroke:black; stroke-linecap:round; stroke-width:0.25;"/>
<line x1="190.800000" y1="66.000000" x2="194.800000" y2="66.000000"  style="stroke:black; stroke-linecap:round; stroke-width:0.25;"/>
<line x1="323.800000" y1="66.000000" x2="327.800000" y2="66.000000"  style="stroke:black; stroke-linecap:round; stroke-width:0.25;"/>
<line x1="327.800000" y1="24.000000" x2="335.800000" y2="24.000000"  style="stroke:black; stroke-linecap:round; stroke-width:0.25;"/>
<line x1="327.800000" y1="66.000000" x2="327.800000" y2="24.000000"  style="stroke:black; stroke-linecap:round; stroke-width:0.25;"/>
<line x1="327.800000" y1="66.000000" x2="327.800000" y2="66.000000"  style="stroke:black; stroke-linecap:round; stroke-width:0.25;"/>
<line x1="335.800000" y1="24.000000" x2="417.200000" y2="24.000000"  style="stroke:black; stroke-linecap:round; stroke-width:0.25;"/>
<line x1="417.200000" y1="24.000000" x2="498.600000" y2="24.000000"  style="stroke:black; stroke-linecap:round; stroke-width:0.25;"/>
<line x1="449.200000" y1="86.000000" x2="453.200000" y2="86.000000"  style="stroke:black; stroke-linecap:round; stroke-width:0.25;"/>
<line x1="453.200000" y1="86.000000" x2="463.200000" y2="86.000000"  style="stroke:black; stroke-linecap:round; stroke-width:0.25;"/>
<line x1="463.200000" y1="86.000000" x2="538.600000" y2="86.000000"  style="stroke:black; stroke-linecap:round; stroke-width:0.25;"/>
<line x1="494.600000" y1="44.000000" x2="498.600000" y2="44.000000"  style="stroke:black; stroke-linecap:round; stroke-width:0.25;"/>
<line x1="498.600000" y1="24.000000" x2="506.600000" y2="24.000000"  style="stroke:black; stroke-linecap:round; stroke-width:0.25;"/>
<line x1="498.600000" y1="44.000000" x2="506.600000" y2="44.000000"  style="stroke:black; stroke-linecap:round; stroke-width:0.25;"/>
<line x1="506.600000" y1="24.000000" x2="506.600000" y2="36.000000"  style="stroke:black; stroke-linecap:round; stroke-width:0.25;"/>
<line x1="506.600000" y1="36.000000" x2="506.600000" y2="36.000000"  style="stroke:black; stroke-linecap:round; stroke-width:0.25;"/>
<line x1="506.600000" y1="36.000000" x2="510.600000" y2="36.000000"  style="stroke:black; stroke-linecap:round; stroke-width:0.25;"/>
<line x1="506.600000" y1="44.000000" x2="510.600000" y2="44.000000"  style="stroke:black; stroke-linecap:round; stroke-width:0.25;"/>
<line x1="534.600000" y1="40.000000" x2="538.600000" y2="40.000000"  style="stroke:black; stroke-linecap:round; stroke-width:0.25;"/>
<line x1="538.600000" y1="40.000000" x2="546.600000" y2="40.000000"  style="stroke:black; stroke-linecap:round; stroke-width:0.25;"/>
<line x1="538.600000" y1="70.000000" x2="546.600000" y2="70.000000"  style="stroke:black; stroke-linecap:round; stroke-width:0.25;"/>
<line x1="538.600000" y1="86.000000" x2="538.600000" y2="70.000000"  style="stroke:black; stroke-linecap:round; stroke-width:0.25;"/>
<line x1="538.600000" y1="86.000000" x2="538.600000" y2="86.000000"  style="stroke:black; stroke-linecap:round; stroke-width:0.25;"/>
<line x1="546.600000" y1="40.000000" x2="546.600000" y2="62.000000"  style="stroke:black; stroke-linecap:round; stroke-width:0.25;"/>
<line x1="546.600000" y1="62.000000" x2="546.600000" y2="62.000000"  style="stroke:black; stroke-linecap:round; stroke-width:0.25;"/>
<line x1="546.600000" y1="62.000000" x2="550.600000" y2="62.000000"  style="stroke:black; stroke-linecap:round; stroke-width:0.25;"/>
<line x1="546.600000" y1="70.000000" x2="550.600000" y2="70.000000"  style="stroke:black; stroke-linecap:round; stroke-width:0.25;"/>
<line x1="574.600000" y1="66.000000" x2="578.600000" y2="66.000000"  style="stroke:black; stroke-linecap:round; stroke-width:0.25;"/>
<line x1="578.600000" y1="66.000000" x2="582.600000" y2="66.000000"  style="stroke:black; stroke-linecap:round; stroke-width:0.25;"/>
<line x1="578.600000" y1="66.000000" x2="578.600000" y2="66.000000"  style="stroke:black; stroke-linecap:round; stroke-width:0.25;"/>
<line x1="582.600000" y1="66.000000" x2="586.600000" y2="66.000000"  style="stroke:black; stroke-linecap:round; stroke-width:0.25;"/>
<line x1="586.600000" y1="66.000000" x2="596.600000" y2="66.000000"  style="stroke:black; stroke-linecap:round; stroke-width:0.25;"/>
</svg>
