<?xml version="1.0"?>
<svg xmlns="http://www.w3.org/2000/svg" xmlns:xlink="http://www.w3.org/1999/xlink" viewBox="0 0 199.600000 144.000000" width="99.800000mm" height="72.000000mm" version="1.1">
<a xlink:href="atime-0x7fccedaf8380.svg">
<rect x="1.000000" y="1.000000" width="198.600000" height="143.000000" rx="0" ry="0" style="stroke:none;fill:#cccccc;"/>
<rect x="0.000000" y="0.000000" width="198.600000" height="143.000000" rx="0" ry="0" style="stroke:none;fill:#ffffff;"/>
</a>
<text x="10.000000" y="7.000000" font-family="Arial" font-size="7"></text>
<rect x="51.000000" y="35.000000" width="51.600000" height="24.000000" rx="0" ry="0" style="stroke:none;fill:#cccccc;"/>
<rect x="50.000000" y="34.000000" width="51.600000" height="24.000000" rx="0" ry="0" style="stroke:none;fill:#477881;"/>
<text x="75.800000" y="48.000000" font-family="Arial" font-size="7" text-anchor="middle" fill="#FFFFFF">button(gate)</text>
<circle cx="52.000000" cy="36.000000" r="1"/>
<line x1="41.000000" y1="25.000000" x2="41.000000" y2="67.000000"  style="stroke: black; stroke-linecap:round; stroke-width:0.25; stroke-dasharray:3,3;"/>
<line x1="41.000000" y1="67.000000" x2="110.600000" y2="67.000000"  style="stroke: black; stroke-linecap:round; stroke-width:0.25; stroke-dasharray:3,3;"/>
<line x1="110.600000" y1="67.000000" x2="110.600000" y2="25.000000"  style="stroke: black; stroke-linecap:round; stroke-width:0.25; stroke-dasharray:3,3;"/>
<line x1="41.000000" y1="25.000000" x2="46.000000" y2="25.000000"  style="stroke: black; stroke-linecap:round; stroke-width:0.25; stroke-dasharray:3,3;"/>
<line x1="65.350000" y1="25.000000" x2="110.600000" y2="25.000000"  style="stroke: black; stroke-linecap:round; stroke-width:0.25; stroke-dasharray:3,3;"/>
<text x="46.000000" y="27.000000" font-family="Arial" font-size="7">gate</text>
<rect x="35.000000" y="87.000000" width="51.600000" height="24.000000" rx="0" ry="0" style="stroke:none;fill:#cccccc;"/>
<rect x="34.000000" y="86.000000" width="51.600000" height="24.000000" rx="0" ry="0" style="stroke:none;fill:#477881;"/>
<text x="59.800000" y="100.000000" font-family="Arial" font-size="7" text-anchor="middle" fill="#FFFFFF">button(gate)</text>
<circle cx="36.000000" cy="88.000000" r="1"/>
<line x1="25.000000" y1="77.000000" x2="25.000000" y2="119.000000"  style="stroke: black; stroke-linecap:round; stroke-width:0.25; stroke-dasharray:3,3;"/>
<line x1="25.000000" y1="119.000000" x2="94.600000" y2="119.000000"  style="stroke: black; stroke-linecap:round; stroke-width:0.25; stroke-dasharray:3,3;"/>
<line x1="94.600000" y1="119.000000" x2="94.600000" y2="77.000000"  style="stroke: black; stroke-linecap:round; stroke-width:0.25; stroke-dasharray:3,3;"/>
<line x1="25.000000" y1="77.000000" x2="30.000000" y2="77.000000"  style="stroke: black; stroke-linecap:round; stroke-width:0.25; stroke-dasharray:3,3;"/>
<line x1="49.350000" y1="77.000000" x2="94.600000" y2="77.000000"  style="stroke: black; stroke-linecap:round; stroke-width:0.25; stroke-dasharray:3,3;"/>
<text x="30.000000" y="79.000000" font-family="Arial" font-size="7">gate</text>
<rect x="104.600000" y="87.000000" width="24.000000" height="24.000000" rx="0" ry="0" style="stroke:none;fill:#cccccc;"/>
<rect x="103.600000" y="86.000000" width="24.000000" height="24.000000" rx="0" ry="0" style="stroke:none;fill:#4B71A1;"/>
<text x="115.600000" y="100.000000" font-family="Arial" font-size="7" text-anchor="middle" fill="#FFFFFF">mem</text>
<circle cx="105.600000" cy="88.000000" r="1"/>
<line x1="100.600000" y1="97.000000" x2="103.600000" y2="98.000000"  transform="rotate(0.000000,103.600000,98.000000)" style="stroke: black; stroke-width:0.25;"/>
<line x1="100.600000" y1="99.000000" x2="103.600000" y2="98.000000"  transform="rotate(0.000000,103.600000,98.000000)" style="stroke: black; stroke-width:0.25;"/>
<rect x="144.600000" y="61.000000" width="24.000000" height="24.000000" rx="0" ry="0" style="stroke:none;fill:#cccccc;"/>
<rect x="143.600000" y="60.000000" width="24.000000" height="24.000000" rx="0" ry="0" style="stroke:none;fill:#4B71A1;"/>
<text x="155.600000" y="74.000000" font-family="Arial" font-size="7" text-anchor="middle" fill="#FFFFFF">&gt;</text>
<circle cx="145.600000" cy="62.000000" r="1"/>
<line x1="140.600000" y1="67.000000" x2="143.600000" y2="68.000000"  transform="rotate(0.000000,143.600000,68.000000)" style="stroke: black; stroke-width:0.25;"/>
<line x1="140.600000" y1="69.000000" x2="143.600000" y2="68.000000"  transform="rotate(0.000000,143.600000,68.000000)" style="stroke: black; stroke-width:0.25;"/>
<line x1="140.600000" y1="75.000000" x2="143.600000" y2="76.000000"  transform="rotate(0.000000,143.600000,76.000000)" style="stroke: black; stroke-width:0.25;"/>
<line x1="140.600000" y1="77.000000" x2="143.600000" y2="76.000000"  transform="rotate(0.000000,143.600000,76.000000)" style="stroke: black; stroke-width:0.25;"/>
<line x1="15.000000" y1="15.000000" x2="15.000000" y2="129.000000"  style="stroke: black; stroke-linecap:round; stroke-width:0.25; stroke-dasharray:3,3;"/>
<line x1="15.000000" y1="129.000000" x2="184.600000" y2="129.000000"  style="stroke: black; stroke-linecap:round; stroke-width:0.25; stroke-dasharray:3,3;"/>
<line x1="184.600000" y1="129.000000" x2="184.600000" y2="15.000000"  style="stroke: black; stroke-linecap:round; stroke-width:0.25; stroke-dasharray:3,3;"/>
<line x1="15.000000" y1="15.000000" x2="20.000000" y2="15.000000"  style="stroke: black; stroke-linecap:round; stroke-width:0.25; stroke-dasharray:3,3;"/>
<line x1="49.025000" y1="15.000000" x2="184.600000" y2="15.000000"  style="stroke: black; stroke-linecap:round; stroke-width:0.25; stroke-dasharray:3,3;"/>
<text x="20.000000" y="17.000000" font-family="Arial" font-size="7">upfront</text>
<line x1="186.600000" y1="71.000000" x2="189.600000" y2="72.000000"  transform="rotate(0.000000,189.600000,72.000000)" style="stroke: black; stroke-width:0.25;"/>
<line x1="186.600000" y1="73.000000" x2="189.600000" y2="72.000000"  transform="rotate(0.000000,189.600000,72.000000)" style="stroke: black; stroke-width:0.25;"/>
<line x1="85.600000" y1="98.000000" x2="89.600000" y2="98.000000"  style="stroke:black; stroke-linecap:round; stroke-width:0.25;"/>
<line x1="89.600000" y1="98.000000" x2="99.600000" y2="98.000000"  style="stroke:black; stroke-linecap:round; stroke-width:0.25;"/>
<line x1="99.600000" y1="98.000000" x2="99.600000" y2="98.000000"  style="stroke:black; stroke-linecap:round; stroke-width:0.25;"/>
<line x1="99.600000" y1="98.000000" x2="103.600000" y2="98.000000"  style="stroke:black; stroke-linecap:round; stroke-width:0.25;"/>
<line x1="101.600000" y1="46.000000" x2="105.600000" y2="46.000000"  style="stroke:black; stroke-linecap:round; stroke-width:0.25;"/>
<line x1="105.600000" y1="46.000000" x2="115.600000" y2="46.000000"  style="stroke:black; stroke-linecap:round; stroke-width:0.25;"/>
<line x1="115.600000" y1="46.000000" x2="131.600000" y2="46.000000"  style="stroke:black; stroke-linecap:round; stroke-width:0.25;"/>
<line x1="127.600000" y1="98.000000" x2="131.600000" y2="98.000000"  style="stroke:black; stroke-linecap:round; stroke-width:0.25;"/>
<line x1="131.600000" y1="46.000000" x2="139.600000" y2="46.000000"  style="stroke:black; stroke-linecap:round; stroke-width:0.25;"/>
<line x1="131.600000" y1="76.000000" x2="139.600000" y2="76.000000"  style="stroke:black; stroke-linecap:round; stroke-width:0.25;"/>
<line x1="131.600000" y1="98.000000" x2="131.600000" y2="76.000000"  style="stroke:black; stroke-linecap:round; stroke-width:0.25;"/>
<line x1="131.600000" y1="98.000000" x2="131.600000" y2="98.000000"  style="stroke:black; stroke-linecap:round; stroke-width:0.25;"/>
<line x1="139.600000" y1="46.000000" x2="139.600000" y2="68.000000"  style="stroke:black; stroke-linecap:round; stroke-width:0.25;"/>
<line x1="139.600000" y1="68.000000" x2="139.600000" y2="68.000000"  style="stroke:black; stroke-linecap:round; stroke-width:0.25;"/>
<line x1="139.600000" y1="68.000000" x2="143.600000" y2="68.000000"  style="stroke:black; stroke-linecap:round; stroke-width:0.25;"/>
<line x1="139.600000" y1="76.000000" x2="143.600000" y2="76.000000"  style="stroke:black; stroke-linecap:round; stroke-width:0.25;"/>
<line x1="167.600000" y1="72.000000" x2="171.600000" y2="72.000000"  style="stroke:black; stroke-linecap:round; stroke-width:0.25;"/>
<line x1="171.600000" y1="72.000000" x2="171.600000" y2="72.000000"  style="stroke:black; stroke-linecap:round; stroke-width:0.25;"/>
<line x1="171.600000" y1="72.000000" x2="175.600000" y2="72.000000"  style="stroke:black; stroke-linecap:round; stroke-width:0.25;"/>
<line x1="175.600000" y1="72.000000" x2="179.600000" y2="72.000000"  style="stroke:black; stroke-linecap:round; stroke-width:0.25;"/>
<line x1="179.600000" y1="72.000000" x2="189.600000" y2="72.000000"  style="stroke:black; stroke-linecap:round; stroke-width:0.25;"/>
</svg>
