<?xml version="1.0"?>
<svg xmlns="http://www.w3.org/2000/svg" xmlns:xlink="http://www.w3.org/1999/xlink" viewBox="0 0 441.700000 188.000000" width="220.850000mm" height="94.000000mm" version="1.1">
<a xlink:href="p-0x7fbcb16b1500.svg">
<rect x="1.000000" y="1.000000" width="440.700000" height="187.000000" rx="0" ry="0" style="stroke:none;fill:#cccccc;"/>
<rect x="0.000000" y="0.000000" width="440.700000" height="187.000000" rx="0" ry="0" style="stroke:none;fill:#ffffff;"/>
</a>
<text x="10.000000" y="7.000000" font-family="Arial" font-size="7"></text>
<rect x="166.500000" y="33.000000" width="24.000000" height="24.000000" rx="0" ry="0" style="stroke:none;fill:#cccccc;"/>
<rect x="165.500000" y="32.000000" width="24.000000" height="24.000000" rx="0" ry="0" style="stroke:none;fill:#f44800;"/>
<text x="177.500000" y="46.000000" font-family="Arial" font-size="7" text-anchor="middle" fill="#FFFFFF">0</text>
<circle cx="167.500000" cy="34.000000" r="1"/>
<rect x="206.500000" y="29.000000" width="24.000000" height="24.000000" rx="0" ry="0" style="stroke:none;fill:#cccccc;"/>
<rect x="205.500000" y="28.000000" width="24.000000" height="24.000000" rx="0" ry="0" style="stroke:none;fill:#4B71A1;"/>
<text x="217.500000" y="42.000000" font-family="Arial" font-size="7" text-anchor="middle" fill="#FFFFFF">&lt;</text>
<circle cx="207.500000" cy="30.000000" r="1"/>
<line x1="202.500000" y1="35.000000" x2="205.500000" y2="36.000000"  transform="rotate(0.000000,205.500000,36.000000)" style="stroke: black; stroke-width:0.25;"/>
<line x1="202.500000" y1="37.000000" x2="205.500000" y2="36.000000"  transform="rotate(0.000000,205.500000,36.000000)" style="stroke: black; stroke-width:0.25;"/>
<line x1="202.500000" y1="43.000000" x2="205.500000" y2="44.000000"  transform="rotate(0.000000,205.500000,44.000000)" style="stroke: black; stroke-width:0.25;"/>
<line x1="202.500000" y1="45.000000" x2="205.500000" y2="44.000000"  transform="rotate(0.000000,205.500000,44.000000)" style="stroke: black; stroke-width:0.25;"/>
<rect x="94.000000" y="91.000000" width="24.000000" height="24.000000" rx="0" ry="0" style="stroke:none;fill:#cccccc;"/>
<rect x="93.000000" y="90.000000" width="24.000000" height="24.000000" rx="0" ry="0" style="stroke:none;fill:#f44800;"/>
<text x="105.000000" y="104.000000" font-family="Arial" font-size="7" text-anchor="middle" fill="#FFFFFF">1</text>
<circle cx="95.000000" cy="92.000000" r="1"/>
<line x1="84.000000" y1="81.000000" x2="84.000000" y2="123.000000"  style="stroke: black; stroke-linecap:round; stroke-width:0.25; stroke-dasharray:3,3;"/>
<line x1="84.000000" y1="123.000000" x2="126.000000" y2="123.000000"  style="stroke: black; stroke-linecap:round; stroke-width:0.25; stroke-dasharray:3,3;"/>
<line x1="126.000000" y1="123.000000" x2="126.000000" y2="81.000000"  style="stroke: black; stroke-linecap:round; stroke-width:0.25; stroke-dasharray:3,3;"/>
<line x1="84.000000" y1="81.000000" x2="89.000000" y2="81.000000"  style="stroke: black; stroke-linecap:round; stroke-width:0.25; stroke-dasharray:3,3;"/>
<line x1="98.675000" y1="81.000000" x2="126.000000" y2="81.000000"  style="stroke: black; stroke-linecap:round; stroke-width:0.25; stroke-dasharray:3,3;"/>
<text x="89.000000" y="83.000000" font-family="Arial" font-size="7">S</text>
<a xlink:href="p0-0x7fbcb16aecb0.svg">
<rect x="94.000000" y="133.000000" width="24.000000" height="24.000000" rx="0" ry="0" style="stroke:none;fill:#cccccc;"/>
<rect x="93.000000" y="132.000000" width="24.000000" height="24.000000" rx="0" ry="0" style="stroke:none;fill:#003366;"/>
</a>
<a xlink:href="p0-0x7fbcb16aecb0.svg">
<text x="105.000000" y="146.000000" font-family="Arial" font-size="7" text-anchor="middle" fill="#FFFFFF">p0</text>
</a>
<circle cx="95.000000" cy="134.000000" r="1"/>
<rect x="144.000000" y="107.000000" width="24.000000" height="24.000000" rx="0" ry="0" style="stroke:none;fill:#cccccc;"/>
<rect x="143.000000" y="106.000000" width="24.000000" height="24.000000" rx="0" ry="0" style="stroke:none;fill:#4B71A1;"/>
<text x="155.000000" y="120.000000" font-family="Arial" font-size="7" text-anchor="middle" fill="#FFFFFF">-</text>
<circle cx="145.000000" cy="108.000000" r="1"/>
<line x1="140.000000" y1="113.000000" x2="143.000000" y2="114.000000"  transform="rotate(0.000000,143.000000,114.000000)" style="stroke: black; stroke-width:0.25;"/>
<line x1="140.000000" y1="115.000000" x2="143.000000" y2="114.000000"  transform="rotate(0.000000,143.000000,114.000000)" style="stroke: black; stroke-width:0.25;"/>
<line x1="140.000000" y1="121.000000" x2="143.000000" y2="122.000000"  transform="rotate(0.000000,143.000000,122.000000)" style="stroke: black; stroke-width:0.25;"/>
<line x1="140.000000" y1="123.000000" x2="143.000000" y2="122.000000"  transform="rotate(0.000000,143.000000,122.000000)" style="stroke: black; stroke-width:0.25;"/>
<rect x="184.000000" y="103.000000" width="24.000000" height="24.000000" rx="0" ry="0" style="stroke:none;fill:#cccccc;"/>
<rect x="183.000000" y="102.000000" width="24.000000" height="24.000000" rx="0" ry="0" style="stroke:none;fill:#4B71A1;"/>
<text x="195.000000" y="116.000000" font-family="Arial" font-size="7" text-anchor="middle" fill="#FFFFFF">*</text>
<circle cx="185.000000" cy="104.000000" r="1"/>
<line x1="180.000000" y1="109.000000" x2="183.000000" y2="110.000000"  transform="rotate(0.000000,183.000000,110.000000)" style="stroke: black; stroke-width:0.25;"/>
<line x1="180.000000" y1="111.000000" x2="183.000000" y2="110.000000"  transform="rotate(0.000000,183.000000,110.000000)" style="stroke: black; stroke-width:0.25;"/>
<line x1="180.000000" y1="117.000000" x2="183.000000" y2="118.000000"  transform="rotate(0.000000,183.000000,118.000000)" style="stroke: black; stroke-width:0.25;"/>
<line x1="180.000000" y1="119.000000" x2="183.000000" y2="118.000000"  transform="rotate(0.000000,183.000000,118.000000)" style="stroke: black; stroke-width:0.25;"/>
<rect x="234.000000" y="107.000000" width="24.000000" height="24.000000" rx="0" ry="0" style="stroke:none;fill:#cccccc;"/>
<rect x="233.000000" y="106.000000" width="24.000000" height="24.000000" rx="0" ry="0" style="stroke:none;fill:#f44800;"/>
<text x="245.000000" y="120.000000" font-family="Arial" font-size="7" text-anchor="middle" fill="#FFFFFF">1</text>
<circle cx="235.000000" cy="108.000000" r="1"/>
<line x1="224.000000" y1="97.000000" x2="224.000000" y2="139.000000"  style="stroke: black; stroke-linecap:round; stroke-width:0.25; stroke-dasharray:3,3;"/>
<line x1="224.000000" y1="139.000000" x2="266.000000" y2="139.000000"  style="stroke: black; stroke-linecap:round; stroke-width:0.25; stroke-dasharray:3,3;"/>
<line x1="266.000000" y1="139.000000" x2="266.000000" y2="97.000000"  style="stroke: black; stroke-linecap:round; stroke-width:0.25; stroke-dasharray:3,3;"/>
<line x1="224.000000" y1="97.000000" x2="229.000000" y2="97.000000"  style="stroke: black; stroke-linecap:round; stroke-width:0.25; stroke-dasharray:3,3;"/>
<line x1="238.675000" y1="97.000000" x2="266.000000" y2="97.000000"  style="stroke: black; stroke-linecap:round; stroke-width:0.25; stroke-dasharray:3,3;"/>
<text x="229.000000" y="99.000000" font-family="Arial" font-size="7">S</text>
<rect x="284.000000" y="103.000000" width="24.000000" height="24.000000" rx="0" ry="0" style="stroke:none;fill:#cccccc;"/>
<rect x="283.000000" y="102.000000" width="24.000000" height="24.000000" rx="0" ry="0" style="stroke:none;fill:#4B71A1;"/>
<text x="295.000000" y="116.000000" font-family="Arial" font-size="7" text-anchor="middle" fill="#FFFFFF">+</text>
<circle cx="285.000000" cy="104.000000" r="1"/>
<line x1="280.000000" y1="109.000000" x2="283.000000" y2="110.000000"  transform="rotate(0.000000,283.000000,110.000000)" style="stroke: black; stroke-width:0.25;"/>
<line x1="280.000000" y1="111.000000" x2="283.000000" y2="110.000000"  transform="rotate(0.000000,283.000000,110.000000)" style="stroke: black; stroke-width:0.25;"/>
<line x1="280.000000" y1="117.000000" x2="283.000000" y2="118.000000"  transform="rotate(0.000000,283.000000,118.000000)" style="stroke: black; stroke-width:0.25;"/>
<line x1="280.000000" y1="119.000000" x2="283.000000" y2="118.000000"  transform="rotate(0.000000,283.000000,118.000000)" style="stroke: black; stroke-width:0.25;"/>
<rect x="324.000000" y="99.000000" width="24.000000" height="24.000000" rx="0" ry="0" style="stroke:none;fill:#cccccc;"/>
<rect x="323.000000" y="98.000000" width="24.000000" height="24.000000" rx="0" ry="0" style="stroke:none;fill:#4B71A1;"/>
<text x="335.000000" y="112.000000" font-family="Arial" font-size="7" text-anchor="middle" fill="#FFFFFF">+</text>
<circle cx="325.000000" cy="100.000000" r="1"/>
<line x1="320.000000" y1="105.000000" x2="323.000000" y2="106.000000"  transform="rotate(0.000000,323.000000,106.000000)" style="stroke: black; stroke-width:0.25;"/>
<line x1="320.000000" y1="107.000000" x2="323.000000" y2="106.000000"  transform="rotate(0.000000,323.000000,106.000000)" style="stroke: black; stroke-width:0.25;"/>
<line x1="320.000000" y1="113.000000" x2="323.000000" y2="114.000000"  transform="rotate(0.000000,323.000000,114.000000)" style="stroke: black; stroke-width:0.25;"/>
<line x1="320.000000" y1="115.000000" x2="323.000000" y2="114.000000"  transform="rotate(0.000000,323.000000,114.000000)" style="stroke: black; stroke-width:0.25;"/>
<rect x="372.000000" y="83.000000" width="38.700000" height="24.000000" rx="0" ry="0" style="stroke:none;fill:#cccccc;"/>
<rect x="371.000000" y="82.000000" width="38.700000" height="24.000000" rx="0" ry="0" style="stroke:none;fill:#4B71A1;"/>
<text x="390.350000" y="96.000000" font-family="Arial" font-size="7" text-anchor="middle" fill="#FFFFFF">select2</text>
<circle cx="373.000000" cy="84.000000" r="1"/>
<line x1="368.000000" y1="85.000000" x2="371.000000" y2="86.000000"  transform="rotate(0.000000,371.000000,86.000000)" style="stroke: black; stroke-width:0.25;"/>
<line x1="368.000000" y1="87.000000" x2="371.000000" y2="86.000000"  transform="rotate(0.000000,371.000000,86.000000)" style="stroke: black; stroke-width:0.25;"/>
<line x1="368.000000" y1="93.000000" x2="371.000000" y2="94.000000"  transform="rotate(0.000000,371.000000,94.000000)" style="stroke: black; stroke-width:0.25;"/>
<line x1="368.000000" y1="95.000000" x2="371.000000" y2="94.000000"  transform="rotate(0.000000,371.000000,94.000000)" style="stroke: black; stroke-width:0.25;"/>
<line x1="368.000000" y1="101.000000" x2="371.000000" y2="102.000000"  transform="rotate(0.000000,371.000000,102.000000)" style="stroke: black; stroke-width:0.25;"/>
<line x1="368.000000" y1="103.000000" x2="371.000000" y2="102.000000"  transform="rotate(0.000000,371.000000,102.000000)" style="stroke: black; stroke-width:0.25;"/>
<line x1="15.000000" y1="15.000000" x2="15.000000" y2="173.000000"  style="stroke: black; stroke-linecap:round; stroke-width:0.25; stroke-dasharray:3,3;"/>
<line x1="15.000000" y1="173.000000" x2="426.700000" y2="173.000000"  style="stroke: black; stroke-linecap:round; stroke-width:0.25; stroke-dasharray:3,3;"/>
<line x1="426.700000" y1="173.000000" x2="426.700000" y2="15.000000"  style="stroke: black; stroke-linecap:round; stroke-width:0.25; stroke-dasharray:3,3;"/>
<line x1="15.000000" y1="15.000000" x2="20.000000" y2="15.000000"  style="stroke: black; stroke-linecap:round; stroke-width:0.25; stroke-dasharray:3,3;"/>
<line x1="55.475000" y1="15.000000" x2="426.700000" y2="15.000000"  style="stroke: black; stroke-linecap:round; stroke-width:0.25; stroke-dasharray:3,3;"/>
<text x="20.000000" y="17.000000" font-family="Arial" font-size="7">selector2</text>
<line x1="428.700000" y1="93.000000" x2="431.700000" y2="94.000000"  transform="rotate(0.000000,431.700000,94.000000)" style="stroke: black; stroke-width:0.25;"/>
<line x1="428.700000" y1="95.000000" x2="431.700000" y2="94.000000"  transform="rotate(0.000000,431.700000,94.000000)" style="stroke: black; stroke-width:0.25;"/>
<line x1="10.000000" y1="86.000000" x2="20.000000" y2="86.000000"  style="stroke:black; stroke-linecap:round; stroke-width:0.25;"/>
<line x1="10.000000" y1="94.000000" x2="20.000000" y2="94.000000"  style="stroke:black; stroke-linecap:round; stroke-width:0.25;"/>
<line x1="10.000000" y1="102.000000" x2="20.000000" y2="102.000000"  style="stroke:black; stroke-linecap:round; stroke-width:0.25;"/>
<line x1="20.000000" y1="86.000000" x2="24.000000" y2="86.000000"  style="stroke:black; stroke-linecap:round; stroke-width:0.25;"/>
<line x1="20.000000" y1="94.000000" x2="24.000000" y2="94.000000"  style="stroke:black; stroke-linecap:round; stroke-width:0.25;"/>
<line x1="20.000000" y1="102.000000" x2="24.000000" y2="102.000000"  style="stroke:black; stroke-linecap:round; stroke-width:0.25;"/>
<line x1="24.000000" y1="86.000000" x2="28.000000" y2="86.000000"  style="stroke:black; stroke-linecap:round; stroke-width:0.25;"/>
<line x1="24.000000" y1="94.000000" x2="28.000000" y2="94.000000"  style="stroke:black; stroke-linecap:round; stroke-width:0.25;"/>
<line x1="24.000000" y1="102.000000" x2="28.000000" y2="102.000000"  style="stroke:black; stroke-linecap:round; stroke-width:0.25;"/>
<line x1="28.000000" y1="24.000000" x2="44.000000" y2="24.000000"  style="stroke:black; stroke-linecap:round; stroke-width:0.25;"/>
<line x1="28.000000" y1="86.000000" x2="28.000000" y2="24.000000"  style="stroke:black; stroke-linecap:round; stroke-width:0.25;"/>
<line x1="28.000000" y1="86.000000" x2="28.000000" y2="86.000000"  style="stroke:black; stroke-linecap:round; stroke-width:0.25;"/>
<line x1="28.000000" y1="94.000000" x2="44.000000" y2="94.000000"  style="stroke:black; stroke-linecap:round; stroke-width:0.25;"/>
<line x1="28.000000" y1="102.000000" x2="36.000000" y2="102.000000"  style="stroke:black; stroke-linecap:round; stroke-width:0.25;"/>
<line x1="36.000000" y1="102.000000" x2="36.000000" y2="164.000000"  style="stroke:black; stroke-linecap:round; stroke-width:0.25;"/>
<line x1="36.000000" y1="164.000000" x2="44.000000" y2="164.000000"  style="stroke:black; stroke-linecap:round; stroke-width:0.25;"/>
<line x1="44.000000" y1="24.000000" x2="161.500000" y2="24.000000"  style="stroke:black; stroke-linecap:round; stroke-width:0.25;"/>
<line x1="44.000000" y1="94.000000" x2="44.000000" y2="110.000000"  style="stroke:black; stroke-linecap:round; stroke-width:0.25;"/>
<line x1="44.000000" y1="110.000000" x2="44.000000" y2="110.000000"  style="stroke:black; stroke-linecap:round; stroke-width:0.25;"/>
<line x1="44.000000" y1="110.000000" x2="48.000000" y2="110.000000"  style="stroke:black; stroke-linecap:round; stroke-width:0.25;"/>
<line x1="44.000000" y1="164.000000" x2="197.500000" y2="164.000000"  style="stroke:black; stroke-linecap:round; stroke-width:0.25;"/>
<line x1="48.000000" y1="110.000000" x2="52.000000" y2="110.000000"  style="stroke:black; stroke-linecap:round; stroke-width:0.25;"/>
<line x1="52.000000" y1="110.000000" x2="79.000000" y2="64.000000"  style="stroke:black; stroke-linecap:round; stroke-width:0.25;"/>
<line x1="52.000000" y1="110.000000" x2="79.000000" y2="72.000000"  style="stroke:black; stroke-linecap:round; stroke-width:0.25;"/>
<line x1="79.000000" y1="64.000000" x2="195.000000" y2="64.000000"  style="stroke:black; stroke-linecap:round; stroke-width:0.25;"/>
<line x1="79.000000" y1="72.000000" x2="125.000000" y2="72.000000"  style="stroke:black; stroke-linecap:round; stroke-width:0.25;"/>
<line x1="117.000000" y1="102.000000" x2="121.000000" y2="102.000000"  style="stroke:black; stroke-linecap:round; stroke-width:0.25;"/>
<line x1="117.000000" y1="144.000000" x2="121.000000" y2="144.000000"  style="stroke:black; stroke-linecap:round; stroke-width:0.25;"/>
<line x1="121.000000" y1="102.000000" x2="131.000000" y2="102.000000"  style="stroke:black; stroke-linecap:round; stroke-width:0.25;"/>
<line x1="121.000000" y1="144.000000" x2="131.000000" y2="144.000000"  style="stroke:black; stroke-linecap:round; stroke-width:0.25;"/>
<line x1="125.000000" y1="72.000000" x2="171.000000" y2="72.000000"  style="stroke:black; stroke-linecap:round; stroke-width:0.25;"/>
<line x1="131.000000" y1="102.000000" x2="139.000000" y2="102.000000"  style="stroke:black; stroke-linecap:round; stroke-width:0.25;"/>
<line x1="131.000000" y1="122.000000" x2="139.000000" y2="122.000000"  style="stroke:black; stroke-linecap:round; stroke-width:0.25;"/>
<line x1="131.000000" y1="144.000000" x2="131.000000" y2="122.000000"  style="stroke:black; stroke-linecap:round; stroke-width:0.25;"/>
<line x1="131.000000" y1="144.000000" x2="131.000000" y2="144.000000"  style="stroke:black; stroke-linecap:round; stroke-width:0.25;"/>
<line x1="139.000000" y1="102.000000" x2="139.000000" y2="114.000000"  style="stroke:black; stroke-linecap:round; stroke-width:0.25;"/>
<line x1="139.000000" y1="114.000000" x2="139.000000" y2="114.000000"  style="stroke:black; stroke-linecap:round; stroke-width:0.25;"/>
<line x1="139.000000" y1="114.000000" x2="143.000000" y2="114.000000"  style="stroke:black; stroke-linecap:round; stroke-width:0.25;"/>
<line x1="139.000000" y1="122.000000" x2="143.000000" y2="122.000000"  style="stroke:black; stroke-linecap:round; stroke-width:0.25;"/>
<line x1="161.500000" y1="24.000000" x2="177.500000" y2="24.000000"  style="stroke:black; stroke-linecap:round; stroke-width:0.25;"/>
<line x1="167.000000" y1="118.000000" x2="171.000000" y2="118.000000"  style="stroke:black; stroke-linecap:round; stroke-width:0.25;"/>
<line x1="171.000000" y1="72.000000" x2="179.000000" y2="72.000000"  style="stroke:black; stroke-linecap:round; stroke-width:0.25;"/>
<line x1="171.000000" y1="118.000000" x2="179.000000" y2="118.000000"  style="stroke:black; stroke-linecap:round; stroke-width:0.25;"/>
<line x1="177.500000" y1="24.000000" x2="193.500000" y2="24.000000"  style="stroke:black; stroke-linecap:round; stroke-width:0.25;"/>
<line x1="179.000000" y1="72.000000" x2="179.000000" y2="110.000000"  style="stroke:black; stroke-linecap:round; stroke-width:0.25;"/>
<line x1="179.000000" y1="110.000000" x2="179.000000" y2="110.000000"  style="stroke:black; stroke-linecap:round; stroke-width:0.25;"/>
<line x1="179.000000" y1="110.000000" x2="183.000000" y2="110.000000"  style="stroke:black; stroke-linecap:round; stroke-width:0.25;"/>
<line x1="179.000000" y1="118.000000" x2="183.000000" y2="118.000000"  style="stroke:black; stroke-linecap:round; stroke-width:0.25;"/>
<line x1="189.500000" y1="44.000000" x2="193.500000" y2="44.000000"  style="stroke:black; stroke-linecap:round; stroke-width:0.25;"/>
<line x1="193.500000" y1="24.000000" x2="201.500000" y2="24.000000"  style="stroke:black; stroke-linecap:round; stroke-width:0.25;"/>
<line x1="193.500000" y1="44.000000" x2="201.500000" y2="44.000000"  style="stroke:black; stroke-linecap:round; stroke-width:0.25;"/>
<line x1="195.000000" y1="64.000000" x2="311.000000" y2="64.000000"  style="stroke:black; stroke-linecap:round; stroke-width:0.25;"/>
<line x1="197.500000" y1="164.000000" x2="351.000000" y2="164.000000"  style="stroke:black; stroke-linecap:round; stroke-width:0.25;"/>
<line x1="201.500000" y1="24.000000" x2="201.500000" y2="36.000000"  style="stroke:black; stroke-linecap:round; stroke-width:0.25;"/>
<line x1="201.500000" y1="36.000000" x2="201.500000" y2="36.000000"  style="stroke:black; stroke-linecap:round; stroke-width:0.25;"/>
<line x1="201.500000" y1="36.000000" x2="205.500000" y2="36.000000"  style="stroke:black; stroke-linecap:round; stroke-width:0.25;"/>
<line x1="201.500000" y1="44.000000" x2="205.500000" y2="44.000000"  style="stroke:black; stroke-linecap:round; stroke-width:0.25;"/>
<line x1="207.000000" y1="114.000000" x2="211.000000" y2="114.000000"  style="stroke:black; stroke-linecap:round; stroke-width:0.25;"/>
<line x1="211.000000" y1="88.000000" x2="219.000000" y2="88.000000"  style="stroke:black; stroke-linecap:round; stroke-width:0.25;"/>
<line x1="211.000000" y1="114.000000" x2="211.000000" y2="88.000000"  style="stroke:black; stroke-linecap:round; stroke-width:0.25;"/>
<line x1="211.000000" y1="114.000000" x2="211.000000" y2="114.000000"  style="stroke:black; stroke-linecap:round; stroke-width:0.25;"/>
<line x1="219.000000" y1="88.000000" x2="245.000000" y2="88.000000"  style="stroke:black; stroke-linecap:round; stroke-width:0.25;"/>
<line x1="229.500000" y1="40.000000" x2="233.500000" y2="40.000000"  style="stroke:black; stroke-linecap:round; stroke-width:0.25;"/>
<line x1="233.500000" y1="40.000000" x2="351.000000" y2="40.000000"  style="stroke:black; stroke-linecap:round; stroke-width:0.25;"/>
<line x1="245.000000" y1="88.000000" x2="271.000000" y2="88.000000"  style="stroke:black; stroke-linecap:round; stroke-width:0.25;"/>
<line x1="257.000000" y1="118.000000" x2="261.000000" y2="118.000000"  style="stroke:black; stroke-linecap:round; stroke-width:0.25;"/>
<line x1="261.000000" y1="118.000000" x2="271.000000" y2="118.000000"  style="stroke:black; stroke-linecap:round; stroke-width:0.25;"/>
<line x1="271.000000" y1="88.000000" x2="279.000000" y2="88.000000"  style="stroke:black; stroke-linecap:round; stroke-width:0.25;"/>
<line x1="271.000000" y1="118.000000" x2="279.000000" y2="118.000000"  style="stroke:black; stroke-linecap:round; stroke-width:0.25;"/>
<line x1="279.000000" y1="88.000000" x2="279.000000" y2="110.000000"  style="stroke:black; stroke-linecap:round; stroke-width:0.25;"/>
<line x1="279.000000" y1="110.000000" x2="279.000000" y2="110.000000"  style="stroke:black; stroke-linecap:round; stroke-width:0.25;"/>
<line x1="279.000000" y1="110.000000" x2="283.000000" y2="110.000000"  style="stroke:black; stroke-linecap:round; stroke-width:0.25;"/>
<line x1="279.000000" y1="118.000000" x2="283.000000" y2="118.000000"  style="stroke:black; stroke-linecap:round; stroke-width:0.25;"/>
<line x1="307.000000" y1="114.000000" x2="311.000000" y2="114.000000"  style="stroke:black; stroke-linecap:round; stroke-width:0.25;"/>
<line x1="311.000000" y1="64.000000" x2="319.000000" y2="64.000000"  style="stroke:black; stroke-linecap:round; stroke-width:0.25;"/>
<line x1="311.000000" y1="114.000000" x2="319.000000" y2="114.000000"  style="stroke:black; stroke-linecap:round; stroke-width:0.25;"/>
<line x1="319.000000" y1="64.000000" x2="319.000000" y2="106.000000"  style="stroke:black; stroke-linecap:round; stroke-width:0.25;"/>
<line x1="319.000000" y1="106.000000" x2="319.000000" y2="106.000000"  style="stroke:black; stroke-linecap:round; stroke-width:0.25;"/>
<line x1="319.000000" y1="106.000000" x2="323.000000" y2="106.000000"  style="stroke:black; stroke-linecap:round; stroke-width:0.25;"/>
<line x1="319.000000" y1="114.000000" x2="323.000000" y2="114.000000"  style="stroke:black; stroke-linecap:round; stroke-width:0.25;"/>
<line x1="347.000000" y1="110.000000" x2="351.000000" y2="110.000000"  style="stroke:black; stroke-linecap:round; stroke-width:0.25;"/>
<line x1="351.000000" y1="40.000000" x2="367.000000" y2="40.000000"  style="stroke:black; stroke-linecap:round; stroke-width:0.25;"/>
<line x1="351.000000" y1="94.000000" x2="367.000000" y2="94.000000"  style="stroke:black; stroke-linecap:round; stroke-width:0.25;"/>
<line x1="351.000000" y1="110.000000" x2="351.000000" y2="94.000000"  style="stroke:black; stroke-linecap:round; stroke-width:0.25;"/>
<line x1="351.000000" y1="110.000000" x2="351.000000" y2="110.000000"  style="stroke:black; stroke-linecap:round; stroke-width:0.25;"/>
<line x1="351.000000" y1="164.000000" x2="359.000000" y2="164.000000"  style="stroke:black; stroke-linecap:round; stroke-width:0.25;"/>
<line x1="359.000000" y1="102.000000" x2="367.000000" y2="102.000000"  style="stroke:black; stroke-linecap:round; stroke-width:0.25;"/>
<line x1="359.000000" y1="164.000000" x2="359.000000" y2="102.000000"  style="stroke:black; stroke-linecap:round; stroke-width:0.25;"/>
<line x1="367.000000" y1="40.000000" x2="367.000000" y2="86.000000"  style="stroke:black; stroke-linecap:round; stroke-width:0.25;"/>
<line x1="367.000000" y1="86.000000" x2="367.000000" y2="86.000000"  style="stroke:black; stroke-linecap:round; stroke-width:0.25;"/>
<line x1="367.000000" y1="86.000000" x2="371.000000" y2="86.000000"  style="stroke:black; stroke-linecap:round; stroke-width:0.25;"/>
<line x1="367.000000" y1="94.000000" x2="371.000000" y2="94.000000"  style="stroke:black; stroke-linecap:round; stroke-width:0.25;"/>
<line x1="367.000000" y1="102.000000" x2="371.000000" y2="102.000000"  style="stroke:black; stroke-linecap:round; stroke-width:0.25;"/>
<line x1="409.700000" y1="94.000000" x2="413.700000" y2="94.000000"  style="stroke:black; stroke-linecap:round; stroke-width:0.25;"/>
<line x1="413.700000" y1="94.000000" x2="413.700000" y2="94.000000"  style="stroke:black; stroke-linecap:round; stroke-width:0.25;"/>
<line x1="413.700000" y1="94.000000" x2="417.700000" y2="94.000000"  style="stroke:black; stroke-linecap:round; stroke-width:0.25;"/>
<line x1="417.700000" y1="94.000000" x2="421.700000" y2="94.000000"  style="stroke:black; stroke-linecap:round; stroke-width:0.25;"/>
<line x1="421.700000" y1="94.000000" x2="431.700000" y2="94.000000"  style="stroke:black; stroke-linecap:round; stroke-width:0.25;"/>
</svg>
