<?xml version="1.0"?>
<svg xmlns="http://www.w3.org/2000/svg" xmlns:xlink="http://www.w3.org/1999/xlink" viewBox="0 0 627.400000 592.000000" width="313.700000mm" height="296.000000mm" version="1.1">
<a xlink:href="process.svg">
<rect x="1.000000" y="1.000000" width="626.400000" height="591.000000" rx="0" ry="0" style="stroke:none;fill:#cccccc;"/>
<rect x="0.000000" y="0.000000" width="626.400000" height="591.000000" rx="0" ry="0" style="stroke:none;fill:#ffffff;"/>
</a>
<text x="10.000000" y="7.000000" font-family="Arial" font-size="7"></text>
<a xlink:href="keyboard-0x7fd97eea9630.svg">
<rect x="50.150000" y="25.000000" width="38.700000" height="24.000000" rx="0" ry="0" style="stroke:none;fill:#cccccc;"/>
<rect x="49.150000" y="24.000000" width="38.700000" height="24.000000" rx="0" ry="0" style="stroke:none;fill:#003366;"/>
</a>
<a xlink:href="keyboard-0x7fd97eea9630.svg">
<text x="68.500000" y="38.000000" font-family="Arial" font-size="7" text-anchor="middle" fill="#FFFFFF">keyboard</text>
</a>
<circle cx="51.150000" cy="26.000000" r="1"/>
<rect x="57.500000" y="57.000000" width="24.000000" height="24.000000" rx="0" ry="0" style="stroke:none;fill:#cccccc;"/>
<rect x="56.500000" y="56.000000" width="24.000000" height="24.000000" rx="0" ry="0" style="stroke:none;fill:#f44800;"/>
<text x="68.500000" y="70.000000" font-family="Arial" font-size="7" text-anchor="middle" fill="#FFFFFF">0</text>
<circle cx="58.500000" cy="58.000000" r="1"/>
<rect x="104.850000" y="41.000000" width="24.000000" height="24.000000" rx="0" ry="0" style="stroke:none;fill:#cccccc;"/>
<rect x="103.850000" y="40.000000" width="24.000000" height="24.000000" rx="0" ry="0" style="stroke:none;fill:#4B71A1;"/>
<text x="115.850000" y="54.000000" font-family="Arial" font-size="7" text-anchor="middle" fill="#FFFFFF">==</text>
<circle cx="105.850000" cy="42.000000" r="1"/>
<line x1="100.850000" y1="47.000000" x2="103.850000" y2="48.000000"  transform="rotate(0.000000,103.850000,48.000000)" style="stroke: black; stroke-width:0.25;"/>
<line x1="100.850000" y1="49.000000" x2="103.850000" y2="48.000000"  transform="rotate(0.000000,103.850000,48.000000)" style="stroke: black; stroke-width:0.25;"/>
<line x1="100.850000" y1="55.000000" x2="103.850000" y2="56.000000"  transform="rotate(0.000000,103.850000,56.000000)" style="stroke: black; stroke-width:0.25;"/>
<line x1="100.850000" y1="57.000000" x2="103.850000" y2="56.000000"  transform="rotate(0.000000,103.850000,56.000000)" style="stroke: black; stroke-width:0.25;"/>
<rect x="77.500000" y="89.000000" width="24.000000" height="24.000000" rx="0" ry="0" style="stroke:none;fill:#cccccc;"/>
<rect x="76.500000" y="88.000000" width="24.000000" height="24.000000" rx="0" ry="0" style="stroke:none;fill:#f44800;"/>
<text x="88.500000" y="102.000000" font-family="Arial" font-size="7" text-anchor="middle" fill="#FFFFFF">0</text>
<circle cx="78.500000" cy="90.000000" r="1"/>
<a xlink:href="sawtooth-0x7fd9801147c0.svg">
<rect x="25.000000" y="121.000000" width="129.000000" height="24.000000" rx="0" ry="0" style="stroke:none;fill:#cccccc;"/>
<rect x="24.000000" y="120.000000" width="129.000000" height="24.000000" rx="0" ry="0" style="stroke:none;fill:#003366;"/>
</a>
<a xlink:href="sawtooth-0x7fd9801147c0.svg">
<text x="88.500000" y="134.000000" font-family="Arial" font-size="7" text-anchor="middle" fill="#FFFFFF">sawtooth(hsli...*) : *)) : *)</text>
</a>
<circle cx="26.000000" cy="122.000000" r="1"/>
<rect x="178.000000" y="73.000000" width="38.700000" height="24.000000" rx="0" ry="0" style="stroke:none;fill:#cccccc;"/>
<rect x="177.000000" y="72.000000" width="38.700000" height="24.000000" rx="0" ry="0" style="stroke:none;fill:#4B71A1;"/>
<text x="196.350000" y="86.000000" font-family="Arial" font-size="7" text-anchor="middle" fill="#FFFFFF">select2</text>
<circle cx="179.000000" cy="74.000000" r="1"/>
<line x1="174.000000" y1="75.000000" x2="177.000000" y2="76.000000"  transform="rotate(0.000000,177.000000,76.000000)" style="stroke: black; stroke-width:0.25;"/>
<line x1="174.000000" y1="77.000000" x2="177.000000" y2="76.000000"  transform="rotate(0.000000,177.000000,76.000000)" style="stroke: black; stroke-width:0.25;"/>
<line x1="174.000000" y1="83.000000" x2="177.000000" y2="84.000000"  transform="rotate(0.000000,177.000000,84.000000)" style="stroke: black; stroke-width:0.25;"/>
<line x1="174.000000" y1="85.000000" x2="177.000000" y2="84.000000"  transform="rotate(0.000000,177.000000,84.000000)" style="stroke: black; stroke-width:0.25;"/>
<line x1="174.000000" y1="91.000000" x2="177.000000" y2="92.000000"  transform="rotate(0.000000,177.000000,92.000000)" style="stroke: black; stroke-width:0.25;"/>
<line x1="174.000000" y1="93.000000" x2="177.000000" y2="92.000000"  transform="rotate(0.000000,177.000000,92.000000)" style="stroke: black; stroke-width:0.25;"/>
<a xlink:href="keyboard-0x7fd97eea9630.svg">
<rect x="50.150000" y="153.000000" width="38.700000" height="24.000000" rx="0" ry="0" style="stroke:none;fill:#cccccc;"/>
<rect x="49.150000" y="152.000000" width="38.700000" height="24.000000" rx="0" ry="0" style="stroke:none;fill:#003366;"/>
</a>
<a xlink:href="keyboard-0x7fd97eea9630.svg">
<text x="68.500000" y="166.000000" font-family="Arial" font-size="7" text-anchor="middle" fill="#FFFFFF">keyboard</text>
</a>
<circle cx="51.150000" cy="154.000000" r="1"/>
<rect x="57.500000" y="195.000000" width="24.000000" height="24.000000" rx="0" ry="0" style="stroke:none;fill:#cccccc;"/>
<rect x="56.500000" y="194.000000" width="24.000000" height="24.000000" rx="0" ry="0" style="stroke:none;fill:#f44800;"/>
<text x="68.500000" y="208.000000" font-family="Arial" font-size="7" text-anchor="middle" fill="#FFFFFF">1</text>
<circle cx="58.500000" cy="196.000000" r="1"/>
<line x1="47.500000" y1="185.000000" x2="47.500000" y2="227.000000"  style="stroke: black; stroke-linecap:round; stroke-width:0.25; stroke-dasharray:3,3;"/>
<line x1="47.500000" y1="227.000000" x2="89.500000" y2="227.000000"  style="stroke: black; stroke-linecap:round; stroke-width:0.25; stroke-dasharray:3,3;"/>
<line x1="89.500000" y1="227.000000" x2="89.500000" y2="185.000000"  style="stroke: black; stroke-linecap:round; stroke-width:0.25; stroke-dasharray:3,3;"/>
<line x1="47.500000" y1="185.000000" x2="52.500000" y2="185.000000"  style="stroke: black; stroke-linecap:round; stroke-width:0.25; stroke-dasharray:3,3;"/>
<line x1="62.175000" y1="185.000000" x2="89.500000" y2="185.000000"  style="stroke: black; stroke-linecap:round; stroke-width:0.25; stroke-dasharray:3,3;"/>
<text x="52.500000" y="187.000000" font-family="Arial" font-size="7">S</text>
<rect x="107.500000" y="179.000000" width="24.000000" height="24.000000" rx="0" ry="0" style="stroke:none;fill:#cccccc;"/>
<rect x="106.500000" y="178.000000" width="24.000000" height="24.000000" rx="0" ry="0" style="stroke:none;fill:#4B71A1;"/>
<text x="118.500000" y="192.000000" font-family="Arial" font-size="7" text-anchor="middle" fill="#FFFFFF">==</text>
<circle cx="108.500000" cy="180.000000" r="1"/>
<line x1="103.500000" y1="185.000000" x2="106.500000" y2="186.000000"  transform="rotate(0.000000,106.500000,186.000000)" style="stroke: black; stroke-width:0.25;"/>
<line x1="103.500000" y1="187.000000" x2="106.500000" y2="186.000000"  transform="rotate(0.000000,106.500000,186.000000)" style="stroke: black; stroke-width:0.25;"/>
<line x1="103.500000" y1="193.000000" x2="106.500000" y2="194.000000"  transform="rotate(0.000000,106.500000,194.000000)" style="stroke: black; stroke-width:0.25;"/>
<line x1="103.500000" y1="195.000000" x2="106.500000" y2="194.000000"  transform="rotate(0.000000,106.500000,194.000000)" style="stroke: black; stroke-width:0.25;"/>
<rect x="77.500000" y="237.000000" width="24.000000" height="24.000000" rx="0" ry="0" style="stroke:none;fill:#cccccc;"/>
<rect x="76.500000" y="236.000000" width="24.000000" height="24.000000" rx="0" ry="0" style="stroke:none;fill:#f44800;"/>
<text x="88.500000" y="250.000000" font-family="Arial" font-size="7" text-anchor="middle" fill="#FFFFFF">0</text>
<circle cx="78.500000" cy="238.000000" r="1"/>
<a xlink:href="triangle-0x7fd980108c90.svg">
<rect x="25.000000" y="269.000000" width="129.000000" height="24.000000" rx="0" ry="0" style="stroke:none;fill:#cccccc;"/>
<rect x="24.000000" y="268.000000" width="129.000000" height="24.000000" rx="0" ry="0" style="stroke:none;fill:#003366;"/>
</a>
<a xlink:href="triangle-0x7fd980108c90.svg">
<text x="88.500000" y="282.000000" font-family="Arial" font-size="7" text-anchor="middle" fill="#FFFFFF">triangle(hsli...*) : *)) : *)</text>
</a>
<circle cx="26.000000" cy="270.000000" r="1"/>
<rect x="178.000000" y="211.000000" width="38.700000" height="24.000000" rx="0" ry="0" style="stroke:none;fill:#cccccc;"/>
<rect x="177.000000" y="210.000000" width="38.700000" height="24.000000" rx="0" ry="0" style="stroke:none;fill:#4B71A1;"/>
<text x="196.350000" y="224.000000" font-family="Arial" font-size="7" text-anchor="middle" fill="#FFFFFF">select2</text>
<circle cx="179.000000" cy="212.000000" r="1"/>
<line x1="174.000000" y1="213.000000" x2="177.000000" y2="214.000000"  transform="rotate(0.000000,177.000000,214.000000)" style="stroke: black; stroke-width:0.25;"/>
<line x1="174.000000" y1="215.000000" x2="177.000000" y2="214.000000"  transform="rotate(0.000000,177.000000,214.000000)" style="stroke: black; stroke-width:0.25;"/>
<line x1="174.000000" y1="221.000000" x2="177.000000" y2="222.000000"  transform="rotate(0.000000,177.000000,222.000000)" style="stroke: black; stroke-width:0.25;"/>
<line x1="174.000000" y1="223.000000" x2="177.000000" y2="222.000000"  transform="rotate(0.000000,177.000000,222.000000)" style="stroke: black; stroke-width:0.25;"/>
<line x1="174.000000" y1="229.000000" x2="177.000000" y2="230.000000"  transform="rotate(0.000000,177.000000,230.000000)" style="stroke: black; stroke-width:0.25;"/>
<line x1="174.000000" y1="231.000000" x2="177.000000" y2="230.000000"  transform="rotate(0.000000,177.000000,230.000000)" style="stroke: black; stroke-width:0.25;"/>
<a xlink:href="keyboard-0x7fd97eea9630.svg">
<rect x="50.150000" y="301.000000" width="38.700000" height="24.000000" rx="0" ry="0" style="stroke:none;fill:#cccccc;"/>
<rect x="49.150000" y="300.000000" width="38.700000" height="24.000000" rx="0" ry="0" style="stroke:none;fill:#003366;"/>
</a>
<a xlink:href="keyboard-0x7fd97eea9630.svg">
<text x="68.500000" y="314.000000" font-family="Arial" font-size="7" text-anchor="middle" fill="#FFFFFF">keyboard</text>
</a>
<circle cx="51.150000" cy="302.000000" r="1"/>
<rect x="57.500000" y="343.000000" width="24.000000" height="24.000000" rx="0" ry="0" style="stroke:none;fill:#cccccc;"/>
<rect x="56.500000" y="342.000000" width="24.000000" height="24.000000" rx="0" ry="0" style="stroke:none;fill:#f44800;"/>
<text x="68.500000" y="356.000000" font-family="Arial" font-size="7" text-anchor="middle" fill="#FFFFFF">2</text>
<circle cx="58.500000" cy="344.000000" r="1"/>
<line x1="47.500000" y1="333.000000" x2="47.500000" y2="375.000000"  style="stroke: black; stroke-linecap:round; stroke-width:0.25; stroke-dasharray:3,3;"/>
<line x1="47.500000" y1="375.000000" x2="89.500000" y2="375.000000"  style="stroke: black; stroke-linecap:round; stroke-width:0.25; stroke-dasharray:3,3;"/>
<line x1="89.500000" y1="375.000000" x2="89.500000" y2="333.000000"  style="stroke: black; stroke-linecap:round; stroke-width:0.25; stroke-dasharray:3,3;"/>
<line x1="47.500000" y1="333.000000" x2="52.500000" y2="333.000000"  style="stroke: black; stroke-linecap:round; stroke-width:0.25; stroke-dasharray:3,3;"/>
<line x1="65.400000" y1="333.000000" x2="89.500000" y2="333.000000"  style="stroke: black; stroke-linecap:round; stroke-width:0.25; stroke-dasharray:3,3;"/>
<text x="52.500000" y="335.000000" font-family="Arial" font-size="7">Nc</text>
<rect x="107.500000" y="327.000000" width="24.000000" height="24.000000" rx="0" ry="0" style="stroke:none;fill:#cccccc;"/>
<rect x="106.500000" y="326.000000" width="24.000000" height="24.000000" rx="0" ry="0" style="stroke:none;fill:#4B71A1;"/>
<text x="118.500000" y="340.000000" font-family="Arial" font-size="7" text-anchor="middle" fill="#FFFFFF">==</text>
<circle cx="108.500000" cy="328.000000" r="1"/>
<line x1="103.500000" y1="333.000000" x2="106.500000" y2="334.000000"  transform="rotate(0.000000,106.500000,334.000000)" style="stroke: black; stroke-width:0.25;"/>
<line x1="103.500000" y1="335.000000" x2="106.500000" y2="334.000000"  transform="rotate(0.000000,106.500000,334.000000)" style="stroke: black; stroke-width:0.25;"/>
<line x1="103.500000" y1="341.000000" x2="106.500000" y2="342.000000"  transform="rotate(0.000000,106.500000,342.000000)" style="stroke: black; stroke-width:0.25;"/>
<line x1="103.500000" y1="343.000000" x2="106.500000" y2="342.000000"  transform="rotate(0.000000,106.500000,342.000000)" style="stroke: black; stroke-width:0.25;"/>
<rect x="77.500000" y="385.000000" width="24.000000" height="24.000000" rx="0" ry="0" style="stroke:none;fill:#cccccc;"/>
<rect x="76.500000" y="384.000000" width="24.000000" height="24.000000" rx="0" ry="0" style="stroke:none;fill:#f44800;"/>
<text x="88.500000" y="398.000000" font-family="Arial" font-size="7" text-anchor="middle" fill="#FFFFFF">0</text>
<circle cx="78.500000" cy="386.000000" r="1"/>
<a xlink:href="square-0x7fd97ef18670.svg">
<rect x="25.000000" y="417.000000" width="129.000000" height="24.000000" rx="0" ry="0" style="stroke:none;fill:#cccccc;"/>
<rect x="24.000000" y="416.000000" width="129.000000" height="24.000000" rx="0" ry="0" style="stroke:none;fill:#003366;"/>
</a>
<a xlink:href="square-0x7fd97ef18670.svg">
<text x="88.500000" y="430.000000" font-family="Arial" font-size="7" text-anchor="middle" fill="#FFFFFF">square(hslide...*) : *)) : *)</text>
</a>
<circle cx="26.000000" cy="418.000000" r="1"/>
<rect x="178.000000" y="359.000000" width="38.700000" height="24.000000" rx="0" ry="0" style="stroke:none;fill:#cccccc;"/>
<rect x="177.000000" y="358.000000" width="38.700000" height="24.000000" rx="0" ry="0" style="stroke:none;fill:#4B71A1;"/>
<text x="196.350000" y="372.000000" font-family="Arial" font-size="7" text-anchor="middle" fill="#FFFFFF">select2</text>
<circle cx="179.000000" cy="360.000000" r="1"/>
<line x1="174.000000" y1="361.000000" x2="177.000000" y2="362.000000"  transform="rotate(0.000000,177.000000,362.000000)" style="stroke: black; stroke-width:0.25;"/>
<line x1="174.000000" y1="363.000000" x2="177.000000" y2="362.000000"  transform="rotate(0.000000,177.000000,362.000000)" style="stroke: black; stroke-width:0.25;"/>
<line x1="174.000000" y1="369.000000" x2="177.000000" y2="370.000000"  transform="rotate(0.000000,177.000000,370.000000)" style="stroke: black; stroke-width:0.25;"/>
<line x1="174.000000" y1="371.000000" x2="177.000000" y2="370.000000"  transform="rotate(0.000000,177.000000,370.000000)" style="stroke: black; stroke-width:0.25;"/>
<line x1="174.000000" y1="377.000000" x2="177.000000" y2="378.000000"  transform="rotate(0.000000,177.000000,378.000000)" style="stroke: black; stroke-width:0.25;"/>
<line x1="174.000000" y1="379.000000" x2="177.000000" y2="378.000000"  transform="rotate(0.000000,177.000000,378.000000)" style="stroke: black; stroke-width:0.25;"/>
<a xlink:href="keyboard-0x7fd97eea9630.svg">
<rect x="50.150000" y="449.000000" width="38.700000" height="24.000000" rx="0" ry="0" style="stroke:none;fill:#cccccc;"/>
<rect x="49.150000" y="448.000000" width="38.700000" height="24.000000" rx="0" ry="0" style="stroke:none;fill:#003366;"/>
</a>
<a xlink:href="keyboard-0x7fd97eea9630.svg">
<text x="68.500000" y="462.000000" font-family="Arial" font-size="7" text-anchor="middle" fill="#FFFFFF">keyboard</text>
</a>
<circle cx="51.150000" cy="450.000000" r="1"/>
<rect x="57.500000" y="481.000000" width="24.000000" height="24.000000" rx="0" ry="0" style="stroke:none;fill:#cccccc;"/>
<rect x="56.500000" y="480.000000" width="24.000000" height="24.000000" rx="0" ry="0" style="stroke:none;fill:#f44800;"/>
<text x="68.500000" y="494.000000" font-family="Arial" font-size="7" text-anchor="middle" fill="#FFFFFF">3</text>
<circle cx="58.500000" cy="482.000000" r="1"/>
<rect x="104.850000" y="465.000000" width="24.000000" height="24.000000" rx="0" ry="0" style="stroke:none;fill:#cccccc;"/>
<rect x="103.850000" y="464.000000" width="24.000000" height="24.000000" rx="0" ry="0" style="stroke:none;fill:#4B71A1;"/>
<text x="115.850000" y="478.000000" font-family="Arial" font-size="7" text-anchor="middle" fill="#FFFFFF">==</text>
<circle cx="105.850000" cy="466.000000" r="1"/>
<line x1="100.850000" y1="471.000000" x2="103.850000" y2="472.000000"  transform="rotate(0.000000,103.850000,472.000000)" style="stroke: black; stroke-width:0.25;"/>
<line x1="100.850000" y1="473.000000" x2="103.850000" y2="472.000000"  transform="rotate(0.000000,103.850000,472.000000)" style="stroke: black; stroke-width:0.25;"/>
<line x1="100.850000" y1="479.000000" x2="103.850000" y2="480.000000"  transform="rotate(0.000000,103.850000,480.000000)" style="stroke: black; stroke-width:0.25;"/>
<line x1="100.850000" y1="481.000000" x2="103.850000" y2="480.000000"  transform="rotate(0.000000,103.850000,480.000000)" style="stroke: black; stroke-width:0.25;"/>
<rect x="77.500000" y="513.000000" width="24.000000" height="24.000000" rx="0" ry="0" style="stroke:none;fill:#cccccc;"/>
<rect x="76.500000" y="512.000000" width="24.000000" height="24.000000" rx="0" ry="0" style="stroke:none;fill:#f44800;"/>
<text x="88.500000" y="526.000000" font-family="Arial" font-size="7" text-anchor="middle" fill="#FFFFFF">0</text>
<circle cx="78.500000" cy="514.000000" r="1"/>
<a xlink:href="osc-0x7fd97eeaa030.svg">
<rect x="25.000000" y="545.000000" width="129.000000" height="24.000000" rx="0" ry="0" style="stroke:none;fill:#cccccc;"/>
<rect x="24.000000" y="544.000000" width="129.000000" height="24.000000" rx="0" ry="0" style="stroke:none;fill:#003366;"/>
</a>
<a xlink:href="osc-0x7fd97eeaa030.svg">
<text x="88.500000" y="558.000000" font-family="Arial" font-size="7" text-anchor="middle" fill="#FFFFFF">osc(hslider(&quot;...*) : *)) : *)</text>
</a>
<circle cx="26.000000" cy="546.000000" r="1"/>
<rect x="178.000000" y="497.000000" width="38.700000" height="24.000000" rx="0" ry="0" style="stroke:none;fill:#cccccc;"/>
<rect x="177.000000" y="496.000000" width="38.700000" height="24.000000" rx="0" ry="0" style="stroke:none;fill:#4B71A1;"/>
<text x="196.350000" y="510.000000" font-family="Arial" font-size="7" text-anchor="middle" fill="#FFFFFF">select2</text>
<circle cx="179.000000" cy="498.000000" r="1"/>
<line x1="174.000000" y1="499.000000" x2="177.000000" y2="500.000000"  transform="rotate(0.000000,177.000000,500.000000)" style="stroke: black; stroke-width:0.25;"/>
<line x1="174.000000" y1="501.000000" x2="177.000000" y2="500.000000"  transform="rotate(0.000000,177.000000,500.000000)" style="stroke: black; stroke-width:0.25;"/>
<line x1="174.000000" y1="507.000000" x2="177.000000" y2="508.000000"  transform="rotate(0.000000,177.000000,508.000000)" style="stroke: black; stroke-width:0.25;"/>
<line x1="174.000000" y1="509.000000" x2="177.000000" y2="508.000000"  transform="rotate(0.000000,177.000000,508.000000)" style="stroke: black; stroke-width:0.25;"/>
<line x1="174.000000" y1="515.000000" x2="177.000000" y2="516.000000"  transform="rotate(0.000000,177.000000,516.000000)" style="stroke: black; stroke-width:0.25;"/>
<line x1="174.000000" y1="517.000000" x2="177.000000" y2="516.000000"  transform="rotate(0.000000,177.000000,516.000000)" style="stroke: black; stroke-width:0.25;"/>
<a xlink:href="lowpass-0x7fd980323cb0.svg">
<rect x="372.700000" y="285.000000" width="129.000000" height="24.000000" rx="0" ry="0" style="stroke:none;fill:#cccccc;"/>
<rect x="371.700000" y="284.000000" width="129.000000" height="24.000000" rx="0" ry="0" style="stroke:none;fill:#003366;"/>
</a>
<a xlink:href="lowpass-0x7fd980323cb0.svg">
<text x="436.200000" y="298.000000" font-family="Arial" font-size="7" text-anchor="middle" fill="#FFFFFF">lowpass(3)(((... : *),50 : +)</text>
</a>
<circle cx="373.700000" cy="286.000000" r="1"/>
<line x1="368.700000" y1="295.000000" x2="371.700000" y2="296.000000"  transform="rotate(0.000000,371.700000,296.000000)" style="stroke: black; stroke-width:0.25;"/>
<line x1="368.700000" y1="297.000000" x2="371.700000" y2="296.000000"  transform="rotate(0.000000,371.700000,296.000000)" style="stroke: black; stroke-width:0.25;"/>
<a xlink:href="envelope-0x7fd98031ffa0.svg">
<rect x="517.700000" y="289.000000" width="38.700000" height="24.000000" rx="0" ry="0" style="stroke:none;fill:#cccccc;"/>
<rect x="516.700000" y="288.000000" width="38.700000" height="24.000000" rx="0" ry="0" style="stroke:none;fill:#003366;"/>
</a>
<a xlink:href="envelope-0x7fd98031ffa0.svg">
<text x="536.050000" y="302.000000" font-family="Arial" font-size="7" text-anchor="middle" fill="#FFFFFF">envelope</text>
</a>
<circle cx="518.700000" cy="290.000000" r="1"/>
<rect x="572.400000" y="285.000000" width="24.000000" height="24.000000" rx="0" ry="0" style="stroke:none;fill:#cccccc;"/>
<rect x="571.400000" y="284.000000" width="24.000000" height="24.000000" rx="0" ry="0" style="stroke:none;fill:#4B71A1;"/>
<text x="583.400000" y="298.000000" font-family="Arial" font-size="7" text-anchor="middle" fill="#FFFFFF">*</text>
<circle cx="573.400000" cy="286.000000" r="1"/>
<line x1="568.400000" y1="291.000000" x2="571.400000" y2="292.000000"  transform="rotate(0.000000,571.400000,292.000000)" style="stroke: black; stroke-width:0.25;"/>
<line x1="568.400000" y1="293.000000" x2="571.400000" y2="292.000000"  transform="rotate(0.000000,571.400000,292.000000)" style="stroke: black; stroke-width:0.25;"/>
<line x1="568.400000" y1="299.000000" x2="571.400000" y2="300.000000"  transform="rotate(0.000000,571.400000,300.000000)" style="stroke: black; stroke-width:0.25;"/>
<line x1="568.400000" y1="301.000000" x2="571.400000" y2="300.000000"  transform="rotate(0.000000,571.400000,300.000000)" style="stroke: black; stroke-width:0.25;"/>
<line x1="15.000000" y1="15.000000" x2="15.000000" y2="577.000000"  style="stroke: black; stroke-linecap:round; stroke-width:0.25; stroke-dasharray:3,3;"/>
<line x1="15.000000" y1="577.000000" x2="612.400000" y2="577.000000"  style="stroke: black; stroke-linecap:round; stroke-width:0.25; stroke-dasharray:3,3;"/>
<line x1="612.400000" y1="577.000000" x2="612.400000" y2="15.000000"  style="stroke: black; stroke-linecap:round; stroke-width:0.25; stroke-dasharray:3,3;"/>
<line x1="15.000000" y1="15.000000" x2="20.000000" y2="15.000000"  style="stroke: black; stroke-linecap:round; stroke-width:0.25; stroke-dasharray:3,3;"/>
<line x1="45.800000" y1="15.000000" x2="612.400000" y2="15.000000"  style="stroke: black; stroke-linecap:round; stroke-width:0.25; stroke-dasharray:3,3;"/>
<text x="20.000000" y="17.000000" font-family="Arial" font-size="7">synths</text>
<line x1="614.400000" y1="295.000000" x2="617.400000" y2="296.000000"  transform="rotate(0.000000,617.400000,296.000000)" style="stroke: black; stroke-width:0.25;"/>
<line x1="614.400000" y1="297.000000" x2="617.400000" y2="296.000000"  transform="rotate(0.000000,617.400000,296.000000)" style="stroke: black; stroke-width:0.25;"/>
<line x1="80.500000" y1="68.000000" x2="84.500000" y2="68.000000"  style="stroke:black; stroke-linecap:round; stroke-width:0.25;"/>
<line x1="80.500000" y1="206.000000" x2="84.500000" y2="206.000000"  style="stroke:black; stroke-linecap:round; stroke-width:0.25;"/>
<line x1="80.500000" y1="354.000000" x2="84.500000" y2="354.000000"  style="stroke:black; stroke-linecap:round; stroke-width:0.25;"/>
<line x1="80.500000" y1="492.000000" x2="84.500000" y2="492.000000"  style="stroke:black; stroke-linecap:round; stroke-width:0.25;"/>
<line x1="84.500000" y1="68.000000" x2="91.850000" y2="68.000000"  style="stroke:black; stroke-linecap:round; stroke-width:0.25;"/>
<line x1="84.500000" y1="206.000000" x2="94.500000" y2="206.000000"  style="stroke:black; stroke-linecap:round; stroke-width:0.25;"/>
<line x1="84.500000" y1="354.000000" x2="94.500000" y2="354.000000"  style="stroke:black; stroke-linecap:round; stroke-width:0.25;"/>
<line x1="84.500000" y1="492.000000" x2="91.850000" y2="492.000000"  style="stroke:black; stroke-linecap:round; stroke-width:0.25;"/>
<line x1="87.850000" y1="36.000000" x2="91.850000" y2="36.000000"  style="stroke:black; stroke-linecap:round; stroke-width:0.25;"/>
<line x1="87.850000" y1="164.000000" x2="91.850000" y2="164.000000"  style="stroke:black; stroke-linecap:round; stroke-width:0.25;"/>
<line x1="87.850000" y1="312.000000" x2="91.850000" y2="312.000000"  style="stroke:black; stroke-linecap:round; stroke-width:0.25;"/>
<line x1="87.850000" y1="460.000000" x2="91.850000" y2="460.000000"  style="stroke:black; stroke-linecap:round; stroke-width:0.25;"/>
<line x1="91.850000" y1="36.000000" x2="99.850000" y2="36.000000"  style="stroke:black; stroke-linecap:round; stroke-width:0.25;"/>
<line x1="91.850000" y1="56.000000" x2="99.850000" y2="56.000000"  style="stroke:black; stroke-linecap:round; stroke-width:0.25;"/>
<line x1="91.850000" y1="68.000000" x2="91.850000" y2="56.000000"  style="stroke:black; stroke-linecap:round; stroke-width:0.25;"/>
<line x1="91.850000" y1="68.000000" x2="91.850000" y2="68.000000"  style="stroke:black; stroke-linecap:round; stroke-width:0.25;"/>
<line x1="91.850000" y1="164.000000" x2="94.500000" y2="164.000000"  style="stroke:black; stroke-linecap:round; stroke-width:0.25;"/>
<line x1="91.850000" y1="312.000000" x2="94.500000" y2="312.000000"  style="stroke:black; stroke-linecap:round; stroke-width:0.25;"/>
<line x1="91.850000" y1="460.000000" x2="99.850000" y2="460.000000"  style="stroke:black; stroke-linecap:round; stroke-width:0.25;"/>
<line x1="91.850000" y1="480.000000" x2="99.850000" y2="480.000000"  style="stroke:black; stroke-linecap:round; stroke-width:0.25;"/>
<line x1="91.850000" y1="492.000000" x2="91.850000" y2="480.000000"  style="stroke:black; stroke-linecap:round; stroke-width:0.25;"/>
<line x1="91.850000" y1="492.000000" x2="91.850000" y2="492.000000"  style="stroke:black; stroke-linecap:round; stroke-width:0.25;"/>
<line x1="94.500000" y1="164.000000" x2="102.500000" y2="164.000000"  style="stroke:black; stroke-linecap:round; stroke-width:0.25;"/>
<line x1="94.500000" y1="194.000000" x2="102.500000" y2="194.000000"  style="stroke:black; stroke-linecap:round; stroke-width:0.25;"/>
<line x1="94.500000" y1="206.000000" x2="94.500000" y2="194.000000"  style="stroke:black; stroke-linecap:round; stroke-width:0.25;"/>
<line x1="94.500000" y1="206.000000" x2="94.500000" y2="206.000000"  style="stroke:black; stroke-linecap:round; stroke-width:0.25;"/>
<line x1="94.500000" y1="312.000000" x2="102.500000" y2="312.000000"  style="stroke:black; stroke-linecap:round; stroke-width:0.25;"/>
<line x1="94.500000" y1="342.000000" x2="102.500000" y2="342.000000"  style="stroke:black; stroke-linecap:round; stroke-width:0.25;"/>
<line x1="94.500000" y1="354.000000" x2="94.500000" y2="342.000000"  style="stroke:black; stroke-linecap:round; stroke-width:0.25;"/>
<line x1="94.500000" y1="354.000000" x2="94.500000" y2="354.000000"  style="stroke:black; stroke-linecap:round; stroke-width:0.25;"/>
<line x1="99.850000" y1="36.000000" x2="99.850000" y2="48.000000"  style="stroke:black; stroke-linecap:round; stroke-width:0.25;"/>
<line x1="99.850000" y1="48.000000" x2="99.850000" y2="48.000000"  style="stroke:black; stroke-linecap:round; stroke-width:0.25;"/>
<line x1="99.850000" y1="48.000000" x2="103.850000" y2="48.000000"  style="stroke:black; stroke-linecap:round; stroke-width:0.25;"/>
<line x1="99.850000" y1="56.000000" x2="103.850000" y2="56.000000"  style="stroke:black; stroke-linecap:round; stroke-width:0.25;"/>
<line x1="99.850000" y1="460.000000" x2="99.850000" y2="472.000000"  style="stroke:black; stroke-linecap:round; stroke-width:0.25;"/>
<line x1="99.850000" y1="472.000000" x2="99.850000" y2="472.000000"  style="stroke:black; stroke-linecap:round; stroke-width:0.25;"/>
<line x1="99.850000" y1="472.000000" x2="103.850000" y2="472.000000"  style="stroke:black; stroke-linecap:round; stroke-width:0.25;"/>
<line x1="99.850000" y1="480.000000" x2="103.850000" y2="480.000000"  style="stroke:black; stroke-linecap:round; stroke-width:0.25;"/>
<line x1="100.500000" y1="100.000000" x2="104.500000" y2="100.000000"  style="stroke:black; stroke-linecap:round; stroke-width:0.25;"/>
<line x1="100.500000" y1="248.000000" x2="104.500000" y2="248.000000"  style="stroke:black; stroke-linecap:round; stroke-width:0.25;"/>
<line x1="100.500000" y1="396.000000" x2="104.500000" y2="396.000000"  style="stroke:black; stroke-linecap:round; stroke-width:0.25;"/>
<line x1="100.500000" y1="524.000000" x2="104.500000" y2="524.000000"  style="stroke:black; stroke-linecap:round; stroke-width:0.25;"/>
<line x1="102.500000" y1="164.000000" x2="102.500000" y2="186.000000"  style="stroke:black; stroke-linecap:round; stroke-width:0.25;"/>
<line x1="102.500000" y1="186.000000" x2="102.500000" y2="186.000000"  style="stroke:black; stroke-linecap:round; stroke-width:0.25;"/>
<line x1="102.500000" y1="186.000000" x2="106.500000" y2="186.000000"  style="stroke:black; stroke-linecap:round; stroke-width:0.25;"/>
<line x1="102.500000" y1="194.000000" x2="106.500000" y2="194.000000"  style="stroke:black; stroke-linecap:round; stroke-width:0.25;"/>
<line x1="102.500000" y1="312.000000" x2="102.500000" y2="334.000000"  style="stroke:black; stroke-linecap:round; stroke-width:0.25;"/>
<line x1="102.500000" y1="334.000000" x2="102.500000" y2="334.000000"  style="stroke:black; stroke-linecap:round; stroke-width:0.25;"/>
<line x1="102.500000" y1="334.000000" x2="106.500000" y2="334.000000"  style="stroke:black; stroke-linecap:round; stroke-width:0.25;"/>
<line x1="102.500000" y1="342.000000" x2="106.500000" y2="342.000000"  style="stroke:black; stroke-linecap:round; stroke-width:0.25;"/>
<line x1="104.500000" y1="100.000000" x2="157.000000" y2="100.000000"  style="stroke:black; stroke-linecap:round; stroke-width:0.25;"/>
<line x1="104.500000" y1="248.000000" x2="157.000000" y2="248.000000"  style="stroke:black; stroke-linecap:round; stroke-width:0.25;"/>
<line x1="104.500000" y1="396.000000" x2="157.000000" y2="396.000000"  style="stroke:black; stroke-linecap:round; stroke-width:0.25;"/>
<line x1="104.500000" y1="524.000000" x2="157.000000" y2="524.000000"  style="stroke:black; stroke-linecap:round; stroke-width:0.25;"/>
<line x1="127.850000" y1="52.000000" x2="131.850000" y2="52.000000"  style="stroke:black; stroke-linecap:round; stroke-width:0.25;"/>
<line x1="127.850000" y1="476.000000" x2="131.850000" y2="476.000000"  style="stroke:black; stroke-linecap:round; stroke-width:0.25;"/>
<line x1="130.500000" y1="190.000000" x2="134.500000" y2="190.000000"  style="stroke:black; stroke-linecap:round; stroke-width:0.25;"/>
<line x1="130.500000" y1="338.000000" x2="134.500000" y2="338.000000"  style="stroke:black; stroke-linecap:round; stroke-width:0.25;"/>
<line x1="131.850000" y1="52.000000" x2="157.000000" y2="52.000000"  style="stroke:black; stroke-linecap:round; stroke-width:0.25;"/>
<line x1="131.850000" y1="476.000000" x2="157.000000" y2="476.000000"  style="stroke:black; stroke-linecap:round; stroke-width:0.25;"/>
<line x1="134.500000" y1="190.000000" x2="157.000000" y2="190.000000"  style="stroke:black; stroke-linecap:round; stroke-width:0.25;"/>
<line x1="134.500000" y1="338.000000" x2="157.000000" y2="338.000000"  style="stroke:black; stroke-linecap:round; stroke-width:0.25;"/>
<line x1="153.000000" y1="132.000000" x2="157.000000" y2="132.000000"  style="stroke:black; stroke-linecap:round; stroke-width:0.25;"/>
<line x1="153.000000" y1="280.000000" x2="157.000000" y2="280.000000"  style="stroke:black; stroke-linecap:round; stroke-width:0.25;"/>
<line x1="153.000000" y1="428.000000" x2="157.000000" y2="428.000000"  style="stroke:black; stroke-linecap:round; stroke-width:0.25;"/>
<line x1="153.000000" y1="556.000000" x2="157.000000" y2="556.000000"  style="stroke:black; stroke-linecap:round; stroke-width:0.25;"/>
<line x1="157.000000" y1="52.000000" x2="173.000000" y2="52.000000"  style="stroke:black; stroke-linecap:round; stroke-width:0.25;"/>
<line x1="157.000000" y1="84.000000" x2="173.000000" y2="84.000000"  style="stroke:black; stroke-linecap:round; stroke-width:0.25;"/>
<line x1="157.000000" y1="100.000000" x2="157.000000" y2="84.000000"  style="stroke:black; stroke-linecap:round; stroke-width:0.25;"/>
<line x1="157.000000" y1="100.000000" x2="157.000000" y2="100.000000"  style="stroke:black; stroke-linecap:round; stroke-width:0.25;"/>
<line x1="157.000000" y1="132.000000" x2="165.000000" y2="132.000000"  style="stroke:black; stroke-linecap:round; stroke-width:0.25;"/>
<line x1="157.000000" y1="190.000000" x2="173.000000" y2="190.000000"  style="stroke:black; stroke-linecap:round; stroke-width:0.25;"/>
<line x1="157.000000" y1="222.000000" x2="173.000000" y2="222.000000"  style="stroke:black; stroke-linecap:round; stroke-width:0.25;"/>
<line x1="157.000000" y1="248.000000" x2="157.000000" y2="222.000000"  style="stroke:black; stroke-linecap:round; stroke-width:0.25;"/>
<line x1="157.000000" y1="248.000000" x2="157.000000" y2="248.000000"  style="stroke:black; stroke-linecap:round; stroke-width:0.25;"/>
<line x1="157.000000" y1="280.000000" x2="165.000000" y2="280.000000"  style="stroke:black; stroke-linecap:round; stroke-width:0.25;"/>
<line x1="157.000000" y1="338.000000" x2="173.000000" y2="338.000000"  style="stroke:black; stroke-linecap:round; stroke-width:0.25;"/>
<line x1="157.000000" y1="370.000000" x2="173.000000" y2="370.000000"  style="stroke:black; stroke-linecap:round; stroke-width:0.25;"/>
<line x1="157.000000" y1="396.000000" x2="157.000000" y2="370.000000"  style="stroke:black; stroke-linecap:round; stroke-width:0.25;"/>
<line x1="157.000000" y1="396.000000" x2="157.000000" y2="396.000000"  style="stroke:black; stroke-linecap:round; stroke-width:0.25;"/>
<line x1="157.000000" y1="428.000000" x2="165.000000" y2="428.000000"  style="stroke:black; stroke-linecap:round; stroke-width:0.25;"/>
<line x1="157.000000" y1="476.000000" x2="173.000000" y2="476.000000"  style="stroke:black; stroke-linecap:round; stroke-width:0.25;"/>
<line x1="157.000000" y1="508.000000" x2="173.000000" y2="508.000000"  style="stroke:black; stroke-linecap:round; stroke-width:0.25;"/>
<line x1="157.000000" y1="524.000000" x2="157.000000" y2="508.000000"  style="stroke:black; stroke-linecap:round; stroke-width:0.25;"/>
<line x1="157.000000" y1="524.000000" x2="157.000000" y2="524.000000"  style="stroke:black; stroke-linecap:round; stroke-width:0.25;"/>
<line x1="157.000000" y1="556.000000" x2="165.000000" y2="556.000000"  style="stroke:black; stroke-linecap:round; stroke-width:0.25;"/>
<line x1="165.000000" y1="92.000000" x2="173.000000" y2="92.000000"  style="stroke:black; stroke-linecap:round; stroke-width:0.25;"/>
<line x1="165.000000" y1="132.000000" x2="165.000000" y2="92.000000"  style="stroke:black; stroke-linecap:round; stroke-width:0.25;"/>
<line x1="165.000000" y1="230.000000" x2="173.000000" y2="230.000000"  style="stroke:black; stroke-linecap:round; stroke-width:0.25;"/>
<line x1="165.000000" y1="280.000000" x2="165.000000" y2="230.000000"  style="stroke:black; stroke-linecap:round; stroke-width:0.25;"/>
<line x1="165.000000" y1="378.000000" x2="173.000000" y2="378.000000"  style="stroke:black; stroke-linecap:round; stroke-width:0.25;"/>
<line x1="165.000000" y1="428.000000" x2="165.000000" y2="378.000000"  style="stroke:black; stroke-linecap:round; stroke-width:0.25;"/>
<line x1="165.000000" y1="516.000000" x2="173.000000" y2="516.000000"  style="stroke:black; stroke-linecap:round; stroke-width:0.25;"/>
<line x1="165.000000" y1="556.000000" x2="165.000000" y2="516.000000"  style="stroke:black; stroke-linecap:round; stroke-width:0.25;"/>
<line x1="173.000000" y1="52.000000" x2="173.000000" y2="76.000000"  style="stroke:black; stroke-linecap:round; stroke-width:0.25;"/>
<line x1="173.000000" y1="76.000000" x2="173.000000" y2="76.000000"  style="stroke:black; stroke-linecap:round; stroke-width:0.25;"/>
<line x1="173.000000" y1="76.000000" x2="177.000000" y2="76.000000"  style="stroke:black; stroke-linecap:round; stroke-width:0.25;"/>
<line x1="173.000000" y1="84.000000" x2="177.000000" y2="84.000000"  style="stroke:black; stroke-linecap:round; stroke-width:0.25;"/>
<line x1="173.000000" y1="92.000000" x2="177.000000" y2="92.000000"  style="stroke:black; stroke-linecap:round; stroke-width:0.25;"/>
<line x1="173.000000" y1="190.000000" x2="173.000000" y2="214.000000"  style="stroke:black; stroke-linecap:round; stroke-width:0.25;"/>
<line x1="173.000000" y1="214.000000" x2="173.000000" y2="214.000000"  style="stroke:black; stroke-linecap:round; stroke-width:0.25;"/>
<line x1="173.000000" y1="214.000000" x2="177.000000" y2="214.000000"  style="stroke:black; stroke-linecap:round; stroke-width:0.25;"/>
<line x1="173.000000" y1="222.000000" x2="177.000000" y2="222.000000"  style="stroke:black; stroke-linecap:round; stroke-width:0.25;"/>
<line x1="173.000000" y1="230.000000" x2="177.000000" y2="230.000000"  style="stroke:black; stroke-linecap:round; stroke-width:0.25;"/>
<line x1="173.000000" y1="338.000000" x2="173.000000" y2="362.000000"  style="stroke:black; stroke-linecap:round; stroke-width:0.25;"/>
<line x1="173.000000" y1="362.000000" x2="173.000000" y2="362.000000"  style="stroke:black; stroke-linecap:round; stroke-width:0.25;"/>
<line x1="173.000000" y1="362.000000" x2="177.000000" y2="362.000000"  style="stroke:black; stroke-linecap:round; stroke-width:0.25;"/>
<line x1="173.000000" y1="370.000000" x2="177.000000" y2="370.000000"  style="stroke:black; stroke-linecap:round; stroke-width:0.25;"/>
<line x1="173.000000" y1="378.000000" x2="177.000000" y2="378.000000"  style="stroke:black; stroke-linecap:round; stroke-width:0.25;"/>
<line x1="173.000000" y1="476.000000" x2="173.000000" y2="500.000000"  style="stroke:black; stroke-linecap:round; stroke-width:0.25;"/>
<line x1="173.000000" y1="500.000000" x2="173.000000" y2="500.000000"  style="stroke:black; stroke-linecap:round; stroke-width:0.25;"/>
<line x1="173.000000" y1="500.000000" x2="177.000000" y2="500.000000"  style="stroke:black; stroke-linecap:round; stroke-width:0.25;"/>
<line x1="173.000000" y1="508.000000" x2="177.000000" y2="508.000000"  style="stroke:black; stroke-linecap:round; stroke-width:0.25;"/>
<line x1="173.000000" y1="516.000000" x2="177.000000" y2="516.000000"  style="stroke:black; stroke-linecap:round; stroke-width:0.25;"/>
<line x1="215.700000" y1="84.000000" x2="219.700000" y2="84.000000"  style="stroke:black; stroke-linecap:round; stroke-width:0.25;"/>
<line x1="215.700000" y1="222.000000" x2="219.700000" y2="222.000000"  style="stroke:black; stroke-linecap:round; stroke-width:0.25;"/>
<line x1="215.700000" y1="370.000000" x2="219.700000" y2="370.000000"  style="stroke:black; stroke-linecap:round; stroke-width:0.25;"/>
<line x1="215.700000" y1="508.000000" x2="219.700000" y2="508.000000"  style="stroke:black; stroke-linecap:round; stroke-width:0.25;"/>
<line x1="219.700000" y1="84.000000" x2="367.700000" y2="296.000000"  style="stroke:black; stroke-linecap:round; stroke-width:0.25;"/>
<line x1="219.700000" y1="222.000000" x2="367.700000" y2="296.000000"  style="stroke:black; stroke-linecap:round; stroke-width:0.25;"/>
<line x1="219.700000" y1="370.000000" x2="367.700000" y2="296.000000"  style="stroke:black; stroke-linecap:round; stroke-width:0.25;"/>
<line x1="219.700000" y1="508.000000" x2="367.700000" y2="296.000000"  style="stroke:black; stroke-linecap:round; stroke-width:0.25;"/>
<line x1="367.700000" y1="296.000000" x2="371.700000" y2="296.000000"  style="stroke:black; stroke-linecap:round; stroke-width:0.25;"/>
<line x1="500.700000" y1="296.000000" x2="504.700000" y2="296.000000"  style="stroke:black; stroke-linecap:round; stroke-width:0.25;"/>
<line x1="504.700000" y1="280.000000" x2="512.700000" y2="280.000000"  style="stroke:black; stroke-linecap:round; stroke-width:0.25;"/>
<line x1="504.700000" y1="296.000000" x2="504.700000" y2="280.000000"  style="stroke:black; stroke-linecap:round; stroke-width:0.25;"/>
<line x1="504.700000" y1="296.000000" x2="504.700000" y2="296.000000"  style="stroke:black; stroke-linecap:round; stroke-width:0.25;"/>
<line x1="512.700000" y1="280.000000" x2="536.050000" y2="280.000000"  style="stroke:black; stroke-linecap:round; stroke-width:0.25;"/>
<line x1="536.050000" y1="280.000000" x2="559.400000" y2="280.000000"  style="stroke:black; stroke-linecap:round; stroke-width:0.25;"/>
<line x1="555.400000" y1="300.000000" x2="559.400000" y2="300.000000"  style="stroke:black; stroke-linecap:round; stroke-width:0.25;"/>
<line x1="559.400000" y1="280.000000" x2="567.400000" y2="280.000000"  style="stroke:black; stroke-linecap:round; stroke-width:0.25;"/>
<line x1="559.400000" y1="300.000000" x2="567.400000" y2="300.000000"  style="stroke:black; stroke-linecap:round; stroke-width:0.25;"/>
<line x1="567.400000" y1="280.000000" x2="567.400000" y2="292.000000"  style="stroke:black; stroke-linecap:round; stroke-width:0.25;"/>
<line x1="567.400000" y1="292.000000" x2="567.400000" y2="292.000000"  style="stroke:black; stroke-linecap:round; stroke-width:0.25;"/>
<line x1="567.400000" y1="292.000000" x2="571.400000" y2="292.000000"  style="stroke:black; stroke-linecap:round; stroke-width:0.25;"/>
<line x1="567.400000" y1="300.000000" x2="571.400000" y2="300.000000"  style="stroke:black; stroke-linecap:round; stroke-width:0.25;"/>
<line x1="595.400000" y1="296.000000" x2="599.400000" y2="296.000000"  style="stroke:black; stroke-linecap:round; stroke-width:0.25;"/>
<line x1="599.400000" y1="296.000000" x2="603.400000" y2="296.000000"  style="stroke:black; stroke-linecap:round; stroke-width:0.25;"/>
<line x1="599.400000" y1="296.000000" x2="599.400000" y2="296.000000"  style="stroke:black; stroke-linecap:round; stroke-width:0.25;"/>
<line x1="603.400000" y1="296.000000" x2="607.400000" y2="296.000000"  style="stroke:black; stroke-linecap:round; stroke-width:0.25;"/>
<line x1="607.400000" y1="296.000000" x2="617.400000" y2="296.000000"  style="stroke:black; stroke-linecap:round; stroke-width:0.25;"/>
</svg>
