<?xml version="1.0"?>
<svg xmlns="http://www.w3.org/2000/svg" xmlns:xlink="http://www.w3.org/1999/xlink" viewBox="0 0 305.500000 136.000000" width="152.750000mm" height="68.000000mm" version="1.1">
<a xlink:href="process.svg">
<rect x="1.000000" y="1.000000" width="304.500000" height="135.000000" rx="0" ry="0" style="stroke:none;fill:#cccccc;"/>
<rect x="0.000000" y="0.000000" width="304.500000" height="135.000000" rx="0" ry="0" style="stroke:none;fill:#ffffff;"/>
</a>
<text x="10.000000" y="7.000000" font-family="Arial" font-size="7"></text>
<a xlink:href="noise-0x7fe7f9d23180.svg">
<rect x="76.600000" y="25.000000" width="25.800000" height="24.000000" rx="0" ry="0" style="stroke:none;fill:#cccccc;"/>
<rect x="75.600000" y="24.000000" width="25.800000" height="24.000000" rx="0" ry="0" style="stroke:none;fill:#003366;"/>
</a>
<a xlink:href="noise-0x7fe7f9d23180.svg">
<text x="88.500000" y="38.000000" font-family="Arial" font-size="7" text-anchor="middle" fill="#FFFFFF">noise</text>
</a>
<circle cx="77.600000" cy="26.000000" r="1"/>
<a xlink:href="noise-0x7fe7f9d23180.svg">
<rect x="59.700000" y="57.000000" width="25.800000" height="24.000000" rx="0" ry="0" style="stroke:none;fill:#cccccc;"/>
<rect x="58.700000" y="56.000000" width="25.800000" height="24.000000" rx="0" ry="0" style="stroke:none;fill:#003366;"/>
</a>
<a xlink:href="noise-0x7fe7f9d23180.svg">
<text x="71.600000" y="70.000000" font-family="Arial" font-size="7" text-anchor="middle" fill="#FFFFFF">noise</text>
</a>
<circle cx="60.700000" cy="58.000000" r="1"/>
<a xlink:href="pink-0x7fe7f9d296e0.svg">
<rect x="93.500000" y="57.000000" width="25.800000" height="24.000000" rx="0" ry="0" style="stroke:none;fill:#cccccc;"/>
<rect x="92.500000" y="56.000000" width="25.800000" height="24.000000" rx="0" ry="0" style="stroke:none;fill:#003366;"/>
</a>
<a xlink:href="pink-0x7fe7f9d296e0.svg">
<text x="105.400000" y="70.000000" font-family="Arial" font-size="7" text-anchor="middle" fill="#FFFFFF">pink</text>
</a>
<circle cx="94.500000" cy="58.000000" r="1"/>
<line x1="89.500000" y1="67.000000" x2="92.500000" y2="68.000000"  transform="rotate(0.000000,92.500000,68.000000)" style="stroke: black; stroke-width:0.25;"/>
<line x1="89.500000" y1="69.000000" x2="92.500000" y2="68.000000"  transform="rotate(0.000000,92.500000,68.000000)" style="stroke: black; stroke-width:0.25;"/>
<a xlink:href="osci-0x7fe7fb1a7160.svg">
<rect x="25.000000" y="89.000000" width="129.000000" height="24.000000" rx="0" ry="0" style="stroke:none;fill:#cccccc;"/>
<rect x="24.000000" y="88.000000" width="129.000000" height="24.000000" rx="0" ry="0" style="stroke:none;fill:#003366;"/>
</a>
<a xlink:href="osci-0x7fe7fb1a7160.svg">
<text x="88.500000" y="102.000000" font-family="Arial" font-size="7" text-anchor="middle" fill="#FFFFFF">osci(hslider(...00.0f, 1.0f))</text>
</a>
<circle cx="26.000000" cy="90.000000" r="1"/>
<a xlink:href="wave-0x7fe7fb16bb70.svg">
<rect x="178.000000" y="45.000000" width="25.800000" height="24.000000" rx="0" ry="0" style="stroke:none;fill:#cccccc;"/>
<rect x="177.000000" y="44.000000" width="25.800000" height="24.000000" rx="0" ry="0" style="stroke:none;fill:#003366;"/>
</a>
<a xlink:href="wave-0x7fe7fb16bb70.svg">
<text x="189.900000" y="58.000000" font-family="Arial" font-size="7" text-anchor="middle" fill="#FFFFFF">wave</text>
</a>
<circle cx="179.000000" cy="46.000000" r="1"/>
<rect x="235.800000" y="53.000000" width="38.700000" height="32.000000" rx="0" ry="0" style="stroke:none;fill:#cccccc;"/>
<rect x="234.800000" y="52.000000" width="38.700000" height="32.000000" rx="0" ry="0" style="stroke:none;fill:#4B71A1;"/>
<text x="254.150000" y="70.000000" font-family="Arial" font-size="7" text-anchor="middle" fill="#FFFFFF">select3</text>
<circle cx="236.800000" cy="54.000000" r="1"/>
<line x1="231.800000" y1="55.000000" x2="234.800000" y2="56.000000"  transform="rotate(0.000000,234.800000,56.000000)" style="stroke: black; stroke-width:0.25;"/>
<line x1="231.800000" y1="57.000000" x2="234.800000" y2="56.000000"  transform="rotate(0.000000,234.800000,56.000000)" style="stroke: black; stroke-width:0.25;"/>
<line x1="231.800000" y1="63.000000" x2="234.800000" y2="64.000000"  transform="rotate(0.000000,234.800000,64.000000)" style="stroke: black; stroke-width:0.25;"/>
<line x1="231.800000" y1="65.000000" x2="234.800000" y2="64.000000"  transform="rotate(0.000000,234.800000,64.000000)" style="stroke: black; stroke-width:0.25;"/>
<line x1="231.800000" y1="71.000000" x2="234.800000" y2="72.000000"  transform="rotate(0.000000,234.800000,72.000000)" style="stroke: black; stroke-width:0.25;"/>
<line x1="231.800000" y1="73.000000" x2="234.800000" y2="72.000000"  transform="rotate(0.000000,234.800000,72.000000)" style="stroke: black; stroke-width:0.25;"/>
<line x1="231.800000" y1="79.000000" x2="234.800000" y2="80.000000"  transform="rotate(0.000000,234.800000,80.000000)" style="stroke: black; stroke-width:0.25;"/>
<line x1="231.800000" y1="81.000000" x2="234.800000" y2="80.000000"  transform="rotate(0.000000,234.800000,80.000000)" style="stroke: black; stroke-width:0.25;"/>
<line x1="15.000000" y1="15.000000" x2="15.000000" y2="121.000000"  style="stroke: black; stroke-linecap:round; stroke-width:0.25; stroke-dasharray:3,3;"/>
<line x1="15.000000" y1="121.000000" x2="290.500000" y2="121.000000"  style="stroke: black; stroke-linecap:round; stroke-width:0.25; stroke-dasharray:3,3;"/>
<line x1="290.500000" y1="121.000000" x2="290.500000" y2="15.000000"  style="stroke: black; stroke-linecap:round; stroke-width:0.25; stroke-dasharray:3,3;"/>
<line x1="15.000000" y1="15.000000" x2="20.000000" y2="15.000000"  style="stroke: black; stroke-linecap:round; stroke-width:0.25; stroke-dasharray:3,3;"/>
<line x1="58.700000" y1="15.000000" x2="290.500000" y2="15.000000"  style="stroke: black; stroke-linecap:round; stroke-width:0.25; stroke-dasharray:3,3;"/>
<text x="20.000000" y="17.000000" font-family="Arial" font-size="7">testsignal</text>
<line x1="292.500000" y1="67.000000" x2="295.500000" y2="68.000000"  transform="rotate(0.000000,295.500000,68.000000)" style="stroke: black; stroke-width:0.25;"/>
<line x1="292.500000" y1="69.000000" x2="295.500000" y2="68.000000"  transform="rotate(0.000000,295.500000,68.000000)" style="stroke: black; stroke-width:0.25;"/>
<line x1="84.500000" y1="68.000000" x2="88.500000" y2="68.000000"  style="stroke:black; stroke-linecap:round; stroke-width:0.25;"/>
<line x1="88.500000" y1="68.000000" x2="88.500000" y2="68.000000"  style="stroke:black; stroke-linecap:round; stroke-width:0.25;"/>
<line x1="88.500000" y1="68.000000" x2="92.500000" y2="68.000000"  style="stroke:black; stroke-linecap:round; stroke-width:0.25;"/>
<line x1="101.400000" y1="36.000000" x2="105.400000" y2="36.000000"  style="stroke:black; stroke-linecap:round; stroke-width:0.25;"/>
<line x1="105.400000" y1="36.000000" x2="157.000000" y2="36.000000"  style="stroke:black; stroke-linecap:round; stroke-width:0.25;"/>
<line x1="118.300000" y1="68.000000" x2="122.300000" y2="68.000000"  style="stroke:black; stroke-linecap:round; stroke-width:0.25;"/>
<line x1="122.300000" y1="68.000000" x2="157.000000" y2="68.000000"  style="stroke:black; stroke-linecap:round; stroke-width:0.25;"/>
<line x1="153.000000" y1="100.000000" x2="157.000000" y2="100.000000"  style="stroke:black; stroke-linecap:round; stroke-width:0.25;"/>
<line x1="157.000000" y1="36.000000" x2="173.000000" y2="36.000000"  style="stroke:black; stroke-linecap:round; stroke-width:0.25;"/>
<line x1="157.000000" y1="68.000000" x2="165.000000" y2="68.000000"  style="stroke:black; stroke-linecap:round; stroke-width:0.25;"/>
<line x1="157.000000" y1="92.000000" x2="173.000000" y2="92.000000"  style="stroke:black; stroke-linecap:round; stroke-width:0.25;"/>
<line x1="157.000000" y1="100.000000" x2="157.000000" y2="92.000000"  style="stroke:black; stroke-linecap:round; stroke-width:0.25;"/>
<line x1="157.000000" y1="100.000000" x2="157.000000" y2="100.000000"  style="stroke:black; stroke-linecap:round; stroke-width:0.25;"/>
<line x1="165.000000" y1="68.000000" x2="165.000000" y2="84.000000"  style="stroke:black; stroke-linecap:round; stroke-width:0.25;"/>
<line x1="165.000000" y1="84.000000" x2="173.000000" y2="84.000000"  style="stroke:black; stroke-linecap:round; stroke-width:0.25;"/>
<line x1="173.000000" y1="36.000000" x2="173.000000" y2="76.000000"  style="stroke:black; stroke-linecap:round; stroke-width:0.25;"/>
<line x1="173.000000" y1="76.000000" x2="173.000000" y2="76.000000"  style="stroke:black; stroke-linecap:round; stroke-width:0.25;"/>
<line x1="173.000000" y1="76.000000" x2="189.900000" y2="76.000000"  style="stroke:black; stroke-linecap:round; stroke-width:0.25;"/>
<line x1="173.000000" y1="84.000000" x2="189.900000" y2="84.000000"  style="stroke:black; stroke-linecap:round; stroke-width:0.25;"/>
<line x1="173.000000" y1="92.000000" x2="189.900000" y2="92.000000"  style="stroke:black; stroke-linecap:round; stroke-width:0.25;"/>
<line x1="189.900000" y1="76.000000" x2="206.800000" y2="76.000000"  style="stroke:black; stroke-linecap:round; stroke-width:0.25;"/>
<line x1="189.900000" y1="84.000000" x2="206.800000" y2="84.000000"  style="stroke:black; stroke-linecap:round; stroke-width:0.25;"/>
<line x1="189.900000" y1="92.000000" x2="206.800000" y2="92.000000"  style="stroke:black; stroke-linecap:round; stroke-width:0.25;"/>
<line x1="202.800000" y1="56.000000" x2="206.800000" y2="56.000000"  style="stroke:black; stroke-linecap:round; stroke-width:0.25;"/>
<line x1="206.800000" y1="56.000000" x2="230.800000" y2="56.000000"  style="stroke:black; stroke-linecap:round; stroke-width:0.25;"/>
<line x1="206.800000" y1="64.000000" x2="230.800000" y2="64.000000"  style="stroke:black; stroke-linecap:round; stroke-width:0.25;"/>
<line x1="206.800000" y1="76.000000" x2="206.800000" y2="64.000000"  style="stroke:black; stroke-linecap:round; stroke-width:0.25;"/>
<line x1="206.800000" y1="76.000000" x2="206.800000" y2="76.000000"  style="stroke:black; stroke-linecap:round; stroke-width:0.25;"/>
<line x1="206.800000" y1="84.000000" x2="214.800000" y2="84.000000"  style="stroke:black; stroke-linecap:round; stroke-width:0.25;"/>
<line x1="206.800000" y1="92.000000" x2="222.800000" y2="92.000000"  style="stroke:black; stroke-linecap:round; stroke-width:0.25;"/>
<line x1="214.800000" y1="72.000000" x2="230.800000" y2="72.000000"  style="stroke:black; stroke-linecap:round; stroke-width:0.25;"/>
<line x1="214.800000" y1="84.000000" x2="214.800000" y2="72.000000"  style="stroke:black; stroke-linecap:round; stroke-width:0.25;"/>
<line x1="222.800000" y1="80.000000" x2="230.800000" y2="80.000000"  style="stroke:black; stroke-linecap:round; stroke-width:0.25;"/>
<line x1="222.800000" y1="92.000000" x2="222.800000" y2="80.000000"  style="stroke:black; stroke-linecap:round; stroke-width:0.25;"/>
<line x1="230.800000" y1="56.000000" x2="234.800000" y2="56.000000"  style="stroke:black; stroke-linecap:round; stroke-width:0.25;"/>
<line x1="230.800000" y1="64.000000" x2="234.800000" y2="64.000000"  style="stroke:black; stroke-linecap:round; stroke-width:0.25;"/>
<line x1="230.800000" y1="72.000000" x2="234.800000" y2="72.000000"  style="stroke:black; stroke-linecap:round; stroke-width:0.25;"/>
<line x1="230.800000" y1="80.000000" x2="234.800000" y2="80.000000"  style="stroke:black; stroke-linecap:round; stroke-width:0.25;"/>
<line x1="273.500000" y1="68.000000" x2="277.500000" y2="68.000000"  style="stroke:black; stroke-linecap:round; stroke-width:0.25;"/>
<line x1="277.500000" y1="68.000000" x2="277.500000" y2="68.000000"  style="stroke:black; stroke-linecap:round; stroke-width:0.25;"/>
<line x1="277.500000" y1="68.000000" x2="281.500000" y2="68.000000"  style="stroke:black; stroke-linecap:round; stroke-width:0.25;"/>
<line x1="281.500000" y1="68.000000" x2="285.500000" y2="68.000000"  style="stroke:black; stroke-linecap:round; stroke-width:0.25;"/>
<line x1="285.500000" y1="68.000000" x2="295.500000" y2="68.000000"  style="stroke:black; stroke-linecap:round; stroke-width:0.25;"/>
</svg>
