<?xml version="1.0"?>
<svg xmlns="http://www.w3.org/2000/svg" xmlns:xlink="http://www.w3.org/1999/xlink" viewBox="0 0 255.700000 72.000000" width="127.850000mm" height="36.000000mm" version="1.1">
<a xlink:href="testsignal-0x7fb3139941d0.svg">
<rect x="1.000000" y="1.000000" width="254.700000" height="71.000000" rx="0" ry="0" style="stroke:none;fill:#cccccc;"/>
<rect x="0.000000" y="0.000000" width="254.700000" height="71.000000" rx="0" ry="0" style="stroke:none;fill:#ffffff;"/>
</a>
<text x="10.000000" y="7.000000" font-family="Arial" font-size="7"></text>
<rect x="25.000000" y="25.000000" width="167.700000" height="24.000000" rx="0" ry="0" style="stroke:none;fill:#cccccc;"/>
<rect x="24.000000" y="24.000000" width="167.700000" height="24.000000" rx="0" ry="0" style="stroke:none;fill:#477881;"/>
<text x="107.850000" y="38.000000" font-family="Arial" font-size="7" text-anchor="middle" fill="#FFFFFF">nentry(signal, 0.0f, 0.0f, 2.0f, 1.0f)</text>
<circle cx="26.000000" cy="26.000000" r="1"/>
<rect x="200.700000" y="25.000000" width="24.000000" height="24.000000" rx="0" ry="0" style="stroke:none;fill:#cccccc;"/>
<rect x="199.700000" y="24.000000" width="24.000000" height="24.000000" rx="0" ry="0" style="stroke:none;fill:#4B71A1;"/>
<text x="211.700000" y="38.000000" font-family="Arial" font-size="7" text-anchor="middle" fill="#FFFFFF">int</text>
<circle cx="201.700000" cy="26.000000" r="1"/>
<line x1="196.700000" y1="35.000000" x2="199.700000" y2="36.000000"  transform="rotate(0.000000,199.700000,36.000000)" style="stroke: black; stroke-width:0.25;"/>
<line x1="196.700000" y1="37.000000" x2="199.700000" y2="36.000000"  transform="rotate(0.000000,199.700000,36.000000)" style="stroke: black; stroke-width:0.25;"/>
<line x1="15.000000" y1="15.000000" x2="15.000000" y2="57.000000"  style="stroke: black; stroke-linecap:round; stroke-width:0.25; stroke-dasharray:3,3;"/>
<line x1="15.000000" y1="57.000000" x2="240.700000" y2="57.000000"  style="stroke: black; stroke-linecap:round; stroke-width:0.25; stroke-dasharray:3,3;"/>
<line x1="240.700000" y1="57.000000" x2="240.700000" y2="15.000000"  style="stroke: black; stroke-linecap:round; stroke-width:0.25; stroke-dasharray:3,3;"/>
<line x1="15.000000" y1="15.000000" x2="20.000000" y2="15.000000"  style="stroke: black; stroke-linecap:round; stroke-width:0.25; stroke-dasharray:3,3;"/>
<line x1="39.350000" y1="15.000000" x2="240.700000" y2="15.000000"  style="stroke: black; stroke-linecap:round; stroke-width:0.25; stroke-dasharray:3,3;"/>
<text x="20.000000" y="17.000000" font-family="Arial" font-size="7">wave</text>
<line x1="242.700000" y1="35.000000" x2="245.700000" y2="36.000000"  transform="rotate(0.000000,245.700000,36.000000)" style="stroke: black; stroke-width:0.25;"/>
<line x1="242.700000" y1="37.000000" x2="245.700000" y2="36.000000"  transform="rotate(0.000000,245.700000,36.000000)" style="stroke: black; stroke-width:0.25;"/>
<line x1="191.700000" y1="36.000000" x2="195.700000" y2="36.000000"  style="stroke:black; stroke-linecap:round; stroke-width:0.25;"/>
<line x1="195.700000" y1="36.000000" x2="195.700000" y2="36.000000"  style="stroke:black; stroke-linecap:round; stroke-width:0.25;"/>
<line x1="195.700000" y1="36.000000" x2="199.700000" y2="36.000000"  style="stroke:black; stroke-linecap:round; stroke-width:0.25;"/>
<line x1="223.700000" y1="36.000000" x2="227.700000" y2="36.000000"  style="stroke:black; stroke-linecap:round; stroke-width:0.25;"/>
<line x1="227.700000" y1="36.000000" x2="227.700000" y2="36.000000"  style="stroke:black; stroke-linecap:round; stroke-width:0.25;"/>
<line x1="227.700000" y1="36.000000" x2="231.700000" y2="36.000000"  style="stroke:black; stroke-linecap:round; stroke-width:0.25;"/>
<line x1="231.700000" y1="36.000000" x2="235.700000" y2="36.000000"  style="stroke:black; stroke-linecap:round; stroke-width:0.25;"/>
<line x1="235.700000" y1="36.000000" x2="245.700000" y2="36.000000"  style="stroke:black; stroke-linecap:round; stroke-width:0.25;"/>
</svg>
