<?xml version="1.0"?>
<svg xmlns="http://www.w3.org/2000/svg" xmlns:xlink="http://www.w3.org/1999/xlink" viewBox="0 0 284.600000 104.000000" width="142.300000mm" height="52.000000mm" version="1.1">
<a xlink:href="Bw-0x7fd89b31e7c0.svg">
<rect x="1.000000" y="1.000000" width="283.600000" height="103.000000" rx="0" ry="0" style="stroke:none;fill:#cccccc;"/>
<rect x="0.000000" y="0.000000" width="283.600000" height="103.000000" rx="0" ry="0" style="stroke:none;fill:#ffffff;"/>
</a>
<text x="10.000000" y="7.000000" font-family="Arial" font-size="7"></text>
<a xlink:href="f-0x7fd89b310000.svg">
<rect x="90.400000" y="25.000000" width="24.000000" height="24.000000" rx="0" ry="0" style="stroke:none;fill:#cccccc;"/>
<rect x="89.400000" y="24.000000" width="24.000000" height="24.000000" rx="0" ry="0" style="stroke:none;fill:#003366;"/>
</a>
<a xlink:href="f-0x7fd89b310000.svg">
<text x="101.400000" y="38.000000" font-family="Arial" font-size="7" text-anchor="middle" fill="#FFFFFF">f</text>
</a>
<circle cx="91.400000" cy="26.000000" r="1"/>
<rect x="25.000000" y="57.000000" width="154.800000" height="24.000000" rx="0" ry="0" style="stroke:none;fill:#cccccc;"/>
<rect x="24.000000" y="56.000000" width="154.800000" height="24.000000" rx="0" ry="0" style="stroke:none;fill:#477881;"/>
<text x="101.400000" y="70.000000" font-family="Arial" font-size="7" text-anchor="middle" fill="#FFFFFF">hslider(Q, 1.0f, 1.0f, 50.0f, 0.01f)</text>
<circle cx="26.000000" cy="58.000000" r="1"/>
<rect x="195.800000" y="41.000000" width="24.000000" height="24.000000" rx="0" ry="0" style="stroke:none;fill:#cccccc;"/>
<rect x="194.800000" y="40.000000" width="24.000000" height="24.000000" rx="0" ry="0" style="stroke:none;fill:#4B71A1;"/>
<text x="206.800000" y="54.000000" font-family="Arial" font-size="7" text-anchor="middle" fill="#FFFFFF">/</text>
<circle cx="196.800000" cy="42.000000" r="1"/>
<line x1="191.800000" y1="47.000000" x2="194.800000" y2="48.000000"  transform="rotate(0.000000,194.800000,48.000000)" style="stroke: black; stroke-width:0.25;"/>
<line x1="191.800000" y1="49.000000" x2="194.800000" y2="48.000000"  transform="rotate(0.000000,194.800000,48.000000)" style="stroke: black; stroke-width:0.25;"/>
<line x1="191.800000" y1="55.000000" x2="194.800000" y2="56.000000"  transform="rotate(0.000000,194.800000,56.000000)" style="stroke: black; stroke-width:0.25;"/>
<line x1="191.800000" y1="57.000000" x2="194.800000" y2="56.000000"  transform="rotate(0.000000,194.800000,56.000000)" style="stroke: black; stroke-width:0.25;"/>
<a xlink:href="smoo-0x7fd899f67900.svg">
<rect x="227.800000" y="41.000000" width="25.800000" height="24.000000" rx="0" ry="0" style="stroke:none;fill:#cccccc;"/>
<rect x="226.800000" y="40.000000" width="25.800000" height="24.000000" rx="0" ry="0" style="stroke:none;fill:#003366;"/>
</a>
<a xlink:href="smoo-0x7fd899f67900.svg">
<text x="239.700000" y="54.000000" font-family="Arial" font-size="7" text-anchor="middle" fill="#FFFFFF">smoo</text>
</a>
<circle cx="228.800000" cy="42.000000" r="1"/>
<line x1="223.800000" y1="51.000000" x2="226.800000" y2="52.000000"  transform="rotate(0.000000,226.800000,52.000000)" style="stroke: black; stroke-width:0.25;"/>
<line x1="223.800000" y1="53.000000" x2="226.800000" y2="52.000000"  transform="rotate(0.000000,226.800000,52.000000)" style="stroke: black; stroke-width:0.25;"/>
<line x1="15.000000" y1="15.000000" x2="15.000000" y2="89.000000"  style="stroke: black; stroke-linecap:round; stroke-width:0.25; stroke-dasharray:3,3;"/>
<line x1="15.000000" y1="89.000000" x2="269.600000" y2="89.000000"  style="stroke: black; stroke-linecap:round; stroke-width:0.25; stroke-dasharray:3,3;"/>
<line x1="269.600000" y1="89.000000" x2="269.600000" y2="15.000000"  style="stroke: black; stroke-linecap:round; stroke-width:0.25; stroke-dasharray:3,3;"/>
<line x1="15.000000" y1="15.000000" x2="20.000000" y2="15.000000"  style="stroke: black; stroke-linecap:round; stroke-width:0.25; stroke-dasharray:3,3;"/>
<line x1="29.675000" y1="15.000000" x2="269.600000" y2="15.000000"  style="stroke: black; stroke-linecap:round; stroke-width:0.25; stroke-dasharray:3,3;"/>
<text x="20.000000" y="17.000000" font-family="Arial" font-size="7">b</text>
<line x1="271.600000" y1="51.000000" x2="274.600000" y2="52.000000"  transform="rotate(0.000000,274.600000,52.000000)" style="stroke: black; stroke-width:0.25;"/>
<line x1="271.600000" y1="53.000000" x2="274.600000" y2="52.000000"  transform="rotate(0.000000,274.600000,52.000000)" style="stroke: black; stroke-width:0.25;"/>
<line x1="113.400000" y1="36.000000" x2="117.400000" y2="36.000000"  style="stroke:black; stroke-linecap:round; stroke-width:0.25;"/>
<line x1="117.400000" y1="36.000000" x2="182.800000" y2="36.000000"  style="stroke:black; stroke-linecap:round; stroke-width:0.25;"/>
<line x1="178.800000" y1="68.000000" x2="182.800000" y2="68.000000"  style="stroke:black; stroke-linecap:round; stroke-width:0.25;"/>
<line x1="182.800000" y1="36.000000" x2="190.800000" y2="36.000000"  style="stroke:black; stroke-linecap:round; stroke-width:0.25;"/>
<line x1="182.800000" y1="56.000000" x2="190.800000" y2="56.000000"  style="stroke:black; stroke-linecap:round; stroke-width:0.25;"/>
<line x1="182.800000" y1="68.000000" x2="182.800000" y2="56.000000"  style="stroke:black; stroke-linecap:round; stroke-width:0.25;"/>
<line x1="182.800000" y1="68.000000" x2="182.800000" y2="68.000000"  style="stroke:black; stroke-linecap:round; stroke-width:0.25;"/>
<line x1="190.800000" y1="36.000000" x2="190.800000" y2="48.000000"  style="stroke:black; stroke-linecap:round; stroke-width:0.25;"/>
<line x1="190.800000" y1="48.000000" x2="190.800000" y2="48.000000"  style="stroke:black; stroke-linecap:round; stroke-width:0.25;"/>
<line x1="190.800000" y1="48.000000" x2="194.800000" y2="48.000000"  style="stroke:black; stroke-linecap:round; stroke-width:0.25;"/>
<line x1="190.800000" y1="56.000000" x2="194.800000" y2="56.000000"  style="stroke:black; stroke-linecap:round; stroke-width:0.25;"/>
<line x1="218.800000" y1="52.000000" x2="222.800000" y2="52.000000"  style="stroke:black; stroke-linecap:round; stroke-width:0.25;"/>
<line x1="222.800000" y1="52.000000" x2="222.800000" y2="52.000000"  style="stroke:black; stroke-linecap:round; stroke-width:0.25;"/>
<line x1="222.800000" y1="52.000000" x2="226.800000" y2="52.000000"  style="stroke:black; stroke-linecap:round; stroke-width:0.25;"/>
<line x1="252.600000" y1="52.000000" x2="256.600000" y2="52.000000"  style="stroke:black; stroke-linecap:round; stroke-width:0.25;"/>
<line x1="256.600000" y1="52.000000" x2="256.600000" y2="52.000000"  style="stroke:black; stroke-linecap:round; stroke-width:0.25;"/>
<line x1="256.600000" y1="52.000000" x2="260.600000" y2="52.000000"  style="stroke:black; stroke-linecap:round; stroke-width:0.25;"/>
<line x1="260.600000" y1="52.000000" x2="264.600000" y2="52.000000"  style="stroke:black; stroke-linecap:round; stroke-width:0.25;"/>
<line x1="264.600000" y1="52.000000" x2="274.600000" y2="52.000000"  style="stroke:black; stroke-linecap:round; stroke-width:0.25;"/>
</svg>
