<?xml version="1.0"?>
<svg xmlns="http://www.w3.org/2000/svg" xmlns:xlink="http://www.w3.org/1999/xlink" viewBox="0 0 485.100000 156.000000" width="242.550000mm" height="78.000000mm" version="1.1">
<rect x="1.000000" y="1.000000" width="484.100000" height="155.000000" rx="0" ry="0" style="stroke:none;fill:#cccccc;"/>
<rect x="0.000000" y="0.000000" width="484.100000" height="155.000000" rx="0" ry="0" style="stroke:none;fill:#ffffff;"/>
<text x="10.000000" y="7.000000" font-family="Arial" font-size="7"></text>
<rect x="107.500000" y="25.000000" width="24.000000" height="24.000000" rx="0" ry="0" style="stroke:none;fill:#cccccc;"/>
<rect x="106.500000" y="24.000000" width="24.000000" height="24.000000" rx="0" ry="0" style="stroke:none;fill:#f44800;"/>
<text x="118.500000" y="38.000000" font-family="Arial" font-size="7" text-anchor="middle" fill="#FFFFFF">0</text>
<circle cx="108.500000" cy="26.000000" r="1"/>
<rect x="35.000000" y="67.000000" width="129.000000" height="24.000000" rx="0" ry="0" style="stroke:none;fill:#cccccc;"/>
<rect x="34.000000" y="66.000000" width="129.000000" height="24.000000" rx="0" ry="0" style="stroke:none;fill:#477881;"/>
<text x="98.500000" y="80.000000" font-family="Arial" font-size="7" text-anchor="middle" fill="#FFFFFF">checkbox(h:Controls/Play/Stop)</text>
<circle cx="36.000000" cy="68.000000" r="1"/>
<line x1="25.000000" y1="57.000000" x2="25.000000" y2="99.000000"  style="stroke: black; stroke-linecap:round; stroke-width:0.25; stroke-dasharray:3,3;"/>
<line x1="25.000000" y1="99.000000" x2="172.000000" y2="99.000000"  style="stroke: black; stroke-linecap:round; stroke-width:0.25; stroke-dasharray:3,3;"/>
<line x1="172.000000" y1="99.000000" x2="172.000000" y2="57.000000"  style="stroke: black; stroke-linecap:round; stroke-width:0.25; stroke-dasharray:3,3;"/>
<line x1="25.000000" y1="57.000000" x2="30.000000" y2="57.000000"  style="stroke: black; stroke-linecap:round; stroke-width:0.25; stroke-dasharray:3,3;"/>
<line x1="49.350000" y1="57.000000" x2="172.000000" y2="57.000000"  style="stroke: black; stroke-linecap:round; stroke-width:0.25; stroke-dasharray:3,3;"/>
<text x="30.000000" y="59.000000" font-family="Arial" font-size="7">play</text>
<a xlink:href="loop-0x6000026d2a00.svg">
<rect x="73.700000" y="109.000000" width="51.600000" height="24.000000" rx="0" ry="0" style="stroke:none;fill:#cccccc;"/>
<rect x="72.700000" y="108.000000" width="51.600000" height="24.000000" rx="0" ry="0" style="stroke:none;fill:#003366;"/>
</a>
<a xlink:href="loop-0x6000026d2a00.svg">
<text x="98.500000" y="122.000000" font-family="Arial" font-size="7" text-anchor="middle" fill="#FFFFFF">loop_index</text>
</a>
<circle cx="74.700000" cy="110.000000" r="1"/>
<rect x="190.000000" y="83.000000" width="24.000000" height="24.000000" rx="0" ry="0" style="stroke:none;fill:#cccccc;"/>
<rect x="189.000000" y="82.000000" width="24.000000" height="24.000000" rx="0" ry="0" style="stroke:none;fill:#4B71A1;"/>
<text x="201.000000" y="96.000000" font-family="Arial" font-size="7" text-anchor="middle" fill="#FFFFFF">*</text>
<circle cx="191.000000" cy="84.000000" r="1"/>
<line x1="186.000000" y1="89.000000" x2="189.000000" y2="90.000000"  transform="rotate(0.000000,189.000000,90.000000)" style="stroke: black; stroke-width:0.25;"/>
<line x1="186.000000" y1="91.000000" x2="189.000000" y2="90.000000"  transform="rotate(0.000000,189.000000,90.000000)" style="stroke: black; stroke-width:0.25;"/>
<line x1="186.000000" y1="97.000000" x2="189.000000" y2="98.000000"  transform="rotate(0.000000,189.000000,98.000000)" style="stroke: black; stroke-width:0.25;"/>
<line x1="186.000000" y1="99.000000" x2="189.000000" y2="98.000000"  transform="rotate(0.000000,189.000000,98.000000)" style="stroke: black; stroke-width:0.25;"/>
<rect x="240.000000" y="63.000000" width="90.300000" height="32.000000" rx="0" ry="0" style="stroke:none;fill:#cccccc;"/>
<rect x="239.000000" y="62.000000" width="90.300000" height="32.000000" rx="0" ry="0" style="stroke:none;fill:#477881;"/>
<text x="284.150000" y="80.000000" font-family="Arial" font-size="7" text-anchor="middle" fill="#FFFFFF">soundfile(sound, 2)</text>
<circle cx="241.000000" cy="64.000000" r="1"/>
<line x1="236.000000" y1="73.000000" x2="239.000000" y2="74.000000"  transform="rotate(0.000000,239.000000,74.000000)" style="stroke: black; stroke-width:0.25;"/>
<line x1="236.000000" y1="75.000000" x2="239.000000" y2="74.000000"  transform="rotate(0.000000,239.000000,74.000000)" style="stroke: black; stroke-width:0.25;"/>
<line x1="236.000000" y1="81.000000" x2="239.000000" y2="82.000000"  transform="rotate(0.000000,239.000000,82.000000)" style="stroke: black; stroke-width:0.25;"/>
<line x1="236.000000" y1="83.000000" x2="239.000000" y2="82.000000"  transform="rotate(0.000000,239.000000,82.000000)" style="stroke: black; stroke-width:0.25;"/>
<line x1="230.000000" y1="53.000000" x2="230.000000" y2="103.000000"  style="stroke: black; stroke-linecap:round; stroke-width:0.25; stroke-dasharray:3,3;"/>
<line x1="230.000000" y1="103.000000" x2="338.300000" y2="103.000000"  style="stroke: black; stroke-linecap:round; stroke-width:0.25; stroke-dasharray:3,3;"/>
<line x1="338.300000" y1="103.000000" x2="338.300000" y2="53.000000"  style="stroke: black; stroke-linecap:round; stroke-width:0.25; stroke-dasharray:3,3;"/>
<line x1="230.000000" y1="53.000000" x2="235.000000" y2="53.000000"  style="stroke: black; stroke-linecap:round; stroke-width:0.25; stroke-dasharray:3,3;"/>
<line x1="257.575000" y1="53.000000" x2="338.300000" y2="53.000000"  style="stroke: black; stroke-linecap:round; stroke-width:0.25; stroke-dasharray:3,3;"/>
<text x="235.000000" y="55.000000" font-family="Arial" font-size="7">sound</text>
<a xlink:href="pos-0x6000026d2b80.svg">
<rect x="372.300000" y="67.080000" width="24.000000" height="24.000000" rx="0" ry="0" style="stroke:none;fill:#cccccc;"/>
<rect x="371.300000" y="66.080000" width="24.000000" height="24.000000" rx="0" ry="0" style="stroke:none;fill:#003366;"/>
</a>
<a xlink:href="pos-0x6000026d2b80.svg">
<text x="383.300000" y="80.080000" font-family="Arial" font-size="7" text-anchor="middle" fill="#FFFFFF">pos</text>
</a>
<circle cx="373.300000" cy="68.080000" r="1"/>
<rect x="412.300000" y="63.080000" width="25.800000" height="24.000000" rx="0" ry="0" style="stroke:none;fill:#cccccc;"/>
<rect x="411.300000" y="62.080000" width="25.800000" height="24.000000" rx="0" ry="0" style="stroke:none;fill:#4B71A1;"/>
<text x="424.200000" y="76.080000" font-family="Arial" font-size="7" text-anchor="middle" fill="#FFFFFF">attach</text>
<circle cx="413.300000" cy="64.080000" r="1"/>
<line x1="408.300000" y1="69.080000" x2="411.300000" y2="70.080000"  transform="rotate(0.000000,411.300000,70.080000)" style="stroke: black; stroke-width:0.25;"/>
<line x1="408.300000" y1="71.080000" x2="411.300000" y2="70.080000"  transform="rotate(0.000000,411.300000,70.080000)" style="stroke: black; stroke-width:0.25;"/>
<line x1="408.300000" y1="77.080000" x2="411.300000" y2="78.080000"  transform="rotate(0.000000,411.300000,78.080000)" style="stroke: black; stroke-width:0.25;"/>
<line x1="408.300000" y1="79.080000" x2="411.300000" y2="78.080000"  transform="rotate(0.000000,411.300000,78.080000)" style="stroke: black; stroke-width:0.25;"/>
<line x1="15.000000" y1="15.000000" x2="15.000000" y2="141.000000"  style="stroke: black; stroke-linecap:round; stroke-width:0.25; stroke-dasharray:3,3;"/>
<line x1="15.000000" y1="141.000000" x2="470.100000" y2="141.000000"  style="stroke: black; stroke-linecap:round; stroke-width:0.25; stroke-dasharray:3,3;"/>
<line x1="470.100000" y1="141.000000" x2="470.100000" y2="15.000000"  style="stroke: black; stroke-linecap:round; stroke-width:0.25; stroke-dasharray:3,3;"/>
<line x1="15.000000" y1="15.000000" x2="20.000000" y2="15.000000"  style="stroke: black; stroke-linecap:round; stroke-width:0.25; stroke-dasharray:3,3;"/>
<line x1="49.025000" y1="15.000000" x2="470.100000" y2="15.000000"  style="stroke: black; stroke-linecap:round; stroke-width:0.25; stroke-dasharray:3,3;"/>
<text x="20.000000" y="17.000000" font-family="Arial" font-size="7">process</text>
<line x1="472.100000" y1="73.000000" x2="475.100000" y2="74.000000"  transform="rotate(0.000000,475.100000,74.000000)" style="stroke: black; stroke-width:0.25;"/>
<line x1="472.100000" y1="75.000000" x2="475.100000" y2="74.000000"  transform="rotate(0.000000,475.100000,74.000000)" style="stroke: black; stroke-width:0.25;"/>
<line x1="472.100000" y1="81.000000" x2="475.100000" y2="82.000000"  transform="rotate(0.000000,475.100000,82.000000)" style="stroke: black; stroke-width:0.25;"/>
<line x1="472.100000" y1="83.000000" x2="475.100000" y2="82.000000"  transform="rotate(0.000000,475.100000,82.000000)" style="stroke: black; stroke-width:0.25;"/>
<line x1="124.300000" y1="120.000000" x2="128.300000" y2="120.000000"  style="stroke:black; stroke-linecap:round; stroke-width:0.25;"/>
<line x1="128.300000" y1="120.000000" x2="177.000000" y2="120.000000"  style="stroke:black; stroke-linecap:round; stroke-width:0.25;"/>
<line x1="130.500000" y1="36.000000" x2="134.500000" y2="36.000000"  style="stroke:black; stroke-linecap:round; stroke-width:0.25;"/>
<line x1="134.500000" y1="36.000000" x2="217.000000" y2="36.000000"  style="stroke:black; stroke-linecap:round; stroke-width:0.25;"/>
<line x1="163.000000" y1="78.000000" x2="167.000000" y2="78.000000"  style="stroke:black; stroke-linecap:round; stroke-width:0.25;"/>
<line x1="167.000000" y1="78.000000" x2="177.000000" y2="78.000000"  style="stroke:black; stroke-linecap:round; stroke-width:0.25;"/>
<line x1="177.000000" y1="78.000000" x2="185.000000" y2="78.000000"  style="stroke:black; stroke-linecap:round; stroke-width:0.25;"/>
<line x1="177.000000" y1="98.000000" x2="185.000000" y2="98.000000"  style="stroke:black; stroke-linecap:round; stroke-width:0.25;"/>
<line x1="177.000000" y1="120.000000" x2="177.000000" y2="98.000000"  style="stroke:black; stroke-linecap:round; stroke-width:0.25;"/>
<line x1="177.000000" y1="120.000000" x2="177.000000" y2="120.000000"  style="stroke:black; stroke-linecap:round; stroke-width:0.25;"/>
<line x1="185.000000" y1="78.000000" x2="185.000000" y2="90.000000"  style="stroke:black; stroke-linecap:round; stroke-width:0.25;"/>
<line x1="185.000000" y1="90.000000" x2="185.000000" y2="90.000000"  style="stroke:black; stroke-linecap:round; stroke-width:0.25;"/>
<line x1="185.000000" y1="90.000000" x2="189.000000" y2="90.000000"  style="stroke:black; stroke-linecap:round; stroke-width:0.25;"/>
<line x1="185.000000" y1="98.000000" x2="189.000000" y2="98.000000"  style="stroke:black; stroke-linecap:round; stroke-width:0.25;"/>
<line x1="213.000000" y1="94.000000" x2="217.000000" y2="94.000000"  style="stroke:black; stroke-linecap:round; stroke-width:0.25;"/>
<line x1="217.000000" y1="36.000000" x2="225.000000" y2="36.000000"  style="stroke:black; stroke-linecap:round; stroke-width:0.25;"/>
<line x1="217.000000" y1="82.000000" x2="225.000000" y2="82.000000"  style="stroke:black; stroke-linecap:round; stroke-width:0.25;"/>
<line x1="217.000000" y1="94.000000" x2="217.000000" y2="82.000000"  style="stroke:black; stroke-linecap:round; stroke-width:0.25;"/>
<line x1="217.000000" y1="94.000000" x2="217.000000" y2="94.000000"  style="stroke:black; stroke-linecap:round; stroke-width:0.25;"/>
<line x1="225.000000" y1="36.000000" x2="225.000000" y2="74.000000"  style="stroke:black; stroke-linecap:round; stroke-width:0.25;"/>
<line x1="225.000000" y1="74.000000" x2="225.000000" y2="74.000000"  style="stroke:black; stroke-linecap:round; stroke-width:0.25;"/>
<line x1="225.000000" y1="74.000000" x2="235.000000" y2="74.000000"  style="stroke:black; stroke-linecap:round; stroke-width:0.25;"/>
<line x1="225.000000" y1="82.000000" x2="235.000000" y2="82.000000"  style="stroke:black; stroke-linecap:round; stroke-width:0.25;"/>
<line x1="235.000000" y1="74.000000" x2="239.000000" y2="74.000000"  style="stroke:black; stroke-linecap:round; stroke-width:0.25;"/>
<line x1="235.000000" y1="82.000000" x2="239.000000" y2="82.000000"  style="stroke:black; stroke-linecap:round; stroke-width:0.25;"/>
<line x1="329.300000" y1="82.000000" x2="333.300000" y2="82.000000"  style="stroke:black; stroke-linecap:round; stroke-width:0.25;"/>
<line x1="329.300000" y1="90.000000" x2="333.300000" y2="90.000000"  style="stroke:black; stroke-linecap:round; stroke-width:0.25;"/>
<line x1="333.300000" y1="82.000000" x2="343.300000" y2="82.000000"  style="stroke:black; stroke-linecap:round; stroke-width:0.25;"/>
<line x1="333.300000" y1="90.000000" x2="343.300000" y2="90.000000"  style="stroke:black; stroke-linecap:round; stroke-width:0.25;"/>
<line x1="343.300000" y1="82.000000" x2="359.300000" y2="82.000000"  style="stroke:black; stroke-linecap:round; stroke-width:0.25;"/>
<line x1="343.300000" y1="90.000000" x2="367.300000" y2="90.000000"  style="stroke:black; stroke-linecap:round; stroke-width:0.25;"/>
<line x1="359.300000" y1="58.080000" x2="367.300000" y2="58.080000"  style="stroke:black; stroke-linecap:round; stroke-width:0.25;"/>
<line x1="359.300000" y1="82.000000" x2="359.300000" y2="58.080000"  style="stroke:black; stroke-linecap:round; stroke-width:0.25;"/>
<line x1="367.300000" y1="58.080000" x2="383.300000" y2="58.080000"  style="stroke:black; stroke-linecap:round; stroke-width:0.25;"/>
<line x1="367.300000" y1="90.000000" x2="367.300000" y2="98.080000"  style="stroke:black; stroke-linecap:round; stroke-width:0.25;"/>
<line x1="367.300000" y1="98.080000" x2="367.300000" y2="98.080000"  style="stroke:black; stroke-linecap:round; stroke-width:0.25;"/>
<line x1="367.300000" y1="98.080000" x2="404.200000" y2="98.080000"  style="stroke:black; stroke-linecap:round; stroke-width:0.25;"/>
<line x1="383.300000" y1="58.080000" x2="399.300000" y2="58.080000"  style="stroke:black; stroke-linecap:round; stroke-width:0.25;"/>
<line x1="395.300000" y1="78.080000" x2="399.300000" y2="78.080000"  style="stroke:black; stroke-linecap:round; stroke-width:0.25;"/>
<line x1="399.300000" y1="58.080000" x2="407.300000" y2="58.080000"  style="stroke:black; stroke-linecap:round; stroke-width:0.25;"/>
<line x1="399.300000" y1="78.080000" x2="407.300000" y2="78.080000"  style="stroke:black; stroke-linecap:round; stroke-width:0.25;"/>
<line x1="404.200000" y1="98.080000" x2="441.100000" y2="98.080000"  style="stroke:black; stroke-linecap:round; stroke-width:0.25;"/>
<line x1="407.300000" y1="58.080000" x2="407.300000" y2="70.080000"  style="stroke:black; stroke-linecap:round; stroke-width:0.25;"/>
<line x1="407.300000" y1="70.080000" x2="407.300000" y2="70.080000"  style="stroke:black; stroke-linecap:round; stroke-width:0.25;"/>
<line x1="407.300000" y1="70.080000" x2="411.300000" y2="70.080000"  style="stroke:black; stroke-linecap:round; stroke-width:0.25;"/>
<line x1="407.300000" y1="78.080000" x2="411.300000" y2="78.080000"  style="stroke:black; stroke-linecap:round; stroke-width:0.25;"/>
<line x1="437.100000" y1="74.080000" x2="441.100000" y2="74.080000"  style="stroke:black; stroke-linecap:round; stroke-width:0.25;"/>
<line x1="441.100000" y1="98.080000" x2="449.100000" y2="98.080000"  style="stroke:black; stroke-linecap:round; stroke-width:0.25;"/>
<line x1="441.100000" y1="74.000000" x2="457.100000" y2="74.000000"  style="stroke:black; stroke-linecap:round; stroke-width:0.25;"/>
<line x1="441.100000" y1="74.080000" x2="441.100000" y2="74.000000"  style="stroke:black; stroke-linecap:round; stroke-width:0.25;"/>
<line x1="441.100000" y1="74.080000" x2="441.100000" y2="74.080000"  style="stroke:black; stroke-linecap:round; stroke-width:0.25;"/>
<line x1="449.100000" y1="82.000000" x2="457.100000" y2="82.000000"  style="stroke:black; stroke-linecap:round; stroke-width:0.25;"/>
<line x1="449.100000" y1="98.080000" x2="449.100000" y2="82.000000"  style="stroke:black; stroke-linecap:round; stroke-width:0.25;"/>
<line x1="457.100000" y1="74.000000" x2="461.100000" y2="74.000000"  style="stroke:black; stroke-linecap:round; stroke-width:0.25;"/>
<line x1="457.100000" y1="82.000000" x2="461.100000" y2="82.000000"  style="stroke:black; stroke-linecap:round; stroke-width:0.25;"/>
<line x1="461.100000" y1="74.000000" x2="465.100000" y2="74.000000"  style="stroke:black; stroke-linecap:round; stroke-width:0.25;"/>
<line x1="461.100000" y1="82.000000" x2="465.100000" y2="82.000000"  style="stroke:black; stroke-linecap:round; stroke-width:0.25;"/>
<line x1="465.100000" y1="74.000000" x2="475.100000" y2="74.000000"  style="stroke:black; stroke-linecap:round; stroke-width:0.25;"/>
<line x1="465.100000" y1="82.000000" x2="475.100000" y2="82.000000"  style="stroke:black; stroke-linecap:round; stroke-width:0.25;"/>
</svg>
