<?xml version="1.0"?>
<svg xmlns="http://www.w3.org/2000/svg" xmlns:xlink="http://www.w3.org/1999/xlink" viewBox="0 0 379.600000 232.000000" width="189.800000mm" height="116.000000mm" version="1.1">
<a xlink:href="guitarNuts-0x7fe2c5a7d2b0.svg">
<rect x="1.000000" y="1.000000" width="378.600000" height="231.000000" rx="0" ry="0" style="stroke:none;fill:#cccccc;"/>
<rect x="0.000000" y="0.000000" width="378.600000" height="231.000000" rx="0" ry="0" style="stroke:none;fill:#ffffff;"/>
</a>
<text x="10.000000" y="7.000000" font-family="Arial" font-size="7"></text>
<rect x="41.000000" y="73.000000" width="51.600000" height="24.000000" rx="0" ry="0" style="stroke:none;fill:#cccccc;"/>
<rect x="40.000000" y="72.000000" width="51.600000" height="24.000000" rx="0" ry="0" style="stroke:none;fill:#47945E;"/>
<text x="65.800000" y="86.000000" font-family="Arial" font-size="7" text-anchor="middle" fill="#FFFFFF">brightness</text>
<circle cx="42.000000" cy="74.000000" r="1"/>
<line x1="37.000000" y1="83.000000" x2="40.000000" y2="84.000000"  transform="rotate(0.000000,40.000000,84.000000)" style="stroke: black; stroke-width:0.25;"/>
<line x1="37.000000" y1="85.000000" x2="40.000000" y2="84.000000"  transform="rotate(0.000000,40.000000,84.000000)" style="stroke: black; stroke-width:0.25;"/>
<rect x="41.000000" y="105.000000" width="51.600000" height="24.000000" rx="0" ry="0" style="stroke:none;fill:#cccccc;"/>
<rect x="40.000000" y="104.000000" width="51.600000" height="24.000000" rx="0" ry="0" style="stroke:none;fill:#47945E;"/>
<text x="65.800000" y="118.000000" font-family="Arial" font-size="7" text-anchor="middle" fill="#FFFFFF">absorption</text>
<circle cx="42.000000" cy="106.000000" r="1"/>
<line x1="37.000000" y1="115.000000" x2="40.000000" y2="116.000000"  transform="rotate(0.000000,40.000000,116.000000)" style="stroke: black; stroke-width:0.25;"/>
<line x1="37.000000" y1="117.000000" x2="40.000000" y2="116.000000"  transform="rotate(0.000000,40.000000,116.000000)" style="stroke: black; stroke-width:0.25;"/>
<rect x="54.800000" y="137.000000" width="24.000000" height="24.000000" rx="0" ry="0" style="stroke:none;fill:#cccccc;"/>
<rect x="53.800000" y="136.000000" width="24.000000" height="24.000000" rx="0" ry="0" style="stroke:none;fill:#47945E;"/>
<text x="65.800000" y="150.000000" font-family="Arial" font-size="7" text-anchor="middle" fill="#FFFFFF">x</text>
<circle cx="55.800000" cy="138.000000" r="1"/>
<line x1="50.800000" y1="147.000000" x2="53.800000" y2="148.000000"  transform="rotate(0.000000,53.800000,148.000000)" style="stroke: black; stroke-width:0.25;"/>
<line x1="50.800000" y1="149.000000" x2="53.800000" y2="148.000000"  transform="rotate(0.000000,53.800000,148.000000)" style="stroke: black; stroke-width:0.25;"/>
<a xlink:href="rho-0x7fe2c5a77640.svg">
<rect x="192.600000" y="25.000000" width="24.000000" height="24.000000" rx="0" ry="0" style="stroke:none;fill:#cccccc;"/>
<rect x="191.600000" y="24.000000" width="24.000000" height="24.000000" rx="0" ry="0" style="stroke:none;fill:#003366;"/>
</a>
<a xlink:href="rho-0x7fe2c5a77640.svg">
<text x="203.600000" y="38.000000" font-family="Arial" font-size="7" text-anchor="middle" fill="#FFFFFF">rho</text>
</a>
<circle cx="193.600000" cy="26.000000" r="1"/>
<a xlink:href="h0-0x7fe2c5a79950.svg">
<rect x="152.600000" y="57.000000" width="24.000000" height="24.000000" rx="0" ry="0" style="stroke:none;fill:#cccccc;"/>
<rect x="151.600000" y="56.000000" width="24.000000" height="24.000000" rx="0" ry="0" style="stroke:none;fill:#003366;"/>
</a>
<a xlink:href="h0-0x7fe2c5a79950.svg">
<text x="163.600000" y="70.000000" font-family="Arial" font-size="7" text-anchor="middle" fill="#FFFFFF">h0</text>
</a>
<circle cx="153.600000" cy="58.000000" r="1"/>
<rect x="136.600000" y="89.000000" width="24.000000" height="24.000000" rx="0" ry="0" style="stroke:none;fill:#cccccc;"/>
<rect x="135.600000" y="88.000000" width="24.000000" height="24.000000" rx="0" ry="0" style="stroke:none;fill:#47945E;"/>
<text x="147.600000" y="102.000000" font-family="Arial" font-size="7" text-anchor="middle" fill="#FFFFFF">x</text>
<circle cx="137.600000" cy="90.000000" r="1"/>
<rect x="168.600000" y="89.000000" width="24.000000" height="24.000000" rx="0" ry="0" style="stroke:none;fill:#cccccc;"/>
<rect x="167.600000" y="88.000000" width="24.000000" height="24.000000" rx="0" ry="0" style="stroke:none;fill:#4B71A1;"/>
<text x="179.600000" y="102.000000" font-family="Arial" font-size="7" text-anchor="middle" fill="#FFFFFF">mem</text>
<circle cx="169.600000" cy="90.000000" r="1"/>
<line x1="164.600000" y1="99.000000" x2="167.600000" y2="100.000000"  transform="rotate(0.000000,167.600000,100.000000)" style="stroke: black; stroke-width:0.25;"/>
<line x1="164.600000" y1="101.000000" x2="167.600000" y2="100.000000"  transform="rotate(0.000000,167.600000,100.000000)" style="stroke: black; stroke-width:0.25;"/>
<rect x="208.600000" y="73.000000" width="24.000000" height="24.000000" rx="0" ry="0" style="stroke:none;fill:#cccccc;"/>
<rect x="207.600000" y="72.000000" width="24.000000" height="24.000000" rx="0" ry="0" style="stroke:none;fill:#4B71A1;"/>
<text x="219.600000" y="86.000000" font-family="Arial" font-size="7" text-anchor="middle" fill="#FFFFFF">*</text>
<circle cx="209.600000" cy="74.000000" r="1"/>
<line x1="204.600000" y1="79.000000" x2="207.600000" y2="80.000000"  transform="rotate(0.000000,207.600000,80.000000)" style="stroke: black; stroke-width:0.25;"/>
<line x1="204.600000" y1="81.000000" x2="207.600000" y2="80.000000"  transform="rotate(0.000000,207.600000,80.000000)" style="stroke: black; stroke-width:0.25;"/>
<line x1="204.600000" y1="87.000000" x2="207.600000" y2="88.000000"  transform="rotate(0.000000,207.600000,88.000000)" style="stroke: black; stroke-width:0.25;"/>
<line x1="204.600000" y1="89.000000" x2="207.600000" y2="88.000000"  transform="rotate(0.000000,207.600000,88.000000)" style="stroke: black; stroke-width:0.25;"/>
<a xlink:href="h1-0x7fe2c5a7bc00.svg">
<rect x="152.600000" y="121.000000" width="24.000000" height="24.000000" rx="0" ry="0" style="stroke:none;fill:#cccccc;"/>
<rect x="151.600000" y="120.000000" width="24.000000" height="24.000000" rx="0" ry="0" style="stroke:none;fill:#003366;"/>
</a>
<a xlink:href="h1-0x7fe2c5a7bc00.svg">
<text x="163.600000" y="134.000000" font-family="Arial" font-size="7" text-anchor="middle" fill="#FFFFFF">h1</text>
</a>
<circle cx="153.600000" cy="122.000000" r="1"/>
<rect x="132.600000" y="153.000000" width="24.000000" height="24.000000" rx="0" ry="0" style="stroke:none;fill:#cccccc;"/>
<rect x="131.600000" y="152.000000" width="24.000000" height="24.000000" rx="0" ry="0" style="stroke:none;fill:#47945E;"/>
<text x="143.600000" y="166.000000" font-family="Arial" font-size="7" text-anchor="middle" fill="#FFFFFF">x</text>
<circle cx="133.600000" cy="154.000000" r="1"/>
<rect x="100.600000" y="185.000000" width="24.000000" height="24.000000" rx="0" ry="0" style="stroke:none;fill:#cccccc;"/>
<rect x="99.600000" y="184.000000" width="24.000000" height="24.000000" rx="0" ry="0" style="stroke:none;fill:#47945E;"/>
<text x="111.600000" y="198.000000" font-family="Arial" font-size="7" text-anchor="middle" fill="#FFFFFF">x</text>
<circle cx="101.600000" cy="186.000000" r="1"/>
<rect x="132.600000" y="185.000000" width="24.000000" height="24.000000" rx="0" ry="0" style="stroke:none;fill:#cccccc;"/>
<rect x="131.600000" y="184.000000" width="24.000000" height="24.000000" rx="0" ry="0" style="stroke:none;fill:#4B71A1;"/>
<text x="143.600000" y="198.000000" font-family="Arial" font-size="7" text-anchor="middle" fill="#FFFFFF">mem</text>
<circle cx="133.600000" cy="186.000000" r="1"/>
<line x1="128.600000" y1="195.000000" x2="131.600000" y2="196.000000"  transform="rotate(0.000000,131.600000,196.000000)" style="stroke: black; stroke-width:0.25;"/>
<line x1="128.600000" y1="197.000000" x2="131.600000" y2="196.000000"  transform="rotate(0.000000,131.600000,196.000000)" style="stroke: black; stroke-width:0.25;"/>
<rect x="164.600000" y="185.000000" width="24.000000" height="24.000000" rx="0" ry="0" style="stroke:none;fill:#cccccc;"/>
<rect x="163.600000" y="184.000000" width="24.000000" height="24.000000" rx="0" ry="0" style="stroke:none;fill:#4B71A1;"/>
<text x="175.600000" y="198.000000" font-family="Arial" font-size="7" text-anchor="middle" fill="#FFFFFF">mem</text>
<circle cx="165.600000" cy="186.000000" r="1"/>
<line x1="160.600000" y1="195.000000" x2="163.600000" y2="196.000000"  transform="rotate(0.000000,163.600000,196.000000)" style="stroke: black; stroke-width:0.25;"/>
<line x1="160.600000" y1="197.000000" x2="163.600000" y2="196.000000"  transform="rotate(0.000000,163.600000,196.000000)" style="stroke: black; stroke-width:0.25;"/>
<rect x="204.600000" y="169.000000" width="24.000000" height="24.000000" rx="0" ry="0" style="stroke:none;fill:#cccccc;"/>
<rect x="203.600000" y="168.000000" width="24.000000" height="24.000000" rx="0" ry="0" style="stroke:none;fill:#4B71A1;"/>
<text x="215.600000" y="182.000000" font-family="Arial" font-size="7" text-anchor="middle" fill="#FFFFFF">+</text>
<circle cx="205.600000" cy="170.000000" r="1"/>
<line x1="200.600000" y1="175.000000" x2="203.600000" y2="176.000000"  transform="rotate(0.000000,203.600000,176.000000)" style="stroke: black; stroke-width:0.25;"/>
<line x1="200.600000" y1="177.000000" x2="203.600000" y2="176.000000"  transform="rotate(0.000000,203.600000,176.000000)" style="stroke: black; stroke-width:0.25;"/>
<line x1="200.600000" y1="183.000000" x2="203.600000" y2="184.000000"  transform="rotate(0.000000,203.600000,184.000000)" style="stroke: black; stroke-width:0.25;"/>
<line x1="200.600000" y1="185.000000" x2="203.600000" y2="184.000000"  transform="rotate(0.000000,203.600000,184.000000)" style="stroke: black; stroke-width:0.25;"/>
<rect x="244.600000" y="153.000000" width="24.000000" height="24.000000" rx="0" ry="0" style="stroke:none;fill:#cccccc;"/>
<rect x="243.600000" y="152.000000" width="24.000000" height="24.000000" rx="0" ry="0" style="stroke:none;fill:#4B71A1;"/>
<text x="255.600000" y="166.000000" font-family="Arial" font-size="7" text-anchor="middle" fill="#FFFFFF">*</text>
<circle cx="245.600000" cy="154.000000" r="1"/>
<line x1="240.600000" y1="159.000000" x2="243.600000" y2="160.000000"  transform="rotate(0.000000,243.600000,160.000000)" style="stroke: black; stroke-width:0.25;"/>
<line x1="240.600000" y1="161.000000" x2="243.600000" y2="160.000000"  transform="rotate(0.000000,243.600000,160.000000)" style="stroke: black; stroke-width:0.25;"/>
<line x1="240.600000" y1="167.000000" x2="243.600000" y2="168.000000"  transform="rotate(0.000000,243.600000,168.000000)" style="stroke: black; stroke-width:0.25;"/>
<line x1="240.600000" y1="169.000000" x2="243.600000" y2="168.000000"  transform="rotate(0.000000,243.600000,168.000000)" style="stroke: black; stroke-width:0.25;"/>
<rect x="284.600000" y="121.000000" width="24.000000" height="24.000000" rx="0" ry="0" style="stroke:none;fill:#cccccc;"/>
<rect x="283.600000" y="120.000000" width="24.000000" height="24.000000" rx="0" ry="0" style="stroke:none;fill:#4B71A1;"/>
<text x="295.600000" y="134.000000" font-family="Arial" font-size="7" text-anchor="middle" fill="#FFFFFF">+</text>
<circle cx="285.600000" cy="122.000000" r="1"/>
<line x1="280.600000" y1="127.000000" x2="283.600000" y2="128.000000"  transform="rotate(0.000000,283.600000,128.000000)" style="stroke: black; stroke-width:0.25;"/>
<line x1="280.600000" y1="129.000000" x2="283.600000" y2="128.000000"  transform="rotate(0.000000,283.600000,128.000000)" style="stroke: black; stroke-width:0.25;"/>
<line x1="280.600000" y1="135.000000" x2="283.600000" y2="136.000000"  transform="rotate(0.000000,283.600000,136.000000)" style="stroke: black; stroke-width:0.25;"/>
<line x1="280.600000" y1="137.000000" x2="283.600000" y2="136.000000"  transform="rotate(0.000000,283.600000,136.000000)" style="stroke: black; stroke-width:0.25;"/>
<rect x="324.600000" y="105.000000" width="24.000000" height="24.000000" rx="0" ry="0" style="stroke:none;fill:#cccccc;"/>
<rect x="323.600000" y="104.000000" width="24.000000" height="24.000000" rx="0" ry="0" style="stroke:none;fill:#4B71A1;"/>
<text x="335.600000" y="118.000000" font-family="Arial" font-size="7" text-anchor="middle" fill="#FFFFFF">*</text>
<circle cx="325.600000" cy="106.000000" r="1"/>
<line x1="320.600000" y1="111.000000" x2="323.600000" y2="112.000000"  transform="rotate(0.000000,323.600000,112.000000)" style="stroke: black; stroke-width:0.25;"/>
<line x1="320.600000" y1="113.000000" x2="323.600000" y2="112.000000"  transform="rotate(0.000000,323.600000,112.000000)" style="stroke: black; stroke-width:0.25;"/>
<line x1="320.600000" y1="119.000000" x2="323.600000" y2="120.000000"  transform="rotate(0.000000,323.600000,120.000000)" style="stroke: black; stroke-width:0.25;"/>
<line x1="320.600000" y1="121.000000" x2="323.600000" y2="120.000000"  transform="rotate(0.000000,323.600000,120.000000)" style="stroke: black; stroke-width:0.25;"/>
<line x1="15.000000" y1="15.000000" x2="15.000000" y2="217.000000"  style="stroke: black; stroke-linecap:round; stroke-width:0.25; stroke-dasharray:3,3;"/>
<line x1="15.000000" y1="217.000000" x2="364.600000" y2="217.000000"  style="stroke: black; stroke-linecap:round; stroke-width:0.25; stroke-dasharray:3,3;"/>
<line x1="364.600000" y1="217.000000" x2="364.600000" y2="15.000000"  style="stroke: black; stroke-linecap:round; stroke-width:0.25; stroke-dasharray:3,3;"/>
<line x1="15.000000" y1="15.000000" x2="20.000000" y2="15.000000"  style="stroke: black; stroke-linecap:round; stroke-width:0.25; stroke-dasharray:3,3;"/>
<line x1="65.150000" y1="15.000000" x2="364.600000" y2="15.000000"  style="stroke: black; stroke-linecap:round; stroke-width:0.25; stroke-dasharray:3,3;"/>
<text x="20.000000" y="17.000000" font-family="Arial" font-size="7">bridgeFilter</text>
<line x1="366.600000" y1="115.000000" x2="369.600000" y2="116.000000"  transform="rotate(0.000000,369.600000,116.000000)" style="stroke: black; stroke-width:0.25;"/>
<line x1="366.600000" y1="117.000000" x2="369.600000" y2="116.000000"  transform="rotate(0.000000,369.600000,116.000000)" style="stroke: black; stroke-width:0.25;"/>
<line x1="10.000000" y1="108.000000" x2="20.000000" y2="108.000000"  style="stroke:black; stroke-linecap:round; stroke-width:0.25;"/>
<line x1="10.000000" y1="116.000000" x2="20.000000" y2="116.000000"  style="stroke:black; stroke-linecap:round; stroke-width:0.25;"/>
<line x1="10.000000" y1="124.000000" x2="20.000000" y2="124.000000"  style="stroke:black; stroke-linecap:round; stroke-width:0.25;"/>
<line x1="20.000000" y1="108.000000" x2="24.000000" y2="108.000000"  style="stroke:black; stroke-linecap:round; stroke-width:0.25;"/>
<line x1="20.000000" y1="116.000000" x2="24.000000" y2="116.000000"  style="stroke:black; stroke-linecap:round; stroke-width:0.25;"/>
<line x1="20.000000" y1="124.000000" x2="24.000000" y2="124.000000"  style="stroke:black; stroke-linecap:round; stroke-width:0.25;"/>
<line x1="24.000000" y1="108.000000" x2="28.000000" y2="108.000000"  style="stroke:black; stroke-linecap:round; stroke-width:0.25;"/>
<line x1="24.000000" y1="116.000000" x2="28.000000" y2="116.000000"  style="stroke:black; stroke-linecap:round; stroke-width:0.25;"/>
<line x1="24.000000" y1="124.000000" x2="28.000000" y2="124.000000"  style="stroke:black; stroke-linecap:round; stroke-width:0.25;"/>
<line x1="28.000000" y1="84.000000" x2="36.000000" y2="84.000000"  style="stroke:black; stroke-linecap:round; stroke-width:0.25;"/>
<line x1="28.000000" y1="108.000000" x2="28.000000" y2="84.000000"  style="stroke:black; stroke-linecap:round; stroke-width:0.25;"/>
<line x1="28.000000" y1="108.000000" x2="28.000000" y2="108.000000"  style="stroke:black; stroke-linecap:round; stroke-width:0.25;"/>
<line x1="28.000000" y1="116.000000" x2="36.000000" y2="116.000000"  style="stroke:black; stroke-linecap:round; stroke-width:0.25;"/>
<line x1="28.000000" y1="124.000000" x2="36.000000" y2="124.000000"  style="stroke:black; stroke-linecap:round; stroke-width:0.25;"/>
<line x1="36.000000" y1="84.000000" x2="40.000000" y2="84.000000"  style="stroke:black; stroke-linecap:round; stroke-width:0.25;"/>
<line x1="36.000000" y1="116.000000" x2="40.000000" y2="116.000000"  style="stroke:black; stroke-linecap:round; stroke-width:0.25;"/>
<line x1="36.000000" y1="124.000000" x2="36.000000" y2="148.000000"  style="stroke:black; stroke-linecap:round; stroke-width:0.25;"/>
<line x1="36.000000" y1="148.000000" x2="36.000000" y2="148.000000"  style="stroke:black; stroke-linecap:round; stroke-width:0.25;"/>
<line x1="36.000000" y1="148.000000" x2="49.800000" y2="148.000000"  style="stroke:black; stroke-linecap:round; stroke-width:0.25;"/>
<line x1="49.800000" y1="148.000000" x2="53.800000" y2="148.000000"  style="stroke:black; stroke-linecap:round; stroke-width:0.25;"/>
<line x1="123.600000" y1="196.000000" x2="127.600000" y2="196.000000"  style="stroke:black; stroke-linecap:round; stroke-width:0.25;"/>
<line x1="127.600000" y1="196.000000" x2="127.600000" y2="196.000000"  style="stroke:black; stroke-linecap:round; stroke-width:0.25;"/>
<line x1="127.600000" y1="196.000000" x2="131.600000" y2="196.000000"  style="stroke:black; stroke-linecap:round; stroke-width:0.25;"/>
<line x1="155.600000" y1="164.000000" x2="159.600000" y2="164.000000"  style="stroke:black; stroke-linecap:round; stroke-width:0.25;"/>
<line x1="155.600000" y1="196.000000" x2="159.600000" y2="196.000000"  style="stroke:black; stroke-linecap:round; stroke-width:0.25;"/>
<line x1="159.600000" y1="100.000000" x2="163.600000" y2="100.000000"  style="stroke:black; stroke-linecap:round; stroke-width:0.25;"/>
<line x1="159.600000" y1="164.000000" x2="191.600000" y2="164.000000"  style="stroke:black; stroke-linecap:round; stroke-width:0.25;"/>
<line x1="159.600000" y1="196.000000" x2="159.600000" y2="196.000000"  style="stroke:black; stroke-linecap:round; stroke-width:0.25;"/>
<line x1="159.600000" y1="196.000000" x2="163.600000" y2="196.000000"  style="stroke:black; stroke-linecap:round; stroke-width:0.25;"/>
<line x1="163.600000" y1="100.000000" x2="163.600000" y2="100.000000"  style="stroke:black; stroke-linecap:round; stroke-width:0.25;"/>
<line x1="163.600000" y1="100.000000" x2="167.600000" y2="100.000000"  style="stroke:black; stroke-linecap:round; stroke-width:0.25;"/>
<line x1="175.600000" y1="68.000000" x2="179.600000" y2="68.000000"  style="stroke:black; stroke-linecap:round; stroke-width:0.25;"/>
<line x1="175.600000" y1="132.000000" x2="179.600000" y2="132.000000"  style="stroke:black; stroke-linecap:round; stroke-width:0.25;"/>
<line x1="179.600000" y1="68.000000" x2="195.600000" y2="68.000000"  style="stroke:black; stroke-linecap:round; stroke-width:0.25;"/>
<line x1="179.600000" y1="132.000000" x2="231.600000" y2="132.000000"  style="stroke:black; stroke-linecap:round; stroke-width:0.25;"/>
<line x1="187.600000" y1="196.000000" x2="191.600000" y2="196.000000"  style="stroke:black; stroke-linecap:round; stroke-width:0.25;"/>
<line x1="191.600000" y1="100.000000" x2="195.600000" y2="100.000000"  style="stroke:black; stroke-linecap:round; stroke-width:0.25;"/>
<line x1="191.600000" y1="164.000000" x2="199.600000" y2="164.000000"  style="stroke:black; stroke-linecap:round; stroke-width:0.25;"/>
<line x1="191.600000" y1="184.000000" x2="199.600000" y2="184.000000"  style="stroke:black; stroke-linecap:round; stroke-width:0.25;"/>
<line x1="191.600000" y1="196.000000" x2="191.600000" y2="184.000000"  style="stroke:black; stroke-linecap:round; stroke-width:0.25;"/>
<line x1="191.600000" y1="196.000000" x2="191.600000" y2="196.000000"  style="stroke:black; stroke-linecap:round; stroke-width:0.25;"/>
<line x1="195.600000" y1="68.000000" x2="203.600000" y2="68.000000"  style="stroke:black; stroke-linecap:round; stroke-width:0.25;"/>
<line x1="195.600000" y1="88.000000" x2="203.600000" y2="88.000000"  style="stroke:black; stroke-linecap:round; stroke-width:0.25;"/>
<line x1="195.600000" y1="100.000000" x2="195.600000" y2="88.000000"  style="stroke:black; stroke-linecap:round; stroke-width:0.25;"/>
<line x1="195.600000" y1="100.000000" x2="195.600000" y2="100.000000"  style="stroke:black; stroke-linecap:round; stroke-width:0.25;"/>
<line x1="199.600000" y1="164.000000" x2="199.600000" y2="176.000000"  style="stroke:black; stroke-linecap:round; stroke-width:0.25;"/>
<line x1="199.600000" y1="176.000000" x2="199.600000" y2="176.000000"  style="stroke:black; stroke-linecap:round; stroke-width:0.25;"/>
<line x1="199.600000" y1="176.000000" x2="203.600000" y2="176.000000"  style="stroke:black; stroke-linecap:round; stroke-width:0.25;"/>
<line x1="199.600000" y1="184.000000" x2="203.600000" y2="184.000000"  style="stroke:black; stroke-linecap:round; stroke-width:0.25;"/>
<line x1="203.600000" y1="68.000000" x2="203.600000" y2="80.000000"  style="stroke:black; stroke-linecap:round; stroke-width:0.25;"/>
<line x1="203.600000" y1="80.000000" x2="203.600000" y2="80.000000"  style="stroke:black; stroke-linecap:round; stroke-width:0.25;"/>
<line x1="203.600000" y1="80.000000" x2="207.600000" y2="80.000000"  style="stroke:black; stroke-linecap:round; stroke-width:0.25;"/>
<line x1="203.600000" y1="88.000000" x2="207.600000" y2="88.000000"  style="stroke:black; stroke-linecap:round; stroke-width:0.25;"/>
<line x1="215.600000" y1="36.000000" x2="219.600000" y2="36.000000"  style="stroke:black; stroke-linecap:round; stroke-width:0.25;"/>
<line x1="219.600000" y1="36.000000" x2="311.600000" y2="36.000000"  style="stroke:black; stroke-linecap:round; stroke-width:0.25;"/>
<line x1="227.600000" y1="180.000000" x2="231.600000" y2="180.000000"  style="stroke:black; stroke-linecap:round; stroke-width:0.25;"/>
<line x1="231.600000" y1="84.000000" x2="235.600000" y2="84.000000"  style="stroke:black; stroke-linecap:round; stroke-width:0.25;"/>
<line x1="231.600000" y1="132.000000" x2="239.600000" y2="132.000000"  style="stroke:black; stroke-linecap:round; stroke-width:0.25;"/>
<line x1="231.600000" y1="168.000000" x2="239.600000" y2="168.000000"  style="stroke:black; stroke-linecap:round; stroke-width:0.25;"/>
<line x1="231.600000" y1="180.000000" x2="231.600000" y2="168.000000"  style="stroke:black; stroke-linecap:round; stroke-width:0.25;"/>
<line x1="231.600000" y1="180.000000" x2="231.600000" y2="180.000000"  style="stroke:black; stroke-linecap:round; stroke-width:0.25;"/>
<line x1="235.600000" y1="84.000000" x2="271.600000" y2="84.000000"  style="stroke:black; stroke-linecap:round; stroke-width:0.25;"/>
<line x1="239.600000" y1="132.000000" x2="239.600000" y2="160.000000"  style="stroke:black; stroke-linecap:round; stroke-width:0.25;"/>
<line x1="239.600000" y1="160.000000" x2="239.600000" y2="160.000000"  style="stroke:black; stroke-linecap:round; stroke-width:0.25;"/>
<line x1="239.600000" y1="160.000000" x2="243.600000" y2="160.000000"  style="stroke:black; stroke-linecap:round; stroke-width:0.25;"/>
<line x1="239.600000" y1="168.000000" x2="243.600000" y2="168.000000"  style="stroke:black; stroke-linecap:round; stroke-width:0.25;"/>
<line x1="267.600000" y1="164.000000" x2="271.600000" y2="164.000000"  style="stroke:black; stroke-linecap:round; stroke-width:0.25;"/>
<line x1="271.600000" y1="84.000000" x2="279.600000" y2="84.000000"  style="stroke:black; stroke-linecap:round; stroke-width:0.25;"/>
<line x1="271.600000" y1="136.000000" x2="279.600000" y2="136.000000"  style="stroke:black; stroke-linecap:round; stroke-width:0.25;"/>
<line x1="271.600000" y1="164.000000" x2="271.600000" y2="136.000000"  style="stroke:black; stroke-linecap:round; stroke-width:0.25;"/>
<line x1="271.600000" y1="164.000000" x2="271.600000" y2="164.000000"  style="stroke:black; stroke-linecap:round; stroke-width:0.25;"/>
<line x1="279.600000" y1="84.000000" x2="279.600000" y2="128.000000"  style="stroke:black; stroke-linecap:round; stroke-width:0.25;"/>
<line x1="279.600000" y1="128.000000" x2="279.600000" y2="128.000000"  style="stroke:black; stroke-linecap:round; stroke-width:0.25;"/>
<line x1="279.600000" y1="128.000000" x2="283.600000" y2="128.000000"  style="stroke:black; stroke-linecap:round; stroke-width:0.25;"/>
<line x1="279.600000" y1="136.000000" x2="283.600000" y2="136.000000"  style="stroke:black; stroke-linecap:round; stroke-width:0.25;"/>
<line x1="307.600000" y1="132.000000" x2="311.600000" y2="132.000000"  style="stroke:black; stroke-linecap:round; stroke-width:0.25;"/>
<line x1="311.600000" y1="36.000000" x2="319.600000" y2="36.000000"  style="stroke:black; stroke-linecap:round; stroke-width:0.25;"/>
<line x1="311.600000" y1="120.000000" x2="319.600000" y2="120.000000"  style="stroke:black; stroke-linecap:round; stroke-width:0.25;"/>
<line x1="311.600000" y1="132.000000" x2="311.600000" y2="120.000000"  style="stroke:black; stroke-linecap:round; stroke-width:0.25;"/>
<line x1="311.600000" y1="132.000000" x2="311.600000" y2="132.000000"  style="stroke:black; stroke-linecap:round; stroke-width:0.25;"/>
<line x1="319.600000" y1="36.000000" x2="319.600000" y2="112.000000"  style="stroke:black; stroke-linecap:round; stroke-width:0.25;"/>
<line x1="319.600000" y1="112.000000" x2="319.600000" y2="112.000000"  style="stroke:black; stroke-linecap:round; stroke-width:0.25;"/>
<line x1="319.600000" y1="112.000000" x2="323.600000" y2="112.000000"  style="stroke:black; stroke-linecap:round; stroke-width:0.25;"/>
<line x1="319.600000" y1="120.000000" x2="323.600000" y2="120.000000"  style="stroke:black; stroke-linecap:round; stroke-width:0.25;"/>
<line x1="347.600000" y1="116.000000" x2="351.600000" y2="116.000000"  style="stroke:black; stroke-linecap:round; stroke-width:0.25;"/>
<line x1="351.600000" y1="116.000000" x2="351.600000" y2="116.000000"  style="stroke:black; stroke-linecap:round; stroke-width:0.25;"/>
<line x1="351.600000" y1="116.000000" x2="355.600000" y2="116.000000"  style="stroke:black; stroke-linecap:round; stroke-width:0.25;"/>
<line x1="355.600000" y1="116.000000" x2="359.600000" y2="116.000000"  style="stroke:black; stroke-linecap:round; stroke-width:0.25;"/>
<line x1="359.600000" y1="116.000000" x2="369.600000" y2="116.000000"  style="stroke:black; stroke-linecap:round; stroke-width:0.25;"/>
</svg>
