<?xml version="1.0"?>
<svg xmlns="http://www.w3.org/2000/svg" xmlns:xlink="http://www.w3.org/1999/xlink" viewBox="0 0 313.500000 168.000000" width="156.750000mm" height="84.000000mm" version="1.1">
<a xlink:href="h-0x7fc1733a3df0.svg">
<rect x="1.000000" y="1.000000" width="312.500000" height="167.000000" rx="0" ry="0" style="stroke:none;fill:#cccccc;"/>
<rect x="0.000000" y="0.000000" width="312.500000" height="167.000000" rx="0" ry="0" style="stroke:none;fill:#ffffff;"/>
</a>
<text x="10.000000" y="7.000000" font-family="Arial" font-size="7"></text>
<rect x="110.400000" y="25.000000" width="24.000000" height="24.000000" rx="0" ry="0" style="stroke:none;fill:#cccccc;"/>
<rect x="109.400000" y="24.000000" width="24.000000" height="24.000000" rx="0" ry="0" style="stroke:none;fill:#f44800;"/>
<text x="121.400000" y="38.000000" font-family="Arial" font-size="7" text-anchor="middle" fill="#FFFFFF">1</text>
<circle cx="111.400000" cy="26.000000" r="1"/>
<rect x="110.400000" y="57.000000" width="24.000000" height="24.000000" rx="0" ry="0" style="stroke:none;fill:#cccccc;"/>
<rect x="109.400000" y="56.000000" width="24.000000" height="24.000000" rx="0" ry="0" style="stroke:none;fill:#f44800;"/>
<text x="121.400000" y="70.000000" font-family="Arial" font-size="7" text-anchor="middle" fill="#FFFFFF">1</text>
<circle cx="111.400000" cy="58.000000" r="1"/>
<a xlink:href="fac-0x7fc173739bd0.svg">
<rect x="25.000000" y="89.000000" width="154.800000" height="24.000000" rx="0" ry="0" style="stroke:none;fill:#cccccc;"/>
<rect x="24.000000" y="88.000000" width="154.800000" height="24.000000" rx="0" ry="0" style="stroke:none;fill:#003366;"/>
</a>
<a xlink:href="fac-0x7fc173739bd0.svg">
<text x="101.400000" y="102.000000" font-family="Arial" font-size="7" text-anchor="middle" fill="#FFFFFF">fac(1.499995f...or) : -) : +)(2)(3)</text>
</a>
<circle cx="26.000000" cy="90.000000" r="1"/>
<a xlink:href="fac-0x7fc173739de0.svg">
<rect x="25.000000" y="121.000000" width="154.800000" height="24.000000" rx="0" ry="0" style="stroke:none;fill:#cccccc;"/>
<rect x="24.000000" y="120.000000" width="154.800000" height="24.000000" rx="0" ry="0" style="stroke:none;fill:#003366;"/>
</a>
<a xlink:href="fac-0x7fc173739de0.svg">
<text x="101.400000" y="134.000000" font-family="Arial" font-size="7" text-anchor="middle" fill="#FFFFFF">fac(1.499995f...or) : -) : +)(2)(4)</text>
</a>
<circle cx="26.000000" cy="122.000000" r="1"/>
<rect x="195.800000" y="105.000000" width="24.000000" height="24.000000" rx="0" ry="0" style="stroke:none;fill:#cccccc;"/>
<rect x="194.800000" y="104.000000" width="24.000000" height="24.000000" rx="0" ry="0" style="stroke:none;fill:#4B71A1;"/>
<text x="206.800000" y="118.000000" font-family="Arial" font-size="7" text-anchor="middle" fill="#FFFFFF">*</text>
<circle cx="196.800000" cy="106.000000" r="1"/>
<line x1="191.800000" y1="111.000000" x2="194.800000" y2="112.000000"  transform="rotate(0.000000,194.800000,112.000000)" style="stroke: black; stroke-width:0.25;"/>
<line x1="191.800000" y1="113.000000" x2="194.800000" y2="112.000000"  transform="rotate(0.000000,194.800000,112.000000)" style="stroke: black; stroke-width:0.25;"/>
<line x1="191.800000" y1="119.000000" x2="194.800000" y2="120.000000"  transform="rotate(0.000000,194.800000,120.000000)" style="stroke: black; stroke-width:0.25;"/>
<line x1="191.800000" y1="121.000000" x2="194.800000" y2="120.000000"  transform="rotate(0.000000,194.800000,120.000000)" style="stroke: black; stroke-width:0.25;"/>
<rect x="243.800000" y="73.000000" width="38.700000" height="24.000000" rx="0" ry="0" style="stroke:none;fill:#cccccc;"/>
<rect x="242.800000" y="72.000000" width="38.700000" height="24.000000" rx="0" ry="0" style="stroke:none;fill:#4B71A1;"/>
<text x="262.150000" y="86.000000" font-family="Arial" font-size="7" text-anchor="middle" fill="#FFFFFF">select2</text>
<circle cx="244.800000" cy="74.000000" r="1"/>
<line x1="239.800000" y1="75.000000" x2="242.800000" y2="76.000000"  transform="rotate(0.000000,242.800000,76.000000)" style="stroke: black; stroke-width:0.25;"/>
<line x1="239.800000" y1="77.000000" x2="242.800000" y2="76.000000"  transform="rotate(0.000000,242.800000,76.000000)" style="stroke: black; stroke-width:0.25;"/>
<line x1="239.800000" y1="83.000000" x2="242.800000" y2="84.000000"  transform="rotate(0.000000,242.800000,84.000000)" style="stroke: black; stroke-width:0.25;"/>
<line x1="239.800000" y1="85.000000" x2="242.800000" y2="84.000000"  transform="rotate(0.000000,242.800000,84.000000)" style="stroke: black; stroke-width:0.25;"/>
<line x1="239.800000" y1="91.000000" x2="242.800000" y2="92.000000"  transform="rotate(0.000000,242.800000,92.000000)" style="stroke: black; stroke-width:0.25;"/>
<line x1="239.800000" y1="93.000000" x2="242.800000" y2="92.000000"  transform="rotate(0.000000,242.800000,92.000000)" style="stroke: black; stroke-width:0.25;"/>
<line x1="15.000000" y1="15.000000" x2="15.000000" y2="153.000000"  style="stroke: black; stroke-linecap:round; stroke-width:0.25; stroke-dasharray:3,3;"/>
<line x1="15.000000" y1="153.000000" x2="298.500000" y2="153.000000"  style="stroke: black; stroke-linecap:round; stroke-width:0.25; stroke-dasharray:3,3;"/>
<line x1="298.500000" y1="153.000000" x2="298.500000" y2="15.000000"  style="stroke: black; stroke-linecap:round; stroke-width:0.25; stroke-dasharray:3,3;"/>
<line x1="15.000000" y1="15.000000" x2="20.000000" y2="15.000000"  style="stroke: black; stroke-linecap:round; stroke-width:0.25; stroke-dasharray:3,3;"/>
<line x1="129.650000" y1="15.000000" x2="298.500000" y2="15.000000"  style="stroke: black; stroke-linecap:round; stroke-width:0.25; stroke-dasharray:3,3;"/>
<text x="20.000000" y="17.000000" font-family="Arial" font-size="7">facs2(4)(1.49...or) : -) : +)(2)</text>
<line x1="300.500000" y1="83.000000" x2="303.500000" y2="84.000000"  transform="rotate(0.000000,303.500000,84.000000)" style="stroke: black; stroke-width:0.25;"/>
<line x1="300.500000" y1="85.000000" x2="303.500000" y2="84.000000"  transform="rotate(0.000000,303.500000,84.000000)" style="stroke: black; stroke-width:0.25;"/>
<line x1="133.400000" y1="36.000000" x2="137.400000" y2="36.000000"  style="stroke:black; stroke-linecap:round; stroke-width:0.25;"/>
<line x1="133.400000" y1="68.000000" x2="137.400000" y2="68.000000"  style="stroke:black; stroke-linecap:round; stroke-width:0.25;"/>
<line x1="137.400000" y1="36.000000" x2="222.800000" y2="36.000000"  style="stroke:black; stroke-linecap:round; stroke-width:0.25;"/>
<line x1="137.400000" y1="68.000000" x2="222.800000" y2="68.000000"  style="stroke:black; stroke-linecap:round; stroke-width:0.25;"/>
<line x1="178.800000" y1="100.000000" x2="182.800000" y2="100.000000"  style="stroke:black; stroke-linecap:round; stroke-width:0.25;"/>
<line x1="178.800000" y1="132.000000" x2="182.800000" y2="132.000000"  style="stroke:black; stroke-linecap:round; stroke-width:0.25;"/>
<line x1="182.800000" y1="100.000000" x2="190.800000" y2="100.000000"  style="stroke:black; stroke-linecap:round; stroke-width:0.25;"/>
<line x1="182.800000" y1="120.000000" x2="190.800000" y2="120.000000"  style="stroke:black; stroke-linecap:round; stroke-width:0.25;"/>
<line x1="182.800000" y1="132.000000" x2="182.800000" y2="120.000000"  style="stroke:black; stroke-linecap:round; stroke-width:0.25;"/>
<line x1="182.800000" y1="132.000000" x2="182.800000" y2="132.000000"  style="stroke:black; stroke-linecap:round; stroke-width:0.25;"/>
<line x1="190.800000" y1="100.000000" x2="190.800000" y2="112.000000"  style="stroke:black; stroke-linecap:round; stroke-width:0.25;"/>
<line x1="190.800000" y1="112.000000" x2="190.800000" y2="112.000000"  style="stroke:black; stroke-linecap:round; stroke-width:0.25;"/>
<line x1="190.800000" y1="112.000000" x2="194.800000" y2="112.000000"  style="stroke:black; stroke-linecap:round; stroke-width:0.25;"/>
<line x1="190.800000" y1="120.000000" x2="194.800000" y2="120.000000"  style="stroke:black; stroke-linecap:round; stroke-width:0.25;"/>
<line x1="218.800000" y1="116.000000" x2="222.800000" y2="116.000000"  style="stroke:black; stroke-linecap:round; stroke-width:0.25;"/>
<line x1="222.800000" y1="36.000000" x2="238.800000" y2="36.000000"  style="stroke:black; stroke-linecap:round; stroke-width:0.25;"/>
<line x1="222.800000" y1="68.000000" x2="230.800000" y2="68.000000"  style="stroke:black; stroke-linecap:round; stroke-width:0.25;"/>
<line x1="222.800000" y1="92.000000" x2="238.800000" y2="92.000000"  style="stroke:black; stroke-linecap:round; stroke-width:0.25;"/>
<line x1="222.800000" y1="116.000000" x2="222.800000" y2="92.000000"  style="stroke:black; stroke-linecap:round; stroke-width:0.25;"/>
<line x1="222.800000" y1="116.000000" x2="222.800000" y2="116.000000"  style="stroke:black; stroke-linecap:round; stroke-width:0.25;"/>
<line x1="230.800000" y1="68.000000" x2="230.800000" y2="84.000000"  style="stroke:black; stroke-linecap:round; stroke-width:0.25;"/>
<line x1="230.800000" y1="84.000000" x2="238.800000" y2="84.000000"  style="stroke:black; stroke-linecap:round; stroke-width:0.25;"/>
<line x1="238.800000" y1="36.000000" x2="238.800000" y2="76.000000"  style="stroke:black; stroke-linecap:round; stroke-width:0.25;"/>
<line x1="238.800000" y1="76.000000" x2="238.800000" y2="76.000000"  style="stroke:black; stroke-linecap:round; stroke-width:0.25;"/>
<line x1="238.800000" y1="76.000000" x2="242.800000" y2="76.000000"  style="stroke:black; stroke-linecap:round; stroke-width:0.25;"/>
<line x1="238.800000" y1="84.000000" x2="242.800000" y2="84.000000"  style="stroke:black; stroke-linecap:round; stroke-width:0.25;"/>
<line x1="238.800000" y1="92.000000" x2="242.800000" y2="92.000000"  style="stroke:black; stroke-linecap:round; stroke-width:0.25;"/>
<line x1="281.500000" y1="84.000000" x2="285.500000" y2="84.000000"  style="stroke:black; stroke-linecap:round; stroke-width:0.25;"/>
<line x1="285.500000" y1="84.000000" x2="285.500000" y2="84.000000"  style="stroke:black; stroke-linecap:round; stroke-width:0.25;"/>
<line x1="285.500000" y1="84.000000" x2="289.500000" y2="84.000000"  style="stroke:black; stroke-linecap:round; stroke-width:0.25;"/>
<line x1="289.500000" y1="84.000000" x2="293.500000" y2="84.000000"  style="stroke:black; stroke-linecap:round; stroke-width:0.25;"/>
<line x1="293.500000" y1="84.000000" x2="303.500000" y2="84.000000"  style="stroke:black; stroke-linecap:round; stroke-width:0.25;"/>
</svg>
