<?xml version="1.0"?>
<svg xmlns="http://www.w3.org/2000/svg" xmlns:xlink="http://www.w3.org/1999/xlink" viewBox="0 0 454.400000 228.000000" width="227.200000mm" height="114.000000mm" version="1.1">
<a xlink:href="delay-0x7fc0d7d39d10.svg">
<rect x="1.000000" y="1.000000" width="453.400000" height="227.000000" rx="0" ry="0" style="stroke:none;fill:#cccccc;"/>
<rect x="0.000000" y="0.000000" width="453.400000" height="227.000000" rx="0" ry="0" style="stroke:none;fill:#ffffff;"/>
</a>
<text x="10.000000" y="7.000000" font-family="Arial" font-size="7"></text>
<rect x="45.000000" y="45.000000" width="206.400000" height="24.000000" rx="0" ry="0" style="stroke:none;fill:#cccccc;"/>
<rect x="44.000000" y="44.000000" width="206.400000" height="24.000000" rx="0" ry="0" style="stroke:none;fill:#477881;"/>
<text x="147.200000" y="58.000000" font-family="Arial" font-size="7" text-anchor="middle" fill="#FFFFFF">vslider(Stereo Spread, 0.5f, 0.0f, 1.0f, 0.01f)</text>
<circle cx="46.000000" cy="46.000000" r="1"/>
<rect x="136.200000" y="77.000000" width="24.000000" height="24.000000" rx="0" ry="0" style="stroke:none;fill:#cccccc;"/>
<rect x="135.200000" y="76.000000" width="24.000000" height="24.000000" rx="0" ry="0" style="stroke:none;fill:#f44800;"/>
<text x="147.200000" y="90.000000" font-family="Arial" font-size="7" text-anchor="middle" fill="#FFFFFF">46</text>
<circle cx="137.200000" cy="78.000000" r="1"/>
<rect x="267.400000" y="61.000000" width="24.000000" height="24.000000" rx="0" ry="0" style="stroke:none;fill:#cccccc;"/>
<rect x="266.400000" y="60.000000" width="24.000000" height="24.000000" rx="0" ry="0" style="stroke:none;fill:#4B71A1;"/>
<text x="278.400000" y="74.000000" font-family="Arial" font-size="7" text-anchor="middle" fill="#FFFFFF">*</text>
<circle cx="268.400000" cy="62.000000" r="1"/>
<line x1="263.400000" y1="67.000000" x2="266.400000" y2="68.000000"  transform="rotate(0.000000,266.400000,68.000000)" style="stroke: black; stroke-width:0.25;"/>
<line x1="263.400000" y1="69.000000" x2="266.400000" y2="68.000000"  transform="rotate(0.000000,266.400000,68.000000)" style="stroke: black; stroke-width:0.25;"/>
<line x1="263.400000" y1="75.000000" x2="266.400000" y2="76.000000"  transform="rotate(0.000000,266.400000,76.000000)" style="stroke: black; stroke-width:0.25;"/>
<line x1="263.400000" y1="77.000000" x2="266.400000" y2="76.000000"  transform="rotate(0.000000,266.400000,76.000000)" style="stroke: black; stroke-width:0.25;"/>
<a xlink:href="SR-0x7fc0d66b9020.svg">
<rect x="156.200000" y="109.000000" width="24.000000" height="24.000000" rx="0" ry="0" style="stroke:none;fill:#cccccc;"/>
<rect x="155.200000" y="108.000000" width="24.000000" height="24.000000" rx="0" ry="0" style="stroke:none;fill:#003366;"/>
</a>
<a xlink:href="SR-0x7fc0d66b9020.svg">
<text x="167.200000" y="122.000000" font-family="Arial" font-size="7" text-anchor="middle" fill="#FFFFFF">SR</text>
</a>
<circle cx="157.200000" cy="110.000000" r="1"/>
<rect x="307.400000" y="77.000000" width="24.000000" height="24.000000" rx="0" ry="0" style="stroke:none;fill:#cccccc;"/>
<rect x="306.400000" y="76.000000" width="24.000000" height="24.000000" rx="0" ry="0" style="stroke:none;fill:#4B71A1;"/>
<text x="318.400000" y="90.000000" font-family="Arial" font-size="7" text-anchor="middle" fill="#FFFFFF">*</text>
<circle cx="308.400000" cy="78.000000" r="1"/>
<line x1="303.400000" y1="83.000000" x2="306.400000" y2="84.000000"  transform="rotate(0.000000,306.400000,84.000000)" style="stroke: black; stroke-width:0.25;"/>
<line x1="303.400000" y1="85.000000" x2="306.400000" y2="84.000000"  transform="rotate(0.000000,306.400000,84.000000)" style="stroke: black; stroke-width:0.25;"/>
<line x1="303.400000" y1="91.000000" x2="306.400000" y2="92.000000"  transform="rotate(0.000000,306.400000,92.000000)" style="stroke: black; stroke-width:0.25;"/>
<line x1="303.400000" y1="93.000000" x2="306.400000" y2="92.000000"  transform="rotate(0.000000,306.400000,92.000000)" style="stroke: black; stroke-width:0.25;"/>
<rect x="175.300000" y="151.000000" width="25.800000" height="24.000000" rx="0" ry="0" style="stroke:none;fill:#cccccc;"/>
<rect x="174.300000" y="150.000000" width="25.800000" height="24.000000" rx="0" ry="0" style="stroke:none;fill:#f44800;"/>
<text x="187.200000" y="164.000000" font-family="Arial" font-size="7" text-anchor="middle" fill="#FFFFFF">44100</text>
<circle cx="176.300000" cy="152.000000" r="1"/>
<line x1="165.300000" y1="141.000000" x2="165.300000" y2="183.000000"  style="stroke: black; stroke-linecap:round; stroke-width:0.25; stroke-dasharray:3,3;"/>
<line x1="165.300000" y1="183.000000" x2="209.100000" y2="183.000000"  style="stroke: black; stroke-linecap:round; stroke-width:0.25; stroke-dasharray:3,3;"/>
<line x1="209.100000" y1="183.000000" x2="209.100000" y2="141.000000"  style="stroke: black; stroke-linecap:round; stroke-width:0.25; stroke-dasharray:3,3;"/>
<line x1="165.300000" y1="141.000000" x2="170.300000" y2="141.000000"  style="stroke: black; stroke-linecap:round; stroke-width:0.25; stroke-dasharray:3,3;"/>
<line x1="196.100000" y1="141.000000" x2="209.100000" y2="141.000000"  style="stroke: black; stroke-linecap:round; stroke-width:0.25; stroke-dasharray:3,3;"/>
<text x="170.300000" y="143.000000" font-family="Arial" font-size="7">origSR</text>
<rect x="347.400000" y="103.000000" width="24.000000" height="24.000000" rx="0" ry="0" style="stroke:none;fill:#cccccc;"/>
<rect x="346.400000" y="102.000000" width="24.000000" height="24.000000" rx="0" ry="0" style="stroke:none;fill:#4B71A1;"/>
<text x="358.400000" y="116.000000" font-family="Arial" font-size="7" text-anchor="middle" fill="#FFFFFF">/</text>
<circle cx="348.400000" cy="104.000000" r="1"/>
<line x1="343.400000" y1="109.000000" x2="346.400000" y2="110.000000"  transform="rotate(0.000000,346.400000,110.000000)" style="stroke: black; stroke-width:0.25;"/>
<line x1="343.400000" y1="111.000000" x2="346.400000" y2="110.000000"  transform="rotate(0.000000,346.400000,110.000000)" style="stroke: black; stroke-width:0.25;"/>
<line x1="343.400000" y1="117.000000" x2="346.400000" y2="118.000000"  transform="rotate(0.000000,346.400000,118.000000)" style="stroke: black; stroke-width:0.25;"/>
<line x1="343.400000" y1="119.000000" x2="346.400000" y2="118.000000"  transform="rotate(0.000000,346.400000,118.000000)" style="stroke: black; stroke-width:0.25;"/>
<rect x="379.400000" y="103.000000" width="24.000000" height="24.000000" rx="0" ry="0" style="stroke:none;fill:#cccccc;"/>
<rect x="378.400000" y="102.000000" width="24.000000" height="24.000000" rx="0" ry="0" style="stroke:none;fill:#4B71A1;"/>
<text x="390.400000" y="116.000000" font-family="Arial" font-size="7" text-anchor="middle" fill="#FFFFFF">int</text>
<circle cx="380.400000" cy="104.000000" r="1"/>
<line x1="375.400000" y1="113.000000" x2="378.400000" y2="114.000000"  transform="rotate(0.000000,378.400000,114.000000)" style="stroke: black; stroke-width:0.25;"/>
<line x1="375.400000" y1="115.000000" x2="378.400000" y2="114.000000"  transform="rotate(0.000000,378.400000,114.000000)" style="stroke: black; stroke-width:0.25;"/>
<line x1="35.000000" y1="35.000000" x2="35.000000" y2="193.000000"  style="stroke: black; stroke-linecap:round; stroke-width:0.25; stroke-dasharray:3,3;"/>
<line x1="35.000000" y1="193.000000" x2="411.400000" y2="193.000000"  style="stroke: black; stroke-linecap:round; stroke-width:0.25; stroke-dasharray:3,3;"/>
<line x1="411.400000" y1="193.000000" x2="411.400000" y2="35.000000"  style="stroke: black; stroke-linecap:round; stroke-width:0.25; stroke-dasharray:3,3;"/>
<line x1="35.000000" y1="35.000000" x2="40.000000" y2="35.000000"  style="stroke: black; stroke-linecap:round; stroke-width:0.25; stroke-dasharray:3,3;"/>
<line x1="72.250000" y1="35.000000" x2="411.400000" y2="35.000000"  style="stroke: black; stroke-linecap:round; stroke-width:0.25; stroke-dasharray:3,3;"/>
<text x="40.000000" y="37.000000" font-family="Arial" font-size="7">vgroup()</text>
<line x1="25.000000" y1="25.000000" x2="25.000000" y2="203.000000"  style="stroke: black; stroke-linecap:round; stroke-width:0.25; stroke-dasharray:3,3;"/>
<line x1="25.000000" y1="203.000000" x2="421.400000" y2="203.000000"  style="stroke: black; stroke-linecap:round; stroke-width:0.25; stroke-dasharray:3,3;"/>
<line x1="421.400000" y1="203.000000" x2="421.400000" y2="25.000000"  style="stroke: black; stroke-linecap:round; stroke-width:0.25; stroke-dasharray:3,3;"/>
<line x1="25.000000" y1="25.000000" x2="30.000000" y2="25.000000"  style="stroke: black; stroke-linecap:round; stroke-width:0.25; stroke-dasharray:3,3;"/>
<line x1="88.050000" y1="25.000000" x2="421.400000" y2="25.000000"  style="stroke: black; stroke-linecap:round; stroke-width:0.25; stroke-dasharray:3,3;"/>
<text x="30.000000" y="27.000000" font-family="Arial" font-size="7">hgroup(Freeverb)</text>
<line x1="15.000000" y1="15.000000" x2="15.000000" y2="213.000000"  style="stroke: black; stroke-linecap:round; stroke-width:0.25; stroke-dasharray:3,3;"/>
<line x1="15.000000" y1="213.000000" x2="439.400000" y2="213.000000"  style="stroke: black; stroke-linecap:round; stroke-width:0.25; stroke-dasharray:3,3;"/>
<line x1="439.400000" y1="213.000000" x2="439.400000" y2="15.000000"  style="stroke: black; stroke-linecap:round; stroke-width:0.25; stroke-dasharray:3,3;"/>
<line x1="15.000000" y1="15.000000" x2="20.000000" y2="15.000000"  style="stroke: black; stroke-linecap:round; stroke-width:0.25; stroke-dasharray:3,3;"/>
<line x1="58.700000" y1="15.000000" x2="439.400000" y2="15.000000"  style="stroke: black; stroke-linecap:round; stroke-width:0.25; stroke-dasharray:3,3;"/>
<text x="20.000000" y="17.000000" font-family="Arial" font-size="7">spatSpread</text>
<line x1="441.400000" y1="113.000000" x2="444.400000" y2="114.000000"  transform="rotate(0.000000,444.400000,114.000000)" style="stroke: black; stroke-width:0.25;"/>
<line x1="441.400000" y1="115.000000" x2="444.400000" y2="114.000000"  transform="rotate(0.000000,444.400000,114.000000)" style="stroke: black; stroke-width:0.25;"/>
<line x1="159.200000" y1="88.000000" x2="163.200000" y2="88.000000"  style="stroke:black; stroke-linecap:round; stroke-width:0.25;"/>
<line x1="163.200000" y1="88.000000" x2="254.400000" y2="88.000000"  style="stroke:black; stroke-linecap:round; stroke-width:0.25;"/>
<line x1="179.200000" y1="120.000000" x2="183.200000" y2="120.000000"  style="stroke:black; stroke-linecap:round; stroke-width:0.25;"/>
<line x1="183.200000" y1="120.000000" x2="294.400000" y2="120.000000"  style="stroke:black; stroke-linecap:round; stroke-width:0.25;"/>
<line x1="200.100000" y1="162.000000" x2="204.100000" y2="162.000000"  style="stroke:black; stroke-linecap:round; stroke-width:0.25;"/>
<line x1="204.100000" y1="162.000000" x2="214.100000" y2="162.000000"  style="stroke:black; stroke-linecap:round; stroke-width:0.25;"/>
<line x1="214.100000" y1="162.000000" x2="334.400000" y2="162.000000"  style="stroke:black; stroke-linecap:round; stroke-width:0.25;"/>
<line x1="250.400000" y1="56.000000" x2="254.400000" y2="56.000000"  style="stroke:black; stroke-linecap:round; stroke-width:0.25;"/>
<line x1="254.400000" y1="56.000000" x2="262.400000" y2="56.000000"  style="stroke:black; stroke-linecap:round; stroke-width:0.25;"/>
<line x1="254.400000" y1="76.000000" x2="262.400000" y2="76.000000"  style="stroke:black; stroke-linecap:round; stroke-width:0.25;"/>
<line x1="254.400000" y1="88.000000" x2="254.400000" y2="76.000000"  style="stroke:black; stroke-linecap:round; stroke-width:0.25;"/>
<line x1="254.400000" y1="88.000000" x2="254.400000" y2="88.000000"  style="stroke:black; stroke-linecap:round; stroke-width:0.25;"/>
<line x1="262.400000" y1="56.000000" x2="262.400000" y2="68.000000"  style="stroke:black; stroke-linecap:round; stroke-width:0.25;"/>
<line x1="262.400000" y1="68.000000" x2="262.400000" y2="68.000000"  style="stroke:black; stroke-linecap:round; stroke-width:0.25;"/>
<line x1="262.400000" y1="68.000000" x2="266.400000" y2="68.000000"  style="stroke:black; stroke-linecap:round; stroke-width:0.25;"/>
<line x1="262.400000" y1="76.000000" x2="266.400000" y2="76.000000"  style="stroke:black; stroke-linecap:round; stroke-width:0.25;"/>
<line x1="290.400000" y1="72.000000" x2="294.400000" y2="72.000000"  style="stroke:black; stroke-linecap:round; stroke-width:0.25;"/>
<line x1="294.400000" y1="72.000000" x2="302.400000" y2="72.000000"  style="stroke:black; stroke-linecap:round; stroke-width:0.25;"/>
<line x1="294.400000" y1="92.000000" x2="302.400000" y2="92.000000"  style="stroke:black; stroke-linecap:round; stroke-width:0.25;"/>
<line x1="294.400000" y1="120.000000" x2="294.400000" y2="92.000000"  style="stroke:black; stroke-linecap:round; stroke-width:0.25;"/>
<line x1="294.400000" y1="120.000000" x2="294.400000" y2="120.000000"  style="stroke:black; stroke-linecap:round; stroke-width:0.25;"/>
<line x1="302.400000" y1="72.000000" x2="302.400000" y2="84.000000"  style="stroke:black; stroke-linecap:round; stroke-width:0.25;"/>
<line x1="302.400000" y1="84.000000" x2="302.400000" y2="84.000000"  style="stroke:black; stroke-linecap:round; stroke-width:0.25;"/>
<line x1="302.400000" y1="84.000000" x2="306.400000" y2="84.000000"  style="stroke:black; stroke-linecap:round; stroke-width:0.25;"/>
<line x1="302.400000" y1="92.000000" x2="306.400000" y2="92.000000"  style="stroke:black; stroke-linecap:round; stroke-width:0.25;"/>
<line x1="330.400000" y1="88.000000" x2="334.400000" y2="88.000000"  style="stroke:black; stroke-linecap:round; stroke-width:0.25;"/>
<line x1="334.400000" y1="88.000000" x2="342.400000" y2="88.000000"  style="stroke:black; stroke-linecap:round; stroke-width:0.25;"/>
<line x1="334.400000" y1="118.000000" x2="342.400000" y2="118.000000"  style="stroke:black; stroke-linecap:round; stroke-width:0.25;"/>
<line x1="334.400000" y1="162.000000" x2="334.400000" y2="118.000000"  style="stroke:black; stroke-linecap:round; stroke-width:0.25;"/>
<line x1="334.400000" y1="162.000000" x2="334.400000" y2="162.000000"  style="stroke:black; stroke-linecap:round; stroke-width:0.25;"/>
<line x1="342.400000" y1="88.000000" x2="342.400000" y2="110.000000"  style="stroke:black; stroke-linecap:round; stroke-width:0.25;"/>
<line x1="342.400000" y1="110.000000" x2="342.400000" y2="110.000000"  style="stroke:black; stroke-linecap:round; stroke-width:0.25;"/>
<line x1="342.400000" y1="110.000000" x2="346.400000" y2="110.000000"  style="stroke:black; stroke-linecap:round; stroke-width:0.25;"/>
<line x1="342.400000" y1="118.000000" x2="346.400000" y2="118.000000"  style="stroke:black; stroke-linecap:round; stroke-width:0.25;"/>
<line x1="370.400000" y1="114.000000" x2="374.400000" y2="114.000000"  style="stroke:black; stroke-linecap:round; stroke-width:0.25;"/>
<line x1="374.400000" y1="114.000000" x2="374.400000" y2="114.000000"  style="stroke:black; stroke-linecap:round; stroke-width:0.25;"/>
<line x1="374.400000" y1="114.000000" x2="378.400000" y2="114.000000"  style="stroke:black; stroke-linecap:round; stroke-width:0.25;"/>
<line x1="402.400000" y1="114.000000" x2="406.400000" y2="114.000000"  style="stroke:black; stroke-linecap:round; stroke-width:0.25;"/>
<line x1="406.400000" y1="114.000000" x2="416.400000" y2="114.000000"  style="stroke:black; stroke-linecap:round; stroke-width:0.25;"/>
<line x1="416.400000" y1="114.000000" x2="426.400000" y2="114.000000"  style="stroke:black; stroke-linecap:round; stroke-width:0.25;"/>
<line x1="426.400000" y1="114.000000" x2="426.400000" y2="114.000000"  style="stroke:black; stroke-linecap:round; stroke-width:0.25;"/>
<line x1="426.400000" y1="114.000000" x2="430.400000" y2="114.000000"  style="stroke:black; stroke-linecap:round; stroke-width:0.25;"/>
<line x1="430.400000" y1="114.000000" x2="434.400000" y2="114.000000"  style="stroke:black; stroke-linecap:round; stroke-width:0.25;"/>
<line x1="434.400000" y1="114.000000" x2="444.400000" y2="114.000000"  style="stroke:black; stroke-linecap:round; stroke-width:0.25;"/>
</svg>
