<?xml version="1.0"?>
<svg xmlns="http://www.w3.org/2000/svg" xmlns:xlink="http://www.w3.org/1999/xlink" viewBox="0 0 685.300000 120.000000" width="342.650000mm" height="60.000000mm" version="1.1">
<a xlink:href="display-0x7fd31c92e2b0.svg">
<rect x="1.000000" y="1.000000" width="684.300000" height="119.000000" rx="0" ry="0" style="stroke:none;fill:#cccccc;"/>
<rect x="0.000000" y="0.000000" width="684.300000" height="119.000000" rx="0" ry="0" style="stroke:none;fill:#ffffff;"/>
</a>
<text x="10.000000" y="7.000000" font-family="Arial" font-size="7"></text>
<a xlink:href="smooth-0x7fd31c82d5c0.svg">
<rect x="33.000000" y="49.000000" width="129.000000" height="24.000000" rx="0" ry="0" style="stroke:none;fill:#cccccc;"/>
<rect x="32.000000" y="48.000000" width="129.000000" height="24.000000" rx="0" ry="0" style="stroke:none;fill:#003366;"/>
</a>
<a xlink:href="smooth-0x7fd31c82d5c0.svg">
<text x="96.500000" y="62.000000" font-family="Arial" font-size="7" text-anchor="middle" fill="#FFFFFF">smooth(-1.0f,...*) : / : exp)</text>
</a>
<circle cx="34.000000" cy="50.000000" r="1"/>
<line x1="29.000000" y1="59.000000" x2="32.000000" y2="60.000000"  transform="rotate(0.000000,32.000000,60.000000)" style="stroke: black; stroke-width:0.25;"/>
<line x1="29.000000" y1="61.000000" x2="32.000000" y2="60.000000"  transform="rotate(0.000000,32.000000,60.000000)" style="stroke: black; stroke-width:0.25;"/>
<rect x="198.000000" y="53.000000" width="232.200000" height="24.000000" rx="0" ry="0" style="stroke:none;fill:#cccccc;"/>
<rect x="197.000000" y="52.000000" width="232.200000" height="24.000000" rx="0" ry="0" style="stroke:none;fill:#477881;"/>
<text x="313.100000" y="66.000000" font-family="Arial" font-size="7" text-anchor="middle" fill="#FFFFFF">hslider(Level dB Offset, 50.0f, -50.0f, 100.0f, 1.0f)</text>
<circle cx="199.000000" cy="54.000000" r="1"/>
<line x1="188.000000" y1="43.000000" x2="188.000000" y2="85.000000"  style="stroke: black; stroke-linecap:round; stroke-width:0.25; stroke-dasharray:3,3;"/>
<line x1="188.000000" y1="85.000000" x2="438.200000" y2="85.000000"  style="stroke: black; stroke-linecap:round; stroke-width:0.25; stroke-dasharray:3,3;"/>
<line x1="438.200000" y1="85.000000" x2="438.200000" y2="43.000000"  style="stroke: black; stroke-linecap:round; stroke-width:0.25; stroke-dasharray:3,3;"/>
<line x1="188.000000" y1="43.000000" x2="193.000000" y2="43.000000"  style="stroke: black; stroke-linecap:round; stroke-width:0.25; stroke-dasharray:3,3;"/>
<line x1="322.000000" y1="43.000000" x2="438.200000" y2="43.000000"  style="stroke: black; stroke-linecap:round; stroke-width:0.25; stroke-dasharray:3,3;"/>
<text x="193.000000" y="45.000000" font-family="Arial" font-size="7">hgroup(FFT SPECTRUM ANALYZER CONTROLS)</text>
<line x1="178.000000" y1="33.000000" x2="178.000000" y2="95.000000"  style="stroke: black; stroke-linecap:round; stroke-width:0.25; stroke-dasharray:3,3;"/>
<line x1="178.000000" y1="95.000000" x2="448.200000" y2="95.000000"  style="stroke: black; stroke-linecap:round; stroke-width:0.25; stroke-dasharray:3,3;"/>
<line x1="448.200000" y1="95.000000" x2="448.200000" y2="33.000000"  style="stroke: black; stroke-linecap:round; stroke-width:0.25; stroke-dasharray:3,3;"/>
<line x1="178.000000" y1="33.000000" x2="183.000000" y2="33.000000"  style="stroke: black; stroke-linecap:round; stroke-width:0.25; stroke-dasharray:3,3;"/>
<line x1="218.475000" y1="33.000000" x2="448.200000" y2="33.000000"  style="stroke: black; stroke-linecap:round; stroke-width:0.25; stroke-dasharray:3,3;"/>
<text x="183.000000" y="35.000000" font-family="Arial" font-size="7">dB_offset</text>
<rect x="466.200000" y="49.000000" width="24.000000" height="24.000000" rx="0" ry="0" style="stroke:none;fill:#cccccc;"/>
<rect x="465.200000" y="48.000000" width="24.000000" height="24.000000" rx="0" ry="0" style="stroke:none;fill:#4B71A1;"/>
<text x="477.200000" y="62.000000" font-family="Arial" font-size="7" text-anchor="middle" fill="#FFFFFF">+</text>
<circle cx="467.200000" cy="50.000000" r="1"/>
<line x1="462.200000" y1="55.000000" x2="465.200000" y2="56.000000"  transform="rotate(0.000000,465.200000,56.000000)" style="stroke: black; stroke-width:0.25;"/>
<line x1="462.200000" y1="57.000000" x2="465.200000" y2="56.000000"  transform="rotate(0.000000,465.200000,56.000000)" style="stroke: black; stroke-width:0.25;"/>
<line x1="462.200000" y1="63.000000" x2="465.200000" y2="64.000000"  transform="rotate(0.000000,465.200000,64.000000)" style="stroke: black; stroke-width:0.25;"/>
<line x1="462.200000" y1="65.000000" x2="465.200000" y2="64.000000"  transform="rotate(0.000000,465.200000,64.000000)" style="stroke: black; stroke-width:0.25;"/>
<rect x="518.200000" y="49.000000" width="116.100000" height="24.000000" rx="0" ry="0" style="stroke:none;fill:#cccccc;"/>
<rect x="517.200000" y="48.000000" width="116.100000" height="24.000000" rx="0" ry="0" style="stroke:none;fill:#477881;"/>
<text x="575.250000" y="62.000000" font-family="Arial" font-size="7" text-anchor="middle" fill="#FFFFFF">vbargraph(, -50.0f, 10.0f)</text>
<circle cx="519.200000" cy="50.000000" r="1"/>
<line x1="514.200000" y1="59.000000" x2="517.200000" y2="60.000000"  transform="rotate(0.000000,517.200000,60.000000)" style="stroke: black; stroke-width:0.25;"/>
<line x1="514.200000" y1="61.000000" x2="517.200000" y2="60.000000"  transform="rotate(0.000000,517.200000,60.000000)" style="stroke: black; stroke-width:0.25;"/>
<line x1="508.200000" y1="39.000000" x2="508.200000" y2="81.000000"  style="stroke: black; stroke-linecap:round; stroke-width:0.25; stroke-dasharray:3,3;"/>
<line x1="508.200000" y1="81.000000" x2="642.300000" y2="81.000000"  style="stroke: black; stroke-linecap:round; stroke-width:0.25; stroke-dasharray:3,3;"/>
<line x1="642.300000" y1="81.000000" x2="642.300000" y2="39.000000"  style="stroke: black; stroke-linecap:round; stroke-width:0.25; stroke-dasharray:3,3;"/>
<line x1="508.200000" y1="39.000000" x2="513.200000" y2="39.000000"  style="stroke: black; stroke-linecap:round; stroke-width:0.25; stroke-dasharray:3,3;"/>
<line x1="642.300000" y1="39.000000" x2="642.300000" y2="39.000000"  style="stroke: black; stroke-linecap:round; stroke-width:0.25; stroke-dasharray:3,3;"/>
<text x="513.200000" y="41.000000" font-family="Arial" font-size="7">hgroup(FFT SPECTRUM ANALYZER, 32 bands)</text>
<line x1="498.200000" y1="29.000000" x2="498.200000" y2="91.000000"  style="stroke: black; stroke-linecap:round; stroke-width:0.25; stroke-dasharray:3,3;"/>
<line x1="498.200000" y1="91.000000" x2="652.300000" y2="91.000000"  style="stroke: black; stroke-linecap:round; stroke-width:0.25; stroke-dasharray:3,3;"/>
<line x1="652.300000" y1="91.000000" x2="652.300000" y2="29.000000"  style="stroke: black; stroke-linecap:round; stroke-width:0.25; stroke-dasharray:3,3;"/>
<line x1="498.200000" y1="29.000000" x2="503.200000" y2="29.000000"  style="stroke: black; stroke-linecap:round; stroke-width:0.25; stroke-dasharray:3,3;"/>
<line x1="538.675000" y1="29.000000" x2="652.300000" y2="29.000000"  style="stroke: black; stroke-linecap:round; stroke-width:0.25; stroke-dasharray:3,3;"/>
<text x="503.200000" y="31.000000" font-family="Arial" font-size="7">meter(13)</text>
<line x1="15.000000" y1="15.000000" x2="15.000000" y2="105.000000"  style="stroke: black; stroke-linecap:round; stroke-width:0.25; stroke-dasharray:3,3;"/>
<line x1="15.000000" y1="105.000000" x2="670.300000" y2="105.000000"  style="stroke: black; stroke-linecap:round; stroke-width:0.25; stroke-dasharray:3,3;"/>
<line x1="670.300000" y1="105.000000" x2="670.300000" y2="15.000000"  style="stroke: black; stroke-linecap:round; stroke-width:0.25; stroke-dasharray:3,3;"/>
<line x1="15.000000" y1="15.000000" x2="20.000000" y2="15.000000"  style="stroke: black; stroke-linecap:round; stroke-width:0.25; stroke-dasharray:3,3;"/>
<line x1="61.925000" y1="15.000000" x2="670.300000" y2="15.000000"  style="stroke: black; stroke-linecap:round; stroke-width:0.25; stroke-dasharray:3,3;"/>
<text x="20.000000" y="17.000000" font-family="Arial" font-size="7">dbmeter(13)</text>
<line x1="672.300000" y1="59.000000" x2="675.300000" y2="60.000000"  transform="rotate(0.000000,675.300000,60.000000)" style="stroke: black; stroke-width:0.25;"/>
<line x1="672.300000" y1="61.000000" x2="675.300000" y2="60.000000"  transform="rotate(0.000000,675.300000,60.000000)" style="stroke: black; stroke-width:0.25;"/>
<line x1="10.000000" y1="60.000000" x2="20.000000" y2="60.000000"  style="stroke:black; stroke-linecap:round; stroke-width:0.25;"/>
<line x1="20.000000" y1="60.000000" x2="24.000000" y2="60.000000"  style="stroke:black; stroke-linecap:round; stroke-width:0.25;"/>
<line x1="24.000000" y1="60.000000" x2="28.000000" y2="60.000000"  style="stroke:black; stroke-linecap:round; stroke-width:0.25;"/>
<line x1="28.000000" y1="60.000000" x2="28.000000" y2="60.000000"  style="stroke:black; stroke-linecap:round; stroke-width:0.25;"/>
<line x1="28.000000" y1="60.000000" x2="32.000000" y2="60.000000"  style="stroke:black; stroke-linecap:round; stroke-width:0.25;"/>
<line x1="161.000000" y1="60.000000" x2="165.000000" y2="60.000000"  style="stroke:black; stroke-linecap:round; stroke-width:0.25;"/>
<line x1="165.000000" y1="24.000000" x2="173.000000" y2="24.000000"  style="stroke:black; stroke-linecap:round; stroke-width:0.25;"/>
<line x1="165.000000" y1="60.000000" x2="165.000000" y2="24.000000"  style="stroke:black; stroke-linecap:round; stroke-width:0.25;"/>
<line x1="165.000000" y1="60.000000" x2="165.000000" y2="60.000000"  style="stroke:black; stroke-linecap:round; stroke-width:0.25;"/>
<line x1="173.000000" y1="24.000000" x2="313.100000" y2="24.000000"  style="stroke:black; stroke-linecap:round; stroke-width:0.25;"/>
<line x1="313.100000" y1="24.000000" x2="453.200000" y2="24.000000"  style="stroke:black; stroke-linecap:round; stroke-width:0.25;"/>
<line x1="429.200000" y1="64.000000" x2="433.200000" y2="64.000000"  style="stroke:black; stroke-linecap:round; stroke-width:0.25;"/>
<line x1="433.200000" y1="64.000000" x2="443.200000" y2="64.000000"  style="stroke:black; stroke-linecap:round; stroke-width:0.25;"/>
<line x1="443.200000" y1="64.000000" x2="453.200000" y2="64.000000"  style="stroke:black; stroke-linecap:round; stroke-width:0.25;"/>
<line x1="453.200000" y1="64.000000" x2="461.200000" y2="64.000000"  style="stroke:black; stroke-linecap:round; stroke-width:0.25;"/>
<line x1="453.200000" y1="24.000000" x2="461.200000" y2="24.000000"  style="stroke:black; stroke-linecap:round; stroke-width:0.25;"/>
<line x1="461.200000" y1="56.000000" x2="465.200000" y2="56.000000"  style="stroke:black; stroke-linecap:round; stroke-width:0.25;"/>
<line x1="461.200000" y1="64.000000" x2="465.200000" y2="64.000000"  style="stroke:black; stroke-linecap:round; stroke-width:0.25;"/>
<line x1="461.200000" y1="24.000000" x2="461.200000" y2="56.000000"  style="stroke:black; stroke-linecap:round; stroke-width:0.25;"/>
<line x1="461.200000" y1="56.000000" x2="461.200000" y2="56.000000"  style="stroke:black; stroke-linecap:round; stroke-width:0.25;"/>
<line x1="489.200000" y1="60.000000" x2="493.200000" y2="60.000000"  style="stroke:black; stroke-linecap:round; stroke-width:0.25;"/>
<line x1="493.200000" y1="60.000000" x2="493.200000" y2="60.000000"  style="stroke:black; stroke-linecap:round; stroke-width:0.25;"/>
<line x1="493.200000" y1="60.000000" x2="503.200000" y2="60.000000"  style="stroke:black; stroke-linecap:round; stroke-width:0.25;"/>
<line x1="503.200000" y1="60.000000" x2="513.200000" y2="60.000000"  style="stroke:black; stroke-linecap:round; stroke-width:0.25;"/>
<line x1="513.200000" y1="60.000000" x2="517.200000" y2="60.000000"  style="stroke:black; stroke-linecap:round; stroke-width:0.25;"/>
<line x1="633.300000" y1="60.000000" x2="637.300000" y2="60.000000"  style="stroke:black; stroke-linecap:round; stroke-width:0.25;"/>
<line x1="637.300000" y1="60.000000" x2="647.300000" y2="60.000000"  style="stroke:black; stroke-linecap:round; stroke-width:0.25;"/>
<line x1="647.300000" y1="60.000000" x2="657.300000" y2="60.000000"  style="stroke:black; stroke-linecap:round; stroke-width:0.25;"/>
<line x1="657.300000" y1="60.000000" x2="661.300000" y2="60.000000"  style="stroke:black; stroke-linecap:round; stroke-width:0.25;"/>
<line x1="657.300000" y1="60.000000" x2="657.300000" y2="60.000000"  style="stroke:black; stroke-linecap:round; stroke-width:0.25;"/>
<line x1="661.300000" y1="60.000000" x2="665.300000" y2="60.000000"  style="stroke:black; stroke-linecap:round; stroke-width:0.25;"/>
<line x1="665.300000" y1="60.000000" x2="675.300000" y2="60.000000"  style="stroke:black; stroke-linecap:round; stroke-width:0.25;"/>
</svg>
