<?xml version="1.0"?>
<svg xmlns="http://www.w3.org/2000/svg" xmlns:xlink="http://www.w3.org/1999/xlink" viewBox="0 0 751.800000 280.000000" width="375.900000mm" height="140.000000mm" version="1.1">
<rect x="1.000000" y="1.000000" width="750.800000" height="279.000000" rx="0" ry="0" style="stroke:none;fill:#cccccc;"/>
<rect x="0.000000" y="0.000000" width="750.800000" height="279.000000" rx="0" ry="0" style="stroke:none;fill:#ffffff;"/>
<text x="10.000000" y="7.000000" font-family="Arial" font-size="7"></text>
<rect x="309.300000" y="35.000000" width="64.500000" height="24.000000" rx="0" ry="0" style="stroke:none;fill:#cccccc;"/>
<rect x="308.300000" y="34.000000" width="64.500000" height="24.000000" rx="0" ry="0" style="stroke:none;fill:#4B71A1;"/>
<text x="340.550000" y="48.000000" font-family="Arial" font-size="7" text-anchor="middle" fill="#FFFFFF">waveform{...}</text>
<circle cx="310.300000" cy="36.000000" r="1"/>
<line x1="299.300000" y1="25.000000" x2="299.300000" y2="67.000000"  style="stroke: black; stroke-linecap:round; stroke-width:0.25; stroke-dasharray:3,3;"/>
<line x1="299.300000" y1="67.000000" x2="381.800000" y2="67.000000"  style="stroke: black; stroke-linecap:round; stroke-width:0.25; stroke-dasharray:3,3;"/>
<line x1="381.800000" y1="67.000000" x2="381.800000" y2="25.000000"  style="stroke: black; stroke-linecap:round; stroke-width:0.25; stroke-dasharray:3,3;"/>
<line x1="299.300000" y1="25.000000" x2="304.300000" y2="25.000000"  style="stroke: black; stroke-linecap:round; stroke-width:0.25; stroke-dasharray:3,3;"/>
<line x1="349.450000" y1="25.000000" x2="381.800000" y2="25.000000"  style="stroke: black; stroke-linecap:round; stroke-width:0.25; stroke-dasharray:3,3;"/>
<text x="304.300000" y="27.000000" font-family="Arial" font-size="7">triangleWave</text>
<rect x="45.000000" y="97.000000" width="193.500000" height="24.000000" rx="0" ry="0" style="stroke:none;fill:#cccccc;"/>
<rect x="44.000000" y="96.000000" width="193.500000" height="24.000000" rx="0" ry="0" style="stroke:none;fill:#477881;"/>
<text x="140.750000" y="110.000000" font-family="Arial" font-size="7" text-anchor="middle" fill="#FFFFFF">hslider(freq, 440.0f, 50.0f, 2000.0f, 0.01f)</text>
<circle cx="46.000000" cy="98.000000" r="1"/>
<line x1="35.000000" y1="87.000000" x2="35.000000" y2="129.000000"  style="stroke: black; stroke-linecap:round; stroke-width:0.25; stroke-dasharray:3,3;"/>
<line x1="35.000000" y1="129.000000" x2="246.500000" y2="129.000000"  style="stroke: black; stroke-linecap:round; stroke-width:0.25; stroke-dasharray:3,3;"/>
<line x1="246.500000" y1="129.000000" x2="246.500000" y2="87.000000"  style="stroke: black; stroke-linecap:round; stroke-width:0.25; stroke-dasharray:3,3;"/>
<line x1="35.000000" y1="87.000000" x2="40.000000" y2="87.000000"  style="stroke: black; stroke-linecap:round; stroke-width:0.25; stroke-dasharray:3,3;"/>
<line x1="49.675000" y1="87.000000" x2="246.500000" y2="87.000000"  style="stroke: black; stroke-linecap:round; stroke-width:0.25; stroke-dasharray:3,3;"/>
<text x="40.000000" y="89.000000" font-family="Arial" font-size="7">f</text>
<rect x="91.950000" y="149.000000" width="25.800000" height="24.000000" rx="0" ry="0" style="stroke:none;fill:#cccccc;"/>
<rect x="90.950000" y="148.000000" width="25.800000" height="24.000000" rx="0" ry="0" style="stroke:none;fill:#f44800;"/>
<text x="103.850000" y="162.000000" font-family="Arial" font-size="7" text-anchor="middle" fill="#FFFFFF">192000</text>
<circle cx="92.950000" cy="150.000000" r="1"/>
<rect x="72.850000" y="181.000000" width="24.000000" height="24.000000" rx="0" ry="0" style="stroke:none;fill:#cccccc;"/>
<rect x="71.850000" y="180.000000" width="24.000000" height="24.000000" rx="0" ry="0" style="stroke:none;fill:#f44800;"/>
<text x="83.850000" y="194.000000" font-family="Arial" font-size="7" text-anchor="middle" fill="#FFFFFF">1</text>
<circle cx="73.850000" cy="182.000000" r="1"/>
<rect x="52.600000" y="213.000000" width="64.500000" height="24.000000" rx="0" ry="0" style="stroke:none;fill:#cccccc;"/>
<rect x="51.600000" y="212.000000" width="64.500000" height="24.000000" rx="0" ry="0" style="stroke:none;fill:#4B71A1;"/>
<text x="83.850000" y="226.000000" font-family="Arial" font-size="7" text-anchor="middle" fill="#FFFFFF">fSamplingFreq</text>
<circle cx="53.600000" cy="214.000000" r="1"/>
<rect x="133.100000" y="197.000000" width="24.000000" height="24.000000" rx="0" ry="0" style="stroke:none;fill:#cccccc;"/>
<rect x="132.100000" y="196.000000" width="24.000000" height="24.000000" rx="0" ry="0" style="stroke:none;fill:#4B71A1;"/>
<text x="144.100000" y="210.000000" font-family="Arial" font-size="7" text-anchor="middle" fill="#FFFFFF">max</text>
<circle cx="134.100000" cy="198.000000" r="1"/>
<line x1="129.100000" y1="203.000000" x2="132.100000" y2="204.000000"  transform="rotate(0.000000,132.100000,204.000000)" style="stroke: black; stroke-width:0.25;"/>
<line x1="129.100000" y1="205.000000" x2="132.100000" y2="204.000000"  transform="rotate(0.000000,132.100000,204.000000)" style="stroke: black; stroke-width:0.25;"/>
<line x1="129.100000" y1="211.000000" x2="132.100000" y2="212.000000"  transform="rotate(0.000000,132.100000,212.000000)" style="stroke: black; stroke-width:0.25;"/>
<line x1="129.100000" y1="213.000000" x2="132.100000" y2="212.000000"  transform="rotate(0.000000,132.100000,212.000000)" style="stroke: black; stroke-width:0.25;"/>
<rect x="173.100000" y="181.000000" width="24.000000" height="24.000000" rx="0" ry="0" style="stroke:none;fill:#cccccc;"/>
<rect x="172.100000" y="180.000000" width="24.000000" height="24.000000" rx="0" ry="0" style="stroke:none;fill:#4B71A1;"/>
<text x="184.100000" y="194.000000" font-family="Arial" font-size="7" text-anchor="middle" fill="#FFFFFF">min</text>
<circle cx="174.100000" cy="182.000000" r="1"/>
<line x1="169.100000" y1="187.000000" x2="172.100000" y2="188.000000"  transform="rotate(0.000000,172.100000,188.000000)" style="stroke: black; stroke-width:0.25;"/>
<line x1="169.100000" y1="189.000000" x2="172.100000" y2="188.000000"  transform="rotate(0.000000,172.100000,188.000000)" style="stroke: black; stroke-width:0.25;"/>
<line x1="169.100000" y1="195.000000" x2="172.100000" y2="196.000000"  transform="rotate(0.000000,172.100000,196.000000)" style="stroke: black; stroke-width:0.25;"/>
<line x1="169.100000" y1="197.000000" x2="172.100000" y2="196.000000"  transform="rotate(0.000000,172.100000,196.000000)" style="stroke: black; stroke-width:0.25;"/>
<line x1="42.600000" y1="139.000000" x2="42.600000" y2="245.000000"  style="stroke: black; stroke-linecap:round; stroke-width:0.25; stroke-dasharray:3,3;"/>
<line x1="42.600000" y1="245.000000" x2="205.100000" y2="245.000000"  style="stroke: black; stroke-linecap:round; stroke-width:0.25; stroke-dasharray:3,3;"/>
<line x1="205.100000" y1="245.000000" x2="205.100000" y2="139.000000"  style="stroke: black; stroke-linecap:round; stroke-width:0.25; stroke-dasharray:3,3;"/>
<line x1="42.600000" y1="139.000000" x2="47.600000" y2="139.000000"  style="stroke: black; stroke-linecap:round; stroke-width:0.25; stroke-dasharray:3,3;"/>
<line x1="60.500000" y1="139.000000" x2="205.100000" y2="139.000000"  style="stroke: black; stroke-linecap:round; stroke-width:0.25; stroke-dasharray:3,3;"/>
<text x="47.600000" y="141.000000" font-family="Arial" font-size="7">SR</text>
<rect x="215.100000" y="181.000000" width="25.800000" height="24.000000" rx="0" ry="0" style="stroke:none;fill:#cccccc;"/>
<rect x="214.100000" y="180.000000" width="25.800000" height="24.000000" rx="0" ry="0" style="stroke:none;fill:#4B71A1;"/>
<text x="227.000000" y="194.000000" font-family="Arial" font-size="7" text-anchor="middle" fill="#FFFFFF">float</text>
<circle cx="216.100000" cy="182.000000" r="1"/>
<line x1="211.100000" y1="191.000000" x2="214.100000" y2="192.000000"  transform="rotate(0.000000,214.100000,192.000000)" style="stroke: black; stroke-width:0.25;"/>
<line x1="211.100000" y1="193.000000" x2="214.100000" y2="192.000000"  transform="rotate(0.000000,214.100000,192.000000)" style="stroke: black; stroke-width:0.25;"/>
<rect x="264.500000" y="155.000000" width="24.000000" height="24.000000" rx="0" ry="0" style="stroke:none;fill:#cccccc;"/>
<rect x="263.500000" y="154.000000" width="24.000000" height="24.000000" rx="0" ry="0" style="stroke:none;fill:#4B71A1;"/>
<text x="275.500000" y="168.000000" font-family="Arial" font-size="7" text-anchor="middle" fill="#FFFFFF">/</text>
<circle cx="265.500000" cy="156.000000" r="1"/>
<line x1="260.500000" y1="161.000000" x2="263.500000" y2="162.000000"  transform="rotate(0.000000,263.500000,162.000000)" style="stroke: black; stroke-width:0.25;"/>
<line x1="260.500000" y1="163.000000" x2="263.500000" y2="162.000000"  transform="rotate(0.000000,263.500000,162.000000)" style="stroke: black; stroke-width:0.25;"/>
<line x1="260.500000" y1="169.000000" x2="263.500000" y2="170.000000"  transform="rotate(0.000000,263.500000,170.000000)" style="stroke: black; stroke-width:0.25;"/>
<line x1="260.500000" y1="171.000000" x2="263.500000" y2="170.000000"  transform="rotate(0.000000,263.500000,170.000000)" style="stroke: black; stroke-width:0.25;"/>
<rect x="312.500000" y="159.000000" width="24.000000" height="24.000000" rx="0" ry="0" style="stroke:none;fill:#cccccc;"/>
<rect x="311.500000" y="158.000000" width="24.000000" height="24.000000" rx="0" ry="0" style="stroke:none;fill:#4B71A1;"/>
<text x="323.500000" y="172.000000" font-family="Arial" font-size="7" text-anchor="middle" fill="#FFFFFF">+</text>
<circle cx="313.500000" cy="160.000000" r="1"/>
<line x1="308.500000" y1="165.000000" x2="311.500000" y2="166.000000"  transform="rotate(0.000000,311.500000,166.000000)" style="stroke: black; stroke-width:0.25;"/>
<line x1="308.500000" y1="167.000000" x2="311.500000" y2="166.000000"  transform="rotate(0.000000,311.500000,166.000000)" style="stroke: black; stroke-width:0.25;"/>
<line x1="308.500000" y1="173.000000" x2="311.500000" y2="174.000000"  transform="rotate(0.000000,311.500000,174.000000)" style="stroke: black; stroke-width:0.25;"/>
<line x1="308.500000" y1="175.000000" x2="311.500000" y2="174.000000"  transform="rotate(0.000000,311.500000,174.000000)" style="stroke: black; stroke-width:0.25;"/>
<rect x="354.500000" y="159.000000" width="24.000000" height="24.000000" rx="0" ry="0" style="stroke:none;fill:#cccccc;"/>
<rect x="353.500000" y="158.000000" width="24.000000" height="24.000000" rx="0" ry="0" style="stroke:none;fill:#47945E;"/>
<text x="365.500000" y="172.000000" font-family="Arial" font-size="7" text-anchor="middle" fill="#FFFFFF">n</text>
<circle cx="355.500000" cy="160.000000" r="1"/>
<line x1="350.500000" y1="169.000000" x2="353.500000" y2="170.000000"  transform="rotate(0.000000,353.500000,170.000000)" style="stroke: black; stroke-width:0.25;"/>
<line x1="350.500000" y1="171.000000" x2="353.500000" y2="170.000000"  transform="rotate(0.000000,353.500000,170.000000)" style="stroke: black; stroke-width:0.25;"/>
<rect x="403.400000" y="143.000000" width="24.000000" height="24.000000" rx="0" ry="0" style="stroke:none;fill:#cccccc;"/>
<rect x="402.400000" y="142.000000" width="24.000000" height="24.000000" rx="0" ry="0" style="stroke:none;fill:#47945E;"/>
<text x="414.400000" y="156.000000" font-family="Arial" font-size="7" text-anchor="middle" fill="#FFFFFF">n</text>
<circle cx="404.400000" cy="144.000000" r="1"/>
<rect x="386.500000" y="175.000000" width="24.000000" height="24.000000" rx="0" ry="0" style="stroke:none;fill:#cccccc;"/>
<rect x="385.500000" y="174.000000" width="24.000000" height="24.000000" rx="0" ry="0" style="stroke:none;fill:#47945E;"/>
<text x="397.500000" y="188.000000" font-family="Arial" font-size="7" text-anchor="middle" fill="#FFFFFF">n</text>
<circle cx="387.500000" cy="176.000000" r="1"/>
<rect x="418.500000" y="175.000000" width="25.800000" height="24.000000" rx="0" ry="0" style="stroke:none;fill:#cccccc;"/>
<rect x="417.500000" y="174.000000" width="25.800000" height="24.000000" rx="0" ry="0" style="stroke:none;fill:#4B71A1;"/>
<text x="430.400000" y="188.000000" font-family="Arial" font-size="7" text-anchor="middle" fill="#FFFFFF">floor</text>
<circle cx="419.500000" cy="176.000000" r="1"/>
<line x1="414.500000" y1="185.000000" x2="417.500000" y2="186.000000"  transform="rotate(0.000000,417.500000,186.000000)" style="stroke: black; stroke-width:0.25;"/>
<line x1="414.500000" y1="187.000000" x2="417.500000" y2="186.000000"  transform="rotate(0.000000,417.500000,186.000000)" style="stroke: black; stroke-width:0.25;"/>
<rect x="460.300000" y="159.000000" width="24.000000" height="24.000000" rx="0" ry="0" style="stroke:none;fill:#cccccc;"/>
<rect x="459.300000" y="158.000000" width="24.000000" height="24.000000" rx="0" ry="0" style="stroke:none;fill:#4B71A1;"/>
<text x="471.300000" y="172.000000" font-family="Arial" font-size="7" text-anchor="middle" fill="#FFFFFF">-</text>
<circle cx="461.300000" cy="160.000000" r="1"/>
<line x1="456.300000" y1="165.000000" x2="459.300000" y2="166.000000"  transform="rotate(0.000000,459.300000,166.000000)" style="stroke: black; stroke-width:0.25;"/>
<line x1="456.300000" y1="167.000000" x2="459.300000" y2="166.000000"  transform="rotate(0.000000,459.300000,166.000000)" style="stroke: black; stroke-width:0.25;"/>
<line x1="456.300000" y1="173.000000" x2="459.300000" y2="174.000000"  transform="rotate(0.000000,459.300000,174.000000)" style="stroke: black; stroke-width:0.25;"/>
<line x1="456.300000" y1="175.000000" x2="459.300000" y2="174.000000"  transform="rotate(0.000000,459.300000,174.000000)" style="stroke: black; stroke-width:0.25;"/>
<line x1="344.500000" y1="133.000000" x2="344.500000" y2="207.000000"  style="stroke: black; stroke-linecap:round; stroke-width:0.25; stroke-dasharray:3,3;"/>
<line x1="344.500000" y1="207.000000" x2="492.300000" y2="207.000000"  style="stroke: black; stroke-linecap:round; stroke-width:0.25; stroke-dasharray:3,3;"/>
<line x1="492.300000" y1="207.000000" x2="492.300000" y2="133.000000"  style="stroke: black; stroke-linecap:round; stroke-width:0.25; stroke-dasharray:3,3;"/>
<line x1="344.500000" y1="133.000000" x2="349.500000" y2="133.000000"  style="stroke: black; stroke-linecap:round; stroke-width:0.25; stroke-dasharray:3,3;"/>
<line x1="378.525000" y1="133.000000" x2="492.300000" y2="133.000000"  style="stroke: black; stroke-linecap:round; stroke-width:0.25; stroke-dasharray:3,3;"/>
<text x="349.500000" y="135.000000" font-family="Arial" font-size="7">decimal</text>
<line x1="495.300000" y1="170.000000" x2="495.300000" y2="166.000000"  style="stroke:black; stroke-linecap:round; stroke-width:0.25;"/>
<line x1="495.300000" y1="166.000000" x2="499.300000" y2="166.000000"  style="stroke:black; stroke-linecap:round; stroke-width:0.25;"/>
<line x1="499.300000" y1="166.000000" x2="499.300000" y2="170.000000"  style="stroke:black; stroke-linecap:round; stroke-width:0.25;"/>
<rect x="518.300000" y="159.000000" width="24.000000" height="24.000000" rx="0" ry="0" style="stroke:none;fill:#cccccc;"/>
<rect x="517.300000" y="158.000000" width="24.000000" height="24.000000" rx="0" ry="0" style="stroke:none;fill:#f44800;"/>
<text x="529.300000" y="172.000000" font-family="Arial" font-size="7" text-anchor="middle" fill="#FFFFFF">8</text>
<circle cx="519.300000" cy="160.000000" r="1"/>
<rect x="550.300000" y="159.000000" width="25.800000" height="24.000000" rx="0" ry="0" style="stroke:none;fill:#cccccc;"/>
<rect x="549.300000" y="158.000000" width="25.800000" height="24.000000" rx="0" ry="0" style="stroke:none;fill:#4B71A1;"/>
<text x="562.200000" y="172.000000" font-family="Arial" font-size="7" text-anchor="middle" fill="#FFFFFF">float</text>
<circle cx="551.300000" cy="160.000000" r="1"/>
<line x1="546.300000" y1="169.000000" x2="549.300000" y2="170.000000"  transform="rotate(0.000000,549.300000,170.000000)" style="stroke: black; stroke-width:0.25;"/>
<line x1="546.300000" y1="171.000000" x2="549.300000" y2="170.000000"  transform="rotate(0.000000,549.300000,170.000000)" style="stroke: black; stroke-width:0.25;"/>
<rect x="592.100000" y="155.000000" width="24.000000" height="24.000000" rx="0" ry="0" style="stroke:none;fill:#cccccc;"/>
<rect x="591.100000" y="154.000000" width="24.000000" height="24.000000" rx="0" ry="0" style="stroke:none;fill:#4B71A1;"/>
<text x="603.100000" y="168.000000" font-family="Arial" font-size="7" text-anchor="middle" fill="#FFFFFF">*</text>
<circle cx="593.100000" cy="156.000000" r="1"/>
<line x1="588.100000" y1="161.000000" x2="591.100000" y2="162.000000"  transform="rotate(0.000000,591.100000,162.000000)" style="stroke: black; stroke-width:0.25;"/>
<line x1="588.100000" y1="163.000000" x2="591.100000" y2="162.000000"  transform="rotate(0.000000,591.100000,162.000000)" style="stroke: black; stroke-width:0.25;"/>
<line x1="588.100000" y1="169.000000" x2="591.100000" y2="170.000000"  transform="rotate(0.000000,591.100000,170.000000)" style="stroke: black; stroke-width:0.25;"/>
<line x1="588.100000" y1="171.000000" x2="591.100000" y2="170.000000"  transform="rotate(0.000000,591.100000,170.000000)" style="stroke: black; stroke-width:0.25;"/>
<line x1="25.000000" y1="77.000000" x2="25.000000" y2="255.000000"  style="stroke: black; stroke-linecap:round; stroke-width:0.25; stroke-dasharray:3,3;"/>
<line x1="25.000000" y1="255.000000" x2="624.100000" y2="255.000000"  style="stroke: black; stroke-linecap:round; stroke-width:0.25; stroke-dasharray:3,3;"/>
<line x1="624.100000" y1="255.000000" x2="624.100000" y2="77.000000"  style="stroke: black; stroke-linecap:round; stroke-width:0.25; stroke-dasharray:3,3;"/>
<line x1="25.000000" y1="77.000000" x2="30.000000" y2="77.000000"  style="stroke: black; stroke-linecap:round; stroke-width:0.25; stroke-dasharray:3,3;"/>
<line x1="129.975000" y1="77.000000" x2="624.100000" y2="77.000000"  style="stroke: black; stroke-linecap:round; stroke-width:0.25; stroke-dasharray:3,3;"/>
<text x="30.000000" y="79.000000" font-family="Arial" font-size="7">phasor(8)(hsl...0.0f, 0.01f))</text>
<rect x="634.100000" y="155.000000" width="24.000000" height="24.000000" rx="0" ry="0" style="stroke:none;fill:#cccccc;"/>
<rect x="633.100000" y="154.000000" width="24.000000" height="24.000000" rx="0" ry="0" style="stroke:none;fill:#4B71A1;"/>
<text x="645.100000" y="168.000000" font-family="Arial" font-size="7" text-anchor="middle" fill="#FFFFFF">int</text>
<circle cx="635.100000" cy="156.000000" r="1"/>
<line x1="630.100000" y1="165.000000" x2="633.100000" y2="166.000000"  transform="rotate(0.000000,633.100000,166.000000)" style="stroke: black; stroke-width:0.25;"/>
<line x1="630.100000" y1="167.000000" x2="633.100000" y2="166.000000"  transform="rotate(0.000000,633.100000,166.000000)" style="stroke: black; stroke-width:0.25;"/>
<rect x="682.100000" y="129.000000" width="38.700000" height="24.000000" rx="0" ry="0" style="stroke:none;fill:#cccccc;"/>
<rect x="681.100000" y="128.000000" width="38.700000" height="24.000000" rx="0" ry="0" style="stroke:none;fill:#4B71A1;"/>
<text x="700.450000" y="142.000000" font-family="Arial" font-size="7" text-anchor="middle" fill="#FFFFFF">rdtable</text>
<circle cx="683.100000" cy="130.000000" r="1"/>
<line x1="678.100000" y1="131.000000" x2="681.100000" y2="132.000000"  transform="rotate(0.000000,681.100000,132.000000)" style="stroke: black; stroke-width:0.25;"/>
<line x1="678.100000" y1="133.000000" x2="681.100000" y2="132.000000"  transform="rotate(0.000000,681.100000,132.000000)" style="stroke: black; stroke-width:0.25;"/>
<line x1="678.100000" y1="139.000000" x2="681.100000" y2="140.000000"  transform="rotate(0.000000,681.100000,140.000000)" style="stroke: black; stroke-width:0.25;"/>
<line x1="678.100000" y1="141.000000" x2="681.100000" y2="140.000000"  transform="rotate(0.000000,681.100000,140.000000)" style="stroke: black; stroke-width:0.25;"/>
<line x1="678.100000" y1="147.000000" x2="681.100000" y2="148.000000"  transform="rotate(0.000000,681.100000,148.000000)" style="stroke: black; stroke-width:0.25;"/>
<line x1="678.100000" y1="149.000000" x2="681.100000" y2="148.000000"  transform="rotate(0.000000,681.100000,148.000000)" style="stroke: black; stroke-width:0.25;"/>
<line x1="15.000000" y1="15.000000" x2="15.000000" y2="265.000000"  style="stroke: black; stroke-linecap:round; stroke-width:0.25; stroke-dasharray:3,3;"/>
<line x1="15.000000" y1="265.000000" x2="736.800000" y2="265.000000"  style="stroke: black; stroke-linecap:round; stroke-width:0.25; stroke-dasharray:3,3;"/>
<line x1="736.800000" y1="265.000000" x2="736.800000" y2="15.000000"  style="stroke: black; stroke-linecap:round; stroke-width:0.25; stroke-dasharray:3,3;"/>
<line x1="15.000000" y1="15.000000" x2="20.000000" y2="15.000000"  style="stroke: black; stroke-linecap:round; stroke-width:0.25; stroke-dasharray:3,3;"/>
<line x1="49.025000" y1="15.000000" x2="736.800000" y2="15.000000"  style="stroke: black; stroke-linecap:round; stroke-width:0.25; stroke-dasharray:3,3;"/>
<text x="20.000000" y="17.000000" font-family="Arial" font-size="7">process</text>
<line x1="738.800000" y1="139.000000" x2="741.800000" y2="140.000000"  transform="rotate(0.000000,741.800000,140.000000)" style="stroke: black; stroke-width:0.25;"/>
<line x1="738.800000" y1="141.000000" x2="741.800000" y2="140.000000"  transform="rotate(0.000000,741.800000,140.000000)" style="stroke: black; stroke-width:0.25;"/>
<line x1="95.850000" y1="192.000000" x2="99.850000" y2="192.000000"  style="stroke:black; stroke-linecap:round; stroke-width:0.25;"/>
<line x1="99.850000" y1="192.000000" x2="120.100000" y2="192.000000"  style="stroke:black; stroke-linecap:round; stroke-width:0.25;"/>
<line x1="116.100000" y1="224.000000" x2="120.100000" y2="224.000000"  style="stroke:black; stroke-linecap:round; stroke-width:0.25;"/>
<line x1="116.750000" y1="160.000000" x2="120.750000" y2="160.000000"  style="stroke:black; stroke-linecap:round; stroke-width:0.25;"/>
<line x1="120.100000" y1="192.000000" x2="128.100000" y2="192.000000"  style="stroke:black; stroke-linecap:round; stroke-width:0.25;"/>
<line x1="120.100000" y1="212.000000" x2="128.100000" y2="212.000000"  style="stroke:black; stroke-linecap:round; stroke-width:0.25;"/>
<line x1="120.100000" y1="224.000000" x2="120.100000" y2="212.000000"  style="stroke:black; stroke-linecap:round; stroke-width:0.25;"/>
<line x1="120.100000" y1="224.000000" x2="120.100000" y2="224.000000"  style="stroke:black; stroke-linecap:round; stroke-width:0.25;"/>
<line x1="120.750000" y1="160.000000" x2="160.100000" y2="160.000000"  style="stroke:black; stroke-linecap:round; stroke-width:0.25;"/>
<line x1="128.100000" y1="192.000000" x2="128.100000" y2="204.000000"  style="stroke:black; stroke-linecap:round; stroke-width:0.25;"/>
<line x1="128.100000" y1="204.000000" x2="128.100000" y2="204.000000"  style="stroke:black; stroke-linecap:round; stroke-width:0.25;"/>
<line x1="128.100000" y1="204.000000" x2="132.100000" y2="204.000000"  style="stroke:black; stroke-linecap:round; stroke-width:0.25;"/>
<line x1="128.100000" y1="212.000000" x2="132.100000" y2="212.000000"  style="stroke:black; stroke-linecap:round; stroke-width:0.25;"/>
<line x1="156.100000" y1="208.000000" x2="160.100000" y2="208.000000"  style="stroke:black; stroke-linecap:round; stroke-width:0.25;"/>
<line x1="160.100000" y1="160.000000" x2="168.100000" y2="160.000000"  style="stroke:black; stroke-linecap:round; stroke-width:0.25;"/>
<line x1="160.100000" y1="196.000000" x2="168.100000" y2="196.000000"  style="stroke:black; stroke-linecap:round; stroke-width:0.25;"/>
<line x1="160.100000" y1="208.000000" x2="160.100000" y2="196.000000"  style="stroke:black; stroke-linecap:round; stroke-width:0.25;"/>
<line x1="160.100000" y1="208.000000" x2="160.100000" y2="208.000000"  style="stroke:black; stroke-linecap:round; stroke-width:0.25;"/>
<line x1="168.100000" y1="160.000000" x2="168.100000" y2="188.000000"  style="stroke:black; stroke-linecap:round; stroke-width:0.25;"/>
<line x1="168.100000" y1="188.000000" x2="168.100000" y2="188.000000"  style="stroke:black; stroke-linecap:round; stroke-width:0.25;"/>
<line x1="168.100000" y1="188.000000" x2="172.100000" y2="188.000000"  style="stroke:black; stroke-linecap:round; stroke-width:0.25;"/>
<line x1="168.100000" y1="196.000000" x2="172.100000" y2="196.000000"  style="stroke:black; stroke-linecap:round; stroke-width:0.25;"/>
<line x1="196.100000" y1="192.000000" x2="200.100000" y2="192.000000"  style="stroke:black; stroke-linecap:round; stroke-width:0.25;"/>
<line x1="200.100000" y1="192.000000" x2="210.100000" y2="192.000000"  style="stroke:black; stroke-linecap:round; stroke-width:0.25;"/>
<line x1="210.100000" y1="192.000000" x2="210.100000" y2="192.000000"  style="stroke:black; stroke-linecap:round; stroke-width:0.25;"/>
<line x1="210.100000" y1="192.000000" x2="214.100000" y2="192.000000"  style="stroke:black; stroke-linecap:round; stroke-width:0.25;"/>
<line x1="237.500000" y1="108.000000" x2="241.500000" y2="108.000000"  style="stroke:black; stroke-linecap:round; stroke-width:0.25;"/>
<line x1="239.900000" y1="192.000000" x2="243.900000" y2="192.000000"  style="stroke:black; stroke-linecap:round; stroke-width:0.25;"/>
<line x1="241.500000" y1="108.000000" x2="251.500000" y2="108.000000"  style="stroke:black; stroke-linecap:round; stroke-width:0.25;"/>
<line x1="243.900000" y1="192.000000" x2="251.500000" y2="192.000000"  style="stroke:black; stroke-linecap:round; stroke-width:0.25;"/>
<line x1="251.500000" y1="170.000000" x2="259.500000" y2="170.000000"  style="stroke:black; stroke-linecap:round; stroke-width:0.25;"/>
<line x1="251.500000" y1="192.000000" x2="251.500000" y2="170.000000"  style="stroke:black; stroke-linecap:round; stroke-width:0.25;"/>
<line x1="251.500000" y1="192.000000" x2="251.500000" y2="192.000000"  style="stroke:black; stroke-linecap:round; stroke-width:0.25;"/>
<line x1="251.500000" y1="108.000000" x2="259.500000" y2="108.000000"  style="stroke:black; stroke-linecap:round; stroke-width:0.25;"/>
<line x1="259.500000" y1="108.000000" x2="259.500000" y2="162.000000"  style="stroke:black; stroke-linecap:round; stroke-width:0.25;"/>
<line x1="259.500000" y1="162.000000" x2="259.500000" y2="162.000000"  style="stroke:black; stroke-linecap:round; stroke-width:0.25;"/>
<line x1="259.500000" y1="162.000000" x2="263.500000" y2="162.000000"  style="stroke:black; stroke-linecap:round; stroke-width:0.25;"/>
<line x1="259.500000" y1="170.000000" x2="263.500000" y2="170.000000"  style="stroke:black; stroke-linecap:round; stroke-width:0.25;"/>
<line x1="287.500000" y1="166.000000" x2="291.500000" y2="166.000000"  style="stroke:black; stroke-linecap:round; stroke-width:0.25;"/>
<line x1="291.500000" y1="166.000000" x2="299.500000" y2="166.000000"  style="stroke:black; stroke-linecap:round; stroke-width:0.25;"/>
<line x1="299.500000" y1="166.000000" x2="299.500000" y2="174.000000"  style="stroke:black; stroke-linecap:round; stroke-width:0.25;"/>
<line x1="299.500000" y1="174.000000" x2="299.500000" y2="174.000000"  style="stroke:black; stroke-linecap:round; stroke-width:0.25;"/>
<line x1="299.500000" y1="174.000000" x2="307.500000" y2="174.000000"  style="stroke:black; stroke-linecap:round; stroke-width:0.25;"/>
<line x1="307.500000" y1="124.000000" x2="307.500000" y2="124.000000"  style="stroke:black; stroke-linecap:round; stroke-width:0.25;"/>
<line x1="307.500000" y1="124.000000" x2="307.500000" y2="166.000000"  style="stroke:black; stroke-linecap:round; stroke-width:0.25;"/>
<line x1="307.500000" y1="166.000000" x2="307.500000" y2="166.000000"  style="stroke:black; stroke-linecap:round; stroke-width:0.25;"/>
<line x1="307.500000" y1="166.000000" x2="311.500000" y2="166.000000"  style="stroke:black; stroke-linecap:round; stroke-width:0.25;"/>
<line x1="307.500000" y1="174.000000" x2="311.500000" y2="174.000000"  style="stroke:black; stroke-linecap:round; stroke-width:0.25;"/>
<line x1="335.500000" y1="170.000000" x2="339.500000" y2="170.000000"  style="stroke:black; stroke-linecap:round; stroke-width:0.25;"/>
<line x1="339.500000" y1="170.000000" x2="339.500000" y2="170.000000"  style="stroke:black; stroke-linecap:round; stroke-width:0.25;"/>
<line x1="339.500000" y1="170.000000" x2="349.500000" y2="170.000000"  style="stroke:black; stroke-linecap:round; stroke-width:0.25;"/>
<line x1="349.500000" y1="170.000000" x2="353.500000" y2="170.000000"  style="stroke:black; stroke-linecap:round; stroke-width:0.25;"/>
<line x1="372.800000" y1="42.000000" x2="376.800000" y2="42.000000"  style="stroke:black; stroke-linecap:round; stroke-width:0.25;"/>
<line x1="372.800000" y1="50.000000" x2="376.800000" y2="50.000000"  style="stroke:black; stroke-linecap:round; stroke-width:0.25;"/>
<line x1="376.800000" y1="42.000000" x2="386.800000" y2="42.000000"  style="stroke:black; stroke-linecap:round; stroke-width:0.25;"/>
<line x1="376.800000" y1="50.000000" x2="386.800000" y2="50.000000"  style="stroke:black; stroke-linecap:round; stroke-width:0.25;"/>
<line x1="386.800000" y1="42.000000" x2="661.100000" y2="42.000000"  style="stroke:black; stroke-linecap:round; stroke-width:0.25;"/>
<line x1="386.800000" y1="50.000000" x2="661.100000" y2="50.000000"  style="stroke:black; stroke-linecap:round; stroke-width:0.25;"/>
<line x1="402.400000" y1="124.000000" x2="307.500000" y2="124.000000"  style="stroke:black; stroke-linecap:round; stroke-width:0.25;"/>
<line x1="409.500000" y1="186.000000" x2="413.500000" y2="186.000000"  style="stroke:black; stroke-linecap:round; stroke-width:0.25;"/>
<line x1="413.500000" y1="186.000000" x2="413.500000" y2="186.000000"  style="stroke:black; stroke-linecap:round; stroke-width:0.25;"/>
<line x1="413.500000" y1="186.000000" x2="417.500000" y2="186.000000"  style="stroke:black; stroke-linecap:round; stroke-width:0.25;"/>
<line x1="426.400000" y1="154.000000" x2="430.400000" y2="154.000000"  style="stroke:black; stroke-linecap:round; stroke-width:0.25;"/>
<line x1="430.400000" y1="154.000000" x2="447.300000" y2="154.000000"  style="stroke:black; stroke-linecap:round; stroke-width:0.25;"/>
<line x1="443.300000" y1="186.000000" x2="447.300000" y2="186.000000"  style="stroke:black; stroke-linecap:round; stroke-width:0.25;"/>
<line x1="447.300000" y1="154.000000" x2="455.300000" y2="154.000000"  style="stroke:black; stroke-linecap:round; stroke-width:0.25;"/>
<line x1="447.300000" y1="174.000000" x2="455.300000" y2="174.000000"  style="stroke:black; stroke-linecap:round; stroke-width:0.25;"/>
<line x1="447.300000" y1="186.000000" x2="447.300000" y2="174.000000"  style="stroke:black; stroke-linecap:round; stroke-width:0.25;"/>
<line x1="447.300000" y1="186.000000" x2="447.300000" y2="186.000000"  style="stroke:black; stroke-linecap:round; stroke-width:0.25;"/>
<line x1="455.300000" y1="154.000000" x2="455.300000" y2="166.000000"  style="stroke:black; stroke-linecap:round; stroke-width:0.25;"/>
<line x1="455.300000" y1="166.000000" x2="455.300000" y2="166.000000"  style="stroke:black; stroke-linecap:round; stroke-width:0.25;"/>
<line x1="455.300000" y1="166.000000" x2="459.300000" y2="166.000000"  style="stroke:black; stroke-linecap:round; stroke-width:0.25;"/>
<line x1="455.300000" y1="174.000000" x2="459.300000" y2="174.000000"  style="stroke:black; stroke-linecap:round; stroke-width:0.25;"/>
<line x1="483.300000" y1="170.000000" x2="487.300000" y2="170.000000"  style="stroke:black; stroke-linecap:round; stroke-width:0.25;"/>
<line x1="487.300000" y1="170.000000" x2="497.300000" y2="170.000000"  style="stroke:black; stroke-linecap:round; stroke-width:0.25;"/>
<line x1="497.300000" y1="124.000000" x2="402.400000" y2="124.000000"  style="stroke:black; stroke-linecap:round; stroke-width:0.25;"/>
<line x1="497.300000" y1="124.000000" x2="497.300000" y2="124.000000"  style="stroke:black; stroke-linecap:round; stroke-width:0.25;"/>
<line x1="497.300000" y1="166.000000" x2="497.300000" y2="124.000000"  style="stroke:black; stroke-linecap:round; stroke-width:0.25;"/>
<line x1="497.300000" y1="170.000000" x2="499.300000" y2="170.000000"  style="stroke:black; stroke-linecap:round; stroke-width:0.25;"/>
<line x1="499.300000" y1="170.000000" x2="505.300000" y2="170.000000"  style="stroke:black; stroke-linecap:round; stroke-width:0.25;"/>
<line x1="505.300000" y1="150.000000" x2="513.300000" y2="150.000000"  style="stroke:black; stroke-linecap:round; stroke-width:0.25;"/>
<line x1="505.300000" y1="170.000000" x2="505.300000" y2="150.000000"  style="stroke:black; stroke-linecap:round; stroke-width:0.25;"/>
<line x1="505.300000" y1="170.000000" x2="505.300000" y2="170.000000"  style="stroke:black; stroke-linecap:round; stroke-width:0.25;"/>
<line x1="513.300000" y1="150.000000" x2="546.200000" y2="150.000000"  style="stroke:black; stroke-linecap:round; stroke-width:0.25;"/>
<line x1="541.300000" y1="170.000000" x2="545.300000" y2="170.000000"  style="stroke:black; stroke-linecap:round; stroke-width:0.25;"/>
<line x1="545.300000" y1="170.000000" x2="545.300000" y2="170.000000"  style="stroke:black; stroke-linecap:round; stroke-width:0.25;"/>
<line x1="545.300000" y1="170.000000" x2="549.300000" y2="170.000000"  style="stroke:black; stroke-linecap:round; stroke-width:0.25;"/>
<line x1="546.200000" y1="150.000000" x2="579.100000" y2="150.000000"  style="stroke:black; stroke-linecap:round; stroke-width:0.25;"/>
<line x1="575.100000" y1="170.000000" x2="579.100000" y2="170.000000"  style="stroke:black; stroke-linecap:round; stroke-width:0.25;"/>
<line x1="579.100000" y1="150.000000" x2="587.100000" y2="150.000000"  style="stroke:black; stroke-linecap:round; stroke-width:0.25;"/>
<line x1="579.100000" y1="170.000000" x2="587.100000" y2="170.000000"  style="stroke:black; stroke-linecap:round; stroke-width:0.25;"/>
<line x1="587.100000" y1="150.000000" x2="587.100000" y2="162.000000"  style="stroke:black; stroke-linecap:round; stroke-width:0.25;"/>
<line x1="587.100000" y1="162.000000" x2="587.100000" y2="162.000000"  style="stroke:black; stroke-linecap:round; stroke-width:0.25;"/>
<line x1="587.100000" y1="162.000000" x2="591.100000" y2="162.000000"  style="stroke:black; stroke-linecap:round; stroke-width:0.25;"/>
<line x1="587.100000" y1="170.000000" x2="591.100000" y2="170.000000"  style="stroke:black; stroke-linecap:round; stroke-width:0.25;"/>
<line x1="615.100000" y1="166.000000" x2="619.100000" y2="166.000000"  style="stroke:black; stroke-linecap:round; stroke-width:0.25;"/>
<line x1="619.100000" y1="166.000000" x2="629.100000" y2="166.000000"  style="stroke:black; stroke-linecap:round; stroke-width:0.25;"/>
<line x1="629.100000" y1="166.000000" x2="629.100000" y2="166.000000"  style="stroke:black; stroke-linecap:round; stroke-width:0.25;"/>
<line x1="629.100000" y1="166.000000" x2="633.100000" y2="166.000000"  style="stroke:black; stroke-linecap:round; stroke-width:0.25;"/>
<line x1="657.100000" y1="166.000000" x2="661.100000" y2="166.000000"  style="stroke:black; stroke-linecap:round; stroke-width:0.25;"/>
<line x1="661.100000" y1="42.000000" x2="677.100000" y2="42.000000"  style="stroke:black; stroke-linecap:round; stroke-width:0.25;"/>
<line x1="661.100000" y1="50.000000" x2="669.100000" y2="50.000000"  style="stroke:black; stroke-linecap:round; stroke-width:0.25;"/>
<line x1="661.100000" y1="148.000000" x2="677.100000" y2="148.000000"  style="stroke:black; stroke-linecap:round; stroke-width:0.25;"/>
<line x1="661.100000" y1="166.000000" x2="661.100000" y2="148.000000"  style="stroke:black; stroke-linecap:round; stroke-width:0.25;"/>
<line x1="661.100000" y1="166.000000" x2="661.100000" y2="166.000000"  style="stroke:black; stroke-linecap:round; stroke-width:0.25;"/>
<line x1="669.100000" y1="50.000000" x2="669.100000" y2="140.000000"  style="stroke:black; stroke-linecap:round; stroke-width:0.25;"/>
<line x1="669.100000" y1="140.000000" x2="677.100000" y2="140.000000"  style="stroke:black; stroke-linecap:round; stroke-width:0.25;"/>
<line x1="677.100000" y1="42.000000" x2="677.100000" y2="132.000000"  style="stroke:black; stroke-linecap:round; stroke-width:0.25;"/>
<line x1="677.100000" y1="132.000000" x2="677.100000" y2="132.000000"  style="stroke:black; stroke-linecap:round; stroke-width:0.25;"/>
<line x1="677.100000" y1="132.000000" x2="681.100000" y2="132.000000"  style="stroke:black; stroke-linecap:round; stroke-width:0.25;"/>
<line x1="677.100000" y1="140.000000" x2="681.100000" y2="140.000000"  style="stroke:black; stroke-linecap:round; stroke-width:0.25;"/>
<line x1="677.100000" y1="148.000000" x2="681.100000" y2="148.000000"  style="stroke:black; stroke-linecap:round; stroke-width:0.25;"/>
<line x1="719.800000" y1="140.000000" x2="723.800000" y2="140.000000"  style="stroke:black; stroke-linecap:round; stroke-width:0.25;"/>
<line x1="723.800000" y1="140.000000" x2="723.800000" y2="140.000000"  style="stroke:black; stroke-linecap:round; stroke-width:0.25;"/>
<line x1="723.800000" y1="140.000000" x2="727.800000" y2="140.000000"  style="stroke:black; stroke-linecap:round; stroke-width:0.25;"/>
<line x1="727.800000" y1="140.000000" x2="731.800000" y2="140.000000"  style="stroke:black; stroke-linecap:round; stroke-width:0.25;"/>
<line x1="731.800000" y1="140.000000" x2="741.800000" y2="140.000000"  style="stroke:black; stroke-linecap:round; stroke-width:0.25;"/>
</svg>
