<?xml version="1.0"?>
<svg xmlns="http://www.w3.org/2000/svg" xmlns:xlink="http://www.w3.org/1999/xlink" viewBox="0 0 657.400000 72.000000" width="328.700000mm" height="36.000000mm" version="1.1">
<a xlink:href="controlchanteste-0x7fddc9d0fcc0.svg">
<rect x="1.000000" y="1.000000" width="656.400000" height="71.000000" rx="0" ry="0" style="stroke:none;fill:#cccccc;"/>
<rect x="0.000000" y="0.000000" width="656.400000" height="71.000000" rx="0" ry="0" style="stroke:none;fill:#ffffff;"/>
</a>
<text x="10.000000" y="7.000000" font-family="Arial" font-size="7"></text>
<rect x="25.000000" y="25.000000" width="296.700000" height="24.000000" rx="0" ry="0" style="stroke:none;fill:#cccccc;"/>
<rect x="24.000000" y="24.000000" width="296.700000" height="24.000000" rx="0" ry="0" style="stroke:none;fill:#477881;"/>
<text x="172.350000" y="38.000000" font-family="Arial" font-size="7" text-anchor="middle" fill="#FFFFFF">hslider(Ctrl Value IN (Ctrl 50 Channel 2), 60.0f, 0.0f, 127.0f, 1.0f)</text>
<circle cx="26.000000" cy="26.000000" r="1"/>
<rect x="329.700000" y="25.000000" width="296.700000" height="24.000000" rx="0" ry="0" style="stroke:none;fill:#cccccc;"/>
<rect x="328.700000" y="24.000000" width="296.700000" height="24.000000" rx="0" ry="0" style="stroke:none;fill:#477881;"/>
<text x="477.050000" y="38.000000" font-family="Arial" font-size="7" text-anchor="middle" fill="#FFFFFF">hbargraph(Ctrl Value OUT (Ctrl 74) Channel OUT(Chan 3), 0.0f, 127.0f)</text>
<circle cx="330.700000" cy="26.000000" r="1"/>
<line x1="325.700000" y1="35.000000" x2="328.700000" y2="36.000000"  transform="rotate(0.000000,328.700000,36.000000)" style="stroke: black; stroke-width:0.25;"/>
<line x1="325.700000" y1="37.000000" x2="328.700000" y2="36.000000"  transform="rotate(0.000000,328.700000,36.000000)" style="stroke: black; stroke-width:0.25;"/>
<line x1="15.000000" y1="15.000000" x2="15.000000" y2="57.000000"  style="stroke: black; stroke-linecap:round; stroke-width:0.25; stroke-dasharray:3,3;"/>
<line x1="15.000000" y1="57.000000" x2="642.400000" y2="57.000000"  style="stroke: black; stroke-linecap:round; stroke-width:0.25; stroke-dasharray:3,3;"/>
<line x1="642.400000" y1="57.000000" x2="642.400000" y2="15.000000"  style="stroke: black; stroke-linecap:round; stroke-width:0.25; stroke-dasharray:3,3;"/>
<line x1="15.000000" y1="15.000000" x2="20.000000" y2="15.000000"  style="stroke: black; stroke-linecap:round; stroke-width:0.25; stroke-dasharray:3,3;"/>
<line x1="100.625000" y1="15.000000" x2="642.400000" y2="15.000000"  style="stroke: black; stroke-linecap:round; stroke-width:0.25; stroke-dasharray:3,3;"/>
<text x="20.000000" y="17.000000" font-family="Arial" font-size="7">valuetest(50)(2)(74)(3)</text>
<line x1="644.400000" y1="35.000000" x2="647.400000" y2="36.000000"  transform="rotate(0.000000,647.400000,36.000000)" style="stroke: black; stroke-width:0.25;"/>
<line x1="644.400000" y1="37.000000" x2="647.400000" y2="36.000000"  transform="rotate(0.000000,647.400000,36.000000)" style="stroke: black; stroke-width:0.25;"/>
<line x1="320.700000" y1="36.000000" x2="324.700000" y2="36.000000"  style="stroke:black; stroke-linecap:round; stroke-width:0.25;"/>
<line x1="324.700000" y1="36.000000" x2="324.700000" y2="36.000000"  style="stroke:black; stroke-linecap:round; stroke-width:0.25;"/>
<line x1="324.700000" y1="36.000000" x2="328.700000" y2="36.000000"  style="stroke:black; stroke-linecap:round; stroke-width:0.25;"/>
<line x1="625.400000" y1="36.000000" x2="629.400000" y2="36.000000"  style="stroke:black; stroke-linecap:round; stroke-width:0.25;"/>
<line x1="629.400000" y1="36.000000" x2="629.400000" y2="36.000000"  style="stroke:black; stroke-linecap:round; stroke-width:0.25;"/>
<line x1="629.400000" y1="36.000000" x2="633.400000" y2="36.000000"  style="stroke:black; stroke-linecap:round; stroke-width:0.25;"/>
<line x1="633.400000" y1="36.000000" x2="637.400000" y2="36.000000"  style="stroke:black; stroke-linecap:round; stroke-width:0.25;"/>
<line x1="637.400000" y1="36.000000" x2="647.400000" y2="36.000000"  style="stroke:black; stroke-linecap:round; stroke-width:0.25;"/>
</svg>
