<?xml version="1.0"?>
<svg xmlns="http://www.w3.org/2000/svg" xmlns:xlink="http://www.w3.org/1999/xlink" viewBox="0 0 618.700000 72.000000" width="309.350000mm" height="36.000000mm" version="1.1">
<a xlink:href="pitchwheelchante-0x7fddcc034b30.svg">
<rect x="1.000000" y="1.000000" width="617.700000" height="71.000000" rx="0" ry="0" style="stroke:none;fill:#cccccc;"/>
<rect x="0.000000" y="0.000000" width="617.700000" height="71.000000" rx="0" ry="0" style="stroke:none;fill:#ffffff;"/>
</a>
<text x="10.000000" y="7.000000" font-family="Arial" font-size="7"></text>
<rect x="25.000000" y="25.000000" width="296.700000" height="24.000000" rx="0" ry="0" style="stroke:none;fill:#cccccc;"/>
<rect x="24.000000" y="24.000000" width="296.700000" height="24.000000" rx="0" ry="0" style="stroke:none;fill:#477881;"/>
<text x="172.350000" y="38.000000" font-family="Arial" font-size="7" text-anchor="middle" fill="#FFFFFF">hslider(Pitchwheel Value IN (Chan 2), 0.0f, -8192.0f, 8191.0f, 1.0f)</text>
<circle cx="26.000000" cy="26.000000" r="1"/>
<rect x="329.700000" y="25.000000" width="258.000000" height="24.000000" rx="0" ry="0" style="stroke:none;fill:#cccccc;"/>
<rect x="328.700000" y="24.000000" width="258.000000" height="24.000000" rx="0" ry="0" style="stroke:none;fill:#477881;"/>
<text x="457.700000" y="38.000000" font-family="Arial" font-size="7" text-anchor="middle" fill="#FFFFFF">hbargraph(Pitchwheel Value OUT (Chan 15), -8192.0f, 8191.0f)</text>
<circle cx="330.700000" cy="26.000000" r="1"/>
<line x1="325.700000" y1="35.000000" x2="328.700000" y2="36.000000"  transform="rotate(0.000000,328.700000,36.000000)" style="stroke: black; stroke-width:0.25;"/>
<line x1="325.700000" y1="37.000000" x2="328.700000" y2="36.000000"  transform="rotate(0.000000,328.700000,36.000000)" style="stroke: black; stroke-width:0.25;"/>
<line x1="15.000000" y1="15.000000" x2="15.000000" y2="57.000000"  style="stroke: black; stroke-linecap:round; stroke-width:0.25; stroke-dasharray:3,3;"/>
<line x1="15.000000" y1="57.000000" x2="603.700000" y2="57.000000"  style="stroke: black; stroke-linecap:round; stroke-width:0.25; stroke-dasharray:3,3;"/>
<line x1="603.700000" y1="57.000000" x2="603.700000" y2="15.000000"  style="stroke: black; stroke-linecap:round; stroke-width:0.25; stroke-dasharray:3,3;"/>
<line x1="15.000000" y1="15.000000" x2="20.000000" y2="15.000000"  style="stroke: black; stroke-linecap:round; stroke-width:0.25; stroke-dasharray:3,3;"/>
<line x1="78.050000" y1="15.000000" x2="603.700000" y2="15.000000"  style="stroke: black; stroke-linecap:round; stroke-width:0.25; stroke-dasharray:3,3;"/>
<text x="20.000000" y="17.000000" font-family="Arial" font-size="7">valuetest(2)(15)</text>
<line x1="605.700000" y1="35.000000" x2="608.700000" y2="36.000000"  transform="rotate(0.000000,608.700000,36.000000)" style="stroke: black; stroke-width:0.25;"/>
<line x1="605.700000" y1="37.000000" x2="608.700000" y2="36.000000"  transform="rotate(0.000000,608.700000,36.000000)" style="stroke: black; stroke-width:0.25;"/>
<line x1="320.700000" y1="36.000000" x2="324.700000" y2="36.000000"  style="stroke:black; stroke-linecap:round; stroke-width:0.25;"/>
<line x1="324.700000" y1="36.000000" x2="324.700000" y2="36.000000"  style="stroke:black; stroke-linecap:round; stroke-width:0.25;"/>
<line x1="324.700000" y1="36.000000" x2="328.700000" y2="36.000000"  style="stroke:black; stroke-linecap:round; stroke-width:0.25;"/>
<line x1="586.700000" y1="36.000000" x2="590.700000" y2="36.000000"  style="stroke:black; stroke-linecap:round; stroke-width:0.25;"/>
<line x1="590.700000" y1="36.000000" x2="590.700000" y2="36.000000"  style="stroke:black; stroke-linecap:round; stroke-width:0.25;"/>
<line x1="590.700000" y1="36.000000" x2="594.700000" y2="36.000000"  style="stroke:black; stroke-linecap:round; stroke-width:0.25;"/>
<line x1="594.700000" y1="36.000000" x2="598.700000" y2="36.000000"  style="stroke:black; stroke-linecap:round; stroke-width:0.25;"/>
<line x1="598.700000" y1="36.000000" x2="608.700000" y2="36.000000"  style="stroke:black; stroke-linecap:round; stroke-width:0.25;"/>
</svg>
