<?xml version="1.0"?>
<svg xmlns="http://www.w3.org/2000/svg" xmlns:xlink="http://www.w3.org/1999/xlink" viewBox="0 0 765.100000 544.000000" width="382.550000mm" height="272.000000mm" version="1.1">
<rect x="1.000000" y="1.000000" width="764.100000" height="543.000000" rx="0" ry="0" style="stroke:none;fill:#cccccc;"/>
<rect x="0.000000" y="0.000000" width="764.100000" height="543.000000" rx="0" ry="0" style="stroke:none;fill:#ffffff;"/>
<text x="10.000000" y="7.000000" font-family="Arial" font-size="7"></text>
<rect x="371.550000" y="467.000000" width="24.000000" height="24.000000" rx="0" ry="0" style="stroke:none;fill:#cccccc;"/>
<rect x="370.550000" y="466.000000" width="24.000000" height="24.000000" rx="0" ry="0" style="stroke:none;fill:#4B71A1;"/>
<text x="382.550000" y="480.000000" font-family="Arial" font-size="7" text-anchor="middle" fill="#FFFFFF">+</text>
<circle cx="372.550000" cy="468.000000" r="1"/>
<line x1="367.550000" y1="473.000000" x2="370.550000" y2="474.000000"  transform="rotate(0.000000,370.550000,474.000000)" style="stroke: black; stroke-width:0.25;"/>
<line x1="367.550000" y1="475.000000" x2="370.550000" y2="474.000000"  transform="rotate(0.000000,370.550000,474.000000)" style="stroke: black; stroke-width:0.25;"/>
<line x1="367.550000" y1="481.000000" x2="370.550000" y2="482.000000"  transform="rotate(0.000000,370.550000,482.000000)" style="stroke: black; stroke-width:0.25;"/>
<line x1="367.550000" y1="483.000000" x2="370.550000" y2="482.000000"  transform="rotate(0.000000,370.550000,482.000000)" style="stroke: black; stroke-width:0.25;"/>
<rect x="652.300000" y="277.000000" width="25.800000" height="24.000000" rx="0" ry="0" style="stroke:none;fill:#cccccc;"/>
<rect x="651.300000" y="276.000000" width="25.800000" height="24.000000" rx="0" ry="0" style="stroke:none;fill:#47945E;"/>
<text x="664.200000" y="290.000000" font-family="Arial" font-size="7" text-anchor="middle" fill="#FFFFFF">[1] x</text>
<circle cx="675.100000" cy="298.000000" r="1"/>
<line x1="680.100000" y1="287.000000" x2="677.100000" y2="288.000000"  transform="rotate(0.000000,677.100000,288.000000)" style="stroke: black; stroke-width:0.25;"/>
<line x1="680.100000" y1="289.000000" x2="677.100000" y2="288.000000"  transform="rotate(0.000000,677.100000,288.000000)" style="stroke: black; stroke-width:0.25;"/>
<rect x="393.750000" y="425.000000" width="25.800000" height="24.000000" rx="0" ry="0" style="stroke:none;fill:#cccccc;"/>
<rect x="392.750000" y="424.000000" width="25.800000" height="24.000000" rx="0" ry="0" style="stroke:none;fill:#47945E;"/>
<text x="405.650000" y="438.000000" font-family="Arial" font-size="7" text-anchor="middle" fill="#FFFFFF">[1] x</text>
<circle cx="416.550000" cy="446.000000" r="1"/>
<rect x="421.100000" y="393.000000" width="25.800000" height="24.000000" rx="0" ry="0" style="stroke:none;fill:#cccccc;"/>
<rect x="420.100000" y="392.000000" width="25.800000" height="24.000000" rx="0" ry="0" style="stroke:none;fill:#f44800;"/>
<text x="433.000000" y="406.000000" font-family="Arial" font-size="7" text-anchor="middle" fill="#FFFFFF">65536</text>
<circle cx="443.900000" cy="414.000000" r="1"/>
<rect x="449.350000" y="361.000000" width="24.000000" height="24.000000" rx="0" ry="0" style="stroke:none;fill:#cccccc;"/>
<rect x="448.350000" y="360.000000" width="24.000000" height="24.000000" rx="0" ry="0" style="stroke:none;fill:#f44800;"/>
<text x="460.350000" y="374.000000" font-family="Arial" font-size="7" text-anchor="middle" fill="#FFFFFF">0</text>
<circle cx="470.350000" cy="382.000000" r="1"/>
<rect x="414.150000" y="329.000000" width="206.400000" height="24.000000" rx="0" ry="0" style="stroke:none;fill:#cccccc;"/>
<rect x="413.150000" y="328.000000" width="206.400000" height="24.000000" rx="0" ry="0" style="stroke:none;fill:#477881;"/>
<text x="516.350000" y="342.000000" font-family="Arial" font-size="7" text-anchor="middle" fill="#FFFFFF">hslider(millisecond, 0.0f, 0.0f, 1e+03f, 0.1f)</text>
<circle cx="617.550000" cy="350.000000" r="1"/>
<rect x="545.350000" y="277.000000" width="38.700000" height="24.000000" rx="0" ry="0" style="stroke:none;fill:#cccccc;"/>
<rect x="544.350000" y="276.000000" width="38.700000" height="24.000000" rx="0" ry="0" style="stroke:none;fill:#f44800;"/>
<text x="563.700000" y="290.000000" font-family="Arial" font-size="7" text-anchor="middle" fill="#FFFFFF">1.92e+05f</text>
<circle cx="581.050000" cy="298.000000" r="1"/>
<rect x="579.150000" y="245.000000" width="25.800000" height="24.000000" rx="0" ry="0" style="stroke:none;fill:#cccccc;"/>
<rect x="578.150000" y="244.000000" width="25.800000" height="24.000000" rx="0" ry="0" style="stroke:none;fill:#f44800;"/>
<text x="591.050000" y="258.000000" font-family="Arial" font-size="7" text-anchor="middle" fill="#FFFFFF">1.0f</text>
<circle cx="601.950000" cy="266.000000" r="1"/>
<rect x="559.800000" y="213.000000" width="64.500000" height="24.000000" rx="0" ry="0" style="stroke:none;fill:#cccccc;"/>
<rect x="558.800000" y="212.000000" width="64.500000" height="24.000000" rx="0" ry="0" style="stroke:none;fill:#4B71A1;"/>
<text x="591.050000" y="226.000000" font-family="Arial" font-size="7" text-anchor="middle" fill="#FFFFFF">fSamplingFreq</text>
<circle cx="621.300000" cy="234.000000" r="1"/>
<rect x="505.100000" y="229.000000" width="38.700000" height="24.000000" rx="0" ry="0" style="stroke:none;fill:#cccccc;"/>
<rect x="504.100000" y="228.000000" width="38.700000" height="24.000000" rx="0" ry="0" style="stroke:none;fill:#4B71A1;"/>
<text x="523.450000" y="242.000000" font-family="Arial" font-size="7" text-anchor="middle" fill="#FFFFFF">std::max</text>
<circle cx="540.800000" cy="250.000000" r="1"/>
<line x1="545.800000" y1="243.000000" x2="542.800000" y2="244.000000"  transform="rotate(0.000000,542.800000,244.000000)" style="stroke: black; stroke-width:0.25;"/>
<line x1="545.800000" y1="245.000000" x2="542.800000" y2="244.000000"  transform="rotate(0.000000,542.800000,244.000000)" style="stroke: black; stroke-width:0.25;"/>
<line x1="545.800000" y1="235.000000" x2="542.800000" y2="236.000000"  transform="rotate(0.000000,542.800000,236.000000)" style="stroke: black; stroke-width:0.25;"/>
<line x1="545.800000" y1="237.000000" x2="542.800000" y2="236.000000"  transform="rotate(0.000000,542.800000,236.000000)" style="stroke: black; stroke-width:0.25;"/>
<rect x="450.400000" y="245.000000" width="38.700000" height="24.000000" rx="0" ry="0" style="stroke:none;fill:#cccccc;"/>
<rect x="449.400000" y="244.000000" width="38.700000" height="24.000000" rx="0" ry="0" style="stroke:none;fill:#4B71A1;"/>
<text x="468.750000" y="258.000000" font-family="Arial" font-size="7" text-anchor="middle" fill="#FFFFFF">std::min</text>
<circle cx="486.100000" cy="266.000000" r="1"/>
<line x1="491.100000" y1="259.000000" x2="488.100000" y2="260.000000"  transform="rotate(0.000000,488.100000,260.000000)" style="stroke: black; stroke-width:0.25;"/>
<line x1="491.100000" y1="261.000000" x2="488.100000" y2="260.000000"  transform="rotate(0.000000,488.100000,260.000000)" style="stroke: black; stroke-width:0.25;"/>
<line x1="491.100000" y1="251.000000" x2="488.100000" y2="252.000000"  transform="rotate(0.000000,488.100000,252.000000)" style="stroke: black; stroke-width:0.25;"/>
<line x1="491.100000" y1="253.000000" x2="488.100000" y2="252.000000"  transform="rotate(0.000000,488.100000,252.000000)" style="stroke: black; stroke-width:0.25;"/>
<line x1="440.400000" y1="203.000000" x2="440.400000" y2="309.000000"  style="stroke: black; stroke-linecap:round; stroke-width:0.25; stroke-dasharray:3,3;"/>
<line x1="440.400000" y1="309.000000" x2="632.300000" y2="309.000000"  style="stroke: black; stroke-linecap:round; stroke-width:0.25; stroke-dasharray:3,3;"/>
<line x1="632.300000" y1="309.000000" x2="632.300000" y2="203.000000"  style="stroke: black; stroke-linecap:round; stroke-width:0.25; stroke-dasharray:3,3;"/>
<line x1="440.400000" y1="203.000000" x2="445.400000" y2="203.000000"  style="stroke: black; stroke-linecap:round; stroke-width:0.25; stroke-dasharray:3,3;"/>
<line x1="458.300000" y1="203.000000" x2="632.300000" y2="203.000000"  style="stroke: black; stroke-linecap:round; stroke-width:0.25; stroke-dasharray:3,3;"/>
<text x="445.400000" y="205.000000" font-family="Arial" font-size="7">SR</text>
<rect x="524.450000" y="171.000000" width="25.800000" height="24.000000" rx="0" ry="0" style="stroke:none;fill:#cccccc;"/>
<rect x="523.450000" y="170.000000" width="25.800000" height="24.000000" rx="0" ry="0" style="stroke:none;fill:#f44800;"/>
<text x="536.350000" y="184.000000" font-family="Arial" font-size="7" text-anchor="middle" fill="#FFFFFF">1e+03f</text>
<circle cx="547.250000" cy="192.000000" r="1"/>
<rect x="400.400000" y="229.000000" width="24.000000" height="24.000000" rx="0" ry="0" style="stroke:none;fill:#cccccc;"/>
<rect x="399.400000" y="228.000000" width="24.000000" height="24.000000" rx="0" ry="0" style="stroke:none;fill:#4B71A1;"/>
<text x="411.400000" y="242.000000" font-family="Arial" font-size="7" text-anchor="middle" fill="#FFFFFF">/</text>
<circle cx="421.400000" cy="250.000000" r="1"/>
<line x1="426.400000" y1="243.000000" x2="423.400000" y2="244.000000"  transform="rotate(0.000000,423.400000,244.000000)" style="stroke: black; stroke-width:0.25;"/>
<line x1="426.400000" y1="245.000000" x2="423.400000" y2="244.000000"  transform="rotate(0.000000,423.400000,244.000000)" style="stroke: black; stroke-width:0.25;"/>
<line x1="426.400000" y1="235.000000" x2="423.400000" y2="236.000000"  transform="rotate(0.000000,423.400000,236.000000)" style="stroke: black; stroke-width:0.25;"/>
<line x1="426.400000" y1="237.000000" x2="423.400000" y2="236.000000"  transform="rotate(0.000000,423.400000,236.000000)" style="stroke: black; stroke-width:0.25;"/>
<line x1="390.400000" y1="161.000000" x2="390.400000" y2="319.000000"  style="stroke: black; stroke-linecap:round; stroke-width:0.25; stroke-dasharray:3,3;"/>
<line x1="390.400000" y1="319.000000" x2="642.300000" y2="319.000000"  style="stroke: black; stroke-linecap:round; stroke-width:0.25; stroke-dasharray:3,3;"/>
<line x1="642.300000" y1="319.000000" x2="642.300000" y2="161.000000"  style="stroke: black; stroke-linecap:round; stroke-width:0.25; stroke-dasharray:3,3;"/>
<line x1="390.400000" y1="161.000000" x2="395.400000" y2="161.000000"  style="stroke: black; stroke-linecap:round; stroke-width:0.25; stroke-dasharray:3,3;"/>
<line x1="427.650000" y1="161.000000" x2="642.300000" y2="161.000000"  style="stroke: black; stroke-linecap:round; stroke-width:0.25; stroke-dasharray:3,3;"/>
<text x="395.400000" y="163.000000" font-family="Arial" font-size="7">millisec</text>
<rect x="350.400000" y="245.000000" width="24.000000" height="24.000000" rx="0" ry="0" style="stroke:none;fill:#cccccc;"/>
<rect x="349.400000" y="244.000000" width="24.000000" height="24.000000" rx="0" ry="0" style="stroke:none;fill:#4B71A1;"/>
<text x="361.400000" y="258.000000" font-family="Arial" font-size="7" text-anchor="middle" fill="#FFFFFF">*</text>
<circle cx="371.400000" cy="266.000000" r="1"/>
<line x1="376.400000" y1="259.000000" x2="373.400000" y2="260.000000"  transform="rotate(0.000000,373.400000,260.000000)" style="stroke: black; stroke-width:0.25;"/>
<line x1="376.400000" y1="261.000000" x2="373.400000" y2="260.000000"  transform="rotate(0.000000,373.400000,260.000000)" style="stroke: black; stroke-width:0.25;"/>
<line x1="376.400000" y1="251.000000" x2="373.400000" y2="252.000000"  transform="rotate(0.000000,373.400000,252.000000)" style="stroke: black; stroke-width:0.25;"/>
<line x1="376.400000" y1="253.000000" x2="373.400000" y2="252.000000"  transform="rotate(0.000000,373.400000,252.000000)" style="stroke: black; stroke-width:0.25;"/>
<rect x="318.400000" y="245.000000" width="24.000000" height="24.000000" rx="0" ry="0" style="stroke:none;fill:#cccccc;"/>
<rect x="317.400000" y="244.000000" width="24.000000" height="24.000000" rx="0" ry="0" style="stroke:none;fill:#4B71A1;"/>
<text x="329.400000" y="258.000000" font-family="Arial" font-size="7" text-anchor="middle" fill="#FFFFFF">int</text>
<circle cx="339.400000" cy="266.000000" r="1"/>
<line x1="344.400000" y1="255.000000" x2="341.400000" y2="256.000000"  transform="rotate(0.000000,341.400000,256.000000)" style="stroke: black; stroke-width:0.25;"/>
<line x1="344.400000" y1="257.000000" x2="341.400000" y2="256.000000"  transform="rotate(0.000000,341.400000,256.000000)" style="stroke: black; stroke-width:0.25;"/>
<rect x="469.350000" y="129.000000" width="24.000000" height="24.000000" rx="0" ry="0" style="stroke:none;fill:#cccccc;"/>
<rect x="468.350000" y="128.000000" width="24.000000" height="24.000000" rx="0" ry="0" style="stroke:none;fill:#f44800;"/>
<text x="480.350000" y="142.000000" font-family="Arial" font-size="7" text-anchor="middle" fill="#FFFFFF">1</text>
<circle cx="490.350000" cy="150.000000" r="1"/>
<rect x="278.400000" y="229.000000" width="24.000000" height="24.000000" rx="0" ry="0" style="stroke:none;fill:#cccccc;"/>
<rect x="277.400000" y="228.000000" width="24.000000" height="24.000000" rx="0" ry="0" style="stroke:none;fill:#4B71A1;"/>
<text x="289.400000" y="242.000000" font-family="Arial" font-size="7" text-anchor="middle" fill="#FFFFFF">-</text>
<circle cx="299.400000" cy="250.000000" r="1"/>
<line x1="304.400000" y1="243.000000" x2="301.400000" y2="244.000000"  transform="rotate(0.000000,301.400000,244.000000)" style="stroke: black; stroke-width:0.25;"/>
<line x1="304.400000" y1="245.000000" x2="301.400000" y2="244.000000"  transform="rotate(0.000000,301.400000,244.000000)" style="stroke: black; stroke-width:0.25;"/>
<line x1="304.400000" y1="235.000000" x2="301.400000" y2="236.000000"  transform="rotate(0.000000,301.400000,236.000000)" style="stroke: black; stroke-width:0.25;"/>
<line x1="304.400000" y1="237.000000" x2="301.400000" y2="236.000000"  transform="rotate(0.000000,301.400000,236.000000)" style="stroke: black; stroke-width:0.25;"/>
<rect x="223.700000" y="245.000000" width="38.700000" height="24.000000" rx="0" ry="0" style="stroke:none;fill:#cccccc;"/>
<rect x="222.700000" y="244.000000" width="38.700000" height="24.000000" rx="0" ry="0" style="stroke:none;fill:#4B71A1;"/>
<text x="242.050000" y="258.000000" font-family="Arial" font-size="7" text-anchor="middle" fill="#FFFFFF">std::max</text>
<circle cx="259.400000" cy="266.000000" r="1"/>
<line x1="264.400000" y1="259.000000" x2="261.400000" y2="260.000000"  transform="rotate(0.000000,261.400000,260.000000)" style="stroke: black; stroke-width:0.25;"/>
<line x1="264.400000" y1="261.000000" x2="261.400000" y2="260.000000"  transform="rotate(0.000000,261.400000,260.000000)" style="stroke: black; stroke-width:0.25;"/>
<line x1="264.400000" y1="251.000000" x2="261.400000" y2="252.000000"  transform="rotate(0.000000,261.400000,252.000000)" style="stroke: black; stroke-width:0.25;"/>
<line x1="264.400000" y1="253.000000" x2="261.400000" y2="252.000000"  transform="rotate(0.000000,261.400000,252.000000)" style="stroke: black; stroke-width:0.25;"/>
<rect x="169.000000" y="261.000000" width="38.700000" height="24.000000" rx="0" ry="0" style="stroke:none;fill:#cccccc;"/>
<rect x="168.000000" y="260.000000" width="38.700000" height="24.000000" rx="0" ry="0" style="stroke:none;fill:#4B71A1;"/>
<text x="187.350000" y="274.000000" font-family="Arial" font-size="7" text-anchor="middle" fill="#FFFFFF">std::min</text>
<circle cx="204.700000" cy="282.000000" r="1"/>
<line x1="209.700000" y1="275.000000" x2="206.700000" y2="276.000000"  transform="rotate(0.000000,206.700000,276.000000)" style="stroke: black; stroke-width:0.25;"/>
<line x1="209.700000" y1="277.000000" x2="206.700000" y2="276.000000"  transform="rotate(0.000000,206.700000,276.000000)" style="stroke: black; stroke-width:0.25;"/>
<line x1="209.700000" y1="267.000000" x2="206.700000" y2="268.000000"  transform="rotate(0.000000,206.700000,268.000000)" style="stroke: black; stroke-width:0.25;"/>
<line x1="209.700000" y1="269.000000" x2="206.700000" y2="268.000000"  transform="rotate(0.000000,206.700000,268.000000)" style="stroke: black; stroke-width:0.25;"/>
<rect x="129.000000" y="277.000000" width="24.000000" height="24.000000" rx="0" ry="0" style="stroke:none;fill:#cccccc;"/>
<rect x="128.000000" y="276.000000" width="24.000000" height="24.000000" rx="0" ry="0" style="stroke:none;fill:#4B71A1;"/>
<text x="140.000000" y="290.000000" font-family="Arial" font-size="7" text-anchor="middle" fill="#FFFFFF">@</text>
<circle cx="150.000000" cy="298.000000" r="1"/>
<line x1="155.000000" y1="291.000000" x2="152.000000" y2="292.000000"  transform="rotate(0.000000,152.000000,292.000000)" style="stroke: black; stroke-width:0.25;"/>
<line x1="155.000000" y1="293.000000" x2="152.000000" y2="292.000000"  transform="rotate(0.000000,152.000000,292.000000)" style="stroke: black; stroke-width:0.25;"/>
<line x1="155.000000" y1="283.000000" x2="152.000000" y2="284.000000"  transform="rotate(0.000000,152.000000,284.000000)" style="stroke: black; stroke-width:0.25;"/>
<line x1="155.000000" y1="285.000000" x2="152.000000" y2="284.000000"  transform="rotate(0.000000,152.000000,284.000000)" style="stroke: black; stroke-width:0.25;"/>
<line x1="119.000000" y1="119.000000" x2="119.000000" y2="457.000000"  style="stroke: black; stroke-linecap:round; stroke-width:0.25; stroke-dasharray:3,3;"/>
<line x1="119.000000" y1="457.000000" x2="686.100000" y2="457.000000"  style="stroke: black; stroke-linecap:round; stroke-width:0.25; stroke-dasharray:3,3;"/>
<line x1="686.100000" y1="457.000000" x2="686.100000" y2="119.000000"  style="stroke: black; stroke-linecap:round; stroke-width:0.25; stroke-dasharray:3,3;"/>
<line x1="119.000000" y1="119.000000" x2="124.000000" y2="119.000000"  style="stroke: black; stroke-linecap:round; stroke-width:0.25; stroke-dasharray:3,3;"/>
<line x1="223.975000" y1="119.000000" x2="686.100000" y2="119.000000"  style="stroke: black; stroke-linecap:round; stroke-width:0.25; stroke-dasharray:3,3;"/>
<text x="124.000000" y="121.000000" font-family="Arial" font-size="7">delay(65536)(...: int),1 : -)</text>
<rect x="326.800000" y="87.000000" width="193.500000" height="24.000000" rx="0" ry="0" style="stroke:none;fill:#cccccc;"/>
<rect x="325.800000" y="86.000000" width="193.500000" height="24.000000" rx="0" ry="0" style="stroke:none;fill:#477881;"/>
<text x="422.550000" y="100.000000" font-family="Arial" font-size="7" text-anchor="middle" fill="#FFFFFF">hslider(feedback, 0.0f, 0.0f, 1e+02f, 0.1f)</text>
<circle cx="517.300000" cy="108.000000" r="1"/>
<rect x="410.650000" y="55.000000" width="25.800000" height="24.000000" rx="0" ry="0" style="stroke:none;fill:#cccccc;"/>
<rect x="409.650000" y="54.000000" width="25.800000" height="24.000000" rx="0" ry="0" style="stroke:none;fill:#f44800;"/>
<text x="422.550000" y="68.000000" font-family="Arial" font-size="7" text-anchor="middle" fill="#FFFFFF">1e+02f</text>
<circle cx="433.450000" cy="76.000000" r="1"/>
<rect x="286.800000" y="71.000000" width="24.000000" height="24.000000" rx="0" ry="0" style="stroke:none;fill:#cccccc;"/>
<rect x="285.800000" y="70.000000" width="24.000000" height="24.000000" rx="0" ry="0" style="stroke:none;fill:#4B71A1;"/>
<text x="297.800000" y="84.000000" font-family="Arial" font-size="7" text-anchor="middle" fill="#FFFFFF">/</text>
<circle cx="307.800000" cy="92.000000" r="1"/>
<line x1="312.800000" y1="85.000000" x2="309.800000" y2="86.000000"  transform="rotate(0.000000,309.800000,86.000000)" style="stroke: black; stroke-width:0.25;"/>
<line x1="312.800000" y1="87.000000" x2="309.800000" y2="86.000000"  transform="rotate(0.000000,309.800000,86.000000)" style="stroke: black; stroke-width:0.25;"/>
<line x1="312.800000" y1="77.000000" x2="309.800000" y2="78.000000"  transform="rotate(0.000000,309.800000,78.000000)" style="stroke: black; stroke-width:0.25;"/>
<line x1="312.800000" y1="79.000000" x2="309.800000" y2="78.000000"  transform="rotate(0.000000,309.800000,78.000000)" style="stroke: black; stroke-width:0.25;"/>
<rect x="79.000000" y="245.000000" width="24.000000" height="24.000000" rx="0" ry="0" style="stroke:none;fill:#cccccc;"/>
<rect x="78.000000" y="244.000000" width="24.000000" height="24.000000" rx="0" ry="0" style="stroke:none;fill:#4B71A1;"/>
<text x="90.000000" y="258.000000" font-family="Arial" font-size="7" text-anchor="middle" fill="#FFFFFF">*</text>
<circle cx="100.000000" cy="266.000000" r="1"/>
<line x1="105.000000" y1="259.000000" x2="102.000000" y2="260.000000"  transform="rotate(0.000000,102.000000,260.000000)" style="stroke: black; stroke-width:0.25;"/>
<line x1="105.000000" y1="261.000000" x2="102.000000" y2="260.000000"  transform="rotate(0.000000,102.000000,260.000000)" style="stroke: black; stroke-width:0.25;"/>
<line x1="105.000000" y1="251.000000" x2="102.000000" y2="252.000000"  transform="rotate(0.000000,102.000000,252.000000)" style="stroke: black; stroke-width:0.25;"/>
<line x1="105.000000" y1="253.000000" x2="102.000000" y2="252.000000"  transform="rotate(0.000000,102.000000,252.000000)" style="stroke: black; stroke-width:0.25;"/>
<line x1="689.100000" y1="478.000000" x2="689.100000" y2="474.000000"  style="stroke:black; stroke-linecap:round; stroke-width:0.25;"/>
<line x1="689.100000" y1="474.000000" x2="693.100000" y2="474.000000"  style="stroke:black; stroke-linecap:round; stroke-width:0.25;"/>
<line x1="693.100000" y1="474.000000" x2="693.100000" y2="478.000000"  style="stroke:black; stroke-linecap:round; stroke-width:0.25;"/>
<line x1="61.000000" y1="45.000000" x2="61.000000" y2="499.000000"  style="stroke: black; stroke-linecap:round; stroke-width:0.25; stroke-dasharray:3,3;"/>
<line x1="61.000000" y1="499.000000" x2="704.100000" y2="499.000000"  style="stroke: black; stroke-linecap:round; stroke-width:0.25; stroke-dasharray:3,3;"/>
<line x1="704.100000" y1="499.000000" x2="704.100000" y2="45.000000"  style="stroke: black; stroke-linecap:round; stroke-width:0.25; stroke-dasharray:3,3;"/>
<line x1="61.000000" y1="45.000000" x2="66.000000" y2="45.000000"  style="stroke: black; stroke-linecap:round; stroke-width:0.25; stroke-dasharray:3,3;"/>
<line x1="127.275000" y1="45.000000" x2="704.100000" y2="45.000000"  style="stroke: black; stroke-linecap:round; stroke-width:0.25; stroke-dasharray:3,3;"/>
<text x="66.000000" y="47.000000" font-family="Arial" font-size="7">vgroup(echo 1000)</text>
<line x1="51.000000" y1="35.000000" x2="51.000000" y2="509.000000"  style="stroke: black; stroke-linecap:round; stroke-width:0.25; stroke-dasharray:3,3;"/>
<line x1="51.000000" y1="509.000000" x2="714.100000" y2="509.000000"  style="stroke: black; stroke-linecap:round; stroke-width:0.25; stroke-dasharray:3,3;"/>
<line x1="714.100000" y1="509.000000" x2="714.100000" y2="35.000000"  style="stroke: black; stroke-linecap:round; stroke-width:0.25; stroke-dasharray:3,3;"/>
<line x1="51.000000" y1="35.000000" x2="56.000000" y2="35.000000"  style="stroke: black; stroke-linecap:round; stroke-width:0.25; stroke-dasharray:3,3;"/>
<line x1="81.800000" y1="35.000000" x2="714.100000" y2="35.000000"  style="stroke: black; stroke-linecap:round; stroke-width:0.25; stroke-dasharray:3,3;"/>
<text x="56.000000" y="37.000000" font-family="Arial" font-size="7">echo1s</text>
<line x1="41.000000" y1="25.000000" x2="41.000000" y2="519.000000"  style="stroke: black; stroke-linecap:round; stroke-width:0.25; stroke-dasharray:3,3;"/>
<line x1="41.000000" y1="519.000000" x2="724.100000" y2="519.000000"  style="stroke: black; stroke-linecap:round; stroke-width:0.25; stroke-dasharray:3,3;"/>
<line x1="724.100000" y1="519.000000" x2="724.100000" y2="25.000000"  style="stroke: black; stroke-linecap:round; stroke-width:0.25; stroke-dasharray:3,3;"/>
<line x1="41.000000" y1="25.000000" x2="46.000000" y2="25.000000"  style="stroke: black; stroke-linecap:round; stroke-width:0.25; stroke-dasharray:3,3;"/>
<line x1="113.725000" y1="25.000000" x2="724.100000" y2="25.000000"  style="stroke: black; stroke-linecap:round; stroke-width:0.25; stroke-dasharray:3,3;"/>
<text x="46.000000" y="27.000000" font-family="Arial" font-size="7">vgroup(echo-simple)</text>
<line x1="15.000000" y1="15.000000" x2="15.000000" y2="529.000000"  style="stroke: black; stroke-linecap:round; stroke-width:0.25; stroke-dasharray:3,3;"/>
<line x1="15.000000" y1="529.000000" x2="750.100000" y2="529.000000"  style="stroke: black; stroke-linecap:round; stroke-width:0.25; stroke-dasharray:3,3;"/>
<line x1="750.100000" y1="529.000000" x2="750.100000" y2="15.000000"  style="stroke: black; stroke-linecap:round; stroke-width:0.25; stroke-dasharray:3,3;"/>
<line x1="15.000000" y1="15.000000" x2="20.000000" y2="15.000000"  style="stroke: black; stroke-linecap:round; stroke-width:0.25; stroke-dasharray:3,3;"/>
<line x1="49.025000" y1="15.000000" x2="750.100000" y2="15.000000"  style="stroke: black; stroke-linecap:round; stroke-width:0.25; stroke-dasharray:3,3;"/>
<text x="20.000000" y="17.000000" font-family="Arial" font-size="7">process</text>
<line x1="752.100000" y1="271.000000" x2="755.100000" y2="272.000000"  transform="rotate(0.000000,755.100000,272.000000)" style="stroke: black; stroke-width:0.25;"/>
<line x1="752.100000" y1="273.000000" x2="755.100000" y2="272.000000"  transform="rotate(0.000000,755.100000,272.000000)" style="stroke: black; stroke-width:0.25;"/>
<line x1="10.000000" y1="272.000000" x2="20.000000" y2="272.000000"  style="stroke:black; stroke-linecap:round; stroke-width:0.25;"/>
<line x1="20.000000" y1="272.000000" x2="24.000000" y2="272.000000"  style="stroke:black; stroke-linecap:round; stroke-width:0.25;"/>
<line x1="24.000000" y1="272.000000" x2="28.000000" y2="272.000000"  style="stroke:black; stroke-linecap:round; stroke-width:0.25;"/>
<line x1="28.000000" y1="272.000000" x2="36.000000" y2="272.000000"  style="stroke:black; stroke-linecap:round; stroke-width:0.25;"/>
<line x1="36.000000" y1="272.000000" x2="36.000000" y2="482.000000"  style="stroke:black; stroke-linecap:round; stroke-width:0.25;"/>
<line x1="36.000000" y1="482.000000" x2="36.000000" y2="482.000000"  style="stroke:black; stroke-linecap:round; stroke-width:0.25;"/>
<line x1="36.000000" y1="482.000000" x2="46.000000" y2="482.000000"  style="stroke:black; stroke-linecap:round; stroke-width:0.25;"/>
<line x1="46.000000" y1="482.000000" x2="56.000000" y2="482.000000"  style="stroke:black; stroke-linecap:round; stroke-width:0.25;"/>
<line x1="56.000000" y1="482.000000" x2="66.000000" y2="482.000000"  style="stroke:black; stroke-linecap:round; stroke-width:0.25;"/>
<line x1="66.000000" y1="482.000000" x2="74.000000" y2="482.000000"  style="stroke:black; stroke-linecap:round; stroke-width:0.25;"/>
<line x1="74.000000" y1="256.000000" x2="74.000000" y2="256.000000"  style="stroke:black; stroke-linecap:round; stroke-width:0.25;"/>
<line x1="74.000000" y1="256.000000" x2="74.000000" y2="474.000000"  style="stroke:black; stroke-linecap:round; stroke-width:0.25;"/>
<line x1="74.000000" y1="474.000000" x2="74.000000" y2="474.000000"  style="stroke:black; stroke-linecap:round; stroke-width:0.25;"/>
<line x1="74.000000" y1="474.000000" x2="366.550000" y2="474.000000"  style="stroke:black; stroke-linecap:round; stroke-width:0.25;"/>
<line x1="74.000000" y1="482.000000" x2="366.550000" y2="482.000000"  style="stroke:black; stroke-linecap:round; stroke-width:0.25;"/>
<line x1="78.000000" y1="256.000000" x2="74.000000" y2="256.000000"  style="stroke:black; stroke-linecap:round; stroke-width:0.25;"/>
<line x1="106.000000" y1="252.000000" x2="102.000000" y2="252.000000"  style="stroke:black; stroke-linecap:round; stroke-width:0.25;"/>
<line x1="106.000000" y1="260.000000" x2="102.000000" y2="260.000000"  style="stroke:black; stroke-linecap:round; stroke-width:0.25;"/>
<line x1="106.000000" y1="260.000000" x2="106.000000" y2="260.000000"  style="stroke:black; stroke-linecap:round; stroke-width:0.25;"/>
<line x1="106.000000" y1="288.000000" x2="106.000000" y2="260.000000"  style="stroke:black; stroke-linecap:round; stroke-width:0.25;"/>
<line x1="114.000000" y1="82.000000" x2="114.000000" y2="82.000000"  style="stroke:black; stroke-linecap:round; stroke-width:0.25;"/>
<line x1="114.000000" y1="82.000000" x2="114.000000" y2="252.000000"  style="stroke:black; stroke-linecap:round; stroke-width:0.25;"/>
<line x1="114.000000" y1="252.000000" x2="106.000000" y2="252.000000"  style="stroke:black; stroke-linecap:round; stroke-width:0.25;"/>
<line x1="114.000000" y1="288.000000" x2="106.000000" y2="288.000000"  style="stroke:black; stroke-linecap:round; stroke-width:0.25;"/>
<line x1="124.000000" y1="288.000000" x2="114.000000" y2="288.000000"  style="stroke:black; stroke-linecap:round; stroke-width:0.25;"/>
<line x1="128.000000" y1="288.000000" x2="124.000000" y2="288.000000"  style="stroke:black; stroke-linecap:round; stroke-width:0.25;"/>
<line x1="156.000000" y1="284.000000" x2="152.000000" y2="284.000000"  style="stroke:black; stroke-linecap:round; stroke-width:0.25;"/>
<line x1="156.000000" y1="292.000000" x2="152.000000" y2="292.000000"  style="stroke:black; stroke-linecap:round; stroke-width:0.25;"/>
<line x1="156.000000" y1="292.000000" x2="156.000000" y2="292.000000"  style="stroke:black; stroke-linecap:round; stroke-width:0.25;"/>
<line x1="156.000000" y1="436.000000" x2="156.000000" y2="292.000000"  style="stroke:black; stroke-linecap:round; stroke-width:0.25;"/>
<line x1="164.000000" y1="272.000000" x2="164.000000" y2="272.000000"  style="stroke:black; stroke-linecap:round; stroke-width:0.25;"/>
<line x1="164.000000" y1="272.000000" x2="164.000000" y2="284.000000"  style="stroke:black; stroke-linecap:round; stroke-width:0.25;"/>
<line x1="164.000000" y1="284.000000" x2="156.000000" y2="284.000000"  style="stroke:black; stroke-linecap:round; stroke-width:0.25;"/>
<line x1="164.000000" y1="436.000000" x2="156.000000" y2="436.000000"  style="stroke:black; stroke-linecap:round; stroke-width:0.25;"/>
<line x1="168.000000" y1="272.000000" x2="164.000000" y2="272.000000"  style="stroke:black; stroke-linecap:round; stroke-width:0.25;"/>
<line x1="210.700000" y1="268.000000" x2="206.700000" y2="268.000000"  style="stroke:black; stroke-linecap:round; stroke-width:0.25;"/>
<line x1="210.700000" y1="276.000000" x2="206.700000" y2="276.000000"  style="stroke:black; stroke-linecap:round; stroke-width:0.25;"/>
<line x1="210.700000" y1="276.000000" x2="210.700000" y2="276.000000"  style="stroke:black; stroke-linecap:round; stroke-width:0.25;"/>
<line x1="210.700000" y1="404.000000" x2="210.700000" y2="276.000000"  style="stroke:black; stroke-linecap:round; stroke-width:0.25;"/>
<line x1="218.700000" y1="256.000000" x2="218.700000" y2="256.000000"  style="stroke:black; stroke-linecap:round; stroke-width:0.25;"/>
<line x1="218.700000" y1="256.000000" x2="218.700000" y2="268.000000"  style="stroke:black; stroke-linecap:round; stroke-width:0.25;"/>
<line x1="218.700000" y1="268.000000" x2="210.700000" y2="268.000000"  style="stroke:black; stroke-linecap:round; stroke-width:0.25;"/>
<line x1="218.700000" y1="404.000000" x2="210.700000" y2="404.000000"  style="stroke:black; stroke-linecap:round; stroke-width:0.25;"/>
<line x1="222.700000" y1="256.000000" x2="218.700000" y2="256.000000"  style="stroke:black; stroke-linecap:round; stroke-width:0.25;"/>
<line x1="265.400000" y1="252.000000" x2="261.400000" y2="252.000000"  style="stroke:black; stroke-linecap:round; stroke-width:0.25;"/>
<line x1="265.400000" y1="260.000000" x2="261.400000" y2="260.000000"  style="stroke:black; stroke-linecap:round; stroke-width:0.25;"/>
<line x1="265.400000" y1="260.000000" x2="265.400000" y2="260.000000"  style="stroke:black; stroke-linecap:round; stroke-width:0.25;"/>
<line x1="265.400000" y1="372.000000" x2="265.400000" y2="260.000000"  style="stroke:black; stroke-linecap:round; stroke-width:0.25;"/>
<line x1="273.400000" y1="240.000000" x2="273.400000" y2="240.000000"  style="stroke:black; stroke-linecap:round; stroke-width:0.25;"/>
<line x1="273.400000" y1="240.000000" x2="273.400000" y2="252.000000"  style="stroke:black; stroke-linecap:round; stroke-width:0.25;"/>
<line x1="273.400000" y1="252.000000" x2="265.400000" y2="252.000000"  style="stroke:black; stroke-linecap:round; stroke-width:0.25;"/>
<line x1="273.400000" y1="372.000000" x2="265.400000" y2="372.000000"  style="stroke:black; stroke-linecap:round; stroke-width:0.25;"/>
<line x1="277.400000" y1="240.000000" x2="273.400000" y2="240.000000"  style="stroke:black; stroke-linecap:round; stroke-width:0.25;"/>
<line x1="281.800000" y1="82.000000" x2="114.000000" y2="82.000000"  style="stroke:black; stroke-linecap:round; stroke-width:0.25;"/>
<line x1="285.800000" y1="82.000000" x2="281.800000" y2="82.000000"  style="stroke:black; stroke-linecap:round; stroke-width:0.25;"/>
<line x1="305.400000" y1="236.000000" x2="301.400000" y2="236.000000"  style="stroke:black; stroke-linecap:round; stroke-width:0.25;"/>
<line x1="305.400000" y1="244.000000" x2="301.400000" y2="244.000000"  style="stroke:black; stroke-linecap:round; stroke-width:0.25;"/>
<line x1="305.400000" y1="244.000000" x2="305.400000" y2="244.000000"  style="stroke:black; stroke-linecap:round; stroke-width:0.25;"/>
<line x1="305.400000" y1="256.000000" x2="305.400000" y2="244.000000"  style="stroke:black; stroke-linecap:round; stroke-width:0.25;"/>
<line x1="313.400000" y1="140.000000" x2="313.400000" y2="140.000000"  style="stroke:black; stroke-linecap:round; stroke-width:0.25;"/>
<line x1="313.400000" y1="140.000000" x2="313.400000" y2="236.000000"  style="stroke:black; stroke-linecap:round; stroke-width:0.25;"/>
<line x1="313.400000" y1="236.000000" x2="305.400000" y2="236.000000"  style="stroke:black; stroke-linecap:round; stroke-width:0.25;"/>
<line x1="313.400000" y1="256.000000" x2="305.400000" y2="256.000000"  style="stroke:black; stroke-linecap:round; stroke-width:0.25;"/>
<line x1="313.800000" y1="78.000000" x2="309.800000" y2="78.000000"  style="stroke:black; stroke-linecap:round; stroke-width:0.25;"/>
<line x1="313.800000" y1="86.000000" x2="309.800000" y2="86.000000"  style="stroke:black; stroke-linecap:round; stroke-width:0.25;"/>
<line x1="313.800000" y1="86.000000" x2="313.800000" y2="86.000000"  style="stroke:black; stroke-linecap:round; stroke-width:0.25;"/>
<line x1="313.800000" y1="98.000000" x2="313.800000" y2="86.000000"  style="stroke:black; stroke-linecap:round; stroke-width:0.25;"/>
<line x1="317.400000" y1="256.000000" x2="313.400000" y2="256.000000"  style="stroke:black; stroke-linecap:round; stroke-width:0.25;"/>
<line x1="321.800000" y1="66.000000" x2="321.800000" y2="66.000000"  style="stroke:black; stroke-linecap:round; stroke-width:0.25;"/>
<line x1="321.800000" y1="66.000000" x2="321.800000" y2="78.000000"  style="stroke:black; stroke-linecap:round; stroke-width:0.25;"/>
<line x1="321.800000" y1="78.000000" x2="313.800000" y2="78.000000"  style="stroke:black; stroke-linecap:round; stroke-width:0.25;"/>
<line x1="321.800000" y1="98.000000" x2="313.800000" y2="98.000000"  style="stroke:black; stroke-linecap:round; stroke-width:0.25;"/>
<line x1="325.800000" y1="98.000000" x2="321.800000" y2="98.000000"  style="stroke:black; stroke-linecap:round; stroke-width:0.25;"/>
<line x1="345.400000" y1="256.000000" x2="341.400000" y2="256.000000"  style="stroke:black; stroke-linecap:round; stroke-width:0.25;"/>
<line x1="345.400000" y1="256.000000" x2="345.400000" y2="256.000000"  style="stroke:black; stroke-linecap:round; stroke-width:0.25;"/>
<line x1="349.400000" y1="256.000000" x2="345.400000" y2="256.000000"  style="stroke:black; stroke-linecap:round; stroke-width:0.25;"/>
<line x1="366.550000" y1="474.000000" x2="370.550000" y2="474.000000"  style="stroke:black; stroke-linecap:round; stroke-width:0.25;"/>
<line x1="366.550000" y1="482.000000" x2="370.550000" y2="482.000000"  style="stroke:black; stroke-linecap:round; stroke-width:0.25;"/>
<line x1="377.400000" y1="252.000000" x2="373.400000" y2="252.000000"  style="stroke:black; stroke-linecap:round; stroke-width:0.25;"/>
<line x1="377.400000" y1="260.000000" x2="373.400000" y2="260.000000"  style="stroke:black; stroke-linecap:round; stroke-width:0.25;"/>
<line x1="377.400000" y1="260.000000" x2="377.400000" y2="260.000000"  style="stroke:black; stroke-linecap:round; stroke-width:0.25;"/>
<line x1="377.400000" y1="340.000000" x2="377.400000" y2="260.000000"  style="stroke:black; stroke-linecap:round; stroke-width:0.25;"/>
<line x1="385.400000" y1="240.000000" x2="385.400000" y2="240.000000"  style="stroke:black; stroke-linecap:round; stroke-width:0.25;"/>
<line x1="385.400000" y1="240.000000" x2="385.400000" y2="252.000000"  style="stroke:black; stroke-linecap:round; stroke-width:0.25;"/>
<line x1="385.400000" y1="252.000000" x2="377.400000" y2="252.000000"  style="stroke:black; stroke-linecap:round; stroke-width:0.25;"/>
<line x1="385.400000" y1="340.000000" x2="377.400000" y2="340.000000"  style="stroke:black; stroke-linecap:round; stroke-width:0.25;"/>
<line x1="388.750000" y1="436.000000" x2="164.000000" y2="436.000000"  style="stroke:black; stroke-linecap:round; stroke-width:0.25;"/>
<line x1="392.750000" y1="436.000000" x2="388.750000" y2="436.000000"  style="stroke:black; stroke-linecap:round; stroke-width:0.25;"/>
<line x1="394.550000" y1="478.000000" x2="398.550000" y2="478.000000"  style="stroke:black; stroke-linecap:round; stroke-width:0.25;"/>
<line x1="395.400000" y1="240.000000" x2="385.400000" y2="240.000000"  style="stroke:black; stroke-linecap:round; stroke-width:0.25;"/>
<line x1="398.550000" y1="478.000000" x2="691.100000" y2="478.000000"  style="stroke:black; stroke-linecap:round; stroke-width:0.25;"/>
<line x1="399.400000" y1="240.000000" x2="395.400000" y2="240.000000"  style="stroke:black; stroke-linecap:round; stroke-width:0.25;"/>
<line x1="405.650000" y1="66.000000" x2="321.800000" y2="66.000000"  style="stroke:black; stroke-linecap:round; stroke-width:0.25;"/>
<line x1="409.150000" y1="340.000000" x2="385.400000" y2="340.000000"  style="stroke:black; stroke-linecap:round; stroke-width:0.25;"/>
<line x1="409.650000" y1="66.000000" x2="405.650000" y2="66.000000"  style="stroke:black; stroke-linecap:round; stroke-width:0.25;"/>
<line x1="413.150000" y1="340.000000" x2="409.150000" y2="340.000000"  style="stroke:black; stroke-linecap:round; stroke-width:0.25;"/>
<line x1="416.100000" y1="404.000000" x2="218.700000" y2="404.000000"  style="stroke:black; stroke-linecap:round; stroke-width:0.25;"/>
<line x1="420.100000" y1="404.000000" x2="416.100000" y2="404.000000"  style="stroke:black; stroke-linecap:round; stroke-width:0.25;"/>
<line x1="427.400000" y1="236.000000" x2="423.400000" y2="236.000000"  style="stroke:black; stroke-linecap:round; stroke-width:0.25;"/>
<line x1="427.400000" y1="244.000000" x2="423.400000" y2="244.000000"  style="stroke:black; stroke-linecap:round; stroke-width:0.25;"/>
<line x1="427.400000" y1="244.000000" x2="427.400000" y2="244.000000"  style="stroke:black; stroke-linecap:round; stroke-width:0.25;"/>
<line x1="427.400000" y1="256.000000" x2="427.400000" y2="244.000000"  style="stroke:black; stroke-linecap:round; stroke-width:0.25;"/>
<line x1="435.400000" y1="182.000000" x2="435.400000" y2="182.000000"  style="stroke:black; stroke-linecap:round; stroke-width:0.25;"/>
<line x1="435.400000" y1="182.000000" x2="435.400000" y2="236.000000"  style="stroke:black; stroke-linecap:round; stroke-width:0.25;"/>
<line x1="435.400000" y1="236.000000" x2="427.400000" y2="236.000000"  style="stroke:black; stroke-linecap:round; stroke-width:0.25;"/>
<line x1="435.400000" y1="256.000000" x2="427.400000" y2="256.000000"  style="stroke:black; stroke-linecap:round; stroke-width:0.25;"/>
<line x1="444.350000" y1="372.000000" x2="273.400000" y2="372.000000"  style="stroke:black; stroke-linecap:round; stroke-width:0.25;"/>
<line x1="445.400000" y1="256.000000" x2="435.400000" y2="256.000000"  style="stroke:black; stroke-linecap:round; stroke-width:0.25;"/>
<line x1="448.350000" y1="372.000000" x2="444.350000" y2="372.000000"  style="stroke:black; stroke-linecap:round; stroke-width:0.25;"/>
<line x1="449.400000" y1="256.000000" x2="445.400000" y2="256.000000"  style="stroke:black; stroke-linecap:round; stroke-width:0.25;"/>
<line x1="464.350000" y1="140.000000" x2="313.400000" y2="140.000000"  style="stroke:black; stroke-linecap:round; stroke-width:0.25;"/>
<line x1="468.350000" y1="140.000000" x2="464.350000" y2="140.000000"  style="stroke:black; stroke-linecap:round; stroke-width:0.25;"/>
<line x1="492.100000" y1="260.000000" x2="492.100000" y2="260.000000"  style="stroke:black; stroke-linecap:round; stroke-width:0.25;"/>
<line x1="492.100000" y1="288.000000" x2="492.100000" y2="260.000000"  style="stroke:black; stroke-linecap:round; stroke-width:0.25;"/>
<line x1="492.100000" y1="252.000000" x2="488.100000" y2="252.000000"  style="stroke:black; stroke-linecap:round; stroke-width:0.25;"/>
<line x1="492.100000" y1="260.000000" x2="488.100000" y2="260.000000"  style="stroke:black; stroke-linecap:round; stroke-width:0.25;"/>
<line x1="500.100000" y1="288.000000" x2="492.100000" y2="288.000000"  style="stroke:black; stroke-linecap:round; stroke-width:0.25;"/>
<line x1="500.100000" y1="240.000000" x2="500.100000" y2="240.000000"  style="stroke:black; stroke-linecap:round; stroke-width:0.25;"/>
<line x1="500.100000" y1="240.000000" x2="500.100000" y2="252.000000"  style="stroke:black; stroke-linecap:round; stroke-width:0.25;"/>
<line x1="500.100000" y1="252.000000" x2="492.100000" y2="252.000000"  style="stroke:black; stroke-linecap:round; stroke-width:0.25;"/>
<line x1="504.100000" y1="240.000000" x2="500.100000" y2="240.000000"  style="stroke:black; stroke-linecap:round; stroke-width:0.25;"/>
<line x1="519.450000" y1="182.000000" x2="435.400000" y2="182.000000"  style="stroke:black; stroke-linecap:round; stroke-width:0.25;"/>
<line x1="523.450000" y1="182.000000" x2="519.450000" y2="182.000000"  style="stroke:black; stroke-linecap:round; stroke-width:0.25;"/>
<line x1="540.350000" y1="288.000000" x2="500.100000" y2="288.000000"  style="stroke:black; stroke-linecap:round; stroke-width:0.25;"/>
<line x1="544.350000" y1="288.000000" x2="540.350000" y2="288.000000"  style="stroke:black; stroke-linecap:round; stroke-width:0.25;"/>
<line x1="546.800000" y1="236.000000" x2="542.800000" y2="236.000000"  style="stroke:black; stroke-linecap:round; stroke-width:0.25;"/>
<line x1="546.800000" y1="244.000000" x2="542.800000" y2="244.000000"  style="stroke:black; stroke-linecap:round; stroke-width:0.25;"/>
<line x1="546.800000" y1="244.000000" x2="546.800000" y2="244.000000"  style="stroke:black; stroke-linecap:round; stroke-width:0.25;"/>
<line x1="546.800000" y1="256.000000" x2="546.800000" y2="244.000000"  style="stroke:black; stroke-linecap:round; stroke-width:0.25;"/>
<line x1="554.800000" y1="224.000000" x2="554.800000" y2="224.000000"  style="stroke:black; stroke-linecap:round; stroke-width:0.25;"/>
<line x1="554.800000" y1="224.000000" x2="554.800000" y2="236.000000"  style="stroke:black; stroke-linecap:round; stroke-width:0.25;"/>
<line x1="554.800000" y1="236.000000" x2="546.800000" y2="236.000000"  style="stroke:black; stroke-linecap:round; stroke-width:0.25;"/>
<line x1="554.800000" y1="256.000000" x2="546.800000" y2="256.000000"  style="stroke:black; stroke-linecap:round; stroke-width:0.25;"/>
<line x1="558.800000" y1="224.000000" x2="554.800000" y2="224.000000"  style="stroke:black; stroke-linecap:round; stroke-width:0.25;"/>
<line x1="574.150000" y1="256.000000" x2="554.800000" y2="256.000000"  style="stroke:black; stroke-linecap:round; stroke-width:0.25;"/>
<line x1="578.150000" y1="256.000000" x2="574.150000" y2="256.000000"  style="stroke:black; stroke-linecap:round; stroke-width:0.25;"/>
<line x1="681.100000" y1="288.000000" x2="677.100000" y2="288.000000"  style="stroke:black; stroke-linecap:round; stroke-width:0.25;"/>
<line x1="691.100000" y1="288.000000" x2="681.100000" y2="288.000000"  style="stroke:black; stroke-linecap:round; stroke-width:0.25;"/>
<line x1="691.100000" y1="288.000000" x2="691.100000" y2="288.000000"  style="stroke:black; stroke-linecap:round; stroke-width:0.25;"/>
<line x1="691.100000" y1="474.000000" x2="691.100000" y2="288.000000"  style="stroke:black; stroke-linecap:round; stroke-width:0.25;"/>
<line x1="691.100000" y1="478.000000" x2="693.100000" y2="478.000000"  style="stroke:black; stroke-linecap:round; stroke-width:0.25;"/>
<line x1="693.100000" y1="478.000000" x2="699.100000" y2="478.000000"  style="stroke:black; stroke-linecap:round; stroke-width:0.25;"/>
<line x1="699.100000" y1="478.000000" x2="709.100000" y2="478.000000"  style="stroke:black; stroke-linecap:round; stroke-width:0.25;"/>
<line x1="709.100000" y1="478.000000" x2="719.100000" y2="478.000000"  style="stroke:black; stroke-linecap:round; stroke-width:0.25;"/>
<line x1="719.100000" y1="478.000000" x2="729.100000" y2="478.000000"  style="stroke:black; stroke-linecap:round; stroke-width:0.25;"/>
<line x1="729.100000" y1="272.000000" x2="737.100000" y2="272.000000"  style="stroke:black; stroke-linecap:round; stroke-width:0.25;"/>
<line x1="729.100000" y1="478.000000" x2="729.100000" y2="272.000000"  style="stroke:black; stroke-linecap:round; stroke-width:0.25;"/>
<line x1="729.100000" y1="478.000000" x2="729.100000" y2="478.000000"  style="stroke:black; stroke-linecap:round; stroke-width:0.25;"/>
<line x1="737.100000" y1="272.000000" x2="741.100000" y2="272.000000"  style="stroke:black; stroke-linecap:round; stroke-width:0.25;"/>
<line x1="741.100000" y1="272.000000" x2="745.100000" y2="272.000000"  style="stroke:black; stroke-linecap:round; stroke-width:0.25;"/>
<line x1="745.100000" y1="272.000000" x2="755.100000" y2="272.000000"  style="stroke:black; stroke-linecap:round; stroke-width:0.25;"/>
</svg>
