<?xml version="1.0"?>
<svg xmlns="http://www.w3.org/2000/svg" xmlns:xlink="http://www.w3.org/1999/xlink" viewBox="0 0 706.300000 544.000000" width="353.150000mm" height="272.000000mm" version="1.1">
<rect x="1.000000" y="1.000000" width="705.300000" height="543.000000" rx="0" ry="0" style="stroke:none;fill:#cccccc;"/>
<rect x="0.000000" y="0.000000" width="705.300000" height="543.000000" rx="0" ry="0" style="stroke:none;fill:#ffffff;"/>
<text x="10.000000" y="7.000000" font-family="Arial" font-size="7"></text>
<rect x="342.150000" y="467.000000" width="24.000000" height="24.000000" rx="0" ry="0" style="stroke:none;fill:#cccccc;"/>
<rect x="341.150000" y="466.000000" width="24.000000" height="24.000000" rx="0" ry="0" style="stroke:none;fill:#4B71A1;"/>
<text x="353.150000" y="480.000000" font-family="Arial" font-size="7" text-anchor="middle" fill="#FFFFFF">+</text>
<circle cx="343.150000" cy="468.000000" r="1"/>
<line x1="338.150000" y1="473.000000" x2="341.150000" y2="474.000000"  transform="rotate(0.000000,341.150000,474.000000)" style="stroke: black; stroke-width:0.25;"/>
<line x1="338.150000" y1="475.000000" x2="341.150000" y2="474.000000"  transform="rotate(0.000000,341.150000,474.000000)" style="stroke: black; stroke-width:0.25;"/>
<line x1="338.150000" y1="481.000000" x2="341.150000" y2="482.000000"  transform="rotate(0.000000,341.150000,482.000000)" style="stroke: black; stroke-width:0.25;"/>
<line x1="338.150000" y1="483.000000" x2="341.150000" y2="482.000000"  transform="rotate(0.000000,341.150000,482.000000)" style="stroke: black; stroke-width:0.25;"/>
<rect x="593.500000" y="277.000000" width="25.800000" height="24.000000" rx="0" ry="0" style="stroke:none;fill:#cccccc;"/>
<rect x="592.500000" y="276.000000" width="25.800000" height="24.000000" rx="0" ry="0" style="stroke:none;fill:#47945E;"/>
<text x="605.400000" y="290.000000" font-family="Arial" font-size="7" text-anchor="middle" fill="#FFFFFF">[1] x</text>
<circle cx="616.300000" cy="298.000000" r="1"/>
<line x1="621.300000" y1="287.000000" x2="618.300000" y2="288.000000"  transform="rotate(0.000000,618.300000,288.000000)" style="stroke: black; stroke-width:0.25;"/>
<line x1="621.300000" y1="289.000000" x2="618.300000" y2="288.000000"  transform="rotate(0.000000,618.300000,288.000000)" style="stroke: black; stroke-width:0.25;"/>
<rect x="364.350000" y="425.000000" width="25.800000" height="24.000000" rx="0" ry="0" style="stroke:none;fill:#cccccc;"/>
<rect x="363.350000" y="424.000000" width="25.800000" height="24.000000" rx="0" ry="0" style="stroke:none;fill:#47945E;"/>
<text x="376.250000" y="438.000000" font-family="Arial" font-size="7" text-anchor="middle" fill="#FFFFFF">[1] x</text>
<circle cx="387.150000" cy="446.000000" r="1"/>
<rect x="384.350000" y="393.000000" width="25.800000" height="24.000000" rx="0" ry="0" style="stroke:none;fill:#cccccc;"/>
<rect x="383.350000" y="392.000000" width="25.800000" height="24.000000" rx="0" ry="0" style="stroke:none;fill:#f44800;"/>
<text x="396.250000" y="406.000000" font-family="Arial" font-size="7" text-anchor="middle" fill="#FFFFFF">65536</text>
<circle cx="407.150000" cy="414.000000" r="1"/>
<rect x="405.250000" y="361.000000" width="24.000000" height="24.000000" rx="0" ry="0" style="stroke:none;fill:#cccccc;"/>
<rect x="404.250000" y="360.000000" width="24.000000" height="24.000000" rx="0" ry="0" style="stroke:none;fill:#f44800;"/>
<text x="416.250000" y="374.000000" font-family="Arial" font-size="7" text-anchor="middle" fill="#FFFFFF">0</text>
<circle cx="426.250000" cy="382.000000" r="1"/>
<rect x="370.050000" y="329.000000" width="206.400000" height="24.000000" rx="0" ry="0" style="stroke:none;fill:#cccccc;"/>
<rect x="369.050000" y="328.000000" width="206.400000" height="24.000000" rx="0" ry="0" style="stroke:none;fill:#477881;"/>
<text x="472.250000" y="342.000000" font-family="Arial" font-size="7" text-anchor="middle" fill="#FFFFFF">hslider(millisecond, 0.0f, 0.0f, 1e+03f, 0.1f)</text>
<circle cx="573.450000" cy="350.000000" r="1"/>
<rect x="493.900000" y="277.000000" width="38.700000" height="24.000000" rx="0" ry="0" style="stroke:none;fill:#cccccc;"/>
<rect x="492.900000" y="276.000000" width="38.700000" height="24.000000" rx="0" ry="0" style="stroke:none;fill:#f44800;"/>
<text x="512.250000" y="290.000000" font-family="Arial" font-size="7" text-anchor="middle" fill="#FFFFFF">1.92e+05f</text>
<circle cx="529.600000" cy="298.000000" r="1"/>
<rect x="520.350000" y="245.000000" width="25.800000" height="24.000000" rx="0" ry="0" style="stroke:none;fill:#cccccc;"/>
<rect x="519.350000" y="244.000000" width="25.800000" height="24.000000" rx="0" ry="0" style="stroke:none;fill:#f44800;"/>
<text x="532.250000" y="258.000000" font-family="Arial" font-size="7" text-anchor="middle" fill="#FFFFFF">1.0f</text>
<circle cx="543.150000" cy="266.000000" r="1"/>
<rect x="501.000000" y="213.000000" width="64.500000" height="24.000000" rx="0" ry="0" style="stroke:none;fill:#cccccc;"/>
<rect x="500.000000" y="212.000000" width="64.500000" height="24.000000" rx="0" ry="0" style="stroke:none;fill:#4B71A1;"/>
<text x="532.250000" y="226.000000" font-family="Arial" font-size="7" text-anchor="middle" fill="#FFFFFF">fSamplingFreq</text>
<circle cx="562.500000" cy="234.000000" r="1"/>
<rect x="461.000000" y="229.000000" width="24.000000" height="24.000000" rx="0" ry="0" style="stroke:none;fill:#cccccc;"/>
<rect x="460.000000" y="228.000000" width="24.000000" height="24.000000" rx="0" ry="0" style="stroke:none;fill:#4B71A1;"/>
<text x="472.000000" y="242.000000" font-family="Arial" font-size="7" text-anchor="middle" fill="#FFFFFF">max</text>
<circle cx="482.000000" cy="250.000000" r="1"/>
<line x1="487.000000" y1="243.000000" x2="484.000000" y2="244.000000"  transform="rotate(0.000000,484.000000,244.000000)" style="stroke: black; stroke-width:0.25;"/>
<line x1="487.000000" y1="245.000000" x2="484.000000" y2="244.000000"  transform="rotate(0.000000,484.000000,244.000000)" style="stroke: black; stroke-width:0.25;"/>
<line x1="487.000000" y1="235.000000" x2="484.000000" y2="236.000000"  transform="rotate(0.000000,484.000000,236.000000)" style="stroke: black; stroke-width:0.25;"/>
<line x1="487.000000" y1="237.000000" x2="484.000000" y2="236.000000"  transform="rotate(0.000000,484.000000,236.000000)" style="stroke: black; stroke-width:0.25;"/>
<rect x="421.000000" y="245.000000" width="24.000000" height="24.000000" rx="0" ry="0" style="stroke:none;fill:#cccccc;"/>
<rect x="420.000000" y="244.000000" width="24.000000" height="24.000000" rx="0" ry="0" style="stroke:none;fill:#4B71A1;"/>
<text x="432.000000" y="258.000000" font-family="Arial" font-size="7" text-anchor="middle" fill="#FFFFFF">min</text>
<circle cx="442.000000" cy="266.000000" r="1"/>
<line x1="447.000000" y1="259.000000" x2="444.000000" y2="260.000000"  transform="rotate(0.000000,444.000000,260.000000)" style="stroke: black; stroke-width:0.25;"/>
<line x1="447.000000" y1="261.000000" x2="444.000000" y2="260.000000"  transform="rotate(0.000000,444.000000,260.000000)" style="stroke: black; stroke-width:0.25;"/>
<line x1="447.000000" y1="251.000000" x2="444.000000" y2="252.000000"  transform="rotate(0.000000,444.000000,252.000000)" style="stroke: black; stroke-width:0.25;"/>
<line x1="447.000000" y1="253.000000" x2="444.000000" y2="252.000000"  transform="rotate(0.000000,444.000000,252.000000)" style="stroke: black; stroke-width:0.25;"/>
<line x1="411.000000" y1="203.000000" x2="411.000000" y2="309.000000"  style="stroke: black; stroke-linecap:round; stroke-width:0.25; stroke-dasharray:3,3;"/>
<line x1="411.000000" y1="309.000000" x2="573.500000" y2="309.000000"  style="stroke: black; stroke-linecap:round; stroke-width:0.25; stroke-dasharray:3,3;"/>
<line x1="573.500000" y1="309.000000" x2="573.500000" y2="203.000000"  style="stroke: black; stroke-linecap:round; stroke-width:0.25; stroke-dasharray:3,3;"/>
<line x1="411.000000" y1="203.000000" x2="416.000000" y2="203.000000"  style="stroke: black; stroke-linecap:round; stroke-width:0.25; stroke-dasharray:3,3;"/>
<line x1="428.900000" y1="203.000000" x2="573.500000" y2="203.000000"  style="stroke: black; stroke-linecap:round; stroke-width:0.25; stroke-dasharray:3,3;"/>
<text x="416.000000" y="205.000000" font-family="Arial" font-size="7">SR</text>
<rect x="480.350000" y="171.000000" width="25.800000" height="24.000000" rx="0" ry="0" style="stroke:none;fill:#cccccc;"/>
<rect x="479.350000" y="170.000000" width="25.800000" height="24.000000" rx="0" ry="0" style="stroke:none;fill:#f44800;"/>
<text x="492.250000" y="184.000000" font-family="Arial" font-size="7" text-anchor="middle" fill="#FFFFFF">1e+03f</text>
<circle cx="503.150000" cy="192.000000" r="1"/>
<rect x="371.000000" y="229.000000" width="24.000000" height="24.000000" rx="0" ry="0" style="stroke:none;fill:#cccccc;"/>
<rect x="370.000000" y="228.000000" width="24.000000" height="24.000000" rx="0" ry="0" style="stroke:none;fill:#4B71A1;"/>
<text x="382.000000" y="242.000000" font-family="Arial" font-size="7" text-anchor="middle" fill="#FFFFFF">/</text>
<circle cx="392.000000" cy="250.000000" r="1"/>
<line x1="397.000000" y1="243.000000" x2="394.000000" y2="244.000000"  transform="rotate(0.000000,394.000000,244.000000)" style="stroke: black; stroke-width:0.25;"/>
<line x1="397.000000" y1="245.000000" x2="394.000000" y2="244.000000"  transform="rotate(0.000000,394.000000,244.000000)" style="stroke: black; stroke-width:0.25;"/>
<line x1="397.000000" y1="235.000000" x2="394.000000" y2="236.000000"  transform="rotate(0.000000,394.000000,236.000000)" style="stroke: black; stroke-width:0.25;"/>
<line x1="397.000000" y1="237.000000" x2="394.000000" y2="236.000000"  transform="rotate(0.000000,394.000000,236.000000)" style="stroke: black; stroke-width:0.25;"/>
<line x1="361.000000" y1="161.000000" x2="361.000000" y2="319.000000"  style="stroke: black; stroke-linecap:round; stroke-width:0.25; stroke-dasharray:3,3;"/>
<line x1="361.000000" y1="319.000000" x2="583.500000" y2="319.000000"  style="stroke: black; stroke-linecap:round; stroke-width:0.25; stroke-dasharray:3,3;"/>
<line x1="583.500000" y1="319.000000" x2="583.500000" y2="161.000000"  style="stroke: black; stroke-linecap:round; stroke-width:0.25; stroke-dasharray:3,3;"/>
<line x1="361.000000" y1="161.000000" x2="366.000000" y2="161.000000"  style="stroke: black; stroke-linecap:round; stroke-width:0.25; stroke-dasharray:3,3;"/>
<line x1="398.250000" y1="161.000000" x2="583.500000" y2="161.000000"  style="stroke: black; stroke-linecap:round; stroke-width:0.25; stroke-dasharray:3,3;"/>
<text x="366.000000" y="163.000000" font-family="Arial" font-size="7">millisec</text>
<rect x="321.000000" y="245.000000" width="24.000000" height="24.000000" rx="0" ry="0" style="stroke:none;fill:#cccccc;"/>
<rect x="320.000000" y="244.000000" width="24.000000" height="24.000000" rx="0" ry="0" style="stroke:none;fill:#4B71A1;"/>
<text x="332.000000" y="258.000000" font-family="Arial" font-size="7" text-anchor="middle" fill="#FFFFFF">*</text>
<circle cx="342.000000" cy="266.000000" r="1"/>
<line x1="347.000000" y1="259.000000" x2="344.000000" y2="260.000000"  transform="rotate(0.000000,344.000000,260.000000)" style="stroke: black; stroke-width:0.25;"/>
<line x1="347.000000" y1="261.000000" x2="344.000000" y2="260.000000"  transform="rotate(0.000000,344.000000,260.000000)" style="stroke: black; stroke-width:0.25;"/>
<line x1="347.000000" y1="251.000000" x2="344.000000" y2="252.000000"  transform="rotate(0.000000,344.000000,252.000000)" style="stroke: black; stroke-width:0.25;"/>
<line x1="347.000000" y1="253.000000" x2="344.000000" y2="252.000000"  transform="rotate(0.000000,344.000000,252.000000)" style="stroke: black; stroke-width:0.25;"/>
<rect x="289.000000" y="245.000000" width="24.000000" height="24.000000" rx="0" ry="0" style="stroke:none;fill:#cccccc;"/>
<rect x="288.000000" y="244.000000" width="24.000000" height="24.000000" rx="0" ry="0" style="stroke:none;fill:#4B71A1;"/>
<text x="300.000000" y="258.000000" font-family="Arial" font-size="7" text-anchor="middle" fill="#FFFFFF">int</text>
<circle cx="310.000000" cy="266.000000" r="1"/>
<line x1="315.000000" y1="255.000000" x2="312.000000" y2="256.000000"  transform="rotate(0.000000,312.000000,256.000000)" style="stroke: black; stroke-width:0.25;"/>
<line x1="315.000000" y1="257.000000" x2="312.000000" y2="256.000000"  transform="rotate(0.000000,312.000000,256.000000)" style="stroke: black; stroke-width:0.25;"/>
<rect x="425.250000" y="129.000000" width="24.000000" height="24.000000" rx="0" ry="0" style="stroke:none;fill:#cccccc;"/>
<rect x="424.250000" y="128.000000" width="24.000000" height="24.000000" rx="0" ry="0" style="stroke:none;fill:#f44800;"/>
<text x="436.250000" y="142.000000" font-family="Arial" font-size="7" text-anchor="middle" fill="#FFFFFF">1</text>
<circle cx="446.250000" cy="150.000000" r="1"/>
<rect x="249.000000" y="229.000000" width="24.000000" height="24.000000" rx="0" ry="0" style="stroke:none;fill:#cccccc;"/>
<rect x="248.000000" y="228.000000" width="24.000000" height="24.000000" rx="0" ry="0" style="stroke:none;fill:#4B71A1;"/>
<text x="260.000000" y="242.000000" font-family="Arial" font-size="7" text-anchor="middle" fill="#FFFFFF">-</text>
<circle cx="270.000000" cy="250.000000" r="1"/>
<line x1="275.000000" y1="243.000000" x2="272.000000" y2="244.000000"  transform="rotate(0.000000,272.000000,244.000000)" style="stroke: black; stroke-width:0.25;"/>
<line x1="275.000000" y1="245.000000" x2="272.000000" y2="244.000000"  transform="rotate(0.000000,272.000000,244.000000)" style="stroke: black; stroke-width:0.25;"/>
<line x1="275.000000" y1="235.000000" x2="272.000000" y2="236.000000"  transform="rotate(0.000000,272.000000,236.000000)" style="stroke: black; stroke-width:0.25;"/>
<line x1="275.000000" y1="237.000000" x2="272.000000" y2="236.000000"  transform="rotate(0.000000,272.000000,236.000000)" style="stroke: black; stroke-width:0.25;"/>
<rect x="209.000000" y="245.000000" width="24.000000" height="24.000000" rx="0" ry="0" style="stroke:none;fill:#cccccc;"/>
<rect x="208.000000" y="244.000000" width="24.000000" height="24.000000" rx="0" ry="0" style="stroke:none;fill:#4B71A1;"/>
<text x="220.000000" y="258.000000" font-family="Arial" font-size="7" text-anchor="middle" fill="#FFFFFF">max</text>
<circle cx="230.000000" cy="266.000000" r="1"/>
<line x1="235.000000" y1="259.000000" x2="232.000000" y2="260.000000"  transform="rotate(0.000000,232.000000,260.000000)" style="stroke: black; stroke-width:0.25;"/>
<line x1="235.000000" y1="261.000000" x2="232.000000" y2="260.000000"  transform="rotate(0.000000,232.000000,260.000000)" style="stroke: black; stroke-width:0.25;"/>
<line x1="235.000000" y1="251.000000" x2="232.000000" y2="252.000000"  transform="rotate(0.000000,232.000000,252.000000)" style="stroke: black; stroke-width:0.25;"/>
<line x1="235.000000" y1="253.000000" x2="232.000000" y2="252.000000"  transform="rotate(0.000000,232.000000,252.000000)" style="stroke: black; stroke-width:0.25;"/>
<rect x="169.000000" y="261.000000" width="24.000000" height="24.000000" rx="0" ry="0" style="stroke:none;fill:#cccccc;"/>
<rect x="168.000000" y="260.000000" width="24.000000" height="24.000000" rx="0" ry="0" style="stroke:none;fill:#4B71A1;"/>
<text x="180.000000" y="274.000000" font-family="Arial" font-size="7" text-anchor="middle" fill="#FFFFFF">min</text>
<circle cx="190.000000" cy="282.000000" r="1"/>
<line x1="195.000000" y1="275.000000" x2="192.000000" y2="276.000000"  transform="rotate(0.000000,192.000000,276.000000)" style="stroke: black; stroke-width:0.25;"/>
<line x1="195.000000" y1="277.000000" x2="192.000000" y2="276.000000"  transform="rotate(0.000000,192.000000,276.000000)" style="stroke: black; stroke-width:0.25;"/>
<line x1="195.000000" y1="267.000000" x2="192.000000" y2="268.000000"  transform="rotate(0.000000,192.000000,268.000000)" style="stroke: black; stroke-width:0.25;"/>
<line x1="195.000000" y1="269.000000" x2="192.000000" y2="268.000000"  transform="rotate(0.000000,192.000000,268.000000)" style="stroke: black; stroke-width:0.25;"/>
<rect x="129.000000" y="277.000000" width="24.000000" height="24.000000" rx="0" ry="0" style="stroke:none;fill:#cccccc;"/>
<rect x="128.000000" y="276.000000" width="24.000000" height="24.000000" rx="0" ry="0" style="stroke:none;fill:#4B71A1;"/>
<text x="140.000000" y="290.000000" font-family="Arial" font-size="7" text-anchor="middle" fill="#FFFFFF">@</text>
<circle cx="150.000000" cy="298.000000" r="1"/>
<line x1="155.000000" y1="291.000000" x2="152.000000" y2="292.000000"  transform="rotate(0.000000,152.000000,292.000000)" style="stroke: black; stroke-width:0.25;"/>
<line x1="155.000000" y1="293.000000" x2="152.000000" y2="292.000000"  transform="rotate(0.000000,152.000000,292.000000)" style="stroke: black; stroke-width:0.25;"/>
<line x1="155.000000" y1="283.000000" x2="152.000000" y2="284.000000"  transform="rotate(0.000000,152.000000,284.000000)" style="stroke: black; stroke-width:0.25;"/>
<line x1="155.000000" y1="285.000000" x2="152.000000" y2="284.000000"  transform="rotate(0.000000,152.000000,284.000000)" style="stroke: black; stroke-width:0.25;"/>
<line x1="119.000000" y1="119.000000" x2="119.000000" y2="457.000000"  style="stroke: black; stroke-linecap:round; stroke-width:0.25; stroke-dasharray:3,3;"/>
<line x1="119.000000" y1="457.000000" x2="627.300000" y2="457.000000"  style="stroke: black; stroke-linecap:round; stroke-width:0.25; stroke-dasharray:3,3;"/>
<line x1="627.300000" y1="457.000000" x2="627.300000" y2="119.000000"  style="stroke: black; stroke-linecap:round; stroke-width:0.25; stroke-dasharray:3,3;"/>
<line x1="119.000000" y1="119.000000" x2="124.000000" y2="119.000000"  style="stroke: black; stroke-linecap:round; stroke-width:0.25; stroke-dasharray:3,3;"/>
<line x1="223.975000" y1="119.000000" x2="627.300000" y2="119.000000"  style="stroke: black; stroke-linecap:round; stroke-width:0.25; stroke-dasharray:3,3;"/>
<text x="124.000000" y="121.000000" font-family="Arial" font-size="7">delay(65536)(...: int),1 : -)</text>
<rect x="297.400000" y="87.000000" width="193.500000" height="24.000000" rx="0" ry="0" style="stroke:none;fill:#cccccc;"/>
<rect x="296.400000" y="86.000000" width="193.500000" height="24.000000" rx="0" ry="0" style="stroke:none;fill:#477881;"/>
<text x="393.150000" y="100.000000" font-family="Arial" font-size="7" text-anchor="middle" fill="#FFFFFF">hslider(feedback, 0.0f, 0.0f, 1e+02f, 0.1f)</text>
<circle cx="487.900000" cy="108.000000" r="1"/>
<rect x="381.250000" y="55.000000" width="25.800000" height="24.000000" rx="0" ry="0" style="stroke:none;fill:#cccccc;"/>
<rect x="380.250000" y="54.000000" width="25.800000" height="24.000000" rx="0" ry="0" style="stroke:none;fill:#f44800;"/>
<text x="393.150000" y="68.000000" font-family="Arial" font-size="7" text-anchor="middle" fill="#FFFFFF">1e+02f</text>
<circle cx="404.050000" cy="76.000000" r="1"/>
<rect x="257.400000" y="71.000000" width="24.000000" height="24.000000" rx="0" ry="0" style="stroke:none;fill:#cccccc;"/>
<rect x="256.400000" y="70.000000" width="24.000000" height="24.000000" rx="0" ry="0" style="stroke:none;fill:#4B71A1;"/>
<text x="268.400000" y="84.000000" font-family="Arial" font-size="7" text-anchor="middle" fill="#FFFFFF">/</text>
<circle cx="278.400000" cy="92.000000" r="1"/>
<line x1="283.400000" y1="85.000000" x2="280.400000" y2="86.000000"  transform="rotate(0.000000,280.400000,86.000000)" style="stroke: black; stroke-width:0.25;"/>
<line x1="283.400000" y1="87.000000" x2="280.400000" y2="86.000000"  transform="rotate(0.000000,280.400000,86.000000)" style="stroke: black; stroke-width:0.25;"/>
<line x1="283.400000" y1="77.000000" x2="280.400000" y2="78.000000"  transform="rotate(0.000000,280.400000,78.000000)" style="stroke: black; stroke-width:0.25;"/>
<line x1="283.400000" y1="79.000000" x2="280.400000" y2="78.000000"  transform="rotate(0.000000,280.400000,78.000000)" style="stroke: black; stroke-width:0.25;"/>
<rect x="79.000000" y="245.000000" width="24.000000" height="24.000000" rx="0" ry="0" style="stroke:none;fill:#cccccc;"/>
<rect x="78.000000" y="244.000000" width="24.000000" height="24.000000" rx="0" ry="0" style="stroke:none;fill:#4B71A1;"/>
<text x="90.000000" y="258.000000" font-family="Arial" font-size="7" text-anchor="middle" fill="#FFFFFF">*</text>
<circle cx="100.000000" cy="266.000000" r="1"/>
<line x1="105.000000" y1="259.000000" x2="102.000000" y2="260.000000"  transform="rotate(0.000000,102.000000,260.000000)" style="stroke: black; stroke-width:0.25;"/>
<line x1="105.000000" y1="261.000000" x2="102.000000" y2="260.000000"  transform="rotate(0.000000,102.000000,260.000000)" style="stroke: black; stroke-width:0.25;"/>
<line x1="105.000000" y1="251.000000" x2="102.000000" y2="252.000000"  transform="rotate(0.000000,102.000000,252.000000)" style="stroke: black; stroke-width:0.25;"/>
<line x1="105.000000" y1="253.000000" x2="102.000000" y2="252.000000"  transform="rotate(0.000000,102.000000,252.000000)" style="stroke: black; stroke-width:0.25;"/>
<line x1="630.300000" y1="478.000000" x2="630.300000" y2="474.000000"  style="stroke:black; stroke-linecap:round; stroke-width:0.25;"/>
<line x1="630.300000" y1="474.000000" x2="634.300000" y2="474.000000"  style="stroke:black; stroke-linecap:round; stroke-width:0.25;"/>
<line x1="634.300000" y1="474.000000" x2="634.300000" y2="478.000000"  style="stroke:black; stroke-linecap:round; stroke-width:0.25;"/>
<line x1="61.000000" y1="45.000000" x2="61.000000" y2="499.000000"  style="stroke: black; stroke-linecap:round; stroke-width:0.25; stroke-dasharray:3,3;"/>
<line x1="61.000000" y1="499.000000" x2="645.300000" y2="499.000000"  style="stroke: black; stroke-linecap:round; stroke-width:0.25; stroke-dasharray:3,3;"/>
<line x1="645.300000" y1="499.000000" x2="645.300000" y2="45.000000"  style="stroke: black; stroke-linecap:round; stroke-width:0.25; stroke-dasharray:3,3;"/>
<line x1="61.000000" y1="45.000000" x2="66.000000" y2="45.000000"  style="stroke: black; stroke-linecap:round; stroke-width:0.25; stroke-dasharray:3,3;"/>
<line x1="127.275000" y1="45.000000" x2="645.300000" y2="45.000000"  style="stroke: black; stroke-linecap:round; stroke-width:0.25; stroke-dasharray:3,3;"/>
<text x="66.000000" y="47.000000" font-family="Arial" font-size="7">vgroup(echo 1000)</text>
<line x1="51.000000" y1="35.000000" x2="51.000000" y2="509.000000"  style="stroke: black; stroke-linecap:round; stroke-width:0.25; stroke-dasharray:3,3;"/>
<line x1="51.000000" y1="509.000000" x2="655.300000" y2="509.000000"  style="stroke: black; stroke-linecap:round; stroke-width:0.25; stroke-dasharray:3,3;"/>
<line x1="655.300000" y1="509.000000" x2="655.300000" y2="35.000000"  style="stroke: black; stroke-linecap:round; stroke-width:0.25; stroke-dasharray:3,3;"/>
<line x1="51.000000" y1="35.000000" x2="56.000000" y2="35.000000"  style="stroke: black; stroke-linecap:round; stroke-width:0.25; stroke-dasharray:3,3;"/>
<line x1="81.800000" y1="35.000000" x2="655.300000" y2="35.000000"  style="stroke: black; stroke-linecap:round; stroke-width:0.25; stroke-dasharray:3,3;"/>
<text x="56.000000" y="37.000000" font-family="Arial" font-size="7">echo1s</text>
<line x1="41.000000" y1="25.000000" x2="41.000000" y2="519.000000"  style="stroke: black; stroke-linecap:round; stroke-width:0.25; stroke-dasharray:3,3;"/>
<line x1="41.000000" y1="519.000000" x2="665.300000" y2="519.000000"  style="stroke: black; stroke-linecap:round; stroke-width:0.25; stroke-dasharray:3,3;"/>
<line x1="665.300000" y1="519.000000" x2="665.300000" y2="25.000000"  style="stroke: black; stroke-linecap:round; stroke-width:0.25; stroke-dasharray:3,3;"/>
<line x1="41.000000" y1="25.000000" x2="46.000000" y2="25.000000"  style="stroke: black; stroke-linecap:round; stroke-width:0.25; stroke-dasharray:3,3;"/>
<line x1="113.725000" y1="25.000000" x2="665.300000" y2="25.000000"  style="stroke: black; stroke-linecap:round; stroke-width:0.25; stroke-dasharray:3,3;"/>
<text x="46.000000" y="27.000000" font-family="Arial" font-size="7">vgroup(echo-simple)</text>
<line x1="15.000000" y1="15.000000" x2="15.000000" y2="529.000000"  style="stroke: black; stroke-linecap:round; stroke-width:0.25; stroke-dasharray:3,3;"/>
<line x1="15.000000" y1="529.000000" x2="691.300000" y2="529.000000"  style="stroke: black; stroke-linecap:round; stroke-width:0.25; stroke-dasharray:3,3;"/>
<line x1="691.300000" y1="529.000000" x2="691.300000" y2="15.000000"  style="stroke: black; stroke-linecap:round; stroke-width:0.25; stroke-dasharray:3,3;"/>
<line x1="15.000000" y1="15.000000" x2="20.000000" y2="15.000000"  style="stroke: black; stroke-linecap:round; stroke-width:0.25; stroke-dasharray:3,3;"/>
<line x1="49.025000" y1="15.000000" x2="691.300000" y2="15.000000"  style="stroke: black; stroke-linecap:round; stroke-width:0.25; stroke-dasharray:3,3;"/>
<text x="20.000000" y="17.000000" font-family="Arial" font-size="7">process</text>
<line x1="693.300000" y1="271.000000" x2="696.300000" y2="272.000000"  transform="rotate(0.000000,696.300000,272.000000)" style="stroke: black; stroke-width:0.25;"/>
<line x1="693.300000" y1="273.000000" x2="696.300000" y2="272.000000"  transform="rotate(0.000000,696.300000,272.000000)" style="stroke: black; stroke-width:0.25;"/>
<line x1="10.000000" y1="272.000000" x2="20.000000" y2="272.000000"  style="stroke:black; stroke-linecap:round; stroke-width:0.25;"/>
<line x1="20.000000" y1="272.000000" x2="24.000000" y2="272.000000"  style="stroke:black; stroke-linecap:round; stroke-width:0.25;"/>
<line x1="24.000000" y1="272.000000" x2="28.000000" y2="272.000000"  style="stroke:black; stroke-linecap:round; stroke-width:0.25;"/>
<line x1="28.000000" y1="272.000000" x2="36.000000" y2="272.000000"  style="stroke:black; stroke-linecap:round; stroke-width:0.25;"/>
<line x1="36.000000" y1="272.000000" x2="36.000000" y2="482.000000"  style="stroke:black; stroke-linecap:round; stroke-width:0.25;"/>
<line x1="36.000000" y1="482.000000" x2="36.000000" y2="482.000000"  style="stroke:black; stroke-linecap:round; stroke-width:0.25;"/>
<line x1="36.000000" y1="482.000000" x2="46.000000" y2="482.000000"  style="stroke:black; stroke-linecap:round; stroke-width:0.25;"/>
<line x1="46.000000" y1="482.000000" x2="56.000000" y2="482.000000"  style="stroke:black; stroke-linecap:round; stroke-width:0.25;"/>
<line x1="56.000000" y1="482.000000" x2="66.000000" y2="482.000000"  style="stroke:black; stroke-linecap:round; stroke-width:0.25;"/>
<line x1="66.000000" y1="482.000000" x2="74.000000" y2="482.000000"  style="stroke:black; stroke-linecap:round; stroke-width:0.25;"/>
<line x1="74.000000" y1="256.000000" x2="74.000000" y2="256.000000"  style="stroke:black; stroke-linecap:round; stroke-width:0.25;"/>
<line x1="74.000000" y1="256.000000" x2="74.000000" y2="474.000000"  style="stroke:black; stroke-linecap:round; stroke-width:0.25;"/>
<line x1="74.000000" y1="474.000000" x2="74.000000" y2="474.000000"  style="stroke:black; stroke-linecap:round; stroke-width:0.25;"/>
<line x1="74.000000" y1="474.000000" x2="337.150000" y2="474.000000"  style="stroke:black; stroke-linecap:round; stroke-width:0.25;"/>
<line x1="74.000000" y1="482.000000" x2="337.150000" y2="482.000000"  style="stroke:black; stroke-linecap:round; stroke-width:0.25;"/>
<line x1="78.000000" y1="256.000000" x2="74.000000" y2="256.000000"  style="stroke:black; stroke-linecap:round; stroke-width:0.25;"/>
<line x1="106.000000" y1="252.000000" x2="102.000000" y2="252.000000"  style="stroke:black; stroke-linecap:round; stroke-width:0.25;"/>
<line x1="106.000000" y1="260.000000" x2="102.000000" y2="260.000000"  style="stroke:black; stroke-linecap:round; stroke-width:0.25;"/>
<line x1="106.000000" y1="260.000000" x2="106.000000" y2="260.000000"  style="stroke:black; stroke-linecap:round; stroke-width:0.25;"/>
<line x1="106.000000" y1="288.000000" x2="106.000000" y2="260.000000"  style="stroke:black; stroke-linecap:round; stroke-width:0.25;"/>
<line x1="114.000000" y1="82.000000" x2="114.000000" y2="82.000000"  style="stroke:black; stroke-linecap:round; stroke-width:0.25;"/>
<line x1="114.000000" y1="82.000000" x2="114.000000" y2="252.000000"  style="stroke:black; stroke-linecap:round; stroke-width:0.25;"/>
<line x1="114.000000" y1="252.000000" x2="106.000000" y2="252.000000"  style="stroke:black; stroke-linecap:round; stroke-width:0.25;"/>
<line x1="114.000000" y1="288.000000" x2="106.000000" y2="288.000000"  style="stroke:black; stroke-linecap:round; stroke-width:0.25;"/>
<line x1="124.000000" y1="288.000000" x2="114.000000" y2="288.000000"  style="stroke:black; stroke-linecap:round; stroke-width:0.25;"/>
<line x1="128.000000" y1="288.000000" x2="124.000000" y2="288.000000"  style="stroke:black; stroke-linecap:round; stroke-width:0.25;"/>
<line x1="156.000000" y1="284.000000" x2="152.000000" y2="284.000000"  style="stroke:black; stroke-linecap:round; stroke-width:0.25;"/>
<line x1="156.000000" y1="292.000000" x2="152.000000" y2="292.000000"  style="stroke:black; stroke-linecap:round; stroke-width:0.25;"/>
<line x1="156.000000" y1="292.000000" x2="156.000000" y2="292.000000"  style="stroke:black; stroke-linecap:round; stroke-width:0.25;"/>
<line x1="156.000000" y1="436.000000" x2="156.000000" y2="292.000000"  style="stroke:black; stroke-linecap:round; stroke-width:0.25;"/>
<line x1="164.000000" y1="272.000000" x2="164.000000" y2="272.000000"  style="stroke:black; stroke-linecap:round; stroke-width:0.25;"/>
<line x1="164.000000" y1="272.000000" x2="164.000000" y2="284.000000"  style="stroke:black; stroke-linecap:round; stroke-width:0.25;"/>
<line x1="164.000000" y1="284.000000" x2="156.000000" y2="284.000000"  style="stroke:black; stroke-linecap:round; stroke-width:0.25;"/>
<line x1="164.000000" y1="436.000000" x2="156.000000" y2="436.000000"  style="stroke:black; stroke-linecap:round; stroke-width:0.25;"/>
<line x1="168.000000" y1="272.000000" x2="164.000000" y2="272.000000"  style="stroke:black; stroke-linecap:round; stroke-width:0.25;"/>
<line x1="196.000000" y1="268.000000" x2="192.000000" y2="268.000000"  style="stroke:black; stroke-linecap:round; stroke-width:0.25;"/>
<line x1="196.000000" y1="276.000000" x2="192.000000" y2="276.000000"  style="stroke:black; stroke-linecap:round; stroke-width:0.25;"/>
<line x1="196.000000" y1="276.000000" x2="196.000000" y2="276.000000"  style="stroke:black; stroke-linecap:round; stroke-width:0.25;"/>
<line x1="196.000000" y1="404.000000" x2="196.000000" y2="276.000000"  style="stroke:black; stroke-linecap:round; stroke-width:0.25;"/>
<line x1="204.000000" y1="256.000000" x2="204.000000" y2="256.000000"  style="stroke:black; stroke-linecap:round; stroke-width:0.25;"/>
<line x1="204.000000" y1="256.000000" x2="204.000000" y2="268.000000"  style="stroke:black; stroke-linecap:round; stroke-width:0.25;"/>
<line x1="204.000000" y1="268.000000" x2="196.000000" y2="268.000000"  style="stroke:black; stroke-linecap:round; stroke-width:0.25;"/>
<line x1="204.000000" y1="404.000000" x2="196.000000" y2="404.000000"  style="stroke:black; stroke-linecap:round; stroke-width:0.25;"/>
<line x1="208.000000" y1="256.000000" x2="204.000000" y2="256.000000"  style="stroke:black; stroke-linecap:round; stroke-width:0.25;"/>
<line x1="236.000000" y1="252.000000" x2="232.000000" y2="252.000000"  style="stroke:black; stroke-linecap:round; stroke-width:0.25;"/>
<line x1="236.000000" y1="260.000000" x2="232.000000" y2="260.000000"  style="stroke:black; stroke-linecap:round; stroke-width:0.25;"/>
<line x1="236.000000" y1="260.000000" x2="236.000000" y2="260.000000"  style="stroke:black; stroke-linecap:round; stroke-width:0.25;"/>
<line x1="236.000000" y1="372.000000" x2="236.000000" y2="260.000000"  style="stroke:black; stroke-linecap:round; stroke-width:0.25;"/>
<line x1="244.000000" y1="240.000000" x2="244.000000" y2="240.000000"  style="stroke:black; stroke-linecap:round; stroke-width:0.25;"/>
<line x1="244.000000" y1="240.000000" x2="244.000000" y2="252.000000"  style="stroke:black; stroke-linecap:round; stroke-width:0.25;"/>
<line x1="244.000000" y1="252.000000" x2="236.000000" y2="252.000000"  style="stroke:black; stroke-linecap:round; stroke-width:0.25;"/>
<line x1="244.000000" y1="372.000000" x2="236.000000" y2="372.000000"  style="stroke:black; stroke-linecap:round; stroke-width:0.25;"/>
<line x1="248.000000" y1="240.000000" x2="244.000000" y2="240.000000"  style="stroke:black; stroke-linecap:round; stroke-width:0.25;"/>
<line x1="252.400000" y1="82.000000" x2="114.000000" y2="82.000000"  style="stroke:black; stroke-linecap:round; stroke-width:0.25;"/>
<line x1="256.400000" y1="82.000000" x2="252.400000" y2="82.000000"  style="stroke:black; stroke-linecap:round; stroke-width:0.25;"/>
<line x1="276.000000" y1="236.000000" x2="272.000000" y2="236.000000"  style="stroke:black; stroke-linecap:round; stroke-width:0.25;"/>
<line x1="276.000000" y1="244.000000" x2="272.000000" y2="244.000000"  style="stroke:black; stroke-linecap:round; stroke-width:0.25;"/>
<line x1="276.000000" y1="244.000000" x2="276.000000" y2="244.000000"  style="stroke:black; stroke-linecap:round; stroke-width:0.25;"/>
<line x1="276.000000" y1="256.000000" x2="276.000000" y2="244.000000"  style="stroke:black; stroke-linecap:round; stroke-width:0.25;"/>
<line x1="284.000000" y1="140.000000" x2="284.000000" y2="140.000000"  style="stroke:black; stroke-linecap:round; stroke-width:0.25;"/>
<line x1="284.000000" y1="140.000000" x2="284.000000" y2="236.000000"  style="stroke:black; stroke-linecap:round; stroke-width:0.25;"/>
<line x1="284.000000" y1="236.000000" x2="276.000000" y2="236.000000"  style="stroke:black; stroke-linecap:round; stroke-width:0.25;"/>
<line x1="284.000000" y1="256.000000" x2="276.000000" y2="256.000000"  style="stroke:black; stroke-linecap:round; stroke-width:0.25;"/>
<line x1="284.400000" y1="78.000000" x2="280.400000" y2="78.000000"  style="stroke:black; stroke-linecap:round; stroke-width:0.25;"/>
<line x1="284.400000" y1="86.000000" x2="280.400000" y2="86.000000"  style="stroke:black; stroke-linecap:round; stroke-width:0.25;"/>
<line x1="284.400000" y1="86.000000" x2="284.400000" y2="86.000000"  style="stroke:black; stroke-linecap:round; stroke-width:0.25;"/>
<line x1="284.400000" y1="98.000000" x2="284.400000" y2="86.000000"  style="stroke:black; stroke-linecap:round; stroke-width:0.25;"/>
<line x1="288.000000" y1="256.000000" x2="284.000000" y2="256.000000"  style="stroke:black; stroke-linecap:round; stroke-width:0.25;"/>
<line x1="292.400000" y1="66.000000" x2="292.400000" y2="66.000000"  style="stroke:black; stroke-linecap:round; stroke-width:0.25;"/>
<line x1="292.400000" y1="66.000000" x2="292.400000" y2="78.000000"  style="stroke:black; stroke-linecap:round; stroke-width:0.25;"/>
<line x1="292.400000" y1="78.000000" x2="284.400000" y2="78.000000"  style="stroke:black; stroke-linecap:round; stroke-width:0.25;"/>
<line x1="292.400000" y1="98.000000" x2="284.400000" y2="98.000000"  style="stroke:black; stroke-linecap:round; stroke-width:0.25;"/>
<line x1="296.400000" y1="98.000000" x2="292.400000" y2="98.000000"  style="stroke:black; stroke-linecap:round; stroke-width:0.25;"/>
<line x1="316.000000" y1="256.000000" x2="312.000000" y2="256.000000"  style="stroke:black; stroke-linecap:round; stroke-width:0.25;"/>
<line x1="316.000000" y1="256.000000" x2="316.000000" y2="256.000000"  style="stroke:black; stroke-linecap:round; stroke-width:0.25;"/>
<line x1="320.000000" y1="256.000000" x2="316.000000" y2="256.000000"  style="stroke:black; stroke-linecap:round; stroke-width:0.25;"/>
<line x1="337.150000" y1="474.000000" x2="341.150000" y2="474.000000"  style="stroke:black; stroke-linecap:round; stroke-width:0.25;"/>
<line x1="337.150000" y1="482.000000" x2="341.150000" y2="482.000000"  style="stroke:black; stroke-linecap:round; stroke-width:0.25;"/>
<line x1="348.000000" y1="252.000000" x2="344.000000" y2="252.000000"  style="stroke:black; stroke-linecap:round; stroke-width:0.25;"/>
<line x1="348.000000" y1="260.000000" x2="344.000000" y2="260.000000"  style="stroke:black; stroke-linecap:round; stroke-width:0.25;"/>
<line x1="348.000000" y1="260.000000" x2="348.000000" y2="260.000000"  style="stroke:black; stroke-linecap:round; stroke-width:0.25;"/>
<line x1="348.000000" y1="340.000000" x2="348.000000" y2="260.000000"  style="stroke:black; stroke-linecap:round; stroke-width:0.25;"/>
<line x1="356.000000" y1="240.000000" x2="356.000000" y2="240.000000"  style="stroke:black; stroke-linecap:round; stroke-width:0.25;"/>
<line x1="356.000000" y1="240.000000" x2="356.000000" y2="252.000000"  style="stroke:black; stroke-linecap:round; stroke-width:0.25;"/>
<line x1="356.000000" y1="252.000000" x2="348.000000" y2="252.000000"  style="stroke:black; stroke-linecap:round; stroke-width:0.25;"/>
<line x1="356.000000" y1="340.000000" x2="348.000000" y2="340.000000"  style="stroke:black; stroke-linecap:round; stroke-width:0.25;"/>
<line x1="359.350000" y1="436.000000" x2="164.000000" y2="436.000000"  style="stroke:black; stroke-linecap:round; stroke-width:0.25;"/>
<line x1="363.350000" y1="436.000000" x2="359.350000" y2="436.000000"  style="stroke:black; stroke-linecap:round; stroke-width:0.25;"/>
<line x1="365.050000" y1="340.000000" x2="356.000000" y2="340.000000"  style="stroke:black; stroke-linecap:round; stroke-width:0.25;"/>
<line x1="365.150000" y1="478.000000" x2="369.150000" y2="478.000000"  style="stroke:black; stroke-linecap:round; stroke-width:0.25;"/>
<line x1="366.000000" y1="240.000000" x2="356.000000" y2="240.000000"  style="stroke:black; stroke-linecap:round; stroke-width:0.25;"/>
<line x1="369.050000" y1="340.000000" x2="365.050000" y2="340.000000"  style="stroke:black; stroke-linecap:round; stroke-width:0.25;"/>
<line x1="369.150000" y1="478.000000" x2="632.300000" y2="478.000000"  style="stroke:black; stroke-linecap:round; stroke-width:0.25;"/>
<line x1="370.000000" y1="240.000000" x2="366.000000" y2="240.000000"  style="stroke:black; stroke-linecap:round; stroke-width:0.25;"/>
<line x1="376.250000" y1="66.000000" x2="292.400000" y2="66.000000"  style="stroke:black; stroke-linecap:round; stroke-width:0.25;"/>
<line x1="379.350000" y1="404.000000" x2="204.000000" y2="404.000000"  style="stroke:black; stroke-linecap:round; stroke-width:0.25;"/>
<line x1="380.250000" y1="66.000000" x2="376.250000" y2="66.000000"  style="stroke:black; stroke-linecap:round; stroke-width:0.25;"/>
<line x1="383.350000" y1="404.000000" x2="379.350000" y2="404.000000"  style="stroke:black; stroke-linecap:round; stroke-width:0.25;"/>
<line x1="398.000000" y1="236.000000" x2="394.000000" y2="236.000000"  style="stroke:black; stroke-linecap:round; stroke-width:0.25;"/>
<line x1="398.000000" y1="244.000000" x2="394.000000" y2="244.000000"  style="stroke:black; stroke-linecap:round; stroke-width:0.25;"/>
<line x1="398.000000" y1="244.000000" x2="398.000000" y2="244.000000"  style="stroke:black; stroke-linecap:round; stroke-width:0.25;"/>
<line x1="398.000000" y1="256.000000" x2="398.000000" y2="244.000000"  style="stroke:black; stroke-linecap:round; stroke-width:0.25;"/>
<line x1="400.250000" y1="372.000000" x2="244.000000" y2="372.000000"  style="stroke:black; stroke-linecap:round; stroke-width:0.25;"/>
<line x1="404.250000" y1="372.000000" x2="400.250000" y2="372.000000"  style="stroke:black; stroke-linecap:round; stroke-width:0.25;"/>
<line x1="406.000000" y1="182.000000" x2="406.000000" y2="182.000000"  style="stroke:black; stroke-linecap:round; stroke-width:0.25;"/>
<line x1="406.000000" y1="182.000000" x2="406.000000" y2="236.000000"  style="stroke:black; stroke-linecap:round; stroke-width:0.25;"/>
<line x1="406.000000" y1="236.000000" x2="398.000000" y2="236.000000"  style="stroke:black; stroke-linecap:round; stroke-width:0.25;"/>
<line x1="406.000000" y1="256.000000" x2="398.000000" y2="256.000000"  style="stroke:black; stroke-linecap:round; stroke-width:0.25;"/>
<line x1="416.000000" y1="256.000000" x2="406.000000" y2="256.000000"  style="stroke:black; stroke-linecap:round; stroke-width:0.25;"/>
<line x1="420.000000" y1="256.000000" x2="416.000000" y2="256.000000"  style="stroke:black; stroke-linecap:round; stroke-width:0.25;"/>
<line x1="420.250000" y1="140.000000" x2="284.000000" y2="140.000000"  style="stroke:black; stroke-linecap:round; stroke-width:0.25;"/>
<line x1="424.250000" y1="140.000000" x2="420.250000" y2="140.000000"  style="stroke:black; stroke-linecap:round; stroke-width:0.25;"/>
<line x1="448.000000" y1="252.000000" x2="444.000000" y2="252.000000"  style="stroke:black; stroke-linecap:round; stroke-width:0.25;"/>
<line x1="448.000000" y1="260.000000" x2="444.000000" y2="260.000000"  style="stroke:black; stroke-linecap:round; stroke-width:0.25;"/>
<line x1="448.000000" y1="260.000000" x2="448.000000" y2="260.000000"  style="stroke:black; stroke-linecap:round; stroke-width:0.25;"/>
<line x1="448.000000" y1="288.000000" x2="448.000000" y2="260.000000"  style="stroke:black; stroke-linecap:round; stroke-width:0.25;"/>
<line x1="456.000000" y1="240.000000" x2="456.000000" y2="240.000000"  style="stroke:black; stroke-linecap:round; stroke-width:0.25;"/>
<line x1="456.000000" y1="240.000000" x2="456.000000" y2="252.000000"  style="stroke:black; stroke-linecap:round; stroke-width:0.25;"/>
<line x1="456.000000" y1="252.000000" x2="448.000000" y2="252.000000"  style="stroke:black; stroke-linecap:round; stroke-width:0.25;"/>
<line x1="456.000000" y1="288.000000" x2="448.000000" y2="288.000000"  style="stroke:black; stroke-linecap:round; stroke-width:0.25;"/>
<line x1="460.000000" y1="240.000000" x2="456.000000" y2="240.000000"  style="stroke:black; stroke-linecap:round; stroke-width:0.25;"/>
<line x1="475.350000" y1="182.000000" x2="406.000000" y2="182.000000"  style="stroke:black; stroke-linecap:round; stroke-width:0.25;"/>
<line x1="479.350000" y1="182.000000" x2="475.350000" y2="182.000000"  style="stroke:black; stroke-linecap:round; stroke-width:0.25;"/>
<line x1="488.000000" y1="236.000000" x2="484.000000" y2="236.000000"  style="stroke:black; stroke-linecap:round; stroke-width:0.25;"/>
<line x1="488.000000" y1="244.000000" x2="484.000000" y2="244.000000"  style="stroke:black; stroke-linecap:round; stroke-width:0.25;"/>
<line x1="488.000000" y1="244.000000" x2="488.000000" y2="244.000000"  style="stroke:black; stroke-linecap:round; stroke-width:0.25;"/>
<line x1="488.000000" y1="256.000000" x2="488.000000" y2="244.000000"  style="stroke:black; stroke-linecap:round; stroke-width:0.25;"/>
<line x1="488.900000" y1="288.000000" x2="456.000000" y2="288.000000"  style="stroke:black; stroke-linecap:round; stroke-width:0.25;"/>
<line x1="492.900000" y1="288.000000" x2="488.900000" y2="288.000000"  style="stroke:black; stroke-linecap:round; stroke-width:0.25;"/>
<line x1="496.000000" y1="224.000000" x2="496.000000" y2="224.000000"  style="stroke:black; stroke-linecap:round; stroke-width:0.25;"/>
<line x1="496.000000" y1="224.000000" x2="496.000000" y2="236.000000"  style="stroke:black; stroke-linecap:round; stroke-width:0.25;"/>
<line x1="496.000000" y1="236.000000" x2="488.000000" y2="236.000000"  style="stroke:black; stroke-linecap:round; stroke-width:0.25;"/>
<line x1="496.000000" y1="256.000000" x2="488.000000" y2="256.000000"  style="stroke:black; stroke-linecap:round; stroke-width:0.25;"/>
<line x1="500.000000" y1="224.000000" x2="496.000000" y2="224.000000"  style="stroke:black; stroke-linecap:round; stroke-width:0.25;"/>
<line x1="515.350000" y1="256.000000" x2="496.000000" y2="256.000000"  style="stroke:black; stroke-linecap:round; stroke-width:0.25;"/>
<line x1="519.350000" y1="256.000000" x2="515.350000" y2="256.000000"  style="stroke:black; stroke-linecap:round; stroke-width:0.25;"/>
<line x1="622.300000" y1="288.000000" x2="618.300000" y2="288.000000"  style="stroke:black; stroke-linecap:round; stroke-width:0.25;"/>
<line x1="632.300000" y1="288.000000" x2="622.300000" y2="288.000000"  style="stroke:black; stroke-linecap:round; stroke-width:0.25;"/>
<line x1="632.300000" y1="288.000000" x2="632.300000" y2="288.000000"  style="stroke:black; stroke-linecap:round; stroke-width:0.25;"/>
<line x1="632.300000" y1="474.000000" x2="632.300000" y2="288.000000"  style="stroke:black; stroke-linecap:round; stroke-width:0.25;"/>
<line x1="632.300000" y1="478.000000" x2="634.300000" y2="478.000000"  style="stroke:black; stroke-linecap:round; stroke-width:0.25;"/>
<line x1="634.300000" y1="478.000000" x2="640.300000" y2="478.000000"  style="stroke:black; stroke-linecap:round; stroke-width:0.25;"/>
<line x1="640.300000" y1="478.000000" x2="650.300000" y2="478.000000"  style="stroke:black; stroke-linecap:round; stroke-width:0.25;"/>
<line x1="650.300000" y1="478.000000" x2="660.300000" y2="478.000000"  style="stroke:black; stroke-linecap:round; stroke-width:0.25;"/>
<line x1="660.300000" y1="478.000000" x2="670.300000" y2="478.000000"  style="stroke:black; stroke-linecap:round; stroke-width:0.25;"/>
<line x1="670.300000" y1="272.000000" x2="678.300000" y2="272.000000"  style="stroke:black; stroke-linecap:round; stroke-width:0.25;"/>
<line x1="670.300000" y1="478.000000" x2="670.300000" y2="272.000000"  style="stroke:black; stroke-linecap:round; stroke-width:0.25;"/>
<line x1="670.300000" y1="478.000000" x2="670.300000" y2="478.000000"  style="stroke:black; stroke-linecap:round; stroke-width:0.25;"/>
<line x1="678.300000" y1="272.000000" x2="682.300000" y2="272.000000"  style="stroke:black; stroke-linecap:round; stroke-width:0.25;"/>
<line x1="682.300000" y1="272.000000" x2="686.300000" y2="272.000000"  style="stroke:black; stroke-linecap:round; stroke-width:0.25;"/>
<line x1="686.300000" y1="272.000000" x2="696.300000" y2="272.000000"  style="stroke:black; stroke-linecap:round; stroke-width:0.25;"/>
</svg>
