<?xml version="1.0"?>
<svg xmlns="http://www.w3.org/2000/svg" xmlns:xlink="http://www.w3.org/1999/xlink" viewBox="0 0 302.700000 360.000000" width="151.350000mm" height="180.000000mm" version="1.1">
<a xlink:href="if-0x7f83e8a10ca0.svg">
<rect x="1.000000" y="1.000000" width="301.700000" height="359.000000" rx="0" ry="0" style="stroke:none;fill:#cccccc;"/>
<rect x="0.000000" y="0.000000" width="301.700000" height="359.000000" rx="0" ry="0" style="stroke:none;fill:#ffffff;"/>
</a>
<text x="10.000000" y="7.000000" font-family="Arial" font-size="7"></text>
<rect x="85.000000" y="25.000000" width="24.000000" height="24.000000" rx="0" ry="0" style="stroke:none;fill:#cccccc;"/>
<rect x="84.000000" y="24.000000" width="24.000000" height="24.000000" rx="0" ry="0" style="stroke:none;fill:#47945E;"/>
<text x="96.000000" y="38.000000" font-family="Arial" font-size="7" text-anchor="middle" fill="#FFFFFF">x</text>
<circle cx="86.000000" cy="26.000000" r="1"/>
<rect x="85.000000" y="57.000000" width="24.000000" height="24.000000" rx="0" ry="0" style="stroke:none;fill:#cccccc;"/>
<rect x="84.000000" y="56.000000" width="24.000000" height="24.000000" rx="0" ry="0" style="stroke:none;fill:#f44800;"/>
<text x="96.000000" y="70.000000" font-family="Arial" font-size="7" text-anchor="middle" fill="#FFFFFF">18</text>
<circle cx="86.000000" cy="58.000000" r="1"/>
<rect x="125.000000" y="41.000000" width="24.000000" height="24.000000" rx="0" ry="0" style="stroke:none;fill:#cccccc;"/>
<rect x="124.000000" y="40.000000" width="24.000000" height="24.000000" rx="0" ry="0" style="stroke:none;fill:#4B71A1;"/>
<text x="136.000000" y="54.000000" font-family="Arial" font-size="7" text-anchor="middle" fill="#FFFFFF">&lt;</text>
<circle cx="126.000000" cy="42.000000" r="1"/>
<line x1="121.000000" y1="47.000000" x2="124.000000" y2="48.000000"  transform="rotate(0.000000,124.000000,48.000000)" style="stroke: black; stroke-width:0.25;"/>
<line x1="121.000000" y1="49.000000" x2="124.000000" y2="48.000000"  transform="rotate(0.000000,124.000000,48.000000)" style="stroke: black; stroke-width:0.25;"/>
<line x1="121.000000" y1="55.000000" x2="124.000000" y2="56.000000"  transform="rotate(0.000000,124.000000,56.000000)" style="stroke: black; stroke-width:0.25;"/>
<line x1="121.000000" y1="57.000000" x2="124.000000" y2="56.000000"  transform="rotate(0.000000,124.000000,56.000000)" style="stroke: black; stroke-width:0.25;"/>
<rect x="105.000000" y="89.000000" width="24.000000" height="24.000000" rx="0" ry="0" style="stroke:none;fill:#cccccc;"/>
<rect x="104.000000" y="88.000000" width="24.000000" height="24.000000" rx="0" ry="0" style="stroke:none;fill:#f44800;"/>
<text x="116.000000" y="102.000000" font-family="Arial" font-size="7" text-anchor="middle" fill="#FFFFFF">120</text>
<circle cx="106.000000" cy="90.000000" r="1"/>
<rect x="85.000000" y="121.000000" width="24.000000" height="24.000000" rx="0" ry="0" style="stroke:none;fill:#cccccc;"/>
<rect x="84.000000" y="120.000000" width="24.000000" height="24.000000" rx="0" ry="0" style="stroke:none;fill:#47945E;"/>
<text x="96.000000" y="134.000000" font-family="Arial" font-size="7" text-anchor="middle" fill="#FFFFFF">y0</text>
<circle cx="86.000000" cy="122.000000" r="1"/>
<rect x="25.000000" y="153.000000" width="24.000000" height="24.000000" rx="0" ry="0" style="stroke:none;fill:#cccccc;"/>
<rect x="24.000000" y="152.000000" width="24.000000" height="24.000000" rx="0" ry="0" style="stroke:none;fill:#47945E;"/>
<text x="36.000000" y="166.000000" font-family="Arial" font-size="7" text-anchor="middle" fill="#FFFFFF">x</text>
<circle cx="26.000000" cy="154.000000" r="1"/>
<rect x="25.000000" y="185.000000" width="24.000000" height="24.000000" rx="0" ry="0" style="stroke:none;fill:#cccccc;"/>
<rect x="24.000000" y="184.000000" width="24.000000" height="24.000000" rx="0" ry="0" style="stroke:none;fill:#47945E;"/>
<text x="36.000000" y="198.000000" font-family="Arial" font-size="7" text-anchor="middle" fill="#FFFFFF">x0</text>
<circle cx="26.000000" cy="186.000000" r="1"/>
<rect x="65.000000" y="169.000000" width="24.000000" height="24.000000" rx="0" ry="0" style="stroke:none;fill:#cccccc;"/>
<rect x="64.000000" y="168.000000" width="24.000000" height="24.000000" rx="0" ry="0" style="stroke:none;fill:#4B71A1;"/>
<text x="76.000000" y="182.000000" font-family="Arial" font-size="7" text-anchor="middle" fill="#FFFFFF">-</text>
<circle cx="66.000000" cy="170.000000" r="1"/>
<line x1="61.000000" y1="175.000000" x2="64.000000" y2="176.000000"  transform="rotate(0.000000,64.000000,176.000000)" style="stroke: black; stroke-width:0.25;"/>
<line x1="61.000000" y1="177.000000" x2="64.000000" y2="176.000000"  transform="rotate(0.000000,64.000000,176.000000)" style="stroke: black; stroke-width:0.25;"/>
<line x1="61.000000" y1="183.000000" x2="64.000000" y2="184.000000"  transform="rotate(0.000000,64.000000,184.000000)" style="stroke: black; stroke-width:0.25;"/>
<line x1="61.000000" y1="185.000000" x2="64.000000" y2="184.000000"  transform="rotate(0.000000,64.000000,184.000000)" style="stroke: black; stroke-width:0.25;"/>
<rect x="25.000000" y="217.000000" width="24.000000" height="24.000000" rx="0" ry="0" style="stroke:none;fill:#cccccc;"/>
<rect x="24.000000" y="216.000000" width="24.000000" height="24.000000" rx="0" ry="0" style="stroke:none;fill:#f44800;"/>
<text x="36.000000" y="230.000000" font-family="Arial" font-size="7" text-anchor="middle" fill="#FFFFFF">120</text>
<circle cx="26.000000" cy="218.000000" r="1"/>
<rect x="25.000000" y="249.000000" width="24.000000" height="24.000000" rx="0" ry="0" style="stroke:none;fill:#cccccc;"/>
<rect x="24.000000" y="248.000000" width="24.000000" height="24.000000" rx="0" ry="0" style="stroke:none;fill:#47945E;"/>
<text x="36.000000" y="262.000000" font-family="Arial" font-size="7" text-anchor="middle" fill="#FFFFFF">y0</text>
<circle cx="26.000000" cy="250.000000" r="1"/>
<rect x="65.000000" y="233.000000" width="24.000000" height="24.000000" rx="0" ry="0" style="stroke:none;fill:#cccccc;"/>
<rect x="64.000000" y="232.000000" width="24.000000" height="24.000000" rx="0" ry="0" style="stroke:none;fill:#4B71A1;"/>
<text x="76.000000" y="246.000000" font-family="Arial" font-size="7" text-anchor="middle" fill="#FFFFFF">-</text>
<circle cx="66.000000" cy="234.000000" r="1"/>
<line x1="61.000000" y1="239.000000" x2="64.000000" y2="240.000000"  transform="rotate(0.000000,64.000000,240.000000)" style="stroke: black; stroke-width:0.25;"/>
<line x1="61.000000" y1="241.000000" x2="64.000000" y2="240.000000"  transform="rotate(0.000000,64.000000,240.000000)" style="stroke: black; stroke-width:0.25;"/>
<line x1="61.000000" y1="247.000000" x2="64.000000" y2="248.000000"  transform="rotate(0.000000,64.000000,248.000000)" style="stroke: black; stroke-width:0.25;"/>
<line x1="61.000000" y1="249.000000" x2="64.000000" y2="248.000000"  transform="rotate(0.000000,64.000000,248.000000)" style="stroke: black; stroke-width:0.25;"/>
<rect x="105.000000" y="201.000000" width="24.000000" height="24.000000" rx="0" ry="0" style="stroke:none;fill:#cccccc;"/>
<rect x="104.000000" y="200.000000" width="24.000000" height="24.000000" rx="0" ry="0" style="stroke:none;fill:#4B71A1;"/>
<text x="116.000000" y="214.000000" font-family="Arial" font-size="7" text-anchor="middle" fill="#FFFFFF">*</text>
<circle cx="106.000000" cy="202.000000" r="1"/>
<line x1="101.000000" y1="207.000000" x2="104.000000" y2="208.000000"  transform="rotate(0.000000,104.000000,208.000000)" style="stroke: black; stroke-width:0.25;"/>
<line x1="101.000000" y1="209.000000" x2="104.000000" y2="208.000000"  transform="rotate(0.000000,104.000000,208.000000)" style="stroke: black; stroke-width:0.25;"/>
<line x1="101.000000" y1="215.000000" x2="104.000000" y2="216.000000"  transform="rotate(0.000000,104.000000,216.000000)" style="stroke: black; stroke-width:0.25;"/>
<line x1="101.000000" y1="217.000000" x2="104.000000" y2="216.000000"  transform="rotate(0.000000,104.000000,216.000000)" style="stroke: black; stroke-width:0.25;"/>
<rect x="45.000000" y="281.000000" width="24.000000" height="24.000000" rx="0" ry="0" style="stroke:none;fill:#cccccc;"/>
<rect x="44.000000" y="280.000000" width="24.000000" height="24.000000" rx="0" ry="0" style="stroke:none;fill:#f44800;"/>
<text x="56.000000" y="294.000000" font-family="Arial" font-size="7" text-anchor="middle" fill="#FFFFFF">18</text>
<circle cx="46.000000" cy="282.000000" r="1"/>
<rect x="45.000000" y="313.000000" width="24.000000" height="24.000000" rx="0" ry="0" style="stroke:none;fill:#cccccc;"/>
<rect x="44.000000" y="312.000000" width="24.000000" height="24.000000" rx="0" ry="0" style="stroke:none;fill:#47945E;"/>
<text x="56.000000" y="326.000000" font-family="Arial" font-size="7" text-anchor="middle" fill="#FFFFFF">x0</text>
<circle cx="46.000000" cy="314.000000" r="1"/>
<rect x="85.000000" y="297.000000" width="24.000000" height="24.000000" rx="0" ry="0" style="stroke:none;fill:#cccccc;"/>
<rect x="84.000000" y="296.000000" width="24.000000" height="24.000000" rx="0" ry="0" style="stroke:none;fill:#4B71A1;"/>
<text x="96.000000" y="310.000000" font-family="Arial" font-size="7" text-anchor="middle" fill="#FFFFFF">-</text>
<circle cx="86.000000" cy="298.000000" r="1"/>
<line x1="81.000000" y1="303.000000" x2="84.000000" y2="304.000000"  transform="rotate(0.000000,84.000000,304.000000)" style="stroke: black; stroke-width:0.25;"/>
<line x1="81.000000" y1="305.000000" x2="84.000000" y2="304.000000"  transform="rotate(0.000000,84.000000,304.000000)" style="stroke: black; stroke-width:0.25;"/>
<line x1="81.000000" y1="311.000000" x2="84.000000" y2="312.000000"  transform="rotate(0.000000,84.000000,312.000000)" style="stroke: black; stroke-width:0.25;"/>
<line x1="81.000000" y1="313.000000" x2="84.000000" y2="312.000000"  transform="rotate(0.000000,84.000000,312.000000)" style="stroke: black; stroke-width:0.25;"/>
<rect x="145.000000" y="233.000000" width="24.000000" height="24.000000" rx="0" ry="0" style="stroke:none;fill:#cccccc;"/>
<rect x="144.000000" y="232.000000" width="24.000000" height="24.000000" rx="0" ry="0" style="stroke:none;fill:#4B71A1;"/>
<text x="156.000000" y="246.000000" font-family="Arial" font-size="7" text-anchor="middle" fill="#FFFFFF">/</text>
<circle cx="146.000000" cy="234.000000" r="1"/>
<line x1="141.000000" y1="239.000000" x2="144.000000" y2="240.000000"  transform="rotate(0.000000,144.000000,240.000000)" style="stroke: black; stroke-width:0.25;"/>
<line x1="141.000000" y1="241.000000" x2="144.000000" y2="240.000000"  transform="rotate(0.000000,144.000000,240.000000)" style="stroke: black; stroke-width:0.25;"/>
<line x1="141.000000" y1="247.000000" x2="144.000000" y2="248.000000"  transform="rotate(0.000000,144.000000,248.000000)" style="stroke: black; stroke-width:0.25;"/>
<line x1="141.000000" y1="249.000000" x2="144.000000" y2="248.000000"  transform="rotate(0.000000,144.000000,248.000000)" style="stroke: black; stroke-width:0.25;"/>
<rect x="185.000000" y="217.000000" width="24.000000" height="24.000000" rx="0" ry="0" style="stroke:none;fill:#cccccc;"/>
<rect x="184.000000" y="216.000000" width="24.000000" height="24.000000" rx="0" ry="0" style="stroke:none;fill:#4B71A1;"/>
<text x="196.000000" y="230.000000" font-family="Arial" font-size="7" text-anchor="middle" fill="#FFFFFF">+</text>
<circle cx="186.000000" cy="218.000000" r="1"/>
<line x1="181.000000" y1="223.000000" x2="184.000000" y2="224.000000"  transform="rotate(0.000000,184.000000,224.000000)" style="stroke: black; stroke-width:0.25;"/>
<line x1="181.000000" y1="225.000000" x2="184.000000" y2="224.000000"  transform="rotate(0.000000,184.000000,224.000000)" style="stroke: black; stroke-width:0.25;"/>
<line x1="181.000000" y1="231.000000" x2="184.000000" y2="232.000000"  transform="rotate(0.000000,184.000000,232.000000)" style="stroke: black; stroke-width:0.25;"/>
<line x1="181.000000" y1="233.000000" x2="184.000000" y2="232.000000"  transform="rotate(0.000000,184.000000,232.000000)" style="stroke: black; stroke-width:0.25;"/>
<rect x="233.000000" y="169.000000" width="38.700000" height="24.000000" rx="0" ry="0" style="stroke:none;fill:#cccccc;"/>
<rect x="232.000000" y="168.000000" width="38.700000" height="24.000000" rx="0" ry="0" style="stroke:none;fill:#4B71A1;"/>
<text x="251.350000" y="182.000000" font-family="Arial" font-size="7" text-anchor="middle" fill="#FFFFFF">select2</text>
<circle cx="234.000000" cy="170.000000" r="1"/>
<line x1="229.000000" y1="171.000000" x2="232.000000" y2="172.000000"  transform="rotate(0.000000,232.000000,172.000000)" style="stroke: black; stroke-width:0.25;"/>
<line x1="229.000000" y1="173.000000" x2="232.000000" y2="172.000000"  transform="rotate(0.000000,232.000000,172.000000)" style="stroke: black; stroke-width:0.25;"/>
<line x1="229.000000" y1="179.000000" x2="232.000000" y2="180.000000"  transform="rotate(0.000000,232.000000,180.000000)" style="stroke: black; stroke-width:0.25;"/>
<line x1="229.000000" y1="181.000000" x2="232.000000" y2="180.000000"  transform="rotate(0.000000,232.000000,180.000000)" style="stroke: black; stroke-width:0.25;"/>
<line x1="229.000000" y1="187.000000" x2="232.000000" y2="188.000000"  transform="rotate(0.000000,232.000000,188.000000)" style="stroke: black; stroke-width:0.25;"/>
<line x1="229.000000" y1="189.000000" x2="232.000000" y2="188.000000"  transform="rotate(0.000000,232.000000,188.000000)" style="stroke: black; stroke-width:0.25;"/>
<line x1="15.000000" y1="15.000000" x2="15.000000" y2="345.000000"  style="stroke: black; stroke-linecap:round; stroke-width:0.25; stroke-dasharray:3,3;"/>
<line x1="15.000000" y1="345.000000" x2="287.700000" y2="345.000000"  style="stroke: black; stroke-linecap:round; stroke-width:0.25; stroke-dasharray:3,3;"/>
<line x1="287.700000" y1="345.000000" x2="287.700000" y2="15.000000"  style="stroke: black; stroke-linecap:round; stroke-width:0.25; stroke-dasharray:3,3;"/>
<line x1="15.000000" y1="15.000000" x2="20.000000" y2="15.000000"  style="stroke: black; stroke-linecap:round; stroke-width:0.25; stroke-dasharray:3,3;"/>
<line x1="136.100000" y1="15.000000" x2="287.700000" y2="15.000000"  style="stroke: black; stroke-linecap:round; stroke-width:0.25; stroke-dasharray:3,3;"/>
<text x="20.000000" y="17.000000" font-family="Arial" font-size="7">if(x2190,18 :... -) : /) : +)(120)</text>
<line x1="289.700000" y1="179.000000" x2="292.700000" y2="180.000000"  transform="rotate(0.000000,292.700000,180.000000)" style="stroke: black; stroke-width:0.25;"/>
<line x1="289.700000" y1="181.000000" x2="292.700000" y2="180.000000"  transform="rotate(0.000000,292.700000,180.000000)" style="stroke: black; stroke-width:0.25;"/>
<line x1="48.000000" y1="164.000000" x2="52.000000" y2="164.000000"  style="stroke:black; stroke-linecap:round; stroke-width:0.25;"/>
<line x1="48.000000" y1="196.000000" x2="52.000000" y2="196.000000"  style="stroke:black; stroke-linecap:round; stroke-width:0.25;"/>
<line x1="48.000000" y1="228.000000" x2="52.000000" y2="228.000000"  style="stroke:black; stroke-linecap:round; stroke-width:0.25;"/>
<line x1="48.000000" y1="260.000000" x2="52.000000" y2="260.000000"  style="stroke:black; stroke-linecap:round; stroke-width:0.25;"/>
<line x1="52.000000" y1="164.000000" x2="60.000000" y2="164.000000"  style="stroke:black; stroke-linecap:round; stroke-width:0.25;"/>
<line x1="52.000000" y1="184.000000" x2="60.000000" y2="184.000000"  style="stroke:black; stroke-linecap:round; stroke-width:0.25;"/>
<line x1="52.000000" y1="196.000000" x2="52.000000" y2="184.000000"  style="stroke:black; stroke-linecap:round; stroke-width:0.25;"/>
<line x1="52.000000" y1="196.000000" x2="52.000000" y2="196.000000"  style="stroke:black; stroke-linecap:round; stroke-width:0.25;"/>
<line x1="52.000000" y1="228.000000" x2="60.000000" y2="228.000000"  style="stroke:black; stroke-linecap:round; stroke-width:0.25;"/>
<line x1="52.000000" y1="248.000000" x2="60.000000" y2="248.000000"  style="stroke:black; stroke-linecap:round; stroke-width:0.25;"/>
<line x1="52.000000" y1="260.000000" x2="52.000000" y2="248.000000"  style="stroke:black; stroke-linecap:round; stroke-width:0.25;"/>
<line x1="52.000000" y1="260.000000" x2="52.000000" y2="260.000000"  style="stroke:black; stroke-linecap:round; stroke-width:0.25;"/>
<line x1="60.000000" y1="164.000000" x2="60.000000" y2="176.000000"  style="stroke:black; stroke-linecap:round; stroke-width:0.25;"/>
<line x1="60.000000" y1="176.000000" x2="60.000000" y2="176.000000"  style="stroke:black; stroke-linecap:round; stroke-width:0.25;"/>
<line x1="60.000000" y1="176.000000" x2="64.000000" y2="176.000000"  style="stroke:black; stroke-linecap:round; stroke-width:0.25;"/>
<line x1="60.000000" y1="184.000000" x2="64.000000" y2="184.000000"  style="stroke:black; stroke-linecap:round; stroke-width:0.25;"/>
<line x1="60.000000" y1="228.000000" x2="60.000000" y2="240.000000"  style="stroke:black; stroke-linecap:round; stroke-width:0.25;"/>
<line x1="60.000000" y1="240.000000" x2="60.000000" y2="240.000000"  style="stroke:black; stroke-linecap:round; stroke-width:0.25;"/>
<line x1="60.000000" y1="240.000000" x2="64.000000" y2="240.000000"  style="stroke:black; stroke-linecap:round; stroke-width:0.25;"/>
<line x1="60.000000" y1="248.000000" x2="64.000000" y2="248.000000"  style="stroke:black; stroke-linecap:round; stroke-width:0.25;"/>
<line x1="68.000000" y1="292.000000" x2="72.000000" y2="292.000000"  style="stroke:black; stroke-linecap:round; stroke-width:0.25;"/>
<line x1="68.000000" y1="324.000000" x2="72.000000" y2="324.000000"  style="stroke:black; stroke-linecap:round; stroke-width:0.25;"/>
<line x1="72.000000" y1="292.000000" x2="80.000000" y2="292.000000"  style="stroke:black; stroke-linecap:round; stroke-width:0.25;"/>
<line x1="72.000000" y1="312.000000" x2="80.000000" y2="312.000000"  style="stroke:black; stroke-linecap:round; stroke-width:0.25;"/>
<line x1="72.000000" y1="324.000000" x2="72.000000" y2="312.000000"  style="stroke:black; stroke-linecap:round; stroke-width:0.25;"/>
<line x1="72.000000" y1="324.000000" x2="72.000000" y2="324.000000"  style="stroke:black; stroke-linecap:round; stroke-width:0.25;"/>
<line x1="80.000000" y1="292.000000" x2="80.000000" y2="304.000000"  style="stroke:black; stroke-linecap:round; stroke-width:0.25;"/>
<line x1="80.000000" y1="304.000000" x2="80.000000" y2="304.000000"  style="stroke:black; stroke-linecap:round; stroke-width:0.25;"/>
<line x1="80.000000" y1="304.000000" x2="84.000000" y2="304.000000"  style="stroke:black; stroke-linecap:round; stroke-width:0.25;"/>
<line x1="80.000000" y1="312.000000" x2="84.000000" y2="312.000000"  style="stroke:black; stroke-linecap:round; stroke-width:0.25;"/>
<line x1="88.000000" y1="180.000000" x2="92.000000" y2="180.000000"  style="stroke:black; stroke-linecap:round; stroke-width:0.25;"/>
<line x1="88.000000" y1="244.000000" x2="92.000000" y2="244.000000"  style="stroke:black; stroke-linecap:round; stroke-width:0.25;"/>
<line x1="92.000000" y1="180.000000" x2="100.000000" y2="180.000000"  style="stroke:black; stroke-linecap:round; stroke-width:0.25;"/>
<line x1="92.000000" y1="216.000000" x2="100.000000" y2="216.000000"  style="stroke:black; stroke-linecap:round; stroke-width:0.25;"/>
<line x1="92.000000" y1="244.000000" x2="92.000000" y2="216.000000"  style="stroke:black; stroke-linecap:round; stroke-width:0.25;"/>
<line x1="92.000000" y1="244.000000" x2="92.000000" y2="244.000000"  style="stroke:black; stroke-linecap:round; stroke-width:0.25;"/>
<line x1="100.000000" y1="180.000000" x2="100.000000" y2="208.000000"  style="stroke:black; stroke-linecap:round; stroke-width:0.25;"/>
<line x1="100.000000" y1="208.000000" x2="100.000000" y2="208.000000"  style="stroke:black; stroke-linecap:round; stroke-width:0.25;"/>
<line x1="100.000000" y1="208.000000" x2="104.000000" y2="208.000000"  style="stroke:black; stroke-linecap:round; stroke-width:0.25;"/>
<line x1="100.000000" y1="216.000000" x2="104.000000" y2="216.000000"  style="stroke:black; stroke-linecap:round; stroke-width:0.25;"/>
<line x1="108.000000" y1="36.000000" x2="112.000000" y2="36.000000"  style="stroke:black; stroke-linecap:round; stroke-width:0.25;"/>
<line x1="108.000000" y1="68.000000" x2="112.000000" y2="68.000000"  style="stroke:black; stroke-linecap:round; stroke-width:0.25;"/>
<line x1="108.000000" y1="132.000000" x2="112.000000" y2="132.000000"  style="stroke:black; stroke-linecap:round; stroke-width:0.25;"/>
<line x1="108.000000" y1="308.000000" x2="112.000000" y2="308.000000"  style="stroke:black; stroke-linecap:round; stroke-width:0.25;"/>
<line x1="112.000000" y1="36.000000" x2="120.000000" y2="36.000000"  style="stroke:black; stroke-linecap:round; stroke-width:0.25;"/>
<line x1="112.000000" y1="56.000000" x2="120.000000" y2="56.000000"  style="stroke:black; stroke-linecap:round; stroke-width:0.25;"/>
<line x1="112.000000" y1="68.000000" x2="112.000000" y2="56.000000"  style="stroke:black; stroke-linecap:round; stroke-width:0.25;"/>
<line x1="112.000000" y1="68.000000" x2="112.000000" y2="68.000000"  style="stroke:black; stroke-linecap:round; stroke-width:0.25;"/>
<line x1="112.000000" y1="132.000000" x2="172.000000" y2="132.000000"  style="stroke:black; stroke-linecap:round; stroke-width:0.25;"/>
<line x1="112.000000" y1="308.000000" x2="132.000000" y2="308.000000"  style="stroke:black; stroke-linecap:round; stroke-width:0.25;"/>
<line x1="120.000000" y1="36.000000" x2="120.000000" y2="48.000000"  style="stroke:black; stroke-linecap:round; stroke-width:0.25;"/>
<line x1="120.000000" y1="48.000000" x2="120.000000" y2="48.000000"  style="stroke:black; stroke-linecap:round; stroke-width:0.25;"/>
<line x1="120.000000" y1="48.000000" x2="124.000000" y2="48.000000"  style="stroke:black; stroke-linecap:round; stroke-width:0.25;"/>
<line x1="120.000000" y1="56.000000" x2="124.000000" y2="56.000000"  style="stroke:black; stroke-linecap:round; stroke-width:0.25;"/>
<line x1="128.000000" y1="100.000000" x2="132.000000" y2="100.000000"  style="stroke:black; stroke-linecap:round; stroke-width:0.25;"/>
<line x1="128.000000" y1="212.000000" x2="132.000000" y2="212.000000"  style="stroke:black; stroke-linecap:round; stroke-width:0.25;"/>
<line x1="132.000000" y1="100.000000" x2="212.000000" y2="100.000000"  style="stroke:black; stroke-linecap:round; stroke-width:0.25;"/>
<line x1="132.000000" y1="212.000000" x2="140.000000" y2="212.000000"  style="stroke:black; stroke-linecap:round; stroke-width:0.25;"/>
<line x1="132.000000" y1="248.000000" x2="140.000000" y2="248.000000"  style="stroke:black; stroke-linecap:round; stroke-width:0.25;"/>
<line x1="132.000000" y1="308.000000" x2="132.000000" y2="248.000000"  style="stroke:black; stroke-linecap:round; stroke-width:0.25;"/>
<line x1="132.000000" y1="308.000000" x2="132.000000" y2="308.000000"  style="stroke:black; stroke-linecap:round; stroke-width:0.25;"/>
<line x1="140.000000" y1="212.000000" x2="140.000000" y2="240.000000"  style="stroke:black; stroke-linecap:round; stroke-width:0.25;"/>
<line x1="140.000000" y1="240.000000" x2="140.000000" y2="240.000000"  style="stroke:black; stroke-linecap:round; stroke-width:0.25;"/>
<line x1="140.000000" y1="240.000000" x2="144.000000" y2="240.000000"  style="stroke:black; stroke-linecap:round; stroke-width:0.25;"/>
<line x1="140.000000" y1="248.000000" x2="144.000000" y2="248.000000"  style="stroke:black; stroke-linecap:round; stroke-width:0.25;"/>
<line x1="148.000000" y1="52.000000" x2="152.000000" y2="52.000000"  style="stroke:black; stroke-linecap:round; stroke-width:0.25;"/>
<line x1="152.000000" y1="52.000000" x2="212.000000" y2="52.000000"  style="stroke:black; stroke-linecap:round; stroke-width:0.25;"/>
<line x1="168.000000" y1="244.000000" x2="172.000000" y2="244.000000"  style="stroke:black; stroke-linecap:round; stroke-width:0.25;"/>
<line x1="172.000000" y1="132.000000" x2="180.000000" y2="132.000000"  style="stroke:black; stroke-linecap:round; stroke-width:0.25;"/>
<line x1="172.000000" y1="232.000000" x2="180.000000" y2="232.000000"  style="stroke:black; stroke-linecap:round; stroke-width:0.25;"/>
<line x1="172.000000" y1="244.000000" x2="172.000000" y2="232.000000"  style="stroke:black; stroke-linecap:round; stroke-width:0.25;"/>
<line x1="172.000000" y1="244.000000" x2="172.000000" y2="244.000000"  style="stroke:black; stroke-linecap:round; stroke-width:0.25;"/>
<line x1="180.000000" y1="132.000000" x2="180.000000" y2="224.000000"  style="stroke:black; stroke-linecap:round; stroke-width:0.25;"/>
<line x1="180.000000" y1="224.000000" x2="180.000000" y2="224.000000"  style="stroke:black; stroke-linecap:round; stroke-width:0.25;"/>
<line x1="180.000000" y1="224.000000" x2="184.000000" y2="224.000000"  style="stroke:black; stroke-linecap:round; stroke-width:0.25;"/>
<line x1="180.000000" y1="232.000000" x2="184.000000" y2="232.000000"  style="stroke:black; stroke-linecap:round; stroke-width:0.25;"/>
<line x1="208.000000" y1="228.000000" x2="212.000000" y2="228.000000"  style="stroke:black; stroke-linecap:round; stroke-width:0.25;"/>
<line x1="212.000000" y1="52.000000" x2="228.000000" y2="52.000000"  style="stroke:black; stroke-linecap:round; stroke-width:0.25;"/>
<line x1="212.000000" y1="100.000000" x2="220.000000" y2="100.000000"  style="stroke:black; stroke-linecap:round; stroke-width:0.25;"/>
<line x1="212.000000" y1="188.000000" x2="228.000000" y2="188.000000"  style="stroke:black; stroke-linecap:round; stroke-width:0.25;"/>
<line x1="212.000000" y1="228.000000" x2="212.000000" y2="188.000000"  style="stroke:black; stroke-linecap:round; stroke-width:0.25;"/>
<line x1="212.000000" y1="228.000000" x2="212.000000" y2="228.000000"  style="stroke:black; stroke-linecap:round; stroke-width:0.25;"/>
<line x1="220.000000" y1="100.000000" x2="220.000000" y2="180.000000"  style="stroke:black; stroke-linecap:round; stroke-width:0.25;"/>
<line x1="220.000000" y1="180.000000" x2="228.000000" y2="180.000000"  style="stroke:black; stroke-linecap:round; stroke-width:0.25;"/>
<line x1="228.000000" y1="52.000000" x2="228.000000" y2="172.000000"  style="stroke:black; stroke-linecap:round; stroke-width:0.25;"/>
<line x1="228.000000" y1="172.000000" x2="228.000000" y2="172.000000"  style="stroke:black; stroke-linecap:round; stroke-width:0.25;"/>
<line x1="228.000000" y1="172.000000" x2="232.000000" y2="172.000000"  style="stroke:black; stroke-linecap:round; stroke-width:0.25;"/>
<line x1="228.000000" y1="180.000000" x2="232.000000" y2="180.000000"  style="stroke:black; stroke-linecap:round; stroke-width:0.25;"/>
<line x1="228.000000" y1="188.000000" x2="232.000000" y2="188.000000"  style="stroke:black; stroke-linecap:round; stroke-width:0.25;"/>
<line x1="270.700000" y1="180.000000" x2="274.700000" y2="180.000000"  style="stroke:black; stroke-linecap:round; stroke-width:0.25;"/>
<line x1="274.700000" y1="180.000000" x2="274.700000" y2="180.000000"  style="stroke:black; stroke-linecap:round; stroke-width:0.25;"/>
<line x1="274.700000" y1="180.000000" x2="278.700000" y2="180.000000"  style="stroke:black; stroke-linecap:round; stroke-width:0.25;"/>
<line x1="278.700000" y1="180.000000" x2="282.700000" y2="180.000000"  style="stroke:black; stroke-linecap:round; stroke-width:0.25;"/>
<line x1="282.700000" y1="180.000000" x2="292.700000" y2="180.000000"  style="stroke:black; stroke-linecap:round; stroke-width:0.25;"/>
</svg>
