<?xml version="1.0"?>
<svg xmlns="http://www.w3.org/2000/svg" xmlns:xlink="http://www.w3.org/1999/xlink" viewBox="0 0 328.200000 104.000000" width="164.100000mm" height="52.000000mm" version="1.1">
<a xlink:href="freq2-0x7fac2c616390.svg">
<rect x="1.000000" y="1.000000" width="327.200000" height="103.000000" rx="0" ry="0" style="stroke:none;fill:#cccccc;"/>
<rect x="0.000000" y="0.000000" width="327.200000" height="103.000000" rx="0" ry="0" style="stroke:none;fill:#ffffff;"/>
</a>
<text x="10.000000" y="7.000000" font-family="Arial" font-size="7"></text>
<rect x="25.000000" y="25.000000" width="232.200000" height="24.000000" rx="0" ry="0" style="stroke:none;fill:#cccccc;"/>
<rect x="24.000000" y="24.000000" width="232.200000" height="24.000000" rx="0" ry="0" style="stroke:none;fill:#477881;"/>
<text x="140.100000" y="38.000000" font-family="Arial" font-size="7" text-anchor="middle" fill="#FFFFFF">hslider(v:vocal/vibratoGain, 0.5f, 0.0f, 1.0f, 0.01f)</text>
<circle cx="26.000000" cy="26.000000" r="1"/>
<rect x="129.100000" y="57.000000" width="24.000000" height="24.000000" rx="0" ry="0" style="stroke:none;fill:#cccccc;"/>
<rect x="128.100000" y="56.000000" width="24.000000" height="24.000000" rx="0" ry="0" style="stroke:none;fill:#f44800;"/>
<text x="140.100000" y="70.000000" font-family="Arial" font-size="7" text-anchor="middle" fill="#FFFFFF">0.1</text>
<circle cx="130.100000" cy="58.000000" r="1"/>
<rect x="273.200000" y="41.000000" width="24.000000" height="24.000000" rx="0" ry="0" style="stroke:none;fill:#cccccc;"/>
<rect x="272.200000" y="40.000000" width="24.000000" height="24.000000" rx="0" ry="0" style="stroke:none;fill:#4B71A1;"/>
<text x="284.200000" y="54.000000" font-family="Arial" font-size="7" text-anchor="middle" fill="#FFFFFF">*</text>
<circle cx="274.200000" cy="42.000000" r="1"/>
<line x1="269.200000" y1="47.000000" x2="272.200000" y2="48.000000"  transform="rotate(0.000000,272.200000,48.000000)" style="stroke: black; stroke-width:0.25;"/>
<line x1="269.200000" y1="49.000000" x2="272.200000" y2="48.000000"  transform="rotate(0.000000,272.200000,48.000000)" style="stroke: black; stroke-width:0.25;"/>
<line x1="269.200000" y1="55.000000" x2="272.200000" y2="56.000000"  transform="rotate(0.000000,272.200000,56.000000)" style="stroke: black; stroke-width:0.25;"/>
<line x1="269.200000" y1="57.000000" x2="272.200000" y2="56.000000"  transform="rotate(0.000000,272.200000,56.000000)" style="stroke: black; stroke-width:0.25;"/>
<line x1="15.000000" y1="15.000000" x2="15.000000" y2="89.000000"  style="stroke: black; stroke-linecap:round; stroke-width:0.25; stroke-dasharray:3,3;"/>
<line x1="15.000000" y1="89.000000" x2="313.200000" y2="89.000000"  style="stroke: black; stroke-linecap:round; stroke-width:0.25; stroke-dasharray:3,3;"/>
<line x1="313.200000" y1="89.000000" x2="313.200000" y2="15.000000"  style="stroke: black; stroke-linecap:round; stroke-width:0.25; stroke-dasharray:3,3;"/>
<line x1="15.000000" y1="15.000000" x2="20.000000" y2="15.000000"  style="stroke: black; stroke-linecap:round; stroke-width:0.25; stroke-dasharray:3,3;"/>
<line x1="61.925000" y1="15.000000" x2="313.200000" y2="15.000000"  style="stroke: black; stroke-linecap:round; stroke-width:0.25; stroke-dasharray:3,3;"/>
<text x="20.000000" y="17.000000" font-family="Arial" font-size="7">vibratoGain</text>
<line x1="315.200000" y1="51.000000" x2="318.200000" y2="52.000000"  transform="rotate(0.000000,318.200000,52.000000)" style="stroke: black; stroke-width:0.25;"/>
<line x1="315.200000" y1="53.000000" x2="318.200000" y2="52.000000"  transform="rotate(0.000000,318.200000,52.000000)" style="stroke: black; stroke-width:0.25;"/>
<line x1="152.100000" y1="68.000000" x2="156.100000" y2="68.000000"  style="stroke:black; stroke-linecap:round; stroke-width:0.25;"/>
<line x1="156.100000" y1="68.000000" x2="260.200000" y2="68.000000"  style="stroke:black; stroke-linecap:round; stroke-width:0.25;"/>
<line x1="256.200000" y1="36.000000" x2="260.200000" y2="36.000000"  style="stroke:black; stroke-linecap:round; stroke-width:0.25;"/>
<line x1="260.200000" y1="36.000000" x2="268.200000" y2="36.000000"  style="stroke:black; stroke-linecap:round; stroke-width:0.25;"/>
<line x1="260.200000" y1="56.000000" x2="268.200000" y2="56.000000"  style="stroke:black; stroke-linecap:round; stroke-width:0.25;"/>
<line x1="260.200000" y1="68.000000" x2="260.200000" y2="56.000000"  style="stroke:black; stroke-linecap:round; stroke-width:0.25;"/>
<line x1="260.200000" y1="68.000000" x2="260.200000" y2="68.000000"  style="stroke:black; stroke-linecap:round; stroke-width:0.25;"/>
<line x1="268.200000" y1="36.000000" x2="268.200000" y2="48.000000"  style="stroke:black; stroke-linecap:round; stroke-width:0.25;"/>
<line x1="268.200000" y1="48.000000" x2="268.200000" y2="48.000000"  style="stroke:black; stroke-linecap:round; stroke-width:0.25;"/>
<line x1="268.200000" y1="48.000000" x2="272.200000" y2="48.000000"  style="stroke:black; stroke-linecap:round; stroke-width:0.25;"/>
<line x1="268.200000" y1="56.000000" x2="272.200000" y2="56.000000"  style="stroke:black; stroke-linecap:round; stroke-width:0.25;"/>
<line x1="296.200000" y1="52.000000" x2="300.200000" y2="52.000000"  style="stroke:black; stroke-linecap:round; stroke-width:0.25;"/>
<line x1="300.200000" y1="52.000000" x2="300.200000" y2="52.000000"  style="stroke:black; stroke-linecap:round; stroke-width:0.25;"/>
<line x1="300.200000" y1="52.000000" x2="304.200000" y2="52.000000"  style="stroke:black; stroke-linecap:round; stroke-width:0.25;"/>
<line x1="304.200000" y1="52.000000" x2="308.200000" y2="52.000000"  style="stroke:black; stroke-linecap:round; stroke-width:0.25;"/>
<line x1="308.200000" y1="52.000000" x2="318.200000" y2="52.000000"  style="stroke:black; stroke-linecap:round; stroke-width:0.25;"/>
</svg>
