<?xml version="1.0"?>
<svg xmlns="http://www.w3.org/2000/svg" xmlns:xlink="http://www.w3.org/1999/xlink" viewBox="0 0 480.500000 188.000000" width="240.250000mm" height="94.000000mm" version="1.1">
<rect x="1.000000" y="1.000000" width="479.500000" height="187.000000" rx="0" ry="0" style="stroke:none;fill:#cccccc;"/>
<rect x="0.000000" y="0.000000" width="479.500000" height="187.000000" rx="0" ry="0" style="stroke:none;fill:#ffffff;"/>
<text x="10.000000" y="7.000000" font-family="Arial" font-size="7"></text>
<rect x="95.250000" y="25.000000" width="24.000000" height="24.000000" rx="0" ry="0" style="stroke:none;fill:#cccccc;"/>
<rect x="94.250000" y="24.000000" width="24.000000" height="24.000000" rx="0" ry="0" style="stroke:none;fill:#f44800;"/>
<text x="106.250000" y="38.000000" font-family="Arial" font-size="7" text-anchor="middle" fill="#FFFFFF">440</text>
<circle cx="96.250000" cy="26.000000" r="1"/>
<rect x="74.350000" y="67.000000" width="25.800000" height="24.000000" rx="0" ry="0" style="stroke:none;fill:#cccccc;"/>
<rect x="73.350000" y="66.000000" width="25.800000" height="24.000000" rx="0" ry="0" style="stroke:none;fill:#f44800;"/>
<text x="86.250000" y="80.000000" font-family="Arial" font-size="7" text-anchor="middle" fill="#FFFFFF">192000</text>
<circle cx="75.350000" cy="68.000000" r="1"/>
<rect x="55.250000" y="99.000000" width="24.000000" height="24.000000" rx="0" ry="0" style="stroke:none;fill:#cccccc;"/>
<rect x="54.250000" y="98.000000" width="24.000000" height="24.000000" rx="0" ry="0" style="stroke:none;fill:#f44800;"/>
<text x="66.250000" y="112.000000" font-family="Arial" font-size="7" text-anchor="middle" fill="#FFFFFF">1</text>
<circle cx="56.250000" cy="100.000000" r="1"/>
<rect x="35.000000" y="131.000000" width="64.500000" height="24.000000" rx="0" ry="0" style="stroke:none;fill:#cccccc;"/>
<rect x="34.000000" y="130.000000" width="64.500000" height="24.000000" rx="0" ry="0" style="stroke:none;fill:#4B71A1;"/>
<text x="66.250000" y="144.000000" font-family="Arial" font-size="7" text-anchor="middle" fill="#FFFFFF">fSamplingFreq</text>
<circle cx="36.000000" cy="132.000000" r="1"/>
<rect x="115.500000" y="115.000000" width="24.000000" height="24.000000" rx="0" ry="0" style="stroke:none;fill:#cccccc;"/>
<rect x="114.500000" y="114.000000" width="24.000000" height="24.000000" rx="0" ry="0" style="stroke:none;fill:#4B71A1;"/>
<text x="126.500000" y="128.000000" font-family="Arial" font-size="7" text-anchor="middle" fill="#FFFFFF">max</text>
<circle cx="116.500000" cy="116.000000" r="1"/>
<line x1="111.500000" y1="121.000000" x2="114.500000" y2="122.000000"  transform="rotate(0.000000,114.500000,122.000000)" style="stroke: black; stroke-width:0.25;"/>
<line x1="111.500000" y1="123.000000" x2="114.500000" y2="122.000000"  transform="rotate(0.000000,114.500000,122.000000)" style="stroke: black; stroke-width:0.25;"/>
<line x1="111.500000" y1="129.000000" x2="114.500000" y2="130.000000"  transform="rotate(0.000000,114.500000,130.000000)" style="stroke: black; stroke-width:0.25;"/>
<line x1="111.500000" y1="131.000000" x2="114.500000" y2="130.000000"  transform="rotate(0.000000,114.500000,130.000000)" style="stroke: black; stroke-width:0.25;"/>
<rect x="155.500000" y="99.000000" width="24.000000" height="24.000000" rx="0" ry="0" style="stroke:none;fill:#cccccc;"/>
<rect x="154.500000" y="98.000000" width="24.000000" height="24.000000" rx="0" ry="0" style="stroke:none;fill:#4B71A1;"/>
<text x="166.500000" y="112.000000" font-family="Arial" font-size="7" text-anchor="middle" fill="#FFFFFF">min</text>
<circle cx="156.500000" cy="100.000000" r="1"/>
<line x1="151.500000" y1="105.000000" x2="154.500000" y2="106.000000"  transform="rotate(0.000000,154.500000,106.000000)" style="stroke: black; stroke-width:0.25;"/>
<line x1="151.500000" y1="107.000000" x2="154.500000" y2="106.000000"  transform="rotate(0.000000,154.500000,106.000000)" style="stroke: black; stroke-width:0.25;"/>
<line x1="151.500000" y1="113.000000" x2="154.500000" y2="114.000000"  transform="rotate(0.000000,154.500000,114.000000)" style="stroke: black; stroke-width:0.25;"/>
<line x1="151.500000" y1="115.000000" x2="154.500000" y2="114.000000"  transform="rotate(0.000000,154.500000,114.000000)" style="stroke: black; stroke-width:0.25;"/>
<line x1="25.000000" y1="57.000000" x2="25.000000" y2="163.000000"  style="stroke: black; stroke-linecap:round; stroke-width:0.25; stroke-dasharray:3,3;"/>
<line x1="25.000000" y1="163.000000" x2="187.500000" y2="163.000000"  style="stroke: black; stroke-linecap:round; stroke-width:0.25; stroke-dasharray:3,3;"/>
<line x1="187.500000" y1="163.000000" x2="187.500000" y2="57.000000"  style="stroke: black; stroke-linecap:round; stroke-width:0.25; stroke-dasharray:3,3;"/>
<line x1="25.000000" y1="57.000000" x2="30.000000" y2="57.000000"  style="stroke: black; stroke-linecap:round; stroke-width:0.25; stroke-dasharray:3,3;"/>
<line x1="42.900000" y1="57.000000" x2="187.500000" y2="57.000000"  style="stroke: black; stroke-linecap:round; stroke-width:0.25; stroke-dasharray:3,3;"/>
<text x="30.000000" y="59.000000" font-family="Arial" font-size="7">SR</text>
<rect x="205.500000" y="83.000000" width="24.000000" height="24.000000" rx="0" ry="0" style="stroke:none;fill:#cccccc;"/>
<rect x="204.500000" y="82.000000" width="24.000000" height="24.000000" rx="0" ry="0" style="stroke:none;fill:#4B71A1;"/>
<text x="216.500000" y="96.000000" font-family="Arial" font-size="7" text-anchor="middle" fill="#FFFFFF">/</text>
<circle cx="206.500000" cy="84.000000" r="1"/>
<line x1="201.500000" y1="89.000000" x2="204.500000" y2="90.000000"  transform="rotate(0.000000,204.500000,90.000000)" style="stroke: black; stroke-width:0.25;"/>
<line x1="201.500000" y1="91.000000" x2="204.500000" y2="90.000000"  transform="rotate(0.000000,204.500000,90.000000)" style="stroke: black; stroke-width:0.25;"/>
<line x1="201.500000" y1="97.000000" x2="204.500000" y2="98.000000"  transform="rotate(0.000000,204.500000,98.000000)" style="stroke: black; stroke-width:0.25;"/>
<line x1="201.500000" y1="99.000000" x2="204.500000" y2="98.000000"  transform="rotate(0.000000,204.500000,98.000000)" style="stroke: black; stroke-width:0.25;"/>
<rect x="253.500000" y="87.000000" width="24.000000" height="24.000000" rx="0" ry="0" style="stroke:none;fill:#cccccc;"/>
<rect x="252.500000" y="86.000000" width="24.000000" height="24.000000" rx="0" ry="0" style="stroke:none;fill:#4B71A1;"/>
<text x="264.500000" y="100.000000" font-family="Arial" font-size="7" text-anchor="middle" fill="#FFFFFF">+</text>
<circle cx="254.500000" cy="88.000000" r="1"/>
<line x1="249.500000" y1="93.000000" x2="252.500000" y2="94.000000"  transform="rotate(0.000000,252.500000,94.000000)" style="stroke: black; stroke-width:0.25;"/>
<line x1="249.500000" y1="95.000000" x2="252.500000" y2="94.000000"  transform="rotate(0.000000,252.500000,94.000000)" style="stroke: black; stroke-width:0.25;"/>
<line x1="249.500000" y1="101.000000" x2="252.500000" y2="102.000000"  transform="rotate(0.000000,252.500000,102.000000)" style="stroke: black; stroke-width:0.25;"/>
<line x1="249.500000" y1="103.000000" x2="252.500000" y2="102.000000"  transform="rotate(0.000000,252.500000,102.000000)" style="stroke: black; stroke-width:0.25;"/>
<rect x="295.500000" y="87.000000" width="24.000000" height="24.000000" rx="0" ry="0" style="stroke:none;fill:#cccccc;"/>
<rect x="294.500000" y="86.000000" width="24.000000" height="24.000000" rx="0" ry="0" style="stroke:none;fill:#47945E;"/>
<text x="306.500000" y="100.000000" font-family="Arial" font-size="7" text-anchor="middle" fill="#FFFFFF">x</text>
<circle cx="296.500000" cy="88.000000" r="1"/>
<line x1="291.500000" y1="97.000000" x2="294.500000" y2="98.000000"  transform="rotate(0.000000,294.500000,98.000000)" style="stroke: black; stroke-width:0.25;"/>
<line x1="291.500000" y1="99.000000" x2="294.500000" y2="98.000000"  transform="rotate(0.000000,294.500000,98.000000)" style="stroke: black; stroke-width:0.25;"/>
<rect x="343.500000" y="71.000000" width="24.000000" height="24.000000" rx="0" ry="0" style="stroke:none;fill:#cccccc;"/>
<rect x="342.500000" y="70.000000" width="24.000000" height="24.000000" rx="0" ry="0" style="stroke:none;fill:#47945E;"/>
<text x="354.500000" y="84.000000" font-family="Arial" font-size="7" text-anchor="middle" fill="#FFFFFF">x</text>
<circle cx="344.500000" cy="72.000000" r="1"/>
<rect x="327.500000" y="103.000000" width="24.000000" height="24.000000" rx="0" ry="0" style="stroke:none;fill:#cccccc;"/>
<rect x="326.500000" y="102.000000" width="24.000000" height="24.000000" rx="0" ry="0" style="stroke:none;fill:#47945E;"/>
<text x="338.500000" y="116.000000" font-family="Arial" font-size="7" text-anchor="middle" fill="#FFFFFF">x</text>
<circle cx="328.500000" cy="104.000000" r="1"/>
<rect x="359.500000" y="103.000000" width="24.000000" height="24.000000" rx="0" ry="0" style="stroke:none;fill:#cccccc;"/>
<rect x="358.500000" y="102.000000" width="24.000000" height="24.000000" rx="0" ry="0" style="stroke:none;fill:#4B71A1;"/>
<text x="370.500000" y="116.000000" font-family="Arial" font-size="7" text-anchor="middle" fill="#FFFFFF">int</text>
<circle cx="360.500000" cy="104.000000" r="1"/>
<line x1="355.500000" y1="113.000000" x2="358.500000" y2="114.000000"  transform="rotate(0.000000,358.500000,114.000000)" style="stroke: black; stroke-width:0.25;"/>
<line x1="355.500000" y1="115.000000" x2="358.500000" y2="114.000000"  transform="rotate(0.000000,358.500000,114.000000)" style="stroke: black; stroke-width:0.25;"/>
<rect x="399.500000" y="87.000000" width="24.000000" height="24.000000" rx="0" ry="0" style="stroke:none;fill:#cccccc;"/>
<rect x="398.500000" y="86.000000" width="24.000000" height="24.000000" rx="0" ry="0" style="stroke:none;fill:#4B71A1;"/>
<text x="410.500000" y="100.000000" font-family="Arial" font-size="7" text-anchor="middle" fill="#FFFFFF">-</text>
<circle cx="400.500000" cy="88.000000" r="1"/>
<line x1="395.500000" y1="93.000000" x2="398.500000" y2="94.000000"  transform="rotate(0.000000,398.500000,94.000000)" style="stroke: black; stroke-width:0.25;"/>
<line x1="395.500000" y1="95.000000" x2="398.500000" y2="94.000000"  transform="rotate(0.000000,398.500000,94.000000)" style="stroke: black; stroke-width:0.25;"/>
<line x1="395.500000" y1="101.000000" x2="398.500000" y2="102.000000"  transform="rotate(0.000000,398.500000,102.000000)" style="stroke: black; stroke-width:0.25;"/>
<line x1="395.500000" y1="103.000000" x2="398.500000" y2="102.000000"  transform="rotate(0.000000,398.500000,102.000000)" style="stroke: black; stroke-width:0.25;"/>
<line x1="285.500000" y1="61.000000" x2="285.500000" y2="135.000000"  style="stroke: black; stroke-linecap:round; stroke-width:0.25; stroke-dasharray:3,3;"/>
<line x1="285.500000" y1="135.000000" x2="431.500000" y2="135.000000"  style="stroke: black; stroke-linecap:round; stroke-width:0.25; stroke-dasharray:3,3;"/>
<line x1="431.500000" y1="135.000000" x2="431.500000" y2="61.000000"  style="stroke: black; stroke-linecap:round; stroke-width:0.25; stroke-dasharray:3,3;"/>
<line x1="285.500000" y1="61.000000" x2="290.500000" y2="61.000000"  style="stroke: black; stroke-linecap:round; stroke-width:0.25; stroke-dasharray:3,3;"/>
<line x1="332.425000" y1="61.000000" x2="431.500000" y2="61.000000"  style="stroke: black; stroke-linecap:round; stroke-width:0.25; stroke-dasharray:3,3;"/>
<text x="290.500000" y="63.000000" font-family="Arial" font-size="7">decimalpart</text>
<line x1="434.500000" y1="98.000000" x2="434.500000" y2="94.000000"  style="stroke:black; stroke-linecap:round; stroke-width:0.25;"/>
<line x1="434.500000" y1="94.000000" x2="438.500000" y2="94.000000"  style="stroke:black; stroke-linecap:round; stroke-width:0.25;"/>
<line x1="438.500000" y1="94.000000" x2="438.500000" y2="98.000000"  style="stroke:black; stroke-linecap:round; stroke-width:0.25;"/>
<line x1="15.000000" y1="15.000000" x2="15.000000" y2="173.000000"  style="stroke: black; stroke-linecap:round; stroke-width:0.25; stroke-dasharray:3,3;"/>
<line x1="15.000000" y1="173.000000" x2="465.500000" y2="173.000000"  style="stroke: black; stroke-linecap:round; stroke-width:0.25; stroke-dasharray:3,3;"/>
<line x1="465.500000" y1="173.000000" x2="465.500000" y2="15.000000"  style="stroke: black; stroke-linecap:round; stroke-width:0.25; stroke-dasharray:3,3;"/>
<line x1="15.000000" y1="15.000000" x2="20.000000" y2="15.000000"  style="stroke: black; stroke-linecap:round; stroke-width:0.25; stroke-dasharray:3,3;"/>
<line x1="49.025000" y1="15.000000" x2="465.500000" y2="15.000000"  style="stroke: black; stroke-linecap:round; stroke-width:0.25; stroke-dasharray:3,3;"/>
<text x="20.000000" y="17.000000" font-family="Arial" font-size="7">process</text>
<line x1="467.500000" y1="93.000000" x2="470.500000" y2="94.000000"  transform="rotate(0.000000,470.500000,94.000000)" style="stroke: black; stroke-width:0.25;"/>
<line x1="467.500000" y1="95.000000" x2="470.500000" y2="94.000000"  transform="rotate(0.000000,470.500000,94.000000)" style="stroke: black; stroke-width:0.25;"/>
<line x1="78.250000" y1="110.000000" x2="82.250000" y2="110.000000"  style="stroke:black; stroke-linecap:round; stroke-width:0.25;"/>
<line x1="82.250000" y1="110.000000" x2="102.500000" y2="110.000000"  style="stroke:black; stroke-linecap:round; stroke-width:0.25;"/>
<line x1="98.500000" y1="142.000000" x2="102.500000" y2="142.000000"  style="stroke:black; stroke-linecap:round; stroke-width:0.25;"/>
<line x1="99.150000" y1="78.000000" x2="103.150000" y2="78.000000"  style="stroke:black; stroke-linecap:round; stroke-width:0.25;"/>
<line x1="102.500000" y1="110.000000" x2="110.500000" y2="110.000000"  style="stroke:black; stroke-linecap:round; stroke-width:0.25;"/>
<line x1="102.500000" y1="130.000000" x2="110.500000" y2="130.000000"  style="stroke:black; stroke-linecap:round; stroke-width:0.25;"/>
<line x1="102.500000" y1="142.000000" x2="102.500000" y2="130.000000"  style="stroke:black; stroke-linecap:round; stroke-width:0.25;"/>
<line x1="102.500000" y1="142.000000" x2="102.500000" y2="142.000000"  style="stroke:black; stroke-linecap:round; stroke-width:0.25;"/>
<line x1="103.150000" y1="78.000000" x2="142.500000" y2="78.000000"  style="stroke:black; stroke-linecap:round; stroke-width:0.25;"/>
<line x1="110.500000" y1="110.000000" x2="110.500000" y2="122.000000"  style="stroke:black; stroke-linecap:round; stroke-width:0.25;"/>
<line x1="110.500000" y1="122.000000" x2="110.500000" y2="122.000000"  style="stroke:black; stroke-linecap:round; stroke-width:0.25;"/>
<line x1="110.500000" y1="122.000000" x2="114.500000" y2="122.000000"  style="stroke:black; stroke-linecap:round; stroke-width:0.25;"/>
<line x1="110.500000" y1="130.000000" x2="114.500000" y2="130.000000"  style="stroke:black; stroke-linecap:round; stroke-width:0.25;"/>
<line x1="118.250000" y1="36.000000" x2="122.250000" y2="36.000000"  style="stroke:black; stroke-linecap:round; stroke-width:0.25;"/>
<line x1="122.250000" y1="36.000000" x2="192.500000" y2="36.000000"  style="stroke:black; stroke-linecap:round; stroke-width:0.25;"/>
<line x1="138.500000" y1="126.000000" x2="142.500000" y2="126.000000"  style="stroke:black; stroke-linecap:round; stroke-width:0.25;"/>
<line x1="142.500000" y1="78.000000" x2="150.500000" y2="78.000000"  style="stroke:black; stroke-linecap:round; stroke-width:0.25;"/>
<line x1="142.500000" y1="114.000000" x2="150.500000" y2="114.000000"  style="stroke:black; stroke-linecap:round; stroke-width:0.25;"/>
<line x1="142.500000" y1="126.000000" x2="142.500000" y2="114.000000"  style="stroke:black; stroke-linecap:round; stroke-width:0.25;"/>
<line x1="142.500000" y1="126.000000" x2="142.500000" y2="126.000000"  style="stroke:black; stroke-linecap:round; stroke-width:0.25;"/>
<line x1="150.500000" y1="78.000000" x2="150.500000" y2="106.000000"  style="stroke:black; stroke-linecap:round; stroke-width:0.25;"/>
<line x1="150.500000" y1="106.000000" x2="150.500000" y2="106.000000"  style="stroke:black; stroke-linecap:round; stroke-width:0.25;"/>
<line x1="150.500000" y1="106.000000" x2="154.500000" y2="106.000000"  style="stroke:black; stroke-linecap:round; stroke-width:0.25;"/>
<line x1="150.500000" y1="114.000000" x2="154.500000" y2="114.000000"  style="stroke:black; stroke-linecap:round; stroke-width:0.25;"/>
<line x1="178.500000" y1="110.000000" x2="182.500000" y2="110.000000"  style="stroke:black; stroke-linecap:round; stroke-width:0.25;"/>
<line x1="182.500000" y1="110.000000" x2="192.500000" y2="110.000000"  style="stroke:black; stroke-linecap:round; stroke-width:0.25;"/>
<line x1="192.500000" y1="36.000000" x2="200.500000" y2="36.000000"  style="stroke:black; stroke-linecap:round; stroke-width:0.25;"/>
<line x1="192.500000" y1="98.000000" x2="200.500000" y2="98.000000"  style="stroke:black; stroke-linecap:round; stroke-width:0.25;"/>
<line x1="192.500000" y1="110.000000" x2="192.500000" y2="98.000000"  style="stroke:black; stroke-linecap:round; stroke-width:0.25;"/>
<line x1="192.500000" y1="110.000000" x2="192.500000" y2="110.000000"  style="stroke:black; stroke-linecap:round; stroke-width:0.25;"/>
<line x1="200.500000" y1="36.000000" x2="200.500000" y2="90.000000"  style="stroke:black; stroke-linecap:round; stroke-width:0.25;"/>
<line x1="200.500000" y1="90.000000" x2="200.500000" y2="90.000000"  style="stroke:black; stroke-linecap:round; stroke-width:0.25;"/>
<line x1="200.500000" y1="90.000000" x2="204.500000" y2="90.000000"  style="stroke:black; stroke-linecap:round; stroke-width:0.25;"/>
<line x1="200.500000" y1="98.000000" x2="204.500000" y2="98.000000"  style="stroke:black; stroke-linecap:round; stroke-width:0.25;"/>
<line x1="228.500000" y1="94.000000" x2="232.500000" y2="94.000000"  style="stroke:black; stroke-linecap:round; stroke-width:0.25;"/>
<line x1="232.500000" y1="94.000000" x2="240.500000" y2="94.000000"  style="stroke:black; stroke-linecap:round; stroke-width:0.25;"/>
<line x1="240.500000" y1="94.000000" x2="240.500000" y2="102.000000"  style="stroke:black; stroke-linecap:round; stroke-width:0.25;"/>
<line x1="240.500000" y1="102.000000" x2="240.500000" y2="102.000000"  style="stroke:black; stroke-linecap:round; stroke-width:0.25;"/>
<line x1="240.500000" y1="102.000000" x2="248.500000" y2="102.000000"  style="stroke:black; stroke-linecap:round; stroke-width:0.25;"/>
<line x1="248.500000" y1="52.000000" x2="248.500000" y2="52.000000"  style="stroke:black; stroke-linecap:round; stroke-width:0.25;"/>
<line x1="248.500000" y1="52.000000" x2="248.500000" y2="94.000000"  style="stroke:black; stroke-linecap:round; stroke-width:0.25;"/>
<line x1="248.500000" y1="94.000000" x2="248.500000" y2="94.000000"  style="stroke:black; stroke-linecap:round; stroke-width:0.25;"/>
<line x1="248.500000" y1="94.000000" x2="252.500000" y2="94.000000"  style="stroke:black; stroke-linecap:round; stroke-width:0.25;"/>
<line x1="248.500000" y1="102.000000" x2="252.500000" y2="102.000000"  style="stroke:black; stroke-linecap:round; stroke-width:0.25;"/>
<line x1="276.500000" y1="98.000000" x2="280.500000" y2="98.000000"  style="stroke:black; stroke-linecap:round; stroke-width:0.25;"/>
<line x1="280.500000" y1="98.000000" x2="280.500000" y2="98.000000"  style="stroke:black; stroke-linecap:round; stroke-width:0.25;"/>
<line x1="280.500000" y1="98.000000" x2="290.500000" y2="98.000000"  style="stroke:black; stroke-linecap:round; stroke-width:0.25;"/>
<line x1="290.500000" y1="98.000000" x2="294.500000" y2="98.000000"  style="stroke:black; stroke-linecap:round; stroke-width:0.25;"/>
<line x1="342.500000" y1="52.000000" x2="248.500000" y2="52.000000"  style="stroke:black; stroke-linecap:round; stroke-width:0.25;"/>
<line x1="350.500000" y1="114.000000" x2="354.500000" y2="114.000000"  style="stroke:black; stroke-linecap:round; stroke-width:0.25;"/>
<line x1="354.500000" y1="114.000000" x2="354.500000" y2="114.000000"  style="stroke:black; stroke-linecap:round; stroke-width:0.25;"/>
<line x1="354.500000" y1="114.000000" x2="358.500000" y2="114.000000"  style="stroke:black; stroke-linecap:round; stroke-width:0.25;"/>
<line x1="366.500000" y1="82.000000" x2="370.500000" y2="82.000000"  style="stroke:black; stroke-linecap:round; stroke-width:0.25;"/>
<line x1="370.500000" y1="82.000000" x2="386.500000" y2="82.000000"  style="stroke:black; stroke-linecap:round; stroke-width:0.25;"/>
<line x1="382.500000" y1="114.000000" x2="386.500000" y2="114.000000"  style="stroke:black; stroke-linecap:round; stroke-width:0.25;"/>
<line x1="386.500000" y1="82.000000" x2="394.500000" y2="82.000000"  style="stroke:black; stroke-linecap:round; stroke-width:0.25;"/>
<line x1="386.500000" y1="102.000000" x2="394.500000" y2="102.000000"  style="stroke:black; stroke-linecap:round; stroke-width:0.25;"/>
<line x1="386.500000" y1="114.000000" x2="386.500000" y2="102.000000"  style="stroke:black; stroke-linecap:round; stroke-width:0.25;"/>
<line x1="386.500000" y1="114.000000" x2="386.500000" y2="114.000000"  style="stroke:black; stroke-linecap:round; stroke-width:0.25;"/>
<line x1="394.500000" y1="82.000000" x2="394.500000" y2="94.000000"  style="stroke:black; stroke-linecap:round; stroke-width:0.25;"/>
<line x1="394.500000" y1="94.000000" x2="394.500000" y2="94.000000"  style="stroke:black; stroke-linecap:round; stroke-width:0.25;"/>
<line x1="394.500000" y1="94.000000" x2="398.500000" y2="94.000000"  style="stroke:black; stroke-linecap:round; stroke-width:0.25;"/>
<line x1="394.500000" y1="102.000000" x2="398.500000" y2="102.000000"  style="stroke:black; stroke-linecap:round; stroke-width:0.25;"/>
<line x1="422.500000" y1="98.000000" x2="426.500000" y2="98.000000"  style="stroke:black; stroke-linecap:round; stroke-width:0.25;"/>
<line x1="426.500000" y1="98.000000" x2="436.500000" y2="98.000000"  style="stroke:black; stroke-linecap:round; stroke-width:0.25;"/>
<line x1="436.500000" y1="52.000000" x2="342.500000" y2="52.000000"  style="stroke:black; stroke-linecap:round; stroke-width:0.25;"/>
<line x1="436.500000" y1="52.000000" x2="436.500000" y2="52.000000"  style="stroke:black; stroke-linecap:round; stroke-width:0.25;"/>
<line x1="436.500000" y1="94.000000" x2="436.500000" y2="52.000000"  style="stroke:black; stroke-linecap:round; stroke-width:0.25;"/>
<line x1="436.500000" y1="98.000000" x2="438.500000" y2="98.000000"  style="stroke:black; stroke-linecap:round; stroke-width:0.25;"/>
<line x1="438.500000" y1="98.000000" x2="444.500000" y2="98.000000"  style="stroke:black; stroke-linecap:round; stroke-width:0.25;"/>
<line x1="444.500000" y1="94.000000" x2="452.500000" y2="94.000000"  style="stroke:black; stroke-linecap:round; stroke-width:0.25;"/>
<line x1="444.500000" y1="98.000000" x2="444.500000" y2="94.000000"  style="stroke:black; stroke-linecap:round; stroke-width:0.25;"/>
<line x1="444.500000" y1="98.000000" x2="444.500000" y2="98.000000"  style="stroke:black; stroke-linecap:round; stroke-width:0.25;"/>
<line x1="452.500000" y1="94.000000" x2="456.500000" y2="94.000000"  style="stroke:black; stroke-linecap:round; stroke-width:0.25;"/>
<line x1="456.500000" y1="94.000000" x2="460.500000" y2="94.000000"  style="stroke:black; stroke-linecap:round; stroke-width:0.25;"/>
<line x1="460.500000" y1="94.000000" x2="470.500000" y2="94.000000"  style="stroke:black; stroke-linecap:round; stroke-width:0.25;"/>
</svg>
