<?xml version="1.0"?>
<svg xmlns="http://www.w3.org/2000/svg" xmlns:xlink="http://www.w3.org/1999/xlink" viewBox="0 0 345.000000 200.000000" width="172.500000mm" height="100.000000mm" version="1.1">
<a xlink:href="delay-0x7f85e3466f40.svg">
<rect x="1.000000" y="1.000000" width="344.000000" height="199.000000" rx="0" ry="0" style="stroke:none;fill:#cccccc;"/>
<rect x="0.000000" y="0.000000" width="344.000000" height="199.000000" rx="0" ry="0" style="stroke:none;fill:#ffffff;"/>
</a>
<text x="10.000000" y="7.000000" font-family="Arial" font-size="7"></text>
<a xlink:href="odflange-0x7f85e3171080.svg">
<rect x="130.150000" y="25.000000" width="38.700000" height="24.000000" rx="0" ry="0" style="stroke:none;fill:#cccccc;"/>
<rect x="129.150000" y="24.000000" width="38.700000" height="24.000000" rx="0" ry="0" style="stroke:none;fill:#003366;"/>
</a>
<a xlink:href="odflange-0x7f85e3171080.svg">
<text x="148.500000" y="38.000000" font-family="Arial" font-size="7" text-anchor="middle" fill="#FFFFFF">odflange</text>
</a>
<circle cx="131.150000" cy="26.000000" r="1"/>
<a xlink:href="dflange-0x7f85e3174630.svg">
<rect x="90.150000" y="57.000000" width="38.700000" height="24.000000" rx="0" ry="0" style="stroke:none;fill:#cccccc;"/>
<rect x="89.150000" y="56.000000" width="38.700000" height="24.000000" rx="0" ry="0" style="stroke:none;fill:#003366;"/>
</a>
<a xlink:href="dflange-0x7f85e3174630.svg">
<text x="108.500000" y="70.000000" font-family="Arial" font-size="7" text-anchor="middle" fill="#FFFFFF">dflange</text>
</a>
<circle cx="91.150000" cy="58.000000" r="1"/>
<rect x="77.500000" y="89.000000" width="24.000000" height="24.000000" rx="0" ry="0" style="stroke:none;fill:#cccccc;"/>
<rect x="76.500000" y="88.000000" width="24.000000" height="24.000000" rx="0" ry="0" style="stroke:none;fill:#f44800;"/>
<text x="88.500000" y="102.000000" font-family="Arial" font-size="7" text-anchor="middle" fill="#FFFFFF">1</text>
<circle cx="78.500000" cy="90.000000" r="1"/>
<a xlink:href="lfol-0x7f85e3433b60.svg">
<rect x="25.000000" y="121.000000" width="129.000000" height="24.000000" rx="0" ry="0" style="stroke:none;fill:#cccccc;"/>
<rect x="24.000000" y="120.000000" width="129.000000" height="24.000000" rx="0" ry="0" style="stroke:none;fill:#003366;"/>
</a>
<a xlink:href="lfol-0x7f85e3433b60.svg">
<text x="88.500000" y="134.000000" font-family="Arial" font-size="7" text-anchor="middle" fill="#FFFFFF">lfol(vgroup(&quot;...0f, 0.01f))))</text>
</a>
<circle cx="26.000000" cy="122.000000" r="1"/>
<rect x="170.000000" y="105.000000" width="24.000000" height="24.000000" rx="0" ry="0" style="stroke:none;fill:#cccccc;"/>
<rect x="169.000000" y="104.000000" width="24.000000" height="24.000000" rx="0" ry="0" style="stroke:none;fill:#4B71A1;"/>
<text x="181.000000" y="118.000000" font-family="Arial" font-size="7" text-anchor="middle" fill="#FFFFFF">+</text>
<circle cx="171.000000" cy="106.000000" r="1"/>
<line x1="166.000000" y1="111.000000" x2="169.000000" y2="112.000000"  transform="rotate(0.000000,169.000000,112.000000)" style="stroke: black; stroke-width:0.25;"/>
<line x1="166.000000" y1="113.000000" x2="169.000000" y2="112.000000"  transform="rotate(0.000000,169.000000,112.000000)" style="stroke: black; stroke-width:0.25;"/>
<line x1="166.000000" y1="119.000000" x2="169.000000" y2="120.000000"  transform="rotate(0.000000,169.000000,120.000000)" style="stroke: black; stroke-width:0.25;"/>
<line x1="166.000000" y1="121.000000" x2="169.000000" y2="120.000000"  transform="rotate(0.000000,169.000000,120.000000)" style="stroke: black; stroke-width:0.25;"/>
<rect x="210.000000" y="89.000000" width="24.000000" height="24.000000" rx="0" ry="0" style="stroke:none;fill:#cccccc;"/>
<rect x="209.000000" y="88.000000" width="24.000000" height="24.000000" rx="0" ry="0" style="stroke:none;fill:#4B71A1;"/>
<text x="221.000000" y="102.000000" font-family="Arial" font-size="7" text-anchor="middle" fill="#FFFFFF">*</text>
<circle cx="211.000000" cy="90.000000" r="1"/>
<line x1="206.000000" y1="95.000000" x2="209.000000" y2="96.000000"  transform="rotate(0.000000,209.000000,96.000000)" style="stroke: black; stroke-width:0.25;"/>
<line x1="206.000000" y1="97.000000" x2="209.000000" y2="96.000000"  transform="rotate(0.000000,209.000000,96.000000)" style="stroke: black; stroke-width:0.25;"/>
<line x1="206.000000" y1="103.000000" x2="209.000000" y2="104.000000"  transform="rotate(0.000000,209.000000,104.000000)" style="stroke: black; stroke-width:0.25;"/>
<line x1="206.000000" y1="105.000000" x2="209.000000" y2="104.000000"  transform="rotate(0.000000,209.000000,104.000000)" style="stroke: black; stroke-width:0.25;"/>
<rect x="117.500000" y="153.000000" width="24.000000" height="24.000000" rx="0" ry="0" style="stroke:none;fill:#cccccc;"/>
<rect x="116.500000" y="152.000000" width="24.000000" height="24.000000" rx="0" ry="0" style="stroke:none;fill:#f44800;"/>
<text x="128.500000" y="166.000000" font-family="Arial" font-size="7" text-anchor="middle" fill="#FFFFFF">2</text>
<circle cx="118.500000" cy="154.000000" r="1"/>
<rect x="250.000000" y="105.000000" width="24.000000" height="24.000000" rx="0" ry="0" style="stroke:none;fill:#cccccc;"/>
<rect x="249.000000" y="104.000000" width="24.000000" height="24.000000" rx="0" ry="0" style="stroke:none;fill:#4B71A1;"/>
<text x="261.000000" y="118.000000" font-family="Arial" font-size="7" text-anchor="middle" fill="#FFFFFF">/</text>
<circle cx="251.000000" cy="106.000000" r="1"/>
<line x1="246.000000" y1="111.000000" x2="249.000000" y2="112.000000"  transform="rotate(0.000000,249.000000,112.000000)" style="stroke: black; stroke-width:0.25;"/>
<line x1="246.000000" y1="113.000000" x2="249.000000" y2="112.000000"  transform="rotate(0.000000,249.000000,112.000000)" style="stroke: black; stroke-width:0.25;"/>
<line x1="246.000000" y1="119.000000" x2="249.000000" y2="120.000000"  transform="rotate(0.000000,249.000000,120.000000)" style="stroke: black; stroke-width:0.25;"/>
<line x1="246.000000" y1="121.000000" x2="249.000000" y2="120.000000"  transform="rotate(0.000000,249.000000,120.000000)" style="stroke: black; stroke-width:0.25;"/>
<rect x="290.000000" y="89.000000" width="24.000000" height="24.000000" rx="0" ry="0" style="stroke:none;fill:#cccccc;"/>
<rect x="289.000000" y="88.000000" width="24.000000" height="24.000000" rx="0" ry="0" style="stroke:none;fill:#4B71A1;"/>
<text x="301.000000" y="102.000000" font-family="Arial" font-size="7" text-anchor="middle" fill="#FFFFFF">+</text>
<circle cx="291.000000" cy="90.000000" r="1"/>
<line x1="286.000000" y1="95.000000" x2="289.000000" y2="96.000000"  transform="rotate(0.000000,289.000000,96.000000)" style="stroke: black; stroke-width:0.25;"/>
<line x1="286.000000" y1="97.000000" x2="289.000000" y2="96.000000"  transform="rotate(0.000000,289.000000,96.000000)" style="stroke: black; stroke-width:0.25;"/>
<line x1="286.000000" y1="103.000000" x2="289.000000" y2="104.000000"  transform="rotate(0.000000,289.000000,104.000000)" style="stroke: black; stroke-width:0.25;"/>
<line x1="286.000000" y1="105.000000" x2="289.000000" y2="104.000000"  transform="rotate(0.000000,289.000000,104.000000)" style="stroke: black; stroke-width:0.25;"/>
<line x1="15.000000" y1="15.000000" x2="15.000000" y2="185.000000"  style="stroke: black; stroke-linecap:round; stroke-width:0.25; stroke-dasharray:3,3;"/>
<line x1="15.000000" y1="185.000000" x2="330.000000" y2="185.000000"  style="stroke: black; stroke-linecap:round; stroke-width:0.25; stroke-dasharray:3,3;"/>
<line x1="330.000000" y1="185.000000" x2="330.000000" y2="15.000000"  style="stroke: black; stroke-linecap:round; stroke-width:0.25; stroke-dasharray:3,3;"/>
<line x1="15.000000" y1="15.000000" x2="20.000000" y2="15.000000"  style="stroke: black; stroke-linecap:round; stroke-width:0.25; stroke-dasharray:3,3;"/>
<line x1="49.025000" y1="15.000000" x2="330.000000" y2="15.000000"  style="stroke: black; stroke-linecap:round; stroke-width:0.25; stroke-dasharray:3,3;"/>
<text x="20.000000" y="17.000000" font-family="Arial" font-size="7">curdel1</text>
<line x1="332.000000" y1="99.000000" x2="335.000000" y2="100.000000"  transform="rotate(0.000000,335.000000,100.000000)" style="stroke: black; stroke-width:0.25;"/>
<line x1="332.000000" y1="101.000000" x2="335.000000" y2="100.000000"  transform="rotate(0.000000,335.000000,100.000000)" style="stroke: black; stroke-width:0.25;"/>
<line x1="100.500000" y1="100.000000" x2="104.500000" y2="100.000000"  style="stroke:black; stroke-linecap:round; stroke-width:0.25;"/>
<line x1="104.500000" y1="100.000000" x2="157.000000" y2="100.000000"  style="stroke:black; stroke-linecap:round; stroke-width:0.25;"/>
<line x1="127.850000" y1="68.000000" x2="131.850000" y2="68.000000"  style="stroke:black; stroke-linecap:round; stroke-width:0.25;"/>
<line x1="131.850000" y1="68.000000" x2="197.000000" y2="68.000000"  style="stroke:black; stroke-linecap:round; stroke-width:0.25;"/>
<line x1="140.500000" y1="164.000000" x2="144.500000" y2="164.000000"  style="stroke:black; stroke-linecap:round; stroke-width:0.25;"/>
<line x1="144.500000" y1="164.000000" x2="237.000000" y2="164.000000"  style="stroke:black; stroke-linecap:round; stroke-width:0.25;"/>
<line x1="153.000000" y1="132.000000" x2="157.000000" y2="132.000000"  style="stroke:black; stroke-linecap:round; stroke-width:0.25;"/>
<line x1="157.000000" y1="100.000000" x2="165.000000" y2="100.000000"  style="stroke:black; stroke-linecap:round; stroke-width:0.25;"/>
<line x1="157.000000" y1="120.000000" x2="165.000000" y2="120.000000"  style="stroke:black; stroke-linecap:round; stroke-width:0.25;"/>
<line x1="157.000000" y1="132.000000" x2="157.000000" y2="120.000000"  style="stroke:black; stroke-linecap:round; stroke-width:0.25;"/>
<line x1="157.000000" y1="132.000000" x2="157.000000" y2="132.000000"  style="stroke:black; stroke-linecap:round; stroke-width:0.25;"/>
<line x1="165.000000" y1="100.000000" x2="165.000000" y2="112.000000"  style="stroke:black; stroke-linecap:round; stroke-width:0.25;"/>
<line x1="165.000000" y1="112.000000" x2="165.000000" y2="112.000000"  style="stroke:black; stroke-linecap:round; stroke-width:0.25;"/>
<line x1="165.000000" y1="112.000000" x2="169.000000" y2="112.000000"  style="stroke:black; stroke-linecap:round; stroke-width:0.25;"/>
<line x1="165.000000" y1="120.000000" x2="169.000000" y2="120.000000"  style="stroke:black; stroke-linecap:round; stroke-width:0.25;"/>
<line x1="167.850000" y1="36.000000" x2="171.850000" y2="36.000000"  style="stroke:black; stroke-linecap:round; stroke-width:0.25;"/>
<line x1="171.850000" y1="36.000000" x2="277.000000" y2="36.000000"  style="stroke:black; stroke-linecap:round; stroke-width:0.25;"/>
<line x1="193.000000" y1="116.000000" x2="197.000000" y2="116.000000"  style="stroke:black; stroke-linecap:round; stroke-width:0.25;"/>
<line x1="197.000000" y1="68.000000" x2="205.000000" y2="68.000000"  style="stroke:black; stroke-linecap:round; stroke-width:0.25;"/>
<line x1="197.000000" y1="104.000000" x2="205.000000" y2="104.000000"  style="stroke:black; stroke-linecap:round; stroke-width:0.25;"/>
<line x1="197.000000" y1="116.000000" x2="197.000000" y2="104.000000"  style="stroke:black; stroke-linecap:round; stroke-width:0.25;"/>
<line x1="197.000000" y1="116.000000" x2="197.000000" y2="116.000000"  style="stroke:black; stroke-linecap:round; stroke-width:0.25;"/>
<line x1="205.000000" y1="68.000000" x2="205.000000" y2="96.000000"  style="stroke:black; stroke-linecap:round; stroke-width:0.25;"/>
<line x1="205.000000" y1="96.000000" x2="205.000000" y2="96.000000"  style="stroke:black; stroke-linecap:round; stroke-width:0.25;"/>
<line x1="205.000000" y1="96.000000" x2="209.000000" y2="96.000000"  style="stroke:black; stroke-linecap:round; stroke-width:0.25;"/>
<line x1="205.000000" y1="104.000000" x2="209.000000" y2="104.000000"  style="stroke:black; stroke-linecap:round; stroke-width:0.25;"/>
<line x1="233.000000" y1="100.000000" x2="237.000000" y2="100.000000"  style="stroke:black; stroke-linecap:round; stroke-width:0.25;"/>
<line x1="237.000000" y1="100.000000" x2="245.000000" y2="100.000000"  style="stroke:black; stroke-linecap:round; stroke-width:0.25;"/>
<line x1="237.000000" y1="120.000000" x2="245.000000" y2="120.000000"  style="stroke:black; stroke-linecap:round; stroke-width:0.25;"/>
<line x1="237.000000" y1="164.000000" x2="237.000000" y2="120.000000"  style="stroke:black; stroke-linecap:round; stroke-width:0.25;"/>
<line x1="237.000000" y1="164.000000" x2="237.000000" y2="164.000000"  style="stroke:black; stroke-linecap:round; stroke-width:0.25;"/>
<line x1="245.000000" y1="100.000000" x2="245.000000" y2="112.000000"  style="stroke:black; stroke-linecap:round; stroke-width:0.25;"/>
<line x1="245.000000" y1="112.000000" x2="245.000000" y2="112.000000"  style="stroke:black; stroke-linecap:round; stroke-width:0.25;"/>
<line x1="245.000000" y1="112.000000" x2="249.000000" y2="112.000000"  style="stroke:black; stroke-linecap:round; stroke-width:0.25;"/>
<line x1="245.000000" y1="120.000000" x2="249.000000" y2="120.000000"  style="stroke:black; stroke-linecap:round; stroke-width:0.25;"/>
<line x1="273.000000" y1="116.000000" x2="277.000000" y2="116.000000"  style="stroke:black; stroke-linecap:round; stroke-width:0.25;"/>
<line x1="277.000000" y1="36.000000" x2="285.000000" y2="36.000000"  style="stroke:black; stroke-linecap:round; stroke-width:0.25;"/>
<line x1="277.000000" y1="104.000000" x2="285.000000" y2="104.000000"  style="stroke:black; stroke-linecap:round; stroke-width:0.25;"/>
<line x1="277.000000" y1="116.000000" x2="277.000000" y2="104.000000"  style="stroke:black; stroke-linecap:round; stroke-width:0.25;"/>
<line x1="277.000000" y1="116.000000" x2="277.000000" y2="116.000000"  style="stroke:black; stroke-linecap:round; stroke-width:0.25;"/>
<line x1="285.000000" y1="36.000000" x2="285.000000" y2="96.000000"  style="stroke:black; stroke-linecap:round; stroke-width:0.25;"/>
<line x1="285.000000" y1="96.000000" x2="285.000000" y2="96.000000"  style="stroke:black; stroke-linecap:round; stroke-width:0.25;"/>
<line x1="285.000000" y1="96.000000" x2="289.000000" y2="96.000000"  style="stroke:black; stroke-linecap:round; stroke-width:0.25;"/>
<line x1="285.000000" y1="104.000000" x2="289.000000" y2="104.000000"  style="stroke:black; stroke-linecap:round; stroke-width:0.25;"/>
<line x1="313.000000" y1="100.000000" x2="317.000000" y2="100.000000"  style="stroke:black; stroke-linecap:round; stroke-width:0.25;"/>
<line x1="317.000000" y1="100.000000" x2="317.000000" y2="100.000000"  style="stroke:black; stroke-linecap:round; stroke-width:0.25;"/>
<line x1="317.000000" y1="100.000000" x2="321.000000" y2="100.000000"  style="stroke:black; stroke-linecap:round; stroke-width:0.25;"/>
<line x1="321.000000" y1="100.000000" x2="325.000000" y2="100.000000"  style="stroke:black; stroke-linecap:round; stroke-width:0.25;"/>
<line x1="325.000000" y1="100.000000" x2="335.000000" y2="100.000000"  style="stroke:black; stroke-linecap:round; stroke-width:0.25;"/>
</svg>
