<?xml version="1.0"?>
<svg xmlns="http://www.w3.org/2000/svg" xmlns:xlink="http://www.w3.org/1999/xlink" viewBox="0 0 422.400000 304.000000" width="211.200000mm" height="152.000000mm" version="1.1">
<a xlink:href="SFFormantMode-0x7f8d7a132c00.svg">
<rect x="1.000000" y="1.000000" width="421.400000" height="303.000000" rx="0" ry="0" style="stroke:none;fill:#cccccc;"/>
<rect x="0.000000" y="0.000000" width="421.400000" height="303.000000" rx="0" ry="0" style="stroke:none;fill:#ffffff;"/>
</a>
<text x="10.000000" y="7.000000" font-family="Arial" font-size="7"></text>
<rect x="164.850000" y="35.000000" width="24.000000" height="24.000000" rx="0" ry="0" style="stroke:none;fill:#cccccc;"/>
<rect x="163.850000" y="34.000000" width="24.000000" height="24.000000" rx="0" ry="0" style="stroke:none;fill:#f44800;"/>
<text x="175.850000" y="48.000000" font-family="Arial" font-size="7" text-anchor="middle" fill="#FFFFFF">0</text>
<circle cx="165.850000" cy="36.000000" r="1"/>
<line x1="154.850000" y1="25.000000" x2="154.850000" y2="67.000000"  style="stroke: black; stroke-linecap:round; stroke-width:0.25; stroke-dasharray:3,3;"/>
<line x1="154.850000" y1="67.000000" x2="196.850000" y2="67.000000"  style="stroke: black; stroke-linecap:round; stroke-width:0.25; stroke-dasharray:3,3;"/>
<line x1="196.850000" y1="67.000000" x2="196.850000" y2="25.000000"  style="stroke: black; stroke-linecap:round; stroke-width:0.25; stroke-dasharray:3,3;"/>
<line x1="154.850000" y1="25.000000" x2="159.850000" y2="25.000000"  style="stroke: black; stroke-linecap:round; stroke-width:0.25; stroke-dasharray:3,3;"/>
<line x1="172.750000" y1="25.000000" x2="196.850000" y2="25.000000"  style="stroke: black; stroke-linecap:round; stroke-width:0.25; stroke-dasharray:3,3;"/>
<text x="159.850000" y="27.000000" font-family="Arial" font-size="7">b2</text>
<a xlink:href="sawtooth-0x7f8d83d58a50.svg">
<rect x="25.000000" y="77.000000" width="129.000000" height="24.000000" rx="0" ry="0" style="stroke:none;fill:#cccccc;"/>
<rect x="24.000000" y="76.000000" width="129.000000" height="24.000000" rx="0" ry="0" style="stroke:none;fill:#003366;"/>
</a>
<a xlink:href="sawtooth-0x7f8d83d58a50.svg">
<text x="88.500000" y="90.000000" font-family="Arial" font-size="7" text-anchor="middle" fill="#FFFFFF">sawtooth((hsl...),1 : +) : *)</text>
</a>
<circle cx="26.000000" cy="78.000000" r="1"/>
<rect x="57.500000" y="119.000000" width="24.000000" height="24.000000" rx="0" ry="0" style="stroke:none;fill:#cccccc;"/>
<rect x="56.500000" y="118.000000" width="24.000000" height="24.000000" rx="0" ry="0" style="stroke:none;fill:#f44800;"/>
<text x="68.500000" y="132.000000" font-family="Arial" font-size="7" text-anchor="middle" fill="#FFFFFF">1</text>
<circle cx="58.500000" cy="120.000000" r="1"/>
<line x1="47.500000" y1="109.000000" x2="47.500000" y2="151.000000"  style="stroke: black; stroke-linecap:round; stroke-width:0.25; stroke-dasharray:3,3;"/>
<line x1="47.500000" y1="151.000000" x2="89.500000" y2="151.000000"  style="stroke: black; stroke-linecap:round; stroke-width:0.25; stroke-dasharray:3,3;"/>
<line x1="89.500000" y1="151.000000" x2="89.500000" y2="109.000000"  style="stroke: black; stroke-linecap:round; stroke-width:0.25; stroke-dasharray:3,3;"/>
<line x1="47.500000" y1="109.000000" x2="52.500000" y2="109.000000"  style="stroke: black; stroke-linecap:round; stroke-width:0.25; stroke-dasharray:3,3;"/>
<line x1="65.400000" y1="109.000000" x2="89.500000" y2="109.000000"  style="stroke: black; stroke-linecap:round; stroke-width:0.25; stroke-dasharray:3,3;"/>
<text x="52.500000" y="111.000000" font-family="Arial" font-size="7">a0</text>
<a xlink:href="fricative-0x7f8d8520a220.svg">
<rect x="50.150000" y="161.000000" width="38.700000" height="24.000000" rx="0" ry="0" style="stroke:none;fill:#cccccc;"/>
<rect x="49.150000" y="160.000000" width="38.700000" height="24.000000" rx="0" ry="0" style="stroke:none;fill:#003366;"/>
</a>
<a xlink:href="fricative-0x7f8d8520a220.svg">
<text x="68.500000" y="174.000000" font-family="Arial" font-size="7" text-anchor="middle" fill="#FFFFFF">fricative</text>
</a>
<circle cx="51.150000" cy="162.000000" r="1"/>
<rect x="107.500000" y="135.000000" width="24.000000" height="24.000000" rx="0" ry="0" style="stroke:none;fill:#cccccc;"/>
<rect x="106.500000" y="134.000000" width="24.000000" height="24.000000" rx="0" ry="0" style="stroke:none;fill:#4B71A1;"/>
<text x="118.500000" y="148.000000" font-family="Arial" font-size="7" text-anchor="middle" fill="#FFFFFF">-</text>
<circle cx="108.500000" cy="136.000000" r="1"/>
<line x1="103.500000" y1="141.000000" x2="106.500000" y2="142.000000"  transform="rotate(0.000000,106.500000,142.000000)" style="stroke: black; stroke-width:0.25;"/>
<line x1="103.500000" y1="143.000000" x2="106.500000" y2="142.000000"  transform="rotate(0.000000,106.500000,142.000000)" style="stroke: black; stroke-width:0.25;"/>
<line x1="103.500000" y1="149.000000" x2="106.500000" y2="150.000000"  transform="rotate(0.000000,106.500000,150.000000)" style="stroke: black; stroke-width:0.25;"/>
<line x1="103.500000" y1="151.000000" x2="106.500000" y2="150.000000"  transform="rotate(0.000000,106.500000,150.000000)" style="stroke: black; stroke-width:0.25;"/>
<rect x="170.000000" y="119.000000" width="24.000000" height="24.000000" rx="0" ry="0" style="stroke:none;fill:#cccccc;"/>
<rect x="169.000000" y="118.000000" width="24.000000" height="24.000000" rx="0" ry="0" style="stroke:none;fill:#4B71A1;"/>
<text x="181.000000" y="132.000000" font-family="Arial" font-size="7" text-anchor="middle" fill="#FFFFFF">*</text>
<circle cx="171.000000" cy="120.000000" r="1"/>
<line x1="166.000000" y1="125.000000" x2="169.000000" y2="126.000000"  transform="rotate(0.000000,169.000000,126.000000)" style="stroke: black; stroke-width:0.25;"/>
<line x1="166.000000" y1="127.000000" x2="169.000000" y2="126.000000"  transform="rotate(0.000000,169.000000,126.000000)" style="stroke: black; stroke-width:0.25;"/>
<line x1="166.000000" y1="133.000000" x2="169.000000" y2="134.000000"  transform="rotate(0.000000,169.000000,134.000000)" style="stroke: black; stroke-width:0.25;"/>
<line x1="166.000000" y1="135.000000" x2="169.000000" y2="134.000000"  transform="rotate(0.000000,169.000000,134.000000)" style="stroke: black; stroke-width:0.25;"/>
<a xlink:href="breath-0x7f8d83d25ac0.svg">
<rect x="76.600000" y="193.000000" width="25.800000" height="24.000000" rx="0" ry="0" style="stroke:none;fill:#cccccc;"/>
<rect x="75.600000" y="192.000000" width="25.800000" height="24.000000" rx="0" ry="0" style="stroke:none;fill:#003366;"/>
</a>
<a xlink:href="breath-0x7f8d83d25ac0.svg">
<text x="88.500000" y="206.000000" font-family="Arial" font-size="7" text-anchor="middle" fill="#FFFFFF">breath</text>
</a>
<circle cx="77.600000" cy="194.000000" r="1"/>
<a xlink:href="fricative-0x7f8d8520a220.svg">
<rect x="70.150000" y="225.000000" width="38.700000" height="24.000000" rx="0" ry="0" style="stroke:none;fill:#cccccc;"/>
<rect x="69.150000" y="224.000000" width="38.700000" height="24.000000" rx="0" ry="0" style="stroke:none;fill:#003366;"/>
</a>
<a xlink:href="fricative-0x7f8d8520a220.svg">
<text x="88.500000" y="238.000000" font-family="Arial" font-size="7" text-anchor="middle" fill="#FFFFFF">fricative</text>
</a>
<circle cx="71.150000" cy="226.000000" r="1"/>
<rect x="124.850000" y="209.000000" width="24.000000" height="24.000000" rx="0" ry="0" style="stroke:none;fill:#cccccc;"/>
<rect x="123.850000" y="208.000000" width="24.000000" height="24.000000" rx="0" ry="0" style="stroke:none;fill:#4B71A1;"/>
<text x="135.850000" y="222.000000" font-family="Arial" font-size="7" text-anchor="middle" fill="#FFFFFF">*</text>
<circle cx="125.850000" cy="210.000000" r="1"/>
<line x1="120.850000" y1="215.000000" x2="123.850000" y2="216.000000"  transform="rotate(0.000000,123.850000,216.000000)" style="stroke: black; stroke-width:0.25;"/>
<line x1="120.850000" y1="217.000000" x2="123.850000" y2="216.000000"  transform="rotate(0.000000,123.850000,216.000000)" style="stroke: black; stroke-width:0.25;"/>
<line x1="120.850000" y1="223.000000" x2="123.850000" y2="224.000000"  transform="rotate(0.000000,123.850000,224.000000)" style="stroke: black; stroke-width:0.25;"/>
<line x1="120.850000" y1="225.000000" x2="123.850000" y2="224.000000"  transform="rotate(0.000000,123.850000,224.000000)" style="stroke: black; stroke-width:0.25;"/>
<rect x="210.000000" y="151.000000" width="24.000000" height="24.000000" rx="0" ry="0" style="stroke:none;fill:#cccccc;"/>
<rect x="209.000000" y="150.000000" width="24.000000" height="24.000000" rx="0" ry="0" style="stroke:none;fill:#4B71A1;"/>
<text x="221.000000" y="164.000000" font-family="Arial" font-size="7" text-anchor="middle" fill="#FFFFFF">+</text>
<circle cx="211.000000" cy="152.000000" r="1"/>
<line x1="206.000000" y1="157.000000" x2="209.000000" y2="158.000000"  transform="rotate(0.000000,209.000000,158.000000)" style="stroke: black; stroke-width:0.25;"/>
<line x1="206.000000" y1="159.000000" x2="209.000000" y2="158.000000"  transform="rotate(0.000000,209.000000,158.000000)" style="stroke: black; stroke-width:0.25;"/>
<line x1="206.000000" y1="165.000000" x2="209.000000" y2="166.000000"  transform="rotate(0.000000,209.000000,166.000000)" style="stroke: black; stroke-width:0.25;"/>
<line x1="206.000000" y1="167.000000" x2="209.000000" y2="166.000000"  transform="rotate(0.000000,209.000000,166.000000)" style="stroke: black; stroke-width:0.25;"/>
<a xlink:href="envelope-0x7f8d83c69020.svg">
<rect x="250.000000" y="155.000000" width="38.700000" height="24.000000" rx="0" ry="0" style="stroke:none;fill:#cccccc;"/>
<rect x="249.000000" y="154.000000" width="38.700000" height="24.000000" rx="0" ry="0" style="stroke:none;fill:#003366;"/>
</a>
<a xlink:href="envelope-0x7f8d83c69020.svg">
<text x="268.350000" y="168.000000" font-family="Arial" font-size="7" text-anchor="middle" fill="#FFFFFF">envelope</text>
</a>
<circle cx="251.000000" cy="156.000000" r="1"/>
<rect x="304.700000" y="151.000000" width="24.000000" height="24.000000" rx="0" ry="0" style="stroke:none;fill:#cccccc;"/>
<rect x="303.700000" y="150.000000" width="24.000000" height="24.000000" rx="0" ry="0" style="stroke:none;fill:#4B71A1;"/>
<text x="315.700000" y="164.000000" font-family="Arial" font-size="7" text-anchor="middle" fill="#FFFFFF">*</text>
<circle cx="305.700000" cy="152.000000" r="1"/>
<line x1="300.700000" y1="157.000000" x2="303.700000" y2="158.000000"  transform="rotate(0.000000,303.700000,158.000000)" style="stroke: black; stroke-width:0.25;"/>
<line x1="300.700000" y1="159.000000" x2="303.700000" y2="158.000000"  transform="rotate(0.000000,303.700000,158.000000)" style="stroke: black; stroke-width:0.25;"/>
<line x1="300.700000" y1="165.000000" x2="303.700000" y2="166.000000"  transform="rotate(0.000000,303.700000,166.000000)" style="stroke: black; stroke-width:0.25;"/>
<line x1="300.700000" y1="167.000000" x2="303.700000" y2="166.000000"  transform="rotate(0.000000,303.700000,166.000000)" style="stroke: black; stroke-width:0.25;"/>
<a xlink:href="sawtooth-0x7f8d83d58a50.svg">
<rect x="112.350000" y="257.000000" width="129.000000" height="24.000000" rx="0" ry="0" style="stroke:none;fill:#cccccc;"/>
<rect x="111.350000" y="256.000000" width="129.000000" height="24.000000" rx="0" ry="0" style="stroke:none;fill:#003366;"/>
</a>
<a xlink:href="sawtooth-0x7f8d83d58a50.svg">
<text x="175.850000" y="270.000000" font-family="Arial" font-size="7" text-anchor="middle" fill="#FFFFFF">sawtooth((hsl...),1 : +) : *)</text>
</a>
<circle cx="113.350000" cy="258.000000" r="1"/>
<rect x="352.700000" y="141.000000" width="38.700000" height="24.000000" rx="0" ry="0" style="stroke:none;fill:#cccccc;"/>
<rect x="351.700000" y="140.000000" width="38.700000" height="24.000000" rx="0" ry="0" style="stroke:none;fill:#4B71A1;"/>
<text x="371.050000" y="154.000000" font-family="Arial" font-size="7" text-anchor="middle" fill="#FFFFFF">select2</text>
<circle cx="353.700000" cy="142.000000" r="1"/>
<line x1="348.700000" y1="143.000000" x2="351.700000" y2="144.000000"  transform="rotate(0.000000,351.700000,144.000000)" style="stroke: black; stroke-width:0.25;"/>
<line x1="348.700000" y1="145.000000" x2="351.700000" y2="144.000000"  transform="rotate(0.000000,351.700000,144.000000)" style="stroke: black; stroke-width:0.25;"/>
<line x1="348.700000" y1="151.000000" x2="351.700000" y2="152.000000"  transform="rotate(0.000000,351.700000,152.000000)" style="stroke: black; stroke-width:0.25;"/>
<line x1="348.700000" y1="153.000000" x2="351.700000" y2="152.000000"  transform="rotate(0.000000,351.700000,152.000000)" style="stroke: black; stroke-width:0.25;"/>
<line x1="348.700000" y1="159.000000" x2="351.700000" y2="160.000000"  transform="rotate(0.000000,351.700000,160.000000)" style="stroke: black; stroke-width:0.25;"/>
<line x1="348.700000" y1="161.000000" x2="351.700000" y2="160.000000"  transform="rotate(0.000000,351.700000,160.000000)" style="stroke: black; stroke-width:0.25;"/>
<line x1="15.000000" y1="15.000000" x2="15.000000" y2="289.000000"  style="stroke: black; stroke-linecap:round; stroke-width:0.25; stroke-dasharray:3,3;"/>
<line x1="15.000000" y1="289.000000" x2="407.400000" y2="289.000000"  style="stroke: black; stroke-linecap:round; stroke-width:0.25; stroke-dasharray:3,3;"/>
<line x1="407.400000" y1="289.000000" x2="407.400000" y2="15.000000"  style="stroke: black; stroke-linecap:round; stroke-width:0.25; stroke-dasharray:3,3;"/>
<line x1="15.000000" y1="15.000000" x2="20.000000" y2="15.000000"  style="stroke: black; stroke-linecap:round; stroke-width:0.25; stroke-dasharray:3,3;"/>
<line x1="58.700000" y1="15.000000" x2="407.400000" y2="15.000000"  style="stroke: black; stroke-linecap:round; stroke-width:0.25; stroke-dasharray:3,3;"/>
<text x="20.000000" y="17.000000" font-family="Arial" font-size="7">excitation</text>
<line x1="409.400000" y1="151.000000" x2="412.400000" y2="152.000000"  transform="rotate(0.000000,412.400000,152.000000)" style="stroke: black; stroke-width:0.25;"/>
<line x1="409.400000" y1="153.000000" x2="412.400000" y2="152.000000"  transform="rotate(0.000000,412.400000,152.000000)" style="stroke: black; stroke-width:0.25;"/>
<line x1="80.500000" y1="130.000000" x2="84.500000" y2="130.000000"  style="stroke:black; stroke-linecap:round; stroke-width:0.25;"/>
<line x1="84.500000" y1="130.000000" x2="94.500000" y2="130.000000"  style="stroke:black; stroke-linecap:round; stroke-width:0.25;"/>
<line x1="87.850000" y1="172.000000" x2="91.850000" y2="172.000000"  style="stroke:black; stroke-linecap:round; stroke-width:0.25;"/>
<line x1="91.850000" y1="172.000000" x2="94.500000" y2="172.000000"  style="stroke:black; stroke-linecap:round; stroke-width:0.25;"/>
<line x1="94.500000" y1="130.000000" x2="102.500000" y2="130.000000"  style="stroke:black; stroke-linecap:round; stroke-width:0.25;"/>
<line x1="94.500000" y1="150.000000" x2="102.500000" y2="150.000000"  style="stroke:black; stroke-linecap:round; stroke-width:0.25;"/>
<line x1="94.500000" y1="172.000000" x2="94.500000" y2="150.000000"  style="stroke:black; stroke-linecap:round; stroke-width:0.25;"/>
<line x1="94.500000" y1="172.000000" x2="94.500000" y2="172.000000"  style="stroke:black; stroke-linecap:round; stroke-width:0.25;"/>
<line x1="101.400000" y1="204.000000" x2="105.400000" y2="204.000000"  style="stroke:black; stroke-linecap:round; stroke-width:0.25;"/>
<line x1="102.500000" y1="130.000000" x2="102.500000" y2="142.000000"  style="stroke:black; stroke-linecap:round; stroke-width:0.25;"/>
<line x1="102.500000" y1="142.000000" x2="102.500000" y2="142.000000"  style="stroke:black; stroke-linecap:round; stroke-width:0.25;"/>
<line x1="102.500000" y1="142.000000" x2="106.500000" y2="142.000000"  style="stroke:black; stroke-linecap:round; stroke-width:0.25;"/>
<line x1="102.500000" y1="150.000000" x2="106.500000" y2="150.000000"  style="stroke:black; stroke-linecap:round; stroke-width:0.25;"/>
<line x1="105.400000" y1="204.000000" x2="111.850000" y2="204.000000"  style="stroke:black; stroke-linecap:round; stroke-width:0.25;"/>
<line x1="107.850000" y1="236.000000" x2="111.850000" y2="236.000000"  style="stroke:black; stroke-linecap:round; stroke-width:0.25;"/>
<line x1="111.850000" y1="224.000000" x2="119.850000" y2="224.000000"  style="stroke:black; stroke-linecap:round; stroke-width:0.25;"/>
<line x1="111.850000" y1="236.000000" x2="111.850000" y2="224.000000"  style="stroke:black; stroke-linecap:round; stroke-width:0.25;"/>
<line x1="111.850000" y1="236.000000" x2="111.850000" y2="236.000000"  style="stroke:black; stroke-linecap:round; stroke-width:0.25;"/>
<line x1="111.850000" y1="204.000000" x2="119.850000" y2="204.000000"  style="stroke:black; stroke-linecap:round; stroke-width:0.25;"/>
<line x1="119.850000" y1="216.000000" x2="123.850000" y2="216.000000"  style="stroke:black; stroke-linecap:round; stroke-width:0.25;"/>
<line x1="119.850000" y1="224.000000" x2="123.850000" y2="224.000000"  style="stroke:black; stroke-linecap:round; stroke-width:0.25;"/>
<line x1="119.850000" y1="204.000000" x2="119.850000" y2="216.000000"  style="stroke:black; stroke-linecap:round; stroke-width:0.25;"/>
<line x1="119.850000" y1="216.000000" x2="119.850000" y2="216.000000"  style="stroke:black; stroke-linecap:round; stroke-width:0.25;"/>
<line x1="130.500000" y1="146.000000" x2="134.500000" y2="146.000000"  style="stroke:black; stroke-linecap:round; stroke-width:0.25;"/>
<line x1="134.500000" y1="146.000000" x2="157.000000" y2="146.000000"  style="stroke:black; stroke-linecap:round; stroke-width:0.25;"/>
<line x1="147.850000" y1="220.000000" x2="151.850000" y2="220.000000"  style="stroke:black; stroke-linecap:round; stroke-width:0.25;"/>
<line x1="151.850000" y1="220.000000" x2="197.000000" y2="220.000000"  style="stroke:black; stroke-linecap:round; stroke-width:0.25;"/>
<line x1="153.000000" y1="88.000000" x2="157.000000" y2="88.000000"  style="stroke:black; stroke-linecap:round; stroke-width:0.25;"/>
<line x1="157.000000" y1="88.000000" x2="165.000000" y2="88.000000"  style="stroke:black; stroke-linecap:round; stroke-width:0.25;"/>
<line x1="157.000000" y1="134.000000" x2="165.000000" y2="134.000000"  style="stroke:black; stroke-linecap:round; stroke-width:0.25;"/>
<line x1="157.000000" y1="146.000000" x2="157.000000" y2="134.000000"  style="stroke:black; stroke-linecap:round; stroke-width:0.25;"/>
<line x1="157.000000" y1="146.000000" x2="157.000000" y2="146.000000"  style="stroke:black; stroke-linecap:round; stroke-width:0.25;"/>
<line x1="165.000000" y1="88.000000" x2="165.000000" y2="126.000000"  style="stroke:black; stroke-linecap:round; stroke-width:0.25;"/>
<line x1="165.000000" y1="126.000000" x2="165.000000" y2="126.000000"  style="stroke:black; stroke-linecap:round; stroke-width:0.25;"/>
<line x1="165.000000" y1="126.000000" x2="169.000000" y2="126.000000"  style="stroke:black; stroke-linecap:round; stroke-width:0.25;"/>
<line x1="165.000000" y1="134.000000" x2="169.000000" y2="134.000000"  style="stroke:black; stroke-linecap:round; stroke-width:0.25;"/>
<line x1="187.850000" y1="46.000000" x2="191.850000" y2="46.000000"  style="stroke:black; stroke-linecap:round; stroke-width:0.25;"/>
<line x1="191.850000" y1="46.000000" x2="201.850000" y2="46.000000"  style="stroke:black; stroke-linecap:round; stroke-width:0.25;"/>
<line x1="193.000000" y1="130.000000" x2="197.000000" y2="130.000000"  style="stroke:black; stroke-linecap:round; stroke-width:0.25;"/>
<line x1="197.000000" y1="130.000000" x2="205.000000" y2="130.000000"  style="stroke:black; stroke-linecap:round; stroke-width:0.25;"/>
<line x1="197.000000" y1="166.000000" x2="205.000000" y2="166.000000"  style="stroke:black; stroke-linecap:round; stroke-width:0.25;"/>
<line x1="197.000000" y1="220.000000" x2="197.000000" y2="166.000000"  style="stroke:black; stroke-linecap:round; stroke-width:0.25;"/>
<line x1="197.000000" y1="220.000000" x2="197.000000" y2="220.000000"  style="stroke:black; stroke-linecap:round; stroke-width:0.25;"/>
<line x1="201.850000" y1="46.000000" x2="331.700000" y2="46.000000"  style="stroke:black; stroke-linecap:round; stroke-width:0.25;"/>
<line x1="205.000000" y1="130.000000" x2="205.000000" y2="158.000000"  style="stroke:black; stroke-linecap:round; stroke-width:0.25;"/>
<line x1="205.000000" y1="158.000000" x2="205.000000" y2="158.000000"  style="stroke:black; stroke-linecap:round; stroke-width:0.25;"/>
<line x1="205.000000" y1="158.000000" x2="209.000000" y2="158.000000"  style="stroke:black; stroke-linecap:round; stroke-width:0.25;"/>
<line x1="205.000000" y1="166.000000" x2="209.000000" y2="166.000000"  style="stroke:black; stroke-linecap:round; stroke-width:0.25;"/>
<line x1="233.000000" y1="162.000000" x2="237.000000" y2="162.000000"  style="stroke:black; stroke-linecap:round; stroke-width:0.25;"/>
<line x1="237.000000" y1="146.000000" x2="245.000000" y2="146.000000"  style="stroke:black; stroke-linecap:round; stroke-width:0.25;"/>
<line x1="237.000000" y1="162.000000" x2="237.000000" y2="146.000000"  style="stroke:black; stroke-linecap:round; stroke-width:0.25;"/>
<line x1="237.000000" y1="162.000000" x2="237.000000" y2="162.000000"  style="stroke:black; stroke-linecap:round; stroke-width:0.25;"/>
<line x1="240.350000" y1="268.000000" x2="244.350000" y2="268.000000"  style="stroke:black; stroke-linecap:round; stroke-width:0.25;"/>
<line x1="244.350000" y1="268.000000" x2="331.700000" y2="268.000000"  style="stroke:black; stroke-linecap:round; stroke-width:0.25;"/>
<line x1="245.000000" y1="146.000000" x2="268.350000" y2="146.000000"  style="stroke:black; stroke-linecap:round; stroke-width:0.25;"/>
<line x1="268.350000" y1="146.000000" x2="291.700000" y2="146.000000"  style="stroke:black; stroke-linecap:round; stroke-width:0.25;"/>
<line x1="287.700000" y1="166.000000" x2="291.700000" y2="166.000000"  style="stroke:black; stroke-linecap:round; stroke-width:0.25;"/>
<line x1="291.700000" y1="166.000000" x2="299.700000" y2="166.000000"  style="stroke:black; stroke-linecap:round; stroke-width:0.25;"/>
<line x1="291.700000" y1="146.000000" x2="299.700000" y2="146.000000"  style="stroke:black; stroke-linecap:round; stroke-width:0.25;"/>
<line x1="299.700000" y1="158.000000" x2="303.700000" y2="158.000000"  style="stroke:black; stroke-linecap:round; stroke-width:0.25;"/>
<line x1="299.700000" y1="166.000000" x2="303.700000" y2="166.000000"  style="stroke:black; stroke-linecap:round; stroke-width:0.25;"/>
<line x1="299.700000" y1="146.000000" x2="299.700000" y2="158.000000"  style="stroke:black; stroke-linecap:round; stroke-width:0.25;"/>
<line x1="299.700000" y1="158.000000" x2="299.700000" y2="158.000000"  style="stroke:black; stroke-linecap:round; stroke-width:0.25;"/>
<line x1="327.700000" y1="162.000000" x2="331.700000" y2="162.000000"  style="stroke:black; stroke-linecap:round; stroke-width:0.25;"/>
<line x1="331.700000" y1="46.000000" x2="347.700000" y2="46.000000"  style="stroke:black; stroke-linecap:round; stroke-width:0.25;"/>
<line x1="331.700000" y1="152.000000" x2="347.700000" y2="152.000000"  style="stroke:black; stroke-linecap:round; stroke-width:0.25;"/>
<line x1="331.700000" y1="162.000000" x2="331.700000" y2="152.000000"  style="stroke:black; stroke-linecap:round; stroke-width:0.25;"/>
<line x1="331.700000" y1="162.000000" x2="331.700000" y2="162.000000"  style="stroke:black; stroke-linecap:round; stroke-width:0.25;"/>
<line x1="331.700000" y1="268.000000" x2="339.700000" y2="268.000000"  style="stroke:black; stroke-linecap:round; stroke-width:0.25;"/>
<line x1="339.700000" y1="160.000000" x2="347.700000" y2="160.000000"  style="stroke:black; stroke-linecap:round; stroke-width:0.25;"/>
<line x1="339.700000" y1="268.000000" x2="339.700000" y2="160.000000"  style="stroke:black; stroke-linecap:round; stroke-width:0.25;"/>
<line x1="347.700000" y1="46.000000" x2="347.700000" y2="144.000000"  style="stroke:black; stroke-linecap:round; stroke-width:0.25;"/>
<line x1="347.700000" y1="144.000000" x2="347.700000" y2="144.000000"  style="stroke:black; stroke-linecap:round; stroke-width:0.25;"/>
<line x1="347.700000" y1="144.000000" x2="351.700000" y2="144.000000"  style="stroke:black; stroke-linecap:round; stroke-width:0.25;"/>
<line x1="347.700000" y1="152.000000" x2="351.700000" y2="152.000000"  style="stroke:black; stroke-linecap:round; stroke-width:0.25;"/>
<line x1="347.700000" y1="160.000000" x2="351.700000" y2="160.000000"  style="stroke:black; stroke-linecap:round; stroke-width:0.25;"/>
<line x1="390.400000" y1="152.000000" x2="394.400000" y2="152.000000"  style="stroke:black; stroke-linecap:round; stroke-width:0.25;"/>
<line x1="394.400000" y1="152.000000" x2="394.400000" y2="152.000000"  style="stroke:black; stroke-linecap:round; stroke-width:0.25;"/>
<line x1="394.400000" y1="152.000000" x2="398.400000" y2="152.000000"  style="stroke:black; stroke-linecap:round; stroke-width:0.25;"/>
<line x1="398.400000" y1="152.000000" x2="402.400000" y2="152.000000"  style="stroke:black; stroke-linecap:round; stroke-width:0.25;"/>
<line x1="402.400000" y1="152.000000" x2="412.400000" y2="152.000000"  style="stroke:black; stroke-linecap:round; stroke-width:0.25;"/>
</svg>
