<?xml version="1.0"?>
<svg xmlns="http://www.w3.org/2000/svg" xmlns:xlink="http://www.w3.org/1999/xlink" viewBox="0 0 309.500000 188.000000" width="154.750000mm" height="94.000000mm" version="1.1">
<a xlink:href="phasor-0x7ffbfe726b70.svg">
<rect x="1.000000" y="1.000000" width="308.500000" height="187.000000" rx="0" ry="0" style="stroke:none;fill:#cccccc;"/>
<rect x="0.000000" y="0.000000" width="308.500000" height="187.000000" rx="0" ry="0" style="stroke:none;fill:#ffffff;"/>
</a>
<text x="10.000000" y="7.000000" font-family="Arial" font-size="7"></text>
<rect x="35.000000" y="35.000000" width="193.500000" height="24.000000" rx="0" ry="0" style="stroke:none;fill:#cccccc;"/>
<rect x="34.000000" y="34.000000" width="193.500000" height="24.000000" rx="0" ry="0" style="stroke:none;fill:#477881;"/>
<text x="130.750000" y="48.000000" font-family="Arial" font-size="7" text-anchor="middle" fill="#FFFFFF">hslider(freq, 400.0f, 50.0f, 2000.0f, 0.01f)</text>
<circle cx="36.000000" cy="36.000000" r="1"/>
<line x1="25.000000" y1="25.000000" x2="25.000000" y2="67.000000"  style="stroke: black; stroke-linecap:round; stroke-width:0.25; stroke-dasharray:3,3;"/>
<line x1="25.000000" y1="67.000000" x2="236.500000" y2="67.000000"  style="stroke: black; stroke-linecap:round; stroke-width:0.25; stroke-dasharray:3,3;"/>
<line x1="236.500000" y1="67.000000" x2="236.500000" y2="25.000000"  style="stroke: black; stroke-linecap:round; stroke-width:0.25; stroke-dasharray:3,3;"/>
<line x1="25.000000" y1="25.000000" x2="30.000000" y2="25.000000"  style="stroke: black; stroke-linecap:round; stroke-width:0.25; stroke-dasharray:3,3;"/>
<line x1="49.350000" y1="25.000000" x2="236.500000" y2="25.000000"  style="stroke: black; stroke-linecap:round; stroke-width:0.25; stroke-dasharray:3,3;"/>
<text x="30.000000" y="27.000000" font-family="Arial" font-size="7">freq</text>
<rect x="99.750000" y="77.000000" width="24.000000" height="24.000000" rx="0" ry="0" style="stroke:none;fill:#cccccc;"/>
<rect x="98.750000" y="76.000000" width="24.000000" height="24.000000" rx="0" ry="0" style="stroke:none;fill:#f44800;"/>
<text x="110.750000" y="90.000000" font-family="Arial" font-size="7" text-anchor="middle" fill="#FFFFFF">1</text>
<circle cx="100.750000" cy="78.000000" r="1"/>
<rect x="79.750000" y="109.000000" width="24.000000" height="24.000000" rx="0" ry="0" style="stroke:none;fill:#cccccc;"/>
<rect x="78.750000" y="108.000000" width="24.000000" height="24.000000" rx="0" ry="0" style="stroke:none;fill:#f44800;"/>
<text x="90.750000" y="122.000000" font-family="Arial" font-size="7" text-anchor="middle" fill="#FFFFFF">0.5</text>
<circle cx="80.750000" cy="110.000000" r="1"/>
<a xlink:href="modeSpread-0x7ffbfe45e780.svg">
<rect x="65.950000" y="141.000000" width="51.600000" height="24.000000" rx="0" ry="0" style="stroke:none;fill:#cccccc;"/>
<rect x="64.950000" y="140.000000" width="51.600000" height="24.000000" rx="0" ry="0" style="stroke:none;fill:#003366;"/>
</a>
<a xlink:href="modeSpread-0x7ffbfe45e780.svg">
<text x="90.750000" y="154.000000" font-family="Arial" font-size="7" text-anchor="middle" fill="#FFFFFF">modeSpread</text>
</a>
<circle cx="66.950000" cy="142.000000" r="1"/>
<rect x="133.550000" y="125.000000" width="24.000000" height="24.000000" rx="0" ry="0" style="stroke:none;fill:#cccccc;"/>
<rect x="132.550000" y="124.000000" width="24.000000" height="24.000000" rx="0" ry="0" style="stroke:none;fill:#4B71A1;"/>
<text x="144.550000" y="138.000000" font-family="Arial" font-size="7" text-anchor="middle" fill="#FFFFFF">*</text>
<circle cx="134.550000" cy="126.000000" r="1"/>
<line x1="129.550000" y1="131.000000" x2="132.550000" y2="132.000000"  transform="rotate(0.000000,132.550000,132.000000)" style="stroke: black; stroke-width:0.25;"/>
<line x1="129.550000" y1="133.000000" x2="132.550000" y2="132.000000"  transform="rotate(0.000000,132.550000,132.000000)" style="stroke: black; stroke-width:0.25;"/>
<line x1="129.550000" y1="139.000000" x2="132.550000" y2="140.000000"  transform="rotate(0.000000,132.550000,140.000000)" style="stroke: black; stroke-width:0.25;"/>
<line x1="129.550000" y1="141.000000" x2="132.550000" y2="140.000000"  transform="rotate(0.000000,132.550000,140.000000)" style="stroke: black; stroke-width:0.25;"/>
<rect x="173.550000" y="109.000000" width="24.000000" height="24.000000" rx="0" ry="0" style="stroke:none;fill:#cccccc;"/>
<rect x="172.550000" y="108.000000" width="24.000000" height="24.000000" rx="0" ry="0" style="stroke:none;fill:#4B71A1;"/>
<text x="184.550000" y="122.000000" font-family="Arial" font-size="7" text-anchor="middle" fill="#FFFFFF">+</text>
<circle cx="174.550000" cy="110.000000" r="1"/>
<line x1="169.550000" y1="115.000000" x2="172.550000" y2="116.000000"  transform="rotate(0.000000,172.550000,116.000000)" style="stroke: black; stroke-width:0.25;"/>
<line x1="169.550000" y1="117.000000" x2="172.550000" y2="116.000000"  transform="rotate(0.000000,172.550000,116.000000)" style="stroke: black; stroke-width:0.25;"/>
<line x1="169.550000" y1="123.000000" x2="172.550000" y2="124.000000"  transform="rotate(0.000000,172.550000,124.000000)" style="stroke: black; stroke-width:0.25;"/>
<line x1="169.550000" y1="125.000000" x2="172.550000" y2="124.000000"  transform="rotate(0.000000,172.550000,124.000000)" style="stroke: black; stroke-width:0.25;"/>
<rect x="254.500000" y="83.000000" width="24.000000" height="24.000000" rx="0" ry="0" style="stroke:none;fill:#cccccc;"/>
<rect x="253.500000" y="82.000000" width="24.000000" height="24.000000" rx="0" ry="0" style="stroke:none;fill:#4B71A1;"/>
<text x="265.500000" y="96.000000" font-family="Arial" font-size="7" text-anchor="middle" fill="#FFFFFF">*</text>
<circle cx="255.500000" cy="84.000000" r="1"/>
<line x1="250.500000" y1="89.000000" x2="253.500000" y2="90.000000"  transform="rotate(0.000000,253.500000,90.000000)" style="stroke: black; stroke-width:0.25;"/>
<line x1="250.500000" y1="91.000000" x2="253.500000" y2="90.000000"  transform="rotate(0.000000,253.500000,90.000000)" style="stroke: black; stroke-width:0.25;"/>
<line x1="250.500000" y1="97.000000" x2="253.500000" y2="98.000000"  transform="rotate(0.000000,253.500000,98.000000)" style="stroke: black; stroke-width:0.25;"/>
<line x1="250.500000" y1="99.000000" x2="253.500000" y2="98.000000"  transform="rotate(0.000000,253.500000,98.000000)" style="stroke: black; stroke-width:0.25;"/>
<line x1="15.000000" y1="15.000000" x2="15.000000" y2="173.000000"  style="stroke: black; stroke-linecap:round; stroke-width:0.25; stroke-dasharray:3,3;"/>
<line x1="15.000000" y1="173.000000" x2="294.500000" y2="173.000000"  style="stroke: black; stroke-linecap:round; stroke-width:0.25; stroke-dasharray:3,3;"/>
<line x1="294.500000" y1="173.000000" x2="294.500000" y2="15.000000"  style="stroke: black; stroke-linecap:round; stroke-width:0.25; stroke-dasharray:3,3;"/>
<line x1="15.000000" y1="15.000000" x2="20.000000" y2="15.000000"  style="stroke: black; stroke-linecap:round; stroke-width:0.25; stroke-dasharray:3,3;"/>
<line x1="61.925000" y1="15.000000" x2="294.500000" y2="15.000000"  style="stroke: black; stroke-linecap:round; stroke-width:0.25; stroke-dasharray:3,3;"/>
<text x="20.000000" y="17.000000" font-family="Arial" font-size="7">modeFreq(2)</text>
<line x1="296.500000" y1="93.000000" x2="299.500000" y2="94.000000"  transform="rotate(0.000000,299.500000,94.000000)" style="stroke: black; stroke-width:0.25;"/>
<line x1="296.500000" y1="95.000000" x2="299.500000" y2="94.000000"  transform="rotate(0.000000,299.500000,94.000000)" style="stroke: black; stroke-width:0.25;"/>
<line x1="102.750000" y1="120.000000" x2="106.750000" y2="120.000000"  style="stroke:black; stroke-linecap:round; stroke-width:0.25;"/>
<line x1="106.750000" y1="120.000000" x2="120.550000" y2="120.000000"  style="stroke:black; stroke-linecap:round; stroke-width:0.25;"/>
<line x1="116.550000" y1="152.000000" x2="120.550000" y2="152.000000"  style="stroke:black; stroke-linecap:round; stroke-width:0.25;"/>
<line x1="120.550000" y1="120.000000" x2="128.550000" y2="120.000000"  style="stroke:black; stroke-linecap:round; stroke-width:0.25;"/>
<line x1="120.550000" y1="140.000000" x2="128.550000" y2="140.000000"  style="stroke:black; stroke-linecap:round; stroke-width:0.25;"/>
<line x1="120.550000" y1="152.000000" x2="120.550000" y2="140.000000"  style="stroke:black; stroke-linecap:round; stroke-width:0.25;"/>
<line x1="120.550000" y1="152.000000" x2="120.550000" y2="152.000000"  style="stroke:black; stroke-linecap:round; stroke-width:0.25;"/>
<line x1="122.750000" y1="88.000000" x2="126.750000" y2="88.000000"  style="stroke:black; stroke-linecap:round; stroke-width:0.25;"/>
<line x1="126.750000" y1="88.000000" x2="160.550000" y2="88.000000"  style="stroke:black; stroke-linecap:round; stroke-width:0.25;"/>
<line x1="128.550000" y1="120.000000" x2="128.550000" y2="132.000000"  style="stroke:black; stroke-linecap:round; stroke-width:0.25;"/>
<line x1="128.550000" y1="132.000000" x2="128.550000" y2="132.000000"  style="stroke:black; stroke-linecap:round; stroke-width:0.25;"/>
<line x1="128.550000" y1="132.000000" x2="132.550000" y2="132.000000"  style="stroke:black; stroke-linecap:round; stroke-width:0.25;"/>
<line x1="128.550000" y1="140.000000" x2="132.550000" y2="140.000000"  style="stroke:black; stroke-linecap:round; stroke-width:0.25;"/>
<line x1="156.550000" y1="136.000000" x2="160.550000" y2="136.000000"  style="stroke:black; stroke-linecap:round; stroke-width:0.25;"/>
<line x1="160.550000" y1="88.000000" x2="168.550000" y2="88.000000"  style="stroke:black; stroke-linecap:round; stroke-width:0.25;"/>
<line x1="160.550000" y1="124.000000" x2="168.550000" y2="124.000000"  style="stroke:black; stroke-linecap:round; stroke-width:0.25;"/>
<line x1="160.550000" y1="136.000000" x2="160.550000" y2="124.000000"  style="stroke:black; stroke-linecap:round; stroke-width:0.25;"/>
<line x1="160.550000" y1="136.000000" x2="160.550000" y2="136.000000"  style="stroke:black; stroke-linecap:round; stroke-width:0.25;"/>
<line x1="168.550000" y1="88.000000" x2="168.550000" y2="116.000000"  style="stroke:black; stroke-linecap:round; stroke-width:0.25;"/>
<line x1="168.550000" y1="116.000000" x2="168.550000" y2="116.000000"  style="stroke:black; stroke-linecap:round; stroke-width:0.25;"/>
<line x1="168.550000" y1="116.000000" x2="172.550000" y2="116.000000"  style="stroke:black; stroke-linecap:round; stroke-width:0.25;"/>
<line x1="168.550000" y1="124.000000" x2="172.550000" y2="124.000000"  style="stroke:black; stroke-linecap:round; stroke-width:0.25;"/>
<line x1="196.550000" y1="120.000000" x2="200.550000" y2="120.000000"  style="stroke:black; stroke-linecap:round; stroke-width:0.25;"/>
<line x1="200.550000" y1="120.000000" x2="241.500000" y2="120.000000"  style="stroke:black; stroke-linecap:round; stroke-width:0.25;"/>
<line x1="227.500000" y1="46.000000" x2="231.500000" y2="46.000000"  style="stroke:black; stroke-linecap:round; stroke-width:0.25;"/>
<line x1="231.500000" y1="46.000000" x2="241.500000" y2="46.000000"  style="stroke:black; stroke-linecap:round; stroke-width:0.25;"/>
<line x1="241.500000" y1="46.000000" x2="249.500000" y2="46.000000"  style="stroke:black; stroke-linecap:round; stroke-width:0.25;"/>
<line x1="241.500000" y1="98.000000" x2="249.500000" y2="98.000000"  style="stroke:black; stroke-linecap:round; stroke-width:0.25;"/>
<line x1="241.500000" y1="120.000000" x2="241.500000" y2="98.000000"  style="stroke:black; stroke-linecap:round; stroke-width:0.25;"/>
<line x1="241.500000" y1="120.000000" x2="241.500000" y2="120.000000"  style="stroke:black; stroke-linecap:round; stroke-width:0.25;"/>
<line x1="249.500000" y1="46.000000" x2="249.500000" y2="90.000000"  style="stroke:black; stroke-linecap:round; stroke-width:0.25;"/>
<line x1="249.500000" y1="90.000000" x2="249.500000" y2="90.000000"  style="stroke:black; stroke-linecap:round; stroke-width:0.25;"/>
<line x1="249.500000" y1="90.000000" x2="253.500000" y2="90.000000"  style="stroke:black; stroke-linecap:round; stroke-width:0.25;"/>
<line x1="249.500000" y1="98.000000" x2="253.500000" y2="98.000000"  style="stroke:black; stroke-linecap:round; stroke-width:0.25;"/>
<line x1="277.500000" y1="94.000000" x2="281.500000" y2="94.000000"  style="stroke:black; stroke-linecap:round; stroke-width:0.25;"/>
<line x1="281.500000" y1="94.000000" x2="281.500000" y2="94.000000"  style="stroke:black; stroke-linecap:round; stroke-width:0.25;"/>
<line x1="281.500000" y1="94.000000" x2="285.500000" y2="94.000000"  style="stroke:black; stroke-linecap:round; stroke-width:0.25;"/>
<line x1="285.500000" y1="94.000000" x2="289.500000" y2="94.000000"  style="stroke:black; stroke-linecap:round; stroke-width:0.25;"/>
<line x1="289.500000" y1="94.000000" x2="299.500000" y2="94.000000"  style="stroke:black; stroke-linecap:round; stroke-width:0.25;"/>
</svg>
