<?xml version="1.0"?>
<svg xmlns="http://www.w3.org/2000/svg" xmlns:xlink="http://www.w3.org/1999/xlink" viewBox="0 0 602.000000 228.000000" width="301.000000mm" height="114.000000mm" version="1.1">
<a xlink:href="osc-0x7fb961079eb0.svg">
<rect x="1.000000" y="1.000000" width="601.000000" height="227.000000" rx="0" ry="0" style="stroke:none;fill:#cccccc;"/>
<rect x="0.000000" y="0.000000" width="601.000000" height="227.000000" rx="0" ry="0" style="stroke:none;fill:#ffffff;"/>
</a>
<text x="10.000000" y="7.000000" font-family="Arial" font-size="7"></text>
<rect x="42.100000" y="35.000000" width="193.500000" height="24.000000" rx="0" ry="0" style="stroke:none;fill:#cccccc;"/>
<rect x="41.100000" y="34.000000" width="193.500000" height="24.000000" rx="0" ry="0" style="stroke:none;fill:#477881;"/>
<text x="137.850000" y="48.000000" font-family="Arial" font-size="7" text-anchor="middle" fill="#FFFFFF">hslider(freq, 440.0f, 50.0f, 3000.0f, 0.01f)</text>
<circle cx="43.100000" cy="36.000000" r="1"/>
<line x1="32.100000" y1="25.000000" x2="32.100000" y2="67.000000"  style="stroke: black; stroke-linecap:round; stroke-width:0.25; stroke-dasharray:3,3;"/>
<line x1="32.100000" y1="67.000000" x2="243.600000" y2="67.000000"  style="stroke: black; stroke-linecap:round; stroke-width:0.25; stroke-dasharray:3,3;"/>
<line x1="243.600000" y1="67.000000" x2="243.600000" y2="25.000000"  style="stroke: black; stroke-linecap:round; stroke-width:0.25; stroke-dasharray:3,3;"/>
<line x1="32.100000" y1="25.000000" x2="37.100000" y2="25.000000"  style="stroke: black; stroke-linecap:round; stroke-width:0.25; stroke-dasharray:3,3;"/>
<line x1="56.450000" y1="25.000000" x2="243.600000" y2="25.000000"  style="stroke: black; stroke-linecap:round; stroke-width:0.25; stroke-dasharray:3,3;"/>
<text x="37.100000" y="27.000000" font-family="Arial" font-size="7">freq</text>
<rect x="106.850000" y="87.000000" width="24.000000" height="24.000000" rx="0" ry="0" style="stroke:none;fill:#cccccc;"/>
<rect x="105.850000" y="86.000000" width="24.000000" height="24.000000" rx="0" ry="0" style="stroke:none;fill:#f44800;"/>
<text x="117.850000" y="100.000000" font-family="Arial" font-size="7" text-anchor="middle" fill="#FFFFFF">4</text>
<circle cx="107.850000" cy="88.000000" r="1"/>
<line x1="96.850000" y1="77.000000" x2="96.850000" y2="119.000000"  style="stroke: black; stroke-linecap:round; stroke-width:0.25; stroke-dasharray:3,3;"/>
<line x1="96.850000" y1="119.000000" x2="138.850000" y2="119.000000"  style="stroke: black; stroke-linecap:round; stroke-width:0.25; stroke-dasharray:3,3;"/>
<line x1="138.850000" y1="119.000000" x2="138.850000" y2="77.000000"  style="stroke: black; stroke-linecap:round; stroke-width:0.25; stroke-dasharray:3,3;"/>
<line x1="96.850000" y1="77.000000" x2="101.850000" y2="77.000000"  style="stroke: black; stroke-linecap:round; stroke-width:0.25; stroke-dasharray:3,3;"/>
<line x1="124.425000" y1="77.000000" x2="138.850000" y2="77.000000"  style="stroke: black; stroke-linecap:round; stroke-width:0.25; stroke-dasharray:3,3;"/>
<text x="101.850000" y="79.000000" font-family="Arial" font-size="7">nOscs</text>
<rect x="35.000000" y="139.000000" width="167.700000" height="24.000000" rx="0" ry="0" style="stroke:none;fill:#cccccc;"/>
<rect x="34.000000" y="138.000000" width="167.700000" height="24.000000" rx="0" ry="0" style="stroke:none;fill:#477881;"/>
<text x="117.850000" y="152.000000" font-family="Arial" font-size="7" text-anchor="middle" fill="#FFFFFF">hslider(shift, 0.0f, 0.0f, 1.0f, 0.01f)</text>
<circle cx="36.000000" cy="140.000000" r="1"/>
<line x1="25.000000" y1="129.000000" x2="25.000000" y2="171.000000"  style="stroke: black; stroke-linecap:round; stroke-width:0.25; stroke-dasharray:3,3;"/>
<line x1="25.000000" y1="171.000000" x2="210.700000" y2="171.000000"  style="stroke: black; stroke-linecap:round; stroke-width:0.25; stroke-dasharray:3,3;"/>
<line x1="210.700000" y1="171.000000" x2="210.700000" y2="129.000000"  style="stroke: black; stroke-linecap:round; stroke-width:0.25; stroke-dasharray:3,3;"/>
<line x1="25.000000" y1="129.000000" x2="30.000000" y2="129.000000"  style="stroke: black; stroke-linecap:round; stroke-width:0.25; stroke-dasharray:3,3;"/>
<line x1="52.575000" y1="129.000000" x2="210.700000" y2="129.000000"  style="stroke: black; stroke-linecap:round; stroke-width:0.25; stroke-dasharray:3,3;"/>
<text x="30.000000" y="131.000000" font-family="Arial" font-size="7">shift</text>
<rect x="228.700000" y="113.000000" width="24.000000" height="24.000000" rx="0" ry="0" style="stroke:none;fill:#cccccc;"/>
<rect x="227.700000" y="112.000000" width="24.000000" height="24.000000" rx="0" ry="0" style="stroke:none;fill:#4B71A1;"/>
<text x="239.700000" y="126.000000" font-family="Arial" font-size="7" text-anchor="middle" fill="#FFFFFF">+</text>
<circle cx="229.700000" cy="114.000000" r="1"/>
<line x1="224.700000" y1="119.000000" x2="227.700000" y2="120.000000"  transform="rotate(0.000000,227.700000,120.000000)" style="stroke: black; stroke-width:0.25;"/>
<line x1="224.700000" y1="121.000000" x2="227.700000" y2="120.000000"  transform="rotate(0.000000,227.700000,120.000000)" style="stroke: black; stroke-width:0.25;"/>
<line x1="224.700000" y1="127.000000" x2="227.700000" y2="128.000000"  transform="rotate(0.000000,227.700000,128.000000)" style="stroke: black; stroke-width:0.25;"/>
<line x1="224.700000" y1="129.000000" x2="227.700000" y2="128.000000"  transform="rotate(0.000000,227.700000,128.000000)" style="stroke: black; stroke-width:0.25;"/>
<rect x="268.700000" y="87.000000" width="24.000000" height="24.000000" rx="0" ry="0" style="stroke:none;fill:#cccccc;"/>
<rect x="267.700000" y="86.000000" width="24.000000" height="24.000000" rx="0" ry="0" style="stroke:none;fill:#4B71A1;"/>
<text x="279.700000" y="100.000000" font-family="Arial" font-size="7" text-anchor="middle" fill="#FFFFFF">*</text>
<circle cx="269.700000" cy="88.000000" r="1"/>
<line x1="264.700000" y1="93.000000" x2="267.700000" y2="94.000000"  transform="rotate(0.000000,267.700000,94.000000)" style="stroke: black; stroke-width:0.25;"/>
<line x1="264.700000" y1="95.000000" x2="267.700000" y2="94.000000"  transform="rotate(0.000000,267.700000,94.000000)" style="stroke: black; stroke-width:0.25;"/>
<line x1="264.700000" y1="101.000000" x2="267.700000" y2="102.000000"  transform="rotate(0.000000,267.700000,102.000000)" style="stroke: black; stroke-width:0.25;"/>
<line x1="264.700000" y1="103.000000" x2="267.700000" y2="102.000000"  transform="rotate(0.000000,267.700000,102.000000)" style="stroke: black; stroke-width:0.25;"/>
<a xlink:href="SR-0x7fb95ecbab80.svg">
<rect x="129.950000" y="181.000000" width="24.000000" height="24.000000" rx="0" ry="0" style="stroke:none;fill:#cccccc;"/>
<rect x="128.950000" y="180.000000" width="24.000000" height="24.000000" rx="0" ry="0" style="stroke:none;fill:#003366;"/>
</a>
<a xlink:href="SR-0x7fb95ecbab80.svg">
<text x="140.950000" y="194.000000" font-family="Arial" font-size="7" text-anchor="middle" fill="#FFFFFF">SR</text>
</a>
<circle cx="130.950000" cy="182.000000" r="1"/>
<rect x="161.950000" y="181.000000" width="25.800000" height="24.000000" rx="0" ry="0" style="stroke:none;fill:#cccccc;"/>
<rect x="160.950000" y="180.000000" width="25.800000" height="24.000000" rx="0" ry="0" style="stroke:none;fill:#4B71A1;"/>
<text x="173.850000" y="194.000000" font-family="Arial" font-size="7" text-anchor="middle" fill="#FFFFFF">float</text>
<circle cx="162.950000" cy="182.000000" r="1"/>
<line x1="157.950000" y1="191.000000" x2="160.950000" y2="192.000000"  transform="rotate(0.000000,160.950000,192.000000)" style="stroke: black; stroke-width:0.25;"/>
<line x1="157.950000" y1="193.000000" x2="160.950000" y2="192.000000"  transform="rotate(0.000000,160.950000,192.000000)" style="stroke: black; stroke-width:0.25;"/>
<rect x="308.700000" y="103.000000" width="24.000000" height="24.000000" rx="0" ry="0" style="stroke:none;fill:#cccccc;"/>
<rect x="307.700000" y="102.000000" width="24.000000" height="24.000000" rx="0" ry="0" style="stroke:none;fill:#4B71A1;"/>
<text x="319.700000" y="116.000000" font-family="Arial" font-size="7" text-anchor="middle" fill="#FFFFFF">/</text>
<circle cx="309.700000" cy="104.000000" r="1"/>
<line x1="304.700000" y1="109.000000" x2="307.700000" y2="110.000000"  transform="rotate(0.000000,307.700000,110.000000)" style="stroke: black; stroke-width:0.25;"/>
<line x1="304.700000" y1="111.000000" x2="307.700000" y2="110.000000"  transform="rotate(0.000000,307.700000,110.000000)" style="stroke: black; stroke-width:0.25;"/>
<line x1="304.700000" y1="117.000000" x2="307.700000" y2="118.000000"  transform="rotate(0.000000,307.700000,118.000000)" style="stroke: black; stroke-width:0.25;"/>
<line x1="304.700000" y1="119.000000" x2="307.700000" y2="118.000000"  transform="rotate(0.000000,307.700000,118.000000)" style="stroke: black; stroke-width:0.25;"/>
<rect x="356.700000" y="107.000000" width="24.000000" height="24.000000" rx="0" ry="0" style="stroke:none;fill:#cccccc;"/>
<rect x="355.700000" y="106.000000" width="24.000000" height="24.000000" rx="0" ry="0" style="stroke:none;fill:#4B71A1;"/>
<text x="367.700000" y="120.000000" font-family="Arial" font-size="7" text-anchor="middle" fill="#FFFFFF">+</text>
<circle cx="357.700000" cy="108.000000" r="1"/>
<line x1="352.700000" y1="113.000000" x2="355.700000" y2="114.000000"  transform="rotate(0.000000,355.700000,114.000000)" style="stroke: black; stroke-width:0.25;"/>
<line x1="352.700000" y1="115.000000" x2="355.700000" y2="114.000000"  transform="rotate(0.000000,355.700000,114.000000)" style="stroke: black; stroke-width:0.25;"/>
<line x1="352.700000" y1="121.000000" x2="355.700000" y2="122.000000"  transform="rotate(0.000000,355.700000,122.000000)" style="stroke: black; stroke-width:0.25;"/>
<line x1="352.700000" y1="123.000000" x2="355.700000" y2="122.000000"  transform="rotate(0.000000,355.700000,122.000000)" style="stroke: black; stroke-width:0.25;"/>
<a xlink:href="decimal-0x7fb95ecbef90.svg">
<rect x="388.700000" y="107.000000" width="38.700000" height="24.000000" rx="0" ry="0" style="stroke:none;fill:#cccccc;"/>
<rect x="387.700000" y="106.000000" width="38.700000" height="24.000000" rx="0" ry="0" style="stroke:none;fill:#003366;"/>
</a>
<a xlink:href="decimal-0x7fb95ecbef90.svg">
<text x="407.050000" y="120.000000" font-family="Arial" font-size="7" text-anchor="middle" fill="#FFFFFF">decimal</text>
</a>
<circle cx="389.700000" cy="108.000000" r="1"/>
<line x1="384.700000" y1="117.000000" x2="387.700000" y2="118.000000"  transform="rotate(0.000000,387.700000,118.000000)" style="stroke: black; stroke-width:0.25;"/>
<line x1="384.700000" y1="119.000000" x2="387.700000" y2="118.000000"  transform="rotate(0.000000,387.700000,118.000000)" style="stroke: black; stroke-width:0.25;"/>
<line x1="428.400000" y1="118.000000" x2="428.400000" y2="114.000000"  style="stroke:black; stroke-linecap:round; stroke-width:0.25;"/>
<line x1="428.400000" y1="114.000000" x2="432.400000" y2="114.000000"  style="stroke:black; stroke-linecap:round; stroke-width:0.25;"/>
<line x1="432.400000" y1="114.000000" x2="432.400000" y2="118.000000"  style="stroke:black; stroke-linecap:round; stroke-width:0.25;"/>
<rect x="461.400000" y="107.000000" width="25.800000" height="24.000000" rx="0" ry="0" style="stroke:none;fill:#cccccc;"/>
<rect x="460.400000" y="106.000000" width="25.800000" height="24.000000" rx="0" ry="0" style="stroke:none;fill:#f44800;"/>
<text x="473.300000" y="120.000000" font-family="Arial" font-size="7" text-anchor="middle" fill="#FFFFFF">65536</text>
<circle cx="462.400000" cy="108.000000" r="1"/>
<line x1="451.400000" y1="97.000000" x2="451.400000" y2="139.000000"  style="stroke: black; stroke-linecap:round; stroke-width:0.25; stroke-dasharray:3,3;"/>
<line x1="451.400000" y1="139.000000" x2="495.200000" y2="139.000000"  style="stroke: black; stroke-linecap:round; stroke-width:0.25; stroke-dasharray:3,3;"/>
<line x1="495.200000" y1="139.000000" x2="495.200000" y2="97.000000"  style="stroke: black; stroke-linecap:round; stroke-width:0.25; stroke-dasharray:3,3;"/>
<line x1="451.400000" y1="97.000000" x2="456.400000" y2="97.000000"  style="stroke: black; stroke-linecap:round; stroke-width:0.25; stroke-dasharray:3,3;"/>
<line x1="491.875000" y1="97.000000" x2="495.200000" y2="97.000000"  style="stroke: black; stroke-linecap:round; stroke-width:0.25; stroke-dasharray:3,3;"/>
<text x="456.400000" y="99.000000" font-family="Arial" font-size="7">tablesize</text>
<rect x="505.200000" y="107.000000" width="25.800000" height="24.000000" rx="0" ry="0" style="stroke:none;fill:#cccccc;"/>
<rect x="504.200000" y="106.000000" width="25.800000" height="24.000000" rx="0" ry="0" style="stroke:none;fill:#4B71A1;"/>
<text x="517.100000" y="120.000000" font-family="Arial" font-size="7" text-anchor="middle" fill="#FFFFFF">float</text>
<circle cx="506.200000" cy="108.000000" r="1"/>
<line x1="501.200000" y1="117.000000" x2="504.200000" y2="118.000000"  transform="rotate(0.000000,504.200000,118.000000)" style="stroke: black; stroke-width:0.25;"/>
<line x1="501.200000" y1="119.000000" x2="504.200000" y2="118.000000"  transform="rotate(0.000000,504.200000,118.000000)" style="stroke: black; stroke-width:0.25;"/>
<rect x="547.000000" y="103.000000" width="24.000000" height="24.000000" rx="0" ry="0" style="stroke:none;fill:#cccccc;"/>
<rect x="546.000000" y="102.000000" width="24.000000" height="24.000000" rx="0" ry="0" style="stroke:none;fill:#4B71A1;"/>
<text x="558.000000" y="116.000000" font-family="Arial" font-size="7" text-anchor="middle" fill="#FFFFFF">*</text>
<circle cx="548.000000" cy="104.000000" r="1"/>
<line x1="543.000000" y1="109.000000" x2="546.000000" y2="110.000000"  transform="rotate(0.000000,546.000000,110.000000)" style="stroke: black; stroke-width:0.25;"/>
<line x1="543.000000" y1="111.000000" x2="546.000000" y2="110.000000"  transform="rotate(0.000000,546.000000,110.000000)" style="stroke: black; stroke-width:0.25;"/>
<line x1="543.000000" y1="117.000000" x2="546.000000" y2="118.000000"  transform="rotate(0.000000,546.000000,118.000000)" style="stroke: black; stroke-width:0.25;"/>
<line x1="543.000000" y1="119.000000" x2="546.000000" y2="118.000000"  transform="rotate(0.000000,546.000000,118.000000)" style="stroke: black; stroke-width:0.25;"/>
<line x1="15.000000" y1="15.000000" x2="15.000000" y2="213.000000"  style="stroke: black; stroke-linecap:round; stroke-width:0.25; stroke-dasharray:3,3;"/>
<line x1="15.000000" y1="213.000000" x2="587.000000" y2="213.000000"  style="stroke: black; stroke-linecap:round; stroke-width:0.25; stroke-dasharray:3,3;"/>
<line x1="587.000000" y1="213.000000" x2="587.000000" y2="15.000000"  style="stroke: black; stroke-linecap:round; stroke-width:0.25; stroke-dasharray:3,3;"/>
<line x1="15.000000" y1="15.000000" x2="20.000000" y2="15.000000"  style="stroke: black; stroke-linecap:round; stroke-width:0.25; stroke-dasharray:3,3;"/>
<line x1="119.975000" y1="15.000000" x2="587.000000" y2="15.000000"  style="stroke: black; stroke-linecap:round; stroke-width:0.25; stroke-dasharray:3,3;"/>
<text x="20.000000" y="17.000000" font-family="Arial" font-size="7">phasor(65536)...1f) : +) : *)</text>
<line x1="589.000000" y1="113.000000" x2="592.000000" y2="114.000000"  transform="rotate(0.000000,592.000000,114.000000)" style="stroke: black; stroke-width:0.25;"/>
<line x1="589.000000" y1="115.000000" x2="592.000000" y2="114.000000"  transform="rotate(0.000000,592.000000,114.000000)" style="stroke: black; stroke-width:0.25;"/>
<line x1="129.850000" y1="98.000000" x2="133.850000" y2="98.000000"  style="stroke:black; stroke-linecap:round; stroke-width:0.25;"/>
<line x1="133.850000" y1="98.000000" x2="143.850000" y2="98.000000"  style="stroke:black; stroke-linecap:round; stroke-width:0.25;"/>
<line x1="143.850000" y1="98.000000" x2="215.700000" y2="98.000000"  style="stroke:black; stroke-linecap:round; stroke-width:0.25;"/>
<line x1="152.950000" y1="192.000000" x2="156.950000" y2="192.000000"  style="stroke:black; stroke-linecap:round; stroke-width:0.25;"/>
<line x1="156.950000" y1="192.000000" x2="156.950000" y2="192.000000"  style="stroke:black; stroke-linecap:round; stroke-width:0.25;"/>
<line x1="156.950000" y1="192.000000" x2="160.950000" y2="192.000000"  style="stroke:black; stroke-linecap:round; stroke-width:0.25;"/>
<line x1="186.750000" y1="192.000000" x2="190.750000" y2="192.000000"  style="stroke:black; stroke-linecap:round; stroke-width:0.25;"/>
<line x1="190.750000" y1="192.000000" x2="295.700000" y2="192.000000"  style="stroke:black; stroke-linecap:round; stroke-width:0.25;"/>
<line x1="201.700000" y1="150.000000" x2="205.700000" y2="150.000000"  style="stroke:black; stroke-linecap:round; stroke-width:0.25;"/>
<line x1="205.700000" y1="150.000000" x2="215.700000" y2="150.000000"  style="stroke:black; stroke-linecap:round; stroke-width:0.25;"/>
<line x1="215.700000" y1="98.000000" x2="223.700000" y2="98.000000"  style="stroke:black; stroke-linecap:round; stroke-width:0.25;"/>
<line x1="215.700000" y1="128.000000" x2="223.700000" y2="128.000000"  style="stroke:black; stroke-linecap:round; stroke-width:0.25;"/>
<line x1="215.700000" y1="150.000000" x2="215.700000" y2="128.000000"  style="stroke:black; stroke-linecap:round; stroke-width:0.25;"/>
<line x1="215.700000" y1="150.000000" x2="215.700000" y2="150.000000"  style="stroke:black; stroke-linecap:round; stroke-width:0.25;"/>
<line x1="223.700000" y1="98.000000" x2="223.700000" y2="120.000000"  style="stroke:black; stroke-linecap:round; stroke-width:0.25;"/>
<line x1="223.700000" y1="120.000000" x2="223.700000" y2="120.000000"  style="stroke:black; stroke-linecap:round; stroke-width:0.25;"/>
<line x1="223.700000" y1="120.000000" x2="227.700000" y2="120.000000"  style="stroke:black; stroke-linecap:round; stroke-width:0.25;"/>
<line x1="223.700000" y1="128.000000" x2="227.700000" y2="128.000000"  style="stroke:black; stroke-linecap:round; stroke-width:0.25;"/>
<line x1="234.600000" y1="46.000000" x2="238.600000" y2="46.000000"  style="stroke:black; stroke-linecap:round; stroke-width:0.25;"/>
<line x1="238.600000" y1="46.000000" x2="248.600000" y2="46.000000"  style="stroke:black; stroke-linecap:round; stroke-width:0.25;"/>
<line x1="248.600000" y1="46.000000" x2="255.700000" y2="46.000000"  style="stroke:black; stroke-linecap:round; stroke-width:0.25;"/>
<line x1="251.700000" y1="124.000000" x2="255.700000" y2="124.000000"  style="stroke:black; stroke-linecap:round; stroke-width:0.25;"/>
<line x1="255.700000" y1="46.000000" x2="263.700000" y2="46.000000"  style="stroke:black; stroke-linecap:round; stroke-width:0.25;"/>
<line x1="255.700000" y1="102.000000" x2="263.700000" y2="102.000000"  style="stroke:black; stroke-linecap:round; stroke-width:0.25;"/>
<line x1="255.700000" y1="124.000000" x2="255.700000" y2="102.000000"  style="stroke:black; stroke-linecap:round; stroke-width:0.25;"/>
<line x1="255.700000" y1="124.000000" x2="255.700000" y2="124.000000"  style="stroke:black; stroke-linecap:round; stroke-width:0.25;"/>
<line x1="263.700000" y1="46.000000" x2="263.700000" y2="94.000000"  style="stroke:black; stroke-linecap:round; stroke-width:0.25;"/>
<line x1="263.700000" y1="94.000000" x2="263.700000" y2="94.000000"  style="stroke:black; stroke-linecap:round; stroke-width:0.25;"/>
<line x1="263.700000" y1="94.000000" x2="267.700000" y2="94.000000"  style="stroke:black; stroke-linecap:round; stroke-width:0.25;"/>
<line x1="263.700000" y1="102.000000" x2="267.700000" y2="102.000000"  style="stroke:black; stroke-linecap:round; stroke-width:0.25;"/>
<line x1="291.700000" y1="98.000000" x2="295.700000" y2="98.000000"  style="stroke:black; stroke-linecap:round; stroke-width:0.25;"/>
<line x1="295.700000" y1="98.000000" x2="303.700000" y2="98.000000"  style="stroke:black; stroke-linecap:round; stroke-width:0.25;"/>
<line x1="295.700000" y1="118.000000" x2="303.700000" y2="118.000000"  style="stroke:black; stroke-linecap:round; stroke-width:0.25;"/>
<line x1="295.700000" y1="192.000000" x2="295.700000" y2="118.000000"  style="stroke:black; stroke-linecap:round; stroke-width:0.25;"/>
<line x1="295.700000" y1="192.000000" x2="295.700000" y2="192.000000"  style="stroke:black; stroke-linecap:round; stroke-width:0.25;"/>
<line x1="303.700000" y1="98.000000" x2="303.700000" y2="110.000000"  style="stroke:black; stroke-linecap:round; stroke-width:0.25;"/>
<line x1="303.700000" y1="110.000000" x2="303.700000" y2="110.000000"  style="stroke:black; stroke-linecap:round; stroke-width:0.25;"/>
<line x1="303.700000" y1="110.000000" x2="307.700000" y2="110.000000"  style="stroke:black; stroke-linecap:round; stroke-width:0.25;"/>
<line x1="303.700000" y1="118.000000" x2="307.700000" y2="118.000000"  style="stroke:black; stroke-linecap:round; stroke-width:0.25;"/>
<line x1="331.700000" y1="114.000000" x2="335.700000" y2="114.000000"  style="stroke:black; stroke-linecap:round; stroke-width:0.25;"/>
<line x1="335.700000" y1="114.000000" x2="343.700000" y2="114.000000"  style="stroke:black; stroke-linecap:round; stroke-width:0.25;"/>
<line x1="343.700000" y1="114.000000" x2="343.700000" y2="122.000000"  style="stroke:black; stroke-linecap:round; stroke-width:0.25;"/>
<line x1="343.700000" y1="122.000000" x2="343.700000" y2="122.000000"  style="stroke:black; stroke-linecap:round; stroke-width:0.25;"/>
<line x1="343.700000" y1="122.000000" x2="351.700000" y2="122.000000"  style="stroke:black; stroke-linecap:round; stroke-width:0.25;"/>
<line x1="351.700000" y1="98.000000" x2="351.700000" y2="98.000000"  style="stroke:black; stroke-linecap:round; stroke-width:0.25;"/>
<line x1="351.700000" y1="98.000000" x2="351.700000" y2="114.000000"  style="stroke:black; stroke-linecap:round; stroke-width:0.25;"/>
<line x1="351.700000" y1="114.000000" x2="351.700000" y2="114.000000"  style="stroke:black; stroke-linecap:round; stroke-width:0.25;"/>
<line x1="351.700000" y1="114.000000" x2="355.700000" y2="114.000000"  style="stroke:black; stroke-linecap:round; stroke-width:0.25;"/>
<line x1="351.700000" y1="122.000000" x2="355.700000" y2="122.000000"  style="stroke:black; stroke-linecap:round; stroke-width:0.25;"/>
<line x1="379.700000" y1="118.000000" x2="383.700000" y2="118.000000"  style="stroke:black; stroke-linecap:round; stroke-width:0.25;"/>
<line x1="383.700000" y1="118.000000" x2="383.700000" y2="118.000000"  style="stroke:black; stroke-linecap:round; stroke-width:0.25;"/>
<line x1="383.700000" y1="118.000000" x2="387.700000" y2="118.000000"  style="stroke:black; stroke-linecap:round; stroke-width:0.25;"/>
<line x1="391.050000" y1="98.000000" x2="351.700000" y2="98.000000"  style="stroke:black; stroke-linecap:round; stroke-width:0.25;"/>
<line x1="426.400000" y1="118.000000" x2="430.400000" y2="118.000000"  style="stroke:black; stroke-linecap:round; stroke-width:0.25;"/>
<line x1="430.400000" y1="98.000000" x2="391.050000" y2="98.000000"  style="stroke:black; stroke-linecap:round; stroke-width:0.25;"/>
<line x1="430.400000" y1="98.000000" x2="430.400000" y2="98.000000"  style="stroke:black; stroke-linecap:round; stroke-width:0.25;"/>
<line x1="430.400000" y1="114.000000" x2="430.400000" y2="98.000000"  style="stroke:black; stroke-linecap:round; stroke-width:0.25;"/>
<line x1="430.400000" y1="118.000000" x2="432.400000" y2="118.000000"  style="stroke:black; stroke-linecap:round; stroke-width:0.25;"/>
<line x1="432.400000" y1="118.000000" x2="438.400000" y2="118.000000"  style="stroke:black; stroke-linecap:round; stroke-width:0.25;"/>
<line x1="438.400000" y1="88.000000" x2="446.400000" y2="88.000000"  style="stroke:black; stroke-linecap:round; stroke-width:0.25;"/>
<line x1="438.400000" y1="118.000000" x2="438.400000" y2="88.000000"  style="stroke:black; stroke-linecap:round; stroke-width:0.25;"/>
<line x1="438.400000" y1="118.000000" x2="438.400000" y2="118.000000"  style="stroke:black; stroke-linecap:round; stroke-width:0.25;"/>
<line x1="446.400000" y1="88.000000" x2="490.200000" y2="88.000000"  style="stroke:black; stroke-linecap:round; stroke-width:0.25;"/>
<line x1="486.200000" y1="118.000000" x2="490.200000" y2="118.000000"  style="stroke:black; stroke-linecap:round; stroke-width:0.25;"/>
<line x1="490.200000" y1="88.000000" x2="534.000000" y2="88.000000"  style="stroke:black; stroke-linecap:round; stroke-width:0.25;"/>
<line x1="490.200000" y1="118.000000" x2="500.200000" y2="118.000000"  style="stroke:black; stroke-linecap:round; stroke-width:0.25;"/>
<line x1="500.200000" y1="118.000000" x2="500.200000" y2="118.000000"  style="stroke:black; stroke-linecap:round; stroke-width:0.25;"/>
<line x1="500.200000" y1="118.000000" x2="504.200000" y2="118.000000"  style="stroke:black; stroke-linecap:round; stroke-width:0.25;"/>
<line x1="530.000000" y1="118.000000" x2="534.000000" y2="118.000000"  style="stroke:black; stroke-linecap:round; stroke-width:0.25;"/>
<line x1="534.000000" y1="88.000000" x2="542.000000" y2="88.000000"  style="stroke:black; stroke-linecap:round; stroke-width:0.25;"/>
<line x1="534.000000" y1="118.000000" x2="542.000000" y2="118.000000"  style="stroke:black; stroke-linecap:round; stroke-width:0.25;"/>
<line x1="542.000000" y1="88.000000" x2="542.000000" y2="110.000000"  style="stroke:black; stroke-linecap:round; stroke-width:0.25;"/>
<line x1="542.000000" y1="110.000000" x2="542.000000" y2="110.000000"  style="stroke:black; stroke-linecap:round; stroke-width:0.25;"/>
<line x1="542.000000" y1="110.000000" x2="546.000000" y2="110.000000"  style="stroke:black; stroke-linecap:round; stroke-width:0.25;"/>
<line x1="542.000000" y1="118.000000" x2="546.000000" y2="118.000000"  style="stroke:black; stroke-linecap:round; stroke-width:0.25;"/>
<line x1="570.000000" y1="114.000000" x2="574.000000" y2="114.000000"  style="stroke:black; stroke-linecap:round; stroke-width:0.25;"/>
<line x1="574.000000" y1="114.000000" x2="574.000000" y2="114.000000"  style="stroke:black; stroke-linecap:round; stroke-width:0.25;"/>
<line x1="574.000000" y1="114.000000" x2="578.000000" y2="114.000000"  style="stroke:black; stroke-linecap:round; stroke-width:0.25;"/>
<line x1="578.000000" y1="114.000000" x2="582.000000" y2="114.000000"  style="stroke:black; stroke-linecap:round; stroke-width:0.25;"/>
<line x1="582.000000" y1="114.000000" x2="592.000000" y2="114.000000"  style="stroke:black; stroke-linecap:round; stroke-width:0.25;"/>
</svg>
