<?xml version="1.0"?>
<svg xmlns="http://www.w3.org/2000/svg" xmlns:xlink="http://www.w3.org/1999/xlink" viewBox="0 0 365.000000 368.000000" width="182.500000mm" height="184.000000mm" version="1.1">
<a xlink:href="process.svg">
<rect x="1.000000" y="1.000000" width="364.000000" height="367.000000" rx="0" ry="0" style="stroke:none;fill:#cccccc;"/>
<rect x="0.000000" y="0.000000" width="364.000000" height="367.000000" rx="0" ry="0" style="stroke:none;fill:#ffffff;"/>
</a>
<text x="10.000000" y="7.000000" font-family="Arial" font-size="7"></text>
<a xlink:href="weights-0x7fe1241165e0.svg">
<rect x="33.000000" y="25.000000" width="51.600000" height="320.000000" rx="0" ry="0" style="stroke:none;fill:#cccccc;"/>
<rect x="32.000000" y="24.000000" width="51.600000" height="320.000000" rx="0" ry="0" style="stroke:none;fill:#003366;"/>
</a>
<a xlink:href="weights-0x7fe1241165e0.svg">
<text x="57.800000" y="186.000000" font-family="Arial" font-size="7" text-anchor="middle" fill="#FFFFFF">weights(1)</text>
</a>
<circle cx="34.000000" cy="26.000000" r="1"/>
<line x1="29.000000" y1="167.000000" x2="32.000000" y2="168.000000"  transform="rotate(0.000000,32.000000,168.000000)" style="stroke: black; stroke-width:0.25;"/>
<line x1="29.000000" y1="169.000000" x2="32.000000" y2="168.000000"  transform="rotate(0.000000,32.000000,168.000000)" style="stroke: black; stroke-width:0.25;"/>
<line x1="29.000000" y1="175.000000" x2="32.000000" y2="176.000000"  transform="rotate(0.000000,32.000000,176.000000)" style="stroke: black; stroke-width:0.25;"/>
<line x1="29.000000" y1="177.000000" x2="32.000000" y2="176.000000"  transform="rotate(0.000000,32.000000,176.000000)" style="stroke: black; stroke-width:0.25;"/>
<line x1="29.000000" y1="183.000000" x2="32.000000" y2="184.000000"  transform="rotate(0.000000,32.000000,184.000000)" style="stroke: black; stroke-width:0.25;"/>
<line x1="29.000000" y1="185.000000" x2="32.000000" y2="184.000000"  transform="rotate(0.000000,32.000000,184.000000)" style="stroke: black; stroke-width:0.25;"/>
<line x1="29.000000" y1="191.000000" x2="32.000000" y2="192.000000"  transform="rotate(0.000000,32.000000,192.000000)" style="stroke: black; stroke-width:0.25;"/>
<line x1="29.000000" y1="193.000000" x2="32.000000" y2="192.000000"  transform="rotate(0.000000,32.000000,192.000000)" style="stroke: black; stroke-width:0.25;"/>
<line x1="29.000000" y1="199.000000" x2="32.000000" y2="200.000000"  transform="rotate(0.000000,32.000000,200.000000)" style="stroke: black; stroke-width:0.25;"/>
<line x1="29.000000" y1="201.000000" x2="32.000000" y2="200.000000"  transform="rotate(0.000000,32.000000,200.000000)" style="stroke: black; stroke-width:0.25;"/>
<a xlink:href="nonlinearities-0x7fe122626200.svg">
<rect x="256.600000" y="25.000000" width="77.400000" height="320.000000" rx="0" ry="0" style="stroke:none;fill:#cccccc;"/>
<rect x="255.600000" y="24.000000" width="77.400000" height="320.000000" rx="0" ry="0" style="stroke:none;fill:#003366;"/>
</a>
<a xlink:href="nonlinearities-0x7fe122626200.svg">
<text x="294.300000" y="186.000000" font-family="Arial" font-size="7" text-anchor="middle" fill="#FFFFFF">nonlinearities(1)</text>
</a>
<circle cx="257.600000" cy="26.000000" r="1"/>
<line x1="252.600000" y1="27.000000" x2="255.600000" y2="28.000000"  transform="rotate(0.000000,255.600000,28.000000)" style="stroke: black; stroke-width:0.25;"/>
<line x1="252.600000" y1="29.000000" x2="255.600000" y2="28.000000"  transform="rotate(0.000000,255.600000,28.000000)" style="stroke: black; stroke-width:0.25;"/>
<line x1="252.600000" y1="35.000000" x2="255.600000" y2="36.000000"  transform="rotate(0.000000,255.600000,36.000000)" style="stroke: black; stroke-width:0.25;"/>
<line x1="252.600000" y1="37.000000" x2="255.600000" y2="36.000000"  transform="rotate(0.000000,255.600000,36.000000)" style="stroke: black; stroke-width:0.25;"/>
<line x1="252.600000" y1="43.000000" x2="255.600000" y2="44.000000"  transform="rotate(0.000000,255.600000,44.000000)" style="stroke: black; stroke-width:0.25;"/>
<line x1="252.600000" y1="45.000000" x2="255.600000" y2="44.000000"  transform="rotate(0.000000,255.600000,44.000000)" style="stroke: black; stroke-width:0.25;"/>
<line x1="252.600000" y1="51.000000" x2="255.600000" y2="52.000000"  transform="rotate(0.000000,255.600000,52.000000)" style="stroke: black; stroke-width:0.25;"/>
<line x1="252.600000" y1="53.000000" x2="255.600000" y2="52.000000"  transform="rotate(0.000000,255.600000,52.000000)" style="stroke: black; stroke-width:0.25;"/>
<line x1="252.600000" y1="59.000000" x2="255.600000" y2="60.000000"  transform="rotate(0.000000,255.600000,60.000000)" style="stroke: black; stroke-width:0.25;"/>
<line x1="252.600000" y1="61.000000" x2="255.600000" y2="60.000000"  transform="rotate(0.000000,255.600000,60.000000)" style="stroke: black; stroke-width:0.25;"/>
<line x1="252.600000" y1="67.000000" x2="255.600000" y2="68.000000"  transform="rotate(0.000000,255.600000,68.000000)" style="stroke: black; stroke-width:0.25;"/>
<line x1="252.600000" y1="69.000000" x2="255.600000" y2="68.000000"  transform="rotate(0.000000,255.600000,68.000000)" style="stroke: black; stroke-width:0.25;"/>
<line x1="252.600000" y1="75.000000" x2="255.600000" y2="76.000000"  transform="rotate(0.000000,255.600000,76.000000)" style="stroke: black; stroke-width:0.25;"/>
<line x1="252.600000" y1="77.000000" x2="255.600000" y2="76.000000"  transform="rotate(0.000000,255.600000,76.000000)" style="stroke: black; stroke-width:0.25;"/>
<line x1="252.600000" y1="83.000000" x2="255.600000" y2="84.000000"  transform="rotate(0.000000,255.600000,84.000000)" style="stroke: black; stroke-width:0.25;"/>
<line x1="252.600000" y1="85.000000" x2="255.600000" y2="84.000000"  transform="rotate(0.000000,255.600000,84.000000)" style="stroke: black; stroke-width:0.25;"/>
<line x1="252.600000" y1="91.000000" x2="255.600000" y2="92.000000"  transform="rotate(0.000000,255.600000,92.000000)" style="stroke: black; stroke-width:0.25;"/>
<line x1="252.600000" y1="93.000000" x2="255.600000" y2="92.000000"  transform="rotate(0.000000,255.600000,92.000000)" style="stroke: black; stroke-width:0.25;"/>
<line x1="252.600000" y1="99.000000" x2="255.600000" y2="100.000000"  transform="rotate(0.000000,255.600000,100.000000)" style="stroke: black; stroke-width:0.25;"/>
<line x1="252.600000" y1="101.000000" x2="255.600000" y2="100.000000"  transform="rotate(0.000000,255.600000,100.000000)" style="stroke: black; stroke-width:0.25;"/>
<line x1="252.600000" y1="107.000000" x2="255.600000" y2="108.000000"  transform="rotate(0.000000,255.600000,108.000000)" style="stroke: black; stroke-width:0.25;"/>
<line x1="252.600000" y1="109.000000" x2="255.600000" y2="108.000000"  transform="rotate(0.000000,255.600000,108.000000)" style="stroke: black; stroke-width:0.25;"/>
<line x1="252.600000" y1="115.000000" x2="255.600000" y2="116.000000"  transform="rotate(0.000000,255.600000,116.000000)" style="stroke: black; stroke-width:0.25;"/>
<line x1="252.600000" y1="117.000000" x2="255.600000" y2="116.000000"  transform="rotate(0.000000,255.600000,116.000000)" style="stroke: black; stroke-width:0.25;"/>
<line x1="252.600000" y1="123.000000" x2="255.600000" y2="124.000000"  transform="rotate(0.000000,255.600000,124.000000)" style="stroke: black; stroke-width:0.25;"/>
<line x1="252.600000" y1="125.000000" x2="255.600000" y2="124.000000"  transform="rotate(0.000000,255.600000,124.000000)" style="stroke: black; stroke-width:0.25;"/>
<line x1="252.600000" y1="131.000000" x2="255.600000" y2="132.000000"  transform="rotate(0.000000,255.600000,132.000000)" style="stroke: black; stroke-width:0.25;"/>
<line x1="252.600000" y1="133.000000" x2="255.600000" y2="132.000000"  transform="rotate(0.000000,255.600000,132.000000)" style="stroke: black; stroke-width:0.25;"/>
<line x1="252.600000" y1="139.000000" x2="255.600000" y2="140.000000"  transform="rotate(0.000000,255.600000,140.000000)" style="stroke: black; stroke-width:0.25;"/>
<line x1="252.600000" y1="141.000000" x2="255.600000" y2="140.000000"  transform="rotate(0.000000,255.600000,140.000000)" style="stroke: black; stroke-width:0.25;"/>
<line x1="252.600000" y1="147.000000" x2="255.600000" y2="148.000000"  transform="rotate(0.000000,255.600000,148.000000)" style="stroke: black; stroke-width:0.25;"/>
<line x1="252.600000" y1="149.000000" x2="255.600000" y2="148.000000"  transform="rotate(0.000000,255.600000,148.000000)" style="stroke: black; stroke-width:0.25;"/>
<line x1="252.600000" y1="155.000000" x2="255.600000" y2="156.000000"  transform="rotate(0.000000,255.600000,156.000000)" style="stroke: black; stroke-width:0.25;"/>
<line x1="252.600000" y1="157.000000" x2="255.600000" y2="156.000000"  transform="rotate(0.000000,255.600000,156.000000)" style="stroke: black; stroke-width:0.25;"/>
<line x1="252.600000" y1="163.000000" x2="255.600000" y2="164.000000"  transform="rotate(0.000000,255.600000,164.000000)" style="stroke: black; stroke-width:0.25;"/>
<line x1="252.600000" y1="165.000000" x2="255.600000" y2="164.000000"  transform="rotate(0.000000,255.600000,164.000000)" style="stroke: black; stroke-width:0.25;"/>
<line x1="252.600000" y1="171.000000" x2="255.600000" y2="172.000000"  transform="rotate(0.000000,255.600000,172.000000)" style="stroke: black; stroke-width:0.25;"/>
<line x1="252.600000" y1="173.000000" x2="255.600000" y2="172.000000"  transform="rotate(0.000000,255.600000,172.000000)" style="stroke: black; stroke-width:0.25;"/>
<line x1="252.600000" y1="179.000000" x2="255.600000" y2="180.000000"  transform="rotate(0.000000,255.600000,180.000000)" style="stroke: black; stroke-width:0.25;"/>
<line x1="252.600000" y1="181.000000" x2="255.600000" y2="180.000000"  transform="rotate(0.000000,255.600000,180.000000)" style="stroke: black; stroke-width:0.25;"/>
<line x1="252.600000" y1="187.000000" x2="255.600000" y2="188.000000"  transform="rotate(0.000000,255.600000,188.000000)" style="stroke: black; stroke-width:0.25;"/>
<line x1="252.600000" y1="189.000000" x2="255.600000" y2="188.000000"  transform="rotate(0.000000,255.600000,188.000000)" style="stroke: black; stroke-width:0.25;"/>
<line x1="252.600000" y1="195.000000" x2="255.600000" y2="196.000000"  transform="rotate(0.000000,255.600000,196.000000)" style="stroke: black; stroke-width:0.25;"/>
<line x1="252.600000" y1="197.000000" x2="255.600000" y2="196.000000"  transform="rotate(0.000000,255.600000,196.000000)" style="stroke: black; stroke-width:0.25;"/>
<line x1="252.600000" y1="203.000000" x2="255.600000" y2="204.000000"  transform="rotate(0.000000,255.600000,204.000000)" style="stroke: black; stroke-width:0.25;"/>
<line x1="252.600000" y1="205.000000" x2="255.600000" y2="204.000000"  transform="rotate(0.000000,255.600000,204.000000)" style="stroke: black; stroke-width:0.25;"/>
<line x1="252.600000" y1="211.000000" x2="255.600000" y2="212.000000"  transform="rotate(0.000000,255.600000,212.000000)" style="stroke: black; stroke-width:0.25;"/>
<line x1="252.600000" y1="213.000000" x2="255.600000" y2="212.000000"  transform="rotate(0.000000,255.600000,212.000000)" style="stroke: black; stroke-width:0.25;"/>
<line x1="252.600000" y1="219.000000" x2="255.600000" y2="220.000000"  transform="rotate(0.000000,255.600000,220.000000)" style="stroke: black; stroke-width:0.25;"/>
<line x1="252.600000" y1="221.000000" x2="255.600000" y2="220.000000"  transform="rotate(0.000000,255.600000,220.000000)" style="stroke: black; stroke-width:0.25;"/>
<line x1="252.600000" y1="227.000000" x2="255.600000" y2="228.000000"  transform="rotate(0.000000,255.600000,228.000000)" style="stroke: black; stroke-width:0.25;"/>
<line x1="252.600000" y1="229.000000" x2="255.600000" y2="228.000000"  transform="rotate(0.000000,255.600000,228.000000)" style="stroke: black; stroke-width:0.25;"/>
<line x1="252.600000" y1="235.000000" x2="255.600000" y2="236.000000"  transform="rotate(0.000000,255.600000,236.000000)" style="stroke: black; stroke-width:0.25;"/>
<line x1="252.600000" y1="237.000000" x2="255.600000" y2="236.000000"  transform="rotate(0.000000,255.600000,236.000000)" style="stroke: black; stroke-width:0.25;"/>
<line x1="252.600000" y1="243.000000" x2="255.600000" y2="244.000000"  transform="rotate(0.000000,255.600000,244.000000)" style="stroke: black; stroke-width:0.25;"/>
<line x1="252.600000" y1="245.000000" x2="255.600000" y2="244.000000"  transform="rotate(0.000000,255.600000,244.000000)" style="stroke: black; stroke-width:0.25;"/>
<line x1="252.600000" y1="251.000000" x2="255.600000" y2="252.000000"  transform="rotate(0.000000,255.600000,252.000000)" style="stroke: black; stroke-width:0.25;"/>
<line x1="252.600000" y1="253.000000" x2="255.600000" y2="252.000000"  transform="rotate(0.000000,255.600000,252.000000)" style="stroke: black; stroke-width:0.25;"/>
<line x1="252.600000" y1="259.000000" x2="255.600000" y2="260.000000"  transform="rotate(0.000000,255.600000,260.000000)" style="stroke: black; stroke-width:0.25;"/>
<line x1="252.600000" y1="261.000000" x2="255.600000" y2="260.000000"  transform="rotate(0.000000,255.600000,260.000000)" style="stroke: black; stroke-width:0.25;"/>
<line x1="252.600000" y1="267.000000" x2="255.600000" y2="268.000000"  transform="rotate(0.000000,255.600000,268.000000)" style="stroke: black; stroke-width:0.25;"/>
<line x1="252.600000" y1="269.000000" x2="255.600000" y2="268.000000"  transform="rotate(0.000000,255.600000,268.000000)" style="stroke: black; stroke-width:0.25;"/>
<line x1="252.600000" y1="275.000000" x2="255.600000" y2="276.000000"  transform="rotate(0.000000,255.600000,276.000000)" style="stroke: black; stroke-width:0.25;"/>
<line x1="252.600000" y1="277.000000" x2="255.600000" y2="276.000000"  transform="rotate(0.000000,255.600000,276.000000)" style="stroke: black; stroke-width:0.25;"/>
<line x1="252.600000" y1="283.000000" x2="255.600000" y2="284.000000"  transform="rotate(0.000000,255.600000,284.000000)" style="stroke: black; stroke-width:0.25;"/>
<line x1="252.600000" y1="285.000000" x2="255.600000" y2="284.000000"  transform="rotate(0.000000,255.600000,284.000000)" style="stroke: black; stroke-width:0.25;"/>
<line x1="252.600000" y1="291.000000" x2="255.600000" y2="292.000000"  transform="rotate(0.000000,255.600000,292.000000)" style="stroke: black; stroke-width:0.25;"/>
<line x1="252.600000" y1="293.000000" x2="255.600000" y2="292.000000"  transform="rotate(0.000000,255.600000,292.000000)" style="stroke: black; stroke-width:0.25;"/>
<line x1="252.600000" y1="299.000000" x2="255.600000" y2="300.000000"  transform="rotate(0.000000,255.600000,300.000000)" style="stroke: black; stroke-width:0.25;"/>
<line x1="252.600000" y1="301.000000" x2="255.600000" y2="300.000000"  transform="rotate(0.000000,255.600000,300.000000)" style="stroke: black; stroke-width:0.25;"/>
<line x1="252.600000" y1="307.000000" x2="255.600000" y2="308.000000"  transform="rotate(0.000000,255.600000,308.000000)" style="stroke: black; stroke-width:0.25;"/>
<line x1="252.600000" y1="309.000000" x2="255.600000" y2="308.000000"  transform="rotate(0.000000,255.600000,308.000000)" style="stroke: black; stroke-width:0.25;"/>
<line x1="252.600000" y1="315.000000" x2="255.600000" y2="316.000000"  transform="rotate(0.000000,255.600000,316.000000)" style="stroke: black; stroke-width:0.25;"/>
<line x1="252.600000" y1="317.000000" x2="255.600000" y2="316.000000"  transform="rotate(0.000000,255.600000,316.000000)" style="stroke: black; stroke-width:0.25;"/>
<line x1="252.600000" y1="323.000000" x2="255.600000" y2="324.000000"  transform="rotate(0.000000,255.600000,324.000000)" style="stroke: black; stroke-width:0.25;"/>
<line x1="252.600000" y1="325.000000" x2="255.600000" y2="324.000000"  transform="rotate(0.000000,255.600000,324.000000)" style="stroke: black; stroke-width:0.25;"/>
<line x1="252.600000" y1="331.000000" x2="255.600000" y2="332.000000"  transform="rotate(0.000000,255.600000,332.000000)" style="stroke: black; stroke-width:0.25;"/>
<line x1="252.600000" y1="333.000000" x2="255.600000" y2="332.000000"  transform="rotate(0.000000,255.600000,332.000000)" style="stroke: black; stroke-width:0.25;"/>
<line x1="252.600000" y1="339.000000" x2="255.600000" y2="340.000000"  transform="rotate(0.000000,255.600000,340.000000)" style="stroke: black; stroke-width:0.25;"/>
<line x1="252.600000" y1="341.000000" x2="255.600000" y2="340.000000"  transform="rotate(0.000000,255.600000,340.000000)" style="stroke: black; stroke-width:0.25;"/>
<line x1="15.000000" y1="15.000000" x2="15.000000" y2="353.000000"  style="stroke: black; stroke-linecap:round; stroke-width:0.25; stroke-dasharray:3,3;"/>
<line x1="15.000000" y1="353.000000" x2="350.000000" y2="353.000000"  style="stroke: black; stroke-linecap:round; stroke-width:0.25; stroke-dasharray:3,3;"/>
<line x1="350.000000" y1="353.000000" x2="350.000000" y2="15.000000"  style="stroke: black; stroke-linecap:round; stroke-width:0.25; stroke-dasharray:3,3;"/>
<line x1="15.000000" y1="15.000000" x2="20.000000" y2="15.000000"  style="stroke: black; stroke-linecap:round; stroke-width:0.25; stroke-dasharray:3,3;"/>
<line x1="52.250000" y1="15.000000" x2="350.000000" y2="15.000000"  style="stroke: black; stroke-linecap:round; stroke-width:0.25; stroke-dasharray:3,3;"/>
<text x="20.000000" y="17.000000" font-family="Arial" font-size="7">layer(1)</text>
<line x1="352.000000" y1="155.000000" x2="355.000000" y2="156.000000"  transform="rotate(0.000000,355.000000,156.000000)" style="stroke: black; stroke-width:0.25;"/>
<line x1="352.000000" y1="157.000000" x2="355.000000" y2="156.000000"  transform="rotate(0.000000,355.000000,156.000000)" style="stroke: black; stroke-width:0.25;"/>
<line x1="352.000000" y1="163.000000" x2="355.000000" y2="164.000000"  transform="rotate(0.000000,355.000000,164.000000)" style="stroke: black; stroke-width:0.25;"/>
<line x1="352.000000" y1="165.000000" x2="355.000000" y2="164.000000"  transform="rotate(0.000000,355.000000,164.000000)" style="stroke: black; stroke-width:0.25;"/>
<line x1="352.000000" y1="171.000000" x2="355.000000" y2="172.000000"  transform="rotate(0.000000,355.000000,172.000000)" style="stroke: black; stroke-width:0.25;"/>
<line x1="352.000000" y1="173.000000" x2="355.000000" y2="172.000000"  transform="rotate(0.000000,355.000000,172.000000)" style="stroke: black; stroke-width:0.25;"/>
<line x1="352.000000" y1="179.000000" x2="355.000000" y2="180.000000"  transform="rotate(0.000000,355.000000,180.000000)" style="stroke: black; stroke-width:0.25;"/>
<line x1="352.000000" y1="181.000000" x2="355.000000" y2="180.000000"  transform="rotate(0.000000,355.000000,180.000000)" style="stroke: black; stroke-width:0.25;"/>
<line x1="352.000000" y1="187.000000" x2="355.000000" y2="188.000000"  transform="rotate(0.000000,355.000000,188.000000)" style="stroke: black; stroke-width:0.25;"/>
<line x1="352.000000" y1="189.000000" x2="355.000000" y2="188.000000"  transform="rotate(0.000000,355.000000,188.000000)" style="stroke: black; stroke-width:0.25;"/>
<line x1="352.000000" y1="195.000000" x2="355.000000" y2="196.000000"  transform="rotate(0.000000,355.000000,196.000000)" style="stroke: black; stroke-width:0.25;"/>
<line x1="352.000000" y1="197.000000" x2="355.000000" y2="196.000000"  transform="rotate(0.000000,355.000000,196.000000)" style="stroke: black; stroke-width:0.25;"/>
<line x1="352.000000" y1="203.000000" x2="355.000000" y2="204.000000"  transform="rotate(0.000000,355.000000,204.000000)" style="stroke: black; stroke-width:0.25;"/>
<line x1="352.000000" y1="205.000000" x2="355.000000" y2="204.000000"  transform="rotate(0.000000,355.000000,204.000000)" style="stroke: black; stroke-width:0.25;"/>
<line x1="352.000000" y1="211.000000" x2="355.000000" y2="212.000000"  transform="rotate(0.000000,355.000000,212.000000)" style="stroke: black; stroke-width:0.25;"/>
<line x1="352.000000" y1="213.000000" x2="355.000000" y2="212.000000"  transform="rotate(0.000000,355.000000,212.000000)" style="stroke: black; stroke-width:0.25;"/>
<line x1="10.000000" y1="168.000000" x2="20.000000" y2="168.000000"  style="stroke:black; stroke-linecap:round; stroke-width:0.25;"/>
<line x1="10.000000" y1="176.000000" x2="20.000000" y2="176.000000"  style="stroke:black; stroke-linecap:round; stroke-width:0.25;"/>
<line x1="10.000000" y1="184.000000" x2="20.000000" y2="184.000000"  style="stroke:black; stroke-linecap:round; stroke-width:0.25;"/>
<line x1="10.000000" y1="192.000000" x2="20.000000" y2="192.000000"  style="stroke:black; stroke-linecap:round; stroke-width:0.25;"/>
<line x1="10.000000" y1="200.000000" x2="20.000000" y2="200.000000"  style="stroke:black; stroke-linecap:round; stroke-width:0.25;"/>
<line x1="20.000000" y1="168.000000" x2="24.000000" y2="168.000000"  style="stroke:black; stroke-linecap:round; stroke-width:0.25;"/>
<line x1="20.000000" y1="176.000000" x2="24.000000" y2="176.000000"  style="stroke:black; stroke-linecap:round; stroke-width:0.25;"/>
<line x1="20.000000" y1="184.000000" x2="24.000000" y2="184.000000"  style="stroke:black; stroke-linecap:round; stroke-width:0.25;"/>
<line x1="20.000000" y1="192.000000" x2="24.000000" y2="192.000000"  style="stroke:black; stroke-linecap:round; stroke-width:0.25;"/>
<line x1="20.000000" y1="200.000000" x2="24.000000" y2="200.000000"  style="stroke:black; stroke-linecap:round; stroke-width:0.25;"/>
<line x1="24.000000" y1="168.000000" x2="28.000000" y2="168.000000"  style="stroke:black; stroke-linecap:round; stroke-width:0.25;"/>
<line x1="24.000000" y1="176.000000" x2="28.000000" y2="176.000000"  style="stroke:black; stroke-linecap:round; stroke-width:0.25;"/>
<line x1="24.000000" y1="184.000000" x2="28.000000" y2="184.000000"  style="stroke:black; stroke-linecap:round; stroke-width:0.25;"/>
<line x1="24.000000" y1="192.000000" x2="28.000000" y2="192.000000"  style="stroke:black; stroke-linecap:round; stroke-width:0.25;"/>
<line x1="24.000000" y1="200.000000" x2="28.000000" y2="200.000000"  style="stroke:black; stroke-linecap:round; stroke-width:0.25;"/>
<line x1="28.000000" y1="168.000000" x2="28.000000" y2="168.000000"  style="stroke:black; stroke-linecap:round; stroke-width:0.25;"/>
<line x1="28.000000" y1="168.000000" x2="32.000000" y2="168.000000"  style="stroke:black; stroke-linecap:round; stroke-width:0.25;"/>
<line x1="28.000000" y1="176.000000" x2="28.000000" y2="176.000000"  style="stroke:black; stroke-linecap:round; stroke-width:0.25;"/>
<line x1="28.000000" y1="176.000000" x2="32.000000" y2="176.000000"  style="stroke:black; stroke-linecap:round; stroke-width:0.25;"/>
<line x1="28.000000" y1="184.000000" x2="28.000000" y2="184.000000"  style="stroke:black; stroke-linecap:round; stroke-width:0.25;"/>
<line x1="28.000000" y1="184.000000" x2="32.000000" y2="184.000000"  style="stroke:black; stroke-linecap:round; stroke-width:0.25;"/>
<line x1="28.000000" y1="192.000000" x2="28.000000" y2="192.000000"  style="stroke:black; stroke-linecap:round; stroke-width:0.25;"/>
<line x1="28.000000" y1="192.000000" x2="32.000000" y2="192.000000"  style="stroke:black; stroke-linecap:round; stroke-width:0.25;"/>
<line x1="28.000000" y1="200.000000" x2="28.000000" y2="200.000000"  style="stroke:black; stroke-linecap:round; stroke-width:0.25;"/>
<line x1="28.000000" y1="200.000000" x2="32.000000" y2="200.000000"  style="stroke:black; stroke-linecap:round; stroke-width:0.25;"/>
<line x1="83.600000" y1="28.000000" x2="87.600000" y2="28.000000"  style="stroke:black; stroke-linecap:round; stroke-width:0.25;"/>
<line x1="83.600000" y1="36.000000" x2="87.600000" y2="36.000000"  style="stroke:black; stroke-linecap:round; stroke-width:0.25;"/>
<line x1="83.600000" y1="44.000000" x2="87.600000" y2="44.000000"  style="stroke:black; stroke-linecap:round; stroke-width:0.25;"/>
<line x1="83.600000" y1="52.000000" x2="87.600000" y2="52.000000"  style="stroke:black; stroke-linecap:round; stroke-width:0.25;"/>
<line x1="83.600000" y1="60.000000" x2="87.600000" y2="60.000000"  style="stroke:black; stroke-linecap:round; stroke-width:0.25;"/>
<line x1="83.600000" y1="68.000000" x2="87.600000" y2="68.000000"  style="stroke:black; stroke-linecap:round; stroke-width:0.25;"/>
<line x1="83.600000" y1="76.000000" x2="87.600000" y2="76.000000"  style="stroke:black; stroke-linecap:round; stroke-width:0.25;"/>
<line x1="83.600000" y1="84.000000" x2="87.600000" y2="84.000000"  style="stroke:black; stroke-linecap:round; stroke-width:0.25;"/>
<line x1="83.600000" y1="92.000000" x2="87.600000" y2="92.000000"  style="stroke:black; stroke-linecap:round; stroke-width:0.25;"/>
<line x1="83.600000" y1="100.000000" x2="87.600000" y2="100.000000"  style="stroke:black; stroke-linecap:round; stroke-width:0.25;"/>
<line x1="83.600000" y1="108.000000" x2="87.600000" y2="108.000000"  style="stroke:black; stroke-linecap:round; stroke-width:0.25;"/>
<line x1="83.600000" y1="116.000000" x2="87.600000" y2="116.000000"  style="stroke:black; stroke-linecap:round; stroke-width:0.25;"/>
<line x1="83.600000" y1="124.000000" x2="87.600000" y2="124.000000"  style="stroke:black; stroke-linecap:round; stroke-width:0.25;"/>
<line x1="83.600000" y1="132.000000" x2="87.600000" y2="132.000000"  style="stroke:black; stroke-linecap:round; stroke-width:0.25;"/>
<line x1="83.600000" y1="140.000000" x2="87.600000" y2="140.000000"  style="stroke:black; stroke-linecap:round; stroke-width:0.25;"/>
<line x1="83.600000" y1="148.000000" x2="87.600000" y2="148.000000"  style="stroke:black; stroke-linecap:round; stroke-width:0.25;"/>
<line x1="83.600000" y1="156.000000" x2="87.600000" y2="156.000000"  style="stroke:black; stroke-linecap:round; stroke-width:0.25;"/>
<line x1="83.600000" y1="164.000000" x2="87.600000" y2="164.000000"  style="stroke:black; stroke-linecap:round; stroke-width:0.25;"/>
<line x1="83.600000" y1="172.000000" x2="87.600000" y2="172.000000"  style="stroke:black; stroke-linecap:round; stroke-width:0.25;"/>
<line x1="83.600000" y1="180.000000" x2="87.600000" y2="180.000000"  style="stroke:black; stroke-linecap:round; stroke-width:0.25;"/>
<line x1="83.600000" y1="188.000000" x2="87.600000" y2="188.000000"  style="stroke:black; stroke-linecap:round; stroke-width:0.25;"/>
<line x1="83.600000" y1="196.000000" x2="87.600000" y2="196.000000"  style="stroke:black; stroke-linecap:round; stroke-width:0.25;"/>
<line x1="83.600000" y1="204.000000" x2="87.600000" y2="204.000000"  style="stroke:black; stroke-linecap:round; stroke-width:0.25;"/>
<line x1="83.600000" y1="212.000000" x2="87.600000" y2="212.000000"  style="stroke:black; stroke-linecap:round; stroke-width:0.25;"/>
<line x1="83.600000" y1="220.000000" x2="87.600000" y2="220.000000"  style="stroke:black; stroke-linecap:round; stroke-width:0.25;"/>
<line x1="83.600000" y1="228.000000" x2="87.600000" y2="228.000000"  style="stroke:black; stroke-linecap:round; stroke-width:0.25;"/>
<line x1="83.600000" y1="236.000000" x2="87.600000" y2="236.000000"  style="stroke:black; stroke-linecap:round; stroke-width:0.25;"/>
<line x1="83.600000" y1="244.000000" x2="87.600000" y2="244.000000"  style="stroke:black; stroke-linecap:round; stroke-width:0.25;"/>
<line x1="83.600000" y1="252.000000" x2="87.600000" y2="252.000000"  style="stroke:black; stroke-linecap:round; stroke-width:0.25;"/>
<line x1="83.600000" y1="260.000000" x2="87.600000" y2="260.000000"  style="stroke:black; stroke-linecap:round; stroke-width:0.25;"/>
<line x1="83.600000" y1="268.000000" x2="87.600000" y2="268.000000"  style="stroke:black; stroke-linecap:round; stroke-width:0.25;"/>
<line x1="83.600000" y1="276.000000" x2="87.600000" y2="276.000000"  style="stroke:black; stroke-linecap:round; stroke-width:0.25;"/>
<line x1="83.600000" y1="284.000000" x2="87.600000" y2="284.000000"  style="stroke:black; stroke-linecap:round; stroke-width:0.25;"/>
<line x1="83.600000" y1="292.000000" x2="87.600000" y2="292.000000"  style="stroke:black; stroke-linecap:round; stroke-width:0.25;"/>
<line x1="83.600000" y1="300.000000" x2="87.600000" y2="300.000000"  style="stroke:black; stroke-linecap:round; stroke-width:0.25;"/>
<line x1="83.600000" y1="308.000000" x2="87.600000" y2="308.000000"  style="stroke:black; stroke-linecap:round; stroke-width:0.25;"/>
<line x1="83.600000" y1="316.000000" x2="87.600000" y2="316.000000"  style="stroke:black; stroke-linecap:round; stroke-width:0.25;"/>
<line x1="83.600000" y1="324.000000" x2="87.600000" y2="324.000000"  style="stroke:black; stroke-linecap:round; stroke-width:0.25;"/>
<line x1="83.600000" y1="332.000000" x2="87.600000" y2="332.000000"  style="stroke:black; stroke-linecap:round; stroke-width:0.25;"/>
<line x1="83.600000" y1="340.000000" x2="87.600000" y2="340.000000"  style="stroke:black; stroke-linecap:round; stroke-width:0.25;"/>
<line x1="87.600000" y1="28.000000" x2="251.600000" y2="28.000000"  style="stroke:black; stroke-linecap:round; stroke-width:0.25;"/>
<line x1="87.600000" y1="36.000000" x2="251.600000" y2="36.000000"  style="stroke:black; stroke-linecap:round; stroke-width:0.25;"/>
<line x1="87.600000" y1="44.000000" x2="251.600000" y2="44.000000"  style="stroke:black; stroke-linecap:round; stroke-width:0.25;"/>
<line x1="87.600000" y1="52.000000" x2="251.600000" y2="52.000000"  style="stroke:black; stroke-linecap:round; stroke-width:0.25;"/>
<line x1="87.600000" y1="60.000000" x2="251.600000" y2="60.000000"  style="stroke:black; stroke-linecap:round; stroke-width:0.25;"/>
<line x1="87.600000" y1="68.000000" x2="251.600000" y2="68.000000"  style="stroke:black; stroke-linecap:round; stroke-width:0.25;"/>
<line x1="87.600000" y1="76.000000" x2="251.600000" y2="76.000000"  style="stroke:black; stroke-linecap:round; stroke-width:0.25;"/>
<line x1="87.600000" y1="84.000000" x2="251.600000" y2="84.000000"  style="stroke:black; stroke-linecap:round; stroke-width:0.25;"/>
<line x1="87.600000" y1="92.000000" x2="251.600000" y2="92.000000"  style="stroke:black; stroke-linecap:round; stroke-width:0.25;"/>
<line x1="87.600000" y1="100.000000" x2="251.600000" y2="100.000000"  style="stroke:black; stroke-linecap:round; stroke-width:0.25;"/>
<line x1="87.600000" y1="108.000000" x2="251.600000" y2="108.000000"  style="stroke:black; stroke-linecap:round; stroke-width:0.25;"/>
<line x1="87.600000" y1="116.000000" x2="251.600000" y2="116.000000"  style="stroke:black; stroke-linecap:round; stroke-width:0.25;"/>
<line x1="87.600000" y1="124.000000" x2="251.600000" y2="124.000000"  style="stroke:black; stroke-linecap:round; stroke-width:0.25;"/>
<line x1="87.600000" y1="132.000000" x2="251.600000" y2="132.000000"  style="stroke:black; stroke-linecap:round; stroke-width:0.25;"/>
<line x1="87.600000" y1="140.000000" x2="251.600000" y2="140.000000"  style="stroke:black; stroke-linecap:round; stroke-width:0.25;"/>
<line x1="87.600000" y1="148.000000" x2="251.600000" y2="148.000000"  style="stroke:black; stroke-linecap:round; stroke-width:0.25;"/>
<line x1="87.600000" y1="156.000000" x2="251.600000" y2="156.000000"  style="stroke:black; stroke-linecap:round; stroke-width:0.25;"/>
<line x1="87.600000" y1="164.000000" x2="251.600000" y2="164.000000"  style="stroke:black; stroke-linecap:round; stroke-width:0.25;"/>
<line x1="87.600000" y1="172.000000" x2="251.600000" y2="172.000000"  style="stroke:black; stroke-linecap:round; stroke-width:0.25;"/>
<line x1="87.600000" y1="180.000000" x2="251.600000" y2="180.000000"  style="stroke:black; stroke-linecap:round; stroke-width:0.25;"/>
<line x1="87.600000" y1="188.000000" x2="251.600000" y2="188.000000"  style="stroke:black; stroke-linecap:round; stroke-width:0.25;"/>
<line x1="87.600000" y1="196.000000" x2="251.600000" y2="196.000000"  style="stroke:black; stroke-linecap:round; stroke-width:0.25;"/>
<line x1="87.600000" y1="204.000000" x2="251.600000" y2="204.000000"  style="stroke:black; stroke-linecap:round; stroke-width:0.25;"/>
<line x1="87.600000" y1="212.000000" x2="251.600000" y2="212.000000"  style="stroke:black; stroke-linecap:round; stroke-width:0.25;"/>
<line x1="87.600000" y1="220.000000" x2="251.600000" y2="220.000000"  style="stroke:black; stroke-linecap:round; stroke-width:0.25;"/>
<line x1="87.600000" y1="228.000000" x2="251.600000" y2="228.000000"  style="stroke:black; stroke-linecap:round; stroke-width:0.25;"/>
<line x1="87.600000" y1="236.000000" x2="251.600000" y2="236.000000"  style="stroke:black; stroke-linecap:round; stroke-width:0.25;"/>
<line x1="87.600000" y1="244.000000" x2="251.600000" y2="244.000000"  style="stroke:black; stroke-linecap:round; stroke-width:0.25;"/>
<line x1="87.600000" y1="252.000000" x2="251.600000" y2="252.000000"  style="stroke:black; stroke-linecap:round; stroke-width:0.25;"/>
<line x1="87.600000" y1="260.000000" x2="251.600000" y2="260.000000"  style="stroke:black; stroke-linecap:round; stroke-width:0.25;"/>
<line x1="87.600000" y1="268.000000" x2="251.600000" y2="268.000000"  style="stroke:black; stroke-linecap:round; stroke-width:0.25;"/>
<line x1="87.600000" y1="276.000000" x2="251.600000" y2="276.000000"  style="stroke:black; stroke-linecap:round; stroke-width:0.25;"/>
<line x1="87.600000" y1="284.000000" x2="251.600000" y2="284.000000"  style="stroke:black; stroke-linecap:round; stroke-width:0.25;"/>
<line x1="87.600000" y1="292.000000" x2="251.600000" y2="292.000000"  style="stroke:black; stroke-linecap:round; stroke-width:0.25;"/>
<line x1="87.600000" y1="300.000000" x2="251.600000" y2="300.000000"  style="stroke:black; stroke-linecap:round; stroke-width:0.25;"/>
<line x1="87.600000" y1="308.000000" x2="251.600000" y2="308.000000"  style="stroke:black; stroke-linecap:round; stroke-width:0.25;"/>
<line x1="87.600000" y1="316.000000" x2="251.600000" y2="316.000000"  style="stroke:black; stroke-linecap:round; stroke-width:0.25;"/>
<line x1="87.600000" y1="324.000000" x2="251.600000" y2="324.000000"  style="stroke:black; stroke-linecap:round; stroke-width:0.25;"/>
<line x1="87.600000" y1="332.000000" x2="251.600000" y2="332.000000"  style="stroke:black; stroke-linecap:round; stroke-width:0.25;"/>
<line x1="87.600000" y1="340.000000" x2="251.600000" y2="340.000000"  style="stroke:black; stroke-linecap:round; stroke-width:0.25;"/>
<line x1="251.600000" y1="28.000000" x2="255.600000" y2="28.000000"  style="stroke:black; stroke-linecap:round; stroke-width:0.25;"/>
<line x1="251.600000" y1="36.000000" x2="255.600000" y2="36.000000"  style="stroke:black; stroke-linecap:round; stroke-width:0.25;"/>
<line x1="251.600000" y1="44.000000" x2="255.600000" y2="44.000000"  style="stroke:black; stroke-linecap:round; stroke-width:0.25;"/>
<line x1="251.600000" y1="52.000000" x2="255.600000" y2="52.000000"  style="stroke:black; stroke-linecap:round; stroke-width:0.25;"/>
<line x1="251.600000" y1="60.000000" x2="255.600000" y2="60.000000"  style="stroke:black; stroke-linecap:round; stroke-width:0.25;"/>
<line x1="251.600000" y1="68.000000" x2="255.600000" y2="68.000000"  style="stroke:black; stroke-linecap:round; stroke-width:0.25;"/>
<line x1="251.600000" y1="76.000000" x2="255.600000" y2="76.000000"  style="stroke:black; stroke-linecap:round; stroke-width:0.25;"/>
<line x1="251.600000" y1="84.000000" x2="255.600000" y2="84.000000"  style="stroke:black; stroke-linecap:round; stroke-width:0.25;"/>
<line x1="251.600000" y1="92.000000" x2="255.600000" y2="92.000000"  style="stroke:black; stroke-linecap:round; stroke-width:0.25;"/>
<line x1="251.600000" y1="100.000000" x2="255.600000" y2="100.000000"  style="stroke:black; stroke-linecap:round; stroke-width:0.25;"/>
<line x1="251.600000" y1="108.000000" x2="255.600000" y2="108.000000"  style="stroke:black; stroke-linecap:round; stroke-width:0.25;"/>
<line x1="251.600000" y1="116.000000" x2="255.600000" y2="116.000000"  style="stroke:black; stroke-linecap:round; stroke-width:0.25;"/>
<line x1="251.600000" y1="124.000000" x2="255.600000" y2="124.000000"  style="stroke:black; stroke-linecap:round; stroke-width:0.25;"/>
<line x1="251.600000" y1="132.000000" x2="255.600000" y2="132.000000"  style="stroke:black; stroke-linecap:round; stroke-width:0.25;"/>
<line x1="251.600000" y1="140.000000" x2="255.600000" y2="140.000000"  style="stroke:black; stroke-linecap:round; stroke-width:0.25;"/>
<line x1="251.600000" y1="148.000000" x2="255.600000" y2="148.000000"  style="stroke:black; stroke-linecap:round; stroke-width:0.25;"/>
<line x1="251.600000" y1="156.000000" x2="255.600000" y2="156.000000"  style="stroke:black; stroke-linecap:round; stroke-width:0.25;"/>
<line x1="251.600000" y1="164.000000" x2="255.600000" y2="164.000000"  style="stroke:black; stroke-linecap:round; stroke-width:0.25;"/>
<line x1="251.600000" y1="172.000000" x2="255.600000" y2="172.000000"  style="stroke:black; stroke-linecap:round; stroke-width:0.25;"/>
<line x1="251.600000" y1="180.000000" x2="255.600000" y2="180.000000"  style="stroke:black; stroke-linecap:round; stroke-width:0.25;"/>
<line x1="251.600000" y1="188.000000" x2="255.600000" y2="188.000000"  style="stroke:black; stroke-linecap:round; stroke-width:0.25;"/>
<line x1="251.600000" y1="196.000000" x2="255.600000" y2="196.000000"  style="stroke:black; stroke-linecap:round; stroke-width:0.25;"/>
<line x1="251.600000" y1="204.000000" x2="255.600000" y2="204.000000"  style="stroke:black; stroke-linecap:round; stroke-width:0.25;"/>
<line x1="251.600000" y1="212.000000" x2="255.600000" y2="212.000000"  style="stroke:black; stroke-linecap:round; stroke-width:0.25;"/>
<line x1="251.600000" y1="220.000000" x2="255.600000" y2="220.000000"  style="stroke:black; stroke-linecap:round; stroke-width:0.25;"/>
<line x1="251.600000" y1="228.000000" x2="255.600000" y2="228.000000"  style="stroke:black; stroke-linecap:round; stroke-width:0.25;"/>
<line x1="251.600000" y1="236.000000" x2="255.600000" y2="236.000000"  style="stroke:black; stroke-linecap:round; stroke-width:0.25;"/>
<line x1="251.600000" y1="244.000000" x2="255.600000" y2="244.000000"  style="stroke:black; stroke-linecap:round; stroke-width:0.25;"/>
<line x1="251.600000" y1="252.000000" x2="255.600000" y2="252.000000"  style="stroke:black; stroke-linecap:round; stroke-width:0.25;"/>
<line x1="251.600000" y1="260.000000" x2="255.600000" y2="260.000000"  style="stroke:black; stroke-linecap:round; stroke-width:0.25;"/>
<line x1="251.600000" y1="268.000000" x2="255.600000" y2="268.000000"  style="stroke:black; stroke-linecap:round; stroke-width:0.25;"/>
<line x1="251.600000" y1="276.000000" x2="255.600000" y2="276.000000"  style="stroke:black; stroke-linecap:round; stroke-width:0.25;"/>
<line x1="251.600000" y1="284.000000" x2="255.600000" y2="284.000000"  style="stroke:black; stroke-linecap:round; stroke-width:0.25;"/>
<line x1="251.600000" y1="292.000000" x2="255.600000" y2="292.000000"  style="stroke:black; stroke-linecap:round; stroke-width:0.25;"/>
<line x1="251.600000" y1="300.000000" x2="255.600000" y2="300.000000"  style="stroke:black; stroke-linecap:round; stroke-width:0.25;"/>
<line x1="251.600000" y1="308.000000" x2="255.600000" y2="308.000000"  style="stroke:black; stroke-linecap:round; stroke-width:0.25;"/>
<line x1="251.600000" y1="316.000000" x2="255.600000" y2="316.000000"  style="stroke:black; stroke-linecap:round; stroke-width:0.25;"/>
<line x1="251.600000" y1="324.000000" x2="255.600000" y2="324.000000"  style="stroke:black; stroke-linecap:round; stroke-width:0.25;"/>
<line x1="251.600000" y1="332.000000" x2="255.600000" y2="332.000000"  style="stroke:black; stroke-linecap:round; stroke-width:0.25;"/>
<line x1="251.600000" y1="340.000000" x2="255.600000" y2="340.000000"  style="stroke:black; stroke-linecap:round; stroke-width:0.25;"/>
<line x1="333.000000" y1="156.000000" x2="337.000000" y2="156.000000"  style="stroke:black; stroke-linecap:round; stroke-width:0.25;"/>
<line x1="333.000000" y1="164.000000" x2="337.000000" y2="164.000000"  style="stroke:black; stroke-linecap:round; stroke-width:0.25;"/>
<line x1="333.000000" y1="172.000000" x2="337.000000" y2="172.000000"  style="stroke:black; stroke-linecap:round; stroke-width:0.25;"/>
<line x1="333.000000" y1="180.000000" x2="337.000000" y2="180.000000"  style="stroke:black; stroke-linecap:round; stroke-width:0.25;"/>
<line x1="333.000000" y1="188.000000" x2="337.000000" y2="188.000000"  style="stroke:black; stroke-linecap:round; stroke-width:0.25;"/>
<line x1="333.000000" y1="196.000000" x2="337.000000" y2="196.000000"  style="stroke:black; stroke-linecap:round; stroke-width:0.25;"/>
<line x1="333.000000" y1="204.000000" x2="337.000000" y2="204.000000"  style="stroke:black; stroke-linecap:round; stroke-width:0.25;"/>
<line x1="333.000000" y1="212.000000" x2="337.000000" y2="212.000000"  style="stroke:black; stroke-linecap:round; stroke-width:0.25;"/>
<line x1="337.000000" y1="156.000000" x2="337.000000" y2="156.000000"  style="stroke:black; stroke-linecap:round; stroke-width:0.25;"/>
<line x1="337.000000" y1="156.000000" x2="341.000000" y2="156.000000"  style="stroke:black; stroke-linecap:round; stroke-width:0.25;"/>
<line x1="337.000000" y1="164.000000" x2="337.000000" y2="164.000000"  style="stroke:black; stroke-linecap:round; stroke-width:0.25;"/>
<line x1="337.000000" y1="164.000000" x2="341.000000" y2="164.000000"  style="stroke:black; stroke-linecap:round; stroke-width:0.25;"/>
<line x1="337.000000" y1="172.000000" x2="337.000000" y2="172.000000"  style="stroke:black; stroke-linecap:round; stroke-width:0.25;"/>
<line x1="337.000000" y1="172.000000" x2="341.000000" y2="172.000000"  style="stroke:black; stroke-linecap:round; stroke-width:0.25;"/>
<line x1="337.000000" y1="180.000000" x2="337.000000" y2="180.000000"  style="stroke:black; stroke-linecap:round; stroke-width:0.25;"/>
<line x1="337.000000" y1="180.000000" x2="341.000000" y2="180.000000"  style="stroke:black; stroke-linecap:round; stroke-width:0.25;"/>
<line x1="337.000000" y1="188.000000" x2="337.000000" y2="188.000000"  style="stroke:black; stroke-linecap:round; stroke-width:0.25;"/>
<line x1="337.000000" y1="188.000000" x2="341.000000" y2="188.000000"  style="stroke:black; stroke-linecap:round; stroke-width:0.25;"/>
<line x1="337.000000" y1="196.000000" x2="337.000000" y2="196.000000"  style="stroke:black; stroke-linecap:round; stroke-width:0.25;"/>
<line x1="337.000000" y1="196.000000" x2="341.000000" y2="196.000000"  style="stroke:black; stroke-linecap:round; stroke-width:0.25;"/>
<line x1="337.000000" y1="204.000000" x2="337.000000" y2="204.000000"  style="stroke:black; stroke-linecap:round; stroke-width:0.25;"/>
<line x1="337.000000" y1="204.000000" x2="341.000000" y2="204.000000"  style="stroke:black; stroke-linecap:round; stroke-width:0.25;"/>
<line x1="337.000000" y1="212.000000" x2="337.000000" y2="212.000000"  style="stroke:black; stroke-linecap:round; stroke-width:0.25;"/>
<line x1="337.000000" y1="212.000000" x2="341.000000" y2="212.000000"  style="stroke:black; stroke-linecap:round; stroke-width:0.25;"/>
<line x1="341.000000" y1="156.000000" x2="345.000000" y2="156.000000"  style="stroke:black; stroke-linecap:round; stroke-width:0.25;"/>
<line x1="341.000000" y1="164.000000" x2="345.000000" y2="164.000000"  style="stroke:black; stroke-linecap:round; stroke-width:0.25;"/>
<line x1="341.000000" y1="172.000000" x2="345.000000" y2="172.000000"  style="stroke:black; stroke-linecap:round; stroke-width:0.25;"/>
<line x1="341.000000" y1="180.000000" x2="345.000000" y2="180.000000"  style="stroke:black; stroke-linecap:round; stroke-width:0.25;"/>
<line x1="341.000000" y1="188.000000" x2="345.000000" y2="188.000000"  style="stroke:black; stroke-linecap:round; stroke-width:0.25;"/>
<line x1="341.000000" y1="196.000000" x2="345.000000" y2="196.000000"  style="stroke:black; stroke-linecap:round; stroke-width:0.25;"/>
<line x1="341.000000" y1="204.000000" x2="345.000000" y2="204.000000"  style="stroke:black; stroke-linecap:round; stroke-width:0.25;"/>
<line x1="341.000000" y1="212.000000" x2="345.000000" y2="212.000000"  style="stroke:black; stroke-linecap:round; stroke-width:0.25;"/>
<line x1="345.000000" y1="156.000000" x2="355.000000" y2="156.000000"  style="stroke:black; stroke-linecap:round; stroke-width:0.25;"/>
<line x1="345.000000" y1="164.000000" x2="355.000000" y2="164.000000"  style="stroke:black; stroke-linecap:round; stroke-width:0.25;"/>
<line x1="345.000000" y1="172.000000" x2="355.000000" y2="172.000000"  style="stroke:black; stroke-linecap:round; stroke-width:0.25;"/>
<line x1="345.000000" y1="180.000000" x2="355.000000" y2="180.000000"  style="stroke:black; stroke-linecap:round; stroke-width:0.25;"/>
<line x1="345.000000" y1="188.000000" x2="355.000000" y2="188.000000"  style="stroke:black; stroke-linecap:round; stroke-width:0.25;"/>
<line x1="345.000000" y1="196.000000" x2="355.000000" y2="196.000000"  style="stroke:black; stroke-linecap:round; stroke-width:0.25;"/>
<line x1="345.000000" y1="204.000000" x2="355.000000" y2="204.000000"  style="stroke:black; stroke-linecap:round; stroke-width:0.25;"/>
<line x1="345.000000" y1="212.000000" x2="355.000000" y2="212.000000"  style="stroke:black; stroke-linecap:round; stroke-width:0.25;"/>
</svg>
