<?xml version="1.0"?>
<svg xmlns="http://www.w3.org/2000/svg" xmlns:xlink="http://www.w3.org/1999/xlink" viewBox="0 0 96.040000 56.160000" width="48.020000mm" height="28.080000mm" version="1.1">
<rect x="1.000000" y="1.000000" width="95.040000" height="55.160000" rx="0" ry="0" style="stroke:none;fill:#cccccc;"/>
<rect x="0.000000" y="0.000000" width="95.040000" height="55.160000" rx="0" ry="0" style="stroke:none;fill:#ffffff;"/>
<text x="10.000000" y="7.000000" font-family="Arial" font-size="7"></text>
<line x1="15.000000" y1="15.000000" x2="15.000000" y2="41.160000"  style="stroke: black; stroke-linecap:round; stroke-width:0.25; stroke-dasharray:3,3;"/>
<line x1="15.000000" y1="41.160000" x2="81.040000" y2="41.160000"  style="stroke: black; stroke-linecap:round; stroke-width:0.25; stroke-dasharray:3,3;"/>
<line x1="81.040000" y1="41.160000" x2="81.040000" y2="15.000000"  style="stroke: black; stroke-linecap:round; stroke-width:0.25; stroke-dasharray:3,3;"/>
<line x1="15.000000" y1="15.000000" x2="20.000000" y2="15.000000"  style="stroke: black; stroke-linecap:round; stroke-width:0.25; stroke-dasharray:3,3;"/>
<line x1="49.025000" y1="15.000000" x2="81.040000" y2="15.000000"  style="stroke: black; stroke-linecap:round; stroke-width:0.25; stroke-dasharray:3,3;"/>
<text x="20.000000" y="17.000000" font-family="Arial" font-size="7">process</text>
<line x1="83.040000" y1="23.080000" x2="86.040000" y2="24.080000"  transform="rotate(0.000000,86.040000,24.080000)" style="stroke: black; stroke-width:0.25;"/>
<line x1="83.040000" y1="25.080000" x2="86.040000" y2="24.080000"  transform="rotate(0.000000,86.040000,24.080000)" style="stroke: black; stroke-width:0.25;"/>
<line x1="83.040000" y1="31.080000" x2="86.040000" y2="32.080000"  transform="rotate(0.000000,86.040000,32.080000)" style="stroke: black; stroke-width:0.25;"/>
<line x1="83.040000" y1="33.080000" x2="86.040000" y2="32.080000"  transform="rotate(0.000000,86.040000,32.080000)" style="stroke: black; stroke-width:0.25;"/>
<line x1="10.000000" y1="24.080000" x2="20.000000" y2="24.080000"  style="stroke:black; stroke-linecap:round; stroke-width:0.25;"/>
<line x1="10.000000" y1="32.080000" x2="20.000000" y2="32.080000"  style="stroke:black; stroke-linecap:round; stroke-width:0.25;"/>
<line x1="20.000000" y1="24.080000" x2="24.000000" y2="24.080000"  style="stroke:black; stroke-linecap:round; stroke-width:0.25;"/>
<line x1="20.000000" y1="32.080000" x2="24.000000" y2="32.080000"  style="stroke:black; stroke-linecap:round; stroke-width:0.25;"/>
<line x1="24.000000" y1="24.080000" x2="28.000000" y2="24.080000"  style="stroke:black; stroke-linecap:round; stroke-width:0.25;"/>
<line x1="24.000000" y1="32.080000" x2="28.000000" y2="32.080000"  style="stroke:black; stroke-linecap:round; stroke-width:0.25;"/>
<line x1="28.000000" y1="24.080000" x2="28.000000" y2="24.080000"  style="stroke:black; stroke-linecap:round; stroke-width:0.25;"/>
<line x1="28.000000" y1="24.080000" x2="32.000000" y2="24.080000"  style="stroke:black; stroke-linecap:round; stroke-width:0.25;"/>
<line x1="28.000000" y1="32.080000" x2="28.000000" y2="32.080000"  style="stroke:black; stroke-linecap:round; stroke-width:0.25;"/>
<line x1="28.000000" y1="32.080000" x2="32.000000" y2="32.080000"  style="stroke:black; stroke-linecap:round; stroke-width:0.25;"/>
<line x1="32.000000" y1="24.080000" x2="36.000000" y2="24.080000"  style="stroke:black; stroke-linecap:round; stroke-width:0.25;"/>
<line x1="32.000000" y1="32.080000" x2="36.000000" y2="32.080000"  style="stroke:black; stroke-linecap:round; stroke-width:0.25;"/>
<line x1="36.000000" y1="24.080000" x2="44.040000" y2="32.080000"  style="stroke:black; stroke-linecap:round; stroke-width:0.25;"/>
<line x1="36.000000" y1="32.080000" x2="44.040000" y2="24.080000"  style="stroke:black; stroke-linecap:round; stroke-width:0.25;"/>
<line x1="44.040000" y1="24.080000" x2="48.040000" y2="24.080000"  style="stroke:black; stroke-linecap:round; stroke-width:0.25;"/>
<line x1="44.040000" y1="32.080000" x2="48.040000" y2="32.080000"  style="stroke:black; stroke-linecap:round; stroke-width:0.25;"/>
<line x1="48.040000" y1="24.080000" x2="52.040000" y2="24.080000"  style="stroke:black; stroke-linecap:round; stroke-width:0.25;"/>
<line x1="48.040000" y1="32.080000" x2="52.040000" y2="32.080000"  style="stroke:black; stroke-linecap:round; stroke-width:0.25;"/>
<line x1="52.040000" y1="24.080000" x2="68.040000" y2="24.080000"  style="stroke:black; stroke-linecap:round; stroke-width:0.25;"/>
<line x1="52.040000" y1="32.080000" x2="68.040000" y2="32.080000"  style="stroke:black; stroke-linecap:round; stroke-width:0.25;"/>
<line x1="68.040000" y1="24.080000" x2="72.040000" y2="24.080000"  style="stroke:black; stroke-linecap:round; stroke-width:0.25;"/>
<line x1="68.040000" y1="32.080000" x2="72.040000" y2="32.080000"  style="stroke:black; stroke-linecap:round; stroke-width:0.25;"/>
<line x1="72.040000" y1="24.080000" x2="76.040000" y2="24.080000"  style="stroke:black; stroke-linecap:round; stroke-width:0.25;"/>
<line x1="72.040000" y1="32.080000" x2="76.040000" y2="32.080000"  style="stroke:black; stroke-linecap:round; stroke-width:0.25;"/>
<line x1="76.040000" y1="24.080000" x2="86.040000" y2="24.080000"  style="stroke:black; stroke-linecap:round; stroke-width:0.25;"/>
<line x1="76.040000" y1="32.080000" x2="86.040000" y2="32.080000"  style="stroke:black; stroke-linecap:round; stroke-width:0.25;"/>
</svg>
