<?xml version="1.0"?>
<svg xmlns="http://www.w3.org/2000/svg" xmlns:xlink="http://www.w3.org/1999/xlink" viewBox="0 0 430.800000 188.000000" width="215.400000mm" height="94.000000mm" version="1.1">
<a xlink:href="pulsetrainN-0x7fd8c461c500.svg">
<rect x="1.000000" y="1.000000" width="429.800000" height="187.000000" rx="0" ry="0" style="stroke:none;fill:#cccccc;"/>
<rect x="0.000000" y="0.000000" width="429.800000" height="187.000000" rx="0" ry="0" style="stroke:none;fill:#ffffff;"/>
</a>
<text x="10.000000" y="7.000000" font-family="Arial" font-size="7"></text>
<a xlink:href="saw1l-0x7fd8c4617e90.svg">
<rect x="25.000000" y="83.000000" width="25.800000" height="24.000000" rx="0" ry="0" style="stroke:none;fill:#cccccc;"/>
<rect x="24.000000" y="82.000000" width="25.800000" height="24.000000" rx="0" ry="0" style="stroke:none;fill:#003366;"/>
</a>
<a xlink:href="saw1l-0x7fd8c4617e90.svg">
<text x="36.900000" y="96.000000" font-family="Arial" font-size="7" text-anchor="middle" fill="#FFFFFF">saw1l</text>
</a>
<circle cx="26.000000" cy="84.000000" r="1"/>
<rect x="68.800000" y="83.000000" width="25.800000" height="24.000000" rx="0" ry="0" style="stroke:none;fill:#cccccc;"/>
<rect x="67.800000" y="82.000000" width="25.800000" height="24.000000" rx="0" ry="0" style="stroke:none;fill:#47945E;"/>
<text x="80.700000" y="96.000000" font-family="Arial" font-size="7" text-anchor="middle" fill="#FFFFFF">PM103</text>
<circle cx="69.800000" cy="84.000000" r="1"/>
<line x1="64.800000" y1="93.000000" x2="67.800000" y2="94.000000"  transform="rotate(0.000000,67.800000,94.000000)" style="stroke: black; stroke-width:0.25;"/>
<line x1="64.800000" y1="95.000000" x2="67.800000" y2="94.000000"  transform="rotate(0.000000,67.800000,94.000000)" style="stroke: black; stroke-width:0.25;"/>
<rect x="102.600000" y="35.000000" width="25.800000" height="24.000000" rx="0" ry="0" style="stroke:none;fill:#cccccc;"/>
<rect x="101.600000" y="34.000000" width="25.800000" height="24.000000" rx="0" ry="0" style="stroke:none;fill:#47945E;"/>
<text x="114.500000" y="48.000000" font-family="Arial" font-size="7" text-anchor="middle" fill="#FFFFFF">PM103</text>
<circle cx="103.600000" cy="36.000000" r="1"/>
<rect x="102.600000" y="67.000000" width="25.800000" height="24.000000" rx="0" ry="0" style="stroke:none;fill:#cccccc;"/>
<rect x="101.600000" y="66.000000" width="25.800000" height="24.000000" rx="0" ry="0" style="stroke:none;fill:#47945E;"/>
<text x="114.500000" y="80.000000" font-family="Arial" font-size="7" text-anchor="middle" fill="#FFFFFF">PM103</text>
<circle cx="103.600000" cy="68.000000" r="1"/>
<rect x="144.400000" y="51.000000" width="24.000000" height="24.000000" rx="0" ry="0" style="stroke:none;fill:#cccccc;"/>
<rect x="143.400000" y="50.000000" width="24.000000" height="24.000000" rx="0" ry="0" style="stroke:none;fill:#4B71A1;"/>
<text x="155.400000" y="64.000000" font-family="Arial" font-size="7" text-anchor="middle" fill="#FFFFFF">*</text>
<circle cx="145.400000" cy="52.000000" r="1"/>
<line x1="140.400000" y1="57.000000" x2="143.400000" y2="58.000000"  transform="rotate(0.000000,143.400000,58.000000)" style="stroke: black; stroke-width:0.25;"/>
<line x1="140.400000" y1="59.000000" x2="143.400000" y2="58.000000"  transform="rotate(0.000000,143.400000,58.000000)" style="stroke: black; stroke-width:0.25;"/>
<line x1="140.400000" y1="65.000000" x2="143.400000" y2="66.000000"  transform="rotate(0.000000,143.400000,66.000000)" style="stroke: black; stroke-width:0.25;"/>
<line x1="140.400000" y1="67.000000" x2="143.400000" y2="66.000000"  transform="rotate(0.000000,143.400000,66.000000)" style="stroke: black; stroke-width:0.25;"/>
<rect x="122.600000" y="99.000000" width="25.800000" height="24.000000" rx="0" ry="0" style="stroke:none;fill:#cccccc;"/>
<rect x="121.600000" y="98.000000" width="25.800000" height="24.000000" rx="0" ry="0" style="stroke:none;fill:#47945E;"/>
<text x="134.500000" y="112.000000" font-family="Arial" font-size="7" text-anchor="middle" fill="#FFFFFF">PM103</text>
<circle cx="123.600000" cy="100.000000" r="1"/>
<rect x="184.400000" y="67.000000" width="24.000000" height="24.000000" rx="0" ry="0" style="stroke:none;fill:#cccccc;"/>
<rect x="183.400000" y="66.000000" width="24.000000" height="24.000000" rx="0" ry="0" style="stroke:none;fill:#4B71A1;"/>
<text x="195.400000" y="80.000000" font-family="Arial" font-size="7" text-anchor="middle" fill="#FFFFFF">*</text>
<circle cx="185.400000" cy="68.000000" r="1"/>
<line x1="180.400000" y1="73.000000" x2="183.400000" y2="74.000000"  transform="rotate(0.000000,183.400000,74.000000)" style="stroke: black; stroke-width:0.25;"/>
<line x1="180.400000" y1="75.000000" x2="183.400000" y2="74.000000"  transform="rotate(0.000000,183.400000,74.000000)" style="stroke: black; stroke-width:0.25;"/>
<line x1="180.400000" y1="81.000000" x2="183.400000" y2="82.000000"  transform="rotate(0.000000,183.400000,82.000000)" style="stroke: black; stroke-width:0.25;"/>
<line x1="180.400000" y1="83.000000" x2="183.400000" y2="82.000000"  transform="rotate(0.000000,183.400000,82.000000)" style="stroke: black; stroke-width:0.25;"/>
<rect x="142.600000" y="131.000000" width="25.800000" height="24.000000" rx="0" ry="0" style="stroke:none;fill:#cccccc;"/>
<rect x="141.600000" y="130.000000" width="25.800000" height="24.000000" rx="0" ry="0" style="stroke:none;fill:#47945E;"/>
<text x="154.500000" y="144.000000" font-family="Arial" font-size="7" text-anchor="middle" fill="#FFFFFF">PM103</text>
<circle cx="143.600000" cy="132.000000" r="1"/>
<rect x="224.400000" y="83.000000" width="24.000000" height="24.000000" rx="0" ry="0" style="stroke:none;fill:#cccccc;"/>
<rect x="223.400000" y="82.000000" width="24.000000" height="24.000000" rx="0" ry="0" style="stroke:none;fill:#4B71A1;"/>
<text x="235.400000" y="96.000000" font-family="Arial" font-size="7" text-anchor="middle" fill="#FFFFFF">-</text>
<circle cx="225.400000" cy="84.000000" r="1"/>
<line x1="220.400000" y1="89.000000" x2="223.400000" y2="90.000000"  transform="rotate(0.000000,223.400000,90.000000)" style="stroke: black; stroke-width:0.25;"/>
<line x1="220.400000" y1="91.000000" x2="223.400000" y2="90.000000"  transform="rotate(0.000000,223.400000,90.000000)" style="stroke: black; stroke-width:0.25;"/>
<line x1="220.400000" y1="97.000000" x2="223.400000" y2="98.000000"  transform="rotate(0.000000,223.400000,98.000000)" style="stroke: black; stroke-width:0.25;"/>
<line x1="220.400000" y1="99.000000" x2="223.400000" y2="98.000000"  transform="rotate(0.000000,223.400000,98.000000)" style="stroke: black; stroke-width:0.25;"/>
<line x1="58.800000" y1="25.000000" x2="58.800000" y2="163.000000"  style="stroke: black; stroke-linecap:round; stroke-width:0.25; stroke-dasharray:3,3;"/>
<line x1="58.800000" y1="163.000000" x2="256.400000" y2="163.000000"  style="stroke: black; stroke-linecap:round; stroke-width:0.25; stroke-dasharray:3,3;"/>
<line x1="256.400000" y1="163.000000" x2="256.400000" y2="25.000000"  style="stroke: black; stroke-linecap:round; stroke-width:0.25; stroke-dasharray:3,3;"/>
<line x1="58.800000" y1="25.000000" x2="63.800000" y2="25.000000"  style="stroke: black; stroke-linecap:round; stroke-width:0.25; stroke-dasharray:3,3;"/>
<line x1="105.725000" y1="25.000000" x2="256.400000" y2="25.000000"  style="stroke: black; stroke-linecap:round; stroke-width:0.25; stroke-dasharray:3,3;"/>
<text x="63.800000" y="27.000000" font-family="Arial" font-size="7">Abstraction</text>
<a xlink:href="diff-0x7fd8c461ad90.svg">
<rect x="274.400000" y="67.000000" width="38.700000" height="24.000000" rx="0" ry="0" style="stroke:none;fill:#cccccc;"/>
<rect x="273.400000" y="66.000000" width="38.700000" height="24.000000" rx="0" ry="0" style="stroke:none;fill:#003366;"/>
</a>
<a xlink:href="diff-0x7fd8c461ad90.svg">
<text x="292.750000" y="80.000000" font-family="Arial" font-size="7" text-anchor="middle" fill="#FFFFFF">diff(2)</text>
</a>
<circle cx="275.400000" cy="68.000000" r="1"/>
<line x1="270.400000" y1="77.000000" x2="273.400000" y2="78.000000"  transform="rotate(0.000000,273.400000,78.000000)" style="stroke: black; stroke-width:0.25;"/>
<line x1="270.400000" y1="79.000000" x2="273.400000" y2="78.000000"  transform="rotate(0.000000,273.400000,78.000000)" style="stroke: black; stroke-width:0.25;"/>
<rect x="281.750000" y="99.000000" width="24.000000" height="24.000000" rx="0" ry="0" style="stroke:none;fill:#cccccc;"/>
<rect x="280.750000" y="98.000000" width="24.000000" height="24.000000" rx="0" ry="0" style="stroke:none;fill:#f44800;"/>
<text x="292.750000" y="112.000000" font-family="Arial" font-size="7" text-anchor="middle" fill="#FFFFFF">6</text>
<circle cx="282.750000" cy="100.000000" r="1"/>
<rect x="329.100000" y="83.000000" width="24.000000" height="24.000000" rx="0" ry="0" style="stroke:none;fill:#cccccc;"/>
<rect x="328.100000" y="82.000000" width="24.000000" height="24.000000" rx="0" ry="0" style="stroke:none;fill:#4B71A1;"/>
<text x="340.100000" y="96.000000" font-family="Arial" font-size="7" text-anchor="middle" fill="#FFFFFF">/</text>
<circle cx="330.100000" cy="84.000000" r="1"/>
<line x1="325.100000" y1="89.000000" x2="328.100000" y2="90.000000"  transform="rotate(0.000000,328.100000,90.000000)" style="stroke: black; stroke-width:0.25;"/>
<line x1="325.100000" y1="91.000000" x2="328.100000" y2="90.000000"  transform="rotate(0.000000,328.100000,90.000000)" style="stroke: black; stroke-width:0.25;"/>
<line x1="325.100000" y1="97.000000" x2="328.100000" y2="98.000000"  transform="rotate(0.000000,328.100000,98.000000)" style="stroke: black; stroke-width:0.25;"/>
<line x1="325.100000" y1="99.000000" x2="328.100000" y2="98.000000"  transform="rotate(0.000000,328.100000,98.000000)" style="stroke: black; stroke-width:0.25;"/>
<a xlink:href="gate-0x7fd8c32a3a30.svg">
<rect x="361.100000" y="83.000000" width="38.700000" height="24.000000" rx="0" ry="0" style="stroke:none;fill:#cccccc;"/>
<rect x="360.100000" y="82.000000" width="38.700000" height="24.000000" rx="0" ry="0" style="stroke:none;fill:#003366;"/>
</a>
<a xlink:href="gate-0x7fd8c32a3a30.svg">
<text x="379.450000" y="96.000000" font-family="Arial" font-size="7" text-anchor="middle" fill="#FFFFFF">gate(2)</text>
</a>
<circle cx="362.100000" cy="84.000000" r="1"/>
<line x1="357.100000" y1="93.000000" x2="360.100000" y2="94.000000"  transform="rotate(0.000000,360.100000,94.000000)" style="stroke: black; stroke-width:0.25;"/>
<line x1="357.100000" y1="95.000000" x2="360.100000" y2="94.000000"  transform="rotate(0.000000,360.100000,94.000000)" style="stroke: black; stroke-width:0.25;"/>
<line x1="15.000000" y1="15.000000" x2="15.000000" y2="173.000000"  style="stroke: black; stroke-linecap:round; stroke-width:0.25; stroke-dasharray:3,3;"/>
<line x1="15.000000" y1="173.000000" x2="415.800000" y2="173.000000"  style="stroke: black; stroke-linecap:round; stroke-width:0.25; stroke-dasharray:3,3;"/>
<line x1="415.800000" y1="173.000000" x2="415.800000" y2="15.000000"  style="stroke: black; stroke-linecap:round; stroke-width:0.25; stroke-dasharray:3,3;"/>
<line x1="15.000000" y1="15.000000" x2="20.000000" y2="15.000000"  style="stroke: black; stroke-linecap:round; stroke-width:0.25; stroke-dasharray:3,3;"/>
<line x1="119.975000" y1="15.000000" x2="415.800000" y2="15.000000"  style="stroke: black; stroke-linecap:round; stroke-width:0.25; stroke-dasharray:3,3;"/>
<text x="20.000000" y="17.000000" font-family="Arial" font-size="7">sawN(3)(((vgr...62139f : max)</text>
<line x1="417.800000" y1="93.000000" x2="420.800000" y2="94.000000"  transform="rotate(0.000000,420.800000,94.000000)" style="stroke: black; stroke-width:0.25;"/>
<line x1="417.800000" y1="95.000000" x2="420.800000" y2="94.000000"  transform="rotate(0.000000,420.800000,94.000000)" style="stroke: black; stroke-width:0.25;"/>
<line x1="49.800000" y1="94.000000" x2="53.800000" y2="94.000000"  style="stroke:black; stroke-linecap:round; stroke-width:0.25;"/>
<line x1="53.800000" y1="94.000000" x2="53.800000" y2="94.000000"  style="stroke:black; stroke-linecap:round; stroke-width:0.25;"/>
<line x1="53.800000" y1="94.000000" x2="63.800000" y2="94.000000"  style="stroke:black; stroke-linecap:round; stroke-width:0.25;"/>
<line x1="63.800000" y1="94.000000" x2="67.800000" y2="94.000000"  style="stroke:black; stroke-linecap:round; stroke-width:0.25;"/>
<line x1="127.400000" y1="46.000000" x2="131.400000" y2="46.000000"  style="stroke:black; stroke-linecap:round; stroke-width:0.25;"/>
<line x1="127.400000" y1="78.000000" x2="131.400000" y2="78.000000"  style="stroke:black; stroke-linecap:round; stroke-width:0.25;"/>
<line x1="131.400000" y1="46.000000" x2="139.400000" y2="46.000000"  style="stroke:black; stroke-linecap:round; stroke-width:0.25;"/>
<line x1="131.400000" y1="66.000000" x2="139.400000" y2="66.000000"  style="stroke:black; stroke-linecap:round; stroke-width:0.25;"/>
<line x1="131.400000" y1="78.000000" x2="131.400000" y2="66.000000"  style="stroke:black; stroke-linecap:round; stroke-width:0.25;"/>
<line x1="131.400000" y1="78.000000" x2="131.400000" y2="78.000000"  style="stroke:black; stroke-linecap:round; stroke-width:0.25;"/>
<line x1="139.400000" y1="46.000000" x2="139.400000" y2="58.000000"  style="stroke:black; stroke-linecap:round; stroke-width:0.25;"/>
<line x1="139.400000" y1="58.000000" x2="139.400000" y2="58.000000"  style="stroke:black; stroke-linecap:round; stroke-width:0.25;"/>
<line x1="139.400000" y1="58.000000" x2="143.400000" y2="58.000000"  style="stroke:black; stroke-linecap:round; stroke-width:0.25;"/>
<line x1="139.400000" y1="66.000000" x2="143.400000" y2="66.000000"  style="stroke:black; stroke-linecap:round; stroke-width:0.25;"/>
<line x1="147.400000" y1="110.000000" x2="151.400000" y2="110.000000"  style="stroke:black; stroke-linecap:round; stroke-width:0.25;"/>
<line x1="151.400000" y1="110.000000" x2="171.400000" y2="110.000000"  style="stroke:black; stroke-linecap:round; stroke-width:0.25;"/>
<line x1="167.400000" y1="62.000000" x2="171.400000" y2="62.000000"  style="stroke:black; stroke-linecap:round; stroke-width:0.25;"/>
<line x1="167.400000" y1="142.000000" x2="171.400000" y2="142.000000"  style="stroke:black; stroke-linecap:round; stroke-width:0.25;"/>
<line x1="171.400000" y1="62.000000" x2="179.400000" y2="62.000000"  style="stroke:black; stroke-linecap:round; stroke-width:0.25;"/>
<line x1="171.400000" y1="82.000000" x2="179.400000" y2="82.000000"  style="stroke:black; stroke-linecap:round; stroke-width:0.25;"/>
<line x1="171.400000" y1="110.000000" x2="171.400000" y2="82.000000"  style="stroke:black; stroke-linecap:round; stroke-width:0.25;"/>
<line x1="171.400000" y1="110.000000" x2="171.400000" y2="110.000000"  style="stroke:black; stroke-linecap:round; stroke-width:0.25;"/>
<line x1="171.400000" y1="142.000000" x2="211.400000" y2="142.000000"  style="stroke:black; stroke-linecap:round; stroke-width:0.25;"/>
<line x1="179.400000" y1="62.000000" x2="179.400000" y2="74.000000"  style="stroke:black; stroke-linecap:round; stroke-width:0.25;"/>
<line x1="179.400000" y1="74.000000" x2="179.400000" y2="74.000000"  style="stroke:black; stroke-linecap:round; stroke-width:0.25;"/>
<line x1="179.400000" y1="74.000000" x2="183.400000" y2="74.000000"  style="stroke:black; stroke-linecap:round; stroke-width:0.25;"/>
<line x1="179.400000" y1="82.000000" x2="183.400000" y2="82.000000"  style="stroke:black; stroke-linecap:round; stroke-width:0.25;"/>
<line x1="207.400000" y1="78.000000" x2="211.400000" y2="78.000000"  style="stroke:black; stroke-linecap:round; stroke-width:0.25;"/>
<line x1="211.400000" y1="78.000000" x2="219.400000" y2="78.000000"  style="stroke:black; stroke-linecap:round; stroke-width:0.25;"/>
<line x1="211.400000" y1="98.000000" x2="219.400000" y2="98.000000"  style="stroke:black; stroke-linecap:round; stroke-width:0.25;"/>
<line x1="211.400000" y1="142.000000" x2="211.400000" y2="98.000000"  style="stroke:black; stroke-linecap:round; stroke-width:0.25;"/>
<line x1="211.400000" y1="142.000000" x2="211.400000" y2="142.000000"  style="stroke:black; stroke-linecap:round; stroke-width:0.25;"/>
<line x1="219.400000" y1="78.000000" x2="219.400000" y2="90.000000"  style="stroke:black; stroke-linecap:round; stroke-width:0.25;"/>
<line x1="219.400000" y1="90.000000" x2="219.400000" y2="90.000000"  style="stroke:black; stroke-linecap:round; stroke-width:0.25;"/>
<line x1="219.400000" y1="90.000000" x2="223.400000" y2="90.000000"  style="stroke:black; stroke-linecap:round; stroke-width:0.25;"/>
<line x1="219.400000" y1="98.000000" x2="223.400000" y2="98.000000"  style="stroke:black; stroke-linecap:round; stroke-width:0.25;"/>
<line x1="247.400000" y1="94.000000" x2="251.400000" y2="94.000000"  style="stroke:black; stroke-linecap:round; stroke-width:0.25;"/>
<line x1="251.400000" y1="94.000000" x2="261.400000" y2="94.000000"  style="stroke:black; stroke-linecap:round; stroke-width:0.25;"/>
<line x1="261.400000" y1="78.000000" x2="269.400000" y2="78.000000"  style="stroke:black; stroke-linecap:round; stroke-width:0.25;"/>
<line x1="261.400000" y1="94.000000" x2="261.400000" y2="78.000000"  style="stroke:black; stroke-linecap:round; stroke-width:0.25;"/>
<line x1="261.400000" y1="94.000000" x2="261.400000" y2="94.000000"  style="stroke:black; stroke-linecap:round; stroke-width:0.25;"/>
<line x1="269.400000" y1="78.000000" x2="273.400000" y2="78.000000"  style="stroke:black; stroke-linecap:round; stroke-width:0.25;"/>
<line x1="304.750000" y1="110.000000" x2="308.750000" y2="110.000000"  style="stroke:black; stroke-linecap:round; stroke-width:0.25;"/>
<line x1="308.750000" y1="110.000000" x2="316.100000" y2="110.000000"  style="stroke:black; stroke-linecap:round; stroke-width:0.25;"/>
<line x1="312.100000" y1="78.000000" x2="316.100000" y2="78.000000"  style="stroke:black; stroke-linecap:round; stroke-width:0.25;"/>
<line x1="316.100000" y1="78.000000" x2="324.100000" y2="78.000000"  style="stroke:black; stroke-linecap:round; stroke-width:0.25;"/>
<line x1="316.100000" y1="98.000000" x2="324.100000" y2="98.000000"  style="stroke:black; stroke-linecap:round; stroke-width:0.25;"/>
<line x1="316.100000" y1="110.000000" x2="316.100000" y2="98.000000"  style="stroke:black; stroke-linecap:round; stroke-width:0.25;"/>
<line x1="316.100000" y1="110.000000" x2="316.100000" y2="110.000000"  style="stroke:black; stroke-linecap:round; stroke-width:0.25;"/>
<line x1="324.100000" y1="78.000000" x2="324.100000" y2="90.000000"  style="stroke:black; stroke-linecap:round; stroke-width:0.25;"/>
<line x1="324.100000" y1="90.000000" x2="324.100000" y2="90.000000"  style="stroke:black; stroke-linecap:round; stroke-width:0.25;"/>
<line x1="324.100000" y1="90.000000" x2="328.100000" y2="90.000000"  style="stroke:black; stroke-linecap:round; stroke-width:0.25;"/>
<line x1="324.100000" y1="98.000000" x2="328.100000" y2="98.000000"  style="stroke:black; stroke-linecap:round; stroke-width:0.25;"/>
<line x1="352.100000" y1="94.000000" x2="356.100000" y2="94.000000"  style="stroke:black; stroke-linecap:round; stroke-width:0.25;"/>
<line x1="356.100000" y1="94.000000" x2="356.100000" y2="94.000000"  style="stroke:black; stroke-linecap:round; stroke-width:0.25;"/>
<line x1="356.100000" y1="94.000000" x2="360.100000" y2="94.000000"  style="stroke:black; stroke-linecap:round; stroke-width:0.25;"/>
<line x1="398.800000" y1="94.000000" x2="402.800000" y2="94.000000"  style="stroke:black; stroke-linecap:round; stroke-width:0.25;"/>
<line x1="402.800000" y1="94.000000" x2="402.800000" y2="94.000000"  style="stroke:black; stroke-linecap:round; stroke-width:0.25;"/>
<line x1="402.800000" y1="94.000000" x2="406.800000" y2="94.000000"  style="stroke:black; stroke-linecap:round; stroke-width:0.25;"/>
<line x1="406.800000" y1="94.000000" x2="410.800000" y2="94.000000"  style="stroke:black; stroke-linecap:round; stroke-width:0.25;"/>
<line x1="410.800000" y1="94.000000" x2="420.800000" y2="94.000000"  style="stroke:black; stroke-linecap:round; stroke-width:0.25;"/>
</svg>
