<?xml version="1.0"?>
<svg xmlns="http://www.w3.org/2000/svg" xmlns:xlink="http://www.w3.org/1999/xlink" viewBox="0 0 263.700000 72.000000" width="131.850000mm" height="36.000000mm" version="1.1">
<a xlink:href="unGrain-0x7f913fa076f0.svg">
<rect x="1.000000" y="1.000000" width="262.700000" height="71.000000" rx="0" ry="0" style="stroke:none;fill:#cccccc;"/>
<rect x="0.000000" y="0.000000" width="262.700000" height="71.000000" rx="0" ry="0" style="stroke:none;fill:#ffffff;"/>
</a>
<text x="10.000000" y="7.000000" font-family="Arial" font-size="7"></text>
<rect x="25.000000" y="25.000000" width="24.000000" height="24.000000" rx="0" ry="0" style="stroke:none;fill:#cccccc;"/>
<rect x="24.000000" y="24.000000" width="24.000000" height="24.000000" rx="0" ry="0" style="stroke:none;fill:#47945E;"/>
<text x="36.000000" y="38.000000" font-family="Arial" font-size="7" text-anchor="middle" fill="#FFFFFF">clk</text>
<circle cx="26.000000" cy="26.000000" r="1"/>
<a xlink:href="rampe-0x7f913fa06170.svg">
<rect x="57.000000" y="25.000000" width="129.000000" height="24.000000" rx="0" ry="0" style="stroke:none;fill:#cccccc;"/>
<rect x="56.000000" y="24.000000" width="129.000000" height="24.000000" rx="0" ry="0" style="stroke:none;fill:#003366;"/>
</a>
<a xlink:href="rampe-0x7f913fa06170.svg">
<text x="120.500000" y="38.000000" font-family="Arial" font-size="7" text-anchor="middle" fill="#FFFFFF">rampe(1000,hs... 0.001f) : /)</text>
</a>
<circle cx="58.000000" cy="26.000000" r="1"/>
<line x1="53.000000" y1="35.000000" x2="56.000000" y2="36.000000"  transform="rotate(0.000000,56.000000,36.000000)" style="stroke: black; stroke-width:0.25;"/>
<line x1="53.000000" y1="37.000000" x2="56.000000" y2="36.000000"  transform="rotate(0.000000,56.000000,36.000000)" style="stroke: black; stroke-width:0.25;"/>
<a xlink:href="envelop-0x7f913aef6e10.svg">
<rect x="194.000000" y="25.000000" width="38.700000" height="24.000000" rx="0" ry="0" style="stroke:none;fill:#cccccc;"/>
<rect x="193.000000" y="24.000000" width="38.700000" height="24.000000" rx="0" ry="0" style="stroke:none;fill:#003366;"/>
</a>
<a xlink:href="envelop-0x7f913aef6e10.svg">
<text x="212.350000" y="38.000000" font-family="Arial" font-size="7" text-anchor="middle" fill="#FFFFFF">envelop</text>
</a>
<circle cx="195.000000" cy="26.000000" r="1"/>
<line x1="190.000000" y1="35.000000" x2="193.000000" y2="36.000000"  transform="rotate(0.000000,193.000000,36.000000)" style="stroke: black; stroke-width:0.25;"/>
<line x1="190.000000" y1="37.000000" x2="193.000000" y2="36.000000"  transform="rotate(0.000000,193.000000,36.000000)" style="stroke: black; stroke-width:0.25;"/>
<line x1="15.000000" y1="15.000000" x2="15.000000" y2="57.000000"  style="stroke: black; stroke-linecap:round; stroke-width:0.25; stroke-dasharray:3,3;"/>
<line x1="15.000000" y1="57.000000" x2="248.700000" y2="57.000000"  style="stroke: black; stroke-linecap:round; stroke-width:0.25; stroke-dasharray:3,3;"/>
<line x1="248.700000" y1="57.000000" x2="248.700000" y2="15.000000"  style="stroke: black; stroke-linecap:round; stroke-width:0.25; stroke-dasharray:3,3;"/>
<line x1="15.000000" y1="15.000000" x2="20.000000" y2="15.000000"  style="stroke: black; stroke-linecap:round; stroke-width:0.25; stroke-dasharray:3,3;"/>
<line x1="52.250000" y1="15.000000" x2="248.700000" y2="15.000000"  style="stroke: black; stroke-linecap:round; stroke-width:0.25; stroke-dasharray:3,3;"/>
<text x="20.000000" y="17.000000" font-family="Arial" font-size="7">EnvGrain</text>
<line x1="250.700000" y1="35.000000" x2="253.700000" y2="36.000000"  transform="rotate(0.000000,253.700000,36.000000)" style="stroke: black; stroke-width:0.25;"/>
<line x1="250.700000" y1="37.000000" x2="253.700000" y2="36.000000"  transform="rotate(0.000000,253.700000,36.000000)" style="stroke: black; stroke-width:0.25;"/>
<line x1="48.000000" y1="36.000000" x2="52.000000" y2="36.000000"  style="stroke:black; stroke-linecap:round; stroke-width:0.25;"/>
<line x1="52.000000" y1="36.000000" x2="52.000000" y2="36.000000"  style="stroke:black; stroke-linecap:round; stroke-width:0.25;"/>
<line x1="52.000000" y1="36.000000" x2="56.000000" y2="36.000000"  style="stroke:black; stroke-linecap:round; stroke-width:0.25;"/>
<line x1="185.000000" y1="36.000000" x2="189.000000" y2="36.000000"  style="stroke:black; stroke-linecap:round; stroke-width:0.25;"/>
<line x1="189.000000" y1="36.000000" x2="189.000000" y2="36.000000"  style="stroke:black; stroke-linecap:round; stroke-width:0.25;"/>
<line x1="189.000000" y1="36.000000" x2="193.000000" y2="36.000000"  style="stroke:black; stroke-linecap:round; stroke-width:0.25;"/>
<line x1="231.700000" y1="36.000000" x2="235.700000" y2="36.000000"  style="stroke:black; stroke-linecap:round; stroke-width:0.25;"/>
<line x1="235.700000" y1="36.000000" x2="235.700000" y2="36.000000"  style="stroke:black; stroke-linecap:round; stroke-width:0.25;"/>
<line x1="235.700000" y1="36.000000" x2="239.700000" y2="36.000000"  style="stroke:black; stroke-linecap:round; stroke-width:0.25;"/>
<line x1="239.700000" y1="36.000000" x2="243.700000" y2="36.000000"  style="stroke:black; stroke-linecap:round; stroke-width:0.25;"/>
<line x1="243.700000" y1="36.000000" x2="253.700000" y2="36.000000"  style="stroke:black; stroke-linecap:round; stroke-width:0.25;"/>
</svg>
