<?xml version="1.0"?>
<svg xmlns="http://www.w3.org/2000/svg" xmlns:xlink="http://www.w3.org/1999/xlink" viewBox="0 0 370.300000 152.000000" width="185.150000mm" height="76.000000mm" version="1.1">
<a xlink:href="rindex-0x7f913afa5ca0.svg">
<rect x="1.000000" y="1.000000" width="369.300000" height="151.000000" rx="0" ry="0" style="stroke:none;fill:#cccccc;"/>
<rect x="0.000000" y="0.000000" width="369.300000" height="151.000000" rx="0" ry="0" style="stroke:none;fill:#ffffff;"/>
</a>
<text x="10.000000" y="7.000000" font-family="Arial" font-size="7"></text>
<a xlink:href="delta-0x7f913af986c0.svg">
<rect x="25.000000" y="65.000000" width="25.800000" height="24.000000" rx="0" ry="0" style="stroke:none;fill:#cccccc;"/>
<rect x="24.000000" y="64.000000" width="25.800000" height="24.000000" rx="0" ry="0" style="stroke:none;fill:#003366;"/>
</a>
<a xlink:href="delta-0x7f913af986c0.svg">
<text x="36.900000" y="78.000000" font-family="Arial" font-size="7" text-anchor="middle" fill="#FFFFFF">delta</text>
</a>
<circle cx="26.000000" cy="66.000000" r="1"/>
<rect x="74.800000" y="69.000000" width="24.000000" height="24.000000" rx="0" ry="0" style="stroke:none;fill:#cccccc;"/>
<rect x="73.800000" y="68.000000" width="24.000000" height="24.000000" rx="0" ry="0" style="stroke:none;fill:#4B71A1;"/>
<text x="85.800000" y="82.000000" font-family="Arial" font-size="7" text-anchor="middle" fill="#FFFFFF">+</text>
<circle cx="75.800000" cy="70.000000" r="1"/>
<line x1="70.800000" y1="75.000000" x2="73.800000" y2="76.000000"  transform="rotate(0.000000,73.800000,76.000000)" style="stroke: black; stroke-width:0.25;"/>
<line x1="70.800000" y1="77.000000" x2="73.800000" y2="76.000000"  transform="rotate(0.000000,73.800000,76.000000)" style="stroke: black; stroke-width:0.25;"/>
<line x1="70.800000" y1="83.000000" x2="73.800000" y2="84.000000"  transform="rotate(0.000000,73.800000,84.000000)" style="stroke: black; stroke-width:0.25;"/>
<line x1="70.800000" y1="85.000000" x2="73.800000" y2="84.000000"  transform="rotate(0.000000,73.800000,84.000000)" style="stroke: black; stroke-width:0.25;"/>
<rect x="135.700000" y="33.000000" width="24.000000" height="24.000000" rx="0" ry="0" style="stroke:none;fill:#cccccc;"/>
<rect x="134.700000" y="32.000000" width="24.000000" height="24.000000" rx="0" ry="0" style="stroke:none;fill:#47945E;"/>
<text x="146.700000" y="46.000000" font-family="Arial" font-size="7" text-anchor="middle" fill="#FFFFFF">clk</text>
<circle cx="136.700000" cy="34.000000" r="1"/>
<a xlink:href="delta-0x7f913af986c0.svg">
<rect x="114.800000" y="73.000000" width="25.800000" height="24.000000" rx="0" ry="0" style="stroke:none;fill:#cccccc;"/>
<rect x="113.800000" y="72.000000" width="25.800000" height="24.000000" rx="0" ry="0" style="stroke:none;fill:#003366;"/>
</a>
<a xlink:href="delta-0x7f913af986c0.svg">
<text x="126.700000" y="86.000000" font-family="Arial" font-size="7" text-anchor="middle" fill="#FFFFFF">delta</text>
</a>
<circle cx="115.800000" cy="74.000000" r="1"/>
<rect x="115.700000" y="105.000000" width="24.000000" height="24.000000" rx="0" ry="0" style="stroke:none;fill:#cccccc;"/>
<rect x="114.700000" y="104.000000" width="24.000000" height="24.000000" rx="0" ry="0" style="stroke:none;fill:#f44800;"/>
<text x="126.700000" y="118.000000" font-family="Arial" font-size="7" text-anchor="middle" fill="#FFFFFF">0</text>
<circle cx="116.700000" cy="106.000000" r="1"/>
<rect x="156.600000" y="89.000000" width="24.000000" height="24.000000" rx="0" ry="0" style="stroke:none;fill:#cccccc;"/>
<rect x="155.600000" y="88.000000" width="24.000000" height="24.000000" rx="0" ry="0" style="stroke:none;fill:#4B71A1;"/>
<text x="167.600000" y="102.000000" font-family="Arial" font-size="7" text-anchor="middle" fill="#FFFFFF">&lt;</text>
<circle cx="157.600000" cy="90.000000" r="1"/>
<line x1="152.600000" y1="95.000000" x2="155.600000" y2="96.000000"  transform="rotate(0.000000,155.600000,96.000000)" style="stroke: black; stroke-width:0.25;"/>
<line x1="152.600000" y1="97.000000" x2="155.600000" y2="96.000000"  transform="rotate(0.000000,155.600000,96.000000)" style="stroke: black; stroke-width:0.25;"/>
<line x1="152.600000" y1="103.000000" x2="155.600000" y2="104.000000"  transform="rotate(0.000000,155.600000,104.000000)" style="stroke: black; stroke-width:0.25;"/>
<line x1="152.600000" y1="105.000000" x2="155.600000" y2="104.000000"  transform="rotate(0.000000,155.600000,104.000000)" style="stroke: black; stroke-width:0.25;"/>
<rect x="204.600000" y="69.000000" width="38.700000" height="24.000000" rx="0" ry="0" style="stroke:none;fill:#cccccc;"/>
<rect x="203.600000" y="68.000000" width="38.700000" height="24.000000" rx="0" ry="0" style="stroke:none;fill:#4B71A1;"/>
<text x="222.950000" y="82.000000" font-family="Arial" font-size="7" text-anchor="middle" fill="#FFFFFF">select2</text>
<circle cx="205.600000" cy="70.000000" r="1"/>
<line x1="200.600000" y1="71.000000" x2="203.600000" y2="72.000000"  transform="rotate(0.000000,203.600000,72.000000)" style="stroke: black; stroke-width:0.25;"/>
<line x1="200.600000" y1="73.000000" x2="203.600000" y2="72.000000"  transform="rotate(0.000000,203.600000,72.000000)" style="stroke: black; stroke-width:0.25;"/>
<line x1="200.600000" y1="79.000000" x2="203.600000" y2="80.000000"  transform="rotate(0.000000,203.600000,80.000000)" style="stroke: black; stroke-width:0.25;"/>
<line x1="200.600000" y1="81.000000" x2="203.600000" y2="80.000000"  transform="rotate(0.000000,203.600000,80.000000)" style="stroke: black; stroke-width:0.25;"/>
<line x1="200.600000" y1="87.000000" x2="203.600000" y2="88.000000"  transform="rotate(0.000000,203.600000,88.000000)" style="stroke: black; stroke-width:0.25;"/>
<line x1="200.600000" y1="89.000000" x2="203.600000" y2="88.000000"  transform="rotate(0.000000,203.600000,88.000000)" style="stroke: black; stroke-width:0.25;"/>
<rect x="259.300000" y="65.000000" width="24.000000" height="24.000000" rx="0" ry="0" style="stroke:none;fill:#cccccc;"/>
<rect x="258.300000" y="64.000000" width="24.000000" height="24.000000" rx="0" ry="0" style="stroke:none;fill:#f44800;"/>
<text x="270.300000" y="78.000000" font-family="Arial" font-size="7" text-anchor="middle" fill="#FFFFFF">0</text>
<circle cx="260.300000" cy="66.000000" r="1"/>
<rect x="299.300000" y="69.000000" width="24.000000" height="24.000000" rx="0" ry="0" style="stroke:none;fill:#cccccc;"/>
<rect x="298.300000" y="68.000000" width="24.000000" height="24.000000" rx="0" ry="0" style="stroke:none;fill:#4B71A1;"/>
<text x="310.300000" y="82.000000" font-family="Arial" font-size="7" text-anchor="middle" fill="#FFFFFF">max</text>
<circle cx="300.300000" cy="70.000000" r="1"/>
<line x1="295.300000" y1="75.000000" x2="298.300000" y2="76.000000"  transform="rotate(0.000000,298.300000,76.000000)" style="stroke: black; stroke-width:0.25;"/>
<line x1="295.300000" y1="77.000000" x2="298.300000" y2="76.000000"  transform="rotate(0.000000,298.300000,76.000000)" style="stroke: black; stroke-width:0.25;"/>
<line x1="295.300000" y1="83.000000" x2="298.300000" y2="84.000000"  transform="rotate(0.000000,298.300000,84.000000)" style="stroke: black; stroke-width:0.25;"/>
<line x1="295.300000" y1="85.000000" x2="298.300000" y2="84.000000"  transform="rotate(0.000000,298.300000,84.000000)" style="stroke: black; stroke-width:0.25;"/>
<line x1="324.300000" y1="80.000000" x2="324.300000" y2="76.000000"  style="stroke:black; stroke-linecap:round; stroke-width:0.25;"/>
<line x1="324.300000" y1="76.000000" x2="328.300000" y2="76.000000"  style="stroke:black; stroke-linecap:round; stroke-width:0.25;"/>
<line x1="328.300000" y1="76.000000" x2="328.300000" y2="80.000000"  style="stroke:black; stroke-linecap:round; stroke-width:0.25;"/>
<line x1="15.000000" y1="15.000000" x2="15.000000" y2="137.000000"  style="stroke: black; stroke-linecap:round; stroke-width:0.25; stroke-dasharray:3,3;"/>
<line x1="15.000000" y1="137.000000" x2="355.300000" y2="137.000000"  style="stroke: black; stroke-linecap:round; stroke-width:0.25; stroke-dasharray:3,3;"/>
<line x1="355.300000" y1="137.000000" x2="355.300000" y2="15.000000"  style="stroke: black; stroke-linecap:round; stroke-width:0.25; stroke-dasharray:3,3;"/>
<line x1="15.000000" y1="15.000000" x2="20.000000" y2="15.000000"  style="stroke: black; stroke-linecap:round; stroke-width:0.25; stroke-dasharray:3,3;"/>
<line x1="136.100000" y1="15.000000" x2="355.300000" y2="15.000000"  style="stroke: black; stroke-linecap:round; stroke-width:0.25; stroke-dasharray:3,3;"/>
<text x="20.000000" y="17.000000" font-family="Arial" font-size="7">rampe2(hslide....0f, 0.001f))(x11)</text>
<line x1="357.300000" y1="75.000000" x2="360.300000" y2="76.000000"  transform="rotate(0.000000,360.300000,76.000000)" style="stroke: black; stroke-width:0.25;"/>
<line x1="357.300000" y1="77.000000" x2="360.300000" y2="76.000000"  transform="rotate(0.000000,360.300000,76.000000)" style="stroke: black; stroke-width:0.25;"/>
<line x1="49.800000" y1="76.000000" x2="53.800000" y2="76.000000"  style="stroke:black; stroke-linecap:round; stroke-width:0.25;"/>
<line x1="53.800000" y1="76.000000" x2="61.800000" y2="76.000000"  style="stroke:black; stroke-linecap:round; stroke-width:0.25;"/>
<line x1="61.800000" y1="76.000000" x2="61.800000" y2="84.000000"  style="stroke:black; stroke-linecap:round; stroke-width:0.25;"/>
<line x1="61.800000" y1="84.000000" x2="61.800000" y2="84.000000"  style="stroke:black; stroke-linecap:round; stroke-width:0.25;"/>
<line x1="61.800000" y1="84.000000" x2="69.800000" y2="84.000000"  style="stroke:black; stroke-linecap:round; stroke-width:0.25;"/>
<line x1="69.800000" y1="76.000000" x2="73.800000" y2="76.000000"  style="stroke:black; stroke-linecap:round; stroke-width:0.25;"/>
<line x1="69.800000" y1="84.000000" x2="73.800000" y2="84.000000"  style="stroke:black; stroke-linecap:round; stroke-width:0.25;"/>
<line x1="69.800000" y1="24.000000" x2="69.800000" y2="24.000000"  style="stroke:black; stroke-linecap:round; stroke-width:0.25;"/>
<line x1="69.800000" y1="24.000000" x2="69.800000" y2="76.000000"  style="stroke:black; stroke-linecap:round; stroke-width:0.25;"/>
<line x1="69.800000" y1="76.000000" x2="69.800000" y2="76.000000"  style="stroke:black; stroke-linecap:round; stroke-width:0.25;"/>
<line x1="97.800000" y1="80.000000" x2="101.800000" y2="80.000000"  style="stroke:black; stroke-linecap:round; stroke-width:0.25;"/>
<line x1="101.800000" y1="64.000000" x2="109.800000" y2="64.000000"  style="stroke:black; stroke-linecap:round; stroke-width:0.25;"/>
<line x1="101.800000" y1="80.000000" x2="101.800000" y2="64.000000"  style="stroke:black; stroke-linecap:round; stroke-width:0.25;"/>
<line x1="101.800000" y1="80.000000" x2="101.800000" y2="80.000000"  style="stroke:black; stroke-linecap:round; stroke-width:0.25;"/>
<line x1="109.800000" y1="64.000000" x2="146.700000" y2="64.000000"  style="stroke:black; stroke-linecap:round; stroke-width:0.25;"/>
<line x1="138.700000" y1="116.000000" x2="142.700000" y2="116.000000"  style="stroke:black; stroke-linecap:round; stroke-width:0.25;"/>
<line x1="139.600000" y1="84.000000" x2="143.600000" y2="84.000000"  style="stroke:black; stroke-linecap:round; stroke-width:0.25;"/>
<line x1="142.700000" y1="116.000000" x2="143.600000" y2="116.000000"  style="stroke:black; stroke-linecap:round; stroke-width:0.25;"/>
<line x1="143.600000" y1="84.000000" x2="151.600000" y2="84.000000"  style="stroke:black; stroke-linecap:round; stroke-width:0.25;"/>
<line x1="143.600000" y1="104.000000" x2="151.600000" y2="104.000000"  style="stroke:black; stroke-linecap:round; stroke-width:0.25;"/>
<line x1="143.600000" y1="116.000000" x2="143.600000" y2="104.000000"  style="stroke:black; stroke-linecap:round; stroke-width:0.25;"/>
<line x1="143.600000" y1="116.000000" x2="143.600000" y2="116.000000"  style="stroke:black; stroke-linecap:round; stroke-width:0.25;"/>
<line x1="146.700000" y1="64.000000" x2="183.600000" y2="64.000000"  style="stroke:black; stroke-linecap:round; stroke-width:0.25;"/>
<line x1="151.600000" y1="84.000000" x2="151.600000" y2="96.000000"  style="stroke:black; stroke-linecap:round; stroke-width:0.25;"/>
<line x1="151.600000" y1="96.000000" x2="151.600000" y2="96.000000"  style="stroke:black; stroke-linecap:round; stroke-width:0.25;"/>
<line x1="151.600000" y1="96.000000" x2="155.600000" y2="96.000000"  style="stroke:black; stroke-linecap:round; stroke-width:0.25;"/>
<line x1="151.600000" y1="104.000000" x2="155.600000" y2="104.000000"  style="stroke:black; stroke-linecap:round; stroke-width:0.25;"/>
<line x1="158.700000" y1="44.000000" x2="162.700000" y2="44.000000"  style="stroke:black; stroke-linecap:round; stroke-width:0.25;"/>
<line x1="162.700000" y1="44.000000" x2="183.600000" y2="44.000000"  style="stroke:black; stroke-linecap:round; stroke-width:0.25;"/>
<line x1="179.600000" y1="100.000000" x2="183.600000" y2="100.000000"  style="stroke:black; stroke-linecap:round; stroke-width:0.25;"/>
<line x1="183.600000" y1="44.000000" x2="199.600000" y2="44.000000"  style="stroke:black; stroke-linecap:round; stroke-width:0.25;"/>
<line x1="183.600000" y1="64.000000" x2="191.600000" y2="64.000000"  style="stroke:black; stroke-linecap:round; stroke-width:0.25;"/>
<line x1="183.600000" y1="88.000000" x2="199.600000" y2="88.000000"  style="stroke:black; stroke-linecap:round; stroke-width:0.25;"/>
<line x1="183.600000" y1="100.000000" x2="183.600000" y2="88.000000"  style="stroke:black; stroke-linecap:round; stroke-width:0.25;"/>
<line x1="183.600000" y1="100.000000" x2="183.600000" y2="100.000000"  style="stroke:black; stroke-linecap:round; stroke-width:0.25;"/>
<line x1="191.600000" y1="64.000000" x2="191.600000" y2="80.000000"  style="stroke:black; stroke-linecap:round; stroke-width:0.25;"/>
<line x1="191.600000" y1="80.000000" x2="199.600000" y2="80.000000"  style="stroke:black; stroke-linecap:round; stroke-width:0.25;"/>
<line x1="198.050000" y1="24.000000" x2="69.800000" y2="24.000000"  style="stroke:black; stroke-linecap:round; stroke-width:0.25;"/>
<line x1="199.600000" y1="44.000000" x2="199.600000" y2="72.000000"  style="stroke:black; stroke-linecap:round; stroke-width:0.25;"/>
<line x1="199.600000" y1="72.000000" x2="199.600000" y2="72.000000"  style="stroke:black; stroke-linecap:round; stroke-width:0.25;"/>
<line x1="199.600000" y1="72.000000" x2="203.600000" y2="72.000000"  style="stroke:black; stroke-linecap:round; stroke-width:0.25;"/>
<line x1="199.600000" y1="80.000000" x2="203.600000" y2="80.000000"  style="stroke:black; stroke-linecap:round; stroke-width:0.25;"/>
<line x1="199.600000" y1="88.000000" x2="203.600000" y2="88.000000"  style="stroke:black; stroke-linecap:round; stroke-width:0.25;"/>
<line x1="242.300000" y1="80.000000" x2="246.300000" y2="80.000000"  style="stroke:black; stroke-linecap:round; stroke-width:0.25;"/>
<line x1="246.300000" y1="80.000000" x2="254.300000" y2="80.000000"  style="stroke:black; stroke-linecap:round; stroke-width:0.25;"/>
<line x1="254.300000" y1="80.000000" x2="254.300000" y2="96.000000"  style="stroke:black; stroke-linecap:round; stroke-width:0.25;"/>
<line x1="254.300000" y1="96.000000" x2="254.300000" y2="96.000000"  style="stroke:black; stroke-linecap:round; stroke-width:0.25;"/>
<line x1="254.300000" y1="96.000000" x2="270.300000" y2="96.000000"  style="stroke:black; stroke-linecap:round; stroke-width:0.25;"/>
<line x1="270.300000" y1="96.000000" x2="286.300000" y2="96.000000"  style="stroke:black; stroke-linecap:round; stroke-width:0.25;"/>
<line x1="282.300000" y1="76.000000" x2="286.300000" y2="76.000000"  style="stroke:black; stroke-linecap:round; stroke-width:0.25;"/>
<line x1="286.300000" y1="76.000000" x2="294.300000" y2="76.000000"  style="stroke:black; stroke-linecap:round; stroke-width:0.25;"/>
<line x1="286.300000" y1="84.000000" x2="294.300000" y2="84.000000"  style="stroke:black; stroke-linecap:round; stroke-width:0.25;"/>
<line x1="286.300000" y1="96.000000" x2="286.300000" y2="84.000000"  style="stroke:black; stroke-linecap:round; stroke-width:0.25;"/>
<line x1="286.300000" y1="96.000000" x2="286.300000" y2="96.000000"  style="stroke:black; stroke-linecap:round; stroke-width:0.25;"/>
<line x1="294.300000" y1="76.000000" x2="298.300000" y2="76.000000"  style="stroke:black; stroke-linecap:round; stroke-width:0.25;"/>
<line x1="294.300000" y1="84.000000" x2="298.300000" y2="84.000000"  style="stroke:black; stroke-linecap:round; stroke-width:0.25;"/>
<line x1="322.300000" y1="80.000000" x2="326.300000" y2="80.000000"  style="stroke:black; stroke-linecap:round; stroke-width:0.25;"/>
<line x1="326.300000" y1="24.000000" x2="198.050000" y2="24.000000"  style="stroke:black; stroke-linecap:round; stroke-width:0.25;"/>
<line x1="326.300000" y1="24.000000" x2="326.300000" y2="24.000000"  style="stroke:black; stroke-linecap:round; stroke-width:0.25;"/>
<line x1="326.300000" y1="76.000000" x2="326.300000" y2="24.000000"  style="stroke:black; stroke-linecap:round; stroke-width:0.25;"/>
<line x1="326.300000" y1="80.000000" x2="328.300000" y2="80.000000"  style="stroke:black; stroke-linecap:round; stroke-width:0.25;"/>
<line x1="328.300000" y1="80.000000" x2="334.300000" y2="80.000000"  style="stroke:black; stroke-linecap:round; stroke-width:0.25;"/>
<line x1="334.300000" y1="76.000000" x2="342.300000" y2="76.000000"  style="stroke:black; stroke-linecap:round; stroke-width:0.25;"/>
<line x1="334.300000" y1="80.000000" x2="334.300000" y2="76.000000"  style="stroke:black; stroke-linecap:round; stroke-width:0.25;"/>
<line x1="334.300000" y1="80.000000" x2="334.300000" y2="80.000000"  style="stroke:black; stroke-linecap:round; stroke-width:0.25;"/>
<line x1="342.300000" y1="76.000000" x2="346.300000" y2="76.000000"  style="stroke:black; stroke-linecap:round; stroke-width:0.25;"/>
<line x1="346.300000" y1="76.000000" x2="350.300000" y2="76.000000"  style="stroke:black; stroke-linecap:round; stroke-width:0.25;"/>
<line x1="350.300000" y1="76.000000" x2="360.300000" y2="76.000000"  style="stroke:black; stroke-linecap:round; stroke-width:0.25;"/>
</svg>
