<?xml version="1.0"?>
<svg xmlns="http://www.w3.org/2000/svg" xmlns:xlink="http://www.w3.org/1999/xlink" viewBox="0 0 442.700000 228.000000" width="221.350000mm" height="114.000000mm" version="1.1">
<rect x="1.000000" y="1.000000" width="441.700000" height="227.000000" rx="0" ry="0" style="stroke:none;fill:#cccccc;"/>
<rect x="0.000000" y="0.000000" width="441.700000" height="227.000000" rx="0" ry="0" style="stroke:none;fill:#ffffff;"/>
<text x="10.000000" y="7.000000" font-family="Arial" font-size="7"></text>
<a xlink:href="voice-0x7ff0f033e950.svg">
<rect x="64.350000" y="35.000000" width="129.000000" height="24.000000" rx="0" ry="0" style="stroke:none;fill:#cccccc;"/>
<rect x="63.350000" y="34.000000" width="129.000000" height="24.000000" rx="0" ry="0" style="stroke:none;fill:#003366;"/>
</a>
<a xlink:href="voice-0x7ff0f033e950.svg">
<text x="127.850000" y="48.000000" font-family="Arial" font-size="7" text-anchor="middle" fill="#FFFFFF">voice(hslider...e+03f, 0.1f))</text>
</a>
<circle cx="65.350000" cy="36.000000" r="1"/>
<rect x="45.000000" y="77.000000" width="167.700000" height="24.000000" rx="0" ry="0" style="stroke:none;fill:#cccccc;"/>
<rect x="44.000000" y="76.000000" width="167.700000" height="24.000000" rx="0" ry="0" style="stroke:none;fill:#477881;"/>
<text x="127.850000" y="90.000000" font-family="Arial" font-size="7" text-anchor="middle" fill="#FFFFFF">hslider(gain, 0.5f, 0.0f, 1.0f, 0.01f)</text>
<circle cx="46.000000" cy="78.000000" r="1"/>
<line x1="35.000000" y1="67.000000" x2="35.000000" y2="109.000000"  style="stroke: black; stroke-linecap:round; stroke-width:0.25; stroke-dasharray:3,3;"/>
<line x1="35.000000" y1="109.000000" x2="220.700000" y2="109.000000"  style="stroke: black; stroke-linecap:round; stroke-width:0.25; stroke-dasharray:3,3;"/>
<line x1="220.700000" y1="109.000000" x2="220.700000" y2="67.000000"  style="stroke: black; stroke-linecap:round; stroke-width:0.25; stroke-dasharray:3,3;"/>
<line x1="35.000000" y1="67.000000" x2="40.000000" y2="67.000000"  style="stroke: black; stroke-linecap:round; stroke-width:0.25; stroke-dasharray:3,3;"/>
<line x1="59.350000" y1="67.000000" x2="220.700000" y2="67.000000"  style="stroke: black; stroke-linecap:round; stroke-width:0.25; stroke-dasharray:3,3;"/>
<text x="40.000000" y="69.000000" font-family="Arial" font-size="7">gain</text>
<rect x="238.700000" y="61.000000" width="24.000000" height="24.000000" rx="0" ry="0" style="stroke:none;fill:#cccccc;"/>
<rect x="237.700000" y="60.000000" width="24.000000" height="24.000000" rx="0" ry="0" style="stroke:none;fill:#4B71A1;"/>
<text x="249.700000" y="74.000000" font-family="Arial" font-size="7" text-anchor="middle" fill="#FFFFFF">*</text>
<circle cx="239.700000" cy="62.000000" r="1"/>
<line x1="234.700000" y1="67.000000" x2="237.700000" y2="68.000000"  transform="rotate(0.000000,237.700000,68.000000)" style="stroke: black; stroke-width:0.25;"/>
<line x1="234.700000" y1="69.000000" x2="237.700000" y2="68.000000"  transform="rotate(0.000000,237.700000,68.000000)" style="stroke: black; stroke-width:0.25;"/>
<line x1="234.700000" y1="75.000000" x2="237.700000" y2="76.000000"  transform="rotate(0.000000,237.700000,76.000000)" style="stroke: black; stroke-width:0.25;"/>
<line x1="234.700000" y1="77.000000" x2="237.700000" y2="76.000000"  transform="rotate(0.000000,237.700000,76.000000)" style="stroke: black; stroke-width:0.25;"/>
<a xlink:href="adsr-0x7ff0f00e24d0.svg">
<rect x="84.350000" y="119.000000" width="129.000000" height="24.000000" rx="0" ry="0" style="stroke:none;fill:#cccccc;"/>
<rect x="83.350000" y="118.000000" width="129.000000" height="24.000000" rx="0" ry="0" style="stroke:none;fill:#003366;"/>
</a>
<a xlink:href="adsr-0x7ff0f00e24d0.svg">
<text x="147.850000" y="132.000000" font-family="Arial" font-size="7" text-anchor="middle" fill="#FFFFFF">adsr(0.1f)(0....tton(&quot;gate&quot;))</text>
</a>
<circle cx="85.350000" cy="120.000000" r="1"/>
<rect x="278.700000" y="77.000000" width="24.000000" height="24.000000" rx="0" ry="0" style="stroke:none;fill:#cccccc;"/>
<rect x="277.700000" y="76.000000" width="24.000000" height="24.000000" rx="0" ry="0" style="stroke:none;fill:#4B71A1;"/>
<text x="289.700000" y="90.000000" font-family="Arial" font-size="7" text-anchor="middle" fill="#FFFFFF">*</text>
<circle cx="279.700000" cy="78.000000" r="1"/>
<line x1="274.700000" y1="83.000000" x2="277.700000" y2="84.000000"  transform="rotate(0.000000,277.700000,84.000000)" style="stroke: black; stroke-width:0.25;"/>
<line x1="274.700000" y1="85.000000" x2="277.700000" y2="84.000000"  transform="rotate(0.000000,277.700000,84.000000)" style="stroke: black; stroke-width:0.25;"/>
<line x1="274.700000" y1="91.000000" x2="277.700000" y2="92.000000"  transform="rotate(0.000000,277.700000,92.000000)" style="stroke: black; stroke-width:0.25;"/>
<line x1="274.700000" y1="93.000000" x2="277.700000" y2="92.000000"  transform="rotate(0.000000,277.700000,92.000000)" style="stroke: black; stroke-width:0.25;"/>
<line x1="25.000000" y1="25.000000" x2="25.000000" y2="151.000000"  style="stroke: black; stroke-linecap:round; stroke-width:0.25; stroke-dasharray:3,3;"/>
<line x1="25.000000" y1="151.000000" x2="310.700000" y2="151.000000"  style="stroke: black; stroke-linecap:round; stroke-width:0.25; stroke-dasharray:3,3;"/>
<line x1="310.700000" y1="151.000000" x2="310.700000" y2="25.000000"  style="stroke: black; stroke-linecap:round; stroke-width:0.25; stroke-dasharray:3,3;"/>
<line x1="25.000000" y1="25.000000" x2="30.000000" y2="25.000000"  style="stroke: black; stroke-linecap:round; stroke-width:0.25; stroke-dasharray:3,3;"/>
<line x1="78.375000" y1="25.000000" x2="310.700000" y2="25.000000"  style="stroke: black; stroke-linecap:round; stroke-width:0.25; stroke-dasharray:3,3;"/>
<text x="30.000000" y="27.000000" font-family="Arial" font-size="7">vgroup(Organ)</text>
<rect x="78.550000" y="171.000000" width="180.600000" height="24.000000" rx="0" ry="0" style="stroke:none;fill:#cccccc;"/>
<rect x="77.550000" y="170.000000" width="180.600000" height="24.000000" rx="0" ry="0" style="stroke:none;fill:#477881;"/>
<text x="167.850000" y="184.000000" font-family="Arial" font-size="7" text-anchor="middle" fill="#FFFFFF">hslider(master, 0.5f, 0.0f, 1.0f, 0.01f)</text>
<circle cx="79.550000" cy="172.000000" r="1"/>
<line x1="68.550000" y1="161.000000" x2="68.550000" y2="203.000000"  style="stroke: black; stroke-linecap:round; stroke-width:0.25; stroke-dasharray:3,3;"/>
<line x1="68.550000" y1="203.000000" x2="267.150000" y2="203.000000"  style="stroke: black; stroke-linecap:round; stroke-width:0.25; stroke-dasharray:3,3;"/>
<line x1="267.150000" y1="203.000000" x2="267.150000" y2="161.000000"  style="stroke: black; stroke-linecap:round; stroke-width:0.25; stroke-dasharray:3,3;"/>
<line x1="68.550000" y1="161.000000" x2="73.550000" y2="161.000000"  style="stroke: black; stroke-linecap:round; stroke-width:0.25; stroke-dasharray:3,3;"/>
<line x1="99.350000" y1="161.000000" x2="267.150000" y2="161.000000"  style="stroke: black; stroke-linecap:round; stroke-width:0.25; stroke-dasharray:3,3;"/>
<text x="73.550000" y="163.000000" font-family="Arial" font-size="7">master</text>
<rect x="328.700000" y="103.000000" width="24.000000" height="24.000000" rx="0" ry="0" style="stroke:none;fill:#cccccc;"/>
<rect x="327.700000" y="102.000000" width="24.000000" height="24.000000" rx="0" ry="0" style="stroke:none;fill:#4B71A1;"/>
<text x="339.700000" y="116.000000" font-family="Arial" font-size="7" text-anchor="middle" fill="#FFFFFF">*</text>
<circle cx="329.700000" cy="104.000000" r="1"/>
<line x1="324.700000" y1="109.000000" x2="327.700000" y2="110.000000"  transform="rotate(0.000000,327.700000,110.000000)" style="stroke: black; stroke-width:0.25;"/>
<line x1="324.700000" y1="111.000000" x2="327.700000" y2="110.000000"  transform="rotate(0.000000,327.700000,110.000000)" style="stroke: black; stroke-width:0.25;"/>
<line x1="324.700000" y1="117.000000" x2="327.700000" y2="118.000000"  transform="rotate(0.000000,327.700000,118.000000)" style="stroke: black; stroke-width:0.25;"/>
<line x1="324.700000" y1="119.000000" x2="327.700000" y2="118.000000"  transform="rotate(0.000000,327.700000,118.000000)" style="stroke: black; stroke-width:0.25;"/>
<line x1="15.000000" y1="15.000000" x2="15.000000" y2="213.000000"  style="stroke: black; stroke-linecap:round; stroke-width:0.25; stroke-dasharray:3,3;"/>
<line x1="15.000000" y1="213.000000" x2="427.700000" y2="213.000000"  style="stroke: black; stroke-linecap:round; stroke-width:0.25; stroke-dasharray:3,3;"/>
<line x1="427.700000" y1="213.000000" x2="427.700000" y2="15.000000"  style="stroke: black; stroke-linecap:round; stroke-width:0.25; stroke-dasharray:3,3;"/>
<line x1="15.000000" y1="15.000000" x2="20.000000" y2="15.000000"  style="stroke: black; stroke-linecap:round; stroke-width:0.25; stroke-dasharray:3,3;"/>
<line x1="49.025000" y1="15.000000" x2="427.700000" y2="15.000000"  style="stroke: black; stroke-linecap:round; stroke-width:0.25; stroke-dasharray:3,3;"/>
<text x="20.000000" y="17.000000" font-family="Arial" font-size="7">process</text>
<line x1="429.700000" y1="109.000000" x2="432.700000" y2="110.000000"  transform="rotate(0.000000,432.700000,110.000000)" style="stroke: black; stroke-width:0.25;"/>
<line x1="429.700000" y1="111.000000" x2="432.700000" y2="110.000000"  transform="rotate(0.000000,432.700000,110.000000)" style="stroke: black; stroke-width:0.25;"/>
<line x1="429.700000" y1="117.000000" x2="432.700000" y2="118.000000"  transform="rotate(0.000000,432.700000,118.000000)" style="stroke: black; stroke-width:0.25;"/>
<line x1="429.700000" y1="119.000000" x2="432.700000" y2="118.000000"  transform="rotate(0.000000,432.700000,118.000000)" style="stroke: black; stroke-width:0.25;"/>
<line x1="192.350000" y1="46.000000" x2="196.350000" y2="46.000000"  style="stroke:black; stroke-linecap:round; stroke-width:0.25;"/>
<line x1="196.350000" y1="46.000000" x2="225.700000" y2="46.000000"  style="stroke:black; stroke-linecap:round; stroke-width:0.25;"/>
<line x1="211.700000" y1="88.000000" x2="215.700000" y2="88.000000"  style="stroke:black; stroke-linecap:round; stroke-width:0.25;"/>
<line x1="212.350000" y1="130.000000" x2="216.350000" y2="130.000000"  style="stroke:black; stroke-linecap:round; stroke-width:0.25;"/>
<line x1="215.700000" y1="88.000000" x2="225.700000" y2="88.000000"  style="stroke:black; stroke-linecap:round; stroke-width:0.25;"/>
<line x1="216.350000" y1="130.000000" x2="265.700000" y2="130.000000"  style="stroke:black; stroke-linecap:round; stroke-width:0.25;"/>
<line x1="225.700000" y1="46.000000" x2="233.700000" y2="46.000000"  style="stroke:black; stroke-linecap:round; stroke-width:0.25;"/>
<line x1="225.700000" y1="76.000000" x2="233.700000" y2="76.000000"  style="stroke:black; stroke-linecap:round; stroke-width:0.25;"/>
<line x1="225.700000" y1="88.000000" x2="225.700000" y2="76.000000"  style="stroke:black; stroke-linecap:round; stroke-width:0.25;"/>
<line x1="225.700000" y1="88.000000" x2="225.700000" y2="88.000000"  style="stroke:black; stroke-linecap:round; stroke-width:0.25;"/>
<line x1="233.700000" y1="46.000000" x2="233.700000" y2="68.000000"  style="stroke:black; stroke-linecap:round; stroke-width:0.25;"/>
<line x1="233.700000" y1="68.000000" x2="233.700000" y2="68.000000"  style="stroke:black; stroke-linecap:round; stroke-width:0.25;"/>
<line x1="233.700000" y1="68.000000" x2="237.700000" y2="68.000000"  style="stroke:black; stroke-linecap:round; stroke-width:0.25;"/>
<line x1="233.700000" y1="76.000000" x2="237.700000" y2="76.000000"  style="stroke:black; stroke-linecap:round; stroke-width:0.25;"/>
<line x1="258.150000" y1="182.000000" x2="262.150000" y2="182.000000"  style="stroke:black; stroke-linecap:round; stroke-width:0.25;"/>
<line x1="261.700000" y1="72.000000" x2="265.700000" y2="72.000000"  style="stroke:black; stroke-linecap:round; stroke-width:0.25;"/>
<line x1="262.150000" y1="182.000000" x2="272.150000" y2="182.000000"  style="stroke:black; stroke-linecap:round; stroke-width:0.25;"/>
<line x1="265.700000" y1="72.000000" x2="273.700000" y2="72.000000"  style="stroke:black; stroke-linecap:round; stroke-width:0.25;"/>
<line x1="265.700000" y1="92.000000" x2="273.700000" y2="92.000000"  style="stroke:black; stroke-linecap:round; stroke-width:0.25;"/>
<line x1="265.700000" y1="130.000000" x2="265.700000" y2="92.000000"  style="stroke:black; stroke-linecap:round; stroke-width:0.25;"/>
<line x1="265.700000" y1="130.000000" x2="265.700000" y2="130.000000"  style="stroke:black; stroke-linecap:round; stroke-width:0.25;"/>
<line x1="272.150000" y1="182.000000" x2="315.700000" y2="182.000000"  style="stroke:black; stroke-linecap:round; stroke-width:0.25;"/>
<line x1="273.700000" y1="72.000000" x2="273.700000" y2="84.000000"  style="stroke:black; stroke-linecap:round; stroke-width:0.25;"/>
<line x1="273.700000" y1="84.000000" x2="273.700000" y2="84.000000"  style="stroke:black; stroke-linecap:round; stroke-width:0.25;"/>
<line x1="273.700000" y1="84.000000" x2="277.700000" y2="84.000000"  style="stroke:black; stroke-linecap:round; stroke-width:0.25;"/>
<line x1="273.700000" y1="92.000000" x2="277.700000" y2="92.000000"  style="stroke:black; stroke-linecap:round; stroke-width:0.25;"/>
<line x1="301.700000" y1="88.000000" x2="305.700000" y2="88.000000"  style="stroke:black; stroke-linecap:round; stroke-width:0.25;"/>
<line x1="305.700000" y1="88.000000" x2="315.700000" y2="88.000000"  style="stroke:black; stroke-linecap:round; stroke-width:0.25;"/>
<line x1="315.700000" y1="88.000000" x2="323.700000" y2="88.000000"  style="stroke:black; stroke-linecap:round; stroke-width:0.25;"/>
<line x1="315.700000" y1="118.000000" x2="323.700000" y2="118.000000"  style="stroke:black; stroke-linecap:round; stroke-width:0.25;"/>
<line x1="315.700000" y1="182.000000" x2="315.700000" y2="118.000000"  style="stroke:black; stroke-linecap:round; stroke-width:0.25;"/>
<line x1="315.700000" y1="182.000000" x2="315.700000" y2="182.000000"  style="stroke:black; stroke-linecap:round; stroke-width:0.25;"/>
<line x1="323.700000" y1="88.000000" x2="323.700000" y2="110.000000"  style="stroke:black; stroke-linecap:round; stroke-width:0.25;"/>
<line x1="323.700000" y1="110.000000" x2="323.700000" y2="110.000000"  style="stroke:black; stroke-linecap:round; stroke-width:0.25;"/>
<line x1="323.700000" y1="110.000000" x2="327.700000" y2="110.000000"  style="stroke:black; stroke-linecap:round; stroke-width:0.25;"/>
<line x1="323.700000" y1="118.000000" x2="327.700000" y2="118.000000"  style="stroke:black; stroke-linecap:round; stroke-width:0.25;"/>
<line x1="351.700000" y1="114.000000" x2="355.700000" y2="114.000000"  style="stroke:black; stroke-linecap:round; stroke-width:0.25;"/>
<line x1="355.700000" y1="114.000000" x2="406.700000" y2="110.000000"  style="stroke:black; stroke-linecap:round; stroke-width:0.25;"/>
<line x1="355.700000" y1="114.000000" x2="406.700000" y2="118.000000"  style="stroke:black; stroke-linecap:round; stroke-width:0.25;"/>
<line x1="406.700000" y1="110.000000" x2="410.700000" y2="110.000000"  style="stroke:black; stroke-linecap:round; stroke-width:0.25;"/>
<line x1="406.700000" y1="118.000000" x2="410.700000" y2="118.000000"  style="stroke:black; stroke-linecap:round; stroke-width:0.25;"/>
<line x1="410.700000" y1="110.000000" x2="414.700000" y2="110.000000"  style="stroke:black; stroke-linecap:round; stroke-width:0.25;"/>
<line x1="410.700000" y1="118.000000" x2="414.700000" y2="118.000000"  style="stroke:black; stroke-linecap:round; stroke-width:0.25;"/>
<line x1="414.700000" y1="110.000000" x2="414.700000" y2="110.000000"  style="stroke:black; stroke-linecap:round; stroke-width:0.25;"/>
<line x1="414.700000" y1="110.000000" x2="418.700000" y2="110.000000"  style="stroke:black; stroke-linecap:round; stroke-width:0.25;"/>
<line x1="414.700000" y1="118.000000" x2="414.700000" y2="118.000000"  style="stroke:black; stroke-linecap:round; stroke-width:0.25;"/>
<line x1="414.700000" y1="118.000000" x2="418.700000" y2="118.000000"  style="stroke:black; stroke-linecap:round; stroke-width:0.25;"/>
<line x1="418.700000" y1="110.000000" x2="422.700000" y2="110.000000"  style="stroke:black; stroke-linecap:round; stroke-width:0.25;"/>
<line x1="418.700000" y1="118.000000" x2="422.700000" y2="118.000000"  style="stroke:black; stroke-linecap:round; stroke-width:0.25;"/>
<line x1="422.700000" y1="110.000000" x2="432.700000" y2="110.000000"  style="stroke:black; stroke-linecap:round; stroke-width:0.25;"/>
<line x1="422.700000" y1="118.000000" x2="432.700000" y2="118.000000"  style="stroke:black; stroke-linecap:round; stroke-width:0.25;"/>
</svg>
