<?xml version="1.0"?>
<svg xmlns="http://www.w3.org/2000/svg" xmlns:xlink="http://www.w3.org/1999/xlink" viewBox="0 0 461.100000 144.000000" width="230.550000mm" height="72.000000mm" version="1.1">
<a xlink:href="polySmooth-0x7fd626671a50.svg">
<rect x="1.000000" y="1.000000" width="460.100000" height="143.000000" rx="0" ry="0" style="stroke:none;fill:#cccccc;"/>
<rect x="0.000000" y="0.000000" width="460.100000" height="143.000000" rx="0" ry="0" style="stroke:none;fill:#ffffff;"/>
</a>
<text x="10.000000" y="7.000000" font-family="Arial" font-size="7"></text>
<rect x="112.400000" y="35.000000" width="90.300000" height="24.000000" rx="0" ry="0" style="stroke:none;fill:#cccccc;"/>
<rect x="111.400000" y="34.000000" width="90.300000" height="24.000000" rx="0" ry="0" style="stroke:none;fill:#477881;"/>
<text x="156.550000" y="48.000000" font-family="Arial" font-size="7" text-anchor="middle" fill="#FFFFFF">button(v:flute/gate)</text>
<circle cx="113.400000" cy="36.000000" r="1"/>
<line x1="102.400000" y1="25.000000" x2="102.400000" y2="67.000000"  style="stroke: black; stroke-linecap:round; stroke-width:0.25; stroke-dasharray:3,3;"/>
<line x1="102.400000" y1="67.000000" x2="210.700000" y2="67.000000"  style="stroke: black; stroke-linecap:round; stroke-width:0.25; stroke-dasharray:3,3;"/>
<line x1="210.700000" y1="67.000000" x2="210.700000" y2="25.000000"  style="stroke: black; stroke-linecap:round; stroke-width:0.25; stroke-dasharray:3,3;"/>
<line x1="102.400000" y1="25.000000" x2="107.400000" y2="25.000000"  style="stroke: black; stroke-linecap:round; stroke-width:0.25; stroke-dasharray:3,3;"/>
<line x1="117.075000" y1="25.000000" x2="210.700000" y2="25.000000"  style="stroke: black; stroke-linecap:round; stroke-width:0.25; stroke-dasharray:3,3;"/>
<text x="107.400000" y="27.000000" font-family="Arial" font-size="7">t</text>
<rect x="35.000000" y="87.000000" width="245.100000" height="24.000000" rx="0" ry="0" style="stroke:none;fill:#cccccc;"/>
<rect x="34.000000" y="86.000000" width="245.100000" height="24.000000" rx="0" ry="0" style="stroke:none;fill:#477881;"/>
<text x="156.550000" y="100.000000" font-family="Arial" font-size="7" text-anchor="middle" fill="#FFFFFF">hslider(v:flute/h:midi/sustain, 0.0f, 0.0f, 1.0f, 1.0f)</text>
<circle cx="36.000000" cy="88.000000" r="1"/>
<line x1="25.000000" y1="77.000000" x2="25.000000" y2="119.000000"  style="stroke: black; stroke-linecap:round; stroke-width:0.25; stroke-dasharray:3,3;"/>
<line x1="25.000000" y1="119.000000" x2="288.100000" y2="119.000000"  style="stroke: black; stroke-linecap:round; stroke-width:0.25; stroke-dasharray:3,3;"/>
<line x1="288.100000" y1="119.000000" x2="288.100000" y2="77.000000"  style="stroke: black; stroke-linecap:round; stroke-width:0.25; stroke-dasharray:3,3;"/>
<line x1="25.000000" y1="77.000000" x2="30.000000" y2="77.000000"  style="stroke: black; stroke-linecap:round; stroke-width:0.25; stroke-dasharray:3,3;"/>
<line x1="39.675000" y1="77.000000" x2="288.100000" y2="77.000000"  style="stroke: black; stroke-linecap:round; stroke-width:0.25; stroke-dasharray:3,3;"/>
<text x="30.000000" y="79.000000" font-family="Arial" font-size="7">s</text>
<rect x="306.100000" y="61.000000" width="24.000000" height="24.000000" rx="0" ry="0" style="stroke:none;fill:#cccccc;"/>
<rect x="305.100000" y="60.000000" width="24.000000" height="24.000000" rx="0" ry="0" style="stroke:none;fill:#4B71A1;"/>
<text x="317.100000" y="74.000000" font-family="Arial" font-size="7" text-anchor="middle" fill="#FFFFFF">+</text>
<circle cx="307.100000" cy="62.000000" r="1"/>
<line x1="302.100000" y1="67.000000" x2="305.100000" y2="68.000000"  transform="rotate(0.000000,305.100000,68.000000)" style="stroke: black; stroke-width:0.25;"/>
<line x1="302.100000" y1="69.000000" x2="305.100000" y2="68.000000"  transform="rotate(0.000000,305.100000,68.000000)" style="stroke: black; stroke-width:0.25;"/>
<line x1="302.100000" y1="75.000000" x2="305.100000" y2="76.000000"  transform="rotate(0.000000,305.100000,76.000000)" style="stroke: black; stroke-width:0.25;"/>
<line x1="302.100000" y1="77.000000" x2="305.100000" y2="76.000000"  transform="rotate(0.000000,305.100000,76.000000)" style="stroke: black; stroke-width:0.25;"/>
<rect x="356.100000" y="57.000000" width="24.000000" height="24.000000" rx="0" ry="0" style="stroke:none;fill:#cccccc;"/>
<rect x="355.100000" y="56.000000" width="24.000000" height="24.000000" rx="0" ry="0" style="stroke:none;fill:#f44800;"/>
<text x="367.100000" y="70.000000" font-family="Arial" font-size="7" text-anchor="middle" fill="#FFFFFF">1</text>
<circle cx="357.100000" cy="58.000000" r="1"/>
<line x1="346.100000" y1="47.000000" x2="346.100000" y2="89.000000"  style="stroke: black; stroke-linecap:round; stroke-width:0.25; stroke-dasharray:3,3;"/>
<line x1="346.100000" y1="89.000000" x2="388.100000" y2="89.000000"  style="stroke: black; stroke-linecap:round; stroke-width:0.25; stroke-dasharray:3,3;"/>
<line x1="388.100000" y1="89.000000" x2="388.100000" y2="47.000000"  style="stroke: black; stroke-linecap:round; stroke-width:0.25; stroke-dasharray:3,3;"/>
<line x1="346.100000" y1="47.000000" x2="351.100000" y2="47.000000"  style="stroke: black; stroke-linecap:round; stroke-width:0.25; stroke-dasharray:3,3;"/>
<line x1="360.775000" y1="47.000000" x2="388.100000" y2="47.000000"  style="stroke: black; stroke-linecap:round; stroke-width:0.25; stroke-dasharray:3,3;"/>
<text x="351.100000" y="49.000000" font-family="Arial" font-size="7">S</text>
<rect x="406.100000" y="61.000000" width="24.000000" height="24.000000" rx="0" ry="0" style="stroke:none;fill:#cccccc;"/>
<rect x="405.100000" y="60.000000" width="24.000000" height="24.000000" rx="0" ry="0" style="stroke:none;fill:#4B71A1;"/>
<text x="417.100000" y="74.000000" font-family="Arial" font-size="7" text-anchor="middle" fill="#FFFFFF">min</text>
<circle cx="407.100000" cy="62.000000" r="1"/>
<line x1="402.100000" y1="67.000000" x2="405.100000" y2="68.000000"  transform="rotate(0.000000,405.100000,68.000000)" style="stroke: black; stroke-width:0.25;"/>
<line x1="402.100000" y1="69.000000" x2="405.100000" y2="68.000000"  transform="rotate(0.000000,405.100000,68.000000)" style="stroke: black; stroke-width:0.25;"/>
<line x1="402.100000" y1="75.000000" x2="405.100000" y2="76.000000"  transform="rotate(0.000000,405.100000,76.000000)" style="stroke: black; stroke-width:0.25;"/>
<line x1="402.100000" y1="77.000000" x2="405.100000" y2="76.000000"  transform="rotate(0.000000,405.100000,76.000000)" style="stroke: black; stroke-width:0.25;"/>
<line x1="15.000000" y1="15.000000" x2="15.000000" y2="129.000000"  style="stroke: black; stroke-linecap:round; stroke-width:0.25; stroke-dasharray:3,3;"/>
<line x1="15.000000" y1="129.000000" x2="446.100000" y2="129.000000"  style="stroke: black; stroke-linecap:round; stroke-width:0.25; stroke-dasharray:3,3;"/>
<line x1="446.100000" y1="129.000000" x2="446.100000" y2="15.000000"  style="stroke: black; stroke-linecap:round; stroke-width:0.25; stroke-dasharray:3,3;"/>
<line x1="15.000000" y1="15.000000" x2="20.000000" y2="15.000000"  style="stroke: black; stroke-linecap:round; stroke-width:0.25; stroke-dasharray:3,3;"/>
<line x1="39.350000" y1="15.000000" x2="446.100000" y2="15.000000"  style="stroke: black; stroke-linecap:round; stroke-width:0.25; stroke-dasharray:3,3;"/>
<text x="20.000000" y="17.000000" font-family="Arial" font-size="7">gate</text>
<line x1="448.100000" y1="71.000000" x2="451.100000" y2="72.000000"  transform="rotate(0.000000,451.100000,72.000000)" style="stroke: black; stroke-width:0.25;"/>
<line x1="448.100000" y1="73.000000" x2="451.100000" y2="72.000000"  transform="rotate(0.000000,451.100000,72.000000)" style="stroke: black; stroke-width:0.25;"/>
<line x1="201.700000" y1="46.000000" x2="205.700000" y2="46.000000"  style="stroke:black; stroke-linecap:round; stroke-width:0.25;"/>
<line x1="205.700000" y1="46.000000" x2="215.700000" y2="46.000000"  style="stroke:black; stroke-linecap:round; stroke-width:0.25;"/>
<line x1="215.700000" y1="46.000000" x2="293.100000" y2="46.000000"  style="stroke:black; stroke-linecap:round; stroke-width:0.25;"/>
<line x1="279.100000" y1="98.000000" x2="283.100000" y2="98.000000"  style="stroke:black; stroke-linecap:round; stroke-width:0.25;"/>
<line x1="283.100000" y1="98.000000" x2="293.100000" y2="98.000000"  style="stroke:black; stroke-linecap:round; stroke-width:0.25;"/>
<line x1="293.100000" y1="46.000000" x2="301.100000" y2="46.000000"  style="stroke:black; stroke-linecap:round; stroke-width:0.25;"/>
<line x1="293.100000" y1="76.000000" x2="301.100000" y2="76.000000"  style="stroke:black; stroke-linecap:round; stroke-width:0.25;"/>
<line x1="293.100000" y1="98.000000" x2="293.100000" y2="76.000000"  style="stroke:black; stroke-linecap:round; stroke-width:0.25;"/>
<line x1="293.100000" y1="98.000000" x2="293.100000" y2="98.000000"  style="stroke:black; stroke-linecap:round; stroke-width:0.25;"/>
<line x1="301.100000" y1="46.000000" x2="301.100000" y2="68.000000"  style="stroke:black; stroke-linecap:round; stroke-width:0.25;"/>
<line x1="301.100000" y1="68.000000" x2="301.100000" y2="68.000000"  style="stroke:black; stroke-linecap:round; stroke-width:0.25;"/>
<line x1="301.100000" y1="68.000000" x2="305.100000" y2="68.000000"  style="stroke:black; stroke-linecap:round; stroke-width:0.25;"/>
<line x1="301.100000" y1="76.000000" x2="305.100000" y2="76.000000"  style="stroke:black; stroke-linecap:round; stroke-width:0.25;"/>
<line x1="329.100000" y1="72.000000" x2="333.100000" y2="72.000000"  style="stroke:black; stroke-linecap:round; stroke-width:0.25;"/>
<line x1="333.100000" y1="72.000000" x2="341.100000" y2="72.000000"  style="stroke:black; stroke-linecap:round; stroke-width:0.25;"/>
<line x1="341.100000" y1="72.000000" x2="341.100000" y2="98.000000"  style="stroke:black; stroke-linecap:round; stroke-width:0.25;"/>
<line x1="341.100000" y1="98.000000" x2="341.100000" y2="98.000000"  style="stroke:black; stroke-linecap:round; stroke-width:0.25;"/>
<line x1="341.100000" y1="98.000000" x2="367.100000" y2="98.000000"  style="stroke:black; stroke-linecap:round; stroke-width:0.25;"/>
<line x1="367.100000" y1="98.000000" x2="393.100000" y2="98.000000"  style="stroke:black; stroke-linecap:round; stroke-width:0.25;"/>
<line x1="379.100000" y1="68.000000" x2="383.100000" y2="68.000000"  style="stroke:black; stroke-linecap:round; stroke-width:0.25;"/>
<line x1="383.100000" y1="68.000000" x2="393.100000" y2="68.000000"  style="stroke:black; stroke-linecap:round; stroke-width:0.25;"/>
<line x1="393.100000" y1="68.000000" x2="401.100000" y2="68.000000"  style="stroke:black; stroke-linecap:round; stroke-width:0.25;"/>
<line x1="393.100000" y1="76.000000" x2="401.100000" y2="76.000000"  style="stroke:black; stroke-linecap:round; stroke-width:0.25;"/>
<line x1="393.100000" y1="98.000000" x2="393.100000" y2="76.000000"  style="stroke:black; stroke-linecap:round; stroke-width:0.25;"/>
<line x1="393.100000" y1="98.000000" x2="393.100000" y2="98.000000"  style="stroke:black; stroke-linecap:round; stroke-width:0.25;"/>
<line x1="401.100000" y1="68.000000" x2="405.100000" y2="68.000000"  style="stroke:black; stroke-linecap:round; stroke-width:0.25;"/>
<line x1="401.100000" y1="76.000000" x2="405.100000" y2="76.000000"  style="stroke:black; stroke-linecap:round; stroke-width:0.25;"/>
<line x1="429.100000" y1="72.000000" x2="433.100000" y2="72.000000"  style="stroke:black; stroke-linecap:round; stroke-width:0.25;"/>
<line x1="433.100000" y1="72.000000" x2="433.100000" y2="72.000000"  style="stroke:black; stroke-linecap:round; stroke-width:0.25;"/>
<line x1="433.100000" y1="72.000000" x2="437.100000" y2="72.000000"  style="stroke:black; stroke-linecap:round; stroke-width:0.25;"/>
<line x1="437.100000" y1="72.000000" x2="441.100000" y2="72.000000"  style="stroke:black; stroke-linecap:round; stroke-width:0.25;"/>
<line x1="441.100000" y1="72.000000" x2="451.100000" y2="72.000000"  style="stroke:black; stroke-linecap:round; stroke-width:0.25;"/>
</svg>
