<?xml version="1.0"?>
<svg xmlns="http://www.w3.org/2000/svg" xmlns:xlink="http://www.w3.org/1999/xlink" viewBox="0 0 425.200000 72.000000" width="212.600000mm" height="36.000000mm" version="1.1">
<a xlink:href="btbd-0x7fc368eea440.svg">
<rect x="1.000000" y="1.000000" width="424.200000" height="71.000000" rx="0" ry="0" style="stroke:none;fill:#cccccc;"/>
<rect x="0.000000" y="0.000000" width="424.200000" height="71.000000" rx="0" ry="0" style="stroke:none;fill:#ffffff;"/>
</a>
<text x="10.000000" y="7.000000" font-family="Arial" font-size="7"></text>
<rect x="25.000000" y="25.000000" width="335.400000" height="24.000000" rx="0" ry="0" style="stroke:none;fill:#cccccc;"/>
<rect x="24.000000" y="24.000000" width="335.400000" height="24.000000" rx="0" ry="0" style="stroke:none;fill:#477881;"/>
<text x="191.700000" y="38.000000" font-family="Arial" font-size="7" text-anchor="middle" fill="#FFFFFF">hslider(v:nylonGuitar/pluckPosition, 0.80000000000000004f, 0.0f, 1.0f, 0.01f)</text>
<circle cx="26.000000" cy="26.000000" r="1"/>
<a xlink:href="smoo-0x7fc364ffa140.svg">
<rect x="368.400000" y="25.000000" width="25.800000" height="24.000000" rx="0" ry="0" style="stroke:none;fill:#cccccc;"/>
<rect x="367.400000" y="24.000000" width="25.800000" height="24.000000" rx="0" ry="0" style="stroke:none;fill:#003366;"/>
</a>
<a xlink:href="smoo-0x7fc364ffa140.svg">
<text x="380.300000" y="38.000000" font-family="Arial" font-size="7" text-anchor="middle" fill="#FFFFFF">smoo</text>
</a>
<circle cx="369.400000" cy="26.000000" r="1"/>
<line x1="364.400000" y1="35.000000" x2="367.400000" y2="36.000000"  transform="rotate(0.000000,367.400000,36.000000)" style="stroke: black; stroke-width:0.25;"/>
<line x1="364.400000" y1="37.000000" x2="367.400000" y2="36.000000"  transform="rotate(0.000000,367.400000,36.000000)" style="stroke: black; stroke-width:0.25;"/>
<line x1="15.000000" y1="15.000000" x2="15.000000" y2="57.000000"  style="stroke: black; stroke-linecap:round; stroke-width:0.25; stroke-dasharray:3,3;"/>
<line x1="15.000000" y1="57.000000" x2="410.200000" y2="57.000000"  style="stroke: black; stroke-linecap:round; stroke-width:0.25; stroke-dasharray:3,3;"/>
<line x1="410.200000" y1="57.000000" x2="410.200000" y2="15.000000"  style="stroke: black; stroke-linecap:round; stroke-width:0.25; stroke-dasharray:3,3;"/>
<line x1="15.000000" y1="15.000000" x2="20.000000" y2="15.000000"  style="stroke: black; stroke-linecap:round; stroke-width:0.25; stroke-dasharray:3,3;"/>
<line x1="68.375000" y1="15.000000" x2="410.200000" y2="15.000000"  style="stroke: black; stroke-linecap:round; stroke-width:0.25; stroke-dasharray:3,3;"/>
<text x="20.000000" y="17.000000" font-family="Arial" font-size="7">pluckPosition</text>
<line x1="412.200000" y1="35.000000" x2="415.200000" y2="36.000000"  transform="rotate(0.000000,415.200000,36.000000)" style="stroke: black; stroke-width:0.25;"/>
<line x1="412.200000" y1="37.000000" x2="415.200000" y2="36.000000"  transform="rotate(0.000000,415.200000,36.000000)" style="stroke: black; stroke-width:0.25;"/>
<line x1="359.400000" y1="36.000000" x2="363.400000" y2="36.000000"  style="stroke:black; stroke-linecap:round; stroke-width:0.25;"/>
<line x1="363.400000" y1="36.000000" x2="363.400000" y2="36.000000"  style="stroke:black; stroke-linecap:round; stroke-width:0.25;"/>
<line x1="363.400000" y1="36.000000" x2="367.400000" y2="36.000000"  style="stroke:black; stroke-linecap:round; stroke-width:0.25;"/>
<line x1="393.200000" y1="36.000000" x2="397.200000" y2="36.000000"  style="stroke:black; stroke-linecap:round; stroke-width:0.25;"/>
<line x1="397.200000" y1="36.000000" x2="397.200000" y2="36.000000"  style="stroke:black; stroke-linecap:round; stroke-width:0.25;"/>
<line x1="397.200000" y1="36.000000" x2="401.200000" y2="36.000000"  style="stroke:black; stroke-linecap:round; stroke-width:0.25;"/>
<line x1="401.200000" y1="36.000000" x2="405.200000" y2="36.000000"  style="stroke:black; stroke-linecap:round; stroke-width:0.25;"/>
<line x1="405.200000" y1="36.000000" x2="415.200000" y2="36.000000"  style="stroke:black; stroke-linecap:round; stroke-width:0.25;"/>
</svg>
