<?xml version="1.0"?>
<svg xmlns="http://www.w3.org/2000/svg" xmlns:xlink="http://www.w3.org/1999/xlink" viewBox="0 0 336.200000 124.000000" width="168.100000mm" height="62.000000mm" version="1.1">
<a xlink:href="del-0x7f8431d38ac0.svg">
<rect x="1.000000" y="1.000000" width="335.200000" height="123.000000" rx="0" ry="0" style="stroke:none;fill:#cccccc;"/>
<rect x="0.000000" y="0.000000" width="335.200000" height="123.000000" rx="0" ry="0" style="stroke:none;fill:#ffffff;"/>
</a>
<text x="10.000000" y="7.000000" font-family="Arial" font-size="7"></text>
<rect x="95.950000" y="35.000000" width="25.800000" height="24.000000" rx="0" ry="0" style="stroke:none;fill:#cccccc;"/>
<rect x="94.950000" y="34.000000" width="25.800000" height="24.000000" rx="0" ry="0" style="stroke:none;fill:#f44800;"/>
<text x="107.850000" y="48.000000" font-family="Arial" font-size="7" text-anchor="middle" fill="#FFFFFF">8192</text>
<circle cx="96.950000" cy="36.000000" r="1"/>
<line x1="85.950000" y1="25.000000" x2="85.950000" y2="67.000000"  style="stroke: black; stroke-linecap:round; stroke-width:0.25; stroke-dasharray:3,3;"/>
<line x1="85.950000" y1="67.000000" x2="129.750000" y2="67.000000"  style="stroke: black; stroke-linecap:round; stroke-width:0.25; stroke-dasharray:3,3;"/>
<line x1="129.750000" y1="67.000000" x2="129.750000" y2="25.000000"  style="stroke: black; stroke-linecap:round; stroke-width:0.25; stroke-dasharray:3,3;"/>
<line x1="85.950000" y1="25.000000" x2="90.950000" y2="25.000000"  style="stroke: black; stroke-linecap:round; stroke-width:0.25; stroke-dasharray:3,3;"/>
<line x1="110.300000" y1="25.000000" x2="129.750000" y2="25.000000"  style="stroke: black; stroke-linecap:round; stroke-width:0.25; stroke-dasharray:3,3;"/>
<text x="90.950000" y="27.000000" font-family="Arial" font-size="7">dmax</text>
<rect x="25.000000" y="77.000000" width="167.700000" height="24.000000" rx="0" ry="0" style="stroke:none;fill:#cccccc;"/>
<rect x="24.000000" y="76.000000" width="167.700000" height="24.000000" rx="0" ry="0" style="stroke:none;fill:#477881;"/>
<text x="107.850000" y="90.000000" font-family="Arial" font-size="7" text-anchor="middle" fill="#FFFFFF">vslider(Delay, 0.5f, 0.0f, 1.0f, 1.0f)</text>
<circle cx="26.000000" cy="78.000000" r="1"/>
<rect x="208.700000" y="51.000000" width="24.000000" height="24.000000" rx="0" ry="0" style="stroke:none;fill:#cccccc;"/>
<rect x="207.700000" y="50.000000" width="24.000000" height="24.000000" rx="0" ry="0" style="stroke:none;fill:#4B71A1;"/>
<text x="219.700000" y="64.000000" font-family="Arial" font-size="7" text-anchor="middle" fill="#FFFFFF">*</text>
<circle cx="209.700000" cy="52.000000" r="1"/>
<line x1="204.700000" y1="57.000000" x2="207.700000" y2="58.000000"  transform="rotate(0.000000,207.700000,58.000000)" style="stroke: black; stroke-width:0.25;"/>
<line x1="204.700000" y1="59.000000" x2="207.700000" y2="58.000000"  transform="rotate(0.000000,207.700000,58.000000)" style="stroke: black; stroke-width:0.25;"/>
<line x1="204.700000" y1="65.000000" x2="207.700000" y2="66.000000"  transform="rotate(0.000000,207.700000,66.000000)" style="stroke: black; stroke-width:0.25;"/>
<line x1="204.700000" y1="67.000000" x2="207.700000" y2="66.000000"  transform="rotate(0.000000,207.700000,66.000000)" style="stroke: black; stroke-width:0.25;"/>
<a xlink:href="smooth-0x7f8431028f40.svg">
<rect x="240.700000" y="51.000000" width="64.500000" height="24.000000" rx="0" ry="0" style="stroke:none;fill:#cccccc;"/>
<rect x="239.700000" y="50.000000" width="64.500000" height="24.000000" rx="0" ry="0" style="stroke:none;fill:#003366;"/>
</a>
<a xlink:href="smooth-0x7f8431028f40.svg">
<text x="271.950000" y="64.000000" font-family="Arial" font-size="7" text-anchor="middle" fill="#FFFFFF">smooth(0.999f)</text>
</a>
<circle cx="241.700000" cy="52.000000" r="1"/>
<line x1="236.700000" y1="61.000000" x2="239.700000" y2="62.000000"  transform="rotate(0.000000,239.700000,62.000000)" style="stroke: black; stroke-width:0.25;"/>
<line x1="236.700000" y1="63.000000" x2="239.700000" y2="62.000000"  transform="rotate(0.000000,239.700000,62.000000)" style="stroke: black; stroke-width:0.25;"/>
<line x1="15.000000" y1="15.000000" x2="15.000000" y2="109.000000"  style="stroke: black; stroke-linecap:round; stroke-width:0.25; stroke-dasharray:3,3;"/>
<line x1="15.000000" y1="109.000000" x2="321.200000" y2="109.000000"  style="stroke: black; stroke-linecap:round; stroke-width:0.25; stroke-dasharray:3,3;"/>
<line x1="321.200000" y1="109.000000" x2="321.200000" y2="15.000000"  style="stroke: black; stroke-linecap:round; stroke-width:0.25; stroke-dasharray:3,3;"/>
<line x1="15.000000" y1="15.000000" x2="20.000000" y2="15.000000"  style="stroke: black; stroke-linecap:round; stroke-width:0.25; stroke-dasharray:3,3;"/>
<line x1="45.800000" y1="15.000000" x2="321.200000" y2="15.000000"  style="stroke: black; stroke-linecap:round; stroke-width:0.25; stroke-dasharray:3,3;"/>
<text x="20.000000" y="17.000000" font-family="Arial" font-size="7">curdel</text>
<line x1="323.200000" y1="61.000000" x2="326.200000" y2="62.000000"  transform="rotate(0.000000,326.200000,62.000000)" style="stroke: black; stroke-width:0.25;"/>
<line x1="323.200000" y1="63.000000" x2="326.200000" y2="62.000000"  transform="rotate(0.000000,326.200000,62.000000)" style="stroke: black; stroke-width:0.25;"/>
<line x1="120.750000" y1="46.000000" x2="124.750000" y2="46.000000"  style="stroke:black; stroke-linecap:round; stroke-width:0.25;"/>
<line x1="124.750000" y1="46.000000" x2="134.750000" y2="46.000000"  style="stroke:black; stroke-linecap:round; stroke-width:0.25;"/>
<line x1="134.750000" y1="46.000000" x2="195.700000" y2="46.000000"  style="stroke:black; stroke-linecap:round; stroke-width:0.25;"/>
<line x1="191.700000" y1="88.000000" x2="195.700000" y2="88.000000"  style="stroke:black; stroke-linecap:round; stroke-width:0.25;"/>
<line x1="195.700000" y1="46.000000" x2="203.700000" y2="46.000000"  style="stroke:black; stroke-linecap:round; stroke-width:0.25;"/>
<line x1="195.700000" y1="66.000000" x2="203.700000" y2="66.000000"  style="stroke:black; stroke-linecap:round; stroke-width:0.25;"/>
<line x1="195.700000" y1="88.000000" x2="195.700000" y2="66.000000"  style="stroke:black; stroke-linecap:round; stroke-width:0.25;"/>
<line x1="195.700000" y1="88.000000" x2="195.700000" y2="88.000000"  style="stroke:black; stroke-linecap:round; stroke-width:0.25;"/>
<line x1="203.700000" y1="46.000000" x2="203.700000" y2="58.000000"  style="stroke:black; stroke-linecap:round; stroke-width:0.25;"/>
<line x1="203.700000" y1="58.000000" x2="203.700000" y2="58.000000"  style="stroke:black; stroke-linecap:round; stroke-width:0.25;"/>
<line x1="203.700000" y1="58.000000" x2="207.700000" y2="58.000000"  style="stroke:black; stroke-linecap:round; stroke-width:0.25;"/>
<line x1="203.700000" y1="66.000000" x2="207.700000" y2="66.000000"  style="stroke:black; stroke-linecap:round; stroke-width:0.25;"/>
<line x1="231.700000" y1="62.000000" x2="235.700000" y2="62.000000"  style="stroke:black; stroke-linecap:round; stroke-width:0.25;"/>
<line x1="235.700000" y1="62.000000" x2="235.700000" y2="62.000000"  style="stroke:black; stroke-linecap:round; stroke-width:0.25;"/>
<line x1="235.700000" y1="62.000000" x2="239.700000" y2="62.000000"  style="stroke:black; stroke-linecap:round; stroke-width:0.25;"/>
<line x1="304.200000" y1="62.000000" x2="308.200000" y2="62.000000"  style="stroke:black; stroke-linecap:round; stroke-width:0.25;"/>
<line x1="308.200000" y1="62.000000" x2="308.200000" y2="62.000000"  style="stroke:black; stroke-linecap:round; stroke-width:0.25;"/>
<line x1="308.200000" y1="62.000000" x2="312.200000" y2="62.000000"  style="stroke:black; stroke-linecap:round; stroke-width:0.25;"/>
<line x1="312.200000" y1="62.000000" x2="316.200000" y2="62.000000"  style="stroke:black; stroke-linecap:round; stroke-width:0.25;"/>
<line x1="316.200000" y1="62.000000" x2="326.200000" y2="62.000000"  style="stroke:black; stroke-linecap:round; stroke-width:0.25;"/>
</svg>
