<?xml version="1.0"?>
<svg xmlns="http://www.w3.org/2000/svg" xmlns:xlink="http://www.w3.org/1999/xlink" viewBox="0 0 293.800000 240.000000" width="146.900000mm" height="120.000000mm" version="1.1">
<a xlink:href="fdelay-0x7f8431d21070.svg">
<rect x="1.000000" y="1.000000" width="292.800000" height="239.000000" rx="0" ry="0" style="stroke:none;fill:#cccccc;"/>
<rect x="0.000000" y="0.000000" width="292.800000" height="239.000000" rx="0" ry="0" style="stroke:none;fill:#ffffff;"/>
</a>
<text x="10.000000" y="7.000000" font-family="Arial" font-size="7"></text>
<rect x="111.900000" y="25.000000" width="24.000000" height="24.000000" rx="0" ry="0" style="stroke:none;fill:#cccccc;"/>
<rect x="110.900000" y="24.000000" width="24.000000" height="24.000000" rx="0" ry="0" style="stroke:none;fill:#47945E;"/>
<text x="122.900000" y="38.000000" font-family="Arial" font-size="7" text-anchor="middle" fill="#FFFFFF">x</text>
<circle cx="112.900000" cy="26.000000" r="1"/>
<rect x="91.000000" y="57.000000" width="25.800000" height="24.000000" rx="0" ry="0" style="stroke:none;fill:#cccccc;"/>
<rect x="90.000000" y="56.000000" width="25.800000" height="24.000000" rx="0" ry="0" style="stroke:none;fill:#f44800;"/>
<text x="102.900000" y="70.000000" font-family="Arial" font-size="7" text-anchor="middle" fill="#FFFFFF">8193</text>
<circle cx="92.000000" cy="58.000000" r="1"/>
<rect x="71.900000" y="99.000000" width="24.000000" height="24.000000" rx="0" ry="0" style="stroke:none;fill:#cccccc;"/>
<rect x="70.900000" y="98.000000" width="24.000000" height="24.000000" rx="0" ry="0" style="stroke:none;fill:#f44800;"/>
<text x="82.900000" y="112.000000" font-family="Arial" font-size="7" text-anchor="middle" fill="#FFFFFF">0</text>
<circle cx="72.900000" cy="100.000000" r="1"/>
<line x1="61.900000" y1="89.000000" x2="61.900000" y2="131.000000"  style="stroke: black; stroke-linecap:round; stroke-width:0.25; stroke-dasharray:3,3;"/>
<line x1="61.900000" y1="131.000000" x2="103.900000" y2="131.000000"  style="stroke: black; stroke-linecap:round; stroke-width:0.25; stroke-dasharray:3,3;"/>
<line x1="103.900000" y1="131.000000" x2="103.900000" y2="89.000000"  style="stroke: black; stroke-linecap:round; stroke-width:0.25; stroke-dasharray:3,3;"/>
<line x1="61.900000" y1="89.000000" x2="66.900000" y2="89.000000"  style="stroke: black; stroke-linecap:round; stroke-width:0.25; stroke-dasharray:3,3;"/>
<line x1="92.700000" y1="89.000000" x2="103.900000" y2="89.000000"  style="stroke: black; stroke-linecap:round; stroke-width:0.25; stroke-dasharray:3,3;"/>
<text x="66.900000" y="91.000000" font-family="Arial" font-size="7">parity</text>
<rect x="35.000000" y="151.000000" width="25.800000" height="24.000000" rx="0" ry="0" style="stroke:none;fill:#cccccc;"/>
<rect x="34.000000" y="150.000000" width="25.800000" height="24.000000" rx="0" ry="0" style="stroke:none;fill:#f44800;"/>
<text x="46.900000" y="164.000000" font-family="Arial" font-size="7" text-anchor="middle" fill="#FFFFFF">8192</text>
<circle cx="36.000000" cy="152.000000" r="1"/>
<line x1="25.000000" y1="141.000000" x2="25.000000" y2="183.000000"  style="stroke: black; stroke-linecap:round; stroke-width:0.25; stroke-dasharray:3,3;"/>
<line x1="25.000000" y1="183.000000" x2="68.800000" y2="183.000000"  style="stroke: black; stroke-linecap:round; stroke-width:0.25; stroke-dasharray:3,3;"/>
<line x1="68.800000" y1="183.000000" x2="68.800000" y2="141.000000"  style="stroke: black; stroke-linecap:round; stroke-width:0.25; stroke-dasharray:3,3;"/>
<line x1="25.000000" y1="141.000000" x2="30.000000" y2="141.000000"  style="stroke: black; stroke-linecap:round; stroke-width:0.25; stroke-dasharray:3,3;"/>
<line x1="49.350000" y1="141.000000" x2="68.800000" y2="141.000000"  style="stroke: black; stroke-linecap:round; stroke-width:0.25; stroke-dasharray:3,3;"/>
<text x="30.000000" y="143.000000" font-family="Arial" font-size="7">dmax</text>
<a xlink:href="del-0x7f8431d06ed0.svg">
<rect x="35.000000" y="193.000000" width="25.800000" height="24.000000" rx="0" ry="0" style="stroke:none;fill:#cccccc;"/>
<rect x="34.000000" y="192.000000" width="25.800000" height="24.000000" rx="0" ry="0" style="stroke:none;fill:#003366;"/>
</a>
<a xlink:href="del-0x7f8431d06ed0.svg">
<text x="46.900000" y="206.000000" font-family="Arial" font-size="7" text-anchor="middle" fill="#FFFFFF">del(6)</text>
</a>
<circle cx="36.000000" cy="194.000000" r="1"/>
<rect x="86.800000" y="167.000000" width="24.000000" height="24.000000" rx="0" ry="0" style="stroke:none;fill:#cccccc;"/>
<rect x="85.800000" y="166.000000" width="24.000000" height="24.000000" rx="0" ry="0" style="stroke:none;fill:#4B71A1;"/>
<text x="97.800000" y="180.000000" font-family="Arial" font-size="7" text-anchor="middle" fill="#FFFFFF">min</text>
<circle cx="87.800000" cy="168.000000" r="1"/>
<line x1="82.800000" y1="173.000000" x2="85.800000" y2="174.000000"  transform="rotate(0.000000,85.800000,174.000000)" style="stroke: black; stroke-width:0.25;"/>
<line x1="82.800000" y1="175.000000" x2="85.800000" y2="174.000000"  transform="rotate(0.000000,85.800000,174.000000)" style="stroke: black; stroke-width:0.25;"/>
<line x1="82.800000" y1="181.000000" x2="85.800000" y2="182.000000"  transform="rotate(0.000000,85.800000,182.000000)" style="stroke: black; stroke-width:0.25;"/>
<line x1="82.800000" y1="183.000000" x2="85.800000" y2="182.000000"  transform="rotate(0.000000,85.800000,182.000000)" style="stroke: black; stroke-width:0.25;"/>
<rect x="118.800000" y="167.000000" width="24.000000" height="24.000000" rx="0" ry="0" style="stroke:none;fill:#cccccc;"/>
<rect x="117.800000" y="166.000000" width="24.000000" height="24.000000" rx="0" ry="0" style="stroke:none;fill:#4B71A1;"/>
<text x="129.800000" y="180.000000" font-family="Arial" font-size="7" text-anchor="middle" fill="#FFFFFF">int</text>
<circle cx="119.800000" cy="168.000000" r="1"/>
<line x1="114.800000" y1="177.000000" x2="117.800000" y2="178.000000"  transform="rotate(0.000000,117.800000,178.000000)" style="stroke: black; stroke-width:0.25;"/>
<line x1="114.800000" y1="179.000000" x2="117.800000" y2="178.000000"  transform="rotate(0.000000,117.800000,178.000000)" style="stroke: black; stroke-width:0.25;"/>
<rect x="158.800000" y="141.000000" width="24.000000" height="24.000000" rx="0" ry="0" style="stroke:none;fill:#cccccc;"/>
<rect x="157.800000" y="140.000000" width="24.000000" height="24.000000" rx="0" ry="0" style="stroke:none;fill:#4B71A1;"/>
<text x="169.800000" y="154.000000" font-family="Arial" font-size="7" text-anchor="middle" fill="#FFFFFF">max</text>
<circle cx="159.800000" cy="142.000000" r="1"/>
<line x1="154.800000" y1="147.000000" x2="157.800000" y2="148.000000"  transform="rotate(0.000000,157.800000,148.000000)" style="stroke: black; stroke-width:0.25;"/>
<line x1="154.800000" y1="149.000000" x2="157.800000" y2="148.000000"  transform="rotate(0.000000,157.800000,148.000000)" style="stroke: black; stroke-width:0.25;"/>
<line x1="154.800000" y1="155.000000" x2="157.800000" y2="156.000000"  transform="rotate(0.000000,157.800000,156.000000)" style="stroke: black; stroke-width:0.25;"/>
<line x1="154.800000" y1="157.000000" x2="157.800000" y2="156.000000"  transform="rotate(0.000000,157.800000,156.000000)" style="stroke: black; stroke-width:0.25;"/>
<rect x="198.800000" y="125.000000" width="24.000000" height="24.000000" rx="0" ry="0" style="stroke:none;fill:#cccccc;"/>
<rect x="197.800000" y="124.000000" width="24.000000" height="24.000000" rx="0" ry="0" style="stroke:none;fill:#4B71A1;"/>
<text x="209.800000" y="138.000000" font-family="Arial" font-size="7" text-anchor="middle" fill="#FFFFFF">min</text>
<circle cx="199.800000" cy="126.000000" r="1"/>
<line x1="194.800000" y1="131.000000" x2="197.800000" y2="132.000000"  transform="rotate(0.000000,197.800000,132.000000)" style="stroke: black; stroke-width:0.25;"/>
<line x1="194.800000" y1="133.000000" x2="197.800000" y2="132.000000"  transform="rotate(0.000000,197.800000,132.000000)" style="stroke: black; stroke-width:0.25;"/>
<line x1="194.800000" y1="139.000000" x2="197.800000" y2="140.000000"  transform="rotate(0.000000,197.800000,140.000000)" style="stroke: black; stroke-width:0.25;"/>
<line x1="194.800000" y1="141.000000" x2="197.800000" y2="140.000000"  transform="rotate(0.000000,197.800000,140.000000)" style="stroke: black; stroke-width:0.25;"/>
<rect x="238.800000" y="109.000000" width="24.000000" height="24.000000" rx="0" ry="0" style="stroke:none;fill:#cccccc;"/>
<rect x="237.800000" y="108.000000" width="24.000000" height="24.000000" rx="0" ry="0" style="stroke:none;fill:#4B71A1;"/>
<text x="249.800000" y="122.000000" font-family="Arial" font-size="7" text-anchor="middle" fill="#FFFFFF">@</text>
<circle cx="239.800000" cy="110.000000" r="1"/>
<line x1="234.800000" y1="115.000000" x2="237.800000" y2="116.000000"  transform="rotate(0.000000,237.800000,116.000000)" style="stroke: black; stroke-width:0.25;"/>
<line x1="234.800000" y1="117.000000" x2="237.800000" y2="116.000000"  transform="rotate(0.000000,237.800000,116.000000)" style="stroke: black; stroke-width:0.25;"/>
<line x1="234.800000" y1="123.000000" x2="237.800000" y2="124.000000"  transform="rotate(0.000000,237.800000,124.000000)" style="stroke: black; stroke-width:0.25;"/>
<line x1="234.800000" y1="125.000000" x2="237.800000" y2="124.000000"  transform="rotate(0.000000,237.800000,124.000000)" style="stroke: black; stroke-width:0.25;"/>
<line x1="15.000000" y1="15.000000" x2="15.000000" y2="225.000000"  style="stroke: black; stroke-linecap:round; stroke-width:0.25; stroke-dasharray:3,3;"/>
<line x1="15.000000" y1="225.000000" x2="278.800000" y2="225.000000"  style="stroke: black; stroke-linecap:round; stroke-width:0.25; stroke-dasharray:3,3;"/>
<line x1="278.800000" y1="225.000000" x2="278.800000" y2="15.000000"  style="stroke: black; stroke-linecap:round; stroke-width:0.25; stroke-dasharray:3,3;"/>
<line x1="15.000000" y1="15.000000" x2="20.000000" y2="15.000000"  style="stroke: black; stroke-linecap:round; stroke-width:0.25; stroke-dasharray:3,3;"/>
<line x1="136.100000" y1="15.000000" x2="278.800000" y2="15.000000"  style="stroke: black; stroke-linecap:round; stroke-width:0.25; stroke-dasharray:3,3;"/>
<text x="20.000000" y="17.000000" font-family="Arial" font-size="7">delay(8193)(8... : min : int)(x38)</text>
<line x1="280.800000" y1="119.000000" x2="283.800000" y2="120.000000"  transform="rotate(0.000000,283.800000,120.000000)" style="stroke: black; stroke-width:0.25;"/>
<line x1="280.800000" y1="121.000000" x2="283.800000" y2="120.000000"  transform="rotate(0.000000,283.800000,120.000000)" style="stroke: black; stroke-width:0.25;"/>
<line x1="59.800000" y1="162.000000" x2="63.800000" y2="162.000000"  style="stroke:black; stroke-linecap:round; stroke-width:0.25;"/>
<line x1="59.800000" y1="204.000000" x2="63.800000" y2="204.000000"  style="stroke:black; stroke-linecap:round; stroke-width:0.25;"/>
<line x1="63.800000" y1="162.000000" x2="73.800000" y2="162.000000"  style="stroke:black; stroke-linecap:round; stroke-width:0.25;"/>
<line x1="63.800000" y1="204.000000" x2="73.800000" y2="204.000000"  style="stroke:black; stroke-linecap:round; stroke-width:0.25;"/>
<line x1="73.800000" y1="162.000000" x2="81.800000" y2="162.000000"  style="stroke:black; stroke-linecap:round; stroke-width:0.25;"/>
<line x1="73.800000" y1="182.000000" x2="81.800000" y2="182.000000"  style="stroke:black; stroke-linecap:round; stroke-width:0.25;"/>
<line x1="73.800000" y1="204.000000" x2="73.800000" y2="182.000000"  style="stroke:black; stroke-linecap:round; stroke-width:0.25;"/>
<line x1="73.800000" y1="204.000000" x2="73.800000" y2="204.000000"  style="stroke:black; stroke-linecap:round; stroke-width:0.25;"/>
<line x1="81.800000" y1="162.000000" x2="81.800000" y2="174.000000"  style="stroke:black; stroke-linecap:round; stroke-width:0.25;"/>
<line x1="81.800000" y1="174.000000" x2="81.800000" y2="174.000000"  style="stroke:black; stroke-linecap:round; stroke-width:0.25;"/>
<line x1="81.800000" y1="174.000000" x2="85.800000" y2="174.000000"  style="stroke:black; stroke-linecap:round; stroke-width:0.25;"/>
<line x1="81.800000" y1="182.000000" x2="85.800000" y2="182.000000"  style="stroke:black; stroke-linecap:round; stroke-width:0.25;"/>
<line x1="94.900000" y1="110.000000" x2="98.900000" y2="110.000000"  style="stroke:black; stroke-linecap:round; stroke-width:0.25;"/>
<line x1="98.900000" y1="110.000000" x2="108.900000" y2="110.000000"  style="stroke:black; stroke-linecap:round; stroke-width:0.25;"/>
<line x1="108.900000" y1="110.000000" x2="145.800000" y2="110.000000"  style="stroke:black; stroke-linecap:round; stroke-width:0.25;"/>
<line x1="109.800000" y1="178.000000" x2="113.800000" y2="178.000000"  style="stroke:black; stroke-linecap:round; stroke-width:0.25;"/>
<line x1="113.800000" y1="178.000000" x2="113.800000" y2="178.000000"  style="stroke:black; stroke-linecap:round; stroke-width:0.25;"/>
<line x1="113.800000" y1="178.000000" x2="117.800000" y2="178.000000"  style="stroke:black; stroke-linecap:round; stroke-width:0.25;"/>
<line x1="115.800000" y1="68.000000" x2="119.800000" y2="68.000000"  style="stroke:black; stroke-linecap:round; stroke-width:0.25;"/>
<line x1="119.800000" y1="68.000000" x2="185.800000" y2="68.000000"  style="stroke:black; stroke-linecap:round; stroke-width:0.25;"/>
<line x1="134.900000" y1="36.000000" x2="138.900000" y2="36.000000"  style="stroke:black; stroke-linecap:round; stroke-width:0.25;"/>
<line x1="138.900000" y1="36.000000" x2="225.800000" y2="36.000000"  style="stroke:black; stroke-linecap:round; stroke-width:0.25;"/>
<line x1="141.800000" y1="178.000000" x2="145.800000" y2="178.000000"  style="stroke:black; stroke-linecap:round; stroke-width:0.25;"/>
<line x1="145.800000" y1="110.000000" x2="153.800000" y2="110.000000"  style="stroke:black; stroke-linecap:round; stroke-width:0.25;"/>
<line x1="145.800000" y1="156.000000" x2="153.800000" y2="156.000000"  style="stroke:black; stroke-linecap:round; stroke-width:0.25;"/>
<line x1="145.800000" y1="178.000000" x2="145.800000" y2="156.000000"  style="stroke:black; stroke-linecap:round; stroke-width:0.25;"/>
<line x1="145.800000" y1="178.000000" x2="145.800000" y2="178.000000"  style="stroke:black; stroke-linecap:round; stroke-width:0.25;"/>
<line x1="153.800000" y1="110.000000" x2="153.800000" y2="148.000000"  style="stroke:black; stroke-linecap:round; stroke-width:0.25;"/>
<line x1="153.800000" y1="148.000000" x2="153.800000" y2="148.000000"  style="stroke:black; stroke-linecap:round; stroke-width:0.25;"/>
<line x1="153.800000" y1="148.000000" x2="157.800000" y2="148.000000"  style="stroke:black; stroke-linecap:round; stroke-width:0.25;"/>
<line x1="153.800000" y1="156.000000" x2="157.800000" y2="156.000000"  style="stroke:black; stroke-linecap:round; stroke-width:0.25;"/>
<line x1="181.800000" y1="152.000000" x2="185.800000" y2="152.000000"  style="stroke:black; stroke-linecap:round; stroke-width:0.25;"/>
<line x1="185.800000" y1="68.000000" x2="193.800000" y2="68.000000"  style="stroke:black; stroke-linecap:round; stroke-width:0.25;"/>
<line x1="185.800000" y1="140.000000" x2="193.800000" y2="140.000000"  style="stroke:black; stroke-linecap:round; stroke-width:0.25;"/>
<line x1="185.800000" y1="152.000000" x2="185.800000" y2="140.000000"  style="stroke:black; stroke-linecap:round; stroke-width:0.25;"/>
<line x1="185.800000" y1="152.000000" x2="185.800000" y2="152.000000"  style="stroke:black; stroke-linecap:round; stroke-width:0.25;"/>
<line x1="193.800000" y1="68.000000" x2="193.800000" y2="132.000000"  style="stroke:black; stroke-linecap:round; stroke-width:0.25;"/>
<line x1="193.800000" y1="132.000000" x2="193.800000" y2="132.000000"  style="stroke:black; stroke-linecap:round; stroke-width:0.25;"/>
<line x1="193.800000" y1="132.000000" x2="197.800000" y2="132.000000"  style="stroke:black; stroke-linecap:round; stroke-width:0.25;"/>
<line x1="193.800000" y1="140.000000" x2="197.800000" y2="140.000000"  style="stroke:black; stroke-linecap:round; stroke-width:0.25;"/>
<line x1="221.800000" y1="136.000000" x2="225.800000" y2="136.000000"  style="stroke:black; stroke-linecap:round; stroke-width:0.25;"/>
<line x1="225.800000" y1="36.000000" x2="233.800000" y2="36.000000"  style="stroke:black; stroke-linecap:round; stroke-width:0.25;"/>
<line x1="225.800000" y1="124.000000" x2="233.800000" y2="124.000000"  style="stroke:black; stroke-linecap:round; stroke-width:0.25;"/>
<line x1="225.800000" y1="136.000000" x2="225.800000" y2="124.000000"  style="stroke:black; stroke-linecap:round; stroke-width:0.25;"/>
<line x1="225.800000" y1="136.000000" x2="225.800000" y2="136.000000"  style="stroke:black; stroke-linecap:round; stroke-width:0.25;"/>
<line x1="233.800000" y1="36.000000" x2="233.800000" y2="116.000000"  style="stroke:black; stroke-linecap:round; stroke-width:0.25;"/>
<line x1="233.800000" y1="116.000000" x2="233.800000" y2="116.000000"  style="stroke:black; stroke-linecap:round; stroke-width:0.25;"/>
<line x1="233.800000" y1="116.000000" x2="237.800000" y2="116.000000"  style="stroke:black; stroke-linecap:round; stroke-width:0.25;"/>
<line x1="233.800000" y1="124.000000" x2="237.800000" y2="124.000000"  style="stroke:black; stroke-linecap:round; stroke-width:0.25;"/>
<line x1="261.800000" y1="120.000000" x2="265.800000" y2="120.000000"  style="stroke:black; stroke-linecap:round; stroke-width:0.25;"/>
<line x1="265.800000" y1="120.000000" x2="265.800000" y2="120.000000"  style="stroke:black; stroke-linecap:round; stroke-width:0.25;"/>
<line x1="265.800000" y1="120.000000" x2="269.800000" y2="120.000000"  style="stroke:black; stroke-linecap:round; stroke-width:0.25;"/>
<line x1="269.800000" y1="120.000000" x2="273.800000" y2="120.000000"  style="stroke:black; stroke-linecap:round; stroke-width:0.25;"/>
<line x1="273.800000" y1="120.000000" x2="283.800000" y2="120.000000"  style="stroke:black; stroke-linecap:round; stroke-width:0.25;"/>
</svg>
