<?xml version="1.0"?>
<svg xmlns="http://www.w3.org/2000/svg" xmlns:xlink="http://www.w3.org/1999/xlink" viewBox="0 0 229.000000 208.000000" width="114.500000mm" height="104.000000mm" version="1.1">
<a xlink:href="phaser2-0x7f8431d5e3e0.svg">
<rect x="1.000000" y="1.000000" width="228.000000" height="207.000000" rx="0" ry="0" style="stroke:none;fill:#cccccc;"/>
<rect x="0.000000" y="0.000000" width="228.000000" height="207.000000" rx="0" ry="0" style="stroke:none;fill:#ffffff;"/>
</a>
<text x="10.000000" y="7.000000" font-family="Arial" font-size="7"></text>
<rect x="35.000000" y="35.000000" width="90.300000" height="24.000000" rx="0" ry="0" style="stroke:none;fill:#cccccc;"/>
<rect x="34.000000" y="34.000000" width="90.300000" height="24.000000" rx="0" ry="0" style="stroke:none;fill:#477881;"/>
<text x="79.150000" y="48.000000" font-family="Arial" font-size="7" text-anchor="middle" fill="#FFFFFF">checkbox(InvertSum)</text>
<circle cx="36.000000" cy="36.000000" r="1"/>
<line x1="25.000000" y1="25.000000" x2="25.000000" y2="67.000000"  style="stroke: black; stroke-linecap:round; stroke-width:0.25; stroke-dasharray:3,3;"/>
<line x1="25.000000" y1="67.000000" x2="133.300000" y2="67.000000"  style="stroke: black; stroke-linecap:round; stroke-width:0.25; stroke-dasharray:3,3;"/>
<line x1="133.300000" y1="67.000000" x2="133.300000" y2="25.000000"  style="stroke: black; stroke-linecap:round; stroke-width:0.25; stroke-dasharray:3,3;"/>
<line x1="25.000000" y1="25.000000" x2="30.000000" y2="25.000000"  style="stroke: black; stroke-linecap:round; stroke-width:0.25; stroke-dasharray:3,3;"/>
<line x1="55.800000" y1="25.000000" x2="133.300000" y2="25.000000"  style="stroke: black; stroke-linecap:round; stroke-width:0.25; stroke-dasharray:3,3;"/>
<text x="30.000000" y="27.000000" font-family="Arial" font-size="7">invert</text>
<a xlink:href="g2-0x7f843144a5e0.svg">
<rect x="68.150000" y="77.000000" width="24.000000" height="24.000000" rx="0" ry="0" style="stroke:none;fill:#cccccc;"/>
<rect x="67.150000" y="76.000000" width="24.000000" height="24.000000" rx="0" ry="0" style="stroke:none;fill:#003366;"/>
</a>
<a xlink:href="g2-0x7f843144a5e0.svg">
<text x="79.150000" y="90.000000" font-family="Arial" font-size="7" text-anchor="middle" fill="#FFFFFF">g2</text>
</a>
<circle cx="69.150000" cy="78.000000" r="1"/>
<rect x="48.150000" y="119.000000" width="24.000000" height="24.000000" rx="0" ry="0" style="stroke:none;fill:#cccccc;"/>
<rect x="47.150000" y="118.000000" width="24.000000" height="24.000000" rx="0" ry="0" style="stroke:none;fill:#f44800;"/>
<text x="59.150000" y="132.000000" font-family="Arial" font-size="7" text-anchor="middle" fill="#FFFFFF">0</text>
<circle cx="49.150000" cy="120.000000" r="1"/>
<line x1="38.150000" y1="109.000000" x2="38.150000" y2="151.000000"  style="stroke: black; stroke-linecap:round; stroke-width:0.25; stroke-dasharray:3,3;"/>
<line x1="38.150000" y1="151.000000" x2="80.150000" y2="151.000000"  style="stroke: black; stroke-linecap:round; stroke-width:0.25; stroke-dasharray:3,3;"/>
<line x1="80.150000" y1="151.000000" x2="80.150000" y2="109.000000"  style="stroke: black; stroke-linecap:round; stroke-width:0.25; stroke-dasharray:3,3;"/>
<line x1="38.150000" y1="109.000000" x2="43.150000" y2="109.000000"  style="stroke: black; stroke-linecap:round; stroke-width:0.25; stroke-dasharray:3,3;"/>
<line x1="68.950000" y1="109.000000" x2="80.150000" y2="109.000000"  style="stroke: black; stroke-linecap:round; stroke-width:0.25; stroke-dasharray:3,3;"/>
<text x="43.150000" y="111.000000" font-family="Arial" font-size="7">parity</text>
<a xlink:href="g2-0x7f843144a5e0.svg">
<rect x="48.150000" y="161.000000" width="24.000000" height="24.000000" rx="0" ry="0" style="stroke:none;fill:#cccccc;"/>
<rect x="47.150000" y="160.000000" width="24.000000" height="24.000000" rx="0" ry="0" style="stroke:none;fill:#003366;"/>
</a>
<a xlink:href="g2-0x7f843144a5e0.svg">
<text x="59.150000" y="174.000000" font-family="Arial" font-size="7" text-anchor="middle" fill="#FFFFFF">g2</text>
</a>
<circle cx="49.150000" cy="162.000000" r="1"/>
<rect x="98.150000" y="135.000000" width="24.000000" height="24.000000" rx="0" ry="0" style="stroke:none;fill:#cccccc;"/>
<rect x="97.150000" y="134.000000" width="24.000000" height="24.000000" rx="0" ry="0" style="stroke:none;fill:#4B71A1;"/>
<text x="109.150000" y="148.000000" font-family="Arial" font-size="7" text-anchor="middle" fill="#FFFFFF">-</text>
<circle cx="99.150000" cy="136.000000" r="1"/>
<line x1="94.150000" y1="141.000000" x2="97.150000" y2="142.000000"  transform="rotate(0.000000,97.150000,142.000000)" style="stroke: black; stroke-width:0.25;"/>
<line x1="94.150000" y1="143.000000" x2="97.150000" y2="142.000000"  transform="rotate(0.000000,97.150000,142.000000)" style="stroke: black; stroke-width:0.25;"/>
<line x1="94.150000" y1="149.000000" x2="97.150000" y2="150.000000"  transform="rotate(0.000000,97.150000,150.000000)" style="stroke: black; stroke-width:0.25;"/>
<line x1="94.150000" y1="151.000000" x2="97.150000" y2="150.000000"  transform="rotate(0.000000,97.150000,150.000000)" style="stroke: black; stroke-width:0.25;"/>
<rect x="159.300000" y="93.000000" width="38.700000" height="24.000000" rx="0" ry="0" style="stroke:none;fill:#cccccc;"/>
<rect x="158.300000" y="92.000000" width="38.700000" height="24.000000" rx="0" ry="0" style="stroke:none;fill:#4B71A1;"/>
<text x="177.650000" y="106.000000" font-family="Arial" font-size="7" text-anchor="middle" fill="#FFFFFF">select2</text>
<circle cx="160.300000" cy="94.000000" r="1"/>
<line x1="155.300000" y1="95.000000" x2="158.300000" y2="96.000000"  transform="rotate(0.000000,158.300000,96.000000)" style="stroke: black; stroke-width:0.25;"/>
<line x1="155.300000" y1="97.000000" x2="158.300000" y2="96.000000"  transform="rotate(0.000000,158.300000,96.000000)" style="stroke: black; stroke-width:0.25;"/>
<line x1="155.300000" y1="103.000000" x2="158.300000" y2="104.000000"  transform="rotate(0.000000,158.300000,104.000000)" style="stroke: black; stroke-width:0.25;"/>
<line x1="155.300000" y1="105.000000" x2="158.300000" y2="104.000000"  transform="rotate(0.000000,158.300000,104.000000)" style="stroke: black; stroke-width:0.25;"/>
<line x1="155.300000" y1="111.000000" x2="158.300000" y2="112.000000"  transform="rotate(0.000000,158.300000,112.000000)" style="stroke: black; stroke-width:0.25;"/>
<line x1="155.300000" y1="113.000000" x2="158.300000" y2="112.000000"  transform="rotate(0.000000,158.300000,112.000000)" style="stroke: black; stroke-width:0.25;"/>
<line x1="15.000000" y1="15.000000" x2="15.000000" y2="193.000000"  style="stroke: black; stroke-linecap:round; stroke-width:0.25; stroke-dasharray:3,3;"/>
<line x1="15.000000" y1="193.000000" x2="214.000000" y2="193.000000"  style="stroke: black; stroke-linecap:round; stroke-width:0.25; stroke-dasharray:3,3;"/>
<line x1="214.000000" y1="193.000000" x2="214.000000" y2="15.000000"  style="stroke: black; stroke-linecap:round; stroke-width:0.25; stroke-dasharray:3,3;"/>
<line x1="15.000000" y1="15.000000" x2="20.000000" y2="15.000000"  style="stroke: black; stroke-linecap:round; stroke-width:0.25; stroke-dasharray:3,3;"/>
<line x1="39.350000" y1="15.000000" x2="214.000000" y2="15.000000"  style="stroke: black; stroke-linecap:round; stroke-width:0.25; stroke-dasharray:3,3;"/>
<text x="20.000000" y="17.000000" font-family="Arial" font-size="7">g2mi</text>
<line x1="216.000000" y1="103.000000" x2="219.000000" y2="104.000000"  transform="rotate(0.000000,219.000000,104.000000)" style="stroke: black; stroke-width:0.25;"/>
<line x1="216.000000" y1="105.000000" x2="219.000000" y2="104.000000"  transform="rotate(0.000000,219.000000,104.000000)" style="stroke: black; stroke-width:0.25;"/>
<line x1="71.150000" y1="130.000000" x2="75.150000" y2="130.000000"  style="stroke:black; stroke-linecap:round; stroke-width:0.25;"/>
<line x1="71.150000" y1="172.000000" x2="75.150000" y2="172.000000"  style="stroke:black; stroke-linecap:round; stroke-width:0.25;"/>
<line x1="75.150000" y1="130.000000" x2="85.150000" y2="130.000000"  style="stroke:black; stroke-linecap:round; stroke-width:0.25;"/>
<line x1="75.150000" y1="172.000000" x2="85.150000" y2="172.000000"  style="stroke:black; stroke-linecap:round; stroke-width:0.25;"/>
<line x1="85.150000" y1="130.000000" x2="93.150000" y2="130.000000"  style="stroke:black; stroke-linecap:round; stroke-width:0.25;"/>
<line x1="85.150000" y1="150.000000" x2="93.150000" y2="150.000000"  style="stroke:black; stroke-linecap:round; stroke-width:0.25;"/>
<line x1="85.150000" y1="172.000000" x2="85.150000" y2="150.000000"  style="stroke:black; stroke-linecap:round; stroke-width:0.25;"/>
<line x1="85.150000" y1="172.000000" x2="85.150000" y2="172.000000"  style="stroke:black; stroke-linecap:round; stroke-width:0.25;"/>
<line x1="91.150000" y1="88.000000" x2="95.150000" y2="88.000000"  style="stroke:black; stroke-linecap:round; stroke-width:0.25;"/>
<line x1="93.150000" y1="130.000000" x2="93.150000" y2="142.000000"  style="stroke:black; stroke-linecap:round; stroke-width:0.25;"/>
<line x1="93.150000" y1="142.000000" x2="93.150000" y2="142.000000"  style="stroke:black; stroke-linecap:round; stroke-width:0.25;"/>
<line x1="93.150000" y1="142.000000" x2="97.150000" y2="142.000000"  style="stroke:black; stroke-linecap:round; stroke-width:0.25;"/>
<line x1="93.150000" y1="150.000000" x2="97.150000" y2="150.000000"  style="stroke:black; stroke-linecap:round; stroke-width:0.25;"/>
<line x1="95.150000" y1="88.000000" x2="125.150000" y2="88.000000"  style="stroke:black; stroke-linecap:round; stroke-width:0.25;"/>
<line x1="121.150000" y1="146.000000" x2="125.150000" y2="146.000000"  style="stroke:black; stroke-linecap:round; stroke-width:0.25;"/>
<line x1="124.300000" y1="46.000000" x2="128.300000" y2="46.000000"  style="stroke:black; stroke-linecap:round; stroke-width:0.25;"/>
<line x1="125.150000" y1="88.000000" x2="138.300000" y2="88.000000"  style="stroke:black; stroke-linecap:round; stroke-width:0.25;"/>
<line x1="125.150000" y1="146.000000" x2="138.300000" y2="146.000000"  style="stroke:black; stroke-linecap:round; stroke-width:0.25;"/>
<line x1="128.300000" y1="46.000000" x2="138.300000" y2="46.000000"  style="stroke:black; stroke-linecap:round; stroke-width:0.25;"/>
<line x1="138.300000" y1="46.000000" x2="154.300000" y2="46.000000"  style="stroke:black; stroke-linecap:round; stroke-width:0.25;"/>
<line x1="138.300000" y1="88.000000" x2="146.300000" y2="88.000000"  style="stroke:black; stroke-linecap:round; stroke-width:0.25;"/>
<line x1="138.300000" y1="112.000000" x2="154.300000" y2="112.000000"  style="stroke:black; stroke-linecap:round; stroke-width:0.25;"/>
<line x1="138.300000" y1="146.000000" x2="138.300000" y2="112.000000"  style="stroke:black; stroke-linecap:round; stroke-width:0.25;"/>
<line x1="138.300000" y1="146.000000" x2="138.300000" y2="146.000000"  style="stroke:black; stroke-linecap:round; stroke-width:0.25;"/>
<line x1="146.300000" y1="88.000000" x2="146.300000" y2="104.000000"  style="stroke:black; stroke-linecap:round; stroke-width:0.25;"/>
<line x1="146.300000" y1="104.000000" x2="154.300000" y2="104.000000"  style="stroke:black; stroke-linecap:round; stroke-width:0.25;"/>
<line x1="154.300000" y1="46.000000" x2="154.300000" y2="96.000000"  style="stroke:black; stroke-linecap:round; stroke-width:0.25;"/>
<line x1="154.300000" y1="96.000000" x2="154.300000" y2="96.000000"  style="stroke:black; stroke-linecap:round; stroke-width:0.25;"/>
<line x1="154.300000" y1="96.000000" x2="158.300000" y2="96.000000"  style="stroke:black; stroke-linecap:round; stroke-width:0.25;"/>
<line x1="154.300000" y1="104.000000" x2="158.300000" y2="104.000000"  style="stroke:black; stroke-linecap:round; stroke-width:0.25;"/>
<line x1="154.300000" y1="112.000000" x2="158.300000" y2="112.000000"  style="stroke:black; stroke-linecap:round; stroke-width:0.25;"/>
<line x1="197.000000" y1="104.000000" x2="201.000000" y2="104.000000"  style="stroke:black; stroke-linecap:round; stroke-width:0.25;"/>
<line x1="201.000000" y1="104.000000" x2="201.000000" y2="104.000000"  style="stroke:black; stroke-linecap:round; stroke-width:0.25;"/>
<line x1="201.000000" y1="104.000000" x2="205.000000" y2="104.000000"  style="stroke:black; stroke-linecap:round; stroke-width:0.25;"/>
<line x1="205.000000" y1="104.000000" x2="209.000000" y2="104.000000"  style="stroke:black; stroke-linecap:round; stroke-width:0.25;"/>
<line x1="209.000000" y1="104.000000" x2="219.000000" y2="104.000000"  style="stroke:black; stroke-linecap:round; stroke-width:0.25;"/>
</svg>
