<?xml version="1.0"?>
<svg xmlns="http://www.w3.org/2000/svg" xmlns:xlink="http://www.w3.org/1999/xlink" viewBox="0 0 827.900000 488.000000" width="413.950000mm" height="244.000000mm" version="1.1">
<a xlink:href="process.svg">
<rect x="1.000000" y="1.000000" width="826.900000" height="487.000000" rx="0" ry="0" style="stroke:none;fill:#cccccc;"/>
<rect x="0.000000" y="0.000000" width="826.900000" height="487.000000" rx="0" ry="0" style="stroke:none;fill:#ffffff;"/>
</a>
<text x="10.000000" y="7.000000" font-family="Arial" font-size="7"></text>
<rect x="167.000000" y="43.000000" width="270.900000" height="24.000000" rx="0" ry="0" style="stroke:none;fill:#cccccc;"/>
<rect x="166.000000" y="42.000000" width="270.900000" height="24.000000" rx="0" ry="0" style="stroke:none;fill:#477881;"/>
<text x="301.450000" y="56.000000" font-family="Arial" font-size="7" text-anchor="middle" fill="#FFFFFF">vslider(dryWetReverb, 0.20000000000000001f, 0.0f, 1.0f, 0.001f)</text>
<circle cx="168.000000" cy="44.000000" r="1"/>
<line x1="157.000000" y1="33.000000" x2="157.000000" y2="75.000000"  style="stroke: black; stroke-linecap:round; stroke-width:0.25; stroke-dasharray:3,3;"/>
<line x1="157.000000" y1="75.000000" x2="445.900000" y2="75.000000"  style="stroke: black; stroke-linecap:round; stroke-width:0.25; stroke-dasharray:3,3;"/>
<line x1="445.900000" y1="75.000000" x2="445.900000" y2="33.000000"  style="stroke: black; stroke-linecap:round; stroke-width:0.25; stroke-dasharray:3,3;"/>
<line x1="157.000000" y1="33.000000" x2="162.000000" y2="33.000000"  style="stroke: black; stroke-linecap:round; stroke-width:0.25; stroke-dasharray:3,3;"/>
<line x1="171.675000" y1="33.000000" x2="445.900000" y2="33.000000"  style="stroke: black; stroke-linecap:round; stroke-width:0.25; stroke-dasharray:3,3;"/>
<text x="162.000000" y="35.000000" font-family="Arial" font-size="7">g</text>
<rect x="463.900000" y="39.000000" width="24.000000" height="24.000000" rx="0" ry="0" style="stroke:none;fill:#cccccc;"/>
<rect x="462.900000" y="38.000000" width="24.000000" height="24.000000" rx="0" ry="0" style="stroke:none;fill:#4B71A1;"/>
<text x="474.900000" y="52.000000" font-family="Arial" font-size="7" text-anchor="middle" fill="#FFFFFF">*</text>
<circle cx="464.900000" cy="40.000000" r="1"/>
<line x1="459.900000" y1="45.000000" x2="462.900000" y2="46.000000"  transform="rotate(0.000000,462.900000,46.000000)" style="stroke: black; stroke-width:0.25;"/>
<line x1="459.900000" y1="47.000000" x2="462.900000" y2="46.000000"  transform="rotate(0.000000,462.900000,46.000000)" style="stroke: black; stroke-width:0.25;"/>
<line x1="459.900000" y1="53.000000" x2="462.900000" y2="54.000000"  transform="rotate(0.000000,462.900000,54.000000)" style="stroke: black; stroke-width:0.25;"/>
<line x1="459.900000" y1="55.000000" x2="462.900000" y2="54.000000"  transform="rotate(0.000000,462.900000,54.000000)" style="stroke: black; stroke-width:0.25;"/>
<rect x="310.450000" y="95.000000" width="24.000000" height="24.000000" rx="0" ry="0" style="stroke:none;fill:#cccccc;"/>
<rect x="309.450000" y="94.000000" width="24.000000" height="24.000000" rx="0" ry="0" style="stroke:none;fill:#f44800;"/>
<text x="321.450000" y="108.000000" font-family="Arial" font-size="7" text-anchor="middle" fill="#FFFFFF">0.1</text>
<circle cx="311.450000" cy="96.000000" r="1"/>
<line x1="300.450000" y1="85.000000" x2="300.450000" y2="127.000000"  style="stroke: black; stroke-linecap:round; stroke-width:0.25; stroke-dasharray:3,3;"/>
<line x1="300.450000" y1="127.000000" x2="342.450000" y2="127.000000"  style="stroke: black; stroke-linecap:round; stroke-width:0.25; stroke-dasharray:3,3;"/>
<line x1="342.450000" y1="127.000000" x2="342.450000" y2="85.000000"  style="stroke: black; stroke-linecap:round; stroke-width:0.25; stroke-dasharray:3,3;"/>
<line x1="300.450000" y1="85.000000" x2="305.450000" y2="85.000000"  style="stroke: black; stroke-linecap:round; stroke-width:0.25; stroke-dasharray:3,3;"/>
<line x1="340.925000" y1="85.000000" x2="342.450000" y2="85.000000"  style="stroke: black; stroke-linecap:round; stroke-width:0.25; stroke-dasharray:3,3;"/>
<text x="305.450000" y="87.000000" font-family="Arial" font-size="7">fixedgain</text>
<rect x="503.900000" y="65.000000" width="24.000000" height="24.000000" rx="0" ry="0" style="stroke:none;fill:#cccccc;"/>
<rect x="502.900000" y="64.000000" width="24.000000" height="24.000000" rx="0" ry="0" style="stroke:none;fill:#4B71A1;"/>
<text x="514.900000" y="78.000000" font-family="Arial" font-size="7" text-anchor="middle" fill="#FFFFFF">*</text>
<circle cx="504.900000" cy="66.000000" r="1"/>
<line x1="499.900000" y1="71.000000" x2="502.900000" y2="72.000000"  transform="rotate(0.000000,502.900000,72.000000)" style="stroke: black; stroke-width:0.25;"/>
<line x1="499.900000" y1="73.000000" x2="502.900000" y2="72.000000"  transform="rotate(0.000000,502.900000,72.000000)" style="stroke: black; stroke-width:0.25;"/>
<line x1="499.900000" y1="79.000000" x2="502.900000" y2="80.000000"  transform="rotate(0.000000,502.900000,80.000000)" style="stroke: black; stroke-width:0.25;"/>
<line x1="499.900000" y1="81.000000" x2="502.900000" y2="80.000000"  transform="rotate(0.000000,502.900000,80.000000)" style="stroke: black; stroke-width:0.25;"/>
<rect x="167.000000" y="155.000000" width="270.900000" height="24.000000" rx="0" ry="0" style="stroke:none;fill:#cccccc;"/>
<rect x="166.000000" y="154.000000" width="270.900000" height="24.000000" rx="0" ry="0" style="stroke:none;fill:#477881;"/>
<text x="301.450000" y="168.000000" font-family="Arial" font-size="7" text-anchor="middle" fill="#FFFFFF">vslider(dryWetReverb, 0.20000000000000001f, 0.0f, 1.0f, 0.001f)</text>
<circle cx="168.000000" cy="156.000000" r="1"/>
<line x1="157.000000" y1="145.000000" x2="157.000000" y2="187.000000"  style="stroke: black; stroke-linecap:round; stroke-width:0.25; stroke-dasharray:3,3;"/>
<line x1="157.000000" y1="187.000000" x2="445.900000" y2="187.000000"  style="stroke: black; stroke-linecap:round; stroke-width:0.25; stroke-dasharray:3,3;"/>
<line x1="445.900000" y1="187.000000" x2="445.900000" y2="145.000000"  style="stroke: black; stroke-linecap:round; stroke-width:0.25; stroke-dasharray:3,3;"/>
<line x1="157.000000" y1="145.000000" x2="162.000000" y2="145.000000"  style="stroke: black; stroke-linecap:round; stroke-width:0.25; stroke-dasharray:3,3;"/>
<line x1="171.675000" y1="145.000000" x2="445.900000" y2="145.000000"  style="stroke: black; stroke-linecap:round; stroke-width:0.25; stroke-dasharray:3,3;"/>
<text x="162.000000" y="147.000000" font-family="Arial" font-size="7">g</text>
<rect x="463.900000" y="151.000000" width="24.000000" height="24.000000" rx="0" ry="0" style="stroke:none;fill:#cccccc;"/>
<rect x="462.900000" y="150.000000" width="24.000000" height="24.000000" rx="0" ry="0" style="stroke:none;fill:#4B71A1;"/>
<text x="474.900000" y="164.000000" font-family="Arial" font-size="7" text-anchor="middle" fill="#FFFFFF">*</text>
<circle cx="464.900000" cy="152.000000" r="1"/>
<line x1="459.900000" y1="157.000000" x2="462.900000" y2="158.000000"  transform="rotate(0.000000,462.900000,158.000000)" style="stroke: black; stroke-width:0.25;"/>
<line x1="459.900000" y1="159.000000" x2="462.900000" y2="158.000000"  transform="rotate(0.000000,462.900000,158.000000)" style="stroke: black; stroke-width:0.25;"/>
<line x1="459.900000" y1="165.000000" x2="462.900000" y2="166.000000"  transform="rotate(0.000000,462.900000,166.000000)" style="stroke: black; stroke-width:0.25;"/>
<line x1="459.900000" y1="167.000000" x2="462.900000" y2="166.000000"  transform="rotate(0.000000,462.900000,166.000000)" style="stroke: black; stroke-width:0.25;"/>
<rect x="310.450000" y="207.000000" width="24.000000" height="24.000000" rx="0" ry="0" style="stroke:none;fill:#cccccc;"/>
<rect x="309.450000" y="206.000000" width="24.000000" height="24.000000" rx="0" ry="0" style="stroke:none;fill:#f44800;"/>
<text x="321.450000" y="220.000000" font-family="Arial" font-size="7" text-anchor="middle" fill="#FFFFFF">0.1</text>
<circle cx="311.450000" cy="208.000000" r="1"/>
<line x1="300.450000" y1="197.000000" x2="300.450000" y2="239.000000"  style="stroke: black; stroke-linecap:round; stroke-width:0.25; stroke-dasharray:3,3;"/>
<line x1="300.450000" y1="239.000000" x2="342.450000" y2="239.000000"  style="stroke: black; stroke-linecap:round; stroke-width:0.25; stroke-dasharray:3,3;"/>
<line x1="342.450000" y1="239.000000" x2="342.450000" y2="197.000000"  style="stroke: black; stroke-linecap:round; stroke-width:0.25; stroke-dasharray:3,3;"/>
<line x1="300.450000" y1="197.000000" x2="305.450000" y2="197.000000"  style="stroke: black; stroke-linecap:round; stroke-width:0.25; stroke-dasharray:3,3;"/>
<line x1="340.925000" y1="197.000000" x2="342.450000" y2="197.000000"  style="stroke: black; stroke-linecap:round; stroke-width:0.25; stroke-dasharray:3,3;"/>
<text x="305.450000" y="199.000000" font-family="Arial" font-size="7">fixedgain</text>
<rect x="503.900000" y="177.000000" width="24.000000" height="24.000000" rx="0" ry="0" style="stroke:none;fill:#cccccc;"/>
<rect x="502.900000" y="176.000000" width="24.000000" height="24.000000" rx="0" ry="0" style="stroke:none;fill:#4B71A1;"/>
<text x="514.900000" y="190.000000" font-family="Arial" font-size="7" text-anchor="middle" fill="#FFFFFF">*</text>
<circle cx="504.900000" cy="178.000000" r="1"/>
<line x1="499.900000" y1="183.000000" x2="502.900000" y2="184.000000"  transform="rotate(0.000000,502.900000,184.000000)" style="stroke: black; stroke-width:0.25;"/>
<line x1="499.900000" y1="185.000000" x2="502.900000" y2="184.000000"  transform="rotate(0.000000,502.900000,184.000000)" style="stroke: black; stroke-width:0.25;"/>
<line x1="499.900000" y1="191.000000" x2="502.900000" y2="192.000000"  transform="rotate(0.000000,502.900000,192.000000)" style="stroke: black; stroke-width:0.25;"/>
<line x1="499.900000" y1="193.000000" x2="502.900000" y2="192.000000"  transform="rotate(0.000000,502.900000,192.000000)" style="stroke: black; stroke-width:0.25;"/>
<a xlink:href="stereo-0x7fb2545a6610.svg">
<rect x="543.900000" y="121.000000" width="129.000000" height="24.000000" rx="0" ry="0" style="stroke:none;fill:#cccccc;"/>
<rect x="542.900000" y="120.000000" width="129.000000" height="24.000000" rx="0" ry="0" style="stroke:none;fill:#003366;"/>
</a>
<a xlink:href="stereo-0x7fb2545a6610.svg">
<text x="607.400000" y="134.000000" font-family="Arial" font-size="7" text-anchor="middle" fill="#FFFFFF">stereo_freeve...*),44100 : /)</text>
</a>
<circle cx="544.900000" cy="122.000000" r="1"/>
<line x1="539.900000" y1="127.000000" x2="542.900000" y2="128.000000"  transform="rotate(0.000000,542.900000,128.000000)" style="stroke: black; stroke-width:0.25;"/>
<line x1="539.900000" y1="129.000000" x2="542.900000" y2="128.000000"  transform="rotate(0.000000,542.900000,128.000000)" style="stroke: black; stroke-width:0.25;"/>
<line x1="539.900000" y1="135.000000" x2="542.900000" y2="136.000000"  transform="rotate(0.000000,542.900000,136.000000)" style="stroke: black; stroke-width:0.25;"/>
<line x1="539.900000" y1="137.000000" x2="542.900000" y2="136.000000"  transform="rotate(0.000000,542.900000,136.000000)" style="stroke: black; stroke-width:0.25;"/>
<rect x="362.950000" y="267.000000" width="24.000000" height="24.000000" rx="0" ry="0" style="stroke:none;fill:#cccccc;"/>
<rect x="361.950000" y="266.000000" width="24.000000" height="24.000000" rx="0" ry="0" style="stroke:none;fill:#f44800;"/>
<text x="373.950000" y="280.000000" font-family="Arial" font-size="7" text-anchor="middle" fill="#FFFFFF">1</text>
<circle cx="363.950000" cy="268.000000" r="1"/>
<line x1="352.950000" y1="257.000000" x2="352.950000" y2="299.000000"  style="stroke: black; stroke-linecap:round; stroke-width:0.25; stroke-dasharray:3,3;"/>
<line x1="352.950000" y1="299.000000" x2="394.950000" y2="299.000000"  style="stroke: black; stroke-linecap:round; stroke-width:0.25; stroke-dasharray:3,3;"/>
<line x1="394.950000" y1="299.000000" x2="394.950000" y2="257.000000"  style="stroke: black; stroke-linecap:round; stroke-width:0.25; stroke-dasharray:3,3;"/>
<line x1="352.950000" y1="257.000000" x2="357.950000" y2="257.000000"  style="stroke: black; stroke-linecap:round; stroke-width:0.25; stroke-dasharray:3,3;"/>
<line x1="367.625000" y1="257.000000" x2="394.950000" y2="257.000000"  style="stroke: black; stroke-linecap:round; stroke-width:0.25; stroke-dasharray:3,3;"/>
<text x="357.950000" y="259.000000" font-family="Arial" font-size="7">S</text>
<rect x="239.500000" y="319.000000" width="270.900000" height="24.000000" rx="0" ry="0" style="stroke:none;fill:#cccccc;"/>
<rect x="238.500000" y="318.000000" width="270.900000" height="24.000000" rx="0" ry="0" style="stroke:none;fill:#477881;"/>
<text x="373.950000" y="332.000000" font-family="Arial" font-size="7" text-anchor="middle" fill="#FFFFFF">vslider(dryWetReverb, 0.20000000000000001f, 0.0f, 1.0f, 0.001f)</text>
<circle cx="240.500000" cy="320.000000" r="1"/>
<line x1="229.500000" y1="309.000000" x2="229.500000" y2="351.000000"  style="stroke: black; stroke-linecap:round; stroke-width:0.25; stroke-dasharray:3,3;"/>
<line x1="229.500000" y1="351.000000" x2="518.400000" y2="351.000000"  style="stroke: black; stroke-linecap:round; stroke-width:0.25; stroke-dasharray:3,3;"/>
<line x1="518.400000" y1="351.000000" x2="518.400000" y2="309.000000"  style="stroke: black; stroke-linecap:round; stroke-width:0.25; stroke-dasharray:3,3;"/>
<line x1="229.500000" y1="309.000000" x2="234.500000" y2="309.000000"  style="stroke: black; stroke-linecap:round; stroke-width:0.25; stroke-dasharray:3,3;"/>
<line x1="244.175000" y1="309.000000" x2="518.400000" y2="309.000000"  style="stroke: black; stroke-linecap:round; stroke-width:0.25; stroke-dasharray:3,3;"/>
<text x="234.500000" y="311.000000" font-family="Arial" font-size="7">g</text>
<rect x="536.400000" y="293.000000" width="24.000000" height="24.000000" rx="0" ry="0" style="stroke:none;fill:#cccccc;"/>
<rect x="535.400000" y="292.000000" width="24.000000" height="24.000000" rx="0" ry="0" style="stroke:none;fill:#4B71A1;"/>
<text x="547.400000" y="306.000000" font-family="Arial" font-size="7" text-anchor="middle" fill="#FFFFFF">-</text>
<circle cx="537.400000" cy="294.000000" r="1"/>
<line x1="532.400000" y1="299.000000" x2="535.400000" y2="300.000000"  transform="rotate(0.000000,535.400000,300.000000)" style="stroke: black; stroke-width:0.25;"/>
<line x1="532.400000" y1="301.000000" x2="535.400000" y2="300.000000"  transform="rotate(0.000000,535.400000,300.000000)" style="stroke: black; stroke-width:0.25;"/>
<line x1="532.400000" y1="307.000000" x2="535.400000" y2="308.000000"  transform="rotate(0.000000,535.400000,308.000000)" style="stroke: black; stroke-width:0.25;"/>
<line x1="532.400000" y1="309.000000" x2="535.400000" y2="308.000000"  transform="rotate(0.000000,535.400000,308.000000)" style="stroke: black; stroke-width:0.25;"/>
<rect x="576.400000" y="289.000000" width="24.000000" height="24.000000" rx="0" ry="0" style="stroke:none;fill:#cccccc;"/>
<rect x="575.400000" y="288.000000" width="24.000000" height="24.000000" rx="0" ry="0" style="stroke:none;fill:#4B71A1;"/>
<text x="587.400000" y="302.000000" font-family="Arial" font-size="7" text-anchor="middle" fill="#FFFFFF">*</text>
<circle cx="577.400000" cy="290.000000" r="1"/>
<line x1="572.400000" y1="295.000000" x2="575.400000" y2="296.000000"  transform="rotate(0.000000,575.400000,296.000000)" style="stroke: black; stroke-width:0.25;"/>
<line x1="572.400000" y1="297.000000" x2="575.400000" y2="296.000000"  transform="rotate(0.000000,575.400000,296.000000)" style="stroke: black; stroke-width:0.25;"/>
<line x1="572.400000" y1="303.000000" x2="575.400000" y2="304.000000"  transform="rotate(0.000000,575.400000,304.000000)" style="stroke: black; stroke-width:0.25;"/>
<line x1="572.400000" y1="305.000000" x2="575.400000" y2="304.000000"  transform="rotate(0.000000,575.400000,304.000000)" style="stroke: black; stroke-width:0.25;"/>
<rect x="362.950000" y="379.000000" width="24.000000" height="24.000000" rx="0" ry="0" style="stroke:none;fill:#cccccc;"/>
<rect x="361.950000" y="378.000000" width="24.000000" height="24.000000" rx="0" ry="0" style="stroke:none;fill:#f44800;"/>
<text x="373.950000" y="392.000000" font-family="Arial" font-size="7" text-anchor="middle" fill="#FFFFFF">1</text>
<circle cx="363.950000" cy="380.000000" r="1"/>
<line x1="352.950000" y1="369.000000" x2="352.950000" y2="411.000000"  style="stroke: black; stroke-linecap:round; stroke-width:0.25; stroke-dasharray:3,3;"/>
<line x1="352.950000" y1="411.000000" x2="394.950000" y2="411.000000"  style="stroke: black; stroke-linecap:round; stroke-width:0.25; stroke-dasharray:3,3;"/>
<line x1="394.950000" y1="411.000000" x2="394.950000" y2="369.000000"  style="stroke: black; stroke-linecap:round; stroke-width:0.25; stroke-dasharray:3,3;"/>
<line x1="352.950000" y1="369.000000" x2="357.950000" y2="369.000000"  style="stroke: black; stroke-linecap:round; stroke-width:0.25; stroke-dasharray:3,3;"/>
<line x1="367.625000" y1="369.000000" x2="394.950000" y2="369.000000"  style="stroke: black; stroke-linecap:round; stroke-width:0.25; stroke-dasharray:3,3;"/>
<text x="357.950000" y="371.000000" font-family="Arial" font-size="7">S</text>
<rect x="239.500000" y="431.000000" width="270.900000" height="24.000000" rx="0" ry="0" style="stroke:none;fill:#cccccc;"/>
<rect x="238.500000" y="430.000000" width="270.900000" height="24.000000" rx="0" ry="0" style="stroke:none;fill:#477881;"/>
<text x="373.950000" y="444.000000" font-family="Arial" font-size="7" text-anchor="middle" fill="#FFFFFF">vslider(dryWetReverb, 0.20000000000000001f, 0.0f, 1.0f, 0.001f)</text>
<circle cx="240.500000" cy="432.000000" r="1"/>
<line x1="229.500000" y1="421.000000" x2="229.500000" y2="463.000000"  style="stroke: black; stroke-linecap:round; stroke-width:0.25; stroke-dasharray:3,3;"/>
<line x1="229.500000" y1="463.000000" x2="518.400000" y2="463.000000"  style="stroke: black; stroke-linecap:round; stroke-width:0.25; stroke-dasharray:3,3;"/>
<line x1="518.400000" y1="463.000000" x2="518.400000" y2="421.000000"  style="stroke: black; stroke-linecap:round; stroke-width:0.25; stroke-dasharray:3,3;"/>
<line x1="229.500000" y1="421.000000" x2="234.500000" y2="421.000000"  style="stroke: black; stroke-linecap:round; stroke-width:0.25; stroke-dasharray:3,3;"/>
<line x1="244.175000" y1="421.000000" x2="518.400000" y2="421.000000"  style="stroke: black; stroke-linecap:round; stroke-width:0.25; stroke-dasharray:3,3;"/>
<text x="234.500000" y="423.000000" font-family="Arial" font-size="7">g</text>
<rect x="536.400000" y="405.000000" width="24.000000" height="24.000000" rx="0" ry="0" style="stroke:none;fill:#cccccc;"/>
<rect x="535.400000" y="404.000000" width="24.000000" height="24.000000" rx="0" ry="0" style="stroke:none;fill:#4B71A1;"/>
<text x="547.400000" y="418.000000" font-family="Arial" font-size="7" text-anchor="middle" fill="#FFFFFF">-</text>
<circle cx="537.400000" cy="406.000000" r="1"/>
<line x1="532.400000" y1="411.000000" x2="535.400000" y2="412.000000"  transform="rotate(0.000000,535.400000,412.000000)" style="stroke: black; stroke-width:0.25;"/>
<line x1="532.400000" y1="413.000000" x2="535.400000" y2="412.000000"  transform="rotate(0.000000,535.400000,412.000000)" style="stroke: black; stroke-width:0.25;"/>
<line x1="532.400000" y1="419.000000" x2="535.400000" y2="420.000000"  transform="rotate(0.000000,535.400000,420.000000)" style="stroke: black; stroke-width:0.25;"/>
<line x1="532.400000" y1="421.000000" x2="535.400000" y2="420.000000"  transform="rotate(0.000000,535.400000,420.000000)" style="stroke: black; stroke-width:0.25;"/>
<rect x="576.400000" y="401.000000" width="24.000000" height="24.000000" rx="0" ry="0" style="stroke:none;fill:#cccccc;"/>
<rect x="575.400000" y="400.000000" width="24.000000" height="24.000000" rx="0" ry="0" style="stroke:none;fill:#4B71A1;"/>
<text x="587.400000" y="414.000000" font-family="Arial" font-size="7" text-anchor="middle" fill="#FFFFFF">*</text>
<circle cx="577.400000" cy="402.000000" r="1"/>
<line x1="572.400000" y1="407.000000" x2="575.400000" y2="408.000000"  transform="rotate(0.000000,575.400000,408.000000)" style="stroke: black; stroke-width:0.25;"/>
<line x1="572.400000" y1="409.000000" x2="575.400000" y2="408.000000"  transform="rotate(0.000000,575.400000,408.000000)" style="stroke: black; stroke-width:0.25;"/>
<line x1="572.400000" y1="415.000000" x2="575.400000" y2="416.000000"  transform="rotate(0.000000,575.400000,416.000000)" style="stroke: black; stroke-width:0.25;"/>
<line x1="572.400000" y1="417.000000" x2="575.400000" y2="416.000000"  transform="rotate(0.000000,575.400000,416.000000)" style="stroke: black; stroke-width:0.25;"/>
<line x1="15.000000" y1="15.000000" x2="15.000000" y2="473.000000"  style="stroke: black; stroke-linecap:round; stroke-width:0.25; stroke-dasharray:3,3;"/>
<line x1="15.000000" y1="473.000000" x2="812.900000" y2="473.000000"  style="stroke: black; stroke-linecap:round; stroke-width:0.25; stroke-dasharray:3,3;"/>
<line x1="812.900000" y1="473.000000" x2="812.900000" y2="15.000000"  style="stroke: black; stroke-linecap:round; stroke-width:0.25; stroke-dasharray:3,3;"/>
<line x1="15.000000" y1="15.000000" x2="20.000000" y2="15.000000"  style="stroke: black; stroke-linecap:round; stroke-width:0.25; stroke-dasharray:3,3;"/>
<line x1="45.800000" y1="15.000000" x2="812.900000" y2="15.000000"  style="stroke: black; stroke-linecap:round; stroke-width:0.25; stroke-dasharray:3,3;"/>
<text x="20.000000" y="17.000000" font-family="Arial" font-size="7">reverb</text>
<line x1="814.900000" y1="239.000000" x2="817.900000" y2="240.000000"  transform="rotate(0.000000,817.900000,240.000000)" style="stroke: black; stroke-width:0.25;"/>
<line x1="814.900000" y1="241.000000" x2="817.900000" y2="240.000000"  transform="rotate(0.000000,817.900000,240.000000)" style="stroke: black; stroke-width:0.25;"/>
<line x1="814.900000" y1="247.000000" x2="817.900000" y2="248.000000"  transform="rotate(0.000000,817.900000,248.000000)" style="stroke: black; stroke-width:0.25;"/>
<line x1="814.900000" y1="249.000000" x2="817.900000" y2="248.000000"  transform="rotate(0.000000,817.900000,248.000000)" style="stroke: black; stroke-width:0.25;"/>
<line x1="10.000000" y1="240.000000" x2="20.000000" y2="240.000000"  style="stroke:black; stroke-linecap:round; stroke-width:0.25;"/>
<line x1="10.000000" y1="248.000000" x2="20.000000" y2="248.000000"  style="stroke:black; stroke-linecap:round; stroke-width:0.25;"/>
<line x1="20.000000" y1="240.000000" x2="24.000000" y2="240.000000"  style="stroke:black; stroke-linecap:round; stroke-width:0.25;"/>
<line x1="20.000000" y1="248.000000" x2="24.000000" y2="248.000000"  style="stroke:black; stroke-linecap:round; stroke-width:0.25;"/>
<line x1="24.000000" y1="240.000000" x2="28.000000" y2="240.000000"  style="stroke:black; stroke-linecap:round; stroke-width:0.25;"/>
<line x1="24.000000" y1="248.000000" x2="28.000000" y2="248.000000"  style="stroke:black; stroke-linecap:round; stroke-width:0.25;"/>
<line x1="28.000000" y1="240.000000" x2="28.000000" y2="240.000000"  style="stroke:black; stroke-linecap:round; stroke-width:0.25;"/>
<line x1="28.000000" y1="240.000000" x2="32.000000" y2="240.000000"  style="stroke:black; stroke-linecap:round; stroke-width:0.25;"/>
<line x1="28.000000" y1="248.000000" x2="28.000000" y2="248.000000"  style="stroke:black; stroke-linecap:round; stroke-width:0.25;"/>
<line x1="28.000000" y1="248.000000" x2="32.000000" y2="248.000000"  style="stroke:black; stroke-linecap:round; stroke-width:0.25;"/>
<line x1="32.000000" y1="240.000000" x2="36.000000" y2="240.000000"  style="stroke:black; stroke-linecap:round; stroke-width:0.25;"/>
<line x1="32.000000" y1="248.000000" x2="36.000000" y2="248.000000"  style="stroke:black; stroke-linecap:round; stroke-width:0.25;"/>
<line x1="36.000000" y1="240.000000" x2="152.000000" y2="24.000000"  style="stroke:black; stroke-linecap:round; stroke-width:0.25;"/>
<line x1="36.000000" y1="240.000000" x2="152.000000" y2="248.000000"  style="stroke:black; stroke-linecap:round; stroke-width:0.25;"/>
<line x1="36.000000" y1="248.000000" x2="152.000000" y2="136.000000"  style="stroke:black; stroke-linecap:round; stroke-width:0.25;"/>
<line x1="36.000000" y1="248.000000" x2="152.000000" y2="360.000000"  style="stroke:black; stroke-linecap:round; stroke-width:0.25;"/>
<line x1="152.000000" y1="24.000000" x2="301.450000" y2="24.000000"  style="stroke:black; stroke-linecap:round; stroke-width:0.25;"/>
<line x1="152.000000" y1="136.000000" x2="301.450000" y2="136.000000"  style="stroke:black; stroke-linecap:round; stroke-width:0.25;"/>
<line x1="152.000000" y1="248.000000" x2="224.500000" y2="248.000000"  style="stroke:black; stroke-linecap:round; stroke-width:0.25;"/>
<line x1="152.000000" y1="360.000000" x2="224.500000" y2="360.000000"  style="stroke:black; stroke-linecap:round; stroke-width:0.25;"/>
<line x1="224.500000" y1="248.000000" x2="393.950000" y2="248.000000"  style="stroke:black; stroke-linecap:round; stroke-width:0.25;"/>
<line x1="224.500000" y1="360.000000" x2="393.950000" y2="360.000000"  style="stroke:black; stroke-linecap:round; stroke-width:0.25;"/>
<line x1="301.450000" y1="24.000000" x2="450.900000" y2="24.000000"  style="stroke:black; stroke-linecap:round; stroke-width:0.25;"/>
<line x1="301.450000" y1="136.000000" x2="450.900000" y2="136.000000"  style="stroke:black; stroke-linecap:round; stroke-width:0.25;"/>
<line x1="333.450000" y1="106.000000" x2="337.450000" y2="106.000000"  style="stroke:black; stroke-linecap:round; stroke-width:0.25;"/>
<line x1="333.450000" y1="218.000000" x2="337.450000" y2="218.000000"  style="stroke:black; stroke-linecap:round; stroke-width:0.25;"/>
<line x1="337.450000" y1="106.000000" x2="347.450000" y2="106.000000"  style="stroke:black; stroke-linecap:round; stroke-width:0.25;"/>
<line x1="337.450000" y1="218.000000" x2="347.450000" y2="218.000000"  style="stroke:black; stroke-linecap:round; stroke-width:0.25;"/>
<line x1="347.450000" y1="106.000000" x2="490.900000" y2="106.000000"  style="stroke:black; stroke-linecap:round; stroke-width:0.25;"/>
<line x1="347.450000" y1="218.000000" x2="490.900000" y2="218.000000"  style="stroke:black; stroke-linecap:round; stroke-width:0.25;"/>
<line x1="385.950000" y1="278.000000" x2="389.950000" y2="278.000000"  style="stroke:black; stroke-linecap:round; stroke-width:0.25;"/>
<line x1="385.950000" y1="390.000000" x2="389.950000" y2="390.000000"  style="stroke:black; stroke-linecap:round; stroke-width:0.25;"/>
<line x1="389.950000" y1="278.000000" x2="399.950000" y2="278.000000"  style="stroke:black; stroke-linecap:round; stroke-width:0.25;"/>
<line x1="389.950000" y1="390.000000" x2="399.950000" y2="390.000000"  style="stroke:black; stroke-linecap:round; stroke-width:0.25;"/>
<line x1="393.950000" y1="248.000000" x2="563.400000" y2="248.000000"  style="stroke:black; stroke-linecap:round; stroke-width:0.25;"/>
<line x1="393.950000" y1="360.000000" x2="563.400000" y2="360.000000"  style="stroke:black; stroke-linecap:round; stroke-width:0.25;"/>
<line x1="399.950000" y1="278.000000" x2="523.400000" y2="278.000000"  style="stroke:black; stroke-linecap:round; stroke-width:0.25;"/>
<line x1="399.950000" y1="390.000000" x2="523.400000" y2="390.000000"  style="stroke:black; stroke-linecap:round; stroke-width:0.25;"/>
<line x1="436.900000" y1="54.000000" x2="440.900000" y2="54.000000"  style="stroke:black; stroke-linecap:round; stroke-width:0.25;"/>
<line x1="436.900000" y1="166.000000" x2="440.900000" y2="166.000000"  style="stroke:black; stroke-linecap:round; stroke-width:0.25;"/>
<line x1="440.900000" y1="54.000000" x2="450.900000" y2="54.000000"  style="stroke:black; stroke-linecap:round; stroke-width:0.25;"/>
<line x1="440.900000" y1="166.000000" x2="450.900000" y2="166.000000"  style="stroke:black; stroke-linecap:round; stroke-width:0.25;"/>
<line x1="450.900000" y1="24.000000" x2="458.900000" y2="24.000000"  style="stroke:black; stroke-linecap:round; stroke-width:0.25;"/>
<line x1="450.900000" y1="54.000000" x2="458.900000" y2="54.000000"  style="stroke:black; stroke-linecap:round; stroke-width:0.25;"/>
<line x1="450.900000" y1="136.000000" x2="458.900000" y2="136.000000"  style="stroke:black; stroke-linecap:round; stroke-width:0.25;"/>
<line x1="450.900000" y1="166.000000" x2="458.900000" y2="166.000000"  style="stroke:black; stroke-linecap:round; stroke-width:0.25;"/>
<line x1="458.900000" y1="24.000000" x2="458.900000" y2="46.000000"  style="stroke:black; stroke-linecap:round; stroke-width:0.25;"/>
<line x1="458.900000" y1="46.000000" x2="458.900000" y2="46.000000"  style="stroke:black; stroke-linecap:round; stroke-width:0.25;"/>
<line x1="458.900000" y1="46.000000" x2="462.900000" y2="46.000000"  style="stroke:black; stroke-linecap:round; stroke-width:0.25;"/>
<line x1="458.900000" y1="54.000000" x2="462.900000" y2="54.000000"  style="stroke:black; stroke-linecap:round; stroke-width:0.25;"/>
<line x1="458.900000" y1="136.000000" x2="458.900000" y2="158.000000"  style="stroke:black; stroke-linecap:round; stroke-width:0.25;"/>
<line x1="458.900000" y1="158.000000" x2="458.900000" y2="158.000000"  style="stroke:black; stroke-linecap:round; stroke-width:0.25;"/>
<line x1="458.900000" y1="158.000000" x2="462.900000" y2="158.000000"  style="stroke:black; stroke-linecap:round; stroke-width:0.25;"/>
<line x1="458.900000" y1="166.000000" x2="462.900000" y2="166.000000"  style="stroke:black; stroke-linecap:round; stroke-width:0.25;"/>
<line x1="486.900000" y1="50.000000" x2="490.900000" y2="50.000000"  style="stroke:black; stroke-linecap:round; stroke-width:0.25;"/>
<line x1="486.900000" y1="162.000000" x2="490.900000" y2="162.000000"  style="stroke:black; stroke-linecap:round; stroke-width:0.25;"/>
<line x1="490.900000" y1="50.000000" x2="498.900000" y2="50.000000"  style="stroke:black; stroke-linecap:round; stroke-width:0.25;"/>
<line x1="490.900000" y1="80.000000" x2="498.900000" y2="80.000000"  style="stroke:black; stroke-linecap:round; stroke-width:0.25;"/>
<line x1="490.900000" y1="106.000000" x2="490.900000" y2="80.000000"  style="stroke:black; stroke-linecap:round; stroke-width:0.25;"/>
<line x1="490.900000" y1="106.000000" x2="490.900000" y2="106.000000"  style="stroke:black; stroke-linecap:round; stroke-width:0.25;"/>
<line x1="490.900000" y1="162.000000" x2="498.900000" y2="162.000000"  style="stroke:black; stroke-linecap:round; stroke-width:0.25;"/>
<line x1="490.900000" y1="192.000000" x2="498.900000" y2="192.000000"  style="stroke:black; stroke-linecap:round; stroke-width:0.25;"/>
<line x1="490.900000" y1="218.000000" x2="490.900000" y2="192.000000"  style="stroke:black; stroke-linecap:round; stroke-width:0.25;"/>
<line x1="490.900000" y1="218.000000" x2="490.900000" y2="218.000000"  style="stroke:black; stroke-linecap:round; stroke-width:0.25;"/>
<line x1="498.900000" y1="50.000000" x2="498.900000" y2="72.000000"  style="stroke:black; stroke-linecap:round; stroke-width:0.25;"/>
<line x1="498.900000" y1="72.000000" x2="498.900000" y2="72.000000"  style="stroke:black; stroke-linecap:round; stroke-width:0.25;"/>
<line x1="498.900000" y1="72.000000" x2="502.900000" y2="72.000000"  style="stroke:black; stroke-linecap:round; stroke-width:0.25;"/>
<line x1="498.900000" y1="80.000000" x2="502.900000" y2="80.000000"  style="stroke:black; stroke-linecap:round; stroke-width:0.25;"/>
<line x1="498.900000" y1="162.000000" x2="498.900000" y2="184.000000"  style="stroke:black; stroke-linecap:round; stroke-width:0.25;"/>
<line x1="498.900000" y1="184.000000" x2="498.900000" y2="184.000000"  style="stroke:black; stroke-linecap:round; stroke-width:0.25;"/>
<line x1="498.900000" y1="184.000000" x2="502.900000" y2="184.000000"  style="stroke:black; stroke-linecap:round; stroke-width:0.25;"/>
<line x1="498.900000" y1="192.000000" x2="502.900000" y2="192.000000"  style="stroke:black; stroke-linecap:round; stroke-width:0.25;"/>
<line x1="509.400000" y1="330.000000" x2="513.400000" y2="330.000000"  style="stroke:black; stroke-linecap:round; stroke-width:0.25;"/>
<line x1="509.400000" y1="442.000000" x2="513.400000" y2="442.000000"  style="stroke:black; stroke-linecap:round; stroke-width:0.25;"/>
<line x1="513.400000" y1="330.000000" x2="523.400000" y2="330.000000"  style="stroke:black; stroke-linecap:round; stroke-width:0.25;"/>
<line x1="513.400000" y1="442.000000" x2="523.400000" y2="442.000000"  style="stroke:black; stroke-linecap:round; stroke-width:0.25;"/>
<line x1="523.400000" y1="278.000000" x2="531.400000" y2="278.000000"  style="stroke:black; stroke-linecap:round; stroke-width:0.25;"/>
<line x1="523.400000" y1="308.000000" x2="531.400000" y2="308.000000"  style="stroke:black; stroke-linecap:round; stroke-width:0.25;"/>
<line x1="523.400000" y1="330.000000" x2="523.400000" y2="308.000000"  style="stroke:black; stroke-linecap:round; stroke-width:0.25;"/>
<line x1="523.400000" y1="330.000000" x2="523.400000" y2="330.000000"  style="stroke:black; stroke-linecap:round; stroke-width:0.25;"/>
<line x1="523.400000" y1="390.000000" x2="531.400000" y2="390.000000"  style="stroke:black; stroke-linecap:round; stroke-width:0.25;"/>
<line x1="523.400000" y1="420.000000" x2="531.400000" y2="420.000000"  style="stroke:black; stroke-linecap:round; stroke-width:0.25;"/>
<line x1="523.400000" y1="442.000000" x2="523.400000" y2="420.000000"  style="stroke:black; stroke-linecap:round; stroke-width:0.25;"/>
<line x1="523.400000" y1="442.000000" x2="523.400000" y2="442.000000"  style="stroke:black; stroke-linecap:round; stroke-width:0.25;"/>
<line x1="526.900000" y1="76.000000" x2="530.900000" y2="76.000000"  style="stroke:black; stroke-linecap:round; stroke-width:0.25;"/>
<line x1="526.900000" y1="188.000000" x2="530.900000" y2="188.000000"  style="stroke:black; stroke-linecap:round; stroke-width:0.25;"/>
<line x1="530.900000" y1="76.000000" x2="538.900000" y2="76.000000"  style="stroke:black; stroke-linecap:round; stroke-width:0.25;"/>
<line x1="530.900000" y1="136.000000" x2="538.900000" y2="136.000000"  style="stroke:black; stroke-linecap:round; stroke-width:0.25;"/>
<line x1="530.900000" y1="188.000000" x2="530.900000" y2="136.000000"  style="stroke:black; stroke-linecap:round; stroke-width:0.25;"/>
<line x1="530.900000" y1="188.000000" x2="530.900000" y2="188.000000"  style="stroke:black; stroke-linecap:round; stroke-width:0.25;"/>
<line x1="531.400000" y1="278.000000" x2="531.400000" y2="300.000000"  style="stroke:black; stroke-linecap:round; stroke-width:0.25;"/>
<line x1="531.400000" y1="300.000000" x2="531.400000" y2="300.000000"  style="stroke:black; stroke-linecap:round; stroke-width:0.25;"/>
<line x1="531.400000" y1="300.000000" x2="535.400000" y2="300.000000"  style="stroke:black; stroke-linecap:round; stroke-width:0.25;"/>
<line x1="531.400000" y1="308.000000" x2="535.400000" y2="308.000000"  style="stroke:black; stroke-linecap:round; stroke-width:0.25;"/>
<line x1="531.400000" y1="390.000000" x2="531.400000" y2="412.000000"  style="stroke:black; stroke-linecap:round; stroke-width:0.25;"/>
<line x1="531.400000" y1="412.000000" x2="531.400000" y2="412.000000"  style="stroke:black; stroke-linecap:round; stroke-width:0.25;"/>
<line x1="531.400000" y1="412.000000" x2="535.400000" y2="412.000000"  style="stroke:black; stroke-linecap:round; stroke-width:0.25;"/>
<line x1="531.400000" y1="420.000000" x2="535.400000" y2="420.000000"  style="stroke:black; stroke-linecap:round; stroke-width:0.25;"/>
<line x1="538.900000" y1="76.000000" x2="538.900000" y2="128.000000"  style="stroke:black; stroke-linecap:round; stroke-width:0.25;"/>
<line x1="538.900000" y1="128.000000" x2="538.900000" y2="128.000000"  style="stroke:black; stroke-linecap:round; stroke-width:0.25;"/>
<line x1="538.900000" y1="128.000000" x2="542.900000" y2="128.000000"  style="stroke:black; stroke-linecap:round; stroke-width:0.25;"/>
<line x1="538.900000" y1="136.000000" x2="542.900000" y2="136.000000"  style="stroke:black; stroke-linecap:round; stroke-width:0.25;"/>
<line x1="559.400000" y1="304.000000" x2="563.400000" y2="304.000000"  style="stroke:black; stroke-linecap:round; stroke-width:0.25;"/>
<line x1="559.400000" y1="416.000000" x2="563.400000" y2="416.000000"  style="stroke:black; stroke-linecap:round; stroke-width:0.25;"/>
<line x1="563.400000" y1="248.000000" x2="571.400000" y2="248.000000"  style="stroke:black; stroke-linecap:round; stroke-width:0.25;"/>
<line x1="563.400000" y1="304.000000" x2="571.400000" y2="304.000000"  style="stroke:black; stroke-linecap:round; stroke-width:0.25;"/>
<line x1="563.400000" y1="360.000000" x2="571.400000" y2="360.000000"  style="stroke:black; stroke-linecap:round; stroke-width:0.25;"/>
<line x1="563.400000" y1="416.000000" x2="571.400000" y2="416.000000"  style="stroke:black; stroke-linecap:round; stroke-width:0.25;"/>
<line x1="571.400000" y1="248.000000" x2="571.400000" y2="296.000000"  style="stroke:black; stroke-linecap:round; stroke-width:0.25;"/>
<line x1="571.400000" y1="296.000000" x2="571.400000" y2="296.000000"  style="stroke:black; stroke-linecap:round; stroke-width:0.25;"/>
<line x1="571.400000" y1="296.000000" x2="575.400000" y2="296.000000"  style="stroke:black; stroke-linecap:round; stroke-width:0.25;"/>
<line x1="571.400000" y1="304.000000" x2="575.400000" y2="304.000000"  style="stroke:black; stroke-linecap:round; stroke-width:0.25;"/>
<line x1="571.400000" y1="360.000000" x2="571.400000" y2="408.000000"  style="stroke:black; stroke-linecap:round; stroke-width:0.25;"/>
<line x1="571.400000" y1="408.000000" x2="571.400000" y2="408.000000"  style="stroke:black; stroke-linecap:round; stroke-width:0.25;"/>
<line x1="571.400000" y1="408.000000" x2="575.400000" y2="408.000000"  style="stroke:black; stroke-linecap:round; stroke-width:0.25;"/>
<line x1="571.400000" y1="416.000000" x2="575.400000" y2="416.000000"  style="stroke:black; stroke-linecap:round; stroke-width:0.25;"/>
<line x1="599.400000" y1="300.000000" x2="603.400000" y2="300.000000"  style="stroke:black; stroke-linecap:round; stroke-width:0.25;"/>
<line x1="599.400000" y1="412.000000" x2="603.400000" y2="412.000000"  style="stroke:black; stroke-linecap:round; stroke-width:0.25;"/>
<line x1="603.400000" y1="300.000000" x2="675.900000" y2="300.000000"  style="stroke:black; stroke-linecap:round; stroke-width:0.25;"/>
<line x1="603.400000" y1="412.000000" x2="675.900000" y2="412.000000"  style="stroke:black; stroke-linecap:round; stroke-width:0.25;"/>
<line x1="671.900000" y1="128.000000" x2="675.900000" y2="128.000000"  style="stroke:black; stroke-linecap:round; stroke-width:0.25;"/>
<line x1="671.900000" y1="136.000000" x2="675.900000" y2="136.000000"  style="stroke:black; stroke-linecap:round; stroke-width:0.25;"/>
<line x1="675.900000" y1="128.000000" x2="791.900000" y2="240.000000"  style="stroke:black; stroke-linecap:round; stroke-width:0.25;"/>
<line x1="675.900000" y1="136.000000" x2="791.900000" y2="248.000000"  style="stroke:black; stroke-linecap:round; stroke-width:0.25;"/>
<line x1="675.900000" y1="300.000000" x2="791.900000" y2="240.000000"  style="stroke:black; stroke-linecap:round; stroke-width:0.25;"/>
<line x1="675.900000" y1="412.000000" x2="791.900000" y2="248.000000"  style="stroke:black; stroke-linecap:round; stroke-width:0.25;"/>
<line x1="791.900000" y1="240.000000" x2="795.900000" y2="240.000000"  style="stroke:black; stroke-linecap:round; stroke-width:0.25;"/>
<line x1="791.900000" y1="248.000000" x2="795.900000" y2="248.000000"  style="stroke:black; stroke-linecap:round; stroke-width:0.25;"/>
<line x1="795.900000" y1="240.000000" x2="799.900000" y2="240.000000"  style="stroke:black; stroke-linecap:round; stroke-width:0.25;"/>
<line x1="795.900000" y1="248.000000" x2="799.900000" y2="248.000000"  style="stroke:black; stroke-linecap:round; stroke-width:0.25;"/>
<line x1="799.900000" y1="240.000000" x2="799.900000" y2="240.000000"  style="stroke:black; stroke-linecap:round; stroke-width:0.25;"/>
<line x1="799.900000" y1="240.000000" x2="803.900000" y2="240.000000"  style="stroke:black; stroke-linecap:round; stroke-width:0.25;"/>
<line x1="799.900000" y1="248.000000" x2="799.900000" y2="248.000000"  style="stroke:black; stroke-linecap:round; stroke-width:0.25;"/>
<line x1="799.900000" y1="248.000000" x2="803.900000" y2="248.000000"  style="stroke:black; stroke-linecap:round; stroke-width:0.25;"/>
<line x1="803.900000" y1="240.000000" x2="807.900000" y2="240.000000"  style="stroke:black; stroke-linecap:round; stroke-width:0.25;"/>
<line x1="803.900000" y1="248.000000" x2="807.900000" y2="248.000000"  style="stroke:black; stroke-linecap:round; stroke-width:0.25;"/>
<line x1="807.900000" y1="240.000000" x2="817.900000" y2="240.000000"  style="stroke:black; stroke-linecap:round; stroke-width:0.25;"/>
<line x1="807.900000" y1="248.000000" x2="817.900000" y2="248.000000"  style="stroke:black; stroke-linecap:round; stroke-width:0.25;"/>
</svg>
