<?xml version="1.0"?>
<svg xmlns="http://www.w3.org/2000/svg" xmlns:xlink="http://www.w3.org/1999/xlink" viewBox="0 0 356.600000 188.000000" width="178.300000mm" height="94.000000mm" version="1.1">
<a xlink:href="delay-0x7f8431ebe280.svg">
<rect x="1.000000" y="1.000000" width="355.600000" height="187.000000" rx="0" ry="0" style="stroke:none;fill:#cccccc;"/>
<rect x="0.000000" y="0.000000" width="355.600000" height="187.000000" rx="0" ry="0" style="stroke:none;fill:#ffffff;"/>
</a>
<text x="10.000000" y="7.000000" font-family="Arial" font-size="7"></text>
<rect x="25.000000" y="25.000000" width="180.600000" height="24.000000" rx="0" ry="0" style="stroke:none;fill:#cccccc;"/>
<rect x="24.000000" y="24.000000" width="180.600000" height="24.000000" rx="0" ry="0" style="stroke:none;fill:#477881;"/>
<text x="114.300000" y="38.000000" font-family="Arial" font-size="7" text-anchor="middle" fill="#FFFFFF">vslider(Stereo, 0.5f, 0.0f, 1.0f, 0.01f)</text>
<circle cx="26.000000" cy="26.000000" r="1"/>
<rect x="103.300000" y="57.000000" width="24.000000" height="24.000000" rx="0" ry="0" style="stroke:none;fill:#cccccc;"/>
<rect x="102.300000" y="56.000000" width="24.000000" height="24.000000" rx="0" ry="0" style="stroke:none;fill:#f44800;"/>
<text x="114.300000" y="70.000000" font-family="Arial" font-size="7" text-anchor="middle" fill="#FFFFFF">46</text>
<circle cx="104.300000" cy="58.000000" r="1"/>
<rect x="221.600000" y="41.000000" width="24.000000" height="24.000000" rx="0" ry="0" style="stroke:none;fill:#cccccc;"/>
<rect x="220.600000" y="40.000000" width="24.000000" height="24.000000" rx="0" ry="0" style="stroke:none;fill:#4B71A1;"/>
<text x="232.600000" y="54.000000" font-family="Arial" font-size="7" text-anchor="middle" fill="#FFFFFF">*</text>
<circle cx="222.600000" cy="42.000000" r="1"/>
<line x1="217.600000" y1="47.000000" x2="220.600000" y2="48.000000"  transform="rotate(0.000000,220.600000,48.000000)" style="stroke: black; stroke-width:0.25;"/>
<line x1="217.600000" y1="49.000000" x2="220.600000" y2="48.000000"  transform="rotate(0.000000,220.600000,48.000000)" style="stroke: black; stroke-width:0.25;"/>
<line x1="217.600000" y1="55.000000" x2="220.600000" y2="56.000000"  transform="rotate(0.000000,220.600000,56.000000)" style="stroke: black; stroke-width:0.25;"/>
<line x1="217.600000" y1="57.000000" x2="220.600000" y2="56.000000"  transform="rotate(0.000000,220.600000,56.000000)" style="stroke: black; stroke-width:0.25;"/>
<a xlink:href="SR-0x7f843101db80.svg">
<rect x="123.300000" y="89.000000" width="24.000000" height="24.000000" rx="0" ry="0" style="stroke:none;fill:#cccccc;"/>
<rect x="122.300000" y="88.000000" width="24.000000" height="24.000000" rx="0" ry="0" style="stroke:none;fill:#003366;"/>
</a>
<a xlink:href="SR-0x7f843101db80.svg">
<text x="134.300000" y="102.000000" font-family="Arial" font-size="7" text-anchor="middle" fill="#FFFFFF">SR</text>
</a>
<circle cx="124.300000" cy="90.000000" r="1"/>
<rect x="261.600000" y="57.000000" width="24.000000" height="24.000000" rx="0" ry="0" style="stroke:none;fill:#cccccc;"/>
<rect x="260.600000" y="56.000000" width="24.000000" height="24.000000" rx="0" ry="0" style="stroke:none;fill:#4B71A1;"/>
<text x="272.600000" y="70.000000" font-family="Arial" font-size="7" text-anchor="middle" fill="#FFFFFF">*</text>
<circle cx="262.600000" cy="58.000000" r="1"/>
<line x1="257.600000" y1="63.000000" x2="260.600000" y2="64.000000"  transform="rotate(0.000000,260.600000,64.000000)" style="stroke: black; stroke-width:0.25;"/>
<line x1="257.600000" y1="65.000000" x2="260.600000" y2="64.000000"  transform="rotate(0.000000,260.600000,64.000000)" style="stroke: black; stroke-width:0.25;"/>
<line x1="257.600000" y1="71.000000" x2="260.600000" y2="72.000000"  transform="rotate(0.000000,260.600000,72.000000)" style="stroke: black; stroke-width:0.25;"/>
<line x1="257.600000" y1="73.000000" x2="260.600000" y2="72.000000"  transform="rotate(0.000000,260.600000,72.000000)" style="stroke: black; stroke-width:0.25;"/>
<rect x="142.400000" y="131.000000" width="25.800000" height="24.000000" rx="0" ry="0" style="stroke:none;fill:#cccccc;"/>
<rect x="141.400000" y="130.000000" width="25.800000" height="24.000000" rx="0" ry="0" style="stroke:none;fill:#f44800;"/>
<text x="154.300000" y="144.000000" font-family="Arial" font-size="7" text-anchor="middle" fill="#FFFFFF">44100</text>
<circle cx="143.400000" cy="132.000000" r="1"/>
<line x1="132.400000" y1="121.000000" x2="132.400000" y2="163.000000"  style="stroke: black; stroke-linecap:round; stroke-width:0.25; stroke-dasharray:3,3;"/>
<line x1="132.400000" y1="163.000000" x2="176.200000" y2="163.000000"  style="stroke: black; stroke-linecap:round; stroke-width:0.25; stroke-dasharray:3,3;"/>
<line x1="176.200000" y1="163.000000" x2="176.200000" y2="121.000000"  style="stroke: black; stroke-linecap:round; stroke-width:0.25; stroke-dasharray:3,3;"/>
<line x1="132.400000" y1="121.000000" x2="137.400000" y2="121.000000"  style="stroke: black; stroke-linecap:round; stroke-width:0.25; stroke-dasharray:3,3;"/>
<line x1="163.200000" y1="121.000000" x2="176.200000" y2="121.000000"  style="stroke: black; stroke-linecap:round; stroke-width:0.25; stroke-dasharray:3,3;"/>
<text x="137.400000" y="123.000000" font-family="Arial" font-size="7">origSR</text>
<rect x="301.600000" y="83.000000" width="24.000000" height="24.000000" rx="0" ry="0" style="stroke:none;fill:#cccccc;"/>
<rect x="300.600000" y="82.000000" width="24.000000" height="24.000000" rx="0" ry="0" style="stroke:none;fill:#4B71A1;"/>
<text x="312.600000" y="96.000000" font-family="Arial" font-size="7" text-anchor="middle" fill="#FFFFFF">/</text>
<circle cx="302.600000" cy="84.000000" r="1"/>
<line x1="297.600000" y1="89.000000" x2="300.600000" y2="90.000000"  transform="rotate(0.000000,300.600000,90.000000)" style="stroke: black; stroke-width:0.25;"/>
<line x1="297.600000" y1="91.000000" x2="300.600000" y2="90.000000"  transform="rotate(0.000000,300.600000,90.000000)" style="stroke: black; stroke-width:0.25;"/>
<line x1="297.600000" y1="97.000000" x2="300.600000" y2="98.000000"  transform="rotate(0.000000,300.600000,98.000000)" style="stroke: black; stroke-width:0.25;"/>
<line x1="297.600000" y1="99.000000" x2="300.600000" y2="98.000000"  transform="rotate(0.000000,300.600000,98.000000)" style="stroke: black; stroke-width:0.25;"/>
<line x1="15.000000" y1="15.000000" x2="15.000000" y2="173.000000"  style="stroke: black; stroke-linecap:round; stroke-width:0.25; stroke-dasharray:3,3;"/>
<line x1="15.000000" y1="173.000000" x2="341.600000" y2="173.000000"  style="stroke: black; stroke-linecap:round; stroke-width:0.25; stroke-dasharray:3,3;"/>
<line x1="341.600000" y1="173.000000" x2="341.600000" y2="15.000000"  style="stroke: black; stroke-linecap:round; stroke-width:0.25; stroke-dasharray:3,3;"/>
<line x1="15.000000" y1="15.000000" x2="20.000000" y2="15.000000"  style="stroke: black; stroke-linecap:round; stroke-width:0.25; stroke-dasharray:3,3;"/>
<line x1="58.700000" y1="15.000000" x2="341.600000" y2="15.000000"  style="stroke: black; stroke-linecap:round; stroke-width:0.25; stroke-dasharray:3,3;"/>
<text x="20.000000" y="17.000000" font-family="Arial" font-size="7">spatSpread</text>
<line x1="343.600000" y1="93.000000" x2="346.600000" y2="94.000000"  transform="rotate(0.000000,346.600000,94.000000)" style="stroke: black; stroke-width:0.25;"/>
<line x1="343.600000" y1="95.000000" x2="346.600000" y2="94.000000"  transform="rotate(0.000000,346.600000,94.000000)" style="stroke: black; stroke-width:0.25;"/>
<line x1="126.300000" y1="68.000000" x2="130.300000" y2="68.000000"  style="stroke:black; stroke-linecap:round; stroke-width:0.25;"/>
<line x1="130.300000" y1="68.000000" x2="208.600000" y2="68.000000"  style="stroke:black; stroke-linecap:round; stroke-width:0.25;"/>
<line x1="146.300000" y1="100.000000" x2="150.300000" y2="100.000000"  style="stroke:black; stroke-linecap:round; stroke-width:0.25;"/>
<line x1="150.300000" y1="100.000000" x2="248.600000" y2="100.000000"  style="stroke:black; stroke-linecap:round; stroke-width:0.25;"/>
<line x1="167.200000" y1="142.000000" x2="171.200000" y2="142.000000"  style="stroke:black; stroke-linecap:round; stroke-width:0.25;"/>
<line x1="171.200000" y1="142.000000" x2="181.200000" y2="142.000000"  style="stroke:black; stroke-linecap:round; stroke-width:0.25;"/>
<line x1="181.200000" y1="142.000000" x2="288.600000" y2="142.000000"  style="stroke:black; stroke-linecap:round; stroke-width:0.25;"/>
<line x1="204.600000" y1="36.000000" x2="208.600000" y2="36.000000"  style="stroke:black; stroke-linecap:round; stroke-width:0.25;"/>
<line x1="208.600000" y1="36.000000" x2="216.600000" y2="36.000000"  style="stroke:black; stroke-linecap:round; stroke-width:0.25;"/>
<line x1="208.600000" y1="56.000000" x2="216.600000" y2="56.000000"  style="stroke:black; stroke-linecap:round; stroke-width:0.25;"/>
<line x1="208.600000" y1="68.000000" x2="208.600000" y2="56.000000"  style="stroke:black; stroke-linecap:round; stroke-width:0.25;"/>
<line x1="208.600000" y1="68.000000" x2="208.600000" y2="68.000000"  style="stroke:black; stroke-linecap:round; stroke-width:0.25;"/>
<line x1="216.600000" y1="36.000000" x2="216.600000" y2="48.000000"  style="stroke:black; stroke-linecap:round; stroke-width:0.25;"/>
<line x1="216.600000" y1="48.000000" x2="216.600000" y2="48.000000"  style="stroke:black; stroke-linecap:round; stroke-width:0.25;"/>
<line x1="216.600000" y1="48.000000" x2="220.600000" y2="48.000000"  style="stroke:black; stroke-linecap:round; stroke-width:0.25;"/>
<line x1="216.600000" y1="56.000000" x2="220.600000" y2="56.000000"  style="stroke:black; stroke-linecap:round; stroke-width:0.25;"/>
<line x1="244.600000" y1="52.000000" x2="248.600000" y2="52.000000"  style="stroke:black; stroke-linecap:round; stroke-width:0.25;"/>
<line x1="248.600000" y1="52.000000" x2="256.600000" y2="52.000000"  style="stroke:black; stroke-linecap:round; stroke-width:0.25;"/>
<line x1="248.600000" y1="72.000000" x2="256.600000" y2="72.000000"  style="stroke:black; stroke-linecap:round; stroke-width:0.25;"/>
<line x1="248.600000" y1="100.000000" x2="248.600000" y2="72.000000"  style="stroke:black; stroke-linecap:round; stroke-width:0.25;"/>
<line x1="248.600000" y1="100.000000" x2="248.600000" y2="100.000000"  style="stroke:black; stroke-linecap:round; stroke-width:0.25;"/>
<line x1="256.600000" y1="52.000000" x2="256.600000" y2="64.000000"  style="stroke:black; stroke-linecap:round; stroke-width:0.25;"/>
<line x1="256.600000" y1="64.000000" x2="256.600000" y2="64.000000"  style="stroke:black; stroke-linecap:round; stroke-width:0.25;"/>
<line x1="256.600000" y1="64.000000" x2="260.600000" y2="64.000000"  style="stroke:black; stroke-linecap:round; stroke-width:0.25;"/>
<line x1="256.600000" y1="72.000000" x2="260.600000" y2="72.000000"  style="stroke:black; stroke-linecap:round; stroke-width:0.25;"/>
<line x1="284.600000" y1="68.000000" x2="288.600000" y2="68.000000"  style="stroke:black; stroke-linecap:round; stroke-width:0.25;"/>
<line x1="288.600000" y1="68.000000" x2="296.600000" y2="68.000000"  style="stroke:black; stroke-linecap:round; stroke-width:0.25;"/>
<line x1="288.600000" y1="98.000000" x2="296.600000" y2="98.000000"  style="stroke:black; stroke-linecap:round; stroke-width:0.25;"/>
<line x1="288.600000" y1="142.000000" x2="288.600000" y2="98.000000"  style="stroke:black; stroke-linecap:round; stroke-width:0.25;"/>
<line x1="288.600000" y1="142.000000" x2="288.600000" y2="142.000000"  style="stroke:black; stroke-linecap:round; stroke-width:0.25;"/>
<line x1="296.600000" y1="68.000000" x2="296.600000" y2="90.000000"  style="stroke:black; stroke-linecap:round; stroke-width:0.25;"/>
<line x1="296.600000" y1="90.000000" x2="296.600000" y2="90.000000"  style="stroke:black; stroke-linecap:round; stroke-width:0.25;"/>
<line x1="296.600000" y1="90.000000" x2="300.600000" y2="90.000000"  style="stroke:black; stroke-linecap:round; stroke-width:0.25;"/>
<line x1="296.600000" y1="98.000000" x2="300.600000" y2="98.000000"  style="stroke:black; stroke-linecap:round; stroke-width:0.25;"/>
<line x1="324.600000" y1="94.000000" x2="328.600000" y2="94.000000"  style="stroke:black; stroke-linecap:round; stroke-width:0.25;"/>
<line x1="328.600000" y1="94.000000" x2="328.600000" y2="94.000000"  style="stroke:black; stroke-linecap:round; stroke-width:0.25;"/>
<line x1="328.600000" y1="94.000000" x2="332.600000" y2="94.000000"  style="stroke:black; stroke-linecap:round; stroke-width:0.25;"/>
<line x1="332.600000" y1="94.000000" x2="336.600000" y2="94.000000"  style="stroke:black; stroke-linecap:round; stroke-width:0.25;"/>
<line x1="336.600000" y1="94.000000" x2="346.600000" y2="94.000000"  style="stroke:black; stroke-linecap:round; stroke-width:0.25;"/>
</svg>
