<?xml version="1.0"?>
<svg xmlns="http://www.w3.org/2000/svg" xmlns:xlink="http://www.w3.org/1999/xlink" viewBox="0 0 553.600000 188.000000" width="276.800000mm" height="94.000000mm" version="1.1">
<a xlink:href="modeFilter-0x7fd1101eb660.svg">
<rect x="1.000000" y="1.000000" width="552.600000" height="187.000000" rx="0" ry="0" style="stroke:none;fill:#cccccc;"/>
<rect x="0.000000" y="0.000000" width="552.600000" height="187.000000" rx="0" ry="0" style="stroke:none;fill:#ffffff;"/>
</a>
<text x="10.000000" y="7.000000" font-family="Arial" font-size="7"></text>
<rect x="210.200000" y="25.000000" width="64.500000" height="24.000000" rx="0" ry="0" style="stroke:none;fill:#cccccc;"/>
<rect x="209.200000" y="24.000000" width="64.500000" height="24.000000" rx="0" ry="0" style="stroke:none;fill:#4B71A1;"/>
<text x="241.450000" y="38.000000" font-family="Arial" font-size="7" text-anchor="middle" fill="#FFFFFF">waveform{...}</text>
<circle cx="211.200000" cy="26.000000" r="1"/>
<rect x="35.000000" y="67.000000" width="270.900000" height="24.000000" rx="0" ry="0" style="stroke:none;fill:#cccccc;"/>
<rect x="34.000000" y="66.000000" width="270.900000" height="24.000000" rx="0" ry="0" style="stroke:none;fill:#477881;"/>
<text x="169.450000" y="80.000000" font-family="Arial" font-size="7" text-anchor="middle" fill="#FFFFFF">nentry(v:standardBell/strikePosition, 0.0f, 0.0f, 4.0f, 1.0f)</text>
<circle cx="36.000000" cy="68.000000" r="1"/>
<line x1="25.000000" y1="57.000000" x2="25.000000" y2="99.000000"  style="stroke: black; stroke-linecap:round; stroke-width:0.25; stroke-dasharray:3,3;"/>
<line x1="25.000000" y1="99.000000" x2="313.900000" y2="99.000000"  style="stroke: black; stroke-linecap:round; stroke-width:0.25; stroke-dasharray:3,3;"/>
<line x1="313.900000" y1="99.000000" x2="313.900000" y2="57.000000"  style="stroke: black; stroke-linecap:round; stroke-width:0.25; stroke-dasharray:3,3;"/>
<line x1="25.000000" y1="57.000000" x2="30.000000" y2="57.000000"  style="stroke: black; stroke-linecap:round; stroke-width:0.25; stroke-dasharray:3,3;"/>
<line x1="81.600000" y1="57.000000" x2="313.900000" y2="57.000000"  style="stroke: black; stroke-linecap:round; stroke-width:0.25; stroke-dasharray:3,3;"/>
<text x="30.000000" y="59.000000" font-family="Arial" font-size="7">strikePosition</text>
<rect x="323.900000" y="67.000000" width="24.000000" height="24.000000" rx="0" ry="0" style="stroke:none;fill:#cccccc;"/>
<rect x="322.900000" y="66.000000" width="24.000000" height="24.000000" rx="0" ry="0" style="stroke:none;fill:#4B71A1;"/>
<text x="334.900000" y="80.000000" font-family="Arial" font-size="7" text-anchor="middle" fill="#FFFFFF">int</text>
<circle cx="324.900000" cy="68.000000" r="1"/>
<line x1="319.900000" y1="77.000000" x2="322.900000" y2="78.000000"  transform="rotate(0.000000,322.900000,78.000000)" style="stroke: black; stroke-width:0.25;"/>
<line x1="319.900000" y1="79.000000" x2="322.900000" y2="78.000000"  transform="rotate(0.000000,322.900000,78.000000)" style="stroke: black; stroke-width:0.25;"/>
<rect x="174.450000" y="109.000000" width="24.000000" height="24.000000" rx="0" ry="0" style="stroke:none;fill:#cccccc;"/>
<rect x="173.450000" y="108.000000" width="24.000000" height="24.000000" rx="0" ry="0" style="stroke:none;fill:#f44800;"/>
<text x="185.450000" y="122.000000" font-family="Arial" font-size="7" text-anchor="middle" fill="#FFFFFF">50</text>
<circle cx="175.450000" cy="110.000000" r="1"/>
<rect x="363.900000" y="83.000000" width="24.000000" height="24.000000" rx="0" ry="0" style="stroke:none;fill:#cccccc;"/>
<rect x="362.900000" y="82.000000" width="24.000000" height="24.000000" rx="0" ry="0" style="stroke:none;fill:#4B71A1;"/>
<text x="374.900000" y="96.000000" font-family="Arial" font-size="7" text-anchor="middle" fill="#FFFFFF">*</text>
<circle cx="364.900000" cy="84.000000" r="1"/>
<line x1="359.900000" y1="89.000000" x2="362.900000" y2="90.000000"  transform="rotate(0.000000,362.900000,90.000000)" style="stroke: black; stroke-width:0.25;"/>
<line x1="359.900000" y1="91.000000" x2="362.900000" y2="90.000000"  transform="rotate(0.000000,362.900000,90.000000)" style="stroke: black; stroke-width:0.25;"/>
<line x1="359.900000" y1="97.000000" x2="362.900000" y2="98.000000"  transform="rotate(0.000000,362.900000,98.000000)" style="stroke: black; stroke-width:0.25;"/>
<line x1="359.900000" y1="99.000000" x2="362.900000" y2="98.000000"  transform="rotate(0.000000,362.900000,98.000000)" style="stroke: black; stroke-width:0.25;"/>
<rect x="194.450000" y="141.000000" width="24.000000" height="24.000000" rx="0" ry="0" style="stroke:none;fill:#cccccc;"/>
<rect x="193.450000" y="140.000000" width="24.000000" height="24.000000" rx="0" ry="0" style="stroke:none;fill:#f44800;"/>
<text x="205.450000" y="154.000000" font-family="Arial" font-size="7" text-anchor="middle" fill="#FFFFFF">8</text>
<circle cx="195.450000" cy="142.000000" r="1"/>
<rect x="403.900000" y="99.000000" width="24.000000" height="24.000000" rx="0" ry="0" style="stroke:none;fill:#cccccc;"/>
<rect x="402.900000" y="98.000000" width="24.000000" height="24.000000" rx="0" ry="0" style="stroke:none;fill:#4B71A1;"/>
<text x="414.900000" y="112.000000" font-family="Arial" font-size="7" text-anchor="middle" fill="#FFFFFF">+</text>
<circle cx="404.900000" cy="100.000000" r="1"/>
<line x1="399.900000" y1="105.000000" x2="402.900000" y2="106.000000"  transform="rotate(0.000000,402.900000,106.000000)" style="stroke: black; stroke-width:0.25;"/>
<line x1="399.900000" y1="107.000000" x2="402.900000" y2="106.000000"  transform="rotate(0.000000,402.900000,106.000000)" style="stroke: black; stroke-width:0.25;"/>
<line x1="399.900000" y1="113.000000" x2="402.900000" y2="114.000000"  transform="rotate(0.000000,402.900000,114.000000)" style="stroke: black; stroke-width:0.25;"/>
<line x1="399.900000" y1="115.000000" x2="402.900000" y2="114.000000"  transform="rotate(0.000000,402.900000,114.000000)" style="stroke: black; stroke-width:0.25;"/>
<rect x="435.900000" y="99.000000" width="24.000000" height="24.000000" rx="0" ry="0" style="stroke:none;fill:#cccccc;"/>
<rect x="434.900000" y="98.000000" width="24.000000" height="24.000000" rx="0" ry="0" style="stroke:none;fill:#4B71A1;"/>
<text x="446.900000" y="112.000000" font-family="Arial" font-size="7" text-anchor="middle" fill="#FFFFFF">int</text>
<circle cx="436.900000" cy="100.000000" r="1"/>
<line x1="431.900000" y1="109.000000" x2="434.900000" y2="110.000000"  transform="rotate(0.000000,434.900000,110.000000)" style="stroke: black; stroke-width:0.25;"/>
<line x1="431.900000" y1="111.000000" x2="434.900000" y2="110.000000"  transform="rotate(0.000000,434.900000,110.000000)" style="stroke: black; stroke-width:0.25;"/>
<rect x="483.900000" y="83.000000" width="38.700000" height="24.000000" rx="0" ry="0" style="stroke:none;fill:#cccccc;"/>
<rect x="482.900000" y="82.000000" width="38.700000" height="24.000000" rx="0" ry="0" style="stroke:none;fill:#4B71A1;"/>
<text x="502.250000" y="96.000000" font-family="Arial" font-size="7" text-anchor="middle" fill="#FFFFFF">rdtable</text>
<circle cx="484.900000" cy="84.000000" r="1"/>
<line x1="479.900000" y1="85.000000" x2="482.900000" y2="86.000000"  transform="rotate(0.000000,482.900000,86.000000)" style="stroke: black; stroke-width:0.25;"/>
<line x1="479.900000" y1="87.000000" x2="482.900000" y2="86.000000"  transform="rotate(0.000000,482.900000,86.000000)" style="stroke: black; stroke-width:0.25;"/>
<line x1="479.900000" y1="93.000000" x2="482.900000" y2="94.000000"  transform="rotate(0.000000,482.900000,94.000000)" style="stroke: black; stroke-width:0.25;"/>
<line x1="479.900000" y1="95.000000" x2="482.900000" y2="94.000000"  transform="rotate(0.000000,482.900000,94.000000)" style="stroke: black; stroke-width:0.25;"/>
<line x1="479.900000" y1="101.000000" x2="482.900000" y2="102.000000"  transform="rotate(0.000000,482.900000,102.000000)" style="stroke: black; stroke-width:0.25;"/>
<line x1="479.900000" y1="103.000000" x2="482.900000" y2="102.000000"  transform="rotate(0.000000,482.900000,102.000000)" style="stroke: black; stroke-width:0.25;"/>
<line x1="15.000000" y1="15.000000" x2="15.000000" y2="173.000000"  style="stroke: black; stroke-linecap:round; stroke-width:0.25; stroke-dasharray:3,3;"/>
<line x1="15.000000" y1="173.000000" x2="538.600000" y2="173.000000"  style="stroke: black; stroke-linecap:round; stroke-width:0.25; stroke-dasharray:3,3;"/>
<line x1="538.600000" y1="173.000000" x2="538.600000" y2="15.000000"  style="stroke: black; stroke-linecap:round; stroke-width:0.25; stroke-dasharray:3,3;"/>
<line x1="15.000000" y1="15.000000" x2="20.000000" y2="15.000000"  style="stroke: black; stroke-linecap:round; stroke-width:0.25; stroke-dasharray:3,3;"/>
<line x1="129.650000" y1="15.000000" x2="538.600000" y2="15.000000"  style="stroke: black; stroke-linecap:round; stroke-width:0.25; stroke-dasharray:3,3;"/>
<text x="20.000000" y="17.000000" font-family="Arial" font-size="7">modesGains(ne... 1.0f) : int)(8)</text>
<line x1="540.600000" y1="93.000000" x2="543.600000" y2="94.000000"  transform="rotate(0.000000,543.600000,94.000000)" style="stroke: black; stroke-width:0.25;"/>
<line x1="540.600000" y1="95.000000" x2="543.600000" y2="94.000000"  transform="rotate(0.000000,543.600000,94.000000)" style="stroke: black; stroke-width:0.25;"/>
<line x1="197.450000" y1="120.000000" x2="201.450000" y2="120.000000"  style="stroke:black; stroke-linecap:round; stroke-width:0.25;"/>
<line x1="201.450000" y1="120.000000" x2="350.900000" y2="120.000000"  style="stroke:black; stroke-linecap:round; stroke-width:0.25;"/>
<line x1="217.450000" y1="152.000000" x2="221.450000" y2="152.000000"  style="stroke:black; stroke-linecap:round; stroke-width:0.25;"/>
<line x1="221.450000" y1="152.000000" x2="390.900000" y2="152.000000"  style="stroke:black; stroke-linecap:round; stroke-width:0.25;"/>
<line x1="273.700000" y1="32.000000" x2="277.700000" y2="32.000000"  style="stroke:black; stroke-linecap:round; stroke-width:0.25;"/>
<line x1="273.700000" y1="40.000000" x2="277.700000" y2="40.000000"  style="stroke:black; stroke-linecap:round; stroke-width:0.25;"/>
<line x1="277.700000" y1="32.000000" x2="462.900000" y2="32.000000"  style="stroke:black; stroke-linecap:round; stroke-width:0.25;"/>
<line x1="277.700000" y1="40.000000" x2="462.900000" y2="40.000000"  style="stroke:black; stroke-linecap:round; stroke-width:0.25;"/>
<line x1="304.900000" y1="78.000000" x2="308.900000" y2="78.000000"  style="stroke:black; stroke-linecap:round; stroke-width:0.25;"/>
<line x1="308.900000" y1="78.000000" x2="318.900000" y2="78.000000"  style="stroke:black; stroke-linecap:round; stroke-width:0.25;"/>
<line x1="318.900000" y1="78.000000" x2="318.900000" y2="78.000000"  style="stroke:black; stroke-linecap:round; stroke-width:0.25;"/>
<line x1="318.900000" y1="78.000000" x2="322.900000" y2="78.000000"  style="stroke:black; stroke-linecap:round; stroke-width:0.25;"/>
<line x1="346.900000" y1="78.000000" x2="350.900000" y2="78.000000"  style="stroke:black; stroke-linecap:round; stroke-width:0.25;"/>
<line x1="350.900000" y1="78.000000" x2="358.900000" y2="78.000000"  style="stroke:black; stroke-linecap:round; stroke-width:0.25;"/>
<line x1="350.900000" y1="98.000000" x2="358.900000" y2="98.000000"  style="stroke:black; stroke-linecap:round; stroke-width:0.25;"/>
<line x1="350.900000" y1="120.000000" x2="350.900000" y2="98.000000"  style="stroke:black; stroke-linecap:round; stroke-width:0.25;"/>
<line x1="350.900000" y1="120.000000" x2="350.900000" y2="120.000000"  style="stroke:black; stroke-linecap:round; stroke-width:0.25;"/>
<line x1="358.900000" y1="78.000000" x2="358.900000" y2="90.000000"  style="stroke:black; stroke-linecap:round; stroke-width:0.25;"/>
<line x1="358.900000" y1="90.000000" x2="358.900000" y2="90.000000"  style="stroke:black; stroke-linecap:round; stroke-width:0.25;"/>
<line x1="358.900000" y1="90.000000" x2="362.900000" y2="90.000000"  style="stroke:black; stroke-linecap:round; stroke-width:0.25;"/>
<line x1="358.900000" y1="98.000000" x2="362.900000" y2="98.000000"  style="stroke:black; stroke-linecap:round; stroke-width:0.25;"/>
<line x1="386.900000" y1="94.000000" x2="390.900000" y2="94.000000"  style="stroke:black; stroke-linecap:round; stroke-width:0.25;"/>
<line x1="390.900000" y1="94.000000" x2="398.900000" y2="94.000000"  style="stroke:black; stroke-linecap:round; stroke-width:0.25;"/>
<line x1="390.900000" y1="114.000000" x2="398.900000" y2="114.000000"  style="stroke:black; stroke-linecap:round; stroke-width:0.25;"/>
<line x1="390.900000" y1="152.000000" x2="390.900000" y2="114.000000"  style="stroke:black; stroke-linecap:round; stroke-width:0.25;"/>
<line x1="390.900000" y1="152.000000" x2="390.900000" y2="152.000000"  style="stroke:black; stroke-linecap:round; stroke-width:0.25;"/>
<line x1="398.900000" y1="94.000000" x2="398.900000" y2="106.000000"  style="stroke:black; stroke-linecap:round; stroke-width:0.25;"/>
<line x1="398.900000" y1="106.000000" x2="398.900000" y2="106.000000"  style="stroke:black; stroke-linecap:round; stroke-width:0.25;"/>
<line x1="398.900000" y1="106.000000" x2="402.900000" y2="106.000000"  style="stroke:black; stroke-linecap:round; stroke-width:0.25;"/>
<line x1="398.900000" y1="114.000000" x2="402.900000" y2="114.000000"  style="stroke:black; stroke-linecap:round; stroke-width:0.25;"/>
<line x1="426.900000" y1="110.000000" x2="430.900000" y2="110.000000"  style="stroke:black; stroke-linecap:round; stroke-width:0.25;"/>
<line x1="430.900000" y1="110.000000" x2="430.900000" y2="110.000000"  style="stroke:black; stroke-linecap:round; stroke-width:0.25;"/>
<line x1="430.900000" y1="110.000000" x2="434.900000" y2="110.000000"  style="stroke:black; stroke-linecap:round; stroke-width:0.25;"/>
<line x1="458.900000" y1="110.000000" x2="462.900000" y2="110.000000"  style="stroke:black; stroke-linecap:round; stroke-width:0.25;"/>
<line x1="462.900000" y1="32.000000" x2="478.900000" y2="32.000000"  style="stroke:black; stroke-linecap:round; stroke-width:0.25;"/>
<line x1="462.900000" y1="40.000000" x2="470.900000" y2="40.000000"  style="stroke:black; stroke-linecap:round; stroke-width:0.25;"/>
<line x1="462.900000" y1="102.000000" x2="478.900000" y2="102.000000"  style="stroke:black; stroke-linecap:round; stroke-width:0.25;"/>
<line x1="462.900000" y1="110.000000" x2="462.900000" y2="102.000000"  style="stroke:black; stroke-linecap:round; stroke-width:0.25;"/>
<line x1="462.900000" y1="110.000000" x2="462.900000" y2="110.000000"  style="stroke:black; stroke-linecap:round; stroke-width:0.25;"/>
<line x1="470.900000" y1="40.000000" x2="470.900000" y2="94.000000"  style="stroke:black; stroke-linecap:round; stroke-width:0.25;"/>
<line x1="470.900000" y1="94.000000" x2="478.900000" y2="94.000000"  style="stroke:black; stroke-linecap:round; stroke-width:0.25;"/>
<line x1="478.900000" y1="32.000000" x2="478.900000" y2="86.000000"  style="stroke:black; stroke-linecap:round; stroke-width:0.25;"/>
<line x1="478.900000" y1="86.000000" x2="478.900000" y2="86.000000"  style="stroke:black; stroke-linecap:round; stroke-width:0.25;"/>
<line x1="478.900000" y1="86.000000" x2="482.900000" y2="86.000000"  style="stroke:black; stroke-linecap:round; stroke-width:0.25;"/>
<line x1="478.900000" y1="94.000000" x2="482.900000" y2="94.000000"  style="stroke:black; stroke-linecap:round; stroke-width:0.25;"/>
<line x1="478.900000" y1="102.000000" x2="482.900000" y2="102.000000"  style="stroke:black; stroke-linecap:round; stroke-width:0.25;"/>
<line x1="521.600000" y1="94.000000" x2="525.600000" y2="94.000000"  style="stroke:black; stroke-linecap:round; stroke-width:0.25;"/>
<line x1="525.600000" y1="94.000000" x2="529.600000" y2="94.000000"  style="stroke:black; stroke-linecap:round; stroke-width:0.25;"/>
<line x1="525.600000" y1="94.000000" x2="525.600000" y2="94.000000"  style="stroke:black; stroke-linecap:round; stroke-width:0.25;"/>
<line x1="529.600000" y1="94.000000" x2="533.600000" y2="94.000000"  style="stroke:black; stroke-linecap:round; stroke-width:0.25;"/>
<line x1="533.600000" y1="94.000000" x2="543.600000" y2="94.000000"  style="stroke:black; stroke-linecap:round; stroke-width:0.25;"/>
</svg>
