<?xml version="1.0"?>
<svg xmlns="http://www.w3.org/2000/svg" xmlns:xlink="http://www.w3.org/1999/xlink" viewBox="0 0 821.900000 356.000000" width="410.950000mm" height="178.000000mm" version="1.1">
<rect x="1.000000" y="1.000000" width="820.900000" height="355.000000" rx="0" ry="0" style="stroke:none;fill:#cccccc;"/>
<rect x="0.000000" y="0.000000" width="820.900000" height="355.000000" rx="0" ry="0" style="stroke:none;fill:#ffffff;"/>
<text x="10.000000" y="7.000000" font-family="Arial" font-size="7"></text>
<rect x="53.850000" y="45.000000" width="180.600000" height="24.000000" rx="0" ry="0" style="stroke:none;fill:#cccccc;"/>
<rect x="52.850000" y="44.000000" width="180.600000" height="24.000000" rx="0" ry="0" style="stroke:none;fill:#477881;"/>
<text x="143.150000" y="58.000000" font-family="Arial" font-size="7" text-anchor="middle" fill="#FFFFFF">hslider(freq, 4.4e+02, 2e+01, 8e+03, 1.0)</text>
<circle cx="54.850000" cy="46.000000" r="1"/>
<rect x="94.350000" y="87.000000" width="25.800000" height="24.000000" rx="0" ry="0" style="stroke:none;fill:#cccccc;"/>
<rect x="93.350000" y="86.000000" width="25.800000" height="24.000000" rx="0" ry="0" style="stroke:none;fill:#f44800;"/>
<text x="106.250000" y="100.000000" font-family="Arial" font-size="7" text-anchor="middle" fill="#FFFFFF">192000</text>
<circle cx="95.350000" cy="88.000000" r="1"/>
<rect x="75.250000" y="119.000000" width="24.000000" height="24.000000" rx="0" ry="0" style="stroke:none;fill:#cccccc;"/>
<rect x="74.250000" y="118.000000" width="24.000000" height="24.000000" rx="0" ry="0" style="stroke:none;fill:#f44800;"/>
<text x="86.250000" y="132.000000" font-family="Arial" font-size="7" text-anchor="middle" fill="#FFFFFF">1</text>
<circle cx="76.250000" cy="120.000000" r="1"/>
<rect x="55.000000" y="151.000000" width="64.500000" height="24.000000" rx="0" ry="0" style="stroke:none;fill:#cccccc;"/>
<rect x="54.000000" y="150.000000" width="64.500000" height="24.000000" rx="0" ry="0" style="stroke:none;fill:#4B71A1;"/>
<text x="86.250000" y="164.000000" font-family="Arial" font-size="7" text-anchor="middle" fill="#FFFFFF">fSamplingFreq</text>
<circle cx="56.000000" cy="152.000000" r="1"/>
<rect x="135.500000" y="135.000000" width="24.000000" height="24.000000" rx="0" ry="0" style="stroke:none;fill:#cccccc;"/>
<rect x="134.500000" y="134.000000" width="24.000000" height="24.000000" rx="0" ry="0" style="stroke:none;fill:#4B71A1;"/>
<text x="146.500000" y="148.000000" font-family="Arial" font-size="7" text-anchor="middle" fill="#FFFFFF">max</text>
<circle cx="136.500000" cy="136.000000" r="1"/>
<line x1="131.500000" y1="141.000000" x2="134.500000" y2="142.000000"  transform="rotate(0.000000,134.500000,142.000000)" style="stroke: black; stroke-width:0.25;"/>
<line x1="131.500000" y1="143.000000" x2="134.500000" y2="142.000000"  transform="rotate(0.000000,134.500000,142.000000)" style="stroke: black; stroke-width:0.25;"/>
<line x1="131.500000" y1="149.000000" x2="134.500000" y2="150.000000"  transform="rotate(0.000000,134.500000,150.000000)" style="stroke: black; stroke-width:0.25;"/>
<line x1="131.500000" y1="151.000000" x2="134.500000" y2="150.000000"  transform="rotate(0.000000,134.500000,150.000000)" style="stroke: black; stroke-width:0.25;"/>
<rect x="175.500000" y="119.000000" width="24.000000" height="24.000000" rx="0" ry="0" style="stroke:none;fill:#cccccc;"/>
<rect x="174.500000" y="118.000000" width="24.000000" height="24.000000" rx="0" ry="0" style="stroke:none;fill:#4B71A1;"/>
<text x="186.500000" y="132.000000" font-family="Arial" font-size="7" text-anchor="middle" fill="#FFFFFF">min</text>
<circle cx="176.500000" cy="120.000000" r="1"/>
<line x1="171.500000" y1="125.000000" x2="174.500000" y2="126.000000"  transform="rotate(0.000000,174.500000,126.000000)" style="stroke: black; stroke-width:0.25;"/>
<line x1="171.500000" y1="127.000000" x2="174.500000" y2="126.000000"  transform="rotate(0.000000,174.500000,126.000000)" style="stroke: black; stroke-width:0.25;"/>
<line x1="171.500000" y1="133.000000" x2="174.500000" y2="134.000000"  transform="rotate(0.000000,174.500000,134.000000)" style="stroke: black; stroke-width:0.25;"/>
<line x1="171.500000" y1="135.000000" x2="174.500000" y2="134.000000"  transform="rotate(0.000000,174.500000,134.000000)" style="stroke: black; stroke-width:0.25;"/>
<line x1="45.000000" y1="77.000000" x2="45.000000" y2="183.000000"  style="stroke: black; stroke-linecap:round; stroke-width:0.25; stroke-dasharray:3,3;"/>
<line x1="45.000000" y1="183.000000" x2="207.500000" y2="183.000000"  style="stroke: black; stroke-linecap:round; stroke-width:0.25; stroke-dasharray:3,3;"/>
<line x1="207.500000" y1="183.000000" x2="207.500000" y2="77.000000"  style="stroke: black; stroke-linecap:round; stroke-width:0.25; stroke-dasharray:3,3;"/>
<line x1="45.000000" y1="77.000000" x2="50.000000" y2="77.000000"  style="stroke: black; stroke-linecap:round; stroke-width:0.25; stroke-dasharray:3,3;"/>
<line x1="62.900000" y1="77.000000" x2="207.500000" y2="77.000000"  style="stroke: black; stroke-linecap:round; stroke-width:0.25; stroke-dasharray:3,3;"/>
<text x="50.000000" y="79.000000" font-family="Arial" font-size="7">SR</text>
<rect x="217.500000" y="119.000000" width="25.800000" height="24.000000" rx="0" ry="0" style="stroke:none;fill:#cccccc;"/>
<rect x="216.500000" y="118.000000" width="25.800000" height="24.000000" rx="0" ry="0" style="stroke:none;fill:#4B71A1;"/>
<text x="229.400000" y="132.000000" font-family="Arial" font-size="7" text-anchor="middle" fill="#FFFFFF">float</text>
<circle cx="218.500000" cy="120.000000" r="1"/>
<line x1="213.500000" y1="129.000000" x2="216.500000" y2="130.000000"  transform="rotate(0.000000,216.500000,130.000000)" style="stroke: black; stroke-width:0.25;"/>
<line x1="213.500000" y1="131.000000" x2="216.500000" y2="130.000000"  transform="rotate(0.000000,216.500000,130.000000)" style="stroke: black; stroke-width:0.25;"/>
<rect x="259.300000" y="103.000000" width="24.000000" height="24.000000" rx="0" ry="0" style="stroke:none;fill:#cccccc;"/>
<rect x="258.300000" y="102.000000" width="24.000000" height="24.000000" rx="0" ry="0" style="stroke:none;fill:#4B71A1;"/>
<text x="270.300000" y="116.000000" font-family="Arial" font-size="7" text-anchor="middle" fill="#FFFFFF">/</text>
<circle cx="260.300000" cy="104.000000" r="1"/>
<line x1="255.300000" y1="109.000000" x2="258.300000" y2="110.000000"  transform="rotate(0.000000,258.300000,110.000000)" style="stroke: black; stroke-width:0.25;"/>
<line x1="255.300000" y1="111.000000" x2="258.300000" y2="110.000000"  transform="rotate(0.000000,258.300000,110.000000)" style="stroke: black; stroke-width:0.25;"/>
<line x1="255.300000" y1="117.000000" x2="258.300000" y2="118.000000"  transform="rotate(0.000000,258.300000,118.000000)" style="stroke: black; stroke-width:0.25;"/>
<line x1="255.300000" y1="119.000000" x2="258.300000" y2="118.000000"  transform="rotate(0.000000,258.300000,118.000000)" style="stroke: black; stroke-width:0.25;"/>
<rect x="307.300000" y="107.000000" width="24.000000" height="24.000000" rx="0" ry="0" style="stroke:none;fill:#cccccc;"/>
<rect x="306.300000" y="106.000000" width="24.000000" height="24.000000" rx="0" ry="0" style="stroke:none;fill:#4B71A1;"/>
<text x="318.300000" y="120.000000" font-family="Arial" font-size="7" text-anchor="middle" fill="#FFFFFF">+</text>
<circle cx="308.300000" cy="108.000000" r="1"/>
<line x1="303.300000" y1="113.000000" x2="306.300000" y2="114.000000"  transform="rotate(0.000000,306.300000,114.000000)" style="stroke: black; stroke-width:0.25;"/>
<line x1="303.300000" y1="115.000000" x2="306.300000" y2="114.000000"  transform="rotate(0.000000,306.300000,114.000000)" style="stroke: black; stroke-width:0.25;"/>
<line x1="303.300000" y1="121.000000" x2="306.300000" y2="122.000000"  transform="rotate(0.000000,306.300000,122.000000)" style="stroke: black; stroke-width:0.25;"/>
<line x1="303.300000" y1="123.000000" x2="306.300000" y2="122.000000"  transform="rotate(0.000000,306.300000,122.000000)" style="stroke: black; stroke-width:0.25;"/>
<rect x="349.300000" y="107.000000" width="24.000000" height="24.000000" rx="0" ry="0" style="stroke:none;fill:#cccccc;"/>
<rect x="348.300000" y="106.000000" width="24.000000" height="24.000000" rx="0" ry="0" style="stroke:none;fill:#47945E;"/>
<text x="360.300000" y="120.000000" font-family="Arial" font-size="7" text-anchor="middle" fill="#FFFFFF">n</text>
<circle cx="350.300000" cy="108.000000" r="1"/>
<line x1="345.300000" y1="117.000000" x2="348.300000" y2="118.000000"  transform="rotate(0.000000,348.300000,118.000000)" style="stroke: black; stroke-width:0.25;"/>
<line x1="345.300000" y1="119.000000" x2="348.300000" y2="118.000000"  transform="rotate(0.000000,348.300000,118.000000)" style="stroke: black; stroke-width:0.25;"/>
<rect x="398.200000" y="91.000000" width="24.000000" height="24.000000" rx="0" ry="0" style="stroke:none;fill:#cccccc;"/>
<rect x="397.200000" y="90.000000" width="24.000000" height="24.000000" rx="0" ry="0" style="stroke:none;fill:#47945E;"/>
<text x="409.200000" y="104.000000" font-family="Arial" font-size="7" text-anchor="middle" fill="#FFFFFF">n</text>
<circle cx="399.200000" cy="92.000000" r="1"/>
<rect x="381.300000" y="123.000000" width="24.000000" height="24.000000" rx="0" ry="0" style="stroke:none;fill:#cccccc;"/>
<rect x="380.300000" y="122.000000" width="24.000000" height="24.000000" rx="0" ry="0" style="stroke:none;fill:#47945E;"/>
<text x="392.300000" y="136.000000" font-family="Arial" font-size="7" text-anchor="middle" fill="#FFFFFF">n</text>
<circle cx="382.300000" cy="124.000000" r="1"/>
<rect x="413.300000" y="123.000000" width="25.800000" height="24.000000" rx="0" ry="0" style="stroke:none;fill:#cccccc;"/>
<rect x="412.300000" y="122.000000" width="25.800000" height="24.000000" rx="0" ry="0" style="stroke:none;fill:#4B71A1;"/>
<text x="425.200000" y="136.000000" font-family="Arial" font-size="7" text-anchor="middle" fill="#FFFFFF">floor</text>
<circle cx="414.300000" cy="124.000000" r="1"/>
<line x1="409.300000" y1="133.000000" x2="412.300000" y2="134.000000"  transform="rotate(0.000000,412.300000,134.000000)" style="stroke: black; stroke-width:0.25;"/>
<line x1="409.300000" y1="135.000000" x2="412.300000" y2="134.000000"  transform="rotate(0.000000,412.300000,134.000000)" style="stroke: black; stroke-width:0.25;"/>
<rect x="455.100000" y="107.000000" width="24.000000" height="24.000000" rx="0" ry="0" style="stroke:none;fill:#cccccc;"/>
<rect x="454.100000" y="106.000000" width="24.000000" height="24.000000" rx="0" ry="0" style="stroke:none;fill:#4B71A1;"/>
<text x="466.100000" y="120.000000" font-family="Arial" font-size="7" text-anchor="middle" fill="#FFFFFF">-</text>
<circle cx="456.100000" cy="108.000000" r="1"/>
<line x1="451.100000" y1="113.000000" x2="454.100000" y2="114.000000"  transform="rotate(0.000000,454.100000,114.000000)" style="stroke: black; stroke-width:0.25;"/>
<line x1="451.100000" y1="115.000000" x2="454.100000" y2="114.000000"  transform="rotate(0.000000,454.100000,114.000000)" style="stroke: black; stroke-width:0.25;"/>
<line x1="451.100000" y1="121.000000" x2="454.100000" y2="122.000000"  transform="rotate(0.000000,454.100000,122.000000)" style="stroke: black; stroke-width:0.25;"/>
<line x1="451.100000" y1="123.000000" x2="454.100000" y2="122.000000"  transform="rotate(0.000000,454.100000,122.000000)" style="stroke: black; stroke-width:0.25;"/>
<line x1="339.300000" y1="81.000000" x2="339.300000" y2="155.000000"  style="stroke: black; stroke-linecap:round; stroke-width:0.25; stroke-dasharray:3,3;"/>
<line x1="339.300000" y1="155.000000" x2="487.100000" y2="155.000000"  style="stroke: black; stroke-linecap:round; stroke-width:0.25; stroke-dasharray:3,3;"/>
<line x1="487.100000" y1="155.000000" x2="487.100000" y2="81.000000"  style="stroke: black; stroke-linecap:round; stroke-width:0.25; stroke-dasharray:3,3;"/>
<line x1="339.300000" y1="81.000000" x2="344.300000" y2="81.000000"  style="stroke: black; stroke-linecap:round; stroke-width:0.25; stroke-dasharray:3,3;"/>
<line x1="373.325000" y1="81.000000" x2="487.100000" y2="81.000000"  style="stroke: black; stroke-linecap:round; stroke-width:0.25; stroke-dasharray:3,3;"/>
<text x="344.300000" y="83.000000" font-family="Arial" font-size="7">decimal</text>
<line x1="490.100000" y1="118.000000" x2="490.100000" y2="114.000000"  style="stroke:black; stroke-linecap:round; stroke-width:0.25;"/>
<line x1="490.100000" y1="114.000000" x2="494.100000" y2="114.000000"  style="stroke:black; stroke-linecap:round; stroke-width:0.25;"/>
<line x1="494.100000" y1="114.000000" x2="494.100000" y2="118.000000"  style="stroke:black; stroke-linecap:round; stroke-width:0.25;"/>
<rect x="513.100000" y="107.000000" width="24.000000" height="24.000000" rx="0" ry="0" style="stroke:none;fill:#cccccc;"/>
<rect x="512.100000" y="106.000000" width="24.000000" height="24.000000" rx="0" ry="0" style="stroke:none;fill:#f44800;"/>
<text x="524.100000" y="120.000000" font-family="Arial" font-size="7" text-anchor="middle" fill="#FFFFFF">1</text>
<circle cx="514.100000" cy="108.000000" r="1"/>
<rect x="545.100000" y="107.000000" width="25.800000" height="24.000000" rx="0" ry="0" style="stroke:none;fill:#cccccc;"/>
<rect x="544.100000" y="106.000000" width="25.800000" height="24.000000" rx="0" ry="0" style="stroke:none;fill:#4B71A1;"/>
<text x="557.000000" y="120.000000" font-family="Arial" font-size="7" text-anchor="middle" fill="#FFFFFF">float</text>
<circle cx="546.100000" cy="108.000000" r="1"/>
<line x1="541.100000" y1="117.000000" x2="544.100000" y2="118.000000"  transform="rotate(0.000000,544.100000,118.000000)" style="stroke: black; stroke-width:0.25;"/>
<line x1="541.100000" y1="119.000000" x2="544.100000" y2="118.000000"  transform="rotate(0.000000,544.100000,118.000000)" style="stroke: black; stroke-width:0.25;"/>
<rect x="586.900000" y="103.000000" width="24.000000" height="24.000000" rx="0" ry="0" style="stroke:none;fill:#cccccc;"/>
<rect x="585.900000" y="102.000000" width="24.000000" height="24.000000" rx="0" ry="0" style="stroke:none;fill:#4B71A1;"/>
<text x="597.900000" y="116.000000" font-family="Arial" font-size="7" text-anchor="middle" fill="#FFFFFF">*</text>
<circle cx="587.900000" cy="104.000000" r="1"/>
<line x1="582.900000" y1="109.000000" x2="585.900000" y2="110.000000"  transform="rotate(0.000000,585.900000,110.000000)" style="stroke: black; stroke-width:0.25;"/>
<line x1="582.900000" y1="111.000000" x2="585.900000" y2="110.000000"  transform="rotate(0.000000,585.900000,110.000000)" style="stroke: black; stroke-width:0.25;"/>
<line x1="582.900000" y1="117.000000" x2="585.900000" y2="118.000000"  transform="rotate(0.000000,585.900000,118.000000)" style="stroke: black; stroke-width:0.25;"/>
<line x1="582.900000" y1="119.000000" x2="585.900000" y2="118.000000"  transform="rotate(0.000000,585.900000,118.000000)" style="stroke: black; stroke-width:0.25;"/>
<line x1="35.000000" y1="35.000000" x2="35.000000" y2="193.000000"  style="stroke: black; stroke-linecap:round; stroke-width:0.25; stroke-dasharray:3,3;"/>
<line x1="35.000000" y1="193.000000" x2="618.900000" y2="193.000000"  style="stroke: black; stroke-linecap:round; stroke-width:0.25; stroke-dasharray:3,3;"/>
<line x1="618.900000" y1="193.000000" x2="618.900000" y2="35.000000"  style="stroke: black; stroke-linecap:round; stroke-width:0.25; stroke-dasharray:3,3;"/>
<line x1="35.000000" y1="35.000000" x2="40.000000" y2="35.000000"  style="stroke: black; stroke-linecap:round; stroke-width:0.25; stroke-dasharray:3,3;"/>
<line x1="139.975000" y1="35.000000" x2="618.900000" y2="35.000000"  style="stroke: black; stroke-linecap:round; stroke-width:0.25; stroke-dasharray:3,3;"/>
<text x="40.000000" y="37.000000" font-family="Arial" font-size="7">phasor(1)(hsl... 8e+03, 1.0))</text>
<rect x="315.950000" y="203.000000" width="24.000000" height="24.000000" rx="0" ry="0" style="stroke:none;fill:#cccccc;"/>
<rect x="314.950000" y="202.000000" width="24.000000" height="24.000000" rx="0" ry="0" style="stroke:none;fill:#f44800;"/>
<text x="326.950000" y="216.000000" font-family="Arial" font-size="7" text-anchor="middle" fill="#FFFFFF">0.5</text>
<circle cx="316.950000" cy="204.000000" r="1"/>
<rect x="636.900000" y="119.000000" width="24.000000" height="24.000000" rx="0" ry="0" style="stroke:none;fill:#cccccc;"/>
<rect x="635.900000" y="118.000000" width="24.000000" height="24.000000" rx="0" ry="0" style="stroke:none;fill:#4B71A1;"/>
<text x="647.900000" y="132.000000" font-family="Arial" font-size="7" text-anchor="middle" fill="#FFFFFF">&gt;</text>
<circle cx="637.900000" cy="120.000000" r="1"/>
<line x1="632.900000" y1="125.000000" x2="635.900000" y2="126.000000"  transform="rotate(0.000000,635.900000,126.000000)" style="stroke: black; stroke-width:0.25;"/>
<line x1="632.900000" y1="127.000000" x2="635.900000" y2="126.000000"  transform="rotate(0.000000,635.900000,126.000000)" style="stroke: black; stroke-width:0.25;"/>
<line x1="632.900000" y1="133.000000" x2="635.900000" y2="134.000000"  transform="rotate(0.000000,635.900000,134.000000)" style="stroke: black; stroke-width:0.25;"/>
<line x1="632.900000" y1="135.000000" x2="635.900000" y2="134.000000"  transform="rotate(0.000000,635.900000,134.000000)" style="stroke: black; stroke-width:0.25;"/>
<rect x="335.950000" y="235.000000" width="24.000000" height="24.000000" rx="0" ry="0" style="stroke:none;fill:#cccccc;"/>
<rect x="334.950000" y="234.000000" width="24.000000" height="24.000000" rx="0" ry="0" style="stroke:none;fill:#f44800;"/>
<text x="346.950000" y="248.000000" font-family="Arial" font-size="7" text-anchor="middle" fill="#FFFFFF">2</text>
<circle cx="336.950000" cy="236.000000" r="1"/>
<rect x="676.900000" y="135.000000" width="24.000000" height="24.000000" rx="0" ry="0" style="stroke:none;fill:#cccccc;"/>
<rect x="675.900000" y="134.000000" width="24.000000" height="24.000000" rx="0" ry="0" style="stroke:none;fill:#4B71A1;"/>
<text x="687.900000" y="148.000000" font-family="Arial" font-size="7" text-anchor="middle" fill="#FFFFFF">*</text>
<circle cx="677.900000" cy="136.000000" r="1"/>
<line x1="672.900000" y1="141.000000" x2="675.900000" y2="142.000000"  transform="rotate(0.000000,675.900000,142.000000)" style="stroke: black; stroke-width:0.25;"/>
<line x1="672.900000" y1="143.000000" x2="675.900000" y2="142.000000"  transform="rotate(0.000000,675.900000,142.000000)" style="stroke: black; stroke-width:0.25;"/>
<line x1="672.900000" y1="149.000000" x2="675.900000" y2="150.000000"  transform="rotate(0.000000,675.900000,150.000000)" style="stroke: black; stroke-width:0.25;"/>
<line x1="672.900000" y1="151.000000" x2="675.900000" y2="150.000000"  transform="rotate(0.000000,675.900000,150.000000)" style="stroke: black; stroke-width:0.25;"/>
<rect x="355.950000" y="267.000000" width="24.000000" height="24.000000" rx="0" ry="0" style="stroke:none;fill:#cccccc;"/>
<rect x="354.950000" y="266.000000" width="24.000000" height="24.000000" rx="0" ry="0" style="stroke:none;fill:#f44800;"/>
<text x="366.950000" y="280.000000" font-family="Arial" font-size="7" text-anchor="middle" fill="#FFFFFF">1</text>
<circle cx="356.950000" cy="268.000000" r="1"/>
<rect x="716.900000" y="151.000000" width="24.000000" height="24.000000" rx="0" ry="0" style="stroke:none;fill:#cccccc;"/>
<rect x="715.900000" y="150.000000" width="24.000000" height="24.000000" rx="0" ry="0" style="stroke:none;fill:#4B71A1;"/>
<text x="727.900000" y="164.000000" font-family="Arial" font-size="7" text-anchor="middle" fill="#FFFFFF">-</text>
<circle cx="717.900000" cy="152.000000" r="1"/>
<line x1="712.900000" y1="157.000000" x2="715.900000" y2="158.000000"  transform="rotate(0.000000,715.900000,158.000000)" style="stroke: black; stroke-width:0.25;"/>
<line x1="712.900000" y1="159.000000" x2="715.900000" y2="158.000000"  transform="rotate(0.000000,715.900000,158.000000)" style="stroke: black; stroke-width:0.25;"/>
<line x1="712.900000" y1="165.000000" x2="715.900000" y2="166.000000"  transform="rotate(0.000000,715.900000,166.000000)" style="stroke: black; stroke-width:0.25;"/>
<line x1="712.900000" y1="167.000000" x2="715.900000" y2="166.000000"  transform="rotate(0.000000,715.900000,166.000000)" style="stroke: black; stroke-width:0.25;"/>
<line x1="25.000000" y1="25.000000" x2="25.000000" y2="299.000000"  style="stroke: black; stroke-linecap:round; stroke-width:0.25; stroke-dasharray:3,3;"/>
<line x1="25.000000" y1="299.000000" x2="748.900000" y2="299.000000"  style="stroke: black; stroke-linecap:round; stroke-width:0.25; stroke-dasharray:3,3;"/>
<line x1="748.900000" y1="299.000000" x2="748.900000" y2="25.000000"  style="stroke: black; stroke-linecap:round; stroke-width:0.25; stroke-dasharray:3,3;"/>
<line x1="25.000000" y1="25.000000" x2="30.000000" y2="25.000000"  style="stroke: black; stroke-linecap:round; stroke-width:0.25; stroke-dasharray:3,3;"/>
<line x1="129.975000" y1="25.000000" x2="748.900000" y2="25.000000"  style="stroke: black; stroke-linecap:round; stroke-width:0.25; stroke-dasharray:3,3;"/>
<text x="30.000000" y="27.000000" font-family="Arial" font-size="7">exactsquarewa... 8e+03, 1.0))</text>
<rect x="310.550000" y="309.000000" width="154.800000" height="24.000000" rx="0" ry="0" style="stroke:none;fill:#cccccc;"/>
<rect x="309.550000" y="308.000000" width="154.800000" height="24.000000" rx="0" ry="0" style="stroke:none;fill:#477881;"/>
<text x="386.950000" y="322.000000" font-family="Arial" font-size="7" text-anchor="middle" fill="#FFFFFF">hslider(gain, 0.5, 0.0, 1.0, 0.01)</text>
<circle cx="311.550000" cy="310.000000" r="1"/>
<rect x="766.900000" y="167.000000" width="24.000000" height="24.000000" rx="0" ry="0" style="stroke:none;fill:#cccccc;"/>
<rect x="765.900000" y="166.000000" width="24.000000" height="24.000000" rx="0" ry="0" style="stroke:none;fill:#4B71A1;"/>
<text x="777.900000" y="180.000000" font-family="Arial" font-size="7" text-anchor="middle" fill="#FFFFFF">*</text>
<circle cx="767.900000" cy="168.000000" r="1"/>
<line x1="762.900000" y1="173.000000" x2="765.900000" y2="174.000000"  transform="rotate(0.000000,765.900000,174.000000)" style="stroke: black; stroke-width:0.25;"/>
<line x1="762.900000" y1="175.000000" x2="765.900000" y2="174.000000"  transform="rotate(0.000000,765.900000,174.000000)" style="stroke: black; stroke-width:0.25;"/>
<line x1="762.900000" y1="181.000000" x2="765.900000" y2="182.000000"  transform="rotate(0.000000,765.900000,182.000000)" style="stroke: black; stroke-width:0.25;"/>
<line x1="762.900000" y1="183.000000" x2="765.900000" y2="182.000000"  transform="rotate(0.000000,765.900000,182.000000)" style="stroke: black; stroke-width:0.25;"/>
<line x1="15.000000" y1="15.000000" x2="15.000000" y2="341.000000"  style="stroke: black; stroke-linecap:round; stroke-width:0.25; stroke-dasharray:3,3;"/>
<line x1="15.000000" y1="341.000000" x2="806.900000" y2="341.000000"  style="stroke: black; stroke-linecap:round; stroke-width:0.25; stroke-dasharray:3,3;"/>
<line x1="806.900000" y1="341.000000" x2="806.900000" y2="15.000000"  style="stroke: black; stroke-linecap:round; stroke-width:0.25; stroke-dasharray:3,3;"/>
<line x1="15.000000" y1="15.000000" x2="20.000000" y2="15.000000"  style="stroke: black; stroke-linecap:round; stroke-width:0.25; stroke-dasharray:3,3;"/>
<line x1="49.025000" y1="15.000000" x2="806.900000" y2="15.000000"  style="stroke: black; stroke-linecap:round; stroke-width:0.25; stroke-dasharray:3,3;"/>
<text x="20.000000" y="17.000000" font-family="Arial" font-size="7">process</text>
<line x1="808.900000" y1="177.000000" x2="811.900000" y2="178.000000"  transform="rotate(0.000000,811.900000,178.000000)" style="stroke: black; stroke-width:0.25;"/>
<line x1="808.900000" y1="179.000000" x2="811.900000" y2="178.000000"  transform="rotate(0.000000,811.900000,178.000000)" style="stroke: black; stroke-width:0.25;"/>
<line x1="98.250000" y1="130.000000" x2="102.250000" y2="130.000000"  style="stroke:black; stroke-linecap:round; stroke-width:0.25;"/>
<line x1="102.250000" y1="130.000000" x2="122.500000" y2="130.000000"  style="stroke:black; stroke-linecap:round; stroke-width:0.25;"/>
<line x1="118.500000" y1="162.000000" x2="122.500000" y2="162.000000"  style="stroke:black; stroke-linecap:round; stroke-width:0.25;"/>
<line x1="119.150000" y1="98.000000" x2="123.150000" y2="98.000000"  style="stroke:black; stroke-linecap:round; stroke-width:0.25;"/>
<line x1="122.500000" y1="130.000000" x2="130.500000" y2="130.000000"  style="stroke:black; stroke-linecap:round; stroke-width:0.25;"/>
<line x1="122.500000" y1="150.000000" x2="130.500000" y2="150.000000"  style="stroke:black; stroke-linecap:round; stroke-width:0.25;"/>
<line x1="122.500000" y1="162.000000" x2="122.500000" y2="150.000000"  style="stroke:black; stroke-linecap:round; stroke-width:0.25;"/>
<line x1="122.500000" y1="162.000000" x2="122.500000" y2="162.000000"  style="stroke:black; stroke-linecap:round; stroke-width:0.25;"/>
<line x1="123.150000" y1="98.000000" x2="162.500000" y2="98.000000"  style="stroke:black; stroke-linecap:round; stroke-width:0.25;"/>
<line x1="130.500000" y1="130.000000" x2="130.500000" y2="142.000000"  style="stroke:black; stroke-linecap:round; stroke-width:0.25;"/>
<line x1="130.500000" y1="142.000000" x2="130.500000" y2="142.000000"  style="stroke:black; stroke-linecap:round; stroke-width:0.25;"/>
<line x1="130.500000" y1="142.000000" x2="134.500000" y2="142.000000"  style="stroke:black; stroke-linecap:round; stroke-width:0.25;"/>
<line x1="130.500000" y1="150.000000" x2="134.500000" y2="150.000000"  style="stroke:black; stroke-linecap:round; stroke-width:0.25;"/>
<line x1="158.500000" y1="146.000000" x2="162.500000" y2="146.000000"  style="stroke:black; stroke-linecap:round; stroke-width:0.25;"/>
<line x1="162.500000" y1="98.000000" x2="170.500000" y2="98.000000"  style="stroke:black; stroke-linecap:round; stroke-width:0.25;"/>
<line x1="162.500000" y1="134.000000" x2="170.500000" y2="134.000000"  style="stroke:black; stroke-linecap:round; stroke-width:0.25;"/>
<line x1="162.500000" y1="146.000000" x2="162.500000" y2="134.000000"  style="stroke:black; stroke-linecap:round; stroke-width:0.25;"/>
<line x1="162.500000" y1="146.000000" x2="162.500000" y2="146.000000"  style="stroke:black; stroke-linecap:round; stroke-width:0.25;"/>
<line x1="170.500000" y1="98.000000" x2="170.500000" y2="126.000000"  style="stroke:black; stroke-linecap:round; stroke-width:0.25;"/>
<line x1="170.500000" y1="126.000000" x2="170.500000" y2="126.000000"  style="stroke:black; stroke-linecap:round; stroke-width:0.25;"/>
<line x1="170.500000" y1="126.000000" x2="174.500000" y2="126.000000"  style="stroke:black; stroke-linecap:round; stroke-width:0.25;"/>
<line x1="170.500000" y1="134.000000" x2="174.500000" y2="134.000000"  style="stroke:black; stroke-linecap:round; stroke-width:0.25;"/>
<line x1="198.500000" y1="130.000000" x2="202.500000" y2="130.000000"  style="stroke:black; stroke-linecap:round; stroke-width:0.25;"/>
<line x1="202.500000" y1="130.000000" x2="212.500000" y2="130.000000"  style="stroke:black; stroke-linecap:round; stroke-width:0.25;"/>
<line x1="212.500000" y1="130.000000" x2="212.500000" y2="130.000000"  style="stroke:black; stroke-linecap:round; stroke-width:0.25;"/>
<line x1="212.500000" y1="130.000000" x2="216.500000" y2="130.000000"  style="stroke:black; stroke-linecap:round; stroke-width:0.25;"/>
<line x1="233.450000" y1="56.000000" x2="237.450000" y2="56.000000"  style="stroke:black; stroke-linecap:round; stroke-width:0.25;"/>
<line x1="237.450000" y1="56.000000" x2="246.300000" y2="56.000000"  style="stroke:black; stroke-linecap:round; stroke-width:0.25;"/>
<line x1="242.300000" y1="130.000000" x2="246.300000" y2="130.000000"  style="stroke:black; stroke-linecap:round; stroke-width:0.25;"/>
<line x1="246.300000" y1="56.000000" x2="254.300000" y2="56.000000"  style="stroke:black; stroke-linecap:round; stroke-width:0.25;"/>
<line x1="246.300000" y1="118.000000" x2="254.300000" y2="118.000000"  style="stroke:black; stroke-linecap:round; stroke-width:0.25;"/>
<line x1="246.300000" y1="130.000000" x2="246.300000" y2="118.000000"  style="stroke:black; stroke-linecap:round; stroke-width:0.25;"/>
<line x1="246.300000" y1="130.000000" x2="246.300000" y2="130.000000"  style="stroke:black; stroke-linecap:round; stroke-width:0.25;"/>
<line x1="254.300000" y1="56.000000" x2="254.300000" y2="110.000000"  style="stroke:black; stroke-linecap:round; stroke-width:0.25;"/>
<line x1="254.300000" y1="110.000000" x2="254.300000" y2="110.000000"  style="stroke:black; stroke-linecap:round; stroke-width:0.25;"/>
<line x1="254.300000" y1="110.000000" x2="258.300000" y2="110.000000"  style="stroke:black; stroke-linecap:round; stroke-width:0.25;"/>
<line x1="254.300000" y1="118.000000" x2="258.300000" y2="118.000000"  style="stroke:black; stroke-linecap:round; stroke-width:0.25;"/>
<line x1="282.300000" y1="114.000000" x2="286.300000" y2="114.000000"  style="stroke:black; stroke-linecap:round; stroke-width:0.25;"/>
<line x1="286.300000" y1="114.000000" x2="294.300000" y2="114.000000"  style="stroke:black; stroke-linecap:round; stroke-width:0.25;"/>
<line x1="294.300000" y1="114.000000" x2="294.300000" y2="122.000000"  style="stroke:black; stroke-linecap:round; stroke-width:0.25;"/>
<line x1="294.300000" y1="122.000000" x2="294.300000" y2="122.000000"  style="stroke:black; stroke-linecap:round; stroke-width:0.25;"/>
<line x1="294.300000" y1="122.000000" x2="302.300000" y2="122.000000"  style="stroke:black; stroke-linecap:round; stroke-width:0.25;"/>
<line x1="302.300000" y1="114.000000" x2="306.300000" y2="114.000000"  style="stroke:black; stroke-linecap:round; stroke-width:0.25;"/>
<line x1="302.300000" y1="122.000000" x2="306.300000" y2="122.000000"  style="stroke:black; stroke-linecap:round; stroke-width:0.25;"/>
<line x1="302.300000" y1="72.000000" x2="302.300000" y2="72.000000"  style="stroke:black; stroke-linecap:round; stroke-width:0.25;"/>
<line x1="302.300000" y1="72.000000" x2="302.300000" y2="114.000000"  style="stroke:black; stroke-linecap:round; stroke-width:0.25;"/>
<line x1="302.300000" y1="114.000000" x2="302.300000" y2="114.000000"  style="stroke:black; stroke-linecap:round; stroke-width:0.25;"/>
<line x1="330.300000" y1="118.000000" x2="334.300000" y2="118.000000"  style="stroke:black; stroke-linecap:round; stroke-width:0.25;"/>
<line x1="334.300000" y1="118.000000" x2="334.300000" y2="118.000000"  style="stroke:black; stroke-linecap:round; stroke-width:0.25;"/>
<line x1="334.300000" y1="118.000000" x2="344.300000" y2="118.000000"  style="stroke:black; stroke-linecap:round; stroke-width:0.25;"/>
<line x1="338.950000" y1="214.000000" x2="342.950000" y2="214.000000"  style="stroke:black; stroke-linecap:round; stroke-width:0.25;"/>
<line x1="342.950000" y1="214.000000" x2="623.900000" y2="214.000000"  style="stroke:black; stroke-linecap:round; stroke-width:0.25;"/>
<line x1="344.300000" y1="118.000000" x2="348.300000" y2="118.000000"  style="stroke:black; stroke-linecap:round; stroke-width:0.25;"/>
<line x1="358.950000" y1="246.000000" x2="362.950000" y2="246.000000"  style="stroke:black; stroke-linecap:round; stroke-width:0.25;"/>
<line x1="362.950000" y1="246.000000" x2="663.900000" y2="246.000000"  style="stroke:black; stroke-linecap:round; stroke-width:0.25;"/>
<line x1="378.950000" y1="278.000000" x2="382.950000" y2="278.000000"  style="stroke:black; stroke-linecap:round; stroke-width:0.25;"/>
<line x1="382.950000" y1="278.000000" x2="703.900000" y2="278.000000"  style="stroke:black; stroke-linecap:round; stroke-width:0.25;"/>
<line x1="397.200000" y1="72.000000" x2="302.300000" y2="72.000000"  style="stroke:black; stroke-linecap:round; stroke-width:0.25;"/>
<line x1="404.300000" y1="134.000000" x2="408.300000" y2="134.000000"  style="stroke:black; stroke-linecap:round; stroke-width:0.25;"/>
<line x1="408.300000" y1="134.000000" x2="408.300000" y2="134.000000"  style="stroke:black; stroke-linecap:round; stroke-width:0.25;"/>
<line x1="408.300000" y1="134.000000" x2="412.300000" y2="134.000000"  style="stroke:black; stroke-linecap:round; stroke-width:0.25;"/>
<line x1="421.200000" y1="102.000000" x2="425.200000" y2="102.000000"  style="stroke:black; stroke-linecap:round; stroke-width:0.25;"/>
<line x1="425.200000" y1="102.000000" x2="442.100000" y2="102.000000"  style="stroke:black; stroke-linecap:round; stroke-width:0.25;"/>
<line x1="438.100000" y1="134.000000" x2="442.100000" y2="134.000000"  style="stroke:black; stroke-linecap:round; stroke-width:0.25;"/>
<line x1="442.100000" y1="102.000000" x2="450.100000" y2="102.000000"  style="stroke:black; stroke-linecap:round; stroke-width:0.25;"/>
<line x1="442.100000" y1="122.000000" x2="450.100000" y2="122.000000"  style="stroke:black; stroke-linecap:round; stroke-width:0.25;"/>
<line x1="442.100000" y1="134.000000" x2="442.100000" y2="122.000000"  style="stroke:black; stroke-linecap:round; stroke-width:0.25;"/>
<line x1="442.100000" y1="134.000000" x2="442.100000" y2="134.000000"  style="stroke:black; stroke-linecap:round; stroke-width:0.25;"/>
<line x1="450.100000" y1="102.000000" x2="450.100000" y2="114.000000"  style="stroke:black; stroke-linecap:round; stroke-width:0.25;"/>
<line x1="450.100000" y1="114.000000" x2="450.100000" y2="114.000000"  style="stroke:black; stroke-linecap:round; stroke-width:0.25;"/>
<line x1="450.100000" y1="114.000000" x2="454.100000" y2="114.000000"  style="stroke:black; stroke-linecap:round; stroke-width:0.25;"/>
<line x1="450.100000" y1="122.000000" x2="454.100000" y2="122.000000"  style="stroke:black; stroke-linecap:round; stroke-width:0.25;"/>
<line x1="464.350000" y1="320.000000" x2="468.350000" y2="320.000000"  style="stroke:black; stroke-linecap:round; stroke-width:0.25;"/>
<line x1="468.350000" y1="320.000000" x2="753.900000" y2="320.000000"  style="stroke:black; stroke-linecap:round; stroke-width:0.25;"/>
<line x1="478.100000" y1="118.000000" x2="482.100000" y2="118.000000"  style="stroke:black; stroke-linecap:round; stroke-width:0.25;"/>
<line x1="482.100000" y1="118.000000" x2="492.100000" y2="118.000000"  style="stroke:black; stroke-linecap:round; stroke-width:0.25;"/>
<line x1="492.100000" y1="72.000000" x2="397.200000" y2="72.000000"  style="stroke:black; stroke-linecap:round; stroke-width:0.25;"/>
<line x1="492.100000" y1="72.000000" x2="492.100000" y2="72.000000"  style="stroke:black; stroke-linecap:round; stroke-width:0.25;"/>
<line x1="492.100000" y1="114.000000" x2="492.100000" y2="72.000000"  style="stroke:black; stroke-linecap:round; stroke-width:0.25;"/>
<line x1="492.100000" y1="118.000000" x2="494.100000" y2="118.000000"  style="stroke:black; stroke-linecap:round; stroke-width:0.25;"/>
<line x1="494.100000" y1="118.000000" x2="500.100000" y2="118.000000"  style="stroke:black; stroke-linecap:round; stroke-width:0.25;"/>
<line x1="500.100000" y1="98.000000" x2="508.100000" y2="98.000000"  style="stroke:black; stroke-linecap:round; stroke-width:0.25;"/>
<line x1="500.100000" y1="118.000000" x2="500.100000" y2="98.000000"  style="stroke:black; stroke-linecap:round; stroke-width:0.25;"/>
<line x1="500.100000" y1="118.000000" x2="500.100000" y2="118.000000"  style="stroke:black; stroke-linecap:round; stroke-width:0.25;"/>
<line x1="508.100000" y1="98.000000" x2="541.000000" y2="98.000000"  style="stroke:black; stroke-linecap:round; stroke-width:0.25;"/>
<line x1="536.100000" y1="118.000000" x2="540.100000" y2="118.000000"  style="stroke:black; stroke-linecap:round; stroke-width:0.25;"/>
<line x1="540.100000" y1="118.000000" x2="540.100000" y2="118.000000"  style="stroke:black; stroke-linecap:round; stroke-width:0.25;"/>
<line x1="540.100000" y1="118.000000" x2="544.100000" y2="118.000000"  style="stroke:black; stroke-linecap:round; stroke-width:0.25;"/>
<line x1="541.000000" y1="98.000000" x2="573.900000" y2="98.000000"  style="stroke:black; stroke-linecap:round; stroke-width:0.25;"/>
<line x1="569.900000" y1="118.000000" x2="573.900000" y2="118.000000"  style="stroke:black; stroke-linecap:round; stroke-width:0.25;"/>
<line x1="573.900000" y1="98.000000" x2="581.900000" y2="98.000000"  style="stroke:black; stroke-linecap:round; stroke-width:0.25;"/>
<line x1="573.900000" y1="118.000000" x2="581.900000" y2="118.000000"  style="stroke:black; stroke-linecap:round; stroke-width:0.25;"/>
<line x1="581.900000" y1="98.000000" x2="581.900000" y2="110.000000"  style="stroke:black; stroke-linecap:round; stroke-width:0.25;"/>
<line x1="581.900000" y1="110.000000" x2="581.900000" y2="110.000000"  style="stroke:black; stroke-linecap:round; stroke-width:0.25;"/>
<line x1="581.900000" y1="110.000000" x2="585.900000" y2="110.000000"  style="stroke:black; stroke-linecap:round; stroke-width:0.25;"/>
<line x1="581.900000" y1="118.000000" x2="585.900000" y2="118.000000"  style="stroke:black; stroke-linecap:round; stroke-width:0.25;"/>
<line x1="609.900000" y1="114.000000" x2="613.900000" y2="114.000000"  style="stroke:black; stroke-linecap:round; stroke-width:0.25;"/>
<line x1="613.900000" y1="114.000000" x2="623.900000" y2="114.000000"  style="stroke:black; stroke-linecap:round; stroke-width:0.25;"/>
<line x1="623.900000" y1="114.000000" x2="631.900000" y2="114.000000"  style="stroke:black; stroke-linecap:round; stroke-width:0.25;"/>
<line x1="623.900000" y1="134.000000" x2="631.900000" y2="134.000000"  style="stroke:black; stroke-linecap:round; stroke-width:0.25;"/>
<line x1="623.900000" y1="214.000000" x2="623.900000" y2="134.000000"  style="stroke:black; stroke-linecap:round; stroke-width:0.25;"/>
<line x1="623.900000" y1="214.000000" x2="623.900000" y2="214.000000"  style="stroke:black; stroke-linecap:round; stroke-width:0.25;"/>
<line x1="631.900000" y1="114.000000" x2="631.900000" y2="126.000000"  style="stroke:black; stroke-linecap:round; stroke-width:0.25;"/>
<line x1="631.900000" y1="126.000000" x2="631.900000" y2="126.000000"  style="stroke:black; stroke-linecap:round; stroke-width:0.25;"/>
<line x1="631.900000" y1="126.000000" x2="635.900000" y2="126.000000"  style="stroke:black; stroke-linecap:round; stroke-width:0.25;"/>
<line x1="631.900000" y1="134.000000" x2="635.900000" y2="134.000000"  style="stroke:black; stroke-linecap:round; stroke-width:0.25;"/>
<line x1="659.900000" y1="130.000000" x2="663.900000" y2="130.000000"  style="stroke:black; stroke-linecap:round; stroke-width:0.25;"/>
<line x1="663.900000" y1="130.000000" x2="671.900000" y2="130.000000"  style="stroke:black; stroke-linecap:round; stroke-width:0.25;"/>
<line x1="663.900000" y1="150.000000" x2="671.900000" y2="150.000000"  style="stroke:black; stroke-linecap:round; stroke-width:0.25;"/>
<line x1="663.900000" y1="246.000000" x2="663.900000" y2="150.000000"  style="stroke:black; stroke-linecap:round; stroke-width:0.25;"/>
<line x1="663.900000" y1="246.000000" x2="663.900000" y2="246.000000"  style="stroke:black; stroke-linecap:round; stroke-width:0.25;"/>
<line x1="671.900000" y1="130.000000" x2="671.900000" y2="142.000000"  style="stroke:black; stroke-linecap:round; stroke-width:0.25;"/>
<line x1="671.900000" y1="142.000000" x2="671.900000" y2="142.000000"  style="stroke:black; stroke-linecap:round; stroke-width:0.25;"/>
<line x1="671.900000" y1="142.000000" x2="675.900000" y2="142.000000"  style="stroke:black; stroke-linecap:round; stroke-width:0.25;"/>
<line x1="671.900000" y1="150.000000" x2="675.900000" y2="150.000000"  style="stroke:black; stroke-linecap:round; stroke-width:0.25;"/>
<line x1="699.900000" y1="146.000000" x2="703.900000" y2="146.000000"  style="stroke:black; stroke-linecap:round; stroke-width:0.25;"/>
<line x1="703.900000" y1="146.000000" x2="711.900000" y2="146.000000"  style="stroke:black; stroke-linecap:round; stroke-width:0.25;"/>
<line x1="703.900000" y1="166.000000" x2="711.900000" y2="166.000000"  style="stroke:black; stroke-linecap:round; stroke-width:0.25;"/>
<line x1="703.900000" y1="278.000000" x2="703.900000" y2="166.000000"  style="stroke:black; stroke-linecap:round; stroke-width:0.25;"/>
<line x1="703.900000" y1="278.000000" x2="703.900000" y2="278.000000"  style="stroke:black; stroke-linecap:round; stroke-width:0.25;"/>
<line x1="711.900000" y1="146.000000" x2="711.900000" y2="158.000000"  style="stroke:black; stroke-linecap:round; stroke-width:0.25;"/>
<line x1="711.900000" y1="158.000000" x2="711.900000" y2="158.000000"  style="stroke:black; stroke-linecap:round; stroke-width:0.25;"/>
<line x1="711.900000" y1="158.000000" x2="715.900000" y2="158.000000"  style="stroke:black; stroke-linecap:round; stroke-width:0.25;"/>
<line x1="711.900000" y1="166.000000" x2="715.900000" y2="166.000000"  style="stroke:black; stroke-linecap:round; stroke-width:0.25;"/>
<line x1="739.900000" y1="162.000000" x2="743.900000" y2="162.000000"  style="stroke:black; stroke-linecap:round; stroke-width:0.25;"/>
<line x1="743.900000" y1="162.000000" x2="753.900000" y2="162.000000"  style="stroke:black; stroke-linecap:round; stroke-width:0.25;"/>
<line x1="753.900000" y1="162.000000" x2="761.900000" y2="162.000000"  style="stroke:black; stroke-linecap:round; stroke-width:0.25;"/>
<line x1="753.900000" y1="182.000000" x2="761.900000" y2="182.000000"  style="stroke:black; stroke-linecap:round; stroke-width:0.25;"/>
<line x1="753.900000" y1="320.000000" x2="753.900000" y2="182.000000"  style="stroke:black; stroke-linecap:round; stroke-width:0.25;"/>
<line x1="753.900000" y1="320.000000" x2="753.900000" y2="320.000000"  style="stroke:black; stroke-linecap:round; stroke-width:0.25;"/>
<line x1="761.900000" y1="162.000000" x2="761.900000" y2="174.000000"  style="stroke:black; stroke-linecap:round; stroke-width:0.25;"/>
<line x1="761.900000" y1="174.000000" x2="761.900000" y2="174.000000"  style="stroke:black; stroke-linecap:round; stroke-width:0.25;"/>
<line x1="761.900000" y1="174.000000" x2="765.900000" y2="174.000000"  style="stroke:black; stroke-linecap:round; stroke-width:0.25;"/>
<line x1="761.900000" y1="182.000000" x2="765.900000" y2="182.000000"  style="stroke:black; stroke-linecap:round; stroke-width:0.25;"/>
<line x1="789.900000" y1="178.000000" x2="793.900000" y2="178.000000"  style="stroke:black; stroke-linecap:round; stroke-width:0.25;"/>
<line x1="793.900000" y1="178.000000" x2="793.900000" y2="178.000000"  style="stroke:black; stroke-linecap:round; stroke-width:0.25;"/>
<line x1="793.900000" y1="178.000000" x2="797.900000" y2="178.000000"  style="stroke:black; stroke-linecap:round; stroke-width:0.25;"/>
<line x1="797.900000" y1="178.000000" x2="801.900000" y2="178.000000"  style="stroke:black; stroke-linecap:round; stroke-width:0.25;"/>
<line x1="801.900000" y1="178.000000" x2="811.900000" y2="178.000000"  style="stroke:black; stroke-linecap:round; stroke-width:0.25;"/>
</svg>
