<?xml version="1.0"?>
<svg xmlns="http://www.w3.org/2000/svg" xmlns:xlink="http://www.w3.org/1999/xlink" viewBox="0 0 363.700000 240.000000" width="181.850000mm" height="120.000000mm" version="1.1">
<a xlink:href="resonlp-0x7f85f2c4e930.svg">
<rect x="1.000000" y="1.000000" width="362.700000" height="239.000000" rx="0" ry="0" style="stroke:none;fill:#cccccc;"/>
<rect x="0.000000" y="0.000000" width="362.700000" height="239.000000" rx="0" ry="0" style="stroke:none;fill:#ffffff;"/>
</a>
<text x="10.000000" y="7.000000" font-family="Arial" font-size="7"></text>
<rect x="126.850000" y="25.000000" width="24.000000" height="24.000000" rx="0" ry="0" style="stroke:none;fill:#cccccc;"/>
<rect x="125.850000" y="24.000000" width="24.000000" height="24.000000" rx="0" ry="0" style="stroke:none;fill:#f44800;"/>
<text x="137.850000" y="38.000000" font-family="Arial" font-size="7" text-anchor="middle" fill="#FFFFFF">2</text>
<circle cx="127.850000" cy="26.000000" r="1"/>
<rect x="35.000000" y="67.000000" width="167.700000" height="24.000000" rx="0" ry="0" style="stroke:none;fill:#cccccc;"/>
<rect x="34.000000" y="66.000000" width="167.700000" height="24.000000" rx="0" ry="0" style="stroke:none;fill:#477881;"/>
<text x="117.850000" y="80.000000" font-family="Arial" font-size="7" text-anchor="middle" fill="#FFFFFF">hslider(gain, 1.0f, 0.0f, 1.0f, 0.01f)</text>
<circle cx="36.000000" cy="68.000000" r="1"/>
<line x1="25.000000" y1="57.000000" x2="25.000000" y2="99.000000"  style="stroke: black; stroke-linecap:round; stroke-width:0.25; stroke-dasharray:3,3;"/>
<line x1="25.000000" y1="99.000000" x2="210.700000" y2="99.000000"  style="stroke: black; stroke-linecap:round; stroke-width:0.25; stroke-dasharray:3,3;"/>
<line x1="210.700000" y1="99.000000" x2="210.700000" y2="57.000000"  style="stroke: black; stroke-linecap:round; stroke-width:0.25; stroke-dasharray:3,3;"/>
<line x1="25.000000" y1="57.000000" x2="30.000000" y2="57.000000"  style="stroke: black; stroke-linecap:round; stroke-width:0.25; stroke-dasharray:3,3;"/>
<line x1="42.900000" y1="57.000000" x2="210.700000" y2="57.000000"  style="stroke: black; stroke-linecap:round; stroke-width:0.25; stroke-dasharray:3,3;"/>
<text x="30.000000" y="59.000000" font-family="Arial" font-size="7">b0</text>
<rect x="86.850000" y="119.000000" width="24.000000" height="24.000000" rx="0" ry="0" style="stroke:none;fill:#cccccc;"/>
<rect x="85.850000" y="118.000000" width="24.000000" height="24.000000" rx="0" ry="0" style="stroke:none;fill:#f44800;"/>
<text x="97.850000" y="132.000000" font-family="Arial" font-size="7" text-anchor="middle" fill="#FFFFFF">0</text>
<circle cx="87.850000" cy="120.000000" r="1"/>
<line x1="76.850000" y1="109.000000" x2="76.850000" y2="151.000000"  style="stroke: black; stroke-linecap:round; stroke-width:0.25; stroke-dasharray:3,3;"/>
<line x1="76.850000" y1="151.000000" x2="118.850000" y2="151.000000"  style="stroke: black; stroke-linecap:round; stroke-width:0.25; stroke-dasharray:3,3;"/>
<line x1="118.850000" y1="151.000000" x2="118.850000" y2="109.000000"  style="stroke: black; stroke-linecap:round; stroke-width:0.25; stroke-dasharray:3,3;"/>
<line x1="76.850000" y1="109.000000" x2="81.850000" y2="109.000000"  style="stroke: black; stroke-linecap:round; stroke-width:0.25; stroke-dasharray:3,3;"/>
<line x1="94.750000" y1="109.000000" x2="118.850000" y2="109.000000"  style="stroke: black; stroke-linecap:round; stroke-width:0.25; stroke-dasharray:3,3;"/>
<text x="81.850000" y="111.000000" font-family="Arial" font-size="7">b2</text>
<a xlink:href="csq-0x7f85f2c18290.svg">
<rect x="86.850000" y="161.000000" width="24.000000" height="24.000000" rx="0" ry="0" style="stroke:none;fill:#cccccc;"/>
<rect x="85.850000" y="160.000000" width="24.000000" height="24.000000" rx="0" ry="0" style="stroke:none;fill:#003366;"/>
</a>
<a xlink:href="csq-0x7f85f2c18290.svg">
<text x="97.850000" y="174.000000" font-family="Arial" font-size="7" text-anchor="middle" fill="#FFFFFF">csq</text>
</a>
<circle cx="87.850000" cy="162.000000" r="1"/>
<rect x="136.850000" y="135.000000" width="24.000000" height="24.000000" rx="0" ry="0" style="stroke:none;fill:#cccccc;"/>
<rect x="135.850000" y="134.000000" width="24.000000" height="24.000000" rx="0" ry="0" style="stroke:none;fill:#4B71A1;"/>
<text x="147.850000" y="148.000000" font-family="Arial" font-size="7" text-anchor="middle" fill="#FFFFFF">*</text>
<circle cx="137.850000" cy="136.000000" r="1"/>
<line x1="132.850000" y1="141.000000" x2="135.850000" y2="142.000000"  transform="rotate(0.000000,135.850000,142.000000)" style="stroke: black; stroke-width:0.25;"/>
<line x1="132.850000" y1="143.000000" x2="135.850000" y2="142.000000"  transform="rotate(0.000000,135.850000,142.000000)" style="stroke: black; stroke-width:0.25;"/>
<line x1="132.850000" y1="149.000000" x2="135.850000" y2="150.000000"  transform="rotate(0.000000,135.850000,150.000000)" style="stroke: black; stroke-width:0.25;"/>
<line x1="132.850000" y1="151.000000" x2="135.850000" y2="150.000000"  transform="rotate(0.000000,135.850000,150.000000)" style="stroke: black; stroke-width:0.25;"/>
<rect x="228.700000" y="109.000000" width="24.000000" height="24.000000" rx="0" ry="0" style="stroke:none;fill:#cccccc;"/>
<rect x="227.700000" y="108.000000" width="24.000000" height="24.000000" rx="0" ry="0" style="stroke:none;fill:#4B71A1;"/>
<text x="239.700000" y="122.000000" font-family="Arial" font-size="7" text-anchor="middle" fill="#FFFFFF">-</text>
<circle cx="229.700000" cy="110.000000" r="1"/>
<line x1="224.700000" y1="115.000000" x2="227.700000" y2="116.000000"  transform="rotate(0.000000,227.700000,116.000000)" style="stroke: black; stroke-width:0.25;"/>
<line x1="224.700000" y1="117.000000" x2="227.700000" y2="116.000000"  transform="rotate(0.000000,227.700000,116.000000)" style="stroke: black; stroke-width:0.25;"/>
<line x1="224.700000" y1="123.000000" x2="227.700000" y2="124.000000"  transform="rotate(0.000000,227.700000,124.000000)" style="stroke: black; stroke-width:0.25;"/>
<line x1="224.700000" y1="125.000000" x2="227.700000" y2="124.000000"  transform="rotate(0.000000,227.700000,124.000000)" style="stroke: black; stroke-width:0.25;"/>
<rect x="268.700000" y="93.000000" width="24.000000" height="24.000000" rx="0" ry="0" style="stroke:none;fill:#cccccc;"/>
<rect x="267.700000" y="92.000000" width="24.000000" height="24.000000" rx="0" ry="0" style="stroke:none;fill:#4B71A1;"/>
<text x="279.700000" y="106.000000" font-family="Arial" font-size="7" text-anchor="middle" fill="#FFFFFF">*</text>
<circle cx="269.700000" cy="94.000000" r="1"/>
<line x1="264.700000" y1="99.000000" x2="267.700000" y2="100.000000"  transform="rotate(0.000000,267.700000,100.000000)" style="stroke: black; stroke-width:0.25;"/>
<line x1="264.700000" y1="101.000000" x2="267.700000" y2="100.000000"  transform="rotate(0.000000,267.700000,100.000000)" style="stroke: black; stroke-width:0.25;"/>
<line x1="264.700000" y1="107.000000" x2="267.700000" y2="108.000000"  transform="rotate(0.000000,267.700000,108.000000)" style="stroke: black; stroke-width:0.25;"/>
<line x1="264.700000" y1="109.000000" x2="267.700000" y2="108.000000"  transform="rotate(0.000000,267.700000,108.000000)" style="stroke: black; stroke-width:0.25;"/>
<a xlink:href="d-0x7f85f2c18e00.svg">
<rect x="146.850000" y="193.000000" width="24.000000" height="24.000000" rx="0" ry="0" style="stroke:none;fill:#cccccc;"/>
<rect x="145.850000" y="192.000000" width="24.000000" height="24.000000" rx="0" ry="0" style="stroke:none;fill:#003366;"/>
</a>
<a xlink:href="d-0x7f85f2c18e00.svg">
<text x="157.850000" y="206.000000" font-family="Arial" font-size="7" text-anchor="middle" fill="#FFFFFF">d</text>
</a>
<circle cx="147.850000" cy="194.000000" r="1"/>
<rect x="308.700000" y="109.000000" width="24.000000" height="24.000000" rx="0" ry="0" style="stroke:none;fill:#cccccc;"/>
<rect x="307.700000" y="108.000000" width="24.000000" height="24.000000" rx="0" ry="0" style="stroke:none;fill:#4B71A1;"/>
<text x="319.700000" y="122.000000" font-family="Arial" font-size="7" text-anchor="middle" fill="#FFFFFF">/</text>
<circle cx="309.700000" cy="110.000000" r="1"/>
<line x1="304.700000" y1="115.000000" x2="307.700000" y2="116.000000"  transform="rotate(0.000000,307.700000,116.000000)" style="stroke: black; stroke-width:0.25;"/>
<line x1="304.700000" y1="117.000000" x2="307.700000" y2="116.000000"  transform="rotate(0.000000,307.700000,116.000000)" style="stroke: black; stroke-width:0.25;"/>
<line x1="304.700000" y1="123.000000" x2="307.700000" y2="124.000000"  transform="rotate(0.000000,307.700000,124.000000)" style="stroke: black; stroke-width:0.25;"/>
<line x1="304.700000" y1="125.000000" x2="307.700000" y2="124.000000"  transform="rotate(0.000000,307.700000,124.000000)" style="stroke: black; stroke-width:0.25;"/>
<line x1="15.000000" y1="15.000000" x2="15.000000" y2="225.000000"  style="stroke: black; stroke-linecap:round; stroke-width:0.25; stroke-dasharray:3,3;"/>
<line x1="15.000000" y1="225.000000" x2="348.700000" y2="225.000000"  style="stroke: black; stroke-linecap:round; stroke-width:0.25; stroke-dasharray:3,3;"/>
<line x1="348.700000" y1="225.000000" x2="348.700000" y2="15.000000"  style="stroke: black; stroke-linecap:round; stroke-width:0.25; stroke-dasharray:3,3;"/>
<line x1="15.000000" y1="15.000000" x2="20.000000" y2="15.000000"  style="stroke: black; stroke-linecap:round; stroke-width:0.25; stroke-dasharray:3,3;"/>
<line x1="36.125000" y1="15.000000" x2="348.700000" y2="15.000000"  style="stroke: black; stroke-linecap:round; stroke-width:0.25; stroke-dasharray:3,3;"/>
<text x="20.000000" y="17.000000" font-family="Arial" font-size="7">b1d</text>
<line x1="350.700000" y1="119.000000" x2="353.700000" y2="120.000000"  transform="rotate(0.000000,353.700000,120.000000)" style="stroke: black; stroke-width:0.25;"/>
<line x1="350.700000" y1="121.000000" x2="353.700000" y2="120.000000"  transform="rotate(0.000000,353.700000,120.000000)" style="stroke: black; stroke-width:0.25;"/>
<line x1="109.850000" y1="130.000000" x2="113.850000" y2="130.000000"  style="stroke:black; stroke-linecap:round; stroke-width:0.25;"/>
<line x1="109.850000" y1="172.000000" x2="113.850000" y2="172.000000"  style="stroke:black; stroke-linecap:round; stroke-width:0.25;"/>
<line x1="113.850000" y1="130.000000" x2="123.850000" y2="130.000000"  style="stroke:black; stroke-linecap:round; stroke-width:0.25;"/>
<line x1="113.850000" y1="172.000000" x2="123.850000" y2="172.000000"  style="stroke:black; stroke-linecap:round; stroke-width:0.25;"/>
<line x1="123.850000" y1="130.000000" x2="131.850000" y2="130.000000"  style="stroke:black; stroke-linecap:round; stroke-width:0.25;"/>
<line x1="123.850000" y1="150.000000" x2="131.850000" y2="150.000000"  style="stroke:black; stroke-linecap:round; stroke-width:0.25;"/>
<line x1="123.850000" y1="172.000000" x2="123.850000" y2="150.000000"  style="stroke:black; stroke-linecap:round; stroke-width:0.25;"/>
<line x1="123.850000" y1="172.000000" x2="123.850000" y2="172.000000"  style="stroke:black; stroke-linecap:round; stroke-width:0.25;"/>
<line x1="131.850000" y1="130.000000" x2="131.850000" y2="142.000000"  style="stroke:black; stroke-linecap:round; stroke-width:0.25;"/>
<line x1="131.850000" y1="142.000000" x2="131.850000" y2="142.000000"  style="stroke:black; stroke-linecap:round; stroke-width:0.25;"/>
<line x1="131.850000" y1="142.000000" x2="135.850000" y2="142.000000"  style="stroke:black; stroke-linecap:round; stroke-width:0.25;"/>
<line x1="131.850000" y1="150.000000" x2="135.850000" y2="150.000000"  style="stroke:black; stroke-linecap:round; stroke-width:0.25;"/>
<line x1="149.850000" y1="36.000000" x2="153.850000" y2="36.000000"  style="stroke:black; stroke-linecap:round; stroke-width:0.25;"/>
<line x1="153.850000" y1="36.000000" x2="255.700000" y2="36.000000"  style="stroke:black; stroke-linecap:round; stroke-width:0.25;"/>
<line x1="159.850000" y1="146.000000" x2="163.850000" y2="146.000000"  style="stroke:black; stroke-linecap:round; stroke-width:0.25;"/>
<line x1="163.850000" y1="146.000000" x2="215.700000" y2="146.000000"  style="stroke:black; stroke-linecap:round; stroke-width:0.25;"/>
<line x1="169.850000" y1="204.000000" x2="173.850000" y2="204.000000"  style="stroke:black; stroke-linecap:round; stroke-width:0.25;"/>
<line x1="173.850000" y1="204.000000" x2="295.700000" y2="204.000000"  style="stroke:black; stroke-linecap:round; stroke-width:0.25;"/>
<line x1="201.700000" y1="78.000000" x2="205.700000" y2="78.000000"  style="stroke:black; stroke-linecap:round; stroke-width:0.25;"/>
<line x1="205.700000" y1="78.000000" x2="215.700000" y2="78.000000"  style="stroke:black; stroke-linecap:round; stroke-width:0.25;"/>
<line x1="215.700000" y1="78.000000" x2="223.700000" y2="78.000000"  style="stroke:black; stroke-linecap:round; stroke-width:0.25;"/>
<line x1="215.700000" y1="124.000000" x2="223.700000" y2="124.000000"  style="stroke:black; stroke-linecap:round; stroke-width:0.25;"/>
<line x1="215.700000" y1="146.000000" x2="215.700000" y2="124.000000"  style="stroke:black; stroke-linecap:round; stroke-width:0.25;"/>
<line x1="215.700000" y1="146.000000" x2="215.700000" y2="146.000000"  style="stroke:black; stroke-linecap:round; stroke-width:0.25;"/>
<line x1="223.700000" y1="78.000000" x2="223.700000" y2="116.000000"  style="stroke:black; stroke-linecap:round; stroke-width:0.25;"/>
<line x1="223.700000" y1="116.000000" x2="223.700000" y2="116.000000"  style="stroke:black; stroke-linecap:round; stroke-width:0.25;"/>
<line x1="223.700000" y1="116.000000" x2="227.700000" y2="116.000000"  style="stroke:black; stroke-linecap:round; stroke-width:0.25;"/>
<line x1="223.700000" y1="124.000000" x2="227.700000" y2="124.000000"  style="stroke:black; stroke-linecap:round; stroke-width:0.25;"/>
<line x1="251.700000" y1="120.000000" x2="255.700000" y2="120.000000"  style="stroke:black; stroke-linecap:round; stroke-width:0.25;"/>
<line x1="255.700000" y1="36.000000" x2="263.700000" y2="36.000000"  style="stroke:black; stroke-linecap:round; stroke-width:0.25;"/>
<line x1="255.700000" y1="108.000000" x2="263.700000" y2="108.000000"  style="stroke:black; stroke-linecap:round; stroke-width:0.25;"/>
<line x1="255.700000" y1="120.000000" x2="255.700000" y2="108.000000"  style="stroke:black; stroke-linecap:round; stroke-width:0.25;"/>
<line x1="255.700000" y1="120.000000" x2="255.700000" y2="120.000000"  style="stroke:black; stroke-linecap:round; stroke-width:0.25;"/>
<line x1="263.700000" y1="36.000000" x2="263.700000" y2="100.000000"  style="stroke:black; stroke-linecap:round; stroke-width:0.25;"/>
<line x1="263.700000" y1="100.000000" x2="263.700000" y2="100.000000"  style="stroke:black; stroke-linecap:round; stroke-width:0.25;"/>
<line x1="263.700000" y1="100.000000" x2="267.700000" y2="100.000000"  style="stroke:black; stroke-linecap:round; stroke-width:0.25;"/>
<line x1="263.700000" y1="108.000000" x2="267.700000" y2="108.000000"  style="stroke:black; stroke-linecap:round; stroke-width:0.25;"/>
<line x1="291.700000" y1="104.000000" x2="295.700000" y2="104.000000"  style="stroke:black; stroke-linecap:round; stroke-width:0.25;"/>
<line x1="295.700000" y1="104.000000" x2="303.700000" y2="104.000000"  style="stroke:black; stroke-linecap:round; stroke-width:0.25;"/>
<line x1="295.700000" y1="124.000000" x2="303.700000" y2="124.000000"  style="stroke:black; stroke-linecap:round; stroke-width:0.25;"/>
<line x1="295.700000" y1="204.000000" x2="295.700000" y2="124.000000"  style="stroke:black; stroke-linecap:round; stroke-width:0.25;"/>
<line x1="295.700000" y1="204.000000" x2="295.700000" y2="204.000000"  style="stroke:black; stroke-linecap:round; stroke-width:0.25;"/>
<line x1="303.700000" y1="104.000000" x2="303.700000" y2="116.000000"  style="stroke:black; stroke-linecap:round; stroke-width:0.25;"/>
<line x1="303.700000" y1="116.000000" x2="303.700000" y2="116.000000"  style="stroke:black; stroke-linecap:round; stroke-width:0.25;"/>
<line x1="303.700000" y1="116.000000" x2="307.700000" y2="116.000000"  style="stroke:black; stroke-linecap:round; stroke-width:0.25;"/>
<line x1="303.700000" y1="124.000000" x2="307.700000" y2="124.000000"  style="stroke:black; stroke-linecap:round; stroke-width:0.25;"/>
<line x1="331.700000" y1="120.000000" x2="335.700000" y2="120.000000"  style="stroke:black; stroke-linecap:round; stroke-width:0.25;"/>
<line x1="335.700000" y1="120.000000" x2="335.700000" y2="120.000000"  style="stroke:black; stroke-linecap:round; stroke-width:0.25;"/>
<line x1="335.700000" y1="120.000000" x2="339.700000" y2="120.000000"  style="stroke:black; stroke-linecap:round; stroke-width:0.25;"/>
<line x1="339.700000" y1="120.000000" x2="343.700000" y2="120.000000"  style="stroke:black; stroke-linecap:round; stroke-width:0.25;"/>
<line x1="343.700000" y1="120.000000" x2="353.700000" y2="120.000000"  style="stroke:black; stroke-linecap:round; stroke-width:0.25;"/>
</svg>
