<?xml version="1.0"?>
<svg xmlns="http://www.w3.org/2000/svg" xmlns:xlink="http://www.w3.org/1999/xlink" viewBox="0 0 240.000000 264.000000" width="120.000000mm" height="132.000000mm" version="1.1">
<a xlink:href="tghr-0x7fdd0f7c4130.svg">
<rect x="1.000000" y="1.000000" width="239.000000" height="263.000000" rx="0" ry="0" style="stroke:none;fill:#cccccc;"/>
<rect x="0.000000" y="0.000000" width="239.000000" height="263.000000" rx="0" ry="0" style="stroke:none;fill:#ffffff;"/>
</a>
<text x="10.000000" y="7.000000" font-family="Arial" font-size="7"></text>
<a xlink:href="b0d-0x7fdd0f7c2cf0.svg">
<rect x="65.000000" y="25.000000" width="24.000000" height="24.000000" rx="0" ry="0" style="stroke:none;fill:#cccccc;"/>
<rect x="64.000000" y="24.000000" width="24.000000" height="24.000000" rx="0" ry="0" style="stroke:none;fill:#003366;"/>
</a>
<a xlink:href="b0d-0x7fdd0f7c2cf0.svg">
<text x="76.000000" y="38.000000" font-family="Arial" font-size="7" text-anchor="middle" fill="#FFFFFF">b0d</text>
</a>
<circle cx="66.000000" cy="26.000000" r="1"/>
<a xlink:href="b2d-0x7fdd0f7c2f20.svg">
<rect x="45.000000" y="57.000000" width="24.000000" height="24.000000" rx="0" ry="0" style="stroke:none;fill:#cccccc;"/>
<rect x="44.000000" y="56.000000" width="24.000000" height="24.000000" rx="0" ry="0" style="stroke:none;fill:#003366;"/>
</a>
<a xlink:href="b2d-0x7fdd0f7c2f20.svg">
<text x="56.000000" y="70.000000" font-family="Arial" font-size="7" text-anchor="middle" fill="#FFFFFF">b2d</text>
</a>
<circle cx="46.000000" cy="58.000000" r="1"/>
<a xlink:href="a2d-0x7fdd0f7c1230.svg">
<rect x="45.000000" y="89.000000" width="24.000000" height="24.000000" rx="0" ry="0" style="stroke:none;fill:#cccccc;"/>
<rect x="44.000000" y="88.000000" width="24.000000" height="24.000000" rx="0" ry="0" style="stroke:none;fill:#003366;"/>
</a>
<a xlink:href="a2d-0x7fdd0f7c1230.svg">
<text x="56.000000" y="102.000000" font-family="Arial" font-size="7" text-anchor="middle" fill="#FFFFFF">a2d</text>
</a>
<circle cx="46.000000" cy="90.000000" r="1"/>
<rect x="85.000000" y="73.000000" width="24.000000" height="24.000000" rx="0" ry="0" style="stroke:none;fill:#cccccc;"/>
<rect x="84.000000" y="72.000000" width="24.000000" height="24.000000" rx="0" ry="0" style="stroke:none;fill:#4B71A1;"/>
<text x="96.000000" y="86.000000" font-family="Arial" font-size="7" text-anchor="middle" fill="#FFFFFF">*</text>
<circle cx="86.000000" cy="74.000000" r="1"/>
<line x1="81.000000" y1="79.000000" x2="84.000000" y2="80.000000"  transform="rotate(0.000000,84.000000,80.000000)" style="stroke: black; stroke-width:0.25;"/>
<line x1="81.000000" y1="81.000000" x2="84.000000" y2="80.000000"  transform="rotate(0.000000,84.000000,80.000000)" style="stroke: black; stroke-width:0.25;"/>
<line x1="81.000000" y1="87.000000" x2="84.000000" y2="88.000000"  transform="rotate(0.000000,84.000000,88.000000)" style="stroke: black; stroke-width:0.25;"/>
<line x1="81.000000" y1="89.000000" x2="84.000000" y2="88.000000"  transform="rotate(0.000000,84.000000,88.000000)" style="stroke: black; stroke-width:0.25;"/>
<rect x="125.000000" y="57.000000" width="24.000000" height="24.000000" rx="0" ry="0" style="stroke:none;fill:#cccccc;"/>
<rect x="124.000000" y="56.000000" width="24.000000" height="24.000000" rx="0" ry="0" style="stroke:none;fill:#4B71A1;"/>
<text x="136.000000" y="70.000000" font-family="Arial" font-size="7" text-anchor="middle" fill="#FFFFFF">-</text>
<circle cx="126.000000" cy="58.000000" r="1"/>
<line x1="121.000000" y1="63.000000" x2="124.000000" y2="64.000000"  transform="rotate(0.000000,124.000000,64.000000)" style="stroke: black; stroke-width:0.25;"/>
<line x1="121.000000" y1="65.000000" x2="124.000000" y2="64.000000"  transform="rotate(0.000000,124.000000,64.000000)" style="stroke: black; stroke-width:0.25;"/>
<line x1="121.000000" y1="71.000000" x2="124.000000" y2="72.000000"  transform="rotate(0.000000,124.000000,72.000000)" style="stroke: black; stroke-width:0.25;"/>
<line x1="121.000000" y1="73.000000" x2="124.000000" y2="72.000000"  transform="rotate(0.000000,124.000000,72.000000)" style="stroke: black; stroke-width:0.25;"/>
<a xlink:href="b1d-0x7fdd0f7c34f0.svg">
<rect x="45.000000" y="121.000000" width="24.000000" height="24.000000" rx="0" ry="0" style="stroke:none;fill:#cccccc;"/>
<rect x="44.000000" y="120.000000" width="24.000000" height="24.000000" rx="0" ry="0" style="stroke:none;fill:#003366;"/>
</a>
<a xlink:href="b1d-0x7fdd0f7c34f0.svg">
<text x="56.000000" y="134.000000" font-family="Arial" font-size="7" text-anchor="middle" fill="#FFFFFF">b1d</text>
</a>
<circle cx="46.000000" cy="122.000000" r="1"/>
<a xlink:href="b2d-0x7fdd0f7c2f20.svg">
<rect x="25.000000" y="153.000000" width="24.000000" height="24.000000" rx="0" ry="0" style="stroke:none;fill:#cccccc;"/>
<rect x="24.000000" y="152.000000" width="24.000000" height="24.000000" rx="0" ry="0" style="stroke:none;fill:#003366;"/>
</a>
<a xlink:href="b2d-0x7fdd0f7c2f20.svg">
<text x="36.000000" y="166.000000" font-family="Arial" font-size="7" text-anchor="middle" fill="#FFFFFF">b2d</text>
</a>
<circle cx="26.000000" cy="154.000000" r="1"/>
<a xlink:href="a1d-0x7fdd0f7c0d30.svg">
<rect x="25.000000" y="185.000000" width="24.000000" height="24.000000" rx="0" ry="0" style="stroke:none;fill:#cccccc;"/>
<rect x="24.000000" y="184.000000" width="24.000000" height="24.000000" rx="0" ry="0" style="stroke:none;fill:#003366;"/>
</a>
<a xlink:href="a1d-0x7fdd0f7c0d30.svg">
<text x="36.000000" y="198.000000" font-family="Arial" font-size="7" text-anchor="middle" fill="#FFFFFF">a1d</text>
</a>
<circle cx="26.000000" cy="186.000000" r="1"/>
<rect x="65.000000" y="169.000000" width="24.000000" height="24.000000" rx="0" ry="0" style="stroke:none;fill:#cccccc;"/>
<rect x="64.000000" y="168.000000" width="24.000000" height="24.000000" rx="0" ry="0" style="stroke:none;fill:#4B71A1;"/>
<text x="76.000000" y="182.000000" font-family="Arial" font-size="7" text-anchor="middle" fill="#FFFFFF">*</text>
<circle cx="66.000000" cy="170.000000" r="1"/>
<line x1="61.000000" y1="175.000000" x2="64.000000" y2="176.000000"  transform="rotate(0.000000,64.000000,176.000000)" style="stroke: black; stroke-width:0.25;"/>
<line x1="61.000000" y1="177.000000" x2="64.000000" y2="176.000000"  transform="rotate(0.000000,64.000000,176.000000)" style="stroke: black; stroke-width:0.25;"/>
<line x1="61.000000" y1="183.000000" x2="64.000000" y2="184.000000"  transform="rotate(0.000000,64.000000,184.000000)" style="stroke: black; stroke-width:0.25;"/>
<line x1="61.000000" y1="185.000000" x2="64.000000" y2="184.000000"  transform="rotate(0.000000,64.000000,184.000000)" style="stroke: black; stroke-width:0.25;"/>
<rect x="105.000000" y="153.000000" width="24.000000" height="24.000000" rx="0" ry="0" style="stroke:none;fill:#cccccc;"/>
<rect x="104.000000" y="152.000000" width="24.000000" height="24.000000" rx="0" ry="0" style="stroke:none;fill:#4B71A1;"/>
<text x="116.000000" y="166.000000" font-family="Arial" font-size="7" text-anchor="middle" fill="#FFFFFF">-</text>
<circle cx="106.000000" cy="154.000000" r="1"/>
<line x1="101.000000" y1="159.000000" x2="104.000000" y2="160.000000"  transform="rotate(0.000000,104.000000,160.000000)" style="stroke: black; stroke-width:0.25;"/>
<line x1="101.000000" y1="161.000000" x2="104.000000" y2="160.000000"  transform="rotate(0.000000,104.000000,160.000000)" style="stroke: black; stroke-width:0.25;"/>
<line x1="101.000000" y1="167.000000" x2="104.000000" y2="168.000000"  transform="rotate(0.000000,104.000000,168.000000)" style="stroke: black; stroke-width:0.25;"/>
<line x1="101.000000" y1="169.000000" x2="104.000000" y2="168.000000"  transform="rotate(0.000000,104.000000,168.000000)" style="stroke: black; stroke-width:0.25;"/>
<a xlink:href="s-0x7fdd0f7c1960.svg">
<rect x="64.100000" y="217.000000" width="25.800000" height="24.000000" rx="0" ry="0" style="stroke:none;fill:#cccccc;"/>
<rect x="63.100000" y="216.000000" width="25.800000" height="24.000000" rx="0" ry="0" style="stroke:none;fill:#003366;"/>
</a>
<a xlink:href="s-0x7fdd0f7c1960.svg">
<text x="76.000000" y="230.000000" font-family="Arial" font-size="7" text-anchor="middle" fill="#FFFFFF">s(2)</text>
</a>
<circle cx="65.100000" cy="218.000000" r="1"/>
<rect x="145.000000" y="169.000000" width="24.000000" height="24.000000" rx="0" ry="0" style="stroke:none;fill:#cccccc;"/>
<rect x="144.000000" y="168.000000" width="24.000000" height="24.000000" rx="0" ry="0" style="stroke:none;fill:#4B71A1;"/>
<text x="156.000000" y="182.000000" font-family="Arial" font-size="7" text-anchor="middle" fill="#FFFFFF">*</text>
<circle cx="146.000000" cy="170.000000" r="1"/>
<line x1="141.000000" y1="175.000000" x2="144.000000" y2="176.000000"  transform="rotate(0.000000,144.000000,176.000000)" style="stroke: black; stroke-width:0.25;"/>
<line x1="141.000000" y1="177.000000" x2="144.000000" y2="176.000000"  transform="rotate(0.000000,144.000000,176.000000)" style="stroke: black; stroke-width:0.25;"/>
<line x1="141.000000" y1="183.000000" x2="144.000000" y2="184.000000"  transform="rotate(0.000000,144.000000,184.000000)" style="stroke: black; stroke-width:0.25;"/>
<line x1="141.000000" y1="185.000000" x2="144.000000" y2="184.000000"  transform="rotate(0.000000,144.000000,184.000000)" style="stroke: black; stroke-width:0.25;"/>
<rect x="185.000000" y="121.000000" width="24.000000" height="24.000000" rx="0" ry="0" style="stroke:none;fill:#cccccc;"/>
<rect x="184.000000" y="120.000000" width="24.000000" height="24.000000" rx="0" ry="0" style="stroke:none;fill:#4B71A1;"/>
<text x="196.000000" y="134.000000" font-family="Arial" font-size="7" text-anchor="middle" fill="#FFFFFF">-</text>
<circle cx="186.000000" cy="122.000000" r="1"/>
<line x1="181.000000" y1="127.000000" x2="184.000000" y2="128.000000"  transform="rotate(0.000000,184.000000,128.000000)" style="stroke: black; stroke-width:0.25;"/>
<line x1="181.000000" y1="129.000000" x2="184.000000" y2="128.000000"  transform="rotate(0.000000,184.000000,128.000000)" style="stroke: black; stroke-width:0.25;"/>
<line x1="181.000000" y1="135.000000" x2="184.000000" y2="136.000000"  transform="rotate(0.000000,184.000000,136.000000)" style="stroke: black; stroke-width:0.25;"/>
<line x1="181.000000" y1="137.000000" x2="184.000000" y2="136.000000"  transform="rotate(0.000000,184.000000,136.000000)" style="stroke: black; stroke-width:0.25;"/>
<line x1="15.000000" y1="15.000000" x2="15.000000" y2="249.000000"  style="stroke: black; stroke-linecap:round; stroke-width:0.25; stroke-dasharray:3,3;"/>
<line x1="15.000000" y1="249.000000" x2="225.000000" y2="249.000000"  style="stroke: black; stroke-linecap:round; stroke-width:0.25; stroke-dasharray:3,3;"/>
<line x1="225.000000" y1="249.000000" x2="225.000000" y2="15.000000"  style="stroke: black; stroke-linecap:round; stroke-width:0.25; stroke-dasharray:3,3;"/>
<line x1="15.000000" y1="15.000000" x2="20.000000" y2="15.000000"  style="stroke: black; stroke-linecap:round; stroke-width:0.25; stroke-dasharray:3,3;"/>
<line x1="45.800000" y1="15.000000" x2="225.000000" y2="15.000000"  style="stroke: black; stroke-linecap:round; stroke-width:0.25; stroke-dasharray:3,3;"/>
<text x="20.000000" y="17.000000" font-family="Arial" font-size="7">tgr(2)</text>
<line x1="227.000000" y1="131.000000" x2="230.000000" y2="132.000000"  transform="rotate(0.000000,230.000000,132.000000)" style="stroke: black; stroke-width:0.25;"/>
<line x1="227.000000" y1="133.000000" x2="230.000000" y2="132.000000"  transform="rotate(0.000000,230.000000,132.000000)" style="stroke: black; stroke-width:0.25;"/>
<line x1="48.000000" y1="164.000000" x2="52.000000" y2="164.000000"  style="stroke:black; stroke-linecap:round; stroke-width:0.25;"/>
<line x1="48.000000" y1="196.000000" x2="52.000000" y2="196.000000"  style="stroke:black; stroke-linecap:round; stroke-width:0.25;"/>
<line x1="52.000000" y1="164.000000" x2="60.000000" y2="164.000000"  style="stroke:black; stroke-linecap:round; stroke-width:0.25;"/>
<line x1="52.000000" y1="184.000000" x2="60.000000" y2="184.000000"  style="stroke:black; stroke-linecap:round; stroke-width:0.25;"/>
<line x1="52.000000" y1="196.000000" x2="52.000000" y2="184.000000"  style="stroke:black; stroke-linecap:round; stroke-width:0.25;"/>
<line x1="52.000000" y1="196.000000" x2="52.000000" y2="196.000000"  style="stroke:black; stroke-linecap:round; stroke-width:0.25;"/>
<line x1="60.000000" y1="164.000000" x2="60.000000" y2="176.000000"  style="stroke:black; stroke-linecap:round; stroke-width:0.25;"/>
<line x1="60.000000" y1="176.000000" x2="60.000000" y2="176.000000"  style="stroke:black; stroke-linecap:round; stroke-width:0.25;"/>
<line x1="60.000000" y1="176.000000" x2="64.000000" y2="176.000000"  style="stroke:black; stroke-linecap:round; stroke-width:0.25;"/>
<line x1="60.000000" y1="184.000000" x2="64.000000" y2="184.000000"  style="stroke:black; stroke-linecap:round; stroke-width:0.25;"/>
<line x1="68.000000" y1="68.000000" x2="72.000000" y2="68.000000"  style="stroke:black; stroke-linecap:round; stroke-width:0.25;"/>
<line x1="68.000000" y1="100.000000" x2="72.000000" y2="100.000000"  style="stroke:black; stroke-linecap:round; stroke-width:0.25;"/>
<line x1="68.000000" y1="132.000000" x2="72.000000" y2="132.000000"  style="stroke:black; stroke-linecap:round; stroke-width:0.25;"/>
<line x1="72.000000" y1="68.000000" x2="80.000000" y2="68.000000"  style="stroke:black; stroke-linecap:round; stroke-width:0.25;"/>
<line x1="72.000000" y1="88.000000" x2="80.000000" y2="88.000000"  style="stroke:black; stroke-linecap:round; stroke-width:0.25;"/>
<line x1="72.000000" y1="100.000000" x2="72.000000" y2="88.000000"  style="stroke:black; stroke-linecap:round; stroke-width:0.25;"/>
<line x1="72.000000" y1="100.000000" x2="72.000000" y2="100.000000"  style="stroke:black; stroke-linecap:round; stroke-width:0.25;"/>
<line x1="72.000000" y1="132.000000" x2="92.000000" y2="132.000000"  style="stroke:black; stroke-linecap:round; stroke-width:0.25;"/>
<line x1="80.000000" y1="68.000000" x2="80.000000" y2="80.000000"  style="stroke:black; stroke-linecap:round; stroke-width:0.25;"/>
<line x1="80.000000" y1="80.000000" x2="80.000000" y2="80.000000"  style="stroke:black; stroke-linecap:round; stroke-width:0.25;"/>
<line x1="80.000000" y1="80.000000" x2="84.000000" y2="80.000000"  style="stroke:black; stroke-linecap:round; stroke-width:0.25;"/>
<line x1="80.000000" y1="88.000000" x2="84.000000" y2="88.000000"  style="stroke:black; stroke-linecap:round; stroke-width:0.25;"/>
<line x1="88.000000" y1="36.000000" x2="92.000000" y2="36.000000"  style="stroke:black; stroke-linecap:round; stroke-width:0.25;"/>
<line x1="88.000000" y1="180.000000" x2="92.000000" y2="180.000000"  style="stroke:black; stroke-linecap:round; stroke-width:0.25;"/>
<line x1="88.900000" y1="228.000000" x2="92.900000" y2="228.000000"  style="stroke:black; stroke-linecap:round; stroke-width:0.25;"/>
<line x1="92.000000" y1="36.000000" x2="112.000000" y2="36.000000"  style="stroke:black; stroke-linecap:round; stroke-width:0.25;"/>
<line x1="92.000000" y1="132.000000" x2="100.000000" y2="132.000000"  style="stroke:black; stroke-linecap:round; stroke-width:0.25;"/>
<line x1="92.000000" y1="168.000000" x2="100.000000" y2="168.000000"  style="stroke:black; stroke-linecap:round; stroke-width:0.25;"/>
<line x1="92.000000" y1="180.000000" x2="92.000000" y2="168.000000"  style="stroke:black; stroke-linecap:round; stroke-width:0.25;"/>
<line x1="92.000000" y1="180.000000" x2="92.000000" y2="180.000000"  style="stroke:black; stroke-linecap:round; stroke-width:0.25;"/>
<line x1="92.900000" y1="228.000000" x2="132.000000" y2="228.000000"  style="stroke:black; stroke-linecap:round; stroke-width:0.25;"/>
<line x1="100.000000" y1="132.000000" x2="100.000000" y2="160.000000"  style="stroke:black; stroke-linecap:round; stroke-width:0.25;"/>
<line x1="100.000000" y1="160.000000" x2="100.000000" y2="160.000000"  style="stroke:black; stroke-linecap:round; stroke-width:0.25;"/>
<line x1="100.000000" y1="160.000000" x2="104.000000" y2="160.000000"  style="stroke:black; stroke-linecap:round; stroke-width:0.25;"/>
<line x1="100.000000" y1="168.000000" x2="104.000000" y2="168.000000"  style="stroke:black; stroke-linecap:round; stroke-width:0.25;"/>
<line x1="108.000000" y1="84.000000" x2="112.000000" y2="84.000000"  style="stroke:black; stroke-linecap:round; stroke-width:0.25;"/>
<line x1="112.000000" y1="36.000000" x2="120.000000" y2="36.000000"  style="stroke:black; stroke-linecap:round; stroke-width:0.25;"/>
<line x1="112.000000" y1="72.000000" x2="120.000000" y2="72.000000"  style="stroke:black; stroke-linecap:round; stroke-width:0.25;"/>
<line x1="112.000000" y1="84.000000" x2="112.000000" y2="72.000000"  style="stroke:black; stroke-linecap:round; stroke-width:0.25;"/>
<line x1="112.000000" y1="84.000000" x2="112.000000" y2="84.000000"  style="stroke:black; stroke-linecap:round; stroke-width:0.25;"/>
<line x1="120.000000" y1="36.000000" x2="120.000000" y2="64.000000"  style="stroke:black; stroke-linecap:round; stroke-width:0.25;"/>
<line x1="120.000000" y1="64.000000" x2="120.000000" y2="64.000000"  style="stroke:black; stroke-linecap:round; stroke-width:0.25;"/>
<line x1="120.000000" y1="64.000000" x2="124.000000" y2="64.000000"  style="stroke:black; stroke-linecap:round; stroke-width:0.25;"/>
<line x1="120.000000" y1="72.000000" x2="124.000000" y2="72.000000"  style="stroke:black; stroke-linecap:round; stroke-width:0.25;"/>
<line x1="128.000000" y1="164.000000" x2="132.000000" y2="164.000000"  style="stroke:black; stroke-linecap:round; stroke-width:0.25;"/>
<line x1="132.000000" y1="164.000000" x2="140.000000" y2="164.000000"  style="stroke:black; stroke-linecap:round; stroke-width:0.25;"/>
<line x1="132.000000" y1="184.000000" x2="140.000000" y2="184.000000"  style="stroke:black; stroke-linecap:round; stroke-width:0.25;"/>
<line x1="132.000000" y1="228.000000" x2="132.000000" y2="184.000000"  style="stroke:black; stroke-linecap:round; stroke-width:0.25;"/>
<line x1="132.000000" y1="228.000000" x2="132.000000" y2="228.000000"  style="stroke:black; stroke-linecap:round; stroke-width:0.25;"/>
<line x1="140.000000" y1="164.000000" x2="140.000000" y2="176.000000"  style="stroke:black; stroke-linecap:round; stroke-width:0.25;"/>
<line x1="140.000000" y1="176.000000" x2="140.000000" y2="176.000000"  style="stroke:black; stroke-linecap:round; stroke-width:0.25;"/>
<line x1="140.000000" y1="176.000000" x2="144.000000" y2="176.000000"  style="stroke:black; stroke-linecap:round; stroke-width:0.25;"/>
<line x1="140.000000" y1="184.000000" x2="144.000000" y2="184.000000"  style="stroke:black; stroke-linecap:round; stroke-width:0.25;"/>
<line x1="148.000000" y1="68.000000" x2="152.000000" y2="68.000000"  style="stroke:black; stroke-linecap:round; stroke-width:0.25;"/>
<line x1="152.000000" y1="68.000000" x2="172.000000" y2="68.000000"  style="stroke:black; stroke-linecap:round; stroke-width:0.25;"/>
<line x1="168.000000" y1="180.000000" x2="172.000000" y2="180.000000"  style="stroke:black; stroke-linecap:round; stroke-width:0.25;"/>
<line x1="172.000000" y1="68.000000" x2="180.000000" y2="68.000000"  style="stroke:black; stroke-linecap:round; stroke-width:0.25;"/>
<line x1="172.000000" y1="136.000000" x2="180.000000" y2="136.000000"  style="stroke:black; stroke-linecap:round; stroke-width:0.25;"/>
<line x1="172.000000" y1="180.000000" x2="172.000000" y2="136.000000"  style="stroke:black; stroke-linecap:round; stroke-width:0.25;"/>
<line x1="172.000000" y1="180.000000" x2="172.000000" y2="180.000000"  style="stroke:black; stroke-linecap:round; stroke-width:0.25;"/>
<line x1="180.000000" y1="68.000000" x2="180.000000" y2="128.000000"  style="stroke:black; stroke-linecap:round; stroke-width:0.25;"/>
<line x1="180.000000" y1="128.000000" x2="180.000000" y2="128.000000"  style="stroke:black; stroke-linecap:round; stroke-width:0.25;"/>
<line x1="180.000000" y1="128.000000" x2="184.000000" y2="128.000000"  style="stroke:black; stroke-linecap:round; stroke-width:0.25;"/>
<line x1="180.000000" y1="136.000000" x2="184.000000" y2="136.000000"  style="stroke:black; stroke-linecap:round; stroke-width:0.25;"/>
<line x1="208.000000" y1="132.000000" x2="212.000000" y2="132.000000"  style="stroke:black; stroke-linecap:round; stroke-width:0.25;"/>
<line x1="212.000000" y1="132.000000" x2="212.000000" y2="132.000000"  style="stroke:black; stroke-linecap:round; stroke-width:0.25;"/>
<line x1="212.000000" y1="132.000000" x2="216.000000" y2="132.000000"  style="stroke:black; stroke-linecap:round; stroke-width:0.25;"/>
<line x1="216.000000" y1="132.000000" x2="220.000000" y2="132.000000"  style="stroke:black; stroke-linecap:round; stroke-width:0.25;"/>
<line x1="220.000000" y1="132.000000" x2="230.000000" y2="132.000000"  style="stroke:black; stroke-linecap:round; stroke-width:0.25;"/>
</svg>
