<?xml version="1.0"?>
<svg xmlns="http://www.w3.org/2000/svg" xmlns:xlink="http://www.w3.org/1999/xlink" viewBox="0 0 565.600000 264.000000" width="282.800000mm" height="132.000000mm" version="1.1">
<rect x="1.000000" y="1.000000" width="564.600000" height="263.000000" rx="0" ry="0" style="stroke:none;fill:#cccccc;"/>
<rect x="0.000000" y="0.000000" width="564.600000" height="263.000000" rx="0" ry="0" style="stroke:none;fill:#ffffff;"/>
<text x="10.000000" y="7.000000" font-family="Arial" font-size="7"></text>
<rect x="51.000000" y="69.000000" width="245.100000" height="24.000000" rx="0" ry="0" style="stroke:none;fill:#cccccc;"/>
<rect x="50.000000" y="68.000000" width="245.100000" height="24.000000" rx="0" ry="0" style="stroke:none;fill:#477881;"/>
<text x="172.550000" y="82.000000" font-family="Arial" font-size="7" text-anchor="middle" fill="#FFFFFF">vslider(volume, 0.10000000000000001f, 0.0f, 1.0f, 0.01f)</text>
<circle cx="52.000000" cy="70.000000" r="1"/>
<rect x="312.100000" y="65.000000" width="24.000000" height="24.000000" rx="0" ry="0" style="stroke:none;fill:#cccccc;"/>
<rect x="311.100000" y="64.000000" width="24.000000" height="24.000000" rx="0" ry="0" style="stroke:none;fill:#4B71A1;"/>
<text x="323.100000" y="78.000000" font-family="Arial" font-size="7" text-anchor="middle" fill="#FFFFFF">*</text>
<circle cx="313.100000" cy="66.000000" r="1"/>
<line x1="308.100000" y1="71.000000" x2="311.100000" y2="72.000000"  transform="rotate(0.000000,311.100000,72.000000)" style="stroke: black; stroke-width:0.25;"/>
<line x1="308.100000" y1="73.000000" x2="311.100000" y2="72.000000"  transform="rotate(0.000000,311.100000,72.000000)" style="stroke: black; stroke-width:0.25;"/>
<line x1="308.100000" y1="79.000000" x2="311.100000" y2="80.000000"  transform="rotate(0.000000,311.100000,80.000000)" style="stroke: black; stroke-width:0.25;"/>
<line x1="308.100000" y1="81.000000" x2="311.100000" y2="80.000000"  transform="rotate(0.000000,311.100000,80.000000)" style="stroke: black; stroke-width:0.25;"/>
<rect x="382.350000" y="53.000000" width="24.000000" height="24.000000" rx="0" ry="0" style="stroke:none;fill:#cccccc;"/>
<rect x="381.350000" y="52.000000" width="24.000000" height="24.000000" rx="0" ry="0" style="stroke:none;fill:#f44800;"/>
<text x="393.350000" y="66.000000" font-family="Arial" font-size="7" text-anchor="middle" fill="#FFFFFF">1</text>
<circle cx="383.350000" cy="54.000000" r="1"/>
<rect x="362.100000" y="85.000000" width="64.500000" height="24.000000" rx="0" ry="0" style="stroke:none;fill:#cccccc;"/>
<rect x="361.100000" y="84.000000" width="64.500000" height="24.000000" rx="0" ry="0" style="stroke:none;fill:#477881;"/>
<text x="393.350000" y="98.000000" font-family="Arial" font-size="7" text-anchor="middle" fill="#FFFFFF">checkbox(mute)</text>
<circle cx="363.100000" cy="86.000000" r="1"/>
<rect x="442.600000" y="69.000000" width="24.000000" height="24.000000" rx="0" ry="0" style="stroke:none;fill:#cccccc;"/>
<rect x="441.600000" y="68.000000" width="24.000000" height="24.000000" rx="0" ry="0" style="stroke:none;fill:#4B71A1;"/>
<text x="453.600000" y="82.000000" font-family="Arial" font-size="7" text-anchor="middle" fill="#FFFFFF">-</text>
<circle cx="443.600000" cy="70.000000" r="1"/>
<line x1="438.600000" y1="75.000000" x2="441.600000" y2="76.000000"  transform="rotate(0.000000,441.600000,76.000000)" style="stroke: black; stroke-width:0.25;"/>
<line x1="438.600000" y1="77.000000" x2="441.600000" y2="76.000000"  transform="rotate(0.000000,441.600000,76.000000)" style="stroke: black; stroke-width:0.25;"/>
<line x1="438.600000" y1="83.000000" x2="441.600000" y2="84.000000"  transform="rotate(0.000000,441.600000,84.000000)" style="stroke: black; stroke-width:0.25;"/>
<line x1="438.600000" y1="85.000000" x2="441.600000" y2="84.000000"  transform="rotate(0.000000,441.600000,84.000000)" style="stroke: black; stroke-width:0.25;"/>
<rect x="482.600000" y="65.000000" width="24.000000" height="24.000000" rx="0" ry="0" style="stroke:none;fill:#cccccc;"/>
<rect x="481.600000" y="64.000000" width="24.000000" height="24.000000" rx="0" ry="0" style="stroke:none;fill:#4B71A1;"/>
<text x="493.600000" y="78.000000" font-family="Arial" font-size="7" text-anchor="middle" fill="#FFFFFF">*</text>
<circle cx="483.600000" cy="66.000000" r="1"/>
<line x1="478.600000" y1="71.000000" x2="481.600000" y2="72.000000"  transform="rotate(0.000000,481.600000,72.000000)" style="stroke: black; stroke-width:0.25;"/>
<line x1="478.600000" y1="73.000000" x2="481.600000" y2="72.000000"  transform="rotate(0.000000,481.600000,72.000000)" style="stroke: black; stroke-width:0.25;"/>
<line x1="478.600000" y1="79.000000" x2="481.600000" y2="80.000000"  transform="rotate(0.000000,481.600000,80.000000)" style="stroke: black; stroke-width:0.25;"/>
<line x1="478.600000" y1="81.000000" x2="481.600000" y2="80.000000"  transform="rotate(0.000000,481.600000,80.000000)" style="stroke: black; stroke-width:0.25;"/>
<line x1="352.100000" y1="35.000000" x2="352.100000" y2="117.000000"  style="stroke: black; stroke-linecap:round; stroke-width:0.25; stroke-dasharray:3,3;"/>
<line x1="352.100000" y1="117.000000" x2="514.600000" y2="117.000000"  style="stroke: black; stroke-linecap:round; stroke-width:0.25; stroke-dasharray:3,3;"/>
<line x1="514.600000" y1="117.000000" x2="514.600000" y2="35.000000"  style="stroke: black; stroke-linecap:round; stroke-width:0.25; stroke-dasharray:3,3;"/>
<line x1="352.100000" y1="35.000000" x2="357.100000" y2="35.000000"  style="stroke: black; stroke-linecap:round; stroke-width:0.25; stroke-dasharray:3,3;"/>
<line x1="376.450000" y1="35.000000" x2="514.600000" y2="35.000000"  style="stroke: black; stroke-linecap:round; stroke-width:0.25; stroke-dasharray:3,3;"/>
<text x="357.100000" y="37.000000" font-family="Arial" font-size="7">mute</text>
<line x1="41.000000" y1="25.000000" x2="41.000000" y2="127.000000"  style="stroke: black; stroke-linecap:round; stroke-width:0.25; stroke-dasharray:3,3;"/>
<line x1="41.000000" y1="127.000000" x2="524.600000" y2="127.000000"  style="stroke: black; stroke-linecap:round; stroke-width:0.25; stroke-dasharray:3,3;"/>
<line x1="524.600000" y1="127.000000" x2="524.600000" y2="25.000000"  style="stroke: black; stroke-linecap:round; stroke-width:0.25; stroke-dasharray:3,3;"/>
<line x1="41.000000" y1="25.000000" x2="46.000000" y2="25.000000"  style="stroke: black; stroke-linecap:round; stroke-width:0.25; stroke-dasharray:3,3;"/>
<line x1="75.025000" y1="25.000000" x2="524.600000" y2="25.000000"  style="stroke: black; stroke-linecap:round; stroke-width:0.25; stroke-dasharray:3,3;"/>
<text x="46.000000" y="27.000000" font-family="Arial" font-size="7">monoamp</text>
<rect x="51.000000" y="181.000000" width="245.100000" height="24.000000" rx="0" ry="0" style="stroke:none;fill:#cccccc;"/>
<rect x="50.000000" y="180.000000" width="245.100000" height="24.000000" rx="0" ry="0" style="stroke:none;fill:#477881;"/>
<text x="172.550000" y="194.000000" font-family="Arial" font-size="7" text-anchor="middle" fill="#FFFFFF">vslider(volume, 0.10000000000000001f, 0.0f, 1.0f, 0.01f)</text>
<circle cx="52.000000" cy="182.000000" r="1"/>
<rect x="312.100000" y="177.000000" width="24.000000" height="24.000000" rx="0" ry="0" style="stroke:none;fill:#cccccc;"/>
<rect x="311.100000" y="176.000000" width="24.000000" height="24.000000" rx="0" ry="0" style="stroke:none;fill:#4B71A1;"/>
<text x="323.100000" y="190.000000" font-family="Arial" font-size="7" text-anchor="middle" fill="#FFFFFF">*</text>
<circle cx="313.100000" cy="178.000000" r="1"/>
<line x1="308.100000" y1="183.000000" x2="311.100000" y2="184.000000"  transform="rotate(0.000000,311.100000,184.000000)" style="stroke: black; stroke-width:0.25;"/>
<line x1="308.100000" y1="185.000000" x2="311.100000" y2="184.000000"  transform="rotate(0.000000,311.100000,184.000000)" style="stroke: black; stroke-width:0.25;"/>
<line x1="308.100000" y1="191.000000" x2="311.100000" y2="192.000000"  transform="rotate(0.000000,311.100000,192.000000)" style="stroke: black; stroke-width:0.25;"/>
<line x1="308.100000" y1="193.000000" x2="311.100000" y2="192.000000"  transform="rotate(0.000000,311.100000,192.000000)" style="stroke: black; stroke-width:0.25;"/>
<rect x="382.350000" y="165.000000" width="24.000000" height="24.000000" rx="0" ry="0" style="stroke:none;fill:#cccccc;"/>
<rect x="381.350000" y="164.000000" width="24.000000" height="24.000000" rx="0" ry="0" style="stroke:none;fill:#f44800;"/>
<text x="393.350000" y="178.000000" font-family="Arial" font-size="7" text-anchor="middle" fill="#FFFFFF">1</text>
<circle cx="383.350000" cy="166.000000" r="1"/>
<rect x="362.100000" y="197.000000" width="64.500000" height="24.000000" rx="0" ry="0" style="stroke:none;fill:#cccccc;"/>
<rect x="361.100000" y="196.000000" width="64.500000" height="24.000000" rx="0" ry="0" style="stroke:none;fill:#477881;"/>
<text x="393.350000" y="210.000000" font-family="Arial" font-size="7" text-anchor="middle" fill="#FFFFFF">checkbox(mute)</text>
<circle cx="363.100000" cy="198.000000" r="1"/>
<rect x="442.600000" y="181.000000" width="24.000000" height="24.000000" rx="0" ry="0" style="stroke:none;fill:#cccccc;"/>
<rect x="441.600000" y="180.000000" width="24.000000" height="24.000000" rx="0" ry="0" style="stroke:none;fill:#4B71A1;"/>
<text x="453.600000" y="194.000000" font-family="Arial" font-size="7" text-anchor="middle" fill="#FFFFFF">-</text>
<circle cx="443.600000" cy="182.000000" r="1"/>
<line x1="438.600000" y1="187.000000" x2="441.600000" y2="188.000000"  transform="rotate(0.000000,441.600000,188.000000)" style="stroke: black; stroke-width:0.25;"/>
<line x1="438.600000" y1="189.000000" x2="441.600000" y2="188.000000"  transform="rotate(0.000000,441.600000,188.000000)" style="stroke: black; stroke-width:0.25;"/>
<line x1="438.600000" y1="195.000000" x2="441.600000" y2="196.000000"  transform="rotate(0.000000,441.600000,196.000000)" style="stroke: black; stroke-width:0.25;"/>
<line x1="438.600000" y1="197.000000" x2="441.600000" y2="196.000000"  transform="rotate(0.000000,441.600000,196.000000)" style="stroke: black; stroke-width:0.25;"/>
<rect x="482.600000" y="177.000000" width="24.000000" height="24.000000" rx="0" ry="0" style="stroke:none;fill:#cccccc;"/>
<rect x="481.600000" y="176.000000" width="24.000000" height="24.000000" rx="0" ry="0" style="stroke:none;fill:#4B71A1;"/>
<text x="493.600000" y="190.000000" font-family="Arial" font-size="7" text-anchor="middle" fill="#FFFFFF">*</text>
<circle cx="483.600000" cy="178.000000" r="1"/>
<line x1="478.600000" y1="183.000000" x2="481.600000" y2="184.000000"  transform="rotate(0.000000,481.600000,184.000000)" style="stroke: black; stroke-width:0.25;"/>
<line x1="478.600000" y1="185.000000" x2="481.600000" y2="184.000000"  transform="rotate(0.000000,481.600000,184.000000)" style="stroke: black; stroke-width:0.25;"/>
<line x1="478.600000" y1="191.000000" x2="481.600000" y2="192.000000"  transform="rotate(0.000000,481.600000,192.000000)" style="stroke: black; stroke-width:0.25;"/>
<line x1="478.600000" y1="193.000000" x2="481.600000" y2="192.000000"  transform="rotate(0.000000,481.600000,192.000000)" style="stroke: black; stroke-width:0.25;"/>
<line x1="352.100000" y1="147.000000" x2="352.100000" y2="229.000000"  style="stroke: black; stroke-linecap:round; stroke-width:0.25; stroke-dasharray:3,3;"/>
<line x1="352.100000" y1="229.000000" x2="514.600000" y2="229.000000"  style="stroke: black; stroke-linecap:round; stroke-width:0.25; stroke-dasharray:3,3;"/>
<line x1="514.600000" y1="229.000000" x2="514.600000" y2="147.000000"  style="stroke: black; stroke-linecap:round; stroke-width:0.25; stroke-dasharray:3,3;"/>
<line x1="352.100000" y1="147.000000" x2="357.100000" y2="147.000000"  style="stroke: black; stroke-linecap:round; stroke-width:0.25; stroke-dasharray:3,3;"/>
<line x1="376.450000" y1="147.000000" x2="514.600000" y2="147.000000"  style="stroke: black; stroke-linecap:round; stroke-width:0.25; stroke-dasharray:3,3;"/>
<text x="357.100000" y="149.000000" font-family="Arial" font-size="7">mute</text>
<line x1="41.000000" y1="137.000000" x2="41.000000" y2="239.000000"  style="stroke: black; stroke-linecap:round; stroke-width:0.25; stroke-dasharray:3,3;"/>
<line x1="41.000000" y1="239.000000" x2="524.600000" y2="239.000000"  style="stroke: black; stroke-linecap:round; stroke-width:0.25; stroke-dasharray:3,3;"/>
<line x1="524.600000" y1="239.000000" x2="524.600000" y2="137.000000"  style="stroke: black; stroke-linecap:round; stroke-width:0.25; stroke-dasharray:3,3;"/>
<line x1="41.000000" y1="137.000000" x2="46.000000" y2="137.000000"  style="stroke: black; stroke-linecap:round; stroke-width:0.25; stroke-dasharray:3,3;"/>
<line x1="75.025000" y1="137.000000" x2="524.600000" y2="137.000000"  style="stroke: black; stroke-linecap:round; stroke-width:0.25; stroke-dasharray:3,3;"/>
<text x="46.000000" y="139.000000" font-family="Arial" font-size="7">monoamp</text>
<line x1="15.000000" y1="15.000000" x2="15.000000" y2="249.000000"  style="stroke: black; stroke-linecap:round; stroke-width:0.25; stroke-dasharray:3,3;"/>
<line x1="15.000000" y1="249.000000" x2="550.600000" y2="249.000000"  style="stroke: black; stroke-linecap:round; stroke-width:0.25; stroke-dasharray:3,3;"/>
<line x1="550.600000" y1="249.000000" x2="550.600000" y2="15.000000"  style="stroke: black; stroke-linecap:round; stroke-width:0.25; stroke-dasharray:3,3;"/>
<line x1="15.000000" y1="15.000000" x2="20.000000" y2="15.000000"  style="stroke: black; stroke-linecap:round; stroke-width:0.25; stroke-dasharray:3,3;"/>
<line x1="49.025000" y1="15.000000" x2="550.600000" y2="15.000000"  style="stroke: black; stroke-linecap:round; stroke-width:0.25; stroke-dasharray:3,3;"/>
<text x="20.000000" y="17.000000" font-family="Arial" font-size="7">process</text>
<line x1="552.600000" y1="127.000000" x2="555.600000" y2="128.000000"  transform="rotate(0.000000,555.600000,128.000000)" style="stroke: black; stroke-width:0.25;"/>
<line x1="552.600000" y1="129.000000" x2="555.600000" y2="128.000000"  transform="rotate(0.000000,555.600000,128.000000)" style="stroke: black; stroke-width:0.25;"/>
<line x1="552.600000" y1="135.000000" x2="555.600000" y2="136.000000"  transform="rotate(0.000000,555.600000,136.000000)" style="stroke: black; stroke-width:0.25;"/>
<line x1="552.600000" y1="137.000000" x2="555.600000" y2="136.000000"  transform="rotate(0.000000,555.600000,136.000000)" style="stroke: black; stroke-width:0.25;"/>
<line x1="10.000000" y1="128.000000" x2="20.000000" y2="128.000000"  style="stroke:black; stroke-linecap:round; stroke-width:0.25;"/>
<line x1="10.000000" y1="136.000000" x2="20.000000" y2="136.000000"  style="stroke:black; stroke-linecap:round; stroke-width:0.25;"/>
<line x1="20.000000" y1="128.000000" x2="24.000000" y2="128.000000"  style="stroke:black; stroke-linecap:round; stroke-width:0.25;"/>
<line x1="20.000000" y1="136.000000" x2="24.000000" y2="136.000000"  style="stroke:black; stroke-linecap:round; stroke-width:0.25;"/>
<line x1="24.000000" y1="128.000000" x2="28.000000" y2="128.000000"  style="stroke:black; stroke-linecap:round; stroke-width:0.25;"/>
<line x1="24.000000" y1="136.000000" x2="28.000000" y2="136.000000"  style="stroke:black; stroke-linecap:round; stroke-width:0.25;"/>
<line x1="28.000000" y1="60.000000" x2="36.000000" y2="60.000000"  style="stroke:black; stroke-linecap:round; stroke-width:0.25;"/>
<line x1="28.000000" y1="128.000000" x2="28.000000" y2="60.000000"  style="stroke:black; stroke-linecap:round; stroke-width:0.25;"/>
<line x1="28.000000" y1="128.000000" x2="28.000000" y2="128.000000"  style="stroke:black; stroke-linecap:round; stroke-width:0.25;"/>
<line x1="28.000000" y1="136.000000" x2="36.000000" y2="136.000000"  style="stroke:black; stroke-linecap:round; stroke-width:0.25;"/>
<line x1="36.000000" y1="136.000000" x2="36.000000" y2="172.000000"  style="stroke:black; stroke-linecap:round; stroke-width:0.25;"/>
<line x1="36.000000" y1="172.000000" x2="36.000000" y2="172.000000"  style="stroke:black; stroke-linecap:round; stroke-width:0.25;"/>
<line x1="36.000000" y1="60.000000" x2="46.000000" y2="60.000000"  style="stroke:black; stroke-linecap:round; stroke-width:0.25;"/>
<line x1="36.000000" y1="172.000000" x2="46.000000" y2="172.000000"  style="stroke:black; stroke-linecap:round; stroke-width:0.25;"/>
<line x1="46.000000" y1="60.000000" x2="172.550000" y2="60.000000"  style="stroke:black; stroke-linecap:round; stroke-width:0.25;"/>
<line x1="46.000000" y1="172.000000" x2="172.550000" y2="172.000000"  style="stroke:black; stroke-linecap:round; stroke-width:0.25;"/>
<line x1="172.550000" y1="60.000000" x2="299.100000" y2="60.000000"  style="stroke:black; stroke-linecap:round; stroke-width:0.25;"/>
<line x1="172.550000" y1="172.000000" x2="299.100000" y2="172.000000"  style="stroke:black; stroke-linecap:round; stroke-width:0.25;"/>
<line x1="295.100000" y1="80.000000" x2="299.100000" y2="80.000000"  style="stroke:black; stroke-linecap:round; stroke-width:0.25;"/>
<line x1="295.100000" y1="192.000000" x2="299.100000" y2="192.000000"  style="stroke:black; stroke-linecap:round; stroke-width:0.25;"/>
<line x1="299.100000" y1="60.000000" x2="307.100000" y2="60.000000"  style="stroke:black; stroke-linecap:round; stroke-width:0.25;"/>
<line x1="299.100000" y1="80.000000" x2="307.100000" y2="80.000000"  style="stroke:black; stroke-linecap:round; stroke-width:0.25;"/>
<line x1="299.100000" y1="172.000000" x2="307.100000" y2="172.000000"  style="stroke:black; stroke-linecap:round; stroke-width:0.25;"/>
<line x1="299.100000" y1="192.000000" x2="307.100000" y2="192.000000"  style="stroke:black; stroke-linecap:round; stroke-width:0.25;"/>
<line x1="307.100000" y1="60.000000" x2="307.100000" y2="72.000000"  style="stroke:black; stroke-linecap:round; stroke-width:0.25;"/>
<line x1="307.100000" y1="72.000000" x2="307.100000" y2="72.000000"  style="stroke:black; stroke-linecap:round; stroke-width:0.25;"/>
<line x1="307.100000" y1="72.000000" x2="311.100000" y2="72.000000"  style="stroke:black; stroke-linecap:round; stroke-width:0.25;"/>
<line x1="307.100000" y1="80.000000" x2="311.100000" y2="80.000000"  style="stroke:black; stroke-linecap:round; stroke-width:0.25;"/>
<line x1="307.100000" y1="172.000000" x2="307.100000" y2="184.000000"  style="stroke:black; stroke-linecap:round; stroke-width:0.25;"/>
<line x1="307.100000" y1="184.000000" x2="307.100000" y2="184.000000"  style="stroke:black; stroke-linecap:round; stroke-width:0.25;"/>
<line x1="307.100000" y1="184.000000" x2="311.100000" y2="184.000000"  style="stroke:black; stroke-linecap:round; stroke-width:0.25;"/>
<line x1="307.100000" y1="192.000000" x2="311.100000" y2="192.000000"  style="stroke:black; stroke-linecap:round; stroke-width:0.25;"/>
<line x1="335.100000" y1="76.000000" x2="339.100000" y2="76.000000"  style="stroke:black; stroke-linecap:round; stroke-width:0.25;"/>
<line x1="335.100000" y1="188.000000" x2="339.100000" y2="188.000000"  style="stroke:black; stroke-linecap:round; stroke-width:0.25;"/>
<line x1="339.100000" y1="44.000000" x2="347.100000" y2="44.000000"  style="stroke:black; stroke-linecap:round; stroke-width:0.25;"/>
<line x1="339.100000" y1="76.000000" x2="339.100000" y2="44.000000"  style="stroke:black; stroke-linecap:round; stroke-width:0.25;"/>
<line x1="339.100000" y1="76.000000" x2="339.100000" y2="76.000000"  style="stroke:black; stroke-linecap:round; stroke-width:0.25;"/>
<line x1="339.100000" y1="156.000000" x2="347.100000" y2="156.000000"  style="stroke:black; stroke-linecap:round; stroke-width:0.25;"/>
<line x1="339.100000" y1="188.000000" x2="339.100000" y2="156.000000"  style="stroke:black; stroke-linecap:round; stroke-width:0.25;"/>
<line x1="339.100000" y1="188.000000" x2="339.100000" y2="188.000000"  style="stroke:black; stroke-linecap:round; stroke-width:0.25;"/>
<line x1="347.100000" y1="44.000000" x2="357.100000" y2="44.000000"  style="stroke:black; stroke-linecap:round; stroke-width:0.25;"/>
<line x1="347.100000" y1="156.000000" x2="357.100000" y2="156.000000"  style="stroke:black; stroke-linecap:round; stroke-width:0.25;"/>
<line x1="357.100000" y1="44.000000" x2="413.350000" y2="44.000000"  style="stroke:black; stroke-linecap:round; stroke-width:0.25;"/>
<line x1="357.100000" y1="156.000000" x2="413.350000" y2="156.000000"  style="stroke:black; stroke-linecap:round; stroke-width:0.25;"/>
<line x1="405.350000" y1="64.000000" x2="409.350000" y2="64.000000"  style="stroke:black; stroke-linecap:round; stroke-width:0.25;"/>
<line x1="405.350000" y1="176.000000" x2="409.350000" y2="176.000000"  style="stroke:black; stroke-linecap:round; stroke-width:0.25;"/>
<line x1="409.350000" y1="64.000000" x2="429.600000" y2="64.000000"  style="stroke:black; stroke-linecap:round; stroke-width:0.25;"/>
<line x1="409.350000" y1="176.000000" x2="429.600000" y2="176.000000"  style="stroke:black; stroke-linecap:round; stroke-width:0.25;"/>
<line x1="413.350000" y1="44.000000" x2="469.600000" y2="44.000000"  style="stroke:black; stroke-linecap:round; stroke-width:0.25;"/>
<line x1="413.350000" y1="156.000000" x2="469.600000" y2="156.000000"  style="stroke:black; stroke-linecap:round; stroke-width:0.25;"/>
<line x1="425.600000" y1="96.000000" x2="429.600000" y2="96.000000"  style="stroke:black; stroke-linecap:round; stroke-width:0.25;"/>
<line x1="425.600000" y1="208.000000" x2="429.600000" y2="208.000000"  style="stroke:black; stroke-linecap:round; stroke-width:0.25;"/>
<line x1="429.600000" y1="64.000000" x2="437.600000" y2="64.000000"  style="stroke:black; stroke-linecap:round; stroke-width:0.25;"/>
<line x1="429.600000" y1="84.000000" x2="437.600000" y2="84.000000"  style="stroke:black; stroke-linecap:round; stroke-width:0.25;"/>
<line x1="429.600000" y1="96.000000" x2="429.600000" y2="84.000000"  style="stroke:black; stroke-linecap:round; stroke-width:0.25;"/>
<line x1="429.600000" y1="96.000000" x2="429.600000" y2="96.000000"  style="stroke:black; stroke-linecap:round; stroke-width:0.25;"/>
<line x1="429.600000" y1="176.000000" x2="437.600000" y2="176.000000"  style="stroke:black; stroke-linecap:round; stroke-width:0.25;"/>
<line x1="429.600000" y1="196.000000" x2="437.600000" y2="196.000000"  style="stroke:black; stroke-linecap:round; stroke-width:0.25;"/>
<line x1="429.600000" y1="208.000000" x2="429.600000" y2="196.000000"  style="stroke:black; stroke-linecap:round; stroke-width:0.25;"/>
<line x1="429.600000" y1="208.000000" x2="429.600000" y2="208.000000"  style="stroke:black; stroke-linecap:round; stroke-width:0.25;"/>
<line x1="437.600000" y1="64.000000" x2="437.600000" y2="76.000000"  style="stroke:black; stroke-linecap:round; stroke-width:0.25;"/>
<line x1="437.600000" y1="76.000000" x2="437.600000" y2="76.000000"  style="stroke:black; stroke-linecap:round; stroke-width:0.25;"/>
<line x1="437.600000" y1="76.000000" x2="441.600000" y2="76.000000"  style="stroke:black; stroke-linecap:round; stroke-width:0.25;"/>
<line x1="437.600000" y1="84.000000" x2="441.600000" y2="84.000000"  style="stroke:black; stroke-linecap:round; stroke-width:0.25;"/>
<line x1="437.600000" y1="176.000000" x2="437.600000" y2="188.000000"  style="stroke:black; stroke-linecap:round; stroke-width:0.25;"/>
<line x1="437.600000" y1="188.000000" x2="437.600000" y2="188.000000"  style="stroke:black; stroke-linecap:round; stroke-width:0.25;"/>
<line x1="437.600000" y1="188.000000" x2="441.600000" y2="188.000000"  style="stroke:black; stroke-linecap:round; stroke-width:0.25;"/>
<line x1="437.600000" y1="196.000000" x2="441.600000" y2="196.000000"  style="stroke:black; stroke-linecap:round; stroke-width:0.25;"/>
<line x1="465.600000" y1="80.000000" x2="469.600000" y2="80.000000"  style="stroke:black; stroke-linecap:round; stroke-width:0.25;"/>
<line x1="465.600000" y1="192.000000" x2="469.600000" y2="192.000000"  style="stroke:black; stroke-linecap:round; stroke-width:0.25;"/>
<line x1="469.600000" y1="44.000000" x2="477.600000" y2="44.000000"  style="stroke:black; stroke-linecap:round; stroke-width:0.25;"/>
<line x1="469.600000" y1="80.000000" x2="477.600000" y2="80.000000"  style="stroke:black; stroke-linecap:round; stroke-width:0.25;"/>
<line x1="469.600000" y1="156.000000" x2="477.600000" y2="156.000000"  style="stroke:black; stroke-linecap:round; stroke-width:0.25;"/>
<line x1="469.600000" y1="192.000000" x2="477.600000" y2="192.000000"  style="stroke:black; stroke-linecap:round; stroke-width:0.25;"/>
<line x1="477.600000" y1="44.000000" x2="477.600000" y2="72.000000"  style="stroke:black; stroke-linecap:round; stroke-width:0.25;"/>
<line x1="477.600000" y1="72.000000" x2="477.600000" y2="72.000000"  style="stroke:black; stroke-linecap:round; stroke-width:0.25;"/>
<line x1="477.600000" y1="72.000000" x2="481.600000" y2="72.000000"  style="stroke:black; stroke-linecap:round; stroke-width:0.25;"/>
<line x1="477.600000" y1="80.000000" x2="481.600000" y2="80.000000"  style="stroke:black; stroke-linecap:round; stroke-width:0.25;"/>
<line x1="477.600000" y1="156.000000" x2="477.600000" y2="184.000000"  style="stroke:black; stroke-linecap:round; stroke-width:0.25;"/>
<line x1="477.600000" y1="184.000000" x2="477.600000" y2="184.000000"  style="stroke:black; stroke-linecap:round; stroke-width:0.25;"/>
<line x1="477.600000" y1="184.000000" x2="481.600000" y2="184.000000"  style="stroke:black; stroke-linecap:round; stroke-width:0.25;"/>
<line x1="477.600000" y1="192.000000" x2="481.600000" y2="192.000000"  style="stroke:black; stroke-linecap:round; stroke-width:0.25;"/>
<line x1="505.600000" y1="76.000000" x2="509.600000" y2="76.000000"  style="stroke:black; stroke-linecap:round; stroke-width:0.25;"/>
<line x1="505.600000" y1="188.000000" x2="509.600000" y2="188.000000"  style="stroke:black; stroke-linecap:round; stroke-width:0.25;"/>
<line x1="509.600000" y1="76.000000" x2="519.600000" y2="76.000000"  style="stroke:black; stroke-linecap:round; stroke-width:0.25;"/>
<line x1="509.600000" y1="188.000000" x2="519.600000" y2="188.000000"  style="stroke:black; stroke-linecap:round; stroke-width:0.25;"/>
<line x1="519.600000" y1="76.000000" x2="529.600000" y2="76.000000"  style="stroke:black; stroke-linecap:round; stroke-width:0.25;"/>
<line x1="519.600000" y1="188.000000" x2="529.600000" y2="188.000000"  style="stroke:black; stroke-linecap:round; stroke-width:0.25;"/>
<line x1="529.600000" y1="76.000000" x2="537.600000" y2="76.000000"  style="stroke:black; stroke-linecap:round; stroke-width:0.25;"/>
<line x1="529.600000" y1="136.000000" x2="537.600000" y2="136.000000"  style="stroke:black; stroke-linecap:round; stroke-width:0.25;"/>
<line x1="529.600000" y1="188.000000" x2="529.600000" y2="136.000000"  style="stroke:black; stroke-linecap:round; stroke-width:0.25;"/>
<line x1="529.600000" y1="188.000000" x2="529.600000" y2="188.000000"  style="stroke:black; stroke-linecap:round; stroke-width:0.25;"/>
<line x1="537.600000" y1="76.000000" x2="537.600000" y2="128.000000"  style="stroke:black; stroke-linecap:round; stroke-width:0.25;"/>
<line x1="537.600000" y1="128.000000" x2="537.600000" y2="128.000000"  style="stroke:black; stroke-linecap:round; stroke-width:0.25;"/>
<line x1="537.600000" y1="128.000000" x2="541.600000" y2="128.000000"  style="stroke:black; stroke-linecap:round; stroke-width:0.25;"/>
<line x1="537.600000" y1="136.000000" x2="541.600000" y2="136.000000"  style="stroke:black; stroke-linecap:round; stroke-width:0.25;"/>
<line x1="541.600000" y1="128.000000" x2="545.600000" y2="128.000000"  style="stroke:black; stroke-linecap:round; stroke-width:0.25;"/>
<line x1="541.600000" y1="136.000000" x2="545.600000" y2="136.000000"  style="stroke:black; stroke-linecap:round; stroke-width:0.25;"/>
<line x1="545.600000" y1="128.000000" x2="555.600000" y2="128.000000"  style="stroke:black; stroke-linecap:round; stroke-width:0.25;"/>
<line x1="545.600000" y1="136.000000" x2="555.600000" y2="136.000000"  style="stroke:black; stroke-linecap:round; stroke-width:0.25;"/>
</svg>
