<?xml version="1.0"?>
<svg xmlns="http://www.w3.org/2000/svg" xmlns:xlink="http://www.w3.org/1999/xlink" viewBox="0 0 378.000000 88.000000" width="189.000000mm" height="44.000000mm" version="1.1">
<rect x="1.000000" y="1.000000" width="377.000000" height="87.000000" rx="0" ry="0" style="stroke:none;fill:#cccccc;"/>
<rect x="0.000000" y="0.000000" width="377.000000" height="87.000000" rx="0" ry="0" style="stroke:none;fill:#ffffff;"/>
<text x="10.000000" y="7.000000" font-family="Arial" font-size="7"></text>
<a xlink:href="inswitch-0x7ff9e6f8d610.svg">
<rect x="57.000000" y="25.000000" width="38.700000" height="24.000000" rx="0" ry="0" style="stroke:none;fill:#cccccc;"/>
<rect x="56.000000" y="24.000000" width="38.700000" height="24.000000" rx="0" ry="0" style="stroke:none;fill:#003366;"/>
</a>
<a xlink:href="inswitch-0x7ff9e6f8d610.svg">
<text x="75.350000" y="38.000000" font-family="Arial" font-size="7" text-anchor="middle" fill="#FFFFFF">inswitch</text>
</a>
<circle cx="58.000000" cy="26.000000" r="1"/>
<line x1="53.000000" y1="31.000000" x2="56.000000" y2="32.000000"  transform="rotate(0.000000,56.000000,32.000000)" style="stroke: black; stroke-width:0.25;"/>
<line x1="53.000000" y1="33.000000" x2="56.000000" y2="32.000000"  transform="rotate(0.000000,56.000000,32.000000)" style="stroke: black; stroke-width:0.25;"/>
<line x1="53.000000" y1="39.000000" x2="56.000000" y2="40.000000"  transform="rotate(0.000000,56.000000,40.000000)" style="stroke: black; stroke-width:0.25;"/>
<line x1="53.000000" y1="41.000000" x2="56.000000" y2="40.000000"  transform="rotate(0.000000,56.000000,40.000000)" style="stroke: black; stroke-width:0.25;"/>
<a xlink:href="phaser2-0x7ff9e8307660.svg">
<rect x="103.700000" y="25.000000" width="90.300000" height="24.000000" rx="0" ry="0" style="stroke:none;fill:#cccccc;"/>
<rect x="102.700000" y="24.000000" width="90.300000" height="24.000000" rx="0" ry="0" style="stroke:none;fill:#003366;"/>
</a>
<a xlink:href="phaser2-0x7ff9e8307660.svg">
<text x="147.850000" y="38.000000" font-family="Arial" font-size="7" text-anchor="middle" fill="#FFFFFF">phaser2_stereo_demo</text>
</a>
<circle cx="104.700000" cy="26.000000" r="1"/>
<line x1="99.700000" y1="31.000000" x2="102.700000" y2="32.000000"  transform="rotate(0.000000,102.700000,32.000000)" style="stroke: black; stroke-width:0.25;"/>
<line x1="99.700000" y1="33.000000" x2="102.700000" y2="32.000000"  transform="rotate(0.000000,102.700000,32.000000)" style="stroke: black; stroke-width:0.25;"/>
<line x1="99.700000" y1="39.000000" x2="102.700000" y2="40.000000"  transform="rotate(0.000000,102.700000,40.000000)" style="stroke: black; stroke-width:0.25;"/>
<line x1="99.700000" y1="41.000000" x2="102.700000" y2="40.000000"  transform="rotate(0.000000,102.700000,40.000000)" style="stroke: black; stroke-width:0.25;"/>
<a xlink:href="select2stereo-0x7ff9e6fc6670.svg">
<rect x="218.000000" y="29.000000" width="129.000000" height="32.000000" rx="0" ry="0" style="stroke:none;fill:#cccccc;"/>
<rect x="217.000000" y="28.000000" width="129.000000" height="32.000000" rx="0" ry="0" style="stroke:none;fill:#003366;"/>
</a>
<a xlink:href="select2stereo-0x7ff9e6fc6670.svg">
<text x="281.500000" y="46.000000" font-family="Arial" font-size="7" text-anchor="middle" fill="#FFFFFF">select2stereo... effect]&quot;))))</text>
</a>
<circle cx="219.000000" cy="30.000000" r="1"/>
<line x1="214.000000" y1="31.000000" x2="217.000000" y2="32.000000"  transform="rotate(0.000000,217.000000,32.000000)" style="stroke: black; stroke-width:0.25;"/>
<line x1="214.000000" y1="33.000000" x2="217.000000" y2="32.000000"  transform="rotate(0.000000,217.000000,32.000000)" style="stroke: black; stroke-width:0.25;"/>
<line x1="214.000000" y1="39.000000" x2="217.000000" y2="40.000000"  transform="rotate(0.000000,217.000000,40.000000)" style="stroke: black; stroke-width:0.25;"/>
<line x1="214.000000" y1="41.000000" x2="217.000000" y2="40.000000"  transform="rotate(0.000000,217.000000,40.000000)" style="stroke: black; stroke-width:0.25;"/>
<line x1="214.000000" y1="47.000000" x2="217.000000" y2="48.000000"  transform="rotate(0.000000,217.000000,48.000000)" style="stroke: black; stroke-width:0.25;"/>
<line x1="214.000000" y1="49.000000" x2="217.000000" y2="48.000000"  transform="rotate(0.000000,217.000000,48.000000)" style="stroke: black; stroke-width:0.25;"/>
<line x1="214.000000" y1="55.000000" x2="217.000000" y2="56.000000"  transform="rotate(0.000000,217.000000,56.000000)" style="stroke: black; stroke-width:0.25;"/>
<line x1="214.000000" y1="57.000000" x2="217.000000" y2="56.000000"  transform="rotate(0.000000,217.000000,56.000000)" style="stroke: black; stroke-width:0.25;"/>
<line x1="15.000000" y1="15.000000" x2="15.000000" y2="73.000000"  style="stroke: black; stroke-linecap:round; stroke-width:0.25; stroke-dasharray:3,3;"/>
<line x1="15.000000" y1="73.000000" x2="363.000000" y2="73.000000"  style="stroke: black; stroke-linecap:round; stroke-width:0.25; stroke-dasharray:3,3;"/>
<line x1="363.000000" y1="73.000000" x2="363.000000" y2="15.000000"  style="stroke: black; stroke-linecap:round; stroke-width:0.25; stroke-dasharray:3,3;"/>
<line x1="15.000000" y1="15.000000" x2="20.000000" y2="15.000000"  style="stroke: black; stroke-linecap:round; stroke-width:0.25; stroke-dasharray:3,3;"/>
<line x1="49.025000" y1="15.000000" x2="363.000000" y2="15.000000"  style="stroke: black; stroke-linecap:round; stroke-width:0.25; stroke-dasharray:3,3;"/>
<text x="20.000000" y="17.000000" font-family="Arial" font-size="7">process</text>
<line x1="365.000000" y1="39.000000" x2="368.000000" y2="40.000000"  transform="rotate(0.000000,368.000000,40.000000)" style="stroke: black; stroke-width:0.25;"/>
<line x1="365.000000" y1="41.000000" x2="368.000000" y2="40.000000"  transform="rotate(0.000000,368.000000,40.000000)" style="stroke: black; stroke-width:0.25;"/>
<line x1="365.000000" y1="47.000000" x2="368.000000" y2="48.000000"  transform="rotate(0.000000,368.000000,48.000000)" style="stroke: black; stroke-width:0.25;"/>
<line x1="365.000000" y1="49.000000" x2="368.000000" y2="48.000000"  transform="rotate(0.000000,368.000000,48.000000)" style="stroke: black; stroke-width:0.25;"/>
<line x1="10.000000" y1="40.000000" x2="20.000000" y2="40.000000"  style="stroke:black; stroke-linecap:round; stroke-width:0.25;"/>
<line x1="10.000000" y1="48.000000" x2="20.000000" y2="48.000000"  style="stroke:black; stroke-linecap:round; stroke-width:0.25;"/>
<line x1="20.000000" y1="40.000000" x2="24.000000" y2="40.000000"  style="stroke:black; stroke-linecap:round; stroke-width:0.25;"/>
<line x1="20.000000" y1="48.000000" x2="24.000000" y2="48.000000"  style="stroke:black; stroke-linecap:round; stroke-width:0.25;"/>
<line x1="24.000000" y1="40.000000" x2="28.000000" y2="40.000000"  style="stroke:black; stroke-linecap:round; stroke-width:0.25;"/>
<line x1="24.000000" y1="48.000000" x2="28.000000" y2="48.000000"  style="stroke:black; stroke-linecap:round; stroke-width:0.25;"/>
<line x1="28.000000" y1="40.000000" x2="28.000000" y2="40.000000"  style="stroke:black; stroke-linecap:round; stroke-width:0.25;"/>
<line x1="28.000000" y1="40.000000" x2="32.000000" y2="40.000000"  style="stroke:black; stroke-linecap:round; stroke-width:0.25;"/>
<line x1="28.000000" y1="48.000000" x2="28.000000" y2="48.000000"  style="stroke:black; stroke-linecap:round; stroke-width:0.25;"/>
<line x1="28.000000" y1="48.000000" x2="32.000000" y2="48.000000"  style="stroke:black; stroke-linecap:round; stroke-width:0.25;"/>
<line x1="32.000000" y1="40.000000" x2="36.000000" y2="40.000000"  style="stroke:black; stroke-linecap:round; stroke-width:0.25;"/>
<line x1="32.000000" y1="48.000000" x2="36.000000" y2="48.000000"  style="stroke:black; stroke-linecap:round; stroke-width:0.25;"/>
<line x1="36.000000" y1="40.000000" x2="52.000000" y2="32.000000"  style="stroke:black; stroke-linecap:round; stroke-width:0.25;"/>
<line x1="36.000000" y1="40.000000" x2="52.000000" y2="56.000000"  style="stroke:black; stroke-linecap:round; stroke-width:0.25;"/>
<line x1="36.000000" y1="48.000000" x2="52.000000" y2="40.000000"  style="stroke:black; stroke-linecap:round; stroke-width:0.25;"/>
<line x1="36.000000" y1="48.000000" x2="52.000000" y2="64.000000"  style="stroke:black; stroke-linecap:round; stroke-width:0.25;"/>
<line x1="52.000000" y1="32.000000" x2="56.000000" y2="32.000000"  style="stroke:black; stroke-linecap:round; stroke-width:0.25;"/>
<line x1="52.000000" y1="40.000000" x2="56.000000" y2="40.000000"  style="stroke:black; stroke-linecap:round; stroke-width:0.25;"/>
<line x1="52.000000" y1="56.000000" x2="124.500000" y2="56.000000"  style="stroke:black; stroke-linecap:round; stroke-width:0.25;"/>
<line x1="52.000000" y1="64.000000" x2="124.500000" y2="64.000000"  style="stroke:black; stroke-linecap:round; stroke-width:0.25;"/>
<line x1="94.700000" y1="32.000000" x2="98.700000" y2="32.000000"  style="stroke:black; stroke-linecap:round; stroke-width:0.25;"/>
<line x1="94.700000" y1="40.000000" x2="98.700000" y2="40.000000"  style="stroke:black; stroke-linecap:round; stroke-width:0.25;"/>
<line x1="98.700000" y1="32.000000" x2="98.700000" y2="32.000000"  style="stroke:black; stroke-linecap:round; stroke-width:0.25;"/>
<line x1="98.700000" y1="32.000000" x2="102.700000" y2="32.000000"  style="stroke:black; stroke-linecap:round; stroke-width:0.25;"/>
<line x1="98.700000" y1="40.000000" x2="98.700000" y2="40.000000"  style="stroke:black; stroke-linecap:round; stroke-width:0.25;"/>
<line x1="98.700000" y1="40.000000" x2="102.700000" y2="40.000000"  style="stroke:black; stroke-linecap:round; stroke-width:0.25;"/>
<line x1="124.500000" y1="56.000000" x2="197.000000" y2="56.000000"  style="stroke:black; stroke-linecap:round; stroke-width:0.25;"/>
<line x1="124.500000" y1="64.000000" x2="197.000000" y2="64.000000"  style="stroke:black; stroke-linecap:round; stroke-width:0.25;"/>
<line x1="193.000000" y1="32.000000" x2="197.000000" y2="32.000000"  style="stroke:black; stroke-linecap:round; stroke-width:0.25;"/>
<line x1="193.000000" y1="40.000000" x2="197.000000" y2="40.000000"  style="stroke:black; stroke-linecap:round; stroke-width:0.25;"/>
<line x1="197.000000" y1="32.000000" x2="213.000000" y2="32.000000"  style="stroke:black; stroke-linecap:round; stroke-width:0.25;"/>
<line x1="197.000000" y1="40.000000" x2="213.000000" y2="40.000000"  style="stroke:black; stroke-linecap:round; stroke-width:0.25;"/>
<line x1="197.000000" y1="48.000000" x2="213.000000" y2="48.000000"  style="stroke:black; stroke-linecap:round; stroke-width:0.25;"/>
<line x1="197.000000" y1="56.000000" x2="197.000000" y2="48.000000"  style="stroke:black; stroke-linecap:round; stroke-width:0.25;"/>
<line x1="197.000000" y1="56.000000" x2="197.000000" y2="56.000000"  style="stroke:black; stroke-linecap:round; stroke-width:0.25;"/>
<line x1="197.000000" y1="64.000000" x2="205.000000" y2="64.000000"  style="stroke:black; stroke-linecap:round; stroke-width:0.25;"/>
<line x1="205.000000" y1="56.000000" x2="213.000000" y2="56.000000"  style="stroke:black; stroke-linecap:round; stroke-width:0.25;"/>
<line x1="205.000000" y1="64.000000" x2="205.000000" y2="56.000000"  style="stroke:black; stroke-linecap:round; stroke-width:0.25;"/>
<line x1="213.000000" y1="32.000000" x2="217.000000" y2="32.000000"  style="stroke:black; stroke-linecap:round; stroke-width:0.25;"/>
<line x1="213.000000" y1="40.000000" x2="217.000000" y2="40.000000"  style="stroke:black; stroke-linecap:round; stroke-width:0.25;"/>
<line x1="213.000000" y1="48.000000" x2="217.000000" y2="48.000000"  style="stroke:black; stroke-linecap:round; stroke-width:0.25;"/>
<line x1="213.000000" y1="56.000000" x2="217.000000" y2="56.000000"  style="stroke:black; stroke-linecap:round; stroke-width:0.25;"/>
<line x1="346.000000" y1="40.000000" x2="350.000000" y2="40.000000"  style="stroke:black; stroke-linecap:round; stroke-width:0.25;"/>
<line x1="346.000000" y1="48.000000" x2="350.000000" y2="48.000000"  style="stroke:black; stroke-linecap:round; stroke-width:0.25;"/>
<line x1="350.000000" y1="40.000000" x2="350.000000" y2="40.000000"  style="stroke:black; stroke-linecap:round; stroke-width:0.25;"/>
<line x1="350.000000" y1="40.000000" x2="354.000000" y2="40.000000"  style="stroke:black; stroke-linecap:round; stroke-width:0.25;"/>
<line x1="350.000000" y1="48.000000" x2="350.000000" y2="48.000000"  style="stroke:black; stroke-linecap:round; stroke-width:0.25;"/>
<line x1="350.000000" y1="48.000000" x2="354.000000" y2="48.000000"  style="stroke:black; stroke-linecap:round; stroke-width:0.25;"/>
<line x1="354.000000" y1="40.000000" x2="358.000000" y2="40.000000"  style="stroke:black; stroke-linecap:round; stroke-width:0.25;"/>
<line x1="354.000000" y1="48.000000" x2="358.000000" y2="48.000000"  style="stroke:black; stroke-linecap:round; stroke-width:0.25;"/>
<line x1="358.000000" y1="40.000000" x2="368.000000" y2="40.000000"  style="stroke:black; stroke-linecap:round; stroke-width:0.25;"/>
<line x1="358.000000" y1="48.000000" x2="368.000000" y2="48.000000"  style="stroke:black; stroke-linecap:round; stroke-width:0.25;"/>
</svg>
