<?xml version="1.0"?>
<svg xmlns="http://www.w3.org/2000/svg" xmlns:xlink="http://www.w3.org/1999/xlink" viewBox="0 0 224.500000 264.000000" width="112.250000mm" height="132.000000mm" version="1.1">
<a xlink:href="if-0x7f8fc186a700.svg">
<rect x="1.000000" y="1.000000" width="223.500000" height="263.000000" rx="0" ry="0" style="stroke:none;fill:#cccccc;"/>
<rect x="0.000000" y="0.000000" width="223.500000" height="263.000000" rx="0" ry="0" style="stroke:none;fill:#ffffff;"/>
</a>
<text x="10.000000" y="7.000000" font-family="Arial" font-size="7"></text>
<rect x="25.900000" y="25.000000" width="24.000000" height="24.000000" rx="0" ry="0" style="stroke:none;fill:#cccccc;"/>
<rect x="24.900000" y="24.000000" width="24.000000" height="24.000000" rx="0" ry="0" style="stroke:none;fill:#47945E;"/>
<text x="36.900000" y="38.000000" font-family="Arial" font-size="7" text-anchor="middle" fill="#FFFFFF">ip</text>
<circle cx="26.900000" cy="26.000000" r="1"/>
<rect x="25.900000" y="57.000000" width="24.000000" height="24.000000" rx="0" ry="0" style="stroke:none;fill:#cccccc;"/>
<rect x="24.900000" y="56.000000" width="24.000000" height="24.000000" rx="0" ry="0" style="stroke:none;fill:#f44800;"/>
<text x="36.900000" y="70.000000" font-family="Arial" font-size="7" text-anchor="middle" fill="#FFFFFF">1</text>
<circle cx="26.900000" cy="58.000000" r="1"/>
<rect x="65.900000" y="41.000000" width="24.000000" height="24.000000" rx="0" ry="0" style="stroke:none;fill:#cccccc;"/>
<rect x="64.900000" y="40.000000" width="24.000000" height="24.000000" rx="0" ry="0" style="stroke:none;fill:#4B71A1;"/>
<text x="76.900000" y="54.000000" font-family="Arial" font-size="7" text-anchor="middle" fill="#FFFFFF">==</text>
<circle cx="66.900000" cy="42.000000" r="1"/>
<line x1="61.900000" y1="47.000000" x2="64.900000" y2="48.000000"  transform="rotate(0.000000,64.900000,48.000000)" style="stroke: black; stroke-width:0.25;"/>
<line x1="61.900000" y1="49.000000" x2="64.900000" y2="48.000000"  transform="rotate(0.000000,64.900000,48.000000)" style="stroke: black; stroke-width:0.25;"/>
<line x1="61.900000" y1="55.000000" x2="64.900000" y2="56.000000"  transform="rotate(0.000000,64.900000,56.000000)" style="stroke: black; stroke-width:0.25;"/>
<line x1="61.900000" y1="57.000000" x2="64.900000" y2="56.000000"  transform="rotate(0.000000,64.900000,56.000000)" style="stroke: black; stroke-width:0.25;"/>
<a xlink:href="dtime-0x7f8fbfe9a2e0.svg">
<rect x="25.000000" y="89.000000" width="25.800000" height="24.000000" rx="0" ry="0" style="stroke:none;fill:#cccccc;"/>
<rect x="24.000000" y="88.000000" width="25.800000" height="24.000000" rx="0" ry="0" style="stroke:none;fill:#003366;"/>
</a>
<a xlink:href="dtime-0x7f8fbfe9a2e0.svg">
<text x="36.900000" y="102.000000" font-family="Arial" font-size="7" text-anchor="middle" fill="#FFFFFF">dtime</text>
</a>
<circle cx="26.000000" cy="90.000000" r="1"/>
<rect x="25.900000" y="121.000000" width="24.000000" height="24.000000" rx="0" ry="0" style="stroke:none;fill:#cccccc;"/>
<rect x="24.900000" y="120.000000" width="24.000000" height="24.000000" rx="0" ry="0" style="stroke:none;fill:#47945E;"/>
<text x="36.900000" y="134.000000" font-family="Arial" font-size="7" text-anchor="middle" fill="#FFFFFF">d1</text>
<circle cx="26.900000" cy="122.000000" r="1"/>
<rect x="66.800000" y="105.000000" width="24.000000" height="24.000000" rx="0" ry="0" style="stroke:none;fill:#cccccc;"/>
<rect x="65.800000" y="104.000000" width="24.000000" height="24.000000" rx="0" ry="0" style="stroke:none;fill:#4B71A1;"/>
<text x="77.800000" y="118.000000" font-family="Arial" font-size="7" text-anchor="middle" fill="#FFFFFF">!=</text>
<circle cx="67.800000" cy="106.000000" r="1"/>
<line x1="62.800000" y1="111.000000" x2="65.800000" y2="112.000000"  transform="rotate(0.000000,65.800000,112.000000)" style="stroke: black; stroke-width:0.25;"/>
<line x1="62.800000" y1="113.000000" x2="65.800000" y2="112.000000"  transform="rotate(0.000000,65.800000,112.000000)" style="stroke: black; stroke-width:0.25;"/>
<line x1="62.800000" y1="119.000000" x2="65.800000" y2="120.000000"  transform="rotate(0.000000,65.800000,120.000000)" style="stroke: black; stroke-width:0.25;"/>
<line x1="62.800000" y1="121.000000" x2="65.800000" y2="120.000000"  transform="rotate(0.000000,65.800000,120.000000)" style="stroke: black; stroke-width:0.25;"/>
<rect x="106.800000" y="73.000000" width="24.000000" height="24.000000" rx="0" ry="0" style="stroke:none;fill:#cccccc;"/>
<rect x="105.800000" y="72.000000" width="24.000000" height="24.000000" rx="0" ry="0" style="stroke:none;fill:#4B71A1;"/>
<text x="117.800000" y="86.000000" font-family="Arial" font-size="7" text-anchor="middle" fill="#FFFFFF">&amp;</text>
<circle cx="107.800000" cy="74.000000" r="1"/>
<line x1="102.800000" y1="79.000000" x2="105.800000" y2="80.000000"  transform="rotate(0.000000,105.800000,80.000000)" style="stroke: black; stroke-width:0.25;"/>
<line x1="102.800000" y1="81.000000" x2="105.800000" y2="80.000000"  transform="rotate(0.000000,105.800000,80.000000)" style="stroke: black; stroke-width:0.25;"/>
<line x1="102.800000" y1="87.000000" x2="105.800000" y2="88.000000"  transform="rotate(0.000000,105.800000,88.000000)" style="stroke: black; stroke-width:0.25;"/>
<line x1="102.800000" y1="89.000000" x2="105.800000" y2="88.000000"  transform="rotate(0.000000,105.800000,88.000000)" style="stroke: black; stroke-width:0.25;"/>
<rect x="65.900000" y="153.000000" width="24.000000" height="24.000000" rx="0" ry="0" style="stroke:none;fill:#cccccc;"/>
<rect x="64.900000" y="152.000000" width="24.000000" height="24.000000" rx="0" ry="0" style="stroke:none;fill:#f44800;"/>
<text x="76.900000" y="166.000000" font-family="Arial" font-size="7" text-anchor="middle" fill="#FFFFFF">0</text>
<circle cx="66.900000" cy="154.000000" r="1"/>
<rect x="45.900000" y="185.000000" width="24.000000" height="24.000000" rx="0" ry="0" style="stroke:none;fill:#cccccc;"/>
<rect x="44.900000" y="184.000000" width="24.000000" height="24.000000" rx="0" ry="0" style="stroke:none;fill:#f44800;"/>
<text x="56.900000" y="198.000000" font-family="Arial" font-size="7" text-anchor="middle" fill="#FFFFFF">-1</text>
<circle cx="46.900000" cy="186.000000" r="1"/>
<a xlink:href="interp-0x7f8fbfe9bc50.svg">
<rect x="45.000000" y="217.000000" width="25.800000" height="24.000000" rx="0" ry="0" style="stroke:none;fill:#cccccc;"/>
<rect x="44.000000" y="216.000000" width="25.800000" height="24.000000" rx="0" ry="0" style="stroke:none;fill:#003366;"/>
</a>
<a xlink:href="interp-0x7f8fbfe9bc50.svg">
<text x="56.900000" y="230.000000" font-family="Arial" font-size="7" text-anchor="middle" fill="#FFFFFF">interp</text>
</a>
<circle cx="46.000000" cy="218.000000" r="1"/>
<rect x="86.800000" y="201.000000" width="24.000000" height="24.000000" rx="0" ry="0" style="stroke:none;fill:#cccccc;"/>
<rect x="85.800000" y="200.000000" width="24.000000" height="24.000000" rx="0" ry="0" style="stroke:none;fill:#4B71A1;"/>
<text x="97.800000" y="214.000000" font-family="Arial" font-size="7" text-anchor="middle" fill="#FFFFFF">/</text>
<circle cx="87.800000" cy="202.000000" r="1"/>
<line x1="82.800000" y1="207.000000" x2="85.800000" y2="208.000000"  transform="rotate(0.000000,85.800000,208.000000)" style="stroke: black; stroke-width:0.25;"/>
<line x1="82.800000" y1="209.000000" x2="85.800000" y2="208.000000"  transform="rotate(0.000000,85.800000,208.000000)" style="stroke: black; stroke-width:0.25;"/>
<line x1="82.800000" y1="215.000000" x2="85.800000" y2="216.000000"  transform="rotate(0.000000,85.800000,216.000000)" style="stroke: black; stroke-width:0.25;"/>
<line x1="82.800000" y1="217.000000" x2="85.800000" y2="216.000000"  transform="rotate(0.000000,85.800000,216.000000)" style="stroke: black; stroke-width:0.25;"/>
<rect x="154.800000" y="121.000000" width="38.700000" height="24.000000" rx="0" ry="0" style="stroke:none;fill:#cccccc;"/>
<rect x="153.800000" y="120.000000" width="38.700000" height="24.000000" rx="0" ry="0" style="stroke:none;fill:#4B71A1;"/>
<text x="173.150000" y="134.000000" font-family="Arial" font-size="7" text-anchor="middle" fill="#FFFFFF">select2</text>
<circle cx="155.800000" cy="122.000000" r="1"/>
<line x1="150.800000" y1="123.000000" x2="153.800000" y2="124.000000"  transform="rotate(0.000000,153.800000,124.000000)" style="stroke: black; stroke-width:0.25;"/>
<line x1="150.800000" y1="125.000000" x2="153.800000" y2="124.000000"  transform="rotate(0.000000,153.800000,124.000000)" style="stroke: black; stroke-width:0.25;"/>
<line x1="150.800000" y1="131.000000" x2="153.800000" y2="132.000000"  transform="rotate(0.000000,153.800000,132.000000)" style="stroke: black; stroke-width:0.25;"/>
<line x1="150.800000" y1="133.000000" x2="153.800000" y2="132.000000"  transform="rotate(0.000000,153.800000,132.000000)" style="stroke: black; stroke-width:0.25;"/>
<line x1="150.800000" y1="139.000000" x2="153.800000" y2="140.000000"  transform="rotate(0.000000,153.800000,140.000000)" style="stroke: black; stroke-width:0.25;"/>
<line x1="150.800000" y1="141.000000" x2="153.800000" y2="140.000000"  transform="rotate(0.000000,153.800000,140.000000)" style="stroke: black; stroke-width:0.25;"/>
<line x1="15.000000" y1="15.000000" x2="15.000000" y2="249.000000"  style="stroke: black; stroke-linecap:round; stroke-width:0.25; stroke-dasharray:3,3;"/>
<line x1="15.000000" y1="249.000000" x2="209.500000" y2="249.000000"  style="stroke: black; stroke-linecap:round; stroke-width:0.25; stroke-dasharray:3,3;"/>
<line x1="209.500000" y1="249.000000" x2="209.500000" y2="15.000000"  style="stroke: black; stroke-linecap:round; stroke-width:0.25; stroke-dasharray:3,3;"/>
<line x1="15.000000" y1="15.000000" x2="20.000000" y2="15.000000"  style="stroke: black; stroke-linecap:round; stroke-width:0.25; stroke-dasharray:3,3;"/>
<line x1="129.650000" y1="15.000000" x2="209.500000" y2="15.000000"  style="stroke: black; stroke-linecap:round; stroke-width:0.25; stroke-dasharray:3,3;"/>
<text x="20.000000" y="17.000000" font-family="Arial" font-size="7">if((x2,1.0f :....0f : /) : /)(0)</text>
<line x1="211.500000" y1="131.000000" x2="214.500000" y2="132.000000"  transform="rotate(0.000000,214.500000,132.000000)" style="stroke: black; stroke-width:0.25;"/>
<line x1="211.500000" y1="133.000000" x2="214.500000" y2="132.000000"  transform="rotate(0.000000,214.500000,132.000000)" style="stroke: black; stroke-width:0.25;"/>
<line x1="48.900000" y1="36.000000" x2="52.900000" y2="36.000000"  style="stroke:black; stroke-linecap:round; stroke-width:0.25;"/>
<line x1="48.900000" y1="68.000000" x2="52.900000" y2="68.000000"  style="stroke:black; stroke-linecap:round; stroke-width:0.25;"/>
<line x1="48.900000" y1="132.000000" x2="52.900000" y2="132.000000"  style="stroke:black; stroke-linecap:round; stroke-width:0.25;"/>
<line x1="49.800000" y1="100.000000" x2="53.800000" y2="100.000000"  style="stroke:black; stroke-linecap:round; stroke-width:0.25;"/>
<line x1="52.900000" y1="36.000000" x2="60.900000" y2="36.000000"  style="stroke:black; stroke-linecap:round; stroke-width:0.25;"/>
<line x1="52.900000" y1="56.000000" x2="60.900000" y2="56.000000"  style="stroke:black; stroke-linecap:round; stroke-width:0.25;"/>
<line x1="52.900000" y1="68.000000" x2="52.900000" y2="56.000000"  style="stroke:black; stroke-linecap:round; stroke-width:0.25;"/>
<line x1="52.900000" y1="68.000000" x2="52.900000" y2="68.000000"  style="stroke:black; stroke-linecap:round; stroke-width:0.25;"/>
<line x1="52.900000" y1="132.000000" x2="53.800000" y2="132.000000"  style="stroke:black; stroke-linecap:round; stroke-width:0.25;"/>
<line x1="53.800000" y1="100.000000" x2="61.800000" y2="100.000000"  style="stroke:black; stroke-linecap:round; stroke-width:0.25;"/>
<line x1="53.800000" y1="120.000000" x2="61.800000" y2="120.000000"  style="stroke:black; stroke-linecap:round; stroke-width:0.25;"/>
<line x1="53.800000" y1="132.000000" x2="53.800000" y2="120.000000"  style="stroke:black; stroke-linecap:round; stroke-width:0.25;"/>
<line x1="53.800000" y1="132.000000" x2="53.800000" y2="132.000000"  style="stroke:black; stroke-linecap:round; stroke-width:0.25;"/>
<line x1="60.900000" y1="36.000000" x2="60.900000" y2="48.000000"  style="stroke:black; stroke-linecap:round; stroke-width:0.25;"/>
<line x1="60.900000" y1="48.000000" x2="60.900000" y2="48.000000"  style="stroke:black; stroke-linecap:round; stroke-width:0.25;"/>
<line x1="60.900000" y1="48.000000" x2="64.900000" y2="48.000000"  style="stroke:black; stroke-linecap:round; stroke-width:0.25;"/>
<line x1="60.900000" y1="56.000000" x2="64.900000" y2="56.000000"  style="stroke:black; stroke-linecap:round; stroke-width:0.25;"/>
<line x1="61.800000" y1="100.000000" x2="61.800000" y2="112.000000"  style="stroke:black; stroke-linecap:round; stroke-width:0.25;"/>
<line x1="61.800000" y1="112.000000" x2="61.800000" y2="112.000000"  style="stroke:black; stroke-linecap:round; stroke-width:0.25;"/>
<line x1="61.800000" y1="112.000000" x2="65.800000" y2="112.000000"  style="stroke:black; stroke-linecap:round; stroke-width:0.25;"/>
<line x1="61.800000" y1="120.000000" x2="65.800000" y2="120.000000"  style="stroke:black; stroke-linecap:round; stroke-width:0.25;"/>
<line x1="68.900000" y1="196.000000" x2="72.900000" y2="196.000000"  style="stroke:black; stroke-linecap:round; stroke-width:0.25;"/>
<line x1="69.800000" y1="228.000000" x2="73.800000" y2="228.000000"  style="stroke:black; stroke-linecap:round; stroke-width:0.25;"/>
<line x1="72.900000" y1="196.000000" x2="73.800000" y2="196.000000"  style="stroke:black; stroke-linecap:round; stroke-width:0.25;"/>
<line x1="73.800000" y1="216.000000" x2="81.800000" y2="216.000000"  style="stroke:black; stroke-linecap:round; stroke-width:0.25;"/>
<line x1="73.800000" y1="228.000000" x2="73.800000" y2="216.000000"  style="stroke:black; stroke-linecap:round; stroke-width:0.25;"/>
<line x1="73.800000" y1="228.000000" x2="73.800000" y2="228.000000"  style="stroke:black; stroke-linecap:round; stroke-width:0.25;"/>
<line x1="73.800000" y1="196.000000" x2="81.800000" y2="196.000000"  style="stroke:black; stroke-linecap:round; stroke-width:0.25;"/>
<line x1="81.800000" y1="208.000000" x2="85.800000" y2="208.000000"  style="stroke:black; stroke-linecap:round; stroke-width:0.25;"/>
<line x1="81.800000" y1="216.000000" x2="85.800000" y2="216.000000"  style="stroke:black; stroke-linecap:round; stroke-width:0.25;"/>
<line x1="81.800000" y1="196.000000" x2="81.800000" y2="208.000000"  style="stroke:black; stroke-linecap:round; stroke-width:0.25;"/>
<line x1="81.800000" y1="208.000000" x2="81.800000" y2="208.000000"  style="stroke:black; stroke-linecap:round; stroke-width:0.25;"/>
<line x1="88.900000" y1="52.000000" x2="92.900000" y2="52.000000"  style="stroke:black; stroke-linecap:round; stroke-width:0.25;"/>
<line x1="88.900000" y1="164.000000" x2="92.900000" y2="164.000000"  style="stroke:black; stroke-linecap:round; stroke-width:0.25;"/>
<line x1="89.800000" y1="116.000000" x2="93.800000" y2="116.000000"  style="stroke:black; stroke-linecap:round; stroke-width:0.25;"/>
<line x1="92.900000" y1="52.000000" x2="93.800000" y2="52.000000"  style="stroke:black; stroke-linecap:round; stroke-width:0.25;"/>
<line x1="92.900000" y1="164.000000" x2="113.800000" y2="164.000000"  style="stroke:black; stroke-linecap:round; stroke-width:0.25;"/>
<line x1="93.800000" y1="88.000000" x2="101.800000" y2="88.000000"  style="stroke:black; stroke-linecap:round; stroke-width:0.25;"/>
<line x1="93.800000" y1="116.000000" x2="93.800000" y2="88.000000"  style="stroke:black; stroke-linecap:round; stroke-width:0.25;"/>
<line x1="93.800000" y1="116.000000" x2="93.800000" y2="116.000000"  style="stroke:black; stroke-linecap:round; stroke-width:0.25;"/>
<line x1="93.800000" y1="52.000000" x2="101.800000" y2="52.000000"  style="stroke:black; stroke-linecap:round; stroke-width:0.25;"/>
<line x1="101.800000" y1="80.000000" x2="105.800000" y2="80.000000"  style="stroke:black; stroke-linecap:round; stroke-width:0.25;"/>
<line x1="101.800000" y1="88.000000" x2="105.800000" y2="88.000000"  style="stroke:black; stroke-linecap:round; stroke-width:0.25;"/>
<line x1="101.800000" y1="52.000000" x2="101.800000" y2="80.000000"  style="stroke:black; stroke-linecap:round; stroke-width:0.25;"/>
<line x1="101.800000" y1="80.000000" x2="101.800000" y2="80.000000"  style="stroke:black; stroke-linecap:round; stroke-width:0.25;"/>
<line x1="109.800000" y1="212.000000" x2="113.800000" y2="212.000000"  style="stroke:black; stroke-linecap:round; stroke-width:0.25;"/>
<line x1="113.800000" y1="212.000000" x2="133.800000" y2="212.000000"  style="stroke:black; stroke-linecap:round; stroke-width:0.25;"/>
<line x1="113.800000" y1="164.000000" x2="133.800000" y2="164.000000"  style="stroke:black; stroke-linecap:round; stroke-width:0.25;"/>
<line x1="129.800000" y1="84.000000" x2="133.800000" y2="84.000000"  style="stroke:black; stroke-linecap:round; stroke-width:0.25;"/>
<line x1="133.800000" y1="84.000000" x2="149.800000" y2="84.000000"  style="stroke:black; stroke-linecap:round; stroke-width:0.25;"/>
<line x1="133.800000" y1="132.000000" x2="149.800000" y2="132.000000"  style="stroke:black; stroke-linecap:round; stroke-width:0.25;"/>
<line x1="133.800000" y1="164.000000" x2="133.800000" y2="132.000000"  style="stroke:black; stroke-linecap:round; stroke-width:0.25;"/>
<line x1="133.800000" y1="164.000000" x2="133.800000" y2="164.000000"  style="stroke:black; stroke-linecap:round; stroke-width:0.25;"/>
<line x1="133.800000" y1="212.000000" x2="141.800000" y2="212.000000"  style="stroke:black; stroke-linecap:round; stroke-width:0.25;"/>
<line x1="141.800000" y1="140.000000" x2="149.800000" y2="140.000000"  style="stroke:black; stroke-linecap:round; stroke-width:0.25;"/>
<line x1="141.800000" y1="212.000000" x2="141.800000" y2="140.000000"  style="stroke:black; stroke-linecap:round; stroke-width:0.25;"/>
<line x1="149.800000" y1="84.000000" x2="149.800000" y2="124.000000"  style="stroke:black; stroke-linecap:round; stroke-width:0.25;"/>
<line x1="149.800000" y1="124.000000" x2="149.800000" y2="124.000000"  style="stroke:black; stroke-linecap:round; stroke-width:0.25;"/>
<line x1="149.800000" y1="124.000000" x2="153.800000" y2="124.000000"  style="stroke:black; stroke-linecap:round; stroke-width:0.25;"/>
<line x1="149.800000" y1="132.000000" x2="153.800000" y2="132.000000"  style="stroke:black; stroke-linecap:round; stroke-width:0.25;"/>
<line x1="149.800000" y1="140.000000" x2="153.800000" y2="140.000000"  style="stroke:black; stroke-linecap:round; stroke-width:0.25;"/>
<line x1="192.500000" y1="132.000000" x2="196.500000" y2="132.000000"  style="stroke:black; stroke-linecap:round; stroke-width:0.25;"/>
<line x1="196.500000" y1="132.000000" x2="196.500000" y2="132.000000"  style="stroke:black; stroke-linecap:round; stroke-width:0.25;"/>
<line x1="196.500000" y1="132.000000" x2="200.500000" y2="132.000000"  style="stroke:black; stroke-linecap:round; stroke-width:0.25;"/>
<line x1="200.500000" y1="132.000000" x2="204.500000" y2="132.000000"  style="stroke:black; stroke-linecap:round; stroke-width:0.25;"/>
<line x1="204.500000" y1="132.000000" x2="214.500000" y2="132.000000"  style="stroke:black; stroke-linecap:round; stroke-width:0.25;"/>
</svg>
