<?xml version="1.0"?>
<svg xmlns="http://www.w3.org/2000/svg" xmlns:xlink="http://www.w3.org/1999/xlink" viewBox="0 0 291.600000 172.080000" width="145.800000mm" height="86.040000mm" version="1.1">
<a xlink:href="egChain-0x7f8823805750.svg">
<rect x="1.000000" y="1.000000" width="290.600000" height="171.080000" rx="0" ry="0" style="stroke:none;fill:#cccccc;"/>
<rect x="0.000000" y="0.000000" width="290.600000" height="171.080000" rx="0" ry="0" style="stroke:none;fill:#ffffff;"/>
</a>
<text x="10.000000" y="7.000000" font-family="Arial" font-size="7"></text>
<rect x="134.800000" y="109.080000" width="24.000000" height="24.000000" rx="0" ry="0" style="stroke:none;fill:#cccccc;"/>
<rect x="133.800000" y="108.080000" width="24.000000" height="24.000000" rx="0" ry="0" style="stroke:none;fill:#4B71A1;"/>
<text x="145.800000" y="122.080000" font-family="Arial" font-size="7" text-anchor="middle" fill="#FFFFFF">+</text>
<circle cx="135.800000" cy="110.080000" r="1"/>
<line x1="130.800000" y1="115.080000" x2="133.800000" y2="116.080000"  transform="rotate(0.000000,133.800000,116.080000)" style="stroke: black; stroke-width:0.25;"/>
<line x1="130.800000" y1="117.080000" x2="133.800000" y2="116.080000"  transform="rotate(0.000000,133.800000,116.080000)" style="stroke: black; stroke-width:0.25;"/>
<line x1="130.800000" y1="123.080000" x2="133.800000" y2="124.080000"  transform="rotate(0.000000,133.800000,124.080000)" style="stroke: black; stroke-width:0.25;"/>
<line x1="130.800000" y1="125.080000" x2="133.800000" y2="124.080000"  transform="rotate(0.000000,133.800000,124.080000)" style="stroke: black; stroke-width:0.25;"/>
<rect x="196.600000" y="71.000000" width="24.000000" height="24.000000" rx="0" ry="0" style="stroke:none;fill:#cccccc;"/>
<rect x="195.600000" y="70.000000" width="24.000000" height="24.000000" rx="0" ry="0" style="stroke:none;fill:#f44800;"/>
<text x="207.600000" y="84.000000" font-family="Arial" font-size="7" text-anchor="middle" fill="#FFFFFF">0.8</text>
<circle cx="217.600000" cy="92.000000" r="1"/>
<rect x="196.600000" y="39.000000" width="24.000000" height="24.000000" rx="0" ry="0" style="stroke:none;fill:#cccccc;"/>
<rect x="195.600000" y="38.000000" width="24.000000" height="24.000000" rx="0" ry="0" style="stroke:none;fill:#f44800;"/>
<text x="207.600000" y="52.000000" font-family="Arial" font-size="7" text-anchor="middle" fill="#FFFFFF">0.6</text>
<circle cx="217.600000" cy="60.000000" r="1"/>
<rect x="126.800000" y="67.000000" width="24.000000" height="24.000000" rx="0" ry="0" style="stroke:none;fill:#cccccc;"/>
<rect x="125.800000" y="66.000000" width="24.000000" height="24.000000" rx="0" ry="0" style="stroke:none;fill:#f44800;"/>
<text x="137.800000" y="80.000000" font-family="Arial" font-size="7" text-anchor="middle" fill="#FFFFFF">0</text>
<circle cx="147.800000" cy="88.000000" r="1"/>
<line x1="116.800000" y1="57.000000" x2="116.800000" y2="99.000000"  style="stroke: black; stroke-linecap:round; stroke-width:0.25; stroke-dasharray:3,3;"/>
<line x1="116.800000" y1="99.000000" x2="158.800000" y2="99.000000"  style="stroke: black; stroke-linecap:round; stroke-width:0.25; stroke-dasharray:3,3;"/>
<line x1="158.800000" y1="99.000000" x2="158.800000" y2="57.000000"  style="stroke: black; stroke-linecap:round; stroke-width:0.25; stroke-dasharray:3,3;"/>
<line x1="116.800000" y1="57.000000" x2="121.800000" y2="57.000000"  style="stroke: black; stroke-linecap:round; stroke-width:0.25; stroke-dasharray:3,3;"/>
<line x1="147.600000" y1="57.000000" x2="158.800000" y2="57.000000"  style="stroke: black; stroke-linecap:round; stroke-width:0.25; stroke-dasharray:3,3;"/>
<text x="121.800000" y="59.000000" font-family="Arial" font-size="7">parity</text>
<a xlink:href="bridgeFilter-0x7f8823803f90.svg">
<rect x="113.000000" y="25.000000" width="51.600000" height="24.000000" rx="0" ry="0" style="stroke:none;fill:#cccccc;"/>
<rect x="112.000000" y="24.000000" width="51.600000" height="24.000000" rx="0" ry="0" style="stroke:none;fill:#003366;"/>
</a>
<a xlink:href="bridgeFilter-0x7f8823803f90.svg">
<text x="137.800000" y="38.000000" font-family="Arial" font-size="7" text-anchor="middle" fill="#FFFFFF">bridgeFilter</text>
</a>
<circle cx="161.600000" cy="46.000000" r="1"/>
<line x1="166.600000" y1="43.000000" x2="163.600000" y2="44.000000"  transform="rotate(0.000000,163.600000,44.000000)" style="stroke: black; stroke-width:0.25;"/>
<line x1="166.600000" y1="45.000000" x2="163.600000" y2="44.000000"  transform="rotate(0.000000,163.600000,44.000000)" style="stroke: black; stroke-width:0.25;"/>
<line x1="166.600000" y1="35.000000" x2="163.600000" y2="36.000000"  transform="rotate(0.000000,163.600000,36.000000)" style="stroke: black; stroke-width:0.25;"/>
<line x1="166.600000" y1="37.000000" x2="163.600000" y2="36.000000"  transform="rotate(0.000000,163.600000,36.000000)" style="stroke: black; stroke-width:0.25;"/>
<line x1="166.600000" y1="27.000000" x2="163.600000" y2="28.000000"  transform="rotate(0.000000,163.600000,28.000000)" style="stroke: black; stroke-width:0.25;"/>
<line x1="166.600000" y1="29.000000" x2="163.600000" y2="28.000000"  transform="rotate(0.000000,163.600000,28.000000)" style="stroke: black; stroke-width:0.25;"/>
<rect x="73.000000" y="51.000000" width="24.000000" height="24.000000" rx="0" ry="0" style="stroke:none;fill:#cccccc;"/>
<rect x="72.000000" y="50.000000" width="24.000000" height="24.000000" rx="0" ry="0" style="stroke:none;fill:#4B71A1;"/>
<text x="84.000000" y="64.000000" font-family="Arial" font-size="7" text-anchor="middle" fill="#FFFFFF">-</text>
<circle cx="94.000000" cy="72.000000" r="1"/>
<line x1="99.000000" y1="65.000000" x2="96.000000" y2="66.000000"  transform="rotate(0.000000,96.000000,66.000000)" style="stroke: black; stroke-width:0.25;"/>
<line x1="99.000000" y1="67.000000" x2="96.000000" y2="66.000000"  transform="rotate(0.000000,96.000000,66.000000)" style="stroke: black; stroke-width:0.25;"/>
<line x1="99.000000" y1="57.000000" x2="96.000000" y2="58.000000"  transform="rotate(0.000000,96.000000,58.000000)" style="stroke: black; stroke-width:0.25;"/>
<line x1="99.000000" y1="59.000000" x2="96.000000" y2="58.000000"  transform="rotate(0.000000,96.000000,58.000000)" style="stroke: black; stroke-width:0.25;"/>
<line x1="221.600000" y1="120.080000" x2="221.600000" y2="116.080000"  style="stroke:black; stroke-linecap:round; stroke-width:0.25;"/>
<line x1="221.600000" y1="116.080000" x2="225.600000" y2="116.080000"  style="stroke:black; stroke-linecap:round; stroke-width:0.25;"/>
<line x1="225.600000" y1="116.080000" x2="225.600000" y2="120.080000"  style="stroke:black; stroke-linecap:round; stroke-width:0.25;"/>
<line x1="229.600000" y1="128.080000" x2="229.600000" y2="124.080000"  style="stroke:black; stroke-linecap:round; stroke-width:0.25;"/>
<line x1="229.600000" y1="124.080000" x2="233.600000" y2="124.080000"  style="stroke:black; stroke-linecap:round; stroke-width:0.25;"/>
<line x1="233.600000" y1="124.080000" x2="233.600000" y2="128.080000"  style="stroke:black; stroke-linecap:round; stroke-width:0.25;"/>
<line x1="15.000000" y1="15.000000" x2="15.000000" y2="157.080000"  style="stroke: black; stroke-linecap:round; stroke-width:0.25; stroke-dasharray:3,3;"/>
<line x1="15.000000" y1="157.080000" x2="276.600000" y2="157.080000"  style="stroke: black; stroke-linecap:round; stroke-width:0.25; stroke-dasharray:3,3;"/>
<line x1="276.600000" y1="157.080000" x2="276.600000" y2="15.000000"  style="stroke: black; stroke-linecap:round; stroke-width:0.25; stroke-dasharray:3,3;"/>
<line x1="15.000000" y1="15.000000" x2="20.000000" y2="15.000000"  style="stroke: black; stroke-linecap:round; stroke-width:0.25; stroke-dasharray:3,3;"/>
<line x1="78.050000" y1="15.000000" x2="276.600000" y2="15.000000"  style="stroke: black; stroke-linecap:round; stroke-width:0.25; stroke-dasharray:3,3;"/>
<text x="20.000000" y="17.000000" font-family="Arial" font-size="7">elecGuitarBridge</text>
<line x1="278.600000" y1="77.040000" x2="281.600000" y2="78.040000"  transform="rotate(0.000000,281.600000,78.040000)" style="stroke: black; stroke-width:0.25;"/>
<line x1="278.600000" y1="79.040000" x2="281.600000" y2="78.040000"  transform="rotate(0.000000,281.600000,78.040000)" style="stroke: black; stroke-width:0.25;"/>
<line x1="278.600000" y1="85.040000" x2="281.600000" y2="86.040000"  transform="rotate(0.000000,281.600000,86.040000)" style="stroke: black; stroke-width:0.25;"/>
<line x1="278.600000" y1="87.040000" x2="281.600000" y2="86.040000"  transform="rotate(0.000000,281.600000,86.040000)" style="stroke: black; stroke-width:0.25;"/>
<line x1="278.600000" y1="93.040000" x2="281.600000" y2="94.040000"  transform="rotate(0.000000,281.600000,94.040000)" style="stroke: black; stroke-width:0.25;"/>
<line x1="278.600000" y1="95.040000" x2="281.600000" y2="94.040000"  transform="rotate(0.000000,281.600000,94.040000)" style="stroke: black; stroke-width:0.25;"/>
<line x1="10.000000" y1="78.040000" x2="20.000000" y2="78.040000"  style="stroke:black; stroke-linecap:round; stroke-width:0.25;"/>
<line x1="10.000000" y1="86.040000" x2="20.000000" y2="86.040000"  style="stroke:black; stroke-linecap:round; stroke-width:0.25;"/>
<line x1="10.000000" y1="94.040000" x2="20.000000" y2="94.040000"  style="stroke:black; stroke-linecap:round; stroke-width:0.25;"/>
<line x1="20.000000" y1="78.040000" x2="24.000000" y2="78.040000"  style="stroke:black; stroke-linecap:round; stroke-width:0.25;"/>
<line x1="20.000000" y1="86.040000" x2="24.000000" y2="86.040000"  style="stroke:black; stroke-linecap:round; stroke-width:0.25;"/>
<line x1="20.000000" y1="94.040000" x2="24.000000" y2="94.040000"  style="stroke:black; stroke-linecap:round; stroke-width:0.25;"/>
<line x1="24.000000" y1="78.040000" x2="28.000000" y2="78.040000"  style="stroke:black; stroke-linecap:round; stroke-width:0.25;"/>
<line x1="24.000000" y1="86.040000" x2="28.000000" y2="86.040000"  style="stroke:black; stroke-linecap:round; stroke-width:0.25;"/>
<line x1="24.000000" y1="94.040000" x2="28.000000" y2="94.040000"  style="stroke:black; stroke-linecap:round; stroke-width:0.25;"/>
<line x1="28.000000" y1="78.040000" x2="52.000000" y2="78.040000"  style="stroke:black; stroke-linecap:round; stroke-width:0.25;"/>
<line x1="28.000000" y1="86.040000" x2="44.000000" y2="86.040000"  style="stroke:black; stroke-linecap:round; stroke-width:0.25;"/>
<line x1="28.000000" y1="94.040000" x2="36.000000" y2="94.040000"  style="stroke:black; stroke-linecap:round; stroke-width:0.25;"/>
<line x1="36.000000" y1="94.040000" x2="36.000000" y2="140.080000"  style="stroke:black; stroke-linecap:round; stroke-width:0.25;"/>
<line x1="36.000000" y1="140.080000" x2="52.000000" y2="140.080000"  style="stroke:black; stroke-linecap:round; stroke-width:0.25;"/>
<line x1="44.000000" y1="86.040000" x2="44.000000" y2="132.080000"  style="stroke:black; stroke-linecap:round; stroke-width:0.25;"/>
<line x1="44.000000" y1="132.080000" x2="52.000000" y2="132.080000"  style="stroke:black; stroke-linecap:round; stroke-width:0.25;"/>
<line x1="52.000000" y1="78.040000" x2="52.000000" y2="124.080000"  style="stroke:black; stroke-linecap:round; stroke-width:0.25;"/>
<line x1="52.000000" y1="124.080000" x2="52.000000" y2="124.080000"  style="stroke:black; stroke-linecap:round; stroke-width:0.25;"/>
<line x1="52.000000" y1="124.080000" x2="68.000000" y2="124.080000"  style="stroke:black; stroke-linecap:round; stroke-width:0.25;"/>
<line x1="52.000000" y1="132.080000" x2="68.000000" y2="132.080000"  style="stroke:black; stroke-linecap:round; stroke-width:0.25;"/>
<line x1="52.000000" y1="140.080000" x2="68.000000" y2="140.080000"  style="stroke:black; stroke-linecap:round; stroke-width:0.25;"/>
<line x1="68.000000" y1="62.000000" x2="68.000000" y2="62.000000"  style="stroke:black; stroke-linecap:round; stroke-width:0.25;"/>
<line x1="68.000000" y1="62.000000" x2="68.000000" y2="116.080000"  style="stroke:black; stroke-linecap:round; stroke-width:0.25;"/>
<line x1="68.000000" y1="116.080000" x2="68.000000" y2="116.080000"  style="stroke:black; stroke-linecap:round; stroke-width:0.25;"/>
<line x1="68.000000" y1="116.080000" x2="113.800000" y2="116.080000"  style="stroke:black; stroke-linecap:round; stroke-width:0.25;"/>
<line x1="68.000000" y1="124.080000" x2="113.800000" y2="124.080000"  style="stroke:black; stroke-linecap:round; stroke-width:0.25;"/>
<line x1="68.000000" y1="132.080000" x2="113.800000" y2="132.080000"  style="stroke:black; stroke-linecap:round; stroke-width:0.25;"/>
<line x1="68.000000" y1="140.080000" x2="113.800000" y2="140.080000"  style="stroke:black; stroke-linecap:round; stroke-width:0.25;"/>
<line x1="72.000000" y1="62.000000" x2="68.000000" y2="62.000000"  style="stroke:black; stroke-linecap:round; stroke-width:0.25;"/>
<line x1="100.000000" y1="58.000000" x2="96.000000" y2="58.000000"  style="stroke:black; stroke-linecap:round; stroke-width:0.25;"/>
<line x1="100.000000" y1="66.000000" x2="96.000000" y2="66.000000"  style="stroke:black; stroke-linecap:round; stroke-width:0.25;"/>
<line x1="100.000000" y1="66.000000" x2="100.000000" y2="66.000000"  style="stroke:black; stroke-linecap:round; stroke-width:0.25;"/>
<line x1="100.000000" y1="78.000000" x2="100.000000" y2="66.000000"  style="stroke:black; stroke-linecap:round; stroke-width:0.25;"/>
<line x1="108.000000" y1="36.000000" x2="108.000000" y2="36.000000"  style="stroke:black; stroke-linecap:round; stroke-width:0.25;"/>
<line x1="108.000000" y1="36.000000" x2="108.000000" y2="58.000000"  style="stroke:black; stroke-linecap:round; stroke-width:0.25;"/>
<line x1="108.000000" y1="58.000000" x2="100.000000" y2="58.000000"  style="stroke:black; stroke-linecap:round; stroke-width:0.25;"/>
<line x1="108.000000" y1="78.000000" x2="100.000000" y2="78.000000"  style="stroke:black; stroke-linecap:round; stroke-width:0.25;"/>
<line x1="111.800000" y1="78.000000" x2="108.000000" y2="78.000000"  style="stroke:black; stroke-linecap:round; stroke-width:0.25;"/>
<line x1="112.000000" y1="36.000000" x2="108.000000" y2="36.000000"  style="stroke:black; stroke-linecap:round; stroke-width:0.25;"/>
<line x1="113.800000" y1="116.080000" x2="129.800000" y2="116.080000"  style="stroke:black; stroke-linecap:round; stroke-width:0.25;"/>
<line x1="113.800000" y1="124.080000" x2="129.800000" y2="124.080000"  style="stroke:black; stroke-linecap:round; stroke-width:0.25;"/>
<line x1="113.800000" y1="132.080000" x2="129.800000" y2="132.080000"  style="stroke:black; stroke-linecap:round; stroke-width:0.25;"/>
<line x1="113.800000" y1="140.080000" x2="121.800000" y2="140.080000"  style="stroke:black; stroke-linecap:round; stroke-width:0.25;"/>
<line x1="121.800000" y1="78.000000" x2="111.800000" y2="78.000000"  style="stroke:black; stroke-linecap:round; stroke-width:0.25;"/>
<line x1="121.800000" y1="140.080000" x2="121.800000" y2="148.080000"  style="stroke:black; stroke-linecap:round; stroke-width:0.25;"/>
<line x1="121.800000" y1="148.080000" x2="129.800000" y2="148.080000"  style="stroke:black; stroke-linecap:round; stroke-width:0.25;"/>
<line x1="125.800000" y1="78.000000" x2="121.800000" y2="78.000000"  style="stroke:black; stroke-linecap:round; stroke-width:0.25;"/>
<line x1="129.800000" y1="116.080000" x2="133.800000" y2="116.080000"  style="stroke:black; stroke-linecap:round; stroke-width:0.25;"/>
<line x1="129.800000" y1="124.080000" x2="133.800000" y2="124.080000"  style="stroke:black; stroke-linecap:round; stroke-width:0.25;"/>
<line x1="129.800000" y1="132.080000" x2="129.800000" y2="140.080000"  style="stroke:black; stroke-linecap:round; stroke-width:0.25;"/>
<line x1="129.800000" y1="140.080000" x2="129.800000" y2="140.080000"  style="stroke:black; stroke-linecap:round; stroke-width:0.25;"/>
<line x1="129.800000" y1="140.080000" x2="145.800000" y2="140.080000"  style="stroke:black; stroke-linecap:round; stroke-width:0.25;"/>
<line x1="129.800000" y1="148.080000" x2="145.800000" y2="148.080000"  style="stroke:black; stroke-linecap:round; stroke-width:0.25;"/>
<line x1="145.800000" y1="140.080000" x2="161.800000" y2="140.080000"  style="stroke:black; stroke-linecap:round; stroke-width:0.25;"/>
<line x1="145.800000" y1="148.080000" x2="161.800000" y2="148.080000"  style="stroke:black; stroke-linecap:round; stroke-width:0.25;"/>
<line x1="157.800000" y1="120.080000" x2="161.800000" y2="120.080000"  style="stroke:black; stroke-linecap:round; stroke-width:0.25;"/>
<line x1="161.800000" y1="120.080000" x2="177.800000" y2="120.080000"  style="stroke:black; stroke-linecap:round; stroke-width:0.25;"/>
<line x1="161.800000" y1="128.080000" x2="177.800000" y2="128.080000"  style="stroke:black; stroke-linecap:round; stroke-width:0.25;"/>
<line x1="161.800000" y1="140.080000" x2="161.800000" y2="128.080000"  style="stroke:black; stroke-linecap:round; stroke-width:0.25;"/>
<line x1="161.800000" y1="140.080000" x2="161.800000" y2="140.080000"  style="stroke:black; stroke-linecap:round; stroke-width:0.25;"/>
<line x1="161.800000" y1="148.080000" x2="169.800000" y2="148.080000"  style="stroke:black; stroke-linecap:round; stroke-width:0.25;"/>
<line x1="167.600000" y1="28.000000" x2="163.600000" y2="28.000000"  style="stroke:black; stroke-linecap:round; stroke-width:0.25;"/>
<line x1="167.600000" y1="36.000000" x2="163.600000" y2="36.000000"  style="stroke:black; stroke-linecap:round; stroke-width:0.25;"/>
<line x1="167.600000" y1="44.000000" x2="163.600000" y2="44.000000"  style="stroke:black; stroke-linecap:round; stroke-width:0.25;"/>
<line x1="167.600000" y1="44.000000" x2="167.600000" y2="44.000000"  style="stroke:black; stroke-linecap:round; stroke-width:0.25;"/>
<line x1="167.600000" y1="82.000000" x2="167.600000" y2="44.000000"  style="stroke:black; stroke-linecap:round; stroke-width:0.25;"/>
<line x1="169.800000" y1="136.080000" x2="177.800000" y2="136.080000"  style="stroke:black; stroke-linecap:round; stroke-width:0.25;"/>
<line x1="169.800000" y1="148.080000" x2="169.800000" y2="136.080000"  style="stroke:black; stroke-linecap:round; stroke-width:0.25;"/>
<line x1="175.600000" y1="36.000000" x2="167.600000" y2="36.000000"  style="stroke:black; stroke-linecap:round; stroke-width:0.25;"/>
<line x1="175.600000" y1="50.000000" x2="175.600000" y2="36.000000"  style="stroke:black; stroke-linecap:round; stroke-width:0.25;"/>
<line x1="177.800000" y1="120.080000" x2="223.600000" y2="120.080000"  style="stroke:black; stroke-linecap:round; stroke-width:0.25;"/>
<line x1="177.800000" y1="128.080000" x2="223.600000" y2="128.080000"  style="stroke:black; stroke-linecap:round; stroke-width:0.25;"/>
<line x1="177.800000" y1="136.080000" x2="223.600000" y2="136.080000"  style="stroke:black; stroke-linecap:round; stroke-width:0.25;"/>
<line x1="183.600000" y1="28.000000" x2="167.600000" y2="28.000000"  style="stroke:black; stroke-linecap:round; stroke-width:0.25;"/>
<line x1="183.600000" y1="30.000000" x2="183.600000" y2="28.000000"  style="stroke:black; stroke-linecap:round; stroke-width:0.25;"/>
<line x1="191.600000" y1="30.000000" x2="183.600000" y2="30.000000"  style="stroke:black; stroke-linecap:round; stroke-width:0.25;"/>
<line x1="191.600000" y1="50.000000" x2="175.600000" y2="50.000000"  style="stroke:black; stroke-linecap:round; stroke-width:0.25;"/>
<line x1="191.600000" y1="82.000000" x2="167.600000" y2="82.000000"  style="stroke:black; stroke-linecap:round; stroke-width:0.25;"/>
<line x1="195.600000" y1="50.000000" x2="191.600000" y2="50.000000"  style="stroke:black; stroke-linecap:round; stroke-width:0.25;"/>
<line x1="195.600000" y1="82.000000" x2="191.600000" y2="82.000000"  style="stroke:black; stroke-linecap:round; stroke-width:0.25;"/>
<line x1="207.600000" y1="30.000000" x2="191.600000" y2="30.000000"  style="stroke:black; stroke-linecap:round; stroke-width:0.25;"/>
<line x1="223.600000" y1="30.000000" x2="207.600000" y2="30.000000"  style="stroke:black; stroke-linecap:round; stroke-width:0.25;"/>
<line x1="223.600000" y1="120.080000" x2="225.600000" y2="120.080000"  style="stroke:black; stroke-linecap:round; stroke-width:0.25;"/>
<line x1="223.600000" y1="128.080000" x2="233.600000" y2="128.080000"  style="stroke:black; stroke-linecap:round; stroke-width:0.25;"/>
<line x1="223.600000" y1="136.080000" x2="239.600000" y2="136.080000"  style="stroke:black; stroke-linecap:round; stroke-width:0.25;"/>
<line x1="225.600000" y1="120.080000" x2="239.600000" y2="120.080000"  style="stroke:black; stroke-linecap:round; stroke-width:0.25;"/>
<line x1="231.600000" y1="30.000000" x2="223.600000" y2="30.000000"  style="stroke:black; stroke-linecap:round; stroke-width:0.25;"/>
<line x1="231.600000" y1="124.080000" x2="231.600000" y2="30.000000"  style="stroke:black; stroke-linecap:round; stroke-width:0.25;"/>
<line x1="233.600000" y1="128.080000" x2="239.600000" y2="128.080000"  style="stroke:black; stroke-linecap:round; stroke-width:0.25;"/>
<line x1="239.600000" y1="78.040000" x2="263.600000" y2="78.040000"  style="stroke:black; stroke-linecap:round; stroke-width:0.25;"/>
<line x1="239.600000" y1="120.080000" x2="239.600000" y2="78.040000"  style="stroke:black; stroke-linecap:round; stroke-width:0.25;"/>
<line x1="239.600000" y1="120.080000" x2="239.600000" y2="120.080000"  style="stroke:black; stroke-linecap:round; stroke-width:0.25;"/>
<line x1="239.600000" y1="128.080000" x2="247.600000" y2="128.080000"  style="stroke:black; stroke-linecap:round; stroke-width:0.25;"/>
<line x1="239.600000" y1="136.080000" x2="255.600000" y2="136.080000"  style="stroke:black; stroke-linecap:round; stroke-width:0.25;"/>
<line x1="247.600000" y1="86.040000" x2="263.600000" y2="86.040000"  style="stroke:black; stroke-linecap:round; stroke-width:0.25;"/>
<line x1="247.600000" y1="128.080000" x2="247.600000" y2="86.040000"  style="stroke:black; stroke-linecap:round; stroke-width:0.25;"/>
<line x1="255.600000" y1="94.040000" x2="263.600000" y2="94.040000"  style="stroke:black; stroke-linecap:round; stroke-width:0.25;"/>
<line x1="255.600000" y1="136.080000" x2="255.600000" y2="94.040000"  style="stroke:black; stroke-linecap:round; stroke-width:0.25;"/>
<line x1="263.600000" y1="78.040000" x2="267.600000" y2="78.040000"  style="stroke:black; stroke-linecap:round; stroke-width:0.25;"/>
<line x1="263.600000" y1="86.040000" x2="267.600000" y2="86.040000"  style="stroke:black; stroke-linecap:round; stroke-width:0.25;"/>
<line x1="263.600000" y1="94.040000" x2="267.600000" y2="94.040000"  style="stroke:black; stroke-linecap:round; stroke-width:0.25;"/>
<line x1="267.600000" y1="78.040000" x2="271.600000" y2="78.040000"  style="stroke:black; stroke-linecap:round; stroke-width:0.25;"/>
<line x1="267.600000" y1="86.040000" x2="271.600000" y2="86.040000"  style="stroke:black; stroke-linecap:round; stroke-width:0.25;"/>
<line x1="267.600000" y1="94.040000" x2="271.600000" y2="94.040000"  style="stroke:black; stroke-linecap:round; stroke-width:0.25;"/>
<line x1="271.600000" y1="78.040000" x2="281.600000" y2="78.040000"  style="stroke:black; stroke-linecap:round; stroke-width:0.25;"/>
<line x1="271.600000" y1="86.040000" x2="281.600000" y2="86.040000"  style="stroke:black; stroke-linecap:round; stroke-width:0.25;"/>
<line x1="271.600000" y1="94.040000" x2="281.600000" y2="94.040000"  style="stroke:black; stroke-linecap:round; stroke-width:0.25;"/>
</svg>
