<?xml version="1.0"?>
<svg xmlns="http://www.w3.org/2000/svg" xmlns:xlink="http://www.w3.org/1999/xlink" viewBox="0 0 460.700000 284.000000" width="230.350000mm" height="142.000000mm" version="1.1">
<a xlink:href="vol-0x7faf7322f9e0.svg">
<rect x="1.000000" y="1.000000" width="459.700000" height="283.000000" rx="0" ry="0" style="stroke:none;fill:#cccccc;"/>
<rect x="0.000000" y="0.000000" width="459.700000" height="283.000000" rx="0" ry="0" style="stroke:none;fill:#ffffff;"/>
</a>
<text x="10.000000" y="7.000000" font-family="Arial" font-size="7"></text>
<a xlink:href="ugate-0x7faf6ec72ed0.svg">
<rect x="183.100000" y="25.000000" width="25.800000" height="24.000000" rx="0" ry="0" style="stroke:none;fill:#cccccc;"/>
<rect x="182.100000" y="24.000000" width="25.800000" height="24.000000" rx="0" ry="0" style="stroke:none;fill:#003366;"/>
</a>
<a xlink:href="ugate-0x7faf6ec72ed0.svg">
<text x="195.000000" y="38.000000" font-family="Arial" font-size="7" text-anchor="middle" fill="#FFFFFF">ugate</text>
</a>
<circle cx="184.100000" cy="26.000000" r="1"/>
<rect x="184.000000" y="57.000000" width="24.000000" height="24.000000" rx="0" ry="0" style="stroke:none;fill:#cccccc;"/>
<rect x="183.000000" y="56.000000" width="24.000000" height="24.000000" rx="0" ry="0" style="stroke:none;fill:#f44800;"/>
<text x="195.000000" y="70.000000" font-family="Arial" font-size="7" text-anchor="middle" fill="#FFFFFF">0</text>
<circle cx="185.000000" cy="58.000000" r="1"/>
<a xlink:href="samps-0x7faf6ec753c0.svg">
<rect x="131.750000" y="89.000000" width="25.800000" height="24.000000" rx="0" ry="0" style="stroke:none;fill:#cccccc;"/>
<rect x="130.750000" y="88.000000" width="25.800000" height="24.000000" rx="0" ry="0" style="stroke:none;fill:#003366;"/>
</a>
<a xlink:href="samps-0x7faf6ec753c0.svg">
<text x="143.650000" y="102.000000" font-family="Arial" font-size="7" text-anchor="middle" fill="#FFFFFF">samps</text>
</a>
<circle cx="132.750000" cy="90.000000" r="1"/>
<a xlink:href="attSamps-0x7faf73086fa0.svg">
<rect x="125.300000" y="121.000000" width="38.700000" height="24.000000" rx="0" ry="0" style="stroke:none;fill:#cccccc;"/>
<rect x="124.300000" y="120.000000" width="38.700000" height="24.000000" rx="0" ry="0" style="stroke:none;fill:#003366;"/>
</a>
<a xlink:href="attSamps-0x7faf73086fa0.svg">
<text x="143.650000" y="134.000000" font-family="Arial" font-size="7" text-anchor="middle" fill="#FFFFFF">attSamps</text>
</a>
<circle cx="126.300000" cy="122.000000" r="1"/>
<rect x="180.000000" y="105.000000" width="24.000000" height="24.000000" rx="0" ry="0" style="stroke:none;fill:#cccccc;"/>
<rect x="179.000000" y="104.000000" width="24.000000" height="24.000000" rx="0" ry="0" style="stroke:none;fill:#4B71A1;"/>
<text x="191.000000" y="118.000000" font-family="Arial" font-size="7" text-anchor="middle" fill="#FFFFFF">&lt;</text>
<circle cx="181.000000" cy="106.000000" r="1"/>
<line x1="176.000000" y1="111.000000" x2="179.000000" y2="112.000000"  transform="rotate(0.000000,179.000000,112.000000)" style="stroke: black; stroke-width:0.25;"/>
<line x1="176.000000" y1="113.000000" x2="179.000000" y2="112.000000"  transform="rotate(0.000000,179.000000,112.000000)" style="stroke: black; stroke-width:0.25;"/>
<line x1="176.000000" y1="119.000000" x2="179.000000" y2="120.000000"  transform="rotate(0.000000,179.000000,120.000000)" style="stroke: black; stroke-width:0.25;"/>
<line x1="176.000000" y1="121.000000" x2="179.000000" y2="120.000000"  transform="rotate(0.000000,179.000000,120.000000)" style="stroke: black; stroke-width:0.25;"/>
<rect x="35.000000" y="163.000000" width="219.300000" height="24.000000" rx="0" ry="0" style="stroke:none;fill:#cccccc;"/>
<rect x="34.000000" y="162.000000" width="219.300000" height="24.000000" rx="0" ry="0" style="stroke:none;fill:#477881;"/>
<text x="143.650000" y="176.000000" font-family="Arial" font-size="7" text-anchor="middle" fill="#FFFFFF">hslider(S, 0.20000000000000001f, 0.0f, 1.0f, 0.01f)</text>
<circle cx="36.000000" cy="164.000000" r="1"/>
<line x1="25.000000" y1="153.000000" x2="25.000000" y2="195.000000"  style="stroke: black; stroke-linecap:round; stroke-width:0.25; stroke-dasharray:3,3;"/>
<line x1="25.000000" y1="195.000000" x2="262.300000" y2="195.000000"  style="stroke: black; stroke-linecap:round; stroke-width:0.25; stroke-dasharray:3,3;"/>
<line x1="262.300000" y1="195.000000" x2="262.300000" y2="153.000000"  style="stroke: black; stroke-linecap:round; stroke-width:0.25; stroke-dasharray:3,3;"/>
<line x1="25.000000" y1="153.000000" x2="30.000000" y2="153.000000"  style="stroke: black; stroke-linecap:round; stroke-width:0.25; stroke-dasharray:3,3;"/>
<line x1="49.350000" y1="153.000000" x2="262.300000" y2="153.000000"  style="stroke: black; stroke-linecap:round; stroke-width:0.25; stroke-dasharray:3,3;"/>
<text x="30.000000" y="155.000000" font-family="Arial" font-size="7">volS</text>
<a xlink:href="ugate-0x7faf6ec72ed0.svg">
<rect x="114.850000" y="205.000000" width="25.800000" height="24.000000" rx="0" ry="0" style="stroke:none;fill:#cccccc;"/>
<rect x="113.850000" y="204.000000" width="25.800000" height="24.000000" rx="0" ry="0" style="stroke:none;fill:#003366;"/>
</a>
<a xlink:href="ugate-0x7faf6ec72ed0.svg">
<text x="126.750000" y="218.000000" font-family="Arial" font-size="7" text-anchor="middle" fill="#FFFFFF">ugate</text>
</a>
<circle cx="115.850000" cy="206.000000" r="1"/>
<rect x="148.650000" y="205.000000" width="25.800000" height="24.000000" rx="0" ry="0" style="stroke:none;fill:#cccccc;"/>
<rect x="147.650000" y="204.000000" width="25.800000" height="24.000000" rx="0" ry="0" style="stroke:none;fill:#4B71A1;"/>
<text x="160.550000" y="218.000000" font-family="Arial" font-size="7" text-anchor="middle" fill="#FFFFFF">float</text>
<circle cx="149.650000" cy="206.000000" r="1"/>
<line x1="144.650000" y1="215.000000" x2="147.650000" y2="216.000000"  transform="rotate(0.000000,147.650000,216.000000)" style="stroke: black; stroke-width:0.25;"/>
<line x1="144.650000" y1="217.000000" x2="147.650000" y2="216.000000"  transform="rotate(0.000000,147.650000,216.000000)" style="stroke: black; stroke-width:0.25;"/>
<rect x="280.300000" y="179.000000" width="24.000000" height="24.000000" rx="0" ry="0" style="stroke:none;fill:#cccccc;"/>
<rect x="279.300000" y="178.000000" width="24.000000" height="24.000000" rx="0" ry="0" style="stroke:none;fill:#4B71A1;"/>
<text x="291.300000" y="192.000000" font-family="Arial" font-size="7" text-anchor="middle" fill="#FFFFFF">*</text>
<circle cx="281.300000" cy="180.000000" r="1"/>
<line x1="276.300000" y1="185.000000" x2="279.300000" y2="186.000000"  transform="rotate(0.000000,279.300000,186.000000)" style="stroke: black; stroke-width:0.25;"/>
<line x1="276.300000" y1="187.000000" x2="279.300000" y2="186.000000"  transform="rotate(0.000000,279.300000,186.000000)" style="stroke: black; stroke-width:0.25;"/>
<line x1="276.300000" y1="193.000000" x2="279.300000" y2="194.000000"  transform="rotate(0.000000,279.300000,194.000000)" style="stroke: black; stroke-width:0.25;"/>
<line x1="276.300000" y1="195.000000" x2="279.300000" y2="194.000000"  transform="rotate(0.000000,279.300000,194.000000)" style="stroke: black; stroke-width:0.25;"/>
<a xlink:href="ugate-0x7faf6ec72ed0.svg">
<rect x="151.750000" y="237.000000" width="25.800000" height="24.000000" rx="0" ry="0" style="stroke:none;fill:#cccccc;"/>
<rect x="150.750000" y="236.000000" width="25.800000" height="24.000000" rx="0" ry="0" style="stroke:none;fill:#003366;"/>
</a>
<a xlink:href="ugate-0x7faf6ec72ed0.svg">
<text x="163.650000" y="250.000000" font-family="Arial" font-size="7" text-anchor="middle" fill="#FFFFFF">ugate</text>
</a>
<circle cx="152.750000" cy="238.000000" r="1"/>
<rect x="328.300000" y="163.000000" width="38.700000" height="24.000000" rx="0" ry="0" style="stroke:none;fill:#cccccc;"/>
<rect x="327.300000" y="162.000000" width="38.700000" height="24.000000" rx="0" ry="0" style="stroke:none;fill:#4B71A1;"/>
<text x="346.650000" y="176.000000" font-family="Arial" font-size="7" text-anchor="middle" fill="#FFFFFF">select2</text>
<circle cx="329.300000" cy="164.000000" r="1"/>
<line x1="324.300000" y1="165.000000" x2="327.300000" y2="166.000000"  transform="rotate(0.000000,327.300000,166.000000)" style="stroke: black; stroke-width:0.25;"/>
<line x1="324.300000" y1="167.000000" x2="327.300000" y2="166.000000"  transform="rotate(0.000000,327.300000,166.000000)" style="stroke: black; stroke-width:0.25;"/>
<line x1="324.300000" y1="173.000000" x2="327.300000" y2="174.000000"  transform="rotate(0.000000,327.300000,174.000000)" style="stroke: black; stroke-width:0.25;"/>
<line x1="324.300000" y1="175.000000" x2="327.300000" y2="174.000000"  transform="rotate(0.000000,327.300000,174.000000)" style="stroke: black; stroke-width:0.25;"/>
<line x1="324.300000" y1="181.000000" x2="327.300000" y2="182.000000"  transform="rotate(0.000000,327.300000,182.000000)" style="stroke: black; stroke-width:0.25;"/>
<line x1="324.300000" y1="183.000000" x2="327.300000" y2="182.000000"  transform="rotate(0.000000,327.300000,182.000000)" style="stroke: black; stroke-width:0.25;"/>
<rect x="391.000000" y="131.000000" width="38.700000" height="24.000000" rx="0" ry="0" style="stroke:none;fill:#cccccc;"/>
<rect x="390.000000" y="130.000000" width="38.700000" height="24.000000" rx="0" ry="0" style="stroke:none;fill:#4B71A1;"/>
<text x="409.350000" y="144.000000" font-family="Arial" font-size="7" text-anchor="middle" fill="#FFFFFF">select2</text>
<circle cx="392.000000" cy="132.000000" r="1"/>
<line x1="387.000000" y1="133.000000" x2="390.000000" y2="134.000000"  transform="rotate(0.000000,390.000000,134.000000)" style="stroke: black; stroke-width:0.25;"/>
<line x1="387.000000" y1="135.000000" x2="390.000000" y2="134.000000"  transform="rotate(0.000000,390.000000,134.000000)" style="stroke: black; stroke-width:0.25;"/>
<line x1="387.000000" y1="141.000000" x2="390.000000" y2="142.000000"  transform="rotate(0.000000,390.000000,142.000000)" style="stroke: black; stroke-width:0.25;"/>
<line x1="387.000000" y1="143.000000" x2="390.000000" y2="142.000000"  transform="rotate(0.000000,390.000000,142.000000)" style="stroke: black; stroke-width:0.25;"/>
<line x1="387.000000" y1="149.000000" x2="390.000000" y2="150.000000"  transform="rotate(0.000000,390.000000,150.000000)" style="stroke: black; stroke-width:0.25;"/>
<line x1="387.000000" y1="151.000000" x2="390.000000" y2="150.000000"  transform="rotate(0.000000,390.000000,150.000000)" style="stroke: black; stroke-width:0.25;"/>
<line x1="15.000000" y1="15.000000" x2="15.000000" y2="269.000000"  style="stroke: black; stroke-linecap:round; stroke-width:0.25; stroke-dasharray:3,3;"/>
<line x1="15.000000" y1="269.000000" x2="445.700000" y2="269.000000"  style="stroke: black; stroke-linecap:round; stroke-width:0.25; stroke-dasharray:3,3;"/>
<line x1="445.700000" y1="269.000000" x2="445.700000" y2="15.000000"  style="stroke: black; stroke-linecap:round; stroke-width:0.25; stroke-dasharray:3,3;"/>
<line x1="15.000000" y1="15.000000" x2="20.000000" y2="15.000000"  style="stroke: black; stroke-linecap:round; stroke-width:0.25; stroke-dasharray:3,3;"/>
<line x1="45.800000" y1="15.000000" x2="445.700000" y2="15.000000"  style="stroke: black; stroke-linecap:round; stroke-width:0.25; stroke-dasharray:3,3;"/>
<text x="20.000000" y="17.000000" font-family="Arial" font-size="7">target</text>
<line x1="447.700000" y1="141.000000" x2="450.700000" y2="142.000000"  transform="rotate(0.000000,450.700000,142.000000)" style="stroke: black; stroke-width:0.25;"/>
<line x1="447.700000" y1="143.000000" x2="450.700000" y2="142.000000"  transform="rotate(0.000000,450.700000,142.000000)" style="stroke: black; stroke-width:0.25;"/>
<line x1="139.650000" y1="216.000000" x2="143.650000" y2="216.000000"  style="stroke:black; stroke-linecap:round; stroke-width:0.25;"/>
<line x1="143.650000" y1="216.000000" x2="143.650000" y2="216.000000"  style="stroke:black; stroke-linecap:round; stroke-width:0.25;"/>
<line x1="143.650000" y1="216.000000" x2="147.650000" y2="216.000000"  style="stroke:black; stroke-linecap:round; stroke-width:0.25;"/>
<line x1="156.550000" y1="100.000000" x2="160.550000" y2="100.000000"  style="stroke:black; stroke-linecap:round; stroke-width:0.25;"/>
<line x1="160.550000" y1="100.000000" x2="167.000000" y2="100.000000"  style="stroke:black; stroke-linecap:round; stroke-width:0.25;"/>
<line x1="163.000000" y1="132.000000" x2="167.000000" y2="132.000000"  style="stroke:black; stroke-linecap:round; stroke-width:0.25;"/>
<line x1="167.000000" y1="100.000000" x2="175.000000" y2="100.000000"  style="stroke:black; stroke-linecap:round; stroke-width:0.25;"/>
<line x1="167.000000" y1="120.000000" x2="175.000000" y2="120.000000"  style="stroke:black; stroke-linecap:round; stroke-width:0.25;"/>
<line x1="167.000000" y1="132.000000" x2="167.000000" y2="120.000000"  style="stroke:black; stroke-linecap:round; stroke-width:0.25;"/>
<line x1="167.000000" y1="132.000000" x2="167.000000" y2="132.000000"  style="stroke:black; stroke-linecap:round; stroke-width:0.25;"/>
<line x1="173.450000" y1="216.000000" x2="177.450000" y2="216.000000"  style="stroke:black; stroke-linecap:round; stroke-width:0.25;"/>
<line x1="175.000000" y1="100.000000" x2="175.000000" y2="112.000000"  style="stroke:black; stroke-linecap:round; stroke-width:0.25;"/>
<line x1="175.000000" y1="112.000000" x2="175.000000" y2="112.000000"  style="stroke:black; stroke-linecap:round; stroke-width:0.25;"/>
<line x1="175.000000" y1="112.000000" x2="179.000000" y2="112.000000"  style="stroke:black; stroke-linecap:round; stroke-width:0.25;"/>
<line x1="175.000000" y1="120.000000" x2="179.000000" y2="120.000000"  style="stroke:black; stroke-linecap:round; stroke-width:0.25;"/>
<line x1="176.550000" y1="248.000000" x2="180.550000" y2="248.000000"  style="stroke:black; stroke-linecap:round; stroke-width:0.25;"/>
<line x1="177.450000" y1="216.000000" x2="267.300000" y2="216.000000"  style="stroke:black; stroke-linecap:round; stroke-width:0.25;"/>
<line x1="180.550000" y1="248.000000" x2="307.300000" y2="248.000000"  style="stroke:black; stroke-linecap:round; stroke-width:0.25;"/>
<line x1="203.000000" y1="116.000000" x2="207.000000" y2="116.000000"  style="stroke:black; stroke-linecap:round; stroke-width:0.25;"/>
<line x1="207.000000" y1="68.000000" x2="211.000000" y2="68.000000"  style="stroke:black; stroke-linecap:round; stroke-width:0.25;"/>
<line x1="207.000000" y1="116.000000" x2="307.300000" y2="116.000000"  style="stroke:black; stroke-linecap:round; stroke-width:0.25;"/>
<line x1="207.900000" y1="36.000000" x2="211.900000" y2="36.000000"  style="stroke:black; stroke-linecap:round; stroke-width:0.25;"/>
<line x1="211.000000" y1="68.000000" x2="370.000000" y2="68.000000"  style="stroke:black; stroke-linecap:round; stroke-width:0.25;"/>
<line x1="211.900000" y1="36.000000" x2="370.000000" y2="36.000000"  style="stroke:black; stroke-linecap:round; stroke-width:0.25;"/>
<line x1="253.300000" y1="174.000000" x2="257.300000" y2="174.000000"  style="stroke:black; stroke-linecap:round; stroke-width:0.25;"/>
<line x1="257.300000" y1="174.000000" x2="267.300000" y2="174.000000"  style="stroke:black; stroke-linecap:round; stroke-width:0.25;"/>
<line x1="267.300000" y1="174.000000" x2="275.300000" y2="174.000000"  style="stroke:black; stroke-linecap:round; stroke-width:0.25;"/>
<line x1="267.300000" y1="194.000000" x2="275.300000" y2="194.000000"  style="stroke:black; stroke-linecap:round; stroke-width:0.25;"/>
<line x1="267.300000" y1="216.000000" x2="267.300000" y2="194.000000"  style="stroke:black; stroke-linecap:round; stroke-width:0.25;"/>
<line x1="267.300000" y1="216.000000" x2="267.300000" y2="216.000000"  style="stroke:black; stroke-linecap:round; stroke-width:0.25;"/>
<line x1="275.300000" y1="174.000000" x2="275.300000" y2="186.000000"  style="stroke:black; stroke-linecap:round; stroke-width:0.25;"/>
<line x1="275.300000" y1="186.000000" x2="275.300000" y2="186.000000"  style="stroke:black; stroke-linecap:round; stroke-width:0.25;"/>
<line x1="275.300000" y1="186.000000" x2="279.300000" y2="186.000000"  style="stroke:black; stroke-linecap:round; stroke-width:0.25;"/>
<line x1="275.300000" y1="194.000000" x2="279.300000" y2="194.000000"  style="stroke:black; stroke-linecap:round; stroke-width:0.25;"/>
<line x1="303.300000" y1="190.000000" x2="307.300000" y2="190.000000"  style="stroke:black; stroke-linecap:round; stroke-width:0.25;"/>
<line x1="307.300000" y1="116.000000" x2="323.300000" y2="116.000000"  style="stroke:black; stroke-linecap:round; stroke-width:0.25;"/>
<line x1="307.300000" y1="174.000000" x2="323.300000" y2="174.000000"  style="stroke:black; stroke-linecap:round; stroke-width:0.25;"/>
<line x1="307.300000" y1="190.000000" x2="307.300000" y2="174.000000"  style="stroke:black; stroke-linecap:round; stroke-width:0.25;"/>
<line x1="307.300000" y1="190.000000" x2="307.300000" y2="190.000000"  style="stroke:black; stroke-linecap:round; stroke-width:0.25;"/>
<line x1="307.300000" y1="248.000000" x2="315.300000" y2="248.000000"  style="stroke:black; stroke-linecap:round; stroke-width:0.25;"/>
<line x1="315.300000" y1="182.000000" x2="323.300000" y2="182.000000"  style="stroke:black; stroke-linecap:round; stroke-width:0.25;"/>
<line x1="315.300000" y1="248.000000" x2="315.300000" y2="182.000000"  style="stroke:black; stroke-linecap:round; stroke-width:0.25;"/>
<line x1="323.300000" y1="116.000000" x2="323.300000" y2="166.000000"  style="stroke:black; stroke-linecap:round; stroke-width:0.25;"/>
<line x1="323.300000" y1="166.000000" x2="323.300000" y2="166.000000"  style="stroke:black; stroke-linecap:round; stroke-width:0.25;"/>
<line x1="323.300000" y1="166.000000" x2="327.300000" y2="166.000000"  style="stroke:black; stroke-linecap:round; stroke-width:0.25;"/>
<line x1="323.300000" y1="174.000000" x2="327.300000" y2="174.000000"  style="stroke:black; stroke-linecap:round; stroke-width:0.25;"/>
<line x1="323.300000" y1="182.000000" x2="327.300000" y2="182.000000"  style="stroke:black; stroke-linecap:round; stroke-width:0.25;"/>
<line x1="366.000000" y1="174.000000" x2="370.000000" y2="174.000000"  style="stroke:black; stroke-linecap:round; stroke-width:0.25;"/>
<line x1="370.000000" y1="36.000000" x2="386.000000" y2="36.000000"  style="stroke:black; stroke-linecap:round; stroke-width:0.25;"/>
<line x1="370.000000" y1="68.000000" x2="378.000000" y2="68.000000"  style="stroke:black; stroke-linecap:round; stroke-width:0.25;"/>
<line x1="370.000000" y1="150.000000" x2="386.000000" y2="150.000000"  style="stroke:black; stroke-linecap:round; stroke-width:0.25;"/>
<line x1="370.000000" y1="174.000000" x2="370.000000" y2="150.000000"  style="stroke:black; stroke-linecap:round; stroke-width:0.25;"/>
<line x1="370.000000" y1="174.000000" x2="370.000000" y2="174.000000"  style="stroke:black; stroke-linecap:round; stroke-width:0.25;"/>
<line x1="378.000000" y1="68.000000" x2="378.000000" y2="142.000000"  style="stroke:black; stroke-linecap:round; stroke-width:0.25;"/>
<line x1="378.000000" y1="142.000000" x2="386.000000" y2="142.000000"  style="stroke:black; stroke-linecap:round; stroke-width:0.25;"/>
<line x1="386.000000" y1="36.000000" x2="386.000000" y2="134.000000"  style="stroke:black; stroke-linecap:round; stroke-width:0.25;"/>
<line x1="386.000000" y1="134.000000" x2="386.000000" y2="134.000000"  style="stroke:black; stroke-linecap:round; stroke-width:0.25;"/>
<line x1="386.000000" y1="134.000000" x2="390.000000" y2="134.000000"  style="stroke:black; stroke-linecap:round; stroke-width:0.25;"/>
<line x1="386.000000" y1="142.000000" x2="390.000000" y2="142.000000"  style="stroke:black; stroke-linecap:round; stroke-width:0.25;"/>
<line x1="386.000000" y1="150.000000" x2="390.000000" y2="150.000000"  style="stroke:black; stroke-linecap:round; stroke-width:0.25;"/>
<line x1="428.700000" y1="142.000000" x2="432.700000" y2="142.000000"  style="stroke:black; stroke-linecap:round; stroke-width:0.25;"/>
<line x1="432.700000" y1="142.000000" x2="432.700000" y2="142.000000"  style="stroke:black; stroke-linecap:round; stroke-width:0.25;"/>
<line x1="432.700000" y1="142.000000" x2="436.700000" y2="142.000000"  style="stroke:black; stroke-linecap:round; stroke-width:0.25;"/>
<line x1="436.700000" y1="142.000000" x2="440.700000" y2="142.000000"  style="stroke:black; stroke-linecap:round; stroke-width:0.25;"/>
<line x1="440.700000" y1="142.000000" x2="450.700000" y2="142.000000"  style="stroke:black; stroke-linecap:round; stroke-width:0.25;"/>
</svg>
