<?xml version="1.0"?>
<svg xmlns="http://www.w3.org/2000/svg" xmlns:xlink="http://www.w3.org/1999/xlink" viewBox="0 0 353.900000 300.000000" width="176.950000mm" height="150.000000mm" version="1.1">
<rect x="1.000000" y="1.000000" width="352.900000" height="299.000000" rx="0" ry="0" style="stroke:none;fill:#cccccc;"/>
<rect x="0.000000" y="0.000000" width="352.900000" height="299.000000" rx="0" ry="0" style="stroke:none;fill:#ffffff;"/>
<text x="10.000000" y="7.000000" font-family="Arial" font-size="7"></text>
<rect x="117.950000" y="127.000000" width="24.000000" height="24.000000" rx="0" ry="0" style="stroke:none;fill:#cccccc;"/>
<rect x="116.950000" y="126.000000" width="24.000000" height="24.000000" rx="0" ry="0" style="stroke:none;fill:#f44800;"/>
<text x="128.950000" y="140.000000" font-family="Arial" font-size="7" text-anchor="middle" fill="#FFFFFF">440</text>
<circle cx="118.950000" cy="128.000000" r="1"/>
<line x1="107.950000" y1="117.000000" x2="107.950000" y2="159.000000"  style="stroke: black; stroke-linecap:round; stroke-width:0.25; stroke-dasharray:3,3;"/>
<line x1="107.950000" y1="159.000000" x2="149.950000" y2="159.000000"  style="stroke: black; stroke-linecap:round; stroke-width:0.25; stroke-dasharray:3,3;"/>
<line x1="149.950000" y1="159.000000" x2="149.950000" y2="117.000000"  style="stroke: black; stroke-linecap:round; stroke-width:0.25; stroke-dasharray:3,3;"/>
<line x1="107.950000" y1="117.000000" x2="112.950000" y2="117.000000"  style="stroke: black; stroke-linecap:round; stroke-width:0.25; stroke-dasharray:3,3;"/>
<line x1="132.300000" y1="117.000000" x2="149.950000" y2="117.000000"  style="stroke: black; stroke-linecap:round; stroke-width:0.25; stroke-dasharray:3,3;"/>
<text x="112.950000" y="119.000000" font-family="Arial" font-size="7">freq</text>
<rect x="83.250000" y="179.000000" width="38.700000" height="24.000000" rx="0" ry="0" style="stroke:none;fill:#cccccc;"/>
<rect x="82.250000" y="178.000000" width="38.700000" height="24.000000" rx="0" ry="0" style="stroke:none;fill:#f44800;"/>
<text x="101.600000" y="192.000000" font-family="Arial" font-size="7" text-anchor="middle" fill="#FFFFFF">1.92e+05f</text>
<circle cx="84.250000" cy="180.000000" r="1"/>
<rect x="62.350000" y="211.000000" width="25.800000" height="24.000000" rx="0" ry="0" style="stroke:none;fill:#cccccc;"/>
<rect x="61.350000" y="210.000000" width="25.800000" height="24.000000" rx="0" ry="0" style="stroke:none;fill:#f44800;"/>
<text x="74.250000" y="224.000000" font-family="Arial" font-size="7" text-anchor="middle" fill="#FFFFFF">1.0f</text>
<circle cx="63.350000" cy="212.000000" r="1"/>
<rect x="43.000000" y="243.000000" width="64.500000" height="24.000000" rx="0" ry="0" style="stroke:none;fill:#cccccc;"/>
<rect x="42.000000" y="242.000000" width="64.500000" height="24.000000" rx="0" ry="0" style="stroke:none;fill:#4B71A1;"/>
<text x="74.250000" y="256.000000" font-family="Arial" font-size="7" text-anchor="middle" fill="#FFFFFF">fSamplingFreq</text>
<circle cx="44.000000" cy="244.000000" r="1"/>
<rect x="123.500000" y="227.000000" width="38.700000" height="24.000000" rx="0" ry="0" style="stroke:none;fill:#cccccc;"/>
<rect x="122.500000" y="226.000000" width="38.700000" height="24.000000" rx="0" ry="0" style="stroke:none;fill:#4B71A1;"/>
<text x="141.850000" y="240.000000" font-family="Arial" font-size="7" text-anchor="middle" fill="#FFFFFF">std::max</text>
<circle cx="124.500000" cy="228.000000" r="1"/>
<line x1="119.500000" y1="233.000000" x2="122.500000" y2="234.000000"  transform="rotate(0.000000,122.500000,234.000000)" style="stroke: black; stroke-width:0.25;"/>
<line x1="119.500000" y1="235.000000" x2="122.500000" y2="234.000000"  transform="rotate(0.000000,122.500000,234.000000)" style="stroke: black; stroke-width:0.25;"/>
<line x1="119.500000" y1="241.000000" x2="122.500000" y2="242.000000"  transform="rotate(0.000000,122.500000,242.000000)" style="stroke: black; stroke-width:0.25;"/>
<line x1="119.500000" y1="243.000000" x2="122.500000" y2="242.000000"  transform="rotate(0.000000,122.500000,242.000000)" style="stroke: black; stroke-width:0.25;"/>
<rect x="178.200000" y="211.000000" width="38.700000" height="24.000000" rx="0" ry="0" style="stroke:none;fill:#cccccc;"/>
<rect x="177.200000" y="210.000000" width="38.700000" height="24.000000" rx="0" ry="0" style="stroke:none;fill:#4B71A1;"/>
<text x="196.550000" y="224.000000" font-family="Arial" font-size="7" text-anchor="middle" fill="#FFFFFF">std::min</text>
<circle cx="179.200000" cy="212.000000" r="1"/>
<line x1="174.200000" y1="217.000000" x2="177.200000" y2="218.000000"  transform="rotate(0.000000,177.200000,218.000000)" style="stroke: black; stroke-width:0.25;"/>
<line x1="174.200000" y1="219.000000" x2="177.200000" y2="218.000000"  transform="rotate(0.000000,177.200000,218.000000)" style="stroke: black; stroke-width:0.25;"/>
<line x1="174.200000" y1="225.000000" x2="177.200000" y2="226.000000"  transform="rotate(0.000000,177.200000,226.000000)" style="stroke: black; stroke-width:0.25;"/>
<line x1="174.200000" y1="227.000000" x2="177.200000" y2="226.000000"  transform="rotate(0.000000,177.200000,226.000000)" style="stroke: black; stroke-width:0.25;"/>
<line x1="33.000000" y1="169.000000" x2="33.000000" y2="275.000000"  style="stroke: black; stroke-linecap:round; stroke-width:0.25; stroke-dasharray:3,3;"/>
<line x1="33.000000" y1="275.000000" x2="224.900000" y2="275.000000"  style="stroke: black; stroke-linecap:round; stroke-width:0.25; stroke-dasharray:3,3;"/>
<line x1="224.900000" y1="275.000000" x2="224.900000" y2="169.000000"  style="stroke: black; stroke-linecap:round; stroke-width:0.25; stroke-dasharray:3,3;"/>
<line x1="33.000000" y1="169.000000" x2="38.000000" y2="169.000000"  style="stroke: black; stroke-linecap:round; stroke-width:0.25; stroke-dasharray:3,3;"/>
<line x1="50.900000" y1="169.000000" x2="224.900000" y2="169.000000"  style="stroke: black; stroke-linecap:round; stroke-width:0.25; stroke-dasharray:3,3;"/>
<text x="38.000000" y="171.000000" font-family="Arial" font-size="7">SR</text>
<rect x="242.900000" y="185.000000" width="24.000000" height="24.000000" rx="0" ry="0" style="stroke:none;fill:#cccccc;"/>
<rect x="241.900000" y="184.000000" width="24.000000" height="24.000000" rx="0" ry="0" style="stroke:none;fill:#4B71A1;"/>
<text x="253.900000" y="198.000000" font-family="Arial" font-size="7" text-anchor="middle" fill="#FFFFFF">/</text>
<circle cx="243.900000" cy="186.000000" r="1"/>
<line x1="238.900000" y1="191.000000" x2="241.900000" y2="192.000000"  transform="rotate(0.000000,241.900000,192.000000)" style="stroke: black; stroke-width:0.25;"/>
<line x1="238.900000" y1="193.000000" x2="241.900000" y2="192.000000"  transform="rotate(0.000000,241.900000,192.000000)" style="stroke: black; stroke-width:0.25;"/>
<line x1="238.900000" y1="199.000000" x2="241.900000" y2="200.000000"  transform="rotate(0.000000,241.900000,200.000000)" style="stroke: black; stroke-width:0.25;"/>
<line x1="238.900000" y1="201.000000" x2="241.900000" y2="200.000000"  transform="rotate(0.000000,241.900000,200.000000)" style="stroke: black; stroke-width:0.25;"/>
<rect x="282.900000" y="181.000000" width="24.000000" height="24.000000" rx="0" ry="0" style="stroke:none;fill:#cccccc;"/>
<rect x="281.900000" y="180.000000" width="24.000000" height="24.000000" rx="0" ry="0" style="stroke:none;fill:#4B71A1;"/>
<text x="293.900000" y="194.000000" font-family="Arial" font-size="7" text-anchor="middle" fill="#FFFFFF">+</text>
<circle cx="283.900000" cy="182.000000" r="1"/>
<line x1="278.900000" y1="187.000000" x2="281.900000" y2="188.000000"  transform="rotate(0.000000,281.900000,188.000000)" style="stroke: black; stroke-width:0.25;"/>
<line x1="278.900000" y1="189.000000" x2="281.900000" y2="188.000000"  transform="rotate(0.000000,281.900000,188.000000)" style="stroke: black; stroke-width:0.25;"/>
<line x1="278.900000" y1="195.000000" x2="281.900000" y2="196.000000"  transform="rotate(0.000000,281.900000,196.000000)" style="stroke: black; stroke-width:0.25;"/>
<line x1="278.900000" y1="197.000000" x2="281.900000" y2="196.000000"  transform="rotate(0.000000,281.900000,196.000000)" style="stroke: black; stroke-width:0.25;"/>
<rect x="210.850000" y="51.000000" width="25.800000" height="24.000000" rx="0" ry="0" style="stroke:none;fill:#cccccc;"/>
<rect x="209.850000" y="50.000000" width="25.800000" height="24.000000" rx="0" ry="0" style="stroke:none;fill:#47945E;"/>
<text x="222.750000" y="64.000000" font-family="Arial" font-size="7" text-anchor="middle" fill="#FFFFFF">[1] n</text>
<circle cx="233.650000" cy="72.000000" r="1"/>
<line x1="238.650000" y1="61.000000" x2="235.650000" y2="62.000000"  transform="rotate(0.000000,235.650000,62.000000)" style="stroke: black; stroke-width:0.25;"/>
<line x1="238.650000" y1="63.000000" x2="235.650000" y2="62.000000"  transform="rotate(0.000000,235.650000,62.000000)" style="stroke: black; stroke-width:0.25;"/>
<rect x="160.150000" y="67.000000" width="25.800000" height="24.000000" rx="0" ry="0" style="stroke:none;fill:#cccccc;"/>
<rect x="159.150000" y="66.000000" width="25.800000" height="24.000000" rx="0" ry="0" style="stroke:none;fill:#47945E;"/>
<text x="172.050000" y="80.000000" font-family="Arial" font-size="7" text-anchor="middle" fill="#FFFFFF">[1] n</text>
<circle cx="182.950000" cy="88.000000" r="1"/>
<rect x="177.050000" y="35.000000" width="25.800000" height="24.000000" rx="0" ry="0" style="stroke:none;fill:#cccccc;"/>
<rect x="176.050000" y="34.000000" width="25.800000" height="24.000000" rx="0" ry="0" style="stroke:none;fill:#47945E;"/>
<text x="188.950000" y="48.000000" font-family="Arial" font-size="7" text-anchor="middle" fill="#FFFFFF">[1] n</text>
<circle cx="199.850000" cy="56.000000" r="1"/>
<rect x="143.250000" y="35.000000" width="25.800000" height="24.000000" rx="0" ry="0" style="stroke:none;fill:#cccccc;"/>
<rect x="142.250000" y="34.000000" width="25.800000" height="24.000000" rx="0" ry="0" style="stroke:none;fill:#4B71A1;"/>
<text x="155.150000" y="48.000000" font-family="Arial" font-size="7" text-anchor="middle" fill="#FFFFFF">floor</text>
<circle cx="166.050000" cy="56.000000" r="1"/>
<line x1="171.050000" y1="45.000000" x2="168.050000" y2="46.000000"  transform="rotate(0.000000,168.050000,46.000000)" style="stroke: black; stroke-width:0.25;"/>
<line x1="171.050000" y1="47.000000" x2="168.050000" y2="46.000000"  transform="rotate(0.000000,168.050000,46.000000)" style="stroke: black; stroke-width:0.25;"/>
<rect x="103.250000" y="51.000000" width="24.000000" height="24.000000" rx="0" ry="0" style="stroke:none;fill:#cccccc;"/>
<rect x="102.250000" y="50.000000" width="24.000000" height="24.000000" rx="0" ry="0" style="stroke:none;fill:#4B71A1;"/>
<text x="114.250000" y="64.000000" font-family="Arial" font-size="7" text-anchor="middle" fill="#FFFFFF">-</text>
<circle cx="124.250000" cy="72.000000" r="1"/>
<line x1="129.250000" y1="65.000000" x2="126.250000" y2="66.000000"  transform="rotate(0.000000,126.250000,66.000000)" style="stroke: black; stroke-width:0.25;"/>
<line x1="129.250000" y1="67.000000" x2="126.250000" y2="66.000000"  transform="rotate(0.000000,126.250000,66.000000)" style="stroke: black; stroke-width:0.25;"/>
<line x1="129.250000" y1="57.000000" x2="126.250000" y2="58.000000"  transform="rotate(0.000000,126.250000,58.000000)" style="stroke: black; stroke-width:0.25;"/>
<line x1="129.250000" y1="59.000000" x2="126.250000" y2="58.000000"  transform="rotate(0.000000,126.250000,58.000000)" style="stroke: black; stroke-width:0.25;"/>
<line x1="93.250000" y1="25.000000" x2="93.250000" y2="99.000000"  style="stroke: black; stroke-linecap:round; stroke-width:0.25; stroke-dasharray:3,3;"/>
<line x1="93.250000" y1="99.000000" x2="244.650000" y2="99.000000"  style="stroke: black; stroke-linecap:round; stroke-width:0.25; stroke-dasharray:3,3;"/>
<line x1="244.650000" y1="99.000000" x2="244.650000" y2="25.000000"  style="stroke: black; stroke-linecap:round; stroke-width:0.25; stroke-dasharray:3,3;"/>
<line x1="93.250000" y1="25.000000" x2="98.250000" y2="25.000000"  style="stroke: black; stroke-linecap:round; stroke-width:0.25; stroke-dasharray:3,3;"/>
<line x1="127.275000" y1="25.000000" x2="244.650000" y2="25.000000"  style="stroke: black; stroke-linecap:round; stroke-width:0.25; stroke-dasharray:3,3;"/>
<text x="98.250000" y="27.000000" font-family="Arial" font-size="7">decimal</text>
<line x1="307.900000" y1="192.000000" x2="307.900000" y2="188.000000"  style="stroke:black; stroke-linecap:round; stroke-width:0.25;"/>
<line x1="307.900000" y1="188.000000" x2="311.900000" y2="188.000000"  style="stroke:black; stroke-linecap:round; stroke-width:0.25;"/>
<line x1="311.900000" y1="188.000000" x2="311.900000" y2="192.000000"  style="stroke:black; stroke-linecap:round; stroke-width:0.25;"/>
<line x1="15.000000" y1="15.000000" x2="15.000000" y2="285.000000"  style="stroke: black; stroke-linecap:round; stroke-width:0.25; stroke-dasharray:3,3;"/>
<line x1="15.000000" y1="285.000000" x2="338.900000" y2="285.000000"  style="stroke: black; stroke-linecap:round; stroke-width:0.25; stroke-dasharray:3,3;"/>
<line x1="338.900000" y1="285.000000" x2="338.900000" y2="15.000000"  style="stroke: black; stroke-linecap:round; stroke-width:0.25; stroke-dasharray:3,3;"/>
<line x1="15.000000" y1="15.000000" x2="20.000000" y2="15.000000"  style="stroke: black; stroke-linecap:round; stroke-width:0.25; stroke-dasharray:3,3;"/>
<line x1="49.025000" y1="15.000000" x2="338.900000" y2="15.000000"  style="stroke: black; stroke-linecap:round; stroke-width:0.25; stroke-dasharray:3,3;"/>
<text x="20.000000" y="17.000000" font-family="Arial" font-size="7">process</text>
<line x1="340.900000" y1="149.000000" x2="343.900000" y2="150.000000"  transform="rotate(0.000000,343.900000,150.000000)" style="stroke: black; stroke-width:0.25;"/>
<line x1="340.900000" y1="151.000000" x2="343.900000" y2="150.000000"  transform="rotate(0.000000,343.900000,150.000000)" style="stroke: black; stroke-width:0.25;"/>
<line x1="28.000000" y1="62.000000" x2="28.000000" y2="62.000000"  style="stroke:black; stroke-linecap:round; stroke-width:0.25;"/>
<line x1="28.000000" y1="62.000000" x2="28.000000" y2="108.000000"  style="stroke:black; stroke-linecap:round; stroke-width:0.25;"/>
<line x1="28.000000" y1="108.000000" x2="28.000000" y2="108.000000"  style="stroke:black; stroke-linecap:round; stroke-width:0.25;"/>
<line x1="28.000000" y1="108.000000" x2="148.950000" y2="108.000000"  style="stroke:black; stroke-linecap:round; stroke-width:0.25;"/>
<line x1="87.150000" y1="222.000000" x2="91.150000" y2="222.000000"  style="stroke:black; stroke-linecap:round; stroke-width:0.25;"/>
<line x1="88.250000" y1="62.000000" x2="28.000000" y2="62.000000"  style="stroke:black; stroke-linecap:round; stroke-width:0.25;"/>
<line x1="91.150000" y1="222.000000" x2="110.500000" y2="222.000000"  style="stroke:black; stroke-linecap:round; stroke-width:0.25;"/>
<line x1="98.250000" y1="62.000000" x2="88.250000" y2="62.000000"  style="stroke:black; stroke-linecap:round; stroke-width:0.25;"/>
<line x1="102.250000" y1="62.000000" x2="98.250000" y2="62.000000"  style="stroke:black; stroke-linecap:round; stroke-width:0.25;"/>
<line x1="106.500000" y1="254.000000" x2="110.500000" y2="254.000000"  style="stroke:black; stroke-linecap:round; stroke-width:0.25;"/>
<line x1="110.500000" y1="222.000000" x2="118.500000" y2="222.000000"  style="stroke:black; stroke-linecap:round; stroke-width:0.25;"/>
<line x1="110.500000" y1="242.000000" x2="118.500000" y2="242.000000"  style="stroke:black; stroke-linecap:round; stroke-width:0.25;"/>
<line x1="110.500000" y1="254.000000" x2="110.500000" y2="242.000000"  style="stroke:black; stroke-linecap:round; stroke-width:0.25;"/>
<line x1="110.500000" y1="254.000000" x2="110.500000" y2="254.000000"  style="stroke:black; stroke-linecap:round; stroke-width:0.25;"/>
<line x1="118.500000" y1="222.000000" x2="118.500000" y2="234.000000"  style="stroke:black; stroke-linecap:round; stroke-width:0.25;"/>
<line x1="118.500000" y1="234.000000" x2="118.500000" y2="234.000000"  style="stroke:black; stroke-linecap:round; stroke-width:0.25;"/>
<line x1="118.500000" y1="234.000000" x2="122.500000" y2="234.000000"  style="stroke:black; stroke-linecap:round; stroke-width:0.25;"/>
<line x1="118.500000" y1="242.000000" x2="122.500000" y2="242.000000"  style="stroke:black; stroke-linecap:round; stroke-width:0.25;"/>
<line x1="120.950000" y1="190.000000" x2="124.950000" y2="190.000000"  style="stroke:black; stroke-linecap:round; stroke-width:0.25;"/>
<line x1="124.950000" y1="190.000000" x2="165.200000" y2="190.000000"  style="stroke:black; stroke-linecap:round; stroke-width:0.25;"/>
<line x1="130.250000" y1="58.000000" x2="126.250000" y2="58.000000"  style="stroke:black; stroke-linecap:round; stroke-width:0.25;"/>
<line x1="130.250000" y1="66.000000" x2="126.250000" y2="66.000000"  style="stroke:black; stroke-linecap:round; stroke-width:0.25;"/>
<line x1="130.250000" y1="66.000000" x2="130.250000" y2="66.000000"  style="stroke:black; stroke-linecap:round; stroke-width:0.25;"/>
<line x1="130.250000" y1="78.000000" x2="130.250000" y2="66.000000"  style="stroke:black; stroke-linecap:round; stroke-width:0.25;"/>
<line x1="138.250000" y1="46.000000" x2="138.250000" y2="46.000000"  style="stroke:black; stroke-linecap:round; stroke-width:0.25;"/>
<line x1="138.250000" y1="46.000000" x2="138.250000" y2="58.000000"  style="stroke:black; stroke-linecap:round; stroke-width:0.25;"/>
<line x1="138.250000" y1="58.000000" x2="130.250000" y2="58.000000"  style="stroke:black; stroke-linecap:round; stroke-width:0.25;"/>
<line x1="138.250000" y1="78.000000" x2="130.250000" y2="78.000000"  style="stroke:black; stroke-linecap:round; stroke-width:0.25;"/>
<line x1="140.950000" y1="138.000000" x2="144.950000" y2="138.000000"  style="stroke:black; stroke-linecap:round; stroke-width:0.25;"/>
<line x1="142.250000" y1="46.000000" x2="138.250000" y2="46.000000"  style="stroke:black; stroke-linecap:round; stroke-width:0.25;"/>
<line x1="144.950000" y1="138.000000" x2="154.950000" y2="138.000000"  style="stroke:black; stroke-linecap:round; stroke-width:0.25;"/>
<line x1="148.950000" y1="108.000000" x2="269.900000" y2="108.000000"  style="stroke:black; stroke-linecap:round; stroke-width:0.25;"/>
<line x1="154.950000" y1="138.000000" x2="229.900000" y2="138.000000"  style="stroke:black; stroke-linecap:round; stroke-width:0.25;"/>
<line x1="155.150000" y1="78.000000" x2="138.250000" y2="78.000000"  style="stroke:black; stroke-linecap:round; stroke-width:0.25;"/>
<line x1="159.150000" y1="78.000000" x2="155.150000" y2="78.000000"  style="stroke:black; stroke-linecap:round; stroke-width:0.25;"/>
<line x1="161.200000" y1="238.000000" x2="165.200000" y2="238.000000"  style="stroke:black; stroke-linecap:round; stroke-width:0.25;"/>
<line x1="165.200000" y1="190.000000" x2="173.200000" y2="190.000000"  style="stroke:black; stroke-linecap:round; stroke-width:0.25;"/>
<line x1="165.200000" y1="226.000000" x2="173.200000" y2="226.000000"  style="stroke:black; stroke-linecap:round; stroke-width:0.25;"/>
<line x1="165.200000" y1="238.000000" x2="165.200000" y2="226.000000"  style="stroke:black; stroke-linecap:round; stroke-width:0.25;"/>
<line x1="165.200000" y1="238.000000" x2="165.200000" y2="238.000000"  style="stroke:black; stroke-linecap:round; stroke-width:0.25;"/>
<line x1="172.050000" y1="46.000000" x2="168.050000" y2="46.000000"  style="stroke:black; stroke-linecap:round; stroke-width:0.25;"/>
<line x1="172.050000" y1="46.000000" x2="172.050000" y2="46.000000"  style="stroke:black; stroke-linecap:round; stroke-width:0.25;"/>
<line x1="173.200000" y1="190.000000" x2="173.200000" y2="218.000000"  style="stroke:black; stroke-linecap:round; stroke-width:0.25;"/>
<line x1="173.200000" y1="218.000000" x2="173.200000" y2="218.000000"  style="stroke:black; stroke-linecap:round; stroke-width:0.25;"/>
<line x1="173.200000" y1="218.000000" x2="177.200000" y2="218.000000"  style="stroke:black; stroke-linecap:round; stroke-width:0.25;"/>
<line x1="173.200000" y1="226.000000" x2="177.200000" y2="226.000000"  style="stroke:black; stroke-linecap:round; stroke-width:0.25;"/>
<line x1="176.050000" y1="46.000000" x2="172.050000" y2="46.000000"  style="stroke:black; stroke-linecap:round; stroke-width:0.25;"/>
<line x1="215.900000" y1="222.000000" x2="219.900000" y2="222.000000"  style="stroke:black; stroke-linecap:round; stroke-width:0.25;"/>
<line x1="219.900000" y1="222.000000" x2="229.900000" y2="222.000000"  style="stroke:black; stroke-linecap:round; stroke-width:0.25;"/>
<line x1="229.900000" y1="138.000000" x2="237.900000" y2="138.000000"  style="stroke:black; stroke-linecap:round; stroke-width:0.25;"/>
<line x1="229.900000" y1="200.000000" x2="237.900000" y2="200.000000"  style="stroke:black; stroke-linecap:round; stroke-width:0.25;"/>
<line x1="229.900000" y1="222.000000" x2="229.900000" y2="200.000000"  style="stroke:black; stroke-linecap:round; stroke-width:0.25;"/>
<line x1="229.900000" y1="222.000000" x2="229.900000" y2="222.000000"  style="stroke:black; stroke-linecap:round; stroke-width:0.25;"/>
<line x1="237.900000" y1="138.000000" x2="237.900000" y2="192.000000"  style="stroke:black; stroke-linecap:round; stroke-width:0.25;"/>
<line x1="237.900000" y1="192.000000" x2="237.900000" y2="192.000000"  style="stroke:black; stroke-linecap:round; stroke-width:0.25;"/>
<line x1="237.900000" y1="192.000000" x2="241.900000" y2="192.000000"  style="stroke:black; stroke-linecap:round; stroke-width:0.25;"/>
<line x1="237.900000" y1="200.000000" x2="241.900000" y2="200.000000"  style="stroke:black; stroke-linecap:round; stroke-width:0.25;"/>
<line x1="239.650000" y1="62.000000" x2="235.650000" y2="62.000000"  style="stroke:black; stroke-linecap:round; stroke-width:0.25;"/>
<line x1="249.650000" y1="62.000000" x2="239.650000" y2="62.000000"  style="stroke:black; stroke-linecap:round; stroke-width:0.25;"/>
<line x1="265.900000" y1="196.000000" x2="269.900000" y2="196.000000"  style="stroke:black; stroke-linecap:round; stroke-width:0.25;"/>
<line x1="269.900000" y1="108.000000" x2="277.900000" y2="108.000000"  style="stroke:black; stroke-linecap:round; stroke-width:0.25;"/>
<line x1="269.900000" y1="196.000000" x2="277.900000" y2="196.000000"  style="stroke:black; stroke-linecap:round; stroke-width:0.25;"/>
<line x1="277.900000" y1="108.000000" x2="277.900000" y2="188.000000"  style="stroke:black; stroke-linecap:round; stroke-width:0.25;"/>
<line x1="277.900000" y1="188.000000" x2="277.900000" y2="188.000000"  style="stroke:black; stroke-linecap:round; stroke-width:0.25;"/>
<line x1="277.900000" y1="188.000000" x2="281.900000" y2="188.000000"  style="stroke:black; stroke-linecap:round; stroke-width:0.25;"/>
<line x1="277.900000" y1="196.000000" x2="281.900000" y2="196.000000"  style="stroke:black; stroke-linecap:round; stroke-width:0.25;"/>
<line x1="305.900000" y1="192.000000" x2="309.900000" y2="192.000000"  style="stroke:black; stroke-linecap:round; stroke-width:0.25;"/>
<line x1="309.900000" y1="62.000000" x2="249.650000" y2="62.000000"  style="stroke:black; stroke-linecap:round; stroke-width:0.25;"/>
<line x1="309.900000" y1="62.000000" x2="309.900000" y2="62.000000"  style="stroke:black; stroke-linecap:round; stroke-width:0.25;"/>
<line x1="309.900000" y1="188.000000" x2="309.900000" y2="62.000000"  style="stroke:black; stroke-linecap:round; stroke-width:0.25;"/>
<line x1="309.900000" y1="192.000000" x2="311.900000" y2="192.000000"  style="stroke:black; stroke-linecap:round; stroke-width:0.25;"/>
<line x1="311.900000" y1="192.000000" x2="317.900000" y2="192.000000"  style="stroke:black; stroke-linecap:round; stroke-width:0.25;"/>
<line x1="317.900000" y1="150.000000" x2="325.900000" y2="150.000000"  style="stroke:black; stroke-linecap:round; stroke-width:0.25;"/>
<line x1="317.900000" y1="192.000000" x2="317.900000" y2="150.000000"  style="stroke:black; stroke-linecap:round; stroke-width:0.25;"/>
<line x1="317.900000" y1="192.000000" x2="317.900000" y2="192.000000"  style="stroke:black; stroke-linecap:round; stroke-width:0.25;"/>
<line x1="325.900000" y1="150.000000" x2="329.900000" y2="150.000000"  style="stroke:black; stroke-linecap:round; stroke-width:0.25;"/>
<line x1="329.900000" y1="150.000000" x2="333.900000" y2="150.000000"  style="stroke:black; stroke-linecap:round; stroke-width:0.25;"/>
<line x1="333.900000" y1="150.000000" x2="343.900000" y2="150.000000"  style="stroke:black; stroke-linecap:round; stroke-width:0.25;"/>
</svg>
