<?xml version="1.0"?>
<svg xmlns="http://www.w3.org/2000/svg" xmlns:xlink="http://www.w3.org/1999/xlink" viewBox="0 0 481.500000 240.000000" width="240.750000mm" height="120.000000mm" version="1.1">
<a xlink:href="a1d-0x7fcebc9ce580.svg">
<rect x="1.000000" y="1.000000" width="480.500000" height="239.000000" rx="0" ry="0" style="stroke:none;fill:#cccccc;"/>
<rect x="0.000000" y="0.000000" width="480.500000" height="239.000000" rx="0" ry="0" style="stroke:none;fill:#ffffff;"/>
</a>
<text x="10.000000" y="7.000000" font-family="Arial" font-size="7"></text>
<rect x="205.750000" y="25.000000" width="24.000000" height="24.000000" rx="0" ry="0" style="stroke:none;fill:#cccccc;"/>
<rect x="204.750000" y="24.000000" width="24.000000" height="24.000000" rx="0" ry="0" style="stroke:none;fill:#f44800;"/>
<text x="216.750000" y="38.000000" font-family="Arial" font-size="7" text-anchor="middle" fill="#FFFFFF">1</text>
<circle cx="206.750000" cy="26.000000" r="1"/>
<rect x="122.400000" y="57.000000" width="38.700000" height="24.000000" rx="0" ry="0" style="stroke:none;fill:#cccccc;"/>
<rect x="121.400000" y="56.000000" width="38.700000" height="24.000000" rx="0" ry="0" style="stroke:none;fill:#f44800;"/>
<text x="140.750000" y="70.000000" font-family="Arial" font-size="7" text-anchor="middle" fill="#FFFFFF">6.28319</text>
<circle cx="123.400000" cy="58.000000" r="1"/>
<rect x="45.000000" y="109.000000" width="193.500000" height="24.000000" rx="0" ry="0" style="stroke:none;fill:#cccccc;"/>
<rect x="44.000000" y="108.000000" width="193.500000" height="24.000000" rx="0" ry="0" style="stroke:none;fill:#477881;"/>
<text x="140.750000" y="122.000000" font-family="Arial" font-size="7" text-anchor="middle" fill="#FFFFFF">vslider(LF X, 200.0f, 50.0f, 1000.0f, 1.0f)</text>
<circle cx="46.000000" cy="110.000000" r="1"/>
<line x1="35.000000" y1="99.000000" x2="35.000000" y2="141.000000"  style="stroke: black; stroke-linecap:round; stroke-width:0.25; stroke-dasharray:3,3;"/>
<line x1="35.000000" y1="141.000000" x2="246.500000" y2="141.000000"  style="stroke: black; stroke-linecap:round; stroke-width:0.25; stroke-dasharray:3,3;"/>
<line x1="246.500000" y1="141.000000" x2="246.500000" y2="99.000000"  style="stroke: black; stroke-linecap:round; stroke-width:0.25; stroke-dasharray:3,3;"/>
<line x1="35.000000" y1="99.000000" x2="40.000000" y2="99.000000"  style="stroke: black; stroke-linecap:round; stroke-width:0.25; stroke-dasharray:3,3;"/>
<line x1="162.550000" y1="99.000000" x2="246.500000" y2="99.000000"  style="stroke: black; stroke-linecap:round; stroke-width:0.25; stroke-dasharray:3,3;"/>
<text x="40.000000" y="101.000000" font-family="Arial" font-size="7">hgroup(Zita_Rev Internal FDN Reverb)</text>
<line x1="25.000000" y1="89.000000" x2="25.000000" y2="151.000000"  style="stroke: black; stroke-linecap:round; stroke-width:0.25; stroke-dasharray:3,3;"/>
<line x1="25.000000" y1="151.000000" x2="256.500000" y2="151.000000"  style="stroke: black; stroke-linecap:round; stroke-width:0.25; stroke-dasharray:3,3;"/>
<line x1="256.500000" y1="151.000000" x2="256.500000" y2="89.000000"  style="stroke: black; stroke-linecap:round; stroke-width:0.25; stroke-dasharray:3,3;"/>
<line x1="25.000000" y1="89.000000" x2="30.000000" y2="89.000000"  style="stroke: black; stroke-linecap:round; stroke-width:0.25; stroke-dasharray:3,3;"/>
<line x1="49.350000" y1="89.000000" x2="256.500000" y2="89.000000"  style="stroke: black; stroke-linecap:round; stroke-width:0.25; stroke-dasharray:3,3;"/>
<text x="30.000000" y="91.000000" font-family="Arial" font-size="7">f(1)</text>
<rect x="274.500000" y="93.000000" width="24.000000" height="24.000000" rx="0" ry="0" style="stroke:none;fill:#cccccc;"/>
<rect x="273.500000" y="92.000000" width="24.000000" height="24.000000" rx="0" ry="0" style="stroke:none;fill:#4B71A1;"/>
<text x="285.500000" y="106.000000" font-family="Arial" font-size="7" text-anchor="middle" fill="#FFFFFF">*</text>
<circle cx="275.500000" cy="94.000000" r="1"/>
<line x1="270.500000" y1="99.000000" x2="273.500000" y2="100.000000"  transform="rotate(0.000000,273.500000,100.000000)" style="stroke: black; stroke-width:0.25;"/>
<line x1="270.500000" y1="101.000000" x2="273.500000" y2="100.000000"  transform="rotate(0.000000,273.500000,100.000000)" style="stroke: black; stroke-width:0.25;"/>
<line x1="270.500000" y1="107.000000" x2="273.500000" y2="108.000000"  transform="rotate(0.000000,273.500000,108.000000)" style="stroke: black; stroke-width:0.25;"/>
<line x1="270.500000" y1="109.000000" x2="273.500000" y2="108.000000"  transform="rotate(0.000000,273.500000,108.000000)" style="stroke: black; stroke-width:0.25;"/>
<rect x="149.750000" y="161.000000" width="24.000000" height="24.000000" rx="0" ry="0" style="stroke:none;fill:#cccccc;"/>
<rect x="148.750000" y="160.000000" width="24.000000" height="24.000000" rx="0" ry="0" style="stroke:none;fill:#f44800;"/>
<text x="160.750000" y="174.000000" font-family="Arial" font-size="7" text-anchor="middle" fill="#FFFFFF">0.5</text>
<circle cx="150.750000" cy="162.000000" r="1"/>
<rect x="314.500000" y="109.000000" width="24.000000" height="24.000000" rx="0" ry="0" style="stroke:none;fill:#cccccc;"/>
<rect x="313.500000" y="108.000000" width="24.000000" height="24.000000" rx="0" ry="0" style="stroke:none;fill:#4B71A1;"/>
<text x="325.500000" y="122.000000" font-family="Arial" font-size="7" text-anchor="middle" fill="#FFFFFF">*</text>
<circle cx="315.500000" cy="110.000000" r="1"/>
<line x1="310.500000" y1="115.000000" x2="313.500000" y2="116.000000"  transform="rotate(0.000000,313.500000,116.000000)" style="stroke: black; stroke-width:0.25;"/>
<line x1="310.500000" y1="117.000000" x2="313.500000" y2="116.000000"  transform="rotate(0.000000,313.500000,116.000000)" style="stroke: black; stroke-width:0.25;"/>
<line x1="310.500000" y1="123.000000" x2="313.500000" y2="124.000000"  transform="rotate(0.000000,313.500000,124.000000)" style="stroke: black; stroke-width:0.25;"/>
<line x1="310.500000" y1="125.000000" x2="313.500000" y2="124.000000"  transform="rotate(0.000000,313.500000,124.000000)" style="stroke: black; stroke-width:0.25;"/>
<a xlink:href="SR-0x7fcebb23c240.svg">
<rect x="169.750000" y="193.000000" width="24.000000" height="24.000000" rx="0" ry="0" style="stroke:none;fill:#cccccc;"/>
<rect x="168.750000" y="192.000000" width="24.000000" height="24.000000" rx="0" ry="0" style="stroke:none;fill:#003366;"/>
</a>
<a xlink:href="SR-0x7fcebb23c240.svg">
<text x="180.750000" y="206.000000" font-family="Arial" font-size="7" text-anchor="middle" fill="#FFFFFF">SR</text>
</a>
<circle cx="170.750000" cy="194.000000" r="1"/>
<rect x="354.500000" y="125.000000" width="24.000000" height="24.000000" rx="0" ry="0" style="stroke:none;fill:#cccccc;"/>
<rect x="353.500000" y="124.000000" width="24.000000" height="24.000000" rx="0" ry="0" style="stroke:none;fill:#4B71A1;"/>
<text x="365.500000" y="138.000000" font-family="Arial" font-size="7" text-anchor="middle" fill="#FFFFFF">/</text>
<circle cx="355.500000" cy="126.000000" r="1"/>
<line x1="350.500000" y1="131.000000" x2="353.500000" y2="132.000000"  transform="rotate(0.000000,353.500000,132.000000)" style="stroke: black; stroke-width:0.25;"/>
<line x1="350.500000" y1="133.000000" x2="353.500000" y2="132.000000"  transform="rotate(0.000000,353.500000,132.000000)" style="stroke: black; stroke-width:0.25;"/>
<line x1="350.500000" y1="139.000000" x2="353.500000" y2="140.000000"  transform="rotate(0.000000,353.500000,140.000000)" style="stroke: black; stroke-width:0.25;"/>
<line x1="350.500000" y1="141.000000" x2="353.500000" y2="140.000000"  transform="rotate(0.000000,353.500000,140.000000)" style="stroke: black; stroke-width:0.25;"/>
<rect x="386.500000" y="125.000000" width="24.000000" height="24.000000" rx="0" ry="0" style="stroke:none;fill:#cccccc;"/>
<rect x="385.500000" y="124.000000" width="24.000000" height="24.000000" rx="0" ry="0" style="stroke:none;fill:#4B71A1;"/>
<text x="397.500000" y="138.000000" font-family="Arial" font-size="7" text-anchor="middle" fill="#FFFFFF">tan</text>
<circle cx="387.500000" cy="126.000000" r="1"/>
<line x1="382.500000" y1="135.000000" x2="385.500000" y2="136.000000"  transform="rotate(0.000000,385.500000,136.000000)" style="stroke: black; stroke-width:0.25;"/>
<line x1="382.500000" y1="137.000000" x2="385.500000" y2="136.000000"  transform="rotate(0.000000,385.500000,136.000000)" style="stroke: black; stroke-width:0.25;"/>
<rect x="426.500000" y="109.000000" width="24.000000" height="24.000000" rx="0" ry="0" style="stroke:none;fill:#cccccc;"/>
<rect x="425.500000" y="108.000000" width="24.000000" height="24.000000" rx="0" ry="0" style="stroke:none;fill:#4B71A1;"/>
<text x="437.500000" y="122.000000" font-family="Arial" font-size="7" text-anchor="middle" fill="#FFFFFF">/</text>
<circle cx="427.500000" cy="110.000000" r="1"/>
<line x1="422.500000" y1="115.000000" x2="425.500000" y2="116.000000"  transform="rotate(0.000000,425.500000,116.000000)" style="stroke: black; stroke-width:0.25;"/>
<line x1="422.500000" y1="117.000000" x2="425.500000" y2="116.000000"  transform="rotate(0.000000,425.500000,116.000000)" style="stroke: black; stroke-width:0.25;"/>
<line x1="422.500000" y1="123.000000" x2="425.500000" y2="124.000000"  transform="rotate(0.000000,425.500000,124.000000)" style="stroke: black; stroke-width:0.25;"/>
<line x1="422.500000" y1="125.000000" x2="425.500000" y2="124.000000"  transform="rotate(0.000000,425.500000,124.000000)" style="stroke: black; stroke-width:0.25;"/>
<line x1="15.000000" y1="15.000000" x2="15.000000" y2="225.000000"  style="stroke: black; stroke-linecap:round; stroke-width:0.25; stroke-dasharray:3,3;"/>
<line x1="15.000000" y1="225.000000" x2="466.500000" y2="225.000000"  style="stroke: black; stroke-linecap:round; stroke-width:0.25; stroke-dasharray:3,3;"/>
<line x1="466.500000" y1="225.000000" x2="466.500000" y2="15.000000"  style="stroke: black; stroke-linecap:round; stroke-width:0.25; stroke-dasharray:3,3;"/>
<line x1="15.000000" y1="15.000000" x2="20.000000" y2="15.000000"  style="stroke: black; stroke-linecap:round; stroke-width:0.25; stroke-dasharray:3,3;"/>
<line x1="29.675000" y1="15.000000" x2="466.500000" y2="15.000000"  style="stroke: black; stroke-linecap:round; stroke-width:0.25; stroke-dasharray:3,3;"/>
<text x="20.000000" y="17.000000" font-family="Arial" font-size="7">c</text>
<line x1="468.500000" y1="119.000000" x2="471.500000" y2="120.000000"  transform="rotate(0.000000,471.500000,120.000000)" style="stroke: black; stroke-width:0.25;"/>
<line x1="468.500000" y1="121.000000" x2="471.500000" y2="120.000000"  transform="rotate(0.000000,471.500000,120.000000)" style="stroke: black; stroke-width:0.25;"/>
<line x1="160.100000" y1="68.000000" x2="164.100000" y2="68.000000"  style="stroke:black; stroke-linecap:round; stroke-width:0.25;"/>
<line x1="164.100000" y1="68.000000" x2="261.500000" y2="68.000000"  style="stroke:black; stroke-linecap:round; stroke-width:0.25;"/>
<line x1="172.750000" y1="172.000000" x2="176.750000" y2="172.000000"  style="stroke:black; stroke-linecap:round; stroke-width:0.25;"/>
<line x1="176.750000" y1="172.000000" x2="301.500000" y2="172.000000"  style="stroke:black; stroke-linecap:round; stroke-width:0.25;"/>
<line x1="192.750000" y1="204.000000" x2="196.750000" y2="204.000000"  style="stroke:black; stroke-linecap:round; stroke-width:0.25;"/>
<line x1="196.750000" y1="204.000000" x2="341.500000" y2="204.000000"  style="stroke:black; stroke-linecap:round; stroke-width:0.25;"/>
<line x1="228.750000" y1="36.000000" x2="232.750000" y2="36.000000"  style="stroke:black; stroke-linecap:round; stroke-width:0.25;"/>
<line x1="232.750000" y1="36.000000" x2="413.500000" y2="36.000000"  style="stroke:black; stroke-linecap:round; stroke-width:0.25;"/>
<line x1="237.500000" y1="120.000000" x2="241.500000" y2="120.000000"  style="stroke:black; stroke-linecap:round; stroke-width:0.25;"/>
<line x1="241.500000" y1="120.000000" x2="251.500000" y2="120.000000"  style="stroke:black; stroke-linecap:round; stroke-width:0.25;"/>
<line x1="251.500000" y1="120.000000" x2="261.500000" y2="120.000000"  style="stroke:black; stroke-linecap:round; stroke-width:0.25;"/>
<line x1="261.500000" y1="68.000000" x2="269.500000" y2="68.000000"  style="stroke:black; stroke-linecap:round; stroke-width:0.25;"/>
<line x1="261.500000" y1="108.000000" x2="269.500000" y2="108.000000"  style="stroke:black; stroke-linecap:round; stroke-width:0.25;"/>
<line x1="261.500000" y1="120.000000" x2="261.500000" y2="108.000000"  style="stroke:black; stroke-linecap:round; stroke-width:0.25;"/>
<line x1="261.500000" y1="120.000000" x2="261.500000" y2="120.000000"  style="stroke:black; stroke-linecap:round; stroke-width:0.25;"/>
<line x1="269.500000" y1="68.000000" x2="269.500000" y2="100.000000"  style="stroke:black; stroke-linecap:round; stroke-width:0.25;"/>
<line x1="269.500000" y1="100.000000" x2="269.500000" y2="100.000000"  style="stroke:black; stroke-linecap:round; stroke-width:0.25;"/>
<line x1="269.500000" y1="100.000000" x2="273.500000" y2="100.000000"  style="stroke:black; stroke-linecap:round; stroke-width:0.25;"/>
<line x1="269.500000" y1="108.000000" x2="273.500000" y2="108.000000"  style="stroke:black; stroke-linecap:round; stroke-width:0.25;"/>
<line x1="297.500000" y1="104.000000" x2="301.500000" y2="104.000000"  style="stroke:black; stroke-linecap:round; stroke-width:0.25;"/>
<line x1="301.500000" y1="104.000000" x2="309.500000" y2="104.000000"  style="stroke:black; stroke-linecap:round; stroke-width:0.25;"/>
<line x1="301.500000" y1="124.000000" x2="309.500000" y2="124.000000"  style="stroke:black; stroke-linecap:round; stroke-width:0.25;"/>
<line x1="301.500000" y1="172.000000" x2="301.500000" y2="124.000000"  style="stroke:black; stroke-linecap:round; stroke-width:0.25;"/>
<line x1="301.500000" y1="172.000000" x2="301.500000" y2="172.000000"  style="stroke:black; stroke-linecap:round; stroke-width:0.25;"/>
<line x1="309.500000" y1="104.000000" x2="309.500000" y2="116.000000"  style="stroke:black; stroke-linecap:round; stroke-width:0.25;"/>
<line x1="309.500000" y1="116.000000" x2="309.500000" y2="116.000000"  style="stroke:black; stroke-linecap:round; stroke-width:0.25;"/>
<line x1="309.500000" y1="116.000000" x2="313.500000" y2="116.000000"  style="stroke:black; stroke-linecap:round; stroke-width:0.25;"/>
<line x1="309.500000" y1="124.000000" x2="313.500000" y2="124.000000"  style="stroke:black; stroke-linecap:round; stroke-width:0.25;"/>
<line x1="337.500000" y1="120.000000" x2="341.500000" y2="120.000000"  style="stroke:black; stroke-linecap:round; stroke-width:0.25;"/>
<line x1="341.500000" y1="120.000000" x2="349.500000" y2="120.000000"  style="stroke:black; stroke-linecap:round; stroke-width:0.25;"/>
<line x1="341.500000" y1="140.000000" x2="349.500000" y2="140.000000"  style="stroke:black; stroke-linecap:round; stroke-width:0.25;"/>
<line x1="341.500000" y1="204.000000" x2="341.500000" y2="140.000000"  style="stroke:black; stroke-linecap:round; stroke-width:0.25;"/>
<line x1="341.500000" y1="204.000000" x2="341.500000" y2="204.000000"  style="stroke:black; stroke-linecap:round; stroke-width:0.25;"/>
<line x1="349.500000" y1="120.000000" x2="349.500000" y2="132.000000"  style="stroke:black; stroke-linecap:round; stroke-width:0.25;"/>
<line x1="349.500000" y1="132.000000" x2="349.500000" y2="132.000000"  style="stroke:black; stroke-linecap:round; stroke-width:0.25;"/>
<line x1="349.500000" y1="132.000000" x2="353.500000" y2="132.000000"  style="stroke:black; stroke-linecap:round; stroke-width:0.25;"/>
<line x1="349.500000" y1="140.000000" x2="353.500000" y2="140.000000"  style="stroke:black; stroke-linecap:round; stroke-width:0.25;"/>
<line x1="377.500000" y1="136.000000" x2="381.500000" y2="136.000000"  style="stroke:black; stroke-linecap:round; stroke-width:0.25;"/>
<line x1="381.500000" y1="136.000000" x2="381.500000" y2="136.000000"  style="stroke:black; stroke-linecap:round; stroke-width:0.25;"/>
<line x1="381.500000" y1="136.000000" x2="385.500000" y2="136.000000"  style="stroke:black; stroke-linecap:round; stroke-width:0.25;"/>
<line x1="409.500000" y1="136.000000" x2="413.500000" y2="136.000000"  style="stroke:black; stroke-linecap:round; stroke-width:0.25;"/>
<line x1="413.500000" y1="36.000000" x2="421.500000" y2="36.000000"  style="stroke:black; stroke-linecap:round; stroke-width:0.25;"/>
<line x1="413.500000" y1="124.000000" x2="421.500000" y2="124.000000"  style="stroke:black; stroke-linecap:round; stroke-width:0.25;"/>
<line x1="413.500000" y1="136.000000" x2="413.500000" y2="124.000000"  style="stroke:black; stroke-linecap:round; stroke-width:0.25;"/>
<line x1="413.500000" y1="136.000000" x2="413.500000" y2="136.000000"  style="stroke:black; stroke-linecap:round; stroke-width:0.25;"/>
<line x1="421.500000" y1="36.000000" x2="421.500000" y2="116.000000"  style="stroke:black; stroke-linecap:round; stroke-width:0.25;"/>
<line x1="421.500000" y1="116.000000" x2="421.500000" y2="116.000000"  style="stroke:black; stroke-linecap:round; stroke-width:0.25;"/>
<line x1="421.500000" y1="116.000000" x2="425.500000" y2="116.000000"  style="stroke:black; stroke-linecap:round; stroke-width:0.25;"/>
<line x1="421.500000" y1="124.000000" x2="425.500000" y2="124.000000"  style="stroke:black; stroke-linecap:round; stroke-width:0.25;"/>
<line x1="449.500000" y1="120.000000" x2="453.500000" y2="120.000000"  style="stroke:black; stroke-linecap:round; stroke-width:0.25;"/>
<line x1="453.500000" y1="120.000000" x2="453.500000" y2="120.000000"  style="stroke:black; stroke-linecap:round; stroke-width:0.25;"/>
<line x1="453.500000" y1="120.000000" x2="457.500000" y2="120.000000"  style="stroke:black; stroke-linecap:round; stroke-width:0.25;"/>
<line x1="457.500000" y1="120.000000" x2="461.500000" y2="120.000000"  style="stroke:black; stroke-linecap:round; stroke-width:0.25;"/>
<line x1="461.500000" y1="120.000000" x2="471.500000" y2="120.000000"  style="stroke:black; stroke-linecap:round; stroke-width:0.25;"/>
</svg>
