<?xml version="1.0"?>
<svg xmlns="http://www.w3.org/2000/svg" xmlns:xlink="http://www.w3.org/1999/xlink" viewBox="0 0 378.900000 92.000000" width="189.450000mm" height="46.000000mm" version="1.1">
<a xlink:href="tunedLength-0x7ff8b9ce2040.svg">
<rect x="1.000000" y="1.000000" width="377.900000" height="91.000000" rx="0" ry="0" style="stroke:none;fill:#cccccc;"/>
<rect x="0.000000" y="0.000000" width="377.900000" height="91.000000" rx="0" ry="0" style="stroke:none;fill:#ffffff;"/>
</a>
<text x="10.000000" y="7.000000" font-family="Arial" font-size="7"></text>
<rect x="35.000000" y="35.000000" width="270.900000" height="24.000000" rx="0" ry="0" style="stroke:none;fill:#cccccc;"/>
<rect x="34.000000" y="34.000000" width="270.900000" height="24.000000" rx="0" ry="0" style="stroke:none;fill:#477881;"/>
<text x="169.450000" y="48.000000" font-family="Arial" font-size="7" text-anchor="middle" fill="#FFFFFF">hslider(v:marimba/h:midi/freq, 440.0f, 50.0f, 1000.0f, 0.01f)</text>
<circle cx="36.000000" cy="36.000000" r="1"/>
<line x1="25.000000" y1="25.000000" x2="25.000000" y2="67.000000"  style="stroke: black; stroke-linecap:round; stroke-width:0.25; stroke-dasharray:3,3;"/>
<line x1="25.000000" y1="67.000000" x2="313.900000" y2="67.000000"  style="stroke: black; stroke-linecap:round; stroke-width:0.25; stroke-dasharray:3,3;"/>
<line x1="313.900000" y1="67.000000" x2="313.900000" y2="25.000000"  style="stroke: black; stroke-linecap:round; stroke-width:0.25; stroke-dasharray:3,3;"/>
<line x1="25.000000" y1="25.000000" x2="30.000000" y2="25.000000"  style="stroke: black; stroke-linecap:round; stroke-width:0.25; stroke-dasharray:3,3;"/>
<line x1="49.350000" y1="25.000000" x2="313.900000" y2="25.000000"  style="stroke: black; stroke-linecap:round; stroke-width:0.25; stroke-dasharray:3,3;"/>
<text x="30.000000" y="27.000000" font-family="Arial" font-size="7">freq</text>
<a xlink:href="f2l-0x7ff8b9ce1d50.svg">
<rect x="323.900000" y="35.000000" width="24.000000" height="24.000000" rx="0" ry="0" style="stroke:none;fill:#cccccc;"/>
<rect x="322.900000" y="34.000000" width="24.000000" height="24.000000" rx="0" ry="0" style="stroke:none;fill:#003366;"/>
</a>
<a xlink:href="f2l-0x7ff8b9ce1d50.svg">
<text x="334.900000" y="48.000000" font-family="Arial" font-size="7" text-anchor="middle" fill="#FFFFFF">f2l</text>
</a>
<circle cx="324.900000" cy="36.000000" r="1"/>
<line x1="319.900000" y1="45.000000" x2="322.900000" y2="46.000000"  transform="rotate(0.000000,322.900000,46.000000)" style="stroke: black; stroke-width:0.25;"/>
<line x1="319.900000" y1="47.000000" x2="322.900000" y2="46.000000"  transform="rotate(0.000000,322.900000,46.000000)" style="stroke: black; stroke-width:0.25;"/>
<line x1="15.000000" y1="15.000000" x2="15.000000" y2="77.000000"  style="stroke: black; stroke-linecap:round; stroke-width:0.25; stroke-dasharray:3,3;"/>
<line x1="15.000000" y1="77.000000" x2="363.900000" y2="77.000000"  style="stroke: black; stroke-linecap:round; stroke-width:0.25; stroke-dasharray:3,3;"/>
<line x1="363.900000" y1="77.000000" x2="363.900000" y2="15.000000"  style="stroke: black; stroke-linecap:round; stroke-width:0.25; stroke-dasharray:3,3;"/>
<line x1="15.000000" y1="15.000000" x2="20.000000" y2="15.000000"  style="stroke: black; stroke-linecap:round; stroke-width:0.25; stroke-dasharray:3,3;"/>
<line x1="68.375000" y1="15.000000" x2="363.900000" y2="15.000000"  style="stroke: black; stroke-linecap:round; stroke-width:0.25; stroke-dasharray:3,3;"/>
<text x="20.000000" y="17.000000" font-family="Arial" font-size="7">resTubeLength</text>
<line x1="365.900000" y1="45.000000" x2="368.900000" y2="46.000000"  transform="rotate(0.000000,368.900000,46.000000)" style="stroke: black; stroke-width:0.25;"/>
<line x1="365.900000" y1="47.000000" x2="368.900000" y2="46.000000"  transform="rotate(0.000000,368.900000,46.000000)" style="stroke: black; stroke-width:0.25;"/>
<line x1="304.900000" y1="46.000000" x2="308.900000" y2="46.000000"  style="stroke:black; stroke-linecap:round; stroke-width:0.25;"/>
<line x1="308.900000" y1="46.000000" x2="318.900000" y2="46.000000"  style="stroke:black; stroke-linecap:round; stroke-width:0.25;"/>
<line x1="318.900000" y1="46.000000" x2="318.900000" y2="46.000000"  style="stroke:black; stroke-linecap:round; stroke-width:0.25;"/>
<line x1="318.900000" y1="46.000000" x2="322.900000" y2="46.000000"  style="stroke:black; stroke-linecap:round; stroke-width:0.25;"/>
<line x1="346.900000" y1="46.000000" x2="350.900000" y2="46.000000"  style="stroke:black; stroke-linecap:round; stroke-width:0.25;"/>
<line x1="350.900000" y1="46.000000" x2="350.900000" y2="46.000000"  style="stroke:black; stroke-linecap:round; stroke-width:0.25;"/>
<line x1="350.900000" y1="46.000000" x2="354.900000" y2="46.000000"  style="stroke:black; stroke-linecap:round; stroke-width:0.25;"/>
<line x1="354.900000" y1="46.000000" x2="358.900000" y2="46.000000"  style="stroke:black; stroke-linecap:round; stroke-width:0.25;"/>
<line x1="358.900000" y1="46.000000" x2="368.900000" y2="46.000000"  style="stroke:black; stroke-linecap:round; stroke-width:0.25;"/>
</svg>
