<?xml version="1.0"?>
<svg xmlns="http://www.w3.org/2000/svg" xmlns:xlink="http://www.w3.org/1999/xlink" viewBox="0 0 612.400000 132.000000" width="306.200000mm" height="66.000000mm" version="1.1">
<a xlink:href="marimba-0x7fa2a89ebd70.svg">
<rect x="1.000000" y="1.000000" width="611.400000" height="131.000000" rx="0" ry="0" style="stroke:none;fill:#cccccc;"/>
<rect x="0.000000" y="0.000000" width="611.400000" height="131.000000" rx="0" ry="0" style="stroke:none;fill:#ffffff;"/>
</a>
<text x="10.000000" y="7.000000" font-family="Arial" font-size="7"></text>
<a xlink:href="noise-0x7fa2a4a1c920.svg">
<rect x="25.000000" y="55.000000" width="25.800000" height="24.000000" rx="0" ry="0" style="stroke:none;fill:#cccccc;"/>
<rect x="24.000000" y="54.000000" width="25.800000" height="24.000000" rx="0" ry="0" style="stroke:none;fill:#003366;"/>
</a>
<a xlink:href="noise-0x7fa2a4a1c920.svg">
<text x="36.900000" y="68.000000" font-family="Arial" font-size="7" text-anchor="middle" fill="#FFFFFF">noise</text>
</a>
<circle cx="26.000000" cy="56.000000" r="1"/>
<a xlink:href="highpass-0x7fa2a6f9b0c0.svg">
<rect x="58.800000" y="55.000000" width="64.500000" height="24.000000" rx="0" ry="0" style="stroke:none;fill:#cccccc;"/>
<rect x="57.800000" y="54.000000" width="64.500000" height="24.000000" rx="0" ry="0" style="stroke:none;fill:#003366;"/>
</a>
<a xlink:href="highpass-0x7fa2a6f9b0c0.svg">
<text x="90.050000" y="68.000000" font-family="Arial" font-size="7" text-anchor="middle" fill="#FFFFFF">highpass(2)(10)</text>
</a>
<circle cx="59.800000" cy="56.000000" r="1"/>
<line x1="54.800000" y1="65.000000" x2="57.800000" y2="66.000000"  transform="rotate(0.000000,57.800000,66.000000)" style="stroke: black; stroke-width:0.25;"/>
<line x1="54.800000" y1="67.000000" x2="57.800000" y2="66.000000"  transform="rotate(0.000000,57.800000,66.000000)" style="stroke: black; stroke-width:0.25;"/>
<a xlink:href="lowpass-0x7fa2a6f9b7c0.svg">
<rect x="131.300000" y="55.000000" width="129.000000" height="24.000000" rx="0" ry="0" style="stroke:none;fill:#cccccc;"/>
<rect x="130.300000" y="54.000000" width="129.000000" height="24.000000" rx="0" ry="0" style="stroke:none;fill:#003366;"/>
</a>
<a xlink:href="lowpass-0x7fa2a6f9b7c0.svg">
<text x="194.800000" y="68.000000" font-family="Arial" font-size="7" text-anchor="middle" fill="#FFFFFF">lowpass(2)(hs...00.0f, 1.0f))</text>
</a>
<circle cx="132.300000" cy="56.000000" r="1"/>
<line x1="127.300000" y1="65.000000" x2="130.300000" y2="66.000000"  transform="rotate(0.000000,130.300000,66.000000)" style="stroke: black; stroke-width:0.25;"/>
<line x1="127.300000" y1="67.000000" x2="130.300000" y2="66.000000"  transform="rotate(0.000000,130.300000,66.000000)" style="stroke: black; stroke-width:0.25;"/>
<a xlink:href="ar-0x7fa2a4e28190.svg">
<rect x="324.350000" y="33.000000" width="129.000000" height="24.000000" rx="0" ry="0" style="stroke:none;fill:#cccccc;"/>
<rect x="323.350000" y="32.000000" width="129.000000" height="24.000000" rx="0" ry="0" style="stroke:none;fill:#003366;"/>
</a>
<a xlink:href="ar-0x7fa2a4e28190.svg">
<text x="387.850000" y="46.000000" font-family="Arial" font-size="7" text-anchor="middle" fill="#FFFFFF">ar(0.002f,hsl...ba/[3]gate&quot;))</text>
</a>
<circle cx="325.350000" cy="34.000000" r="1"/>
<rect x="469.350000" y="29.000000" width="24.000000" height="24.000000" rx="0" ry="0" style="stroke:none;fill:#cccccc;"/>
<rect x="468.350000" y="28.000000" width="24.000000" height="24.000000" rx="0" ry="0" style="stroke:none;fill:#4B71A1;"/>
<text x="480.350000" y="42.000000" font-family="Arial" font-size="7" text-anchor="middle" fill="#FFFFFF">*</text>
<circle cx="470.350000" cy="30.000000" r="1"/>
<line x1="465.350000" y1="35.000000" x2="468.350000" y2="36.000000"  transform="rotate(0.000000,468.350000,36.000000)" style="stroke: black; stroke-width:0.25;"/>
<line x1="465.350000" y1="37.000000" x2="468.350000" y2="36.000000"  transform="rotate(0.000000,468.350000,36.000000)" style="stroke: black; stroke-width:0.25;"/>
<line x1="465.350000" y1="43.000000" x2="468.350000" y2="44.000000"  transform="rotate(0.000000,468.350000,44.000000)" style="stroke: black; stroke-width:0.25;"/>
<line x1="465.350000" y1="45.000000" x2="468.350000" y2="44.000000"  transform="rotate(0.000000,468.350000,44.000000)" style="stroke: black; stroke-width:0.25;"/>
<rect x="286.300000" y="75.000000" width="245.100000" height="24.000000" rx="0" ry="0" style="stroke:none;fill:#cccccc;"/>
<rect x="285.300000" y="74.000000" width="245.100000" height="24.000000" rx="0" ry="0" style="stroke:none;fill:#477881;"/>
<text x="407.850000" y="88.000000" font-family="Arial" font-size="7" text-anchor="middle" fill="#FFFFFF">hslider(v:marimba/h:midi/gain, 1.0f, 0.0f, 1.0f, 0.01f)</text>
<circle cx="287.300000" cy="76.000000" r="1"/>
<line x1="276.300000" y1="65.000000" x2="276.300000" y2="107.000000"  style="stroke: black; stroke-linecap:round; stroke-width:0.25; stroke-dasharray:3,3;"/>
<line x1="276.300000" y1="107.000000" x2="539.400000" y2="107.000000"  style="stroke: black; stroke-linecap:round; stroke-width:0.25; stroke-dasharray:3,3;"/>
<line x1="539.400000" y1="107.000000" x2="539.400000" y2="65.000000"  style="stroke: black; stroke-linecap:round; stroke-width:0.25; stroke-dasharray:3,3;"/>
<line x1="276.300000" y1="65.000000" x2="281.300000" y2="65.000000"  style="stroke: black; stroke-linecap:round; stroke-width:0.25; stroke-dasharray:3,3;"/>
<line x1="300.650000" y1="65.000000" x2="539.400000" y2="65.000000"  style="stroke: black; stroke-linecap:round; stroke-width:0.25; stroke-dasharray:3,3;"/>
<text x="281.300000" y="67.000000" font-family="Arial" font-size="7">gain</text>
<rect x="557.400000" y="55.000000" width="24.000000" height="24.000000" rx="0" ry="0" style="stroke:none;fill:#cccccc;"/>
<rect x="556.400000" y="54.000000" width="24.000000" height="24.000000" rx="0" ry="0" style="stroke:none;fill:#4B71A1;"/>
<text x="568.400000" y="68.000000" font-family="Arial" font-size="7" text-anchor="middle" fill="#FFFFFF">*</text>
<circle cx="558.400000" cy="56.000000" r="1"/>
<line x1="553.400000" y1="61.000000" x2="556.400000" y2="62.000000"  transform="rotate(0.000000,556.400000,62.000000)" style="stroke: black; stroke-width:0.25;"/>
<line x1="553.400000" y1="63.000000" x2="556.400000" y2="62.000000"  transform="rotate(0.000000,556.400000,62.000000)" style="stroke: black; stroke-width:0.25;"/>
<line x1="553.400000" y1="69.000000" x2="556.400000" y2="70.000000"  transform="rotate(0.000000,556.400000,70.000000)" style="stroke: black; stroke-width:0.25;"/>
<line x1="553.400000" y1="71.000000" x2="556.400000" y2="70.000000"  transform="rotate(0.000000,556.400000,70.000000)" style="stroke: black; stroke-width:0.25;"/>
<line x1="15.000000" y1="15.000000" x2="15.000000" y2="117.000000"  style="stroke: black; stroke-linecap:round; stroke-width:0.25; stroke-dasharray:3,3;"/>
<line x1="15.000000" y1="117.000000" x2="597.400000" y2="117.000000"  style="stroke: black; stroke-linecap:round; stroke-width:0.25; stroke-dasharray:3,3;"/>
<line x1="597.400000" y1="117.000000" x2="597.400000" y2="15.000000"  style="stroke: black; stroke-linecap:round; stroke-width:0.25; stroke-dasharray:3,3;"/>
<line x1="15.000000" y1="15.000000" x2="20.000000" y2="15.000000"  style="stroke: black; stroke-linecap:round; stroke-width:0.25; stroke-dasharray:3,3;"/>
<line x1="119.975000" y1="15.000000" x2="597.400000" y2="15.000000"  style="stroke: black; stroke-linecap:round; stroke-width:0.25; stroke-dasharray:3,3;"/>
<text x="20.000000" y="17.000000" font-family="Arial" font-size="7">strikeModel(1...ba/[3]gate&quot;))</text>
<line x1="599.400000" y1="65.000000" x2="602.400000" y2="66.000000"  transform="rotate(0.000000,602.400000,66.000000)" style="stroke: black; stroke-width:0.25;"/>
<line x1="599.400000" y1="67.000000" x2="602.400000" y2="66.000000"  transform="rotate(0.000000,602.400000,66.000000)" style="stroke: black; stroke-width:0.25;"/>
<line x1="49.800000" y1="66.000000" x2="53.800000" y2="66.000000"  style="stroke:black; stroke-linecap:round; stroke-width:0.25;"/>
<line x1="53.800000" y1="66.000000" x2="53.800000" y2="66.000000"  style="stroke:black; stroke-linecap:round; stroke-width:0.25;"/>
<line x1="53.800000" y1="66.000000" x2="57.800000" y2="66.000000"  style="stroke:black; stroke-linecap:round; stroke-width:0.25;"/>
<line x1="122.300000" y1="66.000000" x2="126.300000" y2="66.000000"  style="stroke:black; stroke-linecap:round; stroke-width:0.25;"/>
<line x1="126.300000" y1="66.000000" x2="126.300000" y2="66.000000"  style="stroke:black; stroke-linecap:round; stroke-width:0.25;"/>
<line x1="126.300000" y1="66.000000" x2="130.300000" y2="66.000000"  style="stroke:black; stroke-linecap:round; stroke-width:0.25;"/>
<line x1="259.300000" y1="66.000000" x2="263.300000" y2="66.000000"  style="stroke:black; stroke-linecap:round; stroke-width:0.25;"/>
<line x1="263.300000" y1="24.000000" x2="271.300000" y2="24.000000"  style="stroke:black; stroke-linecap:round; stroke-width:0.25;"/>
<line x1="263.300000" y1="66.000000" x2="263.300000" y2="24.000000"  style="stroke:black; stroke-linecap:round; stroke-width:0.25;"/>
<line x1="263.300000" y1="66.000000" x2="263.300000" y2="66.000000"  style="stroke:black; stroke-linecap:round; stroke-width:0.25;"/>
<line x1="271.300000" y1="24.000000" x2="319.350000" y2="24.000000"  style="stroke:black; stroke-linecap:round; stroke-width:0.25;"/>
<line x1="319.350000" y1="24.000000" x2="387.850000" y2="24.000000"  style="stroke:black; stroke-linecap:round; stroke-width:0.25;"/>
<line x1="387.850000" y1="24.000000" x2="456.350000" y2="24.000000"  style="stroke:black; stroke-linecap:round; stroke-width:0.25;"/>
<line x1="452.350000" y1="44.000000" x2="456.350000" y2="44.000000"  style="stroke:black; stroke-linecap:round; stroke-width:0.25;"/>
<line x1="456.350000" y1="24.000000" x2="464.350000" y2="24.000000"  style="stroke:black; stroke-linecap:round; stroke-width:0.25;"/>
<line x1="456.350000" y1="44.000000" x2="464.350000" y2="44.000000"  style="stroke:black; stroke-linecap:round; stroke-width:0.25;"/>
<line x1="464.350000" y1="24.000000" x2="464.350000" y2="36.000000"  style="stroke:black; stroke-linecap:round; stroke-width:0.25;"/>
<line x1="464.350000" y1="36.000000" x2="464.350000" y2="36.000000"  style="stroke:black; stroke-linecap:round; stroke-width:0.25;"/>
<line x1="464.350000" y1="36.000000" x2="468.350000" y2="36.000000"  style="stroke:black; stroke-linecap:round; stroke-width:0.25;"/>
<line x1="464.350000" y1="44.000000" x2="468.350000" y2="44.000000"  style="stroke:black; stroke-linecap:round; stroke-width:0.25;"/>
<line x1="492.350000" y1="40.000000" x2="496.350000" y2="40.000000"  style="stroke:black; stroke-linecap:round; stroke-width:0.25;"/>
<line x1="496.350000" y1="40.000000" x2="544.400000" y2="40.000000"  style="stroke:black; stroke-linecap:round; stroke-width:0.25;"/>
<line x1="530.400000" y1="86.000000" x2="534.400000" y2="86.000000"  style="stroke:black; stroke-linecap:round; stroke-width:0.25;"/>
<line x1="534.400000" y1="86.000000" x2="544.400000" y2="86.000000"  style="stroke:black; stroke-linecap:round; stroke-width:0.25;"/>
<line x1="544.400000" y1="70.000000" x2="552.400000" y2="70.000000"  style="stroke:black; stroke-linecap:round; stroke-width:0.25;"/>
<line x1="544.400000" y1="86.000000" x2="544.400000" y2="70.000000"  style="stroke:black; stroke-linecap:round; stroke-width:0.25;"/>
<line x1="544.400000" y1="86.000000" x2="544.400000" y2="86.000000"  style="stroke:black; stroke-linecap:round; stroke-width:0.25;"/>
<line x1="544.400000" y1="40.000000" x2="552.400000" y2="40.000000"  style="stroke:black; stroke-linecap:round; stroke-width:0.25;"/>
<line x1="552.400000" y1="40.000000" x2="552.400000" y2="62.000000"  style="stroke:black; stroke-linecap:round; stroke-width:0.25;"/>
<line x1="552.400000" y1="62.000000" x2="552.400000" y2="62.000000"  style="stroke:black; stroke-linecap:round; stroke-width:0.25;"/>
<line x1="552.400000" y1="62.000000" x2="556.400000" y2="62.000000"  style="stroke:black; stroke-linecap:round; stroke-width:0.25;"/>
<line x1="552.400000" y1="70.000000" x2="556.400000" y2="70.000000"  style="stroke:black; stroke-linecap:round; stroke-width:0.25;"/>
<line x1="580.400000" y1="66.000000" x2="584.400000" y2="66.000000"  style="stroke:black; stroke-linecap:round; stroke-width:0.25;"/>
<line x1="584.400000" y1="66.000000" x2="588.400000" y2="66.000000"  style="stroke:black; stroke-linecap:round; stroke-width:0.25;"/>
<line x1="584.400000" y1="66.000000" x2="584.400000" y2="66.000000"  style="stroke:black; stroke-linecap:round; stroke-width:0.25;"/>
<line x1="588.400000" y1="66.000000" x2="592.400000" y2="66.000000"  style="stroke:black; stroke-linecap:round; stroke-width:0.25;"/>
<line x1="592.400000" y1="66.000000" x2="602.400000" y2="66.000000"  style="stroke:black; stroke-linecap:round; stroke-width:0.25;"/>
</svg>
