<?xml version="1.0"?>
<svg xmlns="http://www.w3.org/2000/svg" xmlns:xlink="http://www.w3.org/1999/xlink" viewBox="0 0 303.700000 136.000000" width="151.850000mm" height="68.000000mm" version="1.1">
<rect x="1.000000" y="1.000000" width="302.700000" height="135.000000" rx="0" ry="0" style="stroke:none;fill:#cccccc;"/>
<rect x="0.000000" y="0.000000" width="302.700000" height="135.000000" rx="0" ry="0" style="stroke:none;fill:#ffffff;"/>
<text x="10.000000" y="7.000000" font-family="Arial" font-size="7"></text>
<a xlink:href="timbre-0x7f20140e56c0.svg">
<rect x="44.350000" y="25.000000" width="129.000000" height="24.000000" rx="0" ry="0" style="stroke:none;fill:#cccccc;"/>
<rect x="43.350000" y="24.000000" width="129.000000" height="24.000000" rx="0" ry="0" style="stroke:none;fill:#003366;"/>
</a>
<a xlink:href="timbre-0x7f20140e56c0.svg">
<text x="107.850000" y="38.000000" font-family="Arial" font-size="7" text-anchor="middle" fill="#FFFFFF">timbre(hslide...e+04f, 1.0f))</text>
</a>
<circle cx="45.350000" cy="26.000000" r="1"/>
<rect x="25.000000" y="57.000000" width="167.700000" height="24.000000" rx="0" ry="0" style="stroke:none;fill:#cccccc;"/>
<rect x="24.000000" y="56.000000" width="167.700000" height="24.000000" rx="0" ry="0" style="stroke:none;fill:#477881;"/>
<text x="107.850000" y="70.000000" font-family="Arial" font-size="7" text-anchor="middle" fill="#FFFFFF">hslider(gain, 0.5f, 0.0f, 1.0f, 0.01f)</text>
<circle cx="26.000000" cy="58.000000" r="1"/>
<rect x="208.700000" y="41.000000" width="24.000000" height="24.000000" rx="0" ry="0" style="stroke:none;fill:#cccccc;"/>
<rect x="207.700000" y="40.000000" width="24.000000" height="24.000000" rx="0" ry="0" style="stroke:none;fill:#4B71A1;"/>
<text x="219.700000" y="54.000000" font-family="Arial" font-size="7" text-anchor="middle" fill="#FFFFFF">*</text>
<circle cx="209.700000" cy="42.000000" r="1"/>
<line x1="204.700000" y1="47.000000" x2="207.700000" y2="48.000000"  transform="rotate(0.000000,207.700000,48.000000)" style="stroke: black; stroke-width:0.25;"/>
<line x1="204.700000" y1="49.000000" x2="207.700000" y2="48.000000"  transform="rotate(0.000000,207.700000,48.000000)" style="stroke: black; stroke-width:0.25;"/>
<line x1="204.700000" y1="55.000000" x2="207.700000" y2="56.000000"  transform="rotate(0.000000,207.700000,56.000000)" style="stroke: black; stroke-width:0.25;"/>
<line x1="204.700000" y1="57.000000" x2="207.700000" y2="56.000000"  transform="rotate(0.000000,207.700000,56.000000)" style="stroke: black; stroke-width:0.25;"/>
<rect x="34.550000" y="89.000000" width="51.600000" height="24.000000" rx="0" ry="0" style="stroke:none;fill:#cccccc;"/>
<rect x="33.550000" y="88.000000" width="51.600000" height="24.000000" rx="0" ry="0" style="stroke:none;fill:#477881;"/>
<text x="59.350000" y="102.000000" font-family="Arial" font-size="7" text-anchor="middle" fill="#FFFFFF">button(gate)</text>
<circle cx="35.550000" cy="90.000000" r="1"/>
<a xlink:href="adsr-0x7f2014104130.svg">
<rect x="94.150000" y="89.000000" width="129.000000" height="24.000000" rx="0" ry="0" style="stroke:none;fill:#cccccc;"/>
<rect x="93.150000" y="88.000000" width="129.000000" height="24.000000" rx="0" ry="0" style="stroke:none;fill:#003366;"/>
</a>
<a xlink:href="adsr-0x7f2014104130.svg">
<text x="157.650000" y="102.000000" font-family="Arial" font-size="7" text-anchor="middle" fill="#FFFFFF">adsr(0.1f)(0.1f)(0.98f)(0.1f)</text>
</a>
<circle cx="95.150000" cy="90.000000" r="1"/>
<line x1="90.150000" y1="99.000000" x2="93.150000" y2="100.000000"  transform="rotate(0.000000,93.150000,100.000000)" style="stroke: black; stroke-width:0.25;"/>
<line x1="90.150000" y1="101.000000" x2="93.150000" y2="100.000000"  transform="rotate(0.000000,93.150000,100.000000)" style="stroke: black; stroke-width:0.25;"/>
<rect x="248.700000" y="57.000000" width="24.000000" height="24.000000" rx="0" ry="0" style="stroke:none;fill:#cccccc;"/>
<rect x="247.700000" y="56.000000" width="24.000000" height="24.000000" rx="0" ry="0" style="stroke:none;fill:#4B71A1;"/>
<text x="259.700000" y="70.000000" font-family="Arial" font-size="7" text-anchor="middle" fill="#FFFFFF">*</text>
<circle cx="249.700000" cy="58.000000" r="1"/>
<line x1="244.700000" y1="63.000000" x2="247.700000" y2="64.000000"  transform="rotate(0.000000,247.700000,64.000000)" style="stroke: black; stroke-width:0.25;"/>
<line x1="244.700000" y1="65.000000" x2="247.700000" y2="64.000000"  transform="rotate(0.000000,247.700000,64.000000)" style="stroke: black; stroke-width:0.25;"/>
<line x1="244.700000" y1="71.000000" x2="247.700000" y2="72.000000"  transform="rotate(0.000000,247.700000,72.000000)" style="stroke: black; stroke-width:0.25;"/>
<line x1="244.700000" y1="73.000000" x2="247.700000" y2="72.000000"  transform="rotate(0.000000,247.700000,72.000000)" style="stroke: black; stroke-width:0.25;"/>
<line x1="15.000000" y1="15.000000" x2="15.000000" y2="121.000000"  style="stroke: black; stroke-linecap:round; stroke-width:0.25; stroke-dasharray:3,3;"/>
<line x1="15.000000" y1="121.000000" x2="288.700000" y2="121.000000"  style="stroke: black; stroke-linecap:round; stroke-width:0.25; stroke-dasharray:3,3;"/>
<line x1="288.700000" y1="121.000000" x2="288.700000" y2="15.000000"  style="stroke: black; stroke-linecap:round; stroke-width:0.25; stroke-dasharray:3,3;"/>
<line x1="15.000000" y1="15.000000" x2="20.000000" y2="15.000000"  style="stroke: black; stroke-linecap:round; stroke-width:0.25; stroke-dasharray:3,3;"/>
<line x1="49.025000" y1="15.000000" x2="288.700000" y2="15.000000"  style="stroke: black; stroke-linecap:round; stroke-width:0.25; stroke-dasharray:3,3;"/>
<text x="20.000000" y="17.000000" font-family="Arial" font-size="7">process</text>
<line x1="290.700000" y1="67.000000" x2="293.700000" y2="68.000000"  transform="rotate(0.000000,293.700000,68.000000)" style="stroke: black; stroke-width:0.25;"/>
<line x1="290.700000" y1="69.000000" x2="293.700000" y2="68.000000"  transform="rotate(0.000000,293.700000,68.000000)" style="stroke: black; stroke-width:0.25;"/>
<line x1="85.150000" y1="100.000000" x2="89.150000" y2="100.000000"  style="stroke:black; stroke-linecap:round; stroke-width:0.25;"/>
<line x1="89.150000" y1="100.000000" x2="89.150000" y2="100.000000"  style="stroke:black; stroke-linecap:round; stroke-width:0.25;"/>
<line x1="89.150000" y1="100.000000" x2="93.150000" y2="100.000000"  style="stroke:black; stroke-linecap:round; stroke-width:0.25;"/>
<line x1="172.350000" y1="36.000000" x2="176.350000" y2="36.000000"  style="stroke:black; stroke-linecap:round; stroke-width:0.25;"/>
<line x1="176.350000" y1="36.000000" x2="195.700000" y2="36.000000"  style="stroke:black; stroke-linecap:round; stroke-width:0.25;"/>
<line x1="191.700000" y1="68.000000" x2="195.700000" y2="68.000000"  style="stroke:black; stroke-linecap:round; stroke-width:0.25;"/>
<line x1="195.700000" y1="36.000000" x2="203.700000" y2="36.000000"  style="stroke:black; stroke-linecap:round; stroke-width:0.25;"/>
<line x1="195.700000" y1="56.000000" x2="203.700000" y2="56.000000"  style="stroke:black; stroke-linecap:round; stroke-width:0.25;"/>
<line x1="195.700000" y1="68.000000" x2="195.700000" y2="56.000000"  style="stroke:black; stroke-linecap:round; stroke-width:0.25;"/>
<line x1="195.700000" y1="68.000000" x2="195.700000" y2="68.000000"  style="stroke:black; stroke-linecap:round; stroke-width:0.25;"/>
<line x1="203.700000" y1="36.000000" x2="203.700000" y2="48.000000"  style="stroke:black; stroke-linecap:round; stroke-width:0.25;"/>
<line x1="203.700000" y1="48.000000" x2="203.700000" y2="48.000000"  style="stroke:black; stroke-linecap:round; stroke-width:0.25;"/>
<line x1="203.700000" y1="48.000000" x2="207.700000" y2="48.000000"  style="stroke:black; stroke-linecap:round; stroke-width:0.25;"/>
<line x1="203.700000" y1="56.000000" x2="207.700000" y2="56.000000"  style="stroke:black; stroke-linecap:round; stroke-width:0.25;"/>
<line x1="222.150000" y1="100.000000" x2="226.150000" y2="100.000000"  style="stroke:black; stroke-linecap:round; stroke-width:0.25;"/>
<line x1="226.150000" y1="100.000000" x2="235.700000" y2="100.000000"  style="stroke:black; stroke-linecap:round; stroke-width:0.25;"/>
<line x1="231.700000" y1="52.000000" x2="235.700000" y2="52.000000"  style="stroke:black; stroke-linecap:round; stroke-width:0.25;"/>
<line x1="235.700000" y1="52.000000" x2="243.700000" y2="52.000000"  style="stroke:black; stroke-linecap:round; stroke-width:0.25;"/>
<line x1="235.700000" y1="72.000000" x2="243.700000" y2="72.000000"  style="stroke:black; stroke-linecap:round; stroke-width:0.25;"/>
<line x1="235.700000" y1="100.000000" x2="235.700000" y2="72.000000"  style="stroke:black; stroke-linecap:round; stroke-width:0.25;"/>
<line x1="235.700000" y1="100.000000" x2="235.700000" y2="100.000000"  style="stroke:black; stroke-linecap:round; stroke-width:0.25;"/>
<line x1="243.700000" y1="52.000000" x2="243.700000" y2="64.000000"  style="stroke:black; stroke-linecap:round; stroke-width:0.25;"/>
<line x1="243.700000" y1="64.000000" x2="243.700000" y2="64.000000"  style="stroke:black; stroke-linecap:round; stroke-width:0.25;"/>
<line x1="243.700000" y1="64.000000" x2="247.700000" y2="64.000000"  style="stroke:black; stroke-linecap:round; stroke-width:0.25;"/>
<line x1="243.700000" y1="72.000000" x2="247.700000" y2="72.000000"  style="stroke:black; stroke-linecap:round; stroke-width:0.25;"/>
<line x1="271.700000" y1="68.000000" x2="275.700000" y2="68.000000"  style="stroke:black; stroke-linecap:round; stroke-width:0.25;"/>
<line x1="275.700000" y1="68.000000" x2="275.700000" y2="68.000000"  style="stroke:black; stroke-linecap:round; stroke-width:0.25;"/>
<line x1="275.700000" y1="68.000000" x2="279.700000" y2="68.000000"  style="stroke:black; stroke-linecap:round; stroke-width:0.25;"/>
<line x1="279.700000" y1="68.000000" x2="283.700000" y2="68.000000"  style="stroke:black; stroke-linecap:round; stroke-width:0.25;"/>
<line x1="283.700000" y1="68.000000" x2="293.700000" y2="68.000000"  style="stroke:black; stroke-linecap:round; stroke-width:0.25;"/>
</svg>
