<?xml version="1.0"?>
<svg xmlns="http://www.w3.org/2000/svg" xmlns:xlink="http://www.w3.org/1999/xlink" viewBox="0 0 654.300000 168.000000" width="327.150000mm" height="84.000000mm" version="1.1">
<a xlink:href="process.svg">
<rect x="1.000000" y="1.000000" width="653.300000" height="167.000000" rx="0" ry="0" style="stroke:none;fill:#cccccc;"/>
<rect x="0.000000" y="0.000000" width="653.300000" height="167.000000" rx="0" ry="0" style="stroke:none;fill:#ffffff;"/>
</a>
<text x="10.000000" y="7.000000" font-family="Arial" font-size="7"></text>
<a xlink:href="kb0k0status-0x7f8d95d2df50.svg">
<rect x="25.000000" y="25.000000" width="51.600000" height="24.000000" rx="0" ry="0" style="stroke:none;fill:#cccccc;"/>
<rect x="24.000000" y="24.000000" width="51.600000" height="24.000000" rx="0" ry="0" style="stroke:none;fill:#003366;"/>
</a>
<a xlink:href="kb0k0status-0x7f8d95d2df50.svg">
<text x="49.800000" y="38.000000" font-family="Arial" font-size="7" text-anchor="middle" fill="#FFFFFF">kb0k0status</text>
</a>
<circle cx="26.000000" cy="26.000000" r="1"/>
<a xlink:href="strikeModel-0x7f8d992852a0.svg">
<rect x="84.600000" y="25.000000" width="129.000000" height="24.000000" rx="0" ry="0" style="stroke:none;fill:#cccccc;"/>
<rect x="83.600000" y="24.000000" width="129.000000" height="24.000000" rx="0" ry="0" style="stroke:none;fill:#003366;"/>
</a>
<a xlink:href="strikeModel-0x7f8d992852a0.svg">
<text x="148.100000" y="38.000000" font-family="Arial" font-size="7" text-anchor="middle" fill="#FFFFFF">strikeModel(10)(6500)(0.5f)(1)</text>
</a>
<circle cx="85.600000" cy="26.000000" r="1"/>
<line x1="80.600000" y1="35.000000" x2="83.600000" y2="36.000000"  transform="rotate(0.000000,83.600000,36.000000)" style="stroke: black; stroke-width:0.25;"/>
<line x1="80.600000" y1="37.000000" x2="83.600000" y2="36.000000"  transform="rotate(0.000000,83.600000,36.000000)" style="stroke: black; stroke-width:0.25;"/>
<a xlink:href="englishBellMo-0x7f8d99289800.svg">
<rect x="221.600000" y="25.000000" width="167.700000" height="24.000000" rx="0" ry="0" style="stroke:none;fill:#cccccc;"/>
<rect x="220.600000" y="24.000000" width="167.700000" height="24.000000" rx="0" ry="0" style="stroke:none;fill:#003366;"/>
</a>
<a xlink:href="englishBellMo-0x7f8d99289800.svg">
<text x="304.450000" y="38.000000" font-family="Arial" font-size="7" text-anchor="middle" fill="#FFFFFF">englishBellMo...,6 : * : int)(30)(1)(3)</text>
</a>
<circle cx="222.600000" cy="26.000000" r="1"/>
<line x1="217.600000" y1="35.000000" x2="220.600000" y2="36.000000"  transform="rotate(0.000000,220.600000,36.000000)" style="stroke: black; stroke-width:0.25;"/>
<line x1="217.600000" y1="37.000000" x2="220.600000" y2="36.000000"  transform="rotate(0.000000,220.600000,36.000000)" style="stroke: black; stroke-width:0.25;"/>
<a xlink:href="kb0k1status-0x7f8d988d9f70.svg">
<rect x="25.000000" y="57.000000" width="51.600000" height="24.000000" rx="0" ry="0" style="stroke:none;fill:#cccccc;"/>
<rect x="24.000000" y="56.000000" width="51.600000" height="24.000000" rx="0" ry="0" style="stroke:none;fill:#003366;"/>
</a>
<a xlink:href="kb0k1status-0x7f8d988d9f70.svg">
<text x="49.800000" y="70.000000" font-family="Arial" font-size="7" text-anchor="middle" fill="#FFFFFF">kb0k1status</text>
</a>
<circle cx="26.000000" cy="58.000000" r="1"/>
<a xlink:href="strikeModel-0x7f8d992852a0.svg">
<rect x="84.600000" y="57.000000" width="129.000000" height="24.000000" rx="0" ry="0" style="stroke:none;fill:#cccccc;"/>
<rect x="83.600000" y="56.000000" width="129.000000" height="24.000000" rx="0" ry="0" style="stroke:none;fill:#003366;"/>
</a>
<a xlink:href="strikeModel-0x7f8d992852a0.svg">
<text x="148.100000" y="70.000000" font-family="Arial" font-size="7" text-anchor="middle" fill="#FFFFFF">strikeModel(10)(6500)(0.5f)(1)</text>
</a>
<circle cx="85.600000" cy="58.000000" r="1"/>
<line x1="80.600000" y1="67.000000" x2="83.600000" y2="68.000000"  transform="rotate(0.000000,83.600000,68.000000)" style="stroke: black; stroke-width:0.25;"/>
<line x1="80.600000" y1="69.000000" x2="83.600000" y2="68.000000"  transform="rotate(0.000000,83.600000,68.000000)" style="stroke: black; stroke-width:0.25;"/>
<a xlink:href="frenchBellMod-0x7f8d9928dd50.svg">
<rect x="221.600000" y="57.000000" width="167.700000" height="24.000000" rx="0" ry="0" style="stroke:none;fill:#cccccc;"/>
<rect x="220.600000" y="56.000000" width="167.700000" height="24.000000" rx="0" ry="0" style="stroke:none;fill:#003366;"/>
</a>
<a xlink:href="frenchBellMod-0x7f8d9928dd50.svg">
<text x="304.450000" y="70.000000" font-family="Arial" font-size="7" text-anchor="middle" fill="#FFFFFF">frenchBellMod...,6 : * : int)(30)(1)(3)</text>
</a>
<circle cx="222.600000" cy="58.000000" r="1"/>
<line x1="217.600000" y1="67.000000" x2="220.600000" y2="68.000000"  transform="rotate(0.000000,220.600000,68.000000)" style="stroke: black; stroke-width:0.25;"/>
<line x1="217.600000" y1="69.000000" x2="220.600000" y2="68.000000"  transform="rotate(0.000000,220.600000,68.000000)" style="stroke: black; stroke-width:0.25;"/>
<rect x="405.300000" y="41.000000" width="24.000000" height="24.000000" rx="0" ry="0" style="stroke:none;fill:#cccccc;"/>
<rect x="404.300000" y="40.000000" width="24.000000" height="24.000000" rx="0" ry="0" style="stroke:none;fill:#4B71A1;"/>
<text x="416.300000" y="54.000000" font-family="Arial" font-size="7" text-anchor="middle" fill="#FFFFFF">+</text>
<circle cx="406.300000" cy="42.000000" r="1"/>
<line x1="401.300000" y1="47.000000" x2="404.300000" y2="48.000000"  transform="rotate(0.000000,404.300000,48.000000)" style="stroke: black; stroke-width:0.25;"/>
<line x1="401.300000" y1="49.000000" x2="404.300000" y2="48.000000"  transform="rotate(0.000000,404.300000,48.000000)" style="stroke: black; stroke-width:0.25;"/>
<line x1="401.300000" y1="55.000000" x2="404.300000" y2="56.000000"  transform="rotate(0.000000,404.300000,56.000000)" style="stroke: black; stroke-width:0.25;"/>
<line x1="401.300000" y1="57.000000" x2="404.300000" y2="56.000000"  transform="rotate(0.000000,404.300000,56.000000)" style="stroke: black; stroke-width:0.25;"/>
<a xlink:href="kb1k0status-0x7f8d98be7d10.svg">
<rect x="64.350000" y="89.000000" width="51.600000" height="24.000000" rx="0" ry="0" style="stroke:none;fill:#cccccc;"/>
<rect x="63.350000" y="88.000000" width="51.600000" height="24.000000" rx="0" ry="0" style="stroke:none;fill:#003366;"/>
</a>
<a xlink:href="kb1k0status-0x7f8d98be7d10.svg">
<text x="89.150000" y="102.000000" font-family="Arial" font-size="7" text-anchor="middle" fill="#FFFFFF">kb1k0status</text>
</a>
<circle cx="65.350000" cy="90.000000" r="1"/>
<a xlink:href="strikeModel-0x7f8d992852a0.svg">
<rect x="123.950000" y="89.000000" width="129.000000" height="24.000000" rx="0" ry="0" style="stroke:none;fill:#cccccc;"/>
<rect x="122.950000" y="88.000000" width="129.000000" height="24.000000" rx="0" ry="0" style="stroke:none;fill:#003366;"/>
</a>
<a xlink:href="strikeModel-0x7f8d992852a0.svg">
<text x="187.450000" y="102.000000" font-family="Arial" font-size="7" text-anchor="middle" fill="#FFFFFF">strikeModel(10)(6500)(0.5f)(1)</text>
</a>
<circle cx="124.950000" cy="90.000000" r="1"/>
<line x1="119.950000" y1="99.000000" x2="122.950000" y2="100.000000"  transform="rotate(0.000000,122.950000,100.000000)" style="stroke: black; stroke-width:0.25;"/>
<line x1="119.950000" y1="101.000000" x2="122.950000" y2="100.000000"  transform="rotate(0.000000,122.950000,100.000000)" style="stroke: black; stroke-width:0.25;"/>
<a xlink:href="germanBellMod-0x7f8d99292460.svg">
<rect x="260.950000" y="89.000000" width="129.000000" height="24.000000" rx="0" ry="0" style="stroke:none;fill:#cccccc;"/>
<rect x="259.950000" y="88.000000" width="129.000000" height="24.000000" rx="0" ry="0" style="stroke:none;fill:#003366;"/>
</a>
<a xlink:href="germanBellMod-0x7f8d99292460.svg">
<text x="324.450000" y="102.000000" font-family="Arial" font-size="7" text-anchor="middle" fill="#FFFFFF">germanBellMod...(30)(1)(2.5f)</text>
</a>
<circle cx="261.950000" cy="90.000000" r="1"/>
<line x1="256.950000" y1="99.000000" x2="259.950000" y2="100.000000"  transform="rotate(0.000000,259.950000,100.000000)" style="stroke: black; stroke-width:0.25;"/>
<line x1="256.950000" y1="101.000000" x2="259.950000" y2="100.000000"  transform="rotate(0.000000,259.950000,100.000000)" style="stroke: black; stroke-width:0.25;"/>
<rect x="445.300000" y="57.000000" width="24.000000" height="24.000000" rx="0" ry="0" style="stroke:none;fill:#cccccc;"/>
<rect x="444.300000" y="56.000000" width="24.000000" height="24.000000" rx="0" ry="0" style="stroke:none;fill:#4B71A1;"/>
<text x="456.300000" y="70.000000" font-family="Arial" font-size="7" text-anchor="middle" fill="#FFFFFF">+</text>
<circle cx="446.300000" cy="58.000000" r="1"/>
<line x1="441.300000" y1="63.000000" x2="444.300000" y2="64.000000"  transform="rotate(0.000000,444.300000,64.000000)" style="stroke: black; stroke-width:0.25;"/>
<line x1="441.300000" y1="65.000000" x2="444.300000" y2="64.000000"  transform="rotate(0.000000,444.300000,64.000000)" style="stroke: black; stroke-width:0.25;"/>
<line x1="441.300000" y1="71.000000" x2="444.300000" y2="72.000000"  transform="rotate(0.000000,444.300000,72.000000)" style="stroke: black; stroke-width:0.25;"/>
<line x1="441.300000" y1="73.000000" x2="444.300000" y2="72.000000"  transform="rotate(0.000000,444.300000,72.000000)" style="stroke: black; stroke-width:0.25;"/>
<a xlink:href="kb1k1status-0x7f8d98f02d30.svg">
<rect x="65.000000" y="121.000000" width="51.600000" height="24.000000" rx="0" ry="0" style="stroke:none;fill:#cccccc;"/>
<rect x="64.000000" y="120.000000" width="51.600000" height="24.000000" rx="0" ry="0" style="stroke:none;fill:#003366;"/>
</a>
<a xlink:href="kb1k1status-0x7f8d98f02d30.svg">
<text x="89.800000" y="134.000000" font-family="Arial" font-size="7" text-anchor="middle" fill="#FFFFFF">kb1k1status</text>
</a>
<circle cx="66.000000" cy="122.000000" r="1"/>
<a xlink:href="strikeModel-0x7f8d992852a0.svg">
<rect x="124.600000" y="121.000000" width="129.000000" height="24.000000" rx="0" ry="0" style="stroke:none;fill:#cccccc;"/>
<rect x="123.600000" y="120.000000" width="129.000000" height="24.000000" rx="0" ry="0" style="stroke:none;fill:#003366;"/>
</a>
<a xlink:href="strikeModel-0x7f8d992852a0.svg">
<text x="188.100000" y="134.000000" font-family="Arial" font-size="7" text-anchor="middle" fill="#FFFFFF">strikeModel(10)(6500)(0.5f)(1)</text>
</a>
<circle cx="125.600000" cy="122.000000" r="1"/>
<line x1="120.600000" y1="131.000000" x2="123.600000" y2="132.000000"  transform="rotate(0.000000,123.600000,132.000000)" style="stroke: black; stroke-width:0.25;"/>
<line x1="120.600000" y1="133.000000" x2="123.600000" y2="132.000000"  transform="rotate(0.000000,123.600000,132.000000)" style="stroke: black; stroke-width:0.25;"/>
<a xlink:href="russianBellMo-0x7f8d99296b70.svg">
<rect x="261.600000" y="121.000000" width="167.700000" height="24.000000" rx="0" ry="0" style="stroke:none;fill:#cccccc;"/>
<rect x="260.600000" y="120.000000" width="167.700000" height="24.000000" rx="0" ry="0" style="stroke:none;fill:#003366;"/>
</a>
<a xlink:href="russianBellMo-0x7f8d99296b70.svg">
<text x="344.450000" y="134.000000" font-family="Arial" font-size="7" text-anchor="middle" fill="#FFFFFF">russianBellMo...,6 : * : int)(30)(1)(3)</text>
</a>
<circle cx="262.600000" cy="122.000000" r="1"/>
<line x1="257.600000" y1="131.000000" x2="260.600000" y2="132.000000"  transform="rotate(0.000000,260.600000,132.000000)" style="stroke: black; stroke-width:0.25;"/>
<line x1="257.600000" y1="133.000000" x2="260.600000" y2="132.000000"  transform="rotate(0.000000,260.600000,132.000000)" style="stroke: black; stroke-width:0.25;"/>
<rect x="485.300000" y="73.000000" width="24.000000" height="24.000000" rx="0" ry="0" style="stroke:none;fill:#cccccc;"/>
<rect x="484.300000" y="72.000000" width="24.000000" height="24.000000" rx="0" ry="0" style="stroke:none;fill:#4B71A1;"/>
<text x="496.300000" y="86.000000" font-family="Arial" font-size="7" text-anchor="middle" fill="#FFFFFF">+</text>
<circle cx="486.300000" cy="74.000000" r="1"/>
<line x1="481.300000" y1="79.000000" x2="484.300000" y2="80.000000"  transform="rotate(0.000000,484.300000,80.000000)" style="stroke: black; stroke-width:0.25;"/>
<line x1="481.300000" y1="81.000000" x2="484.300000" y2="80.000000"  transform="rotate(0.000000,484.300000,80.000000)" style="stroke: black; stroke-width:0.25;"/>
<line x1="481.300000" y1="87.000000" x2="484.300000" y2="88.000000"  transform="rotate(0.000000,484.300000,88.000000)" style="stroke: black; stroke-width:0.25;"/>
<line x1="481.300000" y1="89.000000" x2="484.300000" y2="88.000000"  transform="rotate(0.000000,484.300000,88.000000)" style="stroke: black; stroke-width:0.25;"/>
<rect x="559.300000" y="77.000000" width="24.000000" height="24.000000" rx="0" ry="0" style="stroke:none;fill:#cccccc;"/>
<rect x="558.300000" y="76.000000" width="24.000000" height="24.000000" rx="0" ry="0" style="stroke:none;fill:#f44800;"/>
<text x="570.300000" y="90.000000" font-family="Arial" font-size="7" text-anchor="middle" fill="#FFFFFF">0.2</text>
<circle cx="560.300000" cy="78.000000" r="1"/>
<rect x="599.300000" y="73.000000" width="24.000000" height="24.000000" rx="0" ry="0" style="stroke:none;fill:#cccccc;"/>
<rect x="598.300000" y="72.000000" width="24.000000" height="24.000000" rx="0" ry="0" style="stroke:none;fill:#4B71A1;"/>
<text x="610.300000" y="86.000000" font-family="Arial" font-size="7" text-anchor="middle" fill="#FFFFFF">*</text>
<circle cx="600.300000" cy="74.000000" r="1"/>
<line x1="595.300000" y1="79.000000" x2="598.300000" y2="80.000000"  transform="rotate(0.000000,598.300000,80.000000)" style="stroke: black; stroke-width:0.25;"/>
<line x1="595.300000" y1="81.000000" x2="598.300000" y2="80.000000"  transform="rotate(0.000000,598.300000,80.000000)" style="stroke: black; stroke-width:0.25;"/>
<line x1="595.300000" y1="87.000000" x2="598.300000" y2="88.000000"  transform="rotate(0.000000,598.300000,88.000000)" style="stroke: black; stroke-width:0.25;"/>
<line x1="595.300000" y1="89.000000" x2="598.300000" y2="88.000000"  transform="rotate(0.000000,598.300000,88.000000)" style="stroke: black; stroke-width:0.25;"/>
<line x1="15.000000" y1="15.000000" x2="15.000000" y2="153.000000"  style="stroke: black; stroke-linecap:round; stroke-width:0.25; stroke-dasharray:3,3;"/>
<line x1="15.000000" y1="153.000000" x2="639.300000" y2="153.000000"  style="stroke: black; stroke-linecap:round; stroke-width:0.25; stroke-dasharray:3,3;"/>
<line x1="639.300000" y1="153.000000" x2="639.300000" y2="15.000000"  style="stroke: black; stroke-linecap:round; stroke-width:0.25; stroke-dasharray:3,3;"/>
<line x1="15.000000" y1="15.000000" x2="20.000000" y2="15.000000"  style="stroke: black; stroke-linecap:round; stroke-width:0.25; stroke-dasharray:3,3;"/>
<line x1="42.575000" y1="15.000000" x2="639.300000" y2="15.000000"  style="stroke: black; stroke-linecap:round; stroke-width:0.25; stroke-dasharray:3,3;"/>
<text x="20.000000" y="17.000000" font-family="Arial" font-size="7">bells</text>
<line x1="641.300000" y1="83.000000" x2="644.300000" y2="84.000000"  transform="rotate(0.000000,644.300000,84.000000)" style="stroke: black; stroke-width:0.25;"/>
<line x1="641.300000" y1="85.000000" x2="644.300000" y2="84.000000"  transform="rotate(0.000000,644.300000,84.000000)" style="stroke: black; stroke-width:0.25;"/>
<line x1="75.600000" y1="36.000000" x2="79.600000" y2="36.000000"  style="stroke:black; stroke-linecap:round; stroke-width:0.25;"/>
<line x1="75.600000" y1="68.000000" x2="79.600000" y2="68.000000"  style="stroke:black; stroke-linecap:round; stroke-width:0.25;"/>
<line x1="79.600000" y1="36.000000" x2="79.600000" y2="36.000000"  style="stroke:black; stroke-linecap:round; stroke-width:0.25;"/>
<line x1="79.600000" y1="36.000000" x2="83.600000" y2="36.000000"  style="stroke:black; stroke-linecap:round; stroke-width:0.25;"/>
<line x1="79.600000" y1="68.000000" x2="79.600000" y2="68.000000"  style="stroke:black; stroke-linecap:round; stroke-width:0.25;"/>
<line x1="79.600000" y1="68.000000" x2="83.600000" y2="68.000000"  style="stroke:black; stroke-linecap:round; stroke-width:0.25;"/>
<line x1="114.950000" y1="100.000000" x2="118.950000" y2="100.000000"  style="stroke:black; stroke-linecap:round; stroke-width:0.25;"/>
<line x1="115.600000" y1="132.000000" x2="119.600000" y2="132.000000"  style="stroke:black; stroke-linecap:round; stroke-width:0.25;"/>
<line x1="118.950000" y1="100.000000" x2="118.950000" y2="100.000000"  style="stroke:black; stroke-linecap:round; stroke-width:0.25;"/>
<line x1="118.950000" y1="100.000000" x2="122.950000" y2="100.000000"  style="stroke:black; stroke-linecap:round; stroke-width:0.25;"/>
<line x1="119.600000" y1="132.000000" x2="119.600000" y2="132.000000"  style="stroke:black; stroke-linecap:round; stroke-width:0.25;"/>
<line x1="119.600000" y1="132.000000" x2="123.600000" y2="132.000000"  style="stroke:black; stroke-linecap:round; stroke-width:0.25;"/>
<line x1="212.600000" y1="36.000000" x2="216.600000" y2="36.000000"  style="stroke:black; stroke-linecap:round; stroke-width:0.25;"/>
<line x1="212.600000" y1="68.000000" x2="216.600000" y2="68.000000"  style="stroke:black; stroke-linecap:round; stroke-width:0.25;"/>
<line x1="216.600000" y1="36.000000" x2="216.600000" y2="36.000000"  style="stroke:black; stroke-linecap:round; stroke-width:0.25;"/>
<line x1="216.600000" y1="36.000000" x2="220.600000" y2="36.000000"  style="stroke:black; stroke-linecap:round; stroke-width:0.25;"/>
<line x1="216.600000" y1="68.000000" x2="216.600000" y2="68.000000"  style="stroke:black; stroke-linecap:round; stroke-width:0.25;"/>
<line x1="216.600000" y1="68.000000" x2="220.600000" y2="68.000000"  style="stroke:black; stroke-linecap:round; stroke-width:0.25;"/>
<line x1="251.950000" y1="100.000000" x2="255.950000" y2="100.000000"  style="stroke:black; stroke-linecap:round; stroke-width:0.25;"/>
<line x1="252.600000" y1="132.000000" x2="256.600000" y2="132.000000"  style="stroke:black; stroke-linecap:round; stroke-width:0.25;"/>
<line x1="255.950000" y1="100.000000" x2="255.950000" y2="100.000000"  style="stroke:black; stroke-linecap:round; stroke-width:0.25;"/>
<line x1="255.950000" y1="100.000000" x2="259.950000" y2="100.000000"  style="stroke:black; stroke-linecap:round; stroke-width:0.25;"/>
<line x1="256.600000" y1="132.000000" x2="256.600000" y2="132.000000"  style="stroke:black; stroke-linecap:round; stroke-width:0.25;"/>
<line x1="256.600000" y1="132.000000" x2="260.600000" y2="132.000000"  style="stroke:black; stroke-linecap:round; stroke-width:0.25;"/>
<line x1="388.300000" y1="36.000000" x2="392.300000" y2="36.000000"  style="stroke:black; stroke-linecap:round; stroke-width:0.25;"/>
<line x1="388.300000" y1="68.000000" x2="392.300000" y2="68.000000"  style="stroke:black; stroke-linecap:round; stroke-width:0.25;"/>
<line x1="388.950000" y1="100.000000" x2="392.950000" y2="100.000000"  style="stroke:black; stroke-linecap:round; stroke-width:0.25;"/>
<line x1="392.300000" y1="36.000000" x2="400.300000" y2="36.000000"  style="stroke:black; stroke-linecap:round; stroke-width:0.25;"/>
<line x1="392.300000" y1="56.000000" x2="400.300000" y2="56.000000"  style="stroke:black; stroke-linecap:round; stroke-width:0.25;"/>
<line x1="392.300000" y1="68.000000" x2="392.300000" y2="56.000000"  style="stroke:black; stroke-linecap:round; stroke-width:0.25;"/>
<line x1="392.300000" y1="68.000000" x2="392.300000" y2="68.000000"  style="stroke:black; stroke-linecap:round; stroke-width:0.25;"/>
<line x1="392.950000" y1="100.000000" x2="432.300000" y2="100.000000"  style="stroke:black; stroke-linecap:round; stroke-width:0.25;"/>
<line x1="400.300000" y1="36.000000" x2="400.300000" y2="48.000000"  style="stroke:black; stroke-linecap:round; stroke-width:0.25;"/>
<line x1="400.300000" y1="48.000000" x2="400.300000" y2="48.000000"  style="stroke:black; stroke-linecap:round; stroke-width:0.25;"/>
<line x1="400.300000" y1="48.000000" x2="404.300000" y2="48.000000"  style="stroke:black; stroke-linecap:round; stroke-width:0.25;"/>
<line x1="400.300000" y1="56.000000" x2="404.300000" y2="56.000000"  style="stroke:black; stroke-linecap:round; stroke-width:0.25;"/>
<line x1="428.300000" y1="52.000000" x2="432.300000" y2="52.000000"  style="stroke:black; stroke-linecap:round; stroke-width:0.25;"/>
<line x1="428.300000" y1="132.000000" x2="432.300000" y2="132.000000"  style="stroke:black; stroke-linecap:round; stroke-width:0.25;"/>
<line x1="432.300000" y1="72.000000" x2="440.300000" y2="72.000000"  style="stroke:black; stroke-linecap:round; stroke-width:0.25;"/>
<line x1="432.300000" y1="100.000000" x2="432.300000" y2="72.000000"  style="stroke:black; stroke-linecap:round; stroke-width:0.25;"/>
<line x1="432.300000" y1="100.000000" x2="432.300000" y2="100.000000"  style="stroke:black; stroke-linecap:round; stroke-width:0.25;"/>
<line x1="432.300000" y1="52.000000" x2="440.300000" y2="52.000000"  style="stroke:black; stroke-linecap:round; stroke-width:0.25;"/>
<line x1="432.300000" y1="132.000000" x2="472.300000" y2="132.000000"  style="stroke:black; stroke-linecap:round; stroke-width:0.25;"/>
<line x1="440.300000" y1="52.000000" x2="440.300000" y2="64.000000"  style="stroke:black; stroke-linecap:round; stroke-width:0.25;"/>
<line x1="440.300000" y1="64.000000" x2="440.300000" y2="64.000000"  style="stroke:black; stroke-linecap:round; stroke-width:0.25;"/>
<line x1="440.300000" y1="64.000000" x2="444.300000" y2="64.000000"  style="stroke:black; stroke-linecap:round; stroke-width:0.25;"/>
<line x1="440.300000" y1="72.000000" x2="444.300000" y2="72.000000"  style="stroke:black; stroke-linecap:round; stroke-width:0.25;"/>
<line x1="468.300000" y1="68.000000" x2="472.300000" y2="68.000000"  style="stroke:black; stroke-linecap:round; stroke-width:0.25;"/>
<line x1="472.300000" y1="68.000000" x2="480.300000" y2="68.000000"  style="stroke:black; stroke-linecap:round; stroke-width:0.25;"/>
<line x1="472.300000" y1="88.000000" x2="480.300000" y2="88.000000"  style="stroke:black; stroke-linecap:round; stroke-width:0.25;"/>
<line x1="472.300000" y1="132.000000" x2="472.300000" y2="88.000000"  style="stroke:black; stroke-linecap:round; stroke-width:0.25;"/>
<line x1="472.300000" y1="132.000000" x2="472.300000" y2="132.000000"  style="stroke:black; stroke-linecap:round; stroke-width:0.25;"/>
<line x1="480.300000" y1="68.000000" x2="480.300000" y2="80.000000"  style="stroke:black; stroke-linecap:round; stroke-width:0.25;"/>
<line x1="480.300000" y1="80.000000" x2="480.300000" y2="80.000000"  style="stroke:black; stroke-linecap:round; stroke-width:0.25;"/>
<line x1="480.300000" y1="80.000000" x2="484.300000" y2="80.000000"  style="stroke:black; stroke-linecap:round; stroke-width:0.25;"/>
<line x1="480.300000" y1="88.000000" x2="484.300000" y2="88.000000"  style="stroke:black; stroke-linecap:round; stroke-width:0.25;"/>
<line x1="508.300000" y1="84.000000" x2="512.300000" y2="84.000000"  style="stroke:black; stroke-linecap:round; stroke-width:0.25;"/>
<line x1="512.300000" y1="84.000000" x2="554.300000" y2="68.000000"  style="stroke:black; stroke-linecap:round; stroke-width:0.25;"/>
<line x1="554.300000" y1="68.000000" x2="570.300000" y2="68.000000"  style="stroke:black; stroke-linecap:round; stroke-width:0.25;"/>
<line x1="570.300000" y1="68.000000" x2="586.300000" y2="68.000000"  style="stroke:black; stroke-linecap:round; stroke-width:0.25;"/>
<line x1="582.300000" y1="88.000000" x2="586.300000" y2="88.000000"  style="stroke:black; stroke-linecap:round; stroke-width:0.25;"/>
<line x1="586.300000" y1="68.000000" x2="594.300000" y2="68.000000"  style="stroke:black; stroke-linecap:round; stroke-width:0.25;"/>
<line x1="586.300000" y1="88.000000" x2="594.300000" y2="88.000000"  style="stroke:black; stroke-linecap:round; stroke-width:0.25;"/>
<line x1="594.300000" y1="68.000000" x2="594.300000" y2="80.000000"  style="stroke:black; stroke-linecap:round; stroke-width:0.25;"/>
<line x1="594.300000" y1="80.000000" x2="594.300000" y2="80.000000"  style="stroke:black; stroke-linecap:round; stroke-width:0.25;"/>
<line x1="594.300000" y1="80.000000" x2="598.300000" y2="80.000000"  style="stroke:black; stroke-linecap:round; stroke-width:0.25;"/>
<line x1="594.300000" y1="88.000000" x2="598.300000" y2="88.000000"  style="stroke:black; stroke-linecap:round; stroke-width:0.25;"/>
<line x1="622.300000" y1="84.000000" x2="626.300000" y2="84.000000"  style="stroke:black; stroke-linecap:round; stroke-width:0.25;"/>
<line x1="626.300000" y1="84.000000" x2="626.300000" y2="84.000000"  style="stroke:black; stroke-linecap:round; stroke-width:0.25;"/>
<line x1="626.300000" y1="84.000000" x2="630.300000" y2="84.000000"  style="stroke:black; stroke-linecap:round; stroke-width:0.25;"/>
<line x1="630.300000" y1="84.000000" x2="634.300000" y2="84.000000"  style="stroke:black; stroke-linecap:round; stroke-width:0.25;"/>
<line x1="634.300000" y1="84.000000" x2="644.300000" y2="84.000000"  style="stroke:black; stroke-linecap:round; stroke-width:0.25;"/>
</svg>
