<?xml version="1.0"?>
<svg xmlns="http://www.w3.org/2000/svg" xmlns:xlink="http://www.w3.org/1999/xlink" viewBox="0 0 166.700000 104.000000" width="83.350000mm" height="52.000000mm" version="1.1">
<a xlink:href="atime-0x7fbf5c85f3a0.svg">
<rect x="1.000000" y="1.000000" width="165.700000" height="103.000000" rx="0" ry="0" style="stroke:none;fill:#cccccc;"/>
<rect x="0.000000" y="0.000000" width="165.700000" height="103.000000" rx="0" ry="0" style="stroke:none;fill:#ffffff;"/>
</a>
<text x="10.000000" y="7.000000" font-family="Arial" font-size="7"></text>
<rect x="41.000000" y="25.000000" width="38.700000" height="24.000000" rx="0" ry="0" style="stroke:none;fill:#cccccc;"/>
<rect x="40.000000" y="24.000000" width="38.700000" height="24.000000" rx="0" ry="0" style="stroke:none;fill:#47945E;"/>
<text x="59.350000" y="38.000000" font-family="Arial" font-size="7" text-anchor="middle" fill="#FFFFFF">trigger</text>
<circle cx="42.000000" cy="26.000000" r="1"/>
<rect x="25.000000" y="57.000000" width="38.700000" height="24.000000" rx="0" ry="0" style="stroke:none;fill:#cccccc;"/>
<rect x="24.000000" y="56.000000" width="38.700000" height="24.000000" rx="0" ry="0" style="stroke:none;fill:#47945E;"/>
<text x="43.350000" y="70.000000" font-family="Arial" font-size="7" text-anchor="middle" fill="#FFFFFF">trigger</text>
<circle cx="26.000000" cy="58.000000" r="1"/>
<rect x="71.700000" y="57.000000" width="24.000000" height="24.000000" rx="0" ry="0" style="stroke:none;fill:#cccccc;"/>
<rect x="70.700000" y="56.000000" width="24.000000" height="24.000000" rx="0" ry="0" style="stroke:none;fill:#4B71A1;"/>
<text x="82.700000" y="70.000000" font-family="Arial" font-size="7" text-anchor="middle" fill="#FFFFFF">mem</text>
<circle cx="72.700000" cy="58.000000" r="1"/>
<line x1="67.700000" y1="67.000000" x2="70.700000" y2="68.000000"  transform="rotate(0.000000,70.700000,68.000000)" style="stroke: black; stroke-width:0.25;"/>
<line x1="67.700000" y1="69.000000" x2="70.700000" y2="68.000000"  transform="rotate(0.000000,70.700000,68.000000)" style="stroke: black; stroke-width:0.25;"/>
<rect x="111.700000" y="41.000000" width="24.000000" height="24.000000" rx="0" ry="0" style="stroke:none;fill:#cccccc;"/>
<rect x="110.700000" y="40.000000" width="24.000000" height="24.000000" rx="0" ry="0" style="stroke:none;fill:#4B71A1;"/>
<text x="122.700000" y="54.000000" font-family="Arial" font-size="7" text-anchor="middle" fill="#FFFFFF">&gt;</text>
<circle cx="112.700000" cy="42.000000" r="1"/>
<line x1="107.700000" y1="47.000000" x2="110.700000" y2="48.000000"  transform="rotate(0.000000,110.700000,48.000000)" style="stroke: black; stroke-width:0.25;"/>
<line x1="107.700000" y1="49.000000" x2="110.700000" y2="48.000000"  transform="rotate(0.000000,110.700000,48.000000)" style="stroke: black; stroke-width:0.25;"/>
<line x1="107.700000" y1="55.000000" x2="110.700000" y2="56.000000"  transform="rotate(0.000000,110.700000,56.000000)" style="stroke: black; stroke-width:0.25;"/>
<line x1="107.700000" y1="57.000000" x2="110.700000" y2="56.000000"  transform="rotate(0.000000,110.700000,56.000000)" style="stroke: black; stroke-width:0.25;"/>
<line x1="15.000000" y1="15.000000" x2="15.000000" y2="89.000000"  style="stroke: black; stroke-linecap:round; stroke-width:0.25; stroke-dasharray:3,3;"/>
<line x1="15.000000" y1="89.000000" x2="151.700000" y2="89.000000"  style="stroke: black; stroke-linecap:round; stroke-width:0.25; stroke-dasharray:3,3;"/>
<line x1="151.700000" y1="89.000000" x2="151.700000" y2="15.000000"  style="stroke: black; stroke-linecap:round; stroke-width:0.25; stroke-dasharray:3,3;"/>
<line x1="15.000000" y1="15.000000" x2="20.000000" y2="15.000000"  style="stroke: black; stroke-linecap:round; stroke-width:0.25; stroke-dasharray:3,3;"/>
<line x1="49.025000" y1="15.000000" x2="151.700000" y2="15.000000"  style="stroke: black; stroke-linecap:round; stroke-width:0.25; stroke-dasharray:3,3;"/>
<text x="20.000000" y="17.000000" font-family="Arial" font-size="7">upfront</text>
<line x1="153.700000" y1="51.000000" x2="156.700000" y2="52.000000"  transform="rotate(0.000000,156.700000,52.000000)" style="stroke: black; stroke-width:0.25;"/>
<line x1="153.700000" y1="53.000000" x2="156.700000" y2="52.000000"  transform="rotate(0.000000,156.700000,52.000000)" style="stroke: black; stroke-width:0.25;"/>
<line x1="62.700000" y1="68.000000" x2="66.700000" y2="68.000000"  style="stroke:black; stroke-linecap:round; stroke-width:0.25;"/>
<line x1="66.700000" y1="68.000000" x2="66.700000" y2="68.000000"  style="stroke:black; stroke-linecap:round; stroke-width:0.25;"/>
<line x1="66.700000" y1="68.000000" x2="70.700000" y2="68.000000"  style="stroke:black; stroke-linecap:round; stroke-width:0.25;"/>
<line x1="78.700000" y1="36.000000" x2="82.700000" y2="36.000000"  style="stroke:black; stroke-linecap:round; stroke-width:0.25;"/>
<line x1="82.700000" y1="36.000000" x2="98.700000" y2="36.000000"  style="stroke:black; stroke-linecap:round; stroke-width:0.25;"/>
<line x1="94.700000" y1="68.000000" x2="98.700000" y2="68.000000"  style="stroke:black; stroke-linecap:round; stroke-width:0.25;"/>
<line x1="98.700000" y1="36.000000" x2="106.700000" y2="36.000000"  style="stroke:black; stroke-linecap:round; stroke-width:0.25;"/>
<line x1="98.700000" y1="56.000000" x2="106.700000" y2="56.000000"  style="stroke:black; stroke-linecap:round; stroke-width:0.25;"/>
<line x1="98.700000" y1="68.000000" x2="98.700000" y2="56.000000"  style="stroke:black; stroke-linecap:round; stroke-width:0.25;"/>
<line x1="98.700000" y1="68.000000" x2="98.700000" y2="68.000000"  style="stroke:black; stroke-linecap:round; stroke-width:0.25;"/>
<line x1="106.700000" y1="36.000000" x2="106.700000" y2="48.000000"  style="stroke:black; stroke-linecap:round; stroke-width:0.25;"/>
<line x1="106.700000" y1="48.000000" x2="106.700000" y2="48.000000"  style="stroke:black; stroke-linecap:round; stroke-width:0.25;"/>
<line x1="106.700000" y1="48.000000" x2="110.700000" y2="48.000000"  style="stroke:black; stroke-linecap:round; stroke-width:0.25;"/>
<line x1="106.700000" y1="56.000000" x2="110.700000" y2="56.000000"  style="stroke:black; stroke-linecap:round; stroke-width:0.25;"/>
<line x1="134.700000" y1="52.000000" x2="138.700000" y2="52.000000"  style="stroke:black; stroke-linecap:round; stroke-width:0.25;"/>
<line x1="138.700000" y1="52.000000" x2="138.700000" y2="52.000000"  style="stroke:black; stroke-linecap:round; stroke-width:0.25;"/>
<line x1="138.700000" y1="52.000000" x2="142.700000" y2="52.000000"  style="stroke:black; stroke-linecap:round; stroke-width:0.25;"/>
<line x1="142.700000" y1="52.000000" x2="146.700000" y2="52.000000"  style="stroke:black; stroke-linecap:round; stroke-width:0.25;"/>
<line x1="146.700000" y1="52.000000" x2="156.700000" y2="52.000000"  style="stroke:black; stroke-linecap:round; stroke-width:0.25;"/>
</svg>
