<?xml version="1.0"?>
<svg xmlns="http://www.w3.org/2000/svg" xmlns:xlink="http://www.w3.org/1999/xlink" viewBox="0 0 211.600000 312.000000" width="105.800000mm" height="156.000000mm" version="1.1">
<a xlink:href="mth-0x7f84c51e24d0.svg">
<rect x="1.000000" y="1.000000" width="210.600000" height="311.000000" rx="0" ry="0" style="stroke:none;fill:#cccccc;"/>
<rect x="0.000000" y="0.000000" width="210.600000" height="311.000000" rx="0" ry="0" style="stroke:none;fill:#ffffff;"/>
</a>
<text x="10.000000" y="7.000000" font-family="Arial" font-size="7"></text>
<a xlink:href="apchain-0x7f84c51e0760.svg">
<rect x="81.000000" y="25.000000" width="51.600000" height="24.000000" rx="0" ry="0" style="stroke:none;fill:#cccccc;"/>
<rect x="80.000000" y="24.000000" width="51.600000" height="24.000000" rx="0" ry="0" style="stroke:none;fill:#003366;"/>
</a>
<a xlink:href="apchain-0x7f84c51e0760.svg">
<text x="105.800000" y="38.000000" font-family="Arial" font-size="7" text-anchor="middle" fill="#FFFFFF">apchain(1)</text>
</a>
<circle cx="82.000000" cy="26.000000" r="1"/>
<line x1="77.000000" y1="35.000000" x2="80.000000" y2="36.000000"  transform="rotate(0.000000,80.000000,36.000000)" style="stroke: black; stroke-width:0.25;"/>
<line x1="77.000000" y1="37.000000" x2="80.000000" y2="36.000000"  transform="rotate(0.000000,80.000000,36.000000)" style="stroke: black; stroke-width:0.25;"/>
<a xlink:href="apchain-0x7f84c51e0d40.svg">
<rect x="81.000000" y="57.000000" width="51.600000" height="24.000000" rx="0" ry="0" style="stroke:none;fill:#cccccc;"/>
<rect x="80.000000" y="56.000000" width="51.600000" height="24.000000" rx="0" ry="0" style="stroke:none;fill:#003366;"/>
</a>
<a xlink:href="apchain-0x7f84c51e0d40.svg">
<text x="105.800000" y="70.000000" font-family="Arial" font-size="7" text-anchor="middle" fill="#FFFFFF">apchain(2)</text>
</a>
<circle cx="82.000000" cy="58.000000" r="1"/>
<line x1="77.000000" y1="67.000000" x2="80.000000" y2="68.000000"  transform="rotate(0.000000,80.000000,68.000000)" style="stroke: black; stroke-width:0.25;"/>
<line x1="77.000000" y1="69.000000" x2="80.000000" y2="68.000000"  transform="rotate(0.000000,80.000000,68.000000)" style="stroke: black; stroke-width:0.25;"/>
<a xlink:href="apchain-0x7f84c51e1230.svg">
<rect x="81.000000" y="89.000000" width="51.600000" height="24.000000" rx="0" ry="0" style="stroke:none;fill:#cccccc;"/>
<rect x="80.000000" y="88.000000" width="51.600000" height="24.000000" rx="0" ry="0" style="stroke:none;fill:#003366;"/>
</a>
<a xlink:href="apchain-0x7f84c51e1230.svg">
<text x="105.800000" y="102.000000" font-family="Arial" font-size="7" text-anchor="middle" fill="#FFFFFF">apchain(3)</text>
</a>
<circle cx="82.000000" cy="90.000000" r="1"/>
<line x1="77.000000" y1="99.000000" x2="80.000000" y2="100.000000"  transform="rotate(0.000000,80.000000,100.000000)" style="stroke: black; stroke-width:0.25;"/>
<line x1="77.000000" y1="101.000000" x2="80.000000" y2="100.000000"  transform="rotate(0.000000,80.000000,100.000000)" style="stroke: black; stroke-width:0.25;"/>
<a xlink:href="apchain-0x7f84c51e1630.svg">
<rect x="81.000000" y="121.000000" width="51.600000" height="24.000000" rx="0" ry="0" style="stroke:none;fill:#cccccc;"/>
<rect x="80.000000" y="120.000000" width="51.600000" height="24.000000" rx="0" ry="0" style="stroke:none;fill:#003366;"/>
</a>
<a xlink:href="apchain-0x7f84c51e1630.svg">
<text x="105.800000" y="134.000000" font-family="Arial" font-size="7" text-anchor="middle" fill="#FFFFFF">apchain(4)</text>
</a>
<circle cx="82.000000" cy="122.000000" r="1"/>
<line x1="77.000000" y1="131.000000" x2="80.000000" y2="132.000000"  transform="rotate(0.000000,80.000000,132.000000)" style="stroke: black; stroke-width:0.25;"/>
<line x1="77.000000" y1="133.000000" x2="80.000000" y2="132.000000"  transform="rotate(0.000000,80.000000,132.000000)" style="stroke: black; stroke-width:0.25;"/>
<a xlink:href="apchain-0x7f84c51e1940.svg">
<rect x="81.000000" y="153.000000" width="51.600000" height="24.000000" rx="0" ry="0" style="stroke:none;fill:#cccccc;"/>
<rect x="80.000000" y="152.000000" width="51.600000" height="24.000000" rx="0" ry="0" style="stroke:none;fill:#003366;"/>
</a>
<a xlink:href="apchain-0x7f84c51e1940.svg">
<text x="105.800000" y="166.000000" font-family="Arial" font-size="7" text-anchor="middle" fill="#FFFFFF">apchain(5)</text>
</a>
<circle cx="82.000000" cy="154.000000" r="1"/>
<line x1="77.000000" y1="163.000000" x2="80.000000" y2="164.000000"  transform="rotate(0.000000,80.000000,164.000000)" style="stroke: black; stroke-width:0.25;"/>
<line x1="77.000000" y1="165.000000" x2="80.000000" y2="164.000000"  transform="rotate(0.000000,80.000000,164.000000)" style="stroke: black; stroke-width:0.25;"/>
<a xlink:href="apchain-0x7f84c51e1b60.svg">
<rect x="81.000000" y="185.000000" width="51.600000" height="24.000000" rx="0" ry="0" style="stroke:none;fill:#cccccc;"/>
<rect x="80.000000" y="184.000000" width="51.600000" height="24.000000" rx="0" ry="0" style="stroke:none;fill:#003366;"/>
</a>
<a xlink:href="apchain-0x7f84c51e1b60.svg">
<text x="105.800000" y="198.000000" font-family="Arial" font-size="7" text-anchor="middle" fill="#FFFFFF">apchain(6)</text>
</a>
<circle cx="82.000000" cy="186.000000" r="1"/>
<line x1="77.000000" y1="195.000000" x2="80.000000" y2="196.000000"  transform="rotate(0.000000,80.000000,196.000000)" style="stroke: black; stroke-width:0.25;"/>
<line x1="77.000000" y1="197.000000" x2="80.000000" y2="196.000000"  transform="rotate(0.000000,80.000000,196.000000)" style="stroke: black; stroke-width:0.25;"/>
<a xlink:href="apchain-0x7f84c51e1c80.svg">
<rect x="81.000000" y="217.000000" width="51.600000" height="24.000000" rx="0" ry="0" style="stroke:none;fill:#cccccc;"/>
<rect x="80.000000" y="216.000000" width="51.600000" height="24.000000" rx="0" ry="0" style="stroke:none;fill:#003366;"/>
</a>
<a xlink:href="apchain-0x7f84c51e1c80.svg">
<text x="105.800000" y="230.000000" font-family="Arial" font-size="7" text-anchor="middle" fill="#FFFFFF">apchain(7)</text>
</a>
<circle cx="82.000000" cy="218.000000" r="1"/>
<line x1="77.000000" y1="227.000000" x2="80.000000" y2="228.000000"  transform="rotate(0.000000,80.000000,228.000000)" style="stroke: black; stroke-width:0.25;"/>
<line x1="77.000000" y1="229.000000" x2="80.000000" y2="228.000000"  transform="rotate(0.000000,80.000000,228.000000)" style="stroke: black; stroke-width:0.25;"/>
<a xlink:href="ap-0x7f84c51df240.svg">
<rect x="93.900000" y="249.000000" width="25.800000" height="24.000000" rx="0" ry="0" style="stroke:none;fill:#cccccc;"/>
<rect x="92.900000" y="248.000000" width="25.800000" height="24.000000" rx="0" ry="0" style="stroke:none;fill:#003366;"/>
</a>
<a xlink:href="ap-0x7f84c51df240.svg">
<text x="105.800000" y="262.000000" font-family="Arial" font-size="7" text-anchor="middle" fill="#FFFFFF">ap(1)</text>
</a>
<circle cx="94.900000" cy="250.000000" r="1"/>
<line x1="89.900000" y1="259.000000" x2="92.900000" y2="260.000000"  transform="rotate(0.000000,92.900000,260.000000)" style="stroke: black; stroke-width:0.25;"/>
<line x1="89.900000" y1="261.000000" x2="92.900000" y2="260.000000"  transform="rotate(0.000000,92.900000,260.000000)" style="stroke: black; stroke-width:0.25;"/>
<line x1="15.000000" y1="15.000000" x2="15.000000" y2="297.000000"  style="stroke: black; stroke-linecap:round; stroke-width:0.25; stroke-dasharray:3,3;"/>
<line x1="15.000000" y1="297.000000" x2="196.600000" y2="297.000000"  style="stroke: black; stroke-linecap:round; stroke-width:0.25; stroke-dasharray:3,3;"/>
<line x1="196.600000" y1="297.000000" x2="196.600000" y2="15.000000"  style="stroke: black; stroke-linecap:round; stroke-width:0.25; stroke-dasharray:3,3;"/>
<line x1="15.000000" y1="15.000000" x2="20.000000" y2="15.000000"  style="stroke: black; stroke-linecap:round; stroke-width:0.25; stroke-dasharray:3,3;"/>
<line x1="61.925000" y1="15.000000" x2="196.600000" y2="15.000000"  style="stroke: black; stroke-linecap:round; stroke-width:0.25; stroke-dasharray:3,3;"/>
<text x="20.000000" y="17.000000" font-family="Arial" font-size="7">delayeq(10)</text>
<line x1="198.600000" y1="119.000000" x2="201.600000" y2="120.000000"  transform="rotate(0.000000,201.600000,120.000000)" style="stroke: black; stroke-width:0.25;"/>
<line x1="198.600000" y1="121.000000" x2="201.600000" y2="120.000000"  transform="rotate(0.000000,201.600000,120.000000)" style="stroke: black; stroke-width:0.25;"/>
<line x1="198.600000" y1="127.000000" x2="201.600000" y2="128.000000"  transform="rotate(0.000000,201.600000,128.000000)" style="stroke: black; stroke-width:0.25;"/>
<line x1="198.600000" y1="129.000000" x2="201.600000" y2="128.000000"  transform="rotate(0.000000,201.600000,128.000000)" style="stroke: black; stroke-width:0.25;"/>
<line x1="198.600000" y1="135.000000" x2="201.600000" y2="136.000000"  transform="rotate(0.000000,201.600000,136.000000)" style="stroke: black; stroke-width:0.25;"/>
<line x1="198.600000" y1="137.000000" x2="201.600000" y2="136.000000"  transform="rotate(0.000000,201.600000,136.000000)" style="stroke: black; stroke-width:0.25;"/>
<line x1="198.600000" y1="143.000000" x2="201.600000" y2="144.000000"  transform="rotate(0.000000,201.600000,144.000000)" style="stroke: black; stroke-width:0.25;"/>
<line x1="198.600000" y1="145.000000" x2="201.600000" y2="144.000000"  transform="rotate(0.000000,201.600000,144.000000)" style="stroke: black; stroke-width:0.25;"/>
<line x1="198.600000" y1="151.000000" x2="201.600000" y2="152.000000"  transform="rotate(0.000000,201.600000,152.000000)" style="stroke: black; stroke-width:0.25;"/>
<line x1="198.600000" y1="153.000000" x2="201.600000" y2="152.000000"  transform="rotate(0.000000,201.600000,152.000000)" style="stroke: black; stroke-width:0.25;"/>
<line x1="198.600000" y1="159.000000" x2="201.600000" y2="160.000000"  transform="rotate(0.000000,201.600000,160.000000)" style="stroke: black; stroke-width:0.25;"/>
<line x1="198.600000" y1="161.000000" x2="201.600000" y2="160.000000"  transform="rotate(0.000000,201.600000,160.000000)" style="stroke: black; stroke-width:0.25;"/>
<line x1="198.600000" y1="167.000000" x2="201.600000" y2="168.000000"  transform="rotate(0.000000,201.600000,168.000000)" style="stroke: black; stroke-width:0.25;"/>
<line x1="198.600000" y1="169.000000" x2="201.600000" y2="168.000000"  transform="rotate(0.000000,201.600000,168.000000)" style="stroke: black; stroke-width:0.25;"/>
<line x1="198.600000" y1="175.000000" x2="201.600000" y2="176.000000"  transform="rotate(0.000000,201.600000,176.000000)" style="stroke: black; stroke-width:0.25;"/>
<line x1="198.600000" y1="177.000000" x2="201.600000" y2="176.000000"  transform="rotate(0.000000,201.600000,176.000000)" style="stroke: black; stroke-width:0.25;"/>
<line x1="198.600000" y1="183.000000" x2="201.600000" y2="184.000000"  transform="rotate(0.000000,201.600000,184.000000)" style="stroke: black; stroke-width:0.25;"/>
<line x1="198.600000" y1="185.000000" x2="201.600000" y2="184.000000"  transform="rotate(0.000000,201.600000,184.000000)" style="stroke: black; stroke-width:0.25;"/>
<line x1="198.600000" y1="191.000000" x2="201.600000" y2="192.000000"  transform="rotate(0.000000,201.600000,192.000000)" style="stroke: black; stroke-width:0.25;"/>
<line x1="198.600000" y1="193.000000" x2="201.600000" y2="192.000000"  transform="rotate(0.000000,201.600000,192.000000)" style="stroke: black; stroke-width:0.25;"/>
<line x1="10.000000" y1="120.000000" x2="20.000000" y2="120.000000"  style="stroke:black; stroke-linecap:round; stroke-width:0.25;"/>
<line x1="10.000000" y1="128.000000" x2="20.000000" y2="128.000000"  style="stroke:black; stroke-linecap:round; stroke-width:0.25;"/>
<line x1="10.000000" y1="136.000000" x2="20.000000" y2="136.000000"  style="stroke:black; stroke-linecap:round; stroke-width:0.25;"/>
<line x1="10.000000" y1="144.000000" x2="20.000000" y2="144.000000"  style="stroke:black; stroke-linecap:round; stroke-width:0.25;"/>
<line x1="10.000000" y1="152.000000" x2="20.000000" y2="152.000000"  style="stroke:black; stroke-linecap:round; stroke-width:0.25;"/>
<line x1="10.000000" y1="160.000000" x2="20.000000" y2="160.000000"  style="stroke:black; stroke-linecap:round; stroke-width:0.25;"/>
<line x1="10.000000" y1="168.000000" x2="20.000000" y2="168.000000"  style="stroke:black; stroke-linecap:round; stroke-width:0.25;"/>
<line x1="10.000000" y1="176.000000" x2="20.000000" y2="176.000000"  style="stroke:black; stroke-linecap:round; stroke-width:0.25;"/>
<line x1="10.000000" y1="184.000000" x2="20.000000" y2="184.000000"  style="stroke:black; stroke-linecap:round; stroke-width:0.25;"/>
<line x1="10.000000" y1="192.000000" x2="20.000000" y2="192.000000"  style="stroke:black; stroke-linecap:round; stroke-width:0.25;"/>
<line x1="20.000000" y1="120.000000" x2="24.000000" y2="120.000000"  style="stroke:black; stroke-linecap:round; stroke-width:0.25;"/>
<line x1="20.000000" y1="128.000000" x2="24.000000" y2="128.000000"  style="stroke:black; stroke-linecap:round; stroke-width:0.25;"/>
<line x1="20.000000" y1="136.000000" x2="24.000000" y2="136.000000"  style="stroke:black; stroke-linecap:round; stroke-width:0.25;"/>
<line x1="20.000000" y1="144.000000" x2="24.000000" y2="144.000000"  style="stroke:black; stroke-linecap:round; stroke-width:0.25;"/>
<line x1="20.000000" y1="152.000000" x2="24.000000" y2="152.000000"  style="stroke:black; stroke-linecap:round; stroke-width:0.25;"/>
<line x1="20.000000" y1="160.000000" x2="24.000000" y2="160.000000"  style="stroke:black; stroke-linecap:round; stroke-width:0.25;"/>
<line x1="20.000000" y1="168.000000" x2="24.000000" y2="168.000000"  style="stroke:black; stroke-linecap:round; stroke-width:0.25;"/>
<line x1="20.000000" y1="176.000000" x2="24.000000" y2="176.000000"  style="stroke:black; stroke-linecap:round; stroke-width:0.25;"/>
<line x1="20.000000" y1="184.000000" x2="24.000000" y2="184.000000"  style="stroke:black; stroke-linecap:round; stroke-width:0.25;"/>
<line x1="20.000000" y1="192.000000" x2="24.000000" y2="192.000000"  style="stroke:black; stroke-linecap:round; stroke-width:0.25;"/>
<line x1="24.000000" y1="120.000000" x2="28.000000" y2="120.000000"  style="stroke:black; stroke-linecap:round; stroke-width:0.25;"/>
<line x1="24.000000" y1="128.000000" x2="28.000000" y2="128.000000"  style="stroke:black; stroke-linecap:round; stroke-width:0.25;"/>
<line x1="24.000000" y1="136.000000" x2="28.000000" y2="136.000000"  style="stroke:black; stroke-linecap:round; stroke-width:0.25;"/>
<line x1="24.000000" y1="144.000000" x2="28.000000" y2="144.000000"  style="stroke:black; stroke-linecap:round; stroke-width:0.25;"/>
<line x1="24.000000" y1="152.000000" x2="28.000000" y2="152.000000"  style="stroke:black; stroke-linecap:round; stroke-width:0.25;"/>
<line x1="24.000000" y1="160.000000" x2="28.000000" y2="160.000000"  style="stroke:black; stroke-linecap:round; stroke-width:0.25;"/>
<line x1="24.000000" y1="168.000000" x2="28.000000" y2="168.000000"  style="stroke:black; stroke-linecap:round; stroke-width:0.25;"/>
<line x1="24.000000" y1="176.000000" x2="28.000000" y2="176.000000"  style="stroke:black; stroke-linecap:round; stroke-width:0.25;"/>
<line x1="24.000000" y1="184.000000" x2="28.000000" y2="184.000000"  style="stroke:black; stroke-linecap:round; stroke-width:0.25;"/>
<line x1="24.000000" y1="192.000000" x2="28.000000" y2="192.000000"  style="stroke:black; stroke-linecap:round; stroke-width:0.25;"/>
<line x1="28.000000" y1="36.000000" x2="76.000000" y2="36.000000"  style="stroke:black; stroke-linecap:round; stroke-width:0.25;"/>
<line x1="28.000000" y1="120.000000" x2="28.000000" y2="36.000000"  style="stroke:black; stroke-linecap:round; stroke-width:0.25;"/>
<line x1="28.000000" y1="120.000000" x2="28.000000" y2="120.000000"  style="stroke:black; stroke-linecap:round; stroke-width:0.25;"/>
<line x1="28.000000" y1="128.000000" x2="36.000000" y2="128.000000"  style="stroke:black; stroke-linecap:round; stroke-width:0.25;"/>
<line x1="28.000000" y1="136.000000" x2="44.000000" y2="136.000000"  style="stroke:black; stroke-linecap:round; stroke-width:0.25;"/>
<line x1="28.000000" y1="144.000000" x2="52.000000" y2="144.000000"  style="stroke:black; stroke-linecap:round; stroke-width:0.25;"/>
<line x1="28.000000" y1="152.000000" x2="76.000000" y2="152.000000"  style="stroke:black; stroke-linecap:round; stroke-width:0.25;"/>
<line x1="28.000000" y1="160.000000" x2="68.000000" y2="160.000000"  style="stroke:black; stroke-linecap:round; stroke-width:0.25;"/>
<line x1="28.000000" y1="168.000000" x2="60.000000" y2="168.000000"  style="stroke:black; stroke-linecap:round; stroke-width:0.25;"/>
<line x1="28.000000" y1="176.000000" x2="52.000000" y2="176.000000"  style="stroke:black; stroke-linecap:round; stroke-width:0.25;"/>
<line x1="28.000000" y1="184.000000" x2="44.000000" y2="184.000000"  style="stroke:black; stroke-linecap:round; stroke-width:0.25;"/>
<line x1="28.000000" y1="192.000000" x2="36.000000" y2="192.000000"  style="stroke:black; stroke-linecap:round; stroke-width:0.25;"/>
<line x1="36.000000" y1="68.000000" x2="76.000000" y2="68.000000"  style="stroke:black; stroke-linecap:round; stroke-width:0.25;"/>
<line x1="36.000000" y1="128.000000" x2="36.000000" y2="68.000000"  style="stroke:black; stroke-linecap:round; stroke-width:0.25;"/>
<line x1="36.000000" y1="192.000000" x2="36.000000" y2="288.000000"  style="stroke:black; stroke-linecap:round; stroke-width:0.25;"/>
<line x1="36.000000" y1="288.000000" x2="76.000000" y2="288.000000"  style="stroke:black; stroke-linecap:round; stroke-width:0.25;"/>
<line x1="44.000000" y1="100.000000" x2="76.000000" y2="100.000000"  style="stroke:black; stroke-linecap:round; stroke-width:0.25;"/>
<line x1="44.000000" y1="136.000000" x2="44.000000" y2="100.000000"  style="stroke:black; stroke-linecap:round; stroke-width:0.25;"/>
<line x1="44.000000" y1="184.000000" x2="44.000000" y2="280.000000"  style="stroke:black; stroke-linecap:round; stroke-width:0.25;"/>
<line x1="44.000000" y1="280.000000" x2="76.000000" y2="280.000000"  style="stroke:black; stroke-linecap:round; stroke-width:0.25;"/>
<line x1="52.000000" y1="132.000000" x2="76.000000" y2="132.000000"  style="stroke:black; stroke-linecap:round; stroke-width:0.25;"/>
<line x1="52.000000" y1="144.000000" x2="52.000000" y2="132.000000"  style="stroke:black; stroke-linecap:round; stroke-width:0.25;"/>
<line x1="52.000000" y1="176.000000" x2="52.000000" y2="260.000000"  style="stroke:black; stroke-linecap:round; stroke-width:0.25;"/>
<line x1="52.000000" y1="260.000000" x2="76.000000" y2="260.000000"  style="stroke:black; stroke-linecap:round; stroke-width:0.25;"/>
<line x1="60.000000" y1="168.000000" x2="60.000000" y2="228.000000"  style="stroke:black; stroke-linecap:round; stroke-width:0.25;"/>
<line x1="60.000000" y1="228.000000" x2="76.000000" y2="228.000000"  style="stroke:black; stroke-linecap:round; stroke-width:0.25;"/>
<line x1="68.000000" y1="160.000000" x2="68.000000" y2="196.000000"  style="stroke:black; stroke-linecap:round; stroke-width:0.25;"/>
<line x1="68.000000" y1="196.000000" x2="76.000000" y2="196.000000"  style="stroke:black; stroke-linecap:round; stroke-width:0.25;"/>
<line x1="76.000000" y1="36.000000" x2="80.000000" y2="36.000000"  style="stroke:black; stroke-linecap:round; stroke-width:0.25;"/>
<line x1="76.000000" y1="68.000000" x2="80.000000" y2="68.000000"  style="stroke:black; stroke-linecap:round; stroke-width:0.25;"/>
<line x1="76.000000" y1="100.000000" x2="80.000000" y2="100.000000"  style="stroke:black; stroke-linecap:round; stroke-width:0.25;"/>
<line x1="76.000000" y1="132.000000" x2="80.000000" y2="132.000000"  style="stroke:black; stroke-linecap:round; stroke-width:0.25;"/>
<line x1="76.000000" y1="152.000000" x2="76.000000" y2="164.000000"  style="stroke:black; stroke-linecap:round; stroke-width:0.25;"/>
<line x1="76.000000" y1="164.000000" x2="76.000000" y2="164.000000"  style="stroke:black; stroke-linecap:round; stroke-width:0.25;"/>
<line x1="76.000000" y1="164.000000" x2="80.000000" y2="164.000000"  style="stroke:black; stroke-linecap:round; stroke-width:0.25;"/>
<line x1="76.000000" y1="196.000000" x2="80.000000" y2="196.000000"  style="stroke:black; stroke-linecap:round; stroke-width:0.25;"/>
<line x1="76.000000" y1="228.000000" x2="80.000000" y2="228.000000"  style="stroke:black; stroke-linecap:round; stroke-width:0.25;"/>
<line x1="76.000000" y1="260.000000" x2="88.900000" y2="260.000000"  style="stroke:black; stroke-linecap:round; stroke-width:0.25;"/>
<line x1="76.000000" y1="280.000000" x2="105.800000" y2="280.000000"  style="stroke:black; stroke-linecap:round; stroke-width:0.25;"/>
<line x1="76.000000" y1="288.000000" x2="105.800000" y2="288.000000"  style="stroke:black; stroke-linecap:round; stroke-width:0.25;"/>
<line x1="88.900000" y1="260.000000" x2="92.900000" y2="260.000000"  style="stroke:black; stroke-linecap:round; stroke-width:0.25;"/>
<line x1="105.800000" y1="280.000000" x2="135.600000" y2="280.000000"  style="stroke:black; stroke-linecap:round; stroke-width:0.25;"/>
<line x1="105.800000" y1="288.000000" x2="135.600000" y2="288.000000"  style="stroke:black; stroke-linecap:round; stroke-width:0.25;"/>
<line x1="118.700000" y1="260.000000" x2="122.700000" y2="260.000000"  style="stroke:black; stroke-linecap:round; stroke-width:0.25;"/>
<line x1="122.700000" y1="260.000000" x2="135.600000" y2="260.000000"  style="stroke:black; stroke-linecap:round; stroke-width:0.25;"/>
<line x1="131.600000" y1="36.000000" x2="135.600000" y2="36.000000"  style="stroke:black; stroke-linecap:round; stroke-width:0.25;"/>
<line x1="131.600000" y1="68.000000" x2="135.600000" y2="68.000000"  style="stroke:black; stroke-linecap:round; stroke-width:0.25;"/>
<line x1="131.600000" y1="100.000000" x2="135.600000" y2="100.000000"  style="stroke:black; stroke-linecap:round; stroke-width:0.25;"/>
<line x1="131.600000" y1="132.000000" x2="135.600000" y2="132.000000"  style="stroke:black; stroke-linecap:round; stroke-width:0.25;"/>
<line x1="131.600000" y1="164.000000" x2="135.600000" y2="164.000000"  style="stroke:black; stroke-linecap:round; stroke-width:0.25;"/>
<line x1="131.600000" y1="196.000000" x2="135.600000" y2="196.000000"  style="stroke:black; stroke-linecap:round; stroke-width:0.25;"/>
<line x1="131.600000" y1="228.000000" x2="135.600000" y2="228.000000"  style="stroke:black; stroke-linecap:round; stroke-width:0.25;"/>
<line x1="135.600000" y1="36.000000" x2="183.600000" y2="36.000000"  style="stroke:black; stroke-linecap:round; stroke-width:0.25;"/>
<line x1="135.600000" y1="68.000000" x2="175.600000" y2="68.000000"  style="stroke:black; stroke-linecap:round; stroke-width:0.25;"/>
<line x1="135.600000" y1="100.000000" x2="167.600000" y2="100.000000"  style="stroke:black; stroke-linecap:round; stroke-width:0.25;"/>
<line x1="135.600000" y1="132.000000" x2="159.600000" y2="132.000000"  style="stroke:black; stroke-linecap:round; stroke-width:0.25;"/>
<line x1="135.600000" y1="152.000000" x2="183.600000" y2="152.000000"  style="stroke:black; stroke-linecap:round; stroke-width:0.25;"/>
<line x1="135.600000" y1="164.000000" x2="135.600000" y2="152.000000"  style="stroke:black; stroke-linecap:round; stroke-width:0.25;"/>
<line x1="135.600000" y1="164.000000" x2="135.600000" y2="164.000000"  style="stroke:black; stroke-linecap:round; stroke-width:0.25;"/>
<line x1="135.600000" y1="196.000000" x2="143.600000" y2="196.000000"  style="stroke:black; stroke-linecap:round; stroke-width:0.25;"/>
<line x1="135.600000" y1="228.000000" x2="151.600000" y2="228.000000"  style="stroke:black; stroke-linecap:round; stroke-width:0.25;"/>
<line x1="135.600000" y1="260.000000" x2="159.600000" y2="260.000000"  style="stroke:black; stroke-linecap:round; stroke-width:0.25;"/>
<line x1="135.600000" y1="280.000000" x2="167.600000" y2="280.000000"  style="stroke:black; stroke-linecap:round; stroke-width:0.25;"/>
<line x1="135.600000" y1="288.000000" x2="175.600000" y2="288.000000"  style="stroke:black; stroke-linecap:round; stroke-width:0.25;"/>
<line x1="143.600000" y1="160.000000" x2="183.600000" y2="160.000000"  style="stroke:black; stroke-linecap:round; stroke-width:0.25;"/>
<line x1="143.600000" y1="196.000000" x2="143.600000" y2="160.000000"  style="stroke:black; stroke-linecap:round; stroke-width:0.25;"/>
<line x1="151.600000" y1="168.000000" x2="183.600000" y2="168.000000"  style="stroke:black; stroke-linecap:round; stroke-width:0.25;"/>
<line x1="151.600000" y1="228.000000" x2="151.600000" y2="168.000000"  style="stroke:black; stroke-linecap:round; stroke-width:0.25;"/>
<line x1="159.600000" y1="132.000000" x2="159.600000" y2="144.000000"  style="stroke:black; stroke-linecap:round; stroke-width:0.25;"/>
<line x1="159.600000" y1="144.000000" x2="183.600000" y2="144.000000"  style="stroke:black; stroke-linecap:round; stroke-width:0.25;"/>
<line x1="159.600000" y1="176.000000" x2="183.600000" y2="176.000000"  style="stroke:black; stroke-linecap:round; stroke-width:0.25;"/>
<line x1="159.600000" y1="260.000000" x2="159.600000" y2="176.000000"  style="stroke:black; stroke-linecap:round; stroke-width:0.25;"/>
<line x1="167.600000" y1="100.000000" x2="167.600000" y2="136.000000"  style="stroke:black; stroke-linecap:round; stroke-width:0.25;"/>
<line x1="167.600000" y1="136.000000" x2="183.600000" y2="136.000000"  style="stroke:black; stroke-linecap:round; stroke-width:0.25;"/>
<line x1="167.600000" y1="184.000000" x2="183.600000" y2="184.000000"  style="stroke:black; stroke-linecap:round; stroke-width:0.25;"/>
<line x1="167.600000" y1="280.000000" x2="167.600000" y2="184.000000"  style="stroke:black; stroke-linecap:round; stroke-width:0.25;"/>
<line x1="175.600000" y1="68.000000" x2="175.600000" y2="128.000000"  style="stroke:black; stroke-linecap:round; stroke-width:0.25;"/>
<line x1="175.600000" y1="128.000000" x2="183.600000" y2="128.000000"  style="stroke:black; stroke-linecap:round; stroke-width:0.25;"/>
<line x1="175.600000" y1="192.000000" x2="183.600000" y2="192.000000"  style="stroke:black; stroke-linecap:round; stroke-width:0.25;"/>
<line x1="175.600000" y1="288.000000" x2="175.600000" y2="192.000000"  style="stroke:black; stroke-linecap:round; stroke-width:0.25;"/>
<line x1="183.600000" y1="36.000000" x2="183.600000" y2="120.000000"  style="stroke:black; stroke-linecap:round; stroke-width:0.25;"/>
<line x1="183.600000" y1="120.000000" x2="183.600000" y2="120.000000"  style="stroke:black; stroke-linecap:round; stroke-width:0.25;"/>
<line x1="183.600000" y1="120.000000" x2="187.600000" y2="120.000000"  style="stroke:black; stroke-linecap:round; stroke-width:0.25;"/>
<line x1="183.600000" y1="128.000000" x2="187.600000" y2="128.000000"  style="stroke:black; stroke-linecap:round; stroke-width:0.25;"/>
<line x1="183.600000" y1="136.000000" x2="187.600000" y2="136.000000"  style="stroke:black; stroke-linecap:round; stroke-width:0.25;"/>
<line x1="183.600000" y1="144.000000" x2="187.600000" y2="144.000000"  style="stroke:black; stroke-linecap:round; stroke-width:0.25;"/>
<line x1="183.600000" y1="152.000000" x2="187.600000" y2="152.000000"  style="stroke:black; stroke-linecap:round; stroke-width:0.25;"/>
<line x1="183.600000" y1="160.000000" x2="187.600000" y2="160.000000"  style="stroke:black; stroke-linecap:round; stroke-width:0.25;"/>
<line x1="183.600000" y1="168.000000" x2="187.600000" y2="168.000000"  style="stroke:black; stroke-linecap:round; stroke-width:0.25;"/>
<line x1="183.600000" y1="176.000000" x2="187.600000" y2="176.000000"  style="stroke:black; stroke-linecap:round; stroke-width:0.25;"/>
<line x1="183.600000" y1="184.000000" x2="187.600000" y2="184.000000"  style="stroke:black; stroke-linecap:round; stroke-width:0.25;"/>
<line x1="183.600000" y1="192.000000" x2="187.600000" y2="192.000000"  style="stroke:black; stroke-linecap:round; stroke-width:0.25;"/>
<line x1="187.600000" y1="120.000000" x2="191.600000" y2="120.000000"  style="stroke:black; stroke-linecap:round; stroke-width:0.25;"/>
<line x1="187.600000" y1="128.000000" x2="191.600000" y2="128.000000"  style="stroke:black; stroke-linecap:round; stroke-width:0.25;"/>
<line x1="187.600000" y1="136.000000" x2="191.600000" y2="136.000000"  style="stroke:black; stroke-linecap:round; stroke-width:0.25;"/>
<line x1="187.600000" y1="144.000000" x2="191.600000" y2="144.000000"  style="stroke:black; stroke-linecap:round; stroke-width:0.25;"/>
<line x1="187.600000" y1="152.000000" x2="191.600000" y2="152.000000"  style="stroke:black; stroke-linecap:round; stroke-width:0.25;"/>
<line x1="187.600000" y1="160.000000" x2="191.600000" y2="160.000000"  style="stroke:black; stroke-linecap:round; stroke-width:0.25;"/>
<line x1="187.600000" y1="168.000000" x2="191.600000" y2="168.000000"  style="stroke:black; stroke-linecap:round; stroke-width:0.25;"/>
<line x1="187.600000" y1="176.000000" x2="191.600000" y2="176.000000"  style="stroke:black; stroke-linecap:round; stroke-width:0.25;"/>
<line x1="187.600000" y1="184.000000" x2="191.600000" y2="184.000000"  style="stroke:black; stroke-linecap:round; stroke-width:0.25;"/>
<line x1="187.600000" y1="192.000000" x2="191.600000" y2="192.000000"  style="stroke:black; stroke-linecap:round; stroke-width:0.25;"/>
<line x1="191.600000" y1="120.000000" x2="201.600000" y2="120.000000"  style="stroke:black; stroke-linecap:round; stroke-width:0.25;"/>
<line x1="191.600000" y1="128.000000" x2="201.600000" y2="128.000000"  style="stroke:black; stroke-linecap:round; stroke-width:0.25;"/>
<line x1="191.600000" y1="136.000000" x2="201.600000" y2="136.000000"  style="stroke:black; stroke-linecap:round; stroke-width:0.25;"/>
<line x1="191.600000" y1="144.000000" x2="201.600000" y2="144.000000"  style="stroke:black; stroke-linecap:round; stroke-width:0.25;"/>
<line x1="191.600000" y1="152.000000" x2="201.600000" y2="152.000000"  style="stroke:black; stroke-linecap:round; stroke-width:0.25;"/>
<line x1="191.600000" y1="160.000000" x2="201.600000" y2="160.000000"  style="stroke:black; stroke-linecap:round; stroke-width:0.25;"/>
<line x1="191.600000" y1="168.000000" x2="201.600000" y2="168.000000"  style="stroke:black; stroke-linecap:round; stroke-width:0.25;"/>
<line x1="191.600000" y1="176.000000" x2="201.600000" y2="176.000000"  style="stroke:black; stroke-linecap:round; stroke-width:0.25;"/>
<line x1="191.600000" y1="184.000000" x2="201.600000" y2="184.000000"  style="stroke:black; stroke-linecap:round; stroke-width:0.25;"/>
<line x1="191.600000" y1="192.000000" x2="201.600000" y2="192.000000"  style="stroke:black; stroke-linecap:round; stroke-width:0.25;"/>
</svg>
