<?xml version="1.0"?>
<svg xmlns="http://www.w3.org/2000/svg" xmlns:xlink="http://www.w3.org/1999/xlink" viewBox="0 0 305.000000 220.000000" width="152.500000mm" height="110.000000mm" version="1.1">
<a xlink:href="transpose-0x7f8c99696610.svg">
<rect x="1.000000" y="1.000000" width="304.000000" height="219.000000" rx="0" ry="0" style="stroke:none;fill:#cccccc;"/>
<rect x="0.000000" y="0.000000" width="304.000000" height="219.000000" rx="0" ry="0" style="stroke:none;fill:#ffffff;"/>
</a>
<text x="10.000000" y="7.000000" font-family="Arial" font-size="7"></text>
<a xlink:href="delay-0x7f8c9968d330.svg">
<rect x="32.100000" y="25.000000" width="154.800000" height="24.000000" rx="0" ry="0" style="stroke:none;fill:#cccccc;"/>
<rect x="31.100000" y="24.000000" width="154.800000" height="24.000000" rx="0" ry="0" style="stroke:none;fill:#003366;"/>
</a>
<a xlink:href="delay-0x7f8c9968d330.svg">
<text x="108.500000" y="38.000000" font-family="Arial" font-size="7" text-anchor="middle" fill="#FFFFFF">delay(65537)(...12 : + : int)(x44)</text>
</a>
<circle cx="33.100000" cy="26.000000" r="1"/>
<rect x="77.500000" y="67.000000" width="24.000000" height="24.000000" rx="0" ry="0" style="stroke:none;fill:#cccccc;"/>
<rect x="76.500000" y="66.000000" width="24.000000" height="24.000000" rx="0" ry="0" style="stroke:none;fill:#f44800;"/>
<text x="88.500000" y="80.000000" font-family="Arial" font-size="7" text-anchor="middle" fill="#FFFFFF">1</text>
<circle cx="78.500000" cy="68.000000" r="1"/>
<line x1="67.500000" y1="57.000000" x2="67.500000" y2="99.000000"  style="stroke: black; stroke-linecap:round; stroke-width:0.25; stroke-dasharray:3,3;"/>
<line x1="67.500000" y1="99.000000" x2="109.500000" y2="99.000000"  style="stroke: black; stroke-linecap:round; stroke-width:0.25; stroke-dasharray:3,3;"/>
<line x1="109.500000" y1="99.000000" x2="109.500000" y2="57.000000"  style="stroke: black; stroke-linecap:round; stroke-width:0.25; stroke-dasharray:3,3;"/>
<line x1="67.500000" y1="57.000000" x2="72.500000" y2="57.000000"  style="stroke: black; stroke-linecap:round; stroke-width:0.25; stroke-dasharray:3,3;"/>
<line x1="82.175000" y1="57.000000" x2="109.500000" y2="57.000000"  style="stroke: black; stroke-linecap:round; stroke-width:0.25; stroke-dasharray:3,3;"/>
<text x="72.500000" y="59.000000" font-family="Arial" font-size="7">S</text>
<a xlink:href="decimal-0x7f8c9968e810.svg">
<rect x="25.000000" y="109.000000" width="129.000000" height="24.000000" rx="0" ry="0" style="stroke:none;fill:#cccccc;"/>
<rect x="24.000000" y="108.000000" width="129.000000" height="24.000000" rx="0" ry="0" style="stroke:none;fill:#003366;"/>
</a>
<a xlink:href="decimal-0x7f8c9968e810.svg">
<text x="88.500000" y="122.000000" font-family="Arial" font-size="7" text-anchor="middle" fill="#FFFFFF">decimal((1,(2...)~_),512 : +)</text>
</a>
<circle cx="26.000000" cy="110.000000" r="1"/>
<rect x="170.000000" y="83.000000" width="24.000000" height="24.000000" rx="0" ry="0" style="stroke:none;fill:#cccccc;"/>
<rect x="169.000000" y="82.000000" width="24.000000" height="24.000000" rx="0" ry="0" style="stroke:none;fill:#4B71A1;"/>
<text x="181.000000" y="96.000000" font-family="Arial" font-size="7" text-anchor="middle" fill="#FFFFFF">-</text>
<circle cx="171.000000" cy="84.000000" r="1"/>
<line x1="166.000000" y1="89.000000" x2="169.000000" y2="90.000000"  transform="rotate(0.000000,169.000000,90.000000)" style="stroke: black; stroke-width:0.25;"/>
<line x1="166.000000" y1="91.000000" x2="169.000000" y2="90.000000"  transform="rotate(0.000000,169.000000,90.000000)" style="stroke: black; stroke-width:0.25;"/>
<line x1="166.000000" y1="97.000000" x2="169.000000" y2="98.000000"  transform="rotate(0.000000,169.000000,98.000000)" style="stroke: black; stroke-width:0.25;"/>
<line x1="166.000000" y1="99.000000" x2="169.000000" y2="98.000000"  transform="rotate(0.000000,169.000000,98.000000)" style="stroke: black; stroke-width:0.25;"/>
<rect x="210.000000" y="67.000000" width="24.000000" height="24.000000" rx="0" ry="0" style="stroke:none;fill:#cccccc;"/>
<rect x="209.000000" y="66.000000" width="24.000000" height="24.000000" rx="0" ry="0" style="stroke:none;fill:#4B71A1;"/>
<text x="221.000000" y="80.000000" font-family="Arial" font-size="7" text-anchor="middle" fill="#FFFFFF">*</text>
<circle cx="211.000000" cy="68.000000" r="1"/>
<line x1="206.000000" y1="73.000000" x2="209.000000" y2="74.000000"  transform="rotate(0.000000,209.000000,74.000000)" style="stroke: black; stroke-width:0.25;"/>
<line x1="206.000000" y1="75.000000" x2="209.000000" y2="74.000000"  transform="rotate(0.000000,209.000000,74.000000)" style="stroke: black; stroke-width:0.25;"/>
<line x1="206.000000" y1="81.000000" x2="209.000000" y2="82.000000"  transform="rotate(0.000000,209.000000,82.000000)" style="stroke: black; stroke-width:0.25;"/>
<line x1="206.000000" y1="83.000000" x2="209.000000" y2="82.000000"  transform="rotate(0.000000,209.000000,82.000000)" style="stroke: black; stroke-width:0.25;"/>
<a xlink:href="delay-0x7f8c99694e80.svg">
<rect x="32.100000" y="141.000000" width="154.800000" height="24.000000" rx="0" ry="0" style="stroke:none;fill:#cccccc;"/>
<rect x="31.100000" y="140.000000" width="154.800000" height="24.000000" rx="0" ry="0" style="stroke:none;fill:#003366;"/>
</a>
<a xlink:href="delay-0x7f8c99694e80.svg">
<text x="108.500000" y="154.000000" font-family="Arial" font-size="7" text-anchor="middle" fill="#FFFFFF">delay(65537)(...: int),1 : +)(x44)</text>
</a>
<circle cx="33.100000" cy="142.000000" r="1"/>
<a xlink:href="decimal-0x7f8c9968e810.svg">
<rect x="45.000000" y="173.000000" width="129.000000" height="24.000000" rx="0" ry="0" style="stroke:none;fill:#cccccc;"/>
<rect x="44.000000" y="172.000000" width="129.000000" height="24.000000" rx="0" ry="0" style="stroke:none;fill:#003366;"/>
</a>
<a xlink:href="decimal-0x7f8c9968e810.svg">
<text x="108.500000" y="186.000000" font-family="Arial" font-size="7" text-anchor="middle" fill="#FFFFFF">decimal((1,(2...)~_),512 : +)</text>
</a>
<circle cx="46.000000" cy="174.000000" r="1"/>
<rect x="202.900000" y="157.000000" width="24.000000" height="24.000000" rx="0" ry="0" style="stroke:none;fill:#cccccc;"/>
<rect x="201.900000" y="156.000000" width="24.000000" height="24.000000" rx="0" ry="0" style="stroke:none;fill:#4B71A1;"/>
<text x="213.900000" y="170.000000" font-family="Arial" font-size="7" text-anchor="middle" fill="#FFFFFF">*</text>
<circle cx="203.900000" cy="158.000000" r="1"/>
<line x1="198.900000" y1="163.000000" x2="201.900000" y2="164.000000"  transform="rotate(0.000000,201.900000,164.000000)" style="stroke: black; stroke-width:0.25;"/>
<line x1="198.900000" y1="165.000000" x2="201.900000" y2="164.000000"  transform="rotate(0.000000,201.900000,164.000000)" style="stroke: black; stroke-width:0.25;"/>
<line x1="198.900000" y1="171.000000" x2="201.900000" y2="172.000000"  transform="rotate(0.000000,201.900000,172.000000)" style="stroke: black; stroke-width:0.25;"/>
<line x1="198.900000" y1="173.000000" x2="201.900000" y2="172.000000"  transform="rotate(0.000000,201.900000,172.000000)" style="stroke: black; stroke-width:0.25;"/>
<rect x="250.000000" y="99.000000" width="24.000000" height="24.000000" rx="0" ry="0" style="stroke:none;fill:#cccccc;"/>
<rect x="249.000000" y="98.000000" width="24.000000" height="24.000000" rx="0" ry="0" style="stroke:none;fill:#4B71A1;"/>
<text x="261.000000" y="112.000000" font-family="Arial" font-size="7" text-anchor="middle" fill="#FFFFFF">+</text>
<circle cx="251.000000" cy="100.000000" r="1"/>
<line x1="246.000000" y1="105.000000" x2="249.000000" y2="106.000000"  transform="rotate(0.000000,249.000000,106.000000)" style="stroke: black; stroke-width:0.25;"/>
<line x1="246.000000" y1="107.000000" x2="249.000000" y2="106.000000"  transform="rotate(0.000000,249.000000,106.000000)" style="stroke: black; stroke-width:0.25;"/>
<line x1="246.000000" y1="113.000000" x2="249.000000" y2="114.000000"  transform="rotate(0.000000,249.000000,114.000000)" style="stroke: black; stroke-width:0.25;"/>
<line x1="246.000000" y1="115.000000" x2="249.000000" y2="114.000000"  transform="rotate(0.000000,249.000000,114.000000)" style="stroke: black; stroke-width:0.25;"/>
<line x1="15.000000" y1="15.000000" x2="15.000000" y2="205.000000"  style="stroke: black; stroke-linecap:round; stroke-width:0.25; stroke-dasharray:3,3;"/>
<line x1="15.000000" y1="205.000000" x2="290.000000" y2="205.000000"  style="stroke: black; stroke-linecap:round; stroke-width:0.25; stroke-dasharray:3,3;"/>
<line x1="290.000000" y1="205.000000" x2="290.000000" y2="15.000000"  style="stroke: black; stroke-linecap:round; stroke-width:0.25; stroke-dasharray:3,3;"/>
<line x1="15.000000" y1="15.000000" x2="20.000000" y2="15.000000"  style="stroke: black; stroke-linecap:round; stroke-width:0.25; stroke-dasharray:3,3;"/>
<line x1="136.100000" y1="15.000000" x2="290.000000" y2="15.000000"  style="stroke: black; stroke-linecap:round; stroke-width:0.25; stroke-dasharray:3,3;"/>
<text x="20.000000" y="17.000000" font-family="Arial" font-size="7">fdelay(65536)...)~_),512 : +)(x44)</text>
<line x1="292.000000" y1="109.000000" x2="295.000000" y2="110.000000"  transform="rotate(0.000000,295.000000,110.000000)" style="stroke: black; stroke-width:0.25;"/>
<line x1="292.000000" y1="111.000000" x2="295.000000" y2="110.000000"  transform="rotate(0.000000,295.000000,110.000000)" style="stroke: black; stroke-width:0.25;"/>
<line x1="100.500000" y1="78.000000" x2="104.500000" y2="78.000000"  style="stroke:black; stroke-linecap:round; stroke-width:0.25;"/>
<line x1="104.500000" y1="78.000000" x2="114.500000" y2="78.000000"  style="stroke:black; stroke-linecap:round; stroke-width:0.25;"/>
<line x1="114.500000" y1="78.000000" x2="157.000000" y2="78.000000"  style="stroke:black; stroke-linecap:round; stroke-width:0.25;"/>
<line x1="153.000000" y1="120.000000" x2="157.000000" y2="120.000000"  style="stroke:black; stroke-linecap:round; stroke-width:0.25;"/>
<line x1="157.000000" y1="78.000000" x2="165.000000" y2="78.000000"  style="stroke:black; stroke-linecap:round; stroke-width:0.25;"/>
<line x1="157.000000" y1="98.000000" x2="165.000000" y2="98.000000"  style="stroke:black; stroke-linecap:round; stroke-width:0.25;"/>
<line x1="157.000000" y1="120.000000" x2="157.000000" y2="98.000000"  style="stroke:black; stroke-linecap:round; stroke-width:0.25;"/>
<line x1="157.000000" y1="120.000000" x2="157.000000" y2="120.000000"  style="stroke:black; stroke-linecap:round; stroke-width:0.25;"/>
<line x1="165.000000" y1="78.000000" x2="165.000000" y2="90.000000"  style="stroke:black; stroke-linecap:round; stroke-width:0.25;"/>
<line x1="165.000000" y1="90.000000" x2="165.000000" y2="90.000000"  style="stroke:black; stroke-linecap:round; stroke-width:0.25;"/>
<line x1="165.000000" y1="90.000000" x2="169.000000" y2="90.000000"  style="stroke:black; stroke-linecap:round; stroke-width:0.25;"/>
<line x1="165.000000" y1="98.000000" x2="169.000000" y2="98.000000"  style="stroke:black; stroke-linecap:round; stroke-width:0.25;"/>
<line x1="173.000000" y1="184.000000" x2="177.000000" y2="184.000000"  style="stroke:black; stroke-linecap:round; stroke-width:0.25;"/>
<line x1="177.000000" y1="184.000000" x2="189.900000" y2="184.000000"  style="stroke:black; stroke-linecap:round; stroke-width:0.25;"/>
<line x1="185.900000" y1="36.000000" x2="189.900000" y2="36.000000"  style="stroke:black; stroke-linecap:round; stroke-width:0.25;"/>
<line x1="185.900000" y1="152.000000" x2="189.900000" y2="152.000000"  style="stroke:black; stroke-linecap:round; stroke-width:0.25;"/>
<line x1="189.900000" y1="36.000000" x2="197.000000" y2="36.000000"  style="stroke:black; stroke-linecap:round; stroke-width:0.25;"/>
<line x1="189.900000" y1="152.000000" x2="197.900000" y2="152.000000"  style="stroke:black; stroke-linecap:round; stroke-width:0.25;"/>
<line x1="189.900000" y1="172.000000" x2="197.900000" y2="172.000000"  style="stroke:black; stroke-linecap:round; stroke-width:0.25;"/>
<line x1="189.900000" y1="184.000000" x2="189.900000" y2="172.000000"  style="stroke:black; stroke-linecap:round; stroke-width:0.25;"/>
<line x1="189.900000" y1="184.000000" x2="189.900000" y2="184.000000"  style="stroke:black; stroke-linecap:round; stroke-width:0.25;"/>
<line x1="193.000000" y1="94.000000" x2="197.000000" y2="94.000000"  style="stroke:black; stroke-linecap:round; stroke-width:0.25;"/>
<line x1="197.000000" y1="36.000000" x2="205.000000" y2="36.000000"  style="stroke:black; stroke-linecap:round; stroke-width:0.25;"/>
<line x1="197.000000" y1="82.000000" x2="205.000000" y2="82.000000"  style="stroke:black; stroke-linecap:round; stroke-width:0.25;"/>
<line x1="197.000000" y1="94.000000" x2="197.000000" y2="82.000000"  style="stroke:black; stroke-linecap:round; stroke-width:0.25;"/>
<line x1="197.000000" y1="94.000000" x2="197.000000" y2="94.000000"  style="stroke:black; stroke-linecap:round; stroke-width:0.25;"/>
<line x1="197.900000" y1="152.000000" x2="197.900000" y2="164.000000"  style="stroke:black; stroke-linecap:round; stroke-width:0.25;"/>
<line x1="197.900000" y1="164.000000" x2="197.900000" y2="164.000000"  style="stroke:black; stroke-linecap:round; stroke-width:0.25;"/>
<line x1="197.900000" y1="164.000000" x2="201.900000" y2="164.000000"  style="stroke:black; stroke-linecap:round; stroke-width:0.25;"/>
<line x1="197.900000" y1="172.000000" x2="201.900000" y2="172.000000"  style="stroke:black; stroke-linecap:round; stroke-width:0.25;"/>
<line x1="205.000000" y1="36.000000" x2="205.000000" y2="74.000000"  style="stroke:black; stroke-linecap:round; stroke-width:0.25;"/>
<line x1="205.000000" y1="74.000000" x2="205.000000" y2="74.000000"  style="stroke:black; stroke-linecap:round; stroke-width:0.25;"/>
<line x1="205.000000" y1="74.000000" x2="209.000000" y2="74.000000"  style="stroke:black; stroke-linecap:round; stroke-width:0.25;"/>
<line x1="205.000000" y1="82.000000" x2="209.000000" y2="82.000000"  style="stroke:black; stroke-linecap:round; stroke-width:0.25;"/>
<line x1="225.900000" y1="168.000000" x2="229.900000" y2="168.000000"  style="stroke:black; stroke-linecap:round; stroke-width:0.25;"/>
<line x1="229.900000" y1="168.000000" x2="237.000000" y2="168.000000"  style="stroke:black; stroke-linecap:round; stroke-width:0.25;"/>
<line x1="233.000000" y1="78.000000" x2="237.000000" y2="78.000000"  style="stroke:black; stroke-linecap:round; stroke-width:0.25;"/>
<line x1="237.000000" y1="78.000000" x2="245.000000" y2="78.000000"  style="stroke:black; stroke-linecap:round; stroke-width:0.25;"/>
<line x1="237.000000" y1="114.000000" x2="245.000000" y2="114.000000"  style="stroke:black; stroke-linecap:round; stroke-width:0.25;"/>
<line x1="237.000000" y1="168.000000" x2="237.000000" y2="114.000000"  style="stroke:black; stroke-linecap:round; stroke-width:0.25;"/>
<line x1="237.000000" y1="168.000000" x2="237.000000" y2="168.000000"  style="stroke:black; stroke-linecap:round; stroke-width:0.25;"/>
<line x1="245.000000" y1="78.000000" x2="245.000000" y2="106.000000"  style="stroke:black; stroke-linecap:round; stroke-width:0.25;"/>
<line x1="245.000000" y1="106.000000" x2="245.000000" y2="106.000000"  style="stroke:black; stroke-linecap:round; stroke-width:0.25;"/>
<line x1="245.000000" y1="106.000000" x2="249.000000" y2="106.000000"  style="stroke:black; stroke-linecap:round; stroke-width:0.25;"/>
<line x1="245.000000" y1="114.000000" x2="249.000000" y2="114.000000"  style="stroke:black; stroke-linecap:round; stroke-width:0.25;"/>
<line x1="273.000000" y1="110.000000" x2="277.000000" y2="110.000000"  style="stroke:black; stroke-linecap:round; stroke-width:0.25;"/>
<line x1="277.000000" y1="110.000000" x2="277.000000" y2="110.000000"  style="stroke:black; stroke-linecap:round; stroke-width:0.25;"/>
<line x1="277.000000" y1="110.000000" x2="281.000000" y2="110.000000"  style="stroke:black; stroke-linecap:round; stroke-width:0.25;"/>
<line x1="281.000000" y1="110.000000" x2="285.000000" y2="110.000000"  style="stroke:black; stroke-linecap:round; stroke-width:0.25;"/>
<line x1="285.000000" y1="110.000000" x2="295.000000" y2="110.000000"  style="stroke:black; stroke-linecap:round; stroke-width:0.25;"/>
</svg>
