<?xml version="1.0"?>
<svg xmlns="http://www.w3.org/2000/svg" xmlns:xlink="http://www.w3.org/1999/xlink" viewBox="0 0 530.600000 92.000000" width="265.300000mm" height="46.000000mm" version="1.1">
<rect x="1.000000" y="1.000000" width="529.600000" height="91.000000" rx="0" ry="0" style="stroke:none;fill:#cccccc;"/>
<rect x="0.000000" y="0.000000" width="529.600000" height="91.000000" rx="0" ry="0" style="stroke:none;fill:#ffffff;"/>
<text x="10.000000" y="7.000000" font-family="Arial" font-size="7"></text>
<a xlink:href="sawtooth-0x7fb92ed05ef0.svg">
<rect x="43.000000" y="35.000000" width="64.500000" height="24.000000" rx="0" ry="0" style="stroke:none;fill:#cccccc;"/>
<rect x="42.000000" y="34.000000" width="64.500000" height="24.000000" rx="0" ry="0" style="stroke:none;fill:#003366;"/>
</a>
<a xlink:href="sawtooth-0x7fb92ed05ef0.svg">
<text x="74.250000" y="48.000000" font-family="Arial" font-size="7" text-anchor="middle" fill="#FFFFFF">sawtooth_demo</text>
</a>
<circle cx="44.000000" cy="36.000000" r="1"/>
<line x1="39.000000" y1="45.000000" x2="42.000000" y2="46.000000"  transform="rotate(0.000000,42.000000,46.000000)" style="stroke: black; stroke-width:0.25;"/>
<line x1="39.000000" y1="47.000000" x2="42.000000" y2="46.000000"  transform="rotate(0.000000,42.000000,46.000000)" style="stroke: black; stroke-width:0.25;"/>
<line x1="33.000000" y1="25.000000" x2="33.000000" y2="67.000000"  style="stroke: black; stroke-linecap:round; stroke-width:0.25; stroke-dasharray:3,3;"/>
<line x1="33.000000" y1="67.000000" x2="115.500000" y2="67.000000"  style="stroke: black; stroke-linecap:round; stroke-width:0.25; stroke-dasharray:3,3;"/>
<line x1="115.500000" y1="67.000000" x2="115.500000" y2="25.000000"  style="stroke: black; stroke-linecap:round; stroke-width:0.25; stroke-dasharray:3,3;"/>
<line x1="33.000000" y1="25.000000" x2="38.000000" y2="25.000000"  style="stroke: black; stroke-linecap:round; stroke-width:0.25; stroke-dasharray:3,3;"/>
<line x1="70.250000" y1="25.000000" x2="115.500000" y2="25.000000"  style="stroke: black; stroke-linecap:round; stroke-width:0.25; stroke-dasharray:3,3;"/>
<text x="38.000000" y="27.000000" font-family="Arial" font-size="7">vgroup()</text>
<a xlink:href="crybaby-0x7fb92ed06580.svg">
<rect x="135.500000" y="35.000000" width="51.600000" height="24.000000" rx="0" ry="0" style="stroke:none;fill:#cccccc;"/>
<rect x="134.500000" y="34.000000" width="51.600000" height="24.000000" rx="0" ry="0" style="stroke:none;fill:#003366;"/>
</a>
<a xlink:href="crybaby-0x7fb92ed06580.svg">
<text x="160.300000" y="48.000000" font-family="Arial" font-size="7" text-anchor="middle" fill="#FFFFFF">crybaby_demo</text>
</a>
<circle cx="136.500000" cy="36.000000" r="1"/>
<line x1="131.500000" y1="45.000000" x2="134.500000" y2="46.000000"  transform="rotate(0.000000,134.500000,46.000000)" style="stroke: black; stroke-width:0.25;"/>
<line x1="131.500000" y1="47.000000" x2="134.500000" y2="46.000000"  transform="rotate(0.000000,134.500000,46.000000)" style="stroke: black; stroke-width:0.25;"/>
<line x1="125.500000" y1="25.000000" x2="125.500000" y2="67.000000"  style="stroke: black; stroke-linecap:round; stroke-width:0.25; stroke-dasharray:3,3;"/>
<line x1="125.500000" y1="67.000000" x2="195.100000" y2="67.000000"  style="stroke: black; stroke-linecap:round; stroke-width:0.25; stroke-dasharray:3,3;"/>
<line x1="195.100000" y1="67.000000" x2="195.100000" y2="25.000000"  style="stroke: black; stroke-linecap:round; stroke-width:0.25; stroke-dasharray:3,3;"/>
<line x1="125.500000" y1="25.000000" x2="130.500000" y2="25.000000"  style="stroke: black; stroke-linecap:round; stroke-width:0.25; stroke-dasharray:3,3;"/>
<line x1="162.750000" y1="25.000000" x2="195.100000" y2="25.000000"  style="stroke: black; stroke-linecap:round; stroke-width:0.25; stroke-dasharray:3,3;"/>
<text x="130.500000" y="27.000000" font-family="Arial" font-size="7">vgroup()</text>
<a xlink:href="wah4-0x7fb92c81c420.svg">
<rect x="215.100000" y="35.000000" width="38.700000" height="24.000000" rx="0" ry="0" style="stroke:none;fill:#cccccc;"/>
<rect x="214.100000" y="34.000000" width="38.700000" height="24.000000" rx="0" ry="0" style="stroke:none;fill:#003366;"/>
</a>
<a xlink:href="wah4-0x7fb92c81c420.svg">
<text x="233.450000" y="48.000000" font-family="Arial" font-size="7" text-anchor="middle" fill="#FFFFFF">wah4_demo</text>
</a>
<circle cx="216.100000" cy="36.000000" r="1"/>
<line x1="211.100000" y1="45.000000" x2="214.100000" y2="46.000000"  transform="rotate(0.000000,214.100000,46.000000)" style="stroke: black; stroke-width:0.25;"/>
<line x1="211.100000" y1="47.000000" x2="214.100000" y2="46.000000"  transform="rotate(0.000000,214.100000,46.000000)" style="stroke: black; stroke-width:0.25;"/>
<line x1="205.100000" y1="25.000000" x2="205.100000" y2="67.000000"  style="stroke: black; stroke-linecap:round; stroke-width:0.25; stroke-dasharray:3,3;"/>
<line x1="205.100000" y1="67.000000" x2="261.800000" y2="67.000000"  style="stroke: black; stroke-linecap:round; stroke-width:0.25; stroke-dasharray:3,3;"/>
<line x1="261.800000" y1="67.000000" x2="261.800000" y2="25.000000"  style="stroke: black; stroke-linecap:round; stroke-width:0.25; stroke-dasharray:3,3;"/>
<line x1="205.100000" y1="25.000000" x2="210.100000" y2="25.000000"  style="stroke: black; stroke-linecap:round; stroke-width:0.25; stroke-dasharray:3,3;"/>
<line x1="242.350000" y1="25.000000" x2="261.800000" y2="25.000000"  style="stroke: black; stroke-linecap:round; stroke-width:0.25; stroke-dasharray:3,3;"/>
<text x="210.100000" y="27.000000" font-family="Arial" font-size="7">vgroup()</text>
<a xlink:href="moog-0x7fb92ed06db0.svg">
<rect x="281.800000" y="35.000000" width="64.500000" height="24.000000" rx="0" ry="0" style="stroke:none;fill:#cccccc;"/>
<rect x="280.800000" y="34.000000" width="64.500000" height="24.000000" rx="0" ry="0" style="stroke:none;fill:#003366;"/>
</a>
<a xlink:href="moog-0x7fb92ed06db0.svg">
<text x="313.050000" y="48.000000" font-family="Arial" font-size="7" text-anchor="middle" fill="#FFFFFF">moog_vcf_demo</text>
</a>
<circle cx="282.800000" cy="36.000000" r="1"/>
<line x1="277.800000" y1="45.000000" x2="280.800000" y2="46.000000"  transform="rotate(0.000000,280.800000,46.000000)" style="stroke: black; stroke-width:0.25;"/>
<line x1="277.800000" y1="47.000000" x2="280.800000" y2="46.000000"  transform="rotate(0.000000,280.800000,46.000000)" style="stroke: black; stroke-width:0.25;"/>
<line x1="271.800000" y1="25.000000" x2="271.800000" y2="67.000000"  style="stroke: black; stroke-linecap:round; stroke-width:0.25; stroke-dasharray:3,3;"/>
<line x1="271.800000" y1="67.000000" x2="354.300000" y2="67.000000"  style="stroke: black; stroke-linecap:round; stroke-width:0.25; stroke-dasharray:3,3;"/>
<line x1="354.300000" y1="67.000000" x2="354.300000" y2="25.000000"  style="stroke: black; stroke-linecap:round; stroke-width:0.25; stroke-dasharray:3,3;"/>
<line x1="271.800000" y1="25.000000" x2="276.800000" y2="25.000000"  style="stroke: black; stroke-linecap:round; stroke-width:0.25; stroke-dasharray:3,3;"/>
<line x1="309.050000" y1="25.000000" x2="354.300000" y2="25.000000"  style="stroke: black; stroke-linecap:round; stroke-width:0.25; stroke-dasharray:3,3;"/>
<text x="276.800000" y="27.000000" font-family="Arial" font-size="7">vgroup()</text>
<a xlink:href="spectral-0x7fb92ed41840.svg">
<rect x="374.300000" y="35.000000" width="90.300000" height="24.000000" rx="0" ry="0" style="stroke:none;fill:#cccccc;"/>
<rect x="373.300000" y="34.000000" width="90.300000" height="24.000000" rx="0" ry="0" style="stroke:none;fill:#003366;"/>
</a>
<a xlink:href="spectral-0x7fb92ed41840.svg">
<text x="418.450000" y="48.000000" font-family="Arial" font-size="7" text-anchor="middle" fill="#FFFFFF">spectral_level_demo</text>
</a>
<circle cx="375.300000" cy="36.000000" r="1"/>
<line x1="370.300000" y1="45.000000" x2="373.300000" y2="46.000000"  transform="rotate(0.000000,373.300000,46.000000)" style="stroke: black; stroke-width:0.25;"/>
<line x1="370.300000" y1="47.000000" x2="373.300000" y2="46.000000"  transform="rotate(0.000000,373.300000,46.000000)" style="stroke: black; stroke-width:0.25;"/>
<line x1="364.300000" y1="25.000000" x2="364.300000" y2="67.000000"  style="stroke: black; stroke-linecap:round; stroke-width:0.25; stroke-dasharray:3,3;"/>
<line x1="364.300000" y1="67.000000" x2="472.600000" y2="67.000000"  style="stroke: black; stroke-linecap:round; stroke-width:0.25; stroke-dasharray:3,3;"/>
<line x1="472.600000" y1="67.000000" x2="472.600000" y2="25.000000"  style="stroke: black; stroke-linecap:round; stroke-width:0.25; stroke-dasharray:3,3;"/>
<line x1="364.300000" y1="25.000000" x2="369.300000" y2="25.000000"  style="stroke: black; stroke-linecap:round; stroke-width:0.25; stroke-dasharray:3,3;"/>
<line x1="401.550000" y1="25.000000" x2="472.600000" y2="25.000000"  style="stroke: black; stroke-linecap:round; stroke-width:0.25; stroke-dasharray:3,3;"/>
<text x="369.300000" y="27.000000" font-family="Arial" font-size="7">vgroup()</text>
<line x1="15.000000" y1="15.000000" x2="15.000000" y2="77.000000"  style="stroke: black; stroke-linecap:round; stroke-width:0.25; stroke-dasharray:3,3;"/>
<line x1="15.000000" y1="77.000000" x2="515.600000" y2="77.000000"  style="stroke: black; stroke-linecap:round; stroke-width:0.25; stroke-dasharray:3,3;"/>
<line x1="515.600000" y1="77.000000" x2="515.600000" y2="15.000000"  style="stroke: black; stroke-linecap:round; stroke-width:0.25; stroke-dasharray:3,3;"/>
<line x1="15.000000" y1="15.000000" x2="20.000000" y2="15.000000"  style="stroke: black; stroke-linecap:round; stroke-width:0.25; stroke-dasharray:3,3;"/>
<line x1="49.025000" y1="15.000000" x2="515.600000" y2="15.000000"  style="stroke: black; stroke-linecap:round; stroke-width:0.25; stroke-dasharray:3,3;"/>
<text x="20.000000" y="17.000000" font-family="Arial" font-size="7">process</text>
<line x1="517.600000" y1="41.000000" x2="520.600000" y2="42.000000"  transform="rotate(0.000000,520.600000,42.000000)" style="stroke: black; stroke-width:0.25;"/>
<line x1="517.600000" y1="43.000000" x2="520.600000" y2="42.000000"  transform="rotate(0.000000,520.600000,42.000000)" style="stroke: black; stroke-width:0.25;"/>
<line x1="517.600000" y1="49.000000" x2="520.600000" y2="50.000000"  transform="rotate(0.000000,520.600000,50.000000)" style="stroke: black; stroke-width:0.25;"/>
<line x1="517.600000" y1="51.000000" x2="520.600000" y2="50.000000"  transform="rotate(0.000000,520.600000,50.000000)" style="stroke: black; stroke-width:0.25;"/>
<line x1="10.000000" y1="46.000000" x2="20.000000" y2="46.000000"  style="stroke:black; stroke-linecap:round; stroke-width:0.25;"/>
<line x1="20.000000" y1="46.000000" x2="24.000000" y2="46.000000"  style="stroke:black; stroke-linecap:round; stroke-width:0.25;"/>
<line x1="24.000000" y1="46.000000" x2="28.000000" y2="46.000000"  style="stroke:black; stroke-linecap:round; stroke-width:0.25;"/>
<line x1="28.000000" y1="46.000000" x2="28.000000" y2="46.000000"  style="stroke:black; stroke-linecap:round; stroke-width:0.25;"/>
<line x1="28.000000" y1="46.000000" x2="38.000000" y2="46.000000"  style="stroke:black; stroke-linecap:round; stroke-width:0.25;"/>
<line x1="38.000000" y1="46.000000" x2="42.000000" y2="46.000000"  style="stroke:black; stroke-linecap:round; stroke-width:0.25;"/>
<line x1="106.500000" y1="46.000000" x2="110.500000" y2="46.000000"  style="stroke:black; stroke-linecap:round; stroke-width:0.25;"/>
<line x1="110.500000" y1="46.000000" x2="120.500000" y2="46.000000"  style="stroke:black; stroke-linecap:round; stroke-width:0.25;"/>
<line x1="120.500000" y1="46.000000" x2="120.500000" y2="46.000000"  style="stroke:black; stroke-linecap:round; stroke-width:0.25;"/>
<line x1="120.500000" y1="46.000000" x2="130.500000" y2="46.000000"  style="stroke:black; stroke-linecap:round; stroke-width:0.25;"/>
<line x1="130.500000" y1="46.000000" x2="134.500000" y2="46.000000"  style="stroke:black; stroke-linecap:round; stroke-width:0.25;"/>
<line x1="186.100000" y1="46.000000" x2="190.100000" y2="46.000000"  style="stroke:black; stroke-linecap:round; stroke-width:0.25;"/>
<line x1="190.100000" y1="46.000000" x2="200.100000" y2="46.000000"  style="stroke:black; stroke-linecap:round; stroke-width:0.25;"/>
<line x1="200.100000" y1="46.000000" x2="200.100000" y2="46.000000"  style="stroke:black; stroke-linecap:round; stroke-width:0.25;"/>
<line x1="200.100000" y1="46.000000" x2="210.100000" y2="46.000000"  style="stroke:black; stroke-linecap:round; stroke-width:0.25;"/>
<line x1="210.100000" y1="46.000000" x2="214.100000" y2="46.000000"  style="stroke:black; stroke-linecap:round; stroke-width:0.25;"/>
<line x1="252.800000" y1="46.000000" x2="256.800000" y2="46.000000"  style="stroke:black; stroke-linecap:round; stroke-width:0.25;"/>
<line x1="256.800000" y1="46.000000" x2="266.800000" y2="46.000000"  style="stroke:black; stroke-linecap:round; stroke-width:0.25;"/>
<line x1="266.800000" y1="46.000000" x2="276.800000" y2="46.000000"  style="stroke:black; stroke-linecap:round; stroke-width:0.25;"/>
<line x1="266.800000" y1="46.000000" x2="266.800000" y2="46.000000"  style="stroke:black; stroke-linecap:round; stroke-width:0.25;"/>
<line x1="276.800000" y1="46.000000" x2="280.800000" y2="46.000000"  style="stroke:black; stroke-linecap:round; stroke-width:0.25;"/>
<line x1="345.300000" y1="46.000000" x2="349.300000" y2="46.000000"  style="stroke:black; stroke-linecap:round; stroke-width:0.25;"/>
<line x1="349.300000" y1="46.000000" x2="359.300000" y2="46.000000"  style="stroke:black; stroke-linecap:round; stroke-width:0.25;"/>
<line x1="359.300000" y1="46.000000" x2="359.300000" y2="46.000000"  style="stroke:black; stroke-linecap:round; stroke-width:0.25;"/>
<line x1="359.300000" y1="46.000000" x2="369.300000" y2="46.000000"  style="stroke:black; stroke-linecap:round; stroke-width:0.25;"/>
<line x1="369.300000" y1="46.000000" x2="373.300000" y2="46.000000"  style="stroke:black; stroke-linecap:round; stroke-width:0.25;"/>
<line x1="463.600000" y1="46.000000" x2="467.600000" y2="46.000000"  style="stroke:black; stroke-linecap:round; stroke-width:0.25;"/>
<line x1="467.600000" y1="46.000000" x2="477.600000" y2="46.000000"  style="stroke:black; stroke-linecap:round; stroke-width:0.25;"/>
<line x1="477.600000" y1="46.000000" x2="494.600000" y2="42.000000"  style="stroke:black; stroke-linecap:round; stroke-width:0.25;"/>
<line x1="477.600000" y1="46.000000" x2="494.600000" y2="50.000000"  style="stroke:black; stroke-linecap:round; stroke-width:0.25;"/>
<line x1="494.600000" y1="42.000000" x2="498.600000" y2="42.000000"  style="stroke:black; stroke-linecap:round; stroke-width:0.25;"/>
<line x1="494.600000" y1="50.000000" x2="498.600000" y2="50.000000"  style="stroke:black; stroke-linecap:round; stroke-width:0.25;"/>
<line x1="498.600000" y1="42.000000" x2="502.600000" y2="42.000000"  style="stroke:black; stroke-linecap:round; stroke-width:0.25;"/>
<line x1="498.600000" y1="50.000000" x2="502.600000" y2="50.000000"  style="stroke:black; stroke-linecap:round; stroke-width:0.25;"/>
<line x1="502.600000" y1="42.000000" x2="502.600000" y2="42.000000"  style="stroke:black; stroke-linecap:round; stroke-width:0.25;"/>
<line x1="502.600000" y1="42.000000" x2="506.600000" y2="42.000000"  style="stroke:black; stroke-linecap:round; stroke-width:0.25;"/>
<line x1="502.600000" y1="50.000000" x2="502.600000" y2="50.000000"  style="stroke:black; stroke-linecap:round; stroke-width:0.25;"/>
<line x1="502.600000" y1="50.000000" x2="506.600000" y2="50.000000"  style="stroke:black; stroke-linecap:round; stroke-width:0.25;"/>
<line x1="506.600000" y1="42.000000" x2="510.600000" y2="42.000000"  style="stroke:black; stroke-linecap:round; stroke-width:0.25;"/>
<line x1="506.600000" y1="50.000000" x2="510.600000" y2="50.000000"  style="stroke:black; stroke-linecap:round; stroke-width:0.25;"/>
<line x1="510.600000" y1="42.000000" x2="520.600000" y2="42.000000"  style="stroke:black; stroke-linecap:round; stroke-width:0.25;"/>
<line x1="510.600000" y1="50.000000" x2="520.600000" y2="50.000000"  style="stroke:black; stroke-linecap:round; stroke-width:0.25;"/>
</svg>
