<?xml version="1.0"?>
<svg xmlns="http://www.w3.org/2000/svg" xmlns:xlink="http://www.w3.org/1999/xlink" viewBox="0 0 738.900000 280.000000" width="369.450000mm" height="140.000000mm" version="1.1">
<rect x="1.000000" y="1.000000" width="737.900000" height="279.000000" rx="0" ry="0" style="stroke:none;fill:#cccccc;"/>
<rect x="0.000000" y="0.000000" width="737.900000" height="279.000000" rx="0" ry="0" style="stroke:none;fill:#ffffff;"/>
<text x="10.000000" y="7.000000" font-family="Arial" font-size="7"></text>
<rect x="302.850000" y="35.000000" width="64.500000" height="24.000000" rx="0" ry="0" style="stroke:none;fill:#cccccc;"/>
<rect x="301.850000" y="34.000000" width="64.500000" height="24.000000" rx="0" ry="0" style="stroke:none;fill:#4B71A1;"/>
<text x="334.100000" y="48.000000" font-family="Arial" font-size="7" text-anchor="middle" fill="#FFFFFF">waveform{...}</text>
<circle cx="303.850000" cy="36.000000" r="1"/>
<line x1="292.850000" y1="25.000000" x2="292.850000" y2="67.000000"  style="stroke: black; stroke-linecap:round; stroke-width:0.25; stroke-dasharray:3,3;"/>
<line x1="292.850000" y1="67.000000" x2="375.350000" y2="67.000000"  style="stroke: black; stroke-linecap:round; stroke-width:0.25; stroke-dasharray:3,3;"/>
<line x1="375.350000" y1="67.000000" x2="375.350000" y2="25.000000"  style="stroke: black; stroke-linecap:round; stroke-width:0.25; stroke-dasharray:3,3;"/>
<line x1="292.850000" y1="25.000000" x2="297.850000" y2="25.000000"  style="stroke: black; stroke-linecap:round; stroke-width:0.25; stroke-dasharray:3,3;"/>
<line x1="343.000000" y1="25.000000" x2="375.350000" y2="25.000000"  style="stroke: black; stroke-linecap:round; stroke-width:0.25; stroke-dasharray:3,3;"/>
<text x="297.850000" y="27.000000" font-family="Arial" font-size="7">triangleWave</text>
<rect x="45.000000" y="97.000000" width="180.600000" height="24.000000" rx="0" ry="0" style="stroke:none;fill:#cccccc;"/>
<rect x="44.000000" y="96.000000" width="180.600000" height="24.000000" rx="0" ry="0" style="stroke:none;fill:#477881;"/>
<text x="134.300000" y="110.000000" font-family="Arial" font-size="7" text-anchor="middle" fill="#FFFFFF">hslider(freq, 4.4e+02, 5e+01, 2e+03, 0.01)</text>
<circle cx="46.000000" cy="98.000000" r="1"/>
<line x1="35.000000" y1="87.000000" x2="35.000000" y2="129.000000"  style="stroke: black; stroke-linecap:round; stroke-width:0.25; stroke-dasharray:3,3;"/>
<line x1="35.000000" y1="129.000000" x2="233.600000" y2="129.000000"  style="stroke: black; stroke-linecap:round; stroke-width:0.25; stroke-dasharray:3,3;"/>
<line x1="233.600000" y1="129.000000" x2="233.600000" y2="87.000000"  style="stroke: black; stroke-linecap:round; stroke-width:0.25; stroke-dasharray:3,3;"/>
<line x1="35.000000" y1="87.000000" x2="40.000000" y2="87.000000"  style="stroke: black; stroke-linecap:round; stroke-width:0.25; stroke-dasharray:3,3;"/>
<line x1="49.675000" y1="87.000000" x2="233.600000" y2="87.000000"  style="stroke: black; stroke-linecap:round; stroke-width:0.25; stroke-dasharray:3,3;"/>
<text x="40.000000" y="89.000000" font-family="Arial" font-size="7">f</text>
<rect x="85.500000" y="149.000000" width="25.800000" height="24.000000" rx="0" ry="0" style="stroke:none;fill:#cccccc;"/>
<rect x="84.500000" y="148.000000" width="25.800000" height="24.000000" rx="0" ry="0" style="stroke:none;fill:#f44800;"/>
<text x="97.400000" y="162.000000" font-family="Arial" font-size="7" text-anchor="middle" fill="#FFFFFF">192000</text>
<circle cx="86.500000" cy="150.000000" r="1"/>
<rect x="66.400000" y="181.000000" width="24.000000" height="24.000000" rx="0" ry="0" style="stroke:none;fill:#cccccc;"/>
<rect x="65.400000" y="180.000000" width="24.000000" height="24.000000" rx="0" ry="0" style="stroke:none;fill:#f44800;"/>
<text x="77.400000" y="194.000000" font-family="Arial" font-size="7" text-anchor="middle" fill="#FFFFFF">1</text>
<circle cx="67.400000" cy="182.000000" r="1"/>
<rect x="46.150000" y="213.000000" width="64.500000" height="24.000000" rx="0" ry="0" style="stroke:none;fill:#cccccc;"/>
<rect x="45.150000" y="212.000000" width="64.500000" height="24.000000" rx="0" ry="0" style="stroke:none;fill:#4B71A1;"/>
<text x="77.400000" y="226.000000" font-family="Arial" font-size="7" text-anchor="middle" fill="#FFFFFF">fSamplingFreq</text>
<circle cx="47.150000" cy="214.000000" r="1"/>
<rect x="126.650000" y="197.000000" width="24.000000" height="24.000000" rx="0" ry="0" style="stroke:none;fill:#cccccc;"/>
<rect x="125.650000" y="196.000000" width="24.000000" height="24.000000" rx="0" ry="0" style="stroke:none;fill:#4B71A1;"/>
<text x="137.650000" y="210.000000" font-family="Arial" font-size="7" text-anchor="middle" fill="#FFFFFF">max</text>
<circle cx="127.650000" cy="198.000000" r="1"/>
<line x1="122.650000" y1="203.000000" x2="125.650000" y2="204.000000"  transform="rotate(0.000000,125.650000,204.000000)" style="stroke: black; stroke-width:0.25;"/>
<line x1="122.650000" y1="205.000000" x2="125.650000" y2="204.000000"  transform="rotate(0.000000,125.650000,204.000000)" style="stroke: black; stroke-width:0.25;"/>
<line x1="122.650000" y1="211.000000" x2="125.650000" y2="212.000000"  transform="rotate(0.000000,125.650000,212.000000)" style="stroke: black; stroke-width:0.25;"/>
<line x1="122.650000" y1="213.000000" x2="125.650000" y2="212.000000"  transform="rotate(0.000000,125.650000,212.000000)" style="stroke: black; stroke-width:0.25;"/>
<rect x="166.650000" y="181.000000" width="24.000000" height="24.000000" rx="0" ry="0" style="stroke:none;fill:#cccccc;"/>
<rect x="165.650000" y="180.000000" width="24.000000" height="24.000000" rx="0" ry="0" style="stroke:none;fill:#4B71A1;"/>
<text x="177.650000" y="194.000000" font-family="Arial" font-size="7" text-anchor="middle" fill="#FFFFFF">min</text>
<circle cx="167.650000" cy="182.000000" r="1"/>
<line x1="162.650000" y1="187.000000" x2="165.650000" y2="188.000000"  transform="rotate(0.000000,165.650000,188.000000)" style="stroke: black; stroke-width:0.25;"/>
<line x1="162.650000" y1="189.000000" x2="165.650000" y2="188.000000"  transform="rotate(0.000000,165.650000,188.000000)" style="stroke: black; stroke-width:0.25;"/>
<line x1="162.650000" y1="195.000000" x2="165.650000" y2="196.000000"  transform="rotate(0.000000,165.650000,196.000000)" style="stroke: black; stroke-width:0.25;"/>
<line x1="162.650000" y1="197.000000" x2="165.650000" y2="196.000000"  transform="rotate(0.000000,165.650000,196.000000)" style="stroke: black; stroke-width:0.25;"/>
<line x1="36.150000" y1="139.000000" x2="36.150000" y2="245.000000"  style="stroke: black; stroke-linecap:round; stroke-width:0.25; stroke-dasharray:3,3;"/>
<line x1="36.150000" y1="245.000000" x2="198.650000" y2="245.000000"  style="stroke: black; stroke-linecap:round; stroke-width:0.25; stroke-dasharray:3,3;"/>
<line x1="198.650000" y1="245.000000" x2="198.650000" y2="139.000000"  style="stroke: black; stroke-linecap:round; stroke-width:0.25; stroke-dasharray:3,3;"/>
<line x1="36.150000" y1="139.000000" x2="41.150000" y2="139.000000"  style="stroke: black; stroke-linecap:round; stroke-width:0.25; stroke-dasharray:3,3;"/>
<line x1="54.050000" y1="139.000000" x2="198.650000" y2="139.000000"  style="stroke: black; stroke-linecap:round; stroke-width:0.25; stroke-dasharray:3,3;"/>
<text x="41.150000" y="141.000000" font-family="Arial" font-size="7">SR</text>
<rect x="208.650000" y="181.000000" width="25.800000" height="24.000000" rx="0" ry="0" style="stroke:none;fill:#cccccc;"/>
<rect x="207.650000" y="180.000000" width="25.800000" height="24.000000" rx="0" ry="0" style="stroke:none;fill:#4B71A1;"/>
<text x="220.550000" y="194.000000" font-family="Arial" font-size="7" text-anchor="middle" fill="#FFFFFF">float</text>
<circle cx="209.650000" cy="182.000000" r="1"/>
<line x1="204.650000" y1="191.000000" x2="207.650000" y2="192.000000"  transform="rotate(0.000000,207.650000,192.000000)" style="stroke: black; stroke-width:0.25;"/>
<line x1="204.650000" y1="193.000000" x2="207.650000" y2="192.000000"  transform="rotate(0.000000,207.650000,192.000000)" style="stroke: black; stroke-width:0.25;"/>
<rect x="251.600000" y="155.000000" width="24.000000" height="24.000000" rx="0" ry="0" style="stroke:none;fill:#cccccc;"/>
<rect x="250.600000" y="154.000000" width="24.000000" height="24.000000" rx="0" ry="0" style="stroke:none;fill:#4B71A1;"/>
<text x="262.600000" y="168.000000" font-family="Arial" font-size="7" text-anchor="middle" fill="#FFFFFF">/</text>
<circle cx="252.600000" cy="156.000000" r="1"/>
<line x1="247.600000" y1="161.000000" x2="250.600000" y2="162.000000"  transform="rotate(0.000000,250.600000,162.000000)" style="stroke: black; stroke-width:0.25;"/>
<line x1="247.600000" y1="163.000000" x2="250.600000" y2="162.000000"  transform="rotate(0.000000,250.600000,162.000000)" style="stroke: black; stroke-width:0.25;"/>
<line x1="247.600000" y1="169.000000" x2="250.600000" y2="170.000000"  transform="rotate(0.000000,250.600000,170.000000)" style="stroke: black; stroke-width:0.25;"/>
<line x1="247.600000" y1="171.000000" x2="250.600000" y2="170.000000"  transform="rotate(0.000000,250.600000,170.000000)" style="stroke: black; stroke-width:0.25;"/>
<rect x="299.600000" y="159.000000" width="24.000000" height="24.000000" rx="0" ry="0" style="stroke:none;fill:#cccccc;"/>
<rect x="298.600000" y="158.000000" width="24.000000" height="24.000000" rx="0" ry="0" style="stroke:none;fill:#4B71A1;"/>
<text x="310.600000" y="172.000000" font-family="Arial" font-size="7" text-anchor="middle" fill="#FFFFFF">+</text>
<circle cx="300.600000" cy="160.000000" r="1"/>
<line x1="295.600000" y1="165.000000" x2="298.600000" y2="166.000000"  transform="rotate(0.000000,298.600000,166.000000)" style="stroke: black; stroke-width:0.25;"/>
<line x1="295.600000" y1="167.000000" x2="298.600000" y2="166.000000"  transform="rotate(0.000000,298.600000,166.000000)" style="stroke: black; stroke-width:0.25;"/>
<line x1="295.600000" y1="173.000000" x2="298.600000" y2="174.000000"  transform="rotate(0.000000,298.600000,174.000000)" style="stroke: black; stroke-width:0.25;"/>
<line x1="295.600000" y1="175.000000" x2="298.600000" y2="174.000000"  transform="rotate(0.000000,298.600000,174.000000)" style="stroke: black; stroke-width:0.25;"/>
<rect x="341.600000" y="159.000000" width="24.000000" height="24.000000" rx="0" ry="0" style="stroke:none;fill:#cccccc;"/>
<rect x="340.600000" y="158.000000" width="24.000000" height="24.000000" rx="0" ry="0" style="stroke:none;fill:#47945E;"/>
<text x="352.600000" y="172.000000" font-family="Arial" font-size="7" text-anchor="middle" fill="#FFFFFF">n</text>
<circle cx="342.600000" cy="160.000000" r="1"/>
<line x1="337.600000" y1="169.000000" x2="340.600000" y2="170.000000"  transform="rotate(0.000000,340.600000,170.000000)" style="stroke: black; stroke-width:0.25;"/>
<line x1="337.600000" y1="171.000000" x2="340.600000" y2="170.000000"  transform="rotate(0.000000,340.600000,170.000000)" style="stroke: black; stroke-width:0.25;"/>
<rect x="390.500000" y="143.000000" width="24.000000" height="24.000000" rx="0" ry="0" style="stroke:none;fill:#cccccc;"/>
<rect x="389.500000" y="142.000000" width="24.000000" height="24.000000" rx="0" ry="0" style="stroke:none;fill:#47945E;"/>
<text x="401.500000" y="156.000000" font-family="Arial" font-size="7" text-anchor="middle" fill="#FFFFFF">n</text>
<circle cx="391.500000" cy="144.000000" r="1"/>
<rect x="373.600000" y="175.000000" width="24.000000" height="24.000000" rx="0" ry="0" style="stroke:none;fill:#cccccc;"/>
<rect x="372.600000" y="174.000000" width="24.000000" height="24.000000" rx="0" ry="0" style="stroke:none;fill:#47945E;"/>
<text x="384.600000" y="188.000000" font-family="Arial" font-size="7" text-anchor="middle" fill="#FFFFFF">n</text>
<circle cx="374.600000" cy="176.000000" r="1"/>
<rect x="405.600000" y="175.000000" width="25.800000" height="24.000000" rx="0" ry="0" style="stroke:none;fill:#cccccc;"/>
<rect x="404.600000" y="174.000000" width="25.800000" height="24.000000" rx="0" ry="0" style="stroke:none;fill:#4B71A1;"/>
<text x="417.500000" y="188.000000" font-family="Arial" font-size="7" text-anchor="middle" fill="#FFFFFF">floor</text>
<circle cx="406.600000" cy="176.000000" r="1"/>
<line x1="401.600000" y1="185.000000" x2="404.600000" y2="186.000000"  transform="rotate(0.000000,404.600000,186.000000)" style="stroke: black; stroke-width:0.25;"/>
<line x1="401.600000" y1="187.000000" x2="404.600000" y2="186.000000"  transform="rotate(0.000000,404.600000,186.000000)" style="stroke: black; stroke-width:0.25;"/>
<rect x="447.400000" y="159.000000" width="24.000000" height="24.000000" rx="0" ry="0" style="stroke:none;fill:#cccccc;"/>
<rect x="446.400000" y="158.000000" width="24.000000" height="24.000000" rx="0" ry="0" style="stroke:none;fill:#4B71A1;"/>
<text x="458.400000" y="172.000000" font-family="Arial" font-size="7" text-anchor="middle" fill="#FFFFFF">-</text>
<circle cx="448.400000" cy="160.000000" r="1"/>
<line x1="443.400000" y1="165.000000" x2="446.400000" y2="166.000000"  transform="rotate(0.000000,446.400000,166.000000)" style="stroke: black; stroke-width:0.25;"/>
<line x1="443.400000" y1="167.000000" x2="446.400000" y2="166.000000"  transform="rotate(0.000000,446.400000,166.000000)" style="stroke: black; stroke-width:0.25;"/>
<line x1="443.400000" y1="173.000000" x2="446.400000" y2="174.000000"  transform="rotate(0.000000,446.400000,174.000000)" style="stroke: black; stroke-width:0.25;"/>
<line x1="443.400000" y1="175.000000" x2="446.400000" y2="174.000000"  transform="rotate(0.000000,446.400000,174.000000)" style="stroke: black; stroke-width:0.25;"/>
<line x1="331.600000" y1="133.000000" x2="331.600000" y2="207.000000"  style="stroke: black; stroke-linecap:round; stroke-width:0.25; stroke-dasharray:3,3;"/>
<line x1="331.600000" y1="207.000000" x2="479.400000" y2="207.000000"  style="stroke: black; stroke-linecap:round; stroke-width:0.25; stroke-dasharray:3,3;"/>
<line x1="479.400000" y1="207.000000" x2="479.400000" y2="133.000000"  style="stroke: black; stroke-linecap:round; stroke-width:0.25; stroke-dasharray:3,3;"/>
<line x1="331.600000" y1="133.000000" x2="336.600000" y2="133.000000"  style="stroke: black; stroke-linecap:round; stroke-width:0.25; stroke-dasharray:3,3;"/>
<line x1="365.625000" y1="133.000000" x2="479.400000" y2="133.000000"  style="stroke: black; stroke-linecap:round; stroke-width:0.25; stroke-dasharray:3,3;"/>
<text x="336.600000" y="135.000000" font-family="Arial" font-size="7">decimal</text>
<line x1="482.400000" y1="170.000000" x2="482.400000" y2="166.000000"  style="stroke:black; stroke-linecap:round; stroke-width:0.25;"/>
<line x1="482.400000" y1="166.000000" x2="486.400000" y2="166.000000"  style="stroke:black; stroke-linecap:round; stroke-width:0.25;"/>
<line x1="486.400000" y1="166.000000" x2="486.400000" y2="170.000000"  style="stroke:black; stroke-linecap:round; stroke-width:0.25;"/>
<rect x="505.400000" y="159.000000" width="24.000000" height="24.000000" rx="0" ry="0" style="stroke:none;fill:#cccccc;"/>
<rect x="504.400000" y="158.000000" width="24.000000" height="24.000000" rx="0" ry="0" style="stroke:none;fill:#f44800;"/>
<text x="516.400000" y="172.000000" font-family="Arial" font-size="7" text-anchor="middle" fill="#FFFFFF">8</text>
<circle cx="506.400000" cy="160.000000" r="1"/>
<rect x="537.400000" y="159.000000" width="25.800000" height="24.000000" rx="0" ry="0" style="stroke:none;fill:#cccccc;"/>
<rect x="536.400000" y="158.000000" width="25.800000" height="24.000000" rx="0" ry="0" style="stroke:none;fill:#4B71A1;"/>
<text x="549.300000" y="172.000000" font-family="Arial" font-size="7" text-anchor="middle" fill="#FFFFFF">float</text>
<circle cx="538.400000" cy="160.000000" r="1"/>
<line x1="533.400000" y1="169.000000" x2="536.400000" y2="170.000000"  transform="rotate(0.000000,536.400000,170.000000)" style="stroke: black; stroke-width:0.25;"/>
<line x1="533.400000" y1="171.000000" x2="536.400000" y2="170.000000"  transform="rotate(0.000000,536.400000,170.000000)" style="stroke: black; stroke-width:0.25;"/>
<rect x="579.200000" y="155.000000" width="24.000000" height="24.000000" rx="0" ry="0" style="stroke:none;fill:#cccccc;"/>
<rect x="578.200000" y="154.000000" width="24.000000" height="24.000000" rx="0" ry="0" style="stroke:none;fill:#4B71A1;"/>
<text x="590.200000" y="168.000000" font-family="Arial" font-size="7" text-anchor="middle" fill="#FFFFFF">*</text>
<circle cx="580.200000" cy="156.000000" r="1"/>
<line x1="575.200000" y1="161.000000" x2="578.200000" y2="162.000000"  transform="rotate(0.000000,578.200000,162.000000)" style="stroke: black; stroke-width:0.25;"/>
<line x1="575.200000" y1="163.000000" x2="578.200000" y2="162.000000"  transform="rotate(0.000000,578.200000,162.000000)" style="stroke: black; stroke-width:0.25;"/>
<line x1="575.200000" y1="169.000000" x2="578.200000" y2="170.000000"  transform="rotate(0.000000,578.200000,170.000000)" style="stroke: black; stroke-width:0.25;"/>
<line x1="575.200000" y1="171.000000" x2="578.200000" y2="170.000000"  transform="rotate(0.000000,578.200000,170.000000)" style="stroke: black; stroke-width:0.25;"/>
<line x1="25.000000" y1="77.000000" x2="25.000000" y2="255.000000"  style="stroke: black; stroke-linecap:round; stroke-width:0.25; stroke-dasharray:3,3;"/>
<line x1="25.000000" y1="255.000000" x2="611.200000" y2="255.000000"  style="stroke: black; stroke-linecap:round; stroke-width:0.25; stroke-dasharray:3,3;"/>
<line x1="611.200000" y1="255.000000" x2="611.200000" y2="77.000000"  style="stroke: black; stroke-linecap:round; stroke-width:0.25; stroke-dasharray:3,3;"/>
<line x1="25.000000" y1="77.000000" x2="30.000000" y2="77.000000"  style="stroke: black; stroke-linecap:round; stroke-width:0.25; stroke-dasharray:3,3;"/>
<line x1="129.975000" y1="77.000000" x2="611.200000" y2="77.000000"  style="stroke: black; stroke-linecap:round; stroke-width:0.25; stroke-dasharray:3,3;"/>
<text x="30.000000" y="79.000000" font-family="Arial" font-size="7">phasor(8)(hsl...2e+03, 0.01))</text>
<rect x="621.200000" y="155.000000" width="24.000000" height="24.000000" rx="0" ry="0" style="stroke:none;fill:#cccccc;"/>
<rect x="620.200000" y="154.000000" width="24.000000" height="24.000000" rx="0" ry="0" style="stroke:none;fill:#4B71A1;"/>
<text x="632.200000" y="168.000000" font-family="Arial" font-size="7" text-anchor="middle" fill="#FFFFFF">int</text>
<circle cx="622.200000" cy="156.000000" r="1"/>
<line x1="617.200000" y1="165.000000" x2="620.200000" y2="166.000000"  transform="rotate(0.000000,620.200000,166.000000)" style="stroke: black; stroke-width:0.25;"/>
<line x1="617.200000" y1="167.000000" x2="620.200000" y2="166.000000"  transform="rotate(0.000000,620.200000,166.000000)" style="stroke: black; stroke-width:0.25;"/>
<rect x="669.200000" y="129.000000" width="38.700000" height="24.000000" rx="0" ry="0" style="stroke:none;fill:#cccccc;"/>
<rect x="668.200000" y="128.000000" width="38.700000" height="24.000000" rx="0" ry="0" style="stroke:none;fill:#4B71A1;"/>
<text x="687.550000" y="142.000000" font-family="Arial" font-size="7" text-anchor="middle" fill="#FFFFFF">rdtable</text>
<circle cx="670.200000" cy="130.000000" r="1"/>
<line x1="665.200000" y1="131.000000" x2="668.200000" y2="132.000000"  transform="rotate(0.000000,668.200000,132.000000)" style="stroke: black; stroke-width:0.25;"/>
<line x1="665.200000" y1="133.000000" x2="668.200000" y2="132.000000"  transform="rotate(0.000000,668.200000,132.000000)" style="stroke: black; stroke-width:0.25;"/>
<line x1="665.200000" y1="139.000000" x2="668.200000" y2="140.000000"  transform="rotate(0.000000,668.200000,140.000000)" style="stroke: black; stroke-width:0.25;"/>
<line x1="665.200000" y1="141.000000" x2="668.200000" y2="140.000000"  transform="rotate(0.000000,668.200000,140.000000)" style="stroke: black; stroke-width:0.25;"/>
<line x1="665.200000" y1="147.000000" x2="668.200000" y2="148.000000"  transform="rotate(0.000000,668.200000,148.000000)" style="stroke: black; stroke-width:0.25;"/>
<line x1="665.200000" y1="149.000000" x2="668.200000" y2="148.000000"  transform="rotate(0.000000,668.200000,148.000000)" style="stroke: black; stroke-width:0.25;"/>
<line x1="15.000000" y1="15.000000" x2="15.000000" y2="265.000000"  style="stroke: black; stroke-linecap:round; stroke-width:0.25; stroke-dasharray:3,3;"/>
<line x1="15.000000" y1="265.000000" x2="723.900000" y2="265.000000"  style="stroke: black; stroke-linecap:round; stroke-width:0.25; stroke-dasharray:3,3;"/>
<line x1="723.900000" y1="265.000000" x2="723.900000" y2="15.000000"  style="stroke: black; stroke-linecap:round; stroke-width:0.25; stroke-dasharray:3,3;"/>
<line x1="15.000000" y1="15.000000" x2="20.000000" y2="15.000000"  style="stroke: black; stroke-linecap:round; stroke-width:0.25; stroke-dasharray:3,3;"/>
<line x1="49.025000" y1="15.000000" x2="723.900000" y2="15.000000"  style="stroke: black; stroke-linecap:round; stroke-width:0.25; stroke-dasharray:3,3;"/>
<text x="20.000000" y="17.000000" font-family="Arial" font-size="7">process</text>
<line x1="725.900000" y1="139.000000" x2="728.900000" y2="140.000000"  transform="rotate(0.000000,728.900000,140.000000)" style="stroke: black; stroke-width:0.25;"/>
<line x1="725.900000" y1="141.000000" x2="728.900000" y2="140.000000"  transform="rotate(0.000000,728.900000,140.000000)" style="stroke: black; stroke-width:0.25;"/>
<line x1="89.400000" y1="192.000000" x2="93.400000" y2="192.000000"  style="stroke:black; stroke-linecap:round; stroke-width:0.25;"/>
<line x1="93.400000" y1="192.000000" x2="113.650000" y2="192.000000"  style="stroke:black; stroke-linecap:round; stroke-width:0.25;"/>
<line x1="109.650000" y1="224.000000" x2="113.650000" y2="224.000000"  style="stroke:black; stroke-linecap:round; stroke-width:0.25;"/>
<line x1="110.300000" y1="160.000000" x2="114.300000" y2="160.000000"  style="stroke:black; stroke-linecap:round; stroke-width:0.25;"/>
<line x1="113.650000" y1="192.000000" x2="121.650000" y2="192.000000"  style="stroke:black; stroke-linecap:round; stroke-width:0.25;"/>
<line x1="113.650000" y1="212.000000" x2="121.650000" y2="212.000000"  style="stroke:black; stroke-linecap:round; stroke-width:0.25;"/>
<line x1="113.650000" y1="224.000000" x2="113.650000" y2="212.000000"  style="stroke:black; stroke-linecap:round; stroke-width:0.25;"/>
<line x1="113.650000" y1="224.000000" x2="113.650000" y2="224.000000"  style="stroke:black; stroke-linecap:round; stroke-width:0.25;"/>
<line x1="114.300000" y1="160.000000" x2="153.650000" y2="160.000000"  style="stroke:black; stroke-linecap:round; stroke-width:0.25;"/>
<line x1="121.650000" y1="192.000000" x2="121.650000" y2="204.000000"  style="stroke:black; stroke-linecap:round; stroke-width:0.25;"/>
<line x1="121.650000" y1="204.000000" x2="121.650000" y2="204.000000"  style="stroke:black; stroke-linecap:round; stroke-width:0.25;"/>
<line x1="121.650000" y1="204.000000" x2="125.650000" y2="204.000000"  style="stroke:black; stroke-linecap:round; stroke-width:0.25;"/>
<line x1="121.650000" y1="212.000000" x2="125.650000" y2="212.000000"  style="stroke:black; stroke-linecap:round; stroke-width:0.25;"/>
<line x1="149.650000" y1="208.000000" x2="153.650000" y2="208.000000"  style="stroke:black; stroke-linecap:round; stroke-width:0.25;"/>
<line x1="153.650000" y1="196.000000" x2="161.650000" y2="196.000000"  style="stroke:black; stroke-linecap:round; stroke-width:0.25;"/>
<line x1="153.650000" y1="208.000000" x2="153.650000" y2="196.000000"  style="stroke:black; stroke-linecap:round; stroke-width:0.25;"/>
<line x1="153.650000" y1="208.000000" x2="153.650000" y2="208.000000"  style="stroke:black; stroke-linecap:round; stroke-width:0.25;"/>
<line x1="153.650000" y1="160.000000" x2="161.650000" y2="160.000000"  style="stroke:black; stroke-linecap:round; stroke-width:0.25;"/>
<line x1="161.650000" y1="188.000000" x2="165.650000" y2="188.000000"  style="stroke:black; stroke-linecap:round; stroke-width:0.25;"/>
<line x1="161.650000" y1="196.000000" x2="165.650000" y2="196.000000"  style="stroke:black; stroke-linecap:round; stroke-width:0.25;"/>
<line x1="161.650000" y1="160.000000" x2="161.650000" y2="188.000000"  style="stroke:black; stroke-linecap:round; stroke-width:0.25;"/>
<line x1="161.650000" y1="188.000000" x2="161.650000" y2="188.000000"  style="stroke:black; stroke-linecap:round; stroke-width:0.25;"/>
<line x1="189.650000" y1="192.000000" x2="193.650000" y2="192.000000"  style="stroke:black; stroke-linecap:round; stroke-width:0.25;"/>
<line x1="193.650000" y1="192.000000" x2="203.650000" y2="192.000000"  style="stroke:black; stroke-linecap:round; stroke-width:0.25;"/>
<line x1="203.650000" y1="192.000000" x2="203.650000" y2="192.000000"  style="stroke:black; stroke-linecap:round; stroke-width:0.25;"/>
<line x1="203.650000" y1="192.000000" x2="207.650000" y2="192.000000"  style="stroke:black; stroke-linecap:round; stroke-width:0.25;"/>
<line x1="224.600000" y1="108.000000" x2="228.600000" y2="108.000000"  style="stroke:black; stroke-linecap:round; stroke-width:0.25;"/>
<line x1="228.600000" y1="108.000000" x2="238.600000" y2="108.000000"  style="stroke:black; stroke-linecap:round; stroke-width:0.25;"/>
<line x1="233.450000" y1="192.000000" x2="237.450000" y2="192.000000"  style="stroke:black; stroke-linecap:round; stroke-width:0.25;"/>
<line x1="237.450000" y1="192.000000" x2="238.600000" y2="192.000000"  style="stroke:black; stroke-linecap:round; stroke-width:0.25;"/>
<line x1="238.600000" y1="170.000000" x2="246.600000" y2="170.000000"  style="stroke:black; stroke-linecap:round; stroke-width:0.25;"/>
<line x1="238.600000" y1="192.000000" x2="238.600000" y2="170.000000"  style="stroke:black; stroke-linecap:round; stroke-width:0.25;"/>
<line x1="238.600000" y1="192.000000" x2="238.600000" y2="192.000000"  style="stroke:black; stroke-linecap:round; stroke-width:0.25;"/>
<line x1="238.600000" y1="108.000000" x2="246.600000" y2="108.000000"  style="stroke:black; stroke-linecap:round; stroke-width:0.25;"/>
<line x1="246.600000" y1="108.000000" x2="246.600000" y2="162.000000"  style="stroke:black; stroke-linecap:round; stroke-width:0.25;"/>
<line x1="246.600000" y1="162.000000" x2="246.600000" y2="162.000000"  style="stroke:black; stroke-linecap:round; stroke-width:0.25;"/>
<line x1="246.600000" y1="162.000000" x2="250.600000" y2="162.000000"  style="stroke:black; stroke-linecap:round; stroke-width:0.25;"/>
<line x1="246.600000" y1="170.000000" x2="250.600000" y2="170.000000"  style="stroke:black; stroke-linecap:round; stroke-width:0.25;"/>
<line x1="274.600000" y1="166.000000" x2="278.600000" y2="166.000000"  style="stroke:black; stroke-linecap:round; stroke-width:0.25;"/>
<line x1="278.600000" y1="166.000000" x2="286.600000" y2="166.000000"  style="stroke:black; stroke-linecap:round; stroke-width:0.25;"/>
<line x1="286.600000" y1="166.000000" x2="286.600000" y2="174.000000"  style="stroke:black; stroke-linecap:round; stroke-width:0.25;"/>
<line x1="286.600000" y1="174.000000" x2="286.600000" y2="174.000000"  style="stroke:black; stroke-linecap:round; stroke-width:0.25;"/>
<line x1="286.600000" y1="174.000000" x2="294.600000" y2="174.000000"  style="stroke:black; stroke-linecap:round; stroke-width:0.25;"/>
<line x1="294.600000" y1="124.000000" x2="294.600000" y2="124.000000"  style="stroke:black; stroke-linecap:round; stroke-width:0.25;"/>
<line x1="294.600000" y1="124.000000" x2="294.600000" y2="166.000000"  style="stroke:black; stroke-linecap:round; stroke-width:0.25;"/>
<line x1="294.600000" y1="166.000000" x2="294.600000" y2="166.000000"  style="stroke:black; stroke-linecap:round; stroke-width:0.25;"/>
<line x1="294.600000" y1="166.000000" x2="298.600000" y2="166.000000"  style="stroke:black; stroke-linecap:round; stroke-width:0.25;"/>
<line x1="294.600000" y1="174.000000" x2="298.600000" y2="174.000000"  style="stroke:black; stroke-linecap:round; stroke-width:0.25;"/>
<line x1="322.600000" y1="170.000000" x2="326.600000" y2="170.000000"  style="stroke:black; stroke-linecap:round; stroke-width:0.25;"/>
<line x1="326.600000" y1="170.000000" x2="326.600000" y2="170.000000"  style="stroke:black; stroke-linecap:round; stroke-width:0.25;"/>
<line x1="326.600000" y1="170.000000" x2="336.600000" y2="170.000000"  style="stroke:black; stroke-linecap:round; stroke-width:0.25;"/>
<line x1="336.600000" y1="170.000000" x2="340.600000" y2="170.000000"  style="stroke:black; stroke-linecap:round; stroke-width:0.25;"/>
<line x1="366.350000" y1="42.000000" x2="370.350000" y2="42.000000"  style="stroke:black; stroke-linecap:round; stroke-width:0.25;"/>
<line x1="366.350000" y1="50.000000" x2="370.350000" y2="50.000000"  style="stroke:black; stroke-linecap:round; stroke-width:0.25;"/>
<line x1="370.350000" y1="42.000000" x2="380.350000" y2="42.000000"  style="stroke:black; stroke-linecap:round; stroke-width:0.25;"/>
<line x1="370.350000" y1="50.000000" x2="380.350000" y2="50.000000"  style="stroke:black; stroke-linecap:round; stroke-width:0.25;"/>
<line x1="380.350000" y1="42.000000" x2="648.200000" y2="42.000000"  style="stroke:black; stroke-linecap:round; stroke-width:0.25;"/>
<line x1="380.350000" y1="50.000000" x2="648.200000" y2="50.000000"  style="stroke:black; stroke-linecap:round; stroke-width:0.25;"/>
<line x1="389.500000" y1="124.000000" x2="294.600000" y2="124.000000"  style="stroke:black; stroke-linecap:round; stroke-width:0.25;"/>
<line x1="396.600000" y1="186.000000" x2="400.600000" y2="186.000000"  style="stroke:black; stroke-linecap:round; stroke-width:0.25;"/>
<line x1="400.600000" y1="186.000000" x2="400.600000" y2="186.000000"  style="stroke:black; stroke-linecap:round; stroke-width:0.25;"/>
<line x1="400.600000" y1="186.000000" x2="404.600000" y2="186.000000"  style="stroke:black; stroke-linecap:round; stroke-width:0.25;"/>
<line x1="413.500000" y1="154.000000" x2="417.500000" y2="154.000000"  style="stroke:black; stroke-linecap:round; stroke-width:0.25;"/>
<line x1="417.500000" y1="154.000000" x2="434.400000" y2="154.000000"  style="stroke:black; stroke-linecap:round; stroke-width:0.25;"/>
<line x1="430.400000" y1="186.000000" x2="434.400000" y2="186.000000"  style="stroke:black; stroke-linecap:round; stroke-width:0.25;"/>
<line x1="434.400000" y1="154.000000" x2="442.400000" y2="154.000000"  style="stroke:black; stroke-linecap:round; stroke-width:0.25;"/>
<line x1="434.400000" y1="174.000000" x2="442.400000" y2="174.000000"  style="stroke:black; stroke-linecap:round; stroke-width:0.25;"/>
<line x1="434.400000" y1="186.000000" x2="434.400000" y2="174.000000"  style="stroke:black; stroke-linecap:round; stroke-width:0.25;"/>
<line x1="434.400000" y1="186.000000" x2="434.400000" y2="186.000000"  style="stroke:black; stroke-linecap:round; stroke-width:0.25;"/>
<line x1="442.400000" y1="154.000000" x2="442.400000" y2="166.000000"  style="stroke:black; stroke-linecap:round; stroke-width:0.25;"/>
<line x1="442.400000" y1="166.000000" x2="442.400000" y2="166.000000"  style="stroke:black; stroke-linecap:round; stroke-width:0.25;"/>
<line x1="442.400000" y1="166.000000" x2="446.400000" y2="166.000000"  style="stroke:black; stroke-linecap:round; stroke-width:0.25;"/>
<line x1="442.400000" y1="174.000000" x2="446.400000" y2="174.000000"  style="stroke:black; stroke-linecap:round; stroke-width:0.25;"/>
<line x1="470.400000" y1="170.000000" x2="474.400000" y2="170.000000"  style="stroke:black; stroke-linecap:round; stroke-width:0.25;"/>
<line x1="474.400000" y1="170.000000" x2="484.400000" y2="170.000000"  style="stroke:black; stroke-linecap:round; stroke-width:0.25;"/>
<line x1="484.400000" y1="124.000000" x2="389.500000" y2="124.000000"  style="stroke:black; stroke-linecap:round; stroke-width:0.25;"/>
<line x1="484.400000" y1="124.000000" x2="484.400000" y2="124.000000"  style="stroke:black; stroke-linecap:round; stroke-width:0.25;"/>
<line x1="484.400000" y1="166.000000" x2="484.400000" y2="124.000000"  style="stroke:black; stroke-linecap:round; stroke-width:0.25;"/>
<line x1="484.400000" y1="170.000000" x2="486.400000" y2="170.000000"  style="stroke:black; stroke-linecap:round; stroke-width:0.25;"/>
<line x1="486.400000" y1="170.000000" x2="492.400000" y2="170.000000"  style="stroke:black; stroke-linecap:round; stroke-width:0.25;"/>
<line x1="492.400000" y1="150.000000" x2="500.400000" y2="150.000000"  style="stroke:black; stroke-linecap:round; stroke-width:0.25;"/>
<line x1="492.400000" y1="170.000000" x2="492.400000" y2="150.000000"  style="stroke:black; stroke-linecap:round; stroke-width:0.25;"/>
<line x1="492.400000" y1="170.000000" x2="492.400000" y2="170.000000"  style="stroke:black; stroke-linecap:round; stroke-width:0.25;"/>
<line x1="500.400000" y1="150.000000" x2="533.300000" y2="150.000000"  style="stroke:black; stroke-linecap:round; stroke-width:0.25;"/>
<line x1="528.400000" y1="170.000000" x2="532.400000" y2="170.000000"  style="stroke:black; stroke-linecap:round; stroke-width:0.25;"/>
<line x1="532.400000" y1="170.000000" x2="532.400000" y2="170.000000"  style="stroke:black; stroke-linecap:round; stroke-width:0.25;"/>
<line x1="532.400000" y1="170.000000" x2="536.400000" y2="170.000000"  style="stroke:black; stroke-linecap:round; stroke-width:0.25;"/>
<line x1="533.300000" y1="150.000000" x2="566.200000" y2="150.000000"  style="stroke:black; stroke-linecap:round; stroke-width:0.25;"/>
<line x1="562.200000" y1="170.000000" x2="566.200000" y2="170.000000"  style="stroke:black; stroke-linecap:round; stroke-width:0.25;"/>
<line x1="566.200000" y1="150.000000" x2="574.200000" y2="150.000000"  style="stroke:black; stroke-linecap:round; stroke-width:0.25;"/>
<line x1="566.200000" y1="170.000000" x2="574.200000" y2="170.000000"  style="stroke:black; stroke-linecap:round; stroke-width:0.25;"/>
<line x1="574.200000" y1="150.000000" x2="574.200000" y2="162.000000"  style="stroke:black; stroke-linecap:round; stroke-width:0.25;"/>
<line x1="574.200000" y1="162.000000" x2="574.200000" y2="162.000000"  style="stroke:black; stroke-linecap:round; stroke-width:0.25;"/>
<line x1="574.200000" y1="162.000000" x2="578.200000" y2="162.000000"  style="stroke:black; stroke-linecap:round; stroke-width:0.25;"/>
<line x1="574.200000" y1="170.000000" x2="578.200000" y2="170.000000"  style="stroke:black; stroke-linecap:round; stroke-width:0.25;"/>
<line x1="602.200000" y1="166.000000" x2="606.200000" y2="166.000000"  style="stroke:black; stroke-linecap:round; stroke-width:0.25;"/>
<line x1="606.200000" y1="166.000000" x2="616.200000" y2="166.000000"  style="stroke:black; stroke-linecap:round; stroke-width:0.25;"/>
<line x1="616.200000" y1="166.000000" x2="616.200000" y2="166.000000"  style="stroke:black; stroke-linecap:round; stroke-width:0.25;"/>
<line x1="616.200000" y1="166.000000" x2="620.200000" y2="166.000000"  style="stroke:black; stroke-linecap:round; stroke-width:0.25;"/>
<line x1="644.200000" y1="166.000000" x2="648.200000" y2="166.000000"  style="stroke:black; stroke-linecap:round; stroke-width:0.25;"/>
<line x1="648.200000" y1="42.000000" x2="664.200000" y2="42.000000"  style="stroke:black; stroke-linecap:round; stroke-width:0.25;"/>
<line x1="648.200000" y1="50.000000" x2="656.200000" y2="50.000000"  style="stroke:black; stroke-linecap:round; stroke-width:0.25;"/>
<line x1="648.200000" y1="148.000000" x2="664.200000" y2="148.000000"  style="stroke:black; stroke-linecap:round; stroke-width:0.25;"/>
<line x1="648.200000" y1="166.000000" x2="648.200000" y2="148.000000"  style="stroke:black; stroke-linecap:round; stroke-width:0.25;"/>
<line x1="648.200000" y1="166.000000" x2="648.200000" y2="166.000000"  style="stroke:black; stroke-linecap:round; stroke-width:0.25;"/>
<line x1="656.200000" y1="50.000000" x2="656.200000" y2="140.000000"  style="stroke:black; stroke-linecap:round; stroke-width:0.25;"/>
<line x1="656.200000" y1="140.000000" x2="664.200000" y2="140.000000"  style="stroke:black; stroke-linecap:round; stroke-width:0.25;"/>
<line x1="664.200000" y1="42.000000" x2="664.200000" y2="132.000000"  style="stroke:black; stroke-linecap:round; stroke-width:0.25;"/>
<line x1="664.200000" y1="132.000000" x2="664.200000" y2="132.000000"  style="stroke:black; stroke-linecap:round; stroke-width:0.25;"/>
<line x1="664.200000" y1="132.000000" x2="668.200000" y2="132.000000"  style="stroke:black; stroke-linecap:round; stroke-width:0.25;"/>
<line x1="664.200000" y1="140.000000" x2="668.200000" y2="140.000000"  style="stroke:black; stroke-linecap:round; stroke-width:0.25;"/>
<line x1="664.200000" y1="148.000000" x2="668.200000" y2="148.000000"  style="stroke:black; stroke-linecap:round; stroke-width:0.25;"/>
<line x1="706.900000" y1="140.000000" x2="710.900000" y2="140.000000"  style="stroke:black; stroke-linecap:round; stroke-width:0.25;"/>
<line x1="710.900000" y1="140.000000" x2="710.900000" y2="140.000000"  style="stroke:black; stroke-linecap:round; stroke-width:0.25;"/>
<line x1="710.900000" y1="140.000000" x2="714.900000" y2="140.000000"  style="stroke:black; stroke-linecap:round; stroke-width:0.25;"/>
<line x1="714.900000" y1="140.000000" x2="718.900000" y2="140.000000"  style="stroke:black; stroke-linecap:round; stroke-width:0.25;"/>
<line x1="718.900000" y1="140.000000" x2="728.900000" y2="140.000000"  style="stroke:black; stroke-linecap:round; stroke-width:0.25;"/>
</svg>
