<?xml version="1.0"?>
<svg xmlns="http://www.w3.org/2000/svg" xmlns:xlink="http://www.w3.org/1999/xlink" viewBox="0 0 469.800000 296.000000" width="234.900000mm" height="148.000000mm" version="1.1">
<rect x="1.000000" y="1.000000" width="468.800000" height="295.000000" rx="0" ry="0" style="stroke:none;fill:#cccccc;"/>
<rect x="0.000000" y="0.000000" width="468.800000" height="295.000000" rx="0" ry="0" style="stroke:none;fill:#ffffff;"/>
<text x="10.000000" y="7.000000" font-family="Arial" font-size="7"></text>
<rect x="49.000000" y="89.000000" width="25.800000" height="24.000000" rx="0" ry="0" style="stroke:none;fill:#cccccc;"/>
<rect x="48.000000" y="88.000000" width="25.800000" height="24.000000" rx="0" ry="0" style="stroke:none;fill:#47945E;"/>
<text x="60.900000" y="102.000000" font-family="Arial" font-size="7" text-anchor="middle" fill="#FFFFFF">sig1</text>
<circle cx="50.000000" cy="90.000000" r="1"/>
<line x1="45.000000" y1="99.000000" x2="48.000000" y2="100.000000"  transform="rotate(0.000000,48.000000,100.000000)" style="stroke: black; stroke-width:0.25;"/>
<line x1="45.000000" y1="101.000000" x2="48.000000" y2="100.000000"  transform="rotate(0.000000,48.000000,100.000000)" style="stroke: black; stroke-width:0.25;"/>
<rect x="49.000000" y="121.000000" width="25.800000" height="24.000000" rx="0" ry="0" style="stroke:none;fill:#cccccc;"/>
<rect x="48.000000" y="120.000000" width="25.800000" height="24.000000" rx="0" ry="0" style="stroke:none;fill:#47945E;"/>
<text x="60.900000" y="134.000000" font-family="Arial" font-size="7" text-anchor="middle" fill="#FFFFFF">sig2</text>
<circle cx="50.000000" cy="122.000000" r="1"/>
<line x1="45.000000" y1="131.000000" x2="48.000000" y2="132.000000"  transform="rotate(0.000000,48.000000,132.000000)" style="stroke: black; stroke-width:0.25;"/>
<line x1="45.000000" y1="133.000000" x2="48.000000" y2="132.000000"  transform="rotate(0.000000,48.000000,132.000000)" style="stroke: black; stroke-width:0.25;"/>
<rect x="49.000000" y="153.000000" width="25.800000" height="24.000000" rx="0" ry="0" style="stroke:none;fill:#cccccc;"/>
<rect x="48.000000" y="152.000000" width="25.800000" height="24.000000" rx="0" ry="0" style="stroke:none;fill:#47945E;"/>
<text x="60.900000" y="166.000000" font-family="Arial" font-size="7" text-anchor="middle" fill="#FFFFFF">sig3</text>
<circle cx="50.000000" cy="154.000000" r="1"/>
<line x1="45.000000" y1="163.000000" x2="48.000000" y2="164.000000"  transform="rotate(0.000000,48.000000,164.000000)" style="stroke: black; stroke-width:0.25;"/>
<line x1="45.000000" y1="165.000000" x2="48.000000" y2="164.000000"  transform="rotate(0.000000,48.000000,164.000000)" style="stroke: black; stroke-width:0.25;"/>
<rect x="49.000000" y="185.000000" width="25.800000" height="24.000000" rx="0" ry="0" style="stroke:none;fill:#cccccc;"/>
<rect x="48.000000" y="184.000000" width="25.800000" height="24.000000" rx="0" ry="0" style="stroke:none;fill:#47945E;"/>
<text x="60.900000" y="198.000000" font-family="Arial" font-size="7" text-anchor="middle" fill="#FFFFFF">sig4</text>
<circle cx="50.000000" cy="186.000000" r="1"/>
<line x1="45.000000" y1="195.000000" x2="48.000000" y2="196.000000"  transform="rotate(0.000000,48.000000,196.000000)" style="stroke: black; stroke-width:0.25;"/>
<line x1="45.000000" y1="197.000000" x2="48.000000" y2="196.000000"  transform="rotate(0.000000,48.000000,196.000000)" style="stroke: black; stroke-width:0.25;"/>
<a xlink:href="map-0x7f8fecd94bb0.svg">
<rect x="82.800000" y="25.000000" width="129.000000" height="56.000000" rx="0" ry="0" style="stroke:none;fill:#cccccc;"/>
<rect x="81.800000" y="24.000000" width="129.000000" height="56.000000" rx="0" ry="0" style="stroke:none;fill:#003366;"/>
</a>
<a xlink:href="map-0x7f8fecd94bb0.svg">
<text x="146.300000" y="54.000000" font-family="Arial" font-size="7" text-anchor="middle" fill="#FFFFFF">map(3)(x1)(hs...elect2) : *))</text>
</a>
<circle cx="83.800000" cy="26.000000" r="1"/>
<a xlink:href="map-0x7f8fee0131c0.svg">
<rect x="82.800000" y="89.000000" width="129.000000" height="56.000000" rx="0" ry="0" style="stroke:none;fill:#cccccc;"/>
<rect x="81.800000" y="88.000000" width="129.000000" height="56.000000" rx="0" ry="0" style="stroke:none;fill:#003366;"/>
</a>
<a xlink:href="map-0x7f8fee0131c0.svg">
<text x="146.300000" y="118.000000" font-family="Arial" font-size="7" text-anchor="middle" fill="#FFFFFF">map(3)(x2)(hs...elect2) : *))</text>
</a>
<circle cx="83.800000" cy="90.000000" r="1"/>
<a xlink:href="map-0x7f8fee08d850.svg">
<rect x="82.800000" y="153.000000" width="129.000000" height="56.000000" rx="0" ry="0" style="stroke:none;fill:#cccccc;"/>
<rect x="81.800000" y="152.000000" width="129.000000" height="56.000000" rx="0" ry="0" style="stroke:none;fill:#003366;"/>
</a>
<a xlink:href="map-0x7f8fee08d850.svg">
<text x="146.300000" y="182.000000" font-family="Arial" font-size="7" text-anchor="middle" fill="#FFFFFF">map(3)(x3)(hs...elect2) : *))</text>
</a>
<circle cx="83.800000" cy="154.000000" r="1"/>
<a xlink:href="map-0x7f8fee10bce0.svg">
<rect x="82.800000" y="217.000000" width="129.000000" height="56.000000" rx="0" ry="0" style="stroke:none;fill:#cccccc;"/>
<rect x="81.800000" y="216.000000" width="129.000000" height="56.000000" rx="0" ry="0" style="stroke:none;fill:#003366;"/>
</a>
<a xlink:href="map-0x7f8fee10bce0.svg">
<text x="146.300000" y="246.000000" font-family="Arial" font-size="7" text-anchor="middle" fill="#FFFFFF">map(3)(x4)(hs...elect2) : *))</text>
</a>
<circle cx="83.800000" cy="218.000000" r="1"/>
<a xlink:href="optimInPhase-0x7f8fee175a30.svg">
<rect x="301.800000" y="121.000000" width="64.500000" height="56.000000" rx="0" ry="0" style="stroke:none;fill:#cccccc;"/>
<rect x="300.800000" y="120.000000" width="64.500000" height="56.000000" rx="0" ry="0" style="stroke:none;fill:#003366;"/>
</a>
<a xlink:href="optimInPhase-0x7f8fee175a30.svg">
<text x="333.050000" y="150.000000" font-family="Arial" font-size="7" text-anchor="middle" fill="#FFFFFF">optimInPhase(3)</text>
</a>
<circle cx="302.800000" cy="122.000000" r="1"/>
<line x1="297.800000" y1="123.000000" x2="300.800000" y2="124.000000"  transform="rotate(0.000000,300.800000,124.000000)" style="stroke: black; stroke-width:0.25;"/>
<line x1="297.800000" y1="125.000000" x2="300.800000" y2="124.000000"  transform="rotate(0.000000,300.800000,124.000000)" style="stroke: black; stroke-width:0.25;"/>
<line x1="297.800000" y1="131.000000" x2="300.800000" y2="132.000000"  transform="rotate(0.000000,300.800000,132.000000)" style="stroke: black; stroke-width:0.25;"/>
<line x1="297.800000" y1="133.000000" x2="300.800000" y2="132.000000"  transform="rotate(0.000000,300.800000,132.000000)" style="stroke: black; stroke-width:0.25;"/>
<line x1="297.800000" y1="139.000000" x2="300.800000" y2="140.000000"  transform="rotate(0.000000,300.800000,140.000000)" style="stroke: black; stroke-width:0.25;"/>
<line x1="297.800000" y1="141.000000" x2="300.800000" y2="140.000000"  transform="rotate(0.000000,300.800000,140.000000)" style="stroke: black; stroke-width:0.25;"/>
<line x1="297.800000" y1="147.000000" x2="300.800000" y2="148.000000"  transform="rotate(0.000000,300.800000,148.000000)" style="stroke: black; stroke-width:0.25;"/>
<line x1="297.800000" y1="149.000000" x2="300.800000" y2="148.000000"  transform="rotate(0.000000,300.800000,148.000000)" style="stroke: black; stroke-width:0.25;"/>
<line x1="297.800000" y1="155.000000" x2="300.800000" y2="156.000000"  transform="rotate(0.000000,300.800000,156.000000)" style="stroke: black; stroke-width:0.25;"/>
<line x1="297.800000" y1="157.000000" x2="300.800000" y2="156.000000"  transform="rotate(0.000000,300.800000,156.000000)" style="stroke: black; stroke-width:0.25;"/>
<line x1="297.800000" y1="163.000000" x2="300.800000" y2="164.000000"  transform="rotate(0.000000,300.800000,164.000000)" style="stroke: black; stroke-width:0.25;"/>
<line x1="297.800000" y1="165.000000" x2="300.800000" y2="164.000000"  transform="rotate(0.000000,300.800000,164.000000)" style="stroke: black; stroke-width:0.25;"/>
<line x1="297.800000" y1="171.000000" x2="300.800000" y2="172.000000"  transform="rotate(0.000000,300.800000,172.000000)" style="stroke: black; stroke-width:0.25;"/>
<line x1="297.800000" y1="173.000000" x2="300.800000" y2="172.000000"  transform="rotate(0.000000,300.800000,172.000000)" style="stroke: black; stroke-width:0.25;"/>
<a xlink:href="decoder-0x7f8fee38b8f0.svg">
<rect x="374.300000" y="117.000000" width="64.500000" height="64.000000" rx="0" ry="0" style="stroke:none;fill:#cccccc;"/>
<rect x="373.300000" y="116.000000" width="64.500000" height="64.000000" rx="0" ry="0" style="stroke:none;fill:#003366;"/>
</a>
<a xlink:href="decoder-0x7f8fee38b8f0.svg">
<text x="405.550000" y="150.000000" font-family="Arial" font-size="7" text-anchor="middle" fill="#FFFFFF">decoder(3)(8)</text>
</a>
<circle cx="375.300000" cy="118.000000" r="1"/>
<line x1="370.300000" y1="123.000000" x2="373.300000" y2="124.000000"  transform="rotate(0.000000,373.300000,124.000000)" style="stroke: black; stroke-width:0.25;"/>
<line x1="370.300000" y1="125.000000" x2="373.300000" y2="124.000000"  transform="rotate(0.000000,373.300000,124.000000)" style="stroke: black; stroke-width:0.25;"/>
<line x1="370.300000" y1="131.000000" x2="373.300000" y2="132.000000"  transform="rotate(0.000000,373.300000,132.000000)" style="stroke: black; stroke-width:0.25;"/>
<line x1="370.300000" y1="133.000000" x2="373.300000" y2="132.000000"  transform="rotate(0.000000,373.300000,132.000000)" style="stroke: black; stroke-width:0.25;"/>
<line x1="370.300000" y1="139.000000" x2="373.300000" y2="140.000000"  transform="rotate(0.000000,373.300000,140.000000)" style="stroke: black; stroke-width:0.25;"/>
<line x1="370.300000" y1="141.000000" x2="373.300000" y2="140.000000"  transform="rotate(0.000000,373.300000,140.000000)" style="stroke: black; stroke-width:0.25;"/>
<line x1="370.300000" y1="147.000000" x2="373.300000" y2="148.000000"  transform="rotate(0.000000,373.300000,148.000000)" style="stroke: black; stroke-width:0.25;"/>
<line x1="370.300000" y1="149.000000" x2="373.300000" y2="148.000000"  transform="rotate(0.000000,373.300000,148.000000)" style="stroke: black; stroke-width:0.25;"/>
<line x1="370.300000" y1="155.000000" x2="373.300000" y2="156.000000"  transform="rotate(0.000000,373.300000,156.000000)" style="stroke: black; stroke-width:0.25;"/>
<line x1="370.300000" y1="157.000000" x2="373.300000" y2="156.000000"  transform="rotate(0.000000,373.300000,156.000000)" style="stroke: black; stroke-width:0.25;"/>
<line x1="370.300000" y1="163.000000" x2="373.300000" y2="164.000000"  transform="rotate(0.000000,373.300000,164.000000)" style="stroke: black; stroke-width:0.25;"/>
<line x1="370.300000" y1="165.000000" x2="373.300000" y2="164.000000"  transform="rotate(0.000000,373.300000,164.000000)" style="stroke: black; stroke-width:0.25;"/>
<line x1="370.300000" y1="171.000000" x2="373.300000" y2="172.000000"  transform="rotate(0.000000,373.300000,172.000000)" style="stroke: black; stroke-width:0.25;"/>
<line x1="370.300000" y1="173.000000" x2="373.300000" y2="172.000000"  transform="rotate(0.000000,373.300000,172.000000)" style="stroke: black; stroke-width:0.25;"/>
<line x1="15.000000" y1="15.000000" x2="15.000000" y2="281.000000"  style="stroke: black; stroke-linecap:round; stroke-width:0.25; stroke-dasharray:3,3;"/>
<line x1="15.000000" y1="281.000000" x2="454.800000" y2="281.000000"  style="stroke: black; stroke-linecap:round; stroke-width:0.25; stroke-dasharray:3,3;"/>
<line x1="454.800000" y1="281.000000" x2="454.800000" y2="15.000000"  style="stroke: black; stroke-linecap:round; stroke-width:0.25; stroke-dasharray:3,3;"/>
<line x1="15.000000" y1="15.000000" x2="20.000000" y2="15.000000"  style="stroke: black; stroke-linecap:round; stroke-width:0.25; stroke-dasharray:3,3;"/>
<line x1="49.025000" y1="15.000000" x2="454.800000" y2="15.000000"  style="stroke: black; stroke-linecap:round; stroke-width:0.25; stroke-dasharray:3,3;"/>
<text x="20.000000" y="17.000000" font-family="Arial" font-size="7">process</text>
<line x1="456.800000" y1="119.000000" x2="459.800000" y2="120.000000"  transform="rotate(0.000000,459.800000,120.000000)" style="stroke: black; stroke-width:0.25;"/>
<line x1="456.800000" y1="121.000000" x2="459.800000" y2="120.000000"  transform="rotate(0.000000,459.800000,120.000000)" style="stroke: black; stroke-width:0.25;"/>
<line x1="456.800000" y1="127.000000" x2="459.800000" y2="128.000000"  transform="rotate(0.000000,459.800000,128.000000)" style="stroke: black; stroke-width:0.25;"/>
<line x1="456.800000" y1="129.000000" x2="459.800000" y2="128.000000"  transform="rotate(0.000000,459.800000,128.000000)" style="stroke: black; stroke-width:0.25;"/>
<line x1="456.800000" y1="135.000000" x2="459.800000" y2="136.000000"  transform="rotate(0.000000,459.800000,136.000000)" style="stroke: black; stroke-width:0.25;"/>
<line x1="456.800000" y1="137.000000" x2="459.800000" y2="136.000000"  transform="rotate(0.000000,459.800000,136.000000)" style="stroke: black; stroke-width:0.25;"/>
<line x1="456.800000" y1="143.000000" x2="459.800000" y2="144.000000"  transform="rotate(0.000000,459.800000,144.000000)" style="stroke: black; stroke-width:0.25;"/>
<line x1="456.800000" y1="145.000000" x2="459.800000" y2="144.000000"  transform="rotate(0.000000,459.800000,144.000000)" style="stroke: black; stroke-width:0.25;"/>
<line x1="456.800000" y1="151.000000" x2="459.800000" y2="152.000000"  transform="rotate(0.000000,459.800000,152.000000)" style="stroke: black; stroke-width:0.25;"/>
<line x1="456.800000" y1="153.000000" x2="459.800000" y2="152.000000"  transform="rotate(0.000000,459.800000,152.000000)" style="stroke: black; stroke-width:0.25;"/>
<line x1="456.800000" y1="159.000000" x2="459.800000" y2="160.000000"  transform="rotate(0.000000,459.800000,160.000000)" style="stroke: black; stroke-width:0.25;"/>
<line x1="456.800000" y1="161.000000" x2="459.800000" y2="160.000000"  transform="rotate(0.000000,459.800000,160.000000)" style="stroke: black; stroke-width:0.25;"/>
<line x1="456.800000" y1="167.000000" x2="459.800000" y2="168.000000"  transform="rotate(0.000000,459.800000,168.000000)" style="stroke: black; stroke-width:0.25;"/>
<line x1="456.800000" y1="169.000000" x2="459.800000" y2="168.000000"  transform="rotate(0.000000,459.800000,168.000000)" style="stroke: black; stroke-width:0.25;"/>
<line x1="456.800000" y1="175.000000" x2="459.800000" y2="176.000000"  transform="rotate(0.000000,459.800000,176.000000)" style="stroke: black; stroke-width:0.25;"/>
<line x1="456.800000" y1="177.000000" x2="459.800000" y2="176.000000"  transform="rotate(0.000000,459.800000,176.000000)" style="stroke: black; stroke-width:0.25;"/>
<line x1="10.000000" y1="136.000000" x2="20.000000" y2="136.000000"  style="stroke:black; stroke-linecap:round; stroke-width:0.25;"/>
<line x1="10.000000" y1="144.000000" x2="20.000000" y2="144.000000"  style="stroke:black; stroke-linecap:round; stroke-width:0.25;"/>
<line x1="10.000000" y1="152.000000" x2="20.000000" y2="152.000000"  style="stroke:black; stroke-linecap:round; stroke-width:0.25;"/>
<line x1="10.000000" y1="160.000000" x2="20.000000" y2="160.000000"  style="stroke:black; stroke-linecap:round; stroke-width:0.25;"/>
<line x1="20.000000" y1="136.000000" x2="24.000000" y2="136.000000"  style="stroke:black; stroke-linecap:round; stroke-width:0.25;"/>
<line x1="20.000000" y1="144.000000" x2="24.000000" y2="144.000000"  style="stroke:black; stroke-linecap:round; stroke-width:0.25;"/>
<line x1="20.000000" y1="152.000000" x2="24.000000" y2="152.000000"  style="stroke:black; stroke-linecap:round; stroke-width:0.25;"/>
<line x1="20.000000" y1="160.000000" x2="24.000000" y2="160.000000"  style="stroke:black; stroke-linecap:round; stroke-width:0.25;"/>
<line x1="24.000000" y1="136.000000" x2="28.000000" y2="136.000000"  style="stroke:black; stroke-linecap:round; stroke-width:0.25;"/>
<line x1="24.000000" y1="144.000000" x2="28.000000" y2="144.000000"  style="stroke:black; stroke-linecap:round; stroke-width:0.25;"/>
<line x1="24.000000" y1="152.000000" x2="28.000000" y2="152.000000"  style="stroke:black; stroke-linecap:round; stroke-width:0.25;"/>
<line x1="24.000000" y1="160.000000" x2="28.000000" y2="160.000000"  style="stroke:black; stroke-linecap:round; stroke-width:0.25;"/>
<line x1="28.000000" y1="100.000000" x2="44.000000" y2="100.000000"  style="stroke:black; stroke-linecap:round; stroke-width:0.25;"/>
<line x1="28.000000" y1="136.000000" x2="28.000000" y2="100.000000"  style="stroke:black; stroke-linecap:round; stroke-width:0.25;"/>
<line x1="28.000000" y1="136.000000" x2="28.000000" y2="136.000000"  style="stroke:black; stroke-linecap:round; stroke-width:0.25;"/>
<line x1="28.000000" y1="144.000000" x2="36.000000" y2="144.000000"  style="stroke:black; stroke-linecap:round; stroke-width:0.25;"/>
<line x1="28.000000" y1="152.000000" x2="44.000000" y2="152.000000"  style="stroke:black; stroke-linecap:round; stroke-width:0.25;"/>
<line x1="28.000000" y1="160.000000" x2="36.000000" y2="160.000000"  style="stroke:black; stroke-linecap:round; stroke-width:0.25;"/>
<line x1="36.000000" y1="132.000000" x2="44.000000" y2="132.000000"  style="stroke:black; stroke-linecap:round; stroke-width:0.25;"/>
<line x1="36.000000" y1="144.000000" x2="36.000000" y2="132.000000"  style="stroke:black; stroke-linecap:round; stroke-width:0.25;"/>
<line x1="36.000000" y1="160.000000" x2="36.000000" y2="196.000000"  style="stroke:black; stroke-linecap:round; stroke-width:0.25;"/>
<line x1="36.000000" y1="196.000000" x2="44.000000" y2="196.000000"  style="stroke:black; stroke-linecap:round; stroke-width:0.25;"/>
<line x1="44.000000" y1="100.000000" x2="48.000000" y2="100.000000"  style="stroke:black; stroke-linecap:round; stroke-width:0.25;"/>
<line x1="44.000000" y1="132.000000" x2="48.000000" y2="132.000000"  style="stroke:black; stroke-linecap:round; stroke-width:0.25;"/>
<line x1="44.000000" y1="152.000000" x2="44.000000" y2="164.000000"  style="stroke:black; stroke-linecap:round; stroke-width:0.25;"/>
<line x1="44.000000" y1="164.000000" x2="44.000000" y2="164.000000"  style="stroke:black; stroke-linecap:round; stroke-width:0.25;"/>
<line x1="44.000000" y1="164.000000" x2="48.000000" y2="164.000000"  style="stroke:black; stroke-linecap:round; stroke-width:0.25;"/>
<line x1="44.000000" y1="196.000000" x2="48.000000" y2="196.000000"  style="stroke:black; stroke-linecap:round; stroke-width:0.25;"/>
<line x1="210.800000" y1="28.000000" x2="214.800000" y2="28.000000"  style="stroke:black; stroke-linecap:round; stroke-width:0.25;"/>
<line x1="210.800000" y1="36.000000" x2="214.800000" y2="36.000000"  style="stroke:black; stroke-linecap:round; stroke-width:0.25;"/>
<line x1="210.800000" y1="44.000000" x2="214.800000" y2="44.000000"  style="stroke:black; stroke-linecap:round; stroke-width:0.25;"/>
<line x1="210.800000" y1="52.000000" x2="214.800000" y2="52.000000"  style="stroke:black; stroke-linecap:round; stroke-width:0.25;"/>
<line x1="210.800000" y1="60.000000" x2="214.800000" y2="60.000000"  style="stroke:black; stroke-linecap:round; stroke-width:0.25;"/>
<line x1="210.800000" y1="68.000000" x2="214.800000" y2="68.000000"  style="stroke:black; stroke-linecap:round; stroke-width:0.25;"/>
<line x1="210.800000" y1="76.000000" x2="214.800000" y2="76.000000"  style="stroke:black; stroke-linecap:round; stroke-width:0.25;"/>
<line x1="210.800000" y1="92.000000" x2="214.800000" y2="92.000000"  style="stroke:black; stroke-linecap:round; stroke-width:0.25;"/>
<line x1="210.800000" y1="100.000000" x2="214.800000" y2="100.000000"  style="stroke:black; stroke-linecap:round; stroke-width:0.25;"/>
<line x1="210.800000" y1="108.000000" x2="214.800000" y2="108.000000"  style="stroke:black; stroke-linecap:round; stroke-width:0.25;"/>
<line x1="210.800000" y1="116.000000" x2="214.800000" y2="116.000000"  style="stroke:black; stroke-linecap:round; stroke-width:0.25;"/>
<line x1="210.800000" y1="124.000000" x2="214.800000" y2="124.000000"  style="stroke:black; stroke-linecap:round; stroke-width:0.25;"/>
<line x1="210.800000" y1="132.000000" x2="214.800000" y2="132.000000"  style="stroke:black; stroke-linecap:round; stroke-width:0.25;"/>
<line x1="210.800000" y1="140.000000" x2="214.800000" y2="140.000000"  style="stroke:black; stroke-linecap:round; stroke-width:0.25;"/>
<line x1="210.800000" y1="156.000000" x2="214.800000" y2="156.000000"  style="stroke:black; stroke-linecap:round; stroke-width:0.25;"/>
<line x1="210.800000" y1="164.000000" x2="214.800000" y2="164.000000"  style="stroke:black; stroke-linecap:round; stroke-width:0.25;"/>
<line x1="210.800000" y1="172.000000" x2="214.800000" y2="172.000000"  style="stroke:black; stroke-linecap:round; stroke-width:0.25;"/>
<line x1="210.800000" y1="180.000000" x2="214.800000" y2="180.000000"  style="stroke:black; stroke-linecap:round; stroke-width:0.25;"/>
<line x1="210.800000" y1="188.000000" x2="214.800000" y2="188.000000"  style="stroke:black; stroke-linecap:round; stroke-width:0.25;"/>
<line x1="210.800000" y1="196.000000" x2="214.800000" y2="196.000000"  style="stroke:black; stroke-linecap:round; stroke-width:0.25;"/>
<line x1="210.800000" y1="204.000000" x2="214.800000" y2="204.000000"  style="stroke:black; stroke-linecap:round; stroke-width:0.25;"/>
<line x1="210.800000" y1="220.000000" x2="214.800000" y2="220.000000"  style="stroke:black; stroke-linecap:round; stroke-width:0.25;"/>
<line x1="210.800000" y1="228.000000" x2="214.800000" y2="228.000000"  style="stroke:black; stroke-linecap:round; stroke-width:0.25;"/>
<line x1="210.800000" y1="236.000000" x2="214.800000" y2="236.000000"  style="stroke:black; stroke-linecap:round; stroke-width:0.25;"/>
<line x1="210.800000" y1="244.000000" x2="214.800000" y2="244.000000"  style="stroke:black; stroke-linecap:round; stroke-width:0.25;"/>
<line x1="210.800000" y1="252.000000" x2="214.800000" y2="252.000000"  style="stroke:black; stroke-linecap:round; stroke-width:0.25;"/>
<line x1="210.800000" y1="260.000000" x2="214.800000" y2="260.000000"  style="stroke:black; stroke-linecap:round; stroke-width:0.25;"/>
<line x1="210.800000" y1="268.000000" x2="214.800000" y2="268.000000"  style="stroke:black; stroke-linecap:round; stroke-width:0.25;"/>
<line x1="214.800000" y1="28.000000" x2="296.800000" y2="124.000000"  style="stroke:black; stroke-linecap:round; stroke-width:0.25;"/>
<line x1="214.800000" y1="36.000000" x2="296.800000" y2="132.000000"  style="stroke:black; stroke-linecap:round; stroke-width:0.25;"/>
<line x1="214.800000" y1="44.000000" x2="296.800000" y2="140.000000"  style="stroke:black; stroke-linecap:round; stroke-width:0.25;"/>
<line x1="214.800000" y1="52.000000" x2="296.800000" y2="148.000000"  style="stroke:black; stroke-linecap:round; stroke-width:0.25;"/>
<line x1="214.800000" y1="60.000000" x2="296.800000" y2="156.000000"  style="stroke:black; stroke-linecap:round; stroke-width:0.25;"/>
<line x1="214.800000" y1="68.000000" x2="296.800000" y2="164.000000"  style="stroke:black; stroke-linecap:round; stroke-width:0.25;"/>
<line x1="214.800000" y1="76.000000" x2="296.800000" y2="172.000000"  style="stroke:black; stroke-linecap:round; stroke-width:0.25;"/>
<line x1="214.800000" y1="92.000000" x2="296.800000" y2="124.000000"  style="stroke:black; stroke-linecap:round; stroke-width:0.25;"/>
<line x1="214.800000" y1="100.000000" x2="296.800000" y2="132.000000"  style="stroke:black; stroke-linecap:round; stroke-width:0.25;"/>
<line x1="214.800000" y1="108.000000" x2="296.800000" y2="140.000000"  style="stroke:black; stroke-linecap:round; stroke-width:0.25;"/>
<line x1="214.800000" y1="116.000000" x2="296.800000" y2="148.000000"  style="stroke:black; stroke-linecap:round; stroke-width:0.25;"/>
<line x1="214.800000" y1="124.000000" x2="296.800000" y2="156.000000"  style="stroke:black; stroke-linecap:round; stroke-width:0.25;"/>
<line x1="214.800000" y1="132.000000" x2="296.800000" y2="164.000000"  style="stroke:black; stroke-linecap:round; stroke-width:0.25;"/>
<line x1="214.800000" y1="140.000000" x2="296.800000" y2="172.000000"  style="stroke:black; stroke-linecap:round; stroke-width:0.25;"/>
<line x1="214.800000" y1="156.000000" x2="296.800000" y2="124.000000"  style="stroke:black; stroke-linecap:round; stroke-width:0.25;"/>
<line x1="214.800000" y1="164.000000" x2="296.800000" y2="132.000000"  style="stroke:black; stroke-linecap:round; stroke-width:0.25;"/>
<line x1="214.800000" y1="172.000000" x2="296.800000" y2="140.000000"  style="stroke:black; stroke-linecap:round; stroke-width:0.25;"/>
<line x1="214.800000" y1="180.000000" x2="296.800000" y2="148.000000"  style="stroke:black; stroke-linecap:round; stroke-width:0.25;"/>
<line x1="214.800000" y1="188.000000" x2="296.800000" y2="156.000000"  style="stroke:black; stroke-linecap:round; stroke-width:0.25;"/>
<line x1="214.800000" y1="196.000000" x2="296.800000" y2="164.000000"  style="stroke:black; stroke-linecap:round; stroke-width:0.25;"/>
<line x1="214.800000" y1="204.000000" x2="296.800000" y2="172.000000"  style="stroke:black; stroke-linecap:round; stroke-width:0.25;"/>
<line x1="214.800000" y1="220.000000" x2="296.800000" y2="124.000000"  style="stroke:black; stroke-linecap:round; stroke-width:0.25;"/>
<line x1="214.800000" y1="228.000000" x2="296.800000" y2="132.000000"  style="stroke:black; stroke-linecap:round; stroke-width:0.25;"/>
<line x1="214.800000" y1="236.000000" x2="296.800000" y2="140.000000"  style="stroke:black; stroke-linecap:round; stroke-width:0.25;"/>
<line x1="214.800000" y1="244.000000" x2="296.800000" y2="148.000000"  style="stroke:black; stroke-linecap:round; stroke-width:0.25;"/>
<line x1="214.800000" y1="252.000000" x2="296.800000" y2="156.000000"  style="stroke:black; stroke-linecap:round; stroke-width:0.25;"/>
<line x1="214.800000" y1="260.000000" x2="296.800000" y2="164.000000"  style="stroke:black; stroke-linecap:round; stroke-width:0.25;"/>
<line x1="214.800000" y1="268.000000" x2="296.800000" y2="172.000000"  style="stroke:black; stroke-linecap:round; stroke-width:0.25;"/>
<line x1="296.800000" y1="124.000000" x2="300.800000" y2="124.000000"  style="stroke:black; stroke-linecap:round; stroke-width:0.25;"/>
<line x1="296.800000" y1="132.000000" x2="300.800000" y2="132.000000"  style="stroke:black; stroke-linecap:round; stroke-width:0.25;"/>
<line x1="296.800000" y1="140.000000" x2="300.800000" y2="140.000000"  style="stroke:black; stroke-linecap:round; stroke-width:0.25;"/>
<line x1="296.800000" y1="148.000000" x2="300.800000" y2="148.000000"  style="stroke:black; stroke-linecap:round; stroke-width:0.25;"/>
<line x1="296.800000" y1="156.000000" x2="300.800000" y2="156.000000"  style="stroke:black; stroke-linecap:round; stroke-width:0.25;"/>
<line x1="296.800000" y1="164.000000" x2="300.800000" y2="164.000000"  style="stroke:black; stroke-linecap:round; stroke-width:0.25;"/>
<line x1="296.800000" y1="172.000000" x2="300.800000" y2="172.000000"  style="stroke:black; stroke-linecap:round; stroke-width:0.25;"/>
<line x1="365.300000" y1="124.000000" x2="369.300000" y2="124.000000"  style="stroke:black; stroke-linecap:round; stroke-width:0.25;"/>
<line x1="365.300000" y1="132.000000" x2="369.300000" y2="132.000000"  style="stroke:black; stroke-linecap:round; stroke-width:0.25;"/>
<line x1="365.300000" y1="140.000000" x2="369.300000" y2="140.000000"  style="stroke:black; stroke-linecap:round; stroke-width:0.25;"/>
<line x1="365.300000" y1="148.000000" x2="369.300000" y2="148.000000"  style="stroke:black; stroke-linecap:round; stroke-width:0.25;"/>
<line x1="365.300000" y1="156.000000" x2="369.300000" y2="156.000000"  style="stroke:black; stroke-linecap:round; stroke-width:0.25;"/>
<line x1="365.300000" y1="164.000000" x2="369.300000" y2="164.000000"  style="stroke:black; stroke-linecap:round; stroke-width:0.25;"/>
<line x1="365.300000" y1="172.000000" x2="369.300000" y2="172.000000"  style="stroke:black; stroke-linecap:round; stroke-width:0.25;"/>
<line x1="369.300000" y1="124.000000" x2="369.300000" y2="124.000000"  style="stroke:black; stroke-linecap:round; stroke-width:0.25;"/>
<line x1="369.300000" y1="124.000000" x2="373.300000" y2="124.000000"  style="stroke:black; stroke-linecap:round; stroke-width:0.25;"/>
<line x1="369.300000" y1="132.000000" x2="369.300000" y2="132.000000"  style="stroke:black; stroke-linecap:round; stroke-width:0.25;"/>
<line x1="369.300000" y1="132.000000" x2="373.300000" y2="132.000000"  style="stroke:black; stroke-linecap:round; stroke-width:0.25;"/>
<line x1="369.300000" y1="140.000000" x2="369.300000" y2="140.000000"  style="stroke:black; stroke-linecap:round; stroke-width:0.25;"/>
<line x1="369.300000" y1="140.000000" x2="373.300000" y2="140.000000"  style="stroke:black; stroke-linecap:round; stroke-width:0.25;"/>
<line x1="369.300000" y1="148.000000" x2="369.300000" y2="148.000000"  style="stroke:black; stroke-linecap:round; stroke-width:0.25;"/>
<line x1="369.300000" y1="148.000000" x2="373.300000" y2="148.000000"  style="stroke:black; stroke-linecap:round; stroke-width:0.25;"/>
<line x1="369.300000" y1="156.000000" x2="369.300000" y2="156.000000"  style="stroke:black; stroke-linecap:round; stroke-width:0.25;"/>
<line x1="369.300000" y1="156.000000" x2="373.300000" y2="156.000000"  style="stroke:black; stroke-linecap:round; stroke-width:0.25;"/>
<line x1="369.300000" y1="164.000000" x2="369.300000" y2="164.000000"  style="stroke:black; stroke-linecap:round; stroke-width:0.25;"/>
<line x1="369.300000" y1="164.000000" x2="373.300000" y2="164.000000"  style="stroke:black; stroke-linecap:round; stroke-width:0.25;"/>
<line x1="369.300000" y1="172.000000" x2="369.300000" y2="172.000000"  style="stroke:black; stroke-linecap:round; stroke-width:0.25;"/>
<line x1="369.300000" y1="172.000000" x2="373.300000" y2="172.000000"  style="stroke:black; stroke-linecap:round; stroke-width:0.25;"/>
<line x1="437.800000" y1="120.000000" x2="441.800000" y2="120.000000"  style="stroke:black; stroke-linecap:round; stroke-width:0.25;"/>
<line x1="437.800000" y1="128.000000" x2="441.800000" y2="128.000000"  style="stroke:black; stroke-linecap:round; stroke-width:0.25;"/>
<line x1="437.800000" y1="136.000000" x2="441.800000" y2="136.000000"  style="stroke:black; stroke-linecap:round; stroke-width:0.25;"/>
<line x1="437.800000" y1="144.000000" x2="441.800000" y2="144.000000"  style="stroke:black; stroke-linecap:round; stroke-width:0.25;"/>
<line x1="437.800000" y1="152.000000" x2="441.800000" y2="152.000000"  style="stroke:black; stroke-linecap:round; stroke-width:0.25;"/>
<line x1="437.800000" y1="160.000000" x2="441.800000" y2="160.000000"  style="stroke:black; stroke-linecap:round; stroke-width:0.25;"/>
<line x1="437.800000" y1="168.000000" x2="441.800000" y2="168.000000"  style="stroke:black; stroke-linecap:round; stroke-width:0.25;"/>
<line x1="437.800000" y1="176.000000" x2="441.800000" y2="176.000000"  style="stroke:black; stroke-linecap:round; stroke-width:0.25;"/>
<line x1="441.800000" y1="120.000000" x2="441.800000" y2="120.000000"  style="stroke:black; stroke-linecap:round; stroke-width:0.25;"/>
<line x1="441.800000" y1="120.000000" x2="445.800000" y2="120.000000"  style="stroke:black; stroke-linecap:round; stroke-width:0.25;"/>
<line x1="441.800000" y1="128.000000" x2="441.800000" y2="128.000000"  style="stroke:black; stroke-linecap:round; stroke-width:0.25;"/>
<line x1="441.800000" y1="128.000000" x2="445.800000" y2="128.000000"  style="stroke:black; stroke-linecap:round; stroke-width:0.25;"/>
<line x1="441.800000" y1="136.000000" x2="441.800000" y2="136.000000"  style="stroke:black; stroke-linecap:round; stroke-width:0.25;"/>
<line x1="441.800000" y1="136.000000" x2="445.800000" y2="136.000000"  style="stroke:black; stroke-linecap:round; stroke-width:0.25;"/>
<line x1="441.800000" y1="144.000000" x2="441.800000" y2="144.000000"  style="stroke:black; stroke-linecap:round; stroke-width:0.25;"/>
<line x1="441.800000" y1="144.000000" x2="445.800000" y2="144.000000"  style="stroke:black; stroke-linecap:round; stroke-width:0.25;"/>
<line x1="441.800000" y1="152.000000" x2="441.800000" y2="152.000000"  style="stroke:black; stroke-linecap:round; stroke-width:0.25;"/>
<line x1="441.800000" y1="152.000000" x2="445.800000" y2="152.000000"  style="stroke:black; stroke-linecap:round; stroke-width:0.25;"/>
<line x1="441.800000" y1="160.000000" x2="441.800000" y2="160.000000"  style="stroke:black; stroke-linecap:round; stroke-width:0.25;"/>
<line x1="441.800000" y1="160.000000" x2="445.800000" y2="160.000000"  style="stroke:black; stroke-linecap:round; stroke-width:0.25;"/>
<line x1="441.800000" y1="168.000000" x2="441.800000" y2="168.000000"  style="stroke:black; stroke-linecap:round; stroke-width:0.25;"/>
<line x1="441.800000" y1="168.000000" x2="445.800000" y2="168.000000"  style="stroke:black; stroke-linecap:round; stroke-width:0.25;"/>
<line x1="441.800000" y1="176.000000" x2="441.800000" y2="176.000000"  style="stroke:black; stroke-linecap:round; stroke-width:0.25;"/>
<line x1="441.800000" y1="176.000000" x2="445.800000" y2="176.000000"  style="stroke:black; stroke-linecap:round; stroke-width:0.25;"/>
<line x1="445.800000" y1="120.000000" x2="449.800000" y2="120.000000"  style="stroke:black; stroke-linecap:round; stroke-width:0.25;"/>
<line x1="445.800000" y1="128.000000" x2="449.800000" y2="128.000000"  style="stroke:black; stroke-linecap:round; stroke-width:0.25;"/>
<line x1="445.800000" y1="136.000000" x2="449.800000" y2="136.000000"  style="stroke:black; stroke-linecap:round; stroke-width:0.25;"/>
<line x1="445.800000" y1="144.000000" x2="449.800000" y2="144.000000"  style="stroke:black; stroke-linecap:round; stroke-width:0.25;"/>
<line x1="445.800000" y1="152.000000" x2="449.800000" y2="152.000000"  style="stroke:black; stroke-linecap:round; stroke-width:0.25;"/>
<line x1="445.800000" y1="160.000000" x2="449.800000" y2="160.000000"  style="stroke:black; stroke-linecap:round; stroke-width:0.25;"/>
<line x1="445.800000" y1="168.000000" x2="449.800000" y2="168.000000"  style="stroke:black; stroke-linecap:round; stroke-width:0.25;"/>
<line x1="445.800000" y1="176.000000" x2="449.800000" y2="176.000000"  style="stroke:black; stroke-linecap:round; stroke-width:0.25;"/>
<line x1="449.800000" y1="120.000000" x2="459.800000" y2="120.000000"  style="stroke:black; stroke-linecap:round; stroke-width:0.25;"/>
<line x1="449.800000" y1="128.000000" x2="459.800000" y2="128.000000"  style="stroke:black; stroke-linecap:round; stroke-width:0.25;"/>
<line x1="449.800000" y1="136.000000" x2="459.800000" y2="136.000000"  style="stroke:black; stroke-linecap:round; stroke-width:0.25;"/>
<line x1="449.800000" y1="144.000000" x2="459.800000" y2="144.000000"  style="stroke:black; stroke-linecap:round; stroke-width:0.25;"/>
<line x1="449.800000" y1="152.000000" x2="459.800000" y2="152.000000"  style="stroke:black; stroke-linecap:round; stroke-width:0.25;"/>
<line x1="449.800000" y1="160.000000" x2="459.800000" y2="160.000000"  style="stroke:black; stroke-linecap:round; stroke-width:0.25;"/>
<line x1="449.800000" y1="168.000000" x2="459.800000" y2="168.000000"  style="stroke:black; stroke-linecap:round; stroke-width:0.25;"/>
<line x1="449.800000" y1="176.000000" x2="459.800000" y2="176.000000"  style="stroke:black; stroke-linecap:round; stroke-width:0.25;"/>
</svg>
