<?xml version="1.0"?>
<svg xmlns="http://www.w3.org/2000/svg" xmlns:xlink="http://www.w3.org/1999/xlink" viewBox="0 0 267.600000 208.000000" width="133.800000mm" height="104.000000mm" version="1.1">
<a xlink:href="fbdelaylines-0x7f8acd4dbeb0.svg">
<rect x="1.000000" y="1.000000" width="266.600000" height="207.000000" rx="0" ry="0" style="stroke:none;fill:#cccccc;"/>
<rect x="0.000000" y="0.000000" width="266.600000" height="207.000000" rx="0" ry="0" style="stroke:none;fill:#ffffff;"/>
</a>
<text x="10.000000" y="7.000000" font-family="Arial" font-size="7"></text>
<rect x="33.000000" y="93.000000" width="24.000000" height="24.000000" rx="0" ry="0" style="stroke:none;fill:#cccccc;"/>
<rect x="32.000000" y="92.000000" width="24.000000" height="24.000000" rx="0" ry="0" style="stroke:none;fill:#47945E;"/>
<text x="44.000000" y="106.000000" font-family="Arial" font-size="7" text-anchor="middle" fill="#FFFFFF">x</text>
<circle cx="34.000000" cy="94.000000" r="1"/>
<line x1="29.000000" y1="103.000000" x2="32.000000" y2="104.000000"  transform="rotate(0.000000,32.000000,104.000000)" style="stroke: black; stroke-width:0.25;"/>
<line x1="29.000000" y1="105.000000" x2="32.000000" y2="104.000000"  transform="rotate(0.000000,32.000000,104.000000)" style="stroke: black; stroke-width:0.25;"/>
<rect x="118.800000" y="25.000000" width="24.000000" height="24.000000" rx="0" ry="0" style="stroke:none;fill:#cccccc;"/>
<rect x="117.800000" y="24.000000" width="24.000000" height="24.000000" rx="0" ry="0" style="stroke:none;fill:#47945E;"/>
<text x="129.800000" y="38.000000" font-family="Arial" font-size="7" text-anchor="middle" fill="#FFFFFF">x</text>
<circle cx="119.800000" cy="26.000000" r="1"/>
<rect x="97.900000" y="67.000000" width="25.800000" height="24.000000" rx="0" ry="0" style="stroke:none;fill:#cccccc;"/>
<rect x="96.900000" y="66.000000" width="25.800000" height="24.000000" rx="0" ry="0" style="stroke:none;fill:#f44800;"/>
<text x="109.800000" y="80.000000" font-family="Arial" font-size="7" text-anchor="middle" fill="#FFFFFF">8192</text>
<circle cx="98.900000" cy="68.000000" r="1"/>
<line x1="87.900000" y1="57.000000" x2="87.900000" y2="99.000000"  style="stroke: black; stroke-linecap:round; stroke-width:0.25; stroke-dasharray:3,3;"/>
<line x1="87.900000" y1="99.000000" x2="131.700000" y2="99.000000"  style="stroke: black; stroke-linecap:round; stroke-width:0.25; stroke-dasharray:3,3;"/>
<line x1="131.700000" y1="99.000000" x2="131.700000" y2="57.000000"  style="stroke: black; stroke-linecap:round; stroke-width:0.25; stroke-dasharray:3,3;"/>
<line x1="87.900000" y1="57.000000" x2="92.900000" y2="57.000000"  style="stroke: black; stroke-linecap:round; stroke-width:0.25; stroke-dasharray:3,3;"/>
<line x1="131.700000" y1="57.000000" x2="131.700000" y2="57.000000"  style="stroke: black; stroke-linecap:round; stroke-width:0.25; stroke-dasharray:3,3;"/>
<text x="92.900000" y="59.000000" font-family="Arial" font-size="7">maxfbdelay(0)</text>
<rect x="78.800000" y="119.000000" width="24.000000" height="24.000000" rx="0" ry="0" style="stroke:none;fill:#cccccc;"/>
<rect x="77.800000" y="118.000000" width="24.000000" height="24.000000" rx="0" ry="0" style="stroke:none;fill:#f44800;"/>
<text x="89.800000" y="132.000000" font-family="Arial" font-size="7" text-anchor="middle" fill="#FFFFFF">0</text>
<circle cx="79.800000" cy="120.000000" r="1"/>
<line x1="68.800000" y1="109.000000" x2="68.800000" y2="151.000000"  style="stroke: black; stroke-linecap:round; stroke-width:0.25; stroke-dasharray:3,3;"/>
<line x1="68.800000" y1="151.000000" x2="110.800000" y2="151.000000"  style="stroke: black; stroke-linecap:round; stroke-width:0.25; stroke-dasharray:3,3;"/>
<line x1="110.800000" y1="151.000000" x2="110.800000" y2="109.000000"  style="stroke: black; stroke-linecap:round; stroke-width:0.25; stroke-dasharray:3,3;"/>
<line x1="68.800000" y1="109.000000" x2="73.800000" y2="109.000000"  style="stroke: black; stroke-linecap:round; stroke-width:0.25; stroke-dasharray:3,3;"/>
<line x1="93.150000" y1="109.000000" x2="110.800000" y2="109.000000"  style="stroke: black; stroke-linecap:round; stroke-width:0.25; stroke-dasharray:3,3;"/>
<text x="73.800000" y="111.000000" font-family="Arial" font-size="7">eq2l</text>
<a xlink:href="fbdelay-0x7f8acd136390.svg">
<rect x="65.000000" y="161.000000" width="51.600000" height="24.000000" rx="0" ry="0" style="stroke:none;fill:#cccccc;"/>
<rect x="64.000000" y="160.000000" width="51.600000" height="24.000000" rx="0" ry="0" style="stroke:none;fill:#003366;"/>
</a>
<a xlink:href="fbdelay-0x7f8acd136390.svg">
<text x="89.800000" y="174.000000" font-family="Arial" font-size="7" text-anchor="middle" fill="#FFFFFF">fbdelay(6)</text>
</a>
<circle cx="66.000000" cy="162.000000" r="1"/>
<rect x="132.600000" y="135.000000" width="24.000000" height="24.000000" rx="0" ry="0" style="stroke:none;fill:#cccccc;"/>
<rect x="131.600000" y="134.000000" width="24.000000" height="24.000000" rx="0" ry="0" style="stroke:none;fill:#4B71A1;"/>
<text x="143.600000" y="148.000000" font-family="Arial" font-size="7" text-anchor="middle" fill="#FFFFFF">max</text>
<circle cx="133.600000" cy="136.000000" r="1"/>
<line x1="128.600000" y1="141.000000" x2="131.600000" y2="142.000000"  transform="rotate(0.000000,131.600000,142.000000)" style="stroke: black; stroke-width:0.25;"/>
<line x1="128.600000" y1="143.000000" x2="131.600000" y2="142.000000"  transform="rotate(0.000000,131.600000,142.000000)" style="stroke: black; stroke-width:0.25;"/>
<line x1="128.600000" y1="149.000000" x2="131.600000" y2="150.000000"  transform="rotate(0.000000,131.600000,150.000000)" style="stroke: black; stroke-width:0.25;"/>
<line x1="128.600000" y1="151.000000" x2="131.600000" y2="150.000000"  transform="rotate(0.000000,131.600000,150.000000)" style="stroke: black; stroke-width:0.25;"/>
<rect x="172.600000" y="109.000000" width="24.000000" height="24.000000" rx="0" ry="0" style="stroke:none;fill:#cccccc;"/>
<rect x="171.600000" y="108.000000" width="24.000000" height="24.000000" rx="0" ry="0" style="stroke:none;fill:#4B71A1;"/>
<text x="183.600000" y="122.000000" font-family="Arial" font-size="7" text-anchor="middle" fill="#FFFFFF">min</text>
<circle cx="173.600000" cy="110.000000" r="1"/>
<line x1="168.600000" y1="115.000000" x2="171.600000" y2="116.000000"  transform="rotate(0.000000,171.600000,116.000000)" style="stroke: black; stroke-width:0.25;"/>
<line x1="168.600000" y1="117.000000" x2="171.600000" y2="116.000000"  transform="rotate(0.000000,171.600000,116.000000)" style="stroke: black; stroke-width:0.25;"/>
<line x1="168.600000" y1="123.000000" x2="171.600000" y2="124.000000"  transform="rotate(0.000000,171.600000,124.000000)" style="stroke: black; stroke-width:0.25;"/>
<line x1="168.600000" y1="125.000000" x2="171.600000" y2="124.000000"  transform="rotate(0.000000,171.600000,124.000000)" style="stroke: black; stroke-width:0.25;"/>
<rect x="212.600000" y="93.000000" width="24.000000" height="24.000000" rx="0" ry="0" style="stroke:none;fill:#cccccc;"/>
<rect x="211.600000" y="92.000000" width="24.000000" height="24.000000" rx="0" ry="0" style="stroke:none;fill:#4B71A1;"/>
<text x="223.600000" y="106.000000" font-family="Arial" font-size="7" text-anchor="middle" fill="#FFFFFF">@</text>
<circle cx="213.600000" cy="94.000000" r="1"/>
<line x1="208.600000" y1="99.000000" x2="211.600000" y2="100.000000"  transform="rotate(0.000000,211.600000,100.000000)" style="stroke: black; stroke-width:0.25;"/>
<line x1="208.600000" y1="101.000000" x2="211.600000" y2="100.000000"  transform="rotate(0.000000,211.600000,100.000000)" style="stroke: black; stroke-width:0.25;"/>
<line x1="208.600000" y1="107.000000" x2="211.600000" y2="108.000000"  transform="rotate(0.000000,211.600000,108.000000)" style="stroke: black; stroke-width:0.25;"/>
<line x1="208.600000" y1="109.000000" x2="211.600000" y2="108.000000"  transform="rotate(0.000000,211.600000,108.000000)" style="stroke: black; stroke-width:0.25;"/>
<line x1="15.000000" y1="15.000000" x2="15.000000" y2="193.000000"  style="stroke: black; stroke-linecap:round; stroke-width:0.25; stroke-dasharray:3,3;"/>
<line x1="15.000000" y1="193.000000" x2="252.600000" y2="193.000000"  style="stroke: black; stroke-linecap:round; stroke-width:0.25; stroke-dasharray:3,3;"/>
<line x1="252.600000" y1="193.000000" x2="252.600000" y2="15.000000"  style="stroke: black; stroke-linecap:round; stroke-width:0.25; stroke-dasharray:3,3;"/>
<line x1="15.000000" y1="15.000000" x2="20.000000" y2="15.000000"  style="stroke: black; stroke-linecap:round; stroke-width:0.25; stroke-dasharray:3,3;"/>
<line x1="119.975000" y1="15.000000" x2="252.600000" y2="15.000000"  style="stroke: black; stroke-linecap:round; stroke-width:0.25; stroke-dasharray:3,3;"/>
<text x="20.000000" y="17.000000" font-family="Arial" font-size="7">delay(8192)((...: floor) : -)</text>
<line x1="254.600000" y1="103.000000" x2="257.600000" y2="104.000000"  transform="rotate(0.000000,257.600000,104.000000)" style="stroke: black; stroke-width:0.25;"/>
<line x1="254.600000" y1="105.000000" x2="257.600000" y2="104.000000"  transform="rotate(0.000000,257.600000,104.000000)" style="stroke: black; stroke-width:0.25;"/>
<line x1="10.000000" y1="104.000000" x2="20.000000" y2="104.000000"  style="stroke:black; stroke-linecap:round; stroke-width:0.25;"/>
<line x1="20.000000" y1="104.000000" x2="24.000000" y2="104.000000"  style="stroke:black; stroke-linecap:round; stroke-width:0.25;"/>
<line x1="24.000000" y1="104.000000" x2="28.000000" y2="104.000000"  style="stroke:black; stroke-linecap:round; stroke-width:0.25;"/>
<line x1="28.000000" y1="104.000000" x2="28.000000" y2="104.000000"  style="stroke:black; stroke-linecap:round; stroke-width:0.25;"/>
<line x1="28.000000" y1="104.000000" x2="32.000000" y2="104.000000"  style="stroke:black; stroke-linecap:round; stroke-width:0.25;"/>
<line x1="101.800000" y1="130.000000" x2="105.800000" y2="130.000000"  style="stroke:black; stroke-linecap:round; stroke-width:0.25;"/>
<line x1="105.800000" y1="130.000000" x2="115.800000" y2="130.000000"  style="stroke:black; stroke-linecap:round; stroke-width:0.25;"/>
<line x1="115.600000" y1="172.000000" x2="119.600000" y2="172.000000"  style="stroke:black; stroke-linecap:round; stroke-width:0.25;"/>
<line x1="115.800000" y1="130.000000" x2="119.600000" y2="130.000000"  style="stroke:black; stroke-linecap:round; stroke-width:0.25;"/>
<line x1="119.600000" y1="130.000000" x2="127.600000" y2="130.000000"  style="stroke:black; stroke-linecap:round; stroke-width:0.25;"/>
<line x1="119.600000" y1="150.000000" x2="127.600000" y2="150.000000"  style="stroke:black; stroke-linecap:round; stroke-width:0.25;"/>
<line x1="119.600000" y1="172.000000" x2="119.600000" y2="150.000000"  style="stroke:black; stroke-linecap:round; stroke-width:0.25;"/>
<line x1="119.600000" y1="172.000000" x2="119.600000" y2="172.000000"  style="stroke:black; stroke-linecap:round; stroke-width:0.25;"/>
<line x1="122.700000" y1="78.000000" x2="126.700000" y2="78.000000"  style="stroke:black; stroke-linecap:round; stroke-width:0.25;"/>
<line x1="126.700000" y1="78.000000" x2="136.700000" y2="78.000000"  style="stroke:black; stroke-linecap:round; stroke-width:0.25;"/>
<line x1="127.600000" y1="130.000000" x2="127.600000" y2="142.000000"  style="stroke:black; stroke-linecap:round; stroke-width:0.25;"/>
<line x1="127.600000" y1="142.000000" x2="127.600000" y2="142.000000"  style="stroke:black; stroke-linecap:round; stroke-width:0.25;"/>
<line x1="127.600000" y1="142.000000" x2="131.600000" y2="142.000000"  style="stroke:black; stroke-linecap:round; stroke-width:0.25;"/>
<line x1="127.600000" y1="150.000000" x2="131.600000" y2="150.000000"  style="stroke:black; stroke-linecap:round; stroke-width:0.25;"/>
<line x1="136.700000" y1="78.000000" x2="159.600000" y2="78.000000"  style="stroke:black; stroke-linecap:round; stroke-width:0.25;"/>
<line x1="141.800000" y1="36.000000" x2="145.800000" y2="36.000000"  style="stroke:black; stroke-linecap:round; stroke-width:0.25;"/>
<line x1="145.800000" y1="36.000000" x2="199.600000" y2="36.000000"  style="stroke:black; stroke-linecap:round; stroke-width:0.25;"/>
<line x1="155.600000" y1="146.000000" x2="159.600000" y2="146.000000"  style="stroke:black; stroke-linecap:round; stroke-width:0.25;"/>
<line x1="159.600000" y1="78.000000" x2="167.600000" y2="78.000000"  style="stroke:black; stroke-linecap:round; stroke-width:0.25;"/>
<line x1="159.600000" y1="124.000000" x2="167.600000" y2="124.000000"  style="stroke:black; stroke-linecap:round; stroke-width:0.25;"/>
<line x1="159.600000" y1="146.000000" x2="159.600000" y2="124.000000"  style="stroke:black; stroke-linecap:round; stroke-width:0.25;"/>
<line x1="159.600000" y1="146.000000" x2="159.600000" y2="146.000000"  style="stroke:black; stroke-linecap:round; stroke-width:0.25;"/>
<line x1="167.600000" y1="78.000000" x2="167.600000" y2="116.000000"  style="stroke:black; stroke-linecap:round; stroke-width:0.25;"/>
<line x1="167.600000" y1="116.000000" x2="167.600000" y2="116.000000"  style="stroke:black; stroke-linecap:round; stroke-width:0.25;"/>
<line x1="167.600000" y1="116.000000" x2="171.600000" y2="116.000000"  style="stroke:black; stroke-linecap:round; stroke-width:0.25;"/>
<line x1="167.600000" y1="124.000000" x2="171.600000" y2="124.000000"  style="stroke:black; stroke-linecap:round; stroke-width:0.25;"/>
<line x1="195.600000" y1="120.000000" x2="199.600000" y2="120.000000"  style="stroke:black; stroke-linecap:round; stroke-width:0.25;"/>
<line x1="199.600000" y1="108.000000" x2="207.600000" y2="108.000000"  style="stroke:black; stroke-linecap:round; stroke-width:0.25;"/>
<line x1="199.600000" y1="120.000000" x2="199.600000" y2="108.000000"  style="stroke:black; stroke-linecap:round; stroke-width:0.25;"/>
<line x1="199.600000" y1="120.000000" x2="199.600000" y2="120.000000"  style="stroke:black; stroke-linecap:round; stroke-width:0.25;"/>
<line x1="199.600000" y1="36.000000" x2="207.600000" y2="36.000000"  style="stroke:black; stroke-linecap:round; stroke-width:0.25;"/>
<line x1="207.600000" y1="100.000000" x2="211.600000" y2="100.000000"  style="stroke:black; stroke-linecap:round; stroke-width:0.25;"/>
<line x1="207.600000" y1="108.000000" x2="211.600000" y2="108.000000"  style="stroke:black; stroke-linecap:round; stroke-width:0.25;"/>
<line x1="207.600000" y1="36.000000" x2="207.600000" y2="100.000000"  style="stroke:black; stroke-linecap:round; stroke-width:0.25;"/>
<line x1="207.600000" y1="100.000000" x2="207.600000" y2="100.000000"  style="stroke:black; stroke-linecap:round; stroke-width:0.25;"/>
<line x1="235.600000" y1="104.000000" x2="239.600000" y2="104.000000"  style="stroke:black; stroke-linecap:round; stroke-width:0.25;"/>
<line x1="239.600000" y1="104.000000" x2="239.600000" y2="104.000000"  style="stroke:black; stroke-linecap:round; stroke-width:0.25;"/>
<line x1="239.600000" y1="104.000000" x2="243.600000" y2="104.000000"  style="stroke:black; stroke-linecap:round; stroke-width:0.25;"/>
<line x1="243.600000" y1="104.000000" x2="247.600000" y2="104.000000"  style="stroke:black; stroke-linecap:round; stroke-width:0.25;"/>
<line x1="247.600000" y1="104.000000" x2="257.600000" y2="104.000000"  style="stroke:black; stroke-linecap:round; stroke-width:0.25;"/>
</svg>
