<?xml version="1.0"?>
<svg xmlns="http://www.w3.org/2000/svg" xmlns:xlink="http://www.w3.org/1999/xlink" viewBox="0 0 275.600000 240.000000" width="137.800000mm" height="120.000000mm" version="1.1">
<a xlink:href="special-0x7fb93fe74df0.svg">
<rect x="1.000000" y="1.000000" width="274.600000" height="239.000000" rx="0" ry="0" style="stroke:none;fill:#cccccc;"/>
<rect x="0.000000" y="0.000000" width="274.600000" height="239.000000" rx="0" ry="0" style="stroke:none;fill:#ffffff;"/>
</a>
<text x="10.000000" y="7.000000" font-family="Arial" font-size="7"></text>
<a xlink:href="mbo2-0x7fb9428d38f0.svg">
<rect x="101.900000" y="25.000000" width="25.800000" height="24.000000" rx="0" ry="0" style="stroke:none;fill:#cccccc;"/>
<rect x="100.900000" y="24.000000" width="25.800000" height="24.000000" rx="0" ry="0" style="stroke:none;fill:#003366;"/>
</a>
<a xlink:href="mbo2-0x7fb9428d38f0.svg">
<text x="113.800000" y="38.000000" font-family="Arial" font-size="7" text-anchor="middle" fill="#FFFFFF">mbo2</text>
</a>
<circle cx="102.900000" cy="26.000000" r="1"/>
<rect x="65.900000" y="67.000000" width="24.000000" height="24.000000" rx="0" ry="0" style="stroke:none;fill:#cccccc;"/>
<rect x="64.900000" y="66.000000" width="24.000000" height="24.000000" rx="0" ry="0" style="stroke:none;fill:#f44800;"/>
<text x="76.900000" y="80.000000" font-family="Arial" font-size="7" text-anchor="middle" fill="#FFFFFF">0</text>
<circle cx="66.900000" cy="68.000000" r="1"/>
<line x1="55.900000" y1="57.000000" x2="55.900000" y2="99.000000"  style="stroke: black; stroke-linecap:round; stroke-width:0.25; stroke-dasharray:3,3;"/>
<line x1="55.900000" y1="99.000000" x2="97.900000" y2="99.000000"  style="stroke: black; stroke-linecap:round; stroke-width:0.25; stroke-dasharray:3,3;"/>
<line x1="97.900000" y1="99.000000" x2="97.900000" y2="57.000000"  style="stroke: black; stroke-linecap:round; stroke-width:0.25; stroke-dasharray:3,3;"/>
<line x1="55.900000" y1="57.000000" x2="60.900000" y2="57.000000"  style="stroke: black; stroke-linecap:round; stroke-width:0.25; stroke-dasharray:3,3;"/>
<line x1="80.250000" y1="57.000000" x2="97.900000" y2="57.000000"  style="stroke: black; stroke-linecap:round; stroke-width:0.25; stroke-dasharray:3,3;"/>
<text x="60.900000" y="59.000000" font-family="Arial" font-size="7">eq2l</text>
<a xlink:href="mbo2-0x7fb9428d38f0.svg">
<rect x="25.000000" y="109.000000" width="25.800000" height="24.000000" rx="0" ry="0" style="stroke:none;fill:#cccccc;"/>
<rect x="24.000000" y="108.000000" width="25.800000" height="24.000000" rx="0" ry="0" style="stroke:none;fill:#003366;"/>
</a>
<a xlink:href="mbo2-0x7fb9428d38f0.svg">
<text x="36.900000" y="122.000000" font-family="Arial" font-size="7" text-anchor="middle" fill="#FFFFFF">mbo2</text>
</a>
<circle cx="26.000000" cy="110.000000" r="1"/>
<a xlink:href="mbo2-0x7fb9428d38f0.svg">
<rect x="25.000000" y="141.000000" width="25.800000" height="24.000000" rx="0" ry="0" style="stroke:none;fill:#cccccc;"/>
<rect x="24.000000" y="140.000000" width="25.800000" height="24.000000" rx="0" ry="0" style="stroke:none;fill:#003366;"/>
</a>
<a xlink:href="mbo2-0x7fb9428d38f0.svg">
<text x="36.900000" y="154.000000" font-family="Arial" font-size="7" text-anchor="middle" fill="#FFFFFF">mbo2</text>
</a>
<circle cx="26.000000" cy="142.000000" r="1"/>
<rect x="66.800000" y="125.000000" width="24.000000" height="24.000000" rx="0" ry="0" style="stroke:none;fill:#cccccc;"/>
<rect x="65.800000" y="124.000000" width="24.000000" height="24.000000" rx="0" ry="0" style="stroke:none;fill:#4B71A1;"/>
<text x="77.800000" y="138.000000" font-family="Arial" font-size="7" text-anchor="middle" fill="#FFFFFF">*</text>
<circle cx="67.800000" cy="126.000000" r="1"/>
<line x1="62.800000" y1="131.000000" x2="65.800000" y2="132.000000"  transform="rotate(0.000000,65.800000,132.000000)" style="stroke: black; stroke-width:0.25;"/>
<line x1="62.800000" y1="133.000000" x2="65.800000" y2="132.000000"  transform="rotate(0.000000,65.800000,132.000000)" style="stroke: black; stroke-width:0.25;"/>
<line x1="62.800000" y1="139.000000" x2="65.800000" y2="140.000000"  transform="rotate(0.000000,65.800000,140.000000)" style="stroke: black; stroke-width:0.25;"/>
<line x1="62.800000" y1="141.000000" x2="65.800000" y2="140.000000"  transform="rotate(0.000000,65.800000,140.000000)" style="stroke: black; stroke-width:0.25;"/>
<rect x="45.900000" y="183.000000" width="24.000000" height="24.000000" rx="0" ry="0" style="stroke:none;fill:#cccccc;"/>
<rect x="44.900000" y="182.000000" width="24.000000" height="24.000000" rx="0" ry="0" style="stroke:none;fill:#f44800;"/>
<text x="56.900000" y="196.000000" font-family="Arial" font-size="7" text-anchor="middle" fill="#FFFFFF">1</text>
<circle cx="46.900000" cy="184.000000" r="1"/>
<line x1="35.900000" y1="173.000000" x2="35.900000" y2="215.000000"  style="stroke: black; stroke-linecap:round; stroke-width:0.25; stroke-dasharray:3,3;"/>
<line x1="35.900000" y1="215.000000" x2="77.900000" y2="215.000000"  style="stroke: black; stroke-linecap:round; stroke-width:0.25; stroke-dasharray:3,3;"/>
<line x1="77.900000" y1="215.000000" x2="77.900000" y2="173.000000"  style="stroke: black; stroke-linecap:round; stroke-width:0.25; stroke-dasharray:3,3;"/>
<line x1="35.900000" y1="173.000000" x2="40.900000" y2="173.000000"  style="stroke: black; stroke-linecap:round; stroke-width:0.25; stroke-dasharray:3,3;"/>
<line x1="50.575000" y1="173.000000" x2="77.900000" y2="173.000000"  style="stroke: black; stroke-linecap:round; stroke-width:0.25; stroke-dasharray:3,3;"/>
<text x="40.900000" y="175.000000" font-family="Arial" font-size="7">g</text>
<rect x="106.800000" y="151.000000" width="24.000000" height="24.000000" rx="0" ry="0" style="stroke:none;fill:#cccccc;"/>
<rect x="105.800000" y="150.000000" width="24.000000" height="24.000000" rx="0" ry="0" style="stroke:none;fill:#4B71A1;"/>
<text x="117.800000" y="164.000000" font-family="Arial" font-size="7" text-anchor="middle" fill="#FFFFFF">-</text>
<circle cx="107.800000" cy="152.000000" r="1"/>
<line x1="102.800000" y1="157.000000" x2="105.800000" y2="158.000000"  transform="rotate(0.000000,105.800000,158.000000)" style="stroke: black; stroke-width:0.25;"/>
<line x1="102.800000" y1="159.000000" x2="105.800000" y2="158.000000"  transform="rotate(0.000000,105.800000,158.000000)" style="stroke: black; stroke-width:0.25;"/>
<line x1="102.800000" y1="165.000000" x2="105.800000" y2="166.000000"  transform="rotate(0.000000,105.800000,166.000000)" style="stroke: black; stroke-width:0.25;"/>
<line x1="102.800000" y1="167.000000" x2="105.800000" y2="166.000000"  transform="rotate(0.000000,105.800000,166.000000)" style="stroke: black; stroke-width:0.25;"/>
<rect x="146.800000" y="125.000000" width="24.000000" height="24.000000" rx="0" ry="0" style="stroke:none;fill:#cccccc;"/>
<rect x="145.800000" y="124.000000" width="24.000000" height="24.000000" rx="0" ry="0" style="stroke:none;fill:#4B71A1;"/>
<text x="157.800000" y="138.000000" font-family="Arial" font-size="7" text-anchor="middle" fill="#FFFFFF">max</text>
<circle cx="147.800000" cy="126.000000" r="1"/>
<line x1="142.800000" y1="131.000000" x2="145.800000" y2="132.000000"  transform="rotate(0.000000,145.800000,132.000000)" style="stroke: black; stroke-width:0.25;"/>
<line x1="142.800000" y1="133.000000" x2="145.800000" y2="132.000000"  transform="rotate(0.000000,145.800000,132.000000)" style="stroke: black; stroke-width:0.25;"/>
<line x1="142.800000" y1="139.000000" x2="145.800000" y2="140.000000"  transform="rotate(0.000000,145.800000,140.000000)" style="stroke: black; stroke-width:0.25;"/>
<line x1="142.800000" y1="141.000000" x2="145.800000" y2="140.000000"  transform="rotate(0.000000,145.800000,140.000000)" style="stroke: black; stroke-width:0.25;"/>
<rect x="178.800000" y="125.000000" width="25.800000" height="24.000000" rx="0" ry="0" style="stroke:none;fill:#cccccc;"/>
<rect x="177.800000" y="124.000000" width="25.800000" height="24.000000" rx="0" ry="0" style="stroke:none;fill:#4B71A1;"/>
<text x="190.700000" y="138.000000" font-family="Arial" font-size="7" text-anchor="middle" fill="#FFFFFF">sqrt</text>
<circle cx="179.800000" cy="126.000000" r="1"/>
<line x1="174.800000" y1="135.000000" x2="177.800000" y2="136.000000"  transform="rotate(0.000000,177.800000,136.000000)" style="stroke: black; stroke-width:0.25;"/>
<line x1="174.800000" y1="137.000000" x2="177.800000" y2="136.000000"  transform="rotate(0.000000,177.800000,136.000000)" style="stroke: black; stroke-width:0.25;"/>
<rect x="220.600000" y="109.000000" width="24.000000" height="24.000000" rx="0" ry="0" style="stroke:none;fill:#cccccc;"/>
<rect x="219.600000" y="108.000000" width="24.000000" height="24.000000" rx="0" ry="0" style="stroke:none;fill:#4B71A1;"/>
<text x="231.600000" y="122.000000" font-family="Arial" font-size="7" text-anchor="middle" fill="#FFFFFF">-</text>
<circle cx="221.600000" cy="110.000000" r="1"/>
<line x1="216.600000" y1="115.000000" x2="219.600000" y2="116.000000"  transform="rotate(0.000000,219.600000,116.000000)" style="stroke: black; stroke-width:0.25;"/>
<line x1="216.600000" y1="117.000000" x2="219.600000" y2="116.000000"  transform="rotate(0.000000,219.600000,116.000000)" style="stroke: black; stroke-width:0.25;"/>
<line x1="216.600000" y1="123.000000" x2="219.600000" y2="124.000000"  transform="rotate(0.000000,219.600000,124.000000)" style="stroke: black; stroke-width:0.25;"/>
<line x1="216.600000" y1="125.000000" x2="219.600000" y2="124.000000"  transform="rotate(0.000000,219.600000,124.000000)" style="stroke: black; stroke-width:0.25;"/>
<line x1="15.000000" y1="15.000000" x2="15.000000" y2="225.000000"  style="stroke: black; stroke-linecap:round; stroke-width:0.25; stroke-dasharray:3,3;"/>
<line x1="15.000000" y1="225.000000" x2="260.600000" y2="225.000000"  style="stroke: black; stroke-linecap:round; stroke-width:0.25; stroke-dasharray:3,3;"/>
<line x1="260.600000" y1="225.000000" x2="260.600000" y2="15.000000"  style="stroke: black; stroke-linecap:round; stroke-width:0.25; stroke-dasharray:3,3;"/>
<line x1="15.000000" y1="15.000000" x2="20.000000" y2="15.000000"  style="stroke: black; stroke-linecap:round; stroke-width:0.25; stroke-dasharray:3,3;"/>
<line x1="29.675000" y1="15.000000" x2="260.600000" y2="15.000000"  style="stroke: black; stroke-linecap:round; stroke-width:0.25; stroke-dasharray:3,3;"/>
<text x="20.000000" y="17.000000" font-family="Arial" font-size="7">p</text>
<line x1="262.600000" y1="119.000000" x2="265.600000" y2="120.000000"  transform="rotate(0.000000,265.600000,120.000000)" style="stroke: black; stroke-width:0.25;"/>
<line x1="262.600000" y1="121.000000" x2="265.600000" y2="120.000000"  transform="rotate(0.000000,265.600000,120.000000)" style="stroke: black; stroke-width:0.25;"/>
<line x1="49.800000" y1="120.000000" x2="53.800000" y2="120.000000"  style="stroke:black; stroke-linecap:round; stroke-width:0.25;"/>
<line x1="49.800000" y1="152.000000" x2="53.800000" y2="152.000000"  style="stroke:black; stroke-linecap:round; stroke-width:0.25;"/>
<line x1="53.800000" y1="120.000000" x2="61.800000" y2="120.000000"  style="stroke:black; stroke-linecap:round; stroke-width:0.25;"/>
<line x1="53.800000" y1="140.000000" x2="61.800000" y2="140.000000"  style="stroke:black; stroke-linecap:round; stroke-width:0.25;"/>
<line x1="53.800000" y1="152.000000" x2="53.800000" y2="140.000000"  style="stroke:black; stroke-linecap:round; stroke-width:0.25;"/>
<line x1="53.800000" y1="152.000000" x2="53.800000" y2="152.000000"  style="stroke:black; stroke-linecap:round; stroke-width:0.25;"/>
<line x1="61.800000" y1="120.000000" x2="61.800000" y2="132.000000"  style="stroke:black; stroke-linecap:round; stroke-width:0.25;"/>
<line x1="61.800000" y1="132.000000" x2="61.800000" y2="132.000000"  style="stroke:black; stroke-linecap:round; stroke-width:0.25;"/>
<line x1="61.800000" y1="132.000000" x2="65.800000" y2="132.000000"  style="stroke:black; stroke-linecap:round; stroke-width:0.25;"/>
<line x1="61.800000" y1="140.000000" x2="65.800000" y2="140.000000"  style="stroke:black; stroke-linecap:round; stroke-width:0.25;"/>
<line x1="68.900000" y1="194.000000" x2="72.900000" y2="194.000000"  style="stroke:black; stroke-linecap:round; stroke-width:0.25;"/>
<line x1="72.900000" y1="194.000000" x2="82.900000" y2="194.000000"  style="stroke:black; stroke-linecap:round; stroke-width:0.25;"/>
<line x1="82.900000" y1="194.000000" x2="93.800000" y2="194.000000"  style="stroke:black; stroke-linecap:round; stroke-width:0.25;"/>
<line x1="88.900000" y1="78.000000" x2="92.900000" y2="78.000000"  style="stroke:black; stroke-linecap:round; stroke-width:0.25;"/>
<line x1="89.800000" y1="136.000000" x2="93.800000" y2="136.000000"  style="stroke:black; stroke-linecap:round; stroke-width:0.25;"/>
<line x1="92.900000" y1="78.000000" x2="102.900000" y2="78.000000"  style="stroke:black; stroke-linecap:round; stroke-width:0.25;"/>
<line x1="93.800000" y1="136.000000" x2="101.800000" y2="136.000000"  style="stroke:black; stroke-linecap:round; stroke-width:0.25;"/>
<line x1="93.800000" y1="166.000000" x2="101.800000" y2="166.000000"  style="stroke:black; stroke-linecap:round; stroke-width:0.25;"/>
<line x1="93.800000" y1="194.000000" x2="93.800000" y2="166.000000"  style="stroke:black; stroke-linecap:round; stroke-width:0.25;"/>
<line x1="93.800000" y1="194.000000" x2="93.800000" y2="194.000000"  style="stroke:black; stroke-linecap:round; stroke-width:0.25;"/>
<line x1="101.800000" y1="136.000000" x2="101.800000" y2="158.000000"  style="stroke:black; stroke-linecap:round; stroke-width:0.25;"/>
<line x1="101.800000" y1="158.000000" x2="101.800000" y2="158.000000"  style="stroke:black; stroke-linecap:round; stroke-width:0.25;"/>
<line x1="101.800000" y1="158.000000" x2="105.800000" y2="158.000000"  style="stroke:black; stroke-linecap:round; stroke-width:0.25;"/>
<line x1="101.800000" y1="166.000000" x2="105.800000" y2="166.000000"  style="stroke:black; stroke-linecap:round; stroke-width:0.25;"/>
<line x1="102.900000" y1="78.000000" x2="133.800000" y2="78.000000"  style="stroke:black; stroke-linecap:round; stroke-width:0.25;"/>
<line x1="126.700000" y1="36.000000" x2="130.700000" y2="36.000000"  style="stroke:black; stroke-linecap:round; stroke-width:0.25;"/>
<line x1="129.800000" y1="162.000000" x2="133.800000" y2="162.000000"  style="stroke:black; stroke-linecap:round; stroke-width:0.25;"/>
<line x1="130.700000" y1="36.000000" x2="207.600000" y2="36.000000"  style="stroke:black; stroke-linecap:round; stroke-width:0.25;"/>
<line x1="133.800000" y1="78.000000" x2="141.800000" y2="78.000000"  style="stroke:black; stroke-linecap:round; stroke-width:0.25;"/>
<line x1="133.800000" y1="140.000000" x2="141.800000" y2="140.000000"  style="stroke:black; stroke-linecap:round; stroke-width:0.25;"/>
<line x1="133.800000" y1="162.000000" x2="133.800000" y2="140.000000"  style="stroke:black; stroke-linecap:round; stroke-width:0.25;"/>
<line x1="133.800000" y1="162.000000" x2="133.800000" y2="162.000000"  style="stroke:black; stroke-linecap:round; stroke-width:0.25;"/>
<line x1="141.800000" y1="78.000000" x2="141.800000" y2="132.000000"  style="stroke:black; stroke-linecap:round; stroke-width:0.25;"/>
<line x1="141.800000" y1="132.000000" x2="141.800000" y2="132.000000"  style="stroke:black; stroke-linecap:round; stroke-width:0.25;"/>
<line x1="141.800000" y1="132.000000" x2="145.800000" y2="132.000000"  style="stroke:black; stroke-linecap:round; stroke-width:0.25;"/>
<line x1="141.800000" y1="140.000000" x2="145.800000" y2="140.000000"  style="stroke:black; stroke-linecap:round; stroke-width:0.25;"/>
<line x1="169.800000" y1="136.000000" x2="173.800000" y2="136.000000"  style="stroke:black; stroke-linecap:round; stroke-width:0.25;"/>
<line x1="173.800000" y1="136.000000" x2="173.800000" y2="136.000000"  style="stroke:black; stroke-linecap:round; stroke-width:0.25;"/>
<line x1="173.800000" y1="136.000000" x2="177.800000" y2="136.000000"  style="stroke:black; stroke-linecap:round; stroke-width:0.25;"/>
<line x1="203.600000" y1="136.000000" x2="207.600000" y2="136.000000"  style="stroke:black; stroke-linecap:round; stroke-width:0.25;"/>
<line x1="207.600000" y1="36.000000" x2="215.600000" y2="36.000000"  style="stroke:black; stroke-linecap:round; stroke-width:0.25;"/>
<line x1="207.600000" y1="124.000000" x2="215.600000" y2="124.000000"  style="stroke:black; stroke-linecap:round; stroke-width:0.25;"/>
<line x1="207.600000" y1="136.000000" x2="207.600000" y2="124.000000"  style="stroke:black; stroke-linecap:round; stroke-width:0.25;"/>
<line x1="207.600000" y1="136.000000" x2="207.600000" y2="136.000000"  style="stroke:black; stroke-linecap:round; stroke-width:0.25;"/>
<line x1="215.600000" y1="36.000000" x2="215.600000" y2="116.000000"  style="stroke:black; stroke-linecap:round; stroke-width:0.25;"/>
<line x1="215.600000" y1="116.000000" x2="215.600000" y2="116.000000"  style="stroke:black; stroke-linecap:round; stroke-width:0.25;"/>
<line x1="215.600000" y1="116.000000" x2="219.600000" y2="116.000000"  style="stroke:black; stroke-linecap:round; stroke-width:0.25;"/>
<line x1="215.600000" y1="124.000000" x2="219.600000" y2="124.000000"  style="stroke:black; stroke-linecap:round; stroke-width:0.25;"/>
<line x1="243.600000" y1="120.000000" x2="247.600000" y2="120.000000"  style="stroke:black; stroke-linecap:round; stroke-width:0.25;"/>
<line x1="247.600000" y1="120.000000" x2="247.600000" y2="120.000000"  style="stroke:black; stroke-linecap:round; stroke-width:0.25;"/>
<line x1="247.600000" y1="120.000000" x2="251.600000" y2="120.000000"  style="stroke:black; stroke-linecap:round; stroke-width:0.25;"/>
<line x1="251.600000" y1="120.000000" x2="255.600000" y2="120.000000"  style="stroke:black; stroke-linecap:round; stroke-width:0.25;"/>
<line x1="255.600000" y1="120.000000" x2="265.600000" y2="120.000000"  style="stroke:black; stroke-linecap:round; stroke-width:0.25;"/>
</svg>
