<?xml version="1.0"?>
<svg xmlns="http://www.w3.org/2000/svg" xmlns:xlink="http://www.w3.org/1999/xlink" viewBox="0 0 397.600000 168.000000" width="198.800000mm" height="84.000000mm" version="1.1">
<rect x="1.000000" y="1.000000" width="396.600000" height="167.000000" rx="0" ry="0" style="stroke:none;fill:#cccccc;"/>
<rect x="0.000000" y="0.000000" width="396.600000" height="167.000000" rx="0" ry="0" style="stroke:none;fill:#ffffff;"/>
<text x="10.000000" y="7.000000" font-family="Arial" font-size="7"></text>
<rect x="33.000000" y="73.000000" width="38.700000" height="24.000000" rx="0" ry="0" style="stroke:none;fill:#cccccc;"/>
<rect x="32.000000" y="72.000000" width="38.700000" height="24.000000" rx="0" ry="0" style="stroke:none;fill:#47945E;"/>
<text x="51.350000" y="86.000000" font-family="Arial" font-size="7" text-anchor="middle" fill="#FFFFFF">[1] sig</text>
<circle cx="34.000000" cy="74.000000" r="1"/>
<line x1="29.000000" y1="83.000000" x2="32.000000" y2="84.000000"  transform="rotate(0.000000,32.000000,84.000000)" style="stroke: black; stroke-width:0.25;"/>
<line x1="29.000000" y1="85.000000" x2="32.000000" y2="84.000000"  transform="rotate(0.000000,32.000000,84.000000)" style="stroke: black; stroke-width:0.25;"/>
<a xlink:href="map-0x60000416d980.svg">
<rect x="79.700000" y="25.000000" width="129.000000" height="120.000000" rx="0" ry="0" style="stroke:none;fill:#cccccc;"/>
<rect x="78.700000" y="24.000000" width="129.000000" height="120.000000" rx="0" ry="0" style="stroke:none;fill:#003366;"/>
</a>
<a xlink:href="map-0x60000416d980.svg">
<text x="143.200000" y="86.000000" font-family="Arial" font-size="7" text-anchor="middle" fill="#FFFFFF">map(7)(x1)(hs...ER4[nil]]]}])</text>
</a>
<circle cx="80.700000" cy="26.000000" r="1"/>
<a xlink:href="optimInPhase-0x6000000bbc00.svg">
<rect x="216.700000" y="25.000000" width="64.500000" height="120.000000" rx="0" ry="0" style="stroke:none;fill:#cccccc;"/>
<rect x="215.700000" y="24.000000" width="64.500000" height="120.000000" rx="0" ry="0" style="stroke:none;fill:#003366;"/>
</a>
<a xlink:href="optimInPhase-0x6000000bbc00.svg">
<text x="247.950000" y="86.000000" font-family="Arial" font-size="7" text-anchor="middle" fill="#FFFFFF">optimInPhase(7)</text>
</a>
<circle cx="217.700000" cy="26.000000" r="1"/>
<line x1="212.700000" y1="27.000000" x2="215.700000" y2="28.000000"  transform="rotate(0.000000,215.700000,28.000000)" style="stroke: black; stroke-width:0.25;"/>
<line x1="212.700000" y1="29.000000" x2="215.700000" y2="28.000000"  transform="rotate(0.000000,215.700000,28.000000)" style="stroke: black; stroke-width:0.25;"/>
<line x1="212.700000" y1="35.000000" x2="215.700000" y2="36.000000"  transform="rotate(0.000000,215.700000,36.000000)" style="stroke: black; stroke-width:0.25;"/>
<line x1="212.700000" y1="37.000000" x2="215.700000" y2="36.000000"  transform="rotate(0.000000,215.700000,36.000000)" style="stroke: black; stroke-width:0.25;"/>
<line x1="212.700000" y1="43.000000" x2="215.700000" y2="44.000000"  transform="rotate(0.000000,215.700000,44.000000)" style="stroke: black; stroke-width:0.25;"/>
<line x1="212.700000" y1="45.000000" x2="215.700000" y2="44.000000"  transform="rotate(0.000000,215.700000,44.000000)" style="stroke: black; stroke-width:0.25;"/>
<line x1="212.700000" y1="51.000000" x2="215.700000" y2="52.000000"  transform="rotate(0.000000,215.700000,52.000000)" style="stroke: black; stroke-width:0.25;"/>
<line x1="212.700000" y1="53.000000" x2="215.700000" y2="52.000000"  transform="rotate(0.000000,215.700000,52.000000)" style="stroke: black; stroke-width:0.25;"/>
<line x1="212.700000" y1="59.000000" x2="215.700000" y2="60.000000"  transform="rotate(0.000000,215.700000,60.000000)" style="stroke: black; stroke-width:0.25;"/>
<line x1="212.700000" y1="61.000000" x2="215.700000" y2="60.000000"  transform="rotate(0.000000,215.700000,60.000000)" style="stroke: black; stroke-width:0.25;"/>
<line x1="212.700000" y1="67.000000" x2="215.700000" y2="68.000000"  transform="rotate(0.000000,215.700000,68.000000)" style="stroke: black; stroke-width:0.25;"/>
<line x1="212.700000" y1="69.000000" x2="215.700000" y2="68.000000"  transform="rotate(0.000000,215.700000,68.000000)" style="stroke: black; stroke-width:0.25;"/>
<line x1="212.700000" y1="75.000000" x2="215.700000" y2="76.000000"  transform="rotate(0.000000,215.700000,76.000000)" style="stroke: black; stroke-width:0.25;"/>
<line x1="212.700000" y1="77.000000" x2="215.700000" y2="76.000000"  transform="rotate(0.000000,215.700000,76.000000)" style="stroke: black; stroke-width:0.25;"/>
<line x1="212.700000" y1="83.000000" x2="215.700000" y2="84.000000"  transform="rotate(0.000000,215.700000,84.000000)" style="stroke: black; stroke-width:0.25;"/>
<line x1="212.700000" y1="85.000000" x2="215.700000" y2="84.000000"  transform="rotate(0.000000,215.700000,84.000000)" style="stroke: black; stroke-width:0.25;"/>
<line x1="212.700000" y1="91.000000" x2="215.700000" y2="92.000000"  transform="rotate(0.000000,215.700000,92.000000)" style="stroke: black; stroke-width:0.25;"/>
<line x1="212.700000" y1="93.000000" x2="215.700000" y2="92.000000"  transform="rotate(0.000000,215.700000,92.000000)" style="stroke: black; stroke-width:0.25;"/>
<line x1="212.700000" y1="99.000000" x2="215.700000" y2="100.000000"  transform="rotate(0.000000,215.700000,100.000000)" style="stroke: black; stroke-width:0.25;"/>
<line x1="212.700000" y1="101.000000" x2="215.700000" y2="100.000000"  transform="rotate(0.000000,215.700000,100.000000)" style="stroke: black; stroke-width:0.25;"/>
<line x1="212.700000" y1="107.000000" x2="215.700000" y2="108.000000"  transform="rotate(0.000000,215.700000,108.000000)" style="stroke: black; stroke-width:0.25;"/>
<line x1="212.700000" y1="109.000000" x2="215.700000" y2="108.000000"  transform="rotate(0.000000,215.700000,108.000000)" style="stroke: black; stroke-width:0.25;"/>
<line x1="212.700000" y1="115.000000" x2="215.700000" y2="116.000000"  transform="rotate(0.000000,215.700000,116.000000)" style="stroke: black; stroke-width:0.25;"/>
<line x1="212.700000" y1="117.000000" x2="215.700000" y2="116.000000"  transform="rotate(0.000000,215.700000,116.000000)" style="stroke: black; stroke-width:0.25;"/>
<line x1="212.700000" y1="123.000000" x2="215.700000" y2="124.000000"  transform="rotate(0.000000,215.700000,124.000000)" style="stroke: black; stroke-width:0.25;"/>
<line x1="212.700000" y1="125.000000" x2="215.700000" y2="124.000000"  transform="rotate(0.000000,215.700000,124.000000)" style="stroke: black; stroke-width:0.25;"/>
<line x1="212.700000" y1="131.000000" x2="215.700000" y2="132.000000"  transform="rotate(0.000000,215.700000,132.000000)" style="stroke: black; stroke-width:0.25;"/>
<line x1="212.700000" y1="133.000000" x2="215.700000" y2="132.000000"  transform="rotate(0.000000,215.700000,132.000000)" style="stroke: black; stroke-width:0.25;"/>
<line x1="212.700000" y1="139.000000" x2="215.700000" y2="140.000000"  transform="rotate(0.000000,215.700000,140.000000)" style="stroke: black; stroke-width:0.25;"/>
<line x1="212.700000" y1="141.000000" x2="215.700000" y2="140.000000"  transform="rotate(0.000000,215.700000,140.000000)" style="stroke: black; stroke-width:0.25;"/>
<a xlink:href="decoderStereo-0x600004146d00.svg">
<rect x="289.200000" y="25.000000" width="77.400000" height="120.000000" rx="0" ry="0" style="stroke:none;fill:#cccccc;"/>
<rect x="288.200000" y="24.000000" width="77.400000" height="120.000000" rx="0" ry="0" style="stroke:none;fill:#003366;"/>
</a>
<a xlink:href="decoderStereo-0x600004146d00.svg">
<text x="326.900000" y="86.000000" font-family="Arial" font-size="7" text-anchor="middle" fill="#FFFFFF">decoderStereo(7)</text>
</a>
<circle cx="290.200000" cy="26.000000" r="1"/>
<line x1="285.200000" y1="27.000000" x2="288.200000" y2="28.000000"  transform="rotate(0.000000,288.200000,28.000000)" style="stroke: black; stroke-width:0.25;"/>
<line x1="285.200000" y1="29.000000" x2="288.200000" y2="28.000000"  transform="rotate(0.000000,288.200000,28.000000)" style="stroke: black; stroke-width:0.25;"/>
<line x1="285.200000" y1="35.000000" x2="288.200000" y2="36.000000"  transform="rotate(0.000000,288.200000,36.000000)" style="stroke: black; stroke-width:0.25;"/>
<line x1="285.200000" y1="37.000000" x2="288.200000" y2="36.000000"  transform="rotate(0.000000,288.200000,36.000000)" style="stroke: black; stroke-width:0.25;"/>
<line x1="285.200000" y1="43.000000" x2="288.200000" y2="44.000000"  transform="rotate(0.000000,288.200000,44.000000)" style="stroke: black; stroke-width:0.25;"/>
<line x1="285.200000" y1="45.000000" x2="288.200000" y2="44.000000"  transform="rotate(0.000000,288.200000,44.000000)" style="stroke: black; stroke-width:0.25;"/>
<line x1="285.200000" y1="51.000000" x2="288.200000" y2="52.000000"  transform="rotate(0.000000,288.200000,52.000000)" style="stroke: black; stroke-width:0.25;"/>
<line x1="285.200000" y1="53.000000" x2="288.200000" y2="52.000000"  transform="rotate(0.000000,288.200000,52.000000)" style="stroke: black; stroke-width:0.25;"/>
<line x1="285.200000" y1="59.000000" x2="288.200000" y2="60.000000"  transform="rotate(0.000000,288.200000,60.000000)" style="stroke: black; stroke-width:0.25;"/>
<line x1="285.200000" y1="61.000000" x2="288.200000" y2="60.000000"  transform="rotate(0.000000,288.200000,60.000000)" style="stroke: black; stroke-width:0.25;"/>
<line x1="285.200000" y1="67.000000" x2="288.200000" y2="68.000000"  transform="rotate(0.000000,288.200000,68.000000)" style="stroke: black; stroke-width:0.25;"/>
<line x1="285.200000" y1="69.000000" x2="288.200000" y2="68.000000"  transform="rotate(0.000000,288.200000,68.000000)" style="stroke: black; stroke-width:0.25;"/>
<line x1="285.200000" y1="75.000000" x2="288.200000" y2="76.000000"  transform="rotate(0.000000,288.200000,76.000000)" style="stroke: black; stroke-width:0.25;"/>
<line x1="285.200000" y1="77.000000" x2="288.200000" y2="76.000000"  transform="rotate(0.000000,288.200000,76.000000)" style="stroke: black; stroke-width:0.25;"/>
<line x1="285.200000" y1="83.000000" x2="288.200000" y2="84.000000"  transform="rotate(0.000000,288.200000,84.000000)" style="stroke: black; stroke-width:0.25;"/>
<line x1="285.200000" y1="85.000000" x2="288.200000" y2="84.000000"  transform="rotate(0.000000,288.200000,84.000000)" style="stroke: black; stroke-width:0.25;"/>
<line x1="285.200000" y1="91.000000" x2="288.200000" y2="92.000000"  transform="rotate(0.000000,288.200000,92.000000)" style="stroke: black; stroke-width:0.25;"/>
<line x1="285.200000" y1="93.000000" x2="288.200000" y2="92.000000"  transform="rotate(0.000000,288.200000,92.000000)" style="stroke: black; stroke-width:0.25;"/>
<line x1="285.200000" y1="99.000000" x2="288.200000" y2="100.000000"  transform="rotate(0.000000,288.200000,100.000000)" style="stroke: black; stroke-width:0.25;"/>
<line x1="285.200000" y1="101.000000" x2="288.200000" y2="100.000000"  transform="rotate(0.000000,288.200000,100.000000)" style="stroke: black; stroke-width:0.25;"/>
<line x1="285.200000" y1="107.000000" x2="288.200000" y2="108.000000"  transform="rotate(0.000000,288.200000,108.000000)" style="stroke: black; stroke-width:0.25;"/>
<line x1="285.200000" y1="109.000000" x2="288.200000" y2="108.000000"  transform="rotate(0.000000,288.200000,108.000000)" style="stroke: black; stroke-width:0.25;"/>
<line x1="285.200000" y1="115.000000" x2="288.200000" y2="116.000000"  transform="rotate(0.000000,288.200000,116.000000)" style="stroke: black; stroke-width:0.25;"/>
<line x1="285.200000" y1="117.000000" x2="288.200000" y2="116.000000"  transform="rotate(0.000000,288.200000,116.000000)" style="stroke: black; stroke-width:0.25;"/>
<line x1="285.200000" y1="123.000000" x2="288.200000" y2="124.000000"  transform="rotate(0.000000,288.200000,124.000000)" style="stroke: black; stroke-width:0.25;"/>
<line x1="285.200000" y1="125.000000" x2="288.200000" y2="124.000000"  transform="rotate(0.000000,288.200000,124.000000)" style="stroke: black; stroke-width:0.25;"/>
<line x1="285.200000" y1="131.000000" x2="288.200000" y2="132.000000"  transform="rotate(0.000000,288.200000,132.000000)" style="stroke: black; stroke-width:0.25;"/>
<line x1="285.200000" y1="133.000000" x2="288.200000" y2="132.000000"  transform="rotate(0.000000,288.200000,132.000000)" style="stroke: black; stroke-width:0.25;"/>
<line x1="285.200000" y1="139.000000" x2="288.200000" y2="140.000000"  transform="rotate(0.000000,288.200000,140.000000)" style="stroke: black; stroke-width:0.25;"/>
<line x1="285.200000" y1="141.000000" x2="288.200000" y2="140.000000"  transform="rotate(0.000000,288.200000,140.000000)" style="stroke: black; stroke-width:0.25;"/>
<line x1="15.000000" y1="15.000000" x2="15.000000" y2="153.000000"  style="stroke: black; stroke-linecap:round; stroke-width:0.25; stroke-dasharray:3,3;"/>
<line x1="15.000000" y1="153.000000" x2="382.600000" y2="153.000000"  style="stroke: black; stroke-linecap:round; stroke-width:0.25; stroke-dasharray:3,3;"/>
<line x1="382.600000" y1="153.000000" x2="382.600000" y2="15.000000"  style="stroke: black; stroke-linecap:round; stroke-width:0.25; stroke-dasharray:3,3;"/>
<line x1="15.000000" y1="15.000000" x2="20.000000" y2="15.000000"  style="stroke: black; stroke-linecap:round; stroke-width:0.25; stroke-dasharray:3,3;"/>
<line x1="49.025000" y1="15.000000" x2="382.600000" y2="15.000000"  style="stroke: black; stroke-linecap:round; stroke-width:0.25; stroke-dasharray:3,3;"/>
<text x="20.000000" y="17.000000" font-family="Arial" font-size="7">process</text>
<line x1="384.600000" y1="79.000000" x2="387.600000" y2="80.000000"  transform="rotate(0.000000,387.600000,80.000000)" style="stroke: black; stroke-width:0.25;"/>
<line x1="384.600000" y1="81.000000" x2="387.600000" y2="80.000000"  transform="rotate(0.000000,387.600000,80.000000)" style="stroke: black; stroke-width:0.25;"/>
<line x1="384.600000" y1="87.000000" x2="387.600000" y2="88.000000"  transform="rotate(0.000000,387.600000,88.000000)" style="stroke: black; stroke-width:0.25;"/>
<line x1="384.600000" y1="89.000000" x2="387.600000" y2="88.000000"  transform="rotate(0.000000,387.600000,88.000000)" style="stroke: black; stroke-width:0.25;"/>
<line x1="10.000000" y1="84.000000" x2="20.000000" y2="84.000000"  style="stroke:black; stroke-linecap:round; stroke-width:0.25;"/>
<line x1="20.000000" y1="84.000000" x2="24.000000" y2="84.000000"  style="stroke:black; stroke-linecap:round; stroke-width:0.25;"/>
<line x1="24.000000" y1="84.000000" x2="28.000000" y2="84.000000"  style="stroke:black; stroke-linecap:round; stroke-width:0.25;"/>
<line x1="28.000000" y1="84.000000" x2="28.000000" y2="84.000000"  style="stroke:black; stroke-linecap:round; stroke-width:0.25;"/>
<line x1="28.000000" y1="84.000000" x2="32.000000" y2="84.000000"  style="stroke:black; stroke-linecap:round; stroke-width:0.25;"/>
<line x1="207.700000" y1="28.000000" x2="211.700000" y2="28.000000"  style="stroke:black; stroke-linecap:round; stroke-width:0.25;"/>
<line x1="207.700000" y1="36.000000" x2="211.700000" y2="36.000000"  style="stroke:black; stroke-linecap:round; stroke-width:0.25;"/>
<line x1="207.700000" y1="44.000000" x2="211.700000" y2="44.000000"  style="stroke:black; stroke-linecap:round; stroke-width:0.25;"/>
<line x1="207.700000" y1="52.000000" x2="211.700000" y2="52.000000"  style="stroke:black; stroke-linecap:round; stroke-width:0.25;"/>
<line x1="207.700000" y1="60.000000" x2="211.700000" y2="60.000000"  style="stroke:black; stroke-linecap:round; stroke-width:0.25;"/>
<line x1="207.700000" y1="68.000000" x2="211.700000" y2="68.000000"  style="stroke:black; stroke-linecap:round; stroke-width:0.25;"/>
<line x1="207.700000" y1="76.000000" x2="211.700000" y2="76.000000"  style="stroke:black; stroke-linecap:round; stroke-width:0.25;"/>
<line x1="207.700000" y1="84.000000" x2="211.700000" y2="84.000000"  style="stroke:black; stroke-linecap:round; stroke-width:0.25;"/>
<line x1="207.700000" y1="92.000000" x2="211.700000" y2="92.000000"  style="stroke:black; stroke-linecap:round; stroke-width:0.25;"/>
<line x1="207.700000" y1="100.000000" x2="211.700000" y2="100.000000"  style="stroke:black; stroke-linecap:round; stroke-width:0.25;"/>
<line x1="207.700000" y1="108.000000" x2="211.700000" y2="108.000000"  style="stroke:black; stroke-linecap:round; stroke-width:0.25;"/>
<line x1="207.700000" y1="116.000000" x2="211.700000" y2="116.000000"  style="stroke:black; stroke-linecap:round; stroke-width:0.25;"/>
<line x1="207.700000" y1="124.000000" x2="211.700000" y2="124.000000"  style="stroke:black; stroke-linecap:round; stroke-width:0.25;"/>
<line x1="207.700000" y1="132.000000" x2="211.700000" y2="132.000000"  style="stroke:black; stroke-linecap:round; stroke-width:0.25;"/>
<line x1="207.700000" y1="140.000000" x2="211.700000" y2="140.000000"  style="stroke:black; stroke-linecap:round; stroke-width:0.25;"/>
<line x1="211.700000" y1="28.000000" x2="211.700000" y2="28.000000"  style="stroke:black; stroke-linecap:round; stroke-width:0.25;"/>
<line x1="211.700000" y1="28.000000" x2="215.700000" y2="28.000000"  style="stroke:black; stroke-linecap:round; stroke-width:0.25;"/>
<line x1="211.700000" y1="36.000000" x2="211.700000" y2="36.000000"  style="stroke:black; stroke-linecap:round; stroke-width:0.25;"/>
<line x1="211.700000" y1="36.000000" x2="215.700000" y2="36.000000"  style="stroke:black; stroke-linecap:round; stroke-width:0.25;"/>
<line x1="211.700000" y1="44.000000" x2="211.700000" y2="44.000000"  style="stroke:black; stroke-linecap:round; stroke-width:0.25;"/>
<line x1="211.700000" y1="44.000000" x2="215.700000" y2="44.000000"  style="stroke:black; stroke-linecap:round; stroke-width:0.25;"/>
<line x1="211.700000" y1="52.000000" x2="211.700000" y2="52.000000"  style="stroke:black; stroke-linecap:round; stroke-width:0.25;"/>
<line x1="211.700000" y1="52.000000" x2="215.700000" y2="52.000000"  style="stroke:black; stroke-linecap:round; stroke-width:0.25;"/>
<line x1="211.700000" y1="60.000000" x2="211.700000" y2="60.000000"  style="stroke:black; stroke-linecap:round; stroke-width:0.25;"/>
<line x1="211.700000" y1="60.000000" x2="215.700000" y2="60.000000"  style="stroke:black; stroke-linecap:round; stroke-width:0.25;"/>
<line x1="211.700000" y1="68.000000" x2="211.700000" y2="68.000000"  style="stroke:black; stroke-linecap:round; stroke-width:0.25;"/>
<line x1="211.700000" y1="68.000000" x2="215.700000" y2="68.000000"  style="stroke:black; stroke-linecap:round; stroke-width:0.25;"/>
<line x1="211.700000" y1="76.000000" x2="211.700000" y2="76.000000"  style="stroke:black; stroke-linecap:round; stroke-width:0.25;"/>
<line x1="211.700000" y1="76.000000" x2="215.700000" y2="76.000000"  style="stroke:black; stroke-linecap:round; stroke-width:0.25;"/>
<line x1="211.700000" y1="84.000000" x2="211.700000" y2="84.000000"  style="stroke:black; stroke-linecap:round; stroke-width:0.25;"/>
<line x1="211.700000" y1="84.000000" x2="215.700000" y2="84.000000"  style="stroke:black; stroke-linecap:round; stroke-width:0.25;"/>
<line x1="211.700000" y1="92.000000" x2="211.700000" y2="92.000000"  style="stroke:black; stroke-linecap:round; stroke-width:0.25;"/>
<line x1="211.700000" y1="92.000000" x2="215.700000" y2="92.000000"  style="stroke:black; stroke-linecap:round; stroke-width:0.25;"/>
<line x1="211.700000" y1="100.000000" x2="211.700000" y2="100.000000"  style="stroke:black; stroke-linecap:round; stroke-width:0.25;"/>
<line x1="211.700000" y1="100.000000" x2="215.700000" y2="100.000000"  style="stroke:black; stroke-linecap:round; stroke-width:0.25;"/>
<line x1="211.700000" y1="108.000000" x2="211.700000" y2="108.000000"  style="stroke:black; stroke-linecap:round; stroke-width:0.25;"/>
<line x1="211.700000" y1="108.000000" x2="215.700000" y2="108.000000"  style="stroke:black; stroke-linecap:round; stroke-width:0.25;"/>
<line x1="211.700000" y1="116.000000" x2="211.700000" y2="116.000000"  style="stroke:black; stroke-linecap:round; stroke-width:0.25;"/>
<line x1="211.700000" y1="116.000000" x2="215.700000" y2="116.000000"  style="stroke:black; stroke-linecap:round; stroke-width:0.25;"/>
<line x1="211.700000" y1="124.000000" x2="211.700000" y2="124.000000"  style="stroke:black; stroke-linecap:round; stroke-width:0.25;"/>
<line x1="211.700000" y1="124.000000" x2="215.700000" y2="124.000000"  style="stroke:black; stroke-linecap:round; stroke-width:0.25;"/>
<line x1="211.700000" y1="132.000000" x2="211.700000" y2="132.000000"  style="stroke:black; stroke-linecap:round; stroke-width:0.25;"/>
<line x1="211.700000" y1="132.000000" x2="215.700000" y2="132.000000"  style="stroke:black; stroke-linecap:round; stroke-width:0.25;"/>
<line x1="211.700000" y1="140.000000" x2="211.700000" y2="140.000000"  style="stroke:black; stroke-linecap:round; stroke-width:0.25;"/>
<line x1="211.700000" y1="140.000000" x2="215.700000" y2="140.000000"  style="stroke:black; stroke-linecap:round; stroke-width:0.25;"/>
<line x1="280.200000" y1="28.000000" x2="284.200000" y2="28.000000"  style="stroke:black; stroke-linecap:round; stroke-width:0.25;"/>
<line x1="280.200000" y1="36.000000" x2="284.200000" y2="36.000000"  style="stroke:black; stroke-linecap:round; stroke-width:0.25;"/>
<line x1="280.200000" y1="44.000000" x2="284.200000" y2="44.000000"  style="stroke:black; stroke-linecap:round; stroke-width:0.25;"/>
<line x1="280.200000" y1="52.000000" x2="284.200000" y2="52.000000"  style="stroke:black; stroke-linecap:round; stroke-width:0.25;"/>
<line x1="280.200000" y1="60.000000" x2="284.200000" y2="60.000000"  style="stroke:black; stroke-linecap:round; stroke-width:0.25;"/>
<line x1="280.200000" y1="68.000000" x2="284.200000" y2="68.000000"  style="stroke:black; stroke-linecap:round; stroke-width:0.25;"/>
<line x1="280.200000" y1="76.000000" x2="284.200000" y2="76.000000"  style="stroke:black; stroke-linecap:round; stroke-width:0.25;"/>
<line x1="280.200000" y1="84.000000" x2="284.200000" y2="84.000000"  style="stroke:black; stroke-linecap:round; stroke-width:0.25;"/>
<line x1="280.200000" y1="92.000000" x2="284.200000" y2="92.000000"  style="stroke:black; stroke-linecap:round; stroke-width:0.25;"/>
<line x1="280.200000" y1="100.000000" x2="284.200000" y2="100.000000"  style="stroke:black; stroke-linecap:round; stroke-width:0.25;"/>
<line x1="280.200000" y1="108.000000" x2="284.200000" y2="108.000000"  style="stroke:black; stroke-linecap:round; stroke-width:0.25;"/>
<line x1="280.200000" y1="116.000000" x2="284.200000" y2="116.000000"  style="stroke:black; stroke-linecap:round; stroke-width:0.25;"/>
<line x1="280.200000" y1="124.000000" x2="284.200000" y2="124.000000"  style="stroke:black; stroke-linecap:round; stroke-width:0.25;"/>
<line x1="280.200000" y1="132.000000" x2="284.200000" y2="132.000000"  style="stroke:black; stroke-linecap:round; stroke-width:0.25;"/>
<line x1="280.200000" y1="140.000000" x2="284.200000" y2="140.000000"  style="stroke:black; stroke-linecap:round; stroke-width:0.25;"/>
<line x1="284.200000" y1="28.000000" x2="284.200000" y2="28.000000"  style="stroke:black; stroke-linecap:round; stroke-width:0.25;"/>
<line x1="284.200000" y1="28.000000" x2="288.200000" y2="28.000000"  style="stroke:black; stroke-linecap:round; stroke-width:0.25;"/>
<line x1="284.200000" y1="36.000000" x2="284.200000" y2="36.000000"  style="stroke:black; stroke-linecap:round; stroke-width:0.25;"/>
<line x1="284.200000" y1="36.000000" x2="288.200000" y2="36.000000"  style="stroke:black; stroke-linecap:round; stroke-width:0.25;"/>
<line x1="284.200000" y1="44.000000" x2="284.200000" y2="44.000000"  style="stroke:black; stroke-linecap:round; stroke-width:0.25;"/>
<line x1="284.200000" y1="44.000000" x2="288.200000" y2="44.000000"  style="stroke:black; stroke-linecap:round; stroke-width:0.25;"/>
<line x1="284.200000" y1="52.000000" x2="284.200000" y2="52.000000"  style="stroke:black; stroke-linecap:round; stroke-width:0.25;"/>
<line x1="284.200000" y1="52.000000" x2="288.200000" y2="52.000000"  style="stroke:black; stroke-linecap:round; stroke-width:0.25;"/>
<line x1="284.200000" y1="60.000000" x2="284.200000" y2="60.000000"  style="stroke:black; stroke-linecap:round; stroke-width:0.25;"/>
<line x1="284.200000" y1="60.000000" x2="288.200000" y2="60.000000"  style="stroke:black; stroke-linecap:round; stroke-width:0.25;"/>
<line x1="284.200000" y1="68.000000" x2="284.200000" y2="68.000000"  style="stroke:black; stroke-linecap:round; stroke-width:0.25;"/>
<line x1="284.200000" y1="68.000000" x2="288.200000" y2="68.000000"  style="stroke:black; stroke-linecap:round; stroke-width:0.25;"/>
<line x1="284.200000" y1="76.000000" x2="284.200000" y2="76.000000"  style="stroke:black; stroke-linecap:round; stroke-width:0.25;"/>
<line x1="284.200000" y1="76.000000" x2="288.200000" y2="76.000000"  style="stroke:black; stroke-linecap:round; stroke-width:0.25;"/>
<line x1="284.200000" y1="84.000000" x2="284.200000" y2="84.000000"  style="stroke:black; stroke-linecap:round; stroke-width:0.25;"/>
<line x1="284.200000" y1="84.000000" x2="288.200000" y2="84.000000"  style="stroke:black; stroke-linecap:round; stroke-width:0.25;"/>
<line x1="284.200000" y1="92.000000" x2="284.200000" y2="92.000000"  style="stroke:black; stroke-linecap:round; stroke-width:0.25;"/>
<line x1="284.200000" y1="92.000000" x2="288.200000" y2="92.000000"  style="stroke:black; stroke-linecap:round; stroke-width:0.25;"/>
<line x1="284.200000" y1="100.000000" x2="284.200000" y2="100.000000"  style="stroke:black; stroke-linecap:round; stroke-width:0.25;"/>
<line x1="284.200000" y1="100.000000" x2="288.200000" y2="100.000000"  style="stroke:black; stroke-linecap:round; stroke-width:0.25;"/>
<line x1="284.200000" y1="108.000000" x2="284.200000" y2="108.000000"  style="stroke:black; stroke-linecap:round; stroke-width:0.25;"/>
<line x1="284.200000" y1="108.000000" x2="288.200000" y2="108.000000"  style="stroke:black; stroke-linecap:round; stroke-width:0.25;"/>
<line x1="284.200000" y1="116.000000" x2="284.200000" y2="116.000000"  style="stroke:black; stroke-linecap:round; stroke-width:0.25;"/>
<line x1="284.200000" y1="116.000000" x2="288.200000" y2="116.000000"  style="stroke:black; stroke-linecap:round; stroke-width:0.25;"/>
<line x1="284.200000" y1="124.000000" x2="284.200000" y2="124.000000"  style="stroke:black; stroke-linecap:round; stroke-width:0.25;"/>
<line x1="284.200000" y1="124.000000" x2="288.200000" y2="124.000000"  style="stroke:black; stroke-linecap:round; stroke-width:0.25;"/>
<line x1="284.200000" y1="132.000000" x2="284.200000" y2="132.000000"  style="stroke:black; stroke-linecap:round; stroke-width:0.25;"/>
<line x1="284.200000" y1="132.000000" x2="288.200000" y2="132.000000"  style="stroke:black; stroke-linecap:round; stroke-width:0.25;"/>
<line x1="284.200000" y1="140.000000" x2="284.200000" y2="140.000000"  style="stroke:black; stroke-linecap:round; stroke-width:0.25;"/>
<line x1="284.200000" y1="140.000000" x2="288.200000" y2="140.000000"  style="stroke:black; stroke-linecap:round; stroke-width:0.25;"/>
<line x1="365.600000" y1="80.000000" x2="369.600000" y2="80.000000"  style="stroke:black; stroke-linecap:round; stroke-width:0.25;"/>
<line x1="365.600000" y1="88.000000" x2="369.600000" y2="88.000000"  style="stroke:black; stroke-linecap:round; stroke-width:0.25;"/>
<line x1="369.600000" y1="80.000000" x2="369.600000" y2="80.000000"  style="stroke:black; stroke-linecap:round; stroke-width:0.25;"/>
<line x1="369.600000" y1="80.000000" x2="373.600000" y2="80.000000"  style="stroke:black; stroke-linecap:round; stroke-width:0.25;"/>
<line x1="369.600000" y1="88.000000" x2="369.600000" y2="88.000000"  style="stroke:black; stroke-linecap:round; stroke-width:0.25;"/>
<line x1="369.600000" y1="88.000000" x2="373.600000" y2="88.000000"  style="stroke:black; stroke-linecap:round; stroke-width:0.25;"/>
<line x1="373.600000" y1="80.000000" x2="377.600000" y2="80.000000"  style="stroke:black; stroke-linecap:round; stroke-width:0.25;"/>
<line x1="373.600000" y1="88.000000" x2="377.600000" y2="88.000000"  style="stroke:black; stroke-linecap:round; stroke-width:0.25;"/>
<line x1="377.600000" y1="80.000000" x2="387.600000" y2="80.000000"  style="stroke:black; stroke-linecap:round; stroke-width:0.25;"/>
<line x1="377.600000" y1="88.000000" x2="387.600000" y2="88.000000"  style="stroke:black; stroke-linecap:round; stroke-width:0.25;"/>
</svg>
