<?xml version="1.0"?>
<svg xmlns="http://www.w3.org/2000/svg" xmlns:xlink="http://www.w3.org/1999/xlink" viewBox="0 0 547.800000 124.000000" width="273.900000mm" height="62.000000mm" version="1.1">
<a xlink:href="osc-0x7fbfb08b0640.svg">
<rect x="1.000000" y="1.000000" width="546.800000" height="123.000000" rx="0" ry="0" style="stroke:none;fill:#cccccc;"/>
<rect x="0.000000" y="0.000000" width="546.800000" height="123.000000" rx="0" ry="0" style="stroke:none;fill:#ffffff;"/>
</a>
<text x="10.000000" y="7.000000" font-family="Arial" font-size="7"></text>
<rect x="35.000000" y="35.000000" width="193.500000" height="24.000000" rx="0" ry="0" style="stroke:none;fill:#cccccc;"/>
<rect x="34.000000" y="34.000000" width="193.500000" height="24.000000" rx="0" ry="0" style="stroke:none;fill:#477881;"/>
<text x="130.750000" y="48.000000" font-family="Arial" font-size="7" text-anchor="middle" fill="#FFFFFF">hslider(freq, 440.0f, 50.0f, 3000.0f, 0.01f)</text>
<circle cx="36.000000" cy="36.000000" r="1"/>
<line x1="25.000000" y1="25.000000" x2="25.000000" y2="67.000000"  style="stroke: black; stroke-linecap:round; stroke-width:0.25; stroke-dasharray:3,3;"/>
<line x1="25.000000" y1="67.000000" x2="236.500000" y2="67.000000"  style="stroke: black; stroke-linecap:round; stroke-width:0.25; stroke-dasharray:3,3;"/>
<line x1="236.500000" y1="67.000000" x2="236.500000" y2="25.000000"  style="stroke: black; stroke-linecap:round; stroke-width:0.25; stroke-dasharray:3,3;"/>
<line x1="25.000000" y1="25.000000" x2="30.000000" y2="25.000000"  style="stroke: black; stroke-linecap:round; stroke-width:0.25; stroke-dasharray:3,3;"/>
<line x1="49.350000" y1="25.000000" x2="236.500000" y2="25.000000"  style="stroke: black; stroke-linecap:round; stroke-width:0.25; stroke-dasharray:3,3;"/>
<text x="30.000000" y="27.000000" font-family="Arial" font-size="7">freq</text>
<a xlink:href="SR-0x7fbfb0802e20.svg">
<rect x="102.850000" y="77.000000" width="24.000000" height="24.000000" rx="0" ry="0" style="stroke:none;fill:#cccccc;"/>
<rect x="101.850000" y="76.000000" width="24.000000" height="24.000000" rx="0" ry="0" style="stroke:none;fill:#003366;"/>
</a>
<a xlink:href="SR-0x7fbfb0802e20.svg">
<text x="113.850000" y="90.000000" font-family="Arial" font-size="7" text-anchor="middle" fill="#FFFFFF">SR</text>
</a>
<circle cx="103.850000" cy="78.000000" r="1"/>
<rect x="134.850000" y="77.000000" width="25.800000" height="24.000000" rx="0" ry="0" style="stroke:none;fill:#cccccc;"/>
<rect x="133.850000" y="76.000000" width="25.800000" height="24.000000" rx="0" ry="0" style="stroke:none;fill:#4B71A1;"/>
<text x="146.750000" y="90.000000" font-family="Arial" font-size="7" text-anchor="middle" fill="#FFFFFF">float</text>
<circle cx="135.850000" cy="78.000000" r="1"/>
<line x1="130.850000" y1="87.000000" x2="133.850000" y2="88.000000"  transform="rotate(0.000000,133.850000,88.000000)" style="stroke: black; stroke-width:0.25;"/>
<line x1="130.850000" y1="89.000000" x2="133.850000" y2="88.000000"  transform="rotate(0.000000,133.850000,88.000000)" style="stroke: black; stroke-width:0.25;"/>
<rect x="254.500000" y="51.000000" width="24.000000" height="24.000000" rx="0" ry="0" style="stroke:none;fill:#cccccc;"/>
<rect x="253.500000" y="50.000000" width="24.000000" height="24.000000" rx="0" ry="0" style="stroke:none;fill:#4B71A1;"/>
<text x="265.500000" y="64.000000" font-family="Arial" font-size="7" text-anchor="middle" fill="#FFFFFF">/</text>
<circle cx="255.500000" cy="52.000000" r="1"/>
<line x1="250.500000" y1="57.000000" x2="253.500000" y2="58.000000"  transform="rotate(0.000000,253.500000,58.000000)" style="stroke: black; stroke-width:0.25;"/>
<line x1="250.500000" y1="59.000000" x2="253.500000" y2="58.000000"  transform="rotate(0.000000,253.500000,58.000000)" style="stroke: black; stroke-width:0.25;"/>
<line x1="250.500000" y1="65.000000" x2="253.500000" y2="66.000000"  transform="rotate(0.000000,253.500000,66.000000)" style="stroke: black; stroke-width:0.25;"/>
<line x1="250.500000" y1="67.000000" x2="253.500000" y2="66.000000"  transform="rotate(0.000000,253.500000,66.000000)" style="stroke: black; stroke-width:0.25;"/>
<rect x="302.500000" y="55.000000" width="24.000000" height="24.000000" rx="0" ry="0" style="stroke:none;fill:#cccccc;"/>
<rect x="301.500000" y="54.000000" width="24.000000" height="24.000000" rx="0" ry="0" style="stroke:none;fill:#4B71A1;"/>
<text x="313.500000" y="68.000000" font-family="Arial" font-size="7" text-anchor="middle" fill="#FFFFFF">+</text>
<circle cx="303.500000" cy="56.000000" r="1"/>
<line x1="298.500000" y1="61.000000" x2="301.500000" y2="62.000000"  transform="rotate(0.000000,301.500000,62.000000)" style="stroke: black; stroke-width:0.25;"/>
<line x1="298.500000" y1="63.000000" x2="301.500000" y2="62.000000"  transform="rotate(0.000000,301.500000,62.000000)" style="stroke: black; stroke-width:0.25;"/>
<line x1="298.500000" y1="69.000000" x2="301.500000" y2="70.000000"  transform="rotate(0.000000,301.500000,70.000000)" style="stroke: black; stroke-width:0.25;"/>
<line x1="298.500000" y1="71.000000" x2="301.500000" y2="70.000000"  transform="rotate(0.000000,301.500000,70.000000)" style="stroke: black; stroke-width:0.25;"/>
<a xlink:href="decimal-0x7fbfb0807350.svg">
<rect x="334.500000" y="55.000000" width="38.700000" height="24.000000" rx="0" ry="0" style="stroke:none;fill:#cccccc;"/>
<rect x="333.500000" y="54.000000" width="38.700000" height="24.000000" rx="0" ry="0" style="stroke:none;fill:#003366;"/>
</a>
<a xlink:href="decimal-0x7fbfb0807350.svg">
<text x="352.850000" y="68.000000" font-family="Arial" font-size="7" text-anchor="middle" fill="#FFFFFF">decimal</text>
</a>
<circle cx="335.500000" cy="56.000000" r="1"/>
<line x1="330.500000" y1="65.000000" x2="333.500000" y2="66.000000"  transform="rotate(0.000000,333.500000,66.000000)" style="stroke: black; stroke-width:0.25;"/>
<line x1="330.500000" y1="67.000000" x2="333.500000" y2="66.000000"  transform="rotate(0.000000,333.500000,66.000000)" style="stroke: black; stroke-width:0.25;"/>
<line x1="374.200000" y1="66.000000" x2="374.200000" y2="62.000000"  style="stroke:black; stroke-linecap:round; stroke-width:0.25;"/>
<line x1="374.200000" y1="62.000000" x2="378.200000" y2="62.000000"  style="stroke:black; stroke-linecap:round; stroke-width:0.25;"/>
<line x1="378.200000" y1="62.000000" x2="378.200000" y2="66.000000"  style="stroke:black; stroke-linecap:round; stroke-width:0.25;"/>
<rect x="407.200000" y="55.000000" width="25.800000" height="24.000000" rx="0" ry="0" style="stroke:none;fill:#cccccc;"/>
<rect x="406.200000" y="54.000000" width="25.800000" height="24.000000" rx="0" ry="0" style="stroke:none;fill:#f44800;"/>
<text x="419.100000" y="68.000000" font-family="Arial" font-size="7" text-anchor="middle" fill="#FFFFFF">65536</text>
<circle cx="408.200000" cy="56.000000" r="1"/>
<line x1="397.200000" y1="45.000000" x2="397.200000" y2="87.000000"  style="stroke: black; stroke-linecap:round; stroke-width:0.25; stroke-dasharray:3,3;"/>
<line x1="397.200000" y1="87.000000" x2="441.000000" y2="87.000000"  style="stroke: black; stroke-linecap:round; stroke-width:0.25; stroke-dasharray:3,3;"/>
<line x1="441.000000" y1="87.000000" x2="441.000000" y2="45.000000"  style="stroke: black; stroke-linecap:round; stroke-width:0.25; stroke-dasharray:3,3;"/>
<line x1="397.200000" y1="45.000000" x2="402.200000" y2="45.000000"  style="stroke: black; stroke-linecap:round; stroke-width:0.25; stroke-dasharray:3,3;"/>
<line x1="437.675000" y1="45.000000" x2="441.000000" y2="45.000000"  style="stroke: black; stroke-linecap:round; stroke-width:0.25; stroke-dasharray:3,3;"/>
<text x="402.200000" y="47.000000" font-family="Arial" font-size="7">tablesize</text>
<rect x="451.000000" y="55.000000" width="25.800000" height="24.000000" rx="0" ry="0" style="stroke:none;fill:#cccccc;"/>
<rect x="450.000000" y="54.000000" width="25.800000" height="24.000000" rx="0" ry="0" style="stroke:none;fill:#4B71A1;"/>
<text x="462.900000" y="68.000000" font-family="Arial" font-size="7" text-anchor="middle" fill="#FFFFFF">float</text>
<circle cx="452.000000" cy="56.000000" r="1"/>
<line x1="447.000000" y1="65.000000" x2="450.000000" y2="66.000000"  transform="rotate(0.000000,450.000000,66.000000)" style="stroke: black; stroke-width:0.25;"/>
<line x1="447.000000" y1="67.000000" x2="450.000000" y2="66.000000"  transform="rotate(0.000000,450.000000,66.000000)" style="stroke: black; stroke-width:0.25;"/>
<rect x="492.800000" y="51.000000" width="24.000000" height="24.000000" rx="0" ry="0" style="stroke:none;fill:#cccccc;"/>
<rect x="491.800000" y="50.000000" width="24.000000" height="24.000000" rx="0" ry="0" style="stroke:none;fill:#4B71A1;"/>
<text x="503.800000" y="64.000000" font-family="Arial" font-size="7" text-anchor="middle" fill="#FFFFFF">*</text>
<circle cx="493.800000" cy="52.000000" r="1"/>
<line x1="488.800000" y1="57.000000" x2="491.800000" y2="58.000000"  transform="rotate(0.000000,491.800000,58.000000)" style="stroke: black; stroke-width:0.25;"/>
<line x1="488.800000" y1="59.000000" x2="491.800000" y2="58.000000"  transform="rotate(0.000000,491.800000,58.000000)" style="stroke: black; stroke-width:0.25;"/>
<line x1="488.800000" y1="65.000000" x2="491.800000" y2="66.000000"  transform="rotate(0.000000,491.800000,66.000000)" style="stroke: black; stroke-width:0.25;"/>
<line x1="488.800000" y1="67.000000" x2="491.800000" y2="66.000000"  transform="rotate(0.000000,491.800000,66.000000)" style="stroke: black; stroke-width:0.25;"/>
<line x1="15.000000" y1="15.000000" x2="15.000000" y2="109.000000"  style="stroke: black; stroke-linecap:round; stroke-width:0.25; stroke-dasharray:3,3;"/>
<line x1="15.000000" y1="109.000000" x2="532.800000" y2="109.000000"  style="stroke: black; stroke-linecap:round; stroke-width:0.25; stroke-dasharray:3,3;"/>
<line x1="532.800000" y1="109.000000" x2="532.800000" y2="15.000000"  style="stroke: black; stroke-linecap:round; stroke-width:0.25; stroke-dasharray:3,3;"/>
<line x1="15.000000" y1="15.000000" x2="20.000000" y2="15.000000"  style="stroke: black; stroke-linecap:round; stroke-width:0.25; stroke-dasharray:3,3;"/>
<line x1="119.975000" y1="15.000000" x2="532.800000" y2="15.000000"  style="stroke: black; stroke-linecap:round; stroke-width:0.25; stroke-dasharray:3,3;"/>
<text x="20.000000" y="17.000000" font-family="Arial" font-size="7">phasor(65536)...0.0f, 0.01f))</text>
<line x1="534.800000" y1="61.000000" x2="537.800000" y2="62.000000"  transform="rotate(0.000000,537.800000,62.000000)" style="stroke: black; stroke-width:0.25;"/>
<line x1="534.800000" y1="63.000000" x2="537.800000" y2="62.000000"  transform="rotate(0.000000,537.800000,62.000000)" style="stroke: black; stroke-width:0.25;"/>
<line x1="125.850000" y1="88.000000" x2="129.850000" y2="88.000000"  style="stroke:black; stroke-linecap:round; stroke-width:0.25;"/>
<line x1="129.850000" y1="88.000000" x2="129.850000" y2="88.000000"  style="stroke:black; stroke-linecap:round; stroke-width:0.25;"/>
<line x1="129.850000" y1="88.000000" x2="133.850000" y2="88.000000"  style="stroke:black; stroke-linecap:round; stroke-width:0.25;"/>
<line x1="159.650000" y1="88.000000" x2="163.650000" y2="88.000000"  style="stroke:black; stroke-linecap:round; stroke-width:0.25;"/>
<line x1="163.650000" y1="88.000000" x2="241.500000" y2="88.000000"  style="stroke:black; stroke-linecap:round; stroke-width:0.25;"/>
<line x1="227.500000" y1="46.000000" x2="231.500000" y2="46.000000"  style="stroke:black; stroke-linecap:round; stroke-width:0.25;"/>
<line x1="231.500000" y1="46.000000" x2="241.500000" y2="46.000000"  style="stroke:black; stroke-linecap:round; stroke-width:0.25;"/>
<line x1="241.500000" y1="66.000000" x2="249.500000" y2="66.000000"  style="stroke:black; stroke-linecap:round; stroke-width:0.25;"/>
<line x1="241.500000" y1="88.000000" x2="241.500000" y2="66.000000"  style="stroke:black; stroke-linecap:round; stroke-width:0.25;"/>
<line x1="241.500000" y1="88.000000" x2="241.500000" y2="88.000000"  style="stroke:black; stroke-linecap:round; stroke-width:0.25;"/>
<line x1="241.500000" y1="46.000000" x2="249.500000" y2="46.000000"  style="stroke:black; stroke-linecap:round; stroke-width:0.25;"/>
<line x1="249.500000" y1="46.000000" x2="249.500000" y2="58.000000"  style="stroke:black; stroke-linecap:round; stroke-width:0.25;"/>
<line x1="249.500000" y1="58.000000" x2="249.500000" y2="58.000000"  style="stroke:black; stroke-linecap:round; stroke-width:0.25;"/>
<line x1="249.500000" y1="58.000000" x2="253.500000" y2="58.000000"  style="stroke:black; stroke-linecap:round; stroke-width:0.25;"/>
<line x1="249.500000" y1="66.000000" x2="253.500000" y2="66.000000"  style="stroke:black; stroke-linecap:round; stroke-width:0.25;"/>
<line x1="277.500000" y1="62.000000" x2="281.500000" y2="62.000000"  style="stroke:black; stroke-linecap:round; stroke-width:0.25;"/>
<line x1="281.500000" y1="62.000000" x2="289.500000" y2="62.000000"  style="stroke:black; stroke-linecap:round; stroke-width:0.25;"/>
<line x1="289.500000" y1="62.000000" x2="289.500000" y2="70.000000"  style="stroke:black; stroke-linecap:round; stroke-width:0.25;"/>
<line x1="289.500000" y1="70.000000" x2="289.500000" y2="70.000000"  style="stroke:black; stroke-linecap:round; stroke-width:0.25;"/>
<line x1="289.500000" y1="70.000000" x2="297.500000" y2="70.000000"  style="stroke:black; stroke-linecap:round; stroke-width:0.25;"/>
<line x1="297.500000" y1="46.000000" x2="297.500000" y2="46.000000"  style="stroke:black; stroke-linecap:round; stroke-width:0.25;"/>
<line x1="297.500000" y1="46.000000" x2="297.500000" y2="62.000000"  style="stroke:black; stroke-linecap:round; stroke-width:0.25;"/>
<line x1="297.500000" y1="62.000000" x2="297.500000" y2="62.000000"  style="stroke:black; stroke-linecap:round; stroke-width:0.25;"/>
<line x1="297.500000" y1="62.000000" x2="301.500000" y2="62.000000"  style="stroke:black; stroke-linecap:round; stroke-width:0.25;"/>
<line x1="297.500000" y1="70.000000" x2="301.500000" y2="70.000000"  style="stroke:black; stroke-linecap:round; stroke-width:0.25;"/>
<line x1="325.500000" y1="66.000000" x2="329.500000" y2="66.000000"  style="stroke:black; stroke-linecap:round; stroke-width:0.25;"/>
<line x1="329.500000" y1="66.000000" x2="329.500000" y2="66.000000"  style="stroke:black; stroke-linecap:round; stroke-width:0.25;"/>
<line x1="329.500000" y1="66.000000" x2="333.500000" y2="66.000000"  style="stroke:black; stroke-linecap:round; stroke-width:0.25;"/>
<line x1="336.850000" y1="46.000000" x2="297.500000" y2="46.000000"  style="stroke:black; stroke-linecap:round; stroke-width:0.25;"/>
<line x1="372.200000" y1="66.000000" x2="376.200000" y2="66.000000"  style="stroke:black; stroke-linecap:round; stroke-width:0.25;"/>
<line x1="376.200000" y1="46.000000" x2="376.200000" y2="46.000000"  style="stroke:black; stroke-linecap:round; stroke-width:0.25;"/>
<line x1="376.200000" y1="62.000000" x2="376.200000" y2="46.000000"  style="stroke:black; stroke-linecap:round; stroke-width:0.25;"/>
<line x1="376.200000" y1="66.000000" x2="378.200000" y2="66.000000"  style="stroke:black; stroke-linecap:round; stroke-width:0.25;"/>
<line x1="376.200000" y1="46.000000" x2="336.850000" y2="46.000000"  style="stroke:black; stroke-linecap:round; stroke-width:0.25;"/>
<line x1="378.200000" y1="66.000000" x2="384.200000" y2="66.000000"  style="stroke:black; stroke-linecap:round; stroke-width:0.25;"/>
<line x1="384.200000" y1="36.000000" x2="392.200000" y2="36.000000"  style="stroke:black; stroke-linecap:round; stroke-width:0.25;"/>
<line x1="384.200000" y1="66.000000" x2="384.200000" y2="36.000000"  style="stroke:black; stroke-linecap:round; stroke-width:0.25;"/>
<line x1="384.200000" y1="66.000000" x2="384.200000" y2="66.000000"  style="stroke:black; stroke-linecap:round; stroke-width:0.25;"/>
<line x1="392.200000" y1="36.000000" x2="436.000000" y2="36.000000"  style="stroke:black; stroke-linecap:round; stroke-width:0.25;"/>
<line x1="432.000000" y1="66.000000" x2="436.000000" y2="66.000000"  style="stroke:black; stroke-linecap:round; stroke-width:0.25;"/>
<line x1="436.000000" y1="36.000000" x2="479.800000" y2="36.000000"  style="stroke:black; stroke-linecap:round; stroke-width:0.25;"/>
<line x1="436.000000" y1="66.000000" x2="446.000000" y2="66.000000"  style="stroke:black; stroke-linecap:round; stroke-width:0.25;"/>
<line x1="446.000000" y1="66.000000" x2="446.000000" y2="66.000000"  style="stroke:black; stroke-linecap:round; stroke-width:0.25;"/>
<line x1="446.000000" y1="66.000000" x2="450.000000" y2="66.000000"  style="stroke:black; stroke-linecap:round; stroke-width:0.25;"/>
<line x1="475.800000" y1="66.000000" x2="479.800000" y2="66.000000"  style="stroke:black; stroke-linecap:round; stroke-width:0.25;"/>
<line x1="479.800000" y1="36.000000" x2="487.800000" y2="36.000000"  style="stroke:black; stroke-linecap:round; stroke-width:0.25;"/>
<line x1="479.800000" y1="66.000000" x2="487.800000" y2="66.000000"  style="stroke:black; stroke-linecap:round; stroke-width:0.25;"/>
<line x1="487.800000" y1="58.000000" x2="491.800000" y2="58.000000"  style="stroke:black; stroke-linecap:round; stroke-width:0.25;"/>
<line x1="487.800000" y1="66.000000" x2="491.800000" y2="66.000000"  style="stroke:black; stroke-linecap:round; stroke-width:0.25;"/>
<line x1="487.800000" y1="36.000000" x2="487.800000" y2="58.000000"  style="stroke:black; stroke-linecap:round; stroke-width:0.25;"/>
<line x1="487.800000" y1="58.000000" x2="487.800000" y2="58.000000"  style="stroke:black; stroke-linecap:round; stroke-width:0.25;"/>
<line x1="515.800000" y1="62.000000" x2="519.800000" y2="62.000000"  style="stroke:black; stroke-linecap:round; stroke-width:0.25;"/>
<line x1="519.800000" y1="62.000000" x2="519.800000" y2="62.000000"  style="stroke:black; stroke-linecap:round; stroke-width:0.25;"/>
<line x1="519.800000" y1="62.000000" x2="523.800000" y2="62.000000"  style="stroke:black; stroke-linecap:round; stroke-width:0.25;"/>
<line x1="523.800000" y1="62.000000" x2="527.800000" y2="62.000000"  style="stroke:black; stroke-linecap:round; stroke-width:0.25;"/>
<line x1="527.800000" y1="62.000000" x2="537.800000" y2="62.000000"  style="stroke:black; stroke-linecap:round; stroke-width:0.25;"/>
</svg>
