<?xml version="1.0"?>
<svg xmlns="http://www.w3.org/2000/svg" xmlns:xlink="http://www.w3.org/1999/xlink" viewBox="0 0 402.900000 124.000000" width="201.450000mm" height="62.000000mm" version="1.1">
<a xlink:href="flute-0x7f90fd122510.svg">
<rect x="1.000000" y="1.000000" width="401.900000" height="123.000000" rx="0" ry="0" style="stroke:none;fill:#cccccc;"/>
<rect x="0.000000" y="0.000000" width="401.900000" height="123.000000" rx="0" ry="0" style="stroke:none;fill:#ffffff;"/>
</a>
<text x="10.000000" y="7.000000" font-family="Arial" font-size="7"></text>
<rect x="33.000000" y="51.000000" width="38.700000" height="24.000000" rx="0" ry="0" style="stroke:none;fill:#cccccc;"/>
<rect x="32.000000" y="50.000000" width="38.700000" height="24.000000" rx="0" ry="0" style="stroke:none;fill:#47945E;"/>
<text x="51.350000" y="64.000000" font-family="Arial" font-size="7" text-anchor="middle" fill="#FFFFFF">pressure</text>
<circle cx="34.000000" cy="52.000000" r="1"/>
<line x1="29.000000" y1="61.000000" x2="32.000000" y2="62.000000"  transform="rotate(0.000000,32.000000,62.000000)" style="stroke: black; stroke-width:0.25;"/>
<line x1="29.000000" y1="63.000000" x2="32.000000" y2="62.000000"  transform="rotate(0.000000,32.000000,62.000000)" style="stroke: black; stroke-width:0.25;"/>
<a xlink:href="fluteModel-0x7f90fd121fd0.svg">
<rect x="134.850000" y="25.000000" width="141.900000" height="24.000000" rx="0" ry="0" style="stroke:none;fill:#cccccc;"/>
<rect x="133.850000" y="24.000000" width="141.900000" height="24.000000" rx="0" ry="0" style="stroke:none;fill:#003366;"/>
</a>
<a xlink:href="fluteModel-0x7f90fd121fd0.svg">
<text x="204.800000" y="38.000000" font-family="Arial" font-size="7" text-anchor="middle" fill="#FFFFFF">fluteModel(hs...,0.999f : *))(x4)</text>
</a>
<circle cx="135.850000" cy="26.000000" r="1"/>
<rect x="89.700000" y="67.000000" width="232.200000" height="24.000000" rx="0" ry="0" style="stroke:none;fill:#cccccc;"/>
<rect x="88.700000" y="66.000000" width="232.200000" height="24.000000" rx="0" ry="0" style="stroke:none;fill:#477881;"/>
<text x="204.800000" y="80.000000" font-family="Arial" font-size="7" text-anchor="middle" fill="#FFFFFF">hslider(v:fluteModel/outGain, 0.5f, 0.0f, 1.0f, 0.01f)</text>
<circle cx="90.700000" cy="68.000000" r="1"/>
<line x1="79.700000" y1="57.000000" x2="79.700000" y2="99.000000"  style="stroke: black; stroke-linecap:round; stroke-width:0.25; stroke-dasharray:3,3;"/>
<line x1="79.700000" y1="99.000000" x2="329.900000" y2="99.000000"  style="stroke: black; stroke-linecap:round; stroke-width:0.25; stroke-dasharray:3,3;"/>
<line x1="329.900000" y1="99.000000" x2="329.900000" y2="57.000000"  style="stroke: black; stroke-linecap:round; stroke-width:0.25; stroke-dasharray:3,3;"/>
<line x1="79.700000" y1="57.000000" x2="84.700000" y2="57.000000"  style="stroke: black; stroke-linecap:round; stroke-width:0.25; stroke-dasharray:3,3;"/>
<line x1="113.725000" y1="57.000000" x2="329.900000" y2="57.000000"  style="stroke: black; stroke-linecap:round; stroke-width:0.25; stroke-dasharray:3,3;"/>
<text x="84.700000" y="59.000000" font-family="Arial" font-size="7">outGain</text>
<rect x="347.900000" y="51.000000" width="24.000000" height="24.000000" rx="0" ry="0" style="stroke:none;fill:#cccccc;"/>
<rect x="346.900000" y="50.000000" width="24.000000" height="24.000000" rx="0" ry="0" style="stroke:none;fill:#4B71A1;"/>
<text x="358.900000" y="64.000000" font-family="Arial" font-size="7" text-anchor="middle" fill="#FFFFFF">*</text>
<circle cx="348.900000" cy="52.000000" r="1"/>
<line x1="343.900000" y1="57.000000" x2="346.900000" y2="58.000000"  transform="rotate(0.000000,346.900000,58.000000)" style="stroke: black; stroke-width:0.25;"/>
<line x1="343.900000" y1="59.000000" x2="346.900000" y2="58.000000"  transform="rotate(0.000000,346.900000,58.000000)" style="stroke: black; stroke-width:0.25;"/>
<line x1="343.900000" y1="65.000000" x2="346.900000" y2="66.000000"  transform="rotate(0.000000,346.900000,66.000000)" style="stroke: black; stroke-width:0.25;"/>
<line x1="343.900000" y1="67.000000" x2="346.900000" y2="66.000000"  transform="rotate(0.000000,346.900000,66.000000)" style="stroke: black; stroke-width:0.25;"/>
<line x1="15.000000" y1="15.000000" x2="15.000000" y2="109.000000"  style="stroke: black; stroke-linecap:round; stroke-width:0.25; stroke-dasharray:3,3;"/>
<line x1="15.000000" y1="109.000000" x2="387.900000" y2="109.000000"  style="stroke: black; stroke-linecap:round; stroke-width:0.25; stroke-dasharray:3,3;"/>
<line x1="387.900000" y1="109.000000" x2="387.900000" y2="15.000000"  style="stroke: black; stroke-linecap:round; stroke-width:0.25; stroke-dasharray:3,3;"/>
<line x1="15.000000" y1="15.000000" x2="20.000000" y2="15.000000"  style="stroke: black; stroke-linecap:round; stroke-width:0.25; stroke-dasharray:3,3;"/>
<line x1="68.375000" y1="15.000000" x2="387.900000" y2="15.000000"  style="stroke: black; stroke-linecap:round; stroke-width:0.25; stroke-dasharray:3,3;"/>
<text x="20.000000" y="17.000000" font-family="Arial" font-size="7">fluteModel_ui</text>
<line x1="389.900000" y1="61.000000" x2="392.900000" y2="62.000000"  transform="rotate(0.000000,392.900000,62.000000)" style="stroke: black; stroke-width:0.25;"/>
<line x1="389.900000" y1="63.000000" x2="392.900000" y2="62.000000"  transform="rotate(0.000000,392.900000,62.000000)" style="stroke: black; stroke-width:0.25;"/>
<line x1="10.000000" y1="62.000000" x2="20.000000" y2="62.000000"  style="stroke:black; stroke-linecap:round; stroke-width:0.25;"/>
<line x1="20.000000" y1="62.000000" x2="24.000000" y2="62.000000"  style="stroke:black; stroke-linecap:round; stroke-width:0.25;"/>
<line x1="24.000000" y1="62.000000" x2="28.000000" y2="62.000000"  style="stroke:black; stroke-linecap:round; stroke-width:0.25;"/>
<line x1="28.000000" y1="62.000000" x2="28.000000" y2="62.000000"  style="stroke:black; stroke-linecap:round; stroke-width:0.25;"/>
<line x1="28.000000" y1="62.000000" x2="32.000000" y2="62.000000"  style="stroke:black; stroke-linecap:round; stroke-width:0.25;"/>
<line x1="275.750000" y1="36.000000" x2="279.750000" y2="36.000000"  style="stroke:black; stroke-linecap:round; stroke-width:0.25;"/>
<line x1="279.750000" y1="36.000000" x2="334.900000" y2="36.000000"  style="stroke:black; stroke-linecap:round; stroke-width:0.25;"/>
<line x1="320.900000" y1="78.000000" x2="324.900000" y2="78.000000"  style="stroke:black; stroke-linecap:round; stroke-width:0.25;"/>
<line x1="324.900000" y1="78.000000" x2="334.900000" y2="78.000000"  style="stroke:black; stroke-linecap:round; stroke-width:0.25;"/>
<line x1="334.900000" y1="36.000000" x2="342.900000" y2="36.000000"  style="stroke:black; stroke-linecap:round; stroke-width:0.25;"/>
<line x1="334.900000" y1="66.000000" x2="342.900000" y2="66.000000"  style="stroke:black; stroke-linecap:round; stroke-width:0.25;"/>
<line x1="334.900000" y1="78.000000" x2="334.900000" y2="66.000000"  style="stroke:black; stroke-linecap:round; stroke-width:0.25;"/>
<line x1="334.900000" y1="78.000000" x2="334.900000" y2="78.000000"  style="stroke:black; stroke-linecap:round; stroke-width:0.25;"/>
<line x1="342.900000" y1="36.000000" x2="342.900000" y2="58.000000"  style="stroke:black; stroke-linecap:round; stroke-width:0.25;"/>
<line x1="342.900000" y1="58.000000" x2="342.900000" y2="58.000000"  style="stroke:black; stroke-linecap:round; stroke-width:0.25;"/>
<line x1="342.900000" y1="58.000000" x2="346.900000" y2="58.000000"  style="stroke:black; stroke-linecap:round; stroke-width:0.25;"/>
<line x1="342.900000" y1="66.000000" x2="346.900000" y2="66.000000"  style="stroke:black; stroke-linecap:round; stroke-width:0.25;"/>
<line x1="370.900000" y1="62.000000" x2="374.900000" y2="62.000000"  style="stroke:black; stroke-linecap:round; stroke-width:0.25;"/>
<line x1="374.900000" y1="62.000000" x2="374.900000" y2="62.000000"  style="stroke:black; stroke-linecap:round; stroke-width:0.25;"/>
<line x1="374.900000" y1="62.000000" x2="378.900000" y2="62.000000"  style="stroke:black; stroke-linecap:round; stroke-width:0.25;"/>
<line x1="378.900000" y1="62.000000" x2="382.900000" y2="62.000000"  style="stroke:black; stroke-linecap:round; stroke-width:0.25;"/>
<line x1="382.900000" y1="62.000000" x2="392.900000" y2="62.000000"  style="stroke:black; stroke-linecap:round; stroke-width:0.25;"/>
</svg>
