<?xml version="1.0"?>
<svg xmlns="http://www.w3.org/2000/svg" xmlns:xlink="http://www.w3.org/1999/xlink" viewBox="0 0 728.400000 124.000000" width="364.200000mm" height="62.000000mm" version="1.1">
<a xlink:href="osc-0x7f90f9b3b7e0.svg">
<rect x="1.000000" y="1.000000" width="727.400000" height="123.000000" rx="0" ry="0" style="stroke:none;fill:#cccccc;"/>
<rect x="0.000000" y="0.000000" width="727.400000" height="123.000000" rx="0" ry="0" style="stroke:none;fill:#ffffff;"/>
</a>
<text x="10.000000" y="7.000000" font-family="Arial" font-size="7"></text>
<rect x="35.000000" y="35.000000" width="374.100000" height="24.000000" rx="0" ry="0" style="stroke:none;fill:#cccccc;"/>
<rect x="34.000000" y="34.000000" width="374.100000" height="24.000000" rx="0" ry="0" style="stroke:none;fill:#477881;"/>
<text x="221.050000" y="48.000000" font-family="Arial" font-size="7" text-anchor="middle" fill="#FFFFFF">hslider(v:blower/vibratoFreq, 5.0f, 0.10000000000000001f, 10.0f, 0.10000000000000001f)</text>
<circle cx="36.000000" cy="36.000000" r="1"/>
<line x1="25.000000" y1="25.000000" x2="25.000000" y2="67.000000"  style="stroke: black; stroke-linecap:round; stroke-width:0.25; stroke-dasharray:3,3;"/>
<line x1="25.000000" y1="67.000000" x2="417.100000" y2="67.000000"  style="stroke: black; stroke-linecap:round; stroke-width:0.25; stroke-dasharray:3,3;"/>
<line x1="417.100000" y1="67.000000" x2="417.100000" y2="25.000000"  style="stroke: black; stroke-linecap:round; stroke-width:0.25; stroke-dasharray:3,3;"/>
<line x1="25.000000" y1="25.000000" x2="30.000000" y2="25.000000"  style="stroke: black; stroke-linecap:round; stroke-width:0.25; stroke-dasharray:3,3;"/>
<line x1="71.925000" y1="25.000000" x2="417.100000" y2="25.000000"  style="stroke: black; stroke-linecap:round; stroke-width:0.25; stroke-dasharray:3,3;"/>
<text x="30.000000" y="27.000000" font-family="Arial" font-size="7">vibratoFreq</text>
<a xlink:href="SR-0x7f90f7fb46e0.svg">
<rect x="193.150000" y="77.000000" width="24.000000" height="24.000000" rx="0" ry="0" style="stroke:none;fill:#cccccc;"/>
<rect x="192.150000" y="76.000000" width="24.000000" height="24.000000" rx="0" ry="0" style="stroke:none;fill:#003366;"/>
</a>
<a xlink:href="SR-0x7f90f7fb46e0.svg">
<text x="204.150000" y="90.000000" font-family="Arial" font-size="7" text-anchor="middle" fill="#FFFFFF">SR</text>
</a>
<circle cx="194.150000" cy="78.000000" r="1"/>
<rect x="225.150000" y="77.000000" width="25.800000" height="24.000000" rx="0" ry="0" style="stroke:none;fill:#cccccc;"/>
<rect x="224.150000" y="76.000000" width="25.800000" height="24.000000" rx="0" ry="0" style="stroke:none;fill:#4B71A1;"/>
<text x="237.050000" y="90.000000" font-family="Arial" font-size="7" text-anchor="middle" fill="#FFFFFF">float</text>
<circle cx="226.150000" cy="78.000000" r="1"/>
<line x1="221.150000" y1="87.000000" x2="224.150000" y2="88.000000"  transform="rotate(0.000000,224.150000,88.000000)" style="stroke: black; stroke-width:0.25;"/>
<line x1="221.150000" y1="89.000000" x2="224.150000" y2="88.000000"  transform="rotate(0.000000,224.150000,88.000000)" style="stroke: black; stroke-width:0.25;"/>
<rect x="435.100000" y="51.000000" width="24.000000" height="24.000000" rx="0" ry="0" style="stroke:none;fill:#cccccc;"/>
<rect x="434.100000" y="50.000000" width="24.000000" height="24.000000" rx="0" ry="0" style="stroke:none;fill:#4B71A1;"/>
<text x="446.100000" y="64.000000" font-family="Arial" font-size="7" text-anchor="middle" fill="#FFFFFF">/</text>
<circle cx="436.100000" cy="52.000000" r="1"/>
<line x1="431.100000" y1="57.000000" x2="434.100000" y2="58.000000"  transform="rotate(0.000000,434.100000,58.000000)" style="stroke: black; stroke-width:0.25;"/>
<line x1="431.100000" y1="59.000000" x2="434.100000" y2="58.000000"  transform="rotate(0.000000,434.100000,58.000000)" style="stroke: black; stroke-width:0.25;"/>
<line x1="431.100000" y1="65.000000" x2="434.100000" y2="66.000000"  transform="rotate(0.000000,434.100000,66.000000)" style="stroke: black; stroke-width:0.25;"/>
<line x1="431.100000" y1="67.000000" x2="434.100000" y2="66.000000"  transform="rotate(0.000000,434.100000,66.000000)" style="stroke: black; stroke-width:0.25;"/>
<rect x="483.100000" y="55.000000" width="24.000000" height="24.000000" rx="0" ry="0" style="stroke:none;fill:#cccccc;"/>
<rect x="482.100000" y="54.000000" width="24.000000" height="24.000000" rx="0" ry="0" style="stroke:none;fill:#4B71A1;"/>
<text x="494.100000" y="68.000000" font-family="Arial" font-size="7" text-anchor="middle" fill="#FFFFFF">+</text>
<circle cx="484.100000" cy="56.000000" r="1"/>
<line x1="479.100000" y1="61.000000" x2="482.100000" y2="62.000000"  transform="rotate(0.000000,482.100000,62.000000)" style="stroke: black; stroke-width:0.25;"/>
<line x1="479.100000" y1="63.000000" x2="482.100000" y2="62.000000"  transform="rotate(0.000000,482.100000,62.000000)" style="stroke: black; stroke-width:0.25;"/>
<line x1="479.100000" y1="69.000000" x2="482.100000" y2="70.000000"  transform="rotate(0.000000,482.100000,70.000000)" style="stroke: black; stroke-width:0.25;"/>
<line x1="479.100000" y1="71.000000" x2="482.100000" y2="70.000000"  transform="rotate(0.000000,482.100000,70.000000)" style="stroke: black; stroke-width:0.25;"/>
<a xlink:href="decimal-0x7f90f7fb8a30.svg">
<rect x="515.100000" y="55.000000" width="38.700000" height="24.000000" rx="0" ry="0" style="stroke:none;fill:#cccccc;"/>
<rect x="514.100000" y="54.000000" width="38.700000" height="24.000000" rx="0" ry="0" style="stroke:none;fill:#003366;"/>
</a>
<a xlink:href="decimal-0x7f90f7fb8a30.svg">
<text x="533.450000" y="68.000000" font-family="Arial" font-size="7" text-anchor="middle" fill="#FFFFFF">decimal</text>
</a>
<circle cx="516.100000" cy="56.000000" r="1"/>
<line x1="511.100000" y1="65.000000" x2="514.100000" y2="66.000000"  transform="rotate(0.000000,514.100000,66.000000)" style="stroke: black; stroke-width:0.25;"/>
<line x1="511.100000" y1="67.000000" x2="514.100000" y2="66.000000"  transform="rotate(0.000000,514.100000,66.000000)" style="stroke: black; stroke-width:0.25;"/>
<line x1="554.800000" y1="66.000000" x2="554.800000" y2="62.000000"  style="stroke:black; stroke-linecap:round; stroke-width:0.25;"/>
<line x1="554.800000" y1="62.000000" x2="558.800000" y2="62.000000"  style="stroke:black; stroke-linecap:round; stroke-width:0.25;"/>
<line x1="558.800000" y1="62.000000" x2="558.800000" y2="66.000000"  style="stroke:black; stroke-linecap:round; stroke-width:0.25;"/>
<rect x="587.800000" y="55.000000" width="25.800000" height="24.000000" rx="0" ry="0" style="stroke:none;fill:#cccccc;"/>
<rect x="586.800000" y="54.000000" width="25.800000" height="24.000000" rx="0" ry="0" style="stroke:none;fill:#f44800;"/>
<text x="599.700000" y="68.000000" font-family="Arial" font-size="7" text-anchor="middle" fill="#FFFFFF">65536</text>
<circle cx="588.800000" cy="56.000000" r="1"/>
<line x1="577.800000" y1="45.000000" x2="577.800000" y2="87.000000"  style="stroke: black; stroke-linecap:round; stroke-width:0.25; stroke-dasharray:3,3;"/>
<line x1="577.800000" y1="87.000000" x2="621.600000" y2="87.000000"  style="stroke: black; stroke-linecap:round; stroke-width:0.25; stroke-dasharray:3,3;"/>
<line x1="621.600000" y1="87.000000" x2="621.600000" y2="45.000000"  style="stroke: black; stroke-linecap:round; stroke-width:0.25; stroke-dasharray:3,3;"/>
<line x1="577.800000" y1="45.000000" x2="582.800000" y2="45.000000"  style="stroke: black; stroke-linecap:round; stroke-width:0.25; stroke-dasharray:3,3;"/>
<line x1="618.275000" y1="45.000000" x2="621.600000" y2="45.000000"  style="stroke: black; stroke-linecap:round; stroke-width:0.25; stroke-dasharray:3,3;"/>
<text x="582.800000" y="47.000000" font-family="Arial" font-size="7">tablesize</text>
<rect x="631.600000" y="55.000000" width="25.800000" height="24.000000" rx="0" ry="0" style="stroke:none;fill:#cccccc;"/>
<rect x="630.600000" y="54.000000" width="25.800000" height="24.000000" rx="0" ry="0" style="stroke:none;fill:#4B71A1;"/>
<text x="643.500000" y="68.000000" font-family="Arial" font-size="7" text-anchor="middle" fill="#FFFFFF">float</text>
<circle cx="632.600000" cy="56.000000" r="1"/>
<line x1="627.600000" y1="65.000000" x2="630.600000" y2="66.000000"  transform="rotate(0.000000,630.600000,66.000000)" style="stroke: black; stroke-width:0.25;"/>
<line x1="627.600000" y1="67.000000" x2="630.600000" y2="66.000000"  transform="rotate(0.000000,630.600000,66.000000)" style="stroke: black; stroke-width:0.25;"/>
<rect x="673.400000" y="51.000000" width="24.000000" height="24.000000" rx="0" ry="0" style="stroke:none;fill:#cccccc;"/>
<rect x="672.400000" y="50.000000" width="24.000000" height="24.000000" rx="0" ry="0" style="stroke:none;fill:#4B71A1;"/>
<text x="684.400000" y="64.000000" font-family="Arial" font-size="7" text-anchor="middle" fill="#FFFFFF">*</text>
<circle cx="674.400000" cy="52.000000" r="1"/>
<line x1="669.400000" y1="57.000000" x2="672.400000" y2="58.000000"  transform="rotate(0.000000,672.400000,58.000000)" style="stroke: black; stroke-width:0.25;"/>
<line x1="669.400000" y1="59.000000" x2="672.400000" y2="58.000000"  transform="rotate(0.000000,672.400000,58.000000)" style="stroke: black; stroke-width:0.25;"/>
<line x1="669.400000" y1="65.000000" x2="672.400000" y2="66.000000"  transform="rotate(0.000000,672.400000,66.000000)" style="stroke: black; stroke-width:0.25;"/>
<line x1="669.400000" y1="67.000000" x2="672.400000" y2="66.000000"  transform="rotate(0.000000,672.400000,66.000000)" style="stroke: black; stroke-width:0.25;"/>
<line x1="15.000000" y1="15.000000" x2="15.000000" y2="109.000000"  style="stroke: black; stroke-linecap:round; stroke-width:0.25; stroke-dasharray:3,3;"/>
<line x1="15.000000" y1="109.000000" x2="713.400000" y2="109.000000"  style="stroke: black; stroke-linecap:round; stroke-width:0.25; stroke-dasharray:3,3;"/>
<line x1="713.400000" y1="109.000000" x2="713.400000" y2="15.000000"  style="stroke: black; stroke-linecap:round; stroke-width:0.25; stroke-dasharray:3,3;"/>
<line x1="15.000000" y1="15.000000" x2="20.000000" y2="15.000000"  style="stroke: black; stroke-linecap:round; stroke-width:0.25; stroke-dasharray:3,3;"/>
<line x1="119.975000" y1="15.000000" x2="713.400000" y2="15.000000"  style="stroke: black; stroke-linecap:round; stroke-width:0.25; stroke-dasharray:3,3;"/>
<text x="20.000000" y="17.000000" font-family="Arial" font-size="7">phasor(65536)...0000000001f))</text>
<line x1="715.400000" y1="61.000000" x2="718.400000" y2="62.000000"  transform="rotate(0.000000,718.400000,62.000000)" style="stroke: black; stroke-width:0.25;"/>
<line x1="715.400000" y1="63.000000" x2="718.400000" y2="62.000000"  transform="rotate(0.000000,718.400000,62.000000)" style="stroke: black; stroke-width:0.25;"/>
<line x1="216.150000" y1="88.000000" x2="220.150000" y2="88.000000"  style="stroke:black; stroke-linecap:round; stroke-width:0.25;"/>
<line x1="220.150000" y1="88.000000" x2="220.150000" y2="88.000000"  style="stroke:black; stroke-linecap:round; stroke-width:0.25;"/>
<line x1="220.150000" y1="88.000000" x2="224.150000" y2="88.000000"  style="stroke:black; stroke-linecap:round; stroke-width:0.25;"/>
<line x1="249.950000" y1="88.000000" x2="253.950000" y2="88.000000"  style="stroke:black; stroke-linecap:round; stroke-width:0.25;"/>
<line x1="253.950000" y1="88.000000" x2="422.100000" y2="88.000000"  style="stroke:black; stroke-linecap:round; stroke-width:0.25;"/>
<line x1="408.100000" y1="46.000000" x2="412.100000" y2="46.000000"  style="stroke:black; stroke-linecap:round; stroke-width:0.25;"/>
<line x1="412.100000" y1="46.000000" x2="422.100000" y2="46.000000"  style="stroke:black; stroke-linecap:round; stroke-width:0.25;"/>
<line x1="422.100000" y1="46.000000" x2="430.100000" y2="46.000000"  style="stroke:black; stroke-linecap:round; stroke-width:0.25;"/>
<line x1="422.100000" y1="66.000000" x2="430.100000" y2="66.000000"  style="stroke:black; stroke-linecap:round; stroke-width:0.25;"/>
<line x1="422.100000" y1="88.000000" x2="422.100000" y2="66.000000"  style="stroke:black; stroke-linecap:round; stroke-width:0.25;"/>
<line x1="422.100000" y1="88.000000" x2="422.100000" y2="88.000000"  style="stroke:black; stroke-linecap:round; stroke-width:0.25;"/>
<line x1="430.100000" y1="46.000000" x2="430.100000" y2="58.000000"  style="stroke:black; stroke-linecap:round; stroke-width:0.25;"/>
<line x1="430.100000" y1="58.000000" x2="430.100000" y2="58.000000"  style="stroke:black; stroke-linecap:round; stroke-width:0.25;"/>
<line x1="430.100000" y1="58.000000" x2="434.100000" y2="58.000000"  style="stroke:black; stroke-linecap:round; stroke-width:0.25;"/>
<line x1="430.100000" y1="66.000000" x2="434.100000" y2="66.000000"  style="stroke:black; stroke-linecap:round; stroke-width:0.25;"/>
<line x1="458.100000" y1="62.000000" x2="462.100000" y2="62.000000"  style="stroke:black; stroke-linecap:round; stroke-width:0.25;"/>
<line x1="462.100000" y1="62.000000" x2="470.100000" y2="62.000000"  style="stroke:black; stroke-linecap:round; stroke-width:0.25;"/>
<line x1="470.100000" y1="62.000000" x2="470.100000" y2="70.000000"  style="stroke:black; stroke-linecap:round; stroke-width:0.25;"/>
<line x1="470.100000" y1="70.000000" x2="470.100000" y2="70.000000"  style="stroke:black; stroke-linecap:round; stroke-width:0.25;"/>
<line x1="470.100000" y1="70.000000" x2="478.100000" y2="70.000000"  style="stroke:black; stroke-linecap:round; stroke-width:0.25;"/>
<line x1="478.100000" y1="46.000000" x2="478.100000" y2="46.000000"  style="stroke:black; stroke-linecap:round; stroke-width:0.25;"/>
<line x1="478.100000" y1="46.000000" x2="478.100000" y2="62.000000"  style="stroke:black; stroke-linecap:round; stroke-width:0.25;"/>
<line x1="478.100000" y1="62.000000" x2="478.100000" y2="62.000000"  style="stroke:black; stroke-linecap:round; stroke-width:0.25;"/>
<line x1="478.100000" y1="62.000000" x2="482.100000" y2="62.000000"  style="stroke:black; stroke-linecap:round; stroke-width:0.25;"/>
<line x1="478.100000" y1="70.000000" x2="482.100000" y2="70.000000"  style="stroke:black; stroke-linecap:round; stroke-width:0.25;"/>
<line x1="506.100000" y1="66.000000" x2="510.100000" y2="66.000000"  style="stroke:black; stroke-linecap:round; stroke-width:0.25;"/>
<line x1="510.100000" y1="66.000000" x2="510.100000" y2="66.000000"  style="stroke:black; stroke-linecap:round; stroke-width:0.25;"/>
<line x1="510.100000" y1="66.000000" x2="514.100000" y2="66.000000"  style="stroke:black; stroke-linecap:round; stroke-width:0.25;"/>
<line x1="517.450000" y1="46.000000" x2="478.100000" y2="46.000000"  style="stroke:black; stroke-linecap:round; stroke-width:0.25;"/>
<line x1="552.800000" y1="66.000000" x2="556.800000" y2="66.000000"  style="stroke:black; stroke-linecap:round; stroke-width:0.25;"/>
<line x1="556.800000" y1="46.000000" x2="517.450000" y2="46.000000"  style="stroke:black; stroke-linecap:round; stroke-width:0.25;"/>
<line x1="556.800000" y1="46.000000" x2="556.800000" y2="46.000000"  style="stroke:black; stroke-linecap:round; stroke-width:0.25;"/>
<line x1="556.800000" y1="62.000000" x2="556.800000" y2="46.000000"  style="stroke:black; stroke-linecap:round; stroke-width:0.25;"/>
<line x1="556.800000" y1="66.000000" x2="558.800000" y2="66.000000"  style="stroke:black; stroke-linecap:round; stroke-width:0.25;"/>
<line x1="558.800000" y1="66.000000" x2="564.800000" y2="66.000000"  style="stroke:black; stroke-linecap:round; stroke-width:0.25;"/>
<line x1="564.800000" y1="36.000000" x2="572.800000" y2="36.000000"  style="stroke:black; stroke-linecap:round; stroke-width:0.25;"/>
<line x1="564.800000" y1="66.000000" x2="564.800000" y2="36.000000"  style="stroke:black; stroke-linecap:round; stroke-width:0.25;"/>
<line x1="564.800000" y1="66.000000" x2="564.800000" y2="66.000000"  style="stroke:black; stroke-linecap:round; stroke-width:0.25;"/>
<line x1="572.800000" y1="36.000000" x2="616.600000" y2="36.000000"  style="stroke:black; stroke-linecap:round; stroke-width:0.25;"/>
<line x1="612.600000" y1="66.000000" x2="616.600000" y2="66.000000"  style="stroke:black; stroke-linecap:round; stroke-width:0.25;"/>
<line x1="616.600000" y1="36.000000" x2="660.400000" y2="36.000000"  style="stroke:black; stroke-linecap:round; stroke-width:0.25;"/>
<line x1="616.600000" y1="66.000000" x2="626.600000" y2="66.000000"  style="stroke:black; stroke-linecap:round; stroke-width:0.25;"/>
<line x1="626.600000" y1="66.000000" x2="626.600000" y2="66.000000"  style="stroke:black; stroke-linecap:round; stroke-width:0.25;"/>
<line x1="626.600000" y1="66.000000" x2="630.600000" y2="66.000000"  style="stroke:black; stroke-linecap:round; stroke-width:0.25;"/>
<line x1="656.400000" y1="66.000000" x2="660.400000" y2="66.000000"  style="stroke:black; stroke-linecap:round; stroke-width:0.25;"/>
<line x1="660.400000" y1="36.000000" x2="668.400000" y2="36.000000"  style="stroke:black; stroke-linecap:round; stroke-width:0.25;"/>
<line x1="660.400000" y1="66.000000" x2="668.400000" y2="66.000000"  style="stroke:black; stroke-linecap:round; stroke-width:0.25;"/>
<line x1="668.400000" y1="36.000000" x2="668.400000" y2="58.000000"  style="stroke:black; stroke-linecap:round; stroke-width:0.25;"/>
<line x1="668.400000" y1="58.000000" x2="668.400000" y2="58.000000"  style="stroke:black; stroke-linecap:round; stroke-width:0.25;"/>
<line x1="668.400000" y1="58.000000" x2="672.400000" y2="58.000000"  style="stroke:black; stroke-linecap:round; stroke-width:0.25;"/>
<line x1="668.400000" y1="66.000000" x2="672.400000" y2="66.000000"  style="stroke:black; stroke-linecap:round; stroke-width:0.25;"/>
<line x1="696.400000" y1="62.000000" x2="700.400000" y2="62.000000"  style="stroke:black; stroke-linecap:round; stroke-width:0.25;"/>
<line x1="700.400000" y1="62.000000" x2="700.400000" y2="62.000000"  style="stroke:black; stroke-linecap:round; stroke-width:0.25;"/>
<line x1="700.400000" y1="62.000000" x2="704.400000" y2="62.000000"  style="stroke:black; stroke-linecap:round; stroke-width:0.25;"/>
<line x1="704.400000" y1="62.000000" x2="708.400000" y2="62.000000"  style="stroke:black; stroke-linecap:round; stroke-width:0.25;"/>
<line x1="708.400000" y1="62.000000" x2="718.400000" y2="62.000000"  style="stroke:black; stroke-linecap:round; stroke-width:0.25;"/>
</svg>
