<?xml version="1.0"?>
<svg xmlns="http://www.w3.org/2000/svg" xmlns:xlink="http://www.w3.org/1999/xlink" viewBox="0 0 412.300000 72.000000" width="206.150000mm" height="36.000000mm" version="1.1">
<a xlink:href="tLength-0x7f9515edf3d0.svg">
<rect x="1.000000" y="1.000000" width="411.300000" height="71.000000" rx="0" ry="0" style="stroke:none;fill:#cccccc;"/>
<rect x="0.000000" y="0.000000" width="411.300000" height="71.000000" rx="0" ry="0" style="stroke:none;fill:#ffffff;"/>
</a>
<text x="10.000000" y="7.000000" font-family="Arial" font-size="7"></text>
<rect x="25.000000" y="25.000000" width="322.500000" height="24.000000" rx="0" ry="0" style="stroke:none;fill:#cccccc;"/>
<rect x="24.000000" y="24.000000" width="322.500000" height="24.000000" rx="0" ry="0" style="stroke:none;fill:#477881;"/>
<text x="185.250000" y="38.000000" font-family="Arial" font-size="7" text-anchor="middle" fill="#FFFFFF">hslider(v:fluteModel/tubeLength, 0.80000000000000004f, 0.01f, 3.0f, 0.01f)</text>
<circle cx="26.000000" cy="26.000000" r="1"/>
<a xlink:href="smoo-0x7f95158fbe50.svg">
<rect x="355.500000" y="25.000000" width="25.800000" height="24.000000" rx="0" ry="0" style="stroke:none;fill:#cccccc;"/>
<rect x="354.500000" y="24.000000" width="25.800000" height="24.000000" rx="0" ry="0" style="stroke:none;fill:#003366;"/>
</a>
<a xlink:href="smoo-0x7f95158fbe50.svg">
<text x="367.400000" y="38.000000" font-family="Arial" font-size="7" text-anchor="middle" fill="#FFFFFF">smoo</text>
</a>
<circle cx="356.500000" cy="26.000000" r="1"/>
<line x1="351.500000" y1="35.000000" x2="354.500000" y2="36.000000"  transform="rotate(0.000000,354.500000,36.000000)" style="stroke: black; stroke-width:0.25;"/>
<line x1="351.500000" y1="37.000000" x2="354.500000" y2="36.000000"  transform="rotate(0.000000,354.500000,36.000000)" style="stroke: black; stroke-width:0.25;"/>
<line x1="15.000000" y1="15.000000" x2="15.000000" y2="57.000000"  style="stroke: black; stroke-linecap:round; stroke-width:0.25; stroke-dasharray:3,3;"/>
<line x1="15.000000" y1="57.000000" x2="397.300000" y2="57.000000"  style="stroke: black; stroke-linecap:round; stroke-width:0.25; stroke-dasharray:3,3;"/>
<line x1="397.300000" y1="57.000000" x2="397.300000" y2="15.000000"  style="stroke: black; stroke-linecap:round; stroke-width:0.25; stroke-dasharray:3,3;"/>
<line x1="15.000000" y1="15.000000" x2="20.000000" y2="15.000000"  style="stroke: black; stroke-linecap:round; stroke-width:0.25; stroke-dasharray:3,3;"/>
<line x1="58.700000" y1="15.000000" x2="397.300000" y2="15.000000"  style="stroke: black; stroke-linecap:round; stroke-width:0.25; stroke-dasharray:3,3;"/>
<text x="20.000000" y="17.000000" font-family="Arial" font-size="7">tubeLength</text>
<line x1="399.300000" y1="35.000000" x2="402.300000" y2="36.000000"  transform="rotate(0.000000,402.300000,36.000000)" style="stroke: black; stroke-width:0.25;"/>
<line x1="399.300000" y1="37.000000" x2="402.300000" y2="36.000000"  transform="rotate(0.000000,402.300000,36.000000)" style="stroke: black; stroke-width:0.25;"/>
<line x1="346.500000" y1="36.000000" x2="350.500000" y2="36.000000"  style="stroke:black; stroke-linecap:round; stroke-width:0.25;"/>
<line x1="350.500000" y1="36.000000" x2="350.500000" y2="36.000000"  style="stroke:black; stroke-linecap:round; stroke-width:0.25;"/>
<line x1="350.500000" y1="36.000000" x2="354.500000" y2="36.000000"  style="stroke:black; stroke-linecap:round; stroke-width:0.25;"/>
<line x1="380.300000" y1="36.000000" x2="384.300000" y2="36.000000"  style="stroke:black; stroke-linecap:round; stroke-width:0.25;"/>
<line x1="384.300000" y1="36.000000" x2="384.300000" y2="36.000000"  style="stroke:black; stroke-linecap:round; stroke-width:0.25;"/>
<line x1="384.300000" y1="36.000000" x2="388.300000" y2="36.000000"  style="stroke:black; stroke-linecap:round; stroke-width:0.25;"/>
<line x1="388.300000" y1="36.000000" x2="392.300000" y2="36.000000"  style="stroke:black; stroke-linecap:round; stroke-width:0.25;"/>
<line x1="392.300000" y1="36.000000" x2="402.300000" y2="36.000000"  style="stroke:black; stroke-linecap:round; stroke-width:0.25;"/>
</svg>
