<?xml version="1.0"?>
<svg xmlns="http://www.w3.org/2000/svg" xmlns:xlink="http://www.w3.org/1999/xlink" viewBox="0 0 562.600000 124.000000" width="281.300000mm" height="62.000000mm" version="1.1">
<a xlink:href="vibrato-0x7fc5f6e9bd00.svg">
<rect x="1.000000" y="1.000000" width="561.600000" height="123.000000" rx="0" ry="0" style="stroke:none;fill:#cccccc;"/>
<rect x="0.000000" y="0.000000" width="561.600000" height="123.000000" rx="0" ry="0" style="stroke:none;fill:#ffffff;"/>
</a>
<text x="10.000000" y="7.000000" font-family="Arial" font-size="7"></text>
<a xlink:href="gate-0x7fc5f15704c0.svg">
<rect x="176.900000" y="25.000000" width="25.800000" height="24.000000" rx="0" ry="0" style="stroke:none;fill:#cccccc;"/>
<rect x="175.900000" y="24.000000" width="25.800000" height="24.000000" rx="0" ry="0" style="stroke:none;fill:#003366;"/>
</a>
<a xlink:href="gate-0x7fc5f15704c0.svg">
<text x="188.800000" y="38.000000" font-family="Arial" font-size="7" text-anchor="middle" fill="#FFFFFF">gate</text>
</a>
<circle cx="177.900000" cy="26.000000" r="1"/>
<rect x="35.000000" y="67.000000" width="309.600000" height="24.000000" rx="0" ry="0" style="stroke:none;fill:#cccccc;"/>
<rect x="34.000000" y="66.000000" width="309.600000" height="24.000000" rx="0" ry="0" style="stroke:none;fill:#477881;"/>
<text x="188.800000" y="80.000000" font-family="Arial" font-size="7" text-anchor="middle" fill="#FFFFFF">hslider(v:violin/h:midi/gain, 0.59999999999999998f, 0.0f, 1.0f, 0.01f)</text>
<circle cx="36.000000" cy="68.000000" r="1"/>
<line x1="25.000000" y1="57.000000" x2="25.000000" y2="99.000000"  style="stroke: black; stroke-linecap:round; stroke-width:0.25; stroke-dasharray:3,3;"/>
<line x1="25.000000" y1="99.000000" x2="352.600000" y2="99.000000"  style="stroke: black; stroke-linecap:round; stroke-width:0.25; stroke-dasharray:3,3;"/>
<line x1="352.600000" y1="99.000000" x2="352.600000" y2="57.000000"  style="stroke: black; stroke-linecap:round; stroke-width:0.25; stroke-dasharray:3,3;"/>
<line x1="25.000000" y1="57.000000" x2="30.000000" y2="57.000000"  style="stroke: black; stroke-linecap:round; stroke-width:0.25; stroke-dasharray:3,3;"/>
<line x1="49.350000" y1="57.000000" x2="352.600000" y2="57.000000"  style="stroke: black; stroke-linecap:round; stroke-width:0.25; stroke-dasharray:3,3;"/>
<text x="30.000000" y="59.000000" font-family="Arial" font-size="7">gain</text>
<rect x="370.600000" y="51.000000" width="24.000000" height="24.000000" rx="0" ry="0" style="stroke:none;fill:#cccccc;"/>
<rect x="369.600000" y="50.000000" width="24.000000" height="24.000000" rx="0" ry="0" style="stroke:none;fill:#4B71A1;"/>
<text x="381.600000" y="64.000000" font-family="Arial" font-size="7" text-anchor="middle" fill="#FFFFFF">*</text>
<circle cx="371.600000" cy="52.000000" r="1"/>
<line x1="366.600000" y1="57.000000" x2="369.600000" y2="58.000000"  transform="rotate(0.000000,369.600000,58.000000)" style="stroke: black; stroke-width:0.25;"/>
<line x1="366.600000" y1="59.000000" x2="369.600000" y2="58.000000"  transform="rotate(0.000000,369.600000,58.000000)" style="stroke: black; stroke-width:0.25;"/>
<line x1="366.600000" y1="65.000000" x2="369.600000" y2="66.000000"  transform="rotate(0.000000,369.600000,66.000000)" style="stroke: black; stroke-width:0.25;"/>
<line x1="366.600000" y1="67.000000" x2="369.600000" y2="66.000000"  transform="rotate(0.000000,369.600000,66.000000)" style="stroke: black; stroke-width:0.25;"/>
<a xlink:href="smooth-0x7fc5f38866b0.svg">
<rect x="402.600000" y="51.000000" width="129.000000" height="24.000000" rx="0" ry="0" style="stroke:none;fill:#cccccc;"/>
<rect x="401.600000" y="50.000000" width="129.000000" height="24.000000" rx="0" ry="0" style="stroke:none;fill:#003366;"/>
</a>
<a xlink:href="smooth-0x7fc5f38866b0.svg">
<text x="466.100000" y="64.000000" font-family="Arial" font-size="7" text-anchor="middle" fill="#FFFFFF">smooth(-1.0f,...*) : / : exp)</text>
</a>
<circle cx="403.600000" cy="52.000000" r="1"/>
<line x1="398.600000" y1="61.000000" x2="401.600000" y2="62.000000"  transform="rotate(0.000000,401.600000,62.000000)" style="stroke: black; stroke-width:0.25;"/>
<line x1="398.600000" y1="63.000000" x2="401.600000" y2="62.000000"  transform="rotate(0.000000,401.600000,62.000000)" style="stroke: black; stroke-width:0.25;"/>
<line x1="15.000000" y1="15.000000" x2="15.000000" y2="109.000000"  style="stroke: black; stroke-linecap:round; stroke-width:0.25; stroke-dasharray:3,3;"/>
<line x1="15.000000" y1="109.000000" x2="547.600000" y2="109.000000"  style="stroke: black; stroke-linecap:round; stroke-width:0.25; stroke-dasharray:3,3;"/>
<line x1="547.600000" y1="109.000000" x2="547.600000" y2="15.000000"  style="stroke: black; stroke-linecap:round; stroke-width:0.25; stroke-dasharray:3,3;"/>
<line x1="15.000000" y1="15.000000" x2="20.000000" y2="15.000000"  style="stroke: black; stroke-linecap:round; stroke-width:0.25; stroke-dasharray:3,3;"/>
<line x1="45.800000" y1="15.000000" x2="547.600000" y2="15.000000"  style="stroke: black; stroke-linecap:round; stroke-width:0.25; stroke-dasharray:3,3;"/>
<text x="20.000000" y="17.000000" font-family="Arial" font-size="7">bowVel</text>
<line x1="549.600000" y1="61.000000" x2="552.600000" y2="62.000000"  transform="rotate(0.000000,552.600000,62.000000)" style="stroke: black; stroke-width:0.25;"/>
<line x1="549.600000" y1="63.000000" x2="552.600000" y2="62.000000"  transform="rotate(0.000000,552.600000,62.000000)" style="stroke: black; stroke-width:0.25;"/>
<line x1="201.700000" y1="36.000000" x2="205.700000" y2="36.000000"  style="stroke:black; stroke-linecap:round; stroke-width:0.25;"/>
<line x1="205.700000" y1="36.000000" x2="357.600000" y2="36.000000"  style="stroke:black; stroke-linecap:round; stroke-width:0.25;"/>
<line x1="343.600000" y1="78.000000" x2="347.600000" y2="78.000000"  style="stroke:black; stroke-linecap:round; stroke-width:0.25;"/>
<line x1="347.600000" y1="78.000000" x2="357.600000" y2="78.000000"  style="stroke:black; stroke-linecap:round; stroke-width:0.25;"/>
<line x1="357.600000" y1="36.000000" x2="365.600000" y2="36.000000"  style="stroke:black; stroke-linecap:round; stroke-width:0.25;"/>
<line x1="357.600000" y1="66.000000" x2="365.600000" y2="66.000000"  style="stroke:black; stroke-linecap:round; stroke-width:0.25;"/>
<line x1="357.600000" y1="78.000000" x2="357.600000" y2="66.000000"  style="stroke:black; stroke-linecap:round; stroke-width:0.25;"/>
<line x1="357.600000" y1="78.000000" x2="357.600000" y2="78.000000"  style="stroke:black; stroke-linecap:round; stroke-width:0.25;"/>
<line x1="365.600000" y1="36.000000" x2="365.600000" y2="58.000000"  style="stroke:black; stroke-linecap:round; stroke-width:0.25;"/>
<line x1="365.600000" y1="58.000000" x2="365.600000" y2="58.000000"  style="stroke:black; stroke-linecap:round; stroke-width:0.25;"/>
<line x1="365.600000" y1="58.000000" x2="369.600000" y2="58.000000"  style="stroke:black; stroke-linecap:round; stroke-width:0.25;"/>
<line x1="365.600000" y1="66.000000" x2="369.600000" y2="66.000000"  style="stroke:black; stroke-linecap:round; stroke-width:0.25;"/>
<line x1="393.600000" y1="62.000000" x2="397.600000" y2="62.000000"  style="stroke:black; stroke-linecap:round; stroke-width:0.25;"/>
<line x1="397.600000" y1="62.000000" x2="397.600000" y2="62.000000"  style="stroke:black; stroke-linecap:round; stroke-width:0.25;"/>
<line x1="397.600000" y1="62.000000" x2="401.600000" y2="62.000000"  style="stroke:black; stroke-linecap:round; stroke-width:0.25;"/>
<line x1="530.600000" y1="62.000000" x2="534.600000" y2="62.000000"  style="stroke:black; stroke-linecap:round; stroke-width:0.25;"/>
<line x1="534.600000" y1="62.000000" x2="534.600000" y2="62.000000"  style="stroke:black; stroke-linecap:round; stroke-width:0.25;"/>
<line x1="534.600000" y1="62.000000" x2="538.600000" y2="62.000000"  style="stroke:black; stroke-linecap:round; stroke-width:0.25;"/>
<line x1="538.600000" y1="62.000000" x2="542.600000" y2="62.000000"  style="stroke:black; stroke-linecap:round; stroke-width:0.25;"/>
<line x1="542.600000" y1="62.000000" x2="552.600000" y2="62.000000"  style="stroke:black; stroke-linecap:round; stroke-width:0.25;"/>
</svg>
