<?xml version="1.0"?>
<svg xmlns="http://www.w3.org/2000/svg" xmlns:xlink="http://www.w3.org/1999/xlink" viewBox="0 0 623.000000 124.000000" width="311.500000mm" height="62.000000mm" version="1.1">
<a xlink:href="osc-0x7fd1b2fa7960.svg">
<rect x="1.000000" y="1.000000" width="622.000000" height="123.000000" rx="0" ry="0" style="stroke:none;fill:#cccccc;"/>
<rect x="0.000000" y="0.000000" width="622.000000" height="123.000000" rx="0" ry="0" style="stroke:none;fill:#ffffff;"/>
</a>
<text x="10.000000" y="7.000000" font-family="Arial" font-size="7"></text>
<rect x="35.000000" y="35.000000" width="322.500000" height="24.000000" rx="0" ry="0" style="stroke:none;fill:#cccccc;"/>
<rect x="34.000000" y="34.000000" width="322.500000" height="24.000000" rx="0" ry="0" style="stroke:none;fill:#477881;"/>
<text x="195.250000" y="48.000000" font-family="Arial" font-size="7" text-anchor="middle" fill="#FFFFFF">hslider(v:violin/h:otherParams/vibratoFrequency, 6.0f, 1.0f, 10.0f, 0.01f)</text>
<circle cx="36.000000" cy="36.000000" r="1"/>
<line x1="25.000000" y1="25.000000" x2="25.000000" y2="67.000000"  style="stroke: black; stroke-linecap:round; stroke-width:0.25; stroke-dasharray:3,3;"/>
<line x1="25.000000" y1="67.000000" x2="365.500000" y2="67.000000"  style="stroke: black; stroke-linecap:round; stroke-width:0.25; stroke-dasharray:3,3;"/>
<line x1="365.500000" y1="67.000000" x2="365.500000" y2="25.000000"  style="stroke: black; stroke-linecap:round; stroke-width:0.25; stroke-dasharray:3,3;"/>
<line x1="25.000000" y1="25.000000" x2="30.000000" y2="25.000000"  style="stroke: black; stroke-linecap:round; stroke-width:0.25; stroke-dasharray:3,3;"/>
<line x1="71.925000" y1="25.000000" x2="365.500000" y2="25.000000"  style="stroke: black; stroke-linecap:round; stroke-width:0.25; stroke-dasharray:3,3;"/>
<text x="30.000000" y="27.000000" font-family="Arial" font-size="7">vibratoFreq</text>
<a xlink:href="SR-0x7fd1af420140.svg">
<rect x="167.350000" y="77.000000" width="24.000000" height="24.000000" rx="0" ry="0" style="stroke:none;fill:#cccccc;"/>
<rect x="166.350000" y="76.000000" width="24.000000" height="24.000000" rx="0" ry="0" style="stroke:none;fill:#003366;"/>
</a>
<a xlink:href="SR-0x7fd1af420140.svg">
<text x="178.350000" y="90.000000" font-family="Arial" font-size="7" text-anchor="middle" fill="#FFFFFF">SR</text>
</a>
<circle cx="168.350000" cy="78.000000" r="1"/>
<rect x="199.350000" y="77.000000" width="25.800000" height="24.000000" rx="0" ry="0" style="stroke:none;fill:#cccccc;"/>
<rect x="198.350000" y="76.000000" width="25.800000" height="24.000000" rx="0" ry="0" style="stroke:none;fill:#4B71A1;"/>
<text x="211.250000" y="90.000000" font-family="Arial" font-size="7" text-anchor="middle" fill="#FFFFFF">float</text>
<circle cx="200.350000" cy="78.000000" r="1"/>
<line x1="195.350000" y1="87.000000" x2="198.350000" y2="88.000000"  transform="rotate(0.000000,198.350000,88.000000)" style="stroke: black; stroke-width:0.25;"/>
<line x1="195.350000" y1="89.000000" x2="198.350000" y2="88.000000"  transform="rotate(0.000000,198.350000,88.000000)" style="stroke: black; stroke-width:0.25;"/>
<rect x="383.500000" y="51.000000" width="24.000000" height="24.000000" rx="0" ry="0" style="stroke:none;fill:#cccccc;"/>
<rect x="382.500000" y="50.000000" width="24.000000" height="24.000000" rx="0" ry="0" style="stroke:none;fill:#4B71A1;"/>
<text x="394.500000" y="64.000000" font-family="Arial" font-size="7" text-anchor="middle" fill="#FFFFFF">/</text>
<circle cx="384.500000" cy="52.000000" r="1"/>
<line x1="379.500000" y1="57.000000" x2="382.500000" y2="58.000000"  transform="rotate(0.000000,382.500000,58.000000)" style="stroke: black; stroke-width:0.25;"/>
<line x1="379.500000" y1="59.000000" x2="382.500000" y2="58.000000"  transform="rotate(0.000000,382.500000,58.000000)" style="stroke: black; stroke-width:0.25;"/>
<line x1="379.500000" y1="65.000000" x2="382.500000" y2="66.000000"  transform="rotate(0.000000,382.500000,66.000000)" style="stroke: black; stroke-width:0.25;"/>
<line x1="379.500000" y1="67.000000" x2="382.500000" y2="66.000000"  transform="rotate(0.000000,382.500000,66.000000)" style="stroke: black; stroke-width:0.25;"/>
<rect x="431.500000" y="55.000000" width="24.000000" height="24.000000" rx="0" ry="0" style="stroke:none;fill:#cccccc;"/>
<rect x="430.500000" y="54.000000" width="24.000000" height="24.000000" rx="0" ry="0" style="stroke:none;fill:#4B71A1;"/>
<text x="442.500000" y="68.000000" font-family="Arial" font-size="7" text-anchor="middle" fill="#FFFFFF">+</text>
<circle cx="432.500000" cy="56.000000" r="1"/>
<line x1="427.500000" y1="61.000000" x2="430.500000" y2="62.000000"  transform="rotate(0.000000,430.500000,62.000000)" style="stroke: black; stroke-width:0.25;"/>
<line x1="427.500000" y1="63.000000" x2="430.500000" y2="62.000000"  transform="rotate(0.000000,430.500000,62.000000)" style="stroke: black; stroke-width:0.25;"/>
<line x1="427.500000" y1="69.000000" x2="430.500000" y2="70.000000"  transform="rotate(0.000000,430.500000,70.000000)" style="stroke: black; stroke-width:0.25;"/>
<line x1="427.500000" y1="71.000000" x2="430.500000" y2="70.000000"  transform="rotate(0.000000,430.500000,70.000000)" style="stroke: black; stroke-width:0.25;"/>
<a xlink:href="decimal-0x7fd1b2fa7210.svg">
<rect x="463.500000" y="55.000000" width="38.700000" height="24.000000" rx="0" ry="0" style="stroke:none;fill:#cccccc;"/>
<rect x="462.500000" y="54.000000" width="38.700000" height="24.000000" rx="0" ry="0" style="stroke:none;fill:#003366;"/>
</a>
<a xlink:href="decimal-0x7fd1b2fa7210.svg">
<text x="481.850000" y="68.000000" font-family="Arial" font-size="7" text-anchor="middle" fill="#FFFFFF">decimal</text>
</a>
<circle cx="464.500000" cy="56.000000" r="1"/>
<line x1="459.500000" y1="65.000000" x2="462.500000" y2="66.000000"  transform="rotate(0.000000,462.500000,66.000000)" style="stroke: black; stroke-width:0.25;"/>
<line x1="459.500000" y1="67.000000" x2="462.500000" y2="66.000000"  transform="rotate(0.000000,462.500000,66.000000)" style="stroke: black; stroke-width:0.25;"/>
<line x1="503.200000" y1="66.000000" x2="503.200000" y2="62.000000"  style="stroke:black; stroke-linecap:round; stroke-width:0.25;"/>
<line x1="503.200000" y1="62.000000" x2="507.200000" y2="62.000000"  style="stroke:black; stroke-linecap:round; stroke-width:0.25;"/>
<line x1="507.200000" y1="62.000000" x2="507.200000" y2="66.000000"  style="stroke:black; stroke-linecap:round; stroke-width:0.25;"/>
<rect x="526.200000" y="55.000000" width="25.800000" height="24.000000" rx="0" ry="0" style="stroke:none;fill:#cccccc;"/>
<rect x="525.200000" y="54.000000" width="25.800000" height="24.000000" rx="0" ry="0" style="stroke:none;fill:#f44800;"/>
<text x="538.100000" y="68.000000" font-family="Arial" font-size="7" text-anchor="middle" fill="#FFFFFF">65536</text>
<circle cx="527.200000" cy="56.000000" r="1"/>
<rect x="568.000000" y="51.000000" width="24.000000" height="24.000000" rx="0" ry="0" style="stroke:none;fill:#cccccc;"/>
<rect x="567.000000" y="50.000000" width="24.000000" height="24.000000" rx="0" ry="0" style="stroke:none;fill:#4B71A1;"/>
<text x="579.000000" y="64.000000" font-family="Arial" font-size="7" text-anchor="middle" fill="#FFFFFF">*</text>
<circle cx="569.000000" cy="52.000000" r="1"/>
<line x1="564.000000" y1="57.000000" x2="567.000000" y2="58.000000"  transform="rotate(0.000000,567.000000,58.000000)" style="stroke: black; stroke-width:0.25;"/>
<line x1="564.000000" y1="59.000000" x2="567.000000" y2="58.000000"  transform="rotate(0.000000,567.000000,58.000000)" style="stroke: black; stroke-width:0.25;"/>
<line x1="564.000000" y1="65.000000" x2="567.000000" y2="66.000000"  transform="rotate(0.000000,567.000000,66.000000)" style="stroke: black; stroke-width:0.25;"/>
<line x1="564.000000" y1="67.000000" x2="567.000000" y2="66.000000"  transform="rotate(0.000000,567.000000,66.000000)" style="stroke: black; stroke-width:0.25;"/>
<line x1="15.000000" y1="15.000000" x2="15.000000" y2="109.000000"  style="stroke: black; stroke-linecap:round; stroke-width:0.25; stroke-dasharray:3,3;"/>
<line x1="15.000000" y1="109.000000" x2="608.000000" y2="109.000000"  style="stroke: black; stroke-linecap:round; stroke-width:0.25; stroke-dasharray:3,3;"/>
<line x1="608.000000" y1="109.000000" x2="608.000000" y2="15.000000"  style="stroke: black; stroke-linecap:round; stroke-width:0.25; stroke-dasharray:3,3;"/>
<line x1="15.000000" y1="15.000000" x2="20.000000" y2="15.000000"  style="stroke: black; stroke-linecap:round; stroke-width:0.25; stroke-dasharray:3,3;"/>
<line x1="119.975000" y1="15.000000" x2="608.000000" y2="15.000000"  style="stroke: black; stroke-linecap:round; stroke-width:0.25; stroke-dasharray:3,3;"/>
<text x="20.000000" y="17.000000" font-family="Arial" font-size="7">phasor(65536)...0.0f, 0.01f))</text>
<line x1="610.000000" y1="61.000000" x2="613.000000" y2="62.000000"  transform="rotate(0.000000,613.000000,62.000000)" style="stroke: black; stroke-width:0.25;"/>
<line x1="610.000000" y1="63.000000" x2="613.000000" y2="62.000000"  transform="rotate(0.000000,613.000000,62.000000)" style="stroke: black; stroke-width:0.25;"/>
<line x1="190.350000" y1="88.000000" x2="194.350000" y2="88.000000"  style="stroke:black; stroke-linecap:round; stroke-width:0.25;"/>
<line x1="194.350000" y1="88.000000" x2="194.350000" y2="88.000000"  style="stroke:black; stroke-linecap:round; stroke-width:0.25;"/>
<line x1="194.350000" y1="88.000000" x2="198.350000" y2="88.000000"  style="stroke:black; stroke-linecap:round; stroke-width:0.25;"/>
<line x1="224.150000" y1="88.000000" x2="228.150000" y2="88.000000"  style="stroke:black; stroke-linecap:round; stroke-width:0.25;"/>
<line x1="228.150000" y1="88.000000" x2="370.500000" y2="88.000000"  style="stroke:black; stroke-linecap:round; stroke-width:0.25;"/>
<line x1="356.500000" y1="46.000000" x2="360.500000" y2="46.000000"  style="stroke:black; stroke-linecap:round; stroke-width:0.25;"/>
<line x1="360.500000" y1="46.000000" x2="370.500000" y2="46.000000"  style="stroke:black; stroke-linecap:round; stroke-width:0.25;"/>
<line x1="370.500000" y1="46.000000" x2="378.500000" y2="46.000000"  style="stroke:black; stroke-linecap:round; stroke-width:0.25;"/>
<line x1="370.500000" y1="66.000000" x2="378.500000" y2="66.000000"  style="stroke:black; stroke-linecap:round; stroke-width:0.25;"/>
<line x1="370.500000" y1="88.000000" x2="370.500000" y2="66.000000"  style="stroke:black; stroke-linecap:round; stroke-width:0.25;"/>
<line x1="370.500000" y1="88.000000" x2="370.500000" y2="88.000000"  style="stroke:black; stroke-linecap:round; stroke-width:0.25;"/>
<line x1="378.500000" y1="46.000000" x2="378.500000" y2="58.000000"  style="stroke:black; stroke-linecap:round; stroke-width:0.25;"/>
<line x1="378.500000" y1="58.000000" x2="378.500000" y2="58.000000"  style="stroke:black; stroke-linecap:round; stroke-width:0.25;"/>
<line x1="378.500000" y1="58.000000" x2="382.500000" y2="58.000000"  style="stroke:black; stroke-linecap:round; stroke-width:0.25;"/>
<line x1="378.500000" y1="66.000000" x2="382.500000" y2="66.000000"  style="stroke:black; stroke-linecap:round; stroke-width:0.25;"/>
<line x1="406.500000" y1="62.000000" x2="410.500000" y2="62.000000"  style="stroke:black; stroke-linecap:round; stroke-width:0.25;"/>
<line x1="410.500000" y1="62.000000" x2="418.500000" y2="62.000000"  style="stroke:black; stroke-linecap:round; stroke-width:0.25;"/>
<line x1="418.500000" y1="62.000000" x2="418.500000" y2="70.000000"  style="stroke:black; stroke-linecap:round; stroke-width:0.25;"/>
<line x1="418.500000" y1="70.000000" x2="418.500000" y2="70.000000"  style="stroke:black; stroke-linecap:round; stroke-width:0.25;"/>
<line x1="418.500000" y1="70.000000" x2="426.500000" y2="70.000000"  style="stroke:black; stroke-linecap:round; stroke-width:0.25;"/>
<line x1="426.500000" y1="46.000000" x2="426.500000" y2="46.000000"  style="stroke:black; stroke-linecap:round; stroke-width:0.25;"/>
<line x1="426.500000" y1="46.000000" x2="426.500000" y2="62.000000"  style="stroke:black; stroke-linecap:round; stroke-width:0.25;"/>
<line x1="426.500000" y1="62.000000" x2="426.500000" y2="62.000000"  style="stroke:black; stroke-linecap:round; stroke-width:0.25;"/>
<line x1="426.500000" y1="62.000000" x2="430.500000" y2="62.000000"  style="stroke:black; stroke-linecap:round; stroke-width:0.25;"/>
<line x1="426.500000" y1="70.000000" x2="430.500000" y2="70.000000"  style="stroke:black; stroke-linecap:round; stroke-width:0.25;"/>
<line x1="454.500000" y1="66.000000" x2="458.500000" y2="66.000000"  style="stroke:black; stroke-linecap:round; stroke-width:0.25;"/>
<line x1="458.500000" y1="66.000000" x2="458.500000" y2="66.000000"  style="stroke:black; stroke-linecap:round; stroke-width:0.25;"/>
<line x1="458.500000" y1="66.000000" x2="462.500000" y2="66.000000"  style="stroke:black; stroke-linecap:round; stroke-width:0.25;"/>
<line x1="465.850000" y1="46.000000" x2="426.500000" y2="46.000000"  style="stroke:black; stroke-linecap:round; stroke-width:0.25;"/>
<line x1="501.200000" y1="66.000000" x2="505.200000" y2="66.000000"  style="stroke:black; stroke-linecap:round; stroke-width:0.25;"/>
<line x1="505.200000" y1="46.000000" x2="505.200000" y2="46.000000"  style="stroke:black; stroke-linecap:round; stroke-width:0.25;"/>
<line x1="505.200000" y1="62.000000" x2="505.200000" y2="46.000000"  style="stroke:black; stroke-linecap:round; stroke-width:0.25;"/>
<line x1="505.200000" y1="66.000000" x2="507.200000" y2="66.000000"  style="stroke:black; stroke-linecap:round; stroke-width:0.25;"/>
<line x1="505.200000" y1="46.000000" x2="465.850000" y2="46.000000"  style="stroke:black; stroke-linecap:round; stroke-width:0.25;"/>
<line x1="507.200000" y1="66.000000" x2="513.200000" y2="66.000000"  style="stroke:black; stroke-linecap:round; stroke-width:0.25;"/>
<line x1="513.200000" y1="46.000000" x2="521.200000" y2="46.000000"  style="stroke:black; stroke-linecap:round; stroke-width:0.25;"/>
<line x1="513.200000" y1="66.000000" x2="513.200000" y2="46.000000"  style="stroke:black; stroke-linecap:round; stroke-width:0.25;"/>
<line x1="513.200000" y1="66.000000" x2="513.200000" y2="66.000000"  style="stroke:black; stroke-linecap:round; stroke-width:0.25;"/>
<line x1="521.200000" y1="46.000000" x2="538.100000" y2="46.000000"  style="stroke:black; stroke-linecap:round; stroke-width:0.25;"/>
<line x1="538.100000" y1="46.000000" x2="555.000000" y2="46.000000"  style="stroke:black; stroke-linecap:round; stroke-width:0.25;"/>
<line x1="551.000000" y1="66.000000" x2="555.000000" y2="66.000000"  style="stroke:black; stroke-linecap:round; stroke-width:0.25;"/>
<line x1="555.000000" y1="46.000000" x2="563.000000" y2="46.000000"  style="stroke:black; stroke-linecap:round; stroke-width:0.25;"/>
<line x1="555.000000" y1="66.000000" x2="563.000000" y2="66.000000"  style="stroke:black; stroke-linecap:round; stroke-width:0.25;"/>
<line x1="563.000000" y1="46.000000" x2="563.000000" y2="58.000000"  style="stroke:black; stroke-linecap:round; stroke-width:0.25;"/>
<line x1="563.000000" y1="58.000000" x2="563.000000" y2="58.000000"  style="stroke:black; stroke-linecap:round; stroke-width:0.25;"/>
<line x1="563.000000" y1="58.000000" x2="567.000000" y2="58.000000"  style="stroke:black; stroke-linecap:round; stroke-width:0.25;"/>
<line x1="563.000000" y1="66.000000" x2="567.000000" y2="66.000000"  style="stroke:black; stroke-linecap:round; stroke-width:0.25;"/>
<line x1="591.000000" y1="62.000000" x2="595.000000" y2="62.000000"  style="stroke:black; stroke-linecap:round; stroke-width:0.25;"/>
<line x1="595.000000" y1="62.000000" x2="595.000000" y2="62.000000"  style="stroke:black; stroke-linecap:round; stroke-width:0.25;"/>
<line x1="595.000000" y1="62.000000" x2="599.000000" y2="62.000000"  style="stroke:black; stroke-linecap:round; stroke-width:0.25;"/>
<line x1="599.000000" y1="62.000000" x2="603.000000" y2="62.000000"  style="stroke:black; stroke-linecap:round; stroke-width:0.25;"/>
<line x1="603.000000" y1="62.000000" x2="613.000000" y2="62.000000"  style="stroke:black; stroke-linecap:round; stroke-width:0.25;"/>
</svg>
