<?xml version="1.0"?>
<svg xmlns="http://www.w3.org/2000/svg" xmlns:xlink="http://www.w3.org/1999/xlink" viewBox="0 0 381.100000 136.000000" width="190.550000mm" height="68.000000mm" version="1.1">
<a xlink:href="bend-0x7fc5f389b210.svg">
<rect x="1.000000" y="1.000000" width="380.100000" height="135.000000" rx="0" ry="0" style="stroke:none;fill:#cccccc;"/>
<rect x="0.000000" y="0.000000" width="380.100000" height="135.000000" rx="0" ry="0" style="stroke:none;fill:#ffffff;"/>
</a>
<text x="10.000000" y="7.000000" font-family="Arial" font-size="7"></text>
<rect x="155.550000" y="25.000000" width="24.000000" height="24.000000" rx="0" ry="0" style="stroke:none;fill:#cccccc;"/>
<rect x="154.550000" y="24.000000" width="24.000000" height="24.000000" rx="0" ry="0" style="stroke:none;fill:#f44800;"/>
<text x="166.550000" y="38.000000" font-family="Arial" font-size="7" text-anchor="middle" fill="#FFFFFF">2</text>
<circle cx="156.550000" cy="26.000000" r="1"/>
<rect x="25.000000" y="57.000000" width="245.100000" height="24.000000" rx="0" ry="0" style="stroke:none;fill:#cccccc;"/>
<rect x="24.000000" y="56.000000" width="245.100000" height="24.000000" rx="0" ry="0" style="stroke:none;fill:#477881;"/>
<text x="146.550000" y="70.000000" font-family="Arial" font-size="7" text-anchor="middle" fill="#FFFFFF">hslider(v:violin/h:midi/bend, 0.0f, -2.0f, 2.0f, 0.01f)</text>
<circle cx="26.000000" cy="58.000000" r="1"/>
<rect x="135.550000" y="89.000000" width="24.000000" height="24.000000" rx="0" ry="0" style="stroke:none;fill:#cccccc;"/>
<rect x="134.550000" y="88.000000" width="24.000000" height="24.000000" rx="0" ry="0" style="stroke:none;fill:#f44800;"/>
<text x="146.550000" y="102.000000" font-family="Arial" font-size="7" text-anchor="middle" fill="#FFFFFF">12</text>
<circle cx="136.550000" cy="90.000000" r="1"/>
<rect x="286.100000" y="73.000000" width="24.000000" height="24.000000" rx="0" ry="0" style="stroke:none;fill:#cccccc;"/>
<rect x="285.100000" y="72.000000" width="24.000000" height="24.000000" rx="0" ry="0" style="stroke:none;fill:#4B71A1;"/>
<text x="297.100000" y="86.000000" font-family="Arial" font-size="7" text-anchor="middle" fill="#FFFFFF">/</text>
<circle cx="287.100000" cy="74.000000" r="1"/>
<line x1="282.100000" y1="79.000000" x2="285.100000" y2="80.000000"  transform="rotate(0.000000,285.100000,80.000000)" style="stroke: black; stroke-width:0.25;"/>
<line x1="282.100000" y1="81.000000" x2="285.100000" y2="80.000000"  transform="rotate(0.000000,285.100000,80.000000)" style="stroke: black; stroke-width:0.25;"/>
<line x1="282.100000" y1="87.000000" x2="285.100000" y2="88.000000"  transform="rotate(0.000000,285.100000,88.000000)" style="stroke: black; stroke-width:0.25;"/>
<line x1="282.100000" y1="89.000000" x2="285.100000" y2="88.000000"  transform="rotate(0.000000,285.100000,88.000000)" style="stroke: black; stroke-width:0.25;"/>
<rect x="326.100000" y="57.000000" width="24.000000" height="24.000000" rx="0" ry="0" style="stroke:none;fill:#cccccc;"/>
<rect x="325.100000" y="56.000000" width="24.000000" height="24.000000" rx="0" ry="0" style="stroke:none;fill:#4B71A1;"/>
<text x="337.100000" y="70.000000" font-family="Arial" font-size="7" text-anchor="middle" fill="#FFFFFF">pow</text>
<circle cx="327.100000" cy="58.000000" r="1"/>
<line x1="322.100000" y1="63.000000" x2="325.100000" y2="64.000000"  transform="rotate(0.000000,325.100000,64.000000)" style="stroke: black; stroke-width:0.25;"/>
<line x1="322.100000" y1="65.000000" x2="325.100000" y2="64.000000"  transform="rotate(0.000000,325.100000,64.000000)" style="stroke: black; stroke-width:0.25;"/>
<line x1="322.100000" y1="71.000000" x2="325.100000" y2="72.000000"  transform="rotate(0.000000,325.100000,72.000000)" style="stroke: black; stroke-width:0.25;"/>
<line x1="322.100000" y1="73.000000" x2="325.100000" y2="72.000000"  transform="rotate(0.000000,325.100000,72.000000)" style="stroke: black; stroke-width:0.25;"/>
<line x1="15.000000" y1="15.000000" x2="15.000000" y2="121.000000"  style="stroke: black; stroke-linecap:round; stroke-width:0.25; stroke-dasharray:3,3;"/>
<line x1="15.000000" y1="121.000000" x2="366.100000" y2="121.000000"  style="stroke: black; stroke-linecap:round; stroke-width:0.25; stroke-dasharray:3,3;"/>
<line x1="366.100000" y1="121.000000" x2="366.100000" y2="15.000000"  style="stroke: black; stroke-linecap:round; stroke-width:0.25; stroke-dasharray:3,3;"/>
<line x1="15.000000" y1="15.000000" x2="20.000000" y2="15.000000"  style="stroke: black; stroke-linecap:round; stroke-width:0.25; stroke-dasharray:3,3;"/>
<line x1="119.975000" y1="15.000000" x2="366.100000" y2="15.000000"  style="stroke: black; stroke-linecap:round; stroke-width:0.25; stroke-dasharray:3,3;"/>
<text x="20.000000" y="17.000000" font-family="Arial" font-size="7">semi2ratio(hs...2.0f, 0.01f))</text>
<line x1="368.100000" y1="67.000000" x2="371.100000" y2="68.000000"  transform="rotate(0.000000,371.100000,68.000000)" style="stroke: black; stroke-width:0.25;"/>
<line x1="368.100000" y1="69.000000" x2="371.100000" y2="68.000000"  transform="rotate(0.000000,371.100000,68.000000)" style="stroke: black; stroke-width:0.25;"/>
<line x1="158.550000" y1="100.000000" x2="162.550000" y2="100.000000"  style="stroke:black; stroke-linecap:round; stroke-width:0.25;"/>
<line x1="162.550000" y1="100.000000" x2="273.100000" y2="100.000000"  style="stroke:black; stroke-linecap:round; stroke-width:0.25;"/>
<line x1="178.550000" y1="36.000000" x2="182.550000" y2="36.000000"  style="stroke:black; stroke-linecap:round; stroke-width:0.25;"/>
<line x1="182.550000" y1="36.000000" x2="313.100000" y2="36.000000"  style="stroke:black; stroke-linecap:round; stroke-width:0.25;"/>
<line x1="269.100000" y1="68.000000" x2="273.100000" y2="68.000000"  style="stroke:black; stroke-linecap:round; stroke-width:0.25;"/>
<line x1="273.100000" y1="68.000000" x2="281.100000" y2="68.000000"  style="stroke:black; stroke-linecap:round; stroke-width:0.25;"/>
<line x1="273.100000" y1="88.000000" x2="281.100000" y2="88.000000"  style="stroke:black; stroke-linecap:round; stroke-width:0.25;"/>
<line x1="273.100000" y1="100.000000" x2="273.100000" y2="88.000000"  style="stroke:black; stroke-linecap:round; stroke-width:0.25;"/>
<line x1="273.100000" y1="100.000000" x2="273.100000" y2="100.000000"  style="stroke:black; stroke-linecap:round; stroke-width:0.25;"/>
<line x1="281.100000" y1="68.000000" x2="281.100000" y2="80.000000"  style="stroke:black; stroke-linecap:round; stroke-width:0.25;"/>
<line x1="281.100000" y1="80.000000" x2="281.100000" y2="80.000000"  style="stroke:black; stroke-linecap:round; stroke-width:0.25;"/>
<line x1="281.100000" y1="80.000000" x2="285.100000" y2="80.000000"  style="stroke:black; stroke-linecap:round; stroke-width:0.25;"/>
<line x1="281.100000" y1="88.000000" x2="285.100000" y2="88.000000"  style="stroke:black; stroke-linecap:round; stroke-width:0.25;"/>
<line x1="309.100000" y1="84.000000" x2="313.100000" y2="84.000000"  style="stroke:black; stroke-linecap:round; stroke-width:0.25;"/>
<line x1="313.100000" y1="36.000000" x2="321.100000" y2="36.000000"  style="stroke:black; stroke-linecap:round; stroke-width:0.25;"/>
<line x1="313.100000" y1="72.000000" x2="321.100000" y2="72.000000"  style="stroke:black; stroke-linecap:round; stroke-width:0.25;"/>
<line x1="313.100000" y1="84.000000" x2="313.100000" y2="72.000000"  style="stroke:black; stroke-linecap:round; stroke-width:0.25;"/>
<line x1="313.100000" y1="84.000000" x2="313.100000" y2="84.000000"  style="stroke:black; stroke-linecap:round; stroke-width:0.25;"/>
<line x1="321.100000" y1="36.000000" x2="321.100000" y2="64.000000"  style="stroke:black; stroke-linecap:round; stroke-width:0.25;"/>
<line x1="321.100000" y1="64.000000" x2="321.100000" y2="64.000000"  style="stroke:black; stroke-linecap:round; stroke-width:0.25;"/>
<line x1="321.100000" y1="64.000000" x2="325.100000" y2="64.000000"  style="stroke:black; stroke-linecap:round; stroke-width:0.25;"/>
<line x1="321.100000" y1="72.000000" x2="325.100000" y2="72.000000"  style="stroke:black; stroke-linecap:round; stroke-width:0.25;"/>
<line x1="349.100000" y1="68.000000" x2="353.100000" y2="68.000000"  style="stroke:black; stroke-linecap:round; stroke-width:0.25;"/>
<line x1="353.100000" y1="68.000000" x2="353.100000" y2="68.000000"  style="stroke:black; stroke-linecap:round; stroke-width:0.25;"/>
<line x1="353.100000" y1="68.000000" x2="357.100000" y2="68.000000"  style="stroke:black; stroke-linecap:round; stroke-width:0.25;"/>
<line x1="357.100000" y1="68.000000" x2="361.100000" y2="68.000000"  style="stroke:black; stroke-linecap:round; stroke-width:0.25;"/>
<line x1="361.100000" y1="68.000000" x2="371.100000" y2="68.000000"  style="stroke:black; stroke-linecap:round; stroke-width:0.25;"/>
</svg>
