<?xml version="1.0"?>
<svg xmlns="http://www.w3.org/2000/svg" xmlns:xlink="http://www.w3.org/1999/xlink" viewBox="0 0 304.600000 124.000000" width="152.300000mm" height="62.000000mm" version="1.1">
<a xlink:href="fm-0x7fd6787ce870.svg">
<rect x="1.000000" y="1.000000" width="303.600000" height="123.000000" rx="0" ry="0" style="stroke:none;fill:#cccccc;"/>
<rect x="0.000000" y="0.000000" width="303.600000" height="123.000000" rx="0" ry="0" style="stroke:none;fill:#ffffff;"/>
</a>
<text x="10.000000" y="7.000000" font-family="Arial" font-size="7"></text>
<rect x="35.000000" y="35.000000" width="154.800000" height="24.000000" rx="0" ry="0" style="stroke:none;fill:#cccccc;"/>
<rect x="34.000000" y="34.000000" width="154.800000" height="24.000000" rx="0" ry="0" style="stroke:none;fill:#477881;"/>
<text x="111.400000" y="48.000000" font-family="Arial" font-size="7" text-anchor="middle" fill="#FFFFFF">hslider(y, 0.0f, 0.0f, 1.0f, 0.01f)</text>
<circle cx="36.000000" cy="36.000000" r="1"/>
<line x1="25.000000" y1="25.000000" x2="25.000000" y2="67.000000"  style="stroke: black; stroke-linecap:round; stroke-width:0.25; stroke-dasharray:3,3;"/>
<line x1="25.000000" y1="67.000000" x2="197.800000" y2="67.000000"  style="stroke: black; stroke-linecap:round; stroke-width:0.25; stroke-dasharray:3,3;"/>
<line x1="197.800000" y1="67.000000" x2="197.800000" y2="25.000000"  style="stroke: black; stroke-linecap:round; stroke-width:0.25; stroke-dasharray:3,3;"/>
<line x1="25.000000" y1="25.000000" x2="30.000000" y2="25.000000"  style="stroke: black; stroke-linecap:round; stroke-width:0.25; stroke-dasharray:3,3;"/>
<line x1="39.675000" y1="25.000000" x2="197.800000" y2="25.000000"  style="stroke: black; stroke-linecap:round; stroke-width:0.25; stroke-dasharray:3,3;"/>
<text x="30.000000" y="27.000000" font-family="Arial" font-size="7">y</text>
<rect x="99.500000" y="77.000000" width="25.800000" height="24.000000" rx="0" ry="0" style="stroke:none;fill:#cccccc;"/>
<rect x="98.500000" y="76.000000" width="25.800000" height="24.000000" rx="0" ry="0" style="stroke:none;fill:#f44800;"/>
<text x="111.400000" y="90.000000" font-family="Arial" font-size="7" text-anchor="middle" fill="#FFFFFF">1000</text>
<circle cx="100.500000" cy="78.000000" r="1"/>
<rect x="215.800000" y="51.000000" width="24.000000" height="24.000000" rx="0" ry="0" style="stroke:none;fill:#cccccc;"/>
<rect x="214.800000" y="50.000000" width="24.000000" height="24.000000" rx="0" ry="0" style="stroke:none;fill:#4B71A1;"/>
<text x="226.800000" y="64.000000" font-family="Arial" font-size="7" text-anchor="middle" fill="#FFFFFF">*</text>
<circle cx="216.800000" cy="52.000000" r="1"/>
<line x1="211.800000" y1="57.000000" x2="214.800000" y2="58.000000"  transform="rotate(0.000000,214.800000,58.000000)" style="stroke: black; stroke-width:0.25;"/>
<line x1="211.800000" y1="59.000000" x2="214.800000" y2="58.000000"  transform="rotate(0.000000,214.800000,58.000000)" style="stroke: black; stroke-width:0.25;"/>
<line x1="211.800000" y1="65.000000" x2="214.800000" y2="66.000000"  transform="rotate(0.000000,214.800000,66.000000)" style="stroke: black; stroke-width:0.25;"/>
<line x1="211.800000" y1="67.000000" x2="214.800000" y2="66.000000"  transform="rotate(0.000000,214.800000,66.000000)" style="stroke: black; stroke-width:0.25;"/>
<a xlink:href="smoo-0x7fd678550cf0.svg">
<rect x="247.800000" y="51.000000" width="25.800000" height="24.000000" rx="0" ry="0" style="stroke:none;fill:#cccccc;"/>
<rect x="246.800000" y="50.000000" width="25.800000" height="24.000000" rx="0" ry="0" style="stroke:none;fill:#003366;"/>
</a>
<a xlink:href="smoo-0x7fd678550cf0.svg">
<text x="259.700000" y="64.000000" font-family="Arial" font-size="7" text-anchor="middle" fill="#FFFFFF">smoo</text>
</a>
<circle cx="248.800000" cy="52.000000" r="1"/>
<line x1="243.800000" y1="61.000000" x2="246.800000" y2="62.000000"  transform="rotate(0.000000,246.800000,62.000000)" style="stroke: black; stroke-width:0.25;"/>
<line x1="243.800000" y1="63.000000" x2="246.800000" y2="62.000000"  transform="rotate(0.000000,246.800000,62.000000)" style="stroke: black; stroke-width:0.25;"/>
<line x1="15.000000" y1="15.000000" x2="15.000000" y2="109.000000"  style="stroke: black; stroke-linecap:round; stroke-width:0.25; stroke-dasharray:3,3;"/>
<line x1="15.000000" y1="109.000000" x2="289.600000" y2="109.000000"  style="stroke: black; stroke-linecap:round; stroke-width:0.25; stroke-dasharray:3,3;"/>
<line x1="289.600000" y1="109.000000" x2="289.600000" y2="15.000000"  style="stroke: black; stroke-linecap:round; stroke-width:0.25; stroke-dasharray:3,3;"/>
<line x1="15.000000" y1="15.000000" x2="20.000000" y2="15.000000"  style="stroke: black; stroke-linecap:round; stroke-width:0.25; stroke-dasharray:3,3;"/>
<line x1="49.025000" y1="15.000000" x2="289.600000" y2="15.000000"  style="stroke: black; stroke-linecap:round; stroke-width:0.25; stroke-dasharray:3,3;"/>
<text x="20.000000" y="17.000000" font-family="Arial" font-size="7">gain(1)</text>
<line x1="291.600000" y1="61.000000" x2="294.600000" y2="62.000000"  transform="rotate(0.000000,294.600000,62.000000)" style="stroke: black; stroke-width:0.25;"/>
<line x1="291.600000" y1="63.000000" x2="294.600000" y2="62.000000"  transform="rotate(0.000000,294.600000,62.000000)" style="stroke: black; stroke-width:0.25;"/>
<line x1="124.300000" y1="88.000000" x2="128.300000" y2="88.000000"  style="stroke:black; stroke-linecap:round; stroke-width:0.25;"/>
<line x1="128.300000" y1="88.000000" x2="202.800000" y2="88.000000"  style="stroke:black; stroke-linecap:round; stroke-width:0.25;"/>
<line x1="188.800000" y1="46.000000" x2="192.800000" y2="46.000000"  style="stroke:black; stroke-linecap:round; stroke-width:0.25;"/>
<line x1="192.800000" y1="46.000000" x2="202.800000" y2="46.000000"  style="stroke:black; stroke-linecap:round; stroke-width:0.25;"/>
<line x1="202.800000" y1="46.000000" x2="210.800000" y2="46.000000"  style="stroke:black; stroke-linecap:round; stroke-width:0.25;"/>
<line x1="202.800000" y1="66.000000" x2="210.800000" y2="66.000000"  style="stroke:black; stroke-linecap:round; stroke-width:0.25;"/>
<line x1="202.800000" y1="88.000000" x2="202.800000" y2="66.000000"  style="stroke:black; stroke-linecap:round; stroke-width:0.25;"/>
<line x1="202.800000" y1="88.000000" x2="202.800000" y2="88.000000"  style="stroke:black; stroke-linecap:round; stroke-width:0.25;"/>
<line x1="210.800000" y1="46.000000" x2="210.800000" y2="58.000000"  style="stroke:black; stroke-linecap:round; stroke-width:0.25;"/>
<line x1="210.800000" y1="58.000000" x2="210.800000" y2="58.000000"  style="stroke:black; stroke-linecap:round; stroke-width:0.25;"/>
<line x1="210.800000" y1="58.000000" x2="214.800000" y2="58.000000"  style="stroke:black; stroke-linecap:round; stroke-width:0.25;"/>
<line x1="210.800000" y1="66.000000" x2="214.800000" y2="66.000000"  style="stroke:black; stroke-linecap:round; stroke-width:0.25;"/>
<line x1="238.800000" y1="62.000000" x2="242.800000" y2="62.000000"  style="stroke:black; stroke-linecap:round; stroke-width:0.25;"/>
<line x1="242.800000" y1="62.000000" x2="242.800000" y2="62.000000"  style="stroke:black; stroke-linecap:round; stroke-width:0.25;"/>
<line x1="242.800000" y1="62.000000" x2="246.800000" y2="62.000000"  style="stroke:black; stroke-linecap:round; stroke-width:0.25;"/>
<line x1="272.600000" y1="62.000000" x2="276.600000" y2="62.000000"  style="stroke:black; stroke-linecap:round; stroke-width:0.25;"/>
<line x1="276.600000" y1="62.000000" x2="276.600000" y2="62.000000"  style="stroke:black; stroke-linecap:round; stroke-width:0.25;"/>
<line x1="276.600000" y1="62.000000" x2="280.600000" y2="62.000000"  style="stroke:black; stroke-linecap:round; stroke-width:0.25;"/>
<line x1="280.600000" y1="62.000000" x2="284.600000" y2="62.000000"  style="stroke:black; stroke-linecap:round; stroke-width:0.25;"/>
<line x1="284.600000" y1="62.000000" x2="294.600000" y2="62.000000"  style="stroke:black; stroke-linecap:round; stroke-width:0.25;"/>
</svg>
