<?xml version="1.0"?>
<svg xmlns="http://www.w3.org/2000/svg" xmlns:xlink="http://www.w3.org/1999/xlink" viewBox="0 0 507.800000 176.000000" width="253.900000mm" height="88.000000mm" version="1.1">
<rect x="1.000000" y="1.000000" width="506.800000" height="175.000000" rx="0" ry="0" style="stroke:none;fill:#cccccc;"/>
<rect x="0.000000" y="0.000000" width="506.800000" height="175.000000" rx="0" ry="0" style="stroke:none;fill:#ffffff;"/>
<text x="10.000000" y="7.000000" font-family="Arial" font-size="7"></text>
<a xlink:href="stereo-0x6000421cd170.svg">
<rect x="33.000000" y="77.000000" width="129.000000" height="24.000000" rx="0" ry="0" style="stroke:none;fill:#cccccc;"/>
<rect x="32.000000" y="76.000000" width="129.000000" height="24.000000" rx="0" ry="0" style="stroke:none;fill:#003366;"/>
</a>
<a xlink:href="stereo-0x6000421cd170.svg">
<text x="96.500000" y="90.000000" font-family="Arial" font-size="7" text-anchor="middle" fill="#FFFFFF">stereo_reverb...1[nil]]]]]}])</text>
</a>
<circle cx="34.000000" cy="78.000000" r="1"/>
<line x1="29.000000" y1="83.000000" x2="32.000000" y2="84.000000"  transform="rotate(0.000000,32.000000,84.000000)" style="stroke: black; stroke-width:0.25;"/>
<line x1="29.000000" y1="85.000000" x2="32.000000" y2="84.000000"  transform="rotate(0.000000,32.000000,84.000000)" style="stroke: black; stroke-width:0.25;"/>
<line x1="29.000000" y1="91.000000" x2="32.000000" y2="92.000000"  transform="rotate(0.000000,32.000000,92.000000)" style="stroke: black; stroke-width:0.25;"/>
<line x1="29.000000" y1="93.000000" x2="32.000000" y2="92.000000"  transform="rotate(0.000000,32.000000,92.000000)" style="stroke: black; stroke-width:0.25;"/>
<a xlink:href="fdnrev0-0x6000421ee370.svg">
<rect x="212.000000" y="25.000000" width="129.000000" height="128.000000" rx="0" ry="0" style="stroke:none;fill:#cccccc;"/>
<rect x="211.000000" y="24.000000" width="129.000000" height="128.000000" rx="0" ry="0" style="stroke:none;fill:#003366;"/>
</a>
<a xlink:href="fdnrev0-0x6000421ee370.svg">
<text x="275.500000" y="90.000000" font-family="Arial" font-size="7" text-anchor="middle" fill="#FFFFFF">fdnrev0(8192)..., 0.001f)))))</text>
</a>
<circle cx="213.000000" cy="26.000000" r="1"/>
<line x1="208.000000" y1="27.000000" x2="211.000000" y2="28.000000"  transform="rotate(0.000000,211.000000,28.000000)" style="stroke: black; stroke-width:0.25;"/>
<line x1="208.000000" y1="29.000000" x2="211.000000" y2="28.000000"  transform="rotate(0.000000,211.000000,28.000000)" style="stroke: black; stroke-width:0.25;"/>
<line x1="208.000000" y1="35.000000" x2="211.000000" y2="36.000000"  transform="rotate(0.000000,211.000000,36.000000)" style="stroke: black; stroke-width:0.25;"/>
<line x1="208.000000" y1="37.000000" x2="211.000000" y2="36.000000"  transform="rotate(0.000000,211.000000,36.000000)" style="stroke: black; stroke-width:0.25;"/>
<line x1="208.000000" y1="43.000000" x2="211.000000" y2="44.000000"  transform="rotate(0.000000,211.000000,44.000000)" style="stroke: black; stroke-width:0.25;"/>
<line x1="208.000000" y1="45.000000" x2="211.000000" y2="44.000000"  transform="rotate(0.000000,211.000000,44.000000)" style="stroke: black; stroke-width:0.25;"/>
<line x1="208.000000" y1="51.000000" x2="211.000000" y2="52.000000"  transform="rotate(0.000000,211.000000,52.000000)" style="stroke: black; stroke-width:0.25;"/>
<line x1="208.000000" y1="53.000000" x2="211.000000" y2="52.000000"  transform="rotate(0.000000,211.000000,52.000000)" style="stroke: black; stroke-width:0.25;"/>
<line x1="208.000000" y1="59.000000" x2="211.000000" y2="60.000000"  transform="rotate(0.000000,211.000000,60.000000)" style="stroke: black; stroke-width:0.25;"/>
<line x1="208.000000" y1="61.000000" x2="211.000000" y2="60.000000"  transform="rotate(0.000000,211.000000,60.000000)" style="stroke: black; stroke-width:0.25;"/>
<line x1="208.000000" y1="67.000000" x2="211.000000" y2="68.000000"  transform="rotate(0.000000,211.000000,68.000000)" style="stroke: black; stroke-width:0.25;"/>
<line x1="208.000000" y1="69.000000" x2="211.000000" y2="68.000000"  transform="rotate(0.000000,211.000000,68.000000)" style="stroke: black; stroke-width:0.25;"/>
<line x1="208.000000" y1="75.000000" x2="211.000000" y2="76.000000"  transform="rotate(0.000000,211.000000,76.000000)" style="stroke: black; stroke-width:0.25;"/>
<line x1="208.000000" y1="77.000000" x2="211.000000" y2="76.000000"  transform="rotate(0.000000,211.000000,76.000000)" style="stroke: black; stroke-width:0.25;"/>
<line x1="208.000000" y1="83.000000" x2="211.000000" y2="84.000000"  transform="rotate(0.000000,211.000000,84.000000)" style="stroke: black; stroke-width:0.25;"/>
<line x1="208.000000" y1="85.000000" x2="211.000000" y2="84.000000"  transform="rotate(0.000000,211.000000,84.000000)" style="stroke: black; stroke-width:0.25;"/>
<line x1="208.000000" y1="91.000000" x2="211.000000" y2="92.000000"  transform="rotate(0.000000,211.000000,92.000000)" style="stroke: black; stroke-width:0.25;"/>
<line x1="208.000000" y1="93.000000" x2="211.000000" y2="92.000000"  transform="rotate(0.000000,211.000000,92.000000)" style="stroke: black; stroke-width:0.25;"/>
<line x1="208.000000" y1="99.000000" x2="211.000000" y2="100.000000"  transform="rotate(0.000000,211.000000,100.000000)" style="stroke: black; stroke-width:0.25;"/>
<line x1="208.000000" y1="101.000000" x2="211.000000" y2="100.000000"  transform="rotate(0.000000,211.000000,100.000000)" style="stroke: black; stroke-width:0.25;"/>
<line x1="208.000000" y1="107.000000" x2="211.000000" y2="108.000000"  transform="rotate(0.000000,211.000000,108.000000)" style="stroke: black; stroke-width:0.25;"/>
<line x1="208.000000" y1="109.000000" x2="211.000000" y2="108.000000"  transform="rotate(0.000000,211.000000,108.000000)" style="stroke: black; stroke-width:0.25;"/>
<line x1="208.000000" y1="115.000000" x2="211.000000" y2="116.000000"  transform="rotate(0.000000,211.000000,116.000000)" style="stroke: black; stroke-width:0.25;"/>
<line x1="208.000000" y1="117.000000" x2="211.000000" y2="116.000000"  transform="rotate(0.000000,211.000000,116.000000)" style="stroke: black; stroke-width:0.25;"/>
<line x1="208.000000" y1="123.000000" x2="211.000000" y2="124.000000"  transform="rotate(0.000000,211.000000,124.000000)" style="stroke: black; stroke-width:0.25;"/>
<line x1="208.000000" y1="125.000000" x2="211.000000" y2="124.000000"  transform="rotate(0.000000,211.000000,124.000000)" style="stroke: black; stroke-width:0.25;"/>
<line x1="208.000000" y1="131.000000" x2="211.000000" y2="132.000000"  transform="rotate(0.000000,211.000000,132.000000)" style="stroke: black; stroke-width:0.25;"/>
<line x1="208.000000" y1="133.000000" x2="211.000000" y2="132.000000"  transform="rotate(0.000000,211.000000,132.000000)" style="stroke: black; stroke-width:0.25;"/>
<line x1="208.000000" y1="139.000000" x2="211.000000" y2="140.000000"  transform="rotate(0.000000,211.000000,140.000000)" style="stroke: black; stroke-width:0.25;"/>
<line x1="208.000000" y1="141.000000" x2="211.000000" y2="140.000000"  transform="rotate(0.000000,211.000000,140.000000)" style="stroke: black; stroke-width:0.25;"/>
<line x1="208.000000" y1="147.000000" x2="211.000000" y2="148.000000"  transform="rotate(0.000000,211.000000,148.000000)" style="stroke: black; stroke-width:0.25;"/>
<line x1="208.000000" y1="149.000000" x2="211.000000" y2="148.000000"  transform="rotate(0.000000,211.000000,148.000000)" style="stroke: black; stroke-width:0.25;"/>
<a xlink:href="gain-0x60003e306520.svg">
<rect x="403.000000" y="61.000000" width="25.800000" height="24.000000" rx="0" ry="0" style="stroke:none;fill:#cccccc;"/>
<rect x="402.000000" y="60.000000" width="25.800000" height="24.000000" rx="0" ry="0" style="stroke:none;fill:#003366;"/>
</a>
<a xlink:href="gain-0x60003e306520.svg">
<text x="414.900000" y="74.000000" font-family="Arial" font-size="7" text-anchor="middle" fill="#FFFFFF">gain</text>
</a>
<circle cx="404.000000" cy="62.000000" r="1"/>
<rect x="444.800000" y="57.000000" width="24.000000" height="24.000000" rx="0" ry="0" style="stroke:none;fill:#cccccc;"/>
<rect x="443.800000" y="56.000000" width="24.000000" height="24.000000" rx="0" ry="0" style="stroke:none;fill:#4B71A1;"/>
<text x="455.800000" y="70.000000" font-family="Arial" font-size="7" text-anchor="middle" fill="#FFFFFF">*</text>
<circle cx="445.800000" cy="58.000000" r="1"/>
<line x1="440.800000" y1="63.000000" x2="443.800000" y2="64.000000"  transform="rotate(0.000000,443.800000,64.000000)" style="stroke: black; stroke-width:0.25;"/>
<line x1="440.800000" y1="65.000000" x2="443.800000" y2="64.000000"  transform="rotate(0.000000,443.800000,64.000000)" style="stroke: black; stroke-width:0.25;"/>
<line x1="440.800000" y1="71.000000" x2="443.800000" y2="72.000000"  transform="rotate(0.000000,443.800000,72.000000)" style="stroke: black; stroke-width:0.25;"/>
<line x1="440.800000" y1="73.000000" x2="443.800000" y2="72.000000"  transform="rotate(0.000000,443.800000,72.000000)" style="stroke: black; stroke-width:0.25;"/>
<a xlink:href="gain-0x60003e306520.svg">
<rect x="403.000000" y="101.000000" width="25.800000" height="24.000000" rx="0" ry="0" style="stroke:none;fill:#cccccc;"/>
<rect x="402.000000" y="100.000000" width="25.800000" height="24.000000" rx="0" ry="0" style="stroke:none;fill:#003366;"/>
</a>
<a xlink:href="gain-0x60003e306520.svg">
<text x="414.900000" y="114.000000" font-family="Arial" font-size="7" text-anchor="middle" fill="#FFFFFF">gain</text>
</a>
<circle cx="404.000000" cy="102.000000" r="1"/>
<rect x="444.800000" y="97.000000" width="24.000000" height="24.000000" rx="0" ry="0" style="stroke:none;fill:#cccccc;"/>
<rect x="443.800000" y="96.000000" width="24.000000" height="24.000000" rx="0" ry="0" style="stroke:none;fill:#4B71A1;"/>
<text x="455.800000" y="110.000000" font-family="Arial" font-size="7" text-anchor="middle" fill="#FFFFFF">*</text>
<circle cx="445.800000" cy="98.000000" r="1"/>
<line x1="440.800000" y1="103.000000" x2="443.800000" y2="104.000000"  transform="rotate(0.000000,443.800000,104.000000)" style="stroke: black; stroke-width:0.25;"/>
<line x1="440.800000" y1="105.000000" x2="443.800000" y2="104.000000"  transform="rotate(0.000000,443.800000,104.000000)" style="stroke: black; stroke-width:0.25;"/>
<line x1="440.800000" y1="111.000000" x2="443.800000" y2="112.000000"  transform="rotate(0.000000,443.800000,112.000000)" style="stroke: black; stroke-width:0.25;"/>
<line x1="440.800000" y1="113.000000" x2="443.800000" y2="112.000000"  transform="rotate(0.000000,443.800000,112.000000)" style="stroke: black; stroke-width:0.25;"/>
<line x1="15.000000" y1="15.000000" x2="15.000000" y2="161.000000"  style="stroke: black; stroke-linecap:round; stroke-width:0.25; stroke-dasharray:3,3;"/>
<line x1="15.000000" y1="161.000000" x2="492.800000" y2="161.000000"  style="stroke: black; stroke-linecap:round; stroke-width:0.25; stroke-dasharray:3,3;"/>
<line x1="492.800000" y1="161.000000" x2="492.800000" y2="15.000000"  style="stroke: black; stroke-linecap:round; stroke-width:0.25; stroke-dasharray:3,3;"/>
<line x1="15.000000" y1="15.000000" x2="20.000000" y2="15.000000"  style="stroke: black; stroke-linecap:round; stroke-width:0.25; stroke-dasharray:3,3;"/>
<line x1="49.025000" y1="15.000000" x2="492.800000" y2="15.000000"  style="stroke: black; stroke-linecap:round; stroke-width:0.25; stroke-dasharray:3,3;"/>
<text x="20.000000" y="17.000000" font-family="Arial" font-size="7">process</text>
<line x1="494.800000" y1="83.000000" x2="497.800000" y2="84.000000"  transform="rotate(0.000000,497.800000,84.000000)" style="stroke: black; stroke-width:0.25;"/>
<line x1="494.800000" y1="85.000000" x2="497.800000" y2="84.000000"  transform="rotate(0.000000,497.800000,84.000000)" style="stroke: black; stroke-width:0.25;"/>
<line x1="494.800000" y1="91.000000" x2="497.800000" y2="92.000000"  transform="rotate(0.000000,497.800000,92.000000)" style="stroke: black; stroke-width:0.25;"/>
<line x1="494.800000" y1="93.000000" x2="497.800000" y2="92.000000"  transform="rotate(0.000000,497.800000,92.000000)" style="stroke: black; stroke-width:0.25;"/>
<line x1="10.000000" y1="84.000000" x2="20.000000" y2="84.000000"  style="stroke:black; stroke-linecap:round; stroke-width:0.25;"/>
<line x1="10.000000" y1="92.000000" x2="20.000000" y2="92.000000"  style="stroke:black; stroke-linecap:round; stroke-width:0.25;"/>
<line x1="20.000000" y1="84.000000" x2="24.000000" y2="84.000000"  style="stroke:black; stroke-linecap:round; stroke-width:0.25;"/>
<line x1="20.000000" y1="92.000000" x2="24.000000" y2="92.000000"  style="stroke:black; stroke-linecap:round; stroke-width:0.25;"/>
<line x1="24.000000" y1="84.000000" x2="28.000000" y2="84.000000"  style="stroke:black; stroke-linecap:round; stroke-width:0.25;"/>
<line x1="24.000000" y1="92.000000" x2="28.000000" y2="92.000000"  style="stroke:black; stroke-linecap:round; stroke-width:0.25;"/>
<line x1="28.000000" y1="84.000000" x2="28.000000" y2="84.000000"  style="stroke:black; stroke-linecap:round; stroke-width:0.25;"/>
<line x1="28.000000" y1="84.000000" x2="32.000000" y2="84.000000"  style="stroke:black; stroke-linecap:round; stroke-width:0.25;"/>
<line x1="28.000000" y1="92.000000" x2="28.000000" y2="92.000000"  style="stroke:black; stroke-linecap:round; stroke-width:0.25;"/>
<line x1="28.000000" y1="92.000000" x2="32.000000" y2="92.000000"  style="stroke:black; stroke-linecap:round; stroke-width:0.25;"/>
<line x1="161.000000" y1="84.000000" x2="165.000000" y2="84.000000"  style="stroke:black; stroke-linecap:round; stroke-width:0.25;"/>
<line x1="161.000000" y1="92.000000" x2="165.000000" y2="92.000000"  style="stroke:black; stroke-linecap:round; stroke-width:0.25;"/>
<line x1="165.000000" y1="84.000000" x2="207.000000" y2="28.000000"  style="stroke:black; stroke-linecap:round; stroke-width:0.25;"/>
<line x1="165.000000" y1="84.000000" x2="207.000000" y2="44.000000"  style="stroke:black; stroke-linecap:round; stroke-width:0.25;"/>
<line x1="165.000000" y1="84.000000" x2="207.000000" y2="60.000000"  style="stroke:black; stroke-linecap:round; stroke-width:0.25;"/>
<line x1="165.000000" y1="84.000000" x2="207.000000" y2="76.000000"  style="stroke:black; stroke-linecap:round; stroke-width:0.25;"/>
<line x1="165.000000" y1="84.000000" x2="207.000000" y2="92.000000"  style="stroke:black; stroke-linecap:round; stroke-width:0.25;"/>
<line x1="165.000000" y1="84.000000" x2="207.000000" y2="108.000000"  style="stroke:black; stroke-linecap:round; stroke-width:0.25;"/>
<line x1="165.000000" y1="84.000000" x2="207.000000" y2="124.000000"  style="stroke:black; stroke-linecap:round; stroke-width:0.25;"/>
<line x1="165.000000" y1="84.000000" x2="207.000000" y2="140.000000"  style="stroke:black; stroke-linecap:round; stroke-width:0.25;"/>
<line x1="165.000000" y1="92.000000" x2="207.000000" y2="36.000000"  style="stroke:black; stroke-linecap:round; stroke-width:0.25;"/>
<line x1="165.000000" y1="92.000000" x2="207.000000" y2="52.000000"  style="stroke:black; stroke-linecap:round; stroke-width:0.25;"/>
<line x1="165.000000" y1="92.000000" x2="207.000000" y2="68.000000"  style="stroke:black; stroke-linecap:round; stroke-width:0.25;"/>
<line x1="165.000000" y1="92.000000" x2="207.000000" y2="84.000000"  style="stroke:black; stroke-linecap:round; stroke-width:0.25;"/>
<line x1="165.000000" y1="92.000000" x2="207.000000" y2="100.000000"  style="stroke:black; stroke-linecap:round; stroke-width:0.25;"/>
<line x1="165.000000" y1="92.000000" x2="207.000000" y2="116.000000"  style="stroke:black; stroke-linecap:round; stroke-width:0.25;"/>
<line x1="165.000000" y1="92.000000" x2="207.000000" y2="132.000000"  style="stroke:black; stroke-linecap:round; stroke-width:0.25;"/>
<line x1="165.000000" y1="92.000000" x2="207.000000" y2="148.000000"  style="stroke:black; stroke-linecap:round; stroke-width:0.25;"/>
<line x1="207.000000" y1="28.000000" x2="211.000000" y2="28.000000"  style="stroke:black; stroke-linecap:round; stroke-width:0.25;"/>
<line x1="207.000000" y1="36.000000" x2="211.000000" y2="36.000000"  style="stroke:black; stroke-linecap:round; stroke-width:0.25;"/>
<line x1="207.000000" y1="44.000000" x2="211.000000" y2="44.000000"  style="stroke:black; stroke-linecap:round; stroke-width:0.25;"/>
<line x1="207.000000" y1="52.000000" x2="211.000000" y2="52.000000"  style="stroke:black; stroke-linecap:round; stroke-width:0.25;"/>
<line x1="207.000000" y1="60.000000" x2="211.000000" y2="60.000000"  style="stroke:black; stroke-linecap:round; stroke-width:0.25;"/>
<line x1="207.000000" y1="68.000000" x2="211.000000" y2="68.000000"  style="stroke:black; stroke-linecap:round; stroke-width:0.25;"/>
<line x1="207.000000" y1="76.000000" x2="211.000000" y2="76.000000"  style="stroke:black; stroke-linecap:round; stroke-width:0.25;"/>
<line x1="207.000000" y1="84.000000" x2="211.000000" y2="84.000000"  style="stroke:black; stroke-linecap:round; stroke-width:0.25;"/>
<line x1="207.000000" y1="92.000000" x2="211.000000" y2="92.000000"  style="stroke:black; stroke-linecap:round; stroke-width:0.25;"/>
<line x1="207.000000" y1="100.000000" x2="211.000000" y2="100.000000"  style="stroke:black; stroke-linecap:round; stroke-width:0.25;"/>
<line x1="207.000000" y1="108.000000" x2="211.000000" y2="108.000000"  style="stroke:black; stroke-linecap:round; stroke-width:0.25;"/>
<line x1="207.000000" y1="116.000000" x2="211.000000" y2="116.000000"  style="stroke:black; stroke-linecap:round; stroke-width:0.25;"/>
<line x1="207.000000" y1="124.000000" x2="211.000000" y2="124.000000"  style="stroke:black; stroke-linecap:round; stroke-width:0.25;"/>
<line x1="207.000000" y1="132.000000" x2="211.000000" y2="132.000000"  style="stroke:black; stroke-linecap:round; stroke-width:0.25;"/>
<line x1="207.000000" y1="140.000000" x2="211.000000" y2="140.000000"  style="stroke:black; stroke-linecap:round; stroke-width:0.25;"/>
<line x1="207.000000" y1="148.000000" x2="211.000000" y2="148.000000"  style="stroke:black; stroke-linecap:round; stroke-width:0.25;"/>
<line x1="340.000000" y1="28.000000" x2="344.000000" y2="28.000000"  style="stroke:black; stroke-linecap:round; stroke-width:0.25;"/>
<line x1="340.000000" y1="36.000000" x2="344.000000" y2="36.000000"  style="stroke:black; stroke-linecap:round; stroke-width:0.25;"/>
<line x1="340.000000" y1="44.000000" x2="344.000000" y2="44.000000"  style="stroke:black; stroke-linecap:round; stroke-width:0.25;"/>
<line x1="340.000000" y1="52.000000" x2="344.000000" y2="52.000000"  style="stroke:black; stroke-linecap:round; stroke-width:0.25;"/>
<line x1="340.000000" y1="60.000000" x2="344.000000" y2="60.000000"  style="stroke:black; stroke-linecap:round; stroke-width:0.25;"/>
<line x1="340.000000" y1="68.000000" x2="344.000000" y2="68.000000"  style="stroke:black; stroke-linecap:round; stroke-width:0.25;"/>
<line x1="340.000000" y1="76.000000" x2="344.000000" y2="76.000000"  style="stroke:black; stroke-linecap:round; stroke-width:0.25;"/>
<line x1="340.000000" y1="84.000000" x2="344.000000" y2="84.000000"  style="stroke:black; stroke-linecap:round; stroke-width:0.25;"/>
<line x1="340.000000" y1="92.000000" x2="344.000000" y2="92.000000"  style="stroke:black; stroke-linecap:round; stroke-width:0.25;"/>
<line x1="340.000000" y1="100.000000" x2="344.000000" y2="100.000000"  style="stroke:black; stroke-linecap:round; stroke-width:0.25;"/>
<line x1="340.000000" y1="108.000000" x2="344.000000" y2="108.000000"  style="stroke:black; stroke-linecap:round; stroke-width:0.25;"/>
<line x1="340.000000" y1="116.000000" x2="344.000000" y2="116.000000"  style="stroke:black; stroke-linecap:round; stroke-width:0.25;"/>
<line x1="340.000000" y1="124.000000" x2="344.000000" y2="124.000000"  style="stroke:black; stroke-linecap:round; stroke-width:0.25;"/>
<line x1="340.000000" y1="132.000000" x2="344.000000" y2="132.000000"  style="stroke:black; stroke-linecap:round; stroke-width:0.25;"/>
<line x1="340.000000" y1="140.000000" x2="344.000000" y2="140.000000"  style="stroke:black; stroke-linecap:round; stroke-width:0.25;"/>
<line x1="340.000000" y1="148.000000" x2="344.000000" y2="148.000000"  style="stroke:black; stroke-linecap:round; stroke-width:0.25;"/>
<line x1="344.000000" y1="28.000000" x2="398.000000" y2="52.000000"  style="stroke:black; stroke-linecap:round; stroke-width:0.25;"/>
<line x1="344.000000" y1="36.000000" x2="398.000000" y2="92.000000"  style="stroke:black; stroke-linecap:round; stroke-width:0.25;"/>
<line x1="344.000000" y1="44.000000" x2="398.000000" y2="52.000000"  style="stroke:black; stroke-linecap:round; stroke-width:0.25;"/>
<line x1="344.000000" y1="52.000000" x2="398.000000" y2="92.000000"  style="stroke:black; stroke-linecap:round; stroke-width:0.25;"/>
<line x1="344.000000" y1="60.000000" x2="398.000000" y2="52.000000"  style="stroke:black; stroke-linecap:round; stroke-width:0.25;"/>
<line x1="344.000000" y1="68.000000" x2="398.000000" y2="92.000000"  style="stroke:black; stroke-linecap:round; stroke-width:0.25;"/>
<line x1="344.000000" y1="76.000000" x2="398.000000" y2="52.000000"  style="stroke:black; stroke-linecap:round; stroke-width:0.25;"/>
<line x1="344.000000" y1="84.000000" x2="398.000000" y2="92.000000"  style="stroke:black; stroke-linecap:round; stroke-width:0.25;"/>
<line x1="344.000000" y1="92.000000" x2="398.000000" y2="52.000000"  style="stroke:black; stroke-linecap:round; stroke-width:0.25;"/>
<line x1="344.000000" y1="100.000000" x2="398.000000" y2="92.000000"  style="stroke:black; stroke-linecap:round; stroke-width:0.25;"/>
<line x1="344.000000" y1="108.000000" x2="398.000000" y2="52.000000"  style="stroke:black; stroke-linecap:round; stroke-width:0.25;"/>
<line x1="344.000000" y1="116.000000" x2="398.000000" y2="92.000000"  style="stroke:black; stroke-linecap:round; stroke-width:0.25;"/>
<line x1="344.000000" y1="124.000000" x2="398.000000" y2="52.000000"  style="stroke:black; stroke-linecap:round; stroke-width:0.25;"/>
<line x1="344.000000" y1="132.000000" x2="398.000000" y2="92.000000"  style="stroke:black; stroke-linecap:round; stroke-width:0.25;"/>
<line x1="344.000000" y1="140.000000" x2="398.000000" y2="52.000000"  style="stroke:black; stroke-linecap:round; stroke-width:0.25;"/>
<line x1="344.000000" y1="148.000000" x2="398.000000" y2="92.000000"  style="stroke:black; stroke-linecap:round; stroke-width:0.25;"/>
<line x1="398.000000" y1="52.000000" x2="414.900000" y2="52.000000"  style="stroke:black; stroke-linecap:round; stroke-width:0.25;"/>
<line x1="398.000000" y1="92.000000" x2="414.900000" y2="92.000000"  style="stroke:black; stroke-linecap:round; stroke-width:0.25;"/>
<line x1="414.900000" y1="52.000000" x2="431.800000" y2="52.000000"  style="stroke:black; stroke-linecap:round; stroke-width:0.25;"/>
<line x1="414.900000" y1="92.000000" x2="431.800000" y2="92.000000"  style="stroke:black; stroke-linecap:round; stroke-width:0.25;"/>
<line x1="427.800000" y1="72.000000" x2="431.800000" y2="72.000000"  style="stroke:black; stroke-linecap:round; stroke-width:0.25;"/>
<line x1="427.800000" y1="112.000000" x2="431.800000" y2="112.000000"  style="stroke:black; stroke-linecap:round; stroke-width:0.25;"/>
<line x1="431.800000" y1="52.000000" x2="439.800000" y2="52.000000"  style="stroke:black; stroke-linecap:round; stroke-width:0.25;"/>
<line x1="431.800000" y1="92.000000" x2="439.800000" y2="92.000000"  style="stroke:black; stroke-linecap:round; stroke-width:0.25;"/>
<line x1="431.800000" y1="72.000000" x2="439.800000" y2="72.000000"  style="stroke:black; stroke-linecap:round; stroke-width:0.25;"/>
<line x1="431.800000" y1="112.000000" x2="439.800000" y2="112.000000"  style="stroke:black; stroke-linecap:round; stroke-width:0.25;"/>
<line x1="439.800000" y1="52.000000" x2="439.800000" y2="64.000000"  style="stroke:black; stroke-linecap:round; stroke-width:0.25;"/>
<line x1="439.800000" y1="64.000000" x2="439.800000" y2="64.000000"  style="stroke:black; stroke-linecap:round; stroke-width:0.25;"/>
<line x1="439.800000" y1="92.000000" x2="439.800000" y2="104.000000"  style="stroke:black; stroke-linecap:round; stroke-width:0.25;"/>
<line x1="439.800000" y1="104.000000" x2="439.800000" y2="104.000000"  style="stroke:black; stroke-linecap:round; stroke-width:0.25;"/>
<line x1="439.800000" y1="64.000000" x2="443.800000" y2="64.000000"  style="stroke:black; stroke-linecap:round; stroke-width:0.25;"/>
<line x1="439.800000" y1="72.000000" x2="443.800000" y2="72.000000"  style="stroke:black; stroke-linecap:round; stroke-width:0.25;"/>
<line x1="439.800000" y1="104.000000" x2="443.800000" y2="104.000000"  style="stroke:black; stroke-linecap:round; stroke-width:0.25;"/>
<line x1="439.800000" y1="112.000000" x2="443.800000" y2="112.000000"  style="stroke:black; stroke-linecap:round; stroke-width:0.25;"/>
<line x1="467.800000" y1="68.000000" x2="471.800000" y2="68.000000"  style="stroke:black; stroke-linecap:round; stroke-width:0.25;"/>
<line x1="467.800000" y1="108.000000" x2="471.800000" y2="108.000000"  style="stroke:black; stroke-linecap:round; stroke-width:0.25;"/>
<line x1="471.800000" y1="68.000000" x2="479.800000" y2="68.000000"  style="stroke:black; stroke-linecap:round; stroke-width:0.25;"/>
<line x1="471.800000" y1="92.000000" x2="479.800000" y2="92.000000"  style="stroke:black; stroke-linecap:round; stroke-width:0.25;"/>
<line x1="471.800000" y1="108.000000" x2="471.800000" y2="92.000000"  style="stroke:black; stroke-linecap:round; stroke-width:0.25;"/>
<line x1="471.800000" y1="108.000000" x2="471.800000" y2="108.000000"  style="stroke:black; stroke-linecap:round; stroke-width:0.25;"/>
<line x1="479.800000" y1="68.000000" x2="479.800000" y2="84.000000"  style="stroke:black; stroke-linecap:round; stroke-width:0.25;"/>
<line x1="479.800000" y1="84.000000" x2="479.800000" y2="84.000000"  style="stroke:black; stroke-linecap:round; stroke-width:0.25;"/>
<line x1="479.800000" y1="84.000000" x2="483.800000" y2="84.000000"  style="stroke:black; stroke-linecap:round; stroke-width:0.25;"/>
<line x1="479.800000" y1="92.000000" x2="483.800000" y2="92.000000"  style="stroke:black; stroke-linecap:round; stroke-width:0.25;"/>
<line x1="483.800000" y1="84.000000" x2="487.800000" y2="84.000000"  style="stroke:black; stroke-linecap:round; stroke-width:0.25;"/>
<line x1="483.800000" y1="92.000000" x2="487.800000" y2="92.000000"  style="stroke:black; stroke-linecap:round; stroke-width:0.25;"/>
<line x1="487.800000" y1="84.000000" x2="497.800000" y2="84.000000"  style="stroke:black; stroke-linecap:round; stroke-width:0.25;"/>
<line x1="487.800000" y1="92.000000" x2="497.800000" y2="92.000000"  style="stroke:black; stroke-linecap:round; stroke-width:0.25;"/>
</svg>
