<?xml version="1.0"?>
<svg xmlns="http://www.w3.org/2000/svg" xmlns:xlink="http://www.w3.org/1999/xlink" viewBox="0 0 228.100000 156.000000" width="114.050000mm" height="78.000000mm" version="1.1">
<rect x="1.000000" y="1.000000" width="227.100000" height="155.000000" rx="0" ry="0" style="stroke:none;fill:#cccccc;"/>
<rect x="0.000000" y="0.000000" width="227.100000" height="155.000000" rx="0" ry="0" style="stroke:none;fill:#ffffff;"/>
<text x="10.000000" y="7.000000" font-family="Arial" font-size="7"></text>
<rect x="66.800000" y="35.000000" width="25.800000" height="24.000000" rx="0" ry="0" style="stroke:none;fill:#cccccc;"/>
<rect x="65.800000" y="34.000000" width="25.800000" height="24.000000" rx="0" ry="0" style="stroke:none;fill:#f44800;"/>
<text x="78.700000" y="48.000000" font-family="Arial" font-size="7" text-anchor="middle" fill="#FFFFFF">65536</text>
<circle cx="67.800000" cy="36.000000" r="1"/>
<line x1="56.800000" y1="25.000000" x2="56.800000" y2="67.000000"  style="stroke: black; stroke-linecap:round; stroke-width:0.25; stroke-dasharray:3,3;"/>
<line x1="56.800000" y1="67.000000" x2="100.600000" y2="67.000000"  style="stroke: black; stroke-linecap:round; stroke-width:0.25; stroke-dasharray:3,3;"/>
<line x1="100.600000" y1="67.000000" x2="100.600000" y2="25.000000"  style="stroke: black; stroke-linecap:round; stroke-width:0.25; stroke-dasharray:3,3;"/>
<line x1="56.800000" y1="25.000000" x2="61.800000" y2="25.000000"  style="stroke: black; stroke-linecap:round; stroke-width:0.25; stroke-dasharray:3,3;"/>
<line x1="97.275000" y1="25.000000" x2="100.600000" y2="25.000000"  style="stroke: black; stroke-linecap:round; stroke-width:0.25; stroke-dasharray:3,3;"/>
<text x="61.800000" y="27.000000" font-family="Arial" font-size="7">tablesize</text>
<a xlink:href="sinwaveform-0x7f6210295b20.svg">
<rect x="41.000000" y="77.000000" width="77.400000" height="24.000000" rx="0" ry="0" style="stroke:none;fill:#cccccc;"/>
<rect x="40.000000" y="76.000000" width="77.400000" height="24.000000" rx="0" ry="0" style="stroke:none;fill:#003366;"/>
</a>
<a xlink:href="sinwaveform-0x7f6210295b20.svg">
<text x="78.700000" y="90.000000" font-family="Arial" font-size="7" text-anchor="middle" fill="#FFFFFF">sinwaveform(65536)</text>
</a>
<circle cx="42.000000" cy="78.000000" r="1"/>
<a xlink:href="phasor-0x7f621016d110.svg">
<rect x="25.000000" y="109.000000" width="77.400000" height="24.000000" rx="0" ry="0" style="stroke:none;fill:#cccccc;"/>
<rect x="24.000000" y="108.000000" width="77.400000" height="24.000000" rx="0" ry="0" style="stroke:none;fill:#003366;"/>
</a>
<a xlink:href="phasor-0x7f621016d110.svg">
<text x="62.700000" y="122.000000" font-family="Arial" font-size="7" text-anchor="middle" fill="#FFFFFF">phasor(65536)(440)</text>
</a>
<circle cx="26.000000" cy="110.000000" r="1"/>
<rect x="110.400000" y="109.000000" width="24.000000" height="24.000000" rx="0" ry="0" style="stroke:none;fill:#cccccc;"/>
<rect x="109.400000" y="108.000000" width="24.000000" height="24.000000" rx="0" ry="0" style="stroke:none;fill:#4B71A1;"/>
<text x="121.400000" y="122.000000" font-family="Arial" font-size="7" text-anchor="middle" fill="#FFFFFF">int</text>
<circle cx="111.400000" cy="110.000000" r="1"/>
<line x1="106.400000" y1="119.000000" x2="109.400000" y2="120.000000"  transform="rotate(0.000000,109.400000,120.000000)" style="stroke: black; stroke-width:0.25;"/>
<line x1="106.400000" y1="121.000000" x2="109.400000" y2="120.000000"  transform="rotate(0.000000,109.400000,120.000000)" style="stroke: black; stroke-width:0.25;"/>
<rect x="158.400000" y="67.000000" width="38.700000" height="24.000000" rx="0" ry="0" style="stroke:none;fill:#cccccc;"/>
<rect x="157.400000" y="66.000000" width="38.700000" height="24.000000" rx="0" ry="0" style="stroke:none;fill:#4B71A1;"/>
<text x="176.750000" y="80.000000" font-family="Arial" font-size="7" text-anchor="middle" fill="#FFFFFF">rdtable</text>
<circle cx="159.400000" cy="68.000000" r="1"/>
<line x1="154.400000" y1="69.000000" x2="157.400000" y2="70.000000"  transform="rotate(0.000000,157.400000,70.000000)" style="stroke: black; stroke-width:0.25;"/>
<line x1="154.400000" y1="71.000000" x2="157.400000" y2="70.000000"  transform="rotate(0.000000,157.400000,70.000000)" style="stroke: black; stroke-width:0.25;"/>
<line x1="154.400000" y1="77.000000" x2="157.400000" y2="78.000000"  transform="rotate(0.000000,157.400000,78.000000)" style="stroke: black; stroke-width:0.25;"/>
<line x1="154.400000" y1="79.000000" x2="157.400000" y2="78.000000"  transform="rotate(0.000000,157.400000,78.000000)" style="stroke: black; stroke-width:0.25;"/>
<line x1="154.400000" y1="85.000000" x2="157.400000" y2="86.000000"  transform="rotate(0.000000,157.400000,86.000000)" style="stroke: black; stroke-width:0.25;"/>
<line x1="154.400000" y1="87.000000" x2="157.400000" y2="86.000000"  transform="rotate(0.000000,157.400000,86.000000)" style="stroke: black; stroke-width:0.25;"/>
<line x1="15.000000" y1="15.000000" x2="15.000000" y2="141.000000"  style="stroke: black; stroke-linecap:round; stroke-width:0.25; stroke-dasharray:3,3;"/>
<line x1="15.000000" y1="141.000000" x2="213.100000" y2="141.000000"  style="stroke: black; stroke-linecap:round; stroke-width:0.25; stroke-dasharray:3,3;"/>
<line x1="213.100000" y1="141.000000" x2="213.100000" y2="15.000000"  style="stroke: black; stroke-linecap:round; stroke-width:0.25; stroke-dasharray:3,3;"/>
<line x1="15.000000" y1="15.000000" x2="20.000000" y2="15.000000"  style="stroke: black; stroke-linecap:round; stroke-width:0.25; stroke-dasharray:3,3;"/>
<line x1="49.025000" y1="15.000000" x2="213.100000" y2="15.000000"  style="stroke: black; stroke-linecap:round; stroke-width:0.25; stroke-dasharray:3,3;"/>
<text x="20.000000" y="17.000000" font-family="Arial" font-size="7">process</text>
<line x1="215.100000" y1="77.000000" x2="218.100000" y2="78.000000"  transform="rotate(0.000000,218.100000,78.000000)" style="stroke: black; stroke-width:0.25;"/>
<line x1="215.100000" y1="79.000000" x2="218.100000" y2="78.000000"  transform="rotate(0.000000,218.100000,78.000000)" style="stroke: black; stroke-width:0.25;"/>
<line x1="91.600000" y1="46.000000" x2="95.600000" y2="46.000000"  style="stroke:black; stroke-linecap:round; stroke-width:0.25;"/>
<line x1="95.600000" y1="46.000000" x2="105.600000" y2="46.000000"  style="stroke:black; stroke-linecap:round; stroke-width:0.25;"/>
<line x1="101.400000" y1="120.000000" x2="105.400000" y2="120.000000"  style="stroke:black; stroke-linecap:round; stroke-width:0.25;"/>
<line x1="105.400000" y1="120.000000" x2="105.400000" y2="120.000000"  style="stroke:black; stroke-linecap:round; stroke-width:0.25;"/>
<line x1="105.400000" y1="120.000000" x2="109.400000" y2="120.000000"  style="stroke:black; stroke-linecap:round; stroke-width:0.25;"/>
<line x1="105.600000" y1="46.000000" x2="137.400000" y2="46.000000"  style="stroke:black; stroke-linecap:round; stroke-width:0.25;"/>
<line x1="117.400000" y1="88.000000" x2="121.400000" y2="88.000000"  style="stroke:black; stroke-linecap:round; stroke-width:0.25;"/>
<line x1="121.400000" y1="88.000000" x2="137.400000" y2="88.000000"  style="stroke:black; stroke-linecap:round; stroke-width:0.25;"/>
<line x1="133.400000" y1="120.000000" x2="137.400000" y2="120.000000"  style="stroke:black; stroke-linecap:round; stroke-width:0.25;"/>
<line x1="137.400000" y1="46.000000" x2="153.400000" y2="46.000000"  style="stroke:black; stroke-linecap:round; stroke-width:0.25;"/>
<line x1="137.400000" y1="78.000000" x2="153.400000" y2="78.000000"  style="stroke:black; stroke-linecap:round; stroke-width:0.25;"/>
<line x1="137.400000" y1="88.000000" x2="137.400000" y2="78.000000"  style="stroke:black; stroke-linecap:round; stroke-width:0.25;"/>
<line x1="137.400000" y1="88.000000" x2="137.400000" y2="88.000000"  style="stroke:black; stroke-linecap:round; stroke-width:0.25;"/>
<line x1="137.400000" y1="120.000000" x2="145.400000" y2="120.000000"  style="stroke:black; stroke-linecap:round; stroke-width:0.25;"/>
<line x1="145.400000" y1="86.000000" x2="153.400000" y2="86.000000"  style="stroke:black; stroke-linecap:round; stroke-width:0.25;"/>
<line x1="145.400000" y1="120.000000" x2="145.400000" y2="86.000000"  style="stroke:black; stroke-linecap:round; stroke-width:0.25;"/>
<line x1="153.400000" y1="46.000000" x2="153.400000" y2="70.000000"  style="stroke:black; stroke-linecap:round; stroke-width:0.25;"/>
<line x1="153.400000" y1="70.000000" x2="153.400000" y2="70.000000"  style="stroke:black; stroke-linecap:round; stroke-width:0.25;"/>
<line x1="153.400000" y1="70.000000" x2="157.400000" y2="70.000000"  style="stroke:black; stroke-linecap:round; stroke-width:0.25;"/>
<line x1="153.400000" y1="78.000000" x2="157.400000" y2="78.000000"  style="stroke:black; stroke-linecap:round; stroke-width:0.25;"/>
<line x1="153.400000" y1="86.000000" x2="157.400000" y2="86.000000"  style="stroke:black; stroke-linecap:round; stroke-width:0.25;"/>
<line x1="196.100000" y1="78.000000" x2="200.100000" y2="78.000000"  style="stroke:black; stroke-linecap:round; stroke-width:0.25;"/>
<line x1="200.100000" y1="78.000000" x2="200.100000" y2="78.000000"  style="stroke:black; stroke-linecap:round; stroke-width:0.25;"/>
<line x1="200.100000" y1="78.000000" x2="204.100000" y2="78.000000"  style="stroke:black; stroke-linecap:round; stroke-width:0.25;"/>
<line x1="204.100000" y1="78.000000" x2="208.100000" y2="78.000000"  style="stroke:black; stroke-linecap:round; stroke-width:0.25;"/>
<line x1="208.100000" y1="78.000000" x2="218.100000" y2="78.000000"  style="stroke:black; stroke-linecap:round; stroke-width:0.25;"/>
</svg>
