<?xml version="1.0"?>
<svg xmlns="http://www.w3.org/2000/svg" xmlns:xlink="http://www.w3.org/1999/xlink" viewBox="0 0 342.000000 156.000000" width="171.000000mm" height="78.000000mm" version="1.1">
<a xlink:href="process.svg">
<rect x="1.000000" y="1.000000" width="341.000000" height="155.000000" rx="0" ry="0" style="stroke:none;fill:#cccccc;"/>
<rect x="0.000000" y="0.000000" width="341.000000" height="155.000000" rx="0" ry="0" style="stroke:none;fill:#ffffff;"/>
</a>
<text x="10.000000" y="7.000000" font-family="Arial" font-size="7"></text>
<rect x="35.000000" y="35.000000" width="258.000000" height="24.000000" rx="0" ry="0" style="stroke:none;fill:#cccccc;"/>
<rect x="34.000000" y="34.000000" width="258.000000" height="24.000000" rx="0" ry="0" style="stroke:none;fill:#477881;"/>
<text x="163.000000" y="48.000000" font-family="Arial" font-size="7" text-anchor="middle" fill="#FFFFFF">vslider(vslider1, 60.0f, 0.0f, 127.0f, 0.10000000000000001f)</text>
<circle cx="36.000000" cy="36.000000" r="1"/>
<rect x="35.000000" y="67.000000" width="258.000000" height="24.000000" rx="0" ry="0" style="stroke:none;fill:#cccccc;"/>
<rect x="34.000000" y="66.000000" width="258.000000" height="24.000000" rx="0" ry="0" style="stroke:none;fill:#477881;"/>
<text x="163.000000" y="80.000000" font-family="Arial" font-size="7" text-anchor="middle" fill="#FFFFFF">vslider(vslider2, 60.0f, 0.0f, 127.0f, 0.10000000000000001f)</text>
<circle cx="36.000000" cy="68.000000" r="1"/>
<rect x="35.000000" y="99.000000" width="258.000000" height="24.000000" rx="0" ry="0" style="stroke:none;fill:#cccccc;"/>
<rect x="34.000000" y="98.000000" width="258.000000" height="24.000000" rx="0" ry="0" style="stroke:none;fill:#477881;"/>
<text x="163.000000" y="112.000000" font-family="Arial" font-size="7" text-anchor="middle" fill="#FFFFFF">vslider(vslider3, 60.0f, 0.0f, 127.0f, 0.10000000000000001f)</text>
<circle cx="36.000000" cy="100.000000" r="1"/>
<line x1="25.000000" y1="25.000000" x2="25.000000" y2="131.000000"  style="stroke: black; stroke-linecap:round; stroke-width:0.25; stroke-dasharray:3,3;"/>
<line x1="25.000000" y1="131.000000" x2="301.000000" y2="131.000000"  style="stroke: black; stroke-linecap:round; stroke-width:0.25; stroke-dasharray:3,3;"/>
<line x1="301.000000" y1="131.000000" x2="301.000000" y2="25.000000"  style="stroke: black; stroke-linecap:round; stroke-width:0.25; stroke-dasharray:3,3;"/>
<line x1="25.000000" y1="25.000000" x2="30.000000" y2="25.000000"  style="stroke: black; stroke-linecap:round; stroke-width:0.25; stroke-dasharray:3,3;"/>
<line x1="84.825000" y1="25.000000" x2="301.000000" y2="25.000000"  style="stroke: black; stroke-linecap:round; stroke-width:0.25; stroke-dasharray:3,3;"/>
<text x="30.000000" y="27.000000" font-family="Arial" font-size="7">hgroup(sliders)</text>
<line x1="15.000000" y1="15.000000" x2="15.000000" y2="141.000000"  style="stroke: black; stroke-linecap:round; stroke-width:0.25; stroke-dasharray:3,3;"/>
<line x1="15.000000" y1="141.000000" x2="327.000000" y2="141.000000"  style="stroke: black; stroke-linecap:round; stroke-width:0.25; stroke-dasharray:3,3;"/>
<line x1="327.000000" y1="141.000000" x2="327.000000" y2="15.000000"  style="stroke: black; stroke-linecap:round; stroke-width:0.25; stroke-dasharray:3,3;"/>
<line x1="15.000000" y1="15.000000" x2="20.000000" y2="15.000000"  style="stroke: black; stroke-linecap:round; stroke-width:0.25; stroke-dasharray:3,3;"/>
<line x1="49.025000" y1="15.000000" x2="327.000000" y2="15.000000"  style="stroke: black; stroke-linecap:round; stroke-width:0.25; stroke-dasharray:3,3;"/>
<text x="20.000000" y="17.000000" font-family="Arial" font-size="7">sliders</text>
<line x1="329.000000" y1="69.000000" x2="332.000000" y2="70.000000"  transform="rotate(0.000000,332.000000,70.000000)" style="stroke: black; stroke-width:0.25;"/>
<line x1="329.000000" y1="71.000000" x2="332.000000" y2="70.000000"  transform="rotate(0.000000,332.000000,70.000000)" style="stroke: black; stroke-width:0.25;"/>
<line x1="329.000000" y1="77.000000" x2="332.000000" y2="78.000000"  transform="rotate(0.000000,332.000000,78.000000)" style="stroke: black; stroke-width:0.25;"/>
<line x1="329.000000" y1="79.000000" x2="332.000000" y2="78.000000"  transform="rotate(0.000000,332.000000,78.000000)" style="stroke: black; stroke-width:0.25;"/>
<line x1="329.000000" y1="85.000000" x2="332.000000" y2="86.000000"  transform="rotate(0.000000,332.000000,86.000000)" style="stroke: black; stroke-width:0.25;"/>
<line x1="329.000000" y1="87.000000" x2="332.000000" y2="86.000000"  transform="rotate(0.000000,332.000000,86.000000)" style="stroke: black; stroke-width:0.25;"/>
<line x1="292.000000" y1="46.000000" x2="296.000000" y2="46.000000"  style="stroke:black; stroke-linecap:round; stroke-width:0.25;"/>
<line x1="292.000000" y1="78.000000" x2="296.000000" y2="78.000000"  style="stroke:black; stroke-linecap:round; stroke-width:0.25;"/>
<line x1="292.000000" y1="110.000000" x2="296.000000" y2="110.000000"  style="stroke:black; stroke-linecap:round; stroke-width:0.25;"/>
<line x1="296.000000" y1="46.000000" x2="306.000000" y2="46.000000"  style="stroke:black; stroke-linecap:round; stroke-width:0.25;"/>
<line x1="296.000000" y1="78.000000" x2="306.000000" y2="78.000000"  style="stroke:black; stroke-linecap:round; stroke-width:0.25;"/>
<line x1="296.000000" y1="110.000000" x2="306.000000" y2="110.000000"  style="stroke:black; stroke-linecap:round; stroke-width:0.25;"/>
<line x1="306.000000" y1="46.000000" x2="314.000000" y2="46.000000"  style="stroke:black; stroke-linecap:round; stroke-width:0.25;"/>
<line x1="306.000000" y1="78.000000" x2="314.000000" y2="78.000000"  style="stroke:black; stroke-linecap:round; stroke-width:0.25;"/>
<line x1="306.000000" y1="86.000000" x2="314.000000" y2="86.000000"  style="stroke:black; stroke-linecap:round; stroke-width:0.25;"/>
<line x1="306.000000" y1="110.000000" x2="306.000000" y2="86.000000"  style="stroke:black; stroke-linecap:round; stroke-width:0.25;"/>
<line x1="306.000000" y1="110.000000" x2="306.000000" y2="110.000000"  style="stroke:black; stroke-linecap:round; stroke-width:0.25;"/>
<line x1="314.000000" y1="46.000000" x2="314.000000" y2="70.000000"  style="stroke:black; stroke-linecap:round; stroke-width:0.25;"/>
<line x1="314.000000" y1="70.000000" x2="314.000000" y2="70.000000"  style="stroke:black; stroke-linecap:round; stroke-width:0.25;"/>
<line x1="314.000000" y1="70.000000" x2="318.000000" y2="70.000000"  style="stroke:black; stroke-linecap:round; stroke-width:0.25;"/>
<line x1="314.000000" y1="78.000000" x2="318.000000" y2="78.000000"  style="stroke:black; stroke-linecap:round; stroke-width:0.25;"/>
<line x1="314.000000" y1="86.000000" x2="318.000000" y2="86.000000"  style="stroke:black; stroke-linecap:round; stroke-width:0.25;"/>
<line x1="318.000000" y1="70.000000" x2="322.000000" y2="70.000000"  style="stroke:black; stroke-linecap:round; stroke-width:0.25;"/>
<line x1="318.000000" y1="78.000000" x2="322.000000" y2="78.000000"  style="stroke:black; stroke-linecap:round; stroke-width:0.25;"/>
<line x1="318.000000" y1="86.000000" x2="322.000000" y2="86.000000"  style="stroke:black; stroke-linecap:round; stroke-width:0.25;"/>
<line x1="322.000000" y1="70.000000" x2="332.000000" y2="70.000000"  style="stroke:black; stroke-linecap:round; stroke-width:0.25;"/>
<line x1="322.000000" y1="78.000000" x2="332.000000" y2="78.000000"  style="stroke:black; stroke-linecap:round; stroke-width:0.25;"/>
<line x1="322.000000" y1="86.000000" x2="332.000000" y2="86.000000"  style="stroke:black; stroke-linecap:round; stroke-width:0.25;"/>
</svg>
