<?xml version="1.0"?>
<svg xmlns="http://www.w3.org/2000/svg" xmlns:xlink="http://www.w3.org/1999/xlink" viewBox="0 0 378.900000 220.000000" width="189.450000mm" height="110.000000mm" version="1.1">
<a xlink:href="subhbox1-0x7fa4a7c21a50.svg">
<rect x="1.000000" y="1.000000" width="377.900000" height="219.000000" rx="0" ry="0" style="stroke:none;fill:#cccccc;"/>
<rect x="0.000000" y="0.000000" width="377.900000" height="219.000000" rx="0" ry="0" style="stroke:none;fill:#ffffff;"/>
</a>
<text x="10.000000" y="7.000000" font-family="Arial" font-size="7"></text>
<rect x="57.450000" y="35.000000" width="258.000000" height="24.000000" rx="0" ry="0" style="stroke:none;fill:#cccccc;"/>
<rect x="56.450000" y="34.000000" width="258.000000" height="24.000000" rx="0" ry="0" style="stroke:none;fill:#477881;"/>
<text x="185.450000" y="48.000000" font-family="Arial" font-size="7" text-anchor="middle" fill="#FFFFFF">vslider(vslider9, 60.0f, 0.0f, 127.0f, 0.10000000000000001f)</text>
<circle cx="58.450000" cy="36.000000" r="1"/>
<rect x="51.000000" y="67.000000" width="270.900000" height="24.000000" rx="0" ry="0" style="stroke:none;fill:#cccccc;"/>
<rect x="50.000000" y="66.000000" width="270.900000" height="24.000000" rx="0" ry="0" style="stroke:none;fill:#477881;"/>
<text x="185.450000" y="80.000000" font-family="Arial" font-size="7" text-anchor="middle" fill="#FFFFFF">vslider(vslider10, 60.0f, 0.0f, 127.0f, 0.10000000000000001f)</text>
<circle cx="52.000000" cy="68.000000" r="1"/>
<rect x="63.900000" y="99.000000" width="245.100000" height="24.000000" rx="0" ry="0" style="stroke:none;fill:#cccccc;"/>
<rect x="62.900000" y="98.000000" width="245.100000" height="24.000000" rx="0" ry="0" style="stroke:none;fill:#477881;"/>
<text x="185.450000" y="112.000000" font-family="Arial" font-size="7" text-anchor="middle" fill="#FFFFFF">vslider(knob6, 60.0f, 0.0f, 127.0f, 0.10000000000000001f)</text>
<circle cx="64.900000" cy="100.000000" r="1"/>
<rect x="63.900000" y="131.000000" width="245.100000" height="24.000000" rx="0" ry="0" style="stroke:none;fill:#cccccc;"/>
<rect x="62.900000" y="130.000000" width="245.100000" height="24.000000" rx="0" ry="0" style="stroke:none;fill:#477881;"/>
<text x="185.450000" y="144.000000" font-family="Arial" font-size="7" text-anchor="middle" fill="#FFFFFF">nentry(num3, 60.0f, 0.0f, 127.0f, 0.10000000000000001f)</text>
<circle cx="64.900000" cy="132.000000" r="1"/>
<rect x="121.950000" y="163.000000" width="129.000000" height="24.000000" rx="0" ry="0" style="stroke:none;fill:#cccccc;"/>
<rect x="120.950000" y="162.000000" width="129.000000" height="24.000000" rx="0" ry="0" style="stroke:none;fill:#477881;"/>
<text x="185.450000" y="176.000000" font-family="Arial" font-size="7" text-anchor="middle" fill="#FFFFFF">vbargraph(vbar3, 0.0f, 127.0f)</text>
<circle cx="122.950000" cy="164.000000" r="1"/>
<line x1="117.950000" y1="173.000000" x2="120.950000" y2="174.000000"  transform="rotate(0.000000,120.950000,174.000000)" style="stroke: black; stroke-width:0.25;"/>
<line x1="117.950000" y1="175.000000" x2="120.950000" y2="174.000000"  transform="rotate(0.000000,120.950000,174.000000)" style="stroke: black; stroke-width:0.25;"/>
<line x1="41.000000" y1="25.000000" x2="41.000000" y2="195.000000"  style="stroke: black; stroke-linecap:round; stroke-width:0.25; stroke-dasharray:3,3;"/>
<line x1="41.000000" y1="195.000000" x2="329.900000" y2="195.000000"  style="stroke: black; stroke-linecap:round; stroke-width:0.25; stroke-dasharray:3,3;"/>
<line x1="329.900000" y1="195.000000" x2="329.900000" y2="25.000000"  style="stroke: black; stroke-linecap:round; stroke-width:0.25; stroke-dasharray:3,3;"/>
<line x1="41.000000" y1="25.000000" x2="46.000000" y2="25.000000"  style="stroke: black; stroke-linecap:round; stroke-width:0.25; stroke-dasharray:3,3;"/>
<line x1="113.725000" y1="25.000000" x2="329.900000" y2="25.000000"  style="stroke: black; stroke-linecap:round; stroke-width:0.25; stroke-dasharray:3,3;"/>
<text x="46.000000" y="27.000000" font-family="Arial" font-size="7">hgroup(small box 3)</text>
<line x1="15.000000" y1="15.000000" x2="15.000000" y2="205.000000"  style="stroke: black; stroke-linecap:round; stroke-width:0.25; stroke-dasharray:3,3;"/>
<line x1="15.000000" y1="205.000000" x2="363.900000" y2="205.000000"  style="stroke: black; stroke-linecap:round; stroke-width:0.25; stroke-dasharray:3,3;"/>
<line x1="363.900000" y1="205.000000" x2="363.900000" y2="15.000000"  style="stroke: black; stroke-linecap:round; stroke-width:0.25; stroke-dasharray:3,3;"/>
<line x1="15.000000" y1="15.000000" x2="20.000000" y2="15.000000"  style="stroke: black; stroke-linecap:round; stroke-width:0.25; stroke-dasharray:3,3;"/>
<line x1="58.700000" y1="15.000000" x2="363.900000" y2="15.000000"  style="stroke: black; stroke-linecap:round; stroke-width:0.25; stroke-dasharray:3,3;"/>
<text x="20.000000" y="17.000000" font-family="Arial" font-size="7">smallhbox3</text>
<line x1="365.900000" y1="93.000000" x2="368.900000" y2="94.000000"  transform="rotate(0.000000,368.900000,94.000000)" style="stroke: black; stroke-width:0.25;"/>
<line x1="365.900000" y1="95.000000" x2="368.900000" y2="94.000000"  transform="rotate(0.000000,368.900000,94.000000)" style="stroke: black; stroke-width:0.25;"/>
<line x1="365.900000" y1="101.000000" x2="368.900000" y2="102.000000"  transform="rotate(0.000000,368.900000,102.000000)" style="stroke: black; stroke-width:0.25;"/>
<line x1="365.900000" y1="103.000000" x2="368.900000" y2="102.000000"  transform="rotate(0.000000,368.900000,102.000000)" style="stroke: black; stroke-width:0.25;"/>
<line x1="365.900000" y1="109.000000" x2="368.900000" y2="110.000000"  transform="rotate(0.000000,368.900000,110.000000)" style="stroke: black; stroke-width:0.25;"/>
<line x1="365.900000" y1="111.000000" x2="368.900000" y2="110.000000"  transform="rotate(0.000000,368.900000,110.000000)" style="stroke: black; stroke-width:0.25;"/>
<line x1="365.900000" y1="117.000000" x2="368.900000" y2="118.000000"  transform="rotate(0.000000,368.900000,118.000000)" style="stroke: black; stroke-width:0.25;"/>
<line x1="365.900000" y1="119.000000" x2="368.900000" y2="118.000000"  transform="rotate(0.000000,368.900000,118.000000)" style="stroke: black; stroke-width:0.25;"/>
<line x1="365.900000" y1="125.000000" x2="368.900000" y2="126.000000"  transform="rotate(0.000000,368.900000,126.000000)" style="stroke: black; stroke-width:0.25;"/>
<line x1="365.900000" y1="127.000000" x2="368.900000" y2="126.000000"  transform="rotate(0.000000,368.900000,126.000000)" style="stroke: black; stroke-width:0.25;"/>
<line x1="10.000000" y1="110.000000" x2="20.000000" y2="110.000000"  style="stroke:black; stroke-linecap:round; stroke-width:0.25;"/>
<line x1="20.000000" y1="110.000000" x2="24.000000" y2="110.000000"  style="stroke:black; stroke-linecap:round; stroke-width:0.25;"/>
<line x1="24.000000" y1="110.000000" x2="28.000000" y2="110.000000"  style="stroke:black; stroke-linecap:round; stroke-width:0.25;"/>
<line x1="28.000000" y1="110.000000" x2="36.000000" y2="110.000000"  style="stroke:black; stroke-linecap:round; stroke-width:0.25;"/>
<line x1="36.000000" y1="110.000000" x2="36.000000" y2="174.000000"  style="stroke:black; stroke-linecap:round; stroke-width:0.25;"/>
<line x1="36.000000" y1="174.000000" x2="36.000000" y2="174.000000"  style="stroke:black; stroke-linecap:round; stroke-width:0.25;"/>
<line x1="36.000000" y1="174.000000" x2="46.000000" y2="174.000000"  style="stroke:black; stroke-linecap:round; stroke-width:0.25;"/>
<line x1="46.000000" y1="174.000000" x2="58.900000" y2="174.000000"  style="stroke:black; stroke-linecap:round; stroke-width:0.25;"/>
<line x1="58.900000" y1="174.000000" x2="116.950000" y2="174.000000"  style="stroke:black; stroke-linecap:round; stroke-width:0.25;"/>
<line x1="116.950000" y1="174.000000" x2="120.950000" y2="174.000000"  style="stroke:black; stroke-linecap:round; stroke-width:0.25;"/>
<line x1="249.950000" y1="174.000000" x2="253.950000" y2="174.000000"  style="stroke:black; stroke-linecap:round; stroke-width:0.25;"/>
<line x1="253.950000" y1="174.000000" x2="312.000000" y2="174.000000"  style="stroke:black; stroke-linecap:round; stroke-width:0.25;"/>
<line x1="308.000000" y1="110.000000" x2="312.000000" y2="110.000000"  style="stroke:black; stroke-linecap:round; stroke-width:0.25;"/>
<line x1="308.000000" y1="142.000000" x2="312.000000" y2="142.000000"  style="stroke:black; stroke-linecap:round; stroke-width:0.25;"/>
<line x1="312.000000" y1="110.000000" x2="324.900000" y2="110.000000"  style="stroke:black; stroke-linecap:round; stroke-width:0.25;"/>
<line x1="312.000000" y1="142.000000" x2="324.900000" y2="142.000000"  style="stroke:black; stroke-linecap:round; stroke-width:0.25;"/>
<line x1="312.000000" y1="174.000000" x2="324.900000" y2="174.000000"  style="stroke:black; stroke-linecap:round; stroke-width:0.25;"/>
<line x1="314.450000" y1="46.000000" x2="318.450000" y2="46.000000"  style="stroke:black; stroke-linecap:round; stroke-width:0.25;"/>
<line x1="318.450000" y1="46.000000" x2="324.900000" y2="46.000000"  style="stroke:black; stroke-linecap:round; stroke-width:0.25;"/>
<line x1="320.900000" y1="78.000000" x2="324.900000" y2="78.000000"  style="stroke:black; stroke-linecap:round; stroke-width:0.25;"/>
<line x1="324.900000" y1="46.000000" x2="334.900000" y2="46.000000"  style="stroke:black; stroke-linecap:round; stroke-width:0.25;"/>
<line x1="324.900000" y1="78.000000" x2="334.900000" y2="78.000000"  style="stroke:black; stroke-linecap:round; stroke-width:0.25;"/>
<line x1="324.900000" y1="110.000000" x2="334.900000" y2="110.000000"  style="stroke:black; stroke-linecap:round; stroke-width:0.25;"/>
<line x1="324.900000" y1="142.000000" x2="334.900000" y2="142.000000"  style="stroke:black; stroke-linecap:round; stroke-width:0.25;"/>
<line x1="324.900000" y1="174.000000" x2="334.900000" y2="174.000000"  style="stroke:black; stroke-linecap:round; stroke-width:0.25;"/>
<line x1="334.900000" y1="46.000000" x2="350.900000" y2="46.000000"  style="stroke:black; stroke-linecap:round; stroke-width:0.25;"/>
<line x1="334.900000" y1="78.000000" x2="342.900000" y2="78.000000"  style="stroke:black; stroke-linecap:round; stroke-width:0.25;"/>
<line x1="334.900000" y1="110.000000" x2="350.900000" y2="110.000000"  style="stroke:black; stroke-linecap:round; stroke-width:0.25;"/>
<line x1="334.900000" y1="118.000000" x2="350.900000" y2="118.000000"  style="stroke:black; stroke-linecap:round; stroke-width:0.25;"/>
<line x1="334.900000" y1="142.000000" x2="334.900000" y2="118.000000"  style="stroke:black; stroke-linecap:round; stroke-width:0.25;"/>
<line x1="334.900000" y1="142.000000" x2="334.900000" y2="142.000000"  style="stroke:black; stroke-linecap:round; stroke-width:0.25;"/>
<line x1="334.900000" y1="174.000000" x2="342.900000" y2="174.000000"  style="stroke:black; stroke-linecap:round; stroke-width:0.25;"/>
<line x1="342.900000" y1="78.000000" x2="342.900000" y2="102.000000"  style="stroke:black; stroke-linecap:round; stroke-width:0.25;"/>
<line x1="342.900000" y1="102.000000" x2="350.900000" y2="102.000000"  style="stroke:black; stroke-linecap:round; stroke-width:0.25;"/>
<line x1="342.900000" y1="126.000000" x2="350.900000" y2="126.000000"  style="stroke:black; stroke-linecap:round; stroke-width:0.25;"/>
<line x1="342.900000" y1="174.000000" x2="342.900000" y2="126.000000"  style="stroke:black; stroke-linecap:round; stroke-width:0.25;"/>
<line x1="350.900000" y1="46.000000" x2="350.900000" y2="94.000000"  style="stroke:black; stroke-linecap:round; stroke-width:0.25;"/>
<line x1="350.900000" y1="94.000000" x2="350.900000" y2="94.000000"  style="stroke:black; stroke-linecap:round; stroke-width:0.25;"/>
<line x1="350.900000" y1="94.000000" x2="354.900000" y2="94.000000"  style="stroke:black; stroke-linecap:round; stroke-width:0.25;"/>
<line x1="350.900000" y1="102.000000" x2="354.900000" y2="102.000000"  style="stroke:black; stroke-linecap:round; stroke-width:0.25;"/>
<line x1="350.900000" y1="110.000000" x2="354.900000" y2="110.000000"  style="stroke:black; stroke-linecap:round; stroke-width:0.25;"/>
<line x1="350.900000" y1="118.000000" x2="354.900000" y2="118.000000"  style="stroke:black; stroke-linecap:round; stroke-width:0.25;"/>
<line x1="350.900000" y1="126.000000" x2="354.900000" y2="126.000000"  style="stroke:black; stroke-linecap:round; stroke-width:0.25;"/>
<line x1="354.900000" y1="94.000000" x2="358.900000" y2="94.000000"  style="stroke:black; stroke-linecap:round; stroke-width:0.25;"/>
<line x1="354.900000" y1="102.000000" x2="358.900000" y2="102.000000"  style="stroke:black; stroke-linecap:round; stroke-width:0.25;"/>
<line x1="354.900000" y1="110.000000" x2="358.900000" y2="110.000000"  style="stroke:black; stroke-linecap:round; stroke-width:0.25;"/>
<line x1="354.900000" y1="118.000000" x2="358.900000" y2="118.000000"  style="stroke:black; stroke-linecap:round; stroke-width:0.25;"/>
<line x1="354.900000" y1="126.000000" x2="358.900000" y2="126.000000"  style="stroke:black; stroke-linecap:round; stroke-width:0.25;"/>
<line x1="358.900000" y1="94.000000" x2="368.900000" y2="94.000000"  style="stroke:black; stroke-linecap:round; stroke-width:0.25;"/>
<line x1="358.900000" y1="102.000000" x2="368.900000" y2="102.000000"  style="stroke:black; stroke-linecap:round; stroke-width:0.25;"/>
<line x1="358.900000" y1="110.000000" x2="368.900000" y2="110.000000"  style="stroke:black; stroke-linecap:round; stroke-width:0.25;"/>
<line x1="358.900000" y1="118.000000" x2="368.900000" y2="118.000000"  style="stroke:black; stroke-linecap:round; stroke-width:0.25;"/>
<line x1="358.900000" y1="126.000000" x2="368.900000" y2="126.000000"  style="stroke:black; stroke-linecap:round; stroke-width:0.25;"/>
</svg>
