<?xml version="1.0"?>
<svg xmlns="http://www.w3.org/2000/svg" xmlns:xlink="http://www.w3.org/1999/xlink" viewBox="0 0 502.000000 324.000000" width="251.000000mm" height="162.000000mm" version="1.1">
<a xlink:href="process.svg">
<rect x="1.000000" y="1.000000" width="501.000000" height="323.000000" rx="0" ry="0" style="stroke:none;fill:#cccccc;"/>
<rect x="0.000000" y="0.000000" width="501.000000" height="323.000000" rx="0" ry="0" style="stroke:none;fill:#ffffff;"/>
</a>
<text x="10.000000" y="7.000000" font-family="Arial" font-size="7"></text>
<rect x="67.000000" y="35.000000" width="258.000000" height="24.000000" rx="0" ry="0" style="stroke:none;fill:#cccccc;"/>
<rect x="66.000000" y="34.000000" width="258.000000" height="24.000000" rx="0" ry="0" style="stroke:none;fill:#477881;"/>
<text x="195.000000" y="48.000000" font-family="Arial" font-size="7" text-anchor="middle" fill="#FFFFFF">vslider(vslider4, 60.0f, 0.0f, 127.0f, 0.10000000000000001f)</text>
<circle cx="68.000000" cy="36.000000" r="1"/>
<rect x="163.750000" y="67.000000" width="64.500000" height="24.000000" rx="0" ry="0" style="stroke:none;fill:#cccccc;"/>
<rect x="162.750000" y="66.000000" width="64.500000" height="24.000000" rx="0" ry="0" style="stroke:none;fill:#477881;"/>
<text x="195.000000" y="80.000000" font-family="Arial" font-size="7" text-anchor="middle" fill="#FFFFFF">button(button)</text>
<circle cx="164.750000" cy="68.000000" r="1"/>
<rect x="67.000000" y="99.000000" width="258.000000" height="24.000000" rx="0" ry="0" style="stroke:none;fill:#cccccc;"/>
<rect x="66.000000" y="98.000000" width="258.000000" height="24.000000" rx="0" ry="0" style="stroke:none;fill:#477881;"/>
<text x="195.000000" y="112.000000" font-family="Arial" font-size="7" text-anchor="middle" fill="#FFFFFF">hslider(hslider, 60.0f, 0.0f, 127.0f, 0.10000000000000001f)</text>
<circle cx="68.000000" cy="100.000000" r="1"/>
<a xlink:href="smallhbox1-0x7fa4a7c1e820.svg">
<rect x="170.200000" y="131.000000" width="51.600000" height="40.000000" rx="0" ry="0" style="stroke:none;fill:#cccccc;"/>
<rect x="169.200000" y="130.000000" width="51.600000" height="40.000000" rx="0" ry="0" style="stroke:none;fill:#003366;"/>
</a>
<a xlink:href="smallhbox1-0x7fa4a7c1e820.svg">
<text x="195.000000" y="152.000000" font-family="Arial" font-size="7" text-anchor="middle" fill="#FFFFFF">smallhbox1</text>
</a>
<circle cx="171.200000" cy="132.000000" r="1"/>
<line x1="166.200000" y1="149.000000" x2="169.200000" y2="150.000000"  transform="rotate(0.000000,169.200000,150.000000)" style="stroke: black; stroke-width:0.25;"/>
<line x1="166.200000" y1="151.000000" x2="169.200000" y2="150.000000"  transform="rotate(0.000000,169.200000,150.000000)" style="stroke: black; stroke-width:0.25;"/>
<a xlink:href="subhbox1-0x7fa4a7c21a50.svg">
<rect x="176.650000" y="179.000000" width="38.700000" height="80.000000" rx="0" ry="0" style="stroke:none;fill:#cccccc;"/>
<rect x="175.650000" y="178.000000" width="38.700000" height="80.000000" rx="0" ry="0" style="stroke:none;fill:#003366;"/>
</a>
<a xlink:href="subhbox1-0x7fa4a7c21a50.svg">
<text x="195.000000" y="220.000000" font-family="Arial" font-size="7" text-anchor="middle" fill="#FFFFFF">subhbox1</text>
</a>
<circle cx="177.650000" cy="180.000000" r="1"/>
<line x1="172.650000" y1="213.000000" x2="175.650000" y2="214.000000"  transform="rotate(0.000000,175.650000,214.000000)" style="stroke: black; stroke-width:0.25;"/>
<line x1="172.650000" y1="215.000000" x2="175.650000" y2="214.000000"  transform="rotate(0.000000,175.650000,214.000000)" style="stroke: black; stroke-width:0.25;"/>
<line x1="172.650000" y1="221.000000" x2="175.650000" y2="222.000000"  transform="rotate(0.000000,175.650000,222.000000)" style="stroke: black; stroke-width:0.25;"/>
<line x1="172.650000" y1="223.000000" x2="175.650000" y2="222.000000"  transform="rotate(0.000000,175.650000,222.000000)" style="stroke: black; stroke-width:0.25;"/>
<rect x="131.500000" y="267.000000" width="129.000000" height="24.000000" rx="0" ry="0" style="stroke:none;fill:#cccccc;"/>
<rect x="130.500000" y="266.000000" width="129.000000" height="24.000000" rx="0" ry="0" style="stroke:none;fill:#477881;"/>
<text x="195.000000" y="280.000000" font-family="Arial" font-size="7" text-anchor="middle" fill="#FFFFFF">hbargraph(hbar, 0.0f, 127.0f)</text>
<circle cx="132.500000" cy="268.000000" r="1"/>
<line x1="127.500000" y1="277.000000" x2="130.500000" y2="278.000000"  transform="rotate(0.000000,130.500000,278.000000)" style="stroke: black; stroke-width:0.25;"/>
<line x1="127.500000" y1="279.000000" x2="130.500000" y2="278.000000"  transform="rotate(0.000000,130.500000,278.000000)" style="stroke: black; stroke-width:0.25;"/>
<line x1="57.000000" y1="25.000000" x2="57.000000" y2="299.000000"  style="stroke: black; stroke-linecap:round; stroke-width:0.25; stroke-dasharray:3,3;"/>
<line x1="57.000000" y1="299.000000" x2="333.000000" y2="299.000000"  style="stroke: black; stroke-linecap:round; stroke-width:0.25; stroke-dasharray:3,3;"/>
<line x1="333.000000" y1="299.000000" x2="333.000000" y2="25.000000"  style="stroke: black; stroke-linecap:round; stroke-width:0.25; stroke-dasharray:3,3;"/>
<line x1="57.000000" y1="25.000000" x2="62.000000" y2="25.000000"  style="stroke: black; stroke-linecap:round; stroke-width:0.25; stroke-dasharray:3,3;"/>
<line x1="110.375000" y1="25.000000" x2="333.000000" y2="25.000000"  style="stroke: black; stroke-linecap:round; stroke-width:0.25; stroke-dasharray:3,3;"/>
<text x="62.000000" y="27.000000" font-family="Arial" font-size="7">vgroup(vmisc)</text>
<line x1="15.000000" y1="15.000000" x2="15.000000" y2="309.000000"  style="stroke: black; stroke-linecap:round; stroke-width:0.25; stroke-dasharray:3,3;"/>
<line x1="15.000000" y1="309.000000" x2="487.000000" y2="309.000000"  style="stroke: black; stroke-linecap:round; stroke-width:0.25; stroke-dasharray:3,3;"/>
<line x1="487.000000" y1="309.000000" x2="487.000000" y2="15.000000"  style="stroke: black; stroke-linecap:round; stroke-width:0.25; stroke-dasharray:3,3;"/>
<line x1="15.000000" y1="15.000000" x2="20.000000" y2="15.000000"  style="stroke: black; stroke-linecap:round; stroke-width:0.25; stroke-dasharray:3,3;"/>
<line x1="42.575000" y1="15.000000" x2="487.000000" y2="15.000000"  style="stroke: black; stroke-linecap:round; stroke-width:0.25; stroke-dasharray:3,3;"/>
<text x="20.000000" y="17.000000" font-family="Arial" font-size="7">vmisc</text>
<line x1="489.000000" y1="89.000000" x2="492.000000" y2="90.000000"  transform="rotate(0.000000,492.000000,90.000000)" style="stroke: black; stroke-width:0.25;"/>
<line x1="489.000000" y1="91.000000" x2="492.000000" y2="90.000000"  transform="rotate(0.000000,492.000000,90.000000)" style="stroke: black; stroke-width:0.25;"/>
<line x1="489.000000" y1="97.000000" x2="492.000000" y2="98.000000"  transform="rotate(0.000000,492.000000,98.000000)" style="stroke: black; stroke-width:0.25;"/>
<line x1="489.000000" y1="99.000000" x2="492.000000" y2="98.000000"  transform="rotate(0.000000,492.000000,98.000000)" style="stroke: black; stroke-width:0.25;"/>
<line x1="489.000000" y1="105.000000" x2="492.000000" y2="106.000000"  transform="rotate(0.000000,492.000000,106.000000)" style="stroke: black; stroke-width:0.25;"/>
<line x1="489.000000" y1="107.000000" x2="492.000000" y2="106.000000"  transform="rotate(0.000000,492.000000,106.000000)" style="stroke: black; stroke-width:0.25;"/>
<line x1="489.000000" y1="113.000000" x2="492.000000" y2="114.000000"  transform="rotate(0.000000,492.000000,114.000000)" style="stroke: black; stroke-width:0.25;"/>
<line x1="489.000000" y1="115.000000" x2="492.000000" y2="114.000000"  transform="rotate(0.000000,492.000000,114.000000)" style="stroke: black; stroke-width:0.25;"/>
<line x1="489.000000" y1="121.000000" x2="492.000000" y2="122.000000"  transform="rotate(0.000000,492.000000,122.000000)" style="stroke: black; stroke-width:0.25;"/>
<line x1="489.000000" y1="123.000000" x2="492.000000" y2="122.000000"  transform="rotate(0.000000,492.000000,122.000000)" style="stroke: black; stroke-width:0.25;"/>
<line x1="489.000000" y1="129.000000" x2="492.000000" y2="130.000000"  transform="rotate(0.000000,492.000000,130.000000)" style="stroke: black; stroke-width:0.25;"/>
<line x1="489.000000" y1="131.000000" x2="492.000000" y2="130.000000"  transform="rotate(0.000000,492.000000,130.000000)" style="stroke: black; stroke-width:0.25;"/>
<line x1="489.000000" y1="137.000000" x2="492.000000" y2="138.000000"  transform="rotate(0.000000,492.000000,138.000000)" style="stroke: black; stroke-width:0.25;"/>
<line x1="489.000000" y1="139.000000" x2="492.000000" y2="138.000000"  transform="rotate(0.000000,492.000000,138.000000)" style="stroke: black; stroke-width:0.25;"/>
<line x1="489.000000" y1="145.000000" x2="492.000000" y2="146.000000"  transform="rotate(0.000000,492.000000,146.000000)" style="stroke: black; stroke-width:0.25;"/>
<line x1="489.000000" y1="147.000000" x2="492.000000" y2="146.000000"  transform="rotate(0.000000,492.000000,146.000000)" style="stroke: black; stroke-width:0.25;"/>
<line x1="489.000000" y1="153.000000" x2="492.000000" y2="154.000000"  transform="rotate(0.000000,492.000000,154.000000)" style="stroke: black; stroke-width:0.25;"/>
<line x1="489.000000" y1="155.000000" x2="492.000000" y2="154.000000"  transform="rotate(0.000000,492.000000,154.000000)" style="stroke: black; stroke-width:0.25;"/>
<line x1="489.000000" y1="161.000000" x2="492.000000" y2="162.000000"  transform="rotate(0.000000,492.000000,162.000000)" style="stroke: black; stroke-width:0.25;"/>
<line x1="489.000000" y1="163.000000" x2="492.000000" y2="162.000000"  transform="rotate(0.000000,492.000000,162.000000)" style="stroke: black; stroke-width:0.25;"/>
<line x1="489.000000" y1="169.000000" x2="492.000000" y2="170.000000"  transform="rotate(0.000000,492.000000,170.000000)" style="stroke: black; stroke-width:0.25;"/>
<line x1="489.000000" y1="171.000000" x2="492.000000" y2="170.000000"  transform="rotate(0.000000,492.000000,170.000000)" style="stroke: black; stroke-width:0.25;"/>
<line x1="489.000000" y1="177.000000" x2="492.000000" y2="178.000000"  transform="rotate(0.000000,492.000000,178.000000)" style="stroke: black; stroke-width:0.25;"/>
<line x1="489.000000" y1="179.000000" x2="492.000000" y2="178.000000"  transform="rotate(0.000000,492.000000,178.000000)" style="stroke: black; stroke-width:0.25;"/>
<line x1="489.000000" y1="185.000000" x2="492.000000" y2="186.000000"  transform="rotate(0.000000,492.000000,186.000000)" style="stroke: black; stroke-width:0.25;"/>
<line x1="489.000000" y1="187.000000" x2="492.000000" y2="186.000000"  transform="rotate(0.000000,492.000000,186.000000)" style="stroke: black; stroke-width:0.25;"/>
<line x1="489.000000" y1="193.000000" x2="492.000000" y2="194.000000"  transform="rotate(0.000000,492.000000,194.000000)" style="stroke: black; stroke-width:0.25;"/>
<line x1="489.000000" y1="195.000000" x2="492.000000" y2="194.000000"  transform="rotate(0.000000,492.000000,194.000000)" style="stroke: black; stroke-width:0.25;"/>
<line x1="489.000000" y1="201.000000" x2="492.000000" y2="202.000000"  transform="rotate(0.000000,492.000000,202.000000)" style="stroke: black; stroke-width:0.25;"/>
<line x1="489.000000" y1="203.000000" x2="492.000000" y2="202.000000"  transform="rotate(0.000000,492.000000,202.000000)" style="stroke: black; stroke-width:0.25;"/>
<line x1="489.000000" y1="209.000000" x2="492.000000" y2="210.000000"  transform="rotate(0.000000,492.000000,210.000000)" style="stroke: black; stroke-width:0.25;"/>
<line x1="489.000000" y1="211.000000" x2="492.000000" y2="210.000000"  transform="rotate(0.000000,492.000000,210.000000)" style="stroke: black; stroke-width:0.25;"/>
<line x1="489.000000" y1="217.000000" x2="492.000000" y2="218.000000"  transform="rotate(0.000000,492.000000,218.000000)" style="stroke: black; stroke-width:0.25;"/>
<line x1="489.000000" y1="219.000000" x2="492.000000" y2="218.000000"  transform="rotate(0.000000,492.000000,218.000000)" style="stroke: black; stroke-width:0.25;"/>
<line x1="489.000000" y1="225.000000" x2="492.000000" y2="226.000000"  transform="rotate(0.000000,492.000000,226.000000)" style="stroke: black; stroke-width:0.25;"/>
<line x1="489.000000" y1="227.000000" x2="492.000000" y2="226.000000"  transform="rotate(0.000000,492.000000,226.000000)" style="stroke: black; stroke-width:0.25;"/>
<line x1="489.000000" y1="233.000000" x2="492.000000" y2="234.000000"  transform="rotate(0.000000,492.000000,234.000000)" style="stroke: black; stroke-width:0.25;"/>
<line x1="489.000000" y1="235.000000" x2="492.000000" y2="234.000000"  transform="rotate(0.000000,492.000000,234.000000)" style="stroke: black; stroke-width:0.25;"/>
<line x1="10.000000" y1="150.000000" x2="20.000000" y2="150.000000"  style="stroke:black; stroke-linecap:round; stroke-width:0.25;"/>
<line x1="10.000000" y1="158.000000" x2="20.000000" y2="158.000000"  style="stroke:black; stroke-linecap:round; stroke-width:0.25;"/>
<line x1="10.000000" y1="166.000000" x2="20.000000" y2="166.000000"  style="stroke:black; stroke-linecap:round; stroke-width:0.25;"/>
<line x1="10.000000" y1="174.000000" x2="20.000000" y2="174.000000"  style="stroke:black; stroke-linecap:round; stroke-width:0.25;"/>
<line x1="20.000000" y1="150.000000" x2="24.000000" y2="150.000000"  style="stroke:black; stroke-linecap:round; stroke-width:0.25;"/>
<line x1="20.000000" y1="158.000000" x2="24.000000" y2="158.000000"  style="stroke:black; stroke-linecap:round; stroke-width:0.25;"/>
<line x1="20.000000" y1="166.000000" x2="24.000000" y2="166.000000"  style="stroke:black; stroke-linecap:round; stroke-width:0.25;"/>
<line x1="20.000000" y1="174.000000" x2="24.000000" y2="174.000000"  style="stroke:black; stroke-linecap:round; stroke-width:0.25;"/>
<line x1="24.000000" y1="150.000000" x2="28.000000" y2="150.000000"  style="stroke:black; stroke-linecap:round; stroke-width:0.25;"/>
<line x1="24.000000" y1="158.000000" x2="28.000000" y2="158.000000"  style="stroke:black; stroke-linecap:round; stroke-width:0.25;"/>
<line x1="24.000000" y1="166.000000" x2="28.000000" y2="166.000000"  style="stroke:black; stroke-linecap:round; stroke-width:0.25;"/>
<line x1="24.000000" y1="174.000000" x2="28.000000" y2="174.000000"  style="stroke:black; stroke-linecap:round; stroke-width:0.25;"/>
<line x1="28.000000" y1="150.000000" x2="52.000000" y2="150.000000"  style="stroke:black; stroke-linecap:round; stroke-width:0.25;"/>
<line x1="28.000000" y1="158.000000" x2="52.000000" y2="158.000000"  style="stroke:black; stroke-linecap:round; stroke-width:0.25;"/>
<line x1="28.000000" y1="166.000000" x2="44.000000" y2="166.000000"  style="stroke:black; stroke-linecap:round; stroke-width:0.25;"/>
<line x1="28.000000" y1="174.000000" x2="36.000000" y2="174.000000"  style="stroke:black; stroke-linecap:round; stroke-width:0.25;"/>
<line x1="36.000000" y1="174.000000" x2="36.000000" y2="278.000000"  style="stroke:black; stroke-linecap:round; stroke-width:0.25;"/>
<line x1="36.000000" y1="278.000000" x2="52.000000" y2="278.000000"  style="stroke:black; stroke-linecap:round; stroke-width:0.25;"/>
<line x1="44.000000" y1="166.000000" x2="44.000000" y2="222.000000"  style="stroke:black; stroke-linecap:round; stroke-width:0.25;"/>
<line x1="44.000000" y1="222.000000" x2="52.000000" y2="222.000000"  style="stroke:black; stroke-linecap:round; stroke-width:0.25;"/>
<line x1="52.000000" y1="150.000000" x2="62.000000" y2="150.000000"  style="stroke:black; stroke-linecap:round; stroke-width:0.25;"/>
<line x1="52.000000" y1="158.000000" x2="52.000000" y2="214.000000"  style="stroke:black; stroke-linecap:round; stroke-width:0.25;"/>
<line x1="52.000000" y1="214.000000" x2="52.000000" y2="214.000000"  style="stroke:black; stroke-linecap:round; stroke-width:0.25;"/>
<line x1="52.000000" y1="214.000000" x2="62.000000" y2="214.000000"  style="stroke:black; stroke-linecap:round; stroke-width:0.25;"/>
<line x1="52.000000" y1="222.000000" x2="62.000000" y2="222.000000"  style="stroke:black; stroke-linecap:round; stroke-width:0.25;"/>
<line x1="52.000000" y1="278.000000" x2="62.000000" y2="278.000000"  style="stroke:black; stroke-linecap:round; stroke-width:0.25;"/>
<line x1="62.000000" y1="150.000000" x2="126.500000" y2="150.000000"  style="stroke:black; stroke-linecap:round; stroke-width:0.25;"/>
<line x1="62.000000" y1="214.000000" x2="126.500000" y2="214.000000"  style="stroke:black; stroke-linecap:round; stroke-width:0.25;"/>
<line x1="62.000000" y1="222.000000" x2="126.500000" y2="222.000000"  style="stroke:black; stroke-linecap:round; stroke-width:0.25;"/>
<line x1="62.000000" y1="278.000000" x2="126.500000" y2="278.000000"  style="stroke:black; stroke-linecap:round; stroke-width:0.25;"/>
<line x1="126.500000" y1="150.000000" x2="165.200000" y2="150.000000"  style="stroke:black; stroke-linecap:round; stroke-width:0.25;"/>
<line x1="126.500000" y1="214.000000" x2="171.650000" y2="214.000000"  style="stroke:black; stroke-linecap:round; stroke-width:0.25;"/>
<line x1="126.500000" y1="222.000000" x2="171.650000" y2="222.000000"  style="stroke:black; stroke-linecap:round; stroke-width:0.25;"/>
<line x1="126.500000" y1="278.000000" x2="130.500000" y2="278.000000"  style="stroke:black; stroke-linecap:round; stroke-width:0.25;"/>
<line x1="165.200000" y1="150.000000" x2="169.200000" y2="150.000000"  style="stroke:black; stroke-linecap:round; stroke-width:0.25;"/>
<line x1="171.650000" y1="214.000000" x2="175.650000" y2="214.000000"  style="stroke:black; stroke-linecap:round; stroke-width:0.25;"/>
<line x1="171.650000" y1="222.000000" x2="175.650000" y2="222.000000"  style="stroke:black; stroke-linecap:round; stroke-width:0.25;"/>
<line x1="214.350000" y1="182.000000" x2="218.350000" y2="182.000000"  style="stroke:black; stroke-linecap:round; stroke-width:0.25;"/>
<line x1="214.350000" y1="190.000000" x2="218.350000" y2="190.000000"  style="stroke:black; stroke-linecap:round; stroke-width:0.25;"/>
<line x1="214.350000" y1="198.000000" x2="218.350000" y2="198.000000"  style="stroke:black; stroke-linecap:round; stroke-width:0.25;"/>
<line x1="214.350000" y1="206.000000" x2="218.350000" y2="206.000000"  style="stroke:black; stroke-linecap:round; stroke-width:0.25;"/>
<line x1="214.350000" y1="214.000000" x2="218.350000" y2="214.000000"  style="stroke:black; stroke-linecap:round; stroke-width:0.25;"/>
<line x1="214.350000" y1="222.000000" x2="218.350000" y2="222.000000"  style="stroke:black; stroke-linecap:round; stroke-width:0.25;"/>
<line x1="214.350000" y1="230.000000" x2="218.350000" y2="230.000000"  style="stroke:black; stroke-linecap:round; stroke-width:0.25;"/>
<line x1="214.350000" y1="238.000000" x2="218.350000" y2="238.000000"  style="stroke:black; stroke-linecap:round; stroke-width:0.25;"/>
<line x1="214.350000" y1="246.000000" x2="218.350000" y2="246.000000"  style="stroke:black; stroke-linecap:round; stroke-width:0.25;"/>
<line x1="214.350000" y1="254.000000" x2="218.350000" y2="254.000000"  style="stroke:black; stroke-linecap:round; stroke-width:0.25;"/>
<line x1="218.350000" y1="182.000000" x2="263.500000" y2="182.000000"  style="stroke:black; stroke-linecap:round; stroke-width:0.25;"/>
<line x1="218.350000" y1="190.000000" x2="263.500000" y2="190.000000"  style="stroke:black; stroke-linecap:round; stroke-width:0.25;"/>
<line x1="218.350000" y1="198.000000" x2="263.500000" y2="198.000000"  style="stroke:black; stroke-linecap:round; stroke-width:0.25;"/>
<line x1="218.350000" y1="206.000000" x2="263.500000" y2="206.000000"  style="stroke:black; stroke-linecap:round; stroke-width:0.25;"/>
<line x1="218.350000" y1="214.000000" x2="263.500000" y2="214.000000"  style="stroke:black; stroke-linecap:round; stroke-width:0.25;"/>
<line x1="218.350000" y1="222.000000" x2="263.500000" y2="222.000000"  style="stroke:black; stroke-linecap:round; stroke-width:0.25;"/>
<line x1="218.350000" y1="230.000000" x2="263.500000" y2="230.000000"  style="stroke:black; stroke-linecap:round; stroke-width:0.25;"/>
<line x1="218.350000" y1="238.000000" x2="263.500000" y2="238.000000"  style="stroke:black; stroke-linecap:round; stroke-width:0.25;"/>
<line x1="218.350000" y1="246.000000" x2="263.500000" y2="246.000000"  style="stroke:black; stroke-linecap:round; stroke-width:0.25;"/>
<line x1="218.350000" y1="254.000000" x2="263.500000" y2="254.000000"  style="stroke:black; stroke-linecap:round; stroke-width:0.25;"/>
<line x1="220.800000" y1="134.000000" x2="224.800000" y2="134.000000"  style="stroke:black; stroke-linecap:round; stroke-width:0.25;"/>
<line x1="220.800000" y1="142.000000" x2="224.800000" y2="142.000000"  style="stroke:black; stroke-linecap:round; stroke-width:0.25;"/>
<line x1="220.800000" y1="150.000000" x2="224.800000" y2="150.000000"  style="stroke:black; stroke-linecap:round; stroke-width:0.25;"/>
<line x1="220.800000" y1="158.000000" x2="224.800000" y2="158.000000"  style="stroke:black; stroke-linecap:round; stroke-width:0.25;"/>
<line x1="220.800000" y1="166.000000" x2="224.800000" y2="166.000000"  style="stroke:black; stroke-linecap:round; stroke-width:0.25;"/>
<line x1="224.800000" y1="134.000000" x2="263.500000" y2="134.000000"  style="stroke:black; stroke-linecap:round; stroke-width:0.25;"/>
<line x1="224.800000" y1="142.000000" x2="263.500000" y2="142.000000"  style="stroke:black; stroke-linecap:round; stroke-width:0.25;"/>
<line x1="224.800000" y1="150.000000" x2="263.500000" y2="150.000000"  style="stroke:black; stroke-linecap:round; stroke-width:0.25;"/>
<line x1="224.800000" y1="158.000000" x2="263.500000" y2="158.000000"  style="stroke:black; stroke-linecap:round; stroke-width:0.25;"/>
<line x1="224.800000" y1="166.000000" x2="263.500000" y2="166.000000"  style="stroke:black; stroke-linecap:round; stroke-width:0.25;"/>
<line x1="227.250000" y1="78.000000" x2="231.250000" y2="78.000000"  style="stroke:black; stroke-linecap:round; stroke-width:0.25;"/>
<line x1="231.250000" y1="78.000000" x2="328.000000" y2="78.000000"  style="stroke:black; stroke-linecap:round; stroke-width:0.25;"/>
<line x1="259.500000" y1="278.000000" x2="263.500000" y2="278.000000"  style="stroke:black; stroke-linecap:round; stroke-width:0.25;"/>
<line x1="263.500000" y1="134.000000" x2="328.000000" y2="134.000000"  style="stroke:black; stroke-linecap:round; stroke-width:0.25;"/>
<line x1="263.500000" y1="142.000000" x2="328.000000" y2="142.000000"  style="stroke:black; stroke-linecap:round; stroke-width:0.25;"/>
<line x1="263.500000" y1="150.000000" x2="328.000000" y2="150.000000"  style="stroke:black; stroke-linecap:round; stroke-width:0.25;"/>
<line x1="263.500000" y1="158.000000" x2="328.000000" y2="158.000000"  style="stroke:black; stroke-linecap:round; stroke-width:0.25;"/>
<line x1="263.500000" y1="166.000000" x2="328.000000" y2="166.000000"  style="stroke:black; stroke-linecap:round; stroke-width:0.25;"/>
<line x1="263.500000" y1="182.000000" x2="328.000000" y2="182.000000"  style="stroke:black; stroke-linecap:round; stroke-width:0.25;"/>
<line x1="263.500000" y1="190.000000" x2="328.000000" y2="190.000000"  style="stroke:black; stroke-linecap:round; stroke-width:0.25;"/>
<line x1="263.500000" y1="198.000000" x2="328.000000" y2="198.000000"  style="stroke:black; stroke-linecap:round; stroke-width:0.25;"/>
<line x1="263.500000" y1="206.000000" x2="328.000000" y2="206.000000"  style="stroke:black; stroke-linecap:round; stroke-width:0.25;"/>
<line x1="263.500000" y1="214.000000" x2="328.000000" y2="214.000000"  style="stroke:black; stroke-linecap:round; stroke-width:0.25;"/>
<line x1="263.500000" y1="222.000000" x2="328.000000" y2="222.000000"  style="stroke:black; stroke-linecap:round; stroke-width:0.25;"/>
<line x1="263.500000" y1="230.000000" x2="328.000000" y2="230.000000"  style="stroke:black; stroke-linecap:round; stroke-width:0.25;"/>
<line x1="263.500000" y1="238.000000" x2="328.000000" y2="238.000000"  style="stroke:black; stroke-linecap:round; stroke-width:0.25;"/>
<line x1="263.500000" y1="246.000000" x2="328.000000" y2="246.000000"  style="stroke:black; stroke-linecap:round; stroke-width:0.25;"/>
<line x1="263.500000" y1="254.000000" x2="328.000000" y2="254.000000"  style="stroke:black; stroke-linecap:round; stroke-width:0.25;"/>
<line x1="263.500000" y1="278.000000" x2="328.000000" y2="278.000000"  style="stroke:black; stroke-linecap:round; stroke-width:0.25;"/>
<line x1="324.000000" y1="46.000000" x2="328.000000" y2="46.000000"  style="stroke:black; stroke-linecap:round; stroke-width:0.25;"/>
<line x1="324.000000" y1="110.000000" x2="328.000000" y2="110.000000"  style="stroke:black; stroke-linecap:round; stroke-width:0.25;"/>
<line x1="328.000000" y1="46.000000" x2="338.000000" y2="46.000000"  style="stroke:black; stroke-linecap:round; stroke-width:0.25;"/>
<line x1="328.000000" y1="78.000000" x2="338.000000" y2="78.000000"  style="stroke:black; stroke-linecap:round; stroke-width:0.25;"/>
<line x1="328.000000" y1="110.000000" x2="338.000000" y2="110.000000"  style="stroke:black; stroke-linecap:round; stroke-width:0.25;"/>
<line x1="328.000000" y1="134.000000" x2="338.000000" y2="134.000000"  style="stroke:black; stroke-linecap:round; stroke-width:0.25;"/>
<line x1="328.000000" y1="142.000000" x2="338.000000" y2="142.000000"  style="stroke:black; stroke-linecap:round; stroke-width:0.25;"/>
<line x1="328.000000" y1="150.000000" x2="338.000000" y2="150.000000"  style="stroke:black; stroke-linecap:round; stroke-width:0.25;"/>
<line x1="328.000000" y1="158.000000" x2="338.000000" y2="158.000000"  style="stroke:black; stroke-linecap:round; stroke-width:0.25;"/>
<line x1="328.000000" y1="166.000000" x2="338.000000" y2="166.000000"  style="stroke:black; stroke-linecap:round; stroke-width:0.25;"/>
<line x1="328.000000" y1="182.000000" x2="338.000000" y2="182.000000"  style="stroke:black; stroke-linecap:round; stroke-width:0.25;"/>
<line x1="328.000000" y1="190.000000" x2="338.000000" y2="190.000000"  style="stroke:black; stroke-linecap:round; stroke-width:0.25;"/>
<line x1="328.000000" y1="198.000000" x2="338.000000" y2="198.000000"  style="stroke:black; stroke-linecap:round; stroke-width:0.25;"/>
<line x1="328.000000" y1="206.000000" x2="338.000000" y2="206.000000"  style="stroke:black; stroke-linecap:round; stroke-width:0.25;"/>
<line x1="328.000000" y1="214.000000" x2="338.000000" y2="214.000000"  style="stroke:black; stroke-linecap:round; stroke-width:0.25;"/>
<line x1="328.000000" y1="222.000000" x2="338.000000" y2="222.000000"  style="stroke:black; stroke-linecap:round; stroke-width:0.25;"/>
<line x1="328.000000" y1="230.000000" x2="338.000000" y2="230.000000"  style="stroke:black; stroke-linecap:round; stroke-width:0.25;"/>
<line x1="328.000000" y1="238.000000" x2="338.000000" y2="238.000000"  style="stroke:black; stroke-linecap:round; stroke-width:0.25;"/>
<line x1="328.000000" y1="246.000000" x2="338.000000" y2="246.000000"  style="stroke:black; stroke-linecap:round; stroke-width:0.25;"/>
<line x1="328.000000" y1="254.000000" x2="338.000000" y2="254.000000"  style="stroke:black; stroke-linecap:round; stroke-width:0.25;"/>
<line x1="328.000000" y1="278.000000" x2="338.000000" y2="278.000000"  style="stroke:black; stroke-linecap:round; stroke-width:0.25;"/>
<line x1="338.000000" y1="46.000000" x2="474.000000" y2="46.000000"  style="stroke:black; stroke-linecap:round; stroke-width:0.25;"/>
<line x1="338.000000" y1="78.000000" x2="466.000000" y2="78.000000"  style="stroke:black; stroke-linecap:round; stroke-width:0.25;"/>
<line x1="338.000000" y1="106.000000" x2="474.000000" y2="106.000000"  style="stroke:black; stroke-linecap:round; stroke-width:0.25;"/>
<line x1="338.000000" y1="110.000000" x2="338.000000" y2="106.000000"  style="stroke:black; stroke-linecap:round; stroke-width:0.25;"/>
<line x1="338.000000" y1="110.000000" x2="338.000000" y2="110.000000"  style="stroke:black; stroke-linecap:round; stroke-width:0.25;"/>
<line x1="338.000000" y1="134.000000" x2="346.000000" y2="134.000000"  style="stroke:black; stroke-linecap:round; stroke-width:0.25;"/>
<line x1="338.000000" y1="142.000000" x2="354.000000" y2="142.000000"  style="stroke:black; stroke-linecap:round; stroke-width:0.25;"/>
<line x1="338.000000" y1="150.000000" x2="362.000000" y2="150.000000"  style="stroke:black; stroke-linecap:round; stroke-width:0.25;"/>
<line x1="338.000000" y1="158.000000" x2="370.000000" y2="158.000000"  style="stroke:black; stroke-linecap:round; stroke-width:0.25;"/>
<line x1="338.000000" y1="166.000000" x2="378.000000" y2="166.000000"  style="stroke:black; stroke-linecap:round; stroke-width:0.25;"/>
<line x1="338.000000" y1="182.000000" x2="386.000000" y2="182.000000"  style="stroke:black; stroke-linecap:round; stroke-width:0.25;"/>
<line x1="338.000000" y1="190.000000" x2="394.000000" y2="190.000000"  style="stroke:black; stroke-linecap:round; stroke-width:0.25;"/>
<line x1="338.000000" y1="198.000000" x2="402.000000" y2="198.000000"  style="stroke:black; stroke-linecap:round; stroke-width:0.25;"/>
<line x1="338.000000" y1="206.000000" x2="410.000000" y2="206.000000"  style="stroke:black; stroke-linecap:round; stroke-width:0.25;"/>
<line x1="338.000000" y1="214.000000" x2="418.000000" y2="214.000000"  style="stroke:black; stroke-linecap:round; stroke-width:0.25;"/>
<line x1="338.000000" y1="222.000000" x2="426.000000" y2="222.000000"  style="stroke:black; stroke-linecap:round; stroke-width:0.25;"/>
<line x1="338.000000" y1="230.000000" x2="434.000000" y2="230.000000"  style="stroke:black; stroke-linecap:round; stroke-width:0.25;"/>
<line x1="338.000000" y1="238.000000" x2="442.000000" y2="238.000000"  style="stroke:black; stroke-linecap:round; stroke-width:0.25;"/>
<line x1="338.000000" y1="246.000000" x2="450.000000" y2="246.000000"  style="stroke:black; stroke-linecap:round; stroke-width:0.25;"/>
<line x1="338.000000" y1="254.000000" x2="458.000000" y2="254.000000"  style="stroke:black; stroke-linecap:round; stroke-width:0.25;"/>
<line x1="338.000000" y1="278.000000" x2="466.000000" y2="278.000000"  style="stroke:black; stroke-linecap:round; stroke-width:0.25;"/>
<line x1="346.000000" y1="114.000000" x2="474.000000" y2="114.000000"  style="stroke:black; stroke-linecap:round; stroke-width:0.25;"/>
<line x1="346.000000" y1="134.000000" x2="346.000000" y2="114.000000"  style="stroke:black; stroke-linecap:round; stroke-width:0.25;"/>
<line x1="354.000000" y1="122.000000" x2="474.000000" y2="122.000000"  style="stroke:black; stroke-linecap:round; stroke-width:0.25;"/>
<line x1="354.000000" y1="142.000000" x2="354.000000" y2="122.000000"  style="stroke:black; stroke-linecap:round; stroke-width:0.25;"/>
<line x1="362.000000" y1="130.000000" x2="474.000000" y2="130.000000"  style="stroke:black; stroke-linecap:round; stroke-width:0.25;"/>
<line x1="362.000000" y1="150.000000" x2="362.000000" y2="130.000000"  style="stroke:black; stroke-linecap:round; stroke-width:0.25;"/>
<line x1="370.000000" y1="138.000000" x2="474.000000" y2="138.000000"  style="stroke:black; stroke-linecap:round; stroke-width:0.25;"/>
<line x1="370.000000" y1="158.000000" x2="370.000000" y2="138.000000"  style="stroke:black; stroke-linecap:round; stroke-width:0.25;"/>
<line x1="378.000000" y1="146.000000" x2="474.000000" y2="146.000000"  style="stroke:black; stroke-linecap:round; stroke-width:0.25;"/>
<line x1="378.000000" y1="166.000000" x2="378.000000" y2="146.000000"  style="stroke:black; stroke-linecap:round; stroke-width:0.25;"/>
<line x1="386.000000" y1="154.000000" x2="474.000000" y2="154.000000"  style="stroke:black; stroke-linecap:round; stroke-width:0.25;"/>
<line x1="386.000000" y1="182.000000" x2="386.000000" y2="154.000000"  style="stroke:black; stroke-linecap:round; stroke-width:0.25;"/>
<line x1="394.000000" y1="162.000000" x2="474.000000" y2="162.000000"  style="stroke:black; stroke-linecap:round; stroke-width:0.25;"/>
<line x1="394.000000" y1="190.000000" x2="394.000000" y2="162.000000"  style="stroke:black; stroke-linecap:round; stroke-width:0.25;"/>
<line x1="402.000000" y1="170.000000" x2="474.000000" y2="170.000000"  style="stroke:black; stroke-linecap:round; stroke-width:0.25;"/>
<line x1="402.000000" y1="198.000000" x2="402.000000" y2="170.000000"  style="stroke:black; stroke-linecap:round; stroke-width:0.25;"/>
<line x1="410.000000" y1="178.000000" x2="474.000000" y2="178.000000"  style="stroke:black; stroke-linecap:round; stroke-width:0.25;"/>
<line x1="410.000000" y1="206.000000" x2="410.000000" y2="178.000000"  style="stroke:black; stroke-linecap:round; stroke-width:0.25;"/>
<line x1="418.000000" y1="186.000000" x2="474.000000" y2="186.000000"  style="stroke:black; stroke-linecap:round; stroke-width:0.25;"/>
<line x1="418.000000" y1="214.000000" x2="418.000000" y2="186.000000"  style="stroke:black; stroke-linecap:round; stroke-width:0.25;"/>
<line x1="426.000000" y1="194.000000" x2="474.000000" y2="194.000000"  style="stroke:black; stroke-linecap:round; stroke-width:0.25;"/>
<line x1="426.000000" y1="222.000000" x2="426.000000" y2="194.000000"  style="stroke:black; stroke-linecap:round; stroke-width:0.25;"/>
<line x1="434.000000" y1="202.000000" x2="474.000000" y2="202.000000"  style="stroke:black; stroke-linecap:round; stroke-width:0.25;"/>
<line x1="434.000000" y1="230.000000" x2="434.000000" y2="202.000000"  style="stroke:black; stroke-linecap:round; stroke-width:0.25;"/>
<line x1="442.000000" y1="210.000000" x2="474.000000" y2="210.000000"  style="stroke:black; stroke-linecap:round; stroke-width:0.25;"/>
<line x1="442.000000" y1="238.000000" x2="442.000000" y2="210.000000"  style="stroke:black; stroke-linecap:round; stroke-width:0.25;"/>
<line x1="450.000000" y1="218.000000" x2="474.000000" y2="218.000000"  style="stroke:black; stroke-linecap:round; stroke-width:0.25;"/>
<line x1="450.000000" y1="246.000000" x2="450.000000" y2="218.000000"  style="stroke:black; stroke-linecap:round; stroke-width:0.25;"/>
<line x1="458.000000" y1="226.000000" x2="474.000000" y2="226.000000"  style="stroke:black; stroke-linecap:round; stroke-width:0.25;"/>
<line x1="458.000000" y1="254.000000" x2="458.000000" y2="226.000000"  style="stroke:black; stroke-linecap:round; stroke-width:0.25;"/>
<line x1="466.000000" y1="78.000000" x2="466.000000" y2="98.000000"  style="stroke:black; stroke-linecap:round; stroke-width:0.25;"/>
<line x1="466.000000" y1="98.000000" x2="474.000000" y2="98.000000"  style="stroke:black; stroke-linecap:round; stroke-width:0.25;"/>
<line x1="466.000000" y1="234.000000" x2="474.000000" y2="234.000000"  style="stroke:black; stroke-linecap:round; stroke-width:0.25;"/>
<line x1="466.000000" y1="278.000000" x2="466.000000" y2="234.000000"  style="stroke:black; stroke-linecap:round; stroke-width:0.25;"/>
<line x1="474.000000" y1="46.000000" x2="474.000000" y2="90.000000"  style="stroke:black; stroke-linecap:round; stroke-width:0.25;"/>
<line x1="474.000000" y1="90.000000" x2="474.000000" y2="90.000000"  style="stroke:black; stroke-linecap:round; stroke-width:0.25;"/>
<line x1="474.000000" y1="90.000000" x2="478.000000" y2="90.000000"  style="stroke:black; stroke-linecap:round; stroke-width:0.25;"/>
<line x1="474.000000" y1="98.000000" x2="478.000000" y2="98.000000"  style="stroke:black; stroke-linecap:round; stroke-width:0.25;"/>
<line x1="474.000000" y1="106.000000" x2="478.000000" y2="106.000000"  style="stroke:black; stroke-linecap:round; stroke-width:0.25;"/>
<line x1="474.000000" y1="114.000000" x2="478.000000" y2="114.000000"  style="stroke:black; stroke-linecap:round; stroke-width:0.25;"/>
<line x1="474.000000" y1="122.000000" x2="478.000000" y2="122.000000"  style="stroke:black; stroke-linecap:round; stroke-width:0.25;"/>
<line x1="474.000000" y1="130.000000" x2="478.000000" y2="130.000000"  style="stroke:black; stroke-linecap:round; stroke-width:0.25;"/>
<line x1="474.000000" y1="138.000000" x2="478.000000" y2="138.000000"  style="stroke:black; stroke-linecap:round; stroke-width:0.25;"/>
<line x1="474.000000" y1="146.000000" x2="478.000000" y2="146.000000"  style="stroke:black; stroke-linecap:round; stroke-width:0.25;"/>
<line x1="474.000000" y1="154.000000" x2="478.000000" y2="154.000000"  style="stroke:black; stroke-linecap:round; stroke-width:0.25;"/>
<line x1="474.000000" y1="162.000000" x2="478.000000" y2="162.000000"  style="stroke:black; stroke-linecap:round; stroke-width:0.25;"/>
<line x1="474.000000" y1="170.000000" x2="478.000000" y2="170.000000"  style="stroke:black; stroke-linecap:round; stroke-width:0.25;"/>
<line x1="474.000000" y1="178.000000" x2="478.000000" y2="178.000000"  style="stroke:black; stroke-linecap:round; stroke-width:0.25;"/>
<line x1="474.000000" y1="186.000000" x2="478.000000" y2="186.000000"  style="stroke:black; stroke-linecap:round; stroke-width:0.25;"/>
<line x1="474.000000" y1="194.000000" x2="478.000000" y2="194.000000"  style="stroke:black; stroke-linecap:round; stroke-width:0.25;"/>
<line x1="474.000000" y1="202.000000" x2="478.000000" y2="202.000000"  style="stroke:black; stroke-linecap:round; stroke-width:0.25;"/>
<line x1="474.000000" y1="210.000000" x2="478.000000" y2="210.000000"  style="stroke:black; stroke-linecap:round; stroke-width:0.25;"/>
<line x1="474.000000" y1="218.000000" x2="478.000000" y2="218.000000"  style="stroke:black; stroke-linecap:round; stroke-width:0.25;"/>
<line x1="474.000000" y1="226.000000" x2="478.000000" y2="226.000000"  style="stroke:black; stroke-linecap:round; stroke-width:0.25;"/>
<line x1="474.000000" y1="234.000000" x2="478.000000" y2="234.000000"  style="stroke:black; stroke-linecap:round; stroke-width:0.25;"/>
<line x1="478.000000" y1="90.000000" x2="482.000000" y2="90.000000"  style="stroke:black; stroke-linecap:round; stroke-width:0.25;"/>
<line x1="478.000000" y1="98.000000" x2="482.000000" y2="98.000000"  style="stroke:black; stroke-linecap:round; stroke-width:0.25;"/>
<line x1="478.000000" y1="106.000000" x2="482.000000" y2="106.000000"  style="stroke:black; stroke-linecap:round; stroke-width:0.25;"/>
<line x1="478.000000" y1="114.000000" x2="482.000000" y2="114.000000"  style="stroke:black; stroke-linecap:round; stroke-width:0.25;"/>
<line x1="478.000000" y1="122.000000" x2="482.000000" y2="122.000000"  style="stroke:black; stroke-linecap:round; stroke-width:0.25;"/>
<line x1="478.000000" y1="130.000000" x2="482.000000" y2="130.000000"  style="stroke:black; stroke-linecap:round; stroke-width:0.25;"/>
<line x1="478.000000" y1="138.000000" x2="482.000000" y2="138.000000"  style="stroke:black; stroke-linecap:round; stroke-width:0.25;"/>
<line x1="478.000000" y1="146.000000" x2="482.000000" y2="146.000000"  style="stroke:black; stroke-linecap:round; stroke-width:0.25;"/>
<line x1="478.000000" y1="154.000000" x2="482.000000" y2="154.000000"  style="stroke:black; stroke-linecap:round; stroke-width:0.25;"/>
<line x1="478.000000" y1="162.000000" x2="482.000000" y2="162.000000"  style="stroke:black; stroke-linecap:round; stroke-width:0.25;"/>
<line x1="478.000000" y1="170.000000" x2="482.000000" y2="170.000000"  style="stroke:black; stroke-linecap:round; stroke-width:0.25;"/>
<line x1="478.000000" y1="178.000000" x2="482.000000" y2="178.000000"  style="stroke:black; stroke-linecap:round; stroke-width:0.25;"/>
<line x1="478.000000" y1="186.000000" x2="482.000000" y2="186.000000"  style="stroke:black; stroke-linecap:round; stroke-width:0.25;"/>
<line x1="478.000000" y1="194.000000" x2="482.000000" y2="194.000000"  style="stroke:black; stroke-linecap:round; stroke-width:0.25;"/>
<line x1="478.000000" y1="202.000000" x2="482.000000" y2="202.000000"  style="stroke:black; stroke-linecap:round; stroke-width:0.25;"/>
<line x1="478.000000" y1="210.000000" x2="482.000000" y2="210.000000"  style="stroke:black; stroke-linecap:round; stroke-width:0.25;"/>
<line x1="478.000000" y1="218.000000" x2="482.000000" y2="218.000000"  style="stroke:black; stroke-linecap:round; stroke-width:0.25;"/>
<line x1="478.000000" y1="226.000000" x2="482.000000" y2="226.000000"  style="stroke:black; stroke-linecap:round; stroke-width:0.25;"/>
<line x1="478.000000" y1="234.000000" x2="482.000000" y2="234.000000"  style="stroke:black; stroke-linecap:round; stroke-width:0.25;"/>
<line x1="482.000000" y1="90.000000" x2="492.000000" y2="90.000000"  style="stroke:black; stroke-linecap:round; stroke-width:0.25;"/>
<line x1="482.000000" y1="98.000000" x2="492.000000" y2="98.000000"  style="stroke:black; stroke-linecap:round; stroke-width:0.25;"/>
<line x1="482.000000" y1="106.000000" x2="492.000000" y2="106.000000"  style="stroke:black; stroke-linecap:round; stroke-width:0.25;"/>
<line x1="482.000000" y1="114.000000" x2="492.000000" y2="114.000000"  style="stroke:black; stroke-linecap:round; stroke-width:0.25;"/>
<line x1="482.000000" y1="122.000000" x2="492.000000" y2="122.000000"  style="stroke:black; stroke-linecap:round; stroke-width:0.25;"/>
<line x1="482.000000" y1="130.000000" x2="492.000000" y2="130.000000"  style="stroke:black; stroke-linecap:round; stroke-width:0.25;"/>
<line x1="482.000000" y1="138.000000" x2="492.000000" y2="138.000000"  style="stroke:black; stroke-linecap:round; stroke-width:0.25;"/>
<line x1="482.000000" y1="146.000000" x2="492.000000" y2="146.000000"  style="stroke:black; stroke-linecap:round; stroke-width:0.25;"/>
<line x1="482.000000" y1="154.000000" x2="492.000000" y2="154.000000"  style="stroke:black; stroke-linecap:round; stroke-width:0.25;"/>
<line x1="482.000000" y1="162.000000" x2="492.000000" y2="162.000000"  style="stroke:black; stroke-linecap:round; stroke-width:0.25;"/>
<line x1="482.000000" y1="170.000000" x2="492.000000" y2="170.000000"  style="stroke:black; stroke-linecap:round; stroke-width:0.25;"/>
<line x1="482.000000" y1="178.000000" x2="492.000000" y2="178.000000"  style="stroke:black; stroke-linecap:round; stroke-width:0.25;"/>
<line x1="482.000000" y1="186.000000" x2="492.000000" y2="186.000000"  style="stroke:black; stroke-linecap:round; stroke-width:0.25;"/>
<line x1="482.000000" y1="194.000000" x2="492.000000" y2="194.000000"  style="stroke:black; stroke-linecap:round; stroke-width:0.25;"/>
<line x1="482.000000" y1="202.000000" x2="492.000000" y2="202.000000"  style="stroke:black; stroke-linecap:round; stroke-width:0.25;"/>
<line x1="482.000000" y1="210.000000" x2="492.000000" y2="210.000000"  style="stroke:black; stroke-linecap:round; stroke-width:0.25;"/>
<line x1="482.000000" y1="218.000000" x2="492.000000" y2="218.000000"  style="stroke:black; stroke-linecap:round; stroke-width:0.25;"/>
<line x1="482.000000" y1="226.000000" x2="492.000000" y2="226.000000"  style="stroke:black; stroke-linecap:round; stroke-width:0.25;"/>
<line x1="482.000000" y1="234.000000" x2="492.000000" y2="234.000000"  style="stroke:black; stroke-linecap:round; stroke-width:0.25;"/>
</svg>
