<?xml version="1.0"?>
<svg xmlns="http://www.w3.org/2000/svg" xmlns:xlink="http://www.w3.org/1999/xlink" viewBox="0 0 500.200000 368.000000" width="250.100000mm" height="184.000000mm" version="1.1">
<rect x="1.000000" y="1.000000" width="499.200000" height="367.000000" rx="0" ry="0" style="stroke:none;fill:#cccccc;"/>
<rect x="0.000000" y="0.000000" width="499.200000" height="367.000000" rx="0" ry="0" style="stroke:none;fill:#ffffff;"/>
<text x="10.000000" y="7.000000" font-family="Arial" font-size="7"></text>
<rect x="33.000000" y="173.000000" width="25.800000" height="24.000000" rx="0" ry="0" style="stroke:none;fill:#cccccc;"/>
<rect x="32.000000" y="172.000000" width="25.800000" height="24.000000" rx="0" ry="0" style="stroke:none;fill:#47945E;"/>
<text x="44.900000" y="186.000000" font-family="Arial" font-size="7" text-anchor="middle" fill="#FFFFFF">[1] x</text>
<circle cx="34.000000" cy="174.000000" r="1"/>
<line x1="29.000000" y1="183.000000" x2="32.000000" y2="184.000000"  transform="rotate(0.000000,32.000000,184.000000)" style="stroke: black; stroke-width:0.25;"/>
<line x1="29.000000" y1="185.000000" x2="32.000000" y2="184.000000"  transform="rotate(0.000000,32.000000,184.000000)" style="stroke: black; stroke-width:0.25;"/>
<rect x="96.800000" y="35.000000" width="180.600000" height="24.000000" rx="0" ry="0" style="stroke:none;fill:#cccccc;"/>
<rect x="95.800000" y="34.000000" width="180.600000" height="24.000000" rx="0" ry="0" style="stroke:none;fill:#477881;"/>
<text x="186.100000" y="48.000000" font-family="Arial" font-size="7" text-anchor="middle" fill="#FFFFFF">nentry(pan, 0.0f, -9e+01f, 9e+01f, 1.0f)</text>
<circle cx="97.800000" cy="36.000000" r="1"/>
<rect x="174.200000" y="67.000000" width="25.800000" height="24.000000" rx="0" ry="0" style="stroke:none;fill:#cccccc;"/>
<rect x="173.200000" y="66.000000" width="25.800000" height="24.000000" rx="0" ry="0" style="stroke:none;fill:#f44800;"/>
<text x="186.100000" y="80.000000" font-family="Arial" font-size="7" text-anchor="middle" fill="#FFFFFF">9e+01f</text>
<circle cx="175.200000" cy="68.000000" r="1"/>
<rect x="293.400000" y="51.000000" width="24.000000" height="24.000000" rx="0" ry="0" style="stroke:none;fill:#cccccc;"/>
<rect x="292.400000" y="50.000000" width="24.000000" height="24.000000" rx="0" ry="0" style="stroke:none;fill:#4B71A1;"/>
<text x="304.400000" y="64.000000" font-family="Arial" font-size="7" text-anchor="middle" fill="#FFFFFF">-</text>
<circle cx="294.400000" cy="52.000000" r="1"/>
<line x1="289.400000" y1="57.000000" x2="292.400000" y2="58.000000"  transform="rotate(0.000000,292.400000,58.000000)" style="stroke: black; stroke-width:0.25;"/>
<line x1="289.400000" y1="59.000000" x2="292.400000" y2="58.000000"  transform="rotate(0.000000,292.400000,58.000000)" style="stroke: black; stroke-width:0.25;"/>
<line x1="289.400000" y1="65.000000" x2="292.400000" y2="66.000000"  transform="rotate(0.000000,292.400000,66.000000)" style="stroke: black; stroke-width:0.25;"/>
<line x1="289.400000" y1="67.000000" x2="292.400000" y2="66.000000"  transform="rotate(0.000000,292.400000,66.000000)" style="stroke: black; stroke-width:0.25;"/>
<rect x="187.750000" y="99.000000" width="38.700000" height="24.000000" rx="0" ry="0" style="stroke:none;fill:#cccccc;"/>
<rect x="186.750000" y="98.000000" width="38.700000" height="24.000000" rx="0" ry="0" style="stroke:none;fill:#f44800;"/>
<text x="206.100000" y="112.000000" font-family="Arial" font-size="7" text-anchor="middle" fill="#FFFFFF">-1.8e+02f</text>
<circle cx="188.750000" cy="100.000000" r="1"/>
<rect x="333.400000" y="67.000000" width="24.000000" height="24.000000" rx="0" ry="0" style="stroke:none;fill:#cccccc;"/>
<rect x="332.400000" y="66.000000" width="24.000000" height="24.000000" rx="0" ry="0" style="stroke:none;fill:#4B71A1;"/>
<text x="344.400000" y="80.000000" font-family="Arial" font-size="7" text-anchor="middle" fill="#FFFFFF">/</text>
<circle cx="334.400000" cy="68.000000" r="1"/>
<line x1="329.400000" y1="73.000000" x2="332.400000" y2="74.000000"  transform="rotate(0.000000,332.400000,74.000000)" style="stroke: black; stroke-width:0.25;"/>
<line x1="329.400000" y1="75.000000" x2="332.400000" y2="74.000000"  transform="rotate(0.000000,332.400000,74.000000)" style="stroke: black; stroke-width:0.25;"/>
<line x1="329.400000" y1="81.000000" x2="332.400000" y2="82.000000"  transform="rotate(0.000000,332.400000,82.000000)" style="stroke: black; stroke-width:0.25;"/>
<line x1="329.400000" y1="83.000000" x2="332.400000" y2="82.000000"  transform="rotate(0.000000,332.400000,82.000000)" style="stroke: black; stroke-width:0.25;"/>
<line x1="86.800000" y1="25.000000" x2="86.800000" y2="131.000000"  style="stroke: black; stroke-linecap:round; stroke-width:0.25; stroke-dasharray:3,3;"/>
<line x1="86.800000" y1="131.000000" x2="365.400000" y2="131.000000"  style="stroke: black; stroke-linecap:round; stroke-width:0.25; stroke-dasharray:3,3;"/>
<line x1="365.400000" y1="131.000000" x2="365.400000" y2="25.000000"  style="stroke: black; stroke-linecap:round; stroke-width:0.25; stroke-dasharray:3,3;"/>
<line x1="86.800000" y1="25.000000" x2="91.800000" y2="25.000000"  style="stroke: black; stroke-linecap:round; stroke-width:0.25; stroke-dasharray:3,3;"/>
<line x1="101.475000" y1="25.000000" x2="365.400000" y2="25.000000"  style="stroke: black; stroke-linecap:round; stroke-width:0.25; stroke-dasharray:3,3;"/>
<text x="91.800000" y="27.000000" font-family="Arial" font-size="7">c</text>
<rect x="375.400000" y="67.000000" width="25.800000" height="24.000000" rx="0" ry="0" style="stroke:none;fill:#cccccc;"/>
<rect x="374.400000" y="66.000000" width="25.800000" height="24.000000" rx="0" ry="0" style="stroke:none;fill:#4B71A1;"/>
<text x="387.300000" y="80.000000" font-family="Arial" font-size="7" text-anchor="middle" fill="#FFFFFF">sqrt</text>
<circle cx="376.400000" cy="68.000000" r="1"/>
<line x1="371.400000" y1="77.000000" x2="374.400000" y2="78.000000"  transform="rotate(0.000000,374.400000,78.000000)" style="stroke: black; stroke-width:0.25;"/>
<line x1="371.400000" y1="79.000000" x2="374.400000" y2="78.000000"  transform="rotate(0.000000,374.400000,78.000000)" style="stroke: black; stroke-width:0.25;"/>
<rect x="231.100000" y="141.000000" width="25.800000" height="24.000000" rx="0" ry="0" style="stroke:none;fill:#cccccc;"/>
<rect x="230.100000" y="140.000000" width="25.800000" height="24.000000" rx="0" ry="0" style="stroke:none;fill:#47945E;"/>
<text x="243.000000" y="154.000000" font-family="Arial" font-size="7" text-anchor="middle" fill="#FFFFFF">[1] x</text>
<circle cx="232.100000" cy="142.000000" r="1"/>
<rect x="417.200000" y="83.000000" width="24.000000" height="24.000000" rx="0" ry="0" style="stroke:none;fill:#cccccc;"/>
<rect x="416.200000" y="82.000000" width="24.000000" height="24.000000" rx="0" ry="0" style="stroke:none;fill:#4B71A1;"/>
<text x="428.200000" y="96.000000" font-family="Arial" font-size="7" text-anchor="middle" fill="#FFFFFF">*</text>
<circle cx="418.200000" cy="84.000000" r="1"/>
<line x1="413.200000" y1="89.000000" x2="416.200000" y2="90.000000"  transform="rotate(0.000000,416.200000,90.000000)" style="stroke: black; stroke-width:0.25;"/>
<line x1="413.200000" y1="91.000000" x2="416.200000" y2="90.000000"  transform="rotate(0.000000,416.200000,90.000000)" style="stroke: black; stroke-width:0.25;"/>
<line x1="413.200000" y1="97.000000" x2="416.200000" y2="98.000000"  transform="rotate(0.000000,416.200000,98.000000)" style="stroke: black; stroke-width:0.25;"/>
<line x1="413.200000" y1="99.000000" x2="416.200000" y2="98.000000"  transform="rotate(0.000000,416.200000,98.000000)" style="stroke: black; stroke-width:0.25;"/>
<rect x="195.100000" y="173.000000" width="24.000000" height="24.000000" rx="0" ry="0" style="stroke:none;fill:#cccccc;"/>
<rect x="194.100000" y="172.000000" width="24.000000" height="24.000000" rx="0" ry="0" style="stroke:none;fill:#f44800;"/>
<text x="206.100000" y="186.000000" font-family="Arial" font-size="7" text-anchor="middle" fill="#FFFFFF">1</text>
<circle cx="196.100000" cy="174.000000" r="1"/>
<rect x="76.800000" y="215.000000" width="180.600000" height="24.000000" rx="0" ry="0" style="stroke:none;fill:#cccccc;"/>
<rect x="75.800000" y="214.000000" width="180.600000" height="24.000000" rx="0" ry="0" style="stroke:none;fill:#477881;"/>
<text x="166.100000" y="228.000000" font-family="Arial" font-size="7" text-anchor="middle" fill="#FFFFFF">nentry(pan, 0.0f, -9e+01f, 9e+01f, 1.0f)</text>
<circle cx="77.800000" cy="216.000000" r="1"/>
<rect x="154.200000" y="247.000000" width="25.800000" height="24.000000" rx="0" ry="0" style="stroke:none;fill:#cccccc;"/>
<rect x="153.200000" y="246.000000" width="25.800000" height="24.000000" rx="0" ry="0" style="stroke:none;fill:#f44800;"/>
<text x="166.100000" y="260.000000" font-family="Arial" font-size="7" text-anchor="middle" fill="#FFFFFF">9e+01f</text>
<circle cx="155.200000" cy="248.000000" r="1"/>
<rect x="273.400000" y="231.000000" width="24.000000" height="24.000000" rx="0" ry="0" style="stroke:none;fill:#cccccc;"/>
<rect x="272.400000" y="230.000000" width="24.000000" height="24.000000" rx="0" ry="0" style="stroke:none;fill:#4B71A1;"/>
<text x="284.400000" y="244.000000" font-family="Arial" font-size="7" text-anchor="middle" fill="#FFFFFF">-</text>
<circle cx="274.400000" cy="232.000000" r="1"/>
<line x1="269.400000" y1="237.000000" x2="272.400000" y2="238.000000"  transform="rotate(0.000000,272.400000,238.000000)" style="stroke: black; stroke-width:0.25;"/>
<line x1="269.400000" y1="239.000000" x2="272.400000" y2="238.000000"  transform="rotate(0.000000,272.400000,238.000000)" style="stroke: black; stroke-width:0.25;"/>
<line x1="269.400000" y1="245.000000" x2="272.400000" y2="246.000000"  transform="rotate(0.000000,272.400000,246.000000)" style="stroke: black; stroke-width:0.25;"/>
<line x1="269.400000" y1="247.000000" x2="272.400000" y2="246.000000"  transform="rotate(0.000000,272.400000,246.000000)" style="stroke: black; stroke-width:0.25;"/>
<rect x="167.750000" y="279.000000" width="38.700000" height="24.000000" rx="0" ry="0" style="stroke:none;fill:#cccccc;"/>
<rect x="166.750000" y="278.000000" width="38.700000" height="24.000000" rx="0" ry="0" style="stroke:none;fill:#f44800;"/>
<text x="186.100000" y="292.000000" font-family="Arial" font-size="7" text-anchor="middle" fill="#FFFFFF">-1.8e+02f</text>
<circle cx="168.750000" cy="280.000000" r="1"/>
<rect x="313.400000" y="247.000000" width="24.000000" height="24.000000" rx="0" ry="0" style="stroke:none;fill:#cccccc;"/>
<rect x="312.400000" y="246.000000" width="24.000000" height="24.000000" rx="0" ry="0" style="stroke:none;fill:#4B71A1;"/>
<text x="324.400000" y="260.000000" font-family="Arial" font-size="7" text-anchor="middle" fill="#FFFFFF">/</text>
<circle cx="314.400000" cy="248.000000" r="1"/>
<line x1="309.400000" y1="253.000000" x2="312.400000" y2="254.000000"  transform="rotate(0.000000,312.400000,254.000000)" style="stroke: black; stroke-width:0.25;"/>
<line x1="309.400000" y1="255.000000" x2="312.400000" y2="254.000000"  transform="rotate(0.000000,312.400000,254.000000)" style="stroke: black; stroke-width:0.25;"/>
<line x1="309.400000" y1="261.000000" x2="312.400000" y2="262.000000"  transform="rotate(0.000000,312.400000,262.000000)" style="stroke: black; stroke-width:0.25;"/>
<line x1="309.400000" y1="263.000000" x2="312.400000" y2="262.000000"  transform="rotate(0.000000,312.400000,262.000000)" style="stroke: black; stroke-width:0.25;"/>
<line x1="66.800000" y1="205.000000" x2="66.800000" y2="311.000000"  style="stroke: black; stroke-linecap:round; stroke-width:0.25; stroke-dasharray:3,3;"/>
<line x1="66.800000" y1="311.000000" x2="345.400000" y2="311.000000"  style="stroke: black; stroke-linecap:round; stroke-width:0.25; stroke-dasharray:3,3;"/>
<line x1="345.400000" y1="311.000000" x2="345.400000" y2="205.000000"  style="stroke: black; stroke-linecap:round; stroke-width:0.25; stroke-dasharray:3,3;"/>
<line x1="66.800000" y1="205.000000" x2="71.800000" y2="205.000000"  style="stroke: black; stroke-linecap:round; stroke-width:0.25; stroke-dasharray:3,3;"/>
<line x1="81.475000" y1="205.000000" x2="345.400000" y2="205.000000"  style="stroke: black; stroke-linecap:round; stroke-width:0.25; stroke-dasharray:3,3;"/>
<text x="71.800000" y="207.000000" font-family="Arial" font-size="7">c</text>
<rect x="363.400000" y="231.000000" width="24.000000" height="24.000000" rx="0" ry="0" style="stroke:none;fill:#cccccc;"/>
<rect x="362.400000" y="230.000000" width="24.000000" height="24.000000" rx="0" ry="0" style="stroke:none;fill:#4B71A1;"/>
<text x="374.400000" y="244.000000" font-family="Arial" font-size="7" text-anchor="middle" fill="#FFFFFF">-</text>
<circle cx="364.400000" cy="232.000000" r="1"/>
<line x1="359.400000" y1="237.000000" x2="362.400000" y2="238.000000"  transform="rotate(0.000000,362.400000,238.000000)" style="stroke: black; stroke-width:0.25;"/>
<line x1="359.400000" y1="239.000000" x2="362.400000" y2="238.000000"  transform="rotate(0.000000,362.400000,238.000000)" style="stroke: black; stroke-width:0.25;"/>
<line x1="359.400000" y1="245.000000" x2="362.400000" y2="246.000000"  transform="rotate(0.000000,362.400000,246.000000)" style="stroke: black; stroke-width:0.25;"/>
<line x1="359.400000" y1="247.000000" x2="362.400000" y2="246.000000"  transform="rotate(0.000000,362.400000,246.000000)" style="stroke: black; stroke-width:0.25;"/>
<rect x="395.400000" y="231.000000" width="25.800000" height="24.000000" rx="0" ry="0" style="stroke:none;fill:#cccccc;"/>
<rect x="394.400000" y="230.000000" width="25.800000" height="24.000000" rx="0" ry="0" style="stroke:none;fill:#4B71A1;"/>
<text x="407.300000" y="244.000000" font-family="Arial" font-size="7" text-anchor="middle" fill="#FFFFFF">sqrt</text>
<circle cx="396.400000" cy="232.000000" r="1"/>
<line x1="391.400000" y1="241.000000" x2="394.400000" y2="242.000000"  transform="rotate(0.000000,394.400000,242.000000)" style="stroke: black; stroke-width:0.25;"/>
<line x1="391.400000" y1="243.000000" x2="394.400000" y2="242.000000"  transform="rotate(0.000000,394.400000,242.000000)" style="stroke: black; stroke-width:0.25;"/>
<rect x="231.100000" y="321.000000" width="25.800000" height="24.000000" rx="0" ry="0" style="stroke:none;fill:#cccccc;"/>
<rect x="230.100000" y="320.000000" width="25.800000" height="24.000000" rx="0" ry="0" style="stroke:none;fill:#47945E;"/>
<text x="243.000000" y="334.000000" font-family="Arial" font-size="7" text-anchor="middle" fill="#FFFFFF">[1] x</text>
<circle cx="232.100000" cy="322.000000" r="1"/>
<rect x="437.200000" y="247.000000" width="24.000000" height="24.000000" rx="0" ry="0" style="stroke:none;fill:#cccccc;"/>
<rect x="436.200000" y="246.000000" width="24.000000" height="24.000000" rx="0" ry="0" style="stroke:none;fill:#4B71A1;"/>
<text x="448.200000" y="260.000000" font-family="Arial" font-size="7" text-anchor="middle" fill="#FFFFFF">*</text>
<circle cx="438.200000" cy="248.000000" r="1"/>
<line x1="433.200000" y1="253.000000" x2="436.200000" y2="254.000000"  transform="rotate(0.000000,436.200000,254.000000)" style="stroke: black; stroke-width:0.25;"/>
<line x1="433.200000" y1="255.000000" x2="436.200000" y2="254.000000"  transform="rotate(0.000000,436.200000,254.000000)" style="stroke: black; stroke-width:0.25;"/>
<line x1="433.200000" y1="261.000000" x2="436.200000" y2="262.000000"  transform="rotate(0.000000,436.200000,262.000000)" style="stroke: black; stroke-width:0.25;"/>
<line x1="433.200000" y1="263.000000" x2="436.200000" y2="262.000000"  transform="rotate(0.000000,436.200000,262.000000)" style="stroke: black; stroke-width:0.25;"/>
<line x1="15.000000" y1="15.000000" x2="15.000000" y2="353.000000"  style="stroke: black; stroke-linecap:round; stroke-width:0.25; stroke-dasharray:3,3;"/>
<line x1="15.000000" y1="353.000000" x2="485.200000" y2="353.000000"  style="stroke: black; stroke-linecap:round; stroke-width:0.25; stroke-dasharray:3,3;"/>
<line x1="485.200000" y1="353.000000" x2="485.200000" y2="15.000000"  style="stroke: black; stroke-linecap:round; stroke-width:0.25; stroke-dasharray:3,3;"/>
<line x1="15.000000" y1="15.000000" x2="20.000000" y2="15.000000"  style="stroke: black; stroke-linecap:round; stroke-width:0.25; stroke-dasharray:3,3;"/>
<line x1="49.025000" y1="15.000000" x2="485.200000" y2="15.000000"  style="stroke: black; stroke-linecap:round; stroke-width:0.25; stroke-dasharray:3,3;"/>
<text x="20.000000" y="17.000000" font-family="Arial" font-size="7">process</text>
<line x1="487.200000" y1="179.000000" x2="490.200000" y2="180.000000"  transform="rotate(0.000000,490.200000,180.000000)" style="stroke: black; stroke-width:0.25;"/>
<line x1="487.200000" y1="181.000000" x2="490.200000" y2="180.000000"  transform="rotate(0.000000,490.200000,180.000000)" style="stroke: black; stroke-width:0.25;"/>
<line x1="487.200000" y1="187.000000" x2="490.200000" y2="188.000000"  transform="rotate(0.000000,490.200000,188.000000)" style="stroke: black; stroke-width:0.25;"/>
<line x1="487.200000" y1="189.000000" x2="490.200000" y2="188.000000"  transform="rotate(0.000000,490.200000,188.000000)" style="stroke: black; stroke-width:0.25;"/>
<line x1="10.000000" y1="184.000000" x2="20.000000" y2="184.000000"  style="stroke:black; stroke-linecap:round; stroke-width:0.25;"/>
<line x1="20.000000" y1="184.000000" x2="24.000000" y2="184.000000"  style="stroke:black; stroke-linecap:round; stroke-width:0.25;"/>
<line x1="24.000000" y1="184.000000" x2="28.000000" y2="184.000000"  style="stroke:black; stroke-linecap:round; stroke-width:0.25;"/>
<line x1="28.000000" y1="184.000000" x2="28.000000" y2="184.000000"  style="stroke:black; stroke-linecap:round; stroke-width:0.25;"/>
<line x1="28.000000" y1="184.000000" x2="32.000000" y2="184.000000"  style="stroke:black; stroke-linecap:round; stroke-width:0.25;"/>
<line x1="179.000000" y1="258.000000" x2="183.000000" y2="258.000000"  style="stroke:black; stroke-linecap:round; stroke-width:0.25;"/>
<line x1="183.000000" y1="258.000000" x2="260.400000" y2="258.000000"  style="stroke:black; stroke-linecap:round; stroke-width:0.25;"/>
<line x1="199.000000" y1="78.000000" x2="203.000000" y2="78.000000"  style="stroke:black; stroke-linecap:round; stroke-width:0.25;"/>
<line x1="203.000000" y1="78.000000" x2="280.400000" y2="78.000000"  style="stroke:black; stroke-linecap:round; stroke-width:0.25;"/>
<line x1="205.450000" y1="290.000000" x2="209.450000" y2="290.000000"  style="stroke:black; stroke-linecap:round; stroke-width:0.25;"/>
<line x1="209.450000" y1="290.000000" x2="300.400000" y2="290.000000"  style="stroke:black; stroke-linecap:round; stroke-width:0.25;"/>
<line x1="218.100000" y1="184.000000" x2="222.100000" y2="184.000000"  style="stroke:black; stroke-linecap:round; stroke-width:0.25;"/>
<line x1="222.100000" y1="184.000000" x2="350.400000" y2="184.000000"  style="stroke:black; stroke-linecap:round; stroke-width:0.25;"/>
<line x1="225.450000" y1="110.000000" x2="229.450000" y2="110.000000"  style="stroke:black; stroke-linecap:round; stroke-width:0.25;"/>
<line x1="229.450000" y1="110.000000" x2="320.400000" y2="110.000000"  style="stroke:black; stroke-linecap:round; stroke-width:0.25;"/>
<line x1="255.900000" y1="152.000000" x2="259.900000" y2="152.000000"  style="stroke:black; stroke-linecap:round; stroke-width:0.25;"/>
<line x1="255.900000" y1="332.000000" x2="259.900000" y2="332.000000"  style="stroke:black; stroke-linecap:round; stroke-width:0.25;"/>
<line x1="256.400000" y1="226.000000" x2="260.400000" y2="226.000000"  style="stroke:black; stroke-linecap:round; stroke-width:0.25;"/>
<line x1="259.900000" y1="152.000000" x2="404.200000" y2="152.000000"  style="stroke:black; stroke-linecap:round; stroke-width:0.25;"/>
<line x1="259.900000" y1="332.000000" x2="424.200000" y2="332.000000"  style="stroke:black; stroke-linecap:round; stroke-width:0.25;"/>
<line x1="260.400000" y1="226.000000" x2="268.400000" y2="226.000000"  style="stroke:black; stroke-linecap:round; stroke-width:0.25;"/>
<line x1="260.400000" y1="246.000000" x2="268.400000" y2="246.000000"  style="stroke:black; stroke-linecap:round; stroke-width:0.25;"/>
<line x1="260.400000" y1="258.000000" x2="260.400000" y2="246.000000"  style="stroke:black; stroke-linecap:round; stroke-width:0.25;"/>
<line x1="260.400000" y1="258.000000" x2="260.400000" y2="258.000000"  style="stroke:black; stroke-linecap:round; stroke-width:0.25;"/>
<line x1="268.400000" y1="226.000000" x2="268.400000" y2="238.000000"  style="stroke:black; stroke-linecap:round; stroke-width:0.25;"/>
<line x1="268.400000" y1="238.000000" x2="268.400000" y2="238.000000"  style="stroke:black; stroke-linecap:round; stroke-width:0.25;"/>
<line x1="268.400000" y1="238.000000" x2="272.400000" y2="238.000000"  style="stroke:black; stroke-linecap:round; stroke-width:0.25;"/>
<line x1="268.400000" y1="246.000000" x2="272.400000" y2="246.000000"  style="stroke:black; stroke-linecap:round; stroke-width:0.25;"/>
<line x1="276.400000" y1="46.000000" x2="280.400000" y2="46.000000"  style="stroke:black; stroke-linecap:round; stroke-width:0.25;"/>
<line x1="280.400000" y1="46.000000" x2="288.400000" y2="46.000000"  style="stroke:black; stroke-linecap:round; stroke-width:0.25;"/>
<line x1="280.400000" y1="66.000000" x2="288.400000" y2="66.000000"  style="stroke:black; stroke-linecap:round; stroke-width:0.25;"/>
<line x1="280.400000" y1="78.000000" x2="280.400000" y2="66.000000"  style="stroke:black; stroke-linecap:round; stroke-width:0.25;"/>
<line x1="280.400000" y1="78.000000" x2="280.400000" y2="78.000000"  style="stroke:black; stroke-linecap:round; stroke-width:0.25;"/>
<line x1="288.400000" y1="46.000000" x2="288.400000" y2="58.000000"  style="stroke:black; stroke-linecap:round; stroke-width:0.25;"/>
<line x1="288.400000" y1="58.000000" x2="288.400000" y2="58.000000"  style="stroke:black; stroke-linecap:round; stroke-width:0.25;"/>
<line x1="288.400000" y1="58.000000" x2="292.400000" y2="58.000000"  style="stroke:black; stroke-linecap:round; stroke-width:0.25;"/>
<line x1="288.400000" y1="66.000000" x2="292.400000" y2="66.000000"  style="stroke:black; stroke-linecap:round; stroke-width:0.25;"/>
<line x1="296.400000" y1="242.000000" x2="300.400000" y2="242.000000"  style="stroke:black; stroke-linecap:round; stroke-width:0.25;"/>
<line x1="300.400000" y1="242.000000" x2="308.400000" y2="242.000000"  style="stroke:black; stroke-linecap:round; stroke-width:0.25;"/>
<line x1="300.400000" y1="262.000000" x2="308.400000" y2="262.000000"  style="stroke:black; stroke-linecap:round; stroke-width:0.25;"/>
<line x1="300.400000" y1="290.000000" x2="300.400000" y2="262.000000"  style="stroke:black; stroke-linecap:round; stroke-width:0.25;"/>
<line x1="300.400000" y1="290.000000" x2="300.400000" y2="290.000000"  style="stroke:black; stroke-linecap:round; stroke-width:0.25;"/>
<line x1="308.400000" y1="242.000000" x2="308.400000" y2="254.000000"  style="stroke:black; stroke-linecap:round; stroke-width:0.25;"/>
<line x1="308.400000" y1="254.000000" x2="308.400000" y2="254.000000"  style="stroke:black; stroke-linecap:round; stroke-width:0.25;"/>
<line x1="308.400000" y1="254.000000" x2="312.400000" y2="254.000000"  style="stroke:black; stroke-linecap:round; stroke-width:0.25;"/>
<line x1="308.400000" y1="262.000000" x2="312.400000" y2="262.000000"  style="stroke:black; stroke-linecap:round; stroke-width:0.25;"/>
<line x1="316.400000" y1="62.000000" x2="320.400000" y2="62.000000"  style="stroke:black; stroke-linecap:round; stroke-width:0.25;"/>
<line x1="320.400000" y1="62.000000" x2="328.400000" y2="62.000000"  style="stroke:black; stroke-linecap:round; stroke-width:0.25;"/>
<line x1="320.400000" y1="82.000000" x2="328.400000" y2="82.000000"  style="stroke:black; stroke-linecap:round; stroke-width:0.25;"/>
<line x1="320.400000" y1="110.000000" x2="320.400000" y2="82.000000"  style="stroke:black; stroke-linecap:round; stroke-width:0.25;"/>
<line x1="320.400000" y1="110.000000" x2="320.400000" y2="110.000000"  style="stroke:black; stroke-linecap:round; stroke-width:0.25;"/>
<line x1="328.400000" y1="62.000000" x2="328.400000" y2="74.000000"  style="stroke:black; stroke-linecap:round; stroke-width:0.25;"/>
<line x1="328.400000" y1="74.000000" x2="328.400000" y2="74.000000"  style="stroke:black; stroke-linecap:round; stroke-width:0.25;"/>
<line x1="328.400000" y1="74.000000" x2="332.400000" y2="74.000000"  style="stroke:black; stroke-linecap:round; stroke-width:0.25;"/>
<line x1="328.400000" y1="82.000000" x2="332.400000" y2="82.000000"  style="stroke:black; stroke-linecap:round; stroke-width:0.25;"/>
<line x1="336.400000" y1="258.000000" x2="340.400000" y2="258.000000"  style="stroke:black; stroke-linecap:round; stroke-width:0.25;"/>
<line x1="340.400000" y1="258.000000" x2="350.400000" y2="258.000000"  style="stroke:black; stroke-linecap:round; stroke-width:0.25;"/>
<line x1="350.400000" y1="246.000000" x2="358.400000" y2="246.000000"  style="stroke:black; stroke-linecap:round; stroke-width:0.25;"/>
<line x1="350.400000" y1="258.000000" x2="350.400000" y2="246.000000"  style="stroke:black; stroke-linecap:round; stroke-width:0.25;"/>
<line x1="350.400000" y1="258.000000" x2="350.400000" y2="258.000000"  style="stroke:black; stroke-linecap:round; stroke-width:0.25;"/>
<line x1="350.400000" y1="184.000000" x2="358.400000" y2="184.000000"  style="stroke:black; stroke-linecap:round; stroke-width:0.25;"/>
<line x1="356.400000" y1="78.000000" x2="360.400000" y2="78.000000"  style="stroke:black; stroke-linecap:round; stroke-width:0.25;"/>
<line x1="358.400000" y1="184.000000" x2="358.400000" y2="238.000000"  style="stroke:black; stroke-linecap:round; stroke-width:0.25;"/>
<line x1="358.400000" y1="238.000000" x2="358.400000" y2="238.000000"  style="stroke:black; stroke-linecap:round; stroke-width:0.25;"/>
<line x1="358.400000" y1="238.000000" x2="362.400000" y2="238.000000"  style="stroke:black; stroke-linecap:round; stroke-width:0.25;"/>
<line x1="358.400000" y1="246.000000" x2="362.400000" y2="246.000000"  style="stroke:black; stroke-linecap:round; stroke-width:0.25;"/>
<line x1="360.400000" y1="78.000000" x2="370.400000" y2="78.000000"  style="stroke:black; stroke-linecap:round; stroke-width:0.25;"/>
<line x1="370.400000" y1="78.000000" x2="370.400000" y2="78.000000"  style="stroke:black; stroke-linecap:round; stroke-width:0.25;"/>
<line x1="370.400000" y1="78.000000" x2="374.400000" y2="78.000000"  style="stroke:black; stroke-linecap:round; stroke-width:0.25;"/>
<line x1="386.400000" y1="242.000000" x2="390.400000" y2="242.000000"  style="stroke:black; stroke-linecap:round; stroke-width:0.25;"/>
<line x1="390.400000" y1="242.000000" x2="390.400000" y2="242.000000"  style="stroke:black; stroke-linecap:round; stroke-width:0.25;"/>
<line x1="390.400000" y1="242.000000" x2="394.400000" y2="242.000000"  style="stroke:black; stroke-linecap:round; stroke-width:0.25;"/>
<line x1="400.200000" y1="78.000000" x2="404.200000" y2="78.000000"  style="stroke:black; stroke-linecap:round; stroke-width:0.25;"/>
<line x1="404.200000" y1="78.000000" x2="412.200000" y2="78.000000"  style="stroke:black; stroke-linecap:round; stroke-width:0.25;"/>
<line x1="404.200000" y1="98.000000" x2="412.200000" y2="98.000000"  style="stroke:black; stroke-linecap:round; stroke-width:0.25;"/>
<line x1="404.200000" y1="152.000000" x2="404.200000" y2="98.000000"  style="stroke:black; stroke-linecap:round; stroke-width:0.25;"/>
<line x1="404.200000" y1="152.000000" x2="404.200000" y2="152.000000"  style="stroke:black; stroke-linecap:round; stroke-width:0.25;"/>
<line x1="412.200000" y1="78.000000" x2="412.200000" y2="90.000000"  style="stroke:black; stroke-linecap:round; stroke-width:0.25;"/>
<line x1="412.200000" y1="90.000000" x2="412.200000" y2="90.000000"  style="stroke:black; stroke-linecap:round; stroke-width:0.25;"/>
<line x1="412.200000" y1="90.000000" x2="416.200000" y2="90.000000"  style="stroke:black; stroke-linecap:round; stroke-width:0.25;"/>
<line x1="412.200000" y1="98.000000" x2="416.200000" y2="98.000000"  style="stroke:black; stroke-linecap:round; stroke-width:0.25;"/>
<line x1="420.200000" y1="242.000000" x2="424.200000" y2="242.000000"  style="stroke:black; stroke-linecap:round; stroke-width:0.25;"/>
<line x1="424.200000" y1="242.000000" x2="432.200000" y2="242.000000"  style="stroke:black; stroke-linecap:round; stroke-width:0.25;"/>
<line x1="424.200000" y1="262.000000" x2="432.200000" y2="262.000000"  style="stroke:black; stroke-linecap:round; stroke-width:0.25;"/>
<line x1="424.200000" y1="332.000000" x2="424.200000" y2="262.000000"  style="stroke:black; stroke-linecap:round; stroke-width:0.25;"/>
<line x1="424.200000" y1="332.000000" x2="424.200000" y2="332.000000"  style="stroke:black; stroke-linecap:round; stroke-width:0.25;"/>
<line x1="432.200000" y1="242.000000" x2="432.200000" y2="254.000000"  style="stroke:black; stroke-linecap:round; stroke-width:0.25;"/>
<line x1="432.200000" y1="254.000000" x2="432.200000" y2="254.000000"  style="stroke:black; stroke-linecap:round; stroke-width:0.25;"/>
<line x1="432.200000" y1="254.000000" x2="436.200000" y2="254.000000"  style="stroke:black; stroke-linecap:round; stroke-width:0.25;"/>
<line x1="432.200000" y1="262.000000" x2="436.200000" y2="262.000000"  style="stroke:black; stroke-linecap:round; stroke-width:0.25;"/>
<line x1="440.200000" y1="94.000000" x2="444.200000" y2="94.000000"  style="stroke:black; stroke-linecap:round; stroke-width:0.25;"/>
<line x1="444.200000" y1="94.000000" x2="464.200000" y2="94.000000"  style="stroke:black; stroke-linecap:round; stroke-width:0.25;"/>
<line x1="460.200000" y1="258.000000" x2="464.200000" y2="258.000000"  style="stroke:black; stroke-linecap:round; stroke-width:0.25;"/>
<line x1="464.200000" y1="94.000000" x2="472.200000" y2="94.000000"  style="stroke:black; stroke-linecap:round; stroke-width:0.25;"/>
<line x1="464.200000" y1="188.000000" x2="472.200000" y2="188.000000"  style="stroke:black; stroke-linecap:round; stroke-width:0.25;"/>
<line x1="464.200000" y1="258.000000" x2="464.200000" y2="188.000000"  style="stroke:black; stroke-linecap:round; stroke-width:0.25;"/>
<line x1="464.200000" y1="258.000000" x2="464.200000" y2="258.000000"  style="stroke:black; stroke-linecap:round; stroke-width:0.25;"/>
<line x1="472.200000" y1="94.000000" x2="472.200000" y2="180.000000"  style="stroke:black; stroke-linecap:round; stroke-width:0.25;"/>
<line x1="472.200000" y1="180.000000" x2="472.200000" y2="180.000000"  style="stroke:black; stroke-linecap:round; stroke-width:0.25;"/>
<line x1="472.200000" y1="180.000000" x2="476.200000" y2="180.000000"  style="stroke:black; stroke-linecap:round; stroke-width:0.25;"/>
<line x1="472.200000" y1="188.000000" x2="476.200000" y2="188.000000"  style="stroke:black; stroke-linecap:round; stroke-width:0.25;"/>
<line x1="476.200000" y1="180.000000" x2="480.200000" y2="180.000000"  style="stroke:black; stroke-linecap:round; stroke-width:0.25;"/>
<line x1="476.200000" y1="188.000000" x2="480.200000" y2="188.000000"  style="stroke:black; stroke-linecap:round; stroke-width:0.25;"/>
<line x1="480.200000" y1="180.000000" x2="490.200000" y2="180.000000"  style="stroke:black; stroke-linecap:round; stroke-width:0.25;"/>
<line x1="480.200000" y1="188.000000" x2="490.200000" y2="188.000000"  style="stroke:black; stroke-linecap:round; stroke-width:0.25;"/>
</svg>
