<?xml version="1.0"?>
<svg xmlns="http://www.w3.org/2000/svg" xmlns:xlink="http://www.w3.org/1999/xlink" viewBox="0 0 140.500000 72.000000" width="70.250000mm" height="36.000000mm" version="1.1">
<rect x="1.000000" y="1.000000" width="139.500000" height="71.000000" rx="0" ry="0" style="stroke:none;fill:#cccccc;"/>
<rect x="0.000000" y="0.000000" width="139.500000" height="71.000000" rx="0" ry="0" style="stroke:none;fill:#ffffff;"/>
<text x="10.000000" y="7.000000" font-family="Arial" font-size="7"></text>
<a xlink:href="guitar-0x60001cf72be0.svg">
<rect x="25.000000" y="25.000000" width="64.500000" height="24.000000" rx="0" ry="0" style="stroke:none;fill:#cccccc;"/>
<rect x="24.000000" y="24.000000" width="64.500000" height="24.000000" rx="0" ry="0" style="stroke:none;fill:#003366;"/>
</a>
<a xlink:href="guitar-0x60001cf72be0.svg">
<text x="56.250000" y="38.000000" font-family="Arial" font-size="7" text-anchor="middle" fill="#FFFFFF">guitar_ui_MIDI</text>
</a>
<circle cx="26.000000" cy="26.000000" r="1"/>
<line x1="15.000000" y1="15.000000" x2="15.000000" y2="57.000000"  style="stroke: black; stroke-linecap:round; stroke-width:0.25; stroke-dasharray:3,3;"/>
<line x1="15.000000" y1="57.000000" x2="125.500000" y2="57.000000"  style="stroke: black; stroke-linecap:round; stroke-width:0.25; stroke-dasharray:3,3;"/>
<line x1="125.500000" y1="57.000000" x2="125.500000" y2="15.000000"  style="stroke: black; stroke-linecap:round; stroke-width:0.25; stroke-dasharray:3,3;"/>
<line x1="15.000000" y1="15.000000" x2="20.000000" y2="15.000000"  style="stroke: black; stroke-linecap:round; stroke-width:0.25; stroke-dasharray:3,3;"/>
<line x1="49.025000" y1="15.000000" x2="125.500000" y2="15.000000"  style="stroke: black; stroke-linecap:round; stroke-width:0.25; stroke-dasharray:3,3;"/>
<text x="20.000000" y="17.000000" font-family="Arial" font-size="7">process</text>
<line x1="127.500000" y1="31.000000" x2="130.500000" y2="32.000000"  transform="rotate(0.000000,130.500000,32.000000)" style="stroke: black; stroke-width:0.25;"/>
<line x1="127.500000" y1="33.000000" x2="130.500000" y2="32.000000"  transform="rotate(0.000000,130.500000,32.000000)" style="stroke: black; stroke-width:0.25;"/>
<line x1="127.500000" y1="39.000000" x2="130.500000" y2="40.000000"  transform="rotate(0.000000,130.500000,40.000000)" style="stroke: black; stroke-width:0.25;"/>
<line x1="127.500000" y1="41.000000" x2="130.500000" y2="40.000000"  transform="rotate(0.000000,130.500000,40.000000)" style="stroke: black; stroke-width:0.25;"/>
<line x1="88.500000" y1="36.000000" x2="92.500000" y2="36.000000"  style="stroke:black; stroke-linecap:round; stroke-width:0.25;"/>
<line x1="92.500000" y1="36.000000" x2="104.500000" y2="32.000000"  style="stroke:black; stroke-linecap:round; stroke-width:0.25;"/>
<line x1="92.500000" y1="36.000000" x2="104.500000" y2="40.000000"  style="stroke:black; stroke-linecap:round; stroke-width:0.25;"/>
<line x1="104.500000" y1="32.000000" x2="108.500000" y2="32.000000"  style="stroke:black; stroke-linecap:round; stroke-width:0.25;"/>
<line x1="104.500000" y1="40.000000" x2="108.500000" y2="40.000000"  style="stroke:black; stroke-linecap:round; stroke-width:0.25;"/>
<line x1="108.500000" y1="32.000000" x2="112.500000" y2="32.000000"  style="stroke:black; stroke-linecap:round; stroke-width:0.25;"/>
<line x1="108.500000" y1="40.000000" x2="112.500000" y2="40.000000"  style="stroke:black; stroke-linecap:round; stroke-width:0.25;"/>
<line x1="112.500000" y1="32.000000" x2="112.500000" y2="32.000000"  style="stroke:black; stroke-linecap:round; stroke-width:0.25;"/>
<line x1="112.500000" y1="32.000000" x2="116.500000" y2="32.000000"  style="stroke:black; stroke-linecap:round; stroke-width:0.25;"/>
<line x1="112.500000" y1="40.000000" x2="112.500000" y2="40.000000"  style="stroke:black; stroke-linecap:round; stroke-width:0.25;"/>
<line x1="112.500000" y1="40.000000" x2="116.500000" y2="40.000000"  style="stroke:black; stroke-linecap:round; stroke-width:0.25;"/>
<line x1="116.500000" y1="32.000000" x2="120.500000" y2="32.000000"  style="stroke:black; stroke-linecap:round; stroke-width:0.25;"/>
<line x1="116.500000" y1="40.000000" x2="120.500000" y2="40.000000"  style="stroke:black; stroke-linecap:round; stroke-width:0.25;"/>
<line x1="120.500000" y1="32.000000" x2="130.500000" y2="32.000000"  style="stroke:black; stroke-linecap:round; stroke-width:0.25;"/>
<line x1="120.500000" y1="40.000000" x2="130.500000" y2="40.000000"  style="stroke:black; stroke-linecap:round; stroke-width:0.25;"/>
</svg>
