<?xml version="1.0"?>
<svg xmlns="http://www.w3.org/2000/svg" xmlns:xlink="http://www.w3.org/1999/xlink" viewBox="0 0 323.700000 176.000000" width="161.850000mm" height="88.000000mm" version="1.1">
<rect x="1.000000" y="1.000000" width="322.700000" height="175.000000" rx="0" ry="0" style="stroke:none;fill:#cccccc;"/>
<rect x="0.000000" y="0.000000" width="322.700000" height="175.000000" rx="0" ry="0" style="stroke:none;fill:#ffffff;"/>
<text x="10.000000" y="7.000000" font-family="Arial" font-size="7"></text>
<a xlink:href="organ-0x7fd75009acd0.svg">
<rect x="54.350000" y="25.000000" width="129.000000" height="24.000000" rx="0" ry="0" style="stroke:none;fill:#cccccc;"/>
<rect x="53.350000" y="24.000000" width="129.000000" height="24.000000" rx="0" ry="0" style="stroke:none;fill:#003366;"/>
</a>
<a xlink:href="organ-0x7fd75009acd0.svg">
<text x="117.850000" y="38.000000" font-family="Arial" font-size="7" text-anchor="middle" fill="#FFFFFF">organ(hslider...+03f, 0.01f))</text>
</a>
<circle cx="55.350000" cy="26.000000" r="1"/>
<rect x="35.000000" y="67.000000" width="167.700000" height="24.000000" rx="0" ry="0" style="stroke:none;fill:#cccccc;"/>
<rect x="34.000000" y="66.000000" width="167.700000" height="24.000000" rx="0" ry="0" style="stroke:none;fill:#477881;"/>
<text x="117.850000" y="80.000000" font-family="Arial" font-size="7" text-anchor="middle" fill="#FFFFFF">hslider(gain, 1.0f, 0.0f, 1.0f, 0.01f)</text>
<circle cx="36.000000" cy="68.000000" r="1"/>
<line x1="25.000000" y1="57.000000" x2="25.000000" y2="99.000000"  style="stroke: black; stroke-linecap:round; stroke-width:0.25; stroke-dasharray:3,3;"/>
<line x1="25.000000" y1="99.000000" x2="210.700000" y2="99.000000"  style="stroke: black; stroke-linecap:round; stroke-width:0.25; stroke-dasharray:3,3;"/>
<line x1="210.700000" y1="99.000000" x2="210.700000" y2="57.000000"  style="stroke: black; stroke-linecap:round; stroke-width:0.25; stroke-dasharray:3,3;"/>
<line x1="25.000000" y1="57.000000" x2="30.000000" y2="57.000000"  style="stroke: black; stroke-linecap:round; stroke-width:0.25; stroke-dasharray:3,3;"/>
<line x1="39.675000" y1="57.000000" x2="210.700000" y2="57.000000"  style="stroke: black; stroke-linecap:round; stroke-width:0.25; stroke-dasharray:3,3;"/>
<text x="30.000000" y="59.000000" font-family="Arial" font-size="7">g</text>
<rect x="228.700000" y="51.000000" width="24.000000" height="24.000000" rx="0" ry="0" style="stroke:none;fill:#cccccc;"/>
<rect x="227.700000" y="50.000000" width="24.000000" height="24.000000" rx="0" ry="0" style="stroke:none;fill:#4B71A1;"/>
<text x="239.700000" y="64.000000" font-family="Arial" font-size="7" text-anchor="middle" fill="#FFFFFF">*</text>
<circle cx="229.700000" cy="52.000000" r="1"/>
<line x1="224.700000" y1="57.000000" x2="227.700000" y2="58.000000"  transform="rotate(0.000000,227.700000,58.000000)" style="stroke: black; stroke-width:0.25;"/>
<line x1="224.700000" y1="59.000000" x2="227.700000" y2="58.000000"  transform="rotate(0.000000,227.700000,58.000000)" style="stroke: black; stroke-width:0.25;"/>
<line x1="224.700000" y1="65.000000" x2="227.700000" y2="66.000000"  transform="rotate(0.000000,227.700000,66.000000)" style="stroke: black; stroke-width:0.25;"/>
<line x1="224.700000" y1="67.000000" x2="227.700000" y2="66.000000"  transform="rotate(0.000000,227.700000,66.000000)" style="stroke: black; stroke-width:0.25;"/>
<rect x="113.050000" y="119.000000" width="51.600000" height="24.000000" rx="0" ry="0" style="stroke:none;fill:#cccccc;"/>
<rect x="112.050000" y="118.000000" width="51.600000" height="24.000000" rx="0" ry="0" style="stroke:none;fill:#477881;"/>
<text x="137.850000" y="132.000000" font-family="Arial" font-size="7" text-anchor="middle" fill="#FFFFFF">button(gate)</text>
<circle cx="114.050000" cy="120.000000" r="1"/>
<line x1="103.050000" y1="109.000000" x2="103.050000" y2="151.000000"  style="stroke: black; stroke-linecap:round; stroke-width:0.25; stroke-dasharray:3,3;"/>
<line x1="103.050000" y1="151.000000" x2="172.650000" y2="151.000000"  style="stroke: black; stroke-linecap:round; stroke-width:0.25; stroke-dasharray:3,3;"/>
<line x1="172.650000" y1="151.000000" x2="172.650000" y2="109.000000"  style="stroke: black; stroke-linecap:round; stroke-width:0.25; stroke-dasharray:3,3;"/>
<line x1="103.050000" y1="109.000000" x2="108.050000" y2="109.000000"  style="stroke: black; stroke-linecap:round; stroke-width:0.25; stroke-dasharray:3,3;"/>
<line x1="117.725000" y1="109.000000" x2="172.650000" y2="109.000000"  style="stroke: black; stroke-linecap:round; stroke-width:0.25; stroke-dasharray:3,3;"/>
<text x="108.050000" y="111.000000" font-family="Arial" font-size="7">t</text>
<rect x="268.700000" y="77.000000" width="24.000000" height="24.000000" rx="0" ry="0" style="stroke:none;fill:#cccccc;"/>
<rect x="267.700000" y="76.000000" width="24.000000" height="24.000000" rx="0" ry="0" style="stroke:none;fill:#4B71A1;"/>
<text x="279.700000" y="90.000000" font-family="Arial" font-size="7" text-anchor="middle" fill="#FFFFFF">*</text>
<circle cx="269.700000" cy="78.000000" r="1"/>
<line x1="264.700000" y1="83.000000" x2="267.700000" y2="84.000000"  transform="rotate(0.000000,267.700000,84.000000)" style="stroke: black; stroke-width:0.25;"/>
<line x1="264.700000" y1="85.000000" x2="267.700000" y2="84.000000"  transform="rotate(0.000000,267.700000,84.000000)" style="stroke: black; stroke-width:0.25;"/>
<line x1="264.700000" y1="91.000000" x2="267.700000" y2="92.000000"  transform="rotate(0.000000,267.700000,92.000000)" style="stroke: black; stroke-width:0.25;"/>
<line x1="264.700000" y1="93.000000" x2="267.700000" y2="92.000000"  transform="rotate(0.000000,267.700000,92.000000)" style="stroke: black; stroke-width:0.25;"/>
<line x1="15.000000" y1="15.000000" x2="15.000000" y2="161.000000"  style="stroke: black; stroke-linecap:round; stroke-width:0.25; stroke-dasharray:3,3;"/>
<line x1="15.000000" y1="161.000000" x2="308.700000" y2="161.000000"  style="stroke: black; stroke-linecap:round; stroke-width:0.25; stroke-dasharray:3,3;"/>
<line x1="308.700000" y1="161.000000" x2="308.700000" y2="15.000000"  style="stroke: black; stroke-linecap:round; stroke-width:0.25; stroke-dasharray:3,3;"/>
<line x1="15.000000" y1="15.000000" x2="20.000000" y2="15.000000"  style="stroke: black; stroke-linecap:round; stroke-width:0.25; stroke-dasharray:3,3;"/>
<line x1="49.025000" y1="15.000000" x2="308.700000" y2="15.000000"  style="stroke: black; stroke-linecap:round; stroke-width:0.25; stroke-dasharray:3,3;"/>
<text x="20.000000" y="17.000000" font-family="Arial" font-size="7">process</text>
<line x1="310.700000" y1="87.000000" x2="313.700000" y2="88.000000"  transform="rotate(0.000000,313.700000,88.000000)" style="stroke: black; stroke-width:0.25;"/>
<line x1="310.700000" y1="89.000000" x2="313.700000" y2="88.000000"  transform="rotate(0.000000,313.700000,88.000000)" style="stroke: black; stroke-width:0.25;"/>
<line x1="163.650000" y1="130.000000" x2="167.650000" y2="130.000000"  style="stroke:black; stroke-linecap:round; stroke-width:0.25;"/>
<line x1="167.650000" y1="130.000000" x2="177.650000" y2="130.000000"  style="stroke:black; stroke-linecap:round; stroke-width:0.25;"/>
<line x1="177.650000" y1="130.000000" x2="255.700000" y2="130.000000"  style="stroke:black; stroke-linecap:round; stroke-width:0.25;"/>
<line x1="182.350000" y1="36.000000" x2="186.350000" y2="36.000000"  style="stroke:black; stroke-linecap:round; stroke-width:0.25;"/>
<line x1="186.350000" y1="36.000000" x2="215.700000" y2="36.000000"  style="stroke:black; stroke-linecap:round; stroke-width:0.25;"/>
<line x1="201.700000" y1="78.000000" x2="205.700000" y2="78.000000"  style="stroke:black; stroke-linecap:round; stroke-width:0.25;"/>
<line x1="205.700000" y1="78.000000" x2="215.700000" y2="78.000000"  style="stroke:black; stroke-linecap:round; stroke-width:0.25;"/>
<line x1="215.700000" y1="36.000000" x2="223.700000" y2="36.000000"  style="stroke:black; stroke-linecap:round; stroke-width:0.25;"/>
<line x1="215.700000" y1="66.000000" x2="223.700000" y2="66.000000"  style="stroke:black; stroke-linecap:round; stroke-width:0.25;"/>
<line x1="215.700000" y1="78.000000" x2="215.700000" y2="66.000000"  style="stroke:black; stroke-linecap:round; stroke-width:0.25;"/>
<line x1="215.700000" y1="78.000000" x2="215.700000" y2="78.000000"  style="stroke:black; stroke-linecap:round; stroke-width:0.25;"/>
<line x1="223.700000" y1="36.000000" x2="223.700000" y2="58.000000"  style="stroke:black; stroke-linecap:round; stroke-width:0.25;"/>
<line x1="223.700000" y1="58.000000" x2="223.700000" y2="58.000000"  style="stroke:black; stroke-linecap:round; stroke-width:0.25;"/>
<line x1="223.700000" y1="58.000000" x2="227.700000" y2="58.000000"  style="stroke:black; stroke-linecap:round; stroke-width:0.25;"/>
<line x1="223.700000" y1="66.000000" x2="227.700000" y2="66.000000"  style="stroke:black; stroke-linecap:round; stroke-width:0.25;"/>
<line x1="251.700000" y1="62.000000" x2="255.700000" y2="62.000000"  style="stroke:black; stroke-linecap:round; stroke-width:0.25;"/>
<line x1="255.700000" y1="62.000000" x2="263.700000" y2="62.000000"  style="stroke:black; stroke-linecap:round; stroke-width:0.25;"/>
<line x1="255.700000" y1="92.000000" x2="263.700000" y2="92.000000"  style="stroke:black; stroke-linecap:round; stroke-width:0.25;"/>
<line x1="255.700000" y1="130.000000" x2="255.700000" y2="92.000000"  style="stroke:black; stroke-linecap:round; stroke-width:0.25;"/>
<line x1="255.700000" y1="130.000000" x2="255.700000" y2="130.000000"  style="stroke:black; stroke-linecap:round; stroke-width:0.25;"/>
<line x1="263.700000" y1="62.000000" x2="263.700000" y2="84.000000"  style="stroke:black; stroke-linecap:round; stroke-width:0.25;"/>
<line x1="263.700000" y1="84.000000" x2="263.700000" y2="84.000000"  style="stroke:black; stroke-linecap:round; stroke-width:0.25;"/>
<line x1="263.700000" y1="84.000000" x2="267.700000" y2="84.000000"  style="stroke:black; stroke-linecap:round; stroke-width:0.25;"/>
<line x1="263.700000" y1="92.000000" x2="267.700000" y2="92.000000"  style="stroke:black; stroke-linecap:round; stroke-width:0.25;"/>
<line x1="291.700000" y1="88.000000" x2="295.700000" y2="88.000000"  style="stroke:black; stroke-linecap:round; stroke-width:0.25;"/>
<line x1="295.700000" y1="88.000000" x2="295.700000" y2="88.000000"  style="stroke:black; stroke-linecap:round; stroke-width:0.25;"/>
<line x1="295.700000" y1="88.000000" x2="299.700000" y2="88.000000"  style="stroke:black; stroke-linecap:round; stroke-width:0.25;"/>
<line x1="299.700000" y1="88.000000" x2="303.700000" y2="88.000000"  style="stroke:black; stroke-linecap:round; stroke-width:0.25;"/>
<line x1="303.700000" y1="88.000000" x2="313.700000" y2="88.000000"  style="stroke:black; stroke-linecap:round; stroke-width:0.25;"/>
</svg>
