<?xml version="1.0"?>
<svg xmlns="http://www.w3.org/2000/svg" xmlns:xlink="http://www.w3.org/1999/xlink" viewBox="0 0 348.600000 156.000000" width="174.300000mm" height="78.000000mm" version="1.1">
<a xlink:href="conv3-0x7f85e6f2df90.svg">
<rect x="1.000000" y="1.000000" width="347.600000" height="155.000000" rx="0" ry="0" style="stroke:none;fill:#cccccc;"/>
<rect x="0.000000" y="0.000000" width="347.600000" height="155.000000" rx="0" ry="0" style="stroke:none;fill:#ffffff;"/>
</a>
<text x="10.000000" y="7.000000" font-family="Arial" font-size="7"></text>
<rect x="95.950000" y="35.000000" width="38.700000" height="24.000000" rx="0" ry="0" style="stroke:none;fill:#cccccc;"/>
<rect x="94.950000" y="34.000000" width="38.700000" height="24.000000" rx="0" ry="0" style="stroke:none;fill:#f44800;"/>
<text x="114.300000" y="48.000000" font-family="Arial" font-size="7" text-anchor="middle" fill="#FFFFFF">3.14159</text>
<circle cx="96.950000" cy="36.000000" r="1"/>
<line x1="85.950000" y1="25.000000" x2="85.950000" y2="67.000000"  style="stroke: black; stroke-linecap:round; stroke-width:0.25; stroke-dasharray:3,3;"/>
<line x1="85.950000" y1="67.000000" x2="142.650000" y2="67.000000"  style="stroke: black; stroke-linecap:round; stroke-width:0.25; stroke-dasharray:3,3;"/>
<line x1="142.650000" y1="67.000000" x2="142.650000" y2="25.000000"  style="stroke: black; stroke-linecap:round; stroke-width:0.25; stroke-dasharray:3,3;"/>
<line x1="85.950000" y1="25.000000" x2="90.950000" y2="25.000000"  style="stroke: black; stroke-linecap:round; stroke-width:0.25; stroke-dasharray:3,3;"/>
<line x1="103.850000" y1="25.000000" x2="142.650000" y2="25.000000"  style="stroke: black; stroke-linecap:round; stroke-width:0.25; stroke-dasharray:3,3;"/>
<text x="90.950000" y="27.000000" font-family="Arial" font-size="7">PI</text>
<rect x="25.000000" y="77.000000" width="180.600000" height="24.000000" rx="0" ry="0" style="stroke:none;fill:#cccccc;"/>
<rect x="24.000000" y="76.000000" width="180.600000" height="24.000000" rx="0" ry="0" style="stroke:none;fill:#477881;"/>
<text x="114.300000" y="90.000000" font-family="Arial" font-size="7" text-anchor="middle" fill="#FFFFFF">nentry(freq, 100.0f, 20.0f, 150.0f, 1.0f)</text>
<circle cx="26.000000" cy="78.000000" r="1"/>
<rect x="221.600000" y="51.000000" width="24.000000" height="24.000000" rx="0" ry="0" style="stroke:none;fill:#cccccc;"/>
<rect x="220.600000" y="50.000000" width="24.000000" height="24.000000" rx="0" ry="0" style="stroke:none;fill:#4B71A1;"/>
<text x="232.600000" y="64.000000" font-family="Arial" font-size="7" text-anchor="middle" fill="#FFFFFF">*</text>
<circle cx="222.600000" cy="52.000000" r="1"/>
<line x1="217.600000" y1="57.000000" x2="220.600000" y2="58.000000"  transform="rotate(0.000000,220.600000,58.000000)" style="stroke: black; stroke-width:0.25;"/>
<line x1="217.600000" y1="59.000000" x2="220.600000" y2="58.000000"  transform="rotate(0.000000,220.600000,58.000000)" style="stroke: black; stroke-width:0.25;"/>
<line x1="217.600000" y1="65.000000" x2="220.600000" y2="66.000000"  transform="rotate(0.000000,220.600000,66.000000)" style="stroke: black; stroke-width:0.25;"/>
<line x1="217.600000" y1="67.000000" x2="220.600000" y2="66.000000"  transform="rotate(0.000000,220.600000,66.000000)" style="stroke: black; stroke-width:0.25;"/>
<a xlink:href="SR-0x7f85e6cc25e0.svg">
<rect x="123.300000" y="109.000000" width="24.000000" height="24.000000" rx="0" ry="0" style="stroke:none;fill:#cccccc;"/>
<rect x="122.300000" y="108.000000" width="24.000000" height="24.000000" rx="0" ry="0" style="stroke:none;fill:#003366;"/>
</a>
<a xlink:href="SR-0x7f85e6cc25e0.svg">
<text x="134.300000" y="122.000000" font-family="Arial" font-size="7" text-anchor="middle" fill="#FFFFFF">SR</text>
</a>
<circle cx="124.300000" cy="110.000000" r="1"/>
<rect x="261.600000" y="67.000000" width="24.000000" height="24.000000" rx="0" ry="0" style="stroke:none;fill:#cccccc;"/>
<rect x="260.600000" y="66.000000" width="24.000000" height="24.000000" rx="0" ry="0" style="stroke:none;fill:#4B71A1;"/>
<text x="272.600000" y="80.000000" font-family="Arial" font-size="7" text-anchor="middle" fill="#FFFFFF">/</text>
<circle cx="262.600000" cy="68.000000" r="1"/>
<line x1="257.600000" y1="73.000000" x2="260.600000" y2="74.000000"  transform="rotate(0.000000,260.600000,74.000000)" style="stroke: black; stroke-width:0.25;"/>
<line x1="257.600000" y1="75.000000" x2="260.600000" y2="74.000000"  transform="rotate(0.000000,260.600000,74.000000)" style="stroke: black; stroke-width:0.25;"/>
<line x1="257.600000" y1="81.000000" x2="260.600000" y2="82.000000"  transform="rotate(0.000000,260.600000,82.000000)" style="stroke: black; stroke-width:0.25;"/>
<line x1="257.600000" y1="83.000000" x2="260.600000" y2="82.000000"  transform="rotate(0.000000,260.600000,82.000000)" style="stroke: black; stroke-width:0.25;"/>
<rect x="293.600000" y="67.000000" width="24.000000" height="24.000000" rx="0" ry="0" style="stroke:none;fill:#cccccc;"/>
<rect x="292.600000" y="66.000000" width="24.000000" height="24.000000" rx="0" ry="0" style="stroke:none;fill:#4B71A1;"/>
<text x="304.600000" y="80.000000" font-family="Arial" font-size="7" text-anchor="middle" fill="#FFFFFF">tan</text>
<circle cx="294.600000" cy="68.000000" r="1"/>
<line x1="289.600000" y1="77.000000" x2="292.600000" y2="78.000000"  transform="rotate(0.000000,292.600000,78.000000)" style="stroke: black; stroke-width:0.25;"/>
<line x1="289.600000" y1="79.000000" x2="292.600000" y2="78.000000"  transform="rotate(0.000000,292.600000,78.000000)" style="stroke: black; stroke-width:0.25;"/>
<line x1="15.000000" y1="15.000000" x2="15.000000" y2="141.000000"  style="stroke: black; stroke-linecap:round; stroke-width:0.25; stroke-dasharray:3,3;"/>
<line x1="15.000000" y1="141.000000" x2="333.600000" y2="141.000000"  style="stroke: black; stroke-linecap:round; stroke-width:0.25; stroke-dasharray:3,3;"/>
<line x1="333.600000" y1="141.000000" x2="333.600000" y2="15.000000"  style="stroke: black; stroke-linecap:round; stroke-width:0.25; stroke-dasharray:3,3;"/>
<line x1="15.000000" y1="15.000000" x2="20.000000" y2="15.000000"  style="stroke: black; stroke-linecap:round; stroke-width:0.25; stroke-dasharray:3,3;"/>
<line x1="29.675000" y1="15.000000" x2="333.600000" y2="15.000000"  style="stroke: black; stroke-linecap:round; stroke-width:0.25; stroke-dasharray:3,3;"/>
<text x="20.000000" y="17.000000" font-family="Arial" font-size="7">K</text>
<line x1="335.600000" y1="77.000000" x2="338.600000" y2="78.000000"  transform="rotate(0.000000,338.600000,78.000000)" style="stroke: black; stroke-width:0.25;"/>
<line x1="335.600000" y1="79.000000" x2="338.600000" y2="78.000000"  transform="rotate(0.000000,338.600000,78.000000)" style="stroke: black; stroke-width:0.25;"/>
<line x1="133.650000" y1="46.000000" x2="137.650000" y2="46.000000"  style="stroke:black; stroke-linecap:round; stroke-width:0.25;"/>
<line x1="137.650000" y1="46.000000" x2="147.650000" y2="46.000000"  style="stroke:black; stroke-linecap:round; stroke-width:0.25;"/>
<line x1="146.300000" y1="120.000000" x2="150.300000" y2="120.000000"  style="stroke:black; stroke-linecap:round; stroke-width:0.25;"/>
<line x1="147.650000" y1="46.000000" x2="208.600000" y2="46.000000"  style="stroke:black; stroke-linecap:round; stroke-width:0.25;"/>
<line x1="150.300000" y1="120.000000" x2="248.600000" y2="120.000000"  style="stroke:black; stroke-linecap:round; stroke-width:0.25;"/>
<line x1="204.600000" y1="88.000000" x2="208.600000" y2="88.000000"  style="stroke:black; stroke-linecap:round; stroke-width:0.25;"/>
<line x1="208.600000" y1="66.000000" x2="216.600000" y2="66.000000"  style="stroke:black; stroke-linecap:round; stroke-width:0.25;"/>
<line x1="208.600000" y1="88.000000" x2="208.600000" y2="66.000000"  style="stroke:black; stroke-linecap:round; stroke-width:0.25;"/>
<line x1="208.600000" y1="88.000000" x2="208.600000" y2="88.000000"  style="stroke:black; stroke-linecap:round; stroke-width:0.25;"/>
<line x1="208.600000" y1="46.000000" x2="216.600000" y2="46.000000"  style="stroke:black; stroke-linecap:round; stroke-width:0.25;"/>
<line x1="216.600000" y1="58.000000" x2="220.600000" y2="58.000000"  style="stroke:black; stroke-linecap:round; stroke-width:0.25;"/>
<line x1="216.600000" y1="66.000000" x2="220.600000" y2="66.000000"  style="stroke:black; stroke-linecap:round; stroke-width:0.25;"/>
<line x1="216.600000" y1="46.000000" x2="216.600000" y2="58.000000"  style="stroke:black; stroke-linecap:round; stroke-width:0.25;"/>
<line x1="216.600000" y1="58.000000" x2="216.600000" y2="58.000000"  style="stroke:black; stroke-linecap:round; stroke-width:0.25;"/>
<line x1="244.600000" y1="62.000000" x2="248.600000" y2="62.000000"  style="stroke:black; stroke-linecap:round; stroke-width:0.25;"/>
<line x1="248.600000" y1="62.000000" x2="256.600000" y2="62.000000"  style="stroke:black; stroke-linecap:round; stroke-width:0.25;"/>
<line x1="248.600000" y1="82.000000" x2="256.600000" y2="82.000000"  style="stroke:black; stroke-linecap:round; stroke-width:0.25;"/>
<line x1="248.600000" y1="120.000000" x2="248.600000" y2="82.000000"  style="stroke:black; stroke-linecap:round; stroke-width:0.25;"/>
<line x1="248.600000" y1="120.000000" x2="248.600000" y2="120.000000"  style="stroke:black; stroke-linecap:round; stroke-width:0.25;"/>
<line x1="256.600000" y1="62.000000" x2="256.600000" y2="74.000000"  style="stroke:black; stroke-linecap:round; stroke-width:0.25;"/>
<line x1="256.600000" y1="74.000000" x2="256.600000" y2="74.000000"  style="stroke:black; stroke-linecap:round; stroke-width:0.25;"/>
<line x1="256.600000" y1="74.000000" x2="260.600000" y2="74.000000"  style="stroke:black; stroke-linecap:round; stroke-width:0.25;"/>
<line x1="256.600000" y1="82.000000" x2="260.600000" y2="82.000000"  style="stroke:black; stroke-linecap:round; stroke-width:0.25;"/>
<line x1="284.600000" y1="78.000000" x2="288.600000" y2="78.000000"  style="stroke:black; stroke-linecap:round; stroke-width:0.25;"/>
<line x1="288.600000" y1="78.000000" x2="288.600000" y2="78.000000"  style="stroke:black; stroke-linecap:round; stroke-width:0.25;"/>
<line x1="288.600000" y1="78.000000" x2="292.600000" y2="78.000000"  style="stroke:black; stroke-linecap:round; stroke-width:0.25;"/>
<line x1="316.600000" y1="78.000000" x2="320.600000" y2="78.000000"  style="stroke:black; stroke-linecap:round; stroke-width:0.25;"/>
<line x1="320.600000" y1="78.000000" x2="320.600000" y2="78.000000"  style="stroke:black; stroke-linecap:round; stroke-width:0.25;"/>
<line x1="320.600000" y1="78.000000" x2="324.600000" y2="78.000000"  style="stroke:black; stroke-linecap:round; stroke-width:0.25;"/>
<line x1="324.600000" y1="78.000000" x2="328.600000" y2="78.000000"  style="stroke:black; stroke-linecap:round; stroke-width:0.25;"/>
<line x1="328.600000" y1="78.000000" x2="338.600000" y2="78.000000"  style="stroke:black; stroke-linecap:round; stroke-width:0.25;"/>
</svg>
