<?xml version="1.0"?>
<svg xmlns="http://www.w3.org/2000/svg" xmlns:xlink="http://www.w3.org/1999/xlink" viewBox="0 0 407.800000 108.000000" width="203.900000mm" height="54.000000mm" version="1.1">
<rect x="1.000000" y="1.000000" width="406.800000" height="107.000000" rx="0" ry="0" style="stroke:none;fill:#cccccc;"/>
<rect x="0.000000" y="0.000000" width="406.800000" height="107.000000" rx="0" ry="0" style="stroke:none;fill:#ffffff;"/>
<text x="10.000000" y="7.000000" font-family="Arial" font-size="7"></text>
<a xlink:href="osc-0x7f2ef81a7aa0.svg">
<rect x="37.900000" y="27.000000" width="38.700000" height="24.000000" rx="0" ry="0" style="stroke:none;fill:#cccccc;"/>
<rect x="36.900000" y="26.000000" width="38.700000" height="24.000000" rx="0" ry="0" style="stroke:none;fill:#003366;"/>
</a>
<a xlink:href="osc-0x7f2ef81a7aa0.svg">
<text x="56.250000" y="40.000000" font-family="Arial" font-size="7" text-anchor="middle" fill="#FFFFFF">osc(440)</text>
</a>
<circle cx="38.900000" cy="28.000000" r="1"/>
<a xlink:href="sawtooth-0x7f2ef80f5380.svg">
<rect x="25.000000" y="59.000000" width="64.500000" height="24.000000" rx="0" ry="0" style="stroke:none;fill:#cccccc;"/>
<rect x="24.000000" y="58.000000" width="64.500000" height="24.000000" rx="0" ry="0" style="stroke:none;fill:#003366;"/>
</a>
<a xlink:href="sawtooth-0x7f2ef80f5380.svg">
<text x="56.250000" y="72.000000" font-family="Arial" font-size="7" text-anchor="middle" fill="#FFFFFF">sawtooth(440)</text>
</a>
<circle cx="26.000000" cy="60.000000" r="1"/>
<rect x="123.500000" y="35.000000" width="180.600000" height="24.000000" rx="0" ry="0" style="stroke:none;fill:#cccccc;"/>
<rect x="122.500000" y="34.000000" width="180.600000" height="24.000000" rx="0" ry="0" style="stroke:none;fill:#477881;"/>
<text x="212.800000" y="48.000000" font-family="Arial" font-size="7" text-anchor="middle" fill="#FFFFFF">nentry(Selector, 0.0f, 0.0f, 1.0f, 1.0f)</text>
<circle cx="124.500000" cy="36.000000" r="1"/>
<line x1="113.500000" y1="25.000000" x2="113.500000" y2="67.000000"  style="stroke: black; stroke-linecap:round; stroke-width:0.25; stroke-dasharray:3,3;"/>
<line x1="113.500000" y1="67.000000" x2="312.100000" y2="67.000000"  style="stroke: black; stroke-linecap:round; stroke-width:0.25; stroke-dasharray:3,3;"/>
<line x1="312.100000" y1="67.000000" x2="312.100000" y2="25.000000"  style="stroke: black; stroke-linecap:round; stroke-width:0.25; stroke-dasharray:3,3;"/>
<line x1="113.500000" y1="25.000000" x2="118.500000" y2="25.000000"  style="stroke: black; stroke-linecap:round; stroke-width:0.25; stroke-dasharray:3,3;"/>
<line x1="128.175000" y1="25.000000" x2="312.100000" y2="25.000000"  style="stroke: black; stroke-linecap:round; stroke-width:0.25; stroke-dasharray:3,3;"/>
<text x="118.500000" y="27.000000" font-family="Arial" font-size="7">s</text>
<rect x="338.100000" y="43.000000" width="38.700000" height="24.000000" rx="0" ry="0" style="stroke:none;fill:#cccccc;"/>
<rect x="337.100000" y="42.000000" width="38.700000" height="24.000000" rx="0" ry="0" style="stroke:none;fill:#4B71A1;"/>
<text x="356.450000" y="56.000000" font-family="Arial" font-size="7" text-anchor="middle" fill="#FFFFFF">select2</text>
<circle cx="339.100000" cy="44.000000" r="1"/>
<line x1="334.100000" y1="45.000000" x2="337.100000" y2="46.000000"  transform="rotate(0.000000,337.100000,46.000000)" style="stroke: black; stroke-width:0.25;"/>
<line x1="334.100000" y1="47.000000" x2="337.100000" y2="46.000000"  transform="rotate(0.000000,337.100000,46.000000)" style="stroke: black; stroke-width:0.25;"/>
<line x1="334.100000" y1="53.000000" x2="337.100000" y2="54.000000"  transform="rotate(0.000000,337.100000,54.000000)" style="stroke: black; stroke-width:0.25;"/>
<line x1="334.100000" y1="55.000000" x2="337.100000" y2="54.000000"  transform="rotate(0.000000,337.100000,54.000000)" style="stroke: black; stroke-width:0.25;"/>
<line x1="334.100000" y1="61.000000" x2="337.100000" y2="62.000000"  transform="rotate(0.000000,337.100000,62.000000)" style="stroke: black; stroke-width:0.25;"/>
<line x1="334.100000" y1="63.000000" x2="337.100000" y2="62.000000"  transform="rotate(0.000000,337.100000,62.000000)" style="stroke: black; stroke-width:0.25;"/>
<line x1="15.000000" y1="15.000000" x2="15.000000" y2="93.000000"  style="stroke: black; stroke-linecap:round; stroke-width:0.25; stroke-dasharray:3,3;"/>
<line x1="15.000000" y1="93.000000" x2="392.800000" y2="93.000000"  style="stroke: black; stroke-linecap:round; stroke-width:0.25; stroke-dasharray:3,3;"/>
<line x1="392.800000" y1="93.000000" x2="392.800000" y2="15.000000"  style="stroke: black; stroke-linecap:round; stroke-width:0.25; stroke-dasharray:3,3;"/>
<line x1="15.000000" y1="15.000000" x2="20.000000" y2="15.000000"  style="stroke: black; stroke-linecap:round; stroke-width:0.25; stroke-dasharray:3,3;"/>
<line x1="49.025000" y1="15.000000" x2="392.800000" y2="15.000000"  style="stroke: black; stroke-linecap:round; stroke-width:0.25; stroke-dasharray:3,3;"/>
<text x="20.000000" y="17.000000" font-family="Arial" font-size="7">process</text>
<line x1="394.800000" y1="53.000000" x2="397.800000" y2="54.000000"  transform="rotate(0.000000,397.800000,54.000000)" style="stroke: black; stroke-width:0.25;"/>
<line x1="394.800000" y1="55.000000" x2="397.800000" y2="54.000000"  transform="rotate(0.000000,397.800000,54.000000)" style="stroke: black; stroke-width:0.25;"/>
<line x1="75.600000" y1="38.000000" x2="79.600000" y2="38.000000"  style="stroke:black; stroke-linecap:round; stroke-width:0.25;"/>
<line x1="79.600000" y1="38.000000" x2="92.500000" y2="38.000000"  style="stroke:black; stroke-linecap:round; stroke-width:0.25;"/>
<line x1="88.500000" y1="70.000000" x2="92.500000" y2="70.000000"  style="stroke:black; stroke-linecap:round; stroke-width:0.25;"/>
<line x1="92.500000" y1="38.000000" x2="108.500000" y2="38.000000"  style="stroke:black; stroke-linecap:round; stroke-width:0.25;"/>
<line x1="92.500000" y1="70.000000" x2="100.500000" y2="70.000000"  style="stroke:black; stroke-linecap:round; stroke-width:0.25;"/>
<line x1="100.500000" y1="70.000000" x2="100.500000" y2="84.000000"  style="stroke:black; stroke-linecap:round; stroke-width:0.25;"/>
<line x1="100.500000" y1="84.000000" x2="108.500000" y2="84.000000"  style="stroke:black; stroke-linecap:round; stroke-width:0.25;"/>
<line x1="108.500000" y1="38.000000" x2="108.500000" y2="76.000000"  style="stroke:black; stroke-linecap:round; stroke-width:0.25;"/>
<line x1="108.500000" y1="76.000000" x2="108.500000" y2="76.000000"  style="stroke:black; stroke-linecap:round; stroke-width:0.25;"/>
<line x1="108.500000" y1="76.000000" x2="212.800000" y2="76.000000"  style="stroke:black; stroke-linecap:round; stroke-width:0.25;"/>
<line x1="108.500000" y1="84.000000" x2="212.800000" y2="84.000000"  style="stroke:black; stroke-linecap:round; stroke-width:0.25;"/>
<line x1="212.800000" y1="76.000000" x2="317.100000" y2="76.000000"  style="stroke:black; stroke-linecap:round; stroke-width:0.25;"/>
<line x1="212.800000" y1="84.000000" x2="317.100000" y2="84.000000"  style="stroke:black; stroke-linecap:round; stroke-width:0.25;"/>
<line x1="303.100000" y1="46.000000" x2="307.100000" y2="46.000000"  style="stroke:black; stroke-linecap:round; stroke-width:0.25;"/>
<line x1="307.100000" y1="46.000000" x2="317.100000" y2="46.000000"  style="stroke:black; stroke-linecap:round; stroke-width:0.25;"/>
<line x1="317.100000" y1="46.000000" x2="333.100000" y2="46.000000"  style="stroke:black; stroke-linecap:round; stroke-width:0.25;"/>
<line x1="317.100000" y1="54.000000" x2="333.100000" y2="54.000000"  style="stroke:black; stroke-linecap:round; stroke-width:0.25;"/>
<line x1="317.100000" y1="76.000000" x2="317.100000" y2="54.000000"  style="stroke:black; stroke-linecap:round; stroke-width:0.25;"/>
<line x1="317.100000" y1="76.000000" x2="317.100000" y2="76.000000"  style="stroke:black; stroke-linecap:round; stroke-width:0.25;"/>
<line x1="317.100000" y1="84.000000" x2="325.100000" y2="84.000000"  style="stroke:black; stroke-linecap:round; stroke-width:0.25;"/>
<line x1="325.100000" y1="62.000000" x2="333.100000" y2="62.000000"  style="stroke:black; stroke-linecap:round; stroke-width:0.25;"/>
<line x1="325.100000" y1="84.000000" x2="325.100000" y2="62.000000"  style="stroke:black; stroke-linecap:round; stroke-width:0.25;"/>
<line x1="333.100000" y1="46.000000" x2="337.100000" y2="46.000000"  style="stroke:black; stroke-linecap:round; stroke-width:0.25;"/>
<line x1="333.100000" y1="54.000000" x2="337.100000" y2="54.000000"  style="stroke:black; stroke-linecap:round; stroke-width:0.25;"/>
<line x1="333.100000" y1="62.000000" x2="337.100000" y2="62.000000"  style="stroke:black; stroke-linecap:round; stroke-width:0.25;"/>
<line x1="375.800000" y1="54.000000" x2="379.800000" y2="54.000000"  style="stroke:black; stroke-linecap:round; stroke-width:0.25;"/>
<line x1="379.800000" y1="54.000000" x2="379.800000" y2="54.000000"  style="stroke:black; stroke-linecap:round; stroke-width:0.25;"/>
<line x1="379.800000" y1="54.000000" x2="383.800000" y2="54.000000"  style="stroke:black; stroke-linecap:round; stroke-width:0.25;"/>
<line x1="383.800000" y1="54.000000" x2="387.800000" y2="54.000000"  style="stroke:black; stroke-linecap:round; stroke-width:0.25;"/>
<line x1="387.800000" y1="54.000000" x2="397.800000" y2="54.000000"  style="stroke:black; stroke-linecap:round; stroke-width:0.25;"/>
</svg>
