<?xml version="1.0"?>
<svg xmlns="http://www.w3.org/2000/svg" xmlns:xlink="http://www.w3.org/1999/xlink" viewBox="0 0 328.200000 168.000000" width="164.100000mm" height="84.000000mm" version="1.1">
<a xlink:href="phasor-0x7ff315e02480.svg">
<rect x="1.000000" y="1.000000" width="327.200000" height="167.000000" rx="0" ry="0" style="stroke:none;fill:#cccccc;"/>
<rect x="0.000000" y="0.000000" width="327.200000" height="167.000000" rx="0" ry="0" style="stroke:none;fill:#ffffff;"/>
</a>
<text x="10.000000" y="7.000000" font-family="Arial" font-size="7"></text>
<rect x="25.000000" y="25.000000" width="232.200000" height="24.000000" rx="0" ry="0" style="stroke:none;fill:#cccccc;"/>
<rect x="24.000000" y="24.000000" width="232.200000" height="24.000000" rx="0" ry="0" style="stroke:none;fill:#477881;"/>
<text x="140.100000" y="38.000000" font-family="Arial" font-size="7" text-anchor="middle" fill="#FFFFFF">hslider(v:bubble/freq, 600.0f, 150.0f, 2000.0f, 1.0f)</text>
<circle cx="26.000000" cy="26.000000" r="1"/>
<rect x="109.100000" y="57.000000" width="24.000000" height="24.000000" rx="0" ry="0" style="stroke:none;fill:#cccccc;"/>
<rect x="108.100000" y="56.000000" width="24.000000" height="24.000000" rx="0" ry="0" style="stroke:none;fill:#f44800;"/>
<text x="120.100000" y="70.000000" font-family="Arial" font-size="7" text-anchor="middle" fill="#FFFFFF">1</text>
<circle cx="110.100000" cy="58.000000" r="1"/>
<a xlink:href="sigma-0x7ff3135aad60.svg">
<rect x="88.200000" y="89.000000" width="25.800000" height="24.000000" rx="0" ry="0" style="stroke:none;fill:#cccccc;"/>
<rect x="87.200000" y="88.000000" width="25.800000" height="24.000000" rx="0" ry="0" style="stroke:none;fill:#003366;"/>
</a>
<a xlink:href="sigma-0x7ff3135aad60.svg">
<text x="100.100000" y="102.000000" font-family="Arial" font-size="7" text-anchor="middle" fill="#FFFFFF">sigma</text>
</a>
<circle cx="89.200000" cy="90.000000" r="1"/>
<a xlink:href="time-0x7ff315ddf960.svg">
<rect x="88.200000" y="121.000000" width="25.800000" height="24.000000" rx="0" ry="0" style="stroke:none;fill:#cccccc;"/>
<rect x="87.200000" y="120.000000" width="25.800000" height="24.000000" rx="0" ry="0" style="stroke:none;fill:#003366;"/>
</a>
<a xlink:href="time-0x7ff315ddf960.svg">
<text x="100.100000" y="134.000000" font-family="Arial" font-size="7" text-anchor="middle" fill="#FFFFFF">time</text>
</a>
<circle cx="89.200000" cy="122.000000" r="1"/>
<rect x="130.000000" y="105.000000" width="24.000000" height="24.000000" rx="0" ry="0" style="stroke:none;fill:#cccccc;"/>
<rect x="129.000000" y="104.000000" width="24.000000" height="24.000000" rx="0" ry="0" style="stroke:none;fill:#4B71A1;"/>
<text x="141.000000" y="118.000000" font-family="Arial" font-size="7" text-anchor="middle" fill="#FFFFFF">*</text>
<circle cx="131.000000" cy="106.000000" r="1"/>
<line x1="126.000000" y1="111.000000" x2="129.000000" y2="112.000000"  transform="rotate(0.000000,129.000000,112.000000)" style="stroke: black; stroke-width:0.25;"/>
<line x1="126.000000" y1="113.000000" x2="129.000000" y2="112.000000"  transform="rotate(0.000000,129.000000,112.000000)" style="stroke: black; stroke-width:0.25;"/>
<line x1="126.000000" y1="119.000000" x2="129.000000" y2="120.000000"  transform="rotate(0.000000,129.000000,120.000000)" style="stroke: black; stroke-width:0.25;"/>
<line x1="126.000000" y1="121.000000" x2="129.000000" y2="120.000000"  transform="rotate(0.000000,129.000000,120.000000)" style="stroke: black; stroke-width:0.25;"/>
<rect x="170.000000" y="89.000000" width="24.000000" height="24.000000" rx="0" ry="0" style="stroke:none;fill:#cccccc;"/>
<rect x="169.000000" y="88.000000" width="24.000000" height="24.000000" rx="0" ry="0" style="stroke:none;fill:#4B71A1;"/>
<text x="181.000000" y="102.000000" font-family="Arial" font-size="7" text-anchor="middle" fill="#FFFFFF">+</text>
<circle cx="171.000000" cy="90.000000" r="1"/>
<line x1="166.000000" y1="95.000000" x2="169.000000" y2="96.000000"  transform="rotate(0.000000,169.000000,96.000000)" style="stroke: black; stroke-width:0.25;"/>
<line x1="166.000000" y1="97.000000" x2="169.000000" y2="96.000000"  transform="rotate(0.000000,169.000000,96.000000)" style="stroke: black; stroke-width:0.25;"/>
<line x1="166.000000" y1="103.000000" x2="169.000000" y2="104.000000"  transform="rotate(0.000000,169.000000,104.000000)" style="stroke: black; stroke-width:0.25;"/>
<line x1="166.000000" y1="105.000000" x2="169.000000" y2="104.000000"  transform="rotate(0.000000,169.000000,104.000000)" style="stroke: black; stroke-width:0.25;"/>
<rect x="273.200000" y="73.000000" width="24.000000" height="24.000000" rx="0" ry="0" style="stroke:none;fill:#cccccc;"/>
<rect x="272.200000" y="72.000000" width="24.000000" height="24.000000" rx="0" ry="0" style="stroke:none;fill:#4B71A1;"/>
<text x="284.200000" y="86.000000" font-family="Arial" font-size="7" text-anchor="middle" fill="#FFFFFF">*</text>
<circle cx="274.200000" cy="74.000000" r="1"/>
<line x1="269.200000" y1="79.000000" x2="272.200000" y2="80.000000"  transform="rotate(0.000000,272.200000,80.000000)" style="stroke: black; stroke-width:0.25;"/>
<line x1="269.200000" y1="81.000000" x2="272.200000" y2="80.000000"  transform="rotate(0.000000,272.200000,80.000000)" style="stroke: black; stroke-width:0.25;"/>
<line x1="269.200000" y1="87.000000" x2="272.200000" y2="88.000000"  transform="rotate(0.000000,272.200000,88.000000)" style="stroke: black; stroke-width:0.25;"/>
<line x1="269.200000" y1="89.000000" x2="272.200000" y2="88.000000"  transform="rotate(0.000000,272.200000,88.000000)" style="stroke: black; stroke-width:0.25;"/>
<line x1="15.000000" y1="15.000000" x2="15.000000" y2="153.000000"  style="stroke: black; stroke-linecap:round; stroke-width:0.25; stroke-dasharray:3,3;"/>
<line x1="15.000000" y1="153.000000" x2="313.200000" y2="153.000000"  style="stroke: black; stroke-linecap:round; stroke-width:0.25; stroke-dasharray:3,3;"/>
<line x1="313.200000" y1="153.000000" x2="313.200000" y2="15.000000"  style="stroke: black; stroke-linecap:round; stroke-width:0.25; stroke-dasharray:3,3;"/>
<line x1="15.000000" y1="15.000000" x2="20.000000" y2="15.000000"  style="stroke: black; stroke-linecap:round; stroke-width:0.25; stroke-dasharray:3,3;"/>
<line x1="29.675000" y1="15.000000" x2="313.200000" y2="15.000000"  style="stroke: black; stroke-linecap:round; stroke-width:0.25; stroke-dasharray:3,3;"/>
<text x="20.000000" y="17.000000" font-family="Arial" font-size="7">f</text>
<line x1="315.200000" y1="83.000000" x2="318.200000" y2="84.000000"  transform="rotate(0.000000,318.200000,84.000000)" style="stroke: black; stroke-width:0.25;"/>
<line x1="315.200000" y1="85.000000" x2="318.200000" y2="84.000000"  transform="rotate(0.000000,318.200000,84.000000)" style="stroke: black; stroke-width:0.25;"/>
<line x1="113.000000" y1="100.000000" x2="117.000000" y2="100.000000"  style="stroke:black; stroke-linecap:round; stroke-width:0.25;"/>
<line x1="113.000000" y1="132.000000" x2="117.000000" y2="132.000000"  style="stroke:black; stroke-linecap:round; stroke-width:0.25;"/>
<line x1="117.000000" y1="100.000000" x2="125.000000" y2="100.000000"  style="stroke:black; stroke-linecap:round; stroke-width:0.25;"/>
<line x1="117.000000" y1="120.000000" x2="125.000000" y2="120.000000"  style="stroke:black; stroke-linecap:round; stroke-width:0.25;"/>
<line x1="117.000000" y1="132.000000" x2="117.000000" y2="120.000000"  style="stroke:black; stroke-linecap:round; stroke-width:0.25;"/>
<line x1="117.000000" y1="132.000000" x2="117.000000" y2="132.000000"  style="stroke:black; stroke-linecap:round; stroke-width:0.25;"/>
<line x1="125.000000" y1="100.000000" x2="125.000000" y2="112.000000"  style="stroke:black; stroke-linecap:round; stroke-width:0.25;"/>
<line x1="125.000000" y1="112.000000" x2="125.000000" y2="112.000000"  style="stroke:black; stroke-linecap:round; stroke-width:0.25;"/>
<line x1="125.000000" y1="112.000000" x2="129.000000" y2="112.000000"  style="stroke:black; stroke-linecap:round; stroke-width:0.25;"/>
<line x1="125.000000" y1="120.000000" x2="129.000000" y2="120.000000"  style="stroke:black; stroke-linecap:round; stroke-width:0.25;"/>
<line x1="132.100000" y1="68.000000" x2="136.100000" y2="68.000000"  style="stroke:black; stroke-linecap:round; stroke-width:0.25;"/>
<line x1="136.100000" y1="68.000000" x2="157.000000" y2="68.000000"  style="stroke:black; stroke-linecap:round; stroke-width:0.25;"/>
<line x1="153.000000" y1="116.000000" x2="157.000000" y2="116.000000"  style="stroke:black; stroke-linecap:round; stroke-width:0.25;"/>
<line x1="157.000000" y1="68.000000" x2="165.000000" y2="68.000000"  style="stroke:black; stroke-linecap:round; stroke-width:0.25;"/>
<line x1="157.000000" y1="104.000000" x2="165.000000" y2="104.000000"  style="stroke:black; stroke-linecap:round; stroke-width:0.25;"/>
<line x1="157.000000" y1="116.000000" x2="157.000000" y2="104.000000"  style="stroke:black; stroke-linecap:round; stroke-width:0.25;"/>
<line x1="157.000000" y1="116.000000" x2="157.000000" y2="116.000000"  style="stroke:black; stroke-linecap:round; stroke-width:0.25;"/>
<line x1="165.000000" y1="68.000000" x2="165.000000" y2="96.000000"  style="stroke:black; stroke-linecap:round; stroke-width:0.25;"/>
<line x1="165.000000" y1="96.000000" x2="165.000000" y2="96.000000"  style="stroke:black; stroke-linecap:round; stroke-width:0.25;"/>
<line x1="165.000000" y1="96.000000" x2="169.000000" y2="96.000000"  style="stroke:black; stroke-linecap:round; stroke-width:0.25;"/>
<line x1="165.000000" y1="104.000000" x2="169.000000" y2="104.000000"  style="stroke:black; stroke-linecap:round; stroke-width:0.25;"/>
<line x1="193.000000" y1="100.000000" x2="197.000000" y2="100.000000"  style="stroke:black; stroke-linecap:round; stroke-width:0.25;"/>
<line x1="197.000000" y1="100.000000" x2="260.200000" y2="100.000000"  style="stroke:black; stroke-linecap:round; stroke-width:0.25;"/>
<line x1="256.200000" y1="36.000000" x2="260.200000" y2="36.000000"  style="stroke:black; stroke-linecap:round; stroke-width:0.25;"/>
<line x1="260.200000" y1="36.000000" x2="268.200000" y2="36.000000"  style="stroke:black; stroke-linecap:round; stroke-width:0.25;"/>
<line x1="260.200000" y1="88.000000" x2="268.200000" y2="88.000000"  style="stroke:black; stroke-linecap:round; stroke-width:0.25;"/>
<line x1="260.200000" y1="100.000000" x2="260.200000" y2="88.000000"  style="stroke:black; stroke-linecap:round; stroke-width:0.25;"/>
<line x1="260.200000" y1="100.000000" x2="260.200000" y2="100.000000"  style="stroke:black; stroke-linecap:round; stroke-width:0.25;"/>
<line x1="268.200000" y1="36.000000" x2="268.200000" y2="80.000000"  style="stroke:black; stroke-linecap:round; stroke-width:0.25;"/>
<line x1="268.200000" y1="80.000000" x2="268.200000" y2="80.000000"  style="stroke:black; stroke-linecap:round; stroke-width:0.25;"/>
<line x1="268.200000" y1="80.000000" x2="272.200000" y2="80.000000"  style="stroke:black; stroke-linecap:round; stroke-width:0.25;"/>
<line x1="268.200000" y1="88.000000" x2="272.200000" y2="88.000000"  style="stroke:black; stroke-linecap:round; stroke-width:0.25;"/>
<line x1="296.200000" y1="84.000000" x2="300.200000" y2="84.000000"  style="stroke:black; stroke-linecap:round; stroke-width:0.25;"/>
<line x1="300.200000" y1="84.000000" x2="300.200000" y2="84.000000"  style="stroke:black; stroke-linecap:round; stroke-width:0.25;"/>
<line x1="300.200000" y1="84.000000" x2="304.200000" y2="84.000000"  style="stroke:black; stroke-linecap:round; stroke-width:0.25;"/>
<line x1="304.200000" y1="84.000000" x2="308.200000" y2="84.000000"  style="stroke:black; stroke-linecap:round; stroke-width:0.25;"/>
<line x1="308.200000" y1="84.000000" x2="318.200000" y2="84.000000"  style="stroke:black; stroke-linecap:round; stroke-width:0.25;"/>
</svg>
