<?xml version="1.0"?>
<svg xmlns="http://www.w3.org/2000/svg" xmlns:xlink="http://www.w3.org/1999/xlink" viewBox="0 0 615.800000 152.000000" width="307.900000mm" height="76.000000mm" version="1.1">
<a xlink:href="tau2pole-0x7fb0930f8510.svg">
<rect x="1.000000" y="1.000000" width="614.800000" height="151.000000" rx="0" ry="0" style="stroke:none;fill:#cccccc;"/>
<rect x="0.000000" y="0.000000" width="614.800000" height="151.000000" rx="0" ry="0" style="stroke:none;fill:#ffffff;"/>
</a>
<text x="10.000000" y="7.000000" font-family="Arial" font-size="7"></text>
<rect x="65.000000" y="65.000000" width="258.000000" height="24.000000" rx="0" ry="0" style="stroke:none;fill:#cccccc;"/>
<rect x="64.000000" y="64.000000" width="258.000000" height="24.000000" rx="0" ry="0" style="stroke:none;fill:#477881;"/>
<text x="193.000000" y="78.000000" font-family="Arial" font-size="7" text-anchor="middle" fill="#FFFFFF">hslider(Attack, 50.0f, 0.0f, 500.0f, 0.10000000000000001f)</text>
<circle cx="66.000000" cy="66.000000" r="1"/>
<line x1="55.000000" y1="55.000000" x2="55.000000" y2="97.000000"  style="stroke: black; stroke-linecap:round; stroke-width:0.25; stroke-dasharray:3,3;"/>
<line x1="55.000000" y1="97.000000" x2="331.000000" y2="97.000000"  style="stroke: black; stroke-linecap:round; stroke-width:0.25; stroke-dasharray:3,3;"/>
<line x1="331.000000" y1="97.000000" x2="331.000000" y2="55.000000"  style="stroke: black; stroke-linecap:round; stroke-width:0.25; stroke-dasharray:3,3;"/>
<line x1="55.000000" y1="55.000000" x2="60.000000" y2="55.000000"  style="stroke: black; stroke-linecap:round; stroke-width:0.25; stroke-dasharray:3,3;"/>
<line x1="156.750000" y1="55.000000" x2="331.000000" y2="55.000000"  style="stroke: black; stroke-linecap:round; stroke-width:0.25; stroke-dasharray:3,3;"/>
<text x="60.000000" y="57.000000" font-family="Arial" font-size="7">hgroup(Compression Response)</text>
<line x1="45.000000" y1="45.000000" x2="45.000000" y2="107.000000"  style="stroke: black; stroke-linecap:round; stroke-width:0.25; stroke-dasharray:3,3;"/>
<line x1="45.000000" y1="107.000000" x2="341.000000" y2="107.000000"  style="stroke: black; stroke-linecap:round; stroke-width:0.25; stroke-dasharray:3,3;"/>
<line x1="341.000000" y1="107.000000" x2="341.000000" y2="45.000000"  style="stroke: black; stroke-linecap:round; stroke-width:0.25; stroke-dasharray:3,3;"/>
<line x1="45.000000" y1="45.000000" x2="50.000000" y2="45.000000"  style="stroke: black; stroke-linecap:round; stroke-width:0.25; stroke-dasharray:3,3;"/>
<line x1="82.250000" y1="45.000000" x2="341.000000" y2="45.000000"  style="stroke: black; stroke-linecap:round; stroke-width:0.25; stroke-dasharray:3,3;"/>
<text x="50.000000" y="47.000000" font-family="Arial" font-size="7">hgroup()</text>
<line x1="35.000000" y1="35.000000" x2="35.000000" y2="117.000000"  style="stroke: black; stroke-linecap:round; stroke-width:0.25; stroke-dasharray:3,3;"/>
<line x1="35.000000" y1="117.000000" x2="351.000000" y2="117.000000"  style="stroke: black; stroke-linecap:round; stroke-width:0.25; stroke-dasharray:3,3;"/>
<line x1="351.000000" y1="117.000000" x2="351.000000" y2="35.000000"  style="stroke: black; stroke-linecap:round; stroke-width:0.25; stroke-dasharray:3,3;"/>
<line x1="35.000000" y1="35.000000" x2="40.000000" y2="35.000000"  style="stroke: black; stroke-linecap:round; stroke-width:0.25; stroke-dasharray:3,3;"/>
<line x1="104.500000" y1="35.000000" x2="351.000000" y2="35.000000"  style="stroke: black; stroke-linecap:round; stroke-width:0.25; stroke-dasharray:3,3;"/>
<text x="40.000000" y="37.000000" font-family="Arial" font-size="7">vgroup(COMPRESSOR)</text>
<line x1="25.000000" y1="25.000000" x2="25.000000" y2="127.000000"  style="stroke: black; stroke-linecap:round; stroke-width:0.25; stroke-dasharray:3,3;"/>
<line x1="25.000000" y1="127.000000" x2="361.000000" y2="127.000000"  style="stroke: black; stroke-linecap:round; stroke-width:0.25; stroke-dasharray:3,3;"/>
<line x1="361.000000" y1="127.000000" x2="361.000000" y2="25.000000"  style="stroke: black; stroke-linecap:round; stroke-width:0.25; stroke-dasharray:3,3;"/>
<line x1="25.000000" y1="25.000000" x2="30.000000" y2="25.000000"  style="stroke: black; stroke-linecap:round; stroke-width:0.25; stroke-dasharray:3,3;"/>
<line x1="129.975000" y1="25.000000" x2="361.000000" y2="25.000000"  style="stroke: black; stroke-linecap:round; stroke-width:0.25; stroke-dasharray:3,3;"/>
<text x="30.000000" y="27.000000" font-family="Arial" font-size="7">env_group(hsl...0000000001f))</text>
<rect x="379.000000" y="69.000000" width="25.800000" height="24.000000" rx="0" ry="0" style="stroke:none;fill:#cccccc;"/>
<rect x="378.000000" y="68.000000" width="25.800000" height="24.000000" rx="0" ry="0" style="stroke:none;fill:#f44800;"/>
<text x="390.900000" y="82.000000" font-family="Arial" font-size="7" text-anchor="middle" fill="#FFFFFF">0.001</text>
<circle cx="380.000000" cy="70.000000" r="1"/>
<rect x="420.800000" y="65.000000" width="24.000000" height="24.000000" rx="0" ry="0" style="stroke:none;fill:#cccccc;"/>
<rect x="419.800000" y="64.000000" width="24.000000" height="24.000000" rx="0" ry="0" style="stroke:none;fill:#4B71A1;"/>
<text x="431.800000" y="78.000000" font-family="Arial" font-size="7" text-anchor="middle" fill="#FFFFFF">*</text>
<circle cx="421.800000" cy="66.000000" r="1"/>
<line x1="416.800000" y1="71.000000" x2="419.800000" y2="72.000000"  transform="rotate(0.000000,419.800000,72.000000)" style="stroke: black; stroke-width:0.25;"/>
<line x1="416.800000" y1="73.000000" x2="419.800000" y2="72.000000"  transform="rotate(0.000000,419.800000,72.000000)" style="stroke: black; stroke-width:0.25;"/>
<line x1="416.800000" y1="79.000000" x2="419.800000" y2="80.000000"  transform="rotate(0.000000,419.800000,80.000000)" style="stroke: black; stroke-width:0.25;"/>
<line x1="416.800000" y1="81.000000" x2="419.800000" y2="80.000000"  transform="rotate(0.000000,419.800000,80.000000)" style="stroke: black; stroke-width:0.25;"/>
<rect x="470.800000" y="45.000000" width="24.000000" height="24.000000" rx="0" ry="0" style="stroke:none;fill:#cccccc;"/>
<rect x="469.800000" y="44.000000" width="24.000000" height="24.000000" rx="0" ry="0" style="stroke:none;fill:#f44800;"/>
<text x="481.800000" y="58.000000" font-family="Arial" font-size="7" text-anchor="middle" fill="#FFFFFF">1</text>
<circle cx="471.800000" cy="46.000000" r="1"/>
<line x1="460.800000" y1="35.000000" x2="460.800000" y2="77.000000"  style="stroke: black; stroke-linecap:round; stroke-width:0.25; stroke-dasharray:3,3;"/>
<line x1="460.800000" y1="77.000000" x2="502.800000" y2="77.000000"  style="stroke: black; stroke-linecap:round; stroke-width:0.25; stroke-dasharray:3,3;"/>
<line x1="502.800000" y1="77.000000" x2="502.800000" y2="35.000000"  style="stroke: black; stroke-linecap:round; stroke-width:0.25; stroke-dasharray:3,3;"/>
<line x1="460.800000" y1="35.000000" x2="465.800000" y2="35.000000"  style="stroke: black; stroke-linecap:round; stroke-width:0.25; stroke-dasharray:3,3;"/>
<line x1="475.475000" y1="35.000000" x2="502.800000" y2="35.000000"  style="stroke: black; stroke-linecap:round; stroke-width:0.25; stroke-dasharray:3,3;"/>
<text x="465.800000" y="37.000000" font-family="Arial" font-size="7">S</text>
<a xlink:href="SR-0x7fb0932d5ce0.svg">
<rect x="470.800000" y="87.000000" width="24.000000" height="24.000000" rx="0" ry="0" style="stroke:none;fill:#cccccc;"/>
<rect x="469.800000" y="86.000000" width="24.000000" height="24.000000" rx="0" ry="0" style="stroke:none;fill:#003366;"/>
</a>
<a xlink:href="SR-0x7fb0932d5ce0.svg">
<text x="481.800000" y="100.000000" font-family="Arial" font-size="7" text-anchor="middle" fill="#FFFFFF">SR</text>
</a>
<circle cx="471.800000" cy="88.000000" r="1"/>
<rect x="520.800000" y="61.000000" width="24.000000" height="24.000000" rx="0" ry="0" style="stroke:none;fill:#cccccc;"/>
<rect x="519.800000" y="60.000000" width="24.000000" height="24.000000" rx="0" ry="0" style="stroke:none;fill:#4B71A1;"/>
<text x="531.800000" y="74.000000" font-family="Arial" font-size="7" text-anchor="middle" fill="#FFFFFF">/</text>
<circle cx="521.800000" cy="62.000000" r="1"/>
<line x1="516.800000" y1="67.000000" x2="519.800000" y2="68.000000"  transform="rotate(0.000000,519.800000,68.000000)" style="stroke: black; stroke-width:0.25;"/>
<line x1="516.800000" y1="69.000000" x2="519.800000" y2="68.000000"  transform="rotate(0.000000,519.800000,68.000000)" style="stroke: black; stroke-width:0.25;"/>
<line x1="516.800000" y1="75.000000" x2="519.800000" y2="76.000000"  transform="rotate(0.000000,519.800000,76.000000)" style="stroke: black; stroke-width:0.25;"/>
<line x1="516.800000" y1="77.000000" x2="519.800000" y2="76.000000"  transform="rotate(0.000000,519.800000,76.000000)" style="stroke: black; stroke-width:0.25;"/>
<rect x="560.800000" y="65.000000" width="24.000000" height="24.000000" rx="0" ry="0" style="stroke:none;fill:#cccccc;"/>
<rect x="559.800000" y="64.000000" width="24.000000" height="24.000000" rx="0" ry="0" style="stroke:none;fill:#4B71A1;"/>
<text x="571.800000" y="78.000000" font-family="Arial" font-size="7" text-anchor="middle" fill="#FFFFFF">max</text>
<circle cx="561.800000" cy="66.000000" r="1"/>
<line x1="556.800000" y1="71.000000" x2="559.800000" y2="72.000000"  transform="rotate(0.000000,559.800000,72.000000)" style="stroke: black; stroke-width:0.25;"/>
<line x1="556.800000" y1="73.000000" x2="559.800000" y2="72.000000"  transform="rotate(0.000000,559.800000,72.000000)" style="stroke: black; stroke-width:0.25;"/>
<line x1="556.800000" y1="79.000000" x2="559.800000" y2="80.000000"  transform="rotate(0.000000,559.800000,80.000000)" style="stroke: black; stroke-width:0.25;"/>
<line x1="556.800000" y1="81.000000" x2="559.800000" y2="80.000000"  transform="rotate(0.000000,559.800000,80.000000)" style="stroke: black; stroke-width:0.25;"/>
<line x1="15.000000" y1="15.000000" x2="15.000000" y2="137.000000"  style="stroke: black; stroke-linecap:round; stroke-width:0.25; stroke-dasharray:3,3;"/>
<line x1="15.000000" y1="137.000000" x2="600.800000" y2="137.000000"  style="stroke: black; stroke-linecap:round; stroke-width:0.25; stroke-dasharray:3,3;"/>
<line x1="600.800000" y1="137.000000" x2="600.800000" y2="15.000000"  style="stroke: black; stroke-linecap:round; stroke-width:0.25; stroke-dasharray:3,3;"/>
<line x1="15.000000" y1="15.000000" x2="20.000000" y2="15.000000"  style="stroke: black; stroke-linecap:round; stroke-width:0.25; stroke-dasharray:3,3;"/>
<line x1="45.800000" y1="15.000000" x2="600.800000" y2="15.000000"  style="stroke: black; stroke-linecap:round; stroke-width:0.25; stroke-dasharray:3,3;"/>
<text x="20.000000" y="17.000000" font-family="Arial" font-size="7">attack</text>
<line x1="602.800000" y1="75.000000" x2="605.800000" y2="76.000000"  transform="rotate(0.000000,605.800000,76.000000)" style="stroke: black; stroke-width:0.25;"/>
<line x1="602.800000" y1="77.000000" x2="605.800000" y2="76.000000"  transform="rotate(0.000000,605.800000,76.000000)" style="stroke: black; stroke-width:0.25;"/>
<line x1="322.000000" y1="76.000000" x2="326.000000" y2="76.000000"  style="stroke:black; stroke-linecap:round; stroke-width:0.25;"/>
<line x1="326.000000" y1="76.000000" x2="336.000000" y2="76.000000"  style="stroke:black; stroke-linecap:round; stroke-width:0.25;"/>
<line x1="336.000000" y1="76.000000" x2="346.000000" y2="76.000000"  style="stroke:black; stroke-linecap:round; stroke-width:0.25;"/>
<line x1="346.000000" y1="76.000000" x2="356.000000" y2="76.000000"  style="stroke:black; stroke-linecap:round; stroke-width:0.25;"/>
<line x1="356.000000" y1="76.000000" x2="366.000000" y2="76.000000"  style="stroke:black; stroke-linecap:round; stroke-width:0.25;"/>
<line x1="366.000000" y1="60.000000" x2="374.000000" y2="60.000000"  style="stroke:black; stroke-linecap:round; stroke-width:0.25;"/>
<line x1="366.000000" y1="76.000000" x2="366.000000" y2="60.000000"  style="stroke:black; stroke-linecap:round; stroke-width:0.25;"/>
<line x1="366.000000" y1="76.000000" x2="366.000000" y2="76.000000"  style="stroke:black; stroke-linecap:round; stroke-width:0.25;"/>
<line x1="374.000000" y1="60.000000" x2="390.900000" y2="60.000000"  style="stroke:black; stroke-linecap:round; stroke-width:0.25;"/>
<line x1="390.900000" y1="60.000000" x2="407.800000" y2="60.000000"  style="stroke:black; stroke-linecap:round; stroke-width:0.25;"/>
<line x1="403.800000" y1="80.000000" x2="407.800000" y2="80.000000"  style="stroke:black; stroke-linecap:round; stroke-width:0.25;"/>
<line x1="407.800000" y1="60.000000" x2="415.800000" y2="60.000000"  style="stroke:black; stroke-linecap:round; stroke-width:0.25;"/>
<line x1="407.800000" y1="80.000000" x2="415.800000" y2="80.000000"  style="stroke:black; stroke-linecap:round; stroke-width:0.25;"/>
<line x1="415.800000" y1="60.000000" x2="415.800000" y2="72.000000"  style="stroke:black; stroke-linecap:round; stroke-width:0.25;"/>
<line x1="415.800000" y1="72.000000" x2="415.800000" y2="72.000000"  style="stroke:black; stroke-linecap:round; stroke-width:0.25;"/>
<line x1="415.800000" y1="72.000000" x2="419.800000" y2="72.000000"  style="stroke:black; stroke-linecap:round; stroke-width:0.25;"/>
<line x1="415.800000" y1="80.000000" x2="419.800000" y2="80.000000"  style="stroke:black; stroke-linecap:round; stroke-width:0.25;"/>
<line x1="443.800000" y1="76.000000" x2="447.800000" y2="76.000000"  style="stroke:black; stroke-linecap:round; stroke-width:0.25;"/>
<line x1="447.800000" y1="76.000000" x2="455.800000" y2="76.000000"  style="stroke:black; stroke-linecap:round; stroke-width:0.25;"/>
<line x1="455.800000" y1="76.000000" x2="455.800000" y2="118.000000"  style="stroke:black; stroke-linecap:round; stroke-width:0.25;"/>
<line x1="455.800000" y1="118.000000" x2="455.800000" y2="118.000000"  style="stroke:black; stroke-linecap:round; stroke-width:0.25;"/>
<line x1="455.800000" y1="118.000000" x2="501.800000" y2="118.000000"  style="stroke:black; stroke-linecap:round; stroke-width:0.25;"/>
<line x1="493.800000" y1="56.000000" x2="497.800000" y2="56.000000"  style="stroke:black; stroke-linecap:round; stroke-width:0.25;"/>
<line x1="493.800000" y1="98.000000" x2="497.800000" y2="98.000000"  style="stroke:black; stroke-linecap:round; stroke-width:0.25;"/>
<line x1="497.800000" y1="56.000000" x2="507.800000" y2="56.000000"  style="stroke:black; stroke-linecap:round; stroke-width:0.25;"/>
<line x1="497.800000" y1="98.000000" x2="507.800000" y2="98.000000"  style="stroke:black; stroke-linecap:round; stroke-width:0.25;"/>
<line x1="501.800000" y1="118.000000" x2="547.800000" y2="118.000000"  style="stroke:black; stroke-linecap:round; stroke-width:0.25;"/>
<line x1="507.800000" y1="56.000000" x2="515.800000" y2="56.000000"  style="stroke:black; stroke-linecap:round; stroke-width:0.25;"/>
<line x1="507.800000" y1="76.000000" x2="515.800000" y2="76.000000"  style="stroke:black; stroke-linecap:round; stroke-width:0.25;"/>
<line x1="507.800000" y1="98.000000" x2="507.800000" y2="76.000000"  style="stroke:black; stroke-linecap:round; stroke-width:0.25;"/>
<line x1="507.800000" y1="98.000000" x2="507.800000" y2="98.000000"  style="stroke:black; stroke-linecap:round; stroke-width:0.25;"/>
<line x1="515.800000" y1="56.000000" x2="515.800000" y2="68.000000"  style="stroke:black; stroke-linecap:round; stroke-width:0.25;"/>
<line x1="515.800000" y1="68.000000" x2="515.800000" y2="68.000000"  style="stroke:black; stroke-linecap:round; stroke-width:0.25;"/>
<line x1="515.800000" y1="68.000000" x2="519.800000" y2="68.000000"  style="stroke:black; stroke-linecap:round; stroke-width:0.25;"/>
<line x1="515.800000" y1="76.000000" x2="519.800000" y2="76.000000"  style="stroke:black; stroke-linecap:round; stroke-width:0.25;"/>
<line x1="543.800000" y1="72.000000" x2="547.800000" y2="72.000000"  style="stroke:black; stroke-linecap:round; stroke-width:0.25;"/>
<line x1="547.800000" y1="72.000000" x2="555.800000" y2="72.000000"  style="stroke:black; stroke-linecap:round; stroke-width:0.25;"/>
<line x1="547.800000" y1="80.000000" x2="555.800000" y2="80.000000"  style="stroke:black; stroke-linecap:round; stroke-width:0.25;"/>
<line x1="547.800000" y1="118.000000" x2="547.800000" y2="80.000000"  style="stroke:black; stroke-linecap:round; stroke-width:0.25;"/>
<line x1="547.800000" y1="118.000000" x2="547.800000" y2="118.000000"  style="stroke:black; stroke-linecap:round; stroke-width:0.25;"/>
<line x1="555.800000" y1="72.000000" x2="559.800000" y2="72.000000"  style="stroke:black; stroke-linecap:round; stroke-width:0.25;"/>
<line x1="555.800000" y1="80.000000" x2="559.800000" y2="80.000000"  style="stroke:black; stroke-linecap:round; stroke-width:0.25;"/>
<line x1="583.800000" y1="76.000000" x2="587.800000" y2="76.000000"  style="stroke:black; stroke-linecap:round; stroke-width:0.25;"/>
<line x1="587.800000" y1="76.000000" x2="587.800000" y2="76.000000"  style="stroke:black; stroke-linecap:round; stroke-width:0.25;"/>
<line x1="587.800000" y1="76.000000" x2="591.800000" y2="76.000000"  style="stroke:black; stroke-linecap:round; stroke-width:0.25;"/>
<line x1="591.800000" y1="76.000000" x2="595.800000" y2="76.000000"  style="stroke:black; stroke-linecap:round; stroke-width:0.25;"/>
<line x1="595.800000" y1="76.000000" x2="605.800000" y2="76.000000"  style="stroke:black; stroke-linecap:round; stroke-width:0.25;"/>
</svg>
