<?xml version="1.0"?>
<svg xmlns="http://www.w3.org/2000/svg" xmlns:xlink="http://www.w3.org/1999/xlink" viewBox="0 0 501.500000 260.000000" width="250.750000mm" height="130.000000mm" version="1.1">
<a xlink:href="a1d-0x7ffad5a28420.svg">
<rect x="1.000000" y="1.000000" width="500.500000" height="259.000000" rx="0" ry="0" style="stroke:none;fill:#cccccc;"/>
<rect x="0.000000" y="0.000000" width="500.500000" height="259.000000" rx="0" ry="0" style="stroke:none;fill:#ffffff;"/>
</a>
<text x="10.000000" y="7.000000" font-family="Arial" font-size="7"></text>
<rect x="215.750000" y="25.000000" width="24.000000" height="24.000000" rx="0" ry="0" style="stroke:none;fill:#cccccc;"/>
<rect x="214.750000" y="24.000000" width="24.000000" height="24.000000" rx="0" ry="0" style="stroke:none;fill:#f44800;"/>
<text x="226.750000" y="38.000000" font-family="Arial" font-size="7" text-anchor="middle" fill="#FFFFFF">1</text>
<circle cx="216.750000" cy="26.000000" r="1"/>
<rect x="132.400000" y="57.000000" width="38.700000" height="24.000000" rx="0" ry="0" style="stroke:none;fill:#cccccc;"/>
<rect x="131.400000" y="56.000000" width="38.700000" height="24.000000" rx="0" ry="0" style="stroke:none;fill:#f44800;"/>
<text x="150.750000" y="70.000000" font-family="Arial" font-size="7" text-anchor="middle" fill="#FFFFFF">6.28319</text>
<circle cx="133.400000" cy="58.000000" r="1"/>
<rect x="55.000000" y="119.000000" width="193.500000" height="24.000000" rx="0" ry="0" style="stroke:none;fill:#cccccc;"/>
<rect x="54.000000" y="118.000000" width="193.500000" height="24.000000" rx="0" ry="0" style="stroke:none;fill:#477881;"/>
<text x="150.750000" y="132.000000" font-family="Arial" font-size="7" text-anchor="middle" fill="#FFFFFF">vslider(LF X, 200.0f, 50.0f, 1000.0f, 1.0f)</text>
<circle cx="56.000000" cy="120.000000" r="1"/>
<line x1="45.000000" y1="109.000000" x2="45.000000" y2="151.000000"  style="stroke: black; stroke-linecap:round; stroke-width:0.25; stroke-dasharray:3,3;"/>
<line x1="45.000000" y1="151.000000" x2="256.500000" y2="151.000000"  style="stroke: black; stroke-linecap:round; stroke-width:0.25; stroke-dasharray:3,3;"/>
<line x1="256.500000" y1="151.000000" x2="256.500000" y2="109.000000"  style="stroke: black; stroke-linecap:round; stroke-width:0.25; stroke-dasharray:3,3;"/>
<line x1="45.000000" y1="109.000000" x2="50.000000" y2="109.000000"  style="stroke: black; stroke-linecap:round; stroke-width:0.25; stroke-dasharray:3,3;"/>
<line x1="195.125000" y1="109.000000" x2="256.500000" y2="109.000000"  style="stroke: black; stroke-linecap:round; stroke-width:0.25; stroke-dasharray:3,3;"/>
<text x="50.000000" y="111.000000" font-family="Arial" font-size="7">hgroup(Decay Times in Bands (see tooltips))</text>
<line x1="35.000000" y1="99.000000" x2="35.000000" y2="161.000000"  style="stroke: black; stroke-linecap:round; stroke-width:0.25; stroke-dasharray:3,3;"/>
<line x1="35.000000" y1="161.000000" x2="266.500000" y2="161.000000"  style="stroke: black; stroke-linecap:round; stroke-width:0.25; stroke-dasharray:3,3;"/>
<line x1="266.500000" y1="161.000000" x2="266.500000" y2="99.000000"  style="stroke: black; stroke-linecap:round; stroke-width:0.25; stroke-dasharray:3,3;"/>
<line x1="35.000000" y1="99.000000" x2="40.000000" y2="99.000000"  style="stroke: black; stroke-linecap:round; stroke-width:0.25; stroke-dasharray:3,3;"/>
<line x1="101.275000" y1="99.000000" x2="266.500000" y2="99.000000"  style="stroke: black; stroke-linecap:round; stroke-width:0.25; stroke-dasharray:3,3;"/>
<text x="40.000000" y="101.000000" font-family="Arial" font-size="7">hgroup(Zita_Rev1)</text>
<line x1="25.000000" y1="89.000000" x2="25.000000" y2="171.000000"  style="stroke: black; stroke-linecap:round; stroke-width:0.25; stroke-dasharray:3,3;"/>
<line x1="25.000000" y1="171.000000" x2="276.500000" y2="171.000000"  style="stroke: black; stroke-linecap:round; stroke-width:0.25; stroke-dasharray:3,3;"/>
<line x1="276.500000" y1="171.000000" x2="276.500000" y2="89.000000"  style="stroke: black; stroke-linecap:round; stroke-width:0.25; stroke-dasharray:3,3;"/>
<line x1="25.000000" y1="89.000000" x2="30.000000" y2="89.000000"  style="stroke: black; stroke-linecap:round; stroke-width:0.25; stroke-dasharray:3,3;"/>
<line x1="49.350000" y1="89.000000" x2="276.500000" y2="89.000000"  style="stroke: black; stroke-linecap:round; stroke-width:0.25; stroke-dasharray:3,3;"/>
<text x="30.000000" y="91.000000" font-family="Arial" font-size="7">f(1)</text>
<rect x="294.500000" y="103.000000" width="24.000000" height="24.000000" rx="0" ry="0" style="stroke:none;fill:#cccccc;"/>
<rect x="293.500000" y="102.000000" width="24.000000" height="24.000000" rx="0" ry="0" style="stroke:none;fill:#4B71A1;"/>
<text x="305.500000" y="116.000000" font-family="Arial" font-size="7" text-anchor="middle" fill="#FFFFFF">*</text>
<circle cx="295.500000" cy="104.000000" r="1"/>
<line x1="290.500000" y1="109.000000" x2="293.500000" y2="110.000000"  transform="rotate(0.000000,293.500000,110.000000)" style="stroke: black; stroke-width:0.25;"/>
<line x1="290.500000" y1="111.000000" x2="293.500000" y2="110.000000"  transform="rotate(0.000000,293.500000,110.000000)" style="stroke: black; stroke-width:0.25;"/>
<line x1="290.500000" y1="117.000000" x2="293.500000" y2="118.000000"  transform="rotate(0.000000,293.500000,118.000000)" style="stroke: black; stroke-width:0.25;"/>
<line x1="290.500000" y1="119.000000" x2="293.500000" y2="118.000000"  transform="rotate(0.000000,293.500000,118.000000)" style="stroke: black; stroke-width:0.25;"/>
<rect x="159.750000" y="181.000000" width="24.000000" height="24.000000" rx="0" ry="0" style="stroke:none;fill:#cccccc;"/>
<rect x="158.750000" y="180.000000" width="24.000000" height="24.000000" rx="0" ry="0" style="stroke:none;fill:#f44800;"/>
<text x="170.750000" y="194.000000" font-family="Arial" font-size="7" text-anchor="middle" fill="#FFFFFF">0.5</text>
<circle cx="160.750000" cy="182.000000" r="1"/>
<rect x="334.500000" y="119.000000" width="24.000000" height="24.000000" rx="0" ry="0" style="stroke:none;fill:#cccccc;"/>
<rect x="333.500000" y="118.000000" width="24.000000" height="24.000000" rx="0" ry="0" style="stroke:none;fill:#4B71A1;"/>
<text x="345.500000" y="132.000000" font-family="Arial" font-size="7" text-anchor="middle" fill="#FFFFFF">*</text>
<circle cx="335.500000" cy="120.000000" r="1"/>
<line x1="330.500000" y1="125.000000" x2="333.500000" y2="126.000000"  transform="rotate(0.000000,333.500000,126.000000)" style="stroke: black; stroke-width:0.25;"/>
<line x1="330.500000" y1="127.000000" x2="333.500000" y2="126.000000"  transform="rotate(0.000000,333.500000,126.000000)" style="stroke: black; stroke-width:0.25;"/>
<line x1="330.500000" y1="133.000000" x2="333.500000" y2="134.000000"  transform="rotate(0.000000,333.500000,134.000000)" style="stroke: black; stroke-width:0.25;"/>
<line x1="330.500000" y1="135.000000" x2="333.500000" y2="134.000000"  transform="rotate(0.000000,333.500000,134.000000)" style="stroke: black; stroke-width:0.25;"/>
<a xlink:href="SR-0x7ffad2f43da0.svg">
<rect x="179.750000" y="213.000000" width="24.000000" height="24.000000" rx="0" ry="0" style="stroke:none;fill:#cccccc;"/>
<rect x="178.750000" y="212.000000" width="24.000000" height="24.000000" rx="0" ry="0" style="stroke:none;fill:#003366;"/>
</a>
<a xlink:href="SR-0x7ffad2f43da0.svg">
<text x="190.750000" y="226.000000" font-family="Arial" font-size="7" text-anchor="middle" fill="#FFFFFF">SR</text>
</a>
<circle cx="180.750000" cy="214.000000" r="1"/>
<rect x="374.500000" y="135.000000" width="24.000000" height="24.000000" rx="0" ry="0" style="stroke:none;fill:#cccccc;"/>
<rect x="373.500000" y="134.000000" width="24.000000" height="24.000000" rx="0" ry="0" style="stroke:none;fill:#4B71A1;"/>
<text x="385.500000" y="148.000000" font-family="Arial" font-size="7" text-anchor="middle" fill="#FFFFFF">/</text>
<circle cx="375.500000" cy="136.000000" r="1"/>
<line x1="370.500000" y1="141.000000" x2="373.500000" y2="142.000000"  transform="rotate(0.000000,373.500000,142.000000)" style="stroke: black; stroke-width:0.25;"/>
<line x1="370.500000" y1="143.000000" x2="373.500000" y2="142.000000"  transform="rotate(0.000000,373.500000,142.000000)" style="stroke: black; stroke-width:0.25;"/>
<line x1="370.500000" y1="149.000000" x2="373.500000" y2="150.000000"  transform="rotate(0.000000,373.500000,150.000000)" style="stroke: black; stroke-width:0.25;"/>
<line x1="370.500000" y1="151.000000" x2="373.500000" y2="150.000000"  transform="rotate(0.000000,373.500000,150.000000)" style="stroke: black; stroke-width:0.25;"/>
<rect x="406.500000" y="135.000000" width="24.000000" height="24.000000" rx="0" ry="0" style="stroke:none;fill:#cccccc;"/>
<rect x="405.500000" y="134.000000" width="24.000000" height="24.000000" rx="0" ry="0" style="stroke:none;fill:#4B71A1;"/>
<text x="417.500000" y="148.000000" font-family="Arial" font-size="7" text-anchor="middle" fill="#FFFFFF">tan</text>
<circle cx="407.500000" cy="136.000000" r="1"/>
<line x1="402.500000" y1="145.000000" x2="405.500000" y2="146.000000"  transform="rotate(0.000000,405.500000,146.000000)" style="stroke: black; stroke-width:0.25;"/>
<line x1="402.500000" y1="147.000000" x2="405.500000" y2="146.000000"  transform="rotate(0.000000,405.500000,146.000000)" style="stroke: black; stroke-width:0.25;"/>
<rect x="446.500000" y="119.000000" width="24.000000" height="24.000000" rx="0" ry="0" style="stroke:none;fill:#cccccc;"/>
<rect x="445.500000" y="118.000000" width="24.000000" height="24.000000" rx="0" ry="0" style="stroke:none;fill:#4B71A1;"/>
<text x="457.500000" y="132.000000" font-family="Arial" font-size="7" text-anchor="middle" fill="#FFFFFF">/</text>
<circle cx="447.500000" cy="120.000000" r="1"/>
<line x1="442.500000" y1="125.000000" x2="445.500000" y2="126.000000"  transform="rotate(0.000000,445.500000,126.000000)" style="stroke: black; stroke-width:0.25;"/>
<line x1="442.500000" y1="127.000000" x2="445.500000" y2="126.000000"  transform="rotate(0.000000,445.500000,126.000000)" style="stroke: black; stroke-width:0.25;"/>
<line x1="442.500000" y1="133.000000" x2="445.500000" y2="134.000000"  transform="rotate(0.000000,445.500000,134.000000)" style="stroke: black; stroke-width:0.25;"/>
<line x1="442.500000" y1="135.000000" x2="445.500000" y2="134.000000"  transform="rotate(0.000000,445.500000,134.000000)" style="stroke: black; stroke-width:0.25;"/>
<line x1="15.000000" y1="15.000000" x2="15.000000" y2="245.000000"  style="stroke: black; stroke-linecap:round; stroke-width:0.25; stroke-dasharray:3,3;"/>
<line x1="15.000000" y1="245.000000" x2="486.500000" y2="245.000000"  style="stroke: black; stroke-linecap:round; stroke-width:0.25; stroke-dasharray:3,3;"/>
<line x1="486.500000" y1="245.000000" x2="486.500000" y2="15.000000"  style="stroke: black; stroke-linecap:round; stroke-width:0.25; stroke-dasharray:3,3;"/>
<line x1="15.000000" y1="15.000000" x2="20.000000" y2="15.000000"  style="stroke: black; stroke-linecap:round; stroke-width:0.25; stroke-dasharray:3,3;"/>
<line x1="29.675000" y1="15.000000" x2="486.500000" y2="15.000000"  style="stroke: black; stroke-linecap:round; stroke-width:0.25; stroke-dasharray:3,3;"/>
<text x="20.000000" y="17.000000" font-family="Arial" font-size="7">c</text>
<line x1="488.500000" y1="129.000000" x2="491.500000" y2="130.000000"  transform="rotate(0.000000,491.500000,130.000000)" style="stroke: black; stroke-width:0.25;"/>
<line x1="488.500000" y1="131.000000" x2="491.500000" y2="130.000000"  transform="rotate(0.000000,491.500000,130.000000)" style="stroke: black; stroke-width:0.25;"/>
<line x1="170.100000" y1="68.000000" x2="174.100000" y2="68.000000"  style="stroke:black; stroke-linecap:round; stroke-width:0.25;"/>
<line x1="174.100000" y1="68.000000" x2="281.500000" y2="68.000000"  style="stroke:black; stroke-linecap:round; stroke-width:0.25;"/>
<line x1="182.750000" y1="192.000000" x2="186.750000" y2="192.000000"  style="stroke:black; stroke-linecap:round; stroke-width:0.25;"/>
<line x1="186.750000" y1="192.000000" x2="321.500000" y2="192.000000"  style="stroke:black; stroke-linecap:round; stroke-width:0.25;"/>
<line x1="202.750000" y1="224.000000" x2="206.750000" y2="224.000000"  style="stroke:black; stroke-linecap:round; stroke-width:0.25;"/>
<line x1="206.750000" y1="224.000000" x2="361.500000" y2="224.000000"  style="stroke:black; stroke-linecap:round; stroke-width:0.25;"/>
<line x1="238.750000" y1="36.000000" x2="242.750000" y2="36.000000"  style="stroke:black; stroke-linecap:round; stroke-width:0.25;"/>
<line x1="242.750000" y1="36.000000" x2="433.500000" y2="36.000000"  style="stroke:black; stroke-linecap:round; stroke-width:0.25;"/>
<line x1="247.500000" y1="130.000000" x2="251.500000" y2="130.000000"  style="stroke:black; stroke-linecap:round; stroke-width:0.25;"/>
<line x1="251.500000" y1="130.000000" x2="261.500000" y2="130.000000"  style="stroke:black; stroke-linecap:round; stroke-width:0.25;"/>
<line x1="261.500000" y1="130.000000" x2="271.500000" y2="130.000000"  style="stroke:black; stroke-linecap:round; stroke-width:0.25;"/>
<line x1="271.500000" y1="130.000000" x2="281.500000" y2="130.000000"  style="stroke:black; stroke-linecap:round; stroke-width:0.25;"/>
<line x1="281.500000" y1="68.000000" x2="289.500000" y2="68.000000"  style="stroke:black; stroke-linecap:round; stroke-width:0.25;"/>
<line x1="281.500000" y1="118.000000" x2="289.500000" y2="118.000000"  style="stroke:black; stroke-linecap:round; stroke-width:0.25;"/>
<line x1="281.500000" y1="130.000000" x2="281.500000" y2="118.000000"  style="stroke:black; stroke-linecap:round; stroke-width:0.25;"/>
<line x1="281.500000" y1="130.000000" x2="281.500000" y2="130.000000"  style="stroke:black; stroke-linecap:round; stroke-width:0.25;"/>
<line x1="289.500000" y1="68.000000" x2="289.500000" y2="110.000000"  style="stroke:black; stroke-linecap:round; stroke-width:0.25;"/>
<line x1="289.500000" y1="110.000000" x2="289.500000" y2="110.000000"  style="stroke:black; stroke-linecap:round; stroke-width:0.25;"/>
<line x1="289.500000" y1="110.000000" x2="293.500000" y2="110.000000"  style="stroke:black; stroke-linecap:round; stroke-width:0.25;"/>
<line x1="289.500000" y1="118.000000" x2="293.500000" y2="118.000000"  style="stroke:black; stroke-linecap:round; stroke-width:0.25;"/>
<line x1="317.500000" y1="114.000000" x2="321.500000" y2="114.000000"  style="stroke:black; stroke-linecap:round; stroke-width:0.25;"/>
<line x1="321.500000" y1="114.000000" x2="329.500000" y2="114.000000"  style="stroke:black; stroke-linecap:round; stroke-width:0.25;"/>
<line x1="321.500000" y1="134.000000" x2="329.500000" y2="134.000000"  style="stroke:black; stroke-linecap:round; stroke-width:0.25;"/>
<line x1="321.500000" y1="192.000000" x2="321.500000" y2="134.000000"  style="stroke:black; stroke-linecap:round; stroke-width:0.25;"/>
<line x1="321.500000" y1="192.000000" x2="321.500000" y2="192.000000"  style="stroke:black; stroke-linecap:round; stroke-width:0.25;"/>
<line x1="329.500000" y1="114.000000" x2="329.500000" y2="126.000000"  style="stroke:black; stroke-linecap:round; stroke-width:0.25;"/>
<line x1="329.500000" y1="126.000000" x2="329.500000" y2="126.000000"  style="stroke:black; stroke-linecap:round; stroke-width:0.25;"/>
<line x1="329.500000" y1="126.000000" x2="333.500000" y2="126.000000"  style="stroke:black; stroke-linecap:round; stroke-width:0.25;"/>
<line x1="329.500000" y1="134.000000" x2="333.500000" y2="134.000000"  style="stroke:black; stroke-linecap:round; stroke-width:0.25;"/>
<line x1="357.500000" y1="130.000000" x2="361.500000" y2="130.000000"  style="stroke:black; stroke-linecap:round; stroke-width:0.25;"/>
<line x1="361.500000" y1="130.000000" x2="369.500000" y2="130.000000"  style="stroke:black; stroke-linecap:round; stroke-width:0.25;"/>
<line x1="361.500000" y1="150.000000" x2="369.500000" y2="150.000000"  style="stroke:black; stroke-linecap:round; stroke-width:0.25;"/>
<line x1="361.500000" y1="224.000000" x2="361.500000" y2="150.000000"  style="stroke:black; stroke-linecap:round; stroke-width:0.25;"/>
<line x1="361.500000" y1="224.000000" x2="361.500000" y2="224.000000"  style="stroke:black; stroke-linecap:round; stroke-width:0.25;"/>
<line x1="369.500000" y1="130.000000" x2="369.500000" y2="142.000000"  style="stroke:black; stroke-linecap:round; stroke-width:0.25;"/>
<line x1="369.500000" y1="142.000000" x2="369.500000" y2="142.000000"  style="stroke:black; stroke-linecap:round; stroke-width:0.25;"/>
<line x1="369.500000" y1="142.000000" x2="373.500000" y2="142.000000"  style="stroke:black; stroke-linecap:round; stroke-width:0.25;"/>
<line x1="369.500000" y1="150.000000" x2="373.500000" y2="150.000000"  style="stroke:black; stroke-linecap:round; stroke-width:0.25;"/>
<line x1="397.500000" y1="146.000000" x2="401.500000" y2="146.000000"  style="stroke:black; stroke-linecap:round; stroke-width:0.25;"/>
<line x1="401.500000" y1="146.000000" x2="401.500000" y2="146.000000"  style="stroke:black; stroke-linecap:round; stroke-width:0.25;"/>
<line x1="401.500000" y1="146.000000" x2="405.500000" y2="146.000000"  style="stroke:black; stroke-linecap:round; stroke-width:0.25;"/>
<line x1="429.500000" y1="146.000000" x2="433.500000" y2="146.000000"  style="stroke:black; stroke-linecap:round; stroke-width:0.25;"/>
<line x1="433.500000" y1="36.000000" x2="441.500000" y2="36.000000"  style="stroke:black; stroke-linecap:round; stroke-width:0.25;"/>
<line x1="433.500000" y1="134.000000" x2="441.500000" y2="134.000000"  style="stroke:black; stroke-linecap:round; stroke-width:0.25;"/>
<line x1="433.500000" y1="146.000000" x2="433.500000" y2="134.000000"  style="stroke:black; stroke-linecap:round; stroke-width:0.25;"/>
<line x1="433.500000" y1="146.000000" x2="433.500000" y2="146.000000"  style="stroke:black; stroke-linecap:round; stroke-width:0.25;"/>
<line x1="441.500000" y1="36.000000" x2="441.500000" y2="126.000000"  style="stroke:black; stroke-linecap:round; stroke-width:0.25;"/>
<line x1="441.500000" y1="126.000000" x2="441.500000" y2="126.000000"  style="stroke:black; stroke-linecap:round; stroke-width:0.25;"/>
<line x1="441.500000" y1="126.000000" x2="445.500000" y2="126.000000"  style="stroke:black; stroke-linecap:round; stroke-width:0.25;"/>
<line x1="441.500000" y1="134.000000" x2="445.500000" y2="134.000000"  style="stroke:black; stroke-linecap:round; stroke-width:0.25;"/>
<line x1="469.500000" y1="130.000000" x2="473.500000" y2="130.000000"  style="stroke:black; stroke-linecap:round; stroke-width:0.25;"/>
<line x1="473.500000" y1="130.000000" x2="473.500000" y2="130.000000"  style="stroke:black; stroke-linecap:round; stroke-width:0.25;"/>
<line x1="473.500000" y1="130.000000" x2="477.500000" y2="130.000000"  style="stroke:black; stroke-linecap:round; stroke-width:0.25;"/>
<line x1="477.500000" y1="130.000000" x2="481.500000" y2="130.000000"  style="stroke:black; stroke-linecap:round; stroke-width:0.25;"/>
<line x1="481.500000" y1="130.000000" x2="491.500000" y2="130.000000"  style="stroke:black; stroke-linecap:round; stroke-width:0.25;"/>
</svg>
