<?xml version="1.0"?>
<svg xmlns="http://www.w3.org/2000/svg" xmlns:xlink="http://www.w3.org/1999/xlink" viewBox="0 0 420.200000 156.000000" width="210.100000mm" height="78.000000mm" version="1.1">
<a xlink:href="MasterClock-0x7fdac98fbaa0.svg">
<rect x="1.000000" y="1.000000" width="419.200000" height="155.000000" rx="0" ry="0" style="stroke:none;fill:#cccccc;"/>
<rect x="0.000000" y="0.000000" width="419.200000" height="155.000000" rx="0" ry="0" style="stroke:none;fill:#ffffff;"/>
</a>
<text x="10.000000" y="7.000000" font-family="Arial" font-size="7"></text>
<rect x="35.000000" y="35.000000" width="232.200000" height="24.000000" rx="0" ry="0" style="stroke:none;fill:#cccccc;"/>
<rect x="34.000000" y="34.000000" width="232.200000" height="24.000000" rx="0" ry="0" style="stroke:none;fill:#477881;"/>
<text x="150.100000" y="48.000000" font-family="Arial" font-size="7" text-anchor="middle" fill="#FFFFFF">hslider(MasterTaille, 500.0f, 200.0f, 2000.0f, 0.01f)</text>
<circle cx="36.000000" cy="36.000000" r="1"/>
<line x1="25.000000" y1="25.000000" x2="25.000000" y2="67.000000"  style="stroke: black; stroke-linecap:round; stroke-width:0.25; stroke-dasharray:3,3;"/>
<line x1="25.000000" y1="67.000000" x2="275.200000" y2="67.000000"  style="stroke: black; stroke-linecap:round; stroke-width:0.25; stroke-dasharray:3,3;"/>
<line x1="275.200000" y1="67.000000" x2="275.200000" y2="25.000000"  style="stroke: black; stroke-linecap:round; stroke-width:0.25; stroke-dasharray:3,3;"/>
<line x1="25.000000" y1="25.000000" x2="30.000000" y2="25.000000"  style="stroke: black; stroke-linecap:round; stroke-width:0.25; stroke-dasharray:3,3;"/>
<line x1="75.150000" y1="25.000000" x2="275.200000" y2="25.000000"  style="stroke: black; stroke-linecap:round; stroke-width:0.25; stroke-dasharray:3,3;"/>
<text x="30.000000" y="27.000000" font-family="Arial" font-size="7">MasterTaille</text>
<a xlink:href="SR-0x7fdac98f1100.svg">
<rect x="139.100000" y="77.000000" width="24.000000" height="24.000000" rx="0" ry="0" style="stroke:none;fill:#cccccc;"/>
<rect x="138.100000" y="76.000000" width="24.000000" height="24.000000" rx="0" ry="0" style="stroke:none;fill:#003366;"/>
</a>
<a xlink:href="SR-0x7fdac98f1100.svg">
<text x="150.100000" y="90.000000" font-family="Arial" font-size="7" text-anchor="middle" fill="#FFFFFF">SR</text>
</a>
<circle cx="140.100000" cy="78.000000" r="1"/>
<rect x="293.200000" y="51.000000" width="24.000000" height="24.000000" rx="0" ry="0" style="stroke:none;fill:#cccccc;"/>
<rect x="292.200000" y="50.000000" width="24.000000" height="24.000000" rx="0" ry="0" style="stroke:none;fill:#4B71A1;"/>
<text x="304.200000" y="64.000000" font-family="Arial" font-size="7" text-anchor="middle" fill="#FFFFFF">*</text>
<circle cx="294.200000" cy="52.000000" r="1"/>
<line x1="289.200000" y1="57.000000" x2="292.200000" y2="58.000000"  transform="rotate(0.000000,292.200000,58.000000)" style="stroke: black; stroke-width:0.25;"/>
<line x1="289.200000" y1="59.000000" x2="292.200000" y2="58.000000"  transform="rotate(0.000000,292.200000,58.000000)" style="stroke: black; stroke-width:0.25;"/>
<line x1="289.200000" y1="65.000000" x2="292.200000" y2="66.000000"  transform="rotate(0.000000,292.200000,66.000000)" style="stroke: black; stroke-width:0.25;"/>
<line x1="289.200000" y1="67.000000" x2="292.200000" y2="66.000000"  transform="rotate(0.000000,292.200000,66.000000)" style="stroke: black; stroke-width:0.25;"/>
<rect x="158.200000" y="109.000000" width="25.800000" height="24.000000" rx="0" ry="0" style="stroke:none;fill:#cccccc;"/>
<rect x="157.200000" y="108.000000" width="25.800000" height="24.000000" rx="0" ry="0" style="stroke:none;fill:#f44800;"/>
<text x="170.100000" y="122.000000" font-family="Arial" font-size="7" text-anchor="middle" fill="#FFFFFF">1000</text>
<circle cx="159.200000" cy="110.000000" r="1"/>
<rect x="333.200000" y="67.000000" width="24.000000" height="24.000000" rx="0" ry="0" style="stroke:none;fill:#cccccc;"/>
<rect x="332.200000" y="66.000000" width="24.000000" height="24.000000" rx="0" ry="0" style="stroke:none;fill:#4B71A1;"/>
<text x="344.200000" y="80.000000" font-family="Arial" font-size="7" text-anchor="middle" fill="#FFFFFF">/</text>
<circle cx="334.200000" cy="68.000000" r="1"/>
<line x1="329.200000" y1="73.000000" x2="332.200000" y2="74.000000"  transform="rotate(0.000000,332.200000,74.000000)" style="stroke: black; stroke-width:0.25;"/>
<line x1="329.200000" y1="75.000000" x2="332.200000" y2="74.000000"  transform="rotate(0.000000,332.200000,74.000000)" style="stroke: black; stroke-width:0.25;"/>
<line x1="329.200000" y1="81.000000" x2="332.200000" y2="82.000000"  transform="rotate(0.000000,332.200000,82.000000)" style="stroke: black; stroke-width:0.25;"/>
<line x1="329.200000" y1="83.000000" x2="332.200000" y2="82.000000"  transform="rotate(0.000000,332.200000,82.000000)" style="stroke: black; stroke-width:0.25;"/>
<rect x="365.200000" y="67.000000" width="24.000000" height="24.000000" rx="0" ry="0" style="stroke:none;fill:#cccccc;"/>
<rect x="364.200000" y="66.000000" width="24.000000" height="24.000000" rx="0" ry="0" style="stroke:none;fill:#4B71A1;"/>
<text x="376.200000" y="80.000000" font-family="Arial" font-size="7" text-anchor="middle" fill="#FFFFFF">int</text>
<circle cx="366.200000" cy="68.000000" r="1"/>
<line x1="361.200000" y1="77.000000" x2="364.200000" y2="78.000000"  transform="rotate(0.000000,364.200000,78.000000)" style="stroke: black; stroke-width:0.25;"/>
<line x1="361.200000" y1="79.000000" x2="364.200000" y2="78.000000"  transform="rotate(0.000000,364.200000,78.000000)" style="stroke: black; stroke-width:0.25;"/>
<line x1="15.000000" y1="15.000000" x2="15.000000" y2="141.000000"  style="stroke: black; stroke-linecap:round; stroke-width:0.25; stroke-dasharray:3,3;"/>
<line x1="15.000000" y1="141.000000" x2="405.200000" y2="141.000000"  style="stroke: black; stroke-linecap:round; stroke-width:0.25; stroke-dasharray:3,3;"/>
<line x1="405.200000" y1="141.000000" x2="405.200000" y2="15.000000"  style="stroke: black; stroke-linecap:round; stroke-width:0.25; stroke-dasharray:3,3;"/>
<line x1="15.000000" y1="15.000000" x2="20.000000" y2="15.000000"  style="stroke: black; stroke-linecap:round; stroke-width:0.25; stroke-dasharray:3,3;"/>
<line x1="71.600000" y1="15.000000" x2="405.200000" y2="15.000000"  style="stroke: black; stroke-linecap:round; stroke-width:0.25; stroke-dasharray:3,3;"/>
<text x="20.000000" y="17.000000" font-family="Arial" font-size="7">MasterClocSize</text>
<line x1="407.200000" y1="77.000000" x2="410.200000" y2="78.000000"  transform="rotate(0.000000,410.200000,78.000000)" style="stroke: black; stroke-width:0.25;"/>
<line x1="407.200000" y1="79.000000" x2="410.200000" y2="78.000000"  transform="rotate(0.000000,410.200000,78.000000)" style="stroke: black; stroke-width:0.25;"/>
<line x1="162.100000" y1="88.000000" x2="166.100000" y2="88.000000"  style="stroke:black; stroke-linecap:round; stroke-width:0.25;"/>
<line x1="166.100000" y1="88.000000" x2="280.200000" y2="88.000000"  style="stroke:black; stroke-linecap:round; stroke-width:0.25;"/>
<line x1="183.000000" y1="120.000000" x2="187.000000" y2="120.000000"  style="stroke:black; stroke-linecap:round; stroke-width:0.25;"/>
<line x1="187.000000" y1="120.000000" x2="320.200000" y2="120.000000"  style="stroke:black; stroke-linecap:round; stroke-width:0.25;"/>
<line x1="266.200000" y1="46.000000" x2="270.200000" y2="46.000000"  style="stroke:black; stroke-linecap:round; stroke-width:0.25;"/>
<line x1="270.200000" y1="46.000000" x2="280.200000" y2="46.000000"  style="stroke:black; stroke-linecap:round; stroke-width:0.25;"/>
<line x1="280.200000" y1="46.000000" x2="288.200000" y2="46.000000"  style="stroke:black; stroke-linecap:round; stroke-width:0.25;"/>
<line x1="280.200000" y1="66.000000" x2="288.200000" y2="66.000000"  style="stroke:black; stroke-linecap:round; stroke-width:0.25;"/>
<line x1="280.200000" y1="88.000000" x2="280.200000" y2="66.000000"  style="stroke:black; stroke-linecap:round; stroke-width:0.25;"/>
<line x1="280.200000" y1="88.000000" x2="280.200000" y2="88.000000"  style="stroke:black; stroke-linecap:round; stroke-width:0.25;"/>
<line x1="288.200000" y1="46.000000" x2="288.200000" y2="58.000000"  style="stroke:black; stroke-linecap:round; stroke-width:0.25;"/>
<line x1="288.200000" y1="58.000000" x2="288.200000" y2="58.000000"  style="stroke:black; stroke-linecap:round; stroke-width:0.25;"/>
<line x1="288.200000" y1="58.000000" x2="292.200000" y2="58.000000"  style="stroke:black; stroke-linecap:round; stroke-width:0.25;"/>
<line x1="288.200000" y1="66.000000" x2="292.200000" y2="66.000000"  style="stroke:black; stroke-linecap:round; stroke-width:0.25;"/>
<line x1="316.200000" y1="62.000000" x2="320.200000" y2="62.000000"  style="stroke:black; stroke-linecap:round; stroke-width:0.25;"/>
<line x1="320.200000" y1="62.000000" x2="328.200000" y2="62.000000"  style="stroke:black; stroke-linecap:round; stroke-width:0.25;"/>
<line x1="320.200000" y1="82.000000" x2="328.200000" y2="82.000000"  style="stroke:black; stroke-linecap:round; stroke-width:0.25;"/>
<line x1="320.200000" y1="120.000000" x2="320.200000" y2="82.000000"  style="stroke:black; stroke-linecap:round; stroke-width:0.25;"/>
<line x1="320.200000" y1="120.000000" x2="320.200000" y2="120.000000"  style="stroke:black; stroke-linecap:round; stroke-width:0.25;"/>
<line x1="328.200000" y1="62.000000" x2="328.200000" y2="74.000000"  style="stroke:black; stroke-linecap:round; stroke-width:0.25;"/>
<line x1="328.200000" y1="74.000000" x2="328.200000" y2="74.000000"  style="stroke:black; stroke-linecap:round; stroke-width:0.25;"/>
<line x1="328.200000" y1="74.000000" x2="332.200000" y2="74.000000"  style="stroke:black; stroke-linecap:round; stroke-width:0.25;"/>
<line x1="328.200000" y1="82.000000" x2="332.200000" y2="82.000000"  style="stroke:black; stroke-linecap:round; stroke-width:0.25;"/>
<line x1="356.200000" y1="78.000000" x2="360.200000" y2="78.000000"  style="stroke:black; stroke-linecap:round; stroke-width:0.25;"/>
<line x1="360.200000" y1="78.000000" x2="360.200000" y2="78.000000"  style="stroke:black; stroke-linecap:round; stroke-width:0.25;"/>
<line x1="360.200000" y1="78.000000" x2="364.200000" y2="78.000000"  style="stroke:black; stroke-linecap:round; stroke-width:0.25;"/>
<line x1="388.200000" y1="78.000000" x2="392.200000" y2="78.000000"  style="stroke:black; stroke-linecap:round; stroke-width:0.25;"/>
<line x1="392.200000" y1="78.000000" x2="392.200000" y2="78.000000"  style="stroke:black; stroke-linecap:round; stroke-width:0.25;"/>
<line x1="392.200000" y1="78.000000" x2="396.200000" y2="78.000000"  style="stroke:black; stroke-linecap:round; stroke-width:0.25;"/>
<line x1="396.200000" y1="78.000000" x2="400.200000" y2="78.000000"  style="stroke:black; stroke-linecap:round; stroke-width:0.25;"/>
<line x1="400.200000" y1="78.000000" x2="410.200000" y2="78.000000"  style="stroke:black; stroke-linecap:round; stroke-width:0.25;"/>
</svg>
