<?xml version="1.0"?>
<svg xmlns="http://www.w3.org/2000/svg" xmlns:xlink="http://www.w3.org/1999/xlink" viewBox="0 0 308.600000 136.000000" width="154.300000mm" height="68.000000mm" version="1.1">
<a xlink:href="process.svg">
<rect x="1.000000" y="1.000000" width="307.600000" height="135.000000" rx="0" ry="0" style="stroke:none;fill:#cccccc;"/>
<rect x="0.000000" y="0.000000" width="307.600000" height="135.000000" rx="0" ry="0" style="stroke:none;fill:#ffffff;"/>
</a>
<text x="10.000000" y="7.000000" font-family="Arial" font-size="7"></text>
<rect x="53.900000" y="25.000000" width="25.800000" height="24.000000" rx="0" ry="0" style="stroke:none;fill:#cccccc;"/>
<rect x="52.900000" y="24.000000" width="25.800000" height="24.000000" rx="0" ry="0" style="stroke:none;fill:#47945E;"/>
<text x="65.800000" y="38.000000" font-family="Arial" font-size="7" text-anchor="middle" fill="#FFFFFF">input</text>
<circle cx="54.900000" cy="26.000000" r="1"/>
<line x1="49.900000" y1="35.000000" x2="52.900000" y2="36.000000"  transform="rotate(0.000000,52.900000,36.000000)" style="stroke: black; stroke-width:0.25;"/>
<line x1="49.900000" y1="37.000000" x2="52.900000" y2="36.000000"  transform="rotate(0.000000,52.900000,36.000000)" style="stroke: black; stroke-width:0.25;"/>
<rect x="41.000000" y="57.000000" width="51.600000" height="24.000000" rx="0" ry="0" style="stroke:none;fill:#cccccc;"/>
<rect x="40.000000" y="56.000000" width="51.600000" height="24.000000" rx="0" ry="0" style="stroke:none;fill:#47945E;"/>
<text x="65.800000" y="70.000000" font-family="Arial" font-size="7" text-anchor="middle" fill="#FFFFFF">inReadIndex</text>
<circle cx="42.000000" cy="58.000000" r="1"/>
<line x1="37.000000" y1="67.000000" x2="40.000000" y2="68.000000"  transform="rotate(0.000000,40.000000,68.000000)" style="stroke: black; stroke-width:0.25;"/>
<line x1="37.000000" y1="69.000000" x2="40.000000" y2="68.000000"  transform="rotate(0.000000,40.000000,68.000000)" style="stroke: black; stroke-width:0.25;"/>
<rect x="53.900000" y="89.000000" width="25.800000" height="24.000000" rx="0" ry="0" style="stroke:none;fill:#cccccc;"/>
<rect x="52.900000" y="88.000000" width="25.800000" height="24.000000" rx="0" ry="0" style="stroke:none;fill:#47945E;"/>
<text x="65.800000" y="102.000000" font-family="Arial" font-size="7" text-anchor="middle" fill="#FFFFFF">reset</text>
<circle cx="54.900000" cy="90.000000" r="1"/>
<line x1="49.900000" y1="99.000000" x2="52.900000" y2="100.000000"  transform="rotate(0.000000,52.900000,100.000000)" style="stroke: black; stroke-width:0.25;"/>
<line x1="49.900000" y1="101.000000" x2="52.900000" y2="100.000000"  transform="rotate(0.000000,52.900000,100.000000)" style="stroke: black; stroke-width:0.25;"/>
<a xlink:href="wf-0x7fa02eac1880.svg">
<rect x="101.500000" y="37.000000" width="24.000000" height="32.000000" rx="0" ry="0" style="stroke:none;fill:#cccccc;"/>
<rect x="100.500000" y="36.000000" width="24.000000" height="32.000000" rx="0" ry="0" style="stroke:none;fill:#003366;"/>
</a>
<a xlink:href="wf-0x7fa02eac1880.svg">
<text x="112.500000" y="54.000000" font-family="Arial" font-size="7" text-anchor="middle" fill="#FFFFFF">wf</text>
</a>
<circle cx="102.500000" cy="38.000000" r="1"/>
<a xlink:href="rindex-0x7fa02eabdce0.svg">
<rect x="100.600000" y="77.000000" width="25.800000" height="24.000000" rx="0" ry="0" style="stroke:none;fill:#cccccc;"/>
<rect x="99.600000" y="76.000000" width="25.800000" height="24.000000" rx="0" ry="0" style="stroke:none;fill:#003366;"/>
</a>
<a xlink:href="rindex-0x7fa02eabdce0.svg">
<text x="112.500000" y="90.000000" font-family="Arial" font-size="7" text-anchor="middle" fill="#FFFFFF">rindex</text>
</a>
<circle cx="101.600000" cy="78.000000" r="1"/>
<rect x="166.400000" y="49.000000" width="38.700000" height="40.000000" rx="0" ry="0" style="stroke:none;fill:#cccccc;"/>
<rect x="165.400000" y="48.000000" width="38.700000" height="40.000000" rx="0" ry="0" style="stroke:none;fill:#4B71A1;"/>
<text x="184.750000" y="70.000000" font-family="Arial" font-size="7" text-anchor="middle" fill="#FFFFFF">rwtable</text>
<circle cx="167.400000" cy="50.000000" r="1"/>
<line x1="162.400000" y1="51.000000" x2="165.400000" y2="52.000000"  transform="rotate(0.000000,165.400000,52.000000)" style="stroke: black; stroke-width:0.25;"/>
<line x1="162.400000" y1="53.000000" x2="165.400000" y2="52.000000"  transform="rotate(0.000000,165.400000,52.000000)" style="stroke: black; stroke-width:0.25;"/>
<line x1="162.400000" y1="59.000000" x2="165.400000" y2="60.000000"  transform="rotate(0.000000,165.400000,60.000000)" style="stroke: black; stroke-width:0.25;"/>
<line x1="162.400000" y1="61.000000" x2="165.400000" y2="60.000000"  transform="rotate(0.000000,165.400000,60.000000)" style="stroke: black; stroke-width:0.25;"/>
<line x1="162.400000" y1="67.000000" x2="165.400000" y2="68.000000"  transform="rotate(0.000000,165.400000,68.000000)" style="stroke: black; stroke-width:0.25;"/>
<line x1="162.400000" y1="69.000000" x2="165.400000" y2="68.000000"  transform="rotate(0.000000,165.400000,68.000000)" style="stroke: black; stroke-width:0.25;"/>
<line x1="162.400000" y1="75.000000" x2="165.400000" y2="76.000000"  transform="rotate(0.000000,165.400000,76.000000)" style="stroke: black; stroke-width:0.25;"/>
<line x1="162.400000" y1="77.000000" x2="165.400000" y2="76.000000"  transform="rotate(0.000000,165.400000,76.000000)" style="stroke: black; stroke-width:0.25;"/>
<line x1="162.400000" y1="83.000000" x2="165.400000" y2="84.000000"  transform="rotate(0.000000,165.400000,84.000000)" style="stroke: black; stroke-width:0.25;"/>
<line x1="162.400000" y1="85.000000" x2="165.400000" y2="84.000000"  transform="rotate(0.000000,165.400000,84.000000)" style="stroke: black; stroke-width:0.25;"/>
<a xlink:href="dcblockerat-0x7fa02eae45c0.svg">
<rect x="213.100000" y="57.000000" width="64.500000" height="24.000000" rx="0" ry="0" style="stroke:none;fill:#cccccc;"/>
<rect x="212.100000" y="56.000000" width="64.500000" height="24.000000" rx="0" ry="0" style="stroke:none;fill:#003366;"/>
</a>
<a xlink:href="dcblockerat-0x7fa02eae45c0.svg">
<text x="244.350000" y="70.000000" font-family="Arial" font-size="7" text-anchor="middle" fill="#FFFFFF">dcblockerat(20)</text>
</a>
<circle cx="214.100000" cy="58.000000" r="1"/>
<line x1="209.100000" y1="67.000000" x2="212.100000" y2="68.000000"  transform="rotate(0.000000,212.100000,68.000000)" style="stroke: black; stroke-width:0.25;"/>
<line x1="209.100000" y1="69.000000" x2="212.100000" y2="68.000000"  transform="rotate(0.000000,212.100000,68.000000)" style="stroke: black; stroke-width:0.25;"/>
<line x1="15.000000" y1="15.000000" x2="15.000000" y2="121.000000"  style="stroke: black; stroke-linecap:round; stroke-width:0.25; stroke-dasharray:3,3;"/>
<line x1="15.000000" y1="121.000000" x2="293.600000" y2="121.000000"  style="stroke: black; stroke-linecap:round; stroke-width:0.25; stroke-dasharray:3,3;"/>
<line x1="293.600000" y1="121.000000" x2="293.600000" y2="15.000000"  style="stroke: black; stroke-linecap:round; stroke-width:0.25; stroke-dasharray:3,3;"/>
<line x1="15.000000" y1="15.000000" x2="20.000000" y2="15.000000"  style="stroke: black; stroke-linecap:round; stroke-width:0.25; stroke-dasharray:3,3;"/>
<line x1="71.600000" y1="15.000000" x2="293.600000" y2="15.000000"  style="stroke: black; stroke-linecap:round; stroke-width:0.25; stroke-dasharray:3,3;"/>
<text x="20.000000" y="17.000000" font-family="Arial" font-size="7">rec_play_table</text>
<line x1="295.600000" y1="67.000000" x2="298.600000" y2="68.000000"  transform="rotate(0.000000,298.600000,68.000000)" style="stroke: black; stroke-width:0.25;"/>
<line x1="295.600000" y1="69.000000" x2="298.600000" y2="68.000000"  transform="rotate(0.000000,298.600000,68.000000)" style="stroke: black; stroke-width:0.25;"/>
<line x1="10.000000" y1="60.000000" x2="20.000000" y2="60.000000"  style="stroke:black; stroke-linecap:round; stroke-width:0.25;"/>
<line x1="10.000000" y1="68.000000" x2="20.000000" y2="68.000000"  style="stroke:black; stroke-linecap:round; stroke-width:0.25;"/>
<line x1="10.000000" y1="76.000000" x2="20.000000" y2="76.000000"  style="stroke:black; stroke-linecap:round; stroke-width:0.25;"/>
<line x1="20.000000" y1="60.000000" x2="24.000000" y2="60.000000"  style="stroke:black; stroke-linecap:round; stroke-width:0.25;"/>
<line x1="20.000000" y1="68.000000" x2="24.000000" y2="68.000000"  style="stroke:black; stroke-linecap:round; stroke-width:0.25;"/>
<line x1="20.000000" y1="76.000000" x2="24.000000" y2="76.000000"  style="stroke:black; stroke-linecap:round; stroke-width:0.25;"/>
<line x1="24.000000" y1="60.000000" x2="28.000000" y2="60.000000"  style="stroke:black; stroke-linecap:round; stroke-width:0.25;"/>
<line x1="24.000000" y1="68.000000" x2="28.000000" y2="68.000000"  style="stroke:black; stroke-linecap:round; stroke-width:0.25;"/>
<line x1="24.000000" y1="76.000000" x2="28.000000" y2="76.000000"  style="stroke:black; stroke-linecap:round; stroke-width:0.25;"/>
<line x1="28.000000" y1="36.000000" x2="36.000000" y2="36.000000"  style="stroke:black; stroke-linecap:round; stroke-width:0.25;"/>
<line x1="28.000000" y1="60.000000" x2="28.000000" y2="36.000000"  style="stroke:black; stroke-linecap:round; stroke-width:0.25;"/>
<line x1="28.000000" y1="60.000000" x2="28.000000" y2="60.000000"  style="stroke:black; stroke-linecap:round; stroke-width:0.25;"/>
<line x1="28.000000" y1="68.000000" x2="36.000000" y2="68.000000"  style="stroke:black; stroke-linecap:round; stroke-width:0.25;"/>
<line x1="28.000000" y1="76.000000" x2="36.000000" y2="76.000000"  style="stroke:black; stroke-linecap:round; stroke-width:0.25;"/>
<line x1="36.000000" y1="36.000000" x2="48.900000" y2="36.000000"  style="stroke:black; stroke-linecap:round; stroke-width:0.25;"/>
<line x1="36.000000" y1="68.000000" x2="40.000000" y2="68.000000"  style="stroke:black; stroke-linecap:round; stroke-width:0.25;"/>
<line x1="36.000000" y1="76.000000" x2="36.000000" y2="100.000000"  style="stroke:black; stroke-linecap:round; stroke-width:0.25;"/>
<line x1="36.000000" y1="100.000000" x2="36.000000" y2="100.000000"  style="stroke:black; stroke-linecap:round; stroke-width:0.25;"/>
<line x1="36.000000" y1="100.000000" x2="48.900000" y2="100.000000"  style="stroke:black; stroke-linecap:round; stroke-width:0.25;"/>
<line x1="48.900000" y1="36.000000" x2="52.900000" y2="36.000000"  style="stroke:black; stroke-linecap:round; stroke-width:0.25;"/>
<line x1="48.900000" y1="100.000000" x2="52.900000" y2="100.000000"  style="stroke:black; stroke-linecap:round; stroke-width:0.25;"/>
<line x1="124.500000" y1="40.000000" x2="128.500000" y2="40.000000"  style="stroke:black; stroke-linecap:round; stroke-width:0.25;"/>
<line x1="124.500000" y1="48.000000" x2="128.500000" y2="48.000000"  style="stroke:black; stroke-linecap:round; stroke-width:0.25;"/>
<line x1="124.500000" y1="56.000000" x2="128.500000" y2="56.000000"  style="stroke:black; stroke-linecap:round; stroke-width:0.25;"/>
<line x1="124.500000" y1="64.000000" x2="128.500000" y2="64.000000"  style="stroke:black; stroke-linecap:round; stroke-width:0.25;"/>
<line x1="125.400000" y1="88.000000" x2="129.400000" y2="88.000000"  style="stroke:black; stroke-linecap:round; stroke-width:0.25;"/>
<line x1="128.500000" y1="40.000000" x2="129.400000" y2="40.000000"  style="stroke:black; stroke-linecap:round; stroke-width:0.25;"/>
<line x1="128.500000" y1="48.000000" x2="129.400000" y2="48.000000"  style="stroke:black; stroke-linecap:round; stroke-width:0.25;"/>
<line x1="128.500000" y1="56.000000" x2="129.400000" y2="56.000000"  style="stroke:black; stroke-linecap:round; stroke-width:0.25;"/>
<line x1="128.500000" y1="64.000000" x2="129.400000" y2="64.000000"  style="stroke:black; stroke-linecap:round; stroke-width:0.25;"/>
<line x1="129.400000" y1="84.000000" x2="161.400000" y2="84.000000"  style="stroke:black; stroke-linecap:round; stroke-width:0.25;"/>
<line x1="129.400000" y1="88.000000" x2="129.400000" y2="84.000000"  style="stroke:black; stroke-linecap:round; stroke-width:0.25;"/>
<line x1="129.400000" y1="88.000000" x2="129.400000" y2="88.000000"  style="stroke:black; stroke-linecap:round; stroke-width:0.25;"/>
<line x1="129.400000" y1="40.000000" x2="161.400000" y2="40.000000"  style="stroke:black; stroke-linecap:round; stroke-width:0.25;"/>
<line x1="129.400000" y1="48.000000" x2="153.400000" y2="48.000000"  style="stroke:black; stroke-linecap:round; stroke-width:0.25;"/>
<line x1="129.400000" y1="56.000000" x2="145.400000" y2="56.000000"  style="stroke:black; stroke-linecap:round; stroke-width:0.25;"/>
<line x1="129.400000" y1="64.000000" x2="137.400000" y2="64.000000"  style="stroke:black; stroke-linecap:round; stroke-width:0.25;"/>
<line x1="137.400000" y1="64.000000" x2="137.400000" y2="76.000000"  style="stroke:black; stroke-linecap:round; stroke-width:0.25;"/>
<line x1="137.400000" y1="76.000000" x2="161.400000" y2="76.000000"  style="stroke:black; stroke-linecap:round; stroke-width:0.25;"/>
<line x1="145.400000" y1="56.000000" x2="145.400000" y2="68.000000"  style="stroke:black; stroke-linecap:round; stroke-width:0.25;"/>
<line x1="145.400000" y1="68.000000" x2="161.400000" y2="68.000000"  style="stroke:black; stroke-linecap:round; stroke-width:0.25;"/>
<line x1="153.400000" y1="48.000000" x2="153.400000" y2="60.000000"  style="stroke:black; stroke-linecap:round; stroke-width:0.25;"/>
<line x1="153.400000" y1="60.000000" x2="161.400000" y2="60.000000"  style="stroke:black; stroke-linecap:round; stroke-width:0.25;"/>
<line x1="161.400000" y1="52.000000" x2="165.400000" y2="52.000000"  style="stroke:black; stroke-linecap:round; stroke-width:0.25;"/>
<line x1="161.400000" y1="60.000000" x2="165.400000" y2="60.000000"  style="stroke:black; stroke-linecap:round; stroke-width:0.25;"/>
<line x1="161.400000" y1="68.000000" x2="165.400000" y2="68.000000"  style="stroke:black; stroke-linecap:round; stroke-width:0.25;"/>
<line x1="161.400000" y1="76.000000" x2="165.400000" y2="76.000000"  style="stroke:black; stroke-linecap:round; stroke-width:0.25;"/>
<line x1="161.400000" y1="84.000000" x2="165.400000" y2="84.000000"  style="stroke:black; stroke-linecap:round; stroke-width:0.25;"/>
<line x1="161.400000" y1="40.000000" x2="161.400000" y2="52.000000"  style="stroke:black; stroke-linecap:round; stroke-width:0.25;"/>
<line x1="161.400000" y1="52.000000" x2="161.400000" y2="52.000000"  style="stroke:black; stroke-linecap:round; stroke-width:0.25;"/>
<line x1="204.100000" y1="68.000000" x2="208.100000" y2="68.000000"  style="stroke:black; stroke-linecap:round; stroke-width:0.25;"/>
<line x1="208.100000" y1="68.000000" x2="208.100000" y2="68.000000"  style="stroke:black; stroke-linecap:round; stroke-width:0.25;"/>
<line x1="208.100000" y1="68.000000" x2="212.100000" y2="68.000000"  style="stroke:black; stroke-linecap:round; stroke-width:0.25;"/>
<line x1="276.600000" y1="68.000000" x2="280.600000" y2="68.000000"  style="stroke:black; stroke-linecap:round; stroke-width:0.25;"/>
<line x1="280.600000" y1="68.000000" x2="280.600000" y2="68.000000"  style="stroke:black; stroke-linecap:round; stroke-width:0.25;"/>
<line x1="280.600000" y1="68.000000" x2="284.600000" y2="68.000000"  style="stroke:black; stroke-linecap:round; stroke-width:0.25;"/>
<line x1="284.600000" y1="68.000000" x2="288.600000" y2="68.000000"  style="stroke:black; stroke-linecap:round; stroke-width:0.25;"/>
<line x1="288.600000" y1="68.000000" x2="298.600000" y2="68.000000"  style="stroke:black; stroke-linecap:round; stroke-width:0.25;"/>
</svg>
