<?xml version="1.0"?>
<svg xmlns="http://www.w3.org/2000/svg" xmlns:xlink="http://www.w3.org/1999/xlink" viewBox="0 0 708.400000 176.000000" width="354.200000mm" height="88.000000mm" version="1.1">
<rect x="1.000000" y="1.000000" width="707.400000" height="175.000000" rx="0" ry="0" style="stroke:none;fill:#cccccc;"/>
<rect x="0.000000" y="0.000000" width="707.400000" height="175.000000" rx="0" ry="0" style="stroke:none;fill:#ffffff;"/>
<text x="10.000000" y="7.000000" font-family="Arial" font-size="7"></text>
<a xlink:href="multinoise-0x7fd141c80800.svg">
<rect x="25.000000" y="77.000000" width="64.500000" height="24.000000" rx="0" ry="0" style="stroke:none;fill:#cccccc;"/>
<rect x="24.000000" y="76.000000" width="64.500000" height="24.000000" rx="0" ry="0" style="stroke:none;fill:#003366;"/>
</a>
<a xlink:href="multinoise-0x7fd141c80800.svg">
<text x="56.250000" y="90.000000" font-family="Arial" font-size="7" text-anchor="middle" fill="#FFFFFF">multinoise(2)</text>
</a>
<circle cx="26.000000" cy="78.000000" r="1"/>
<a xlink:href="moog-0x7fd1434f5020.svg">
<rect x="105.500000" y="61.000000" width="129.000000" height="24.000000" rx="0" ry="0" style="stroke:none;fill:#cccccc;"/>
<rect x="104.500000" y="60.000000" width="129.000000" height="24.000000" rx="0" ry="0" style="stroke:none;fill:#003366;"/>
</a>
<a xlink:href="moog-0x7fd1434f5020.svg">
<text x="169.000000" y="74.000000" font-family="Arial" font-size="7" text-anchor="middle" fill="#FFFFFF">moog_vcf_2bn(..., lenv = {}])</text>
</a>
<circle cx="106.500000" cy="62.000000" r="1"/>
<line x1="101.500000" y1="71.000000" x2="104.500000" y2="72.000000"  transform="rotate(0.000000,104.500000,72.000000)" style="stroke: black; stroke-width:0.25;"/>
<line x1="101.500000" y1="73.000000" x2="104.500000" y2="72.000000"  transform="rotate(0.000000,104.500000,72.000000)" style="stroke: black; stroke-width:0.25;"/>
<a xlink:href="moog-0x7fd1434f5020.svg">
<rect x="105.500000" y="93.000000" width="129.000000" height="24.000000" rx="0" ry="0" style="stroke:none;fill:#cccccc;"/>
<rect x="104.500000" y="92.000000" width="129.000000" height="24.000000" rx="0" ry="0" style="stroke:none;fill:#003366;"/>
</a>
<a xlink:href="moog-0x7fd1434f5020.svg">
<text x="169.000000" y="106.000000" font-family="Arial" font-size="7" text-anchor="middle" fill="#FFFFFF">moog_vcf_2bn(..., lenv = {}])</text>
</a>
<circle cx="106.500000" cy="94.000000" r="1"/>
<line x1="101.500000" y1="103.000000" x2="104.500000" y2="104.000000"  transform="rotate(0.000000,104.500000,104.000000)" style="stroke: black; stroke-width:0.25;"/>
<line x1="101.500000" y1="105.000000" x2="104.500000" y2="104.000000"  transform="rotate(0.000000,104.500000,104.000000)" style="stroke: black; stroke-width:0.25;"/>
<rect x="258.500000" y="47.000000" width="270.900000" height="24.000000" rx="0" ry="0" style="stroke:none;fill:#cccccc;"/>
<rect x="257.500000" y="46.000000" width="270.900000" height="24.000000" rx="0" ry="0" style="stroke:none;fill:#477881;"/>
<text x="392.950000" y="60.000000" font-family="Arial" font-size="7" text-anchor="middle" fill="#FFFFFF">hslider(v:wind/force, 0.66000000000000003f, 0.0f, 1.0f, 0.01f)</text>
<circle cx="259.500000" cy="48.000000" r="1"/>
<rect x="547.400000" y="47.000000" width="24.000000" height="24.000000" rx="0" ry="0" style="stroke:none;fill:#cccccc;"/>
<rect x="546.400000" y="46.000000" width="24.000000" height="24.000000" rx="0" ry="0" style="stroke:none;fill:#47945E;"/>
<text x="558.400000" y="60.000000" font-family="Arial" font-size="7" text-anchor="middle" fill="#FFFFFF">x</text>
<circle cx="548.400000" cy="48.000000" r="1"/>
<line x1="543.400000" y1="57.000000" x2="546.400000" y2="58.000000"  transform="rotate(0.000000,546.400000,58.000000)" style="stroke: black; stroke-width:0.25;"/>
<line x1="543.400000" y1="59.000000" x2="546.400000" y2="58.000000"  transform="rotate(0.000000,546.400000,58.000000)" style="stroke: black; stroke-width:0.25;"/>
<a xlink:href="fb-0x7fd1434ee0d0.svg">
<rect x="587.400000" y="51.000000" width="24.000000" height="24.000000" rx="0" ry="0" style="stroke:none;fill:#cccccc;"/>
<rect x="586.400000" y="50.000000" width="24.000000" height="24.000000" rx="0" ry="0" style="stroke:none;fill:#003366;"/>
</a>
<a xlink:href="fb-0x7fd1434ee0d0.svg">
<text x="598.400000" y="64.000000" font-family="Arial" font-size="7" text-anchor="middle" fill="#FFFFFF">fb</text>
</a>
<circle cx="588.400000" cy="52.000000" r="1"/>
<line x1="583.400000" y1="61.000000" x2="586.400000" y2="62.000000"  transform="rotate(0.000000,586.400000,62.000000)" style="stroke: black; stroke-width:0.25;"/>
<line x1="583.400000" y1="63.000000" x2="586.400000" y2="62.000000"  transform="rotate(0.000000,586.400000,62.000000)" style="stroke: black; stroke-width:0.25;"/>
<line x1="612.400000" y1="62.000000" x2="612.400000" y2="58.000000"  style="stroke:black; stroke-linecap:round; stroke-width:0.25;"/>
<line x1="612.400000" y1="58.000000" x2="616.400000" y2="58.000000"  style="stroke:black; stroke-linecap:round; stroke-width:0.25;"/>
<line x1="616.400000" y1="58.000000" x2="616.400000" y2="62.000000"  style="stroke:black; stroke-linecap:round; stroke-width:0.25;"/>
<line x1="537.400000" y1="33.000000" x2="537.400000" y2="83.000000"  style="stroke: black; stroke-linecap:round; stroke-width:0.25; stroke-dasharray:3,3;"/>
<line x1="537.400000" y1="83.000000" x2="627.400000" y2="83.000000"  style="stroke: black; stroke-linecap:round; stroke-width:0.25; stroke-dasharray:3,3;"/>
<line x1="627.400000" y1="83.000000" x2="627.400000" y2="33.000000"  style="stroke: black; stroke-linecap:round; stroke-width:0.25; stroke-dasharray:3,3;"/>
<line x1="537.400000" y1="33.000000" x2="542.400000" y2="33.000000"  style="stroke: black; stroke-linecap:round; stroke-width:0.25; stroke-dasharray:3,3;"/>
<line x1="584.325000" y1="33.000000" x2="627.400000" y2="33.000000"  style="stroke: black; stroke-linecap:round; stroke-width:0.25; stroke-dasharray:3,3;"/>
<text x="542.400000" y="35.000000" font-family="Arial" font-size="7">Abstraction</text>
<rect x="645.400000" y="43.000000" width="24.000000" height="24.000000" rx="0" ry="0" style="stroke:none;fill:#cccccc;"/>
<rect x="644.400000" y="42.000000" width="24.000000" height="24.000000" rx="0" ry="0" style="stroke:none;fill:#4B71A1;"/>
<text x="656.400000" y="56.000000" font-family="Arial" font-size="7" text-anchor="middle" fill="#FFFFFF">*</text>
<circle cx="646.400000" cy="44.000000" r="1"/>
<line x1="641.400000" y1="49.000000" x2="644.400000" y2="50.000000"  transform="rotate(0.000000,644.400000,50.000000)" style="stroke: black; stroke-width:0.25;"/>
<line x1="641.400000" y1="51.000000" x2="644.400000" y2="50.000000"  transform="rotate(0.000000,644.400000,50.000000)" style="stroke: black; stroke-width:0.25;"/>
<line x1="641.400000" y1="57.000000" x2="644.400000" y2="58.000000"  transform="rotate(0.000000,644.400000,58.000000)" style="stroke: black; stroke-width:0.25;"/>
<line x1="641.400000" y1="59.000000" x2="644.400000" y2="58.000000"  transform="rotate(0.000000,644.400000,58.000000)" style="stroke: black; stroke-width:0.25;"/>
<rect x="258.500000" y="115.000000" width="270.900000" height="24.000000" rx="0" ry="0" style="stroke:none;fill:#cccccc;"/>
<rect x="257.500000" y="114.000000" width="270.900000" height="24.000000" rx="0" ry="0" style="stroke:none;fill:#477881;"/>
<text x="392.950000" y="128.000000" font-family="Arial" font-size="7" text-anchor="middle" fill="#FFFFFF">hslider(v:wind/force, 0.66000000000000003f, 0.0f, 1.0f, 0.01f)</text>
<circle cx="259.500000" cy="116.000000" r="1"/>
<rect x="547.400000" y="115.000000" width="24.000000" height="24.000000" rx="0" ry="0" style="stroke:none;fill:#cccccc;"/>
<rect x="546.400000" y="114.000000" width="24.000000" height="24.000000" rx="0" ry="0" style="stroke:none;fill:#47945E;"/>
<text x="558.400000" y="128.000000" font-family="Arial" font-size="7" text-anchor="middle" fill="#FFFFFF">x</text>
<circle cx="548.400000" cy="116.000000" r="1"/>
<line x1="543.400000" y1="125.000000" x2="546.400000" y2="126.000000"  transform="rotate(0.000000,546.400000,126.000000)" style="stroke: black; stroke-width:0.25;"/>
<line x1="543.400000" y1="127.000000" x2="546.400000" y2="126.000000"  transform="rotate(0.000000,546.400000,126.000000)" style="stroke: black; stroke-width:0.25;"/>
<a xlink:href="fb-0x7fd1434ee0d0.svg">
<rect x="587.400000" y="119.000000" width="24.000000" height="24.000000" rx="0" ry="0" style="stroke:none;fill:#cccccc;"/>
<rect x="586.400000" y="118.000000" width="24.000000" height="24.000000" rx="0" ry="0" style="stroke:none;fill:#003366;"/>
</a>
<a xlink:href="fb-0x7fd1434ee0d0.svg">
<text x="598.400000" y="132.000000" font-family="Arial" font-size="7" text-anchor="middle" fill="#FFFFFF">fb</text>
</a>
<circle cx="588.400000" cy="120.000000" r="1"/>
<line x1="583.400000" y1="129.000000" x2="586.400000" y2="130.000000"  transform="rotate(0.000000,586.400000,130.000000)" style="stroke: black; stroke-width:0.25;"/>
<line x1="583.400000" y1="131.000000" x2="586.400000" y2="130.000000"  transform="rotate(0.000000,586.400000,130.000000)" style="stroke: black; stroke-width:0.25;"/>
<line x1="612.400000" y1="130.000000" x2="612.400000" y2="126.000000"  style="stroke:black; stroke-linecap:round; stroke-width:0.25;"/>
<line x1="612.400000" y1="126.000000" x2="616.400000" y2="126.000000"  style="stroke:black; stroke-linecap:round; stroke-width:0.25;"/>
<line x1="616.400000" y1="126.000000" x2="616.400000" y2="130.000000"  style="stroke:black; stroke-linecap:round; stroke-width:0.25;"/>
<line x1="537.400000" y1="101.000000" x2="537.400000" y2="151.000000"  style="stroke: black; stroke-linecap:round; stroke-width:0.25; stroke-dasharray:3,3;"/>
<line x1="537.400000" y1="151.000000" x2="627.400000" y2="151.000000"  style="stroke: black; stroke-linecap:round; stroke-width:0.25; stroke-dasharray:3,3;"/>
<line x1="627.400000" y1="151.000000" x2="627.400000" y2="101.000000"  style="stroke: black; stroke-linecap:round; stroke-width:0.25; stroke-dasharray:3,3;"/>
<line x1="537.400000" y1="101.000000" x2="542.400000" y2="101.000000"  style="stroke: black; stroke-linecap:round; stroke-width:0.25; stroke-dasharray:3,3;"/>
<line x1="584.325000" y1="101.000000" x2="627.400000" y2="101.000000"  style="stroke: black; stroke-linecap:round; stroke-width:0.25; stroke-dasharray:3,3;"/>
<text x="542.400000" y="103.000000" font-family="Arial" font-size="7">Abstraction</text>
<rect x="645.400000" y="111.000000" width="24.000000" height="24.000000" rx="0" ry="0" style="stroke:none;fill:#cccccc;"/>
<rect x="644.400000" y="110.000000" width="24.000000" height="24.000000" rx="0" ry="0" style="stroke:none;fill:#4B71A1;"/>
<text x="656.400000" y="124.000000" font-family="Arial" font-size="7" text-anchor="middle" fill="#FFFFFF">*</text>
<circle cx="646.400000" cy="112.000000" r="1"/>
<line x1="641.400000" y1="117.000000" x2="644.400000" y2="118.000000"  transform="rotate(0.000000,644.400000,118.000000)" style="stroke: black; stroke-width:0.25;"/>
<line x1="641.400000" y1="119.000000" x2="644.400000" y2="118.000000"  transform="rotate(0.000000,644.400000,118.000000)" style="stroke: black; stroke-width:0.25;"/>
<line x1="641.400000" y1="125.000000" x2="644.400000" y2="126.000000"  transform="rotate(0.000000,644.400000,126.000000)" style="stroke: black; stroke-width:0.25;"/>
<line x1="641.400000" y1="127.000000" x2="644.400000" y2="126.000000"  transform="rotate(0.000000,644.400000,126.000000)" style="stroke: black; stroke-width:0.25;"/>
<line x1="15.000000" y1="15.000000" x2="15.000000" y2="161.000000"  style="stroke: black; stroke-linecap:round; stroke-width:0.25; stroke-dasharray:3,3;"/>
<line x1="15.000000" y1="161.000000" x2="693.400000" y2="161.000000"  style="stroke: black; stroke-linecap:round; stroke-width:0.25; stroke-dasharray:3,3;"/>
<line x1="693.400000" y1="161.000000" x2="693.400000" y2="15.000000"  style="stroke: black; stroke-linecap:round; stroke-width:0.25; stroke-dasharray:3,3;"/>
<line x1="15.000000" y1="15.000000" x2="20.000000" y2="15.000000"  style="stroke: black; stroke-linecap:round; stroke-width:0.25; stroke-dasharray:3,3;"/>
<line x1="49.025000" y1="15.000000" x2="693.400000" y2="15.000000"  style="stroke: black; stroke-linecap:round; stroke-width:0.25; stroke-dasharray:3,3;"/>
<text x="20.000000" y="17.000000" font-family="Arial" font-size="7">process</text>
<line x1="695.400000" y1="83.000000" x2="698.400000" y2="84.000000"  transform="rotate(0.000000,698.400000,84.000000)" style="stroke: black; stroke-width:0.25;"/>
<line x1="695.400000" y1="85.000000" x2="698.400000" y2="84.000000"  transform="rotate(0.000000,698.400000,84.000000)" style="stroke: black; stroke-width:0.25;"/>
<line x1="695.400000" y1="91.000000" x2="698.400000" y2="92.000000"  transform="rotate(0.000000,698.400000,92.000000)" style="stroke: black; stroke-width:0.25;"/>
<line x1="695.400000" y1="93.000000" x2="698.400000" y2="92.000000"  transform="rotate(0.000000,698.400000,92.000000)" style="stroke: black; stroke-width:0.25;"/>
<line x1="88.500000" y1="84.000000" x2="92.500000" y2="84.000000"  style="stroke:black; stroke-linecap:round; stroke-width:0.25;"/>
<line x1="88.500000" y1="92.000000" x2="92.500000" y2="92.000000"  style="stroke:black; stroke-linecap:round; stroke-width:0.25;"/>
<line x1="92.500000" y1="72.000000" x2="100.500000" y2="72.000000"  style="stroke:black; stroke-linecap:round; stroke-width:0.25;"/>
<line x1="92.500000" y1="84.000000" x2="92.500000" y2="72.000000"  style="stroke:black; stroke-linecap:round; stroke-width:0.25;"/>
<line x1="92.500000" y1="84.000000" x2="92.500000" y2="84.000000"  style="stroke:black; stroke-linecap:round; stroke-width:0.25;"/>
<line x1="92.500000" y1="92.000000" x2="100.500000" y2="92.000000"  style="stroke:black; stroke-linecap:round; stroke-width:0.25;"/>
<line x1="100.500000" y1="72.000000" x2="104.500000" y2="72.000000"  style="stroke:black; stroke-linecap:round; stroke-width:0.25;"/>
<line x1="100.500000" y1="92.000000" x2="100.500000" y2="104.000000"  style="stroke:black; stroke-linecap:round; stroke-width:0.25;"/>
<line x1="100.500000" y1="104.000000" x2="100.500000" y2="104.000000"  style="stroke:black; stroke-linecap:round; stroke-width:0.25;"/>
<line x1="100.500000" y1="104.000000" x2="104.500000" y2="104.000000"  style="stroke:black; stroke-linecap:round; stroke-width:0.25;"/>
<line x1="233.500000" y1="72.000000" x2="237.500000" y2="72.000000"  style="stroke:black; stroke-linecap:round; stroke-width:0.25;"/>
<line x1="233.500000" y1="104.000000" x2="237.500000" y2="104.000000"  style="stroke:black; stroke-linecap:round; stroke-width:0.25;"/>
<line x1="237.500000" y1="24.000000" x2="253.500000" y2="24.000000"  style="stroke:black; stroke-linecap:round; stroke-width:0.25;"/>
<line x1="237.500000" y1="72.000000" x2="237.500000" y2="24.000000"  style="stroke:black; stroke-linecap:round; stroke-width:0.25;"/>
<line x1="237.500000" y1="72.000000" x2="237.500000" y2="72.000000"  style="stroke:black; stroke-linecap:round; stroke-width:0.25;"/>
<line x1="237.500000" y1="104.000000" x2="245.500000" y2="104.000000"  style="stroke:black; stroke-linecap:round; stroke-width:0.25;"/>
<line x1="245.500000" y1="92.000000" x2="253.500000" y2="92.000000"  style="stroke:black; stroke-linecap:round; stroke-width:0.25;"/>
<line x1="245.500000" y1="104.000000" x2="245.500000" y2="92.000000"  style="stroke:black; stroke-linecap:round; stroke-width:0.25;"/>
<line x1="253.500000" y1="24.000000" x2="442.950000" y2="24.000000"  style="stroke:black; stroke-linecap:round; stroke-width:0.25;"/>
<line x1="253.500000" y1="92.000000" x2="442.950000" y2="92.000000"  style="stroke:black; stroke-linecap:round; stroke-width:0.25;"/>
<line x1="442.950000" y1="24.000000" x2="632.400000" y2="24.000000"  style="stroke:black; stroke-linecap:round; stroke-width:0.25;"/>
<line x1="442.950000" y1="92.000000" x2="632.400000" y2="92.000000"  style="stroke:black; stroke-linecap:round; stroke-width:0.25;"/>
<line x1="528.400000" y1="58.000000" x2="532.400000" y2="58.000000"  style="stroke:black; stroke-linecap:round; stroke-width:0.25;"/>
<line x1="528.400000" y1="126.000000" x2="532.400000" y2="126.000000"  style="stroke:black; stroke-linecap:round; stroke-width:0.25;"/>
<line x1="532.400000" y1="58.000000" x2="532.400000" y2="58.000000"  style="stroke:black; stroke-linecap:round; stroke-width:0.25;"/>
<line x1="532.400000" y1="58.000000" x2="542.400000" y2="58.000000"  style="stroke:black; stroke-linecap:round; stroke-width:0.25;"/>
<line x1="532.400000" y1="126.000000" x2="532.400000" y2="126.000000"  style="stroke:black; stroke-linecap:round; stroke-width:0.25;"/>
<line x1="532.400000" y1="126.000000" x2="542.400000" y2="126.000000"  style="stroke:black; stroke-linecap:round; stroke-width:0.25;"/>
<line x1="542.400000" y1="58.000000" x2="546.400000" y2="58.000000"  style="stroke:black; stroke-linecap:round; stroke-width:0.25;"/>
<line x1="542.400000" y1="126.000000" x2="546.400000" y2="126.000000"  style="stroke:black; stroke-linecap:round; stroke-width:0.25;"/>
<line x1="582.400000" y1="42.000000" x2="582.400000" y2="42.000000"  style="stroke:black; stroke-linecap:round; stroke-width:0.25;"/>
<line x1="582.400000" y1="42.000000" x2="582.400000" y2="62.000000"  style="stroke:black; stroke-linecap:round; stroke-width:0.25;"/>
<line x1="582.400000" y1="62.000000" x2="582.400000" y2="62.000000"  style="stroke:black; stroke-linecap:round; stroke-width:0.25;"/>
<line x1="582.400000" y1="62.000000" x2="586.400000" y2="62.000000"  style="stroke:black; stroke-linecap:round; stroke-width:0.25;"/>
<line x1="582.400000" y1="110.000000" x2="582.400000" y2="110.000000"  style="stroke:black; stroke-linecap:round; stroke-width:0.25;"/>
<line x1="582.400000" y1="110.000000" x2="582.400000" y2="130.000000"  style="stroke:black; stroke-linecap:round; stroke-width:0.25;"/>
<line x1="582.400000" y1="130.000000" x2="582.400000" y2="130.000000"  style="stroke:black; stroke-linecap:round; stroke-width:0.25;"/>
<line x1="582.400000" y1="130.000000" x2="586.400000" y2="130.000000"  style="stroke:black; stroke-linecap:round; stroke-width:0.25;"/>
<line x1="598.400000" y1="42.000000" x2="582.400000" y2="42.000000"  style="stroke:black; stroke-linecap:round; stroke-width:0.25;"/>
<line x1="598.400000" y1="110.000000" x2="582.400000" y2="110.000000"  style="stroke:black; stroke-linecap:round; stroke-width:0.25;"/>
<line x1="610.400000" y1="62.000000" x2="614.400000" y2="62.000000"  style="stroke:black; stroke-linecap:round; stroke-width:0.25;"/>
<line x1="610.400000" y1="130.000000" x2="614.400000" y2="130.000000"  style="stroke:black; stroke-linecap:round; stroke-width:0.25;"/>
<line x1="614.400000" y1="42.000000" x2="598.400000" y2="42.000000"  style="stroke:black; stroke-linecap:round; stroke-width:0.25;"/>
<line x1="614.400000" y1="42.000000" x2="614.400000" y2="42.000000"  style="stroke:black; stroke-linecap:round; stroke-width:0.25;"/>
<line x1="614.400000" y1="58.000000" x2="614.400000" y2="42.000000"  style="stroke:black; stroke-linecap:round; stroke-width:0.25;"/>
<line x1="614.400000" y1="62.000000" x2="616.400000" y2="62.000000"  style="stroke:black; stroke-linecap:round; stroke-width:0.25;"/>
<line x1="614.400000" y1="110.000000" x2="598.400000" y2="110.000000"  style="stroke:black; stroke-linecap:round; stroke-width:0.25;"/>
<line x1="614.400000" y1="110.000000" x2="614.400000" y2="110.000000"  style="stroke:black; stroke-linecap:round; stroke-width:0.25;"/>
<line x1="614.400000" y1="126.000000" x2="614.400000" y2="110.000000"  style="stroke:black; stroke-linecap:round; stroke-width:0.25;"/>
<line x1="614.400000" y1="130.000000" x2="616.400000" y2="130.000000"  style="stroke:black; stroke-linecap:round; stroke-width:0.25;"/>
<line x1="616.400000" y1="62.000000" x2="622.400000" y2="62.000000"  style="stroke:black; stroke-linecap:round; stroke-width:0.25;"/>
<line x1="616.400000" y1="130.000000" x2="622.400000" y2="130.000000"  style="stroke:black; stroke-linecap:round; stroke-width:0.25;"/>
<line x1="622.400000" y1="62.000000" x2="632.400000" y2="62.000000"  style="stroke:black; stroke-linecap:round; stroke-width:0.25;"/>
<line x1="622.400000" y1="130.000000" x2="632.400000" y2="130.000000"  style="stroke:black; stroke-linecap:round; stroke-width:0.25;"/>
<line x1="632.400000" y1="24.000000" x2="640.400000" y2="24.000000"  style="stroke:black; stroke-linecap:round; stroke-width:0.25;"/>
<line x1="632.400000" y1="58.000000" x2="640.400000" y2="58.000000"  style="stroke:black; stroke-linecap:round; stroke-width:0.25;"/>
<line x1="632.400000" y1="62.000000" x2="632.400000" y2="58.000000"  style="stroke:black; stroke-linecap:round; stroke-width:0.25;"/>
<line x1="632.400000" y1="62.000000" x2="632.400000" y2="62.000000"  style="stroke:black; stroke-linecap:round; stroke-width:0.25;"/>
<line x1="632.400000" y1="92.000000" x2="640.400000" y2="92.000000"  style="stroke:black; stroke-linecap:round; stroke-width:0.25;"/>
<line x1="632.400000" y1="126.000000" x2="640.400000" y2="126.000000"  style="stroke:black; stroke-linecap:round; stroke-width:0.25;"/>
<line x1="632.400000" y1="130.000000" x2="632.400000" y2="126.000000"  style="stroke:black; stroke-linecap:round; stroke-width:0.25;"/>
<line x1="632.400000" y1="130.000000" x2="632.400000" y2="130.000000"  style="stroke:black; stroke-linecap:round; stroke-width:0.25;"/>
<line x1="640.400000" y1="24.000000" x2="640.400000" y2="50.000000"  style="stroke:black; stroke-linecap:round; stroke-width:0.25;"/>
<line x1="640.400000" y1="50.000000" x2="640.400000" y2="50.000000"  style="stroke:black; stroke-linecap:round; stroke-width:0.25;"/>
<line x1="640.400000" y1="50.000000" x2="644.400000" y2="50.000000"  style="stroke:black; stroke-linecap:round; stroke-width:0.25;"/>
<line x1="640.400000" y1="58.000000" x2="644.400000" y2="58.000000"  style="stroke:black; stroke-linecap:round; stroke-width:0.25;"/>
<line x1="640.400000" y1="92.000000" x2="640.400000" y2="118.000000"  style="stroke:black; stroke-linecap:round; stroke-width:0.25;"/>
<line x1="640.400000" y1="118.000000" x2="640.400000" y2="118.000000"  style="stroke:black; stroke-linecap:round; stroke-width:0.25;"/>
<line x1="640.400000" y1="118.000000" x2="644.400000" y2="118.000000"  style="stroke:black; stroke-linecap:round; stroke-width:0.25;"/>
<line x1="640.400000" y1="126.000000" x2="644.400000" y2="126.000000"  style="stroke:black; stroke-linecap:round; stroke-width:0.25;"/>
<line x1="668.400000" y1="54.000000" x2="672.400000" y2="54.000000"  style="stroke:black; stroke-linecap:round; stroke-width:0.25;"/>
<line x1="668.400000" y1="122.000000" x2="672.400000" y2="122.000000"  style="stroke:black; stroke-linecap:round; stroke-width:0.25;"/>
<line x1="672.400000" y1="54.000000" x2="680.400000" y2="54.000000"  style="stroke:black; stroke-linecap:round; stroke-width:0.25;"/>
<line x1="672.400000" y1="92.000000" x2="680.400000" y2="92.000000"  style="stroke:black; stroke-linecap:round; stroke-width:0.25;"/>
<line x1="672.400000" y1="122.000000" x2="672.400000" y2="92.000000"  style="stroke:black; stroke-linecap:round; stroke-width:0.25;"/>
<line x1="672.400000" y1="122.000000" x2="672.400000" y2="122.000000"  style="stroke:black; stroke-linecap:round; stroke-width:0.25;"/>
<line x1="680.400000" y1="54.000000" x2="680.400000" y2="84.000000"  style="stroke:black; stroke-linecap:round; stroke-width:0.25;"/>
<line x1="680.400000" y1="84.000000" x2="680.400000" y2="84.000000"  style="stroke:black; stroke-linecap:round; stroke-width:0.25;"/>
<line x1="680.400000" y1="84.000000" x2="684.400000" y2="84.000000"  style="stroke:black; stroke-linecap:round; stroke-width:0.25;"/>
<line x1="680.400000" y1="92.000000" x2="684.400000" y2="92.000000"  style="stroke:black; stroke-linecap:round; stroke-width:0.25;"/>
<line x1="684.400000" y1="84.000000" x2="688.400000" y2="84.000000"  style="stroke:black; stroke-linecap:round; stroke-width:0.25;"/>
<line x1="684.400000" y1="92.000000" x2="688.400000" y2="92.000000"  style="stroke:black; stroke-linecap:round; stroke-width:0.25;"/>
<line x1="688.400000" y1="84.000000" x2="698.400000" y2="84.000000"  style="stroke:black; stroke-linecap:round; stroke-width:0.25;"/>
<line x1="688.400000" y1="92.000000" x2="698.400000" y2="92.000000"  style="stroke:black; stroke-linecap:round; stroke-width:0.25;"/>
</svg>
