<?xml version="1.0"?>
<svg xmlns="http://www.w3.org/2000/svg" xmlns:xlink="http://www.w3.org/1999/xlink" viewBox="0 0 552.800000 92.000000" width="276.400000mm" height="46.000000mm" version="1.1">
<rect x="1.000000" y="1.000000" width="551.800000" height="91.000000" rx="0" ry="0" style="stroke:none;fill:#cccccc;"/>
<rect x="0.000000" y="0.000000" width="551.800000" height="91.000000" rx="0" ry="0" style="stroke:none;fill:#ffffff;"/>
<text x="10.000000" y="7.000000" font-family="Arial" font-size="7"></text>
<a xlink:href="oneBand-0x13b917bf0.svg">
<rect x="43.000000" y="35.000000" width="51.600000" height="24.000000" rx="0" ry="0" style="stroke:none;fill:#cccccc;"/>
<rect x="42.000000" y="34.000000" width="51.600000" height="24.000000" rx="0" ry="0" style="stroke:none;fill:#003366;"/>
</a>
<a xlink:href="oneBand-0x13b917bf0.svg">
<text x="67.800000" y="48.000000" font-family="Arial" font-size="7" text-anchor="middle" fill="#FFFFFF">oneBand(0)</text>
</a>
<circle cx="44.000000" cy="36.000000" r="1"/>
<line x1="39.000000" y1="45.000000" x2="42.000000" y2="46.000000"  transform="rotate(0.000000,42.000000,46.000000)" style="stroke: black; stroke-width:0.25;"/>
<line x1="39.000000" y1="47.000000" x2="42.000000" y2="46.000000"  transform="rotate(0.000000,42.000000,46.000000)" style="stroke: black; stroke-width:0.25;"/>
<a xlink:href="oneBand-0x13b919220.svg">
<rect x="102.600000" y="35.000000" width="51.600000" height="24.000000" rx="0" ry="0" style="stroke:none;fill:#cccccc;"/>
<rect x="101.600000" y="34.000000" width="51.600000" height="24.000000" rx="0" ry="0" style="stroke:none;fill:#003366;"/>
</a>
<a xlink:href="oneBand-0x13b919220.svg">
<text x="127.400000" y="48.000000" font-family="Arial" font-size="7" text-anchor="middle" fill="#FFFFFF">oneBand(1)</text>
</a>
<circle cx="103.600000" cy="36.000000" r="1"/>
<line x1="98.600000" y1="45.000000" x2="101.600000" y2="46.000000"  transform="rotate(0.000000,101.600000,46.000000)" style="stroke: black; stroke-width:0.25;"/>
<line x1="98.600000" y1="47.000000" x2="101.600000" y2="46.000000"  transform="rotate(0.000000,101.600000,46.000000)" style="stroke: black; stroke-width:0.25;"/>
<a xlink:href="oneBand-0x13b91a850.svg">
<rect x="162.200000" y="35.000000" width="51.600000" height="24.000000" rx="0" ry="0" style="stroke:none;fill:#cccccc;"/>
<rect x="161.200000" y="34.000000" width="51.600000" height="24.000000" rx="0" ry="0" style="stroke:none;fill:#003366;"/>
</a>
<a xlink:href="oneBand-0x13b91a850.svg">
<text x="187.000000" y="48.000000" font-family="Arial" font-size="7" text-anchor="middle" fill="#FFFFFF">oneBand(2)</text>
</a>
<circle cx="163.200000" cy="36.000000" r="1"/>
<line x1="158.200000" y1="45.000000" x2="161.200000" y2="46.000000"  transform="rotate(0.000000,161.200000,46.000000)" style="stroke: black; stroke-width:0.25;"/>
<line x1="158.200000" y1="47.000000" x2="161.200000" y2="46.000000"  transform="rotate(0.000000,161.200000,46.000000)" style="stroke: black; stroke-width:0.25;"/>
<a xlink:href="oneBand-0x13b91be80.svg">
<rect x="221.800000" y="35.000000" width="51.600000" height="24.000000" rx="0" ry="0" style="stroke:none;fill:#cccccc;"/>
<rect x="220.800000" y="34.000000" width="51.600000" height="24.000000" rx="0" ry="0" style="stroke:none;fill:#003366;"/>
</a>
<a xlink:href="oneBand-0x13b91be80.svg">
<text x="246.600000" y="48.000000" font-family="Arial" font-size="7" text-anchor="middle" fill="#FFFFFF">oneBand(3)</text>
</a>
<circle cx="222.800000" cy="36.000000" r="1"/>
<line x1="217.800000" y1="45.000000" x2="220.800000" y2="46.000000"  transform="rotate(0.000000,220.800000,46.000000)" style="stroke: black; stroke-width:0.25;"/>
<line x1="217.800000" y1="47.000000" x2="220.800000" y2="46.000000"  transform="rotate(0.000000,220.800000,46.000000)" style="stroke: black; stroke-width:0.25;"/>
<a xlink:href="oneBand-0x13b91d4b0.svg">
<rect x="281.400000" y="35.000000" width="51.600000" height="24.000000" rx="0" ry="0" style="stroke:none;fill:#cccccc;"/>
<rect x="280.400000" y="34.000000" width="51.600000" height="24.000000" rx="0" ry="0" style="stroke:none;fill:#003366;"/>
</a>
<a xlink:href="oneBand-0x13b91d4b0.svg">
<text x="306.200000" y="48.000000" font-family="Arial" font-size="7" text-anchor="middle" fill="#FFFFFF">oneBand(4)</text>
</a>
<circle cx="282.400000" cy="36.000000" r="1"/>
<line x1="277.400000" y1="45.000000" x2="280.400000" y2="46.000000"  transform="rotate(0.000000,280.400000,46.000000)" style="stroke: black; stroke-width:0.25;"/>
<line x1="277.400000" y1="47.000000" x2="280.400000" y2="46.000000"  transform="rotate(0.000000,280.400000,46.000000)" style="stroke: black; stroke-width:0.25;"/>
<a xlink:href="oneBand-0x13b91eae0.svg">
<rect x="341.000000" y="35.000000" width="51.600000" height="24.000000" rx="0" ry="0" style="stroke:none;fill:#cccccc;"/>
<rect x="340.000000" y="34.000000" width="51.600000" height="24.000000" rx="0" ry="0" style="stroke:none;fill:#003366;"/>
</a>
<a xlink:href="oneBand-0x13b91eae0.svg">
<text x="365.800000" y="48.000000" font-family="Arial" font-size="7" text-anchor="middle" fill="#FFFFFF">oneBand(5)</text>
</a>
<circle cx="342.000000" cy="36.000000" r="1"/>
<line x1="337.000000" y1="45.000000" x2="340.000000" y2="46.000000"  transform="rotate(0.000000,340.000000,46.000000)" style="stroke: black; stroke-width:0.25;"/>
<line x1="337.000000" y1="47.000000" x2="340.000000" y2="46.000000"  transform="rotate(0.000000,340.000000,46.000000)" style="stroke: black; stroke-width:0.25;"/>
<a xlink:href="oneBand-0x13b920110.svg">
<rect x="400.600000" y="35.000000" width="51.600000" height="24.000000" rx="0" ry="0" style="stroke:none;fill:#cccccc;"/>
<rect x="399.600000" y="34.000000" width="51.600000" height="24.000000" rx="0" ry="0" style="stroke:none;fill:#003366;"/>
</a>
<a xlink:href="oneBand-0x13b920110.svg">
<text x="425.400000" y="48.000000" font-family="Arial" font-size="7" text-anchor="middle" fill="#FFFFFF">oneBand(6)</text>
</a>
<circle cx="401.600000" cy="36.000000" r="1"/>
<line x1="396.600000" y1="45.000000" x2="399.600000" y2="46.000000"  transform="rotate(0.000000,399.600000,46.000000)" style="stroke: black; stroke-width:0.25;"/>
<line x1="396.600000" y1="47.000000" x2="399.600000" y2="46.000000"  transform="rotate(0.000000,399.600000,46.000000)" style="stroke: black; stroke-width:0.25;"/>
<a xlink:href="oneBand-0x13b921730.svg">
<rect x="460.200000" y="35.000000" width="51.600000" height="24.000000" rx="0" ry="0" style="stroke:none;fill:#cccccc;"/>
<rect x="459.200000" y="34.000000" width="51.600000" height="24.000000" rx="0" ry="0" style="stroke:none;fill:#003366;"/>
</a>
<a xlink:href="oneBand-0x13b921730.svg">
<text x="485.000000" y="48.000000" font-family="Arial" font-size="7" text-anchor="middle" fill="#FFFFFF">oneBand(7)</text>
</a>
<circle cx="461.200000" cy="36.000000" r="1"/>
<line x1="456.200000" y1="45.000000" x2="459.200000" y2="46.000000"  transform="rotate(0.000000,459.200000,46.000000)" style="stroke: black; stroke-width:0.25;"/>
<line x1="456.200000" y1="47.000000" x2="459.200000" y2="46.000000"  transform="rotate(0.000000,459.200000,46.000000)" style="stroke: black; stroke-width:0.25;"/>
<line x1="33.000000" y1="25.000000" x2="33.000000" y2="67.000000"  style="stroke: black; stroke-linecap:round; stroke-width:0.25; stroke-dasharray:3,3;"/>
<line x1="33.000000" y1="67.000000" x2="519.800000" y2="67.000000"  style="stroke: black; stroke-linecap:round; stroke-width:0.25; stroke-dasharray:3,3;"/>
<line x1="519.800000" y1="67.000000" x2="519.800000" y2="25.000000"  style="stroke: black; stroke-linecap:round; stroke-width:0.25; stroke-dasharray:3,3;"/>
<line x1="33.000000" y1="25.000000" x2="38.000000" y2="25.000000"  style="stroke: black; stroke-linecap:round; stroke-width:0.25; stroke-dasharray:3,3;"/>
<line x1="105.725000" y1="25.000000" x2="519.800000" y2="25.000000"  style="stroke: black; stroke-linecap:round; stroke-width:0.25; stroke-dasharray:3,3;"/>
<text x="38.000000" y="27.000000" font-family="Arial" font-size="7">hgroup(Filter Bank)</text>
<line x1="15.000000" y1="15.000000" x2="15.000000" y2="77.000000"  style="stroke: black; stroke-linecap:round; stroke-width:0.25; stroke-dasharray:3,3;"/>
<line x1="15.000000" y1="77.000000" x2="537.800000" y2="77.000000"  style="stroke: black; stroke-linecap:round; stroke-width:0.25; stroke-dasharray:3,3;"/>
<line x1="537.800000" y1="77.000000" x2="537.800000" y2="15.000000"  style="stroke: black; stroke-linecap:round; stroke-width:0.25; stroke-dasharray:3,3;"/>
<line x1="15.000000" y1="15.000000" x2="20.000000" y2="15.000000"  style="stroke: black; stroke-linecap:round; stroke-width:0.25; stroke-dasharray:3,3;"/>
<line x1="49.025000" y1="15.000000" x2="537.800000" y2="15.000000"  style="stroke: black; stroke-linecap:round; stroke-width:0.25; stroke-dasharray:3,3;"/>
<text x="20.000000" y="17.000000" font-family="Arial" font-size="7">process</text>
<line x1="539.800000" y1="45.000000" x2="542.800000" y2="46.000000"  transform="rotate(0.000000,542.800000,46.000000)" style="stroke: black; stroke-width:0.25;"/>
<line x1="539.800000" y1="47.000000" x2="542.800000" y2="46.000000"  transform="rotate(0.000000,542.800000,46.000000)" style="stroke: black; stroke-width:0.25;"/>
<line x1="10.000000" y1="46.000000" x2="20.000000" y2="46.000000"  style="stroke:black; stroke-linecap:round; stroke-width:0.25;"/>
<line x1="20.000000" y1="46.000000" x2="24.000000" y2="46.000000"  style="stroke:black; stroke-linecap:round; stroke-width:0.25;"/>
<line x1="24.000000" y1="46.000000" x2="28.000000" y2="46.000000"  style="stroke:black; stroke-linecap:round; stroke-width:0.25;"/>
<line x1="28.000000" y1="46.000000" x2="28.000000" y2="46.000000"  style="stroke:black; stroke-linecap:round; stroke-width:0.25;"/>
<line x1="28.000000" y1="46.000000" x2="38.000000" y2="46.000000"  style="stroke:black; stroke-linecap:round; stroke-width:0.25;"/>
<line x1="38.000000" y1="46.000000" x2="42.000000" y2="46.000000"  style="stroke:black; stroke-linecap:round; stroke-width:0.25;"/>
<line x1="93.600000" y1="46.000000" x2="97.600000" y2="46.000000"  style="stroke:black; stroke-linecap:round; stroke-width:0.25;"/>
<line x1="97.600000" y1="46.000000" x2="97.600000" y2="46.000000"  style="stroke:black; stroke-linecap:round; stroke-width:0.25;"/>
<line x1="97.600000" y1="46.000000" x2="101.600000" y2="46.000000"  style="stroke:black; stroke-linecap:round; stroke-width:0.25;"/>
<line x1="153.200000" y1="46.000000" x2="157.200000" y2="46.000000"  style="stroke:black; stroke-linecap:round; stroke-width:0.25;"/>
<line x1="157.200000" y1="46.000000" x2="157.200000" y2="46.000000"  style="stroke:black; stroke-linecap:round; stroke-width:0.25;"/>
<line x1="157.200000" y1="46.000000" x2="161.200000" y2="46.000000"  style="stroke:black; stroke-linecap:round; stroke-width:0.25;"/>
<line x1="212.800000" y1="46.000000" x2="216.800000" y2="46.000000"  style="stroke:black; stroke-linecap:round; stroke-width:0.25;"/>
<line x1="216.800000" y1="46.000000" x2="216.800000" y2="46.000000"  style="stroke:black; stroke-linecap:round; stroke-width:0.25;"/>
<line x1="216.800000" y1="46.000000" x2="220.800000" y2="46.000000"  style="stroke:black; stroke-linecap:round; stroke-width:0.25;"/>
<line x1="272.400000" y1="46.000000" x2="276.400000" y2="46.000000"  style="stroke:black; stroke-linecap:round; stroke-width:0.25;"/>
<line x1="276.400000" y1="46.000000" x2="276.400000" y2="46.000000"  style="stroke:black; stroke-linecap:round; stroke-width:0.25;"/>
<line x1="276.400000" y1="46.000000" x2="280.400000" y2="46.000000"  style="stroke:black; stroke-linecap:round; stroke-width:0.25;"/>
<line x1="332.000000" y1="46.000000" x2="336.000000" y2="46.000000"  style="stroke:black; stroke-linecap:round; stroke-width:0.25;"/>
<line x1="336.000000" y1="46.000000" x2="336.000000" y2="46.000000"  style="stroke:black; stroke-linecap:round; stroke-width:0.25;"/>
<line x1="336.000000" y1="46.000000" x2="340.000000" y2="46.000000"  style="stroke:black; stroke-linecap:round; stroke-width:0.25;"/>
<line x1="391.600000" y1="46.000000" x2="395.600000" y2="46.000000"  style="stroke:black; stroke-linecap:round; stroke-width:0.25;"/>
<line x1="395.600000" y1="46.000000" x2="395.600000" y2="46.000000"  style="stroke:black; stroke-linecap:round; stroke-width:0.25;"/>
<line x1="395.600000" y1="46.000000" x2="399.600000" y2="46.000000"  style="stroke:black; stroke-linecap:round; stroke-width:0.25;"/>
<line x1="451.200000" y1="46.000000" x2="455.200000" y2="46.000000"  style="stroke:black; stroke-linecap:round; stroke-width:0.25;"/>
<line x1="455.200000" y1="46.000000" x2="455.200000" y2="46.000000"  style="stroke:black; stroke-linecap:round; stroke-width:0.25;"/>
<line x1="455.200000" y1="46.000000" x2="459.200000" y2="46.000000"  style="stroke:black; stroke-linecap:round; stroke-width:0.25;"/>
<line x1="510.800000" y1="46.000000" x2="514.800000" y2="46.000000"  style="stroke:black; stroke-linecap:round; stroke-width:0.25;"/>
<line x1="514.800000" y1="46.000000" x2="524.800000" y2="46.000000"  style="stroke:black; stroke-linecap:round; stroke-width:0.25;"/>
<line x1="524.800000" y1="46.000000" x2="524.800000" y2="46.000000"  style="stroke:black; stroke-linecap:round; stroke-width:0.25;"/>
<line x1="524.800000" y1="46.000000" x2="528.800000" y2="46.000000"  style="stroke:black; stroke-linecap:round; stroke-width:0.25;"/>
<line x1="528.800000" y1="46.000000" x2="532.800000" y2="46.000000"  style="stroke:black; stroke-linecap:round; stroke-width:0.25;"/>
<line x1="532.800000" y1="46.000000" x2="542.800000" y2="46.000000"  style="stroke:black; stroke-linecap:round; stroke-width:0.25;"/>
</svg>
