<?xml version="1.0"?>
<svg xmlns="http://www.w3.org/2000/svg" xmlns:xlink="http://www.w3.org/1999/xlink" viewBox="0 0 265.000000 156.000000" width="132.500000mm" height="78.000000mm" version="1.1">
<rect x="1.000000" y="1.000000" width="264.000000" height="155.000000" rx="0" ry="0" style="stroke:none;fill:#cccccc;"/>
<rect x="0.000000" y="0.000000" width="264.000000" height="155.000000" rx="0" ry="0" style="stroke:none;fill:#ffffff;"/>
<text x="10.000000" y="7.000000" font-family="Arial" font-size="7"></text>
<a xlink:href="fm-0x600000e4b060.svg">
<rect x="25.000000" y="25.000000" width="129.000000" height="24.000000" rx="0" ry="0" style="stroke:none;fill:#cccccc;"/>
<rect x="24.000000" y="24.000000" width="129.000000" height="24.000000" rx="0" ry="0" style="stroke:none;fill:#003366;"/>
</a>
<a xlink:href="fm-0x600000e4b060.svg">
<text x="88.500000" y="38.000000" font-family="Arial" font-size="7" text-anchor="middle" fill="#FFFFFF">fm(((hslider(...ER3[nil]]]}])</text>
</a>
<circle cx="26.000000" cy="26.000000" r="1"/>
<rect x="46.800000" y="67.000000" width="51.600000" height="24.000000" rx="0" ry="0" style="stroke:none;fill:#cccccc;"/>
<rect x="45.800000" y="66.000000" width="51.600000" height="24.000000" rx="0" ry="0" style="stroke:none;fill:#477881;"/>
<text x="71.600000" y="80.000000" font-family="Arial" font-size="7" text-anchor="middle" fill="#FFFFFF">button(gate)</text>
<circle cx="47.800000" cy="68.000000" r="1"/>
<line x1="36.800000" y1="57.000000" x2="36.800000" y2="99.000000"  style="stroke: black; stroke-linecap:round; stroke-width:0.25; stroke-dasharray:3,3;"/>
<line x1="36.800000" y1="99.000000" x2="106.400000" y2="99.000000"  style="stroke: black; stroke-linecap:round; stroke-width:0.25; stroke-dasharray:3,3;"/>
<line x1="106.400000" y1="99.000000" x2="106.400000" y2="57.000000"  style="stroke: black; stroke-linecap:round; stroke-width:0.25; stroke-dasharray:3,3;"/>
<line x1="36.800000" y1="57.000000" x2="41.800000" y2="57.000000"  style="stroke: black; stroke-linecap:round; stroke-width:0.25; stroke-dasharray:3,3;"/>
<line x1="61.150000" y1="57.000000" x2="106.400000" y2="57.000000"  style="stroke: black; stroke-linecap:round; stroke-width:0.25; stroke-dasharray:3,3;"/>
<text x="41.800000" y="59.000000" font-family="Arial" font-size="7">gate</text>
<a xlink:href="smoo-0x600000e4cc60.svg">
<rect x="116.400000" y="67.000000" width="25.800000" height="24.000000" rx="0" ry="0" style="stroke:none;fill:#cccccc;"/>
<rect x="115.400000" y="66.000000" width="25.800000" height="24.000000" rx="0" ry="0" style="stroke:none;fill:#003366;"/>
</a>
<a xlink:href="smoo-0x600000e4cc60.svg">
<text x="128.300000" y="80.000000" font-family="Arial" font-size="7" text-anchor="middle" fill="#FFFFFF">smoo</text>
</a>
<circle cx="117.400000" cy="68.000000" r="1"/>
<line x1="112.400000" y1="77.000000" x2="115.400000" y2="78.000000"  transform="rotate(0.000000,115.400000,78.000000)" style="stroke: black; stroke-width:0.25;"/>
<line x1="112.400000" y1="79.000000" x2="115.400000" y2="78.000000"  transform="rotate(0.000000,115.400000,78.000000)" style="stroke: black; stroke-width:0.25;"/>
<rect x="170.000000" y="51.000000" width="24.000000" height="24.000000" rx="0" ry="0" style="stroke:none;fill:#cccccc;"/>
<rect x="169.000000" y="50.000000" width="24.000000" height="24.000000" rx="0" ry="0" style="stroke:none;fill:#4B71A1;"/>
<text x="181.000000" y="64.000000" font-family="Arial" font-size="7" text-anchor="middle" fill="#FFFFFF">*</text>
<circle cx="171.000000" cy="52.000000" r="1"/>
<line x1="166.000000" y1="57.000000" x2="169.000000" y2="58.000000"  transform="rotate(0.000000,169.000000,58.000000)" style="stroke: black; stroke-width:0.25;"/>
<line x1="166.000000" y1="59.000000" x2="169.000000" y2="58.000000"  transform="rotate(0.000000,169.000000,58.000000)" style="stroke: black; stroke-width:0.25;"/>
<line x1="166.000000" y1="65.000000" x2="169.000000" y2="66.000000"  transform="rotate(0.000000,169.000000,66.000000)" style="stroke: black; stroke-width:0.25;"/>
<line x1="166.000000" y1="67.000000" x2="169.000000" y2="66.000000"  transform="rotate(0.000000,169.000000,66.000000)" style="stroke: black; stroke-width:0.25;"/>
<rect x="96.600000" y="109.000000" width="25.800000" height="24.000000" rx="0" ry="0" style="stroke:none;fill:#cccccc;"/>
<rect x="95.600000" y="108.000000" width="25.800000" height="24.000000" rx="0" ry="0" style="stroke:none;fill:#f44800;"/>
<text x="108.500000" y="122.000000" font-family="Arial" font-size="7" text-anchor="middle" fill="#FFFFFF">0.5f</text>
<circle cx="97.600000" cy="110.000000" r="1"/>
<rect x="210.000000" y="67.000000" width="24.000000" height="24.000000" rx="0" ry="0" style="stroke:none;fill:#cccccc;"/>
<rect x="209.000000" y="66.000000" width="24.000000" height="24.000000" rx="0" ry="0" style="stroke:none;fill:#4B71A1;"/>
<text x="221.000000" y="80.000000" font-family="Arial" font-size="7" text-anchor="middle" fill="#FFFFFF">*</text>
<circle cx="211.000000" cy="68.000000" r="1"/>
<line x1="206.000000" y1="73.000000" x2="209.000000" y2="74.000000"  transform="rotate(0.000000,209.000000,74.000000)" style="stroke: black; stroke-width:0.25;"/>
<line x1="206.000000" y1="75.000000" x2="209.000000" y2="74.000000"  transform="rotate(0.000000,209.000000,74.000000)" style="stroke: black; stroke-width:0.25;"/>
<line x1="206.000000" y1="81.000000" x2="209.000000" y2="82.000000"  transform="rotate(0.000000,209.000000,82.000000)" style="stroke: black; stroke-width:0.25;"/>
<line x1="206.000000" y1="83.000000" x2="209.000000" y2="82.000000"  transform="rotate(0.000000,209.000000,82.000000)" style="stroke: black; stroke-width:0.25;"/>
<line x1="15.000000" y1="15.000000" x2="15.000000" y2="141.000000"  style="stroke: black; stroke-linecap:round; stroke-width:0.25; stroke-dasharray:3,3;"/>
<line x1="15.000000" y1="141.000000" x2="250.000000" y2="141.000000"  style="stroke: black; stroke-linecap:round; stroke-width:0.25; stroke-dasharray:3,3;"/>
<line x1="250.000000" y1="141.000000" x2="250.000000" y2="15.000000"  style="stroke: black; stroke-linecap:round; stroke-width:0.25; stroke-dasharray:3,3;"/>
<line x1="15.000000" y1="15.000000" x2="20.000000" y2="15.000000"  style="stroke: black; stroke-linecap:round; stroke-width:0.25; stroke-dasharray:3,3;"/>
<line x1="49.025000" y1="15.000000" x2="250.000000" y2="15.000000"  style="stroke: black; stroke-linecap:round; stroke-width:0.25; stroke-dasharray:3,3;"/>
<text x="20.000000" y="17.000000" font-family="Arial" font-size="7">process</text>
<line x1="252.000000" y1="77.000000" x2="255.000000" y2="78.000000"  transform="rotate(0.000000,255.000000,78.000000)" style="stroke: black; stroke-width:0.25;"/>
<line x1="252.000000" y1="79.000000" x2="255.000000" y2="78.000000"  transform="rotate(0.000000,255.000000,78.000000)" style="stroke: black; stroke-width:0.25;"/>
<line x1="97.400000" y1="78.000000" x2="101.400000" y2="78.000000"  style="stroke:black; stroke-linecap:round; stroke-width:0.25;"/>
<line x1="101.400000" y1="78.000000" x2="111.400000" y2="78.000000"  style="stroke:black; stroke-linecap:round; stroke-width:0.25;"/>
<line x1="111.400000" y1="78.000000" x2="111.400000" y2="78.000000"  style="stroke:black; stroke-linecap:round; stroke-width:0.25;"/>
<line x1="111.400000" y1="78.000000" x2="115.400000" y2="78.000000"  style="stroke:black; stroke-linecap:round; stroke-width:0.25;"/>
<line x1="121.400000" y1="120.000000" x2="125.400000" y2="120.000000"  style="stroke:black; stroke-linecap:round; stroke-width:0.25;"/>
<line x1="125.400000" y1="120.000000" x2="197.000000" y2="120.000000"  style="stroke:black; stroke-linecap:round; stroke-width:0.25;"/>
<line x1="141.200000" y1="78.000000" x2="145.200000" y2="78.000000"  style="stroke:black; stroke-linecap:round; stroke-width:0.25;"/>
<line x1="145.200000" y1="78.000000" x2="157.000000" y2="78.000000"  style="stroke:black; stroke-linecap:round; stroke-width:0.25;"/>
<line x1="153.000000" y1="36.000000" x2="157.000000" y2="36.000000"  style="stroke:black; stroke-linecap:round; stroke-width:0.25;"/>
<line x1="157.000000" y1="36.000000" x2="165.000000" y2="36.000000"  style="stroke:black; stroke-linecap:round; stroke-width:0.25;"/>
<line x1="157.000000" y1="66.000000" x2="165.000000" y2="66.000000"  style="stroke:black; stroke-linecap:round; stroke-width:0.25;"/>
<line x1="157.000000" y1="78.000000" x2="157.000000" y2="66.000000"  style="stroke:black; stroke-linecap:round; stroke-width:0.25;"/>
<line x1="157.000000" y1="78.000000" x2="157.000000" y2="78.000000"  style="stroke:black; stroke-linecap:round; stroke-width:0.25;"/>
<line x1="165.000000" y1="36.000000" x2="165.000000" y2="58.000000"  style="stroke:black; stroke-linecap:round; stroke-width:0.25;"/>
<line x1="165.000000" y1="58.000000" x2="165.000000" y2="58.000000"  style="stroke:black; stroke-linecap:round; stroke-width:0.25;"/>
<line x1="165.000000" y1="58.000000" x2="169.000000" y2="58.000000"  style="stroke:black; stroke-linecap:round; stroke-width:0.25;"/>
<line x1="165.000000" y1="66.000000" x2="169.000000" y2="66.000000"  style="stroke:black; stroke-linecap:round; stroke-width:0.25;"/>
<line x1="193.000000" y1="62.000000" x2="197.000000" y2="62.000000"  style="stroke:black; stroke-linecap:round; stroke-width:0.25;"/>
<line x1="197.000000" y1="62.000000" x2="205.000000" y2="62.000000"  style="stroke:black; stroke-linecap:round; stroke-width:0.25;"/>
<line x1="197.000000" y1="82.000000" x2="205.000000" y2="82.000000"  style="stroke:black; stroke-linecap:round; stroke-width:0.25;"/>
<line x1="197.000000" y1="120.000000" x2="197.000000" y2="82.000000"  style="stroke:black; stroke-linecap:round; stroke-width:0.25;"/>
<line x1="197.000000" y1="120.000000" x2="197.000000" y2="120.000000"  style="stroke:black; stroke-linecap:round; stroke-width:0.25;"/>
<line x1="205.000000" y1="62.000000" x2="205.000000" y2="74.000000"  style="stroke:black; stroke-linecap:round; stroke-width:0.25;"/>
<line x1="205.000000" y1="74.000000" x2="205.000000" y2="74.000000"  style="stroke:black; stroke-linecap:round; stroke-width:0.25;"/>
<line x1="205.000000" y1="74.000000" x2="209.000000" y2="74.000000"  style="stroke:black; stroke-linecap:round; stroke-width:0.25;"/>
<line x1="205.000000" y1="82.000000" x2="209.000000" y2="82.000000"  style="stroke:black; stroke-linecap:round; stroke-width:0.25;"/>
<line x1="233.000000" y1="78.000000" x2="237.000000" y2="78.000000"  style="stroke:black; stroke-linecap:round; stroke-width:0.25;"/>
<line x1="237.000000" y1="78.000000" x2="237.000000" y2="78.000000"  style="stroke:black; stroke-linecap:round; stroke-width:0.25;"/>
<line x1="237.000000" y1="78.000000" x2="241.000000" y2="78.000000"  style="stroke:black; stroke-linecap:round; stroke-width:0.25;"/>
<line x1="241.000000" y1="78.000000" x2="245.000000" y2="78.000000"  style="stroke:black; stroke-linecap:round; stroke-width:0.25;"/>
<line x1="245.000000" y1="78.000000" x2="255.000000" y2="78.000000"  style="stroke:black; stroke-linecap:round; stroke-width:0.25;"/>
</svg>
