<?xml version="1.0"?>
<svg xmlns="http://www.w3.org/2000/svg" xmlns:xlink="http://www.w3.org/1999/xlink" viewBox="0 0 363.700000 188.000000" width="181.850000mm" height="94.000000mm" version="1.1">
<a xlink:href="a2-0x7fdf3d4a27a0.svg">
<rect x="1.000000" y="1.000000" width="362.700000" height="187.000000" rx="0" ry="0" style="stroke:none;fill:#cccccc;"/>
<rect x="0.000000" y="0.000000" width="362.700000" height="187.000000" rx="0" ry="0" style="stroke:none;fill:#ffffff;"/>
</a>
<text x="10.000000" y="7.000000" font-family="Arial" font-size="7"></text>
<a xlink:href="w0-0x7fdf3d49e240.svg">
<rect x="130.850000" y="25.000000" width="24.000000" height="24.000000" rx="0" ry="0" style="stroke:none;fill:#cccccc;"/>
<rect x="129.850000" y="24.000000" width="24.000000" height="24.000000" rx="0" ry="0" style="stroke:none;fill:#003366;"/>
</a>
<a xlink:href="w0-0x7fdf3d49e240.svg">
<text x="141.850000" y="38.000000" font-family="Arial" font-size="7" text-anchor="middle" fill="#FFFFFF">w0</text>
</a>
<circle cx="131.850000" cy="26.000000" r="1"/>
<rect x="162.850000" y="25.000000" width="24.000000" height="24.000000" rx="0" ry="0" style="stroke:none;fill:#cccccc;"/>
<rect x="161.850000" y="24.000000" width="24.000000" height="24.000000" rx="0" ry="0" style="stroke:none;fill:#4B71A1;"/>
<text x="173.850000" y="38.000000" font-family="Arial" font-size="7" text-anchor="middle" fill="#FFFFFF">sin</text>
<circle cx="163.850000" cy="26.000000" r="1"/>
<line x1="158.850000" y1="35.000000" x2="161.850000" y2="36.000000"  transform="rotate(0.000000,161.850000,36.000000)" style="stroke: black; stroke-width:0.25;"/>
<line x1="158.850000" y1="37.000000" x2="161.850000" y2="36.000000"  transform="rotate(0.000000,161.850000,36.000000)" style="stroke: black; stroke-width:0.25;"/>
<rect x="126.850000" y="57.000000" width="24.000000" height="24.000000" rx="0" ry="0" style="stroke:none;fill:#cccccc;"/>
<rect x="125.850000" y="56.000000" width="24.000000" height="24.000000" rx="0" ry="0" style="stroke:none;fill:#f44800;"/>
<text x="137.850000" y="70.000000" font-family="Arial" font-size="7" text-anchor="middle" fill="#FFFFFF">2</text>
<circle cx="127.850000" cy="58.000000" r="1"/>
<rect x="105.950000" y="89.000000" width="25.800000" height="24.000000" rx="0" ry="0" style="stroke:none;fill:#cccccc;"/>
<rect x="104.950000" y="88.000000" width="25.800000" height="24.000000" rx="0" ry="0" style="stroke:none;fill:#f44800;"/>
<text x="117.850000" y="102.000000" font-family="Arial" font-size="7" text-anchor="middle" fill="#FFFFFF">0.001</text>
<circle cx="106.950000" cy="90.000000" r="1"/>
<rect x="35.000000" y="131.000000" width="167.700000" height="24.000000" rx="0" ry="0" style="stroke:none;fill:#cccccc;"/>
<rect x="34.000000" y="130.000000" width="167.700000" height="24.000000" rx="0" ry="0" style="stroke:none;fill:#477881;"/>
<text x="117.850000" y="144.000000" font-family="Arial" font-size="7" text-anchor="middle" fill="#FFFFFF">hslider(Q, 1.0f, 0.01f, 100.0f, 0.01f)</text>
<circle cx="36.000000" cy="132.000000" r="1"/>
<line x1="25.000000" y1="121.000000" x2="25.000000" y2="163.000000"  style="stroke: black; stroke-linecap:round; stroke-width:0.25; stroke-dasharray:3,3;"/>
<line x1="25.000000" y1="163.000000" x2="210.700000" y2="163.000000"  style="stroke: black; stroke-linecap:round; stroke-width:0.25; stroke-dasharray:3,3;"/>
<line x1="210.700000" y1="163.000000" x2="210.700000" y2="121.000000"  style="stroke: black; stroke-linecap:round; stroke-width:0.25; stroke-dasharray:3,3;"/>
<line x1="25.000000" y1="121.000000" x2="30.000000" y2="121.000000"  style="stroke: black; stroke-linecap:round; stroke-width:0.25; stroke-dasharray:3,3;"/>
<line x1="39.675000" y1="121.000000" x2="210.700000" y2="121.000000"  style="stroke: black; stroke-linecap:round; stroke-width:0.25; stroke-dasharray:3,3;"/>
<text x="30.000000" y="123.000000" font-family="Arial" font-size="7">Q</text>
<rect x="228.700000" y="115.000000" width="24.000000" height="24.000000" rx="0" ry="0" style="stroke:none;fill:#cccccc;"/>
<rect x="227.700000" y="114.000000" width="24.000000" height="24.000000" rx="0" ry="0" style="stroke:none;fill:#4B71A1;"/>
<text x="239.700000" y="128.000000" font-family="Arial" font-size="7" text-anchor="middle" fill="#FFFFFF">max</text>
<circle cx="229.700000" cy="116.000000" r="1"/>
<line x1="224.700000" y1="121.000000" x2="227.700000" y2="122.000000"  transform="rotate(0.000000,227.700000,122.000000)" style="stroke: black; stroke-width:0.25;"/>
<line x1="224.700000" y1="123.000000" x2="227.700000" y2="122.000000"  transform="rotate(0.000000,227.700000,122.000000)" style="stroke: black; stroke-width:0.25;"/>
<line x1="224.700000" y1="129.000000" x2="227.700000" y2="130.000000"  transform="rotate(0.000000,227.700000,130.000000)" style="stroke: black; stroke-width:0.25;"/>
<line x1="224.700000" y1="131.000000" x2="227.700000" y2="130.000000"  transform="rotate(0.000000,227.700000,130.000000)" style="stroke: black; stroke-width:0.25;"/>
<rect x="268.700000" y="99.000000" width="24.000000" height="24.000000" rx="0" ry="0" style="stroke:none;fill:#cccccc;"/>
<rect x="267.700000" y="98.000000" width="24.000000" height="24.000000" rx="0" ry="0" style="stroke:none;fill:#4B71A1;"/>
<text x="279.700000" y="112.000000" font-family="Arial" font-size="7" text-anchor="middle" fill="#FFFFFF">*</text>
<circle cx="269.700000" cy="100.000000" r="1"/>
<line x1="264.700000" y1="105.000000" x2="267.700000" y2="106.000000"  transform="rotate(0.000000,267.700000,106.000000)" style="stroke: black; stroke-width:0.25;"/>
<line x1="264.700000" y1="107.000000" x2="267.700000" y2="106.000000"  transform="rotate(0.000000,267.700000,106.000000)" style="stroke: black; stroke-width:0.25;"/>
<line x1="264.700000" y1="113.000000" x2="267.700000" y2="114.000000"  transform="rotate(0.000000,267.700000,114.000000)" style="stroke: black; stroke-width:0.25;"/>
<line x1="264.700000" y1="115.000000" x2="267.700000" y2="114.000000"  transform="rotate(0.000000,267.700000,114.000000)" style="stroke: black; stroke-width:0.25;"/>
<rect x="308.700000" y="83.000000" width="24.000000" height="24.000000" rx="0" ry="0" style="stroke:none;fill:#cccccc;"/>
<rect x="307.700000" y="82.000000" width="24.000000" height="24.000000" rx="0" ry="0" style="stroke:none;fill:#4B71A1;"/>
<text x="319.700000" y="96.000000" font-family="Arial" font-size="7" text-anchor="middle" fill="#FFFFFF">/</text>
<circle cx="309.700000" cy="84.000000" r="1"/>
<line x1="304.700000" y1="89.000000" x2="307.700000" y2="90.000000"  transform="rotate(0.000000,307.700000,90.000000)" style="stroke: black; stroke-width:0.25;"/>
<line x1="304.700000" y1="91.000000" x2="307.700000" y2="90.000000"  transform="rotate(0.000000,307.700000,90.000000)" style="stroke: black; stroke-width:0.25;"/>
<line x1="304.700000" y1="97.000000" x2="307.700000" y2="98.000000"  transform="rotate(0.000000,307.700000,98.000000)" style="stroke: black; stroke-width:0.25;"/>
<line x1="304.700000" y1="99.000000" x2="307.700000" y2="98.000000"  transform="rotate(0.000000,307.700000,98.000000)" style="stroke: black; stroke-width:0.25;"/>
<line x1="15.000000" y1="15.000000" x2="15.000000" y2="173.000000"  style="stroke: black; stroke-linecap:round; stroke-width:0.25; stroke-dasharray:3,3;"/>
<line x1="15.000000" y1="173.000000" x2="348.700000" y2="173.000000"  style="stroke: black; stroke-linecap:round; stroke-width:0.25; stroke-dasharray:3,3;"/>
<line x1="348.700000" y1="173.000000" x2="348.700000" y2="15.000000"  style="stroke: black; stroke-linecap:round; stroke-width:0.25; stroke-dasharray:3,3;"/>
<line x1="15.000000" y1="15.000000" x2="20.000000" y2="15.000000"  style="stroke: black; stroke-linecap:round; stroke-width:0.25; stroke-dasharray:3,3;"/>
<line x1="42.575000" y1="15.000000" x2="348.700000" y2="15.000000"  style="stroke: black; stroke-linecap:round; stroke-width:0.25; stroke-dasharray:3,3;"/>
<text x="20.000000" y="17.000000" font-family="Arial" font-size="7">alpha</text>
<line x1="350.700000" y1="93.000000" x2="353.700000" y2="94.000000"  transform="rotate(0.000000,353.700000,94.000000)" style="stroke: black; stroke-width:0.25;"/>
<line x1="350.700000" y1="95.000000" x2="353.700000" y2="94.000000"  transform="rotate(0.000000,353.700000,94.000000)" style="stroke: black; stroke-width:0.25;"/>
<line x1="130.750000" y1="100.000000" x2="134.750000" y2="100.000000"  style="stroke:black; stroke-linecap:round; stroke-width:0.25;"/>
<line x1="134.750000" y1="100.000000" x2="215.700000" y2="100.000000"  style="stroke:black; stroke-linecap:round; stroke-width:0.25;"/>
<line x1="149.850000" y1="68.000000" x2="153.850000" y2="68.000000"  style="stroke:black; stroke-linecap:round; stroke-width:0.25;"/>
<line x1="153.850000" y1="36.000000" x2="157.850000" y2="36.000000"  style="stroke:black; stroke-linecap:round; stroke-width:0.25;"/>
<line x1="153.850000" y1="68.000000" x2="255.700000" y2="68.000000"  style="stroke:black; stroke-linecap:round; stroke-width:0.25;"/>
<line x1="157.850000" y1="36.000000" x2="157.850000" y2="36.000000"  style="stroke:black; stroke-linecap:round; stroke-width:0.25;"/>
<line x1="157.850000" y1="36.000000" x2="161.850000" y2="36.000000"  style="stroke:black; stroke-linecap:round; stroke-width:0.25;"/>
<line x1="185.850000" y1="36.000000" x2="189.850000" y2="36.000000"  style="stroke:black; stroke-linecap:round; stroke-width:0.25;"/>
<line x1="189.850000" y1="36.000000" x2="295.700000" y2="36.000000"  style="stroke:black; stroke-linecap:round; stroke-width:0.25;"/>
<line x1="201.700000" y1="142.000000" x2="205.700000" y2="142.000000"  style="stroke:black; stroke-linecap:round; stroke-width:0.25;"/>
<line x1="205.700000" y1="142.000000" x2="215.700000" y2="142.000000"  style="stroke:black; stroke-linecap:round; stroke-width:0.25;"/>
<line x1="215.700000" y1="100.000000" x2="223.700000" y2="100.000000"  style="stroke:black; stroke-linecap:round; stroke-width:0.25;"/>
<line x1="215.700000" y1="130.000000" x2="223.700000" y2="130.000000"  style="stroke:black; stroke-linecap:round; stroke-width:0.25;"/>
<line x1="215.700000" y1="142.000000" x2="215.700000" y2="130.000000"  style="stroke:black; stroke-linecap:round; stroke-width:0.25;"/>
<line x1="215.700000" y1="142.000000" x2="215.700000" y2="142.000000"  style="stroke:black; stroke-linecap:round; stroke-width:0.25;"/>
<line x1="223.700000" y1="100.000000" x2="223.700000" y2="122.000000"  style="stroke:black; stroke-linecap:round; stroke-width:0.25;"/>
<line x1="223.700000" y1="122.000000" x2="223.700000" y2="122.000000"  style="stroke:black; stroke-linecap:round; stroke-width:0.25;"/>
<line x1="223.700000" y1="122.000000" x2="227.700000" y2="122.000000"  style="stroke:black; stroke-linecap:round; stroke-width:0.25;"/>
<line x1="223.700000" y1="130.000000" x2="227.700000" y2="130.000000"  style="stroke:black; stroke-linecap:round; stroke-width:0.25;"/>
<line x1="251.700000" y1="126.000000" x2="255.700000" y2="126.000000"  style="stroke:black; stroke-linecap:round; stroke-width:0.25;"/>
<line x1="255.700000" y1="68.000000" x2="263.700000" y2="68.000000"  style="stroke:black; stroke-linecap:round; stroke-width:0.25;"/>
<line x1="255.700000" y1="114.000000" x2="263.700000" y2="114.000000"  style="stroke:black; stroke-linecap:round; stroke-width:0.25;"/>
<line x1="255.700000" y1="126.000000" x2="255.700000" y2="114.000000"  style="stroke:black; stroke-linecap:round; stroke-width:0.25;"/>
<line x1="255.700000" y1="126.000000" x2="255.700000" y2="126.000000"  style="stroke:black; stroke-linecap:round; stroke-width:0.25;"/>
<line x1="263.700000" y1="68.000000" x2="263.700000" y2="106.000000"  style="stroke:black; stroke-linecap:round; stroke-width:0.25;"/>
<line x1="263.700000" y1="106.000000" x2="263.700000" y2="106.000000"  style="stroke:black; stroke-linecap:round; stroke-width:0.25;"/>
<line x1="263.700000" y1="106.000000" x2="267.700000" y2="106.000000"  style="stroke:black; stroke-linecap:round; stroke-width:0.25;"/>
<line x1="263.700000" y1="114.000000" x2="267.700000" y2="114.000000"  style="stroke:black; stroke-linecap:round; stroke-width:0.25;"/>
<line x1="291.700000" y1="110.000000" x2="295.700000" y2="110.000000"  style="stroke:black; stroke-linecap:round; stroke-width:0.25;"/>
<line x1="295.700000" y1="36.000000" x2="303.700000" y2="36.000000"  style="stroke:black; stroke-linecap:round; stroke-width:0.25;"/>
<line x1="295.700000" y1="98.000000" x2="303.700000" y2="98.000000"  style="stroke:black; stroke-linecap:round; stroke-width:0.25;"/>
<line x1="295.700000" y1="110.000000" x2="295.700000" y2="98.000000"  style="stroke:black; stroke-linecap:round; stroke-width:0.25;"/>
<line x1="295.700000" y1="110.000000" x2="295.700000" y2="110.000000"  style="stroke:black; stroke-linecap:round; stroke-width:0.25;"/>
<line x1="303.700000" y1="36.000000" x2="303.700000" y2="90.000000"  style="stroke:black; stroke-linecap:round; stroke-width:0.25;"/>
<line x1="303.700000" y1="90.000000" x2="303.700000" y2="90.000000"  style="stroke:black; stroke-linecap:round; stroke-width:0.25;"/>
<line x1="303.700000" y1="90.000000" x2="307.700000" y2="90.000000"  style="stroke:black; stroke-linecap:round; stroke-width:0.25;"/>
<line x1="303.700000" y1="98.000000" x2="307.700000" y2="98.000000"  style="stroke:black; stroke-linecap:round; stroke-width:0.25;"/>
<line x1="331.700000" y1="94.000000" x2="335.700000" y2="94.000000"  style="stroke:black; stroke-linecap:round; stroke-width:0.25;"/>
<line x1="335.700000" y1="94.000000" x2="335.700000" y2="94.000000"  style="stroke:black; stroke-linecap:round; stroke-width:0.25;"/>
<line x1="335.700000" y1="94.000000" x2="339.700000" y2="94.000000"  style="stroke:black; stroke-linecap:round; stroke-width:0.25;"/>
<line x1="339.700000" y1="94.000000" x2="343.700000" y2="94.000000"  style="stroke:black; stroke-linecap:round; stroke-width:0.25;"/>
<line x1="343.700000" y1="94.000000" x2="353.700000" y2="94.000000"  style="stroke:black; stroke-linecap:round; stroke-width:0.25;"/>
</svg>
