<?xml version="1.0"?>
<svg xmlns="http://www.w3.org/2000/svg" xmlns:xlink="http://www.w3.org/1999/xlink" viewBox="0 0 350.800000 268.000000" width="175.400000mm" height="134.000000mm" version="1.1">
<rect x="1.000000" y="1.000000" width="349.800000" height="267.000000" rx="0" ry="0" style="stroke:none;fill:#cccccc;"/>
<rect x="0.000000" y="0.000000" width="349.800000" height="267.000000" rx="0" ry="0" style="stroke:none;fill:#ffffff;"/>
<text x="10.000000" y="7.000000" font-family="Arial" font-size="7"></text>
<a xlink:href="sawtooth-0x7f31803522b0.svg">
<rect x="67.900000" y="45.000000" width="129.000000" height="24.000000" rx="0" ry="0" style="stroke:none;fill:#cccccc;"/>
<rect x="66.900000" y="44.000000" width="129.000000" height="24.000000" rx="0" ry="0" style="stroke:none;fill:#003366;"/>
</a>
<a xlink:href="sawtooth-0x7f31803522b0.svg">
<text x="131.400000" y="58.000000" font-family="Arial" font-size="7" text-anchor="middle" fill="#FFFFFF">sawtooth(vsli... 1e+03, 0.1))</text>
</a>
<circle cx="68.900000" cy="46.000000" r="1"/>
<rect x="55.000000" y="87.000000" width="154.800000" height="24.000000" rx="0" ry="0" style="stroke:none;fill:#cccccc;"/>
<rect x="54.000000" y="86.000000" width="154.800000" height="24.000000" rx="0" ry="0" style="stroke:none;fill:#477881;"/>
<text x="131.400000" y="100.000000" font-family="Arial" font-size="7" text-anchor="middle" fill="#FFFFFF">vslider(gain, 0.0, 0.0, 1.0, 0.01)</text>
<circle cx="56.000000" cy="88.000000" r="1"/>
<line x1="45.000000" y1="77.000000" x2="45.000000" y2="119.000000"  style="stroke: black; stroke-linecap:round; stroke-width:0.25; stroke-dasharray:3,3;"/>
<line x1="45.000000" y1="119.000000" x2="217.800000" y2="119.000000"  style="stroke: black; stroke-linecap:round; stroke-width:0.25; stroke-dasharray:3,3;"/>
<line x1="217.800000" y1="119.000000" x2="217.800000" y2="77.000000"  style="stroke: black; stroke-linecap:round; stroke-width:0.25; stroke-dasharray:3,3;"/>
<line x1="45.000000" y1="77.000000" x2="50.000000" y2="77.000000"  style="stroke: black; stroke-linecap:round; stroke-width:0.25; stroke-dasharray:3,3;"/>
<line x1="72.575000" y1="77.000000" x2="217.800000" y2="77.000000"  style="stroke: black; stroke-linecap:round; stroke-width:0.25; stroke-dasharray:3,3;"/>
<text x="50.000000" y="79.000000" font-family="Arial" font-size="7">gainS</text>
<rect x="235.800000" y="71.000000" width="24.000000" height="24.000000" rx="0" ry="0" style="stroke:none;fill:#cccccc;"/>
<rect x="234.800000" y="70.000000" width="24.000000" height="24.000000" rx="0" ry="0" style="stroke:none;fill:#4B71A1;"/>
<text x="246.800000" y="84.000000" font-family="Arial" font-size="7" text-anchor="middle" fill="#FFFFFF">*</text>
<circle cx="236.800000" cy="72.000000" r="1"/>
<line x1="231.800000" y1="77.000000" x2="234.800000" y2="78.000000"  transform="rotate(0.000000,234.800000,78.000000)" style="stroke: black; stroke-width:0.25;"/>
<line x1="231.800000" y1="79.000000" x2="234.800000" y2="78.000000"  transform="rotate(0.000000,234.800000,78.000000)" style="stroke: black; stroke-width:0.25;"/>
<line x1="231.800000" y1="85.000000" x2="234.800000" y2="86.000000"  transform="rotate(0.000000,234.800000,86.000000)" style="stroke: black; stroke-width:0.25;"/>
<line x1="231.800000" y1="87.000000" x2="234.800000" y2="86.000000"  transform="rotate(0.000000,234.800000,86.000000)" style="stroke: black; stroke-width:0.25;"/>
<line x1="35.000000" y1="35.000000" x2="35.000000" y2="129.000000"  style="stroke: black; stroke-linecap:round; stroke-width:0.25; stroke-dasharray:3,3;"/>
<line x1="35.000000" y1="129.000000" x2="267.800000" y2="129.000000"  style="stroke: black; stroke-linecap:round; stroke-width:0.25; stroke-dasharray:3,3;"/>
<line x1="267.800000" y1="129.000000" x2="267.800000" y2="35.000000"  style="stroke: black; stroke-linecap:round; stroke-width:0.25; stroke-dasharray:3,3;"/>
<line x1="35.000000" y1="35.000000" x2="40.000000" y2="35.000000"  style="stroke: black; stroke-linecap:round; stroke-width:0.25; stroke-dasharray:3,3;"/>
<line x1="98.050000" y1="35.000000" x2="267.800000" y2="35.000000"  style="stroke: black; stroke-linecap:round; stroke-width:0.25; stroke-dasharray:3,3;"/>
<text x="40.000000" y="37.000000" font-family="Arial" font-size="7">hgroup(Sawtooth)</text>
<a xlink:href="triangle-0x7f318035a530.svg">
<rect x="67.900000" y="149.000000" width="129.000000" height="24.000000" rx="0" ry="0" style="stroke:none;fill:#cccccc;"/>
<rect x="66.900000" y="148.000000" width="129.000000" height="24.000000" rx="0" ry="0" style="stroke:none;fill:#003366;"/>
</a>
<a xlink:href="triangle-0x7f318035a530.svg">
<text x="131.400000" y="162.000000" font-family="Arial" font-size="7" text-anchor="middle" fill="#FFFFFF">triangle(vsli... 1e+03, 0.1))</text>
</a>
<circle cx="68.900000" cy="150.000000" r="1"/>
<rect x="55.000000" y="191.000000" width="154.800000" height="24.000000" rx="0" ry="0" style="stroke:none;fill:#cccccc;"/>
<rect x="54.000000" y="190.000000" width="154.800000" height="24.000000" rx="0" ry="0" style="stroke:none;fill:#477881;"/>
<text x="131.400000" y="204.000000" font-family="Arial" font-size="7" text-anchor="middle" fill="#FFFFFF">vslider(gain, 0.0, 0.0, 1.0, 0.01)</text>
<circle cx="56.000000" cy="192.000000" r="1"/>
<line x1="45.000000" y1="181.000000" x2="45.000000" y2="223.000000"  style="stroke: black; stroke-linecap:round; stroke-width:0.25; stroke-dasharray:3,3;"/>
<line x1="45.000000" y1="223.000000" x2="217.800000" y2="223.000000"  style="stroke: black; stroke-linecap:round; stroke-width:0.25; stroke-dasharray:3,3;"/>
<line x1="217.800000" y1="223.000000" x2="217.800000" y2="181.000000"  style="stroke: black; stroke-linecap:round; stroke-width:0.25; stroke-dasharray:3,3;"/>
<line x1="45.000000" y1="181.000000" x2="50.000000" y2="181.000000"  style="stroke: black; stroke-linecap:round; stroke-width:0.25; stroke-dasharray:3,3;"/>
<line x1="72.575000" y1="181.000000" x2="217.800000" y2="181.000000"  style="stroke: black; stroke-linecap:round; stroke-width:0.25; stroke-dasharray:3,3;"/>
<text x="50.000000" y="183.000000" font-family="Arial" font-size="7">gainS</text>
<rect x="235.800000" y="175.000000" width="24.000000" height="24.000000" rx="0" ry="0" style="stroke:none;fill:#cccccc;"/>
<rect x="234.800000" y="174.000000" width="24.000000" height="24.000000" rx="0" ry="0" style="stroke:none;fill:#4B71A1;"/>
<text x="246.800000" y="188.000000" font-family="Arial" font-size="7" text-anchor="middle" fill="#FFFFFF">*</text>
<circle cx="236.800000" cy="176.000000" r="1"/>
<line x1="231.800000" y1="181.000000" x2="234.800000" y2="182.000000"  transform="rotate(0.000000,234.800000,182.000000)" style="stroke: black; stroke-width:0.25;"/>
<line x1="231.800000" y1="183.000000" x2="234.800000" y2="182.000000"  transform="rotate(0.000000,234.800000,182.000000)" style="stroke: black; stroke-width:0.25;"/>
<line x1="231.800000" y1="189.000000" x2="234.800000" y2="190.000000"  transform="rotate(0.000000,234.800000,190.000000)" style="stroke: black; stroke-width:0.25;"/>
<line x1="231.800000" y1="191.000000" x2="234.800000" y2="190.000000"  transform="rotate(0.000000,234.800000,190.000000)" style="stroke: black; stroke-width:0.25;"/>
<line x1="35.000000" y1="139.000000" x2="35.000000" y2="233.000000"  style="stroke: black; stroke-linecap:round; stroke-width:0.25; stroke-dasharray:3,3;"/>
<line x1="35.000000" y1="233.000000" x2="267.800000" y2="233.000000"  style="stroke: black; stroke-linecap:round; stroke-width:0.25; stroke-dasharray:3,3;"/>
<line x1="267.800000" y1="233.000000" x2="267.800000" y2="139.000000"  style="stroke: black; stroke-linecap:round; stroke-width:0.25; stroke-dasharray:3,3;"/>
<line x1="35.000000" y1="139.000000" x2="40.000000" y2="139.000000"  style="stroke: black; stroke-linecap:round; stroke-width:0.25; stroke-dasharray:3,3;"/>
<line x1="98.050000" y1="139.000000" x2="267.800000" y2="139.000000"  style="stroke: black; stroke-linecap:round; stroke-width:0.25; stroke-dasharray:3,3;"/>
<text x="40.000000" y="141.000000" font-family="Arial" font-size="7">hgroup(Triangle)</text>
<rect x="285.800000" y="123.000000" width="24.000000" height="24.000000" rx="0" ry="0" style="stroke:none;fill:#cccccc;"/>
<rect x="284.800000" y="122.000000" width="24.000000" height="24.000000" rx="0" ry="0" style="stroke:none;fill:#4B71A1;"/>
<text x="296.800000" y="136.000000" font-family="Arial" font-size="7" text-anchor="middle" fill="#FFFFFF">+</text>
<circle cx="286.800000" cy="124.000000" r="1"/>
<line x1="281.800000" y1="129.000000" x2="284.800000" y2="130.000000"  transform="rotate(0.000000,284.800000,130.000000)" style="stroke: black; stroke-width:0.25;"/>
<line x1="281.800000" y1="131.000000" x2="284.800000" y2="130.000000"  transform="rotate(0.000000,284.800000,130.000000)" style="stroke: black; stroke-width:0.25;"/>
<line x1="281.800000" y1="137.000000" x2="284.800000" y2="138.000000"  transform="rotate(0.000000,284.800000,138.000000)" style="stroke: black; stroke-width:0.25;"/>
<line x1="281.800000" y1="139.000000" x2="284.800000" y2="138.000000"  transform="rotate(0.000000,284.800000,138.000000)" style="stroke: black; stroke-width:0.25;"/>
<line x1="25.000000" y1="25.000000" x2="25.000000" y2="243.000000"  style="stroke: black; stroke-linecap:round; stroke-width:0.25; stroke-dasharray:3,3;"/>
<line x1="25.000000" y1="243.000000" x2="317.800000" y2="243.000000"  style="stroke: black; stroke-linecap:round; stroke-width:0.25; stroke-dasharray:3,3;"/>
<line x1="317.800000" y1="243.000000" x2="317.800000" y2="25.000000"  style="stroke: black; stroke-linecap:round; stroke-width:0.25; stroke-dasharray:3,3;"/>
<line x1="25.000000" y1="25.000000" x2="30.000000" y2="25.000000"  style="stroke: black; stroke-linecap:round; stroke-width:0.25; stroke-dasharray:3,3;"/>
<line x1="97.725000" y1="25.000000" x2="317.800000" y2="25.000000"  style="stroke: black; stroke-linecap:round; stroke-width:0.25; stroke-dasharray:3,3;"/>
<text x="30.000000" y="27.000000" font-family="Arial" font-size="7">hgroup(Oscillators)</text>
<line x1="15.000000" y1="15.000000" x2="15.000000" y2="253.000000"  style="stroke: black; stroke-linecap:round; stroke-width:0.25; stroke-dasharray:3,3;"/>
<line x1="15.000000" y1="253.000000" x2="335.800000" y2="253.000000"  style="stroke: black; stroke-linecap:round; stroke-width:0.25; stroke-dasharray:3,3;"/>
<line x1="335.800000" y1="253.000000" x2="335.800000" y2="15.000000"  style="stroke: black; stroke-linecap:round; stroke-width:0.25; stroke-dasharray:3,3;"/>
<line x1="15.000000" y1="15.000000" x2="20.000000" y2="15.000000"  style="stroke: black; stroke-linecap:round; stroke-width:0.25; stroke-dasharray:3,3;"/>
<line x1="49.025000" y1="15.000000" x2="335.800000" y2="15.000000"  style="stroke: black; stroke-linecap:round; stroke-width:0.25; stroke-dasharray:3,3;"/>
<text x="20.000000" y="17.000000" font-family="Arial" font-size="7">process</text>
<line x1="337.800000" y1="133.000000" x2="340.800000" y2="134.000000"  transform="rotate(0.000000,340.800000,134.000000)" style="stroke: black; stroke-width:0.25;"/>
<line x1="337.800000" y1="135.000000" x2="340.800000" y2="134.000000"  transform="rotate(0.000000,340.800000,134.000000)" style="stroke: black; stroke-width:0.25;"/>
<line x1="195.900000" y1="56.000000" x2="199.900000" y2="56.000000"  style="stroke:black; stroke-linecap:round; stroke-width:0.25;"/>
<line x1="195.900000" y1="160.000000" x2="199.900000" y2="160.000000"  style="stroke:black; stroke-linecap:round; stroke-width:0.25;"/>
<line x1="199.900000" y1="56.000000" x2="222.800000" y2="56.000000"  style="stroke:black; stroke-linecap:round; stroke-width:0.25;"/>
<line x1="199.900000" y1="160.000000" x2="222.800000" y2="160.000000"  style="stroke:black; stroke-linecap:round; stroke-width:0.25;"/>
<line x1="208.800000" y1="98.000000" x2="212.800000" y2="98.000000"  style="stroke:black; stroke-linecap:round; stroke-width:0.25;"/>
<line x1="208.800000" y1="202.000000" x2="212.800000" y2="202.000000"  style="stroke:black; stroke-linecap:round; stroke-width:0.25;"/>
<line x1="212.800000" y1="98.000000" x2="222.800000" y2="98.000000"  style="stroke:black; stroke-linecap:round; stroke-width:0.25;"/>
<line x1="212.800000" y1="202.000000" x2="222.800000" y2="202.000000"  style="stroke:black; stroke-linecap:round; stroke-width:0.25;"/>
<line x1="222.800000" y1="56.000000" x2="230.800000" y2="56.000000"  style="stroke:black; stroke-linecap:round; stroke-width:0.25;"/>
<line x1="222.800000" y1="160.000000" x2="230.800000" y2="160.000000"  style="stroke:black; stroke-linecap:round; stroke-width:0.25;"/>
<line x1="222.800000" y1="86.000000" x2="230.800000" y2="86.000000"  style="stroke:black; stroke-linecap:round; stroke-width:0.25;"/>
<line x1="222.800000" y1="98.000000" x2="222.800000" y2="86.000000"  style="stroke:black; stroke-linecap:round; stroke-width:0.25;"/>
<line x1="222.800000" y1="98.000000" x2="222.800000" y2="98.000000"  style="stroke:black; stroke-linecap:round; stroke-width:0.25;"/>
<line x1="222.800000" y1="190.000000" x2="230.800000" y2="190.000000"  style="stroke:black; stroke-linecap:round; stroke-width:0.25;"/>
<line x1="222.800000" y1="202.000000" x2="222.800000" y2="190.000000"  style="stroke:black; stroke-linecap:round; stroke-width:0.25;"/>
<line x1="222.800000" y1="202.000000" x2="222.800000" y2="202.000000"  style="stroke:black; stroke-linecap:round; stroke-width:0.25;"/>
<line x1="230.800000" y1="56.000000" x2="230.800000" y2="78.000000"  style="stroke:black; stroke-linecap:round; stroke-width:0.25;"/>
<line x1="230.800000" y1="78.000000" x2="230.800000" y2="78.000000"  style="stroke:black; stroke-linecap:round; stroke-width:0.25;"/>
<line x1="230.800000" y1="160.000000" x2="230.800000" y2="182.000000"  style="stroke:black; stroke-linecap:round; stroke-width:0.25;"/>
<line x1="230.800000" y1="182.000000" x2="230.800000" y2="182.000000"  style="stroke:black; stroke-linecap:round; stroke-width:0.25;"/>
<line x1="230.800000" y1="78.000000" x2="234.800000" y2="78.000000"  style="stroke:black; stroke-linecap:round; stroke-width:0.25;"/>
<line x1="230.800000" y1="86.000000" x2="234.800000" y2="86.000000"  style="stroke:black; stroke-linecap:round; stroke-width:0.25;"/>
<line x1="230.800000" y1="182.000000" x2="234.800000" y2="182.000000"  style="stroke:black; stroke-linecap:round; stroke-width:0.25;"/>
<line x1="230.800000" y1="190.000000" x2="234.800000" y2="190.000000"  style="stroke:black; stroke-linecap:round; stroke-width:0.25;"/>
<line x1="258.800000" y1="82.000000" x2="262.800000" y2="82.000000"  style="stroke:black; stroke-linecap:round; stroke-width:0.25;"/>
<line x1="258.800000" y1="186.000000" x2="262.800000" y2="186.000000"  style="stroke:black; stroke-linecap:round; stroke-width:0.25;"/>
<line x1="262.800000" y1="82.000000" x2="272.800000" y2="82.000000"  style="stroke:black; stroke-linecap:round; stroke-width:0.25;"/>
<line x1="262.800000" y1="186.000000" x2="272.800000" y2="186.000000"  style="stroke:black; stroke-linecap:round; stroke-width:0.25;"/>
<line x1="272.800000" y1="82.000000" x2="280.800000" y2="82.000000"  style="stroke:black; stroke-linecap:round; stroke-width:0.25;"/>
<line x1="272.800000" y1="138.000000" x2="280.800000" y2="138.000000"  style="stroke:black; stroke-linecap:round; stroke-width:0.25;"/>
<line x1="272.800000" y1="186.000000" x2="272.800000" y2="138.000000"  style="stroke:black; stroke-linecap:round; stroke-width:0.25;"/>
<line x1="272.800000" y1="186.000000" x2="272.800000" y2="186.000000"  style="stroke:black; stroke-linecap:round; stroke-width:0.25;"/>
<line x1="280.800000" y1="82.000000" x2="280.800000" y2="130.000000"  style="stroke:black; stroke-linecap:round; stroke-width:0.25;"/>
<line x1="280.800000" y1="130.000000" x2="280.800000" y2="130.000000"  style="stroke:black; stroke-linecap:round; stroke-width:0.25;"/>
<line x1="280.800000" y1="130.000000" x2="284.800000" y2="130.000000"  style="stroke:black; stroke-linecap:round; stroke-width:0.25;"/>
<line x1="280.800000" y1="138.000000" x2="284.800000" y2="138.000000"  style="stroke:black; stroke-linecap:round; stroke-width:0.25;"/>
<line x1="308.800000" y1="134.000000" x2="312.800000" y2="134.000000"  style="stroke:black; stroke-linecap:round; stroke-width:0.25;"/>
<line x1="312.800000" y1="134.000000" x2="322.800000" y2="134.000000"  style="stroke:black; stroke-linecap:round; stroke-width:0.25;"/>
<line x1="322.800000" y1="134.000000" x2="322.800000" y2="134.000000"  style="stroke:black; stroke-linecap:round; stroke-width:0.25;"/>
<line x1="322.800000" y1="134.000000" x2="326.800000" y2="134.000000"  style="stroke:black; stroke-linecap:round; stroke-width:0.25;"/>
<line x1="326.800000" y1="134.000000" x2="330.800000" y2="134.000000"  style="stroke:black; stroke-linecap:round; stroke-width:0.25;"/>
<line x1="330.800000" y1="134.000000" x2="340.800000" y2="134.000000"  style="stroke:black; stroke-linecap:round; stroke-width:0.25;"/>
</svg>
