<?xml version="1.0"?>
<svg xmlns="http://www.w3.org/2000/svg" xmlns:xlink="http://www.w3.org/1999/xlink" viewBox="0 0 585.600000 284.000000" width="292.800000mm" height="142.000000mm" version="1.1">
<rect x="1.000000" y="1.000000" width="584.600000" height="283.000000" rx="0" ry="0" style="stroke:none;fill:#cccccc;"/>
<rect x="0.000000" y="0.000000" width="584.600000" height="283.000000" rx="0" ry="0" style="stroke:none;fill:#ffffff;"/>
<text x="10.000000" y="7.000000" font-family="Arial" font-size="7"></text>
<rect x="61.000000" y="79.000000" width="245.100000" height="24.000000" rx="0" ry="0" style="stroke:none;fill:#cccccc;"/>
<rect x="60.000000" y="78.000000" width="245.100000" height="24.000000" rx="0" ry="0" style="stroke:none;fill:#477881;"/>
<text x="182.550000" y="92.000000" font-family="Arial" font-size="7" text-anchor="middle" fill="#FFFFFF">vslider(volume, 0.10000000000000001f, 0.0f, 1.0f, 0.01f)</text>
<circle cx="62.000000" cy="80.000000" r="1"/>
<rect x="322.100000" y="75.000000" width="24.000000" height="24.000000" rx="0" ry="0" style="stroke:none;fill:#cccccc;"/>
<rect x="321.100000" y="74.000000" width="24.000000" height="24.000000" rx="0" ry="0" style="stroke:none;fill:#4B71A1;"/>
<text x="333.100000" y="88.000000" font-family="Arial" font-size="7" text-anchor="middle" fill="#FFFFFF">*</text>
<circle cx="323.100000" cy="76.000000" r="1"/>
<line x1="318.100000" y1="81.000000" x2="321.100000" y2="82.000000"  transform="rotate(0.000000,321.100000,82.000000)" style="stroke: black; stroke-width:0.25;"/>
<line x1="318.100000" y1="83.000000" x2="321.100000" y2="82.000000"  transform="rotate(0.000000,321.100000,82.000000)" style="stroke: black; stroke-width:0.25;"/>
<line x1="318.100000" y1="89.000000" x2="321.100000" y2="90.000000"  transform="rotate(0.000000,321.100000,90.000000)" style="stroke: black; stroke-width:0.25;"/>
<line x1="318.100000" y1="91.000000" x2="321.100000" y2="90.000000"  transform="rotate(0.000000,321.100000,90.000000)" style="stroke: black; stroke-width:0.25;"/>
<rect x="392.350000" y="63.000000" width="24.000000" height="24.000000" rx="0" ry="0" style="stroke:none;fill:#cccccc;"/>
<rect x="391.350000" y="62.000000" width="24.000000" height="24.000000" rx="0" ry="0" style="stroke:none;fill:#f44800;"/>
<text x="403.350000" y="76.000000" font-family="Arial" font-size="7" text-anchor="middle" fill="#FFFFFF">1</text>
<circle cx="393.350000" cy="64.000000" r="1"/>
<rect x="372.100000" y="95.000000" width="64.500000" height="24.000000" rx="0" ry="0" style="stroke:none;fill:#cccccc;"/>
<rect x="371.100000" y="94.000000" width="64.500000" height="24.000000" rx="0" ry="0" style="stroke:none;fill:#477881;"/>
<text x="403.350000" y="108.000000" font-family="Arial" font-size="7" text-anchor="middle" fill="#FFFFFF">checkbox(mute)</text>
<circle cx="373.100000" cy="96.000000" r="1"/>
<rect x="452.600000" y="79.000000" width="24.000000" height="24.000000" rx="0" ry="0" style="stroke:none;fill:#cccccc;"/>
<rect x="451.600000" y="78.000000" width="24.000000" height="24.000000" rx="0" ry="0" style="stroke:none;fill:#4B71A1;"/>
<text x="463.600000" y="92.000000" font-family="Arial" font-size="7" text-anchor="middle" fill="#FFFFFF">-</text>
<circle cx="453.600000" cy="80.000000" r="1"/>
<line x1="448.600000" y1="85.000000" x2="451.600000" y2="86.000000"  transform="rotate(0.000000,451.600000,86.000000)" style="stroke: black; stroke-width:0.25;"/>
<line x1="448.600000" y1="87.000000" x2="451.600000" y2="86.000000"  transform="rotate(0.000000,451.600000,86.000000)" style="stroke: black; stroke-width:0.25;"/>
<line x1="448.600000" y1="93.000000" x2="451.600000" y2="94.000000"  transform="rotate(0.000000,451.600000,94.000000)" style="stroke: black; stroke-width:0.25;"/>
<line x1="448.600000" y1="95.000000" x2="451.600000" y2="94.000000"  transform="rotate(0.000000,451.600000,94.000000)" style="stroke: black; stroke-width:0.25;"/>
<rect x="492.600000" y="75.000000" width="24.000000" height="24.000000" rx="0" ry="0" style="stroke:none;fill:#cccccc;"/>
<rect x="491.600000" y="74.000000" width="24.000000" height="24.000000" rx="0" ry="0" style="stroke:none;fill:#4B71A1;"/>
<text x="503.600000" y="88.000000" font-family="Arial" font-size="7" text-anchor="middle" fill="#FFFFFF">*</text>
<circle cx="493.600000" cy="76.000000" r="1"/>
<line x1="488.600000" y1="81.000000" x2="491.600000" y2="82.000000"  transform="rotate(0.000000,491.600000,82.000000)" style="stroke: black; stroke-width:0.25;"/>
<line x1="488.600000" y1="83.000000" x2="491.600000" y2="82.000000"  transform="rotate(0.000000,491.600000,82.000000)" style="stroke: black; stroke-width:0.25;"/>
<line x1="488.600000" y1="89.000000" x2="491.600000" y2="90.000000"  transform="rotate(0.000000,491.600000,90.000000)" style="stroke: black; stroke-width:0.25;"/>
<line x1="488.600000" y1="91.000000" x2="491.600000" y2="90.000000"  transform="rotate(0.000000,491.600000,90.000000)" style="stroke: black; stroke-width:0.25;"/>
<line x1="362.100000" y1="45.000000" x2="362.100000" y2="127.000000"  style="stroke: black; stroke-linecap:round; stroke-width:0.25; stroke-dasharray:3,3;"/>
<line x1="362.100000" y1="127.000000" x2="524.600000" y2="127.000000"  style="stroke: black; stroke-linecap:round; stroke-width:0.25; stroke-dasharray:3,3;"/>
<line x1="524.600000" y1="127.000000" x2="524.600000" y2="45.000000"  style="stroke: black; stroke-linecap:round; stroke-width:0.25; stroke-dasharray:3,3;"/>
<line x1="362.100000" y1="45.000000" x2="367.100000" y2="45.000000"  style="stroke: black; stroke-linecap:round; stroke-width:0.25; stroke-dasharray:3,3;"/>
<line x1="386.450000" y1="45.000000" x2="524.600000" y2="45.000000"  style="stroke: black; stroke-linecap:round; stroke-width:0.25; stroke-dasharray:3,3;"/>
<text x="367.100000" y="47.000000" font-family="Arial" font-size="7">mute</text>
<line x1="51.000000" y1="35.000000" x2="51.000000" y2="137.000000"  style="stroke: black; stroke-linecap:round; stroke-width:0.25; stroke-dasharray:3,3;"/>
<line x1="51.000000" y1="137.000000" x2="534.600000" y2="137.000000"  style="stroke: black; stroke-linecap:round; stroke-width:0.25; stroke-dasharray:3,3;"/>
<line x1="534.600000" y1="137.000000" x2="534.600000" y2="35.000000"  style="stroke: black; stroke-linecap:round; stroke-width:0.25; stroke-dasharray:3,3;"/>
<line x1="51.000000" y1="35.000000" x2="56.000000" y2="35.000000"  style="stroke: black; stroke-linecap:round; stroke-width:0.25; stroke-dasharray:3,3;"/>
<line x1="85.025000" y1="35.000000" x2="534.600000" y2="35.000000"  style="stroke: black; stroke-linecap:round; stroke-width:0.25; stroke-dasharray:3,3;"/>
<text x="56.000000" y="37.000000" font-family="Arial" font-size="7">monoamp</text>
<rect x="61.000000" y="191.000000" width="245.100000" height="24.000000" rx="0" ry="0" style="stroke:none;fill:#cccccc;"/>
<rect x="60.000000" y="190.000000" width="245.100000" height="24.000000" rx="0" ry="0" style="stroke:none;fill:#477881;"/>
<text x="182.550000" y="204.000000" font-family="Arial" font-size="7" text-anchor="middle" fill="#FFFFFF">vslider(volume, 0.10000000000000001f, 0.0f, 1.0f, 0.01f)</text>
<circle cx="62.000000" cy="192.000000" r="1"/>
<rect x="322.100000" y="187.000000" width="24.000000" height="24.000000" rx="0" ry="0" style="stroke:none;fill:#cccccc;"/>
<rect x="321.100000" y="186.000000" width="24.000000" height="24.000000" rx="0" ry="0" style="stroke:none;fill:#4B71A1;"/>
<text x="333.100000" y="200.000000" font-family="Arial" font-size="7" text-anchor="middle" fill="#FFFFFF">*</text>
<circle cx="323.100000" cy="188.000000" r="1"/>
<line x1="318.100000" y1="193.000000" x2="321.100000" y2="194.000000"  transform="rotate(0.000000,321.100000,194.000000)" style="stroke: black; stroke-width:0.25;"/>
<line x1="318.100000" y1="195.000000" x2="321.100000" y2="194.000000"  transform="rotate(0.000000,321.100000,194.000000)" style="stroke: black; stroke-width:0.25;"/>
<line x1="318.100000" y1="201.000000" x2="321.100000" y2="202.000000"  transform="rotate(0.000000,321.100000,202.000000)" style="stroke: black; stroke-width:0.25;"/>
<line x1="318.100000" y1="203.000000" x2="321.100000" y2="202.000000"  transform="rotate(0.000000,321.100000,202.000000)" style="stroke: black; stroke-width:0.25;"/>
<rect x="392.350000" y="175.000000" width="24.000000" height="24.000000" rx="0" ry="0" style="stroke:none;fill:#cccccc;"/>
<rect x="391.350000" y="174.000000" width="24.000000" height="24.000000" rx="0" ry="0" style="stroke:none;fill:#f44800;"/>
<text x="403.350000" y="188.000000" font-family="Arial" font-size="7" text-anchor="middle" fill="#FFFFFF">1</text>
<circle cx="393.350000" cy="176.000000" r="1"/>
<rect x="372.100000" y="207.000000" width="64.500000" height="24.000000" rx="0" ry="0" style="stroke:none;fill:#cccccc;"/>
<rect x="371.100000" y="206.000000" width="64.500000" height="24.000000" rx="0" ry="0" style="stroke:none;fill:#477881;"/>
<text x="403.350000" y="220.000000" font-family="Arial" font-size="7" text-anchor="middle" fill="#FFFFFF">checkbox(mute)</text>
<circle cx="373.100000" cy="208.000000" r="1"/>
<rect x="452.600000" y="191.000000" width="24.000000" height="24.000000" rx="0" ry="0" style="stroke:none;fill:#cccccc;"/>
<rect x="451.600000" y="190.000000" width="24.000000" height="24.000000" rx="0" ry="0" style="stroke:none;fill:#4B71A1;"/>
<text x="463.600000" y="204.000000" font-family="Arial" font-size="7" text-anchor="middle" fill="#FFFFFF">-</text>
<circle cx="453.600000" cy="192.000000" r="1"/>
<line x1="448.600000" y1="197.000000" x2="451.600000" y2="198.000000"  transform="rotate(0.000000,451.600000,198.000000)" style="stroke: black; stroke-width:0.25;"/>
<line x1="448.600000" y1="199.000000" x2="451.600000" y2="198.000000"  transform="rotate(0.000000,451.600000,198.000000)" style="stroke: black; stroke-width:0.25;"/>
<line x1="448.600000" y1="205.000000" x2="451.600000" y2="206.000000"  transform="rotate(0.000000,451.600000,206.000000)" style="stroke: black; stroke-width:0.25;"/>
<line x1="448.600000" y1="207.000000" x2="451.600000" y2="206.000000"  transform="rotate(0.000000,451.600000,206.000000)" style="stroke: black; stroke-width:0.25;"/>
<rect x="492.600000" y="187.000000" width="24.000000" height="24.000000" rx="0" ry="0" style="stroke:none;fill:#cccccc;"/>
<rect x="491.600000" y="186.000000" width="24.000000" height="24.000000" rx="0" ry="0" style="stroke:none;fill:#4B71A1;"/>
<text x="503.600000" y="200.000000" font-family="Arial" font-size="7" text-anchor="middle" fill="#FFFFFF">*</text>
<circle cx="493.600000" cy="188.000000" r="1"/>
<line x1="488.600000" y1="193.000000" x2="491.600000" y2="194.000000"  transform="rotate(0.000000,491.600000,194.000000)" style="stroke: black; stroke-width:0.25;"/>
<line x1="488.600000" y1="195.000000" x2="491.600000" y2="194.000000"  transform="rotate(0.000000,491.600000,194.000000)" style="stroke: black; stroke-width:0.25;"/>
<line x1="488.600000" y1="201.000000" x2="491.600000" y2="202.000000"  transform="rotate(0.000000,491.600000,202.000000)" style="stroke: black; stroke-width:0.25;"/>
<line x1="488.600000" y1="203.000000" x2="491.600000" y2="202.000000"  transform="rotate(0.000000,491.600000,202.000000)" style="stroke: black; stroke-width:0.25;"/>
<line x1="362.100000" y1="157.000000" x2="362.100000" y2="239.000000"  style="stroke: black; stroke-linecap:round; stroke-width:0.25; stroke-dasharray:3,3;"/>
<line x1="362.100000" y1="239.000000" x2="524.600000" y2="239.000000"  style="stroke: black; stroke-linecap:round; stroke-width:0.25; stroke-dasharray:3,3;"/>
<line x1="524.600000" y1="239.000000" x2="524.600000" y2="157.000000"  style="stroke: black; stroke-linecap:round; stroke-width:0.25; stroke-dasharray:3,3;"/>
<line x1="362.100000" y1="157.000000" x2="367.100000" y2="157.000000"  style="stroke: black; stroke-linecap:round; stroke-width:0.25; stroke-dasharray:3,3;"/>
<line x1="386.450000" y1="157.000000" x2="524.600000" y2="157.000000"  style="stroke: black; stroke-linecap:round; stroke-width:0.25; stroke-dasharray:3,3;"/>
<text x="367.100000" y="159.000000" font-family="Arial" font-size="7">mute</text>
<line x1="51.000000" y1="147.000000" x2="51.000000" y2="249.000000"  style="stroke: black; stroke-linecap:round; stroke-width:0.25; stroke-dasharray:3,3;"/>
<line x1="51.000000" y1="249.000000" x2="534.600000" y2="249.000000"  style="stroke: black; stroke-linecap:round; stroke-width:0.25; stroke-dasharray:3,3;"/>
<line x1="534.600000" y1="249.000000" x2="534.600000" y2="147.000000"  style="stroke: black; stroke-linecap:round; stroke-width:0.25; stroke-dasharray:3,3;"/>
<line x1="51.000000" y1="147.000000" x2="56.000000" y2="147.000000"  style="stroke: black; stroke-linecap:round; stroke-width:0.25; stroke-dasharray:3,3;"/>
<line x1="85.025000" y1="147.000000" x2="534.600000" y2="147.000000"  style="stroke: black; stroke-linecap:round; stroke-width:0.25; stroke-dasharray:3,3;"/>
<text x="56.000000" y="149.000000" font-family="Arial" font-size="7">monoamp</text>
<line x1="41.000000" y1="25.000000" x2="41.000000" y2="259.000000"  style="stroke: black; stroke-linecap:round; stroke-width:0.25; stroke-dasharray:3,3;"/>
<line x1="41.000000" y1="259.000000" x2="544.600000" y2="259.000000"  style="stroke: black; stroke-linecap:round; stroke-width:0.25; stroke-dasharray:3,3;"/>
<line x1="544.600000" y1="259.000000" x2="544.600000" y2="25.000000"  style="stroke: black; stroke-linecap:round; stroke-width:0.25; stroke-dasharray:3,3;"/>
<line x1="41.000000" y1="25.000000" x2="46.000000" y2="25.000000"  style="stroke: black; stroke-linecap:round; stroke-width:0.25; stroke-dasharray:3,3;"/>
<line x1="104.050000" y1="25.000000" x2="544.600000" y2="25.000000"  style="stroke: black; stroke-linecap:round; stroke-width:0.25; stroke-dasharray:3,3;"/>
<text x="46.000000" y="27.000000" font-family="Arial" font-size="7">hgroup(Marshall)</text>
<line x1="15.000000" y1="15.000000" x2="15.000000" y2="269.000000"  style="stroke: black; stroke-linecap:round; stroke-width:0.25; stroke-dasharray:3,3;"/>
<line x1="15.000000" y1="269.000000" x2="570.600000" y2="269.000000"  style="stroke: black; stroke-linecap:round; stroke-width:0.25; stroke-dasharray:3,3;"/>
<line x1="570.600000" y1="269.000000" x2="570.600000" y2="15.000000"  style="stroke: black; stroke-linecap:round; stroke-width:0.25; stroke-dasharray:3,3;"/>
<line x1="15.000000" y1="15.000000" x2="20.000000" y2="15.000000"  style="stroke: black; stroke-linecap:round; stroke-width:0.25; stroke-dasharray:3,3;"/>
<line x1="49.025000" y1="15.000000" x2="570.600000" y2="15.000000"  style="stroke: black; stroke-linecap:round; stroke-width:0.25; stroke-dasharray:3,3;"/>
<text x="20.000000" y="17.000000" font-family="Arial" font-size="7">process</text>
<line x1="572.600000" y1="137.000000" x2="575.600000" y2="138.000000"  transform="rotate(0.000000,575.600000,138.000000)" style="stroke: black; stroke-width:0.25;"/>
<line x1="572.600000" y1="139.000000" x2="575.600000" y2="138.000000"  transform="rotate(0.000000,575.600000,138.000000)" style="stroke: black; stroke-width:0.25;"/>
<line x1="572.600000" y1="145.000000" x2="575.600000" y2="146.000000"  transform="rotate(0.000000,575.600000,146.000000)" style="stroke: black; stroke-width:0.25;"/>
<line x1="572.600000" y1="147.000000" x2="575.600000" y2="146.000000"  transform="rotate(0.000000,575.600000,146.000000)" style="stroke: black; stroke-width:0.25;"/>
<line x1="10.000000" y1="138.000000" x2="20.000000" y2="138.000000"  style="stroke:black; stroke-linecap:round; stroke-width:0.25;"/>
<line x1="10.000000" y1="146.000000" x2="20.000000" y2="146.000000"  style="stroke:black; stroke-linecap:round; stroke-width:0.25;"/>
<line x1="20.000000" y1="138.000000" x2="24.000000" y2="138.000000"  style="stroke:black; stroke-linecap:round; stroke-width:0.25;"/>
<line x1="20.000000" y1="146.000000" x2="24.000000" y2="146.000000"  style="stroke:black; stroke-linecap:round; stroke-width:0.25;"/>
<line x1="24.000000" y1="138.000000" x2="28.000000" y2="138.000000"  style="stroke:black; stroke-linecap:round; stroke-width:0.25;"/>
<line x1="24.000000" y1="146.000000" x2="28.000000" y2="146.000000"  style="stroke:black; stroke-linecap:round; stroke-width:0.25;"/>
<line x1="28.000000" y1="70.000000" x2="36.000000" y2="70.000000"  style="stroke:black; stroke-linecap:round; stroke-width:0.25;"/>
<line x1="28.000000" y1="138.000000" x2="28.000000" y2="70.000000"  style="stroke:black; stroke-linecap:round; stroke-width:0.25;"/>
<line x1="28.000000" y1="138.000000" x2="28.000000" y2="138.000000"  style="stroke:black; stroke-linecap:round; stroke-width:0.25;"/>
<line x1="28.000000" y1="146.000000" x2="36.000000" y2="146.000000"  style="stroke:black; stroke-linecap:round; stroke-width:0.25;"/>
<line x1="36.000000" y1="146.000000" x2="36.000000" y2="182.000000"  style="stroke:black; stroke-linecap:round; stroke-width:0.25;"/>
<line x1="36.000000" y1="182.000000" x2="36.000000" y2="182.000000"  style="stroke:black; stroke-linecap:round; stroke-width:0.25;"/>
<line x1="36.000000" y1="70.000000" x2="46.000000" y2="70.000000"  style="stroke:black; stroke-linecap:round; stroke-width:0.25;"/>
<line x1="36.000000" y1="182.000000" x2="46.000000" y2="182.000000"  style="stroke:black; stroke-linecap:round; stroke-width:0.25;"/>
<line x1="46.000000" y1="70.000000" x2="56.000000" y2="70.000000"  style="stroke:black; stroke-linecap:round; stroke-width:0.25;"/>
<line x1="46.000000" y1="182.000000" x2="56.000000" y2="182.000000"  style="stroke:black; stroke-linecap:round; stroke-width:0.25;"/>
<line x1="56.000000" y1="70.000000" x2="182.550000" y2="70.000000"  style="stroke:black; stroke-linecap:round; stroke-width:0.25;"/>
<line x1="56.000000" y1="182.000000" x2="182.550000" y2="182.000000"  style="stroke:black; stroke-linecap:round; stroke-width:0.25;"/>
<line x1="182.550000" y1="70.000000" x2="309.100000" y2="70.000000"  style="stroke:black; stroke-linecap:round; stroke-width:0.25;"/>
<line x1="182.550000" y1="182.000000" x2="309.100000" y2="182.000000"  style="stroke:black; stroke-linecap:round; stroke-width:0.25;"/>
<line x1="305.100000" y1="90.000000" x2="309.100000" y2="90.000000"  style="stroke:black; stroke-linecap:round; stroke-width:0.25;"/>
<line x1="305.100000" y1="202.000000" x2="309.100000" y2="202.000000"  style="stroke:black; stroke-linecap:round; stroke-width:0.25;"/>
<line x1="309.100000" y1="70.000000" x2="317.100000" y2="70.000000"  style="stroke:black; stroke-linecap:round; stroke-width:0.25;"/>
<line x1="309.100000" y1="90.000000" x2="317.100000" y2="90.000000"  style="stroke:black; stroke-linecap:round; stroke-width:0.25;"/>
<line x1="309.100000" y1="182.000000" x2="317.100000" y2="182.000000"  style="stroke:black; stroke-linecap:round; stroke-width:0.25;"/>
<line x1="309.100000" y1="202.000000" x2="317.100000" y2="202.000000"  style="stroke:black; stroke-linecap:round; stroke-width:0.25;"/>
<line x1="317.100000" y1="70.000000" x2="317.100000" y2="82.000000"  style="stroke:black; stroke-linecap:round; stroke-width:0.25;"/>
<line x1="317.100000" y1="82.000000" x2="317.100000" y2="82.000000"  style="stroke:black; stroke-linecap:round; stroke-width:0.25;"/>
<line x1="317.100000" y1="82.000000" x2="321.100000" y2="82.000000"  style="stroke:black; stroke-linecap:round; stroke-width:0.25;"/>
<line x1="317.100000" y1="90.000000" x2="321.100000" y2="90.000000"  style="stroke:black; stroke-linecap:round; stroke-width:0.25;"/>
<line x1="317.100000" y1="182.000000" x2="317.100000" y2="194.000000"  style="stroke:black; stroke-linecap:round; stroke-width:0.25;"/>
<line x1="317.100000" y1="194.000000" x2="317.100000" y2="194.000000"  style="stroke:black; stroke-linecap:round; stroke-width:0.25;"/>
<line x1="317.100000" y1="194.000000" x2="321.100000" y2="194.000000"  style="stroke:black; stroke-linecap:round; stroke-width:0.25;"/>
<line x1="317.100000" y1="202.000000" x2="321.100000" y2="202.000000"  style="stroke:black; stroke-linecap:round; stroke-width:0.25;"/>
<line x1="345.100000" y1="86.000000" x2="349.100000" y2="86.000000"  style="stroke:black; stroke-linecap:round; stroke-width:0.25;"/>
<line x1="345.100000" y1="198.000000" x2="349.100000" y2="198.000000"  style="stroke:black; stroke-linecap:round; stroke-width:0.25;"/>
<line x1="349.100000" y1="54.000000" x2="357.100000" y2="54.000000"  style="stroke:black; stroke-linecap:round; stroke-width:0.25;"/>
<line x1="349.100000" y1="86.000000" x2="349.100000" y2="54.000000"  style="stroke:black; stroke-linecap:round; stroke-width:0.25;"/>
<line x1="349.100000" y1="86.000000" x2="349.100000" y2="86.000000"  style="stroke:black; stroke-linecap:round; stroke-width:0.25;"/>
<line x1="349.100000" y1="166.000000" x2="357.100000" y2="166.000000"  style="stroke:black; stroke-linecap:round; stroke-width:0.25;"/>
<line x1="349.100000" y1="198.000000" x2="349.100000" y2="166.000000"  style="stroke:black; stroke-linecap:round; stroke-width:0.25;"/>
<line x1="349.100000" y1="198.000000" x2="349.100000" y2="198.000000"  style="stroke:black; stroke-linecap:round; stroke-width:0.25;"/>
<line x1="357.100000" y1="54.000000" x2="367.100000" y2="54.000000"  style="stroke:black; stroke-linecap:round; stroke-width:0.25;"/>
<line x1="357.100000" y1="166.000000" x2="367.100000" y2="166.000000"  style="stroke:black; stroke-linecap:round; stroke-width:0.25;"/>
<line x1="367.100000" y1="54.000000" x2="423.350000" y2="54.000000"  style="stroke:black; stroke-linecap:round; stroke-width:0.25;"/>
<line x1="367.100000" y1="166.000000" x2="423.350000" y2="166.000000"  style="stroke:black; stroke-linecap:round; stroke-width:0.25;"/>
<line x1="415.350000" y1="74.000000" x2="419.350000" y2="74.000000"  style="stroke:black; stroke-linecap:round; stroke-width:0.25;"/>
<line x1="415.350000" y1="186.000000" x2="419.350000" y2="186.000000"  style="stroke:black; stroke-linecap:round; stroke-width:0.25;"/>
<line x1="419.350000" y1="74.000000" x2="439.600000" y2="74.000000"  style="stroke:black; stroke-linecap:round; stroke-width:0.25;"/>
<line x1="419.350000" y1="186.000000" x2="439.600000" y2="186.000000"  style="stroke:black; stroke-linecap:round; stroke-width:0.25;"/>
<line x1="423.350000" y1="54.000000" x2="479.600000" y2="54.000000"  style="stroke:black; stroke-linecap:round; stroke-width:0.25;"/>
<line x1="423.350000" y1="166.000000" x2="479.600000" y2="166.000000"  style="stroke:black; stroke-linecap:round; stroke-width:0.25;"/>
<line x1="435.600000" y1="106.000000" x2="439.600000" y2="106.000000"  style="stroke:black; stroke-linecap:round; stroke-width:0.25;"/>
<line x1="435.600000" y1="218.000000" x2="439.600000" y2="218.000000"  style="stroke:black; stroke-linecap:round; stroke-width:0.25;"/>
<line x1="439.600000" y1="74.000000" x2="447.600000" y2="74.000000"  style="stroke:black; stroke-linecap:round; stroke-width:0.25;"/>
<line x1="439.600000" y1="94.000000" x2="447.600000" y2="94.000000"  style="stroke:black; stroke-linecap:round; stroke-width:0.25;"/>
<line x1="439.600000" y1="106.000000" x2="439.600000" y2="94.000000"  style="stroke:black; stroke-linecap:round; stroke-width:0.25;"/>
<line x1="439.600000" y1="106.000000" x2="439.600000" y2="106.000000"  style="stroke:black; stroke-linecap:round; stroke-width:0.25;"/>
<line x1="439.600000" y1="186.000000" x2="447.600000" y2="186.000000"  style="stroke:black; stroke-linecap:round; stroke-width:0.25;"/>
<line x1="439.600000" y1="206.000000" x2="447.600000" y2="206.000000"  style="stroke:black; stroke-linecap:round; stroke-width:0.25;"/>
<line x1="439.600000" y1="218.000000" x2="439.600000" y2="206.000000"  style="stroke:black; stroke-linecap:round; stroke-width:0.25;"/>
<line x1="439.600000" y1="218.000000" x2="439.600000" y2="218.000000"  style="stroke:black; stroke-linecap:round; stroke-width:0.25;"/>
<line x1="447.600000" y1="74.000000" x2="447.600000" y2="86.000000"  style="stroke:black; stroke-linecap:round; stroke-width:0.25;"/>
<line x1="447.600000" y1="86.000000" x2="447.600000" y2="86.000000"  style="stroke:black; stroke-linecap:round; stroke-width:0.25;"/>
<line x1="447.600000" y1="86.000000" x2="451.600000" y2="86.000000"  style="stroke:black; stroke-linecap:round; stroke-width:0.25;"/>
<line x1="447.600000" y1="94.000000" x2="451.600000" y2="94.000000"  style="stroke:black; stroke-linecap:round; stroke-width:0.25;"/>
<line x1="447.600000" y1="186.000000" x2="447.600000" y2="198.000000"  style="stroke:black; stroke-linecap:round; stroke-width:0.25;"/>
<line x1="447.600000" y1="198.000000" x2="447.600000" y2="198.000000"  style="stroke:black; stroke-linecap:round; stroke-width:0.25;"/>
<line x1="447.600000" y1="198.000000" x2="451.600000" y2="198.000000"  style="stroke:black; stroke-linecap:round; stroke-width:0.25;"/>
<line x1="447.600000" y1="206.000000" x2="451.600000" y2="206.000000"  style="stroke:black; stroke-linecap:round; stroke-width:0.25;"/>
<line x1="475.600000" y1="90.000000" x2="479.600000" y2="90.000000"  style="stroke:black; stroke-linecap:round; stroke-width:0.25;"/>
<line x1="475.600000" y1="202.000000" x2="479.600000" y2="202.000000"  style="stroke:black; stroke-linecap:round; stroke-width:0.25;"/>
<line x1="479.600000" y1="54.000000" x2="487.600000" y2="54.000000"  style="stroke:black; stroke-linecap:round; stroke-width:0.25;"/>
<line x1="479.600000" y1="90.000000" x2="487.600000" y2="90.000000"  style="stroke:black; stroke-linecap:round; stroke-width:0.25;"/>
<line x1="479.600000" y1="166.000000" x2="487.600000" y2="166.000000"  style="stroke:black; stroke-linecap:round; stroke-width:0.25;"/>
<line x1="479.600000" y1="202.000000" x2="487.600000" y2="202.000000"  style="stroke:black; stroke-linecap:round; stroke-width:0.25;"/>
<line x1="487.600000" y1="54.000000" x2="487.600000" y2="82.000000"  style="stroke:black; stroke-linecap:round; stroke-width:0.25;"/>
<line x1="487.600000" y1="82.000000" x2="487.600000" y2="82.000000"  style="stroke:black; stroke-linecap:round; stroke-width:0.25;"/>
<line x1="487.600000" y1="82.000000" x2="491.600000" y2="82.000000"  style="stroke:black; stroke-linecap:round; stroke-width:0.25;"/>
<line x1="487.600000" y1="90.000000" x2="491.600000" y2="90.000000"  style="stroke:black; stroke-linecap:round; stroke-width:0.25;"/>
<line x1="487.600000" y1="166.000000" x2="487.600000" y2="194.000000"  style="stroke:black; stroke-linecap:round; stroke-width:0.25;"/>
<line x1="487.600000" y1="194.000000" x2="487.600000" y2="194.000000"  style="stroke:black; stroke-linecap:round; stroke-width:0.25;"/>
<line x1="487.600000" y1="194.000000" x2="491.600000" y2="194.000000"  style="stroke:black; stroke-linecap:round; stroke-width:0.25;"/>
<line x1="487.600000" y1="202.000000" x2="491.600000" y2="202.000000"  style="stroke:black; stroke-linecap:round; stroke-width:0.25;"/>
<line x1="515.600000" y1="86.000000" x2="519.600000" y2="86.000000"  style="stroke:black; stroke-linecap:round; stroke-width:0.25;"/>
<line x1="515.600000" y1="198.000000" x2="519.600000" y2="198.000000"  style="stroke:black; stroke-linecap:round; stroke-width:0.25;"/>
<line x1="519.600000" y1="86.000000" x2="529.600000" y2="86.000000"  style="stroke:black; stroke-linecap:round; stroke-width:0.25;"/>
<line x1="519.600000" y1="198.000000" x2="529.600000" y2="198.000000"  style="stroke:black; stroke-linecap:round; stroke-width:0.25;"/>
<line x1="529.600000" y1="86.000000" x2="539.600000" y2="86.000000"  style="stroke:black; stroke-linecap:round; stroke-width:0.25;"/>
<line x1="529.600000" y1="198.000000" x2="539.600000" y2="198.000000"  style="stroke:black; stroke-linecap:round; stroke-width:0.25;"/>
<line x1="539.600000" y1="86.000000" x2="549.600000" y2="86.000000"  style="stroke:black; stroke-linecap:round; stroke-width:0.25;"/>
<line x1="539.600000" y1="198.000000" x2="549.600000" y2="198.000000"  style="stroke:black; stroke-linecap:round; stroke-width:0.25;"/>
<line x1="549.600000" y1="86.000000" x2="557.600000" y2="86.000000"  style="stroke:black; stroke-linecap:round; stroke-width:0.25;"/>
<line x1="549.600000" y1="146.000000" x2="557.600000" y2="146.000000"  style="stroke:black; stroke-linecap:round; stroke-width:0.25;"/>
<line x1="549.600000" y1="198.000000" x2="549.600000" y2="146.000000"  style="stroke:black; stroke-linecap:round; stroke-width:0.25;"/>
<line x1="549.600000" y1="198.000000" x2="549.600000" y2="198.000000"  style="stroke:black; stroke-linecap:round; stroke-width:0.25;"/>
<line x1="557.600000" y1="86.000000" x2="557.600000" y2="138.000000"  style="stroke:black; stroke-linecap:round; stroke-width:0.25;"/>
<line x1="557.600000" y1="138.000000" x2="557.600000" y2="138.000000"  style="stroke:black; stroke-linecap:round; stroke-width:0.25;"/>
<line x1="557.600000" y1="138.000000" x2="561.600000" y2="138.000000"  style="stroke:black; stroke-linecap:round; stroke-width:0.25;"/>
<line x1="557.600000" y1="146.000000" x2="561.600000" y2="146.000000"  style="stroke:black; stroke-linecap:round; stroke-width:0.25;"/>
<line x1="561.600000" y1="138.000000" x2="565.600000" y2="138.000000"  style="stroke:black; stroke-linecap:round; stroke-width:0.25;"/>
<line x1="561.600000" y1="146.000000" x2="565.600000" y2="146.000000"  style="stroke:black; stroke-linecap:round; stroke-width:0.25;"/>
<line x1="565.600000" y1="138.000000" x2="575.600000" y2="138.000000"  style="stroke:black; stroke-linecap:round; stroke-width:0.25;"/>
<line x1="565.600000" y1="146.000000" x2="575.600000" y2="146.000000"  style="stroke:black; stroke-linecap:round; stroke-width:0.25;"/>
</svg>
