<?xml version="1.0"?>
<svg xmlns="http://www.w3.org/2000/svg" xmlns:xlink="http://www.w3.org/1999/xlink" viewBox="0 0 323.700000 188.000000" width="161.850000mm" height="94.000000mm" version="1.1">
<rect x="1.000000" y="1.000000" width="322.700000" height="187.000000" rx="0" ry="0" style="stroke:none;fill:#cccccc;"/>
<rect x="0.000000" y="0.000000" width="322.700000" height="187.000000" rx="0" ry="0" style="stroke:none;fill:#ffffff;"/>
<text x="10.000000" y="7.000000" font-family="Arial" font-size="7"></text>
<a xlink:href="osc-0x7f76cc29ea10.svg">
<rect x="54.350000" y="25.000000" width="129.000000" height="24.000000" rx="0" ry="0" style="stroke:none;fill:#cccccc;"/>
<rect x="53.350000" y="24.000000" width="129.000000" height="24.000000" rx="0" ry="0" style="stroke:none;fill:#003366;"/>
</a>
<a xlink:href="osc-0x7f76cc29ea10.svg">
<text x="117.850000" y="38.000000" font-family="Arial" font-size="7" text-anchor="middle" fill="#FFFFFF">osc(hslider(&quot;...e+03f, 0.1f))</text>
</a>
<circle cx="55.350000" cy="26.000000" r="1"/>
<rect x="105.950000" y="57.000000" width="25.800000" height="24.000000" rx="0" ry="0" style="stroke:none;fill:#cccccc;"/>
<rect x="104.950000" y="56.000000" width="25.800000" height="24.000000" rx="0" ry="0" style="stroke:none;fill:#f44800;"/>
<text x="117.850000" y="70.000000" font-family="Arial" font-size="7" text-anchor="middle" fill="#FFFFFF">0.1f</text>
<circle cx="106.950000" cy="58.000000" r="1"/>
<rect x="199.350000" y="41.000000" width="24.000000" height="24.000000" rx="0" ry="0" style="stroke:none;fill:#cccccc;"/>
<rect x="198.350000" y="40.000000" width="24.000000" height="24.000000" rx="0" ry="0" style="stroke:none;fill:#4B71A1;"/>
<text x="210.350000" y="54.000000" font-family="Arial" font-size="7" text-anchor="middle" fill="#FFFFFF">*</text>
<circle cx="200.350000" cy="42.000000" r="1"/>
<line x1="195.350000" y1="47.000000" x2="198.350000" y2="48.000000"  transform="rotate(0.000000,198.350000,48.000000)" style="stroke: black; stroke-width:0.25;"/>
<line x1="195.350000" y1="49.000000" x2="198.350000" y2="48.000000"  transform="rotate(0.000000,198.350000,48.000000)" style="stroke: black; stroke-width:0.25;"/>
<line x1="195.350000" y1="55.000000" x2="198.350000" y2="56.000000"  transform="rotate(0.000000,198.350000,56.000000)" style="stroke: black; stroke-width:0.25;"/>
<line x1="195.350000" y1="57.000000" x2="198.350000" y2="56.000000"  transform="rotate(0.000000,198.350000,56.000000)" style="stroke: black; stroke-width:0.25;"/>
<rect x="35.000000" y="99.000000" width="167.700000" height="24.000000" rx="0" ry="0" style="stroke:none;fill:#cccccc;"/>
<rect x="34.000000" y="98.000000" width="167.700000" height="24.000000" rx="0" ry="0" style="stroke:none;fill:#477881;"/>
<text x="117.850000" y="112.000000" font-family="Arial" font-size="7" text-anchor="middle" fill="#FFFFFF">hslider(vel, 0.0f, 0.0f, 127.0f, 1.0f)</text>
<circle cx="36.000000" cy="100.000000" r="1"/>
<line x1="25.000000" y1="89.000000" x2="25.000000" y2="131.000000"  style="stroke: black; stroke-linecap:round; stroke-width:0.25; stroke-dasharray:3,3;"/>
<line x1="25.000000" y1="131.000000" x2="210.700000" y2="131.000000"  style="stroke: black; stroke-linecap:round; stroke-width:0.25; stroke-dasharray:3,3;"/>
<line x1="210.700000" y1="131.000000" x2="210.700000" y2="89.000000"  style="stroke: black; stroke-linecap:round; stroke-width:0.25; stroke-dasharray:3,3;"/>
<line x1="25.000000" y1="89.000000" x2="30.000000" y2="89.000000"  style="stroke: black; stroke-linecap:round; stroke-width:0.25; stroke-dasharray:3,3;"/>
<line x1="46.125000" y1="89.000000" x2="210.700000" y2="89.000000"  style="stroke: black; stroke-linecap:round; stroke-width:0.25; stroke-dasharray:3,3;"/>
<text x="30.000000" y="91.000000" font-family="Arial" font-size="7">vel</text>
<rect x="106.850000" y="141.000000" width="24.000000" height="24.000000" rx="0" ry="0" style="stroke:none;fill:#cccccc;"/>
<rect x="105.850000" y="140.000000" width="24.000000" height="24.000000" rx="0" ry="0" style="stroke:none;fill:#f44800;"/>
<text x="117.850000" y="154.000000" font-family="Arial" font-size="7" text-anchor="middle" fill="#FFFFFF">127</text>
<circle cx="107.850000" cy="142.000000" r="1"/>
<rect x="228.700000" y="115.000000" width="24.000000" height="24.000000" rx="0" ry="0" style="stroke:none;fill:#cccccc;"/>
<rect x="227.700000" y="114.000000" width="24.000000" height="24.000000" rx="0" ry="0" style="stroke:none;fill:#4B71A1;"/>
<text x="239.700000" y="128.000000" font-family="Arial" font-size="7" text-anchor="middle" fill="#FFFFFF">/</text>
<circle cx="229.700000" cy="116.000000" r="1"/>
<line x1="224.700000" y1="121.000000" x2="227.700000" y2="122.000000"  transform="rotate(0.000000,227.700000,122.000000)" style="stroke: black; stroke-width:0.25;"/>
<line x1="224.700000" y1="123.000000" x2="227.700000" y2="122.000000"  transform="rotate(0.000000,227.700000,122.000000)" style="stroke: black; stroke-width:0.25;"/>
<line x1="224.700000" y1="129.000000" x2="227.700000" y2="130.000000"  transform="rotate(0.000000,227.700000,130.000000)" style="stroke: black; stroke-width:0.25;"/>
<line x1="224.700000" y1="131.000000" x2="227.700000" y2="130.000000"  transform="rotate(0.000000,227.700000,130.000000)" style="stroke: black; stroke-width:0.25;"/>
<rect x="268.700000" y="83.000000" width="24.000000" height="24.000000" rx="0" ry="0" style="stroke:none;fill:#cccccc;"/>
<rect x="267.700000" y="82.000000" width="24.000000" height="24.000000" rx="0" ry="0" style="stroke:none;fill:#4B71A1;"/>
<text x="279.700000" y="96.000000" font-family="Arial" font-size="7" text-anchor="middle" fill="#FFFFFF">*</text>
<circle cx="269.700000" cy="84.000000" r="1"/>
<line x1="264.700000" y1="89.000000" x2="267.700000" y2="90.000000"  transform="rotate(0.000000,267.700000,90.000000)" style="stroke: black; stroke-width:0.25;"/>
<line x1="264.700000" y1="91.000000" x2="267.700000" y2="90.000000"  transform="rotate(0.000000,267.700000,90.000000)" style="stroke: black; stroke-width:0.25;"/>
<line x1="264.700000" y1="97.000000" x2="267.700000" y2="98.000000"  transform="rotate(0.000000,267.700000,98.000000)" style="stroke: black; stroke-width:0.25;"/>
<line x1="264.700000" y1="99.000000" x2="267.700000" y2="98.000000"  transform="rotate(0.000000,267.700000,98.000000)" style="stroke: black; stroke-width:0.25;"/>
<line x1="15.000000" y1="15.000000" x2="15.000000" y2="173.000000"  style="stroke: black; stroke-linecap:round; stroke-width:0.25; stroke-dasharray:3,3;"/>
<line x1="15.000000" y1="173.000000" x2="308.700000" y2="173.000000"  style="stroke: black; stroke-linecap:round; stroke-width:0.25; stroke-dasharray:3,3;"/>
<line x1="308.700000" y1="173.000000" x2="308.700000" y2="15.000000"  style="stroke: black; stroke-linecap:round; stroke-width:0.25; stroke-dasharray:3,3;"/>
<line x1="15.000000" y1="15.000000" x2="20.000000" y2="15.000000"  style="stroke: black; stroke-linecap:round; stroke-width:0.25; stroke-dasharray:3,3;"/>
<line x1="49.025000" y1="15.000000" x2="308.700000" y2="15.000000"  style="stroke: black; stroke-linecap:round; stroke-width:0.25; stroke-dasharray:3,3;"/>
<text x="20.000000" y="17.000000" font-family="Arial" font-size="7">process</text>
<line x1="310.700000" y1="93.000000" x2="313.700000" y2="94.000000"  transform="rotate(0.000000,313.700000,94.000000)" style="stroke: black; stroke-width:0.25;"/>
<line x1="310.700000" y1="95.000000" x2="313.700000" y2="94.000000"  transform="rotate(0.000000,313.700000,94.000000)" style="stroke: black; stroke-width:0.25;"/>
<line x1="129.850000" y1="152.000000" x2="133.850000" y2="152.000000"  style="stroke:black; stroke-linecap:round; stroke-width:0.25;"/>
<line x1="130.750000" y1="68.000000" x2="134.750000" y2="68.000000"  style="stroke:black; stroke-linecap:round; stroke-width:0.25;"/>
<line x1="133.850000" y1="152.000000" x2="215.700000" y2="152.000000"  style="stroke:black; stroke-linecap:round; stroke-width:0.25;"/>
<line x1="134.750000" y1="68.000000" x2="186.350000" y2="68.000000"  style="stroke:black; stroke-linecap:round; stroke-width:0.25;"/>
<line x1="182.350000" y1="36.000000" x2="186.350000" y2="36.000000"  style="stroke:black; stroke-linecap:round; stroke-width:0.25;"/>
<line x1="186.350000" y1="36.000000" x2="194.350000" y2="36.000000"  style="stroke:black; stroke-linecap:round; stroke-width:0.25;"/>
<line x1="186.350000" y1="56.000000" x2="194.350000" y2="56.000000"  style="stroke:black; stroke-linecap:round; stroke-width:0.25;"/>
<line x1="186.350000" y1="68.000000" x2="186.350000" y2="56.000000"  style="stroke:black; stroke-linecap:round; stroke-width:0.25;"/>
<line x1="186.350000" y1="68.000000" x2="186.350000" y2="68.000000"  style="stroke:black; stroke-linecap:round; stroke-width:0.25;"/>
<line x1="194.350000" y1="36.000000" x2="194.350000" y2="48.000000"  style="stroke:black; stroke-linecap:round; stroke-width:0.25;"/>
<line x1="194.350000" y1="48.000000" x2="194.350000" y2="48.000000"  style="stroke:black; stroke-linecap:round; stroke-width:0.25;"/>
<line x1="194.350000" y1="48.000000" x2="198.350000" y2="48.000000"  style="stroke:black; stroke-linecap:round; stroke-width:0.25;"/>
<line x1="194.350000" y1="56.000000" x2="198.350000" y2="56.000000"  style="stroke:black; stroke-linecap:round; stroke-width:0.25;"/>
<line x1="201.700000" y1="110.000000" x2="205.700000" y2="110.000000"  style="stroke:black; stroke-linecap:round; stroke-width:0.25;"/>
<line x1="205.700000" y1="110.000000" x2="215.700000" y2="110.000000"  style="stroke:black; stroke-linecap:round; stroke-width:0.25;"/>
<line x1="215.700000" y1="110.000000" x2="223.700000" y2="110.000000"  style="stroke:black; stroke-linecap:round; stroke-width:0.25;"/>
<line x1="215.700000" y1="130.000000" x2="223.700000" y2="130.000000"  style="stroke:black; stroke-linecap:round; stroke-width:0.25;"/>
<line x1="215.700000" y1="152.000000" x2="215.700000" y2="130.000000"  style="stroke:black; stroke-linecap:round; stroke-width:0.25;"/>
<line x1="215.700000" y1="152.000000" x2="215.700000" y2="152.000000"  style="stroke:black; stroke-linecap:round; stroke-width:0.25;"/>
<line x1="222.350000" y1="52.000000" x2="226.350000" y2="52.000000"  style="stroke:black; stroke-linecap:round; stroke-width:0.25;"/>
<line x1="223.700000" y1="110.000000" x2="223.700000" y2="122.000000"  style="stroke:black; stroke-linecap:round; stroke-width:0.25;"/>
<line x1="223.700000" y1="122.000000" x2="223.700000" y2="122.000000"  style="stroke:black; stroke-linecap:round; stroke-width:0.25;"/>
<line x1="223.700000" y1="122.000000" x2="227.700000" y2="122.000000"  style="stroke:black; stroke-linecap:round; stroke-width:0.25;"/>
<line x1="223.700000" y1="130.000000" x2="227.700000" y2="130.000000"  style="stroke:black; stroke-linecap:round; stroke-width:0.25;"/>
<line x1="226.350000" y1="52.000000" x2="255.700000" y2="52.000000"  style="stroke:black; stroke-linecap:round; stroke-width:0.25;"/>
<line x1="251.700000" y1="126.000000" x2="255.700000" y2="126.000000"  style="stroke:black; stroke-linecap:round; stroke-width:0.25;"/>
<line x1="255.700000" y1="52.000000" x2="263.700000" y2="52.000000"  style="stroke:black; stroke-linecap:round; stroke-width:0.25;"/>
<line x1="255.700000" y1="98.000000" x2="263.700000" y2="98.000000"  style="stroke:black; stroke-linecap:round; stroke-width:0.25;"/>
<line x1="255.700000" y1="126.000000" x2="255.700000" y2="98.000000"  style="stroke:black; stroke-linecap:round; stroke-width:0.25;"/>
<line x1="255.700000" y1="126.000000" x2="255.700000" y2="126.000000"  style="stroke:black; stroke-linecap:round; stroke-width:0.25;"/>
<line x1="263.700000" y1="52.000000" x2="263.700000" y2="90.000000"  style="stroke:black; stroke-linecap:round; stroke-width:0.25;"/>
<line x1="263.700000" y1="90.000000" x2="263.700000" y2="90.000000"  style="stroke:black; stroke-linecap:round; stroke-width:0.25;"/>
<line x1="263.700000" y1="90.000000" x2="267.700000" y2="90.000000"  style="stroke:black; stroke-linecap:round; stroke-width:0.25;"/>
<line x1="263.700000" y1="98.000000" x2="267.700000" y2="98.000000"  style="stroke:black; stroke-linecap:round; stroke-width:0.25;"/>
<line x1="291.700000" y1="94.000000" x2="295.700000" y2="94.000000"  style="stroke:black; stroke-linecap:round; stroke-width:0.25;"/>
<line x1="295.700000" y1="94.000000" x2="295.700000" y2="94.000000"  style="stroke:black; stroke-linecap:round; stroke-width:0.25;"/>
<line x1="295.700000" y1="94.000000" x2="299.700000" y2="94.000000"  style="stroke:black; stroke-linecap:round; stroke-width:0.25;"/>
<line x1="299.700000" y1="94.000000" x2="303.700000" y2="94.000000"  style="stroke:black; stroke-linecap:round; stroke-width:0.25;"/>
<line x1="303.700000" y1="94.000000" x2="313.700000" y2="94.000000"  style="stroke:black; stroke-linecap:round; stroke-width:0.25;"/>
</svg>
